<?xml version="1.0" standalone="no"?>
<!DOCTYPE svg PUBLIC "-//W3C//DTD SVG 20010904//EN" "http://www.w3.org/TR/2001/REC-SVG-20010904/DTD/svg10.dtd">
<!-- Created using Karbon, part of Calligra: http://www.calligra.org/karbon -->
<svg xmlns="http://www.w3.org/2000/svg" xmlns:xlink="http://www.w3.org/1999/xlink" width="38.4pt" height="38.4pt">
<defs/>
<g id="layer1">
  <path id="rect4090" transform="translate(7, 4)" fill="#7f8c8d" d="M0 0L0 40L34 40L34 11L23 0Z"/>
  <path id="shape0" transform="translate(13.3897, 19.2344)" fill="#ffffff" d="M0 3.55656e-15C0 5.19686 0 10.3937 0 15.5906C1.63714 15.5906 3.27427 15.5906 4.91141 15.5906C4.91141 15.2003 4.91141 14.81 4.91141 14.4197C3.64063 14.4197 2.36984 14.4197 1.09906 14.4197C1.09906 10.024 1.09906 5.62822 1.09906 1.23246C2.36984 1.23246 3.64063 1.23246 4.91141 1.23246C4.91141 0.821638 4.91141 0.410819 4.91141 0C3.27427 0 1.63714 0 0 3.55656e-15ZM12.5533 4.35468C11.9064 5.51867 11.2596 6.68265 10.6128 7.84664C9.92013 6.68265 9.2275 5.51867 8.53486 4.35468C8.08837 4.35468 7.64188 4.35468 7.19539 4.35468C8.09982 5.9021 9.00425 7.44952 9.90868 8.99694C8.98708 10.5854 8.06547 12.1739 7.14387 13.7624C7.60753 13.7624 8.0712 13.7624 8.53486 13.7624C9.22177 12.5437 9.90868 11.3249 10.5956 10.1061C11.3169 11.3249 12.0381 12.5437 12.7594 13.7624C13.2288 13.7624 13.6981 13.7624 14.1675 13.7624C13.2059 12.1534 12.2442 10.5444 11.2825 8.93531C12.1297 7.40843 12.9769 5.88156 13.8241 4.35468C13.4005 4.35468 12.9769 4.35468 12.5533 4.35468ZM21.2599 0C19.6227 0 17.9856 0 16.3485 0C16.3485 0.410819 16.3485 0.821638 16.3485 1.23246C17.625 1.23246 18.9015 1.23246 20.178 1.23246C20.178 5.62822 20.178 10.024 20.178 14.4197C18.9015 14.4197 17.625 14.4197 16.3485 14.4197C16.3485 14.81 16.3485 15.2003 16.3485 15.5906C17.9856 15.5906 19.6227 15.5906 21.2599 15.5906C21.2599 10.3937 21.2599 5.19686 21.2599 0Z"/>
  <path id="path4151" transform="matrix(3.54331 0 0 3.54331 29.9999 3.99986)" fill="#95a5a6" d="M0 0L0 3.10449L3.10446 3.10449Z"/>
  <path id="path4252" transform="matrix(3.54331 0 0 3.54331 29.9999 15)" fill="#000000" fill-opacity="0.11764705882" d="M3.10446 3.10449L3.10446 0L0 0Z"/>
 </g>
</svg>
