<?xml version="1.0" standalone="no"?>
<!DOCTYPE svg PUBLIC "-//W3C//DTD SVG 20010904//EN" "http://www.w3.org/TR/2001/REC-SVG-20010904/DTD/svg10.dtd">
<!-- Created using Karbon, part of Calligra: http://www.calligra.org/karbon -->
<svg xmlns="http://www.w3.org/2000/svg" xmlns:xlink="http://www.w3.org/1999/xlink" width="38.4pt" height="38.4pt">
<defs/>
<g id="layer1">
  <path id="rect4090" transform="translate(7, 4)" fill="#ecf0f1" d="M0 0L0 40L34 40L34 11L23 0Z"/>
  <path id="path4151" transform="matrix(3.54331 0 0 3.54331 29.9999 3.99986)" fill="#fbfbfb" d="M0 0L0 3.10449L3.10446 3.10449Z"/>
  <rect id="shape0" transform="matrix(0.98986 -0.14205 0.14205 0.98986 11.1733 18.8913)" fill="#2c3e50" fill-rule="evenodd" stroke="#003bc3" stroke-width="0.00000000000" stroke-linecap="square" stroke-linejoin="miter" stroke-miterlimit="2.00000000000" width="19.79713183360pt" height="3.08636126439pt"/>
  <rect id="shape01" transform="translate(11.7162, 22.7341)" fill="#2c3e50" fill-rule="evenodd" stroke="#003bc3" stroke-width="0.00000000000" stroke-linecap="square" stroke-linejoin="miter" stroke-miterlimit="2.00000000000" width="19.79713183360pt" height="13.72854219885pt"/>
  <rect id="shape011" transform="matrix(1 0 -0.401961 1 33.3955 22.7341)" fill="#bdc3c7" fill-rule="evenodd" stroke="#003bc3" stroke-width="0.00000000000" stroke-linecap="square" stroke-linejoin="miter" stroke-miterlimit="2.00000000000" width="2.48526035914pt" height="3.09894312897pt"/>
  <rect id="shape1" transform="matrix(1 0 -0.401961 1 27.1929 22.7319)" fill="#bdc3c7" fill-rule="evenodd" stroke="#003bc3" stroke-width="0.00000000000" stroke-linecap="square" stroke-linejoin="miter" stroke-miterlimit="2.00000000000" width="2.48526035914pt" height="3.09894312897pt"/>
  <rect id="shape2" transform="matrix(1 0 -0.401961 1 21.0373 22.7341)" fill="#bdc3c7" fill-rule="evenodd" stroke="#003bc3" stroke-width="0.00000000000" stroke-linecap="square" stroke-linejoin="miter" stroke-miterlimit="2.00000000000" width="2.48526035914pt" height="3.09894312897pt"/>
  <rect id="shape3" transform="matrix(1 0 -0.401961 1 14.8319 22.7341)" fill="#bdc3c7" fill-rule="evenodd" stroke="#003bc3" stroke-width="0.00000000000" stroke-linecap="square" stroke-linejoin="miter" stroke-miterlimit="2.00000000000" width="2.48526035914pt" height="3.09894312897pt"/>
  <rect id="shape4" transform="matrix(-0.98986 0.14205 0.539935 0.932761 15.7792 18.2232)" fill="#bdc3c7" fill-rule="evenodd" stroke="#003bc3" stroke-width="0.00000000000" stroke-linecap="square" stroke-linejoin="miter" stroke-miterlimit="2.00000000000" width="2.48526035914pt" height="3.09894312897pt"/>
  <rect id="shape5" transform="matrix(-0.98986 0.14205 0.539935 0.932761 21.9284 17.3455)" fill="#bdc3c7" fill-rule="evenodd" stroke="#003bc3" stroke-width="0.00000000000" stroke-linecap="square" stroke-linejoin="miter" stroke-miterlimit="2.00000000000" width="2.48526035914pt" height="3.09894312897pt"/>
  <rect id="shape6" transform="matrix(-0.98986 0.14205 0.539935 0.932761 28.0305 16.4667)" fill="#bdc3c7" fill-rule="evenodd" stroke="#003bc3" stroke-width="0.00000000000" stroke-linecap="square" stroke-linejoin="miter" stroke-miterlimit="2.00000000000" width="2.48526035914pt" height="3.09894312897pt"/>
  <rect id="shape7" transform="matrix(-0.98986 0.14205 0.539935 0.932761 34.1803 15.5834)" fill="#bdc3c7" fill-rule="evenodd" stroke="#003bc3" stroke-width="0.00000000000" stroke-linecap="square" stroke-linejoin="miter" stroke-miterlimit="2.00000000000" width="2.48526035914pt" height="3.09894312897pt"/>
  <path id="path4252" transform="matrix(3.54331 0 0 3.54331 29.9999 15)" fill="#000000" fill-opacity="0.11764705882" d="M3.10446 3.10449L3.10446 0L0 0Z"/>
 </g>
</svg>
