<?xml version="1.0" standalone="no"?>
<!DOCTYPE svg PUBLIC "-//W3C//DTD SVG 20010904//EN" "http://www.w3.org/TR/2001/REC-SVG-20010904/DTD/svg10.dtd">
<!-- Created using Karbon, part of Calligra: http://www.calligra.org/karbon -->
<svg xmlns="http://www.w3.org/2000/svg" xmlns:xlink="http://www.w3.org/1999/xlink" width="38.4pt" height="38.4pt">
<defs/>
<g id="layer1">
  <path id="rect4090" transform="translate(7.00674, 4.01618)" fill="#f1c40f" d="M0 0L0 40L34 40L34 11L23 0Z"/>
  <path id="shape0" transform="translate(25.6062, 4.03856)" fill="#27ae60" fill-rule="evenodd" stroke="#003bc3" stroke-width="0.00000000000" stroke-linecap="square" stroke-linejoin="bevel" d="M0.171854 0L4.29634 0L15.2528 10.9564L15.2528 40.0422L10.1387 40.0422L9.03181 35.9114C11.0455 33.8438 12.0622 32.8271 12.0819 32.8613C12.1017 32.8955 11.6546 30.9354 10.7409 26.981L6.61637 24.9188L4.55413 21.8684L4.87637 18.4098L2.29856 17.3358L1.63261 14.2639L2.40595 9.10825L0 5.15561Z"/>
  <path id="path4151" transform="matrix(3.54331 0 0 3.54331 29.9999 3.99986)" fill="#2ecc71" d="M0 0L0 3.10449L3.10446 3.10449Z"/>
  <path id="path4252" transform="matrix(3.54331 0 0 3.54331 29.9999 15)" fill="#000000" fill-opacity="0.11764705882" d="M3.10446 3.10449L3.10446 0L0 0Z"/>
  <path id="shape1" transform="translate(7.00304, 4.01013)" fill="#2980b9" fill-rule="evenodd" stroke="#003bc3" stroke-width="0.00000000000" stroke-linecap="square" stroke-linejoin="bevel" d="M9.40204 0L16.0856 2.7766e-15L12.975 5.05516L12.8461 9.91003L15.9394 14.1634L14.1779 19.7487L15.5098 25.6776L20.9233 29.9962L23.8877 34.5281L25.907 40.0274L17.1024 39.9949L14.2639 33.2821L8.61216 31.5038L3.65189 27.2243L0 26.2791L0 23.5294L4.21042 24.4746L8.72158 28.1265L14.3928 29.888L9.92456 25.1621L9.28011 19.9635L10.0534 14.8938L6.82575 9.99873L7.46083 4.99937Z"/>
  <path id="shape2" transform="translate(6.98734, 3.9956)" fill="#27ae60" fill-rule="evenodd" stroke="#003bc3" stroke-width="0.00000000000" stroke-linecap="square" stroke-linejoin="bevel" d="M0.0334982 40.0042L0.0334982 0.0297156L4.09723 0L4.41757 4.94005L2.29573 12.8589L6.51444 20.1659L7.57727 24.4892L2.98018 20.6225L0.0479232 21.2132L0 32.4297C2.57873 32.3394 3.88718 32.3133 3.92538 32.3515C3.98266 32.4088 5.45774 32.7525 8.35061 33.3826L9.72544 35.4448L12.647 36.1323L13.2484 38.5382L11.8914 40.0042Z"/>
  <path id="shape3" transform="matrix(-3.14419e-17 1 -1 -3.14419e-17 37.636 25.7563)" fill="#e74c3c" fill-rule="evenodd" stroke="#003bc3" stroke-width="0.00000000000" stroke-linecap="square" stroke-linejoin="bevel" d="M0.000228565 4.33927C0.0219943 1.3815 1.55466 -0.000576696 4.12476 1.80513e-07C6.33508 0.0165876 9.42757 1.45621 13.8757 4.5119C9.638 7.37949 6.5462 8.59251 4.33958 8.67862C1.51183 8.5676 -0.0215371 7.29704 0.000228565 4.33927Z"/>
  <path id="shape4" transform="translate(30.952, 27.619)" fill="#ecf0f1" fill-rule="evenodd" stroke="#003bc3" stroke-width="0.00000000000" stroke-linecap="square" stroke-linejoin="miter" stroke-miterlimit="2.01260185242" d="M2.22948 0.00111724C0.966615 0.0414526 -0.0284396 1.12654 0.000620636 2.43164C0.0296808 3.73674 1.07198 4.7734 2.3353 4.75369C3.59862 4.73397 4.60931 3.62772 4.60021 2.32231C4.5512 1.01784 3.49234 -0.0392181 2.22948 0.00111724Z"/>
 </g>
</svg>
