<?xml version="1.0" standalone="no"?>
<!DOCTYPE svg PUBLIC "-//W3C//DTD SVG 20010904//EN" "http://www.w3.org/TR/2001/REC-SVG-20010904/DTD/svg10.dtd">
<!-- Created using Karbon, part of Calligra: http://www.calligra.org/karbon -->
<svg xmlns="http://www.w3.org/2000/svg" xmlns:xlink="http://www.w3.org/1999/xlink" width="38.4pt" height="38.4pt">
<defs/>
<g id="layer1">
  <path id="rect4090" transform="translate(7, 4)" style="fill:#ecf0f1" d="M0 0L0 40L34 40L34 11L23 0Z"/>
  <path id="path4151" transform="matrix(3.54331 0 0 3.54331 29.9999 3.99986)" style="fill:#ffffff" fill-opacity="0.75294117647" d="M0 0L0 3.10449L3.10446 3.10449Z"/>
  <path id="path4252" transform="matrix(3.54331 0 0 3.54331 29.9999 15)" style="fill:#000000" fill-opacity="0.11764705882" d="M3.10446 3.10449L3.10446 0L0 0Z"/>
  <path id="rect3325" transform="translate(17.8472, 15.0627)" style="fill:#f1c40f" fill-rule="evenodd" d="M12.8389 6.41947C12.8389 9.96481 9.9648 12.8389 6.41942 12.8389C2.87408 12.8389 0 9.96481 0 6.41947C0 2.87409 2.87408 0 6.41942 0C9.9648 2.22045e-15 12.8389 2.87409 12.8389 6.41947Z"/>
  <rect id="rect3329" transform="matrix(-6.66134e-16 3.54331 -3.54331 -6.66134e-16 26.1372 16.9543)" style="fill:#ecf0f1" fill-rule="evenodd" width="0.85816884578pt" height="0.85816884578pt" rx="0.42908442289pt" ry="0.42908442289pt"/>
  <path id="rect3331" transform="translate(21.3273, 27.1226)" style="fill:#f1c40f" fill-rule="evenodd" d="M2.88474 14.6783L0 12.9516L0 0C0.676495 0.312089 1.84337 0.720305 2.91575 0.704039C2.91911 0.703909 2.90878 5.36201 2.88474 14.6783Z"/>
  <path id="rect33311" transform="matrix(-1 0 0 1 27.1633 27.1197)" style="fill:#f39c12" fill-rule="evenodd" d="M2.95932 14.6834L0 12.956C0 12.5961 2.96059e-15 12.0811 8.88178e-15 11.4109L1.32113 10.0004L7.54952e-14 8.83306L8.88178e-15 8.39255L1.33187 7.01787L0 5.59002L1.34261 4.14698L0 2.85938C0 1.31302 0 0.35989 0 0C0.693984 0.312195 1.83127 0.723196 2.93137 0.706924C2.93482 0.706794 2.95243 5.35878 2.95932 14.6834Z"/>
 </g>
</svg>
