<?xml version="1.0" standalone="no"?>
<!DOCTYPE svg PUBLIC "-//W3C//DTD SVG 20010904//EN" "http://www.w3.org/TR/2001/REC-SVG-20010904/DTD/svg10.dtd">
<!-- Created using Karbon, part of Calligra: http://www.calligra.org/karbon -->
<svg xmlns="http://www.w3.org/2000/svg" xmlns:xlink="http://www.w3.org/1999/xlink" width="38.4pt" height="38.4pt">
<defs/>
<g id="layer1">
  <path id="rect4090" transform="translate(7, 4)" fill="#ecf0f1" d="M0 0L0 40L34 40L34 11L23 0Z"/>
  <path id="path4151" transform="matrix(3.54331 0 0 3.54331 29.9999 3.99986)" fill="#ffffff" fill-opacity="0.75294117647" d="M0 0L0 3.10449L3.10446 3.10449Z"/>
  <path id="path4252" transform="matrix(3.54331 0 0 3.54331 29.9999 15)" fill="#000000" fill-opacity="0.11764705882" d="M3.10446 3.10449L3.10446 0L0 0Z"/>
  <path id="shape0" transform="translate(13.8589, 15.0009)" fill="#e74c3c" d="M13.8774 2.33869C12.065 2.33869 10.2525 2.33869 8.44011 2.33869C8.44011 7.37985 8.44011 12.421 8.44011 17.4622C7.43917 17.4622 6.43819 17.4622 5.43727 17.4622C5.43727 12.421 5.43727 7.37985 5.43727 2.33869C3.62484 2.33869 1.81242 2.33869 0 2.33869C0 1.55913 0 0.779559 0 0C4.6258 0 9.25159 0 13.8774 0C13.8774 0.779559 13.8774 1.55913 13.8774 2.33869Z"/>
  <path id="shape01" transform="matrix(1 0 0 1 20.3055 20.2482)" fill="#2c3e50" d="M13.3277 2.28037C11.5871 2.28037 9.84643 2.28037 8.10585 2.28037C8.10585 7.19582 8.10585 12.1113 8.10585 17.0268C7.14455 17.0268 6.18321 17.0268 5.22191 17.0268C5.22191 12.1113 5.22191 7.19582 5.22191 2.28037C3.48127 2.28037 1.74064 2.28037 0 2.28037C0 1.52025 0 0.760124 0 0C4.44257 0 8.88513 0 13.3277 0C13.3277 0.760124 13.3277 1.52025 13.3277 2.28037Z"/>
 </g>
</svg>
