<?xml version="1.0" standalone="no"?>
<!DOCTYPE svg PUBLIC "-//W3C//DTD SVG 20010904//EN" "http://www.w3.org/TR/2001/REC-SVG-20010904/DTD/svg10.dtd">
<!-- Created using Karbon, part of Calligra: http://www.calligra.org/karbon -->
<svg xmlns="http://www.w3.org/2000/svg" xmlns:xlink="http://www.w3.org/1999/xlink" width="38.4pt" height="38.4pt">
<defs/>
<g id="layer1">
  <path id="rect4090" transform="translate(7, 4)" style="fill:#2980b9" d="M0 0L0 40L34 40L34 11L23 0Z"/>
  <path id="shape0" transform="translate(14.9882, 17.5748)" style="fill:#ffffff" d="M0 2.93416e-15C0 4.2874 0 8.57479 0 12.8622C1.38611 12.8622 2.77221 12.8622 4.15832 12.8622C4.15832 12.5402 4.15832 12.2182 4.15832 11.8962C3.0824 11.8962 2.00646 11.8962 0.930537 11.8962C0.930537 8.26979 0.930537 4.64328 0.930537 1.01678C2.00646 1.01678 3.0824 1.01678 4.15832 1.01678C4.15832 0.67785 4.15832 0.338925 4.15832 0C2.77221 0 1.38611 0 0 2.93416e-15ZM10.6285 3.59261C10.0807 4.5529 9.53312 5.51318 8.9855 6.47347C8.39904 5.51318 7.81261 4.5529 7.22617 3.59261C6.84815 3.59261 6.47012 3.59261 6.09209 3.59261C6.85784 4.86923 7.62359 6.14585 8.38934 7.42247C7.60905 8.73294 6.82876 10.0435 6.04847 11.354C6.44104 11.354 6.83361 11.354 7.22617 11.354C7.80776 10.3485 8.38934 9.34303 8.97093 8.33752C9.58163 9.34303 10.1922 10.3485 10.8029 11.354C11.2004 11.354 11.5977 11.354 11.9951 11.354C11.181 10.0265 10.3667 8.69912 9.55251 7.37162C10.2698 6.11195 10.9871 4.85228 11.7044 3.59261C11.3457 3.59261 10.9871 3.59261 10.6285 3.59261ZM18 0C16.6139 0 15.2278 0 13.8417 0C13.8417 0.338925 13.8417 0.67785 13.8417 1.01678C14.9225 1.01678 16.0033 1.01678 17.084 1.01678C17.084 4.64328 17.084 8.26979 17.084 11.8962C16.0033 11.8962 14.9225 11.8962 13.8417 11.8962C13.8417 12.2182 13.8417 12.5402 13.8417 12.8622C15.2278 12.8622 16.6139 12.8622 18 12.8622C18 8.57479 18 4.2874 18 0Z"/>
  <path id="path4151" transform="matrix(3.54331 0 0 3.54331 29.9999 3.99986)" style="fill:#3498db" d="M0 0L0 3.10449L3.10446 3.10449Z"/>
  <path id="path4252" transform="matrix(3.54331 0 0 3.54331 29.9999 15)" style="fill:#000000" fill-opacity="0.11764705882" d="M3.10446 3.10449L3.10446 0L0 0Z"/>
 </g>
</svg>
