<?xml version="1.0" standalone="no"?>
<!DOCTYPE svg PUBLIC "-//W3C//DTD SVG 20010904//EN" "http://www.w3.org/TR/2001/REC-SVG-20010904/DTD/svg10.dtd">
<!-- Created using Karbon, part of Calligra: http://www.calligra.org/karbon -->
<svg xmlns="http://www.w3.org/2000/svg" xmlns:xlink="http://www.w3.org/1999/xlink" width="38.4pt" height="38.4pt">
<defs/>
<g id="layer1">
  <path id="rect4090" transform="translate(7, 4)" fill="#ecf0f1" d="M0 0L0 40L34 40L34 11L23 0Z"/>
  <path id="path4151" transform="matrix(3.54331 0 0 3.54331 29.9999 3.99986)" fill="#ffffff" fill-opacity="0.75294117647" d="M0 0L0 3.10449L3.10446 3.10449Z"/>
  <path id="path4252" transform="matrix(3.54331 0 0 3.54331 29.9999 15)" fill="#000000" fill-opacity="0.11764705882" d="M3.10446 3.10449L3.10446 0L0 0Z"/>
  <path id="rect3359" transform="translate(14.2864, 16.7192)" fill="#2980b9" fill-rule="evenodd" d="M6.15823 0.0148297L4.30221 0C4.31359 5.18606 4.32098 8.6655 4.32438 10.4384L0 10.4384L9.8602 20.1403L19.7357 10.4384L15.3654 10.4384L15.3637 5.51668L13.5216 5.50911C13.5195 5.10522 13.5165 4.49236 13.5128 3.67053L15.3575 3.66005L15.3575 0.000361647L13.5023 0.000361647L13.5023 1.83545L9.84039 1.83147L9.84039 0.00741487L11.6815 0.00741487L11.6741 1.83147L11.6785 3.66005L9.84438 3.66005L9.85493 5.49515L7.99968 5.5056L7.99931 5.50926L7.99182 1.83147L6.15074 1.8463Z"/>
 </g>
</svg>
