<?xml version="1.0" standalone="no"?>
<!DOCTYPE svg PUBLIC "-//W3C//DTD SVG 20010904//EN" "http://www.w3.org/TR/2001/REC-SVG-20010904/DTD/svg10.dtd">
<!-- Created using Karbon, part of Calligra: http://www.calligra.org/karbon -->
<svg xmlns="http://www.w3.org/2000/svg" xmlns:xlink="http://www.w3.org/1999/xlink" width="38.4pt" height="38.4pt">
<defs/>
<g id="layer1">
  <path id="rect4090" transform="translate(7, 4)" fill="#d35400" d="M0 0L0 40L34 40L34 11L23 0Z"/>
  <rect id="shape0" transform="translate(12.3342, 9.81266)" fill="#bdc3c7" fill-rule="evenodd" stroke="#003bc3" stroke-width="0.00000000000" stroke-linecap="square" stroke-linejoin="miter" stroke-miterlimit="2.00000000000" width="16.81822784808pt" height="20.85265822786pt"/>
  <rect id="shape01" transform="matrix(1 0 0 1 14.643 12.2734)" fill="#ecf0f1" fill-rule="evenodd" stroke="#003bc3" stroke-width="0.00000000000" stroke-linecap="square" stroke-linejoin="miter" stroke-miterlimit="2.01260185242" width="16.81822784808pt" height="20.85265822786pt"/>
  <path id="path4151" transform="matrix(3.54331 0 0 3.54331 29.9999 3.99986)" fill="#e67e22" d="M0 0L0 3.10449L3.10446 3.10449Z"/>
  <path id="path4252" transform="matrix(3.54331 0 0 3.54331 29.9999 15)" fill="#000000" fill-opacity="0.11764705882" d="M3.10446 3.10449L3.10446 0L0 0Z"/>
  <rect id="shape0" transform="translate(18.3494, 23.2709)" fill="#f1c40f" fill-rule="evenodd" stroke="#003bc3" stroke-width="0.00000000000" stroke-linecap="square" stroke-linejoin="miter" stroke-miterlimit="2.01260191180" width="2.91645569620pt" height="9.67291139241pt"/>
  <rect id="shape1" transform="translate(23.681, 16.1316)" fill="#e74c3c" fill-rule="evenodd" stroke="#003bc3" stroke-width="0.00000000000" stroke-linecap="square" stroke-linejoin="miter" stroke-miterlimit="2.00000000000" width="2.91645569620pt" height="15.38430379747pt"/>
  <rect id="shape2" transform="translate(29.0278, 26.8101)" fill="#2ecc71" fill-rule="evenodd" stroke="#003bc3" stroke-width="0.00000000000" stroke-linecap="square" stroke-linejoin="miter" stroke-miterlimit="2.00000000000" width="2.91645569620pt" height="6.81721518987pt"/>
 </g>
</svg>
