<?xml version="1.0" standalone="no"?>
<!DOCTYPE svg PUBLIC "-//W3C//DTD SVG 20010904//EN" "http://www.w3.org/TR/2001/REC-SVG-20010904/DTD/svg10.dtd">
<!-- Created using Karbon, part of Calligra: http://www.calligra.org/karbon -->
<svg xmlns="http://www.w3.org/2000/svg" xmlns:xlink="http://www.w3.org/1999/xlink" width="38.4pt" height="38.4pt">
<defs/>
<g id="layer1">
  <path id="rect4090" transform="translate(7, 4)" fill="#2980b9" d="M0 0L0 40L34 40L34 11L23 0Z"/>
  <rect id="shape0" transform="translate(29.0229, 15.0308)" fill="#bdc3c7" fill-rule="evenodd" stroke="#003bc3" stroke-width="0.00000000000" stroke-linecap="square" stroke-linejoin="miter" stroke-miterlimit="2.00000000000" width="0.37843596601pt" height="14.35153243741pt"/>
  <rect id="shape1" transform="translate(32.4646, 15.0274)" fill="#bdc3c7" fill-rule="evenodd" stroke="#003bc3" stroke-width="0.00000000000" stroke-linecap="square" stroke-linejoin="miter" stroke-miterlimit="2.00000000000" width="0.37843596601pt" height="14.35153243741pt"/>
  <path id="path4151" transform="matrix(3.54331 0 0 3.54331 29.9999 3.99986)" fill="#3498db" d="M0 0L0 3.10449L3.10446 3.10449Z"/>
  <rect id="shape2" transform="translate(18.4508, 15.0162)" fill="#bdc3c7" fill-rule="evenodd" stroke="#003bc3" stroke-width="0.00000000000" stroke-linecap="square" stroke-linejoin="miter" stroke-miterlimit="2.01260185242" width="0.37843596601pt" height="14.35153243741pt"/>
  <path id="path4252" transform="matrix(3.54331 0 0 3.54331 29.9999 15)" fill="#000000" fill-opacity="0.11764705882" d="M3.10446 3.10449L3.10446 0L0 0Z"/>
  <rect id="shape3" transform="translate(21.9591, 15.0305)" fill="#bdc3c7" fill-rule="evenodd" stroke="#003bc3" stroke-width="0.00000000000" stroke-linecap="square" stroke-linejoin="miter" stroke-miterlimit="2.00000000000" width="0.37843596601pt" height="14.35153243741pt"/>
  <rect id="shape4" transform="translate(25.4008, 15.0271)" fill="#bdc3c7" fill-rule="evenodd" stroke="#003bc3" stroke-width="0.00000000000" stroke-linecap="square" stroke-linejoin="miter" stroke-miterlimit="2.00000000000" width="0.37843596601pt" height="14.35153243741pt"/>
  <rect id="shape5" transform="translate(14.9906, 15.0123)" fill="#bdc3c7" fill-rule="evenodd" stroke="#003bc3" stroke-width="0.00000000000" stroke-linecap="square" stroke-linejoin="miter" stroke-miterlimit="2.00000000000" width="0.37843596601pt" height="14.35153243741pt"/>
  <rect id="line2" transform="translate(14.9882, 14.9882)" fill="#8bc941" fill-rule="evenodd" stroke="#003bc3" stroke-width="0.00000000000" stroke-linecap="square" stroke-linejoin="miter" stroke-miterlimit="2.01260185242" width="11.59560469712pt" height="2.82524048348pt"/>
  <rect id="line21" transform="translate(21.959, 22.1824)" fill="#e74c3c" fill-rule="evenodd" stroke="#003bc3" stroke-width="0.00000000000" stroke-linecap="square" stroke-linejoin="miter" stroke-miterlimit="2.00000000000" width="8.82342752570pt" height="2.87475647374pt"/>
  <rect id="line23" transform="translate(18.4556, 29.3583)" fill="#f1c40f" fill-rule="evenodd" stroke="#003bc3" stroke-width="0.00000000000" stroke-linecap="square" stroke-linejoin="miter" stroke-miterlimit="2.00000000000" width="5.93228615484pt" height="2.90393146658pt"/>
  <path id="path4149" transform="translate(26.824, 29.8215)" fill="#8bc941" fill-rule="evenodd" d="M10.8216 0L0 10.8216L1.80029 12.6219L12.6219 1.80029Z"/>
  <rect id="rect3339" transform="matrix(0.707107 -0.707107 0.707107 0.707107 24.4253 38.5284)" fill="#8bc941" fill-rule="evenodd" width="2.09044754590pt" height="4.56135638837pt"/>
 </g>
</svg>
