<?xml version="1.0" standalone="no"?>
<!DOCTYPE svg PUBLIC "-//W3C//DTD SVG 20010904//EN" "http://www.w3.org/TR/2001/REC-SVG-20010904/DTD/svg10.dtd">
<!-- Created using Karbon, part of Calligra: http://www.calligra.org/karbon -->
<svg xmlns="http://www.w3.org/2000/svg" xmlns:xlink="http://www.w3.org/1999/xlink" width="38.4pt" height="38.4pt">
<defs/>
<g id="layer1">
  <path id="rect4090" transform="translate(7, 4)" fill="#ecf0f1" d="M0 0L0 40L34 40L34 11L23 0Z"/>
  <path id="path4151" transform="matrix(3.54331 0 0 3.54331 29.9999 3.99986)" fill="#ffffff" fill-opacity="0.75294117647" d="M0 0L0 3.10449L3.10446 3.10449Z"/>
  <path id="path4252" transform="matrix(3.54331 0 0 3.54331 29.9999 15)" fill="#000000" fill-opacity="0.11764705882" d="M3.10446 3.10449L3.10446 0L0 0Z"/>
  <path id="shape011" transform="translate(12.5442, 14.9116)" fill="#001826" fill-rule="evenodd" stroke="#003bc3" stroke-width="0.00000000000" stroke-linecap="square" stroke-linejoin="miter" stroke-miterlimit="2.00000000000" d="M11.9592 0C5.35194 0 0 5.35194 0 11.9592C0 18.5665 5.35194 23.9184 11.9592 23.9184C18.5665 23.9184 23.9184 18.5665 23.9184 11.9592C23.9184 5.35194 18.5665 0 11.9592 0ZM11.9592 9.99713C13.0464 9.99713 13.9212 10.8719 13.9212 11.9592C13.9212 13.0464 13.0464 13.9212 11.9592 13.9212C10.8719 13.9212 9.99713 13.0464 9.99713 11.9592C9.99713 10.8719 10.8719 9.99713 11.9592 9.99713Z"/>
  <path id="shape11" transform="translate(19.8623, 22.2297)" fill="#1abc9c" fill-rule="evenodd" stroke="#003bc3" stroke-width="0.00000000000" stroke-linecap="square" stroke-linejoin="miter" stroke-miterlimit="2.00000000000" d="M4.63543 0C2.07886 0 0 2.07886 0 4.63543C0 7.19194 2.07886 9.27086 4.63543 9.27086C7.19194 9.27086 9.27086 7.19194 9.27086 4.63543C9.27086 2.07886 7.19194 0 4.63543 0ZM4.63543 2.64067C5.74083 2.64067 6.63015 3.53002 6.63015 4.63543C6.63015 5.74083 5.74083 6.63015 4.63543 6.63015C3.53002 6.63015 2.64067 5.74083 2.64067 4.63543C2.64067 3.53002 3.53002 2.64067 4.63543 2.64067Z"/>
  <path id="shape0" transform="translate(27.4973, 29.9948)" fill="#34495e" fill-rule="evenodd" stroke="#003bc3" stroke-width="0.00000000000" stroke-linecap="square" stroke-linejoin="bevel" d="M0 1.3331C0.813283 0.765694 1.04417 0.403232 1.36558 0L6.15996 3.43877C5.43532 4.56765 4.57919 5.55165 3.3991 6.22617Z"/>
  <path id="shape1" transform="translate(15.1529, 17.3029)" fill="#34495e" fill-rule="evenodd" stroke="#003bc3" stroke-width="0.00000000000" stroke-linecap="square" stroke-linejoin="bevel" d="M6.34572 5.09478C5.50791 5.68557 5.27006 6.06298 4.93896 6.48283L0 2.90229C0.746484 1.72687 1.62845 0.7023 2.84412 0Z"/>
 </g>
</svg>
