<?xml version="1.0" standalone="no"?>
<!DOCTYPE svg PUBLIC "-//W3C//DTD SVG 20010904//EN" "http://www.w3.org/TR/2001/REC-SVG-20010904/DTD/svg10.dtd">
<!-- Created using Karbon, part of Calligra: http://www.calligra.org/karbon -->
<svg xmlns="http://www.w3.org/2000/svg" xmlns:xlink="http://www.w3.org/1999/xlink" width="38.4pt" height="38.4pt">
<defs/>
<g id="layer1">
  <path id="rect4090" transform="translate(7, 4)" fill="#ecf0f1" d="M0 0L0 40L34 40L34 11L23 0Z"/>
  <path id="path4151" transform="matrix(3.54331 0 0 3.54331 29.9999 3.99986)" fill="#ffffff" fill-opacity="0.75294117647" d="M0 0L0 3.10449L3.10446 3.10449Z"/>
  <path id="path4252" transform="matrix(3.54331 0 0 3.54331 29.9999 15)" fill="#000000" fill-opacity="0.11764705882" d="M3.10446 3.10449L3.10446 0L0 0Z"/>
  <path id="shape0" transform="translate(19.4597, 21.6559)" fill="#f39c12" fill-rule="evenodd" stroke="#003bc3" stroke-width="0.00000000000" stroke-linecap="square" stroke-linejoin="miter" stroke-miterlimit="2.00000000000" d="M16.1738 7.98337C16.1092 3.52135 12.4541 -0.0480493 7.99934 0.000489223C3.54456 0.049028 -0.0320882 3.69721 0.00021713 8.15961C0.0325226 12.622 3.66162 16.2179 8.11662 16.2017C12.5717 16.1855 16.1747 12.5633 16.1747 8.10093"/>
  <path id="shape4" transform="translate(22.3684, 24.8341)" fill="#f2f2f2" fill-rule="evenodd" stroke="#003bc3" stroke-width="0.00000000000" stroke-linecap="square" stroke-linejoin="miter" stroke-miterlimit="2.00000000000" d="M10.5152 5.25757C10.5152 2.35391 8.16121 0 5.25757 0C2.35391 0 0 2.35391 0 5.25757C0 8.16121 2.35391 10.5152 5.25757 10.5152C8.16121 10.5152 10.5152 8.16121 10.5152 5.25757"/>
  <path id="shape5" transform="translate(25.0904, 27.5328)" fill="#2980b9" fill-rule="evenodd" stroke="#003bc3" stroke-width="0.00000000000" stroke-linecap="square" stroke-linejoin="miter" stroke-miterlimit="2.00000000000" d="M4.8083 2.40415C4.8083 1.07637 3.73192 0 2.40415 0C1.07637 0 0 1.07637 0 2.40415C0 3.73193 1.07637 4.8083 2.40415 4.8083C3.73192 4.8083 4.8083 3.73193 4.8083 2.40415"/>
  <rect id="shape0" transform="matrix(0.988917 0.14847 -0.14847 0.988917 15.6038 19.7967)" fill="#f39c12" fill-rule="evenodd" stroke="#003bc3" stroke-width="0.00000000000" stroke-linecap="square" stroke-linejoin="miter" stroke-miterlimit="2.00000000000" width="11.00480804291pt" height="2.46621917311pt" rx="1.10567243504pt" ry="1.23310958656pt"/>
  <rect id="shape1" transform="matrix(0.594286 0.804254 -0.804254 0.594286 26.4153 14.7785)" fill="#f39c12" fill-rule="evenodd" stroke="#003bc3" stroke-width="0.00000000000" stroke-linecap="square" stroke-linejoin="miter" stroke-miterlimit="2.00000000000" width="11.00480804291pt" height="2.41635836703pt" rx="1.10567243504pt" ry="1.20817918352pt"/>
  <rect id="shape2" transform="matrix(0.804254 -0.594286 0.594286 0.804254 12.5565 30.7431)" fill="#f39c12" fill-rule="evenodd" stroke="#003bc3" stroke-width="0.00000000000" stroke-linecap="square" stroke-linejoin="miter" stroke-miterlimit="2.00000000000" width="11.00480804291pt" height="2.46621917311pt" rx="1.10567243504pt" ry="1.23310958656pt"/>
 </g>
</svg>
