<?xml version="1.0" standalone="no"?>
<!DOCTYPE svg PUBLIC "-//W3C//DTD SVG 20010904//EN" "http://www.w3.org/TR/2001/REC-SVG-20010904/DTD/svg10.dtd">
<!-- Created using Karbon, part of Calligra: http://www.calligra.org/karbon -->
<svg xmlns="http://www.w3.org/2000/svg" xmlns:xlink="http://www.w3.org/1999/xlink" width="38.4pt" height="38.4pt">
<defs/>
<g id="layer1">
  <path id="rect4090" transform="translate(7.09621, 4.01924)" fill="#2980b9" d="M0 0L0 40L34 40L34 11L23 0Z"/>
  <path id="path4151" transform="matrix(3.54331 0 0 3.54331 29.9999 3.99986)" fill="#3498db" d="M0 0L0 3.10449L3.10446 3.10449Z"/>
  <path id="path4252" transform="matrix(3.54331 0 0 3.54331 29.9999 15)" fill="#000000" fill-opacity="0.11764705882" d="M3.10446 3.10449L3.10446 0L0 0Z"/>
  <rect id="shape2" transform="matrix(0 1 -1 0 32.4651 29.0294)" fill="#bdc3c7" fill-rule="evenodd" stroke="#003bc3" stroke-width="0.00000000000" stroke-linecap="square" stroke-linejoin="miter" stroke-miterlimit="2.00000000000" width="0.67210712815pt" height="11.69976018861pt"/>
  <rect id="shape21" transform="matrix(-1 0 0 -1 18.63 32.7841)" fill="#bdc3c7" fill-rule="evenodd" stroke="#003bc3" stroke-width="0.00000000000" stroke-linecap="square" stroke-linejoin="miter" stroke-miterlimit="2.00000000000" width="0.67210712815pt" height="3.00272543688pt"/>
  <rect id="shape22" transform="matrix(-1 0 0 -1 32.4651 32.3804)" fill="#bdc3c7" fill-rule="evenodd" stroke="#003bc3" stroke-width="0.00000000000" stroke-linecap="square" stroke-linejoin="miter" stroke-miterlimit="2.00000000000" width="0.67210712815pt" height="2.66553639105pt"/>
  <rect id="line21" transform="translate(13.22, 32.1769)" fill="#ecf0f1" fill-rule="evenodd" stroke="#003bc3" stroke-width="0.00000000000" stroke-linecap="square" stroke-linejoin="miter" stroke-miterlimit="2.00000000000" width="7.95632848043pt" height="3.97816424021pt"/>
  <rect id="shape23" transform="matrix(-2.35922e-16 1 -1 -2.35922e-16 28.36 16.1656)" fill="#bdc3c7" fill-rule="evenodd" stroke="#003bc3" stroke-width="0.00000000000" stroke-linecap="square" stroke-linejoin="miter" stroke-miterlimit="2.00000000000" width="0.67210712815pt" height="5.94208689980pt"/>
  <rect id="line22" transform="translate(27.0614, 32.2947)" fill="#ecf0f1" fill-rule="evenodd" stroke="#003bc3" stroke-width="0.00000000000" stroke-linecap="square" stroke-linejoin="miter" stroke-miterlimit="2.00000000000" width="7.95632848043pt" height="3.97816424021pt"/>
  <rect id="line23" transform="translate(11.2043, 14.0905)" fill="#ecf0f1" fill-rule="evenodd" stroke="#003bc3" stroke-width="0.00000000000" stroke-linecap="square" stroke-linejoin="miter" stroke-miterlimit="2.00000000000" width="7.95632848043pt" height="3.97816424021pt"/>
  <rect id="shape24" transform="matrix(-1 0 0 -1 28.3982 29.8407)" fill="#bdc3c7" fill-rule="evenodd" stroke="#003bc3" stroke-width="0.00000000000" stroke-linecap="square" stroke-linejoin="miter" stroke-miterlimit="2.00000000000" width="0.67210712815pt" height="10.92481275663pt"/>
  <rect id="line2" transform="translate(22.9108, 21.4635)" fill="#ecf0f1" fill-rule="evenodd" stroke="#003bc3" stroke-width="0.00000000000" stroke-linecap="square" stroke-linejoin="miter" stroke-miterlimit="2.01260185242" width="7.95632848043pt" height="3.97816424021pt"/>
 </g>
</svg>
