<svg xmlns="http://www.w3.org/2000/svg" width="48" height="48" viewBox="0 0 13.546666 13.546668">
 <g transform="translate(38.119153,-397.84494)">
  <path d="M 7 4 L 7 44 L 41 44 L 41 15 L 30 4 L 7 4 z " transform="matrix(0.28222225,0,0,0.28222225,-38.119154,397.84494)" style="fill:#33cc99"/>
  <path d="m -29.652504,398.97379 0,3.10449 3.104462,0 z" style="fill:#5edbb1"/>
  <path d="m -26.548042,405.18277 0,-3.10449 -3.104462,0 z" fill-opacity="0.118"/>
  <path transform="matrix(0.28222225,0,0,0.28222225,-38.119154,397.84494)" d="m 15,29 0,4 4,0 0,-4 -4,0 z m 1,1 2,0 0,2 -2,0 0,-2 z" style="fill:#c7f1e2"/>
  <rect width="3.104" height="0.282" x="-32.757" y="406.45" style="fill:#c7f1e2" rx="0"/>
  <path d="M 16.300781 15 A 8.4999889 8.4999889 0 0 0 16 15.015625 L 16 16.009766 A 7.4999888 7.4999888 0 0 1 16.300781 16 A 7.4999888 7.4999888 0 0 1 23.800781 23.5 A 7.4999888 7.4999888 0 0 1 19 30.496094 L 19 31.552734 A 8.4999889 8.4999889 0 0 0 24.800781 23.5 A 8.4999889 8.4999889 0 0 0 16.300781 15 z " transform="matrix(0.28222225,0,0,0.28222225,-38.119154,397.84494)" style="fill:#c7f1e2"/>
  <path d="m -29.370263,406.02939 a 0.56444473,0.56444473 0 0 0 -0.564445,0.56444 0.56444473,0.56444473 0 0 0 0.564445,0.56444 0.56444473,0.56444473 0 0 0 0.564444,-0.56444 0.56444473,0.56444473 0 0 0 -0.564444,-0.56444 z m 0,0.28222 a 0.28222235,0.28222235 0 0 1 0.282222,0.28222 0.28222235,0.28222235 0 0 1 -0.282222,0.28222 0.28222235,0.28222235 0 0 1 -0.282222,-0.28222 0.28222235,0.28222235 0 0 1 0.282222,-0.28222 z" style="fill:#c7f1e2"/>
  <rect y="402.08" x="-33.604" height="0.282" width="3.951" style="fill:#c7f1e2" rx="0"/>
 </g>
</svg>
