<?xml version="1.0" standalone="no"?>
<!DOCTYPE svg PUBLIC "-//W3C//DTD SVG 20010904//EN" "http://www.w3.org/TR/2001/REC-SVG-20010904/DTD/svg10.dtd">
<!-- Created using Karbon, part of Calligra: http://www.calligra.org/karbon -->
<svg xmlns="http://www.w3.org/2000/svg" xmlns:xlink="http://www.w3.org/1999/xlink" width="38.4pt" height="38.4pt">
<defs/>
<g id="layer1">
  <path id="rect4090" transform="translate(7, 4)" fill="#2980b9" d="M0 0L0 40L34 40L34 11L23 0Z"/>
  <path id="shape0" transform="translate(11.3186, 19.2428)" fill="#ffffff" d="M0 3.55271e-15C0 5.19124 0 10.3825 0 15.5737C1.95612 15.5737 3.91224 15.5737 5.86835 15.5737C5.86835 15.1839 5.86835 14.794 5.86835 14.4041C4.34997 14.4041 2.83158 14.4041 1.3132 14.4041C1.3132 10.0131 1.3132 5.62213 1.3132 1.23112C2.83158 1.23112 4.34997 1.23112 5.86835 1.23112C5.86835 0.820749 5.86835 0.410375 5.86835 0C3.91224 0 1.95612 0 0 3.55271e-15ZM14.9992 4.34997C14.2263 5.5127 13.4534 6.67542 12.6806 7.83815C11.853 6.67542 11.0254 5.5127 10.1978 4.34997C9.66432 4.34997 9.13083 4.34997 8.59735 4.34997C9.678 5.89571 10.7587 7.44146 11.8393 8.9872C10.7381 10.574 9.63696 12.1608 8.53579 13.7475C9.0898 13.7475 9.6438 13.7475 10.1978 13.7475C11.0186 12.5301 11.8393 11.3127 12.6601 10.0952C13.5218 11.3127 14.3836 12.5301 15.2454 13.7475C15.8063 13.7475 16.3671 13.7475 16.9279 13.7475C15.7789 12.1402 14.6299 10.5329 13.4808 8.92565C14.4931 7.40042 15.5053 5.8752 16.5176 4.34997C16.0114 4.34997 15.5053 4.34997 14.9992 4.34997ZM25.4022 0C23.4461 0 21.4899 0 19.5338 0C19.5338 0.410375 19.5338 0.820749 19.5338 1.23112C21.0591 1.23112 22.5843 1.23112 24.1095 1.23112C24.1095 5.62213 24.1095 10.0131 24.1095 14.4041C22.5843 14.4041 21.0591 14.4041 19.5338 14.4041C19.5338 14.794 19.5338 15.1839 19.5338 15.5737C21.4899 15.5737 23.4461 15.5737 25.4022 15.5737C25.4022 10.3825 25.4022 5.19124 25.4022 0Z"/>
  <path id="path4151" transform="matrix(3.54331 0 0 3.54331 29.9999 3.99986)" fill="#3498db" d="M0 0L0 3.10449L3.10446 3.10449Z"/>
  <path id="path4252" transform="matrix(3.54331 0 0 3.54331 29.9999 15)" fill="#000000" fill-opacity="0.11764705882" d="M3.10446 3.10449L3.10446 0L0 0Z"/>
  <rect id="shape01" transform="translate(6.98823, 3.98281)" fill="#f1c40f" fill-rule="evenodd" stroke="#003bc3" stroke-width="0.00000000000" stroke-linecap="square" stroke-linejoin="miter" stroke-miterlimit="2.00000000000" width="5.10237104400pt" height="32.00320504820pt"/>
 </g>
</svg>
