<?xml version="1.0" standalone="no"?>
<!DOCTYPE svg PUBLIC "-//W3C//DTD SVG 20010904//EN" "http://www.w3.org/TR/2001/REC-SVG-20010904/DTD/svg10.dtd">
<!-- Created using Karbon, part of Calligra: http://www.calligra.org/karbon -->
<svg xmlns="http://www.w3.org/2000/svg" xmlns:xlink="http://www.w3.org/1999/xlink" width="38.4pt" height="38.4pt">
<defs/>
<g id="layer1">
  <path id="rect4090" transform="translate(7, 4)" fill="#7f8c8d" d="M0 0L0 40L34 40L34 11L23 0Z"/>
  <path id="shape0" transform="translate(13.3898, 19.2344)" fill="#ffffff" d="M0 3.55656e-15C0 5.19687 0 10.3938 0 15.5906C1.63714 15.5906 3.27427 15.5906 4.9114 15.5906C4.9114 15.2004 4.9114 14.81 4.9114 14.4197C3.64062 14.4197 2.36984 14.4197 1.09906 14.4197C1.09906 10.024 1.09906 5.62822 1.09906 1.23245C2.36984 1.23245 3.64062 1.23245 4.9114 1.23245C4.9114 0.821638 4.9114 0.41082 4.9114 0C3.27427 0 1.63714 0 0 3.55656e-15ZM12.5533 4.35468C11.9064 5.51867 11.2596 6.68265 10.6128 7.84664C9.92014 6.68265 9.2275 5.51867 8.53485 4.35468C8.08837 4.35468 7.64187 4.35468 7.19539 4.35468C8.09981 5.9021 9.00429 7.44952 9.90867 8.99694C8.98704 10.5855 8.06547 12.174 7.14386 13.7624C7.60753 13.7624 8.07119 13.7624 8.53485 13.7624C9.2218 12.5437 9.90867 11.325 10.5956 10.1061C11.3168 11.325 12.0381 12.5437 12.7593 13.7624C13.2288 13.7624 13.6981 13.7624 14.1675 13.7624C13.2058 12.1534 12.2442 10.5443 11.2825 8.93532C12.1297 7.40844 12.9769 5.88157 13.8241 4.35468C13.4004 4.35468 12.9769 4.35468 12.5533 4.35468ZM21.2599 0C19.6228 0 17.9856 0 16.3484 0C16.3484 0.41082 16.3484 0.821638 16.3484 1.23245C17.625 1.23245 18.9015 1.23245 20.178 1.23245C20.178 5.62822 20.178 10.024 20.178 14.4197C18.9015 14.4197 17.625 14.4197 16.3484 14.4197C16.3484 14.81 16.3484 15.2004 16.3484 15.5906C17.9856 15.5906 19.6228 15.5906 21.2599 15.5906C21.2599 10.3938 21.2599 5.19687 21.2599 0Z"/>
  <path id="path4151" transform="matrix(3.54331 0 0 3.54331 29.9999 3.99986)" fill="#95a5a6" d="M0 0L0 3.10449L3.10446 3.10449Z"/>
  <path id="path4252" transform="matrix(3.54331 0 0 3.54331 29.9999 15)" fill="#000000" fill-opacity="0.11764705882" d="M3.10446 3.10449L3.10446 0L0 0Z"/>
  <rect id="shape01" transform="translate(6.98823, 3.98281)" fill="#f1c40f" fill-rule="evenodd" stroke="#003bc3" stroke-width="0.00000000000" stroke-linecap="square" stroke-linejoin="miter" stroke-miterlimit="2.00000000000" width="5.10237104400pt" height="32.00320504820pt"/>
 </g>
</svg>
