<?xml version="1.0" standalone="no"?>
<!DOCTYPE svg PUBLIC "-//W3C//DTD SVG 20010904//EN" "http://www.w3.org/TR/2001/REC-SVG-20010904/DTD/svg10.dtd">
<!-- Created using Karbon, part of Calligra: http://www.calligra.org/karbon -->
<svg xmlns="http://www.w3.org/2000/svg" xmlns:xlink="http://www.w3.org/1999/xlink" width="38.4pt" height="38.4pt">
<defs>
  <radialGradient id="gradient0" gradientTransform="matrix(1.50895 0 0 1.35822 -43.0289 72.9577)" gradientUnits="objectBoundingBox" cx="0.26682966000" cy="-0.31937185000" fx="0.26682966000" fy="-0.31937185000" r="0.44350889000" spreadMethod="pad">
   <stop stop-color="#dddce9" offset="0.00000000000" stop-opacity="1.00000000000"/>
   <stop stop-color="#5664a3" offset="0.37000000477" stop-opacity="1.00000000000"/>
   <stop stop-color="#000000" offset="1.00000000000" stop-opacity="1.00000000000"/>
  </radialGradient>
  <radialGradient id="gradient1" gradientTransform="matrix(1.50895 0 0 1.35822 -43.0289 72.9577)" gradientUnits="objectBoundingBox" cx="0.26682966000" cy="-0.31937185000" fx="0.26682966000" fy="-0.31937185000" r="0.44350889000" spreadMethod="pad">
   <stop stop-color="#dddce9" offset="0.00000000000" stop-opacity="1.00000000000"/>
   <stop stop-color="#5664a3" offset="0.37000000477" stop-opacity="1.00000000000"/>
   <stop stop-color="#000000" offset="1.00000000000" stop-opacity="1.00000000000"/>
  </radialGradient>
  <radialGradient id="gradient2" gradientTransform="matrix(1.50895 0 0 1.35822 -43.0289 72.9577)" gradientUnits="objectBoundingBox" cx="0.26682966000" cy="-0.31937185000" fx="0.26682966000" fy="-0.31937185000" r="0.44350889000" spreadMethod="pad">
   <stop stop-color="#dddce9" offset="0.00000000000" stop-opacity="1.00000000000"/>
   <stop stop-color="#5664a3" offset="0.37000000477" stop-opacity="1.00000000000"/>
   <stop stop-color="#000000" offset="1.00000000000" stop-opacity="1.00000000000"/>
  </radialGradient>
 </defs>
<g id="layer1">
  <path id="rect4090" transform="translate(7, 4)" fill="#ecf0f1" d="M0 0L0 40L34 40L34 11L23 0Z"/>
  <path id="path4151" transform="matrix(3.54331 0 0 3.54331 29.9999 3.99986)" fill="#ffffff" fill-opacity="0.75294117647" d="M0 0L0 3.10449L3.10446 3.10449Z"/>
  <path id="path4252" transform="matrix(3.54331 0 0 3.54331 29.9999 15)" fill="#000000" fill-opacity="0.11764705882" d="M3.10446 3.10449L3.10446 0L0 0Z"/>
  <path id="p" transform="translate(11.2663, 24.7086)" fill="#2c3e50" fill-rule="evenodd" stroke="url(#gradient0)" stroke-width="0.00000000000" stroke-linecap="butt" stroke-linejoin="miter" stroke-miterlimit="2.01260185242" d="M0 9.09769L1.80226 0L5.96997 0C7.77223 0.112317 8.67335 1.01085 8.67335 2.5833C8.67335 5.27891 6.53318 6.85134 4.61828 6.73902L2.59075 6.73902L2.14017 9.09769ZM3.04131 5.05427L3.60451 1.68476L5.06884 1.68476C5.85733 1.68476 6.42053 2.02171 6.42053 2.69561C6.30789 4.60501 5.40677 4.94196 4.393 5.05427Z"/>
  <path id="h" transform="translate(20.2743, 22.3426)" fill="#2c3e50" stroke="url(#gradient1)" stroke-width="0.00000000000" stroke-linecap="butt" stroke-linejoin="miter" stroke-miterlimit="2.01260185242" d="M0 9.09769L1.83035 0L4.00389 0L3.5463 2.35866L5.60544 2.35866C7.43578 2.47098 8.12217 3.36952 7.89337 4.49269L7.0926 9.09769L4.80466 9.09769L5.60544 4.94196C5.71984 4.38037 5.71984 4.04342 4.91906 4.04342L3.20311 4.04342L2.17354 9.09769Z"/>
  <path id="p1" transform="translate(27.9861, 24.6412)" fill="#2c3e50" fill-rule="evenodd" stroke="url(#gradient2)" stroke-width="0.00000000000" stroke-linecap="butt" stroke-linejoin="miter" stroke-miterlimit="2.01260185242" d="M0 9.1173L1.80658 0L5.98433 0C7.79092 0.11256 8.69421 1.01304 8.69421 2.58886C8.69421 5.2903 6.54887 6.86614 4.62938 6.75358L2.59697 6.75358L2.14532 9.1173ZM3.04862 5.06518L3.61317 1.68839L5.08102 1.68839C5.87141 1.68839 6.43597 2.02608 6.43597 2.70144C6.32306 4.61494 5.41977 4.95263 4.40355 5.06518Z"/>
 </g>
</svg>
