<?xml version="1.0" standalone="no"?>
<!DOCTYPE svg PUBLIC "-//W3C//DTD SVG 20010904//EN" "http://www.w3.org/TR/2001/REC-SVG-20010904/DTD/svg10.dtd">
<!-- Created using Karbon, part of Calligra: http://www.calligra.org/karbon -->
<svg xmlns="http://www.w3.org/2000/svg" xmlns:xlink="http://www.w3.org/1999/xlink" width="38.4pt" height="38.4pt">
<defs/>
<g id="layer1">
  <path id="rect4090" transform="translate(7, 4)" fill="#ecf0f1" d="M0 0L0 40L34 40L34 11L23 0Z"/>
  <path id="path4151" transform="matrix(3.54331 0 0 3.54331 29.9999 3.99986)" fill="#ffffff" opacity="0.50000000000" d="M0 0L0 3.10449L3.10446 3.10449Z"/>
  <g id="logo" transform="translate(10.9749, 16.1118)" fill="none">
   <path id="j" transform="translate(0.852584, 3.42314)" fill="#f1c40f" d="M1.65638e-15 13.0348L2.80976 11.4317C3.35183 12.3378 3.84494 13.1044 5.0277 13.1044C6.16144 13.1044 6.87623 12.6863 6.87623 11.06L6.87623 0L10.3265 0L10.3265 11.106C10.3265 14.475 8.23179 16.0086 5.17558 16.0086C2.41543 16.0086 0.813279 14.6609 0 13.0345"/>
   <path id="s" transform="translate(13.0532, 3.23724)" fill="#f1c40f" d="M0 12.8722L2.8094 11.3386C3.54895 12.4773 4.51011 13.3137 6.21061 13.3137C7.64026 13.3137 8.55189 12.6398 8.55189 11.7104C8.55189 10.5951 7.61542 10.2001 6.03804 9.54972L5.17566 9.20097C2.68628 8.20204 1.03496 6.94736 1.03496 4.29857C1.03496 1.85892 3.0066 0 6.08743 0C8.28089 0 9.8582 0.720367 10.9918 2.60243L8.30537 4.2288C7.71384 3.2298 7.07321 2.83483 6.08743 2.83483C5.07695 2.83483 4.4361 3.43893 4.4361 4.2288C4.4361 5.20472 5.07695 5.59975 6.55555 6.20392L7.41808 6.55239C10.3509 7.73743 12.0023 8.94555 12.0023 11.6639C12.0023 14.5917 9.56237 16.1948 6.28455 16.1948C3.08061 16.1948 1.01033 14.7543 3.31276e-15 12.8722"/>
  </g>
  <path id="path4252" transform="matrix(3.54331 0 0 3.54331 29.9999 15)" fill="#000000" fill-opacity="0.11764705882" d="M3.10446 3.10449L3.10446 0L0 0Z"/>
 </g>
</svg>
