<?xml version="1.0" standalone="no"?>
<!DOCTYPE svg PUBLIC "-//W3C//DTD SVG 20010904//EN" "http://www.w3.org/TR/2001/REC-SVG-20010904/DTD/svg10.dtd">
<!-- Created using Karbon, part of Calligra: http://www.calligra.org/karbon -->
<svg xmlns="http://www.w3.org/2000/svg" xmlns:xlink="http://www.w3.org/1999/xlink" width="38.4pt" height="38.4pt">
<defs/>
<g id="layer1">
  <path id="rect4090" transform="translate(7, 4)" style="fill:#2980b9" d="M0 0L0 40L34 40L34 11L23 0Z"/>
  <path id="shape0" transform="translate(14.9882, 17.5595)" style="fill:#ffffff" d="M0 2.93307e-15C0 4.28583 0 8.5717 0 12.8575C1.38611 12.8575 2.77221 12.8575 4.15831 12.8575C4.15831 12.5357 4.15831 12.2137 4.15831 11.8918C3.08239 11.8918 2.00646 11.8918 0.930537 11.8918C0.930537 8.26673 0.930537 4.64156 0.930537 1.01639C2.00646 1.01639 3.08239 1.01639 4.15831 1.01639C4.15831 0.6776 4.15831 0.338801 4.15831 0C2.77221 0 1.38611 0 0 2.93307e-15ZM10.6285 3.59128C10.0807 4.55121 9.53312 5.51114 8.9855 6.47108C8.39904 5.51114 7.81261 4.55121 7.22617 3.59128C6.84815 3.59128 6.47011 3.59128 6.09209 3.59128C6.85783 4.86743 7.62362 6.14357 8.38933 7.41972C7.60902 8.7298 6.82876 10.0398 6.04846 11.3498C6.44104 11.3498 6.8336 11.3498 7.22617 11.3498C7.80778 10.3447 8.38933 9.33966 8.97093 8.33444C9.58155 9.33966 10.1922 10.3447 10.8029 11.3498C11.2004 11.3498 11.5977 11.3498 11.9951 11.3498C11.1809 10.0228 10.3667 8.69582 9.55251 7.3689C10.2698 6.1097 10.9871 4.8505 11.7044 3.59128C11.3457 3.59128 10.9871 3.59128 10.6285 3.59128ZM18 0C16.614 0 15.2278 0 13.8416 0C13.8416 0.338801 13.8416 0.6776 13.8416 1.01639C14.9225 1.01639 16.0033 1.01639 17.084 1.01639C17.084 4.64156 17.084 8.26673 17.084 11.8918C16.0033 11.8918 14.9225 11.8918 13.8416 11.8918C13.8416 12.2137 13.8416 12.5357 13.8416 12.8575C15.2278 12.8575 16.614 12.8575 18 12.8575C18 8.5717 18 4.28583 18 0Z"/>
  <path id="path4151" transform="matrix(3.54331 0 0 3.54331 29.9999 3.99986)" style="fill:#3498db" d="M0 0L0 3.10449L3.10446 3.10449Z"/>
  <path id="path4252" transform="matrix(3.54331 0 0 3.54331 29.9999 15)" style="fill:#000000" fill-opacity="0.11764705882" d="M3.10446 3.10449L3.10446 0L0 0Z"/>
  <rect id="shape01" transform="translate(6.98823, 3.98281)" style="fill:#f1c40f" fill-rule="evenodd" stroke="#003bc3" stroke-width="0.00000000000" stroke-linecap="square" stroke-linejoin="miter" stroke-miterlimit="2.00000000000" width="5.10237104400pt" height="32.00320504820pt"/>
 </g>
</svg>
