<?xml version="1.0" standalone="no"?>
<!DOCTYPE svg PUBLIC "-//W3C//DTD SVG 20010904//EN" "http://www.w3.org/TR/2001/REC-SVG-20010904/DTD/svg10.dtd">
<!-- Created using Karbon, part of Calligra: http://www.calligra.org/karbon -->
<svg xmlns="http://www.w3.org/2000/svg" xmlns:xlink="http://www.w3.org/1999/xlink" width="38.4pt" height="38.4pt">
<defs/>
<g id="layer1">
  <path id="rect4090" transform="translate(7, 4)" fill="#ecf0f1" d="M0 0L0 40L34 40L34 11L23 0Z"/>
  <path id="path4151" transform="matrix(3.54331 0 0 3.54331 29.9999 3.99986)" fill="#ffffff" fill-opacity="0.75294117647" d="M0 0L0 3.10449L3.10446 3.10449Z"/>
  <path id="path4252" transform="matrix(3.54331 0 0 3.54331 29.9999 15)" fill="#000000" fill-opacity="0.11764705882" d="M3.10446 3.10449L3.10446 0L0 0Z"/>
  <path id="path2518" transform="translate(14.1034, 15.349)" fill="#34495e" fill-rule="evenodd" d="M6.04879 20.7974C6.06238 20.7715 6.06905 20.7559 6.08354 20.7279C6.21256 20.4789 6.36361 20.1726 6.42233 20.0416C6.53109 19.7988 6.6894 19.2258 6.73506 18.9122C6.84288 18.1714 6.85376 17.9775 6.80456 17.7395C6.79003 17.6692 6.77161 17.3261 6.76112 16.975C6.74555 16.4549 6.73888 16.2943 6.70031 16.141C6.64114 15.9058 6.596 15.6214 6.59607 15.3939C6.5961 15.1157 6.55531 14.6179 6.50051 14.2906C6.42653 13.8487 6.4258 13.0625 6.50051 12.6487C6.5617 12.3096 6.54683 12.1681 6.4397 12.0145C6.28268 11.7894 6.11398 11.7654 5.69263 11.9016C4.47861 12.2724 3.21594 11.324 2.5045 10.4161C2.03192 9.62745 1.35042 9.12696 1.27964 8.18341C1.22607 7.41354 1.12593 6.76345 1.15803 5.97684C1.13178 5.25774 1.58291 4.75992 1.74874 4.03957C1.64341 3.35947 0.811826 3.53042 0.324077 3.30114C0.0822084 3.17 -0.0393047 2.92833 0.0113472 2.68434C0.0720516 2.39191 0.347669 1.98418 0.576 1.85036C1.05332 1.62819 1.59601 1.71479 2.1049 1.58974C2.53104 1.48034 2.70446 1.40005 2.96491 1.16406C3.35392 0.811583 3.45236 0.756985 3.79887 0.755758C5.34935 0.857747 5.88777 2.60239 6.03142 3.90926C6.08955 4.90169 5.67268 5.74523 5.4407 6.68051C5.34424 7.06702 5.64363 7.62002 6.02273 7.21912C6.26864 6.4529 6.31162 5.86397 6.80456 5.18629C7.29231 4.53405 7.69768 4.14395 8.19447 3.84844C8.59459 3.58536 8.99273 3.28505 9.3064 2.9189C9.47388 2.68183 9.79721 2.15921 9.87105 1.99804C10.1655 1.27088 10.8515 0.792391 11.565 0.512513C12.0262 0.34988 12.474 0.126359 12.9549 0.0260231C13.6043 -0.00827858 14.0629 -0.053411 14.6402 0.217144C15.0958 0.394411 15.3873 0.779106 15.7 1.12931C16.032 1.62044 16.2235 2.2907 16.4471 2.85809C16.6021 3.33455 16.7715 3.65079 17.0552 3.97007C17.2373 4.17505 17.4796 4.51038 17.6459 4.78667C18.1281 6.01958 18.613 6.93772 19.4527 7.98361C19.9015 8.47263 19.9913 8.71574 19.9913 9.36489C20.1191 10.3643 20.1097 11.1131 19.8784 12.1275C19.8505 12.2012 19.6904 12.4668 19.5222 12.7182C19.2742 13.089 19.2022 13.1777 19.1313 13.2134C19.0741 13.2421 19.0239 13.2582 18.9837 13.2481C18.8911 13.2249 18.7725 13.095 18.7404 12.9788C18.7002 12.8331 18.755 12.6324 18.9142 12.3533C19.1822 11.903 19.3244 11.3809 19.2356 10.8591C19.167 10.4812 19.1945 10.0917 19.14 9.71238C19.051 9.30331 18.9215 9.07821 18.7839 9.07821C18.6336 9.07821 18.5195 9.33997 18.3321 10.0686L18.2105 11.4151C18.2006 12.5166 18.2304 13.376 18.2887 13.613C18.3473 13.8513 18.3475 14.598 18.2887 14.9161C18.2344 15.2099 18.2496 15.3356 18.3669 15.6111C18.4854 15.8895 18.5234 16.079 18.5059 16.4016C18.4907 16.6792 18.4586 16.799 18.3495 17.0705C18.2278 17.3734 18.2068 17.4907 18.1845 17.9566C18.1728 18.1992 18.1429 18.4602 18.1236 18.5387C18.0128 18.9905 18.0293 19.0969 18.2453 19.7636C18.381 20.1828 18.4619 20.5769 18.4277 20.6323C18.4135 20.8777 18.4908 21.1277 18.4363 21.3708C18.4253 21.4103 -3.10062 21.7438 6.04879 20.7974ZM15.8737 11.0242C15.7137 11.0242 15.626 11.1337 15.4394 11.5193C15.1129 12.0942 14.8756 12.6224 14.8139 13.2916C14.7394 13.8495 14.7069 14.396 14.7097 14.9595L14.7097 15.7501L14.6402 15.8891C14.5982 15.9663 14.4748 16.129 14.3622 16.2452C14.2216 16.3904 14.1291 16.5078 14.0668 16.6275C13.9007 16.9469 13.7934 17.118 13.5891 17.392C13.3609 17.6978 13.1626 18.0577 13.12 18.2607C13.0849 18.4273 13.1119 18.5997 13.1981 18.7298C13.2306 18.7788 13.336 18.8837 13.4327 18.9644C13.7189 19.2032 13.8147 19.3601 13.8844 19.7636C13.9148 19.9395 13.9156 20.0093 13.8931 20.1632C13.8469 20.4791 13.7468 20.671 13.5977 20.754C14.71 20.8567 15.8312 21.0156 16.9596 21.2144C16.9758 21.1489 17.0016 21.0752 17.0377 20.9972C17.1792 20.6919 17.2062 20.6177 17.2462 20.3109C17.2878 19.9925 17.3367 19.8091 17.5503 19.1816C17.6959 18.7537 17.7011 18.7189 17.7153 18.4518C17.7396 17.9951 17.7116 17.3161 17.6545 17.0792C17.5794 16.7676 17.5592 16.5247 17.559 15.9151C17.5588 15.5013 17.5514 15.3026 17.5242 15.1593C17.4729 14.8886 17.3057 14.445 17.1072 14.0473C16.8981 13.6283 16.8332 13.478 16.7424 13.1439C16.5934 12.6748 16.3543 12.2541 16.282 11.7626C16.2188 11.2618 16.0883 11.0242 15.8737 11.0242ZM12.9375 12.0493C12.9033 12.047 12.871 12.06 12.8246 12.084C12.7276 12.1342 12.6741 12.2449 12.5553 12.6921C12.4267 13.176 12.3758 13.3178 12.2686 13.474C11.9693 13.91 11.9677 13.9172 11.8951 14.3427C11.815 14.8122 11.8064 14.8289 11.4868 15.1593C11.3324 15.3189 11.1231 15.5263 11.0264 15.6198C10.8049 15.8336 10.7222 16.0015 10.7223 16.2279C10.7225 16.4009 10.7493 16.4824 10.9656 16.8707C11.1559 17.2123 11.226 17.3057 11.3912 17.4788C11.5456 17.6406 11.8663 17.8892 12.0427 17.9827C12.1708 18.0506 12.3001 18.0598 12.3989 18.0087C12.4996 17.9567 12.6004 17.8239 12.6943 17.6265C12.7415 17.5273 12.859 17.314 12.9549 17.1487C13.269 16.6071 13.3506 16.3519 13.3805 15.7761C13.3912 15.5717 13.4077 15.2881 13.424 15.1506C13.4555 14.8835 13.4381 14.6365 13.3284 13.8475C13.3036 13.6688 13.2636 13.2511 13.2329 12.918C13.1739 12.2798 13.1485 12.1853 13.0417 12.1014C13.004 12.0716 12.9718 12.0516 12.9375 12.0492ZM9.15868 12.3446C8.99679 12.362 8.91072 12.4159 8.81121 12.5183C8.63434 12.7004 8.55084 12.9644 8.52454 13.474C8.50198 13.9109 8.48207 13.9843 8.24655 14.4643C8.0733 14.8175 8.03199 14.9777 7.94251 15.5155C7.89748 15.7863 7.8858 15.8911 7.89039 16.4016C7.89546 16.963 7.8939 17.0002 7.83827 17.1921C7.80647 17.3019 7.71262 17.536 7.62978 17.7134C7.44767 18.1032 7.41761 18.2149 7.38655 18.5995C7.37331 18.7632 7.34085 19.0249 7.30836 19.1815C7.27247 19.3546 7.24259 19.6057 7.23018 19.8244C7.21701 20.057 7.15443 20.3903 7.09119 20.7018C8.19395 20.6172 9.29361 20.5788 10.3922 20.5889C10.3729 20.545 10.3562 20.503 10.3662 20.4499C10.3907 20.319 10.5125 20.2166 10.8353 20.0589C11.0698 19.9444 11.1511 19.8895 11.2696 19.7723C11.5008 19.5437 11.661 19.1961 11.6606 18.9209C11.6211 18.5442 11.3068 18.2565 11.0872 17.9653C10.8804 17.6886 10.5375 17.3562 10.2359 17.14C9.92445 16.9169 9.63073 16.6651 9.53226 16.5319C9.48785 16.4718 9.43065 16.352 9.40195 16.2626C9.35386 16.1129 9.34952 16.0615 9.34983 15.5589C9.35011 14.9332 9.35567 14.9002 9.567 14.5251C9.73279 14.2309 9.79763 14.0195 9.82761 13.6477C9.84127 13.4781 9.88196 13.2235 9.91448 13.083C9.987 12.7696 9.97724 12.6261 9.88842 12.5097C9.79366 12.3855 9.65638 12.3438 9.34983 12.3446C9.27707 12.3448 9.21268 12.3388 9.15872 12.3446ZM12.5119 20.0329C12.4245 20.0254 12.3567 20.1178 12.2686 20.3022C12.1933 20.46 12.1007 20.5611 11.9733 20.641C12.3743 20.6612 12.77 20.6864 13.1721 20.7192C13.062 20.6468 12.9499 20.5314 12.8333 20.3543C12.6993 20.1509 12.5993 20.0404 12.5119 20.0329Z"/>
 </g>
</svg>
