<?xml version="1.0" standalone="no"?>
<!DOCTYPE svg PUBLIC "-//W3C//DTD SVG 20010904//EN" "http://www.w3.org/TR/2001/REC-SVG-20010904/DTD/svg10.dtd">
<!-- Created using Karbon, part of Calligra: http://www.calligra.org/karbon -->
<svg xmlns="http://www.w3.org/2000/svg" xmlns:xlink="http://www.w3.org/1999/xlink" width="38.4pt" height="38.4pt">
<defs/>
<g id="layer1">
  <path id="rect4090" transform="translate(7, 4)" style="fill:#ecf0f1" d="M0 0L0 40L34 40L34 11L23 0Z"/>
  <path id="path4151" transform="matrix(3.54331 0 0 3.54331 29.9999 3.99986)" style="fill:#ffffff" fill-opacity="0.75294117647" d="M0 0L0 3.10449L3.10446 3.10449Z"/>
  <path id="ellipse3266" transform="matrix(0.979254 0.202635 -0.202635 0.979254 26.7121 53.0271)" style="fill:none" d="M3.90134 1.94938C3.90134 0.872766 3.02799 6.59235e-17 1.95067 0C0.873344 -6.59235e-17 1.31934e-16 0.872766 0 1.94938C-1.31934e-16 3.02599 0.873344 3.89876 1.95067 3.89876C3.02799 3.89876 3.90134 3.02599 3.90134 1.94938"/>
  <path id="ellipse3268" transform="matrix(-0.202635 0.979254 -0.979254 -0.202635 55.8758 37.1624)" style="fill:none" d="M3.90134 1.94938C3.90134 0.872766 3.02799 6.59235e-17 1.95067 0C0.873344 -6.59235e-17 1.31934e-16 0.872766 0 1.94938C-1.31934e-16 3.02599 0.873344 3.89876 1.95067 3.89876C3.02799 3.89876 3.90134 3.02599 3.90134 1.94938"/>
  <path id="ellipse3270" transform="matrix(-0.202635 0.979254 -0.979254 -0.202635 13.8805 28.4724)" style="fill:none" d="M3.90134 1.94938C3.90134 0.872766 3.02799 6.59235e-17 1.95067 0C0.873344 -6.59235e-17 1.31934e-16 0.872766 0 1.94938C-1.31934e-16 3.02599 0.873344 3.89876 1.95067 3.89876C3.02799 3.89876 3.90134 3.02599 3.90134 1.94938"/>
  <rect id="rect3307" transform="matrix(0.979254 0.202635 -0.202635 0.979254 31.4743 17.3108)" style="fill:#bdc3c7" fill-rule="evenodd" width="5.90393956090pt" height="1.68684071797pt"/>
  <path id="ellipse3309" transform="matrix(0.979254 0.202635 -0.202635 0.979254 35.5679 15.0474)" style="fill:none" d="M1.95067 0.974689C1.95067 0.436383 1.514 3.29617e-17 0.975335 0C0.436672 -3.29617e-17 6.59671e-17 0.436383 0 0.974689C-6.59671e-17 1.513 0.436672 1.94938 0.975335 1.94938C1.514 1.94938 1.95067 1.513 1.95067 0.974689"/>
  <path id="ellipse3311" transform="matrix(0.979254 0.202635 -0.202635 0.979254 34.5804 19.8195)" style="fill:none" d="M1.95067 0.974689C1.95067 0.436383 1.514 3.29617e-17 0.975335 0C0.436672 -3.29617e-17 6.59671e-17 0.436383 0 0.974689C-6.59671e-17 1.513 0.436672 1.94938 0.975335 1.94938C1.514 1.94938 1.95067 1.513 1.95067 0.974689"/>
  <path id="rect3313" transform="matrix(0.979254 0.202635 -0.202635 0.979254 32.1939 13.9166)" style="fill:#bdc3c7" fill-rule="evenodd" d="M5.44274 0C6.10474 1.18345 6.76675 2.36689 7.42876 3.55034L0 3.55034C0.515205 2.62933 1.03041 1.70832 1.54561 0.787314Z"/>
  <rect id="rect3336" transform="matrix(0.31414 0.949377 0.949377 -0.31414 15.7102 35.0094)" style="fill:#bdc3c7" fill-rule="evenodd" width="5.90393956090pt" height="1.68684071797pt"/>
  <path id="path3338" transform="matrix(0.979254 0.202635 -0.202635 0.979254 14.0608 34.668)" style="fill:#bdc3c7" fill-rule="evenodd" d="M0 3.38004L1.60057 6.09727L5.43947 6.34018L1.70481 0Z"/>
  <rect id="rect3344" transform="matrix(-0.665114 0.746741 0.746741 0.665114 22.5281 20.2707)" style="fill:#bdc3c7" fill-rule="evenodd" width="5.90393956090pt" height="1.68684071797pt"/>
  <path id="path3346" transform="matrix(0.979254 0.202635 -0.202635 0.979254 17.2939 19.1876)" style="fill:#bdc3c7" fill-rule="evenodd" d="M1.6037 0.249026L0 3.03453L1.70815 6.49949L5.45012 0Z"/>
  <path id="ellipse3326" transform="matrix(0.31414 0.949377 -0.949377 0.31414 20.2379 37.3877)" style="fill:none" d="M1.95067 0.974689C1.95067 0.436383 1.514 3.29617e-17 0.975335 0C0.436672 -3.29617e-17 6.59671e-17 0.436383 0 0.974689C-6.59671e-17 1.513 0.436672 1.94938 0.975335 1.94938C1.514 1.94938 1.95067 1.513 1.95067 0.974689"/>
  <path id="ellipse3348" transform="matrix(0.665114 -0.746741 -0.746741 -0.665114 42.8417 44.7864)" style="fill:none" d="M1.95067 0.974689C1.95067 0.436383 1.514 3.29617e-17 0.975335 0C0.436672 -3.29617e-17 6.59671e-17 0.436383 0 0.974689C-6.59671e-17 1.513 0.436672 1.94938 0.975335 1.94938C1.514 1.94938 1.95067 1.513 1.95067 0.974689"/>
  <path id="ellipse3350" transform="matrix(0.665114 -0.746741 -0.746741 -0.665114 22.4628 26.6351)" style="fill:none" d="M1.95067 0.974689C1.95067 0.436383 1.514 3.29617e-17 0.975335 0C0.436672 -3.29617e-17 6.59671e-17 0.436383 0 0.974689C-6.59671e-17 1.513 0.436672 1.94938 0.975335 1.94938C1.514 1.94938 1.95067 1.513 1.95067 0.974689"/>
  <path id="shape0" transform="translate(16.0779, 17.7382)" style="fill:#bdc3c7" fill-rule="evenodd" stroke="#003bc3" stroke-width="0.00000000000" stroke-linecap="square" stroke-linejoin="bevel" d="M19.0037 0.318806C14.9491 -0.519959 10.5759 0.31648 7.11779 2.59045C3.65971 4.86445 1.1581 8.54767 0.319219 12.6016C-0.519633 16.6555 0.31481 21.0291 2.58644 24.4887C2.97625 25.0825 3.40763 25.6478 3.87527 26.1818C8.84613 26.2182 12.3707 26.2449 14.4489 26.2618C8.59301 24.5504 5.22931 19.8802 6.51364 13.8834C7.01696 11.451 8.51633 9.24074 10.5912 7.87639C12.666 6.51199 15.2287 6.15607 17.724 6.51364C20.3121 6.94412 22.7554 8.01057 24.9273 11.1329L24.9481 2.92365C23.1702 1.66295 21.1382 0.760342 19.0037 0.318806Z"/>
  <path id="path4252" transform="matrix(3.54331 0 0 3.54331 29.9999 15)" style="fill:#000000" fill-opacity="0.11764705882" d="M3.10446 3.10449L3.10446 0L0 0C1.03482 1.03483 2.06964 2.06966 3.10446 3.10449Z"/>
 </g>
</svg>
