<?xml version="1.0" standalone="no"?>
<!DOCTYPE svg PUBLIC "-//W3C//DTD SVG 20010904//EN" "http://www.w3.org/TR/2001/REC-SVG-20010904/DTD/svg10.dtd">
<!-- Created using Karbon, part of Calligra: http://www.calligra.org/karbon -->
<svg xmlns="http://www.w3.org/2000/svg" xmlns:xlink="http://www.w3.org/1999/xlink" width="38.4pt" height="38.4pt">
<defs/>
<g id="layer1">
  <path id="rect4090" transform="translate(7, 4)" fill="#ecf0f1" d="M0 0L0 40L34 40L34 11L23 0Z"/>
  <path id="path4151" transform="matrix(3.54331 0 0 3.54331 29.9999 3.99986)" fill="#ffffff" opacity="0.50000000000" d="M0 0L0 3.10449L3.10446 3.10449Z"/>
  <path id="path4252" transform="matrix(3.54331 0 0 3.54331 29.9999 15)" fill="#000000" fill-opacity="0.11764705882" d="M3.10446 3.10449L3.10446 0L0 0Z"/>
  <path id="shape0" transform="translate(16.9879, 13.5985)" fill="#2c3e50" fill-rule="evenodd" stroke="#003bc3" stroke-width="0.00000000000" stroke-linecap="square" stroke-linejoin="miter" stroke-miterlimit="2.00000000000" d="M0.000744069 7.26163C-0.120177 -2.51237 14.5376 -2.32828 14.5674 7.26163L14.5674 17.7336L0.000744069 17.7336Z"/>
  <rect id="shape1" transform="translate(12.4874, 33.0945)" fill="#2c3e50" fill-rule="evenodd" stroke="#003bc3" stroke-width="0.00000000000" stroke-linecap="square" stroke-linejoin="miter" stroke-miterlimit="2.01260185242" width="18.65607442282pt" height="3.38641614936pt"/>
  <path id="shape2" transform="translate(18.8589, 18.804)" fill="#ecf0f1" d="M1.18242 3.65373C1.18242 4.45727 1.18242 5.26082 1.18242 6.06436C0.788278 6.06436 0.394139 6.06436 0 6.06436C0 4.04509 0 2.02582 0 0.00655586C0.783401 0.0179059 1.56883 -0.0184041 2.35073 0.0292759C3.1197 0.0866459 3.81883 0.704168 3.87481 1.49032C3.98057 2.10874 3.73931 2.80641 3.15907 3.10514C3.02437 3.23147 3.68563 3.37861 3.73044 3.68288C4.14147 4.36332 3.73824 5.22201 4.13351 5.90277C4.36113 6.13026 3.97959 6.05335 3.84628 6.06437C3.55647 6.06437 3.26666 6.06437 2.97686 6.06437C2.69725 5.72953 2.77879 5.24987 2.7562 4.84203C2.77145 4.41688 2.74389 3.85823 2.27642 3.68886C1.91849 3.62155 1.54606 3.66705 1.18242 3.65373ZM1.18242 2.70863C1.57419 2.68514 1.98653 2.77248 2.35794 2.62244C2.80101 2.34387 2.78527 1.67878 2.56695 1.26139C2.32914 0.847466 1.81622 0.97155 1.42035 0.951667C1.2228 0.909417 1.13332 0.975247 1.18242 1.17964C1.18242 1.68931 1.18242 2.19897 1.18242 2.70864ZM6.08278 6.06437C5.69003 6.06437 5.29728 6.06437 4.90453 6.06437C4.90453 4.04371 4.90453 2.02306 4.90453 0.00240286C5.29728 0.00240286 5.69003 0.00240286 6.08278 0.00240286C6.08278 2.02306 6.08278 4.04371 6.08278 6.06437ZM8.24361 3.89105C8.24361 4.61549 8.24361 5.33993 8.24361 6.06437C7.84808 6.06437 7.45256 6.06437 7.05703 6.06437C7.05703 4.04371 7.05703 2.02306 7.05703 0.00240286C7.86807 0.0124429 8.68077 -0.0192271 9.49062 0.0212829C10.3483 0.0811929 11.0623 0.828514 11.1077 1.68293C11.2125 2.49057 10.8502 3.40013 10.0602 3.72243C9.48646 3.97199 8.85013 3.86906 8.24361 3.89105ZM8.24361 2.94179C8.63635 2.92681 9.03614 2.97794 9.42271 2.90257C9.99211 2.66925 10.0408 1.88991 9.82988 1.38987C9.69792 1.01322 9.28953 0.918611 8.93575 0.951668C8.70504 0.951668 8.47432 0.951668 8.24361 0.951668C8.24361 1.61504 8.24361 2.27842 8.24361 2.94179Z"/>
 </g>
</svg>
