<?xml version="1.0" standalone="no"?>
<!DOCTYPE svg PUBLIC "-//W3C//DTD SVG 20010904//EN" "http://www.w3.org/TR/2001/REC-SVG-20010904/DTD/svg10.dtd">
<!-- Created using Karbon, part of Calligra: http://www.calligra.org/karbon -->
<svg xmlns="http://www.w3.org/2000/svg" xmlns:xlink="http://www.w3.org/1999/xlink" width="38.4pt" height="38.4pt">
<defs/>
<g id="layer0">
  <path id="rect4090" transform="translate(7.2449, 4.87075)" fill="#ecf0f1" d="M0 0L0 40L34 40L34 11L23 8.88178e-16Z"/>
  <path id="path4151" transform="translate(29.9999, 3.99986)" fill="#ffffff" fill-opacity="0.75294117647" d="M0 0L0 11.0002L11.0001 11.0002Z"/>
  <path id="shape0" transform="translate(14.2813, 17.6562)" fill="#c0392b" fill-rule="evenodd" stroke="#003bc3" stroke-width="0.00000000000" stroke-linecap="square" stroke-linejoin="miter" stroke-miterlimit="2.00000000000" d="M15.5625 0L11.9375 3.59375L17.875 6.3125L24.1875 0ZM24.75 0.5L18.5 6.75L24.75 23.6562ZM11.375 4.1875L4.15625 11.3438L6.875 17.2812L17.2812 6.90625ZM17.9062 7.34375L7.40625 17.875L24.0312 24.0312ZM3.5625 11.9062L0 15.4687L0 24.1562L6.3125 17.8438ZM6.8125 18.4688L0.5625 24.7188L23.7813 24.7188Z"/>
  <path id="shape1" transform="translate(36.1538, 20.0106)" fill="#e74c3c" fill-rule="evenodd" stroke="#003bc3" stroke-width="0.00000000000" stroke-linecap="square" stroke-linejoin="bevel" d="M2.13575 17.2784L2.17423 0L0 2.21272Z"/>
  <path id="shape11" transform="translate(29.7851, 18.0481)" fill="#e74c3c" fill-rule="evenodd" stroke="#003bc3" stroke-width="0.00000000000" stroke-linecap="square" stroke-linejoin="bevel" d="M7.50399 0L0 0.173169L4.6948 2.55905Z"/>
  <path id="path4252" transform="translate(29.9999, 15)" fill="#000000" fill-opacity="0.11764705882" d="M11.0001 11.0002L11.0001 0L0 0Z"/>
  <path id="shape12" transform="translate(26.5578, 28.1905)" fill="#e74c3c" fill-rule="evenodd" stroke="#003bc3" stroke-width="0.00000000000" stroke-linecap="square" stroke-linejoin="bevel" d="M10.4619 12.0617L3.70068 0L0 3.89116Z"/>
  <path id="shape13" transform="translate(18.4714, 36.9915)" fill="#e74c3c" fill-rule="evenodd" stroke="#003bc3" stroke-width="0.00000000000" stroke-linecap="square" stroke-linejoin="bevel" d="M16.3933 4.76146L2.96375 0L0 3.14522Z"/>
  <path id="shape14" transform="translate(22.2313, 23.619)" fill="#e74c3c" fill-rule="evenodd" stroke="#003bc3" stroke-width="0.00000000000" stroke-linecap="square" stroke-linejoin="bevel" d="M6.44898 2.66667L3.04762 0L0 2.9932L2.34014 6.42177Z"/>
  <path id="shape15" transform="translate(16.0662, 30.9913)" fill="#e74c3c" fill-rule="evenodd" stroke="#003bc3" stroke-width="0.00000000000" stroke-linecap="square" stroke-linejoin="bevel" d="M3.65579 4.45063L1.52931 0L0 1.50676L0.654194 7.24057Z"/>
 </g>
</svg>
