<?xml version="1.0" standalone="no"?>
<!DOCTYPE svg PUBLIC "-//W3C//DTD SVG 20010904//EN" "http://www.w3.org/TR/2001/REC-SVG-20010904/DTD/svg10.dtd">
<!-- Created using Karbon, part of Calligra: http://www.calligra.org/karbon -->
<svg xmlns="http://www.w3.org/2000/svg" xmlns:xlink="http://www.w3.org/1999/xlink" width="38.4pt" height="38.4pt">
<defs/>
<g id="layer1">
  <path id="rect4090" transform="translate(7.00674, 4.01618)" fill="#f1c40f" d="M0 0L0 40L34 40L34 11L23 0Z"/>
  <path id="shape0" transform="translate(25.6062, 4.03856)" fill="#27ae60" fill-rule="evenodd" stroke="#003bc3" stroke-width="0.00000000000" stroke-linecap="square" stroke-linejoin="bevel" d="M0.171854 0L4.29634 0L15.2528 10.9564L15.2528 40.0422L10.1387 40.0422L9.03181 35.9114C11.0455 33.8438 12.0622 32.8271 12.0819 32.8613C12.1017 32.8955 11.6546 30.9354 10.7409 26.981L6.61637 24.9188L4.55413 21.8684L7.81935 18.9039L6.78823 16.8417L4.9408 15.338L1.63261 14.2639L2.40595 9.10825L0 5.15561Z"/>
  <path id="path4151" transform="matrix(3.54331 0 0 3.54331 29.9999 3.99986)" fill="#2ecc71" d="M0 0L0 3.10449L3.10446 3.10449Z"/>
  <path id="path4252" transform="matrix(3.54331 0 0 3.54331 29.9999 15)" fill="#000000" fill-opacity="0.11764705882" d="M3.10446 3.10449L3.10446 0L0 0Z"/>
  <path id="shape1" transform="translate(11.2709, 4.01013)" fill="#2980b9" fill-rule="evenodd" stroke="#003bc3" stroke-width="0.00000000000" stroke-linecap="square" stroke-linejoin="bevel" d="M5.13418 0L11.8177 2.7766e-15L9.86713 4.99937L9.84304 9.99873L12.1823 14.9981L11.2849 20.9087L13.4886 25.3975L16.6554 29.9962L17.4287 34.9956L19.443 39.9949L12.8345 39.9949L10.8108 34.9956C10.6991 34.8569 9.98155 32.5081 8.65823 27.9494L6.53165 27.8278L4.3443 31.5038L1.03291 31.5646L0 28.9215L4.01013 28.3139L6.44051 24.3342L6.28861 19.3519L4.62952 14.9981L2.55789 9.99873L3.19297 4.99937Z"/>
  <path id="shape2" transform="translate(7.02084, 3.9956)" fill="#27ae60" fill-rule="evenodd" stroke="#003bc3" stroke-width="0.00000000000" stroke-linecap="square" stroke-linejoin="bevel" d="M0 40.0042L2.22045e-15 0.0297156L4.06373 0L4.38407 4.94005L2.26223 12.8589L6.48094 20.1659L7.61478 24.3974L6.0735 27.067L3.03261 27.3677L2.06225 29.693C3.22472 31.408 3.83459 32.2942 3.89188 32.3515C3.94916 32.4088 5.42424 32.7525 8.31711 33.3826L11.5142 32.013L12.8031 35.6219L11.6861 38.5434L11.8579 40.0042Z"/>
  <path id="shape3" transform="matrix(-3.14419e-17 1 -1 -3.14419e-17 37.7325 25.7563)" fill="#e74c3c" fill-rule="evenodd" stroke="#003bc3" stroke-width="0.00000000000" stroke-linecap="square" stroke-linejoin="bevel" d="M0.000249382 4.43579C0.0220151 1.47802 1.31794 -0.000576708 3.88804 1.68736e-07C6.09836 0.0165876 9.42759 1.55273 13.8757 4.60842C9.63802 7.47601 6.41585 8.95286 4.20923 9.03897C1.38148 8.92795 -0.0215163 7.39356 0.000249382 4.43579Z"/>
  <path id="shape4" transform="translate(30.952, 27.619)" fill="#ecf0f1" fill-rule="evenodd" stroke="#003bc3" stroke-width="0.00000000000" stroke-linecap="square" stroke-linejoin="miter" stroke-miterlimit="2.01260191180" d="M2.22948 0.00111724C0.966615 0.0414526 -0.0284396 1.12654 0.000620634 2.43164C0.0296808 3.73674 1.07198 4.7734 2.3353 4.75369C3.59862 4.73397 4.60931 3.62772 4.60021 2.32231C4.5512 1.01784 3.49234 -0.0392181 2.22948 0.00111724Z"/>
 </g>
</svg>
