<?xml version="1.0" standalone="no"?>
<!DOCTYPE svg PUBLIC "-//W3C//DTD SVG 20010904//EN" "http://www.w3.org/TR/2001/REC-SVG-20010904/DTD/svg10.dtd">
<!-- Created using Karbon, part of Calligra: http://www.calligra.org/karbon -->
<svg xmlns="http://www.w3.org/2000/svg" xmlns:xlink="http://www.w3.org/1999/xlink" width="38.4pt" height="38.4pt">
<defs/>
<g id="layer1">
  <path id="rect4090" transform="translate(7, 4)" fill="#ecf0f1" d="M0 0L0 40L34 40L34 11L23 0Z"/>
  <path id="path4151" transform="matrix(3.54331 0 0 3.54331 29.9999 3.99986)" fill="#ffffff" fill-opacity="0.75294117647" d="M0 0L0 3.10449L3.10446 3.10449Z"/>
  <path id="path4254" transform="matrix(1 0 0 1 12.5954 25.5971)" fill="#bfccd7" fill-rule="evenodd" d="M7.74402 0L0 7.50752L0 9.59978L22.3434 9.59978L22.3434 7.50752L14.5994 0L11.1717 3.323Z"/>
  <path id="path4251" transform="matrix(1 0 0 1 12.5954 15.2463)" fill="#bfccd7" fill-rule="evenodd" d="M0 0L0 2.77706L11.1717 13.8853L22.3434 2.77706L22.3434 0Z"/>
  <path id="path4238" transform="matrix(1 0 0 1 12.5954 25.9758)" fill="#f5fbfe" fill-rule="evenodd" d="M7.99792 0L0 7.95248L0 9.46724L22.3434 9.46724L22.3434 7.95248L14.3455 0L11.1717 3.15575Z"/>
  <path id="path4219" transform="matrix(1 0 0 1 12.5954 15.2463)" fill="#f5fbfe" fill-rule="evenodd" d="M0 0L0 1.51476L11.1717 12.623L22.3434 1.51476L22.3434 0Z"/>
  <path id="path4252" transform="matrix(3.54331 0 0 3.54331 29.9999 15)" fill="#000000" fill-opacity="0.11764705882" d="M3.10446 3.10449L3.10446 0L0 0Z"/>
 </g>
</svg>
