<?xml version="1.0" standalone="no"?>
<!DOCTYPE svg PUBLIC "-//W3C//DTD SVG 20010904//EN" "http://www.w3.org/TR/2001/REC-SVG-20010904/DTD/svg10.dtd">
<!-- Created using Karbon, part of Calligra: http://www.calligra.org/karbon -->
<svg xmlns="http://www.w3.org/2000/svg" xmlns:xlink="http://www.w3.org/1999/xlink" width="38.4pt" height="38.4pt">
<defs/>
<g id="layer1">
  <path id="rect3304" transform="translate(7.01576, 4.00394)" fill="#d4a275" fill-rule="evenodd" d="M0 0C3.77953 0 11.4409 0 22.9842 0L33.9774 11.0029L34.0158 40.004L0 40.004Z"/>
  <path id="path4151" transform="matrix(3.54331 0 0 3.54331 29.9999 3.99986)" fill="#f3d0b2" opacity="0.50000000000" d="M0 0L0 3.10449L3.10446 3.10449Z"/>
  <path id="path3331" transform="translate(15.6549, 18.6735)" fill="#201810" d="M8.79297 3.01979e-08C6.4898 0.000195515 4.20073 0.948703 2.57335 2.57719C0.945994 4.20567 0 6.49398 0 8.79678C0 11.0996 0.945994 13.3879 2.57335 15.0163C4.20073 16.6448 6.4898 17.5933 8.79297 17.5935C11.0961 17.5938 13.385 16.6448 15.0145 15.0163C16.6439 13.3879 17.5935 11.0999 17.5935 8.79678C17.5935 6.49369 16.6439 4.20567 15.0145 2.57719C13.385 0.948703 11.0961 -0.000195455 8.79297 3.01979e-08ZM8.79297 1.95484C12.3756 1.95465 15.6386 5.21425 15.6386 8.79678C15.6386 12.3793 12.3756 15.6389 8.79297 15.6386C5.21028 15.6384 1.95484 12.379 1.95484 8.79678C1.95484 5.21454 5.21028 1.95504 8.79297 1.95484Z"/>
  <rect id="rect4351" transform="translate(22.8012, 23.0395)" fill="#201810" fill-rule="evenodd" width="3.04086236948pt" height="5.32150914656pt"/>
  <path id="path4353" transform="translate(19.4752, 26.8406)" fill="#201810" fill-rule="evenodd" d="M5.13032 5.8163L0 0L10.2607 0Z"/>
  <path id="path4252" transform="matrix(3.54331 0 0 3.54331 29.9999 15)" fill="#000000" fill-opacity="0.11764705882" d="M3.10446 3.10449L3.10446 0L0 0Z"/>
  <rect id="rect4206" transform="translate(21.6076, 41.4976)" fill="#dbb797" fill-rule="evenodd" width="3.43615144476pt" height="1.96351560217pt"/>
  <rect id="rect4223" transform="translate(21.6076, 4.03461)" fill="#dbb797" fill-rule="evenodd" width="3.43615144476pt" height="1.96351560217pt"/>
 </g>
</svg>
