<svg xmlns="http://www.w3.org/2000/svg" width="48" height="48">
 <g transform="translate(-180.23661,-689.8125)">
  <ellipse transform="scale(1,-1)" cx="204.22" cy="-713.81" rx="20.01" ry="20" style="fill:#5b6d71"/>
  <path d="M 22.5 6 L 20.5 9 L 20.5 9.4375 C 17.823722 10.091208 15.318171 11.461757 13.375 13.40625 C 13.286934 13.494376 13.210686 13.597165 13.125 13.6875 L 12.75 13.46875 L 9.15625 13.6875 L 7.65625 16.3125 L 9.25 19.53125 L 9.625 19.75 C 9.2156415 21.127021 9 22.560075 9 24 C 9 25.439237 9.213363 26.871587 9.625 28.25 L 9.25 28.46875 L 7.65625 31.6875 L 9.15625 34.3125 L 12.75 34.53125 L 13.125 34.3125 C 13.211917 34.404191 13.285665 34.504354 13.375 34.59375 C 15.318171 36.538243 17.823722 37.908792 20.5 38.5625 L 20.5 39 L 22.5 42 L 25.5 42 L 27.5 39 L 27.5 38.53125 C 30.156928 37.875099 32.654121 36.532234 34.59375 34.59375 C 34.681929 34.505623 34.757904 34.402834 34.84375 34.3125 L 35.25 34.53125 L 38.84375 34.3125 L 40.34375 31.6875 L 38.75 28.46875 L 38.375 28.25 C 38.789188 26.873092 39 25.43997 39 24 C 39 22.56003 38.789188 21.126908 38.375 19.75 L 38.75 19.53125 L 40.34375 16.3125 L 38.84375 13.6875 L 35.25 13.46875 L 34.84375 13.6875 C 34.757904 13.597166 34.681929 13.494377 34.59375 13.40625 C 32.654121 11.467766 30.156928 10.124901 27.5 9.46875 L 27.5 9 L 25.5 6 L 22.5 6 z M 24 15 C 26.356358 14.99986 28.70791 15.958893 30.375 17.625 C 32.04209 19.291107 33 21.643732 33 24 C 33 26.356268 32.04209 28.708893 30.375 30.375 C 28.70791 32.041107 26.356358 33.00014 24 33 C 21.643641 32.99986 19.289966 32.041099 17.625 30.375 C 15.960035 28.708902 15 26.356005 15 24 C 15 21.643995 15.960035 19.291098 17.625 17.625 C 19.289966 15.958901 21.643641 15.00014 24 15 z " transform="translate(180.23661,689.8125)" style="fill:#bdc3c7"/>
  <path d="M 23.998047 18.5 C 21.118054 18.500171 18.5 21.120439 18.5 24 C 18.5 26.879561 21.118054 29.499829 23.998047 29.5 C 26.87804 29.500171 29.5 26.879882 29.5 24 C 29.5 21.120118 26.87804 18.499829 23.998047 18.5 z M 23.998047 19.5 C 26.354405 19.49986 28.5 21.643733 28.5 24 C 28.5 26.356267 26.354405 28.50014 23.998047 28.5 C 21.641689 28.49986 19.5 26.356004 19.5 24 C 19.5 21.643996 21.641689 19.50014 23.998047 19.5 z " transform="translate(180.23661,689.8125)" style="fill:#ecf0f1" fill-rule="evenodd"/>
 </g>
</svg>
