<?xml version="1.0" standalone="no"?>
<!DOCTYPE svg PUBLIC "-//W3C//DTD SVG 20010904//EN" "http://www.w3.org/TR/2001/REC-SVG-20010904/DTD/svg10.dtd">
<!-- Created using Karbon, part of Calligra: http://www.calligra.org/karbon -->
<svg xmlns="http://www.w3.org/2000/svg" xmlns:xlink="http://www.w3.org/1999/xlink" width="38.4pt" height="38.4pt">
<defs/>
<g id="layer1">
  <path id="rect4090" transform="translate(7, 4)" style="fill:#ecf0f1" d="M0 0L0 40L34 40L34 11L23 0Z"/>
  <path id="path4151" transform="matrix(3.54331 0 0 3.54331 29.9999 3.99986)" style="fill:#ffffff" fill-opacity="0.75294117647" d="M0 0L0 3.10449L3.10446 3.10449Z"/>
  <path id="path4252" transform="matrix(3.54331 0 0 3.54331 29.9999 15)" style="fill:#000000" fill-opacity="0.11764705882" d="M3.10446 3.10449L3.10446 0L0 0Z"/>
  <path id="shape0" transform="translate(19.3136, 23.8462)" style="fill:#2c3e50" fill-rule="evenodd" stroke="#003bc3" stroke-width="0.00000000000" stroke-linecap="square" stroke-linejoin="miter" stroke-miterlimit="2.00000000000" d="M2.75685 0L4.49758 0.363529L1.61324 17.0647C1.503 15.1992 0.965247 13.9112 0 13.2009C1.22527 7.33386 2.14422 2.93354 2.75685 0Z"/>
  <path id="shape11" transform="translate(20.2971, 18.4524)" style="fill:#2c3e50" fill-rule="evenodd" stroke="#003bc3" stroke-width="0.00000000000" stroke-linecap="square" stroke-linejoin="miter" stroke-miterlimit="2.00000000000" d="M3.60678 9.87925e-05C1.81899 0.0156556 0 1.77778 0 3.62118C0 5.46457 1.76511 7.22681 3.61168 7.22681C5.45824 7.22681 7.21745 5.43346 7.21745 3.62118C7.21745 1.80889 5.39457 -0.015458 3.60678 9.87925e-05ZM3.60678 1.67306C4.68566 1.67306 5.55363 2.54162 5.55363 3.62118C5.55363 4.70074 4.68566 5.56928 3.60678 5.56928C2.52792 5.56928 1.65992 4.70074 1.65992 3.62118C1.65992 2.54162 2.52792 1.67306 3.60678 1.67306Z"/>
  <path id="shape1" transform="translate(23.9444, 23.8094)" style="fill:#2c3e50" fill-rule="evenodd" stroke="#003bc3" stroke-width="0.00000000000" stroke-linecap="square" stroke-linejoin="miter" stroke-miterlimit="2.00000000000" d="M1.75208 0L0 0.365899L2.895 17.2129C3.01 15.321 3.55671 14.0255 4.53516 13.3266Z"/>
  <rect id="shape2" transform="translate(22.9664, 15.238)" style="fill:#2c3e50" fill-rule="evenodd" stroke="#003bc3" stroke-width="0.00000000000" stroke-linecap="square" stroke-linejoin="miter" stroke-miterlimit="2.00000000000" width="1.56887004921pt" height="3.51088041112pt" rx="0.78443502461pt" ry="0.80584552710pt"/>
  <rect id="shape3" transform="translate(17.6214, 32.6292)" style="fill:#2c3e50" fill-rule="evenodd" stroke="#003bc3" stroke-width="0.00000000000" stroke-linecap="square" stroke-linejoin="miter" stroke-miterlimit="2.00000000000" width="10.01226680229pt" height="0.72016610210pt"/>
  <rect id="shape4" transform="translate(23.2506, 31.308)" style="fill:#2c3e50" fill-rule="evenodd" stroke="#003bc3" stroke-width="0.00000000000" stroke-linecap="square" stroke-linejoin="miter" stroke-miterlimit="2.00000000000" width="1.01525933331pt" height="2.78857896883pt" rx="0.50762966665pt" ry="0.42901214905pt"/>
 </g>
</svg>
