<svg xmlns="http://www.w3.org/2000/svg" width="48" height="48">
 <path d="M 7,4 7,44 41,44 41,15 30,4 z" style="fill:#ecf0f1"/>
 <path d="m 29.9999,3.99986 0,11.00017 11.000064,0 z" opacity="0.5" style="fill:#ffffff"/>
 <rect y="15.09" x="11.959" height="28.939" width="29.07" style="fill:#203040"/>
 <path d="M 40.999964,26.00017 40.999964,15 29.9999,15 z" fill-opacity="0.118"/>
 <path d="m 16.270529,29.025023 c 0,1.788174 0,3.576348 0,5.364522 0.98902,0.02763 2.153946,0.01781 2.792671,-0.870961 0.664492,-0.990475 0.667905,-2.381793 0.133964,-3.429928 -0.543343,-0.985791 -1.754422,-1.11789 -2.767032,-1.063633 -0.0532,0 -0.106402,0 -0.159603,0 z m -2.043347,-1.713586 c 1.68492,0.04938 3.425734,-0.176538 5.051412,0.365465 1.647086,0.620399 2.497147,2.457969 2.396618,4.145118 0.04764,1.700492 -0.938196,3.48826 -2.62526,3.998457 -1.571763,0.420076 -3.21427,0.244185 -4.82277,0.282653 0,-2.930564 0,-5.861128 0,-8.791693 z m 12.636955,1.48393 c -1.079783,-0.05758 -1.787432,0.995068 -1.888866,1.966247 -0.146862,1.21111 -0.15662,2.734029 0.886879,3.570334 0.916566,0.660744 2.334176,0.190816 2.677292,-0.887891 0.421848,-1.20512 0.437744,-2.63723 -0.163958,-3.785042 -0.300154,-0.54113 -0.890563,-0.88473 -1.511347,-0.863648 z m 0,-1.642922 c 1.564782,-0.06976 3.144018,0.848419 3.687045,2.351245 0.553911,1.532051 0.544165,3.326065 -0.177762,4.802151 -0.725,1.506313 -2.499634,2.151978 -4.083683,1.938443 -1.659572,-0.09986 -3.041901,-1.451114 -3.342262,-3.058589 -0.378616,-1.863786 -0.140713,-4.157153 1.524045,-5.350903 0.691637,-0.494407 1.553487,-0.68563 2.392617,-0.682347 z m 11.123582,0.435757 c 0,0.620267 0,1.240534 0,1.8608 -1.066644,-0.506235 -2.386912,-0.940567 -3.527276,-0.429868 -0.879808,0.667909 0.0488,1.662172 0.899688,1.618121 1.116547,0.249404 2.510121,0.467618 2.970641,1.677801 0.410725,1.262096 0.169492,3.01884 -1.164793,3.624849 -1.549858,0.629521 -3.323242,0.302936 -4.831324,-0.296086 0,-0.637933 0,-1.275865 0,-1.913798 1.106219,0.633637 2.498544,1.213399 3.757943,0.711602 1.004657,-0.589202 0.158315,-1.865746 -0.805119,-1.813398 -1.089226,-0.253294 -2.413459,-0.526311 -2.850211,-1.706169 -0.471245,-1.295653 -0.03753,-3.075808 1.388307,-3.546021 1.350157,-0.452218 2.827503,-0.148699 4.162144,0.212167 z" style="fill:#ecf0f1"/>
</svg>
