<?xml version="1.0" standalone="no"?>
<!DOCTYPE svg PUBLIC "-//W3C//DTD SVG 20010904//EN" "http://www.w3.org/TR/2001/REC-SVG-20010904/DTD/svg10.dtd">
<!-- Created using Karbon, part of Calligra: http://www.calligra.org/karbon -->
<svg xmlns="http://www.w3.org/2000/svg" xmlns:xlink="http://www.w3.org/1999/xlink" width="38.4pt" height="38.4pt">
<defs/>
<g id="layer1">
  <path id="rect4090" transform="translate(7, 4)" fill="#ecf0f1" d="M0 0L0 40L34 40L34 11L23 0Z"/>
  <path id="path4151" transform="matrix(3.54331 0 0 3.54331 29.9999 3.99986)" fill="#ffffff" fill-opacity="0.75294117647" d="M0 0L0 3.10449L3.10446 3.10449Z"/>
  <path id="path4252" transform="matrix(3.54331 0 0 3.54331 29.9999 15)" fill="#000000" fill-opacity="0.11764705882" d="M3.10446 3.10449L3.10446 0L0 0Z"/>
  <rect id="shape0" transform="translate(19.6316, 19.1953)" fill="#2c3e50" fill-rule="evenodd" stroke="#003bc3" stroke-width="0.00000000000" stroke-linecap="square" stroke-linejoin="miter" stroke-miterlimit="2.00000000000" width="7.28886547424pt" height="7.28886547424pt"/>
  <rect id="shape0" transform="translate(20.847, 15.0256)" fill="#f1c40f" fill-rule="evenodd" stroke="#003bc3" stroke-width="0.00000000000" stroke-linecap="square" stroke-linejoin="miter" stroke-miterlimit="2.00000000000" width="0.82478746790pt" height="2.93243216013pt"/>
  <rect id="shape1" transform="translate(22.7504, 15.0378)" fill="#f1c40f" fill-rule="evenodd" stroke="#003bc3" stroke-width="0.00000000000" stroke-linecap="square" stroke-linejoin="miter" stroke-miterlimit="2.00000000000" width="0.82478746790pt" height="2.92563266542pt"/>
  <rect id="shape2" transform="translate(24.6019, 15.0378)" fill="#f1c40f" fill-rule="evenodd" stroke="#003bc3" stroke-width="0.00000000000" stroke-linecap="square" stroke-linejoin="miter" stroke-miterlimit="2.00000000000" width="0.82478746790pt" height="2.92001159345pt"/>
  <rect id="shape3" transform="translate(26.549, 15.043)" fill="#f1c40f" fill-rule="evenodd" stroke="#003bc3" stroke-width="0.00000000000" stroke-linecap="square" stroke-linejoin="miter" stroke-miterlimit="2.00000000000" width="0.82478746790pt" height="2.92001159345pt"/>
  <rect id="shape4" transform="matrix(0 1 -1 0 33.0176 20.3964)" fill="#f1c40f" fill-rule="evenodd" stroke="#003bc3" stroke-width="0.00000000000" stroke-linecap="square" stroke-linejoin="miter" stroke-miterlimit="2.00000000000" width="0.82478746790pt" height="2.93243216013pt"/>
  <rect id="shape5" transform="matrix(0 1 -1 0 33.0054 22.2998)" fill="#f1c40f" fill-rule="evenodd" stroke="#003bc3" stroke-width="0.00000000000" stroke-linecap="square" stroke-linejoin="miter" stroke-miterlimit="2.00000000000" width="0.82478746790pt" height="2.92563266542pt"/>
  <rect id="shape6" transform="matrix(0 1 -1 0 33.0054 24.1513)" fill="#f1c40f" fill-rule="evenodd" stroke="#003bc3" stroke-width="0.00000000000" stroke-linecap="square" stroke-linejoin="miter" stroke-miterlimit="2.00000000000" width="0.82478746790pt" height="2.92001159345pt"/>
  <rect id="shape7" transform="matrix(0 1 -1 0 33.0002 26.0984)" fill="#f1c40f" fill-rule="evenodd" stroke="#003bc3" stroke-width="0.00000000000" stroke-linecap="square" stroke-linejoin="miter" stroke-miterlimit="2.00000000000" width="0.82478746790pt" height="2.92001159345pt"/>
  <rect id="shape8" transform="matrix(-1 0 0 -1 27.7274 32.4782)" fill="#f1c40f" fill-rule="evenodd" stroke="#003bc3" stroke-width="0.00000000000" stroke-linecap="square" stroke-linejoin="miter" stroke-miterlimit="2.00000000000" width="0.82478746790pt" height="2.93243216013pt"/>
  <rect id="shape9" transform="matrix(-1 0 0 -1 25.824 32.466)" fill="#f1c40f" fill-rule="evenodd" stroke="#003bc3" stroke-width="0.00000000000" stroke-linecap="square" stroke-linejoin="miter" stroke-miterlimit="2.00000000000" width="0.82478746790pt" height="2.92563266542pt"/>
  <rect id="shape10" transform="matrix(-1 0 0 -1 23.9726 32.466)" fill="#f1c40f" fill-rule="evenodd" stroke="#003bc3" stroke-width="0.00000000000" stroke-linecap="square" stroke-linejoin="miter" stroke-miterlimit="2.00000000000" width="0.82478746790pt" height="2.92001159345pt"/>
  <rect id="shape11" transform="matrix(-1 0 0 -1 22.0254 32.4609)" fill="#f1c40f" fill-rule="evenodd" stroke="#003bc3" stroke-width="0.00000000000" stroke-linecap="square" stroke-linejoin="miter" stroke-miterlimit="2.00000000000" width="0.82478746790pt" height="2.92001159345pt"/>
  <rect id="shape12" transform="matrix(0 -1 1 0 15.5569 27.1075)" fill="#f1c40f" fill-rule="evenodd" stroke="#003bc3" stroke-width="0.00000000000" stroke-linecap="square" stroke-linejoin="miter" stroke-miterlimit="2.00000000000" width="0.82478746790pt" height="2.93243216013pt"/>
  <rect id="shape13" transform="matrix(0 -1 1 0 15.5691 25.2041)" fill="#f1c40f" fill-rule="evenodd" stroke="#003bc3" stroke-width="0.00000000000" stroke-linecap="square" stroke-linejoin="miter" stroke-miterlimit="2.00000000000" width="0.82478746790pt" height="2.92563266542pt"/>
  <rect id="shape14" transform="matrix(0 -1 1 0 15.5691 23.3526)" fill="#f1c40f" fill-rule="evenodd" stroke="#003bc3" stroke-width="0.00000000000" stroke-linecap="square" stroke-linejoin="miter" stroke-miterlimit="2.00000000000" width="0.82478746790pt" height="2.92001159345pt"/>
  <rect id="shape15" transform="matrix(0 -1 1 0 15.5742 21.4054)" fill="#f1c40f" fill-rule="evenodd" stroke="#003bc3" stroke-width="0.00000000000" stroke-linecap="square" stroke-linejoin="miter" stroke-miterlimit="2.00000000000" width="0.82478746790pt" height="2.92001159345pt"/>
 </g>
</svg>
