<svg xmlns="http://www.w3.org/2000/svg" width="48" height="48">
 <g>
  <path transform="translate(7, 4)" d="M0 0L0 40L34 40L34 11L23 0Z" style="fill:#ecf0f1"/>
  <path transform="matrix(3.54331 0 0 3.54331 29.9999 3.99986)" opacity="0.5" d="M0 0L0 3.10449L3.10446 3.10449Z" style="fill:#ffffff"/>
  <path transform="matrix(3.54331 0 0 3.54331 29.9999 15)" fill-opacity="0.118" d="M3.10446 3.10449L3.10446 0L0 0Z"/>
  <path d="m 21.035932,21.670795 c 0.976959,-1.632882 3.009524,-2.829422 5.128723,-2.551752 2.000047,0.101916 3.667464,1.499719 4.209355,3.181645 0.799246,2.240906 0.489226,4.614867 0.55294,6.92806 0,2.360891 0,4.721782 0,7.082672 -1.182494,0 -2.36499,0 -3.547485,0 -0.01153,-3.690086 0.02369,-7.380855 -0.01878,-11.07049 -0.07362,-1.291018 -0.359822,-2.891729 -1.833269,-3.482111 -1.560014,-0.591158 -3.390596,0.154161 -4.202055,1.422726 -0.479068,0.495926 -0.227415,1.167658 -0.289431,1.762432 0,3.789148 0,7.578296 0,11.367443 -1.182494,0 -2.36499,0 -3.547485,0 0,-8.125 0,-16.25 0,-24.375 1.182495,0 2.364991,0 3.547485,0 0,3.244792 0,6.489584 0,9.734375 z" style="fill:#a100e1"/>
 </g>
</svg>
