<?xml version="1.0" standalone="no"?>
<!DOCTYPE svg PUBLIC "-//W3C//DTD SVG 20010904//EN" "http://www.w3.org/TR/2001/REC-SVG-20010904/DTD/svg10.dtd">
<!-- Created using Karbon, part of Calligra: http://www.calligra.org/karbon -->
<svg xmlns="http://www.w3.org/2000/svg" xmlns:xlink="http://www.w3.org/1999/xlink" width="38.4pt" height="38.4pt">
<defs/>
<g id="layer1">
  <path id="rect4090" transform="translate(7, 4)" fill="#bdc3c7" d="M0 0L0 40L34 40L34 11L23 0Z"/>
  <path id="path2400" transform="translate(14.6568, 14.9933)" fill="#16a085" stroke="#666666" stroke-width="0.00000000000" stroke-linecap="butt" stroke-linejoin="miter" stroke-miterlimit="0.00000000000" d="M9.41633 22.7221C9.78893 22.7221 9.80861 22.6685 9.80861 21.6492C9.80861 20.695 9.77293 20.5763 9.48602 20.5763C8.87432 20.5763 8.35447 20.2064 8.06524 19.5654C7.90567 19.2117 7.80534 18.8991 7.84225 18.8708C7.87916 18.8426 8.26054 18.6185 8.68974 18.3728C10.8206 17.1535 11.7759 14.4177 11.782 9.51725C11.7894 3.62299 10.3044 0.828756 6.78366 0.111511C5.67658 -0.114024 4.42088 0.00700664 3.43564 0.434223C1.96392 1.07237 0.843025 2.78052 0.291413 5.22568C-0.100875 6.96468 -0.0961262 11.725 0.299753 13.5612C0.880497 16.2551 2.25103 18.251 3.89628 18.7991C4.50556 19.002 4.59051 19.1024 4.84662 19.9228C5.24492 21.1988 5.60081 21.8179 6.16798 22.2215C6.73528 22.6253 7.85842 22.8946 8.54934 22.7922C8.81042 22.7537 9.2006 22.7221 9.41633 22.7221ZM5.68254 16.5645C5.179 16.3137 4.57449 15.4361 4.364 14.6504C3.67573 12.0816 3.73338 5.72165 4.4614 3.90306C4.79189 3.07755 5.55508 2.41967 6.18227 2.41967C6.87629 2.41967 7.7491 3.25607 8.0734 4.23189C8.64685 5.95747 8.74345 11.7502 8.23938 14.1849C7.83859 16.1207 6.77627 17.1095 5.68254 16.5645ZM16.7448 17.7622C18.3075 17.4155 18.3963 17.3387 18.3963 16.3361C18.3963 15.5572 18.3576 15.4488 18.1073 15.5229C17.1167 15.817 16.886 15.8191 16.5731 15.536C16.2675 15.2596 16.2494 15.0044 16.2494 10.9772L16.2494 6.71124L17.2402 6.71124L18.2311 6.71124L18.2311 5.7422L18.2311 4.77317L17.2402 4.66111L16.2494 4.54907L16.2494 2.99893C16.2494 2.14635 16.1936 1.41489 16.1255 1.37342C16.0573 1.33197 15.6357 1.27188 15.1885 1.23988L14.3754 1.18172L14.0919 2.33715C13.9362 2.97262 13.7619 3.69683 13.7047 3.94648C13.6157 4.33483 13.5177 4.4004 13.0259 4.4004L12.4509 4.4004L12.4509 5.47328L12.4509 6.54617L12.9464 6.54617L13.4417 6.54617L13.4417 11.3395C13.4417 17.1963 13.5077 17.4211 15.3411 17.8243C15.8682 17.9404 15.9612 17.9362 16.7448 17.7622Z"/>
  <path id="path4151" transform="matrix(3.54331 0 0 3.54331 29.9999 3.99986)" fill="#ecf0f1" d="M0 0L0 3.10449L3.10446 3.10449Z"/>
  <path id="path4252" transform="matrix(3.54331 0 0 3.54331 29.9999 15)" fill="#000000" fill-opacity="0.11764705882" d="M3.10446 3.10449L3.10446 0L0 0Z"/>
 </g>
</svg>
