<?xml version="1.0" standalone="no"?>
<!DOCTYPE svg PUBLIC "-//W3C//DTD SVG 20010904//EN" "http://www.w3.org/TR/2001/REC-SVG-20010904/DTD/svg10.dtd">
<!-- Created using Karbon, part of Calligra: http://www.calligra.org/karbon -->
<svg xmlns="http://www.w3.org/2000/svg" xmlns:xlink="http://www.w3.org/1999/xlink" width="38.4pt" height="38.4pt">
<defs/>
<g id="layer1">
  <path id="rect4090" transform="translate(7, 4)" fill="#bdc3c7" d="M0 0L0 40L34 40L34 11L23 0Z"/>
  <path id="path4151" transform="matrix(3.54331 0 0 3.54331 29.9999 3.99986)" fill="#ecf0f1" d="M0 0L0 3.10449L3.10446 3.10449Z"/>
  <path id="shape1" transform="translate(17.0553, 18.2088)" fill="#1abc9c" d="M4.00828 13.8792C1.93921 13.129 0.352097 10.9276 0.0730441 8.41841C-0.342132 4.69931 1.02676 1.81172 3.81727 0.51578C5.32955 -0.18568 8.07625 -0.169589 9.70803 0.551437C10.6987 0.989361 12.5602 2.70801 12.5602 3.1855C12.5602 3.26379 11.917 3.65168 11.1322 4.04744L9.70378 4.76715L8.94148 3.98785C8.51611 3.55298 7.8657 3.14811 7.47008 3.07286C6.48915 2.8837 5.31464 3.33075 4.78334 4.09353C3.90492 5.35555 3.84408 8.65498 4.67615 9.95352C5.1079 10.6272 5.8332 11.0994 6.51723 11.1529C7.95546 11.266 8.31829 11.139 9.16908 10.224L10.0275 9.30208L11.1331 9.92395C11.741 10.2662 12.3263 10.6272 12.4339 10.7267C12.807 11.0703 11.0965 12.855 9.72038 13.5578C8.55097 14.1553 8.1826 14.2353 6.64526 14.2193C5.68219 14.2088 4.49663 14.0562 4.00828 13.8792Z"/>
  <path id="path4252" transform="matrix(3.54331 0 0 3.54331 29.9999 15)" fill="#000000" fill-opacity="0.11764705882" d="M3.10446 3.10449L3.10446 0L0 0Z"/>
 </g>
</svg>
