<?xml version="1.0" standalone="no"?>
<!DOCTYPE svg PUBLIC "-//W3C//DTD SVG 20010904//EN" "http://www.w3.org/TR/2001/REC-SVG-20010904/DTD/svg10.dtd">
<!-- Created using Karbon, part of Calligra: http://www.calligra.org/karbon -->
<svg xmlns="http://www.w3.org/2000/svg" xmlns:xlink="http://www.w3.org/1999/xlink" width="38.4pt" height="38.4pt">
<defs/>
<g id="layer1">
  <path id="rect4090" transform="translate(7, 4)" fill="#bdc3c7" d="M0 0L0 40L34 40L34 11L23 0Z"/>
  <path id="shape0" transform="translate(12.9188, 14.9606)" fill="#88c941" fill-rule="evenodd" stroke="#003bc3" stroke-width="0.00000000000" stroke-linecap="square" stroke-linejoin="miter" stroke-miterlimit="2.00000000000" d="M0 22.9107C0.11108 5.60535 -0.360664 2.54108 1.15034 1.04056C2.66134 -0.459973 4.20109 0.115266 21.6942 0.078137C21.7574 19.1898 22.3278 20.4728 20.8967 21.9483C19.4657 23.4237 18.0605 22.7487 0 22.9107Z"/>
  <path id="path2400" transform="translate(16.7478, 17.5864)" fill="#f2f2f2" d="M7.27577 17.5568C7.56367 17.5568 7.57888 17.5154 7.57888 16.7278C7.57888 15.9905 7.55131 15.8988 7.32962 15.8988C6.85697 15.8988 6.4553 15.613 6.23182 15.1177C6.10852 14.8444 6.031 14.6029 6.05952 14.581C6.08804 14.5592 6.38272 14.3861 6.71435 14.1962C8.36082 13.2541 9.09896 11.1402 9.10365 7.35375C9.10935 2.7994 7.96197 0.64036 5.24157 0.0861616C4.38616 -0.0881034 3.41591 0.0054138 2.65464 0.335514C1.51747 0.828591 0.651385 2.14844 0.225168 4.03776C-0.0779433 5.38144 -0.0742747 9.05959 0.231612 10.4784C0.680339 12.5599 1.73932 14.1021 3.01056 14.5256C3.48134 14.6824 3.54698 14.76 3.74487 15.3939C4.05262 16.3798 4.32761 16.8582 4.76585 17.17C5.20419 17.482 6.07201 17.6901 6.60587 17.611C6.8076 17.5812 7.10908 17.5568 7.27577 17.5568ZM4.39076 12.799C4.00169 12.6052 3.5346 11.9271 3.37196 11.32C2.84015 9.33515 2.88469 4.42098 3.44722 3.0158C3.70258 2.37795 4.29228 1.86962 4.77689 1.86962C5.31314 1.86962 5.98754 2.51589 6.23812 3.26988C6.68121 4.60319 6.75585 9.07909 6.36637 10.9603C6.05669 12.4561 5.23586 13.2201 4.39076 12.799ZM12.9383 13.7244C14.1458 13.4565 14.2144 13.3972 14.2144 12.6225C14.2144 12.0207 14.1845 11.9369 13.9911 11.9942C13.2257 12.2214 13.0474 12.223 12.8056 12.0043C12.5695 11.7907 12.5555 11.5935 12.5555 8.48183L12.5555 5.18561L13.3211 5.18561L14.0867 5.18561L14.0867 4.43686L14.0867 3.68811L13.3211 3.60153L12.5555 3.51496L12.5555 2.3172C12.5555 1.65843 12.5124 1.09325 12.4598 1.06121C12.4071 1.02918 12.0813 0.98275 11.7358 0.958027L11.1075 0.913088L10.8885 1.80586C10.7682 2.29687 10.6335 2.85645 10.5893 3.04935C10.5205 3.34942 10.4448 3.40008 10.0648 3.40008L9.6205 3.40008L9.6205 4.22907L9.6205 5.05807L10.0034 5.05807L10.3861 5.05807L10.3861 8.76174C10.3861 13.2872 10.4371 13.4609 11.8537 13.7724C12.261 13.8621 12.3328 13.8589 12.9383 13.7244Z"/>
  <path id="path4151" transform="matrix(3.54331 0 0 3.54331 29.9999 3.99986)" fill="#ecf0f1" d="M0 0L0 3.10449L3.10446 3.10449Z"/>
  <path id="path4252" transform="matrix(3.54331 0 0 3.54331 29.9999 15)" fill="#000000" fill-opacity="0.11764705882" d="M3.10446 3.10449L3.10446 0L0 0Z"/>
 </g>
</svg>
