<?xml version="1.0" standalone="no"?>
<!DOCTYPE svg PUBLIC "-//W3C//DTD SVG 20010904//EN" "http://www.w3.org/TR/2001/REC-SVG-20010904/DTD/svg10.dtd">
<!-- Created using Karbon, part of Calligra: http://www.calligra.org/karbon -->
<svg xmlns="http://www.w3.org/2000/svg" xmlns:xlink="http://www.w3.org/1999/xlink" width="38.4pt" height="38.4pt">
<defs/>
<g id="layer1">
  <path id="rect4090" transform="translate(7, 4)" fill="#bdc3c7" d="M0 0L0 40L34 40L34 11L23 0Z"/>
  <path id="path4151" transform="matrix(3.54331 0 0 3.54331 29.9999 3.99986)" fill="#ecf0f1" d="M0 0L0 3.10449L3.10446 3.10449Z"/>
  <path id="path4252" transform="matrix(3.54331 0 0 3.54331 29.9999 15)" fill="#000000" fill-opacity="0.11764705882" d="M3.10446 3.10449L3.10446 0L0 0Z"/>
  <path id="path1948" transform="translate(12.652, 15.0516)" fill="#2980b9" d="M10.8184 0.000182849C9.9155 0.00441924 9.05323 0.0821759 8.2945 0.217737C6.05943 0.616447 5.6536 1.45098 5.6536 2.98999L5.6536 5.02257L10.9354 5.02257L10.9354 5.7001L5.6536 5.7001L3.6714 5.7001C2.13637 5.7001 0.792248 6.63173 0.371825 8.40399C-0.113128 10.4354 -0.134639 11.7031 0.371825 13.8242C0.747273 15.4031 1.64389 16.5281 3.17892 16.5281L4.99492 16.5281L4.99492 14.0915C4.99492 12.3312 6.5033 10.7784 8.2945 10.7784L13.5701 10.7784C15.0387 10.7784 16.211 9.55752 16.211 8.06833L16.211 2.98999C16.211 1.54468 15.0035 0.458955 13.5701 0.217737C12.6628 0.0652302 11.7214 -0.00405352 10.8184 0.000182849ZM7.96208 1.63495C8.50767 1.63495 8.95318 2.09216 8.95318 2.65434C8.95318 3.21453 8.50767 3.66752 7.96208 3.66752C7.41454 3.66752 6.97097 3.21453 6.97097 2.65434C6.97097 2.09216 7.41454 1.63495 7.96208 1.63495Z"/>
  <path id="path1950" transform="translate(18.3198, 20.7109)" fill="#f39c12" d="M11.2389 0L11.2389 2.35078C11.2389 4.1733 9.69418 5.70726 7.93264 5.70726L2.64627 5.70726C1.19824 5.70726 1.97391e-07 6.94689 0 8.39739L0 13.4383C0 14.873 1.24723 15.7168 2.64627 16.1284C4.3216 16.6212 5.92814 16.7102 7.93264 16.1284C9.26505 15.7425 10.5789 14.966 10.5789 13.4383L10.5789 11.4207L5.29254 11.4207L5.29254 10.7482L10.5789 10.7482L13.2252 10.7482C14.7633 10.7482 15.3365 9.675 15.8714 8.06421C16.424 6.40593 16.4005 4.81123 15.8714 2.68396C15.4913 1.15232 14.7653 0 13.2252 0ZM8.26574 12.7658C8.81438 12.7658 9.25886 13.2154 9.25886 13.7715C9.25886 14.3295 8.81438 14.7834 8.26574 14.7834C7.71906 14.7834 7.27262 14.3295 7.27262 13.7715C7.27262 13.2154 7.71906 12.7658 8.26574 12.7658Z"/>
 </g>
</svg>
