<?xml version="1.0" standalone="no"?>
<!DOCTYPE svg PUBLIC "-//W3C//DTD SVG 20010904//EN" "http://www.w3.org/TR/2001/REC-SVG-20010904/DTD/svg10.dtd">
<!-- Created using Karbon, part of Calligra: http://www.calligra.org/karbon -->
<svg xmlns="http://www.w3.org/2000/svg" xmlns:xlink="http://www.w3.org/1999/xlink" width="38.4pt" height="38.4pt">
<defs/>
<g id="layer1">
  <path id="rect4090" transform="translate(7, 4)" fill="#bdc3c7" d="M0 0L0 40L34 40L34 11L23 0Z"/>
  <path id="path4151" transform="matrix(3.54331 0 0 3.54331 29.9999 3.99986)" fill="#ecf0f1" d="M0 0L0 3.10449L3.10446 3.10449Z"/>
  <rect id="rect813" transform="translate(11.9592, 15.0884)" fill="#203040" width="23.25984794558pt" height="23.15102040816pt"/>
  <rect id="rect3284" transform="translate(18.9592, 20.0884)" fill="none" width="10.40000560000pt" height="8.80000000000pt"/>
  <g id="text854" transform="translate(29.0009, -9.48895)" fill="none">
   <path id="path815" transform="translate(-10.0417, 29.5774)" fill="#ffffff" d="M3.78705 10.4463L3.78705 11.8525L2.7836 11.8525L2.7836 10.4851C1.85344 10.4804 0.987441 10.2817 0.185584 9.88896L0.185584 8.09391C0.451334 8.29695 0.847679 8.48487 1.37461 8.65768C1.90155 8.83049 2.3712 8.92987 2.7836 8.95578L2.7836 6.59696C1.71139 6.22109 0.978264 5.815 0.584211 5.37865C0.194737 4.93799 -5.32907e-14 4.40229 0 3.77155C-5.32907e-14 3.09327 0.254308 2.51651 0.762925 2.0413C1.27153 1.56176 1.94509 1.2831 2.7836 1.20534L2.7836 0L3.78705 0L3.78705 1.17941C4.75386 1.22259 5.47554 1.36948 5.95208 1.62008L5.95208 3.36976C5.3106 3.00254 4.58892 2.7779 3.78705 2.69581L3.78705 5.15183C4.79052 5.49314 5.50991 5.88412 5.94519 6.32478C6.3805 6.76113 6.59815 7.29034 6.59815 7.91245C6.59815 8.62961 6.3553 9.20852 5.86959 9.64918C5.38389 10.0855 4.68972 10.3512 3.78705 10.4463ZM2.7836 4.77598L2.7836 2.72173C2.14669 2.82968 1.82823 3.1429 1.82823 3.66137C1.82823 4.10637 2.14669 4.4779 2.7836 4.77598ZM3.78705 6.96632L3.78705 8.92987C4.44229 8.83483 4.76992 8.52592 4.76992 8.00318C4.76992 7.57981 4.44229 7.23419 3.78705 6.96632Z"/>
  </g>
  <rect id="rect868" transform="translate(27.9592, 20.0884)" fill="#ffffff" width="3.20000000000pt" height="8.80000000000pt"/>
  <rect id="rect3288" transform="translate(25.9592, 20.0884)" fill="none" width="1.60000000000pt" height="8.80000000000pt"/>
  <path id="path4252" transform="matrix(3.54331 0 0 3.54331 29.9999 15)" fill="#000000" fill-opacity="0.11764705882" d="M3.10446 3.10449L3.10446 0L0 0Z"/>
 </g>
</svg>
