<?xml version="1.0" standalone="no"?>
<!DOCTYPE svg PUBLIC "-//W3C//DTD SVG 20010904//EN" "http://www.w3.org/TR/2001/REC-SVG-20010904/DTD/svg10.dtd">
<!-- Created using Karbon, part of Calligra: http://www.calligra.org/karbon -->
<svg xmlns="http://www.w3.org/2000/svg" xmlns:xlink="http://www.w3.org/1999/xlink" width="38.4pt" height="38.4pt">
<defs/>
<g id="layer1">
  <path id="rect4090" transform="translate(7, 4)" fill="#bdc3c7" d="M0 0L0 40L34 40L34 11L23 0Z"/>
  <path id="path4151" transform="matrix(3.54331 0 0 3.54331 29.9999 3.99986)" fill="#ecf0f1" d="M0 0L0 3.10449L3.10446 3.10449Z"/>
  <path id="shape0" transform="translate(11.391, 17.0192)" fill="#16a085" d="M3.19859 13.433C1.95395 13.5252 0.720249 12.6549 0.374579 11.2944C-0.126435 9.45977 -0.125801 7.4281 0.382179 5.59492C0.743731 4.18366 2.03704 3.27706 3.33076 3.41353C4.39646 3.37068 5.45305 4.01698 5.91352 5.09098C5.99154 4.44493 5.94494 3.43897 6.56767 3.47436C7.19041 3.50975 7.35496 3.42112 7.36094 4.10726C7.31529 8.42112 7.34979 12.736 7.33904 17.0503C6.85852 17.0503 6.37801 17.0503 5.8975 17.0503C5.9021 15.2576 5.88481 13.4281 5.91352 11.6646C5.45519 12.886 4.34563 13.4938 3.19862 13.433ZM5.8975 8.30634C5.89712 7.00508 5.72445 5.22543 4.42831 4.74335C3.46255 4.34698 2.15322 4.71163 1.83404 5.91338C1.40676 7.41327 1.43866 9.06567 1.73105 10.5934C1.91096 11.651 2.85851 12.3571 3.80377 12.1815C4.8658 12.1944 5.60384 11.1355 5.75647 10.0481C5.86784 9.47674 5.89624 8.88961 5.8975 8.30634ZM14.6028 13.2544C14.5858 10.9485 14.6391 8.64022 14.5715 6.3361C14.6742 4.91584 13.2056 4.23356 12.1922 4.85876C10.9984 5.5449 10.9949 7.17581 11.023 8.47766C11.023 10.0699 11.023 11.6622 11.023 13.2544C10.5451 13.2544 10.0673 13.2544 9.58944 13.2544C9.56987 10.0332 9.63553 6.80994 9.54139 3.59048C9.99521 3.59048 10.449 3.59048 10.9028 3.59048C11.0194 4.07316 10.7659 6.03275 11.2973 4.65836C12.0887 3.22473 14.0473 3.04116 15.2139 3.967C15.768 4.25259 15.7797 5.97174 16.2155 4.65836C17.0576 3.27252 18.9847 3.02241 20.188 3.9377C21.2299 4.97844 21.0027 6.66896 21.0337 8.08143C21.0337 9.80576 21.0337 11.5301 21.0337 13.2544C20.5585 13.2544 20.0833 13.2544 19.6081 13.2544C19.5912 10.9485 19.6444 8.64022 19.5768 6.3361C19.6783 4.91378 18.2153 4.24168 17.1976 4.84983C16.0081 5.50752 16.0019 7.1314 16.0283 8.41433C16.0283 10.0277 16.0283 11.6411 16.0283 13.2544C15.5531 13.2544 15.078 13.2544 14.6028 13.2544ZM23.236 13.2544C23.236 8.83627 23.236 4.41814 23.236 0C23.7165 0 24.197 0 24.6775 0C24.6775 4.41814 24.6775 8.83627 24.6775 13.2544C24.197 13.2544 23.7165 13.2544 23.236 13.2544Z"/>
  <path id="path4252" transform="matrix(3.54331 0 0 3.54331 29.9999 15)" fill="#000000" fill-opacity="0.11764705882" d="M3.10446 3.10449L3.10446 0L0 0Z"/>
 </g>
</svg>
