<?xml version="1.0" standalone="no"?>
<!DOCTYPE svg PUBLIC "-//W3C//DTD SVG 20010904//EN" "http://www.w3.org/TR/2001/REC-SVG-20010904/DTD/svg10.dtd">
<!-- Created using Karbon, part of Calligra: http://www.calligra.org/karbon -->
<svg xmlns="http://www.w3.org/2000/svg" xmlns:xlink="http://www.w3.org/1999/xlink" width="38.4pt" height="38.4pt">
<defs/>
<g id="layer1">
  <path id="rect4090" transform="translate(7, 4)" fill="#bdc3c7" d="M0 0L0 40L34 40L34 11L23 0Z"/>
  <path id="path4151" transform="matrix(3.54331 0 0 3.54331 29.9999 3.99986)" fill="#ecf0f1" d="M0 0L0 3.10449L3.10446 3.10449Z"/>
  <path id="path4252" transform="matrix(3.54331 0 0 3.54331 29.9999 15)" fill="#000000" fill-opacity="0.11764705882" d="M3.10446 3.10449L3.10446 0L0 0Z"/>
  <path id="path4091" transform="matrix(3.54331 0 0 3.54331 14.068 14.8571)" fill="#2c3e50" d="M5.35262 2.67631C5.35262 1.19822 4.15439 9.05066e-17 2.67631 0C1.19822 -9.05066e-17 1.81013e-16 1.19822 0 2.67631C-1.81013e-16 4.15439 1.19822 5.35262 2.67631 5.35262C4.15439 5.35262 5.35262 4.15439 5.35262 2.67631"/>
  <path id="circle4093" transform="matrix(3.54331 0 0 3.54331 15.4905 16.2796)" fill="#3498db" d="M4.54972 2.27486C4.54972 1.01849 3.53123 7.69306e-17 2.27486 0C1.01849 -7.69306e-17 1.53861e-16 1.01849 0 2.27486C-1.53861e-16 3.53123 1.01849 4.54972 2.27486 4.54972C3.53123 4.54972 4.54972 3.53123 4.54972 2.27486"/>
  <rect id="rect4099" transform="matrix(3.06859 -1.77165 1.77165 3.06859 19.2837 23.3919)" fill="#ecf0f1" width="0.21410491638pt" height="2.10143968932pt"/>
  <path id="rect4101" transform="matrix(1 0 0 1 20.0897 18.6853)" fill="#ecf0f1" d="M0 4.46239C4.24655 3.21288 0.775085 2.74872 7.03842 0L9.52175 4.72333C4.08987 5.63506 6.32586 8.47606 2.48333 9.18572Z"/>
 </g>
</svg>
