<?xml version="1.0" encoding="UTF-8" standalone="no"?>
<!-- Created using Karbon, part of Calligra: http://www.calligra.org/karbon -->

<svg
   xmlns:dc="http://purl.org/dc/elements/1.1/"
   xmlns:cc="http://creativecommons.org/ns#"
   xmlns:rdf="http://www.w3.org/1999/02/22-rdf-syntax-ns#"
   xmlns:svg="http://www.w3.org/2000/svg"
   xmlns="http://www.w3.org/2000/svg"
   xmlns:sodipodi="http://sodipodi.sourceforge.net/DTD/sodipodi-0.dtd"
   xmlns:inkscape="http://www.inkscape.org/namespaces/inkscape"
   width="38.4pt"
   height="38.4pt"
   id="svg2"
   version="1.1"
   inkscape:version="0.48.4 r9939"
   sodipodi:docname="text-x-qml.svg">
  <metadata
     id="metadata15">
    <rdf:RDF>
      <cc:Work
         rdf:about="">
        <dc:format>image/svg+xml</dc:format>
        <dc:type
           rdf:resource="http://purl.org/dc/dcmitype/StillImage" />
      </cc:Work>
    </rdf:RDF>
  </metadata>
  <sodipodi:namedview
     pagecolor="#ffffff"
     bordercolor="#666666"
     borderopacity="1"
     objecttolerance="10"
     gridtolerance="10"
     guidetolerance="10"
     inkscape:pageopacity="0"
     inkscape:pageshadow="2"
     inkscape:window-width="661"
     inkscape:window-height="480"
     id="namedview13"
     showgrid="false"
     inkscape:zoom="9.8333333"
     inkscape:cx="19.750708"
     inkscape:cy="20.129819"
     inkscape:window-x="0"
     inkscape:window-y="55"
     inkscape:window-maximized="0"
     inkscape:current-layer="svg2" />
  <defs
     id="defs4" />
  <g
     id="layer1">
    <path
       id="rect4090"
       transform="translate(7, 4)"
       fill="#ecf0f1"
       d="M0 0L0 40L34 40L34 11L23 0Z" />
    <path
       id="path4151"
       transform="matrix(3.54331 0 0 3.54331 29.9999 3.99986)"
       fill="#ffffff"
       opacity="0.50000000000"
       d="M0 0L0 3.10449L3.10446 3.10449Z" />
    <path
       style="font-size:16.69676018px;font-weight:bold;fill:#2c3e50;font-family:ComicSans"
       d="m 9.8215888,28.806488 c -0.025898,-1.674308 0.4736912,-3.748385 2.2200842,-4.397366 1.385566,-0.49805 3.256376,-0.07351 3.853688,1.397167 -0.01837,-0.739083 -0.08226,-1.701975 0.88729,-1.418573 0.478745,0 0.957489,0 1.436234,0 -0.09893,3.777765 -0.02697,7.558452 -0.04892,11.337513 -0.09474,0.306471 0.23226,1.034679 -0.255,0.948629 -0.673202,0 -1.346405,0 -2.019608,0 0.0052,-1.64261 -0.0162,-3.316244 0.02446,-4.932393 -0.875861,2.030809 -4.189843,2.229544 -5.323723,0.334261 C 9.9809734,31.108977 9.8280924,29.929769 9.8215888,28.806488 z m 6.0900782,-0.04892 c 0.01721,-1.107854 -0.230516,-2.665997 -1.5266,-2.932934 -1.266116,-0.331159 -2.103876,0.95593 -2.126965,2.072316 -0.07417,1.220573 -0.17651,2.714735 0.811545,3.616746 1.048667,0.786445 2.517718,-0.07533 2.678966,-1.28864 0.130044,-0.477067 0.161304,-0.975075 0.163054,-1.467488 z m 9.79141,4.451382 c -0.02091,-1.889274 0.04579,-3.781948 -0.04128,-5.668682 0.12494,-1.168303 -1.319104,-2.21014 -2.198685,-1.195899 -0.941993,1.140149 -0.593215,2.686624 -0.662405,4.048503 0,0.938693 0,1.877385 0,2.816078 -0.763638,0 -1.527275,0 -2.290913,0 -0.02594,-2.940232 0.06158,-5.883646 -0.06522,-8.821238 0.72831,0 1.456619,0 2.184928,0 0.131529,0.395461 -0.01706,1.70383 0.192384,1.628634 0.441326,-1.309259 1.879284,-2.094075 3.216338,-1.729899 1.033164,-0.06426 1.576961,1.547039 1.860477,1.720346 0.426825,-1.209823 1.689988,-1.985921 2.962998,-1.773977 1.372782,0.05631 2.205488,1.423602 2.25626,2.682243 0.07916,2.095588 0.01688,4.196205 0.0367,6.293891 -0.758203,0 -1.516405,0 -2.274608,0 -0.02091,-1.889274 0.04579,-3.781948 -0.04128,-5.668682 0.121327,-1.157134 -1.294899,-2.201316 -2.184419,-1.214243 -0.956136,1.123478 -0.608281,2.670543 -0.676668,4.024612 0,0.952771 0,1.905542 0,2.858313 -0.758203,0 -1.516405,0 -2.274608,0 z m 9.644661,0 c 0,-4.032876 0,-8.065753 0,-12.098629 0.763638,0 1.527276,0 2.290913,0 0,4.032876 0,8.065753 0,12.098629 -0.763637,0 -1.527275,0 -2.290913,0 z"
       id="shape0"
       inkscape:connector-curvature="0" />
    <path
       id="path4252"
       transform="matrix(3.54331 0 0 3.54331 29.9999 15)"
       fill="#000000"
       fill-opacity="0.11764705882"
       d="M3.10446 3.10449L3.10446 0L0 0Z" />
  </g>
</svg>
