<?xml version="1.0" standalone="no"?>
<!DOCTYPE svg PUBLIC "-//W3C//DTD SVG 20010904//EN" "http://www.w3.org/TR/2001/REC-SVG-20010904/DTD/svg10.dtd">
<!-- Created using Karbon, part of Calligra: http://www.calligra.org/karbon -->
<svg xmlns="http://www.w3.org/2000/svg" xmlns:xlink="http://www.w3.org/1999/xlink" width="38.4pt" height="38.4pt">
<defs/>
<g id="layer1">
  <path id="rect4090" transform="translate(7, 4)" fill="#bdc3c7" d="M0 0L0 40L34 40L34 11L23 0Z"/>
  <path id="path4151" transform="matrix(3.54331 0 0 3.54331 29.9999 3.99986)" fill="#ecf0f1" d="M0 0L0 3.10449L3.10446 3.10449Z"/>
  <path id="path4252" transform="matrix(3.54331 0 0 3.54331 29.9999 15)" fill="#000000" fill-opacity="0.11764705882" d="M3.10446 3.10449L3.10446 0L0 0Z"/>
  <path id="path14" transform="matrix(1 0 0 1 9.57257 18.5118)" fill="#000000" d="M10.1241 0L0.287529 0L0 3.87382L0.306102 3.87382C0.52622 0.972522 0.76835 0.464688 3.40977 0.464688C3.71587 0.464703 4.2132 0.464703 4.35008 0.464703C4.67545 0.517063 4.67545 0.729922 4.67545 1.13308L4.67545 10.6673C4.67545 11.3003 4.62385 11.4934 3.18896 11.4934L2.70539 11.4934L2.70539 11.9164C3.52258 11.9001 4.37416 11.8832 5.20992 11.8832C6.04293 11.8832 6.89726 11.9001 7.71376 11.9164L7.71376 11.4934L7.23844 11.4934C5.82487 11.4934 5.77397 11.3003 5.77397 10.6673L5.77397 1.13308C5.77397 0.746189 5.77397 0.536146 6.08076 0.464703L7.01558 0.464703C9.62191 0.464703 9.87711 0.969692 10.0972 3.87384L10.404 3.87384"/>
  <path id="path16" transform="matrix(1 0 0 1 18.6913 22.1785)" fill="#000000" d="M9.4169 7.51324L9.11274 7.51324C8.74158 10.1135 8.52286 11.5269 5.54543 11.5269L3.19616 11.5269C2.52015 11.5269 2.48803 11.4384 2.48803 10.8351L2.48803 5.9334L4.08474 5.9334C5.68145 5.9334 5.83387 6.53956 5.83387 8.01955L6.10592 8.01955L6.10592 3.45779L5.83387 3.45779C5.83387 4.91299 5.68145 5.50782 4.08474 5.50782L2.48803 5.50782L2.48803 1.16204C2.48803 0.570043 2.52015 0.481527 3.19616 0.481527L5.51057 0.481527C8.12983 0.481527 8.43468 1.56001 8.67186 3.87842L8.97672 3.87842L8.5707 0L0 0L0 0.481527C1.1989 0.481527 1.39097 0.481527 1.39097 1.26967L1.39097 10.7331C1.39097 11.5212 1.20163 11.5212 0 11.5212L0 11.9447L8.80857 11.9447"/>
  <path id="path18" transform="matrix(1 0 0 1 26.7015 18.4879)" fill="#000000" d="M6.02808 4.9474L8.56359 1.4588C8.81756 1.11633 9.3338 0.411625 10.74 0.393843L10.74 2.48066e-16C10.3476 0.0309522 9.69641 0.0309522 9.28536 0.0309522C8.72068 0.0309522 8.0176 0.0309522 7.59063 2.48066e-16L7.59063 0.393856C8.13939 0.442579 8.27433 0.769245 8.27433 1.03203C8.27433 1.22697 8.1906 1.35869 8.06881 1.52071L5.80663 4.64379L3.27112 1.11172C3.15209 0.933895 3.13549 0.882524 3.13549 0.833788C3.13549 0.68692 3.32233 0.40901 3.88977 0.393856L3.88977 0C3.34101 0.0309522 2.50299 0.0309522 1.93831 0.0309522C1.49474 0.0309522 0.638031 0.0309522 0.22421 0L0.22421 0.393856C1.16534 0.393856 1.47328 0.427464 1.85181 0.933895L5.15753 5.55463L2.17636 9.6992C1.44076 10.7128 0.32732 10.7306 0 10.7306L0 11.1244C0.391676 11.0935 1.04355 11.0935 1.4546 11.0935C1.91686 11.0935 2.72236 11.0935 3.14933 11.1244L3.14933 10.7306C2.61925 10.6818 2.46562 10.3552 2.46562 10.0924C2.46562 9.88163 2.54936 9.76572 2.63586 9.64981L5.3769 5.84244L8.35807 10.0127C8.49301 10.1932 8.49301 10.2419 8.49301 10.2906C8.49301 10.4191 8.33938 10.6996 7.73941 10.7332L7.73941 11.127C8.28817 11.0961 9.12619 11.0961 9.69087 11.0961C10.1344 11.0961 10.9912 11.0961 11.4071 11.127L11.4071 10.7332C10.3095 10.7332 10.1365 10.6535 9.79606 10.1932"/>
 </g>
</svg>
