<?xml version="1.0" standalone="no"?>
<!DOCTYPE svg PUBLIC "-//W3C//DTD SVG 20010904//EN" "http://www.w3.org/TR/2001/REC-SVG-20010904/DTD/svg10.dtd">
<!-- Created using Karbon, part of Calligra: http://www.calligra.org/karbon -->
<svg xmlns="http://www.w3.org/2000/svg" xmlns:xlink="http://www.w3.org/1999/xlink" width="38.4pt" height="38.4pt">
<defs/>
<g id="layer1">
  <path id="rect4090" transform="translate(7, 4)" style="fill:#ecf0f1" d="M0 0L0 40L34 40L34 11L23 0Z"/>
  <path id="path4151" transform="matrix(3.54331 0 0 3.54331 29.9999 3.99986)" style="fill:#ffffff" opacity="0.50000000000" d="M0 0L0 3.10449L3.10446 3.10449Z"/>
  <path id="path4252" transform="matrix(3.54331 0 0 3.54331 29.9999 15)" style="fill:#000000" fill-opacity="0.11764705882" d="M3.10446 3.10449L3.10446 0L0 0Z"/>
  <path id="shape0" transform="translate(10.6005, 19.5918)" style="fill:#8e44ad" d="M0 10.2252C0 9.09139 0 7.95759 0 6.82381C3.29897 5.44707 6.59795 4.07034 9.89692 2.69361C9.89692 3.49641 9.89692 4.2992 9.89692 5.10201C7.22112 6.24635 4.54533 7.39069 1.86953 8.53504C4.54533 9.67586 7.22112 10.8167 9.89692 11.9575C9.89692 12.7568 9.89692 13.5561 9.89692 14.3554C6.59795 12.9787 3.29897 11.6019 0 10.2252ZM10.8895 16.1088C11.8243 10.7392 12.759 5.36961 13.6938 0C14.4583 0 15.2228 0 15.9873 0C15.0686 5.36961 14.1499 10.7392 13.2312 16.1088C12.4507 16.1088 11.6701 16.1088 10.8895 16.1088ZM16.9992 14.3554C16.9992 13.5561 16.9992 12.7568 16.9992 11.9575C19.6718 10.8167 22.3444 9.67586 25.017 8.53504C22.3444 7.39069 19.6718 6.24635 16.9992 5.10201C16.9992 4.2992 16.9992 3.49641 16.9992 2.69361C20.2982 4.07034 23.5971 5.44707 26.8961 6.82381C26.8961 7.95759 26.8961 9.09139 26.8961 10.2252C23.5971 11.6019 20.2982 12.9787 16.9992 14.3554Z"/>
 </g>
</svg>
