<?xml version="1.0" standalone="no"?>
<!DOCTYPE svg PUBLIC "-//W3C//DTD SVG 20010904//EN" "http://www.w3.org/TR/2001/REC-SVG-20010904/DTD/svg10.dtd">
<!-- Created using Karbon, part of Calligra: http://www.calligra.org/karbon -->
<svg xmlns="http://www.w3.org/2000/svg" xmlns:xlink="http://www.w3.org/1999/xlink" width="38.4pt" height="38.4pt">
<defs/>
<g id="layer1">
  <path id="rect4090" transform="translate(7, 4)" fill="#ecf0f1" d="M0 0L0 40L34 40L34 11L23 0Z"/>
  <path id="path4151" transform="matrix(3.54331 0 0 3.54331 29.9999 3.99986)" fill="#ffffff" opacity="0.50000000000" d="M0 0L0 3.10449L3.10446 3.10449Z"/>
  <path id="path4252" transform="matrix(3.54331 0 0 3.54331 29.9999 15)" fill="#000000" fill-opacity="0.11764705882" d="M3.10446 3.10449L3.10446 0L0 0Z"/>
  <path id="path14" transform="matrix(1 0 0 1 12.9315 21.6253)" fill="#2c3e50" d="M8.42567 0L0.239293 0L0 3.22394L0.25475 3.22394C0.437941 0.80937 0.63945 0.386731 2.83774 0.386731C3.09249 0.386744 3.50639 0.386744 3.6203 0.386744C3.89109 0.43032 3.89109 0.607469 3.89109 0.942993L3.89109 8.87774C3.89109 9.40454 3.84815 9.56525 2.65398 9.56525L2.25153 9.56525L2.25153 9.91729C2.93163 9.90372 3.64034 9.88966 4.3359 9.88966C5.02916 9.88966 5.74017 9.90372 6.41969 9.91729L6.41969 9.56525L6.02411 9.56525C4.84768 9.56525 4.80532 9.40454 4.80532 8.87774L4.80532 0.942993C4.80532 0.621007 4.80532 0.446201 5.06064 0.386744L5.83864 0.386744C8.00772 0.386744 8.22011 0.807015 8.40328 3.22396L8.65861 3.22396"/>
  <path id="path16" transform="matrix(1 0 0 1 20.5204 24.6769)" fill="#2c3e50" d="M7.83711 6.25281L7.58397 6.25281C7.27508 8.41684 7.09305 9.59313 4.61512 9.59313L2.65997 9.59313C2.09737 9.59313 2.07063 9.51948 2.07063 9.01739L2.07063 4.938L3.39948 4.938C4.72832 4.938 4.85517 5.44247 4.85517 6.67418L5.08158 6.67418L5.08158 2.87771L4.85517 2.87771C4.85517 4.08878 4.72832 4.58382 3.39948 4.58382L2.07063 4.58382L2.07063 0.967094C2.07063 0.474412 2.09737 0.400745 2.65997 0.400745L4.58611 0.400745C6.76596 0.400745 7.01967 1.2983 7.21706 3.22777L7.47077 3.22777L7.13287 0L0 0L0 0.400745C0.997771 0.400745 1.15762 0.400745 1.15762 1.05667L1.15762 8.9325C1.15762 9.58839 1.00004 9.58839 0 9.58839L0 9.94084L7.33083 9.94084"/>
  <path id="path18" transform="matrix(1 0 0 1 27.1868 21.6054)" fill="#2c3e50" d="M5.0168 4.11742L7.12695 1.21407C7.33831 0.929053 7.76795 0.34257 8.93824 0.327771L8.93824 2.0645e-16C8.61167 0.0257596 8.06973 0.0257596 7.72763 0.0257596C7.25769 0.0257596 6.67256 0.0257596 6.31721 2.0645e-16L6.31721 0.327782C6.77391 0.368331 6.88622 0.640195 6.88622 0.858895C6.88622 1.02113 6.81653 1.13075 6.71517 1.26559L4.8325 3.86474L2.72235 0.925216C2.62329 0.777223 2.60948 0.73447 2.60948 0.69391C2.60948 0.571681 2.76497 0.340394 3.23722 0.327782L3.23722 0C2.78052 0.0257596 2.08308 0.0257596 1.61314 0.0257596C1.24398 0.0257596 0.530994 0.0257596 0.186596 0L0.186596 0.327782C0.969841 0.327782 1.22612 0.355752 1.54115 0.777223L4.29229 4.62278L1.81125 8.07205C1.19906 8.9156 0.272408 8.93042 0 8.93042L0 9.25815C0.325968 9.23244 0.868482 9.23244 1.21057 9.23244C1.59528 9.23244 2.26565 9.23244 2.62099 9.25815L2.62099 8.93042C2.17984 8.8898 2.05198 8.618 2.05198 8.39928C2.05198 8.22387 2.12168 8.12741 2.19366 8.03094L4.47486 4.8623L6.95591 8.33295C7.06821 8.48317 7.06821 8.5237 7.06821 8.56423C7.06821 8.67118 6.94035 8.90462 6.44103 8.93258L6.44103 9.26032C6.89773 9.2346 7.59517 9.2346 8.06511 9.2346C8.43424 9.2346 9.1473 9.2346 9.49343 9.26032L9.49343 8.93258C8.57996 8.93258 8.43599 8.86625 8.15266 8.48317"/>
 </g>
</svg>
