<?xml version="1.0" encoding="UTF-8" standalone="no"?>
<!-- Created using Karbon, part of Calligra: http://www.calligra.org/karbon -->

<svg
   xmlns:dc="http://purl.org/dc/elements/1.1/"
   xmlns:cc="http://creativecommons.org/ns#"
   xmlns:rdf="http://www.w3.org/1999/02/22-rdf-syntax-ns#"
   xmlns:svg="http://www.w3.org/2000/svg"
   xmlns="http://www.w3.org/2000/svg"
   xmlns:sodipodi="http://sodipodi.sourceforge.net/DTD/sodipodi-0.dtd"
   xmlns:inkscape="http://www.inkscape.org/namespaces/inkscape"
   width="38.4pt"
   height="38.4pt"
   id="svg2"
   version="1.1"
   inkscape:version="0.48.4 r9939"
   sodipodi:docname="text-x-objchdr.svg">
  <metadata
     id="metadata15">
    <rdf:RDF>
      <cc:Work
         rdf:about="">
        <dc:format>image/svg+xml</dc:format>
        <dc:type
           rdf:resource="http://purl.org/dc/dcmitype/StillImage" />
      </cc:Work>
    </rdf:RDF>
  </metadata>
  <sodipodi:namedview
     pagecolor="#ffffff"
     bordercolor="#666666"
     borderopacity="1"
     objecttolerance="10"
     gridtolerance="10"
     guidetolerance="10"
     inkscape:pageopacity="0"
     inkscape:pageshadow="2"
     inkscape:window-width="661"
     inkscape:window-height="480"
     id="namedview13"
     showgrid="false"
     inkscape:zoom="4.9166667"
     inkscape:cx="24"
     inkscape:cy="24"
     inkscape:window-x="0"
     inkscape:window-y="55"
     inkscape:window-maximized="0"
     inkscape:current-layer="svg2" />
  <defs
     id="defs4" />
  <g
     id="layer1">
    <path
       id="rect4090"
       transform="translate(7, 4)"
       fill="#ecf0f1"
       d="M0 0L0 40L34 40L34 11L23 0Z" />
    <path
       id="path4151"
       transform="matrix(3.54331 0 0 3.54331 29.9999 3.99986)"
       fill="#ffffff"
       opacity="0.50000000000"
       d="M0 0L0 3.10449L3.10446 3.10449Z" />
    <path
       id="path4252"
       transform="matrix(3.54331 0 0 3.54331 29.9999 15)"
       fill="#000000"
       fill-opacity="0.11764705882"
       d="M3.10446 3.10449L3.10446 0L0 0Z" />
    <path
       style="font-size:32px;font-style:normal;font-variant:normal;font-weight:normal;font-stretch:condensed;text-align:start;line-height:100%;writing-mode:lr-tb;text-anchor:start;fill:#a100e1;font-family:Roboto Condensed;-inkscape-font-specification:'Roboto Condensed, Condensed'"
       d="m 21.035932,21.670795 c 0.976959,-1.632882 3.009524,-2.829422 5.128723,-2.551752 2.000047,0.101916 3.667464,1.499719 4.209355,3.181645 0.799246,2.240906 0.489226,4.614867 0.55294,6.92806 0,2.360891 0,4.721782 0,7.082672 -1.182494,0 -2.36499,0 -3.547485,0 -0.01153,-3.690086 0.02369,-7.380855 -0.01878,-11.07049 -0.07362,-1.291018 -0.359822,-2.891729 -1.833269,-3.482111 -1.560014,-0.591158 -3.390596,0.154161 -4.202055,1.422726 -0.479068,0.495926 -0.227415,1.167658 -0.289431,1.762432 0,3.789148 0,7.578296 0,11.367443 -1.182494,0 -2.36499,0 -3.547485,0 0,-8.125 0,-16.25 0,-24.375 1.182495,0 2.364991,0 3.547485,0 0,3.244792 0,6.489584 0,9.734375 z"
       id="shape0"
       inkscape:connector-curvature="0" />
  </g>
</svg>
