<?xml version="1.0" standalone="no"?>
<!DOCTYPE svg PUBLIC "-//W3C//DTD SVG 20010904//EN" "http://www.w3.org/TR/2001/REC-SVG-20010904/DTD/svg10.dtd">
<!-- Created using Karbon, part of Calligra: http://www.calligra.org/karbon -->
<svg xmlns="http://www.w3.org/2000/svg" xmlns:xlink="http://www.w3.org/1999/xlink" width="38.4pt" height="38.4pt">
<defs/>
<g id="layer1">
  <path id="rect4090" transform="translate(7, 4)" style="fill:#ecf0f1" d="M0 0L0 40L34 40L34 11L23 0Z"/>
  <path id="path4151" transform="matrix(3.54331 0 0 3.54331 29.9999 3.99986)" style="fill:#ffffff" opacity="0.50000000000" d="M0 0L0 3.10449L3.10446 3.10449Z"/>
  <g id="group0" transform="translate(11.6722, 13.957)" style="fill:none">
   <path id="shape0" transform="translate(1.07605, 3.34609)" style="fill:#34495e" d="M0 17.8025L5.49455 8.90123L0 0L4.12086 0L9.61544 8.90123L4.12086 17.8025ZM0 17.8025"/>
   <path id="shape1" transform="translate(6.58005, 3.34609)" style="fill:#34495e" d="M0 17.8025L5.51341 8.90123L0 0L4.135 0L15.1616 17.8025L11.0266 17.8025L7.58091 12.2394L4.135 17.8025ZM0 17.8025"/>
   <path id="shape2" transform="translate(18.0451, 12.9851)" style="fill:#34495e" d="M1.83136 2.98934L0 0.000205949L6.41002 0L6.41002 2.98934ZM1.83136 2.98934"/>
   <path id="shape3" transform="translate(15.2941, 8.53609)" style="fill:#34495e" d="M1.83677 2.98934L0 0.000205949L9.18348 0L9.18348 2.98934ZM1.83677 2.98934"/>
  </g>
  <path id="path4252" transform="matrix(3.54331 0 0 3.54331 29.9999 15)" style="fill:#000000" fill-opacity="0.11764705882" d="M3.10446 3.10449L3.10446 0L0 0Z"/>
 </g>
</svg>
