<?xml version="1.0" standalone="no"?>
<!DOCTYPE svg PUBLIC "-//W3C//DTD SVG 20010904//EN" "http://www.w3.org/TR/2001/REC-SVG-20010904/DTD/svg10.dtd">
<!-- Created using Karbon, part of Calligra: http://www.calligra.org/karbon -->
<svg xmlns="http://www.w3.org/2000/svg" xmlns:xlink="http://www.w3.org/1999/xlink" width="38.4pt" height="38.4pt">
<defs/>
<g id="layer1">
  <path id="rect4090" transform="translate(7, 4)" fill="#bdc3c7" d="M0 0L0 40L34 40L34 11L23 0Z"/>
  <path id="path4151" transform="matrix(3.54331 0 0 3.54331 29.9999 3.99986)" fill="#ecf0f1" d="M0 0L0 3.10449L3.10446 3.10449Z"/>
  <rect id="shape11" transform="matrix(-3.88578e-16 1 -1 -3.88578e-16 34.2105 20.9304)" fill="#9b59b6" fill-rule="evenodd" stroke="#003bc3" stroke-width="0.00000000000" stroke-linecap="square" stroke-linejoin="miter" stroke-miterlimit="2.00000000000" width="1.25082774624pt" height="4.53138826254pt"/>
  <path id="path4252" transform="matrix(3.54331 0 0 3.54331 29.9999 15)" fill="#000000" fill-opacity="0.11764705882" d="M3.10446 3.10449L3.10446 0L0 0Z"/>
  <rect id="shape111" transform="matrix(-1 0 0 -1 32.1332 24.513)" fill="#9b59b6" fill-rule="evenodd" stroke="#003bc3" stroke-width="0.00000000000" stroke-linecap="square" stroke-linejoin="miter" stroke-miterlimit="2.00000000000" width="1.21301854362pt" height="4.52733761072pt"/>
  <rect id="shape112" transform="matrix(0 1 -1 0 34.2762 28.2419)" fill="#9b59b6" fill-rule="evenodd" stroke="#003bc3" stroke-width="0.00000000000" stroke-linecap="square" stroke-linejoin="miter" stroke-miterlimit="2.00000000000" width="1.25082774624pt" height="4.57144881260pt"/>
  <rect id="shape113" transform="matrix(-1 0 0 -1 32.1852 31.8269)" fill="#9b59b6" fill-rule="evenodd" stroke="#003bc3" stroke-width="0.00000000000" stroke-linecap="square" stroke-linejoin="miter" stroke-miterlimit="2.00000000000" width="1.21301854362pt" height="4.52733761072pt"/>
  <path id="path3036-6" transform="translate(13.5264, 10.3132)" fill="#9b59b6" d="M0 0L3.45524 0L3.45524 11.3567C4.67815 9.74732 6.14679 8.93336 7.80241 8.93336C9.7102 8.93336 11.1552 9.74732 11.901 11.1322C12.5228 12.2767 12.5644 13.659 12.5644 15.4734L12.5644 22.0502L9.10484 22.0502L9.10484 16.3943C9.10484 13.6298 8.65422 12.3527 6.68696 12.3527C4.69821 12.3527 3.45524 13.8145 3.45524 16.267L3.45524 22.0502L0 22.0502L0 9.31837"/>
 </g>
</svg>
