<svg xmlns="http://www.w3.org/2000/svg" width="48" height="48">
 <path d="M 7,4 7,44 41,44 41,15 30,4 z" style="fill:#ecf0f1"/>
 <path d="M 14.65625,18.84375 C 13.746919,18.84375 13,19.590669 13,20.5 l 0,10.84375 C 13,32.253081 13.746919,33 14.65625,33 l 19.6875,0 C 35.253081,33 36,32.253081 36,31.34375 L 36,20.5 c 0,-0.909331 -0.746919,-1.65625 -1.65625,-1.65625 l -19.6875,0 z m 0,1.09375 19.6875,0 c 0.315861,0 0.5625,0.246639 0.5625,0.5625 l 0,10.84375 c 0,0.315861 -0.246639,0.5625 -0.5625,0.5625 l -19.6875,0 c -0.315861,0 -0.5625,-0.246639 -0.5625,-0.5625 l 0,-10.84375 c 0,-0.315861 0.246639,-0.5625 0.5625,-0.5625 z" fill-opacity="0.941" color="#000000" style="fill:#2c3e50"/>
 <path d="m 29.9999,3.99986 0,11.00017 11.000064,0 z" opacity="0.5" style="fill:#ffffff"/>
 <path d="M 40.999964,26.00017 40.999964,15 29.9999,15 z" fill-opacity="0.118"/>
 <path d="m 16.317308,29.682692 0,-7.51923 2.211538,0 2.211538,2.764423 2.211539,-2.764423 2.211538,0 0,7.51923 -2.211538,0 0,-4.3125 -2.211539,2.764423 -2.211538,-2.764423 0,4.3125 z" style="fill:#2c3e50"/>
 <path d="m 30.139423,29.682692 -3.317308,-3.649038 2.211538,0 0,-3.870192 2.211539,0 0,3.870192 2.211538,0 z" style="fill:#2c3e50"/>
</svg>
