<?xml version="1.0" standalone="no"?>
<!DOCTYPE svg PUBLIC "-//W3C//DTD SVG 20010904//EN" "http://www.w3.org/TR/2001/REC-SVG-20010904/DTD/svg10.dtd">
<!-- Created using Karbon, part of Calligra: http://www.calligra.org/karbon -->
<svg xmlns="http://www.w3.org/2000/svg" xmlns:xlink="http://www.w3.org/1999/xlink" width="38.4pt" height="38.4pt">
<defs/>
<g id="layer1">
  <path id="rect4090" transform="translate(7, 4)" fill="#ecf0f1" d="M0 0L0 40L34 40L34 11L23 0Z"/>
  <path id="path4151" transform="matrix(3.54331 0 0 3.54331 29.9999 3.99986)" fill="#ffffff" opacity="0.50000000000" d="M0 0L0 3.10449L3.10446 3.10449Z"/>
  <path id="path4252" transform="matrix(3.54331 0 0 3.54331 29.9999 15)" fill="#000000" fill-opacity="0.11764705882" d="M3.10446 3.10449L3.10446 0L0 0Z"/>
  <path id="path4064" transform="matrix(1 0 0 -1 14.301 33.6864)" fill="#5b6d71" d="M18.5952 9.29143C18.5952 4.15991 14.4325 3.14215e-16 9.29758 0C4.16267 -3.14215e-16 6.28845e-16 4.15991 0 9.29143C-6.28845e-16 14.4229 4.16267 18.5829 9.29758 18.5829C14.4325 18.5829 18.5952 14.4229 18.5952 9.29143"/>
  <path id="path3264" transform="translate(22.6746, 13.2456)" fill="none" d="M1.85952 0.929143C1.85952 0.415991 1.44325 3.14215e-17 0.929758 0C0.416267 -3.14215e-17 6.28845e-17 0.415991 0 0.929143C-6.28845e-17 1.44229 0.416267 1.85829 0.929758 1.85829C1.44325 1.85829 1.85952 1.44229 1.85952 0.929143"/>
  <path id="ellipse3266" transform="translate(22.6746, 33.6861)" fill="none" d="M1.85952 0.929143C1.85952 0.415991 1.44325 3.14215e-17 0.929758 0C0.416267 -3.14215e-17 6.28845e-17 0.415991 0 0.929143C-6.28845e-17 1.44229 0.416267 1.85829 0.929758 1.85829C1.44325 1.85829 1.85952 1.44229 1.85952 0.929143"/>
  <path id="ellipse3268" transform="matrix(0 1 -1 0 34.7544 23.4646)" fill="none" d="M1.85952 0.929143C1.85952 0.415991 1.44325 3.14215e-17 0.929758 0C0.416267 -3.14215e-17 6.28845e-17 0.415991 0 0.929143C-6.28845e-17 1.44229 0.416267 1.85829 0.929758 1.85829C1.44325 1.85829 1.85952 1.44229 1.85952 0.929143"/>
  <path id="ellipse3270" transform="matrix(0 1 -1 0 14.3139 23.4646)" fill="none" d="M1.85952 0.929143C1.85952 0.415991 1.44325 3.14215e-17 0.929758 0C0.416267 -3.14215e-17 6.28845e-17 0.415991 0 0.929143C-6.28845e-17 1.44229 0.416267 1.85829 0.929758 1.85829C1.44325 1.85829 1.85952 1.44229 1.85952 0.929143"/>
  <path id="ellipse3292" transform="translate(16.6367, 17.4266)" fill="#bdc3c7" d="M6.96563 1.16835e-08C5.14119 0.00010816 3.32881 0.751514 2.0397 2.04151C0.750579 3.33151 0 5.14419 0 6.96836C0 8.7925 0.750579 10.6052 2.0397 11.8952C3.32881 13.1852 5.14119 13.9366 6.96563 13.9367C8.79006 13.9368 10.6035 13.1861 11.8943 11.8961C13.1851 10.6061 13.9367 8.79273 13.9367 6.96836C13.9367 5.14399 13.1851 3.33061 11.8943 2.0406C10.6035 0.750602 8.79006 -0.000108137 6.96563 1.16835e-08ZM6.96656 2.78734C8.06123 2.78728 9.1491 3.23825 9.92358 4.01225C10.698 4.78625 11.1494 5.87374 11.1494 6.96836C11.1494 8.06297 10.698 9.15044 9.92358 9.92445C9.1491 10.6985 8.06123 11.1494 6.96656 11.1494C5.87189 11.1493 4.7839 10.6985 4.01043 9.92445C3.23696 9.15044 2.78734 8.06285 2.78734 6.96836C2.78734 5.87386 3.23696 4.78624 4.01043 4.01225C4.7839 3.23825 5.87189 2.78741 6.96656 2.78734Z"/>
  <rect id="rect3307" transform="translate(21.9791, 17.4267)" fill="#bdc3c7" fill-rule="evenodd" width="2.60151949595pt" height="0.74329165620pt"/>
  <path id="ellipse3309" transform="translate(23.1398, 15.1038)" fill="none" d="M0.929758 0.464571C0.929758 0.207996 0.721624 1.57107e-17 0.464879 0C0.208133 -1.57107e-17 3.14423e-17 0.207996 0 0.464571C-3.14423e-17 0.721147 0.208133 0.929143 0.464879 0.929143C0.721624 0.929143 0.929758 0.721147 0.929758 0.464571"/>
  <path id="ellipse3311" transform="translate(23.1398, 17.4266)" fill="none" d="M0.929758 0.464571C0.929758 0.207996 0.721624 1.57107e-17 0.464879 0C0.208133 -1.57107e-17 3.14423e-17 0.207996 0 0.464571C-3.14423e-17 0.721147 0.208133 0.929143 0.464879 0.929143C0.721624 0.929143 0.929758 0.721147 0.929758 0.464571"/>
  <path id="rect3313" transform="translate(21.9797, 16.0331)" fill="#bdc3c7" fill-rule="evenodd" d="M0.8665 0L2.16726 0L3.25063 1.40483L0 1.42002Z"/>
  <path id="ellipse3316" transform="translate(23.1398, 32.757)" fill="none" d="M0.929758 0.464571C0.929758 0.207996 0.721624 1.57107e-17 0.464879 0C0.208133 -1.57107e-17 3.14423e-17 0.207996 0 0.464571C-3.14423e-17 0.721147 0.208133 0.929143 0.464879 0.929143C0.721624 0.929143 0.929758 0.721147 0.929758 0.464571"/>
  <rect id="rect3328" transform="matrix(1 0 0 -1 21.9791 31.3635)" fill="#bdc3c7" fill-rule="evenodd" width="2.60151949595pt" height="0.74329165620pt"/>
  <path id="ellipse3318" transform="translate(23.1398, 30.4342)" fill="none" d="M0.929758 0.464571C0.929758 0.207996 0.721624 1.57107e-17 0.464879 0C0.208133 -1.57107e-17 3.14423e-17 0.207996 0 0.464571C-3.14423e-17 0.721147 0.208133 0.929143 0.464879 0.929143C0.721624 0.929143 0.929758 0.721147 0.929758 0.464571"/>
  <path id="path3330" transform="translate(21.9949, 31.3595)" fill="#bdc3c7" fill-rule="evenodd" d="M0.85131 1.67596L2.15207 1.67596L3.24304 4.44089e-15L0 0Z"/>
  <rect id="rect3332" transform="matrix(0.5 0.866025 -0.866025 0.5 28.8268 19.5028)" fill="#bdc3c7" fill-rule="evenodd" width="2.60151949595pt" height="0.74329165620pt"/>
  <path id="path3334" transform="translate(28.8228, 19.519)" fill="#bdc3c7" fill-rule="evenodd" d="M1.70812 0.0883945L2.41857 1.25908L1.62532 2.81013L0 0Z"/>
  <rect id="rect3336" transform="matrix(0.5 0.866025 0.866025 -0.5 16.7572 26.4712)" fill="#bdc3c7" fill-rule="evenodd" width="2.60151949595pt" height="0.74329165620pt"/>
  <path id="path3338" transform="translate(16.015, 26.4712)" fill="#bdc3c7" fill-rule="evenodd" d="M0 1.45625L0.710452 2.62694L2.37997 2.8149L0.756726 0Z"/>
  <rect id="rect3340" transform="matrix(-0.5 0.866025 -0.866025 -0.5 30.4528 26.4711)" fill="#bdc3c7" fill-rule="evenodd" width="2.60151949595pt" height="0.74329165620pt"/>
  <path id="path3342" transform="translate(28.8152, 26.4759)" fill="#bdc3c7" fill-rule="evenodd" d="M2.42617 1.45148L1.71571 2.62217L0 2.81772L1.61772 0Z"/>
  <rect id="rect3344" transform="matrix(-0.5 0.866025 0.866025 0.5 18.3831 19.5027)" fill="#bdc3c7" fill-rule="evenodd" width="2.60151949595pt" height="0.74329165620pt"/>
  <path id="path3346" transform="translate(16.015, 19.519)" fill="#bdc3c7" fill-rule="evenodd" d="M0.710452 0.0883945L0 1.25908L0.754656 2.81013L2.37997 0Z"/>
  <path id="ellipse3324" transform="matrix(0.5 0.866025 -0.866025 0.5 29.4072 20.5079)" fill="none" d="M0.929758 0.464571C0.929758 0.207996 0.721624 1.57107e-17 0.464879 0C0.208133 -1.57107e-17 3.14423e-17 0.207996 0 0.464571C-3.14423e-17 0.721147 0.208133 0.929143 0.464879 0.929143C0.721624 0.929143 0.929758 0.721147 0.929758 0.464571"/>
  <path id="ellipse3326" transform="matrix(0.5 0.866025 -0.866025 0.5 18.1423 27.0117)" fill="none" d="M0.929758 0.464571C0.929758 0.207996 0.721624 1.57107e-17 0.464879 0C0.208133 -1.57107e-17 3.14423e-17 0.207996 0 0.464571C-3.14423e-17 0.721147 0.208133 0.929143 0.464879 0.929143C0.721624 0.929143 0.929758 0.721147 0.929758 0.464571"/>
  <path id="ellipse3348" transform="matrix(0.5 -0.866025 -0.866025 -0.5 29.4071 28.2819)" fill="none" d="M0.929758 0.464571C0.929758 0.207996 0.721624 1.57107e-17 0.464879 0C0.208133 -1.57107e-17 3.14423e-17 0.207996 0 0.464571C-3.14423e-17 0.721147 0.208133 0.929143 0.464879 0.929143C0.721624 0.929143 0.929758 0.721147 0.929758 0.464571"/>
  <path id="ellipse3350" transform="matrix(0.5 -0.866025 -0.866025 -0.5 18.1422 21.7781)" fill="none" d="M0.929758 0.464571C0.929758 0.207996 0.721624 1.57107e-17 0.464879 0C0.208133 -1.57107e-17 3.14423e-17 0.207996 0 0.464571C-3.14423e-17 0.721147 0.208133 0.929143 0.464879 0.929143C0.721624 0.929143 0.929758 0.721147 0.929758 0.464571"/>
  <path id="path3363" transform="translate(21.05, 21.8399)" fill="#ecf0f1" fill-rule="evenodd" d="M2.4974 3.80153e-09C1.18921 7.76779e-05 0 1.19029 0 2.49828C0 3.80628 1.18921 4.99649 2.4974 4.99657C3.80559 4.99665 4.99657 3.80643 4.99657 2.49828C4.99657 1.19014 3.80559 -7.767e-05 2.4974 3.80153e-09ZM2.4974 0.454234C3.56773 0.45417 4.54234 1.42799 4.54234 2.49828C4.54234 3.56858 3.56773 4.5424 2.4974 4.54234C1.42706 4.54227 0.454234 3.56846 0.454234 2.49828C0.454234 1.42811 1.42706 0.454297 2.4974 0.454234Z"/>
 </g>
</svg>
