<?xml version="1.0" standalone="no"?>
<!DOCTYPE svg PUBLIC "-//W3C//DTD SVG 20010904//EN" "http://www.w3.org/TR/2001/REC-SVG-20010904/DTD/svg10.dtd">
<!-- Created using Karbon, part of Calligra: http://www.calligra.org/karbon -->
<svg xmlns="http://www.w3.org/2000/svg" xmlns:xlink="http://www.w3.org/1999/xlink" width="38.4pt" height="38.4pt">
<defs/>
<g id="layer1">
  <path id="rect4090" transform="translate(7, 4)" fill="#bdc3c7" d="M0 0L0 40L34 40L34 11L23 0Z"/>
  <path id="path4151" transform="matrix(3.54331 0 0 3.54331 29.9999 3.99986)" fill="#ecf0f1" d="M0 0L0 3.10449L3.10446 3.10449Z"/>
  <path id="path4252" transform="matrix(3.54331 0 0 3.54331 29.9999 15)" fill="#000000" fill-opacity="0.11764705882" d="M3.10446 3.10449L3.10446 0L0 0Z"/>
  <rect id="shape0" transform="matrix(1 0 -0.445747 1 26.6625 17.1502)" fill="#7f8c8d" fill-rule="evenodd" stroke="#003bc3" stroke-width="0.00000000000" stroke-linecap="square" stroke-linejoin="miter" stroke-miterlimit="2.01260191180" width="1.78051214245pt" height="13.51831748419pt"/>
  <rect id="shape1" transform="matrix(8.10807e-16 1 -1 -0.58977 38.8819 24.4377)" fill="#7f8c8d" fill-rule="evenodd" stroke="#003bc3" stroke-width="0.00000000000" stroke-linecap="square" stroke-linejoin="miter" stroke-miterlimit="2.00000000000" width="1.81561754619pt" height="7.63096274497pt"/>
  <rect id="shape2" transform="matrix(0 -1 -1 0.58977 38.876 26.7046)" fill="#7f8c8d" fill-rule="evenodd" stroke="#003bc3" stroke-width="0.00000000000" stroke-linecap="square" stroke-linejoin="miter" stroke-miterlimit="2.00000000000" width="1.81561754619pt" height="7.63096274497pt"/>
  <rect id="shape3" transform="matrix(0 1 1 -0.58977 9.05316 24.4488)" fill="#7f8c8d" fill-rule="evenodd" stroke="#003bc3" stroke-width="0.00000000000" stroke-linecap="square" stroke-linejoin="miter" stroke-miterlimit="2.00000000000" width="1.81561754619pt" height="7.63096274497pt"/>
  <rect id="shape4" transform="matrix(0 -1 1 0.58977 9.05909 26.7157)" fill="#7f8c8d" fill-rule="evenodd" stroke="#003bc3" stroke-width="0.00000000000" stroke-linecap="square" stroke-linejoin="miter" stroke-miterlimit="2.00000000000" width="1.81561754619pt" height="7.63096274497pt"/>
 </g>
</svg>
