<?xml version="1.0" standalone="no"?>
<!DOCTYPE svg PUBLIC "-//W3C//DTD SVG 20010904//EN" "http://www.w3.org/TR/2001/REC-SVG-20010904/DTD/svg10.dtd">
<!-- Created using Karbon, part of Calligra: http://www.calligra.org/karbon -->
<svg xmlns="http://www.w3.org/2000/svg" xmlns:xlink="http://www.w3.org/1999/xlink" width="38.4pt" height="38.4pt">
<defs/>
<g id="layer1">
  <path id="rect4090" transform="translate(7, 4)" fill="#bdc3c7" d="M0 0L0 40L34 40L34 11L23 0Z"/>
  <path id="path4151" transform="matrix(3.54331 0 0 3.54331 29.9999 3.99986)" fill="#ecf0f1" d="M0 0L0 3.10449L3.10446 3.10449Z"/>
  <path id="path4252" transform="matrix(3.54331 0 0 3.54331 29.9999 15)" fill="#000000" fill-opacity="0.11764705882" d="M3.10446 3.10449L3.10446 0L0 0Z"/>
  <path id="shape0" transform="translate(14.2557, 17.0534)" fill="#7f8c8d" d="M17.6969 4.31168C16.0832 1.88245 13.4707 0.322288 10.5553 0.0462413C7.56367 -0.237047 4.75131 0.789487 2.73649 2.90049C1.508 4.18768 0.705757 5.62313 0.235373 7.3768C0.0272182 8.15172 -0.00189826 8.43917 9.10613e-05 9.68582C0.00189954 10.9296 0.0330053 11.2255 0.24532 12.028C1.17234 15.5277 3.90061 18.214 7.41755 19.0901C7.72029 19.1656 8.09211 19.2445 8.24348 19.2655C8.91352 19.3583 10.5345 19.3194 11.2564 19.1931C14.2286 18.6745 16.8694 16.755 18.2246 14.1283C19.8063 11.0637 19.5969 7.17153 17.6969 4.31168ZM17.3021 11.7179C16.5256 14.5984 14.1628 16.7964 11.1806 17.4124C6.53122 18.3731 2.00081 14.852 1.71199 10.0531C1.52518 6.95359 3.40002 3.84376 6.27857 2.47854C7.36854 1.96156 8.24619 1.7724 9.57434 1.76787C10.8518 1.76389 11.5608 1.89476 12.6753 2.34133C14.9128 3.23826 16.6664 5.26888 17.3115 7.70968C17.5814 8.73079 17.5767 10.6993 17.3021 11.7179Z"/>
  <path id="shape1" transform="translate(18.3845, 23.724)" fill="#7f8c8d" d="M1.67145 5.78761C0.808649 5.47479 0.146824 4.55682 0.0304594 3.51047C-0.142669 1.95961 0.428157 0.755486 1.5918 0.21508C2.22242 -0.0774283 3.36779 -0.0707185 4.04824 0.229949C4.46137 0.412563 5.23761 1.12924 5.23761 1.32835C5.23761 1.361 4.9694 1.52275 4.64213 1.68778L4.04647 1.9879L3.72859 1.66293C3.55121 1.48159 3.27999 1.31276 3.11502 1.28138C2.70597 1.2025 2.2162 1.38892 1.99465 1.707C1.62835 2.23326 1.60298 3.60912 1.94995 4.15061C2.12999 4.43152 2.43244 4.62846 2.71768 4.65076C3.31742 4.69791 3.46872 4.64496 3.8235 4.26341L4.18146 3.87896L4.64248 4.13828C4.89597 4.281 5.14005 4.43152 5.18493 4.47304C5.34049 4.61631 4.62723 5.36054 4.05339 5.6536C3.56575 5.90276 3.41214 5.93613 2.77107 5.92942C2.36947 5.92507 1.87509 5.86142 1.67145 5.78761Z"/>
  <path id="shape2" transform="translate(23.9546, 23.7185)" fill="#7f8c8d" d="M1.68305 5.79863C0.830861 5.48987 0.179104 4.59989 0.0390868 3.55344C-0.16401 2.03741 0.434263 0.763335 1.60327 0.221142C2.2815 -0.0934289 3.43167 -0.0694685 4.11915 0.274326C4.54471 0.486883 5.25528 1.15414 5.25528 1.34092C5.25528 1.37269 4.97684 1.53642 4.63604 1.70469L4.01698 2.01091L3.69643 1.6535C3.40822 1.33203 3.33146 1.29609 2.93664 1.29609C2.39309 1.29609 2.0434 1.51427 1.85469 1.97115C1.68589 2.37993 1.66457 3.38209 1.81489 3.83878C2.12105 4.76707 3.23799 4.98707 3.87198 4.24393L4.15699 3.90994L4.70622 4.19347C5.00829 4.34903 5.25546 4.50296 5.25546 4.53509C5.25546 4.74565 4.54577 5.42108 4.06833 5.66467C3.57969 5.91408 3.42599 5.94748 2.78383 5.94076C2.38243 5.93622 1.88721 5.87251 1.68305 5.79863Z"/>
 </g>
</svg>
