<?xml version="1.0" standalone="no"?>
<!DOCTYPE svg PUBLIC "-//W3C//DTD SVG 20010904//EN" "http://www.w3.org/TR/2001/REC-SVG-20010904/DTD/svg10.dtd">
<!-- Created using Karbon, part of Calligra: http://www.calligra.org/karbon -->
<svg xmlns="http://www.w3.org/2000/svg" xmlns:xlink="http://www.w3.org/1999/xlink" width="38.4pt" height="38.4pt">
<defs/>
<g id="layer1">
  <path id="rect4090" transform="translate(7, 4)" fill="#ecf0f1" d="M0 0L0 40L34 40L34 11L23 0Z"/>
  <path id="path4151" transform="matrix(3.54331 0 0 3.54331 29.9999 3.99986)" fill="#ffffff" opacity="0.50000000000" d="M0 0L0 3.10449L3.10446 3.10449Z"/>
  <path id="path4252" transform="matrix(3.54331 0 0 3.54331 29.9999 15)" fill="#000000" fill-opacity="0.11764705882" d="M3.10446 3.10449L3.10446 0L0 0Z"/>
  <path id="c" transform="translate(11.5544, 19.4869)" fill="#27ae60" d="M7.45375 14.0094C8.95596 14.081 10.5893 12.9795 10.6304 11.3833C10.6527 11.0853 11.177 11.3018 11.4259 11.236C12.2672 11.236 13.1086 11.236 13.9499 11.236C14.1383 12.8419 13.2288 14.4067 11.9898 15.3774C9.94988 17.0931 6.98583 17.3055 4.53268 16.4568C2.1806 15.6298 0.663672 13.3085 0.214097 10.9353C-0.0657145 9.38054 -0.0639435 7.77069 0.176707 6.21104C0.588982 3.76562 2.11878 1.34712 4.53268 0.486819C6.41265 -0.16627 8.54835 -0.179133 10.4073 0.550809C12.4238 1.3702 13.9581 3.36944 13.9898 5.57988C14.2091 6.16608 13.8191 6.21737 13.3931 6.15666C12.4734 6.15666 11.5537 6.15666 10.634 6.15666C10.7041 4.50924 9.3058 2.93619 7.62873 2.9499C6.39419 2.86007 5.03751 3.38065 4.47685 4.54749C3.56233 6.23665 3.59078 8.23515 3.75448 10.0958C3.9516 11.4308 4.39253 12.9807 5.69028 13.6401C6.23349 13.9146 6.85026 14.0094 7.45375 14.0094Z"/>
  <rect id="shape11" transform="matrix(0 1 -1 0 35.9027 22.389)" fill="#27ae60" fill-rule="evenodd" stroke="#003bc3" stroke-width="0.00000000000" stroke-linecap="square" stroke-linejoin="miter" stroke-miterlimit="2.00000000000" width="1.61464998327pt" height="5.84941132324pt"/>
  <rect id="shape111" transform="matrix(-1 0 0 -1 33.2211 27.0136)" fill="#27ae60" fill-rule="evenodd" stroke="#003bc3" stroke-width="0.00000000000" stroke-linecap="square" stroke-linejoin="miter" stroke-miterlimit="2.00000000000" width="1.56584340014pt" height="5.84418247785pt"/>
  <rect id="shape112" transform="matrix(0 1 -1 0 35.9875 31.8271)" fill="#27ae60" fill-rule="evenodd" stroke="#003bc3" stroke-width="0.00000000000" stroke-linecap="square" stroke-linejoin="miter" stroke-miterlimit="2.00000000000" width="1.61464998327pt" height="5.90112409239pt"/>
  <rect id="shape113" transform="matrix(-1 0 0 -1 33.2883 36.4549)" fill="#27ae60" fill-rule="evenodd" stroke="#003bc3" stroke-width="0.00000000000" stroke-linecap="square" stroke-linejoin="miter" stroke-miterlimit="2.00000000000" width="1.56584340014pt" height="5.84418247785pt"/>
 </g>
</svg>
