<svg xmlns="http://www.w3.org/2000/svg" width="48" height="48" viewBox="0 0 13.546666 13.546668">
 <g transform="translate(38.119153,-397.84494)">
  <path d="m -36.143598,398.97385 0,11.28889 9.595557,0 0,-8.18445 -3.104445,-3.10444 z" style="fill:#ecf0f1"/>
  <path d="m -29.652514,398.97381 0,3.10449 3.104462,0 z" opacity="0.5" style="fill:#ffffff"/>
  <path d="m -26.548052,405.18279 0,-3.1045 -3.104462,0 z" fill-opacity="0.118"/>
  <path d="m -32.756935,404.33603 2.822219,0.84667 4e-6,1.12889 -2.822223,-0.84667 z" style="fill:#c0392b"/>
  <path d="m -32.756935,402.92498 2.822219,0.84667 4e-6,1.12889 -2.822223,-0.84667 z" style="fill:#ffdd55"/>
  <path d="m -32.756935,402.92498 2.822219,0.84667 4e-6,1.12889 -2.822223,-0.84667 z" style="fill:#c0392b"/>
  <path d="m -29.934712,403.63049 -2.822219,0.84667 -4e-6,1.12889 2.822223,-0.84667 z" style="fill:#e74c3c"/>
  <path d="m -29.934712,402.07827 -2.822219,0.84667 -4e-6,1.12889 2.822223,-0.84667 z" style="fill:#e74c3c"/>
  <path d="m -29.934712,405.18271 -2.822219,0.84667 -4e-6,1.12889 2.822223,-0.84667 z" style="fill:#e74c3c"/>
 </g>
</svg>
