<?xml version="1.0" standalone="no"?>
<!DOCTYPE svg PUBLIC "-//W3C//DTD SVG 20010904//EN" "http://www.w3.org/TR/2001/REC-SVG-20010904/DTD/svg10.dtd">
<!-- Created using Karbon, part of Calligra: http://www.calligra.org/karbon -->
<svg xmlns="http://www.w3.org/2000/svg" xmlns:xlink="http://www.w3.org/1999/xlink" width="38.4pt" height="38.4pt">
<defs/>
<g id="layer1">
  <path id="rect4090" transform="translate(7, 4)" style="fill:#ecf0f1" d="M0 0L0 40L34 40L34 11L23 0Z"/>
  <path id="path4151" transform="matrix(3.54331 0 0 3.54331 29.9999 3.99986)" style="fill:#ffffff" opacity="0.50000000000" d="M0 0L0 3.10449L3.10446 3.10449Z"/>
  <path id="path4252" transform="matrix(3.54331 0 0 3.54331 29.9999 15)" style="fill:#000000" fill-opacity="0.11764705882" d="M3.10446 3.10449L3.10446 0L0 0Z"/>
  <path id="c" transform="translate(11.1848, 19.4869)" style="fill:#3498db" d="M7.45375 14.0094C8.95596 14.081 10.5893 12.9795 10.6304 11.3833C10.6527 11.0853 11.177 11.3018 11.4259 11.236C12.2672 11.236 13.1086 11.236 13.9499 11.236C14.1383 12.8419 13.2288 14.4067 11.9898 15.3774C9.94988 17.0931 6.98583 17.3055 4.53268 16.4568C2.1806 15.6298 0.663672 13.3085 0.214097 10.9353C-0.0657146 9.38054 -0.0639436 7.77069 0.176707 6.21104C0.588982 3.76562 2.11878 1.34712 4.53268 0.486819C6.41265 -0.16627 8.54835 -0.179133 10.4073 0.550809C12.4238 1.3702 13.9581 3.36944 13.9898 5.57988C14.2091 6.16608 13.8191 6.21737 13.3931 6.15666C12.4734 6.15666 11.5537 6.15666 10.634 6.15666C10.7041 4.50924 9.3058 2.93619 7.62873 2.9499C6.39419 2.86007 5.03751 3.38065 4.47685 4.54749C3.56233 6.23665 3.59078 8.23515 3.75448 10.0958C3.9516 11.4308 4.39253 12.9807 5.69028 13.6401C6.23349 13.9146 6.85026 14.0094 7.45375 14.0094Z"/>
  <path id="shape0" transform="translate(27.0415, 19.5152)" style="fill:#3498db" d="M5.78906 12.2578C5.25781 12.2578 4.72656 12.2578 4.19531 12.2578C3.96484 13.8594 3.73438 15.4609 3.50391 17.0625C2.82812 17.0625 2.15234 17.0625 1.47656 17.0625C1.70703 15.4609 1.9375 13.8594 2.16797 12.2578C1.44531 12.2578 0.722656 12.2578 0 12.2578C0 11.6094 0 10.9609 0 10.3125C0.816406 10.3125 1.63281 10.3125 2.44922 10.3125C2.61719 9.14844 2.78516 7.98437 2.95312 6.82031C2.21484 6.82031 1.47656 6.82031 0.738281 6.82031C0.738281 6.17188 0.738281 5.52344 0.738281 4.875C1.57031 4.875 2.40234 4.875 3.23438 4.875C3.47266 3.25 3.71094 1.625 3.94922 0C4.62109 0 5.29297 0 5.96484 0C5.73047 1.625 5.49609 3.25 5.26172 4.875C5.79297 4.875 6.32422 4.875 6.85547 4.875C7.08984 3.25 7.32422 1.625 7.55859 0C8.23438 0 8.91016 0 9.58594 0C9.35156 1.625 9.11719 3.25 8.88281 4.875C9.60938 4.875 10.3359 4.875 11.0625 4.875C11.0625 5.52344 11.0625 6.17188 11.0625 6.82031C10.2422 6.82031 9.42188 6.82031 8.60156 6.82031C8.43359 7.98437 8.26562 9.14844 8.09766 10.3125C8.83594 10.3125 9.57422 10.3125 10.3125 10.3125C10.3125 10.9609 10.3125 11.6094 10.3125 12.2578C9.48047 12.2578 8.64844 12.2578 7.81641 12.2578C7.58594 13.8594 7.35547 15.4609 7.125 17.0625C6.44922 17.0625 5.77344 17.0625 5.09766 17.0625C5.32812 15.4609 5.55859 13.8594 5.78906 12.2578ZM4.47656 10.3125C5.00781 10.3125 5.53906 10.3125 6.07031 10.3125C6.23828 9.14844 6.40625 7.98437 6.57422 6.82031C6.04297 6.82031 5.51172 6.82031 4.98047 6.82031C4.8125 7.98437 4.64453 9.14844 4.47656 10.3125Z"/>
 </g>
</svg>
