<?xml version="1.0" standalone="no"?>
<!DOCTYPE svg PUBLIC "-//W3C//DTD SVG 20010904//EN" "http://www.w3.org/TR/2001/REC-SVG-20010904/DTD/svg10.dtd">
<!-- Created using Karbon, part of Calligra: http://www.calligra.org/karbon -->
<svg xmlns="http://www.w3.org/2000/svg" xmlns:xlink="http://www.w3.org/1999/xlink" width="38.4pt" height="38.4pt">
<defs/>
<g id="layer1">
  <path id="rect4090" transform="translate(7, 4)" fill="#ecf0f1" d="M0 0L0 40L34 40L34 11L23 0Z"/>
  <path id="path4151" transform="matrix(3.54331 0 0 3.54331 29.9999 3.99986)" fill="#ffffff" opacity="0.50000000000" d="M0 0L0 3.10449L3.10446 3.10449Z"/>
  <path id="path4252" transform="matrix(3.54331 0 0 3.54331 29.9999 15)" fill="#000000" fill-opacity="0.11764705882" d="M3.10446 3.10449L3.10446 0L0 0Z"/>
  <path id="path3672" transform="translate(14.2028, 11.8763)" fill="#ff7f2a" fill-rule="evenodd" d="M11.8648 0C12.9253 3.97279 8.12108 5.1807 6.38827 7.6548C5.20825 9.34056 6.96747 11.1464 9.36594 13.204C8.4306 11.1935 5.25739 9.43154 9.36594 6.34582C14.4892 2.50044 11.8648 0 11.8648 0ZM15.022 4.92307C15.022 4.92307 6.36581 6.97725 10.5031 11.5108C11.7245 12.8477 10.1889 14.0433 10.1889 14.0433C10.1889 14.0433 13.2879 12.5344 11.8648 10.6285C10.5352 8.85215 9.50321 7.96644 15.022 4.92307ZM16.4285 13.0189C16.1632 13.0336 15.8898 13.0804 15.6055 13.1755C15.3397 13.265 15.2015 13.4742 15.2015 13.4742C15.2015 13.4742 15.3655 13.406 15.7402 13.3313C17.2727 13.0277 19.4709 15.2828 14.7227 17.6283C14.7008 17.6844 14.6329 17.7566 14.633 17.7566C20.3788 16.3206 18.9934 12.8935 16.4285 13.0187ZM6.1638 13.2463C5.55846 13.261 4.12981 13.3847 2.48287 14.1428C-0.114889 15.3372 8.91433 15.88 13.5855 14.7119C14.0711 14.3967 14.7377 14.1284 14.7377 14.1284C14.7377 14.1284 12.8258 14.4461 10.9221 14.5981C8.59209 14.784 6.10168 14.8287 4.84704 14.6703C1.87658 14.2926 6.47804 13.2474 6.47804 13.2474C6.47804 13.2474 6.36558 13.2474 6.1638 13.2474ZM5.40069 15.9793C1.11547 17.3317 7.79095 18.8688 13.7801 17.203C13.1437 16.9896 12.7326 16.6053 12.7326 16.6053C9.80437 17.1411 8.1117 17.1144 5.96927 16.904C4.31293 16.7412 5.40069 15.9793 5.40069 15.9793ZM5.9992 18.6116C2.10819 19.6454 8.37687 21.7824 13.3312 19.764C12.5198 19.4642 11.9395 19.1237 11.9395 19.1237C9.73028 19.5209 8.69295 19.5548 6.68751 19.337C5.0324 19.1566 5.9992 18.6116 5.9992 18.6116ZM3.4854 20.3616C1.81333 20.3001 -1.96998 21.8818 1.27086 22.3821C11.3713 23.9388 19.6765 21.6848 17.057 20.5608C17.057 20.5608 17.7674 21.123 16.2639 21.5568C13.405 22.3803 4.36602 22.6242 1.85442 21.5849C0.952184 21.2112 2.63857 20.6984 3.17118 20.5889C3.72649 20.4753 4.054 20.5033 4.054 20.5033C3.92849 20.4191 3.72427 20.3695 3.4854 20.3603ZM18.658 21.7831C18.658 21.7831 18.3351 22.5609 14.8873 23.1775C10.9978 23.8737 6.21055 23.7948 3.3657 23.3483C3.3657 23.3483 3.94718 23.8051 6.94188 23.9886C11.4985 24.2656 18.4923 23.8336 18.658 21.7831Z"/>
 </g>
</svg>
