<?xml version="1.0" standalone="no"?>
<!DOCTYPE svg PUBLIC "-//W3C//DTD SVG 20010904//EN" "http://www.w3.org/TR/2001/REC-SVG-20010904/DTD/svg10.dtd">
<!-- Created using Karbon, part of Calligra: http://www.calligra.org/karbon -->
<svg xmlns="http://www.w3.org/2000/svg" xmlns:xlink="http://www.w3.org/1999/xlink" width="38.4pt" height="38.4pt">
<defs/>
<g id="layer1">
  <path id="rect4090" transform="translate(7, 4)" style="fill:#ecf0f1" d="M0 0L0 40L34 40L34 11L23 0Z"/>
  <path id="path4151" transform="matrix(3.54331 0 0 3.54331 29.9999 3.99986)" style="fill:#ffffff" opacity="0.50000000000" d="M0 0L0 3.10449L3.10446 3.10449Z"/>
  <path id="path4252" transform="matrix(3.54331 0 0 3.54331 29.9999 15)" style="fill:#000000" fill-opacity="0.11764705882" d="M3.10446 3.10449L3.10446 0L0 0Z"/>
  <path id="shape0" transform="translate(9.59361, 20.1653)" style="fill:#2c3e50" d="M8.30389 9.03732C8.50042 10.327 7.65769 11.696 7.52859 12.6743C8.0726 13.3663 8.61661 14.0582 9.16062 14.7501C8.68194 15.223 8.20326 15.6959 7.72458 16.1689C7.11535 15.3838 6.50612 14.5988 5.89689 13.8137C3.96203 14.7173 1.33208 14.0146 0.453861 11.6502C-0.218431 9.85621 0.0823476 7.86825 0.0140234 5.97073C-0.0788844 4.06655 0.266689 1.90095 1.74992 0.79089C3.71488 -0.709537 6.86164 -0.0525284 7.85767 2.56993C8.53922 4.35969 8.23484 6.3487 8.30389 8.24493C8.30389 8.50906 8.30389 8.77319 8.30389 9.03732ZM5.9948 5.15942C6.079 3.83429 5.51179 2.08023 4.14264 2.18007C2.76399 2.06801 2.23215 3.84212 2.31495 5.15942C2.34249 6.79016 2.25087 8.42851 2.38035 10.053C2.39148 11.7031 4.17803 12.6458 5.25842 11.6058C6.28049 10.4386 5.92794 8.66656 5.9948 7.16744C5.9948 6.4981 5.9948 5.82876 5.9948 5.15942ZM13.3382 0.212745C14.0481 3.58304 14.7579 6.95334 15.4678 10.3236C15.6617 9.94975 15.6943 9.33709 15.8261 8.87137C16.441 5.98516 17.0559 3.09895 17.6708 0.212745C18.6798 0.212745 19.6889 0.212745 20.6979 0.212745C20.6979 4.80316 20.6979 9.39358 20.6979 13.984C19.9282 13.984 19.1585 13.984 18.3888 13.984C18.3655 11.4032 18.4013 8.8239 18.5255 6.24676C18.5452 5.70776 18.5649 5.16876 18.5846 4.62976C18.3926 4.929 18.3545 5.50915 18.2217 5.91647C17.5702 8.60565 16.9188 11.2948 16.2674 13.984C15.7533 13.984 15.2393 13.984 14.7253 13.984C13.9773 10.888 13.2294 7.79198 12.4815 4.69597C12.3801 5.05143 12.5005 5.61489 12.4845 6.05038C12.6017 8.53136 12.669 11.0136 12.6365 13.4985C12.8251 14.1781 12.2357 13.9559 11.8622 13.984C11.3506 13.984 10.839 13.984 10.3274 13.984C10.3274 9.39358 10.3274 4.80316 10.3274 0.212745C11.331 0.212745 12.3346 0.212745 13.3382 0.212745ZM24.7694 11.837C26.2163 11.837 27.6633 11.837 29.1102 11.837C29.1102 12.5526 29.1102 13.2683 29.1102 13.984C26.8881 13.984 24.6661 13.984 22.444 13.984C22.444 9.39358 22.444 4.80316 22.444 0.212745C23.2192 0.212745 23.9943 0.212745 24.7694 0.212745C24.7694 4.08748 24.7694 7.96222 24.7694 11.837Z"/>
 </g>
</svg>
