<?xml version="1.0" standalone="no"?>
<!DOCTYPE svg PUBLIC "-//W3C//DTD SVG 20010904//EN" "http://www.w3.org/TR/2001/REC-SVG-20010904/DTD/svg10.dtd">
<!-- Created using Karbon, part of Calligra: http://www.calligra.org/karbon -->
<svg xmlns="http://www.w3.org/2000/svg" xmlns:xlink="http://www.w3.org/1999/xlink" width="38.4pt" height="38.4pt">
<defs/>
<g id="layer1">
  <path id="rect4090" transform="translate(7, 4)" fill="#bdc3c7" d="M0 0L0 40L34 40L34 11L23 0Z"/>
  <path id="path4151" transform="matrix(3.54331 0 0 3.54331 29.9999 3.99986)" fill="#ecf0f1" d="M0 0L0 3.10449L3.10446 3.10449Z"/>
  <rect id="rect3304" transform="matrix(1 0 0 1 11.6372 14.8481)" fill="#d4a275" fill-rule="evenodd" width="19.69028591216pt" height="19.69028591216pt"/>
  <path id="rect3340" transform="matrix(1 0 0 1 12.8065 14.8481)" fill="#c89766" fill-rule="evenodd" d="M0 0L0 24.6129L0.122412 24.6129L0.122412 0ZM1.22892 0L1.22892 24.6129L1.35133 24.6129L1.35133 0ZM2.45784 0L2.45784 24.6129L2.58025 24.6129L2.58025 0ZM3.68676 0L3.68676 24.6129L3.80916 24.6129L3.80916 0ZM4.91568 0L4.91568 24.6129L5.03808 24.6129L5.03808 0ZM6.14459 0L6.14459 24.6129L6.267 24.6129L6.267 0ZM7.37351 0L7.37351 24.6129L7.49592 24.6129L7.49592 0ZM8.60243 0L8.60243 24.6129L8.72486 24.6129L8.72486 0ZM9.83135 0L9.83135 24.6129L9.95378 24.6129L9.95378 0ZM11.0603 0L11.0603 24.6129L11.1827 24.6129L11.1827 0ZM12.2892 0L12.2892 24.6129L12.4116 24.6129L12.4116 0ZM13.5181 0L13.5181 24.6129L13.6405 24.6129L13.6405 0ZM14.747 0L14.747 24.6129L14.8695 24.6129L14.8695 0ZM15.9759 0L15.9759 24.6129L16.0984 24.6129L16.0984 0ZM17.2049 0L17.2049 24.6129L17.3273 24.6129L17.3273 0ZM18.4338 0L18.4338 24.6129L18.5562 24.6129L18.5562 0ZM19.6627 0L19.6627 24.6129L19.7851 24.6129L19.7851 0ZM20.8916 0L20.8916 24.6129L21.0141 24.6129L21.0141 0ZM22.1205 0L22.1205 24.6129L22.243 24.6129L22.243 0Z"/>
  <path id="path3331" transform="matrix(1 0 0 1 18.4057 21.6166)" fill="#201810" d="M5.69365 1.95539e-08C4.2023 0.0001266 2.72007 0.614307 1.66631 1.66879C0.612553 2.72327 0 4.205 0 5.69612C0 7.18724 0.612553 8.66894 1.66631 9.72343C2.72007 10.7779 4.2023 11.3921 5.69365 11.3922C7.18499 11.3924 8.66712 10.7779 9.72225 9.72343C10.7773 8.66894 11.3922 7.18743 11.3922 5.69612C11.3922 4.20481 10.7773 2.72327 9.72225 1.66879C8.66712 0.614307 7.18499 -0.000126561 5.69365 1.95539e-08ZM5.69365 1.2658C8.01349 1.26568 10.1264 3.37634 10.1264 5.69612C10.1264 8.01586 8.01349 10.1266 5.69365 10.1264C3.37378 10.1263 1.2658 8.0157 1.2658 5.69612C1.2658 3.37653 3.37378 1.26593 5.69365 1.2658Z"/>
  <rect id="rect4351" transform="matrix(1 0 0 1 23.033 24.4437)" fill="#201810" fill-rule="evenodd" width="1.96902859122pt" height="3.44580003463pt"/>
  <path id="path4353" transform="matrix(1 0 0 1 20.8794 26.905)" fill="#201810" fill-rule="evenodd" d="M3.322 3.76619L0 0L6.64401 0Z"/>
  <path id="path4252" transform="matrix(3.54331 0 0 3.54331 29.9999 15)" fill="#000000" fill-opacity="0.11764705882" d="M3.10446 3.10449L3.10446 0L0 0Z"/>
  <rect id="rect3289" transform="matrix(1 0 0 1 24.8209 11.9184)" fill="none" width="2.34376417234pt" height="2.34376417234pt" rx="1.17188208617pt" ry="1.17188208617pt"/>
  <rect id="rect3291" transform="matrix(1 0 0 1 24.8209 44.1451)" fill="none" width="2.34376417234pt" height="2.34376417234pt" rx="1.17188208617pt" ry="1.17188208617pt"/>
  <rect id="rect3287" transform="matrix(1 0 0 1 40.9342 28.0317)" fill="none" width="2.34376417234pt" height="2.34376417234pt" rx="1.17188208617pt" ry="1.17188208617pt"/>
  <rect id="rect3285" transform="matrix(1 0 0 1 8.70748 28.0317)" fill="none" width="2.34376417234pt" height="2.34376417234pt" rx="1.17188208617pt" ry="1.17188208617pt"/>
  <rect id="rect3327" transform="matrix(1 0 0 1 25.5533 22.9048)" fill="none" width="1.17188208617pt" height="1.17188208617pt" rx="0.58594104308pt" ry="0.58594104308pt"/>
  <rect id="rect3334" transform="matrix(1 0 0 1 25.5533 24.3696)" fill="none" width="1.17188208617pt" height="1.17188208617pt" rx="0.58594104308pt" ry="0.58594104308pt"/>
  <rect id="rect3336" transform="matrix(1 0 0 1 25.5533 34.6236)" fill="none" width="1.17188208617pt" height="1.17188208617pt" rx="0.58594104308pt" ry="0.58594104308pt"/>
  <rect id="rect3338" transform="matrix(1 0 0 1 25.5533 33.1587)" fill="none" width="1.17188208617pt" height="1.17188208617pt" rx="0.58594104308pt" ry="0.58594104308pt"/>
  <rect id="rect4206" transform="matrix(1 0 0 1 21.79 36.9995)" fill="#dbb797" fill-rule="evenodd" width="3.44580003463pt" height="1.96902908347pt"/>
  <rect id="rect4223" transform="matrix(1 0 0 1 21.79 14.8481)" fill="#dbb797" fill-rule="evenodd" width="3.44580003463pt" height="1.96902908347pt"/>
 </g>
</svg>
