<?xml version="1.0" standalone="no"?>
<!DOCTYPE svg PUBLIC "-//W3C//DTD SVG 20010904//EN" "http://www.w3.org/TR/2001/REC-SVG-20010904/DTD/svg10.dtd">
<!-- Created using Karbon, part of Calligra: http://www.calligra.org/karbon -->
<svg xmlns="http://www.w3.org/2000/svg" xmlns:xlink="http://www.w3.org/1999/xlink" width="38.4pt" height="38.4pt">
<defs/>
<g id="layer1">
  <path id="rect4090" transform="translate(7, 4)" fill="#ecf0f1" d="M0 0L0 40L34 40L34 11L23 0Z"/>
  <path id="path4151" transform="matrix(3.54331 0 0 3.54331 29.9999 3.99986)" fill="#ffffff" opacity="0.50000000000" d="M0 0L0 3.10449L3.10446 3.10449Z"/>
  <path id="path4252" transform="matrix(3.54331 0 0 3.54331 29.9999 15)" fill="#000000" fill-opacity="0.11764705882" d="M3.10446 3.10449L3.10446 0L0 0Z"/>
  <path id="shape0" transform="translate(14.822, 17.6021)" fill="#2c3e50" d="M16.5651 4.04341C15.0547 1.76533 12.6093 0.302235 9.88028 0.0433644C7.07997 -0.222299 4.44746 0.740366 2.56149 2.72002C1.41156 3.92712 0.660624 5.27326 0.22032 6.91782C0.0254776 7.64453 -0.00177687 7.9141 8.52383e-05 9.08318C0.00177806 10.2496 0.0308945 10.5271 0.229632 11.2796C1.09737 14.5616 3.65116 17.0807 6.94319 17.9024C7.22657 17.9732 7.57461 18.0471 7.7163 18.0668C8.3435 18.1538 9.86081 18.1173 10.5365 17.9989C13.3187 17.5126 15.7906 15.7125 17.0591 13.2492C18.5396 10.3753 18.3436 6.72532 16.5651 4.04341ZM16.1956 10.9888C15.4688 13.6901 13.257 15.7513 10.4656 16.329C6.11355 17.23 1.87286 13.9279 1.6025 9.42761C1.42764 6.52094 3.18259 3.60461 5.87705 2.32433C6.89731 1.83952 7.71884 1.66212 8.96205 1.65788C10.1578 1.65414 10.8215 1.77687 11.8647 2.19565C13.9591 3.03678 15.6005 4.94105 16.2044 7.22999C16.457 8.18757 16.4527 10.0336 16.1956 10.9888Z"/>
  <path id="shape1" transform="translate(18.5378, 24.0053)" fill="#2c3e50" d="M1.59377 4.99871C0.771069 4.72852 0.140001 3.93569 0.0290439 3.03196C-0.136039 1.6925 0.40826 0.652506 1.51783 0.185763C2.11914 -0.0668741 3.21128 -0.061079 3.86011 0.198605C4.25405 0.356326 4.99421 0.975314 4.99421 1.14728C4.99421 1.17548 4.73846 1.31518 4.4264 1.45772L3.85843 1.71693L3.55531 1.43625C3.38618 1.27963 3.12756 1.13382 2.97026 1.10671C2.58022 1.03859 2.11321 1.1996 1.90195 1.47432C1.55268 1.92885 1.52848 3.11717 1.85933 3.58484C2.031 3.82747 2.3194 3.99756 2.59138 4.01682C3.16326 4.05754 3.30753 4.01181 3.64581 3.68227L3.98714 3.35022L4.42673 3.57419C4.66845 3.69746 4.90118 3.82747 4.94397 3.86332C5.0923 3.98707 4.41219 4.62985 3.86502 4.88296C3.40004 5.09816 3.25357 5.12698 2.6423 5.12119C2.25936 5.11743 1.78795 5.06246 1.59377 4.99871Z"/>
  <path id="shape2" transform="translate(23.6081, 24.0003)" fill="#2c3e50" d="M1.6103 5.0178C0.794949 4.75062 0.171363 3.98048 0.0373974 3.07494C-0.156921 1.76306 0.415493 0.660546 1.53398 0.191364C2.18289 -0.0808481 3.28335 -0.0601141 3.94111 0.237386C4.34828 0.42132 5.02813 0.998726 5.02813 1.16036C5.02813 1.18784 4.76173 1.32953 4.43566 1.47514L3.84335 1.74013L3.53666 1.43084C3.26091 1.15266 3.18747 1.12156 2.80971 1.12156C2.28965 1.12156 1.95508 1.31037 1.77452 1.70572C1.61302 2.05945 1.59263 2.92666 1.73644 3.32185C2.02937 4.12515 3.09803 4.31553 3.70462 3.67245L3.97731 3.38343L4.50281 3.62879C4.79182 3.7634 5.02831 3.8966 5.02831 3.9244C5.02831 4.10661 4.3493 4.69109 3.89248 4.90188C3.42496 5.1177 3.27791 5.1466 2.6635 5.14079C2.27945 5.13687 1.80564 5.08173 1.6103 5.0178Z"/>
 </g>
</svg>
