<?xml version="1.0" standalone="no"?>
<!DOCTYPE svg PUBLIC "-//W3C//DTD SVG 20010904//EN" "http://www.w3.org/TR/2001/REC-SVG-20010904/DTD/svg10.dtd">
<!-- Created using Karbon, part of Calligra: http://www.calligra.org/karbon -->
<svg xmlns="http://www.w3.org/2000/svg" xmlns:xlink="http://www.w3.org/1999/xlink" width="38.4pt" height="38.4pt">
<defs/>
<g id="layer1">
  <path id="rect4090" transform="translate(7, 4)" style="fill:#ecf0f1" d="M0 0L0 40L34 40L34 11L23 0Z"/>
  <g id="g846" transform="translate(12.4596, 1.68112)" style="fill:none">
   <path id="path829" transform="translate(4.84647, 13.557)" style="fill:#bdc3c7" d="M6.4286 16.5442C7.61211 16.5442 8.57152 17.4699 8.57152 18.6122C8.57152 19.7546 7.61211 20.6803 6.4286 20.6803C5.24514 20.6803 4.28574 19.7546 4.28574 18.6122C4.28574 17.4699 5.24514 16.5442 6.4286 16.5442ZM6.85718 0C10.6443 0 13.7143 2.36396 13.7143 5.79048C13.7143 7.03129 12.8572 9.09932 11.143 9.92653C9.42856 10.7537 8.57152 11.8646 8.57152 13.2354L8.57152 14.8898L4.28574 14.8898L4.28574 13.649C4.28574 10.8357 6.85718 9.09932 7.71431 8.27211C9.42856 6.61769 9.42856 6.38814 9.42856 5.79048C9.42856 4.41972 8.2773 3.30884 6.85718 3.30884C5.43699 3.30884 4.28574 4.41972 4.28574 5.79048L4.28574 7.03129L0 7.03129L0 6.20408C7.14288e-07 2.77757 3.07008 0 6.85718 0Z"/>
  </g>
  <path id="path4151" transform="matrix(3.54331 0 0 3.54331 29.9999 3.99986)" style="fill:#ffffff" fill-opacity="0.75294117647" d="M0 0L0 3.10449L3.10446 3.10449Z"/>
  <path id="path4252" transform="matrix(3.54331 0 0 3.54331 29.9999 15)" style="fill:#000000" fill-opacity="0.11764705882" d="M3.10446 3.10449L3.10446 0L0 0Z"/>
 </g>
</svg>
