<?xml version="1.0" standalone="no"?>
<!DOCTYPE svg PUBLIC "-//W3C//DTD SVG 20010904//EN" "http://www.w3.org/TR/2001/REC-SVG-20010904/DTD/svg10.dtd">
<!-- Created using Karbon, part of Calligra: http://www.calligra.org/karbon -->
<svg xmlns="http://www.w3.org/2000/svg" xmlns:xlink="http://www.w3.org/1999/xlink" width="38.4pt" height="38.4pt">
<defs/>
<g id="layer0">
  <path id="rect4090" transform="translate(7.01576, 4.00394)" fill="#ecf0f1" d="M0 1.77636e-15L0 40.004L34.0158 40.004L34.0158 11.0011L23.0107 0Z"/>
  <path id="filmgain" transform="translate(7.03125, 4)" fill="#34495e" fill-rule="evenodd" d="M0 0L0 40L34 40L33.9756 11.0068L22.9688 0L33.9688 11L33.9688 11L26.7187 11L26.7187 18.6875L7.28125 18.6875L7.28125 2.65625L22.9688 2.65625L22.9688 0ZM2.40625 2.65625L4.84375 2.65625L4.84375 5.34375L2.40625 5.34375ZM2.40625 8L4.84375 8L4.84375 10.6562L2.40625 10.6562ZM2.40625 13.3438L4.84375 13.3438L4.84375 16L2.40625 16ZM29.1562 13.3438L31.5625 13.3438L31.5625 16L29.1562 16ZM2.40625 18.6875L4.84375 18.6875L4.84375 21.3438L2.40625 21.3438ZM29.1562 18.6875L31.5625 18.6875L31.5625 21.3438L29.1562 21.3438ZM7.28125 21.3438L26.7187 21.3438L26.7187 37.3438L7.28125 37.3438ZM2.40625 24L4.84375 24L4.84375 26.6875L2.40625 26.6875ZM29.1562 24L31.5625 24L31.5625 26.6875L29.1562 26.6875ZM2.40625 29.3438L4.84375 29.3438L4.84375 32L2.40625 32ZM29.1562 29.3438L31.5625 29.3438L31.5625 32L29.1562 32ZM2.40625 34.6875L4.84375 34.6875L4.84375 37.3438L2.40625 37.3438ZM29.1562 34.6875L31.5625 34.6875L31.5625 37.3438L29.1562 37.3438Z"/>
  <path id="path4252" transform="translate(29.9999, 15)" fill="#000000" fill-opacity="0.11764705882" d="M11.0001 11.0002L11.0001 0L0 0Z"/>
  <path id="shape0" transform="translate(29.9198, 3.96365)" fill="#c0392b" fill-rule="evenodd" stroke="#003bc3" stroke-width="0.00000000000" stroke-linecap="square" stroke-linejoin="bevel" d="M0.057723 0L0 11.0443L11.1021 11.0636Z"/>
 </g>
</svg>
