<?xml version="1.0" standalone="no"?>
<!DOCTYPE svg PUBLIC "-//W3C//DTD SVG 20010904//EN" "http://www.w3.org/TR/2001/REC-SVG-20010904/DTD/svg10.dtd">
<!-- Created using Karbon, part of Calligra: http://www.calligra.org/karbon -->
<svg xmlns="http://www.w3.org/2000/svg" xmlns:xlink="http://www.w3.org/1999/xlink" width="38.4pt" height="38.4pt">
<defs/>
<g id="layer1">
  <path id="filmgain" transform="translate(4.00394, 4.00394)" fill="#2c3e50" fill-rule="evenodd" d="M0 0L40.004 0L40.004 40.004L0 40.004ZM8.57229 2.66693L8.57229 18.6685L31.4317 18.6685L31.4317 2.66693ZM8.57229 21.3355L8.57229 37.3371L31.4317 37.3371L31.4317 21.3355ZM2.85743 2.66693L2.85743 5.33387L5.71486 5.33387L5.71486 2.66693ZM2.85743 8.0008L2.85743 10.6677L5.71486 10.6677L5.71486 8.0008ZM2.85743 13.3347L2.85743 16.0016L5.71486 16.0016L5.71486 13.3347ZM2.85743 18.6685L2.85743 21.3355L5.71486 21.3355L5.71486 18.6685ZM2.85743 24.0024L2.85743 26.6693L5.71486 26.6693L5.71486 24.0024ZM2.85743 29.3363L2.85743 32.0032L5.71486 32.0032L5.71486 29.3363ZM2.85743 34.6701L2.85743 37.3371L5.71486 37.3371L5.71486 34.6701ZM34.2891 2.66693L34.2891 5.33387L37.1466 5.33387L37.1466 2.66693ZM34.2891 8.0008L34.2891 10.6677L37.1466 10.6677L37.1466 8.0008ZM34.2891 13.3347L34.2891 16.0016L37.1466 16.0016L37.1466 13.3347ZM34.2891 18.6685L34.2891 21.3355L37.1466 21.3355L37.1466 18.6685ZM34.2891 24.0024L34.2891 26.6693L37.1466 26.6693L37.1466 24.0024ZM34.2891 29.3363L34.2891 32.0032L37.1466 32.0032L37.1466 29.3363ZM34.2891 34.6701L34.2891 37.3371L37.1466 37.3371L37.1466 34.6701ZM34.2891 34.6701"/>
  <rect id="shape0" transform="translate(12.5165, 6.68354)" fill="#c0392b" fill-rule="evenodd" stroke="#003bc3" stroke-width="0.00000000000" stroke-linecap="square" stroke-linejoin="miter" stroke-miterlimit="2.01260191180" width="18.34271244049pt" height="12.80092583533pt"/>
  <rect id="shape1" transform="translate(12.5739, 25.3498)" fill="#c0392b" fill-rule="evenodd" stroke="#003bc3" stroke-width="0.00000000000" stroke-linecap="square" stroke-linejoin="miter" stroke-miterlimit="2.00000000000" width="18.34271244049pt" height="12.80092583533pt"/>
 </g>
</svg>
