<?xml version="1.0" standalone="no"?>
<!DOCTYPE svg PUBLIC "-//W3C//DTD SVG 20010904//EN" "http://www.w3.org/TR/2001/REC-SVG-20010904/DTD/svg10.dtd">
<!-- Created using Karbon, part of Calligra: http://www.calligra.org/karbon -->
<svg xmlns="http://www.w3.org/2000/svg" xmlns:xlink="http://www.w3.org/1999/xlink" width="38.4pt" height="38.4pt">
<defs/>
<g id="layer1">
  <path id="rect4090" transform="translate(7, 4)" style="fill:#ecf0f1" d="M0 0L0 40L34 40L34 11L23 0Z"/>
  <path id="path4151" transform="matrix(3.54331 0 0 3.54331 29.9999 3.99986)" style="fill:#ffffff" fill-opacity="0.75294117647" d="M0 0L0 3.10449L3.10446 3.10449Z"/>
  <path id="path4252" transform="matrix(3.54331 0 0 3.54331 29.9999 15)" style="fill:#000000" fill-opacity="0.11764705882" d="M3.10446 3.10449L3.10446 0L0 0Z"/>
  <path id="shape0" transform="translate(14.1492, 15.599)" style="fill:#4c4c4c" fill-rule="evenodd" stroke="#003bc3" stroke-width="0.00000000000" stroke-linecap="square" stroke-linejoin="bevel" d="M0 0.0302284L10.4588 0C10.9819 1.02864 10.9644 2.51156 10.7132 4.29043C14.6534 1.56157 14.4587 8.79658 10.4234 6.01439C9.88401 8.88184 9.04252 12.2859 8.88044 15.7202C13.5754 12.4585 12.0998 20.2785 8.85292 16.8373C8.85151 18.3059 8.99373 19.77 9.35632 21.1901L20.5898 21.039C20.5833 19.5535 20.5617 11.6158 20.5601 11.1543C19.4952 10.6879 18.062 10.4867 16.3899 10.4004C20.2048 7.0275 12.1045 7.31401 14.3029 10.3426C11.5854 10.3146 8.4585 10.4073 5.33789 10.1371C8.12999 14.016 1.39754 13.5543 3.92794 9.98855C2.64689 9.82761 1.37755 9.5926 0.148986 9.24988C0.0460867 8.9232 0.144261 3.83273 0 0.0302284Z"/>
 </g>
</svg>
