<?xml version="1.0" standalone="no"?>
<!DOCTYPE svg PUBLIC "-//W3C//DTD SVG 20010904//EN" "http://www.w3.org/TR/2001/REC-SVG-20010904/DTD/svg10.dtd">
<!-- Created using Karbon, part of Calligra: http://www.calligra.org/karbon -->
<svg xmlns="http://www.w3.org/2000/svg" xmlns:xlink="http://www.w3.org/1999/xlink" width="38.4pt" height="38.4pt">
<defs/>
<g id="layer1">
  <path id="rect4090" transform="translate(7, 4)" style="fill:#ecf0f1" d="M0 0L0 40L34 40L34 11L23 0Z"/>
  <path id="path4151" transform="matrix(3.54331 0 0 3.54331 29.9999 3.99986)" style="fill:#ffffff" fill-opacity="0.75294117647" d="M0 0L0 3.10449L3.10446 3.10449Z"/>
  <path id="path4252" transform="matrix(3.54331 0 0 3.54331 29.9999 15)" style="fill:#000000" fill-opacity="0.11764705882" d="M3.10446 3.10449L3.10446 0L0 0Z"/>
  <g id="Icon" transform="translate(32.3053, 15.5492)" style="fill:none">
   <path id="Podcast" transform="translate(-6.20449, 4.82705)" style="fill:#7f8c8d" fill-rule="evenodd" d="M4.57427 5.30864C6.21862 5.30864 7.55175 4.12033 7.55175 2.65432C7.55175 1.18842 6.21873 0 4.57427 0C2.93001 0 1.5971 1.18842 1.5971 2.65432C1.5971 4.12033 2.9301 5.30864 4.57427 5.30864ZM4.57427 6.63582C-2.06837 6.63582 0.480582 12.9924 0.480582 15.008L8.66817 15.008C8.66817 12.9924 11.2171 6.63582 4.57427 6.63582ZM4.57427 6.63582"/>
  </g>
  <path id="path3286" transform="translate(12.5496, 16.8551)" style="fill:#34495e" fill-rule="evenodd" d="M8.34614 7.4707e-09C6.01471 0.000153553 3.89589 2.35486 3.89589 4.94258C3.89589 6.08786 4.31155 7.18694 4.97639 8.05704L4.97639 8.71465C4.03686 9.1751 3.1686 9.81588 2.44255 10.6225C0.898134 12.3381 0 14.7499 0 17.1759L0 18.5347L0.103268 18.5347L1.59902 18.5347L2.35449 18.5347L5.56554 18.5347L6.67867 18.5347L10.018 18.5347L11.1311 18.5347L14.3422 18.5347L15.0976 18.5347L16.5934 18.5347L16.6967 18.5347L16.6967 17.1759C16.6967 14.7498 15.7961 12.3381 14.2497 10.6225C13.5242 9.81744 12.6574 9.1773 11.7192 8.71709L11.7192 8.05582C12.3844 7.18597 12.8007 6.08741 12.8007 4.94258C12.8007 2.35457 10.6777 -0.000153148 8.34614 7.4707e-09Z"/>
 </g>
</svg>
