<?xml version="1.0" standalone="no"?>
<!DOCTYPE svg PUBLIC "-//W3C//DTD SVG 20010904//EN" "http://www.w3.org/TR/2001/REC-SVG-20010904/DTD/svg10.dtd">
<!-- Created using Karbon, part of Calligra: http://www.calligra.org/karbon -->
<svg xmlns="http://www.w3.org/2000/svg" xmlns:xlink="http://www.w3.org/1999/xlink" width="38.4pt" height="38.4pt">
<defs/>
<g id="layer1">
  <path id="rect4090" transform="translate(7, 4)" fill="#ecf0f1" d="M0 0L0 40L34 40L34 11L23 0Z"/>
  <g id="Icon" transform="translate(34.8253, 0.652061)" fill="none">
   <path id="Podcast" transform="translate(-20.6757, 14.4772)" fill="#8e44ad" fill-rule="evenodd" d="M10.34 12.1486C11.7696 12.1486 12.9286 11.0597 12.9286 9.71633C12.9286 8.37306 11.7697 7.28406 10.34 7.28406C8.91048 7.28406 7.75164 8.37306 7.75164 9.71633C7.75164 11.0597 8.91055 12.1486 10.34 12.1486ZM10.34 3.63871C6.76804 3.63871 3.87237 6.35974 3.87237 9.71626C3.87237 11.3486 4.5574 12.8305 5.67177 13.9223C5.99063 13.4401 6.43093 12.9807 7.03803 12.6284C6.27718 11.867 5.81031 10.8431 5.81031 9.71626C5.81031 7.36545 7.83835 5.45977 10.34 5.45977C12.8419 5.45977 14.8698 7.36545 14.8698 9.71626C14.8698 10.8456 14.4009 11.8714 13.6371 12.6333C14.2432 12.9868 14.6823 13.4473 15.0002 13.9304C16.1195 12.8376 16.8078 11.3527 16.8078 9.71626C16.8078 6.35981 13.9122 3.63871 10.34 3.63871ZM10.34 0C4.62937 0 0 4.35018 0 9.71633C0 13.2183 1.97193 16.2871 4.92903 17.9971C4.87016 17.576 4.83245 17.1242 4.83245 16.6562C4.83245 16.6562 4.82962 16.2943 4.93316 15.7718C3.09585 14.3218 1.92767 12.1474 1.92767 9.71633C1.92767 5.35053 5.694 1.81142 10.3401 1.81142C14.9862 1.81142 18.7526 5.35053 18.7526 9.71633C18.7526 12.1525 17.5795 14.331 15.7354 15.7811C15.837 16.2986 15.8343 16.6561 15.8343 16.6561C15.8343 17.1273 15.7961 17.5822 15.7366 18.0055C18.7019 16.2973 20.6803 13.2241 20.6803 9.71633C20.6802 4.35012 16.0508 0 10.34 0ZM10.34 13.3647C4.56488 13.3647 6.78094 21.8265 6.78094 23.6735L13.8992 23.6735C13.8992 21.8265 16.1152 13.3647 10.34 13.3647ZM10.34 13.3647"/>
  </g>
  <path id="path4151" transform="matrix(3.54331 0 0 3.54331 29.9999 3.99986)" fill="#ffffff" opacity="0.50000000000" d="M0 0L0 3.10449L3.10446 3.10449Z"/>
  <path id="path4252" transform="matrix(3.54331 0 0 3.54331 29.9999 15)" fill="#000000" fill-opacity="0.11764705882" d="M3.10446 3.10449L3.10446 0L0 0Z"/>
 </g>
</svg>
