<?xml version="1.0" standalone="no"?>
<!DOCTYPE svg PUBLIC "-//W3C//DTD SVG 20010904//EN" "http://www.w3.org/TR/2001/REC-SVG-20010904/DTD/svg10.dtd">
<!-- Created using Karbon, part of Calligra: http://www.calligra.org/karbon -->
<svg xmlns="http://www.w3.org/2000/svg" xmlns:xlink="http://www.w3.org/1999/xlink" width="38.4pt" height="38.4pt">
<defs/>
<g id="layer1">
  <path id="rect4090" transform="translate(7.09621, 4.01924)" style="fill:#2980b9" d="M0 0L0 40L34 40L34 11L23 0Z"/>
  <path id="path4151" transform="matrix(3.54331 0 0 3.54331 29.9999 3.99986)" style="fill:#3498db" d="M0 0L0 3.10449L3.10446 3.10449Z"/>
  <path id="path4252" transform="matrix(3.54331 0 0 3.54331 29.9999 15)" style="fill:#000000" fill-opacity="0.11764705882" d="M3.10446 3.10449L3.10446 0L0 0Z"/>
  <path id="path3286" transform="translate(15.8851, 15.4558)" style="fill:#ecf0f1" fill-rule="evenodd" d="M8.60246 8.16002e-09C6.19942 0.000167721 4.01554 2.57215 4.01554 5.39864C4.01554 6.64959 4.44396 7.85009 5.12923 8.80047L5.12923 9.51876C4.16084 10.0217 3.26591 10.7216 2.51756 11.6026C0.925716 13.4765 0 16.1109 0 18.7608L0 20.2449L0.106439 20.2449L1.64812 20.2449L2.4268 20.2449L5.73646 20.2449L6.88378 20.2449L10.3257 20.2449L11.473 20.2449L14.7826 20.2449L15.5613 20.2449L17.103 20.2449L17.2095 20.2449L17.2095 18.7608C17.2095 16.1107 16.2813 13.4765 14.6874 11.6026C13.9395 10.7233 13.0461 10.0241 12.0791 9.52143L12.0791 8.79914C12.7647 7.84903 13.1939 6.6491 13.1939 5.39864C13.1939 2.57183 11.0056 -0.000167279 8.60246 8.16002e-09Z"/>
 </g>
</svg>
