<?xml version="1.0" encoding="UTF-8" standalone="no"?>
<!-- Created with Inkscape (http://www.inkscape.org/) -->

<svg
   xmlns:dc="http://purl.org/dc/elements/1.1/"
   xmlns:cc="http://creativecommons.org/ns#"
   xmlns:rdf="http://www.w3.org/1999/02/22-rdf-syntax-ns#"
   xmlns:svg="http://www.w3.org/2000/svg"
   xmlns="http://www.w3.org/2000/svg"
   xmlns:sodipodi="http://sodipodi.sourceforge.net/DTD/sodipodi-0.dtd"
   xmlns:inkscape="http://www.inkscape.org/namespaces/inkscape"
   width="22"
   height="22"
   id="svg4359"
   version="1.1"
   inkscape:version="0.92.2 (5c3e80d, 2017-08-06)"
   sodipodi:docname="dialog-information.svg"
   viewBox="0 0 22 22">
<defs
    id="defs3051">
<style
    type="text/css"
    id="current-color-scheme">
    .ColorScheme-Text {
    color:#4d4d4d;
    }
    </style>
</defs>
  <sodipodi:namedview
     id="base"
     pagecolor="#ffffff"
     bordercolor="#666666"
     borderopacity="1.0"
     inkscape:pageopacity="0.0"
     inkscape:pageshadow="2"
     inkscape:zoom="32"
     inkscape:cx="22.957222"
     inkscape:cy="9.8447736"
     inkscape:current-layer="layer1"
     showgrid="true"
     inkscape:grid-bbox="true"
     inkscape:document-units="px"
     inkscape:window-width="2560"
     inkscape:window-height="1373"
     inkscape:window-x="0"
     inkscape:window-y="30"
     inkscape:window-maximized="1"
     inkscape:showpageshadow="false"
     borderlayer="true"
     showguides="true"
     inkscape:guide-bbox="true">
    <inkscape:grid
       type="xygrid"
       id="grid4105" />
    <sodipodi:guide
       position="0,10"
       orientation="1,0"
       id="guide869"
       inkscape:locked="false" />
    <sodipodi:guide
       position="22,10"
       orientation="1,0"
       id="guide871"
       inkscape:locked="false" />
    <sodipodi:guide
       position="11,22"
       orientation="0,1"
       id="guide873"
       inkscape:locked="false" />
    <sodipodi:guide
       position="11,20"
       orientation="0,1"
       id="guide875"
       inkscape:locked="false" />
    <sodipodi:guide
       position="9,0"
       orientation="0,1"
       id="guide877"
       inkscape:locked="false" />
    <sodipodi:guide
       position="9,2"
       orientation="0,1"
       id="guide879"
       inkscape:locked="false" />
    <sodipodi:guide
       position="2,7"
       orientation="1,0"
       id="guide881"
       inkscape:locked="false" />
    <sodipodi:guide
       position="20,8"
       orientation="1,0"
       id="guide883"
       inkscape:locked="false" />
  </sodipodi:namedview>
  <metadata
     id="metadata4364">
    <rdf:RDF>
      <cc:Work
         rdf:about="">
        <dc:format>image/svg+xml</dc:format>
        <dc:type
           rdf:resource="http://purl.org/dc/dcmitype/StillImage" />
        <dc:title />
      </cc:Work>
    </rdf:RDF>
  </metadata>
  <g
     id="layer1"
     inkscape:label="Layer 1"
     inkscape:groupmode="layer"
     transform="translate(0,-26)">
    <path
       style="fill:currentColor;fill-opacity:1;stroke:none" class="ColorScheme-Text"
       d="M 11 2 A 9 9 0 0 0 2 11 A 9 9 0 0 0 11 20 A 9 9 0 0 0 20 11 A 9 9 0 0 0 11 2 z M 11 4 A 7 7 0 0 1 18 11 A 7 7 0 0 1 11 18 A 7 7 0 0 1 4 11 A 7 7 0 0 1 11 4 z M 11 6 A 1 1 0 0 0 10 7 A 1 1 0 0 0 11 8 A 1 1 0 0 0 12 7 A 1 1 0 0 0 11 6 z M 9 9 C 8.446 9 8 9.446 8 10 C 8 10.554 8.446 11 9 11 L 10 11 L 10 14.988281 C 9.980875 16.336823 12.019125 16.336823 12 14.988281 L 12 10.011719 C 12.000029 10.009587 11.998031 10.007988 11.998047 10.005859 C 11.99806 10.003732 12 10.002131 12 10 C 12 9.8989216 11.971 9.8066789 11.943359 9.7148438 C 11.933709 9.68278 11.93651 9.6458336 11.923828 9.6152344 C 11.923828 9.6152344 11.921875 9.6132812 11.921875 9.6132812 C 11.891416 9.5402596 11.839021 9.4828722 11.792969 9.4199219 C 11.762646 9.3784722 11.743258 9.3291951 11.707031 9.2929688 C 11.672674 9.2586215 11.626934 9.2400249 11.587891 9.2109375 C 11.521949 9.1618102 11.459982 9.1079849 11.382812 9.0761719 C 11.369074 9.0704946 11.351929 9.0734345 11.337891 9.0683594 C 11.231568 9.0300314 11.119856 9 11 9 L 10.984375 9 L 9 9 z "
       transform="translate(0,26)"
       id="path4151" />
  </g>
</svg>
