<?xml version="1.0" encoding="UTF-8" standalone="no"?>
<!-- Created with Inkscape (http://www.inkscape.org/) -->

<svg
   xmlns:dc="http://purl.org/dc/elements/1.1/"
   xmlns:cc="http://creativecommons.org/ns#"
   xmlns:rdf="http://www.w3.org/1999/02/22-rdf-syntax-ns#"
   xmlns:svg="http://www.w3.org/2000/svg"
   xmlns="http://www.w3.org/2000/svg"
   xmlns:sodipodi="http://sodipodi.sourceforge.net/DTD/sodipodi-0.dtd"
   xmlns:inkscape="http://www.inkscape.org/namespaces/inkscape"
   width="22"
   height="22"
   viewBox="0 0 22 22"
   id="svg2"
   version="1.1"
   inkscape:version="0.92.3 (2405546, 2018-03-11)"
   sodipodi:docname="media-playback-paused.svg">
  <defs
     id="defs3051">
    <style
       type="text/css"
       id="current-color-scheme">
    .ColorScheme-Text {
    color:#4d4d4d;
    }
    </style>
  </defs>
  <sodipodi:namedview
     id="base"
     pagecolor="#ffffff"
     bordercolor="#666666"
     borderopacity="1.0"
     inkscape:pageopacity="0.0"
     inkscape:pageshadow="2"
     inkscape:zoom="16"
     inkscape:cx="-0.006268"
     inkscape:cy="8.0654896"
     inkscape:document-units="px"
     inkscape:current-layer="layer1"
     showgrid="true"
     units="px"
     inkscape:showpageshadow="false"
     borderlayer="true"
     showguides="true"
     inkscape:guide-bbox="true"
     inkscape:window-width="1366"
     inkscape:window-height="705"
     inkscape:window-x="0"
     inkscape:window-y="30"
     inkscape:window-maximized="1">
    <inkscape:grid
       type="xygrid"
       id="grid4136"
       empspacing="2" />
    <sodipodi:guide
       position="0,20"
       orientation="0,1"
       id="guide4140"
       inkscape:label="Icon Max Height"
       inkscape:color="rgb(233,30,99)"
       inkscape:locked="false" />
    <sodipodi:guide
       position="0,2"
       orientation="0,1"
       id="guide4142"
       inkscape:label="Icon Baseline"
       inkscape:color="rgb(233,30,99)"
       inkscape:locked="false" />
    <sodipodi:guide
       position="11,0"
       orientation="1,0"
       id="guide4144"
       inkscape:label="Center Vertical"
       inkscape:color="rgb(221,44,0)"
       inkscape:locked="false" />
    <sodipodi:guide
       position="15,11"
       orientation="0,1"
       id="guide4146"
       inkscape:label="Center Horizontal"
       inkscape:color="rgb(221,44,0)"
       inkscape:locked="false" />
  </sodipodi:namedview>
  <metadata
     id="metadata7">
    <rdf:RDF>
      <cc:Work
         rdf:about="">
        <dc:format>image/svg+xml</dc:format>
        <dc:type
           rdf:resource="http://purl.org/dc/dcmitype/StillImage" />
        <dc:title />
      </cc:Work>
    </rdf:RDF>
  </metadata>
  <g
     inkscape:label="Capa 1"
     inkscape:groupmode="layer"
     id="layer1"
     transform="translate(0,-1030.3622)">
    <path
       style="fill:currentColor;fill-opacity:1;stroke:none" class="ColorScheme-Text"
       d="M 11 2 C 6.0412821 2 2 6.0413 2 11 C 2 15.9587 6.0412821 20 11 20 C 15.958718 20 20 15.9587 20 11 C 20 6.0413 15.958718 2 11 2 z M 11 4 C 14.877838 4 18 7.1222 18 11 C 18 14.8779 14.877838 18 11 18 C 7.1221624 18 4 14.8779 4 11 C 4 7.1222 7.1221624 4 11 4 z M 8.9570312 7.0136719 L 8.9570312 7.015625 C 8.8905302 7.018155 8.8244473 7.0273137 8.7597656 7.0429688 C 8.7273956 7.0511288 8.6954545 7.0609086 8.6640625 7.0722656 C 8.5375237 7.1169976 8.4212831 7.1867424 8.3222656 7.2773438 C 8.2731656 7.3222797 8.2286746 7.3720058 8.1894531 7.4257812 C 8.1704971 7.4528862 8.1528968 7.4809166 8.1367188 7.5097656 C 8.068905 7.6255035 8.025067 7.7536943 8.0078125 7.8867188 C 8.0030651 7.9243008 8.0004567 7.9621221 8 8 L 8 14.121094 C 8.0002945 14.154374 8.0022494 14.187613 8.0058594 14.220703 C 8.0136194 14.287083 8.0280151 14.352511 8.0488281 14.416016 C 8.0694311 14.479066 8.0962562 14.539915 8.1289062 14.597656 C 8.1945013 14.714285 8.2828335 14.816565 8.3886719 14.898438 C 8.4150569 14.918667 8.4424351 14.937568 8.4707031 14.955078 C 8.5845061 15.025828 8.7113665 15.072985 8.84375 15.09375 C 8.9096 15.10429 8.9763379 15.108209 9.0429688 15.105469 C 9.0763138 15.103869 9.1095591 15.100703 9.1425781 15.095703 C 9.1754341 15.090803 9.2080274 15.084302 9.2402344 15.076172 C 9.3054534 15.060452 9.3689236 15.038206 9.4296875 15.009766 C 9.4896285 14.980996 9.5465505 14.946316 9.5996094 14.90625 C 9.6527974 14.86631 9.7018686 14.82117 9.7460938 14.771484 C 9.7688838 14.746544 9.7903959 14.720479 9.8105469 14.693359 C 9.8295029 14.666259 9.8471032 14.638225 9.8632812 14.609375 C 9.8972782 14.551785 9.9254146 14.490937 9.9472656 14.427734 C 9.9579626 14.396304 9.9670884 14.364361 9.9746094 14.332031 C 9.9905392 14.262853 9.9990502 14.192108 10 14.121094 L 10 8 C 9.9985912 7.8998016 9.9821313 7.800384 9.9511719 7.7050781 C 9.9410258 7.6732607 9.9292923 7.6419715 9.9160156 7.6113281 C 9.8887145 7.5501974 9.8553441 7.4919625 9.8164062 7.4375 C 9.797524 7.4104763 9.777317 7.3844028 9.7558594 7.359375 C 9.6238626 7.2069978 9.4488964 7.0980693 9.2539062 7.046875 C 9.2217328 7.0380897 9.1891399 7.0309193 9.15625 7.0253906 C 9.0904005 7.0148521 9.0236621 7.0109263 8.9570312 7.0136719 z M 12.957031 7.0136719 L 12.957031 7.015625 C 12.890531 7.018155 12.824447 7.0273137 12.759766 7.0429688 C 12.727396 7.0511288 12.695453 7.0609086 12.664062 7.0722656 C 12.537524 7.1169986 12.421283 7.1867425 12.322266 7.2773438 C 12.273166 7.3222797 12.228676 7.3720058 12.189453 7.4257812 C 12.170493 7.4528862 12.152889 7.4809166 12.136719 7.5097656 C 12.068909 7.6255003 12.025067 7.7536943 12.007812 7.8867188 C 12.003113 7.9236537 12.0005 7.9608208 12 7.9980469 L 12 14.119141 C 12.000229 14.153071 12.002159 14.186971 12.005859 14.220703 C 12.013659 14.287083 12.028018 14.352511 12.048828 14.416016 C 12.069428 14.479066 12.096256 14.539915 12.128906 14.597656 C 12.194506 14.714285 12.282833 14.816565 12.388672 14.898438 C 12.415052 14.918667 12.442433 14.937568 12.470703 14.955078 C 12.584506 15.025828 12.711366 15.072985 12.84375 15.09375 C 12.9096 15.10429 12.976338 15.108209 13.042969 15.105469 C 13.076319 15.103869 13.109558 15.100703 13.142578 15.095703 C 13.175438 15.090803 13.208024 15.084302 13.240234 15.076172 C 13.305454 15.060452 13.368923 15.038206 13.429688 15.009766 C 13.489627 14.980996 13.54655 14.946316 13.599609 14.90625 C 13.652799 14.86631 13.701869 14.82117 13.746094 14.771484 C 13.768884 14.746544 13.790397 14.720479 13.810547 14.693359 C 13.829507 14.666259 13.847111 14.638225 13.863281 14.609375 C 13.897281 14.551785 13.925406 14.490937 13.947266 14.427734 C 13.957966 14.396304 13.967089 14.364361 13.974609 14.332031 C 13.990475 14.262857 13.99905 14.192108 14 14.121094 L 14 8 C 13.9986 7.8998016 13.982132 7.800384 13.951172 7.7050781 C 13.940962 7.6739211 13.929236 7.6432852 13.916016 7.6132812 C 13.888716 7.5521503 13.855346 7.4939156 13.816406 7.4394531 C 13.797576 7.4117631 13.777369 7.385037 13.755859 7.359375 C 13.623862 7.2069978 13.448896 7.0980694 13.253906 7.046875 C 13.221736 7.038085 13.18914 7.0309186 13.15625 7.0253906 C 13.0904 7.0148516 13.023662 7.0109269 12.957031 7.0136719 z "
       transform="translate(0,1030.3622)"
       id="path4162" />
  </g>
</svg>
