<?xml version="1.0" encoding="UTF-8" standalone="no"?>
<svg
   xmlns:dc="http://purl.org/dc/elements/1.1/"
   xmlns:cc="http://creativecommons.org/ns#"
   xmlns:rdf="http://www.w3.org/1999/02/22-rdf-syntax-ns#"
   xmlns:svg="http://www.w3.org/2000/svg"
   xmlns="http://www.w3.org/2000/svg"
   xmlns:sodipodi="http://sodipodi.sourceforge.net/DTD/sodipodi-0.dtd"
   xmlns:inkscape="http://www.inkscape.org/namespaces/inkscape"
   width="22"
   height="22"
   viewBox="0 0 22 22"
   id="svg2"
   version="1.1"
   inkscape:version="1.0.1 (3bc2e81, 2020-09-07)"
   sodipodi:docname="redshift-status-on.svg">
  <defs
     id="defs3051">
    <style
       type="text/css"
       id="current-color-scheme">
    .ColorScheme-Text {
    color:#4d4d4d;
    }
    </style>
  </defs>
  <sodipodi:namedview
     id="base"
     pagecolor="#ffffff"
     bordercolor="#666666"
     borderopacity="1.0"
     inkscape:pageopacity="0.0"
     inkscape:pageshadow="2"
     inkscape:zoom="45.254834"
     inkscape:cx="12.107752"
     inkscape:cy="14.676914"
     inkscape:document-units="px"
     inkscape:current-layer="layer1"
     showgrid="true"
     units="px"
     inkscape:showpageshadow="false"
     borderlayer="true"
     showguides="true"
     inkscape:guide-bbox="true"
     inkscape:window-width="1407"
     inkscape:window-height="1412"
     inkscape:window-x="0"
     inkscape:window-y="0"
     inkscape:window-maximized="1"
     inkscape:document-rotation="0">
    <inkscape:grid
       type="xygrid"
       id="grid4136"
       empspacing="2" />
    <sodipodi:guide
       position="0,20"
       orientation="0,1"
       id="guide4140"
       inkscape:label="Icon Max Height"
       inkscape:color="rgb(233,30,99)"
       inkscape:locked="false" />
    <sodipodi:guide
       position="0,2"
       orientation="0,1"
       id="guide4142"
       inkscape:label="Icon Baseline"
       inkscape:color="rgb(233,30,99)"
       inkscape:locked="false" />
    <sodipodi:guide
       position="11,0"
       orientation="1,0"
       id="guide4144"
       inkscape:label="Center Vertical"
       inkscape:color="rgb(221,44,0)"
       inkscape:locked="false" />
    <sodipodi:guide
       position="15,11"
       orientation="0,1"
       id="guide4146"
       inkscape:label="Center Horizontal"
       inkscape:color="rgb(221,44,0)"
       inkscape:locked="false" />
  </sodipodi:namedview>
  <metadata
     id="metadata7">
    <rdf:RDF>
      <cc:Work
         rdf:about="">
        <dc:format>image/svg+xml</dc:format>
        <dc:type
           rdf:resource="http://purl.org/dc/dcmitype/StillImage" />
        <dc:title />
      </cc:Work>
    </rdf:RDF>
  </metadata>
  <g
     inkscape:label="Capa 1"
     inkscape:groupmode="layer"
     id="layer1"
     transform="translate(0,-1030.3622)">
    <path
       id="path943"
       style="fill:currentColor;fill-opacity:1;stroke:none" class="ColorScheme-Text"
       d="M 11 3 A 8 8 0 0 0 10.658203 3.0078125 A 6 6 0 0 1 11 5 A 6 6 0 0 1 5 11 A 6 6 0 0 1 3.0078125 10.660156 A 8 8 0 0 0 3 11 A 8 8 0 0 0 3.2050781 12.794922 A 8 8 0 0 0 11 19 A 8 8 0 0 0 19 11 A 8 8 0 0 0 12.794922 3.2050781 A 8 8 0 0 0 11 3 z M 12.828125 3.3535156 A 8 8 0 0 1 12.859375 3.5136719 A 8 8 0 0 0 12.828125 3.3535156 z M 12.992188 5.3398438 A 6 6 0 0 1 17 11 A 6 6 0 0 1 11 17 A 6 6 0 0 1 5.3417969 12.992188 A 8 8 0 0 0 12.992188 5.3398438 z M 3.5136719 12.859375 A 8 8 0 0 0 3.6289062 12.880859 A 8 8 0 0 1 3.5136719 12.859375 z M 3.953125 12.929688 A 8 8 0 0 0 4.1152344 12.949219 A 8 8 0 0 1 3.953125 12.929688 z M 4.3964844 12.976562 A 8 8 0 0 0 4.6132812 12.990234 A 8 8 0 0 1 4.3964844 12.976562 z M 4.6308594 12.990234 A 8 8 0 0 0 4.8261719 12.998047 A 8 8 0 0 1 4.6308594 12.990234 z M 5.2070312 12.996094 A 8 8 0 0 1 5 13 A 8 8 0 0 0 5.2070312 12.996094 z "
       transform="translate(0,1030.3622)" />
  </g>
</svg>
