<?xml version="1.0" encoding="UTF-8" standalone="no"?>
<svg
   xmlns:dc="http://purl.org/dc/elements/1.1/"
   xmlns:cc="http://creativecommons.org/ns#"
   xmlns:rdf="http://www.w3.org/1999/02/22-rdf-syntax-ns#"
   xmlns:svg="http://www.w3.org/2000/svg"
   xmlns="http://www.w3.org/2000/svg"
   xmlns:sodipodi="http://sodipodi.sourceforge.net/DTD/sodipodi-0.dtd"
   xmlns:inkscape="http://www.inkscape.org/namespaces/inkscape"
   width="22"
   height="22"
   viewBox="0 0 22 22"
   id="svg2"
   version="1.1"
   inkscape:version="1.0.1 (3bc2e81, 2020-09-07)"
   sodipodi:docname="redshift-status-off.svg">
  <defs
     id="defs3051">
    <style
       type="text/css"
       id="current-color-scheme">
    .ColorScheme-Text {
    color:#4d4d4d;
    }
    </style>
  </defs>
  <sodipodi:namedview
     id="base"
     pagecolor="#ffffff"
     bordercolor="#666666"
     borderopacity="1.0"
     inkscape:pageopacity="0.0"
     inkscape:pageshadow="2"
     inkscape:zoom="32"
     inkscape:cx="8.5912199"
     inkscape:cy="11.337939"
     inkscape:document-units="px"
     inkscape:current-layer="layer1"
     showgrid="true"
     units="px"
     inkscape:showpageshadow="false"
     borderlayer="true"
     showguides="true"
     inkscape:guide-bbox="true"
     inkscape:window-width="1407"
     inkscape:window-height="1412"
     inkscape:window-x="0"
     inkscape:window-y="0"
     inkscape:window-maximized="1"
     inkscape:document-rotation="0">
    <inkscape:grid
       type="xygrid"
       id="grid4136"
       empspacing="2" />
    <sodipodi:guide
       position="0,20"
       orientation="0,1"
       id="guide4140"
       inkscape:label="Icon Max Height"
       inkscape:color="rgb(233,30,99)"
       inkscape:locked="false" />
    <sodipodi:guide
       position="0,2"
       orientation="0,1"
       id="guide4142"
       inkscape:label="Icon Baseline"
       inkscape:color="rgb(233,30,99)"
       inkscape:locked="false" />
    <sodipodi:guide
       position="11,0"
       orientation="1,0"
       id="guide4144"
       inkscape:label="Center Vertical"
       inkscape:color="rgb(221,44,0)"
       inkscape:locked="false" />
    <sodipodi:guide
       position="15,11"
       orientation="0,1"
       id="guide4146"
       inkscape:label="Center Horizontal"
       inkscape:color="rgb(221,44,0)"
       inkscape:locked="false" />
  </sodipodi:namedview>
  <metadata
     id="metadata7">
    <rdf:RDF>
      <cc:Work
         rdf:about="">
        <dc:format>image/svg+xml</dc:format>
        <dc:type
           rdf:resource="http://purl.org/dc/dcmitype/StillImage" />
        <dc:title></dc:title>
      </cc:Work>
    </rdf:RDF>
  </metadata>
  <g
     inkscape:label="Capa 1"
     inkscape:groupmode="layer"
     id="layer1"
     transform="translate(0,-1030.3622)">
    <path
       id="path943"
       style="fill:currentColor;fill-opacity:1;stroke:none" class="ColorScheme-Text"
       d="M 2.3671875 3 L 1 4.4550781 L 1.7265625 5.1386719 L 7.4257812 10.486328 A 6 6 0 0 1 5 11 A 6 6 0 0 1 3.0078125 10.660156 A 8 8 0 0 0 3 11 A 8 8 0 0 0 3.2050781 12.794922 A 8 8 0 0 0 11 19 A 8 8 0 0 0 15.21875 17.796875 L 17.90625 20.318359 L 18.632812 21 L 20 19.544922 L 19.273438 18.861328 L 3.09375 3.6816406 L 2.3671875 3 z M 11 3 A 8 8 0 0 0 10.658203 3.0078125 A 6 6 0 0 1 11 5 A 6 6 0 0 1 10.335938 7.7402344 L 11.837891 9.1484375 A 8 8 0 0 0 12.992188 5.3398438 A 6 6 0 0 1 17 11 A 6 6 0 0 1 16.460938 13.484375 L 17.980469 14.910156 A 8 8 0 0 0 19 11 A 8 8 0 0 0 12.794922 3.2050781 A 8 8 0 0 0 11 3 z M 8.9765625 11.939453 L 13.689453 16.361328 A 6 6 0 0 1 11 17 A 6 6 0 0 1 5.3417969 12.992188 A 8 8 0 0 0 8.9765625 11.939453 z "
       transform="translate(0,1030.3622)" />
  </g>
</svg>
