<?xml version="1.0" encoding="UTF-8" standalone="no"?>
<!-- Created with Inkscape (http://www.inkscape.org/) -->

<svg
   xmlns:dc="http://purl.org/dc/elements/1.1/"
   xmlns:cc="http://creativecommons.org/ns#"
   xmlns:rdf="http://www.w3.org/1999/02/22-rdf-syntax-ns#"
   xmlns:svg="http://www.w3.org/2000/svg"
   xmlns="http://www.w3.org/2000/svg"
   xmlns:sodipodi="http://sodipodi.sourceforge.net/DTD/sodipodi-0.dtd"
   xmlns:inkscape="http://www.inkscape.org/namespaces/inkscape"
   width="64"
   height="64"
   viewBox="0 0 64 64.000003"
   id="svg2"
   version="1.1"
   inkscape:version="0.91+devel r"
   sodipodi:docname="ksnapshot.svg">
  <defs
     id="defs4" />
  <sodipodi:namedview
     id="base"
     pagecolor="#ffffff"
     bordercolor="#666666"
     borderopacity="1.0"
     inkscape:pageopacity="0.0"
     inkscape:pageshadow="2"
     inkscape:zoom="7.90625"
     inkscape:cx="29.192593"
     inkscape:cy="39.842231"
     inkscape:document-units="px"
     inkscape:current-layer="layer1"
     showgrid="true"
     units="px"
     inkscape:showpageshadow="false"
     borderlayer="true"
     inkscape:window-width="1366"
     inkscape:window-height="670"
     inkscape:window-x="-4"
     inkscape:window-y="29"
     inkscape:window-maximized="1">
    <inkscape:grid
       type="xygrid"
       id="grid4136" />
    <sodipodi:guide
       position="5,59.000069"
       orientation="54,0"
       id="guide4142" />
    <sodipodi:guide
       position="5,5.0000688"
       orientation="0,54"
       id="guide4144" />
    <sodipodi:guide
       position="59,5.0000688"
       orientation="-54,0"
       id="guide4146" />
    <sodipodi:guide
       position="59,59.000069"
       orientation="0,-54"
       id="guide4148" />
    <sodipodi:guide
       position="0,64.000069"
       orientation="64,0"
       id="guide4150" />
    <sodipodi:guide
       position="0,6.875e-05"
       orientation="0,64"
       id="guide4152" />
    <sodipodi:guide
       position="64,64.000069"
       orientation="0,-64"
       id="guide4156" />
    <sodipodi:guide
       position="13,50.999947"
       orientation="38,0"
       id="guide4155" />
    <sodipodi:guide
       position="13,12.999947"
       orientation="0,38"
       id="guide4157" />
    <sodipodi:guide
       position="51,12.999947"
       orientation="-38,0"
       id="guide4159" />
    <sodipodi:guide
       position="51,50.999947"
       orientation="0,-38"
       id="guide4161" />
  </sodipodi:namedview>
  <metadata
     id="metadata7">
    <rdf:RDF>
      <cc:Work
         rdf:about="">
        <dc:format>image/svg+xml</dc:format>
        <dc:type
           rdf:resource="http://purl.org/dc/dcmitype/StillImage" />
        <dc:title />
      </cc:Work>
    </rdf:RDF>
  </metadata>
  <g
     inkscape:label="Capa 1"
     inkscape:groupmode="layer"
     id="layer1"
     transform="translate(0,-1058.5196)">
    <path
       style="opacity:1;fill:#1a1a1a;fill-opacity:1;stroke:none;stroke-opacity:1"
       d="M 6 5 L 6 41 L 26.755859 41 C 26.492773 43.082002 26.003523 45.116568 25.216797 47.029297 C 24.540329 47.188897 22 49.465325 22 50 C 22 50.554 22.446 51 23 51 L 25 51 L 41 51 C 41.554 51 42 50.554 42 50 C 42 49.465325 39.459671 47.188897 38.783203 47.029297 C 37.996477 45.116568 37.507227 43.082002 37.244141 41 L 58 41 L 58 5 L 6 5 z "
       transform="translate(0,1058.5196)"
       id="rect4214" />
    <rect
       style="opacity:1;fill:#3ecdf6;fill-opacity:1;stroke:none;stroke-opacity:1"
       id="rect4228"
       width="50"
       height="32.999947"
       x="7"
       y="1064.5197"
       ry="0" />
    <path
       style="fill:#172f55;fill-opacity:1;fill-rule:evenodd;stroke:none;stroke-width:1px;stroke-linecap:butt;stroke-linejoin:miter;stroke-opacity:1"
       d="M 51 10 L 22 39 L 57 39 L 57 16 L 51 10 z "
       transform="translate(0,1058.5196)"
       id="path4202-5" />
    <path
       inkscape:connector-curvature="0"
       style="fill:#f1f2f4;fill-opacity:1;fill-rule:evenodd;stroke:none;stroke-width:1px;stroke-linecap:butt;stroke-linejoin:miter;stroke-opacity:1"
       d="m 51,1068.5196 -7.599609,7.5996 3.599609,-1.5996 4,3 1,-2 5,5 -2,-5 2,0 0,-1 -6,-6 z"
       id="path4236-1" />
    <rect
       style="opacity:1;fill:#c5eff7;fill-opacity:1;stroke:none;stroke-opacity:1"
       id="rect4230"
       width="50"
       height="2.999999"
       x="7"
       y="1094.5199" />
    <circle
       style="opacity:1;fill:#2c3e50;fill-opacity:1;stroke:none;stroke-opacity:1"
       id="path4323"
       cx="55.5"
       cy="1096.0197"
       r="0.5" />
    <circle
       style="opacity:1;fill:#2c3e50;fill-opacity:1;stroke:none;stroke-opacity:1"
       id="path4323-6"
       cx="52.5"
       cy="1096.0197"
       r="0.5" />
    <circle
       style="opacity:1;fill:#2c3e50;fill-opacity:1;stroke:none;stroke-opacity:1"
       id="path4323-8"
       cx="49.5"
       cy="1096.0197"
       r="0.5" />
    <path
       style="opacity:1;fill:#baebfc;fill-opacity:1;stroke:none;stroke-opacity:1"
       d="m 15,1065.5196 c -0.860926,0 -1.679702,0.3729 -2.248047,1.0195 -0.628246,0.078 -1.182434,0.449 -1.494141,1 -0.08543,-0.012 -0.171543,-0.019 -0.257812,-0.019 -1.104569,0 -2,0.8954 -2,2 8.58e-4,0.087 0.0074,0.1737 0.01953,0.2598 -0.628865,0.3537 -1.018466,1.0187 -1.01953,1.7402 0,1.1046 0.895431,2 2,2 l 9,0 c 1.656854,0 3,-1.3431 3,-3 0,-1.6569 -1.343146,-3 -3,-3 -0.0874,7e-4 -0.17472,0.01 -0.261719,0.014 -0.312215,-0.549 -0.865414,-0.9183 -1.492187,-0.9961 -0.568252,-0.6455 -1.386157,-1.016 -2.246094,-1.0176 z"
       id="rect4249"
       inkscape:connector-curvature="0"
       sodipodi:nodetypes="cccccccssscccc" />
    <rect
       style="opacity:1;fill:#eff4f4;fill-opacity:1;stroke:none;stroke-opacity:1"
       id="rect4161"
       width="22"
       height="16"
       x="21"
       y="1073.5197"
       ry="0.99994665" />
    <circle
       style="opacity:1;fill:#31435c;fill-opacity:1;stroke:none;stroke-opacity:1"
       id="path4163"
       cx="32"
       cy="1081.5197"
       r="6" />
    <circle
       r="4"
       cy="1081.5197"
       cx="32"
       id="circle4165"
       style="opacity:1;fill:#41566f;fill-opacity:1;stroke:none;stroke-opacity:1" />
    <circle
       style="opacity:1;fill:#222d3b;fill-opacity:1;stroke:none;stroke-opacity:1"
       id="circle4167"
       cx="32"
       cy="1081.5197"
       r="2" />
    <circle
       style="opacity:1;fill:#607a8f;fill-opacity:1;stroke:none;stroke-opacity:1"
       id="path4169"
       cx="31.5"
       cy="1081.0197"
       r="0.5" />
    <circle
       style="opacity:1;fill:#607a8f;fill-opacity:1;stroke:none;stroke-opacity:1"
       id="path4169-8"
       cx="32.5"
       cy="1082.0197"
       r="0.5" />
    <rect
       style="opacity:1;fill:#ff5555;fill-opacity:1;stroke:none;stroke-opacity:1"
       id="rect4186"
       width="3"
       height="0.99994665"
       x="24"
       y="1072.5197"
       ry="0" />
  </g>
</svg>
