<?xml version="1.0" encoding="UTF-8" standalone="no"?>
<!-- Created with Inkscape (http://www.inkscape.org/) -->

<svg
   xmlns:dc="http://purl.org/dc/elements/1.1/"
   xmlns:cc="http://creativecommons.org/ns#"
   xmlns:rdf="http://www.w3.org/1999/02/22-rdf-syntax-ns#"
   xmlns:svg="http://www.w3.org/2000/svg"
   xmlns="http://www.w3.org/2000/svg"
   xmlns:sodipodi="http://sodipodi.sourceforge.net/DTD/sodipodi-0.dtd"
   xmlns:inkscape="http://www.inkscape.org/namespaces/inkscape"
   width="64"
   height="64"
   viewBox="0 0 64 64.000003"
   id="svg2"
   version="1.1"
   inkscape:version="0.91+devel r"
   sodipodi:docname="usb-creator-kde.svg">
  <defs
     id="defs4" />
  <sodipodi:namedview
     id="base"
     pagecolor="#ffffff"
     bordercolor="#666666"
     borderopacity="1.0"
     inkscape:pageopacity="0.0"
     inkscape:pageshadow="2"
     inkscape:zoom="7.9999996"
     inkscape:cx="42.402648"
     inkscape:cy="33.030083"
     inkscape:document-units="px"
     inkscape:current-layer="layer1"
     showgrid="true"
     units="px"
     inkscape:showpageshadow="false"
     borderlayer="true"
     inkscape:window-width="1366"
     inkscape:window-height="670"
     inkscape:window-x="-4"
     inkscape:window-y="29"
     inkscape:window-maximized="1">
    <inkscape:grid
       type="xygrid"
       id="grid4136" />
    <sodipodi:guide
       position="5,59.000069"
       orientation="54,0"
       id="guide4142" />
    <sodipodi:guide
       position="5,5.0000688"
       orientation="0,54"
       id="guide4144" />
    <sodipodi:guide
       position="59,5.0000688"
       orientation="-54,0"
       id="guide4146" />
    <sodipodi:guide
       position="59,59.000069"
       orientation="0,-54"
       id="guide4148" />
    <sodipodi:guide
       position="0,64.000069"
       orientation="64,0"
       id="guide4150" />
    <sodipodi:guide
       position="0,6.875e-05"
       orientation="0,64"
       id="guide4152" />
    <sodipodi:guide
       position="64,6.875e-05"
       orientation="-64,0"
       id="guide4154" />
    <sodipodi:guide
       position="64,64.000069"
       orientation="0,-64"
       id="guide4156" />
    <sodipodi:guide
       position="14,50"
       orientation="38,0"
       id="guide4155" />
    <sodipodi:guide
       position="13,12.999947"
       orientation="0,38"
       id="guide4157" />
    <sodipodi:guide
       position="50,49"
       orientation="-38,0"
       id="guide4159" />
    <sodipodi:guide
       position="51,50.999947"
       orientation="0,-38"
       id="guide4161" />
  </sodipodi:namedview>
  <metadata
     id="metadata7">
    <rdf:RDF>
      <cc:Work
         rdf:about="">
        <dc:format>image/svg+xml</dc:format>
        <dc:type
           rdf:resource="http://purl.org/dc/dcmitype/StillImage" />
        <dc:title />
      </cc:Work>
    </rdf:RDF>
  </metadata>
  <g
     inkscape:label="Capa 1"
     inkscape:groupmode="layer"
     id="layer1"
     transform="translate(0,-1058.5196)">
    <rect
       y="1092.5197"
       x="15"
       height="25.000053"
       width="26"
       id="rect4163"
       style="fill:#c4cbcf;fill-opacity:1;stroke:none" />
    <rect
       style="fill:#52b3d9;fill-opacity:1;stroke:none"
       id="rect4148-5"
       width="36"
       height="37.999825"
       x="10"
       y="1063.5198" />
    <rect
       style="fill:#4c545a;fill-opacity:1;stroke:none;stroke-opacity:1"
       id="rect4154-8"
       width="8"
       height="8"
       x="18"
       y="1106.5197" />
    <rect
       y="1106.5197"
       x="30"
       height="8"
       width="8"
       id="rect4156-9"
       style="fill:#4c545a;fill-opacity:1;stroke:none;stroke-opacity:1" />
    <rect
       y="1106.5197"
       x="20"
       height="8.0001068"
       width="4"
       id="rect4158-1"
       style="fill:#f39c12;fill-opacity:1;stroke:none;stroke-opacity:1" />
    <rect
       y="1106.5197"
       x="32"
       height="8.0001068"
       width="4"
       id="rect4158-0-4"
       style="fill:#f39c12;fill-opacity:1;stroke:none;stroke-opacity:1" />
    <rect
       style="fill:#f1c40f;fill-opacity:1;stroke:none;stroke-opacity:1"
       id="rect4175-8"
       width="4"
       height="2"
       x="20"
       y="1112.5197" />
    <rect
       style="fill:#f1c40f;fill-opacity:1;stroke:none;stroke-opacity:1"
       id="rect4175-3-2"
       width="4"
       height="2"
       x="32"
       y="1112.5197" />
    <path
       style="fill:#ecf0f1;fill-opacity:1;stroke:none;stroke-opacity:1"
       d="m 28,1065.5196 -2,4 1,0 0,20.8086 c -0.895426,-0.8385 -2.101536,-1.7924 -3,-2.6094 -0.593936,-0.6564 -1,-1.25 -1,-2 l 0,-3.1992 0,-3.2715 a 2,2 0 0 0 1,-1.7285 2,2 0 0 0 -2,-2 2,2 0 0 0 -2,2 2,2 0 0 0 1,1.7305 l 0,3.2695 0,4 c 0,0.75 0.406064,1.3436 1,2 2.13887,1.945 5.021632,3.9339 5,6 l 0,1.2715 a 2,2 0 0 0 -1,1.7285 2,2 0 0 0 2,2 2,2 0 0 0 2,-2 2,2 0 0 0 -1,-1.7305 l 0,-5.2695 c -0.02163,-2.0661 2.86113,-4.055 5,-6 0.593936,-0.6564 1,-1.25 1,-2 l 0,-4 0,-3 1,0 0,-4 -4,0 0,4 1,0 0,3 0,3.1992 c 0,0.75 -0.406064,1.3436 -1,2 -0.898464,0.817 -2.104574,1.7709 -3,2.6094 l 0,-16.8086 1,0 -2,-4 z"
       id="path4192-0"
       inkscape:connector-curvature="0" />
    <circle
       style="fill:#87d37c;fill-opacity:1;stroke:none;stroke-opacity:1"
       id="path4231"
       cx="45.999962"
       cy="1093.5195"
       r="8" />
    <path
       style="fill:#ecf0f1;fill-opacity:1;stroke:none;stroke-opacity:1"
       d="m 45,1088.5196 0,4 -4,0 0,2 4,0 0,4 2,0 0,-4 4,0 0,-2 -4,0 0,-4 z"
       id="rect4233"
       inkscape:connector-curvature="0"
       sodipodi:nodetypes="ccccccccccccc" />
  </g>
</svg>
