<?xml version="1.0" encoding="UTF-8" standalone="no"?>
<!-- Created with Inkscape (http://www.inkscape.org/) -->

<svg
   xmlns:dc="http://purl.org/dc/elements/1.1/"
   xmlns:cc="http://creativecommons.org/ns#"
   xmlns:rdf="http://www.w3.org/1999/02/22-rdf-syntax-ns#"
   xmlns:svg="http://www.w3.org/2000/svg"
   xmlns="http://www.w3.org/2000/svg"
   xmlns:xlink="http://www.w3.org/1999/xlink"
   xmlns:sodipodi="http://sodipodi.sourceforge.net/DTD/sodipodi-0.dtd"
   xmlns:inkscape="http://www.inkscape.org/namespaces/inkscape"
   width="48"
   height="48"
   id="svg5453"
   version="1.1"
   inkscape:version="0.91 r13725"
   sodipodi:docname="folder-dropbox.svg"
   viewBox="0 0 48 48">
  <defs
     id="defs5455">
    <linearGradient
       inkscape:collect="always"
       id="Shadow">
      <stop
         style="stop-color:#000000;stop-opacity:1;"
         offset="0"
         id="stop4186" />
      <stop
         style="stop-color:#000000;stop-opacity:0;"
         offset="1"
         id="stop4188" />
    </linearGradient>
    <linearGradient
       gradientTransform="translate(392.57146,490.698)"
       inkscape:collect="always"
       xlink:href="#Shadow"
       id="linearGradient4190"
       x1="24"
       y1="42"
       x2="24"
       y2="46"
       gradientUnits="userSpaceOnUse" />
    <radialGradient
       inkscape:collect="always"
       xlink:href="#Shadow"
       id="radialGradient4200"
       cx="44"
       cy="42.500004"
       fx="44"
       fy="42.500004"
       r="1.5"
       gradientTransform="matrix(-5.6193702e-6,2.666668,-2.0000002,-4.214526e-6,521.57173,415.36478)"
       gradientUnits="userSpaceOnUse" />
    <radialGradient
       inkscape:collect="always"
       xlink:href="#Shadow"
       id="radialGradient4208"
       cx="4"
       cy="42.5"
       fx="4"
       fy="42.5"
       r="1.5"
       gradientTransform="matrix(-2.0000003,-2.935184e-6,3.9135795e-6,-2.6666677,404.5713,646.03139)"
       gradientUnits="userSpaceOnUse" />
    <linearGradient
       inkscape:collect="always"
       xlink:href="#Shadow"
       id="linearGradient4259"
       x1="416.57144"
       y1="514.79797"
       x2="416.57144"
       y2="529.79797"
       gradientUnits="userSpaceOnUse" />
    <linearGradient
       inkscape:collect="always"
       xlink:href="#Shadow"
       id="linearGradient4271"
       gradientUnits="userSpaceOnUse"
       x1="416.57144"
       y1="513.79797"
       x2="416.57144"
       y2="518.79797" />
    <linearGradient
       inkscape:collect="always"
       xlink:href="#Shadow"
       id="linearGradient4273"
       gradientUnits="userSpaceOnUse"
       x1="416.57144"
       y1="513.79797"
       x2="416.57144"
       y2="518.79797" />
    <linearGradient
       inkscape:collect="always"
       xlink:href="#Shadow"
       id="linearGradient4275"
       gradientUnits="userSpaceOnUse"
       x1="416.57144"
       y1="513.79797"
       x2="416.57144"
       y2="523.79797" />
    <linearGradient
       inkscape:collect="always"
       xlink:href="#Shadow"
       id="linearGradient4277"
       gradientUnits="userSpaceOnUse"
       x1="416.57144"
       y1="513.79797"
       x2="416.57144"
       y2="524.79797" />
  </defs>
  <sodipodi:namedview
     id="base"
     pagecolor="#ffffff"
     bordercolor="#666666"
     borderopacity="1.0"
     inkscape:pageopacity="0"
     inkscape:pageshadow="2"
     inkscape:zoom="22.627417"
     inkscape:cx="30.436793"
     inkscape:cy="24.769093"
     inkscape:document-units="px"
     inkscape:current-layer="layer1"
     showgrid="true"
     fit-margin-top="0"
     fit-margin-left="0"
     fit-margin-right="0"
     fit-margin-bottom="0"
     inkscape:window-width="2560"
     inkscape:window-height="1017"
     inkscape:window-x="0"
     inkscape:window-y="0"
     inkscape:window-maximized="1"
     inkscape:showpageshadow="false"
     borderlayer="true"
     showguides="true">
    <inkscape:grid
       type="xygrid"
       id="grid4115"
       originx="-8.0000133"
       originy="-7.9999916" />
    <sodipodi:guide
       position="5,43"
       orientation="37.999969,0"
       id="guide4157" />
    <sodipodi:guide
       position="5,5.0000305"
       orientation="0,38"
       id="guide4159" />
    <sodipodi:guide
       position="43,5.0000305"
       orientation="-37.999969,0"
       id="guide4161" />
    <sodipodi:guide
       position="43,43"
       orientation="0,-38"
       id="guide4163" />
    <sodipodi:guide
       position="0,48"
       orientation="47.999969,0"
       id="guide4165" />
    <sodipodi:guide
       position="0,3.0517578e-05"
       orientation="0,48"
       id="guide4167" />
    <sodipodi:guide
       position="48,3.0517578e-05"
       orientation="-47.999969,0"
       id="guide4169" />
    <sodipodi:guide
       position="48,48"
       orientation="0,-48"
       id="guide4171" />
    <sodipodi:guide
       position="16.000002,27.000026"
       orientation="16,0"
       id="guide4241" />
    <sodipodi:guide
       position="16.000002,11.000026"
       orientation="0,16"
       id="guide4243" />
    <sodipodi:guide
       position="32.000002,11.000026"
       orientation="-16,0"
       id="guide4245" />
    <sodipodi:guide
       position="32.000002,27.000026"
       orientation="0,-16"
       id="guide4247" />
    <sodipodi:guide
       position="14.000002,28.999996"
       orientation="19.999969,0"
       id="guide4249" />
    <sodipodi:guide
       position="14.000002,9.0000264"
       orientation="0,20"
       id="guide4251" />
    <sodipodi:guide
       position="34.000002,9.0000264"
       orientation="-19.999969,0"
       id="guide4253" />
    <sodipodi:guide
       position="34.000002,28.999996"
       orientation="0,-20"
       id="guide4255" />
  </sodipodi:namedview>
  <metadata
     id="metadata5458">
    <rdf:RDF>
      <cc:Work
         rdf:about="">
        <dc:format>image/svg+xml</dc:format>
        <dc:type
           rdf:resource="http://purl.org/dc/dcmitype/StillImage" />
        <dc:title />
      </cc:Work>
    </rdf:RDF>
  </metadata>
  <g
     inkscape:label="Capa 1"
     inkscape:groupmode="layer"
     id="layer1"
     transform="translate(-392.57144,-491.798)">
    <path
       style="opacity:1;fill:#0288d1;fill-opacity:1;stroke:none;stroke-width:2;stroke-linecap:round;stroke-linejoin:round;stroke-miterlimit:4;stroke-dasharray:none;stroke-opacity:0.52777782"
       d="m 407.57146,499.69797 0,3 0,10 0,4.00003 32,0 0,-5.00003 0,-9 c 0,-1.66199 -1.33803,-3.00755 -3,-3 l -22,0 -4,0 z"
       id="rect4161"
       inkscape:connector-curvature="0"
       sodipodi:nodetypes="ccccccssccc" />
    <rect
       style="color:#000000;clip-rule:nonzero;display:inline;overflow:visible;visibility:visible;opacity:1;isolation:auto;mix-blend-mode:normal;color-interpolation:sRGB;color-interpolation-filters:linearRGB;solid-color:#000000;solid-opacity:1;fill:#039be5;fill-opacity:1;fill-rule:nonzero;stroke:none;stroke-width:1;stroke-linecap:butt;stroke-linejoin:miter;stroke-miterlimit:4;stroke-dasharray:none;stroke-dashoffset:0;stroke-opacity:1;color-rendering:auto;image-rendering:auto;shape-rendering:auto;text-rendering:auto;enable-background:accumulate"
       id="rect4157-54"
       width="5"
       height="5"
       x="385.57144"
       y="-514.698"
       transform="scale(1,-1)" />
    <rect
       style="color:#000000;clip-rule:nonzero;display:inline;overflow:visible;visibility:visible;opacity:1;isolation:auto;mix-blend-mode:normal;color-interpolation:sRGB;color-interpolation-filters:linearRGB;solid-color:#000000;solid-opacity:1;fill:#03a9f4;fill-opacity:1;fill-rule:nonzero;stroke:none;stroke-width:1;stroke-linecap:butt;stroke-linejoin:miter;stroke-miterlimit:4;stroke-dasharray:none;stroke-dashoffset:0;stroke-opacity:1;color-rendering:auto;image-rendering:auto;shape-rendering:auto;text-rendering:auto;enable-background:accumulate"
       id="rect4157-5"
       width="5"
       height="5"
       x="385.57144"
       y="-506.698"
       transform="scale(1,-1)" />
    <rect
       style="color:#000000;clip-rule:nonzero;display:inline;overflow:visible;visibility:visible;opacity:1;isolation:auto;mix-blend-mode:normal;color-interpolation:sRGB;color-interpolation-filters:linearRGB;solid-color:#000000;solid-opacity:1;fill:#0288d1;fill-opacity:1;fill-rule:nonzero;stroke:none;stroke-width:1;stroke-linecap:butt;stroke-linejoin:miter;stroke-miterlimit:4;stroke-dasharray:none;stroke-dashoffset:0;stroke-opacity:1;color-rendering:auto;image-rendering:auto;shape-rendering:auto;text-rendering:auto;enable-background:accumulate"
       id="rect4157-8"
       width="5"
       height="5"
       x="385.57144"
       y="517.698" />
    <path
       inkscape:connector-curvature="0"
       style="opacity:0.7;fill:url(#radialGradient4200);fill-opacity:1;stroke:none;stroke-width:2;stroke-linecap:butt;stroke-linejoin:round;stroke-miterlimit:4;stroke-dasharray:none;stroke-opacity:1"
       d="m 436.57146,532.698 0,4 1,0 c 1.108,0 2,-0.892 2,-2 l 0,-2 -3,0 z"
       id="path4174" />
    <path
       inkscape:connector-curvature="0"
       style="opacity:0.7;fill:url(#linearGradient4190);fill-opacity:1;stroke:none;stroke-width:2;stroke-linecap:butt;stroke-linejoin:round;stroke-miterlimit:4;stroke-dasharray:none;stroke-opacity:1"
       d="m 396.57146,532.698 0,4 40,0 0,-4 -40,0 z"
       id="path4169" />
    <path
       inkscape:connector-curvature="0"
       style="opacity:0.7;fill:url(#radialGradient4208);fill-opacity:1;stroke:none;stroke-width:2;stroke-linecap:butt;stroke-linejoin:round;stroke-miterlimit:4;stroke-dasharray:none;stroke-opacity:1"
       d="m 393.57146,532.698 0,2 c 0,1.108 0.892,2 2,2 l 1,0 0,-4 -3,0 z"
       id="rect4157" />
    <path
       inkscape:connector-curvature="0"
       style="opacity:1;fill:#e8e5dc;fill-opacity:1;stroke:none;stroke-width:2;stroke-linecap:butt;stroke-linejoin:round;stroke-miterlimit:4;stroke-dasharray:none;stroke-opacity:1"
       d="m 413.57146,501.698 22,0 c 1.108,0 2,0.892 2,2 l 0,3 c 0,1.108 -0.892,2 -2,2 l -22,0 c -1.108,0 -2,-0.892 -2,-2 l 0,-3 c 0,-1.108 0.892,-2 2,-2 z"
       id="rect4188" />
    <path
       inkscape:connector-curvature="0"
       style="opacity:1;fill:#fffbec;fill-opacity:1;stroke:none;stroke-width:2;stroke-linecap:butt;stroke-linejoin:round;stroke-miterlimit:4;stroke-dasharray:none;stroke-opacity:1"
       d="m 413.57146,502.698 22,0 c 0.554,0 1,0.446 1,1 l 0,4 c 0,0.554 -0.446,1 -1,1 l -22,0 c -0.554,0 -1,-0.446 -1,-1 l 0,-4 c 0,-0.554 0.446,-1 1,-1 z"
       id="rect4190"
       sodipodi:nodetypes="sssssssss" />
    <rect
       y="493.69794"
       x="377.57141"
       height="5"
       width="5"
       id="rect4200"
       style="color:#000000;clip-rule:nonzero;display:inline;overflow:visible;visibility:visible;opacity:1;isolation:auto;mix-blend-mode:normal;color-interpolation:sRGB;color-interpolation-filters:linearRGB;solid-color:#000000;solid-opacity:1;fill:#fffbec;fill-opacity:1;fill-rule:nonzero;stroke:none;stroke-width:1;stroke-linecap:butt;stroke-linejoin:miter;stroke-miterlimit:4;stroke-dasharray:none;stroke-dashoffset:0;stroke-opacity:1;color-rendering:auto;image-rendering:auto;shape-rendering:auto;text-rendering:auto;enable-background:accumulate" />
    <rect
       y="501.69794"
       x="377.57141"
       height="5"
       width="5"
       id="rect4202"
       style="color:#000000;clip-rule:nonzero;display:inline;overflow:visible;visibility:visible;opacity:1;isolation:auto;mix-blend-mode:normal;color-interpolation:sRGB;color-interpolation-filters:linearRGB;solid-color:#000000;solid-opacity:1;fill:#e8e5dc;fill-opacity:1;fill-rule:nonzero;stroke:none;stroke-width:1;stroke-linecap:butt;stroke-linejoin:miter;stroke-miterlimit:4;stroke-dasharray:none;stroke-dashoffset:0;stroke-opacity:1;color-rendering:auto;image-rendering:auto;shape-rendering:auto;text-rendering:auto;enable-background:accumulate" />
    <path
       inkscape:connector-curvature="0"
       style="opacity:1;fill:#039be5;fill-opacity:1;stroke:none;stroke-width:2;stroke-linecap:round;stroke-linejoin:round;stroke-miterlimit:4;stroke-dasharray:none;stroke-opacity:0.52777782"
       d="m 396.57146,496.69801 c -1.66199,10e-6 -3,1.33797 -3,2.99991 l 0,32.00017 c 0,1.66194 1.33801,2.99991 3,2.99991 l 15,0 6,0 19,0 c 1.66199,0 3,-1.33797 3,-2.99991 l 0,-24.00017 c 0,-1.66194 -1.33801,-2.99998 -3,-2.99991 l -19,0 -2,-7.00005 c -0.15219,-0.53267 -0.446,-1.00029 -1,-0.99998 l -2,0 -1,0 z"
       id="path4221"
       sodipodi:nodetypes="ssssccsssscssccs" />
    <path
       inkscape:connector-curvature="0"
       style="opacity:1;fill:#03a9f4;fill-opacity:1;stroke:none;stroke-width:2;stroke-linecap:round;stroke-linejoin:round;stroke-miterlimit:4;stroke-dasharray:none;stroke-opacity:0.52777782"
       d="m 396.57146,497.69911 c -1.10799,0 -2,0.89198 -2,1.99993 l 0,31.99902 c 0,1.10796 0.89201,1.99994 2,1.99994 l 15,0 5,0 20,0 c 1.108,0 2,-0.89198 2,-1.99994 l 0,-23.99927 c 0,-1.10795 -0.89201,-2.00547 -2,-1.99994 l -20,0 -2,-6.99977 c -0.15219,-0.53267 -0.44669,-1.02764 -1,-0.99997 l -2,0 z"
       id="path4183"
       sodipodi:nodetypes="ssssccsssscsscs" />
    <rect
       y="493.69791"
       x="385.57144"
       height="5"
       width="5"
       id="rect4250"
       style="color:#000000;clip-rule:nonzero;display:inline;overflow:visible;visibility:visible;opacity:1;isolation:auto;mix-blend-mode:normal;color-interpolation:sRGB;color-interpolation-filters:linearRGB;solid-color:#000000;solid-opacity:1;fill:#b3e5fc;fill-opacity:1;fill-rule:nonzero;stroke:none;stroke-width:1;stroke-linecap:butt;stroke-linejoin:miter;stroke-miterlimit:4;stroke-dasharray:none;stroke-dashoffset:0;stroke-opacity:1;color-rendering:auto;image-rendering:auto;shape-rendering:auto;text-rendering:auto;enable-background:accumulate" />
    <path
       style="fill:url(#linearGradient4271);fill-opacity:1;fill-rule:evenodd;stroke:none;stroke-width:1px;stroke-linecap:butt;stroke-linejoin:miter;stroke-opacity:1;opacity:0.5"
       d="m 412.57144,513.798 -4,3 4,2 4,-3 -4,-2 z"
       id="path4269" />
    <path
       style="fill:url(#linearGradient4273);fill-opacity:1;fill-rule:evenodd;stroke:none;stroke-width:1px;stroke-linecap:butt;stroke-linejoin:miter;stroke-opacity:1;opacity:0.5"
       d="m 416.57144,515.798 4,3 4,-2 -4,-3 -4,2 z"
       id="path4267" />
    <path
       style="fill:url(#linearGradient4275);fill-opacity:1;fill-rule:evenodd;stroke:none;stroke-width:1px;stroke-linecap:butt;stroke-linejoin:miter;stroke-opacity:1"
       d="m 412.57144,519.798 -4,2 4,3 4,-2 -4,-3 z"
       id="path4265" />
    <path
       style="fill:url(#linearGradient4277);fill-opacity:1;fill-rule:evenodd;stroke:none;stroke-width:1px;stroke-linecap:butt;stroke-linejoin:miter;stroke-opacity:1"
       d="m 416.57144,522.798 4,2 4,-3 -4,-2 -4,3 z"
       id="path4263" />
    <path
       style="fill:url(#linearGradient4259);fill-opacity:1;fill-rule:evenodd;stroke:none;stroke-width:1px;stroke-linecap:butt;stroke-linejoin:miter;stroke-opacity:1"
       d="m 416.57144,523.798 -3.48828,2.90625 -1.51172,-0.90625 0,1 0.81445,0.48828 4.18555,2.51172 4.18555,-2.51172 0.81445,-0.48828 0,-1 -1.51172,0.90625 -3.48828,-2.90625 z"
       id="path4257" />
    <path
       style="fill:#b3e5fc;fill-rule:evenodd;stroke:none;stroke-width:1px;stroke-linecap:butt;stroke-linejoin:miter;stroke-opacity:1;fill-opacity:1"
       d="M 20 21 L 16 24 L 20 26 L 24 23 L 20 21 z M 24 23 L 28 26 L 32 24 L 28 21 L 24 23 z M 20 27 L 16 29 L 20 32 L 24 30 L 20 27 z M 24 30 L 28 32 L 32 29 L 28 27 L 24 30 z M 24 31 L 20.511719 33.90625 L 19 33 L 19 34 L 19.814453 34.488281 L 24 37 L 28.185547 34.488281 L 29 34 L 29 33 L 27.488281 33.90625 L 24 31 z "
       transform="translate(392.57144,491.798)"
       id="path4278" />
  </g>
</svg>
