<?xml version="1.0" encoding="UTF-8" standalone="no"?>
<!-- Created with Inkscape (http://www.inkscape.org/) -->
<svg id="svg3252" xmlns:rdf="http://www.w3.org/1999/02/22-rdf-syntax-ns#" xmlns="http://www.w3.org/2000/svg" height="22" width="20" version="1.0" xmlns:cc="http://creativecommons.org/ns#" xmlns:dc="http://purl.org/dc/elements/1.1/">
 <metadata id="metadata11">
  <rdf:RDF>
   <cc:Work rdf:about="">
    <dc:format>image/svg+xml</dc:format>
    <dc:type rdf:resource="http://purl.org/dc/dcmitype/StillImage"/>
    <dc:title/>
   </cc:Work>
  </rdf:RDF>
 </metadata>
 <path id="path3170-4" style="opacity:.3;fill-rule:evenodd" d="m10 4c-4.416 0-8 3.584-8 8s3.584 8 8 8 8-3.584 8-8-3.584-8-8-8zm0 5c1.656 0 3 1.344 3 3s-1.344 3-3 3-3-1.344-3-3c1e-7 -1.656 1.344-3 3-3z"/>
 <path id="path3170" style="opacity:.4;fill-rule:evenodd;fill:#dfdbd2" d="m10 3c-4.416 0-8 3.584-8 8s3.584 8 8 8 8-3.584 8-8-3.584-8-8-8zm0 5c1.656 1e-7 3 1.344 3 3s-1.344 3-3 3-3-1.344-3-3c1e-7 -1.656 1.344-3 3-3z"/>
 <path id="path3288" style="fill:#dfdbd2" d="m10 3v5c1.656 1e-7 3 1.344 3 3s-1.344 3-3 3-3-1.344-3-3h-5c0 4.416 3.584 8 8 8s8-3.584 8-8-3.584-8-8-8z"/>
</svg>
