<?xml version="1.0" encoding="UTF-8" standalone="no"?>
<!-- Created with Inkscape (http://www.inkscape.org/) -->
<svg id="svg3208" xmlns:rdf="http://www.w3.org/1999/02/22-rdf-syntax-ns#" xmlns="http://www.w3.org/2000/svg" height="24" width="24" version="1.0" xmlns:cc="http://creativecommons.org/ns#" xmlns:dc="http://purl.org/dc/elements/1.1/">
 <metadata id="metadata17">
  <rdf:RDF>
   <cc:Work rdf:about="">
    <dc:format>image/svg+xml</dc:format>
    <dc:type rdf:resource="http://purl.org/dc/dcmitype/StillImage"/>
   </cc:Work>
  </rdf:RDF>
 </metadata>
 <g id="g2409" style="opacity:.4;stroke:#393934">
  <path id="path2393" style="opacity:.6;stroke-width:3.7;stroke:#393934;stroke-linecap:round;fill:none" d="m7.7708 15.449s1.0185-1.291 4.1392-1.323c3.081-0.033 4.26 1.323 4.26 1.323"/>
  <path id="path2399" style="stroke-width:1.7;stroke:#dfdbd2;stroke-linecap:round;fill:none" d="m7.7708 15.449s1.0185-1.291 4.1392-1.323c3.081-0.033 4.26 1.323 4.26 1.323"/>
 </g>
 <g id="g2405" style="opacity:.6;stroke:#393934">
  <path id="path2391" style="opacity:.6;stroke-width:3.7;stroke:#393934;stroke-linecap:round;fill:none" d="m5.0566 12.453s2.2354-2.423 6.9244-2.337c4.727 0.087 6.924 2.376 6.924 2.376"/>
  <path id="path2397" style="stroke-width:1.7;stroke:#dfdbd2;stroke-linecap:round;fill:none" d="m5.0566 12.453s2.2354-2.423 6.9244-2.337c4.727 0.087 6.924 2.376 6.924 2.376"/>
 </g>
 <g id="g2401" style="opacity:.8;stroke:#393934">
  <path id="path3192" style="opacity:.6;stroke-width:3.7;stroke:#393934;stroke-linecap:round;fill:none" d="m2.1991 9.4138s3.1039-3.4308 9.7819-3.4308c6.645 0 9.82 3.4366 9.82 3.4366"/>
  <path id="path3209" style="stroke-width:1.7;stroke:#dfdbd2;stroke-linecap:round;fill:none" d="m2.1991 9.4138s3.1039-3.4308 9.7819-3.4308c6.645 0 9.82 3.4366 9.82 3.4366"/>
 </g>
 <g id="g2413" style="opacity:.4">
  <path id="path3205" style="opacity:.6;fill-rule:evenodd;fill:#393934" d="m11 16.031c-0.977-0.016-1.8725 0.799-1.9584 1.77-0.0587 0.579 0.1195 1.207 0.5728 1.595 0.3473 0.347 0.6946 0.694 1.0416 1.042 0.241 0.164 0.477 0.352 0.764 0.436 0.726 0.25 1.573-0.005 2.07-0.583 0.374-0.38 0.762-0.749 1.128-1.136 0.518-0.733 0.457-1.819-0.166-2.473-0.406-0.459-1.029-0.693-1.637-0.651h-1.815z"/>
  <path id="path3196" style="fill-rule:evenodd;fill:#dfdbd2" d="m11 17c-0.552 0-1 0.448-1 1 0 0.205 0.062 0.396 0.168 0.555l1.179 1.202c0.175 0.151 0.403 0.243 0.653 0.243 0.296 0 0.563-0.129 0.746-0.334l1.054-1.066c0.125-0.167 0.2-0.375 0.2-0.6 0-0.552-0.448-1-1-1h-2z"/>
 </g>
</svg>
