<?xml version="1.0" encoding="UTF-8" standalone="no"?>
<!-- Created with Inkscape (http://www.inkscape.org/) -->

<svg
   xmlns:dc="http://purl.org/dc/elements/1.1/"
   xmlns:cc="http://creativecommons.org/ns#"
   xmlns:rdf="http://www.w3.org/1999/02/22-rdf-syntax-ns#"
   xmlns:svg="http://www.w3.org/2000/svg"
   xmlns="http://www.w3.org/2000/svg"
   xmlns:sodipodi="http://sodipodi.sourceforge.net/DTD/sodipodi-0.dtd"
   xmlns:inkscape="http://www.inkscape.org/namespaces/inkscape"
   width="16"
   height="16"
   viewBox="0 0 16 16"
   id="svg2"
   version="1.1"
   inkscape:version="0.91 r13725"
   sodipodi:docname="folder-images.svg">
<defs
    id="defs3051">
<style
    type="text/css"
    id="current-color-scheme">
    .ColorScheme-Text {
    color:#4d4d4d;
    }
    </style>
</defs>
  <sodipodi:namedview
     id="base"
     pagecolor="#ffffff"
     bordercolor="#666666"
     borderopacity="1.0"
     inkscape:pageopacity="0.0"
     inkscape:pageshadow="2"
     inkscape:zoom="128"
     inkscape:cx="3.9861114"
     inkscape:cy="4.2524339"
     inkscape:document-units="px"
     inkscape:current-layer="layer1"
     showgrid="true"
     units="px"
     inkscape:showpageshadow="false"
     borderlayer="true"
     showguides="true"
     inkscape:guide-bbox="true"
     inkscape:window-width="2560"
     inkscape:window-height="1014"
     inkscape:window-x="0"
     inkscape:window-y="0"
     inkscape:window-maximized="1"
     fit-margin-top="0"
     fit-margin-left="0"
     fit-margin-right="0"
     fit-margin-bottom="0">
    <inkscape:grid
       type="xygrid"
       id="grid4136"
       empspacing="2"
       originx="-3"
       originy="-3.0000174" />
    <sodipodi:guide
       position="0,14.999983"
       orientation="0,1"
       id="guide4140"
       inkscape:label="Icon Max Height"
       inkscape:color="rgb(233,30,99)" />
    <sodipodi:guide
       position="0,0.9999826"
       orientation="0,1"
       id="guide4142"
       inkscape:label="Icon Baseline"
       inkscape:color="rgb(233,30,99)" />
    <sodipodi:guide
       position="8,-1.74e-05"
       orientation="1,0"
       id="guide4144"
       inkscape:label="Center Vertical"
       inkscape:color="rgb(221,44,0)" />
    <sodipodi:guide
       position="17,7.9999826"
       orientation="0,1"
       id="guide4146"
       inkscape:label="Center Horizontal"
       inkscape:color="rgb(221,44,0)" />
  </sodipodi:namedview>
  <metadata
     id="metadata7">
    <rdf:RDF>
      <cc:Work
         rdf:about="">
        <dc:format>image/svg+xml</dc:format>
        <dc:type
           rdf:resource="http://purl.org/dc/dcmitype/StillImage" />
        <dc:title />
      </cc:Work>
    </rdf:RDF>
  </metadata>
  <g
     inkscape:label="Capa 1"
     inkscape:groupmode="layer"
     id="layer1"
     transform="translate(-3,-1033.3622)">
    <path
       style="fill:currentColor;fill-opacity:1;stroke:none" class="ColorScheme-Text"
       d="M 3,3 C 1.8919807,3 1,3.8919807 1,5 l 0,6 c 0,0 0,1.000017 0,1 l 0,1 c 0,1.108019 0.8919807,2 2,2 l 10,0 c 1.108019,0 2,-0.891981 2,-2 L 15,5 C 15,3.8919807 14.108019,3 13,3 Z m 0,1 10,0 c 0.554019,0 1,0.4459807 1,1 l 0,6.994141 -1.947266,-1.947266 c -0.09566,-0.095706 -0.226027,-0.1485566 -0.361328,-0.1464844 -0.129887,0.00207 -0.25387,0.054606 -0.345703,0.1464844 L 9.0507812,12.34375 4.8535156,8.1464844 C 4.7578539,8.0507785 4.6274889,7.9979278 4.4921875,8 4.3623006,8.0020711 4.2383174,8.0546063 4.1464844,8.1464844 L 2,10.292969 2,7 2,5 C 2,4.4459807 2.4459807,4 3,4 Z m 8,1 C 9.8954305,5 9,5.8954305 9,7 9,8.1045695 9.8954305,9 11,9 12.104569,9 13,8.1045695 13,7 13,5.8954305 12.104569,5 11,5 Z m 0,1 c 0.552284,1.4e-6 0.999999,0.4477158 1,1 -10e-7,0.5522842 -0.447716,0.9999986 -1,1 -0.552284,-1.4e-6 -0.999999,-0.4477158 -1,-1 10e-7,-0.5522842 0.447716,-0.9999986 1,-1 z M 4.5,9.2070312 8.6464844,13.353516 c 0.278633,0.278633 0.5290209,0.27762 0.8066406,0 l 2.246094,-2.246094 2.146484,2.146484 c 0.02706,0.02747 0.05721,0.05172 0.08984,0.07227 C 13.799915,13.717268 13.438421,14 13,14 L 3,14 C 2.4459807,14 2,13.554019 2,13 l 0,-1.292969 z"
       transform="translate(3,1033.3622)"
       id="rect3211"
       inkscape:connector-curvature="0"
       sodipodi:nodetypes="ssccssssssssssccccccccccsssssssssssscsscccssscc" />
  </g>
</svg>
