<?xml version="1.0" encoding="UTF-8" standalone="no"?>
<!-- Created with Inkscape (http://www.inkscape.org/) -->

<svg
   width="16"
   height="16"
   viewBox="0 0 16 16"
   id="svg2"
   version="1.1"
   inkscape:version="1.4.3 (0d15f75042, 2025-12-25)"
   sodipodi:docname="folder-music.svg"
   xmlns:inkscape="http://www.inkscape.org/namespaces/inkscape"
   xmlns:sodipodi="http://sodipodi.sourceforge.net/DTD/sodipodi-0.dtd"
   xmlns="http://www.w3.org/2000/svg"
   xmlns:svg="http://www.w3.org/2000/svg"
   xmlns:rdf="http://www.w3.org/1999/02/22-rdf-syntax-ns#"
   xmlns:cc="http://creativecommons.org/ns#"
   xmlns:dc="http://purl.org/dc/elements/1.1/">
  <defs
     id="defs3051">
    <style
       type="text/css"
       id="current-color-scheme">
    .ColorScheme-Text {
    color:#4d4d4d;
    }
    </style>
  </defs>
  <sodipodi:namedview
     id="base"
     pagecolor="#ffffff"
     bordercolor="#666666"
     borderopacity="1.0"
     inkscape:pageopacity="0.0"
     inkscape:pageshadow="2"
     inkscape:zoom="32"
     inkscape:cx="10.40625"
     inkscape:cy="5.671875"
     inkscape:document-units="px"
     inkscape:current-layer="layer1"
     showgrid="true"
     units="px"
     inkscape:showpageshadow="false"
     borderlayer="true"
     showguides="true"
     inkscape:guide-bbox="true"
     inkscape:window-width="1263"
     inkscape:window-height="1308"
     inkscape:window-x="0"
     inkscape:window-y="0"
     inkscape:window-maximized="1"
     fit-margin-top="0"
     fit-margin-left="0"
     fit-margin-right="0"
     fit-margin-bottom="0"
     inkscape:pagecheckerboard="0"
     inkscape:deskcolor="#d1d1d1">
    <inkscape:grid
       type="xygrid"
       id="grid4136"
       empspacing="2"
       originx="-3"
       originy="-3.0000174"
       spacingy="1"
       spacingx="1"
       units="px" />
    <sodipodi:guide
       position="0,14.999983"
       orientation="0,1"
       id="guide4140"
       inkscape:label="Icon Max Height"
       inkscape:color="rgb(233,30,99)"
       inkscape:locked="false" />
    <sodipodi:guide
       position="0,0.9999826"
       orientation="0,1"
       id="guide4142"
       inkscape:label="Icon Baseline"
       inkscape:color="rgb(233,30,99)"
       inkscape:locked="false" />
    <sodipodi:guide
       position="8,-1.74e-05"
       orientation="1,0"
       id="guide4144"
       inkscape:label="Center Vertical"
       inkscape:color="rgb(221,44,0)"
       inkscape:locked="false" />
    <sodipodi:guide
       position="17,7.9999826"
       orientation="0,1"
       id="guide4146"
       inkscape:label="Center Horizontal"
       inkscape:color="rgb(221,44,0)"
       inkscape:locked="false" />
  </sodipodi:namedview>
  <metadata
     id="metadata7">
    <rdf:RDF>
      <cc:Work
         rdf:about="">
        <dc:format>image/svg+xml</dc:format>
        <dc:type
           rdf:resource="http://purl.org/dc/dcmitype/StillImage" />
        <dc:title />
      </cc:Work>
    </rdf:RDF>
  </metadata>
  <g
     inkscape:label="Capa 1"
     inkscape:groupmode="layer"
     id="layer1"
     transform="translate(-3,-1033.3622)">
    <path
       style="fill:currentColor;fill-opacity:1;stroke:none"
       class="ColorScheme-Text"
       d="m 13.511719,2 c -0.04477,-7.616e-4 -0.08944,0.00449 -0.132813,0.015625 l -7.9999998,2 C 5.1607187,4.0700951 5.0056996,4.2634696 5,4.4882812 4.9999542,4.4921873 4.9999542,4.4960939 5,4.5 V 7.3828125 7.6289062 10.271467 C 4.6963044,10.094694 4.3513949,10.001057 4,9.9999826 c -1.1045695,0 -2,0.8954304 -2,2.0000004 0,1.104569 0.8954305,2 2,2 1.1045695,0 2,-0.895431 2,-2 V 7.8847656 L 13,6.046875 V 9.2714844 C 12.696304,9.0947118 12.351395,9.0010743 12,9 c -1.104569,0 -2,0.8954305 -2,2 0,1.104569 0.895431,2 2,2 1.104569,0 2,-0.895431 2,-2 V 5.4941406 5.2949219 2.5683594 2.5 2.4355469 C 13.967991,2.1892498 13.760059,2.0037742 13.511719,2 Z M 13,3.140625 V 5.0136719 L 6,6.8515625 V 4.890625 Z M 12,10 c 0.552284,10e-7 0.999999,0.447716 1,1 -10e-7,0.552284 -0.447716,0.999999 -1,1 -0.552284,-10e-7 -0.999999,-0.447716 -1,-1 10e-7,-0.552284 0.447716,-0.999999 1,-1 z m -8,0.999983 c 0.5522842,10e-7 0.9999986,0.447715 1,1 -1.4e-6,0.552284 -0.4477158,0.999998 -1,1 -0.5522842,-2e-6 -0.9999986,-0.447716 -1,-1 1.4e-6,-0.552285 0.4477158,-0.999999 1,-1 z"
       transform="translate(3,1033.3622)"
       id="rect3198"
       sodipodi:nodetypes="cccccccccsssccccssscccccccccccssssscsscc" />
  </g>
</svg>
