<?xml version="1.0" encoding="UTF-8" standalone="no"?>
<svg
   xmlns:dc="http://purl.org/dc/elements/1.1/"
   xmlns:cc="http://creativecommons.org/ns#"
   xmlns:rdf="http://www.w3.org/1999/02/22-rdf-syntax-ns#"
   xmlns:svg="http://www.w3.org/2000/svg"
   xmlns="http://www.w3.org/2000/svg"
   xmlns:sodipodi="http://sodipodi.sourceforge.net/DTD/sodipodi-0.dtd"
   xmlns:inkscape="http://www.inkscape.org/namespaces/inkscape"
   width="16"
   height="16"
   viewBox="0 0 16 16"
   id="svg2"
   version="1.1"
   inkscape:version="1.0.1 (3bc2e81, 2020-09-07)"
   sodipodi:docname="folder-templates.svg">
  <defs
     id="defs3051">
    <style
       type="text/css"
       id="current-color-scheme">
    .ColorScheme-Text {
    color:#4d4d4d;
    }
    </style>
  </defs>
  <sodipodi:namedview
     id="base"
     pagecolor="#ffffff"
     bordercolor="#666666"
     borderopacity="1.0"
     inkscape:pageopacity="0.0"
     inkscape:pageshadow="2"
     inkscape:zoom="9.3750001"
     inkscape:cx="4.7333295"
     inkscape:cy="8.9221352"
     inkscape:document-units="px"
     inkscape:current-layer="layer1"
     showgrid="true"
     units="px"
     inkscape:showpageshadow="false"
     borderlayer="true"
     showguides="true"
     inkscape:guide-bbox="true"
     inkscape:window-width="1151"
     inkscape:window-height="450"
     inkscape:window-x="1409"
     inkscape:window-y="480"
     inkscape:window-maximized="1"
     fit-margin-top="0"
     fit-margin-left="0"
     fit-margin-right="0"
     fit-margin-bottom="0"
     inkscape:document-rotation="0">
    <inkscape:grid
       type="xygrid"
       id="grid4136"
       empspacing="2"
       originx="-3"
       originy="-3.0000174" />
    <sodipodi:guide
       position="0,14.999983"
       orientation="0,1"
       id="guide4140"
       inkscape:label="Icon Max Height"
       inkscape:color="rgb(233,30,99)" />
    <sodipodi:guide
       position="0,0.9999826"
       orientation="0,1"
       id="guide4142"
       inkscape:label="Icon Baseline"
       inkscape:color="rgb(233,30,99)" />
    <sodipodi:guide
       position="8,-1.74e-05"
       orientation="1,0"
       id="guide4144"
       inkscape:label="Center Vertical"
       inkscape:color="rgb(221,44,0)" />
    <sodipodi:guide
       position="17,7.9999826"
       orientation="0,1"
       id="guide4146"
       inkscape:label="Center Horizontal"
       inkscape:color="rgb(221,44,0)" />
  </sodipodi:namedview>
  <metadata
     id="metadata7">
    <rdf:RDF>
      <cc:Work
         rdf:about="">
        <dc:format>image/svg+xml</dc:format>
        <dc:type
           rdf:resource="http://purl.org/dc/dcmitype/StillImage" />
        <dc:title></dc:title>
      </cc:Work>
    </rdf:RDF>
  </metadata>
  <g
     inkscape:label="Capa 1"
     inkscape:groupmode="layer"
     id="layer1"
     transform="translate(-3,-1033.3622)">
    <path
       id="path864-2"
       style="fill:currentColor;fill-opacity:1;stroke:none" class="ColorScheme-Text"
       d="M 4 1 C 2.891981 1 2 1.892 2 3 L 2 13 C 2 14.108 2.891981 15 4 15 L 8 15 L 8 14 L 7 14 L 4 14 C 3.445981 14 3 13.554 3 13 L 3 3 C 3 2.446 3.445981 2 4 2 L 9 2 L 9 5.5 C 9 5.777 9.223 6 9.5 6 L 13 6 L 13 10 L 14 10 L 14 5.5 L 14 5 L 10.001953 1.0019531 L 10 1.0019531 L 9.5136719 1.0019531 L 9.5 1.0019531 L 4 1 z M 10 2.4121094 L 12.587891 5 L 10 5 L 10 2.4121094 z M 11.488281 10 A 0.5 0.5 0 0 0 11 10.5 A 0.5 0.5 0 0 0 11.5 11 A 0.5 0.5 0 0 0 12 10.5 A 0.5 0.5 0 0 0 11.5 10 A 0.5 0.5 0 0 0 11.488281 10 z M 12.488281 11 A 0.5 0.5 0 0 0 12 11.5 A 0.5 0.5 0 0 0 12.5 12 A 0.5 0.5 0 0 0 13 11.5 A 0.5 0.5 0 0 0 12.5 11 A 0.5 0.5 0 0 0 12.488281 11 z M 9.4882812 12 A 0.5 0.5 0 0 0 9 12.5 A 0.5 0.5 0 0 0 9.5 13 A 0.5 0.5 0 0 0 10 12.5 A 0.5 0.5 0 0 0 9.5 12 A 0.5 0.5 0 0 0 9.4882812 12 z M 11.488281 12 A 0.5 0.5 0 0 0 11 12.5 A 0.5 0.5 0 0 0 11.5 13 A 0.5 0.5 0 0 0 12 12.5 A 0.5 0.5 0 0 0 11.5 12 A 0.5 0.5 0 0 0 11.488281 12 z M 8.4882812 13 A 0.5 0.5 0 0 0 8 13.5 A 0.5 0.5 0 0 0 8.5 14 A 0.5 0.5 0 0 0 9 13.5 A 0.5 0.5 0 0 0 8.5 13 A 0.5 0.5 0 0 0 8.4882812 13 z M 10.488281 13 A 0.5 0.5 0 0 0 10 13.5 A 0.5 0.5 0 0 0 10.5 14 A 0.5 0.5 0 0 0 11 13.5 A 0.5 0.5 0 0 0 10.5 13 A 0.5 0.5 0 0 0 10.488281 13 z M 12.488281 13 A 0.5 0.5 0 0 0 12 13.5 A 0.5 0.5 0 0 0 12.5 14 A 0.5 0.5 0 0 0 13 13.5 A 0.5 0.5 0 0 0 12.5 13 A 0.5 0.5 0 0 0 12.488281 13 z "
       transform="translate(3,1033.3622)" />
  </g>
</svg>
