<?xml version="1.0" encoding="UTF-8" standalone="no"?>
<!-- Created with Inkscape (http://www.inkscape.org/) -->

<svg
   width="16"
   height="16"
   viewBox="0 0 16 16"
   id="svg2"
   version="1.1"
   inkscape:version="1.4.3 (0d15f75042, 2025-12-25)"
   sodipodi:docname="folder-images.svg"
   xmlns:inkscape="http://www.inkscape.org/namespaces/inkscape"
   xmlns:sodipodi="http://sodipodi.sourceforge.net/DTD/sodipodi-0.dtd"
   xmlns="http://www.w3.org/2000/svg"
   xmlns:svg="http://www.w3.org/2000/svg"
   xmlns:rdf="http://www.w3.org/1999/02/22-rdf-syntax-ns#"
   xmlns:cc="http://creativecommons.org/ns#"
   xmlns:dc="http://purl.org/dc/elements/1.1/">
  <defs
     id="defs3051">
    <style
       type="text/css"
       id="current-color-scheme">
    .ColorScheme-Text {
    color:#4d4d4d;
    }
    </style>
  </defs>
  <sodipodi:namedview
     id="base"
     pagecolor="#ffffff"
     bordercolor="#666666"
     borderopacity="1.0"
     inkscape:pageopacity="0.0"
     inkscape:pageshadow="2"
     inkscape:zoom="45.254834"
     inkscape:cx="8.6841551"
     inkscape:cy="7.1484076"
     inkscape:document-units="px"
     inkscape:current-layer="layer1"
     showgrid="true"
     units="px"
     inkscape:showpageshadow="false"
     borderlayer="true"
     showguides="true"
     inkscape:guide-bbox="true"
     inkscape:window-width="1263"
     inkscape:window-height="1308"
     inkscape:window-x="0"
     inkscape:window-y="0"
     inkscape:window-maximized="1"
     fit-margin-top="0"
     fit-margin-left="0"
     fit-margin-right="0"
     fit-margin-bottom="0"
     inkscape:pagecheckerboard="0"
     inkscape:deskcolor="#d1d1d1">
    <inkscape:grid
       type="xygrid"
       id="grid4136"
       empspacing="2"
       originx="-3"
       originy="-3.0000174"
       spacingy="1"
       spacingx="1"
       units="px" />
    <sodipodi:guide
       position="0,14.999983"
       orientation="0,1"
       id="guide4140"
       inkscape:label="Icon Max Height"
       inkscape:color="rgb(233,30,99)"
       inkscape:locked="false" />
    <sodipodi:guide
       position="0,0.9999826"
       orientation="0,1"
       id="guide4142"
       inkscape:label="Icon Baseline"
       inkscape:color="rgb(233,30,99)"
       inkscape:locked="false" />
    <sodipodi:guide
       position="8,-1.74e-05"
       orientation="1,0"
       id="guide4144"
       inkscape:label="Center Vertical"
       inkscape:color="rgb(221,44,0)"
       inkscape:locked="false" />
    <sodipodi:guide
       position="17,7.9999826"
       orientation="0,1"
       id="guide4146"
       inkscape:label="Center Horizontal"
       inkscape:color="rgb(221,44,0)"
       inkscape:locked="false" />
  </sodipodi:namedview>
  <metadata
     id="metadata7">
    <rdf:RDF>
      <cc:Work
         rdf:about="">
        <dc:format>image/svg+xml</dc:format>
        <dc:type
           rdf:resource="http://purl.org/dc/dcmitype/StillImage" />
        <dc:title />
      </cc:Work>
    </rdf:RDF>
  </metadata>
  <g
     inkscape:label="Capa 1"
     inkscape:groupmode="layer"
     id="layer1"
     transform="translate(-3,-1033.3622)">
    <path
       style="fill:currentColor;fill-opacity:1;stroke:none"
       class="ColorScheme-Text"
       d="m 6,1035.3622 c -1.1080193,0 -2,0.892 -2,2 v 6 c 0,0 0,1 0,1 v 1 c 0,1.108 0.8919807,2 2,2 h 10 c 1.108019,0 2,-0.892 2,-2 v -8 c 0,-1.108 -0.891981,-2 -2,-2 z m 0,1 h 10 c 0.554019,0 1,0.446 1,1 v 6.9941 l -1.947266,-1.9472 c -0.09566,-0.096 -0.226027,-0.1486 -0.361328,-0.1465 -0.129887,0 -0.25387,0.055 -0.345703,0.1465 l -2.294922,2.2968 -4.1972654,-4.1972 c -0.095662,-0.096 -0.2260267,-0.1486 -0.3613281,-0.1465 -0.1298869,0 -0.2538701,0.055 -0.3457031,0.1465 L 5,1042.6552 v -3.293 -2 c 0,-0.554 0.4459807,-1 1,-1 z m 8,1 c -1.104569,0 -2,0.8954 -2,2 0,1.1046 0.895431,2 2,2 1.104569,0 2,-0.8954 2,-2 0,-1.1046 -0.895431,-2 -2,-2 z m 0,1 c 0.552284,0 0.999999,0.4477 1,1 -10e-7,0.5523 -0.447716,1 -1,1 -0.552284,0 -0.999999,-0.4477 -1,-1 10e-7,-0.5523 0.447716,-1 1,-1 z m -6.5,3.207 4.146484,4.1465 c 0.278633,0.2786 0.529021,0.2776 0.806641,0 l 2.246094,-2.2461 2.146484,2.1465 c 0.02706,0.028 0.05721,0.052 0.08984,0.072 -0.135628,0.3911 -0.497122,0.6738 -0.935543,0.6738 H 6 c -0.5540193,0 -1,-0.446 -1,-1 v -1.293 z"
       id="rect3211"
       inkscape:connector-curvature="0"
       sodipodi:nodetypes="ssccssssssssssccccccccccsssssssssssscsscccssscc" />
  </g>
</svg>
