<?xml version="1.0" encoding="UTF-8" standalone="no"?>
<!-- Created with Inkscape (http://www.inkscape.org/) -->

<svg
   xmlns:dc="http://purl.org/dc/elements/1.1/"
   xmlns:cc="http://creativecommons.org/ns#"
   xmlns:rdf="http://www.w3.org/1999/02/22-rdf-syntax-ns#"
   xmlns:svg="http://www.w3.org/2000/svg"
   xmlns="http://www.w3.org/2000/svg"
   xmlns:sodipodi="http://sodipodi.sourceforge.net/DTD/sodipodi-0.dtd"
   xmlns:inkscape="http://www.inkscape.org/namespaces/inkscape"
   width="48"
   height="48"
   id="svg2"
   version="1.1"
   inkscape:version="0.48.4 r9939"
   sodipodi:docname="aptdaemon-resolve.svg">
  <defs
     id="defs4" />
  <sodipodi:namedview
     id="base"
     pagecolor="#ffffff"
     bordercolor="#666666"
     borderopacity="1.0"
     inkscape:pageopacity="0.0"
     inkscape:pageshadow="2"
     inkscape:zoom="8"
     inkscape:cx="23.340617"
     inkscape:cy="18.644724"
     inkscape:document-units="px"
     inkscape:current-layer="layer1"
     showgrid="false"
     inkscape:showpageshadow="false"
     borderlayer="true"
     inkscape:window-width="1024"
     inkscape:window-height="716"
     inkscape:window-x="0"
     inkscape:window-y="30"
     inkscape:window-maximized="1">
    <sodipodi:guide
       position="9,39.000017"
       orientation="30,0"
       id="guide3275" />
    <sodipodi:guide
       position="9,9.0000174"
       orientation="0,30"
       id="guide3277" />
    <sodipodi:guide
       position="39,9.0000174"
       orientation="-30,0"
       id="guide3279" />
    <sodipodi:guide
       position="39,39.000017"
       orientation="0,-30"
       id="guide3281" />
    <sodipodi:guide
       position="4,44.000017"
       orientation="40,0"
       id="guide4198" />
    <sodipodi:guide
       position="4,4.0000174"
       orientation="0,40"
       id="guide4200" />
    <sodipodi:guide
       position="44,4.0000174"
       orientation="-40,0"
       id="guide4202" />
    <sodipodi:guide
       position="44,44.000017"
       orientation="0,-40"
       id="guide4204" />
    <sodipodi:guide
       position="20.5,8.0002615"
       orientation="4,0"
       id="guide4210" />
    <sodipodi:guide
       position="20.5,4.0002615"
       orientation="0,7"
       id="guide4212" />
    <sodipodi:guide
       position="27.5,4.0002615"
       orientation="-4,0"
       id="guide4214" />
    <sodipodi:guide
       position="27.5,8.0002615"
       orientation="0,-7"
       id="guide4216" />
    <sodipodi:guide
       position="20.5,44.000017"
       orientation="4,0"
       id="guide4229" />
    <sodipodi:guide
       position="20.5,40.000017"
       orientation="0,7"
       id="guide4231" />
    <sodipodi:guide
       position="27.5,40.000017"
       orientation="-4,0"
       id="guide4233" />
    <sodipodi:guide
       position="27.5,44.000017"
       orientation="0,-7"
       id="guide4235" />
  </sodipodi:namedview>
  <metadata
     id="metadata7">
    <rdf:RDF>
      <cc:Work
         rdf:about="">
        <dc:format>image/svg+xml</dc:format>
        <dc:type
           rdf:resource="http://purl.org/dc/dcmitype/StillImage" />
        <dc:title></dc:title>
      </cc:Work>
    </rdf:RDF>
  </metadata>
  <g
     inkscape:label="Capa 1"
     inkscape:groupmode="layer"
     id="layer1"
     transform="translate(0,-1004.3622)">
    <g
       id="g4108"
       transform="translate(40,8.6914063e-6)">
      <rect
         ry="0"
         y="1008.3622"
         x="-36"
         height="40"
         width="40"
         id="rect3304"
         style="fill:#d4a275;fill-opacity:1;fill-rule:evenodd;stroke:none" />
      <path
         inkscape:connector-curvature="0"
         id="rect3340"
         d="m -34.099609,1008.3622 0,40 0.199218,0 0,-40 -0.199218,0 z m 2,0 0,40 0.199218,0 0,-40 -0.199218,0 z m 2,0 0,40 0.199218,0 0,-40 -0.199218,0 z m 2,0 0,40 0.199218,0 0,-40 -0.199218,0 z m 2,0 0,40 0.199218,0 0,-40 -0.199218,0 z m 2,0 0,40 0.199218,0 0,-40 -0.199218,0 z m 2,0 0,40 0.199218,0 0,-40 -0.199218,0 z m 2,0 0,40 0.199218,0 0,-40 -0.199218,0 z m 2,0 0,40 0.199218,0 0,-40 -0.199218,0 z m 2,0 0,40 0.199218,0 0,-40 -0.199218,0 z m 2,0 0,40 0.199218,0 0,-40 -0.199218,0 z m 2,0 0,40 0.199218,0 0,-40 -0.199218,0 z m 2,0 0,40 0.199218,0 0,-40 -0.199218,0 z m 2,0 0,40 0.199218,0 0,-40 -0.199218,0 z m 2,0 0,40 0.199218,0 0,-40 -0.199218,0 z m 2,0 0,40 0.199218,0 0,-40 -0.199218,0 z m 2,0 0,40 0.199218,0 0,-40 -0.199218,0 z m 2,0 0,40 0.199218,0 0,-40 -0.199218,0 z m 2,0 0,40 0.199218,0 0,-40 -0.199218,0 z"
         style="fill:#c89766;fill-opacity:1;fill-rule:evenodd;stroke:none" />
      <rect
         y="1023.3622"
         x="-18"
         height="7"
         width="4"
         id="rect4351"
         style="fill:#201810;fill-opacity:1;fill-rule:evenodd;stroke:none" />
      <path
         transform="matrix(1.4941567,0,0,0.94107467,-51.859764,57.126936)"
         inkscape:transform-center-y="1.0001363"
         d="m 24.000002,1037.3622 -3.681006,-6.3757 7.362012,0 z"
         inkscape:randomized="0"
         inkscape:rounded="0"
         inkscape:flatsided="true"
         sodipodi:arg2="2.6179939"
         sodipodi:arg1="1.5707963"
         sodipodi:r2="2.1252298"
         sodipodi:r1="4.2504597"
         sodipodi:cy="1033.1117"
         sodipodi:cx="24.000002"
         sodipodi:sides="3"
         id="path4353"
         style="fill:#201810;fill-opacity:1;fill-rule:evenodd;stroke:none"
         sodipodi:type="star" />
      <rect
         y="1044.3619"
         x="-19.5"
         height="4.000001"
         width="7"
         id="rect4206"
         style="fill:#dbb797;fill-opacity:1;fill-rule:evenodd;stroke:none" />
      <rect
         style="fill:#dbb797;fill-opacity:1;fill-rule:evenodd;stroke:none"
         id="rect4223"
         width="7"
         height="4.000001"
         x="-19.5"
         y="1008.3622" />
      <g
         transform="translate(-40,0)"
         id="g4098">
        <path
           inkscape:connector-curvature="0"
           style="fill:#201810;fill-opacity:1;stroke:none"
           d="m 23.996094,15 c -2.356358,2e-4 -4.698317,0.970619 -6.363282,2.636719 C 15.967848,19.302819 15,21.644 15,24 c 0,2.356 0.967848,4.697181 2.632812,6.363281 1.664965,1.6661 4.006924,2.636519 6.363282,2.636719 2.356356,2e-4 4.698145,-0.970619 6.365234,-2.636719 C 32.028418,28.697181 33,26.3563 33,24 33,21.6437 32.028418,19.302819 30.361328,17.636719 28.694239,15.970619 26.35245,14.9998 23.996094,15 Z m 0,2 C 27.661538,16.9998 31,20.3347 31,24 31,27.6653 27.661538,31.0002 23.996094,31 20.330649,30.9998 17,27.665 17,24 c 0,-3.665 3.330649,-6.9998 6.996094,-7 z"
           transform="translate(0,1004.3622)"
           id="path3331" />
        <path
           inkscape:connector-curvature="0"
           style="fill:#110d08;fill-opacity:1;fill-rule:evenodd;stroke:none"
           d="m 23.996094,15 c -0.03198,3e-6 -0.06372,0.0035 -0.0957,0.0039 l 0,2.001953 c 0.03212,-5.13e-4 0.06353,-0.0059 0.0957,-0.0059 0.03469,-2e-6 0.06889,0.0053 0.103515,0.0059 l 0,-2 c -0.03462,-4.15e-4 -0.06889,-0.0059 -0.103515,-0.0059 z m -1.896485,0.214844 c -0.06682,0.01469 -0.132744,0.03263 -0.199218,0.04883 l 0,2.103516 c 0.06625,-0.02314 0.1323,-0.04535 0.199218,-0.06641 l 0,-2.085937 z m 3.800782,0.002 0,2.085937 c 0.06684,0.02108 0.133043,0.04324 0.199218,0.06641 l 0,-2.103516 c -0.06646,-0.01625 -0.132411,-0.03408 -0.199218,-0.04883 z M 20.099609,15.90825 C 20.033439,15.94 19.965778,15.96868 19.900391,16.002 l 0,2.455078 c 0.06674,-0.05097 0.130868,-0.105601 0.199218,-0.154297 l 0,-2.394531 z m 7.800782,0.0039 0,2.396485 c 0.06759,0.0482 0.133201,0.09997 0.199218,0.15039 l 0,-2.453125 c -0.06538,-0.03339 -0.133059,-0.06193 -0.199218,-0.09375 z m -9.800782,1.302735 c -0.06768,0.05853 -0.133364,0.119087 -0.199218,0.179687 l 0,3.332031 c 0.06168,-0.108093 0.132069,-0.211425 0.199218,-0.316406 l 0,-3.195312 z m 11.800782,0.0059 0,3.193359 c 0.06721,0.105023 0.137489,0.208274 0.199218,0.316407 l 0,-3.330078 c -0.06576,-0.06057 -0.131648,-0.121176 -0.199218,-0.179688 z M 22,19 l 0,4 -0.09961,0 0,3.708984 0.199218,0.21875 0,-7.927734 L 22,19 Z m 1.900391,0 0,9.890625 L 24,29 l 0.09961,-0.109375 0,-9.890625 -0.199218,0 z m 2,0 0,7.927734 0.199218,-0.21875 0,-3.708984 L 26,23 l 0,-4 -0.09961,0 z m -9.800782,0.708984 c -0.07189,0.133254 -0.133987,0.271542 -0.199218,0.408204 l 0,7.765624 c 0.06523,0.136662 0.127329,0.27495 0.199218,0.408204 l 0,-8.582032 z m 15.800782,0.0039 0,8.574218 c 0.07211,-0.1335 0.133794,-0.271287 0.199218,-0.408203 l 0,-7.757812 c -0.06542,-0.136916 -0.127108,-0.274703 -0.199218,-0.408203 z m -12,3.287109 0,1.527344 0.199218,0.216797 0,-1.744141 -0.199218,0 z m 8,0 0,1.744141 0.199218,-0.216797 0,-1.527344 -0.199218,0 z m 2.199218,4.269531 c -0.06173,0.108133 -0.13201,0.211384 -0.199218,0.316407 l 0,3.193359 c 0.06757,-0.05851 0.133461,-0.119118 0.199218,-0.179688 l 0,-3.330078 z m -12.199218,0.0039 0,3.332031 c 0.06585,0.0606 0.131542,0.121153 0.199218,0.179687 l 0,-3.195312 c -0.06715,-0.104981 -0.13754,-0.208313 -0.199218,-0.316406 z m 10.199218,2.267578 c -0.06602,0.05042 -0.13163,0.102191 -0.199218,0.15039 l 0,2.396485 c 0.06616,-0.03182 0.133841,-0.06036 0.199218,-0.09375 l 0,-2.453125 z m -8.199218,0.002 0,2.455078 c 0.06539,0.03332 0.133048,0.062 0.199218,0.09375 l 0,-2.394531 c -0.06835,-0.0487 -0.132476,-0.103324 -0.199218,-0.154297 z m 6.199218,1.08789 c -0.06618,0.02316 -0.132376,0.04532 -0.199218,0.06641 l 0,2.085937 c 0.06681,-0.01475 0.132755,-0.03257 0.199218,-0.04883 l 0,-2.103516 z m -4.199218,0.002 0,2.103516 c 0.06647,0.0162 0.132401,0.03414 0.199218,0.04883 l 0,-2.085937 c -0.06692,-0.02106 -0.132971,-0.04327 -0.199218,-0.06641 z m 2,0.361329 0,2.001953 c 0.03198,3.59e-4 0.06372,0.0039 0.0957,0.0039 0.03462,3e-6 0.0689,-0.0054 0.103515,-0.0059 l 0,-2 c -0.03463,5.93e-4 -0.06883,0.0059 -0.103515,0.0059 -0.03217,-2e-6 -0.06358,-0.0053 -0.0957,-0.0059 z"
           id="path3386"
           transform="translate(0,1004.3622)" />
      </g>
    </g>
    <ellipse
       sodipodi:ry="2.0000615"
       sodipodi:rx="2.0013857"
       sodipodi:cy="-226.23662"
       sodipodi:cx="713.8111"
       ry="2.0000615"
       rx="2.0013857"
       cy="-226.23662"
       cx="713.8111"
       id="ellipse3268"
       style="fill:none;stroke:none"
       transform="matrix(0,1,-1,0,-143.36162,319.2997)"
       d="m 715.81248,-226.23662 c 0,1.10461 -0.89605,2.00006 -2.00138,2.00006 -1.10534,0 -2.00139,-0.89545 -2.00139,-2.00006 0,-1.1046 0.89605,-2.00006 2.00139,-2.00006 1.10533,0 2.00138,0.89546 2.00138,2.00006 z" />
    <ellipse
       sodipodi:ry="2.0000615"
       sodipodi:rx="2.0013857"
       sodipodi:cy="-182.23662"
       sodipodi:cx="713.8111"
       style="fill:none;stroke:none"
       id="ellipse3270"
       cx="713.8111"
       cy="-182.23662"
       rx="2.0013857"
       ry="2.0000615"
       transform="matrix(0,1,-1,0,-143.36162,319.2997)"
       d="m 715.81248,-182.23662 c 0,1.10461 -0.89605,2.00006 -2.00138,2.00006 -1.10534,0 -2.00139,-0.89545 -2.00139,-2.00006 0,-1.1046 0.89605,-2.00006 2.00139,-2.00006 1.10533,0 2.00138,0.89546 2.00138,2.00006 z" />
    <ellipse
       sodipodi:ry="20.000616"
       sodipodi:rx="20.013857"
       sodipodi:cy="-713.8125"
       sodipodi:cx="204.22275"
       style="fill:#201810;fill-opacity:1;stroke:none"
       id="path4064"
       transform="matrix(0.28174764,0,0,-0.28174764,-19.362507,841.31095)"
       cx="204.22275"
       cy="-713.8125"
       rx="20.013857"
       ry="20.000616"
       d="m 224.2366,-713.8125 c 0,11.04604 -8.9605,20.00062 -20.01385,20.00062 -11.05335,0 -20.01386,-8.95458 -20.01386,-20.00062 0,-11.04604 8.96051,-20.00062 20.01386,-20.00062 11.05335,0 20.01385,8.95458 20.01385,20.00062 z" />
    <path
       inkscape:connector-curvature="0"
       style="fill:#eeeeec;fill-opacity:1;stroke:none"
       d="m 38.179026,1038.1997 c -1.106497,0 -2.205682,0.4558 -2.987515,1.2381 -0.781834,0.7824 -1.237048,1.8818 -1.237048,2.9881 0,1.1063 0.455214,2.2057 1.237048,2.9881 0.781833,0.7823 1.881018,1.2381 2.987515,1.2381 1.106497,10e-5 2.206335,-0.4552 2.989167,-1.2376 0.782831,-0.7824 1.238699,-1.8822 1.238699,-2.9886 0,-1.1065 -0.455868,-2.2063 -1.238699,-2.9886 -0.782832,-0.7824 -1.88267,-1.2377 -2.989167,-1.2376 z m 5.64e-4,1.6905 c 0.663898,-10e-5 1.323691,0.2734 1.79339,0.7428 0.469685,0.4695 0.743426,1.129 0.743426,1.7929 0,0.6639 -0.273741,1.3234 -0.74344,1.7928 -0.469698,0.4695 -1.129491,0.743 -1.793389,0.7429 -0.663899,0 -1.32374,-0.2734 -1.79284,-0.7429 -0.4691,-0.4694 -0.741789,-1.129 -0.741789,-1.7928 0,-0.6638 0.272689,-1.3234 0.741789,-1.7929 0.4691,-0.4694 1.128941,-0.7428 1.79284,-0.7428 z"
       id="ellipse3292" />
    <rect
       style="fill:#eeeeec;fill-opacity:1;fill-rule:evenodd;stroke:none"
       id="rect3307"
       width="1.9722335"
       height="0.56349558"
       x="37.194565"
       y="1038.1998" />
    <ellipse
       sodipodi:ry="1.0000308"
       sodipodi:rx="1.0006928"
       sodipodi:cy="699.8125"
       sodipodi:cx="204.23592"
       transform="matrix(0.28174764,0,0,0.28174764,-19.362507,841.31095)"
       style="fill:#eeeeec;stroke:none"
       id="ellipse3311"
       cx="204.23592"
       cy="699.8125"
       rx="1.0006928"
       ry="1.0000308"
       d="m 205.23661,699.8125 c 0,0.5523 -0.44803,1.00003 -1.00069,1.00003 -0.55267,0 -1.0007,-0.44773 -1.0007,-1.00003 0,-0.5523 0.44803,-1.00003 1.0007,-1.00003 0.55266,0 1.00069,0.44773 1.00069,1.00003 z" />
    <path
       style="fill:#eeeeec;fill-opacity:1;fill-rule:evenodd;stroke:none"
       d="m 37.758053,1037.3545 0.845243,0 0.563495,0.8452 -1.972233,0 z"
       id="rect3313"
       inkscape:connector-curvature="0"
       sodipodi:nodetypes="ccccc" />
    <ellipse
       sodipodi:ry="1.0000308"
       sodipodi:rx="1.0006928"
       sodipodi:cy="732.8125"
       sodipodi:cx="204.23592"
       transform="matrix(0.28174764,0,0,0.28174764,-19.362507,841.31095)"
       style="fill:none;stroke:none"
       id="ellipse3316"
       cx="204.23592"
       cy="732.8125"
       rx="1.0006928"
       ry="1.0000308"
       d="m 205.23661,732.8125 c 0,0.5523 -0.44803,1.00003 -1.00069,1.00003 -0.55267,0 -1.0007,-0.44773 -1.0007,-1.00003 0,-0.5523 0.44803,-1.00003 1.0007,-1.00003 0.55266,0 1.00069,0.44773 1.00069,1.00003 z" />
    <rect
       y="-1046.6523"
       x="37.194565"
       height="0.56349558"
       width="1.9722335"
       id="rect3328"
       style="fill:#eeeeec;fill-opacity:1;fill-rule:evenodd;stroke:none"
       transform="scale(1,-1)" />
    <ellipse
       sodipodi:ry="1.0000308"
       sodipodi:rx="1.0006928"
       sodipodi:cy="727.8125"
       sodipodi:cx="204.23592"
       transform="matrix(0.28174764,0,0,0.28174764,-19.362507,841.31095)"
       ry="1.0000308"
       rx="1.0006928"
       cy="727.8125"
       cx="204.23592"
       id="ellipse3318"
       style="fill:#eeeeec;stroke:none"
       d="m 205.23661,727.8125 c 0,0.5523 -0.44803,1.00003 -1.00069,1.00003 -0.55267,0 -1.0007,-0.44773 -1.0007,-1.00003 0,-0.5523 0.44803,-1.00003 1.0007,-1.00003 0.55266,0 1.00069,0.44773 1.00069,1.00003 z" />
    <path
       sodipodi:nodetypes="ccccc"
       inkscape:connector-curvature="0"
       id="path3330"
       d="m 37.758053,1047.4974 0.845243,0 0.563495,-0.8452 -1.972233,0 z"
       style="fill:#eeeeec;fill-opacity:1;fill-rule:evenodd;stroke:none" />
    <rect
       y="483.92133"
       x="920.87158"
       height="0.56349552"
       width="1.9722334"
       id="rect3332"
       style="fill:#eeeeec;fill-opacity:1;fill-rule:evenodd;stroke:none"
       transform="matrix(0.50000001,0.8660254,-0.8660254,0.50000001,0,0)" />
    <path
       sodipodi:nodetypes="ccccc"
       inkscape:connector-curvature="0"
       id="path3334"
       d="m 42.361322,1039.5243 0.422621,0.732 -0.450148,0.9105 -0.986117,-1.708 z"
       style="fill:#eeeeec;fill-opacity:1;fill-rule:evenodd;stroke:none" />
    <rect
       transform="matrix(0.50000001,0.8660254,0.8660254,-0.50000001,0,0)"
       style="fill:#eeeeec;fill-opacity:1;fill-rule:evenodd;stroke:none"
       id="rect3336"
       width="1.9722334"
       height="0.56349552"
       x="920.87158"
       y="-492.37381" />
    <path
       style="fill:#eeeeec;fill-opacity:1;fill-rule:evenodd;stroke:none"
       d="m 33.577405,1044.5957 0.422622,0.732 1.013643,0.065 -0.986116,-1.708 z"
       id="path3338"
       inkscape:connector-curvature="0"
       sodipodi:nodetypes="ccccc" />
    <rect
       transform="matrix(-0.50000001,0.8660254,-0.8660254,-0.50000001,0,0)"
       style="fill:#eeeeec;fill-opacity:1;fill-rule:evenodd;stroke:none"
       id="rect3340-0"
       width="1.9722334"
       height="0.56349552"
       x="882.69092"
       y="-558.5047" />
    <path
       style="fill:#eeeeec;fill-opacity:1;fill-rule:evenodd;stroke:none"
       d="m 42.783943,1044.5957 -0.422621,0.732 -1.013644,0.065 0.986114,-1.708 z"
       id="path3342"
       inkscape:connector-curvature="0"
       sodipodi:nodetypes="ccccc" />
    <rect
       y="550.05219"
       x="882.69092"
       height="0.56349552"
       width="1.9722334"
       id="rect3344"
       style="fill:#eeeeec;fill-opacity:1;fill-rule:evenodd;stroke:none"
       transform="matrix(-0.50000001,0.8660254,0.8660254,0.50000001,0,0)" />
    <path
       sodipodi:nodetypes="ccccc"
       inkscape:connector-curvature="0"
       id="path3346"
       d="m 34.000027,1039.5243 -0.422622,0.732 0.450149,0.9105 0.986116,-1.708 z"
       style="fill:#eeeeec;fill-opacity:1;fill-rule:evenodd;stroke:none" />
    <ellipse
       sodipodi:ry="1.0000308"
       sodipodi:rx="1.0006928"
       sodipodi:cy="166.03214"
       sodipodi:cx="720.29742"
       ry="1.0000308"
       rx="1.0006928"
       cy="166.03214"
       cx="720.29742"
       id="ellipse3324"
       style="fill:#eeeeec;stroke:none"
       transform="matrix(0.14087382,0.24400061,-0.24400061,0.14087382,-19.362507,841.31095)"
       d="m 721.29812,166.03214 c 0,0.5523 -0.44803,1.00003 -1.0007,1.00003 -0.55266,0 -1.00069,-0.44773 -1.00069,-1.00003 0,-0.55231 0.44803,-1.00004 1.00069,-1.00004 0.55267,0 1.0007,0.44773 1.0007,1.00004 z" />
    <ellipse
       sodipodi:ry="1.0000308"
       sodipodi:rx="1.0006928"
       sodipodi:cy="194.03214"
       sodipodi:cx="720.29742"
       style="fill:#eeeeec;stroke:none"
       id="ellipse3326"
       cx="720.29742"
       cy="194.03214"
       rx="1.0006928"
       ry="1.0000308"
       transform="matrix(0.14087382,0.24400061,-0.24400061,0.14087382,-19.362507,841.31095)"
       d="m 721.29812,194.03214 c 0,0.5523 -0.44803,1.00003 -1.0007,1.00003 -0.55266,0 -1.00069,-0.44773 -1.00069,-1.00003 0,-0.55231 0.44803,-1.00004 1.00069,-1.00004 0.55267,0 1.0007,0.44773 1.0007,1.00004 z" />
    <ellipse
       sodipodi:ry="1.0000308"
       sodipodi:rx="1.0006928"
       sodipodi:cy="-547.78009"
       sodipodi:cx="-516.06201"
       transform="matrix(0.14087382,-0.24400061,-0.24400061,-0.14087382,-19.362507,841.31095)"
       style="fill:#eeeeec;stroke:none"
       id="ellipse3348"
       cx="-516.06201"
       cy="-547.78009"
       rx="1.0006928"
       ry="1.0000308"
       d="m -515.06132,-547.78009 c 0,0.5523 -0.44802,1.00003 -1.00069,1.00003 -0.55267,0 -1.00069,-0.44773 -1.00069,-1.00003 0,-0.5523 0.44802,-1.00003 1.00069,-1.00003 0.55267,0 1.00069,0.44773 1.00069,1.00003 z" />
    <ellipse
       sodipodi:ry="1.0000308"
       sodipodi:rx="1.0006928"
       sodipodi:cy="-519.78009"
       sodipodi:cx="-516.06201"
       transform="matrix(0.14087382,-0.24400061,-0.24400061,-0.14087382,-19.362507,841.31095)"
       ry="1.0000308"
       rx="1.0006928"
       cy="-519.78009"
       cx="-516.06201"
       id="ellipse3350"
       style="fill:#eeeeec;stroke:none"
       d="m -515.06132,-519.78009 c 0,0.5523 -0.44802,1.00003 -1.00069,1.00003 -0.55267,0 -1.00069,-0.44773 -1.00069,-1.00003 0,-0.5523 0.44802,-1.00003 1.00069,-1.00003 0.55267,0 1.00069,0.44773 1.00069,1.00003 z" />
    <path
       inkscape:connector-curvature="0"
       style="fill:#eeeeec;fill-opacity:1;fill-rule:evenodd;stroke:none"
       d="m 38.180127,1040.8763 c -0.811431,0 -1.549062,0.7383 -1.549062,1.5496 0,0.8113 0.737631,1.5495 1.549062,1.5496 0.811431,10e-5 1.550162,-0.7382 1.550162,-1.5496 0,-0.8114 -0.738731,-1.5497 -1.550162,-1.5496 z m 0,0.2817 c 0.663898,0 1.268415,0.604 1.268415,1.2679 0,0.6639 -0.604517,1.2679 -1.268415,1.2679 -0.663898,-10e-5 -1.267314,-0.6041 -1.267314,-1.2679 0,-0.6638 0.603416,-1.2678 1.267314,-1.2679 z"
       id="path3363" />
  </g>
</svg>
