<?xml version="1.0" encoding="UTF-8" standalone="no"?>
<!-- Created with Inkscape (http://www.inkscape.org/) -->

<svg
   xmlns:dc="http://purl.org/dc/elements/1.1/"
   xmlns:cc="http://creativecommons.org/ns#"
   xmlns:rdf="http://www.w3.org/1999/02/22-rdf-syntax-ns#"
   xmlns:svg="http://www.w3.org/2000/svg"
   xmlns="http://www.w3.org/2000/svg"
   xmlns:sodipodi="http://sodipodi.sourceforge.net/DTD/sodipodi-0.dtd"
   xmlns:inkscape="http://www.inkscape.org/namespaces/inkscape"
   width="48"
   height="48"
   id="svg2"
   version="1.1"
   inkscape:version="0.48.4 r9939"
   sodipodi:docname="audio-volume-high.svg">
  <defs
     id="defs4" />
  <sodipodi:namedview
     id="base"
     pagecolor="#ffffff"
     bordercolor="#666666"
     borderopacity="1.0"
     inkscape:pageopacity="0.0"
     inkscape:pageshadow="2"
     inkscape:zoom="6.0078454"
     inkscape:cx="63.059284"
     inkscape:cy="12.363812"
     inkscape:document-units="px"
     inkscape:current-layer="layer1"
     showgrid="false"
     showguides="true"
     inkscape:window-width="1024"
     inkscape:window-height="715"
     inkscape:window-x="0"
     inkscape:window-y="31"
     inkscape:window-maximized="1">
    <sodipodi:guide
       position="9,39.000017"
       orientation="30,0"
       id="guide3267" />
    <sodipodi:guide
       position="9,9.0000174"
       orientation="0,30"
       id="guide3269" />
    <sodipodi:guide
       position="39,9.0000174"
       orientation="-30,0"
       id="guide3271" />
    <sodipodi:guide
       position="39,39.000017"
       orientation="0,-30"
       id="guide3273" />
    <sodipodi:guide
       position="28,21.999529"
       orientation="13,0"
       id="guide4255" />
    <sodipodi:guide
       position="28,8.9995291"
       orientation="0,11"
       id="guide4257" />
    <sodipodi:guide
       position="39,8.9995291"
       orientation="-13,0"
       id="guide4259" />
    <sodipodi:guide
       position="39,21.999529"
       orientation="0,-11"
       id="guide4261" />
    <sodipodi:guide
       position="9,39.000017"
       orientation="13,0"
       id="guide4291" />
    <sodipodi:guide
       position="9,26.000017"
       orientation="0,19.000002"
       id="guide4293" />
    <sodipodi:guide
       position="28.000002,26.000017"
       orientation="-13,0"
       id="guide4295" />
    <sodipodi:guide
       position="28.000002,39.000017"
       orientation="0,-19.000002"
       id="guide4297" />
  </sodipodi:namedview>
  <metadata
     id="metadata7">
    <rdf:RDF>
      <cc:Work
         rdf:about="">
        <dc:format>image/svg+xml</dc:format>
        <dc:type
           rdf:resource="http://purl.org/dc/dcmitype/StillImage" />
        <dc:title />
      </cc:Work>
    </rdf:RDF>
  </metadata>
  <g
     inkscape:label="Capa 1"
     inkscape:groupmode="layer"
     id="layer1"
     transform="translate(0,-1004.3622)">
    <path
       transform="matrix(1.1744858,0,0,1.1744858,-4.2554412,1000.1286)"
       d="m 39,24.000227 a 15,15.000244 0 1 1 -30,0 15,15.000244 0 1 1 30,0 z"
       sodipodi:ry="15.000244"
       sodipodi:rx="15"
       sodipodi:cy="24.000227"
       sodipodi:cx="24"
       id="path3022"
       style="color:#000000;fill:#eeeeec;fill-opacity:1;fill-rule:evenodd;stroke:none;stroke-width:4;marker:none;visibility:visible;display:inline;overflow:visible;enable-background:accumulate"
       sodipodi:type="arc" />
    <g
       id="g3037">
      <g
         transform="matrix(1.1569296,0,0,1.1569296,-3.7663115,-161.3805)"
         style="fill:#2c3e50;fill-opacity:1"
         id="g3001">
        <path
           style="fill:#2c3e50;fill-opacity:1;fill-rule:evenodd;stroke:none"
           d="m 28,15.238281 c -1.63918,0.379775 -3.175383,1.207776 -4.365234,2.398438 C 21.969801,19.302817 21,21.643996 21,24 c 0,2.356004 0.969801,4.697183 2.634766,6.363281 1.189851,1.190662 2.726054,2.018663 4.365234,2.398438 l 0,-17.523438 z"
           transform="translate(0,1004.3622)"
           id="path4225"
           inkscape:connector-curvature="0" />
        <rect
           style="fill:#2c3e50;fill-opacity:1;fill-rule:evenodd;stroke:none"
           id="rect4237"
           width="4"
           height="7"
           x="19"
           y="1024.8622" />
      </g>
      <path
         id="rect4118"
         d="m 24,1008.3622 c -11.079989,0 -20,8.92 -20,20 0,11.08 8.920011,20 20,20 11.079989,0 20,-8.92 20,-20 0,-11.08 -8.920011,-20 -20,-20 z m 0,3 c 9.417993,0 17,7.582 17,17 0,9.418 -7.582007,17 -17,17 -9.417993,0 -17,-7.582 -17,-17 0,-9.418 7.582007,-17 17,-17 z"
         style="fill:#2c3e50;fill-opacity:1;stroke:none;display:inline"
         inkscape:connector-curvature="0" />
    </g>
  </g>
</svg>
