<svg xmlns="http://www.w3.org/2000/svg" width="48" height="48">
 <g transform="translate(0,-1004.3622)">
  <path d="m 26,9.0097656 c -4.963891,0.064748 -9.319473,2.5229104 -12,6.2695314 l 0,17.441406 c 2.680526,3.746622 7.036105,6.204788 12,6.269531 z M 9,17 9,31 13,31 13,28.820312 13,19.179688 13,17 Z" transform="translate(0,1004.3622)" style="fill:#e74c3c"/>
  <path d="M 30.265625 16.744141 L 27.273438 19.396484 C 28.346983 20.625999 29 22.23206 29 24 C 29 25.89261 28.253189 27.601921 27.041016 28.859375 L 30.091797 31.447266 C 31.893359 29.489879 33 26.88227 33 24 C 33 21.211075 31.964314 18.679046 30.265625 16.744141 z " transform="translate(0,1004.3622)" style="fill:#e74c3c"/>
  <path d="M 34.339844 13.130859 L 31.330078 15.800781 C 33.580127 17.812161 35 20.730501 35 24 C 35 27.352477 33.510546 30.339147 31.160156 32.353516 L 34.238281 34.962891 C 37.165843 32.228849 39 28.340328 39 24 C 39 19.709594 37.208566 15.859835 34.339844 13.130859 z " transform="translate(0,1004.3622)" style="fill:#e74c3c"/>
 </g>
</svg>
