<?xml version="1.0" encoding="UTF-8" standalone="no"?>
<!-- Created with Inkscape (http://www.inkscape.org/) -->

<svg
   xmlns:dc="http://purl.org/dc/elements/1.1/"
   xmlns:cc="http://creativecommons.org/ns#"
   xmlns:rdf="http://www.w3.org/1999/02/22-rdf-syntax-ns#"
   xmlns:svg="http://www.w3.org/2000/svg"
   xmlns="http://www.w3.org/2000/svg"
   xmlns:sodipodi="http://sodipodi.sourceforge.net/DTD/sodipodi-0.dtd"
   xmlns:inkscape="http://www.inkscape.org/namespaces/inkscape"
   id="svg7739"
   height="48"
   width="48"
   version="1.1"
   inkscape:version="0.48+devel r12351"
   sodipodi:docname="avatar-default.svg">
  <defs
     id="defs11">
    <linearGradient
       id="linearGradient3678-6">
      <stop
         id="stop3680-8"
         offset="0"
         style="stop-color:#ffffff;stop-opacity:1;" />
      <stop
         id="stop3682-9"
         offset="1"
         style="stop-color:#e6e6e6;stop-opacity:1;" />
    </linearGradient>
  </defs>
  <sodipodi:namedview
     pagecolor="#ffffff"
     bordercolor="#666666"
     borderopacity="1"
     objecttolerance="10"
     gridtolerance="10"
     guidetolerance="10"
     inkscape:pageopacity="0"
     inkscape:pageshadow="2"
     inkscape:window-width="1366"
     inkscape:window-height="714"
     id="namedview9"
     showgrid="false"
     inkscape:zoom="6.9176775"
     inkscape:cx="3.317011"
     inkscape:cy="16.574476"
     inkscape:window-x="0"
     inkscape:window-y="30"
     inkscape:window-maximized="1"
     inkscape:current-layer="svg7739" />
  <metadata
     id="metadata9">
    <rdf:RDF>
      <cc:Work
         rdf:about="">
        <dc:format>image/svg+xml</dc:format>
        <dc:type
           rdf:resource="http://purl.org/dc/dcmitype/StillImage" />
        <dc:title />
      </cc:Work>
    </rdf:RDF>
  </metadata>
  <path
     id="path813"
     d="m 24,-3e-7 c 6.708372,0 9.583373,3.8333735 8.6158,11.8793803 0.864436,0.495708 1.4467,1.427692 1.4467,2.49562 0,1.306764 -0.87182,2.409916 -2.065644,2.759516 -0.498736,1.777536 -1.273228,3.3511 -2.246856,4.609928 l 0,6.047184 c 3.194456,0.638916 5.75,0.958372 9.583374,2.875 3.833252,1.916744 5.111084,3.673704 7.666626,6.229244 L 47,46 1,46 1,36.895872 c 2.555544,-2.55554 3.833372,-4.3125 7.666628,-6.229244 C 12.5,28.75 15.055544,28.430544 18.25,27.791628 l 0,-6.047184 C 17.276372,20.485616 16.50188,18.912052 16.003144,17.134516 14.80932,16.784916 13.9375,15.681764 13.9375,14.375 c 0,-1.067928 0.582264,-1.999912 1.4467,-2.49562 C 14.416628,3.8333732 17.291628,-3e-7 24,-3e-7 Z"
     inkscape:connector-curvature="0"
     style="fill:#000000;fill-opacity:1;stroke-width:0.2;stroke-linejoin:round" />
</svg>
