<svg xmlns="http://www.w3.org/2000/svg" width="48" height="48">
 <g transform="translate(0,-1004.3622)">
  <path d="m 34.528193,1015.7126 c -3.133896,-3.1338 -8.179813,-3.1338 -11.313708,0 l -3.553566,3.5536 -5.30772,5.3077 c -4.309109,4.3091 -4.309109,11.2473 0,15.5564 4.309108,4.3091 11.24724,4.3091 15.556349,0 l 5.338104,-5.3381 c -0.01697,0.017 -0.04371,0.017 -0.06077,0 l -2.798042,-2.7981 -5.30772,5.3078 c -2.742161,2.7421 -7.157335,2.7421 -9.899495,0 -2.742161,-2.7422 -2.74216,-7.1574 0,-9.8995 l 5.30772,-5.3078 2.581294,-2.5813 1.008179,-1.0081 c 1.547361,-1.5474 4.037679,-1.5474 5.585039,0 1.547361,1.5473 1.548742,4.039 0.0014,5.5864 l -1.008179,1.0082 -2.581294,2.5813 -3.294123,3.2941 -0.55519,0.5552 -0.432274,0.4322 c -0.176358,0.1764 -0.460314,0.1778 -0.636672,0 -0.176358,-0.1763 -0.176358,-0.4617 0,-0.638 l 0.432274,-0.4323 0.555189,-0.5552 3.294123,-3.2941 -2.12132,-2.1213 -3.893507,3.8935 -0.707106,0.7071 c -1.566949,1.5669 -1.566949,4.0899 0,5.6568 1.566948,1.567 4.089905,1.567 5.656854,0 l 0.707107,-0.7071 3.893506,-3.8935 3.553566,-3.5535 c 3.133896,-3.1339 3.133896,-8.1799 0,-11.3138 z" style="fill:#4d4d4d" fill-rule="evenodd"/>
 </g>
</svg>
