<svg xmlns="http://www.w3.org/2000/svg" width="48" height="48">
 <g>
  <g transform="matrix(1.4046639,0,0,1.4178551,-9.7777772,-10.00812)" style="fill:#2980b9">
   <path d="m 24,17.375 -4.78125,-3.96875 -6.5625,4.375 4.625,3.71875 z"/>
   <path d="m 24.09375,17.375 4.78125,-3.96875 6.5625,4.375 -4.625,3.71875 z"/>
   <path d="m 24,25.71875 -4.78125,3.96875 -6.5625,-4.375 4.625,-3.71875 z"/>
   <path d="m 24.09375,25.71875 4.78125,3.96875 6.5625,-4.375 -4.625,-3.71875 z"/>
   <path d="m 17.302019,29.106991 0,1.414213 6.695417,4.043767 6.717515,-4.02167 c 0,0 0.02358,-1.61269 0,-1.524699 -0.02358,0.08799 -2.032932,1.325826 -2.032932,1.325826 l -4.70668,-3.911185 -4.596194,3.86699 z"/>
  </g>
 </g>
</svg>
