<?xml version="1.0" encoding="UTF-8" standalone="no"?>
<!-- Created with Inkscape (http://www.inkscape.org/) -->

<svg
   xmlns:dc="http://purl.org/dc/elements/1.1/"
   xmlns:cc="http://creativecommons.org/ns#"
   xmlns:rdf="http://www.w3.org/1999/02/22-rdf-syntax-ns#"
   xmlns:svg="http://www.w3.org/2000/svg"
   xmlns="http://www.w3.org/2000/svg"
   xmlns:sodipodi="http://sodipodi.sourceforge.net/DTD/sodipodi-0.dtd"
   xmlns:inkscape="http://www.inkscape.org/namespaces/inkscape"
   width="48px"
   height="48px"
   id="svg3409"
   version="1.1"
   inkscape:version="0.48+devel r12662"
   sodipodi:docname="dropboxstatus-busy.svg">
  <defs
     id="defs3411" />
  <sodipodi:namedview
     id="base"
     pagecolor="#ffffff"
     bordercolor="#666666"
     borderopacity="1.0"
     inkscape:pageopacity="0.0"
     inkscape:pageshadow="2"
     inkscape:zoom="4"
     inkscape:cx="32.910866"
     inkscape:cy="36.006228"
     inkscape:current-layer="layer1"
     showgrid="true"
     inkscape:grid-bbox="true"
     inkscape:document-units="px"
     inkscape:window-width="1366"
     inkscape:window-height="714"
     inkscape:window-x="0"
     inkscape:window-y="30"
     inkscape:window-maximized="1"
     showguides="true">
    <sodipodi:guide
       position="9,39"
       orientation="30,0"
       id="guide3264" />
    <sodipodi:guide
       position="9,9"
       orientation="0,30"
       id="guide3266" />
    <sodipodi:guide
       position="39,9"
       orientation="-30,0"
       id="guide3268" />
    <sodipodi:guide
       position="39,39"
       orientation="0,-30"
       id="guide3270" />
    <sodipodi:guide
       position="5,9"
       orientation="0,4"
       id="guide4122" />
    <sodipodi:guide
       position="9,9"
       orientation="-30,0"
       id="guide4124" />
    <sodipodi:guide
       position="9,39"
       orientation="0,-4"
       id="guide4126" />
    <sodipodi:guide
       position="39,39"
       orientation="30,0"
       id="guide4128" />
    <sodipodi:guide
       position="39,9"
       orientation="0,4"
       id="guide4130" />
    <sodipodi:guide
       position="43,39"
       orientation="0,-4"
       id="guide4134" />
    <sodipodi:guide
       position="20,15.999992"
       orientation="0,-11"
       id="guide4688" />
    <sodipodi:guide
       position="9,19.999992"
       orientation="0,11"
       id="guide4692" />
    <sodipodi:guide
       position="20,19.999992"
       orientation="4,0"
       id="guide4694" />
    <sodipodi:guide
       position="28,32.000009"
       orientation="0,11"
       id="guide4696" />
    <sodipodi:guide
       position="39,28.000008"
       orientation="0,-11"
       id="guide4700" />
    <sodipodi:guide
       position="28,28.000008"
       orientation="-4.000001,0"
       id="guide4702" />
  </sodipodi:namedview>
  <metadata
     id="metadata3414">
    <rdf:RDF>
      <cc:Work
         rdf:about="">
        <dc:format>image/svg+xml</dc:format>
        <dc:type
           rdf:resource="http://purl.org/dc/dcmitype/StillImage" />
        <dc:title></dc:title>
      </cc:Work>
    </rdf:RDF>
  </metadata>
  <g
     id="layer1"
     inkscape:label="Layer 1"
     inkscape:groupmode="layer">
    <rect
       style="fill:none;fill-opacity:1;fill-rule:evenodd;stroke:none"
       id="rect3260"
       width="30"
       height="30"
       x="9"
       y="9" />
    <path
       style="fill:#3498db;fill-opacity:1;fill-rule:evenodd;stroke:none"
       d="M 24 9 L 24 13 C 26.878019 13.0014 29.739216 14.185703 31.775391 16.220703 C 32.845634 17.29034 33.674392 18.59159 34.226562 20 L 38.429688 20 C 37.734643 17.521675 36.425189 15.213148 34.603516 13.392578 C 31.826415 10.617078 27.925286 9 24 9 z M 9.5683594 28 C 10.262416 30.4779 11.571188 32.784769 13.390625 34.605469 C 16.165567 37.382269 20.066877 38.9998 23.994141 39 C 27.921404 39.0002 31.825033 37.384322 34.603516 34.607422 C 36.425189 32.786852 37.734643 30.478325 38.429688 28 L 34.226562 28 C 33.674392 29.40841 32.845634 30.70966 31.775391 31.779297 C 29.737836 33.815597 26.874134 35.0002 23.994141 35 C 21.114147 34.9998 18.253707 33.813744 16.21875 31.777344 C 15.14984 30.707744 14.322492 29.408 13.771484 28 L 9.5683594 28 z "
       id="path3270" />
    <rect
       style="fill:#3498db;fill-opacity:1;fill-rule:evenodd;stroke:none"
       id="rect4125"
       width="4"
       height="11"
       x="8.999999"
       y="-39.000008"
       transform="scale(1,-1)" />
    <rect
       y="-20"
       x="-32.000008"
       height="11"
       width="4"
       id="rect4127"
       style="fill:#3498db;fill-opacity:1;fill-rule:evenodd;stroke:none"
       transform="matrix(0,-1,-1,0,0,0)" />
    <path
       style="fill:#3498db;fill-opacity:1;fill-rule:evenodd;stroke:none"
       d="M 24.005859 9 C 20.078596 8.9998 16.174967 10.615678 13.396484 13.392578 C 11.574811 15.213148 10.265357 17.521675 9.5703125 20 L 13.773438 20 C 14.325608 18.59159 15.154366 17.29034 16.224609 16.220703 C 18.262164 14.184403 21.125866 12.9998 24.005859 13 C 26.885853 13.0002 29.746293 14.186256 31.78125 16.222656 C 32.85016 17.292256 33.677508 18.592 34.228516 20 L 38.431641 20 C 37.737584 17.5221 36.428812 15.215231 34.609375 13.394531 C 31.834433 10.617731 27.933123 9.0002 24.005859 9 z M 9.5703125 28 C 10.265357 30.478325 11.574811 32.786852 13.396484 34.607422 C 16.173585 37.382922 20.074714 39 24 39 L 24 35 C 21.121981 34.9986 18.260784 33.814297 16.224609 31.779297 C 15.154366 30.70966 14.325608 29.40841 13.773438 28 L 9.5703125 28 z "
       id="path4678" />
    <rect
       transform="scale(-1,1)"
       y="8.9999914"
       x="-39"
       height="11"
       width="4"
       id="rect4680"
       style="fill:#3498db;fill-opacity:1;fill-rule:evenodd;stroke:none" />
    <rect
       transform="matrix(0,1,1,0,0,0)"
       style="fill:#3498db;fill-opacity:1;fill-rule:evenodd;stroke:none"
       id="rect4682"
       width="4"
       height="11"
       x="15.999991"
       y="28" />
  </g>
</svg>
