<svg xmlns="http://www.w3.org/2000/svg" width="48" height="48">
 <path d="M 24 9 C 15.69 9 9 15.69 9 24 C 9 32.31 15.69 39 24 39 C 32.31 39 39 32.31 39 24 C 39 15.69 32.31 9 24 9 z M 24 13 C 30.094 13 35 17.906 35 24 C 35 30.094 30.094 35 24 35 C 17.906 35 13 30.094 13 24 C 13 17.906 17.906 13 24 13 z M 18 18 L 18 23 L 20 23 L 20 18 L 18 18 z M 28 18 L 28 23 L 30 23 L 30 18 L 28 18 z M 21.5 29 L 21.5 31 L 26.5 31 L 26.5 29 L 21.5 29 z " style="fill:#4d4d4d"/>
 <path d="M 9.3222656,21 C 9.1223847,21.969899 9,22.968606 9,24 c 0,8.31 6.69,15 15,15 8.31,0 15,-6.69 15,-15 0,-1.031394 -0.122385,-2.030101 -0.322266,-3 l -4.101562,0 C 34.84682,21.953307 35,22.956837 35,24 35,30.094 30.094,35 24,35 17.906,35 13,30.094 13,24 c 0,-1.043163 0.15318,-2.046693 0.423828,-3 l -4.1015624,0 z" style="fill:#2ecc71"/>
</svg>
