<svg xmlns="http://www.w3.org/2000/svg" width="48" height="48">
 <path d="M 24 9 C 15.69 9 9 15.69 9 24 C 9 32.31 15.69 39 24 39 C 32.31 39 39 32.31 39 24 C 39 15.69 32.31 9 24 9 z M 24 13 C 30.094 13 35 17.906 35 24 C 35 30.094 30.094 35 24 35 C 17.906 35 13 30.094 13 24 C 13 17.906 17.906 13 24 13 z M 24 16 L 20 26 L 24 26 L 24 33 L 28 23 L 24 23 L 24 16 z " style="fill:#4d4d4d" fill-opacity="0.498"/>
 <path d="M 10.478516,17.519531 C 9.5405101,19.48128 9,21.672791 9,24 c 0,8.31 6.69,15 15,15 8.31,0 15,-6.69 15,-15 0,-2.327209 -0.54051,-4.51872 -1.478516,-6.480469 l -4.634765,0 C 34.211321,19.336081 35,21.569809 35,24 35,30.094 30.094,35 24,35 17.906,35 13,30.094 13,24 c 0,-2.430191 0.788679,-4.663919 2.113281,-6.480469 z" style="fill:#2ecc71"/>
</svg>
