<svg xmlns="http://www.w3.org/2000/svg" width="48" height="48">
 <path d="M 24 9 C 15.69 9 9 15.69 9 24 C 9 32.31 15.69 39 24 39 C 32.31 39 39 32.31 39 24 C 39 15.69 32.31 9 24 9 z M 24 13 C 30.094 13 35 17.906 35 24 C 35 30.094 30.094 35 24 35 C 17.906 35 13 30.094 13 24 C 13 17.906 17.906 13 24 13 z M 24 16 L 20 26 L 24 26 L 24 33 L 28 23 L 24 23 L 24 16 z " style="fill:#4d4d4d" fill-opacity="0.498"/>
 <path d="M 9.3222656 21 C 9.1223847 21.969899 9 22.968606 9 24 C 9 32.31 15.69 39 24 39 C 32.31 39 39 32.31 39 24 C 39 22.968606 38.877615 21.969899 38.677734 21 L 34.576172 21 C 34.84682 21.953307 35 22.956837 35 24 C 35 30.094 30.094 35 24 35 C 17.906 35 13 30.094 13 24 C 13 22.956837 13.15318 21.953307 13.423828 21 L 9.3222656 21 z " style="fill:#2ecc71"/>
</svg>
