<svg xmlns="http://www.w3.org/2000/svg" width="48" height="48">
 <path d="M 24 9 C 15.69 9 9 15.69 9 24 C 9 32.31 15.69 39 24 39 C 32.31 39 39 32.31 39 24 C 39 15.69 32.31 9 24 9 z M 24 13 C 30.094 13 35 17.906 35 24 C 35 30.094 30.094 35 24 35 C 17.906 35 13 30.094 13 24 C 13 17.906 17.906 13 24 13 z M 18 18 L 18 23 L 20 23 L 20 18 L 18 18 z M 28 18 L 28 23 L 30 23 L 30 18 L 28 18 z M 21.5 29 L 21.5 31 L 26.5 31 L 26.5 29 L 21.5 29 z " style="fill:#4d4d4d"/>
 <path d="M 9.8652344,29 C 11.917697,34.8334 17.44748,39 24,39 30.55252,39 36.082303,34.8334 38.134766,29 l -4.337891,0 C 31.981136,32.564507 28.289282,35 24,35 19.710718,35 16.018864,32.564507 14.203125,29 l -4.3378906,0 z" style="fill:#e74c3c"/>
</svg>
