<?xml version="1.0" encoding="UTF-8" standalone="no"?>
<!-- Created with Inkscape (http://www.inkscape.org/) -->

<svg
   xmlns:dc="http://purl.org/dc/elements/1.1/"
   xmlns:cc="http://creativecommons.org/ns#"
   xmlns:rdf="http://www.w3.org/1999/02/22-rdf-syntax-ns#"
   xmlns:svg="http://www.w3.org/2000/svg"
   xmlns="http://www.w3.org/2000/svg"
   xmlns:xlink="http://www.w3.org/1999/xlink"
   xmlns:sodipodi="http://sodipodi.sourceforge.net/DTD/sodipodi-0.dtd"
   xmlns:inkscape="http://www.inkscape.org/namespaces/inkscape"
   version="1.0"
   width="48"
   height="48"
   id="svg2"
   style="display:inline"
   inkscape:version="0.48.4 r9939"
   sodipodi:docname="gpm-primary-020-charging.svg">
  <sodipodi:namedview
     pagecolor="#ffffff"
     bordercolor="#666666"
     borderopacity="1"
     objecttolerance="10"
     gridtolerance="10"
     guidetolerance="10"
     inkscape:pageopacity="0"
     inkscape:pageshadow="2"
     inkscape:window-width="1024"
     inkscape:window-height="715"
     id="namedview26"
     showgrid="false"
     inkscape:zoom="6.9532166"
     inkscape:cx="9.8882816"
     inkscape:cy="27.893455"
     inkscape:window-x="0"
     inkscape:window-y="31"
     inkscape:window-maximized="1"
     inkscape:current-layer="svg2" />
  <defs
     id="defs4">
    <linearGradient
       id="linearGradient4081">
      <stop
         id="stop4083"
         style="stop-color:#aaaaaa;stop-opacity:1"
         offset="0" />
      <stop
         id="stop4085"
         style="stop-color:#f0f0f0;stop-opacity:1"
         offset="1" />
    </linearGradient>
    <linearGradient
       x1="39"
       y1="72"
       x2="39.196381"
       y2="24.266857"
       id="linearGradient3763"
       xlink:href="#linearGradient4081"
       gradientUnits="userSpaceOnUse" />
    <linearGradient
       x1="44"
       y1="66"
       x2="44"
       y2="30.942904"
       id="linearGradient3636"
       xlink:href="#linearGradient4081"
       gradientUnits="userSpaceOnUse" />
  </defs>
  <metadata
     id="metadata7">
    <rdf:RDF>
      <cc:Work
         rdf:about="">
        <dc:format>image/svg+xml</dc:format>
        <dc:type
           rdf:resource="http://purl.org/dc/dcmitype/StillImage" />
        <dc:title />
      </cc:Work>
    </rdf:RDF>
  </metadata>
  <path
     inkscape:connector-curvature="0"
     style="color:#000000;fill:#eeeeec;fill-opacity:1;fill-rule:evenodd;stroke:none;stroke-width:4;marker:none;visibility:visible;display:inline;overflow:visible;enable-background:accumulate"
     d="M 9.71875,33.73402 C 8.001991,34.469384 9.8763666,35.062427 9.8763666,36.006776 9.8763666,38.613669 14.582007,41 24,41 c 9.417993,0 13.404542,-2.242512 13.404542,-4.849405 0,-0.944349 2.593467,-1.681211 0.876708,-2.416575 z"
     id="rect3003"
     sodipodi:nodetypes="cssscc" />
  <path
     inkscape:connector-curvature="0"
     style="fill:#2c3e50;fill-opacity:1;stroke:none;display:inline"
     d="M 24,4 C 12.920011,4 4,12.920011 4,24 4,35.079989 12.920011,44 24,44 35.079989,44 44,35.079989 44,24 44,12.920011 35.079989,4 24,4 z m 0,3 c 9.417993,0 17,7.582007 17,17 0,9.417993 -7.582007,17 -17,17 C 14.582007,41 7,33.417993 7,24 7,14.582007 14.582007,7 24,7 z"
     id="rect4118" />
  <path
     style="fill:#2c3e50;fill-opacity:1;stroke:none;display:inline"
     d="m 19.999989,25.999759 4.000008,-10.999735 0,6.99998 4.000026,0 -4.000026,10.999947 0,-7.000192 z"
     id="path4199"
     inkscape:connector-curvature="0" />
</svg>
