<svg xmlns="http://www.w3.org/2000/svg" width="48" height="48">
 <path d="m 25.999999,24 a 2.0013857,2.0000615 0 1 1 0,0 2.0013857,2.0000615 0 1 1 0,0 z" style="fill:#800080" fill-rule="evenodd"/>
 <path d="m 25.999999,24 a 2.0013857,2.0000615 0 1 1 0,0 2.0013857,2.0000615 0 1 1 0,0 z" style="fill:#e74c3c" fill-rule="evenodd"/>
 <path d="M 23.994141 9 C 20.066877 9.0002328 16.165567 10.617701 13.390625 13.394531 C 10.852311 15.934572 9.2997975 19.417387 9.0507812 22.998047 L 13.050781 22.998047 C 13.289901 20.466346 14.42019 18.022441 16.21875 16.222656 C 18.253707 14.186314 21.114147 13.000171 23.994141 13 C 26.874134 12.999829 29.737836 14.18435 31.775391 16.220703 C 33.812945 18.257056 35 21.120118 35 24 C 35 26.879882 33.812945 29.742944 31.775391 31.779297 C 29.737836 33.81565 26.874134 35.000171 23.994141 35 C 23.661988 34.99998 23.33018 34.982902 23 34.951172 L 23 38.962891 C 23.330426 38.986908 23.66241 38.99998 23.994141 39 C 27.921404 39.000233 31.825033 37.384266 34.603516 34.607422 C 37.381999 31.830578 39 27.927112 39 24 C 39 20.072888 37.381999 16.169422 34.603516 13.392578 C 31.825033 10.615734 27.921404 8.9997672 23.994141 9 z " style="fill:#4d4d4d" fill-rule="evenodd" fill-opacity="0.498"/>
 <rect transform="matrix(0,1,-1,0,0,0)" y="-23.999" x="22.999" height="15" width="2" style="fill:#e74c3c" fill-rule="evenodd"/>
</svg>
