<svg xmlns="http://www.w3.org/2000/svg" width="48" height="48">
 <g transform="translate(0,-1004.3622)">
  <g transform="translate(0.00242376,4.8138809e-5)">
   <rect width="22" height="15" x="13" y="1028.36" style="fill:#4d4d4d" fill-rule="evenodd" rx="0"/>
   <path transform="translate(0,1004.3622)" d="M 23.5,9 C 19.345,9 16,12.345 16,16.5 l 0,7.5 4,0 0,-6.980469 0.002,0 C 20.001921,17.012848 20,17.006691 20,17 c 0,-2.216 1.784002,-4 4,-4 2.215998,0 4,1.784 4,4 0,0.0067 -0.0019,0.01285 -0.002,0.01953 l 0.002,0 0,6.98047 4,0 0,-7.5 C 32,12.345 28.655,9 24.5,9 l -1,0 z" style="fill:#4d4d4d" fill-rule="evenodd"/>
  </g>
 </g>
</svg>
