<?xml version="1.0" encoding="UTF-8" standalone="no"?>
<!-- Created with Inkscape (http://www.inkscape.org/) -->

<svg
   xmlns:dc="http://purl.org/dc/elements/1.1/"
   xmlns:cc="http://creativecommons.org/ns#"
   xmlns:rdf="http://www.w3.org/1999/02/22-rdf-syntax-ns#"
   xmlns:svg="http://www.w3.org/2000/svg"
   xmlns="http://www.w3.org/2000/svg"
   xmlns:sodipodi="http://sodipodi.sourceforge.net/DTD/sodipodi-0.dtd"
   xmlns:inkscape="http://www.inkscape.org/namespaces/inkscape"
   width="48"
   height="48"
   id="svg2"
   version="1.1"
   inkscape:version="0.48+devel r12351"
   sodipodi:docname="network-offline.svg">
  <defs
     id="defs4" />
  <sodipodi:namedview
     id="base"
     pagecolor="#ffffff"
     bordercolor="#666666"
     borderopacity="1.0"
     inkscape:pageopacity="0.0"
     inkscape:pageshadow="2"
     inkscape:zoom="4"
     inkscape:cx="2.2085469"
     inkscape:cy="32.149773"
     inkscape:document-units="px"
     inkscape:current-layer="layer1"
     showgrid="false"
     inkscape:window-width="1366"
     inkscape:window-height="714"
     inkscape:window-x="0"
     inkscape:window-y="30"
     inkscape:window-maximized="1">
    <inkscape:grid
       type="xygrid"
       id="grid3013"
       empspacing="5"
       visible="true"
       enabled="true"
       snapvisiblegridlinesonly="true" />
  </sodipodi:namedview>
  <metadata
     id="metadata7">
    <rdf:RDF>
      <cc:Work
         rdf:about="">
        <dc:format>image/svg+xml</dc:format>
        <dc:type
           rdf:resource="http://purl.org/dc/dcmitype/StillImage" />
        <dc:title></dc:title>
      </cc:Work>
    </rdf:RDF>
  </metadata>
  <g
     inkscape:label="Capa 1"
     inkscape:groupmode="layer"
     id="layer1"
     transform="translate(0,-1004.3622)">
    <path
       id="path813"
       d="m 7.1579085,1008.3622 4.2104565,0 1.33e-4,12.6315 -4.2105895,10e-5 L 7.1579085,1008.3622 z m 6.3158175,2.1054 4.210456,0 1.33e-4,18.9473 -4.210588,0 -2.105228,2.1052 0,12.6316 -4.2105905,0 0,-12.6316 -2.105228,-2.1052 -4.210589,10e-5 -1.33e-4,-18.9474 4.210589,0 0,12.6315 1.052681,0 6.3158175,0 1.052681,0 L 13.473726,1010.4676 z m 0,29.4736 0,-4.2105 27.368631,0 0,-18.9476 -21.052814,10e-5 0,-4.2105 27.368498,0 0,27.3685 -18.947452,0 1.33e-4,4.2105 5.263137,0 1.052547,4.2105 -16.842091,0 1.052681,-4.2105 5.263137,0 0,-4.2105 L 13.473726,1039.9412 Z"
       inkscape:connector-curvature="0"
       style="fill:#ffb900;fill-opacity:1;stroke-width:0.2;stroke-linejoin:round" />
  </g>
</svg>
