<svg xmlns="http://www.w3.org/2000/svg" width="48" height="48">
 <defs>
  <clipPath>
   <rect width="37.645" height="37.645" x="-14.04" y="9.434" transform="matrix(0.73100168,-0.68237566,0.73100168,0.68237566,0,0)" style="fill:#fce94f" fill-rule="evenodd" color="#000000"/>
  </clipPath>
  <clipPath>
   <rect transform="matrix(0.73100168,-0.68237566,0.73100168,0.68237566,0,0)" y="9.434" x="-14.04" height="37.645" width="37.645" style="fill:#fce94f" fill-rule="evenodd" color="#000000"/>
  </clipPath>
  <clipPath>
   <rect width="37.645" height="37.645" x="-14.04" y="9.434" transform="matrix(0.73100168,-0.68237566,0.73100168,0.68237566,0,0)" style="fill:#fce94f" fill-rule="evenodd" color="#000000"/>
  </clipPath>
 </defs>
 <rect width="4" height="4" x="22" y="35" rx="2" style="fill:#e74c3c"/>
 <path d="M 24 9 C 16.499603 9 9.7118719 11.925933 4.6953125 16.695312 L 7.5253906 19.525391 C 11.818032 15.478604 17.607689 13 24 13 C 30.392311 13 36.181968 15.478604 40.474609 19.525391 L 43.304688 16.695312 C 38.288128 11.925933 31.500397 9 24 9 z " style="fill:#e74c3c" fill-rule="evenodd"/>
 <path d="M 24 27 C 21.485469 27 19.200757 27.925682 17.447266 29.447266 L 20.287109 32.287109 C 21.307738 31.483091 22.594061 31 24 31 C 25.405939 31 26.692262 31.483091 27.712891 32.287109 L 30.552734 29.447266 C 28.799243 27.925682 26.514531 27 24 27 z " style="fill:#e74c3c"/>
 <path d="M 24 18 C 18.992745 18 14.463397 19.932265 11.076172 23.076172 L 13.90625 25.90625 C 16.568384 23.484061 20.100678 22 24 22 C 27.899322 22 31.431616 23.484061 34.09375 25.90625 L 36.923828 23.076172 C 33.536603 19.932265 29.007255 18 24 18 z " style="fill:#e74c3c"/>
</svg>
