<?xml version="1.0" encoding="UTF-8" standalone="no"?>
<!-- Created using Karbon, part of Calligra: http://www.calligra.org/karbon -->

<svg
   xmlns:dc="http://purl.org/dc/elements/1.1/"
   xmlns:cc="http://creativecommons.org/ns#"
   xmlns:rdf="http://www.w3.org/1999/02/22-rdf-syntax-ns#"
   xmlns:svg="http://www.w3.org/2000/svg"
   xmlns="http://www.w3.org/2000/svg"
   xmlns:sodipodi="http://sodipodi.sourceforge.net/DTD/sodipodi-0.dtd"
   xmlns:inkscape="http://www.inkscape.org/namespaces/inkscape"
   width="38.4pt"
   height="38.4pt"
   id="svg2"
   version="1.1"
   inkscape:version="0.48.4 r9939"
   sodipodi:docname="nm-signal-75.svg">
  <metadata
     id="metadata15">
    <rdf:RDF>
      <cc:Work
         rdf:about="">
        <dc:format>image/svg+xml</dc:format>
        <dc:type
           rdf:resource="http://purl.org/dc/dcmitype/StillImage" />
        <dc:title />
      </cc:Work>
    </rdf:RDF>
  </metadata>
  <sodipodi:namedview
     pagecolor="#ffffff"
     bordercolor="#666666"
     borderopacity="1"
     objecttolerance="10"
     gridtolerance="10"
     guidetolerance="10"
     inkscape:pageopacity="0"
     inkscape:pageshadow="2"
     inkscape:window-width="1024"
     inkscape:window-height="715"
     id="namedview13"
     showgrid="false"
     inkscape:zoom="9.8333333"
     inkscape:cx="25.333025"
     inkscape:cy="26.535057"
     inkscape:window-x="0"
     inkscape:window-y="31"
     inkscape:window-maximized="1"
     inkscape:current-layer="svg2" />
  <defs
     id="defs4">
    <clipPath
       clipPathUnits="userSpaceOnUse"
       id="clipPath3775">
      <rect
         style="color:#000000;fill:#fce94f;fill-opacity:1;fill-rule:evenodd;stroke:none;stroke-width:2.0999999;marker:none;visibility:visible;display:inline;overflow:visible;enable-background:accumulate"
         id="rect3777"
         width="37.64463"
         height="37.64463"
         x="-14.038309"
         y="9.43402"
         transform="matrix(0.73100168,-0.68237566,0.73100168,0.68237566,0,0)" />
    </clipPath>
    <clipPath
       clipPathUnits="userSpaceOnUse"
       id="clipPath3779">
      <rect
         transform="matrix(0.73100168,-0.68237566,0.73100168,0.68237566,0,0)"
         y="9.43402"
         x="-14.038309"
         height="37.64463"
         width="37.64463"
         id="rect3781"
         style="color:#000000;fill:#fce94f;fill-opacity:1;fill-rule:evenodd;stroke:none;stroke-width:2.0999999;marker:none;visibility:visible;display:inline;overflow:visible;enable-background:accumulate" />
    </clipPath>
    <clipPath
       clipPathUnits="userSpaceOnUse"
       id="clipPath3783">
      <rect
         style="color:#000000;fill:#fce94f;fill-opacity:1;fill-rule:evenodd;stroke:none;stroke-width:2.0999999;marker:none;visibility:visible;display:inline;overflow:visible;enable-background:accumulate"
         id="rect3785"
         width="37.64463"
         height="37.64463"
         x="-14.038309"
         y="9.43402"
         transform="matrix(0.73100168,-0.68237566,0.73100168,0.68237566,0,0)" />
    </clipPath>
  </defs>
  <path
     style="fill:#eeeeec;fill-opacity:1;stroke:none;display:inline"
     d="m 9.0341145,14.559282 c -0.033063,0.633867 -4.059455,9.163244 -4.059455,9.809103 4e-7,14.508373 8.4853115,18.302533 19.0253405,18.302533 10.540029,0 19.02534,-3.79416 19.02534,-18.302533 0,-0.645859 -4.02638,-9.175236 -4.05945,-9.809103 z"
     id="path3009"
     inkscape:connector-curvature="0"
     sodipodi:nodetypes="cssscc" />
  <path
     inkscape:connector-curvature="0"
     style="fill:#2c3e50;fill-opacity:1;stroke:none;display:inline"
     d="m 24,4.000001 c -11.07999,0 -19.9999999,8.92001 -19.9999999,20 0,11.07999 8.9200099,20 19.9999999,20 11.07999,0 20,-8.92001 20,-20 0,-11.07999 -8.92001,-20 -20,-20 z m 0,3 c 9.417993,0 17,7.582007 17,17 0,9.417993 -7.582007,17 -17,17 -9.417993,0 -16.9999999,-7.582007 -16.9999999,-17 0,-9.417993 7.5820069,-17 16.9999999,-17 z"
     id="rect4118" />
  <g
     id="g3016"
     style="fill:#2c3e50;fill-opacity:1">
    <path
       id="rect2995"
       d="m 23.875,16.65625 c -4.596165,0.0224 -9.103589,1.836567 -12.34375,5.375 l 2.1875,2.03125 C 19.657434,19.578312 28.198049,19.490074 34.5,24.125 l 2.21875,-2.09375 C 33.157131,18.403202 28.471165,16.633846 23.875,16.65625 z"
       style="color:#000000;fill:#2c3e50;fill-opacity:1;fill-rule:evenodd;stroke:none;stroke-width:4;marker:none;visibility:visible;display:inline;overflow:visible;enable-background:accumulate"
       inkscape:connector-curvature="0" />
    <path
       id="path3003"
       d="m 23.875,22.65625 c -3.152705,0.01537 -6.248668,0.882807 -8.9375,2.5625 l 2.78125,2.625 c 4.038869,-1.569521 8.628161,-1.576605 12.78125,0.0625 l 2.75,-2.625 c -2.892275,-1.768874 -6.152568,-2.640708 -9.375,-2.625 z"
       style="color:#000000;fill:#2c3e50;fill-opacity:1;fill-rule:evenodd;stroke:none;stroke-width:4;marker:none;visibility:visible;display:inline;overflow:visible;enable-background:accumulate"
       inkscape:connector-curvature="0" />
    <path
       id="path3008"
       d="m 23.875,28.65625 c -1.553716,0.0076 -3.104575,0.241797 -4.59375,0.65625 l 4.875,4.5625 4.75,-4.5 C 27.252956,28.894822 25.56607,28.648007 23.875,28.65625 z"
       style="color:#000000;fill:#2c3e50;fill-opacity:1;fill-rule:evenodd;stroke:none;stroke-width:4;marker:none;visibility:visible;display:inline;overflow:visible;enable-background:accumulate"
       inkscape:connector-curvature="0" />
  </g>
</svg>
