<?xml version="1.0" encoding="UTF-8" standalone="no"?>
<!-- Created with Inkscape (http://www.inkscape.org/) -->

<svg
   xmlns:dc="http://purl.org/dc/elements/1.1/"
   xmlns:cc="http://creativecommons.org/ns#"
   xmlns:rdf="http://www.w3.org/1999/02/22-rdf-syntax-ns#"
   xmlns:svg="http://www.w3.org/2000/svg"
   xmlns="http://www.w3.org/2000/svg"
   xmlns:sodipodi="http://sodipodi.sourceforge.net/DTD/sodipodi-0.dtd"
   xmlns:inkscape="http://www.inkscape.org/namespaces/inkscape"
   width="48"
   height="48"
   id="svg2"
   version="1.1"
   inkscape:version="0.48.4 r9939"
   sodipodi:docname="nm-stage01-connecting03.svg">
  <defs
     id="defs4" />
  <sodipodi:namedview
     id="base"
     pagecolor="#ffffff"
     bordercolor="#666666"
     borderopacity="1.0"
     inkscape:pageopacity="0.0"
     inkscape:pageshadow="2"
     inkscape:zoom="11.477675"
     inkscape:cx="7.8531155"
     inkscape:cy="19.998508"
     inkscape:document-units="px"
     inkscape:current-layer="layer1"
     showgrid="false"
     inkscape:window-width="1024"
     inkscape:window-height="715"
     inkscape:window-x="0"
     inkscape:window-y="31"
     inkscape:window-maximized="1">
    <inkscape:grid
       type="xygrid"
       id="grid3013"
       empspacing="5"
       visible="true"
       enabled="true"
       snapvisiblegridlinesonly="true" />
    <sodipodi:guide
       position="9,39.000017"
       orientation="30,0"
       id="guide3265" />
    <sodipodi:guide
       position="9,9.0000174"
       orientation="0,30"
       id="guide3267" />
    <sodipodi:guide
       position="39,9.0000174"
       orientation="-30,0"
       id="guide3269" />
    <sodipodi:guide
       position="39,39.000017"
       orientation="0,-30"
       id="guide3271" />
    <sodipodi:guide
       position="9,20.000017"
       orientation="11,0"
       id="guide3352" />
    <sodipodi:guide
       position="9,9.0000174"
       orientation="0,11"
       id="guide3354" />
    <sodipodi:guide
       position="20,9.0000174"
       orientation="-11,0"
       id="guide3356" />
    <sodipodi:guide
       position="20,20.000017"
       orientation="0,-11"
       id="guide3358" />
    <sodipodi:guide
       position="28,39.000017"
       orientation="11,0"
       id="guide3366" />
    <sodipodi:guide
       position="28,28.000017"
       orientation="0,11"
       id="guide3368" />
    <sodipodi:guide
       position="39,28.000017"
       orientation="-11,0"
       id="guide3370" />
    <sodipodi:guide
       position="39,39.000017"
       orientation="0,-11"
       id="guide3372" />
  </sodipodi:namedview>
  <metadata
     id="metadata7">
    <rdf:RDF>
      <cc:Work
         rdf:about="">
        <dc:format>image/svg+xml</dc:format>
        <dc:type
           rdf:resource="http://purl.org/dc/dcmitype/StillImage" />
        <dc:title></dc:title>
      </cc:Work>
    </rdf:RDF>
  </metadata>
  <g
     inkscape:label="Capa 1"
     inkscape:groupmode="layer"
     id="layer1"
     transform="translate(0,-1004.3622)">
    <path
       sodipodi:type="arc"
       style="color:#000000;fill:#eeeeec;fill-opacity:1;fill-rule:evenodd;stroke:none;stroke-width:4;marker:none;visibility:visible;display:inline;overflow:visible;enable-background:accumulate"
       id="path3002"
       sodipodi:cx="22.507568"
       sodipodi:cy="23.910429"
       sodipodi:rx="18.768291"
       sodipodi:ry="18.768291"
       d="m 41.27586,23.910429 c 0,10.365441 -8.40285,18.768291 -18.768292,18.768291 -10.365441,0 -18.7682911,-8.40285 -18.7682911,-18.768291 0,-10.365441 8.4028501,-18.7682915 18.7682911,-18.7682915 10.365442,0 18.768292,8.4028505 18.768292,18.7682915 z"
       transform="translate(2,1004.3622)" />
    <rect
       style="fill:none;fill-opacity:1;fill-rule:evenodd;stroke:none"
       id="rect3261"
       width="30"
       height="30"
       x="9"
       y="1013.3622" />
    <rect
       y="1032.3622"
       x="9"
       height="11"
       width="11"
       id="rect3348"
       style="fill:none;fill-opacity:1;fill-rule:evenodd;stroke:none" />
    <path
       sodipodi:type="arc"
       style="fill:none;fill-opacity:1;fill-rule:evenodd;stroke:none"
       id="path3340"
       sodipodi:cx="-710.19269"
       sodipodi:cy="749.63245"
       sodipodi:rx="2.0013857"
       sodipodi:ry="2.0000615"
       d="m -708.1913,749.63245 c 0,1.1046 -0.89605,2.00006 -2.00139,2.00006 -1.10533,0 -2.00138,-0.89546 -2.00138,-2.00006 0,-1.10461 0.89605,-2.00007 2.00138,-2.00007 1.10534,0 2.00139,0.89546 2.00139,2.00007 z"
       transform="matrix(0.70710678,-0.70710678,0.70710678,0.70710678,0,0)" />
    <path
       d="m -699.1913,744.13245 c 0,1.1046 -0.89605,2.00006 -2.00139,2.00006 -1.10533,0 -2.00138,-0.89546 -2.00138,-2.00006 0,-1.10461 0.89605,-2.00007 2.00138,-2.00007 1.10534,0 2.00139,0.89546 2.00139,2.00007 z"
       sodipodi:ry="2.0000615"
       sodipodi:rx="2.0013857"
       sodipodi:cy="744.13245"
       sodipodi:cx="-701.19269"
       id="path3342"
       style="fill:none;fill-opacity:1;fill-rule:evenodd;stroke:none"
       sodipodi:type="arc"
       transform="matrix(0.70710678,-0.70710678,0.70710678,0.70710678,0,0)" />
    <path
       sodipodi:type="arc"
       style="fill:none;fill-opacity:1;fill-rule:evenodd;stroke:none"
       id="path3344"
       sodipodi:cx="-719.19269"
       sodipodi:cy="744.13245"
       sodipodi:rx="2.0013857"
       sodipodi:ry="2.0000615"
       d="m -717.1913,744.13245 c 0,1.1046 -0.89605,2.00006 -2.00139,2.00006 -1.10533,0 -2.00138,-0.89546 -2.00138,-2.00006 0,-1.10461 0.89605,-2.00007 2.00138,-2.00007 1.10534,0 2.00139,0.89546 2.00139,2.00007 z"
       transform="matrix(0.70710678,-0.70710678,0.70710678,0.70710678,0,0)" />
    <rect
       style="fill:none;fill-opacity:1;fill-rule:evenodd;stroke:none"
       id="rect3362"
       width="11"
       height="11"
       x="28"
       y="1013.3622" />
    <g
       id="g3018"
       style="fill:#2c3e50;fill-opacity:1;opacity:0.6">
      <rect
         transform="matrix(0.70710678,0.70710678,0.70710678,-0.70710678,0,0)"
         ry="0"
         y="-729.40454"
         x="742.13245"
         height="11.557"
         width="4"
         id="rect3346"
         style="fill:#2c3e50;fill-opacity:1;fill-rule:evenodd;stroke:none" />
      <path
         sodipodi:nodetypes="cscsccscccc"
         inkscape:connector-curvature="0"
         id="rect3336"
         d="m 17.5625,1024.1748 -1.34375,1.3437 c -2.938029,2.938 -2.938029,7.6869 0,10.625 2.938028,2.938 7.686972,2.938 10.625,0 l 1.34375,-1.3437 -2.9375,-2.875 -1.375,1.375 c -1.335468,1.3355 -3.477032,1.3355 -4.8125,0 -1.335468,-1.3355 -1.335449,-3.477 0,-4.8125 l 1.375,-1.375 z"
         style="fill:#2c3e50;fill-opacity:1;fill-rule:evenodd;stroke:none" />
    </g>
    <g
       id="g3022"
       style="fill:#2c3e50;fill-opacity:1;opacity:0.4">
      <rect
         style="fill:#2c3e50;fill-opacity:1;fill-rule:evenodd;stroke:none"
         id="rect3360"
         width="4"
         height="11.557"
         x="742.13245"
         y="-702.53516"
         ry="0"
         transform="matrix(0.70710678,0.70710678,0.70710678,-0.70710678,0,0)" />
      <path
         sodipodi:nodetypes="ssccscsccscs"
         inkscape:connector-curvature="0"
         style="fill:#2c3e50;fill-opacity:1;fill-rule:evenodd;stroke:none"
         d="m 26.46875,1018.3935 c -1.917143,0 -3.843485,0.7184 -5.3125,2.1875 l -0.78125,0.7813 2.90625,2.9062 0.84375,-0.8437 c 1.335467,-1.3356 3.477032,-1.3343 4.8125,0 1.335468,1.3354 1.335467,3.4769 0,4.8125 l -0.84375,0.8437 2.90625,2.9063 0.78125,-0.7813 c 2.938028,-2.938 2.938028,-7.687 0,-10.625 -1.469015,-1.4691 -3.395357,-2.1875 -5.3125,-2.1875 z"
         id="path3099" />
    </g>
    <path
       inkscape:connector-curvature="0"
       style="fill:#2c3e50;fill-opacity:1;stroke:none;display:inline"
       d="m 24,1008.3622 c -11.07999,0 -19.9999999,8.92 -19.9999999,20 0,11.08 8.9200099,20 19.9999999,20 11.07999,0 20,-8.92 20,-20 0,-11.08 -8.92001,-20 -20,-20 z m 0,3 c 9.417993,0 17,7.582 17,17 0,9.418 -7.582007,17 -17,17 -9.417993,0 -16.9999999,-7.582 -16.9999999,-17 0,-9.418 7.5820069,-17 16.9999999,-17 z"
       id="rect4118" />
  </g>
</svg>
