<?xml version="1.0" encoding="UTF-8" standalone="no"?>
<!-- Generator: Adobe Illustrator 14.0.0, SVG Export Plug-In . SVG Version: 6.00 Build 43363)  -->

<svg
   xmlns:dc="http://purl.org/dc/elements/1.1/"
   xmlns:cc="http://creativecommons.org/ns#"
   xmlns:rdf="http://www.w3.org/1999/02/22-rdf-syntax-ns#"
   xmlns:svg="http://www.w3.org/2000/svg"
   xmlns="http://www.w3.org/2000/svg"
   xmlns:sodipodi="http://sodipodi.sourceforge.net/DTD/sodipodi-0.dtd"
   xmlns:inkscape="http://www.inkscape.org/namespaces/inkscape"
   id="Layer_1"
   enable-background="new 0 0 22 22"
   xml:space="preserve"
   height="48"
   viewBox="0 0 48 48"
   width="48"
   version="1.1"
   y="0px"
   x="0px"
   inkscape:version="0.48+devel r12351"
   sodipodi:docname="system-devices-panel-information.svg"><defs
   id="defs12" /><sodipodi:namedview
   pagecolor="#ffffff"
   bordercolor="#666666"
   borderopacity="1"
   objecttolerance="10"
   gridtolerance="10"
   guidetolerance="10"
   inkscape:pageopacity="0"
   inkscape:pageshadow="2"
   inkscape:window-width="1366"
   inkscape:window-height="714"
   id="namedview10"
   showgrid="false"
   inkscape:zoom="6.199614"
   inkscape:cx="18.094482"
   inkscape:cy="15.842649"
   inkscape:window-x="0"
   inkscape:window-y="30"
   inkscape:window-maximized="1"
   inkscape:current-layer="Layer_1" /><metadata
   id="metadata13"><rdf:RDF><cc:Work
       rdf:about=""><dc:format>image/svg+xml</dc:format><dc:type
         rdf:resource="http://purl.org/dc/dcmitype/StillImage" /><dc:title></dc:title></cc:Work></rdf:RDF></metadata>


<path
   id="path813"
   d="m 6.0000499,7.0001 35.9998001,0 c 1.1046,0 2,0.8954 2,2 l 10e-5,20.9998 c 0,1.1046 -0.8954,2 -2,2 l -14.9999,0 0,5 4,0 c 1.1046,0 2,0.8954 2,2 l 0,2 -18,0 0,-2 c 0,-1.1046 0.8955,-2 2,-2 l 4,0 0,-5 -15.0000001,0 c -1.1046,0 -2,-0.8954 -2,-2 l 0,-20.9998 C 4.0000499,7.8955 4.8954499,7.0001 6.0000499,7.0001 z m 1,3 0,18.9998 33.9999001,0 -10e-5,-18.9998 L 7.0000499,10.0001 Z"
   inkscape:connector-curvature="0"
   style="fill:#00ccff;fill-opacity:1;stroke-width:0.2;stroke-linejoin:round" /></svg>