<svg xmlns="http://www.w3.org/2000/svg" width="48" height="48">
 <g transform="translate(0,-1004.3622)">
  <rect y="1039.36" x="9" height="4" width="30" style="fill:#4d4d4d" fill-rule="evenodd"/>
  <rect y="1031.36" x="22" height="8" width="4" style="fill:#4d4d4d" fill-rule="evenodd"/>
  <path d="M 22 9 C 17.014 9 13 13.014 13 18 C 13 22.986 17.014 27 22 27 L 26 27 C 30.986 27 35 22.986 35 18 C 35 13.014 30.986 9 26 9 L 22 9 z M 22 13 L 26 13 C 28.77 13 31 15.23 31 18 C 31 20.77 28.77 23 26 23 L 22 23 C 19.23 23 17 20.77 17 18 C 17 15.23 19.23 13 22 13 z " transform="translate(0,1004.3622)" style="fill:#4d4d4d" fill-rule="evenodd"/>
 </g>
</svg>
