<svg xmlns="http://www.w3.org/2000/svg" height="48" width="48">
 <path d="M 17.996094,9 C 15.639736,9.0001397 13.299731,9.9706197 11.634766,11.636719 9.9697984,13.302817 9,15.643996 9,18 9,19.37721 9.3429984,20.743472 9.9511719,21.978516 9.0984643,22.406955 8.3095597,22.961466 7.6347656,23.636719 5.9698004,25.302817 5,27.643996 5,30 5,32.356004 5.9698004,34.697183 7.6347656,36.363281 9.0641384,37.793627 10.992362,38.706353 13,38.9375 L 13,39 l 0.996094,0 20,0 L 35,39 l 0,-0.06445 c 2.005181,-0.232535 3.932023,-1.143804 5.361328,-2.572266 C 42.028465,34.697175 43,32.356267 43,30 c 0,-2.356267 -0.971582,-4.697175 -2.638672,-6.363281 -1.44332,-1.44247 -3.393535,-2.360798 -5.419922,-2.582031 l -0.002,0 c -0.0024,-0.0019 -0.0034,-0.006 -0.0059,-0.0078 0.08531,-0.512611 0.140625,-1.030713 0.140625,-1.550781 0,-2.53925 -1.043429,-5.061738 -2.837891,-6.857422 -1.794463,-1.795683 -4.317792,-2.841646 -6.857422,-2.841797 -0.964969,-5.72e-5 -1.923129,0.1632504 -2.84375,0.451172 C 21.161934,9.4497753 19.584935,8.9999058 17.996094,9 Z m 0.002,4 c 1.262177,-7.5e-5 2.467947,0.55307 3.378906,1.419922 0.0012,-7.88e-4 0.0027,-0.0012 0.0039,-0.002 2.33e-4,0.0019 -2.33e-4,0.0039 0,0.0059 0,0 0.169752,-0.0033 0.205079,-0.0059 0.964334,-0.678971 2.106944,-1.089774 3.292968,-1.089844 3.125448,-1.85e-4 5.972657,2.843423 5.972656,5.96875 -0.250523,1.166075 -0.220138,2.085861 -0.01758,3.154297 0.0027,-1.76e-4 0.0051,-0.0018 0.0078,-0.002 0.581107,1.432425 2.001092,2.537204 3.560547,2.568359 -7.56e-4,0.0019 -0.0012,0.0039 -0.002,0.0059 C 36.855462,25.250698 39,27.516773 39,30 c 0,2.617423 -2.382593,4.998968 -5,5 l -7.476562,0 -5.048829,0 -7.476562,0 C 11.379871,34.999845 9,32.617783 9,30 c 0,-2.133112 1.588051,-4.085525 3.589844,-4.744141 1.253308,-0.08007 2.363281,-1.221735 2.363281,-2.484375 0,-0.712639 -0.359754,-1.382006 -0.892578,-1.851562 C 13.414855,20.077757 13,19.066054 13,18 c 0,-2.617783 2.379871,-4.999845 4.998047,-5 z" style="fill:#4d4d4d" fill-rule="evenodd"/>
 <rect transform="matrix(-0.70710678,-0.70710678,-0.70710678,0.70710678,0,0)" width="4" height="11.557" x="-35.941" y="-5.779" style="fill:#4d4d4d" rx="0"/>
 <rect y="-39.72" x="-2" height="11.557" width="4" transform="matrix(-0.70710678,0.70710678,-0.70710678,-0.70710678,0,0)" style="fill:#4d4d4d" rx="0"/>
</svg>
