<svg xmlns="http://www.w3.org/2000/svg" width="48" height="48">
 <g>
  <path d="M 24 4 C 12.920011 4 4 12.920011 4 24 C 4 35.079989 12.920011 44 24 44 C 35.079989 44 44 35.079989 44 24 C 44 12.920011 35.079989 4 24 4 z M 24 7 C 33.417993 7 41 14.582007 41 24 C 41 33.417993 33.417993 41 24 41 C 14.582007 41 7 33.417993 7 24 C 7 14.582007 14.582007 7 24 7 z " style="fill:#2c3e50"/>
  <g transform="matrix(1,0,0,0.92333126,0,2.4533996)" style="fill:#2c3e50">
   <path d="m 12.03125,16.03125 0,15.96875 24.28125,0 0,-15.96875 -0.03125,0 -12.0625,8.625 -12.1875,-8.625 z" fill-rule="evenodd" color="#000000"/>
   <path d="m 11.976621,14.707095 24.340582,0 -12.098796,8.665486 z" fill-rule="evenodd" color="#000000"/>
  </g>
 </g>
</svg>
