<?xml version="1.0" encoding="UTF-8" standalone="no"?>
<!-- Created with Inkscape (http://www.inkscape.org/) -->

<svg
   xmlns:dc="http://purl.org/dc/elements/1.1/"
   xmlns:cc="http://creativecommons.org/ns#"
   xmlns:rdf="http://www.w3.org/1999/02/22-rdf-syntax-ns#"
   xmlns:svg="http://www.w3.org/2000/svg"
   xmlns="http://www.w3.org/2000/svg"
   xmlns:sodipodi="http://sodipodi.sourceforge.net/DTD/sodipodi-0.dtd"
   xmlns:inkscape="http://www.inkscape.org/namespaces/inkscape"
   width="22"
   height="22"
   viewBox="0 0 22 22"
   id="svg2"
   version="1.1"
   inkscape:version="0.91 r13725"
   sodipodi:docname="amarok_artist.svg">
  <defs
     id="defs3051">
    <style
       type="text/css"
       id="current-color-scheme">
      .ColorScheme-Text {
        color:#4d4d4d;
      }
      </style>
  </defs>
  <sodipodi:namedview
     id="base"
     pagecolor="#ffffff"
     bordercolor="#666666"
     borderopacity="1.0"
     inkscape:pageopacity="0.0"
     inkscape:pageshadow="2"
     inkscape:zoom="32"
     inkscape:cx="11.95813"
     inkscape:cy="13.887108"
     inkscape:document-units="px"
     inkscape:current-layer="layer1"
     showgrid="true"
     units="px"
     inkscape:showpageshadow="false"
     borderlayer="true"
     showguides="true"
     inkscape:guide-bbox="true"
     inkscape:window-width="2560"
     inkscape:window-height="1050"
     inkscape:window-x="0"
     inkscape:window-y="0"
     inkscape:window-maximized="1">
    <inkscape:grid
       type="xygrid"
       id="grid4136"
       empspacing="2" />
    <sodipodi:guide
       position="0,20"
       orientation="0,1"
       id="guide4140"
       inkscape:label="Icon Max Height"
       inkscape:color="rgb(233,30,99)" />
    <sodipodi:guide
       position="0,2"
       orientation="0,1"
       id="guide4142"
       inkscape:label="Icon Baseline"
       inkscape:color="rgb(233,30,99)" />
    <sodipodi:guide
       position="11,0"
       orientation="1,0"
       id="guide4144"
       inkscape:label="Center Vertical"
       inkscape:color="rgb(221,44,0)" />
    <sodipodi:guide
       position="15,11"
       orientation="0,1"
       id="guide4146"
       inkscape:label="Center Horizontal"
       inkscape:color="rgb(221,44,0)" />
  </sodipodi:namedview>
  <metadata
     id="metadata7">
    <rdf:RDF>
      <cc:Work
         rdf:about="">
        <dc:format>image/svg+xml</dc:format>
        <dc:type
           rdf:resource="http://purl.org/dc/dcmitype/StillImage" />
        <dc:title />
      </cc:Work>
    </rdf:RDF>
  </metadata>
  <g
     inkscape:label="Capa 1"
     inkscape:groupmode="layer"
     id="layer1"
     transform="translate(0,-1030.3622)">
    <path
       style="fill:currentColor;fill-opacity:1;stroke:none" class="ColorScheme-Text"
       d="M 12.720703 3.7089844 C 11.440825 3.7984561 10.227656 4.5017344 9.5351562 5.7011719 L 6.5351562 10.898438 C 5.4271562 12.817538 6.0808877 15.253328 8 16.361328 C 8.6328209 16.726687 9.3207766 16.884619 10 16.884766 L 10 18 L 9 18 C 8.4460048 18 8 18.446005 8 19 C 8 19.553995 8.4460048 20 9 20 L 13 20 C 13.553995 20 14 19.553995 14 19 C 14 18.446005 13.553995 18 13 18 L 12 18 L 12 16.345703 C 12.584952 16.006094 13.101055 15.528534 13.464844 14.898438 L 16.464844 9.7011719 C 17.572844 7.7820719 16.919112 5.3462812 15 4.2382812 C 14.280333 3.8227813 13.48863 3.6553014 12.720703 3.7089844 z M 12.859375 5.7050781 C 13.243338 5.6782393 13.640166 5.7629531 14 5.9707031 C 14.959556 6.5247031 15.286422 7.7416719 14.732422 8.7011719 L 12.9375 11.810547 L 9.4746094 9.8085938 L 11.267578 6.7011719 C 11.613828 6.1014844 12.219436 5.7498096 12.859375 5.7050781 z M 8.4746094 11.541016 L 11.9375 13.542969 L 11.732422 13.898438 C 11.178422 14.857937 9.9595561 15.184859 9 14.630859 C 8.0404439 14.076859 7.7135781 12.857937 8.2675781 11.898438 L 8.4746094 11.541016 z "
       transform="translate(0,1030.3622)"
       id="rect4140" />
  </g>
</svg>
