<?xml version="1.0" standalone="no"?>
<!DOCTYPE svg PUBLIC "-//W3C//DTD SVG 20010904//EN" "http://www.w3.org/TR/2001/REC-SVG-20010904/DTD/svg10.dtd">
<!-- Created using Karbon, part of Calligra: http://www.calligra.org/karbon -->
<svg xmlns="http://www.w3.org/2000/svg" xmlns:xlink="http://www.w3.org/1999/xlink" width="38.4pt" height="38.4pt">
<defs/>
<g id="layer1">
  <path id="shape01" transform="translate(7.59632, 31.552)" fill="none" stroke="#34495e" stroke-width="1.24015962875" stroke-linecap="square" stroke-linejoin="bevel" d="M0 0C2.81796 9.29487 8.98349 12.3001 14.4762 11.7551"/>
  <path id="shape11" transform="matrix(0.726951 0.68669 -0.68669 0.726951 25.4491 41.6569)" fill="none" stroke="#4d4d4d" stroke-width="2.51575238975" stroke-linecap="square" stroke-linejoin="bevel" d="M1.5348 0L0 1.89694"/>
  <path id="shape0" transform="translate(6.35586, 4.51819)" fill="none" stroke="#34495e" stroke-width="3.72047888625" stroke-linecap="square" stroke-linejoin="miter" stroke-miterlimit="2.00000000000" d="M33.3993 25.1525C36.5989 15.2897 32.7489 7.36043 26.8945 3.17781C21.0399 -1.00481 13.2544 -1.0634 7.33966 3.03064C1.42505 7.12469 -1.86985 14.7439 1.12509 24.7366"/>
  <path id="shape011" transform="translate(35.7961, 23.8938)" fill="#34495e" fill-rule="evenodd" stroke="#003bc3" stroke-width="0.00000000000" stroke-linecap="square" stroke-linejoin="miter" stroke-miterlimit="2.00000000000" d="M0 11.1367C3.37697 11.8508 6.63915 9.94825 7.29657 6.88138C7.95397 3.81451 5.75908 0.73792 2.38724 0"/>
  <path id="shape111" transform="translate(4.31154, 23.652)" fill="#34495e" fill-rule="evenodd" stroke="#003bc3" stroke-width="0.00000000000" stroke-linecap="square" stroke-linejoin="miter" stroke-miterlimit="2.00000000000" d="M7.41291 11.1367C4.03594 11.8508 0.77376 9.94825 0.116344 6.88138C-0.54106 3.81451 1.65383 0.73792 5.02567 0"/>
  <rect id="shape01" transform="matrix(0.977366 -0.211555 0.211555 0.977366 8.87031 21.6364)" fill="#001424" fill-rule="evenodd" stroke="#34495e" stroke-width="0.00000000000" stroke-linecap="square" stroke-linejoin="miter" stroke-miterlimit="2.00000000000" width="4.77478174948pt" height="12.61406891887pt" rx="1.94664179017pt" ry="1.85707125750pt"/>
  <rect id="shape1" transform="matrix(-0.977366 -0.211555 -0.211555 0.977366 38.6653 21.8727)" fill="#001424" fill-rule="evenodd" stroke="#34495e" stroke-width="0.00000000000" stroke-linecap="square" stroke-linejoin="miter" stroke-miterlimit="2.00000000000" width="4.83157043255pt" height="12.61406891887pt" rx="1.96979409943pt" ry="1.85707125750pt"/>
 </g>
</svg>
