<?xml version="1.0" standalone="no"?>
<!DOCTYPE svg PUBLIC "-//W3C//DTD SVG 20010904//EN" "http://www.w3.org/TR/2001/REC-SVG-20010904/DTD/svg10.dtd">
<!-- Created using Karbon, part of Calligra: http://www.calligra.org/karbon -->
<svg xmlns="http://www.w3.org/2000/svg" xmlns:xlink="http://www.w3.org/1999/xlink" width="38.4pt" height="38.4pt">
<defs/>
<g id="layer1">
  <rect id="shape0" transform="translate(18.5485, 7.18277)" fill="#c4cbcf" fill-rule="evenodd" stroke="#003bc3" stroke-width="0.00000000000" stroke-linecap="square" stroke-linejoin="miter" stroke-miterlimit="2.01260185242" width="8.27086080080pt" height="19.35333517991pt" rx="2.64586333245pt" ry="2.64586333245pt"/>
  <path id="shape01" transform="translate(16.6844, 42.3114)" fill="#34495e" fill-rule="evenodd" stroke="#4c4c4c" stroke-width="0.00000000000" stroke-linecap="square" stroke-linejoin="bevel" d="M0 3.87018L14.4244 3.97902C7.9964 -2.69765 3.92181 0.273098 0 3.87018Z"/>
  <path id="shape1" transform="translate(23.8204, 37.4045)" fill="none" stroke="#34495e" stroke-width="3.11811563800" stroke-linecap="square" stroke-linejoin="miter" stroke-miterlimit="2.01260185242" d="M0 0L0.038482 5.19507"/>
  <path id="shape2" transform="translate(13.6892, 26.1224)" fill="none" stroke="#34495e" stroke-width="3.11811563800" stroke-linecap="square" stroke-linejoin="miter" stroke-miterlimit="2.01260185242" d="M0.000173742 0C-0.0167672 3.678 1.2036 7.17282 4.35541 9.0217C7.50722 10.8706 13.5686 10.598 16.7289 8.76392C19.8892 6.92984 20.3788 3.7258 20.3788 0.0477619"/>
  <path id="shape01" transform="translate(18.5495, 16.4132)" fill="#c4cbcf" fill-rule="evenodd" stroke="#a8b2b8" stroke-width="1.24015962875" stroke-linecap="butt" stroke-linejoin="bevel" d="M0 0L3.923 0"/>
  <path id="shape11" transform="translate(18.5515, 18.945)" fill="#c4cbcf" fill-rule="evenodd" stroke="#a8b2b8" stroke-width="1.24015962875" stroke-linecap="butt" stroke-linejoin="bevel" d="M0 0L3.923 0"/>
  <path id="shape21" transform="translate(18.558, 21.4297)" fill="#c4cbcf" fill-rule="evenodd" stroke="#a8b2b8" stroke-width="1.24015962875" stroke-linecap="butt" stroke-linejoin="bevel" d="M0 0L3.923 0"/>
  <path id="shape02" transform="translate(25.0937, 16.364)" fill="#c4cbcf" fill-rule="evenodd" stroke="#a8b2b8" stroke-width="1.24015962875" stroke-linecap="butt" stroke-linejoin="bevel" d="M0 0L3.75002 0"/>
  <path id="shape12" transform="translate(25.0956, 18.8958)" fill="#c4cbcf" fill-rule="evenodd" stroke="#a8b2b8" stroke-width="1.24015962875" stroke-linecap="butt" stroke-linejoin="bevel" d="M0 0L3.75002 0"/>
  <path id="shape22" transform="translate(25.1018, 21.3805)" fill="#c4cbcf" fill-rule="evenodd" stroke="#a8b2b8" stroke-width="1.24015962875" stroke-linecap="butt" stroke-linejoin="bevel" d="M0 0L3.75002 0"/>
  <path id="shape03" transform="matrix(-4.16334e-16 1 -1 -4.16334e-16 25.0836 7.23795)" fill="#c4cbcf" fill-rule="evenodd" stroke="#a8b2b8" stroke-width="1.24015962875" stroke-linecap="butt" stroke-linejoin="bevel" d="M0 0L3.75002 0"/>
  <path id="shape13" transform="matrix(-4.16334e-16 1 -1 -4.16334e-16 22.5518 7.23987)" fill="#c4cbcf" fill-rule="evenodd" stroke="#a8b2b8" stroke-width="1.24015962875" stroke-linecap="butt" stroke-linejoin="bevel" d="M0 0L3.75002 0"/>
  <path id="shape04" transform="translate(18.5491, 13.945)" fill="#c4cbcf" fill-rule="evenodd" stroke="#a8b2b8" stroke-width="1.24015962875" stroke-linecap="butt" stroke-linejoin="bevel" d="M0 0L3.923 0"/>
  <path id="shape05" transform="translate(25.0933, 13.8958)" fill="#c4cbcf" fill-rule="evenodd" stroke="#a8b2b8" stroke-width="1.24015962875" stroke-linecap="butt" stroke-linejoin="bevel" d="M0 0L3.75002 0"/>
  <path id="shape06" transform="translate(18.5491, 23.8488)" fill="#c4cbcf" fill-rule="evenodd" stroke="#a8b2b8" stroke-width="1.24015962875" stroke-linecap="butt" stroke-linejoin="bevel" d="M0 0L3.923 0"/>
  <path id="shape07" transform="translate(25.0933, 23.7996)" fill="#c4cbcf" fill-rule="evenodd" stroke="#a8b2b8" stroke-width="1.24015962875" stroke-linecap="butt" stroke-linejoin="bevel" d="M0 0L3.75002 0"/>
  <path id="shape08" transform="translate(25.0247, 27.554)" fill="#c4cbcf" fill-rule="evenodd" stroke="#a8b2b8" stroke-width="1.24015962875" stroke-linecap="butt" stroke-linejoin="bevel" d="M0 0L0 3.75002"/>
  <path id="shape14" transform="translate(22.4929, 27.5559)" fill="#c4cbcf" fill-rule="evenodd" stroke="#a8b2b8" stroke-width="1.24015962875" stroke-linecap="butt" stroke-linejoin="bevel" d="M0 0L0 3.75002"/>
 </g>
</svg>
