<?xml version="1.0" standalone="no"?>
<!DOCTYPE svg PUBLIC "-//W3C//DTD SVG 20010904//EN" "http://www.w3.org/TR/2001/REC-SVG-20010904/DTD/svg10.dtd">
<!-- Created using Karbon, part of Calligra: http://www.calligra.org/karbon -->
<svg xmlns="http://www.w3.org/2000/svg" xmlns:xlink="http://www.w3.org/1999/xlink" width="38.4pt" height="38.4pt">
<defs/>
<g id="layer1">
  <path id="shape0" transform="translate(6.46498, 4.80101)" fill="none" stroke="#34495e" stroke-width="3.72047888625" stroke-linecap="square" stroke-linejoin="miter" stroke-miterlimit="2.01260191180" d="M33.6131 25.0761C36.8333 15.2433 32.9586 7.33808 27.0667 3.16816C21.1746 -1.00176 13.3392 -1.06017 7.38666 3.02144C1.43417 7.10306 -1.88183 14.6991 1.13229 24.6615"/>
  <path id="shape01" transform="matrix(0.213788 -0.97688 0.97688 0.213788 35.8575 35.3029)" fill="#34495e" fill-rule="evenodd" stroke="#003bc3" stroke-width="0.00000000000" stroke-linecap="square" stroke-linejoin="miter" stroke-miterlimit="2.01260185242" d="M0 0.0487904C0.0243016 3.49564 2.56453 6.27189 5.68175 6.25846C8.79897 6.24502 11.3196 3.44695 11.3196 -1.10127e-17"/>
  <path id="shape11" transform="matrix(-0.213788 -0.97688 -0.97688 0.213788 11.8813 35.0611)" fill="#34495e" fill-rule="evenodd" stroke="#003bc3" stroke-width="0.00000000000" stroke-linecap="square" stroke-linejoin="miter" stroke-miterlimit="2.00000000000" d="M0 0.0487904C0.0243016 3.49564 2.56453 6.27189 5.68175 6.25846C8.79897 6.24502 11.3196 3.44695 11.3196 4.22668e-16"/>
  <rect id="shape0" transform="matrix(0.977366 -0.211555 0.211555 0.977366 8.97943 21.9192)" fill="#001424" fill-rule="evenodd" stroke="#34495e" stroke-width="0.00000000000" stroke-linecap="square" stroke-linejoin="miter" stroke-miterlimit="2.01260191180" width="4.77478174948pt" height="12.61406891887pt" rx="1.94664179017pt" ry="1.85707125750pt"/>
  <rect id="shape1" transform="matrix(-0.977366 -0.211555 -0.211555 0.977366 38.7744 22.1555)" fill="#001424" fill-rule="evenodd" stroke="#34495e" stroke-width="0.00000000000" stroke-linecap="square" stroke-linejoin="miter" stroke-miterlimit="2.00000000000" width="4.83157043255pt" height="12.61406891887pt" rx="1.96979409943pt" ry="1.85707125750pt"/>
 </g>
</svg>
