<?xml version="1.0" standalone="no"?>
<!DOCTYPE svg PUBLIC "-//W3C//DTD SVG 20010904//EN" "http://www.w3.org/TR/2001/REC-SVG-20010904/DTD/svg10.dtd">
<!-- Created using Karbon, part of Calligra: http://www.calligra.org/karbon -->
<svg xmlns="http://www.w3.org/2000/svg" xmlns:xlink="http://www.w3.org/1999/xlink" width="38.4pt" height="38.4pt">
<defs/>
<g id="layer1">
  <rect id="shape0" transform="translate(13.351, 14.6395)" fill="#050024" fill-rule="evenodd" stroke="#003bc3" stroke-width="0.00000000000" stroke-linecap="square" stroke-linejoin="miter" stroke-miterlimit="2.01260185242" width="13.54962977240pt" height="13.54962977240pt"/>
  <path id="shape1" transform="translate(6.6189, 17.5109)" fill="none" stroke="#ff9e22" stroke-width="1.87795600925" stroke-linecap="square" stroke-linejoin="bevel" d="M0 0L4.9257 0"/>
  <path id="shape2" transform="translate(6.6189, 21.2052)" fill="none" stroke="#ff9e22" stroke-width="1.87795600925" stroke-linecap="square" stroke-linejoin="bevel" d="M0 0L4.9257 0"/>
  <path id="shape3" transform="translate(6.6189, 25.0149)" fill="none" stroke="#ff9e22" stroke-width="1.87795600925" stroke-linecap="square" stroke-linejoin="bevel" d="M0 0L4.9257 0"/>
  <path id="shape4" transform="translate(6.6189, 28.7477)" fill="none" stroke="#ff9e22" stroke-width="1.87795600925" stroke-linecap="square" stroke-linejoin="bevel" d="M0 0L4.9257 0"/>
  <path id="shape5" transform="translate(32.2038, 17.5653)" fill="none" stroke="#ff9e22" stroke-width="1.87795600925" stroke-linecap="square" stroke-linejoin="bevel" d="M0 0L4.9257 0"/>
  <path id="shape6" transform="translate(32.2038, 21.2596)" fill="none" stroke="#ff9e22" stroke-width="1.87795600925" stroke-linecap="square" stroke-linejoin="bevel" d="M0 0L4.9257 0"/>
  <path id="shape7" transform="translate(32.2038, 25.0693)" fill="none" stroke="#ff9e22" stroke-width="1.87795600925" stroke-linecap="square" stroke-linejoin="bevel" d="M0 0L4.9257 0"/>
  <path id="shape8" transform="translate(32.2038, 28.802)" fill="none" stroke="#ff9e22" stroke-width="1.87795600925" stroke-linecap="square" stroke-linejoin="bevel" d="M0 0L4.9257 0"/>
  <path id="shape9" transform="matrix(0 1 -1 0 27.4415 7.82287)" fill="none" stroke="#ff9e22" stroke-width="1.87795600925" stroke-linecap="square" stroke-linejoin="bevel" d="M0 0L4.9257 0"/>
  <path id="shape10" transform="matrix(0 1 -1 0 23.7472 7.82286)" fill="none" stroke="#ff9e22" stroke-width="1.87795600925" stroke-linecap="square" stroke-linejoin="bevel" d="M0 0L4.9257 0"/>
  <path id="shape11" transform="matrix(0 1 -1 0 19.9375 7.82286)" fill="none" stroke="#ff9e22" stroke-width="1.87795600925" stroke-linecap="square" stroke-linejoin="bevel" d="M0 0L4.9257 0"/>
  <path id="shape12" transform="matrix(0 1 -1 0 16.2048 7.82286)" fill="none" stroke="#ff9e22" stroke-width="1.87795600925" stroke-linecap="square" stroke-linejoin="bevel" d="M0 0L4.9257 0"/>
  <path id="shape13" transform="translate(27.3739, 33.2114)" fill="none" stroke="#ff9e22" stroke-width="1.87795600925" stroke-linecap="square" stroke-linejoin="bevel" d="M0 0L0 4.9257"/>
  <path id="shape14" transform="translate(23.6796, 33.2114)" fill="none" stroke="#ff9e22" stroke-width="1.87795600925" stroke-linecap="square" stroke-linejoin="bevel" d="M0 0L0 4.9257"/>
  <path id="shape15" transform="translate(19.8699, 33.2114)" fill="none" stroke="#ff9e22" stroke-width="1.87795600925" stroke-linecap="square" stroke-linejoin="bevel" d="M0 0L0 4.9257"/>
  <path id="shape16" transform="translate(16.1371, 33.2114)" fill="none" stroke="#ff9e22" stroke-width="1.87795600925" stroke-linecap="square" stroke-linejoin="bevel" d="M0 0L0 4.9257"/>
 </g>
</svg>
