<?xml version="1.0" standalone="no"?>
<!DOCTYPE svg PUBLIC "-//W3C//DTD SVG 20010904//EN" "http://www.w3.org/TR/2001/REC-SVG-20010904/DTD/svg10.dtd">
<!-- Created using Karbon, part of Calligra: http://www.calligra.org/karbon -->
<svg xmlns="http://www.w3.org/2000/svg" xmlns:xlink="http://www.w3.org/1999/xlink" width="38.4pt" height="38.4pt">
<defs/>
<g id="layer1">
  <rect id="shape0" transform="translate(5.95135, 1.74209)" fill="#000f24" fill-rule="evenodd" stroke="#003bc3" stroke-width="0.00000000000" stroke-linecap="square" stroke-linejoin="miter" stroke-miterlimit="2.01260191180" width="29.26421671304pt" height="33.97539206305pt"/>
  <path id="path4064" transform="translate(8.98286, 5.03883)" fill="#e6e6e6" stroke="#000f24" stroke-width="3.13654086677" stroke-linecap="butt" stroke-linejoin="miter" stroke-miterlimit="0.00000000000" d="M15.557 0.000160803C7.03192 -0.0382634 0.0774327 6.81432 0.000640086 15.3393C-0.0761532 23.8642 6.76661 30.8535 15.2908 30.9687C23.8151 31.0839 30.8146 24.2987 30.9681 15.7748L30.9681 15.4844C30.9681 6.95905 24.0819 0.0384882 15.557 0.000160803ZM15.5086 13.2102C16.7166 13.2102 17.686 14.1796 17.686 15.3877C17.686 16.5956 16.7166 17.5893 15.5086 17.5893C14.3006 17.5893 13.3312 16.5956 13.3312 15.3877C13.3312 14.1796 14.3006 13.2102 15.5086 13.2102Z"/>
  <path id="shape1" transform="matrix(0.707107 -0.707107 0.707107 0.707107 15.1305 23.1748)" fill="none" stroke="#ffffff" stroke-width="8.12091958038" stroke-linecap="butt" stroke-linejoin="miter" stroke-miterlimit="2.01260191180" d="M1.14578 0C0.606001 0.852149 0.218312 1.79157 0 2.77639"/>
  <path id="shape2" transform="matrix(0.999403 0.0345535 -0.0345535 0.999403 23.6691 25.7296)" fill="#e6e6e6" fill-rule="evenodd" stroke="#000f24" stroke-width="1.26248250207" stroke-linecap="square" stroke-linejoin="miter" stroke-miterlimit="2.01260191180" d="M7.88845 12.0608C6.14763 9.39703 -0.677642 0.893739 0.0547662 0.0737589C0.787174 -0.746221 10.0366 5.5081 12.8885 7.06076C19.7416 10.9744 12.5772 18.5085 7.88845 12.0608Z"/>
  <path id="shape3" transform="translate(38.9861, 2.85205)" fill="#e6e6e6" fill-rule="evenodd" stroke="#4c4c4c" stroke-width="0.00000000000" stroke-linecap="square" stroke-linejoin="miter" stroke-miterlimit="2.01260191180" d="M2.6086 1.10331C2.49617 0.407825 1.85477 -0.0748927 1.15534 0.00958915C0.4559 0.094071 -0.0521226 0.715622 0.00427406 1.41788C0.0606707 2.12014 0.661373 2.65265 1.36533 2.62443C2.06928 2.59621 2.62543 2.01732 2.62543 1.3128"/>
  <path id="shape4" transform="translate(6.8621, 2.87454)" fill="#e6e6e6" fill-rule="evenodd" stroke="#4c4c4c" stroke-width="0.00000000000" stroke-linecap="square" stroke-linejoin="miter" stroke-miterlimit="2.00000000000" d="M2.6086 1.10331C2.49617 0.407825 1.85477 -0.0748927 1.15534 0.00958915C0.4559 0.094071 -0.0521226 0.715622 0.00427406 1.41788C0.0606707 2.12014 0.661373 2.65265 1.36533 2.62443C2.06928 2.59621 2.62543 2.01732 2.62543 1.3128"/>
  <path id="shape5" transform="translate(6.73477, 40.6673)" fill="#e6e6e6" fill-rule="evenodd" stroke="#4c4c4c" stroke-width="0.00000000000" stroke-linecap="square" stroke-linejoin="miter" stroke-miterlimit="2.00000000000" d="M2.6086 1.10331C2.49617 0.407825 1.85477 -0.0748927 1.15534 0.00958915C0.4559 0.094071 -0.0521226 0.715622 0.00427406 1.41788C0.0606707 2.12014 0.661373 2.65265 1.36533 2.62443C2.06928 2.59621 2.62543 2.01732 2.62543 1.3128"/>
  <path id="shape6" transform="translate(39.2682, 40.8583)" fill="#e6e6e6" fill-rule="evenodd" stroke="#4c4c4c" stroke-width="0.00000000000" stroke-linecap="square" stroke-linejoin="miter" stroke-miterlimit="2.00000000000" d="M2.6086 1.10331C2.49617 0.407825 1.85477 -0.0748927 1.15534 0.00958915C0.4559 0.094071 -0.0521226 0.715622 0.00427406 1.41788C0.0606707 2.12014 0.661373 2.65265 1.36533 2.62443C2.06928 2.59621 2.62543 2.01732 2.62543 1.3128"/>
  <path id="shape7" transform="translate(32.7478, 34.6285)" fill="#000824" fill-rule="evenodd" stroke="#4c4c4c" stroke-width="0.00000000000" stroke-linecap="square" stroke-linejoin="miter" stroke-miterlimit="2.00000000000" d="M4.68609 1.9488C4.48412 0.720346 3.33191 -0.132284 2.07544 0.0169374C0.818978 0.166159 -0.0936329 1.26401 0.00767792 2.50442C0.108989 3.74483 1.18809 4.68541 2.45267 4.63556C3.71725 4.58572 4.71631 3.56322 4.71631 2.31882"/>
  <path id="shape8" transform="matrix(-0.707107 0.707107 -0.707107 -0.707107 33.7017 17.4789)" fill="none" stroke="#ffffff" stroke-width="8.12091958038" stroke-linecap="butt" stroke-linejoin="miter" stroke-miterlimit="2.00000000000" d="M1.14578 0C0.606001 0.852149 0.218312 1.79157 0 2.77639"/>
 </g>
</svg>
