<?xml version="1.0" standalone="no"?>
<!DOCTYPE svg PUBLIC "-//W3C//DTD SVG 20010904//EN" "http://www.w3.org/TR/2001/REC-SVG-20010904/DTD/svg10.dtd">
<!-- Created using Karbon, part of Calligra: http://www.calligra.org/karbon -->
<svg xmlns="http://www.w3.org/2000/svg" xmlns:xlink="http://www.w3.org/1999/xlink" width="38.4pt" height="38.4pt">
<defs/>
<g id="layer1">
  <rect id="shape0" transform="translate(5.95135, 1.74209)" fill="#3f3a36" fill-rule="evenodd" stroke="#003bc3" stroke-width="0.00000000000" stroke-linecap="square" stroke-linejoin="miter" stroke-miterlimit="2.01260191180" width="29.26421671304pt" height="33.97539206305pt"/>
  <path id="shape1" transform="translate(38.9861, 2.85205)" fill="#e6e6e6" fill-rule="evenodd" stroke="#4c4c4c" stroke-width="0.00000000000" stroke-linecap="square" stroke-linejoin="miter" stroke-miterlimit="2.01260191180" d="M2.6086 1.10331C2.49617 0.407825 1.85477 -0.0748927 1.15534 0.00958915C0.4559 0.094071 -0.0521226 0.715622 0.00427406 1.41788C0.0606707 2.12014 0.661373 2.65265 1.36533 2.62443C2.06928 2.59621 2.62543 2.01732 2.62543 1.3128"/>
  <path id="shape2" transform="translate(6.8621, 2.87454)" fill="#e6e6e6" fill-rule="evenodd" stroke="#4c4c4c" stroke-width="0.00000000000" stroke-linecap="square" stroke-linejoin="miter" stroke-miterlimit="2.00000000000" d="M2.6086 1.10331C2.49617 0.407825 1.85477 -0.0748927 1.15534 0.00958915C0.4559 0.094071 -0.0521226 0.715622 0.00427406 1.41788C0.0606707 2.12014 0.661373 2.65265 1.36533 2.62443C2.06928 2.59621 2.62543 2.01732 2.62543 1.3128"/>
  <path id="shape3" transform="translate(6.73477, 40.6673)" fill="#e6e6e6" fill-rule="evenodd" stroke="#4c4c4c" stroke-width="0.00000000000" stroke-linecap="square" stroke-linejoin="miter" stroke-miterlimit="2.00000000000" d="M2.6086 1.10331C2.49617 0.407825 1.85477 -0.0748927 1.15534 0.00958915C0.4559 0.094071 -0.0521226 0.715622 0.00427406 1.41788C0.0606707 2.12014 0.661373 2.65265 1.36533 2.62443C2.06928 2.59621 2.62543 2.01732 2.62543 1.3128"/>
  <path id="shape4" transform="translate(39.2682, 40.8583)" fill="#e6e6e6" fill-rule="evenodd" stroke="#4c4c4c" stroke-width="0.00000000000" stroke-linecap="square" stroke-linejoin="miter" stroke-miterlimit="2.00000000000" d="M2.6086 1.10331C2.49617 0.407825 1.85477 -0.0748927 1.15534 0.00958915C0.4559 0.094071 -0.0521226 0.715622 0.00427406 1.41788C0.0606707 2.12014 0.661373 2.65265 1.36533 2.62443C2.06928 2.59621 2.62543 2.01732 2.62543 1.3128"/>
  <path id="path4064" transform="matrix(1 0 0 1 8.53374 8.62081)" fill="#001424" d="M15.9497 0.000164862C7.20942 -0.0392293 0.0793873 6.98632 0.000656243 15.7265C-0.0780754 24.4666 6.93742 31.6323 15.6768 31.7504C24.4162 31.8686 31.5924 24.912 31.7498 16.173L31.7498 15.8753C31.7498 7.13471 24.6898 0.0394597 15.9497 0.000164862ZM15.9001 13.5436C17.1385 13.5436 18.1325 14.5375 18.1325 15.7761C18.1325 17.0145 17.1385 18.0333 15.9001 18.0333C14.6616 18.0333 13.6677 17.0145 13.6677 15.7761C13.6677 14.5375 14.6616 13.5436 15.9001 13.5436Z"/>
  <path id="shape0" transform="matrix(1 0 0 1 19.6549 19.6743)" fill="none" stroke="#00dacd" stroke-width="3.73358914518" stroke-linecap="butt" stroke-linejoin="miter" stroke-miterlimit="2.01260191180" d="M9.549 4.82143C9.57485 2.18463 7.45831 0.0261301 4.82151 0.0002351C2.18473 -0.0256599 0.0261768 2.09087 0.000235933 4.72766C-0.0257049 7.36445 2.09079 9.52306 4.72757 9.549C7.36436 9.57502 9.52298 7.45855 9.549 4.82177"/>
  <path id="shape01" transform="matrix(0.991739 -0.12827 0.12827 0.991739 31.9608 28.773)" fill="none" stroke="#b2b2b2" stroke-opacity="0.69803921569" stroke-width="7.47107593491" stroke-linecap="butt" stroke-linejoin="miter" stroke-miterlimit="2.01260191180" d="M0 3.31206C1.23983 2.36482 2.21708 1.23865 2.87408 0"/>
  <path id="shape1" transform="matrix(0.988134 -0.153592 0.153592 0.988134 13.4867 17.4199)" fill="none" stroke="#b2b2b2" stroke-opacity="0.69803921569" stroke-width="7.47107593491" stroke-linecap="butt" stroke-linejoin="miter" stroke-miterlimit="2.01260191180" d="M2.87408 0C1.63426 0.94724 0.657001 2.07342 0 3.31206"/>
 </g>
</svg>
