<?xml version="1.0" standalone="no"?>
<!DOCTYPE svg PUBLIC "-//W3C//DTD SVG 20010904//EN" "http://www.w3.org/TR/2001/REC-SVG-20010904/DTD/svg10.dtd">
<!-- Created using Karbon, part of Calligra: http://www.calligra.org/karbon -->
<svg xmlns="http://www.w3.org/2000/svg" xmlns:xlink="http://www.w3.org/1999/xlink" width="38.4pt" height="38.4pt">
<defs/>
<g id="layer1">
  <rect id="shape0" transform="translate(5.95135, 1.74209)" fill="#34495e" fill-rule="evenodd" stroke="#003bc3" stroke-width="0.00000000000" stroke-linecap="square" stroke-linejoin="miter" stroke-miterlimit="2.01260185242" width="29.26421671304pt" height="33.97539206305pt"/>
  <path id="shape3" transform="translate(38.9861, 2.85205)" fill="#f2f2f2" fill-rule="evenodd" stroke="#4c4c4c" stroke-width="0.00000000000" stroke-linecap="square" stroke-linejoin="miter" stroke-miterlimit="2.01260185242" d="M2.6086 1.10331C2.49617 0.407825 1.85477 -0.0748927 1.15534 0.00958915C0.4559 0.094071 -0.0521226 0.715622 0.00427406 1.41788C0.0606707 2.12014 0.661373 2.65265 1.36533 2.62443C2.06928 2.59621 2.62543 2.01732 2.62543 1.3128"/>
  <path id="shape4" transform="translate(6.8621, 2.87454)" fill="#f2f2f2" fill-rule="evenodd" stroke="#4c4c4c" stroke-width="0.00000000000" stroke-linecap="square" stroke-linejoin="miter" stroke-miterlimit="2.00000000000" d="M2.6086 1.10331C2.49617 0.407825 1.85477 -0.0748927 1.15534 0.00958915C0.4559 0.094071 -0.0521226 0.715622 0.00427406 1.41788C0.0606707 2.12014 0.661373 2.65265 1.36533 2.62443C2.06928 2.59621 2.62543 2.01732 2.62543 1.3128"/>
  <path id="shape5" transform="translate(6.73477, 40.6673)" fill="#f2f2f2" fill-rule="evenodd" stroke="#4c4c4c" stroke-width="0.00000000000" stroke-linecap="square" stroke-linejoin="miter" stroke-miterlimit="2.00000000000" d="M2.6086 1.10331C2.49617 0.407825 1.85477 -0.0748927 1.15534 0.00958915C0.4559 0.094071 -0.0521226 0.715622 0.00427406 1.41788C0.0606707 2.12014 0.661373 2.65265 1.36533 2.62443C2.06928 2.59621 2.62543 2.01732 2.62543 1.3128"/>
  <path id="shape6" transform="translate(39.2682, 40.8583)" fill="#f2f2f2" fill-rule="evenodd" stroke="#4c4c4c" stroke-width="0.00000000000" stroke-linecap="square" stroke-linejoin="miter" stroke-miterlimit="2.00000000000" d="M2.6086 1.10331C2.49617 0.407825 1.85477 -0.0748927 1.15534 0.00958915C0.4559 0.094071 -0.0521226 0.715622 0.00427406 1.41788C0.0606707 2.12014 0.661373 2.65265 1.36533 2.62443C2.06928 2.59621 2.62543 2.01732 2.62543 1.3128"/>
  <path id="shape7" transform="translate(32.7478, 34.6285)" fill="#34495e" fill-rule="evenodd" stroke="#4c4c4c" stroke-width="0.00000000000" stroke-linecap="square" stroke-linejoin="miter" stroke-miterlimit="2.00000000000" d="M4.68609 1.9488C4.48412 0.720346 3.33191 -0.132284 2.07544 0.0169375C0.818978 0.166159 -0.0936329 1.26401 0.00767791 2.50442C0.108989 3.74483 1.18809 4.68541 2.45267 4.63556C3.71725 4.58572 4.71631 3.56322 4.71631 2.31882"/>
 </g>
</svg>
