<?xml version="1.0" standalone="no"?>
<!DOCTYPE svg PUBLIC "-//W3C//DTD SVG 20010904//EN" "http://www.w3.org/TR/2001/REC-SVG-20010904/DTD/svg10.dtd">
<!-- Created using Karbon, part of Calligra: http://www.calligra.org/karbon -->
<svg xmlns="http://www.w3.org/2000/svg" xmlns:xlink="http://www.w3.org/1999/xlink" width="38.4pt" height="38.4pt">
<defs/>
<g id="layer1">
  <path id="shape0" transform="translate(13.1892, 7.18486)" fill="#404040" fill-rule="evenodd" stroke="#404040" stroke-width="0.00000000000" stroke-linecap="square" stroke-linejoin="bevel" d="M21.846 22.9056C21.6906 36.2822 1.37567 37.9311 0.981665 23.2071C0.654443 18.5539 0.327222 13.9007 0 9.24757C0.184381 2.40802 4.99948 0.0439515 10.8801 0C10.8446 2.71203 11.0167 6.57697 10.8801 6.70587C8.1945 7.47765 8.09816 15.5811 11.2393 16.1659C14.5781 15.4714 14.5233 7.76995 11.7183 6.70587C11.7189 6.42549 11.8291 2.77547 11.7982 -2.08167e-15C17.2367 0.104555 22.109 3.48272 22.2078 8.61413C22.3007 13.3658 21.8134 18.0936 21.846 22.9056Z"/>
  <path id="shape1" transform="matrix(0.999881 0.0154325 -0.0154325 0.999881 24.5215 16.04)" fill="none" stroke="#404040" stroke-width="1.86484575032" stroke-linecap="round" stroke-linejoin="bevel" d="M0.0603015 0L0 5.06533"/>
 </g>
</svg>
