<?xml version="1.0" standalone="no"?>
<!DOCTYPE svg PUBLIC "-//W3C//DTD SVG 20010904//EN" "http://www.w3.org/TR/2001/REC-SVG-20010904/DTD/svg10.dtd">
<!-- Created using Karbon, part of Calligra: http://www.calligra.org/karbon -->
<svg xmlns="http://www.w3.org/2000/svg" xmlns:xlink="http://www.w3.org/1999/xlink" width="38.4pt" height="38.4pt">
<defs/>
<g id="layer1">
  <path id="shape0" transform="translate(11.4786, 19.5776)" fill="#c4cbcf" fill-rule="evenodd" stroke="#003bc3" stroke-width="0.00000000000" stroke-linecap="square" stroke-linejoin="miter" stroke-miterlimit="2.01260191180" d="M0 0.13465C0.0380851 17.5517 4.49934 25.1541 12.9563 25.1837C21.4134 25.2133 25.7771 17.4172 25.8438 0C20.675 0.02693 12.0604 0.0718133 0 0.13465Z"/>
  <path id="shape1" transform="matrix(1 -0.00056621 -0.00056621 -1 11.5245 19.6567)" fill="#2980b9" fill-rule="evenodd" stroke="#003bc3" stroke-width="0.00000000000" stroke-linecap="square" stroke-linejoin="miter" stroke-miterlimit="2.00000000000" d="M0 0.0120186C0.00333499 8.60444 2.54574 15.4344 12.8264 15.4696C23.1071 15.5048 25.739 8.59208 25.803 0"/>
  <rect id="shape2" transform="matrix(-1 0 0 1 26.3282 7.1394)" fill="#435564" fill-rule="evenodd" stroke="#003bc3" stroke-width="0.00000000000" stroke-linecap="square" stroke-linejoin="miter" stroke-miterlimit="2.01260191180" width="3.08739350077pt" height="7.60637217123pt" rx="1.54369675038pt" ry="1.97418067822pt"/>
  <rect id="shape3" transform="translate(23.8881, 4.19953)" fill="#435564" fill-rule="evenodd" stroke="#003bc3" stroke-width="0.00000000000" stroke-linecap="square" stroke-linejoin="miter" stroke-miterlimit="2.01260191180" width="0.80519981807pt" height="12.41269468265pt"/>
  <rect id="shape4" transform="matrix(-1 0 0 1 25.5278 8.60669)" fill="#a8b2b8" fill-rule="evenodd" stroke="#003bc3" stroke-width="0.00000000000" stroke-linecap="square" stroke-linejoin="miter" stroke-miterlimit="2.00000000000" width="1.81411197458pt" height="5.33562345465pt" rx="0.90705598729pt" ry="1.38482373638pt"/>
  <rect id="shape5" transform="matrix(0 -1 1 0 11.4774 19.904)" fill="#435564" fill-rule="evenodd" stroke="#003bc3" stroke-width="0.00000000000" stroke-linecap="square" stroke-linejoin="miter" stroke-miterlimit="2.00000000000" width="0.73570682770pt" height="20.65638400837pt"/>
 </g>
</svg>
