<?xml version="1.0" standalone="no"?>
<!DOCTYPE svg PUBLIC "-//W3C//DTD SVG 20010904//EN" "http://www.w3.org/TR/2001/REC-SVG-20010904/DTD/svg10.dtd">
<!-- Created using Karbon, part of Calligra: http://www.calligra.org/karbon -->
<svg xmlns="http://www.w3.org/2000/svg" xmlns:xlink="http://www.w3.org/1999/xlink" width="38.4pt" height="38.4pt">
<defs/>
<g id="layer1">
  <path id="shape0" transform="translate(13.1892, 7.18486)" fill="#34495e" fill-rule="evenodd" stroke="#404040" stroke-width="0.00000000000" stroke-linecap="square" stroke-linejoin="bevel" d="M21.3222 23.0734C20.8404 36.4382 -0.31553 37.8392 0.981665 23.2071C1.34267 19.135 1.40913 15.0897 0 9.24757C0.184381 2.40802 4.99948 0.0439515 10.8801 2.08167e-15C10.8446 2.71203 10.8806 6.49534 10.8801 6.70587C8.29679 6.79929 9.02565 10.8943 9.0534 14.0187C9.078 16.7882 13.4785 16.8946 13.4981 13.9418C13.5326 8.74533 14.0093 6.76605 11.7183 6.70587C11.7189 6.42549 11.8291 2.77547 11.7982 0C17.2367 0.104555 22.2675 3.48457 22.2078 8.61413C22.181 10.9167 21.6459 14.0945 21.3222 23.0734Z"/>
  <path id="shape1" transform="matrix(0.999978 -0.00663267 0.00663267 0.999978 24.4656 16.0404)" fill="none" stroke="#34495e" stroke-width="2.51575238975" stroke-linecap="round" stroke-linejoin="bevel" d="M0.0603015 0L0 5.06533"/>
 </g>
</svg>
