<?xml version="1.0" standalone="no"?>
<!DOCTYPE svg PUBLIC "-//W3C//DTD SVG 20010904//EN" "http://www.w3.org/TR/2001/REC-SVG-20010904/DTD/svg10.dtd">
<!-- Created using Karbon, part of Calligra: http://www.calligra.org/karbon -->
<svg xmlns="http://www.w3.org/2000/svg" xmlns:xlink="http://www.w3.org/1999/xlink" width="38.4pt" height="38.4pt">
<defs/>
<g id="layer1">
  <path id="path4064" transform="translate(3.9996, 3.99897)" fill="#001424" d="M20.0946 0.000207699C9.08296 -0.0494224 0.100018 8.80161 0.000826784 19.8127C-0.0983652 30.8239 8.74027 39.8515 19.7508 40.0002C30.7614 40.1491 39.8025 31.385 40.0008 20.3752L40.0008 20.0002C40.0008 8.98855 31.106 0.0497127 20.0946 0.000207699ZM20.0321 17.0627C21.5924 17.0627 22.8446 18.3149 22.8446 19.8752C22.8446 21.4355 21.5924 22.719 20.0321 22.719C18.4718 22.719 17.2196 21.4355 17.2196 19.8752C17.2196 18.3149 18.4718 17.0627 20.0321 17.0627Z"/>
  <path id="shape0" transform="translate(18.183, 18.183)" fill="none" stroke="#1abc9c" stroke-width="4.35827526675" stroke-linecap="butt" stroke-linejoin="miter" stroke-miterlimit="2.01260185242" d="M11.6337 5.87403C11.6652 2.66158 9.08658 0.0318347 5.87413 0.000286426C2.66169 -0.0312619 0.0318916 2.54734 0.00028744 5.75979C-0.0313167 8.97223 2.54724 11.6021 5.75968 11.6337C8.97213 11.6654 11.602 9.08688 11.6337 5.87444"/>
  <path id="shape01" transform="translate(33.786, 29.1551)" fill="none" stroke="#435564" stroke-width="10.59450654275" stroke-linecap="butt" stroke-linejoin="miter" stroke-miterlimit="2.01260185242" d="M0 4.56775C1.29792 3.26139 2.32097 1.70825 3.00876 0"/>
  <path id="shape1" transform="matrix(-1 0 0 -1 14.1381 18.9363)" fill="none" stroke="#435564" stroke-width="10.59450654275" stroke-linecap="butt" stroke-linejoin="miter" stroke-miterlimit="2.01260185242" d="M0 4.56775C1.29792 3.26139 2.32097 1.70825 3.00876 0"/>
  <path id="_60001640" transform="translate(19.9642, 9.21364)" fill="#001424" stroke="#e6e6e6" stroke-width="0.00000000000" stroke-linecap="butt" stroke-linejoin="miter" stroke-miterlimit="0.00000000000" d="M0.802807 1.79354L0.802807 1.89707C0.802807 2.11874 0.623078 2.29847 0.40138 2.29847C0.179724 2.29846 0 2.11874 0 1.89707L0 0.40138C0 0.179716 0.179723 2.66129e-10 0.40138 2.66129e-10C0.623078 -7.98566e-06 0.8028 0.179715 0.8028 0.40138Z"/>
  <path id="shape011" transform="translate(25.8161, 5.8664)" fill="#1abc9c" stroke="#00ffa4" stroke-width="0.00000000000" stroke-linecap="butt" stroke-linejoin="miter" stroke-miterlimit="2.01260185242" d="M21.4548 2.72025C21.4548 2.70906 21.4548 2.69786 21.4548 2.69786C21.4436 2.66427 21.4436 2.64189 21.4324 2.60831C21.4324 2.60831 21.4324 2.59711 21.4324 2.59711C21.3654 2.42919 21.2314 2.26128 21.0414 2.21651L20.8179 2.17172L10.7162 0L10.7162 30.5161C9.82229 30.5161 8.21318 30.5609 5.74363 30.6616C1.07274 30.8408 0 33.0796 0 35.2401C0 37.994 1.47502 40.0649 6.87225 39.8298C12.6605 39.5723 12.6159 34.4005 12.6159 30.684L12.6159 9.13467L20.8403 10.6459L20.8403 10.6459C21.1754 10.7131 21.4436 10.3885 21.4436 10.0526L21.4436 2.84339C21.4436 2.79862 21.4548 2.75384 21.4548 2.72025Z"/>
 </g>
</svg>
