<?xml version="1.0" standalone="no"?>
<!DOCTYPE svg PUBLIC "-//W3C//DTD SVG 20010904//EN" "http://www.w3.org/TR/2001/REC-SVG-20010904/DTD/svg10.dtd">
<!-- Created using Karbon, part of Calligra: http://www.calligra.org/karbon -->
<svg xmlns="http://www.w3.org/2000/svg" xmlns:xlink="http://www.w3.org/1999/xlink" width="38.4pt" height="38.4pt">
<defs/>
<g id="layer1">
  <path id="path4064" transform="translate(3.9996, 3.99897)" fill="#001424" d="M20.0946 0.000207699C9.08296 -0.0494224 0.100018 8.80161 0.000826784 19.8127C-0.0983652 30.8239 8.74027 39.8515 19.7508 40.0002C30.7614 40.1491 39.8025 31.385 40.0008 20.3752L40.0008 20.0002C40.0008 8.98855 31.106 0.0497127 20.0946 0.000207699ZM20.0321 17.0627C21.5924 17.0627 22.8446 18.3149 22.8446 19.8752C22.8446 21.4355 21.5924 22.719 20.0321 22.719C18.4718 22.719 17.2196 21.4355 17.2196 19.8752C17.2196 18.3149 18.4718 17.0627 20.0321 17.0627Z"/>
  <path id="shape0" transform="translate(18.183, 18.183)" fill="none" stroke="#52beea" stroke-width="4.35827526675" stroke-linecap="butt" stroke-linejoin="miter" stroke-miterlimit="2.01260185242" d="M11.6337 5.87403C11.6652 2.66158 9.08658 0.0318347 5.87413 0.000286426C2.66169 -0.0312619 0.0318916 2.54734 0.00028744 5.75979C-0.0313167 8.97223 2.54724 11.6021 5.75968 11.6337C8.97213 11.6654 11.602 9.08688 11.6337 5.87444"/>
  <path id="shape01" transform="translate(33.786, 29.1551)" fill="none" stroke="#435564" stroke-width="10.59450654275" stroke-linecap="butt" stroke-linejoin="miter" stroke-miterlimit="2.01260191180" d="M0 4.56775C1.29792 3.26139 2.32097 1.70825 3.00876 0"/>
  <path id="shape1" transform="matrix(-1 0 0 -1 14.1381 18.9363)" fill="none" stroke="#435564" stroke-width="10.59450654275" stroke-linecap="butt" stroke-linejoin="miter" stroke-miterlimit="2.01260191180" d="M0 4.56775C1.29792 3.26139 2.32097 1.70825 3.00876 0"/>
  <path id="shape011" transform="translate(18.6168, 13.1065)" fill="#e6e6e6" d="M0.966223 0C0.931735 0 0.814286 0.0337509 0.710672 0.18244C0.607108 0.331129 0.137461 1.08811 0.0545993 1.23003C-0.0352293 1.37195 -0.00755902 1.43283 0.0890877 1.43283C0.171949 1.43283 0.192702 1.43283 0.296266 1.43283C0.392962 1.43283 0.482741 1.32466 0.517279 1.25029C0.565652 1.18274 1.11811 0.304099 1.20789 0.175768C1.28383 0.0472902 1.23556 9.74052e-05 1.17335 9.74052e-05C1.11821 0 0.966223 0 0.966223 0Z"/>
  <path id="shape11" transform="translate(16.5873, 13.0578)" fill="#e6e6e6" d="M1.1146 1.54028C1.46686 1.52624 1.70167 1.51206 1.97794 0.998843C2.09534 0.766785 1.76383 0.759691 1.76383 0.759691C1.71546 0.759691 2.06772 0.766785 2.2542 0.365955C2.4269 0.000286258 2.12296 0.0285082 2.06777 0.0214654C1.80529 -0.0137486 1.31492 0.000286258 0.942003 0.0214654C0.866006 0.0214654 0.776224 0.126854 0.727849 0.190189C0.693359 0.260465 0.120076 1.20258 0.0372111 1.33624C-0.0526214 1.47679 0.0372111 1.53318 0.126994 1.54012C0.389424 1.55431 0.720931 1.55431 1.1146 1.54028ZM1.41849 1.04804C1.32184 1.25198 1.14222 1.25902 1.03865 1.25902C0.942003 1.25902 0.796927 1.25902 0.762388 1.25902C0.727849 1.25902 0.693309 1.25902 0.727849 1.18165C0.776224 1.11842 0.845253 1.00589 0.872924 0.963629C0.900546 0.91443 0.928118 0.900395 0.990279 0.900395C0.990279 0.900395 1.22514 0.900395 1.2873 0.900395C1.34254 0.900395 1.48757 0.893353 1.41849 1.04804ZM1.674 0.443375C1.57735 0.647159 1.39087 0.647159 1.29417 0.647159C1.1906 0.647159 1.16984 0.647159 1.12844 0.647159C1.10077 0.647159 1.05244 0.647159 1.10077 0.583927C1.14914 0.513549 1.20433 0.394024 1.23887 0.351869C1.27336 0.309713 1.30103 0.288534 1.34941 0.288534C1.34941 0.288534 1.49444 0.288534 1.54968 0.288534C1.60497 0.288636 1.75005 0.288636 1.674 0.443375Z"/>
  <path id="shape2" transform="translate(28.675, 13.4577)" fill="#e6e6e6" d="M0.486788 0.19868L0.0435078 0.917318C-0.0504919 1.0679 0.0301485 1.10218 0.0770513 1.10218C0.124148 1.10218 0.191235 1.10218 0.271876 1.10218C0.345691 1.10218 0.399516 1.09532 0.5137 0.917318L0.956981 0.184969C1.07789 -0.0135571 0.930069 0.000203994 0.836069 0.000203994C0.668205 0.0070106 0.627934 0.000253317 0.486788 0.19868Z"/>
  <path id="shape3" transform="translate(29.4795, 13.4639)" fill="#e6e6e6" d="M1.55524 0.243617L1.01569 0.243617C0.961122 0.243617 0.885935 0.292235 0.844995 0.347647C0.810895 0.40311 0.831365 0.458623 0.885935 0.458623C0.885935 0.451678 1.10441 0.458623 1.26832 0.458623C1.43906 0.451678 1.50057 0.569598 1.31624 0.826127C1.28205 0.88149 1.20691 0.971729 1.1454 1.00631C1.1454 1.00631 0.995173 1.13112 0.510389 1.13112C0.0664993 1.13112 0.0460294 1.0825 0.0460294 1.0825C0.00508978 1.04788 -0.00849116 0.98552 0.00508978 0.950693C0.0255596 0.922962 0.0939564 0.895331 0.148477 0.895331L0.708399 0.895331C0.762968 0.895331 0.838156 0.846813 0.872256 0.784355C0.913294 0.728942 0.892726 0.659639 0.838156 0.659639C0.838156 0.659639 0.61968 0.659639 0.42167 0.659639C0.223664 0.659639 0.250925 0.527727 0.401201 0.305975C0.44214 0.243517 0.517229 0.167318 0.571897 0.125646C0.571897 0.125646 0.735757 0.000829845 1.2138 0.000829845C1.40506 0.000829845 1.72589 -0.0199562 1.70547 0.146532C1.69863 0.222831 1.58934 0.243617 1.55524 0.243617Z"/>
  <path id="shape4" transform="translate(31.0324, 13.4648)" fill="#e6e6e6" d="M1.42232 0.249449L0.987634 0.249449C0.93331 0.249449 0.858578 0.298031 0.824712 0.367234L0.566648 0.776059C0.532635 0.831531 0.553092 0.893844 0.59381 0.893844C0.59381 0.893844 1.0353 0.893844 1.10998 0.893844C1.18462 0.893844 1.23224 0.900784 1.22544 0.921555C1.21863 0.997797 1.10998 1.12946 0.505473 1.12946C-0.0378628 1.12946 -0.00389824 1.05322 0.00285552 0.970186C0.016461 0.880013 0.281228 0.450517 0.362763 0.318802C0.444297 0.180297 0.559748 0 1.09628 0C1.5989 0 1.57164 0.117784 1.56484 0.145595C1.56493 0.173256 1.53782 0.249449 1.42232 0.249449Z"/>
  <path id="shape5" transform="translate(29.4046, 13.0444)" fill="#e6e6e6" d="M0.534904 1.76438e-15C0.577882 1.76438e-15 0.628144 0.0395433 0.592191 0.105307C0.549213 0.157983 0.534904 0.184298 0.513414 0.223747C0.484745 0.263195 0.420174 0.282919 0.341397 0.282919C0.262518 0.282919 0.0761401 0.282919 0.047522 0.282919C-0.00981704 0.282919 -0.00981704 0.23688 0.0187492 0.190936C0.0402384 0.151488 0.0545473 0.131669 0.0761401 0.105307C0.0976293 0.072496 0.133427 0 0.248157 0Z"/>
  <path id="shape6" transform="translate(21.4367, 13.8369)" fill="#e6e6e6" d="M0.249017 9.4828e-05C0.14154 9.4828e-05 0.0985178 0.0659529 0.0770327 0.0988108C0.0626747 0.125126 0.0411896 0.14485 0.0125256 0.190936C-0.00901116 0.236975 -0.00183224 0.282919 0.0268318 0.282919C0.0626231 0.282919 0.256144 0.282919 0.335009 0.282919C0.428232 0.282919 0.478329 0.256605 0.506993 0.217156C0.535709 0.171117 0.542836 0.157889 0.585858 0.0921254C0.636007 0.0263148 0.5715 0 0.535657 0Z"/>
  <path id="shape7" transform="translate(26.628, 13.1065)" fill="#e6e6e6" d="M1.90149 0.993465C2.08088 0.709549 1.97047 0.885256 2.2258 0.486603C2.47427 0.0810356 2.08088 0 1.69434 0C1.10077 0 0.921275 0.0270281 0.921275 0.0270281C0.859257 0.0270281 0.7764 0.0810356 0.741934 0.148679L0.0240711 1.28405C-0.0173077 1.3516 -0.00358109 1.40561 0.051773 1.41915C0.051773 1.41915 0.224301 1.43264 0.817779 1.43264C1.63232 1.43273 1.70817 1.28405 1.90149 0.993465ZM1.65988 0.486603C1.65988 0.486603 1.34934 0.966389 1.32855 0.993465C1.30095 1.03398 1.20431 1.1624 1.05939 1.1624C0.969716 1.1624 0.84548 1.1624 0.75576 1.1624C0.700505 1.1624 0.672903 1.15563 0.707468 1.10153L1.20431 0.324337C1.2251 0.297309 1.25957 0.27705 1.30095 0.27705C1.3838 0.27705 1.53564 0.27705 1.59771 0.27705C1.69439 0.27705 1.72195 0.378442 1.65988 0.486603Z"/>
  <path id="shape8" transform="translate(23.0296, 13.458)" fill="#e6e6e6" d="M0.749433 0.436409C0.576949 0.436409 0.521759 0.450187 0.36996 0.457176C0.307859 0.457176 0.225073 0.50565 0.190567 0.57489L0.0456793 0.824295C-0.133714 1.1083 0.252668 1.12906 0.556265 1.12906C1.04622 1.12906 1.28075 0.990532 1.28075 0.990532C1.34285 0.962826 1.41878 0.886597 1.45328 0.824295L1.7707 0.304718C1.80521 0.249305 1.81908 0.152309 1.78443 0.0968966C1.78443 0.0968966 1.74306 0 1.25316 0C0.770167 0 0.576949 0.0761295 0.576949 0.0761295C0.521759 0.103836 0.452746 0.152309 0.432012 0.180065C0.418289 0.221549 0.445835 0.249305 0.501075 0.249305L1.21865 0.249305C1.27389 0.249305 1.29458 0.297879 1.26698 0.346252C1.20488 0.42942 1.10141 0.436409 1.10141 0.436409ZM1.02543 0.775822L1.02543 0.782761C0.977106 0.852151 0.880498 0.914453 0.825357 0.914453L0.68047 0.914453L0.549354 0.914453C0.494163 0.914453 0.47343 0.852151 0.521709 0.782761L0.521709 0.775822C0.570038 0.699693 0.666598 0.637291 0.721788 0.637291L0.99779 0.637291C1.05303 0.637291 1.07371 0.699693 1.02543 0.775822Z"/>
  <path id="shape9" transform="translate(21.9495, 13.4787)" fill="#e6e6e6" d="M0.878485 0.322219C0.926752 0.255046 1.00261 0.208054 1.05778 0.208054L1.27849 0.208054C1.31299 0.208054 1.42334 0.201326 1.4303 0.134298C1.43721 0.0267629 1.20264 0 1.11296 0C0.78876 0 0.609363 0.0134056 0.423104 0.282051C0.278252 0.496831 0.133401 0.718581 0.0368166 0.879739C-0.0459486 1.02754 0.0299568 1.06113 0.0782242 1.06113C0.126541 1.06113 0.202397 1.06113 0.278252 1.06113C0.354108 1.06113 0.409334 1.0544 0.526597 0.879739Z"/>
  <path id="shape10" transform="translate(19.5429, 13.4647)" fill="#e6e6e6" d="M1.81598 0.199832L1.51052 0.716308C1.46978 0.77129 1.51052 0.798881 1.54442 0.798881C1.58516 0.798881 1.61911 0.798881 1.65305 0.798881C1.687 0.798881 1.73449 0.840266 1.69375 0.902196C1.65985 0.971122 1.65305 0.998564 1.61916 1.03985C1.59196 1.08813 1.54447 1.10188 1.46303 1.10188C1.40878 1.10188 1.36804 1.10188 1.33404 1.10188C1.2458 1.10188 1.2933 0.971023 1.2933 0.971023C1.16436 1.11562 0.8657 1.11562 0.55344 1.11562C0.254825 1.11562 -0.132126 1.11562 0.0444016 0.812676L0.424505 0.192885C0.485597 0.0895695 0.533092 0.0483328 0.594184 0.0207424C0.594184 0.0207424 0.607733 0 0.770613 0C0.879249 0 1.02178 0 0.899646 0.192885L0.55344 0.764492C0.512744 0.819623 0.533092 0.874705 0.594184 0.874705L0.831706 0.874705C0.892798 0.874705 0.967488 0.819723 1.01498 0.764492C1.01498 0.764492 1.19146 0.454646 1.34764 0.199832C1.38834 0.137902 1.49017 9.9246e-05 1.59196 9.9246e-05C1.59196 9.9246e-05 1.687 9.9246e-05 1.76169 9.9246e-05C1.83638 9.9246e-05 1.92457 0.0208417 1.81598 0.199832Z"/>
  <path id="shape111" transform="translate(24.3768, 13.4844)" fill="#e6e6e6" d="M0.144287 1.37825L0.710699 1.37825L0.826695 1.38518C0.888062 1.38518 0.963147 1.32993 0.997272 1.26061L1.11327 1.08761C1.03818 1.10143 0.963147 1.10143 0.874441 1.10143C0.587866 1.10143 0.192132 1.10143 0.369445 0.796974L0.73794 0.194899C0.785686 0.125681 0.860771 0.0495801 0.908517 0.0218527C0.908517 0.00808881 0.935807 0.0011071 1.09281 0.0011071C1.19509 0.0011071 1.35893 -0.0265704 1.21555 0.194899L0.888062 0.748551C0.847151 0.803956 0.860771 0.859311 0.915352 0.859311L1.14744 0.859311C1.19519 0.859311 1.28385 0.804056 1.31802 0.748551L1.65917 0.194849C1.69325 0.125681 1.77517 0.0495801 1.8298 0.0218527C1.8298 0.0218527 1.85719 0.0011071 2.01395 0.0011071C2.10275 0.0011071 2.28016 -0.0265704 2.13688 0.194849L1.85026 0.658637C1.83664 0.679382 1.8298 0.686314 1.81618 0.720874L1.45457 1.31601C1.41366 1.37835 1.33857 1.4545 1.28399 1.48911C1.28399 1.48911 1.04517 1.6275 0.567558 1.6275C0.547103 1.6275 0.519714 1.6275 0.499259 1.6275C0.0556797 1.61368 0.0761844 1.58591 0.048894 1.56516C0.0215545 1.55823 -0.00573589 1.51674 0.00104982 1.46133C0.00778636 1.41281 0.069202 1.37825 0.144287 1.37825Z"/>
  <path id="shape12" transform="translate(18.5602, 7.13114)" fill="#e6e6e6" d="M1.41043 0C1.39665 0 1.39665 0.00699663 1.38977 0.0137948C0.791603 0.853886 0.440967 1.41168 0.0696228 2.10028L0.0284006 2.176L0.0214642 2.20359C-0.012871 2.27251 -0.00603359 2.34819 0.0421247 2.41016C0.262108 2.75444 1.49287 3.16074 4.23621 3.16074C6.28511 3.16074 8.46469 2.83021 8.46469 2.21054C8.46469 1.62515 6.31949 1.27403 4.23621 1.27403C3.54173 1.27403 2.86108 1.36355 2.66854 1.39799C2.85419 1.10874 3.638 0.0550798 3.638 0.0482817C3.65172 0.0345365 3.65172 0.0345365 3.65172 0.0276392L3.65172 0.013894C3.638 0.00699663 3.63111 9.92429e-05 3.61739 9.92429e-05ZM2.20796 2.21049C2.20796 2.08653 2.98494 1.9075 4.23626 1.9075C5.48759 1.9075 6.25774 2.08653 6.25774 2.21049C6.25774 2.34814 5.48764 2.52032 4.23626 2.52032C2.98489 2.52037 2.20796 2.34824 2.20796 2.21049Z"/>
  <path id="shape13" transform="translate(21.4764, 6.64859)" fill="#e6e6e6" d="M0.0552282 5.81772C0.407662 5.82466 10.3248 6.17086 10.546 2.64575C10.7256 -0.270011 3.42773 0.00706688 3.42773 0.00706688C3.41398 0.00706688 3.36558 0.00706688 3.36558 0.0416518C3.36558 0.0832233 3.38629 0.0902101 3.41398 0.0902101C5.4388 0.0902101 8.72849 0.900435 8.62478 2.64575C8.54181 4.05859 5.97101 5.72065 0.055278 5.72065C0.027639 5.72065 8.95802e-08 5.7484 8.95802e-08 5.76916C-4.97103e-05 5.79002 0.020667 5.81078 0.0552282 5.81772Z"/>
  <path id="shape14" transform="translate(30.4082, 12.1416)" fill="#e6e6e6" d="M0.195756 0.0428069L0 0.0428069L0 0L0.447557 0L0.447557 0.0428069L0.265762 0.0428069L0.265762 0.399771L0.195756 0.399771Z"/>
  <path id="shape15" transform="translate(30.9458, 12.1416)" fill="#e6e6e6" d="M0 0L0.0878049 0L0.241675 0.335561L0.402773 0L0.490578 0L0.490578 0.399771L0.432006 0.399771L0.432006 0.071362L0.424725 0.071362L0.27096 0.399771L0.212283 0.399771L0.058519 0.071362L0.058519 0.399771L0 0.399771Z"/>
 </g>
</svg>
