<?xml version="1.0" standalone="no"?>
<!DOCTYPE svg PUBLIC "-//W3C//DTD SVG 20010904//EN" "http://www.w3.org/TR/2001/REC-SVG-20010904/DTD/svg10.dtd">
<!-- Created using Karbon, part of Calligra: http://www.calligra.org/karbon -->
<svg xmlns="http://www.w3.org/2000/svg" xmlns:xlink="http://www.w3.org/1999/xlink" width="38.4pt" height="38.4pt">
<defs/>
<g id="layer1">
  <path id="path4064" transform="translate(3.9996, 3.99897)" fill="#001424" d="M20.0946 0.000207699C9.08296 -0.0494224 0.100018 8.80161 0.000826784 19.8127C-0.0983652 30.8239 8.74027 39.8515 19.7508 40.0002C30.7614 40.1491 39.8025 31.385 40.0008 20.3752L40.0008 20.0002C40.0008 8.98855 31.106 0.0497127 20.0946 0.000207699ZM20.0321 17.0627C21.5924 17.0627 22.8446 18.3149 22.8446 19.8752C22.8446 21.4355 21.5924 22.719 20.0321 22.719C18.4718 22.719 17.2196 21.4355 17.2196 19.8752C17.2196 18.3149 18.4718 17.0627 20.0321 17.0627Z"/>
  <path id="shape0" transform="translate(18.183, 18.183)" fill="none" stroke="#00daae" stroke-width="4.35827526675" stroke-linecap="butt" stroke-linejoin="miter" stroke-miterlimit="2.01260191180" d="M11.6337 5.87403C11.6652 2.66158 9.08658 0.0318347 5.87413 0.000286426C2.66169 -0.0312619 0.0318916 2.54734 0.00028744 5.75979C-0.0313167 8.97223 2.54724 11.6021 5.75968 11.6337C8.97213 11.6654 11.602 9.08688 11.6337 5.87444"/>
  <path id="shape01" transform="translate(33.786, 29.1551)" fill="none" stroke="#e6e6e6" stroke-opacity="0.56470588235" stroke-width="10.59450654275" stroke-linecap="butt" stroke-linejoin="miter" stroke-miterlimit="2.01260185242" d="M0 4.56775C1.29792 3.26139 2.32097 1.70825 3.00876 0"/>
  <path id="shape1" transform="matrix(-1 0 0 -1 14.1381 18.9363)" fill="none" stroke="#e6e6e6" stroke-opacity="0.56470588235" stroke-width="10.59450654275" stroke-linecap="butt" stroke-linejoin="miter" stroke-miterlimit="2.00000000000" d="M0 4.56775C1.29792 3.26139 2.32097 1.70825 3.00876 0"/>
  <path id="_120214216" transform="translate(26.7461, 6.99805)" fill="#e6e6e6" stroke="#e6e6e6" stroke-width="0.00000000000" stroke-linecap="butt" stroke-linejoin="miter" stroke-miterlimit="0.00000000000" d="M0.572849 0.5774C0.572163 0.603319 0.571327 0.624619 0.570455 0.632247C0.563817 0.690652 0.570455 0.718268 0.402041 0.718268C0.233625 0.718268 0.240265 0.69065 0.233625 0.632247C0.231463 0.613222 0.22946 0.509228 0.229667 0.460567C0.229875 0.411897 0.231463 0.307905 0.233625 0.288887C0.240273 0.230475 0.233625 0.202865 0.402041 0.202865C0.570465 0.202857 0.563817 0.230475 0.570455 0.288887C0.571367 0.296853 0.572173 0.31977 0.572819 0.347269L0.803198 0.347262C0.80172 0.295049 0.799245 0.251422 0.796668 0.228688C0.78339 0.111862 0.82941 4.26855e-10 0.402304 4.26855e-10C-0.0247965 -7.97943e-06 0.021224 0.11187 0.00793775 0.228688C0.00362068 0.266711 -0.000385261 0.363244 2.96439e-05 0.460567C0.000444547 0.557883 0.00361257 0.654414 0.00793775 0.692441C0.0212242 0.809258 -0.0247957 0.921127 0.402304 0.921127C0.82941 0.921119 0.783382 0.809266 0.796668 0.692441C0.799189 0.670224 0.80133 0.628049 0.802742 0.57741L0.572849 0.577402Z"/>
  <path id="_120203232" transform="translate(23.8012, 7.01965)" fill="#e6e6e6" stroke="#e6e6e6" stroke-width="0.00000000000" stroke-linecap="butt" stroke-linejoin="miter" stroke-miterlimit="0.00000000000" d="M0.785865 0.00175569L0.561083 0.658452L0.336281 0.00175569L0 0L0 0.881481L0.224782 0.881481L0.224782 0.224784L0.449564 0.881481L0.674366 0.881481L0.897385 0.224784L0.897385 0.881481L1.12217 0.881481L1.12217 0Z"/>
  <path id="_59920144" transform="translate(27.5997, 7.01965)" fill="#e6e6e6" stroke="#e6e6e6" stroke-width="0.00000000000" stroke-linecap="butt" stroke-linejoin="miter" stroke-miterlimit="0.00000000000" d="M0 0L0.646071 0L0.646071 0.224784L0.435436 0.224784L0.435436 0.881481L0.210634 0.881481L0.210634 0.224784L0 0.224784Z"/>
  <path id="_58456400" transform="translate(25.8669, 7.01878)" fill="#e6e6e6" stroke="#e6e6e6" stroke-width="0.00000000000" stroke-linecap="butt" stroke-linejoin="miter" stroke-miterlimit="0.00000000000" d="M0 0.882353L0.25782 0L0.592946 0L0.851374 0.882353L0.626592 0.882353L0.573488 0.700026L0.278515 0.700026L0.320309 0.556667L0.531004 0.556667L0.426559 0.197334L0.224782 0.882353Z"/>
  <path id="_60123104" transform="translate(22.8578, 6.99804)" fill="#e6e6e6" stroke="#e6e6e6" stroke-width="0.00000000000" stroke-linecap="butt" stroke-linejoin="miter" stroke-miterlimit="0.00000000000" d="M0.402041 0.202865C0.570463 0.202865 0.563817 0.230484 0.570455 0.288897C0.572619 0.307912 0.574205 0.411914 0.574413 0.460575C0.57462 0.509228 0.572619 0.613238 0.570455 0.632255C0.563817 0.69066 0.570455 0.718279 0.402041 0.718279C0.233624 0.718279 0.240264 0.69066 0.233624 0.632255C0.23147 0.61323 0.229467 0.509235 0.229666 0.460575C0.229882 0.411907 0.231462 0.307912 0.233624 0.288897C0.240264 0.230484 0.233624 0.202873 0.402041 0.202873L0.402304 0C-0.0247966 0 0.0212239 0.111878 0.00793762 0.228696C0.00361265 0.266721 -0.000385383 0.363251 2.97238e-05 0.460575C0.000444628 0.557891 0.00361265 0.654424 0.00793762 0.692448C0.0212241 0.809266 -0.0247958 0.921135 0.402304 0.921135C0.82941 0.921127 0.783382 0.809273 0.796668 0.692448C0.800993 0.654424 0.80417 0.557891 0.804576 0.460575C0.804991 0.363254 0.800986 0.266728 0.796668 0.228696C0.783382 0.111871 0.82941 8.10755e-06 0.402304 8.10755e-06Z"/>
  <path id="_59316096" transform="translate(21.928, 6.99805)" fill="#e6e6e6" stroke="#e6e6e6" stroke-width="0.00000000000" stroke-linecap="butt" stroke-linejoin="miter" stroke-miterlimit="0.00000000000" d="M0.572849 0.5774C0.572163 0.603319 0.571327 0.624619 0.570455 0.632247C0.563817 0.690652 0.570455 0.718268 0.402041 0.718268C0.233625 0.718268 0.240273 0.69065 0.233625 0.632247C0.231471 0.613222 0.229468 0.509228 0.229675 0.460567C0.229883 0.411897 0.231463 0.307905 0.233625 0.288887C0.240272 0.230475 0.233625 0.202865 0.402041 0.202865C0.570465 0.202857 0.563817 0.230475 0.570455 0.288887C0.571365 0.296853 0.572173 0.31977 0.572811 0.347269L0.803205 0.347262C0.80172 0.295049 0.799248 0.251422 0.796668 0.228688C0.783382 0.111862 0.829403 4.26855e-10 0.402304 4.26855e-10C-0.0247964 -7.97943e-06 0.0212159 0.11187 0.0079378 0.228688C0.00361283 0.266711 -0.000385208 0.363244 2.96959e-05 0.460567C0.000444803 0.557883 0.00361283 0.654414 0.0079378 0.692441C0.0212164 0.809258 -0.0247956 0.921127 0.402304 0.921127C0.829403 0.921119 0.783382 0.809266 0.796668 0.692441C0.799189 0.670224 0.80132 0.628049 0.802742 0.57741L0.572849 0.577402Z"/>
  <path id="_59673264" transform="translate(25.1093, 7.01964)" fill="#e6e6e6" stroke="#e6e6e6" stroke-width="0.00000000000" stroke-linecap="butt" stroke-linejoin="miter" stroke-miterlimit="0.00000000000" d="M0.361465 0.679884L0.22508 0.679813L0.22508 0.478746L0.361432 0.477923C0.529849 0.477923 0.524622 0.450311 0.531268 0.391899C0.533431 0.372884 0.532975 0.388509 0.532775 0.339846C0.53257 0.291185 0.533431 0.307894 0.531268 0.288887C0.52463 0.230475 0.529849 0.202857 0.361432 0.202857L0.225008 0.203216L0.225232 0.880612L0 0.880612L0 7.97986e-06L0.361465 0C0.788571 0 0.741755 0.112165 0.757474 0.228688C0.759351 0.242493 0.759341 0.30622 0.759341 0.340565C0.759351 0.368169 0.759341 0.431887 0.757474 0.452092C0.746693 0.569173 0.788571 0.679894 0.361465 0.679887Z"/>
  <path id="_60007400" transform="translate(19.1301, 7.01755)" fill="#e6e6e6" stroke="#e6e6e6" stroke-width="0.00000000000" stroke-linecap="butt" stroke-linejoin="miter" stroke-miterlimit="0.00000000000" d="M1.94117 5.27394L2.28948 5.27382C2.39408 5.27382 2.47891 5.17094 2.47891 5.04398L2.47891 0.229815C2.47891 0.102896 2.39408 0 2.28948 0L1.61952 0C1.51492 0 1.43009 0.102906 1.43009 0.229824L1.43105 1.26022C1.43105 1.31342 1.3955 1.3566 1.35163 1.3566L0.55586 1.35483C0.248867 1.35483 0 1.65678 0 2.02931L0 4.59996C0 4.97245 0.248867 5.27445 0.55586 5.27445Z"/>
  <path id="_60001640" transform="translate(19.9642, 9.21364)" fill="#001424" stroke="#e6e6e6" stroke-width="0.00000000000" stroke-linecap="butt" stroke-linejoin="miter" stroke-miterlimit="0.00000000000" d="M0.802807 1.79354L0.802807 1.89707C0.802807 2.11874 0.623078 2.29847 0.40138 2.29847C0.179724 2.29846 0 2.11874 0 1.89707L0 0.40138C0 0.179716 0.179723 2.66129e-10 0.40138 2.66129e-10C0.623078 -7.98566e-06 0.8028 0.179715 0.8028 0.40138Z"/>
  <path id="_59740792" transform="translate(21.9049, 8.14832)" fill="#e6e6e6" stroke="#e6e6e6" stroke-width="0.00000000000" stroke-linecap="butt" stroke-linejoin="miter" stroke-miterlimit="0.00000000000" d="M0.531653 4.18244L0.869216 4.1829C0.974989 4.1829 1.06072 4.07298 1.06072 3.93744L1.06072 0.245507C1.06072 0.109945 0.974989 1.02381e-05 0.869216 1.02381e-05L0.191868 0C0.0861189 0 0.000398892 0.109945 0.000398892 0.245517L0 3.93646C0 4.07207 0.0850733 4.18199 0.190823 4.18199Z"/>
  <path id="_59740240" transform="translate(23.2602, 8.14566)" fill="#e6e6e6" stroke="#e6e6e6" stroke-width="0.00000000000" stroke-linecap="butt" stroke-linejoin="miter" stroke-miterlimit="0.00000000000" d="M1.54134 2.85418C1.54135 2.70436 1.52925 2.14738 1.50504 1.18324L1.94687 1.18343C2.04622 1.18343 2.12679 1.07389 2.12679 0.937736L2.12746 0.246563C2.12746 0.110361 2.04691 0 1.94753 0L0.529357 0.000863083C0.237794 0.000863083 0.00141754 0.324785 0.00141754 0.724412L0.00141754 1.96878C0.00141754 2.36836 0.237794 2.69233 0.529357 2.69233L1.24441 2.69064C1.31034 2.69064 1.36377 2.76386 1.36377 2.85418C1.36377 2.94454 1.31034 3.01778 1.24441 3.01778L0.179901 3.01748C0.0805414 3.01748 0 3.12785 0 3.26406L0 3.95383C0 4.09003 0.0805414 4.20039 0.179893 4.20039L1.70595 4.19997C1.99751 4.19997 2.23388 3.87606 2.23388 3.47643L2.23633 2.23084C2.23633 1.83127 1.99995 1.50732 1.70838 1.50732L0.978343 1.51016C0.912436 1.51016 0.859005 1.43693 0.859005 1.34658C0.859005 1.25624 0.912429 1.18303 0.978336 1.18303L1.50504 1.18324C1.52924 2.44703 1.54134 3.00401 1.54134 2.85418Z"/>
  <path id="_120207352" transform="translate(25.9006, 8.14632)" fill="#e6e6e6" stroke="#e6e6e6" stroke-width="0.00000000000" stroke-linecap="butt" stroke-linejoin="miter" stroke-miterlimit="0.00000000000" d="M1.6828 1.87456L1.41536 1.87456C1.31756 1.87456 1.23827 1.76403 1.23827 1.62772L1.24042 1.16005C1.24042 1.01038 1.19047 0.889054 1.0831 0.889054C0.975704 0.889045 0.925764 1.01038 0.925764 1.16005L0.925764 3.08788C0.925764 3.23754 0.975697 3.35893 1.0831 3.35893C1.19048 3.3589 1.24042 3.23754 1.24042 3.08788L1.23828 2.62068C1.23828 2.48437 1.31756 2.37384 1.41535 2.37384L1.98941 2.37384C2.08723 2.37384 2.1665 2.48438 2.1665 2.62068L2.16619 3.48485C2.16619 3.88486 1.93355 4.20913 1.64655 4.20913L0.519661 4.20913C0.232664 4.20913 0 3.88486 0 3.48485L0 0.7243C0 0.324258 0.232657 1.02671e-05 0.519661 1.02671e-05L1.64655 0C1.93355 0 2.16618 0.324259 2.16618 0.7243L2.1665 1.6277C2.1665 1.76401 2.08723 1.87454 1.98941 1.87454L1.6828 1.87454C1.34857 1.61894 1.34857 1.61895 1.6828 1.87456Z"/>
  <rect id="shape011" transform="matrix(0.98986 -0.14205 0.14205 0.98986 21.3266 25.2005)" fill="#4c4c4c" fill-rule="evenodd" stroke="#003bc3" stroke-width="0.00000000000" stroke-linecap="square" stroke-linejoin="miter" stroke-miterlimit="2.00000000000" width="19.36648528017pt" height="3.01922371879pt"/>
  <rect id="shape011" transform="translate(21.8576, 28.9597)" fill="#4c4c4c" fill-rule="evenodd" stroke="#003bc3" stroke-width="0.00000000000" stroke-linecap="square" stroke-linejoin="miter" stroke-miterlimit="2.00000000000" width="19.36648528017pt" height="13.42990553616pt"/>
  <rect id="shape0111" transform="matrix(1 0 -0.401961 1 43.0121 28.9597)" fill="#ebebeb" fill-rule="evenodd" stroke="#003bc3" stroke-width="0.00000000000" stroke-linecap="square" stroke-linejoin="miter" stroke-miterlimit="2.00000000000" width="2.43119854771pt" height="3.03153189036pt"/>
  <rect id="shape11" transform="matrix(1 0 -0.401961 1 36.9444 28.9575)" fill="#ebebeb" fill-rule="evenodd" stroke="#003bc3" stroke-width="0.00000000000" stroke-linecap="square" stroke-linejoin="miter" stroke-miterlimit="2.00000000000" width="2.43119854771pt" height="3.03153189036pt"/>
  <rect id="shape2" transform="matrix(1 0 -0.401961 1 30.9227 28.9597)" fill="#ebebeb" fill-rule="evenodd" stroke="#003bc3" stroke-width="0.00000000000" stroke-linecap="square" stroke-linejoin="miter" stroke-miterlimit="2.00000000000" width="2.43119854771pt" height="3.03153189036pt"/>
  <rect id="shape3" transform="matrix(1 0 -0.401961 1 24.8523 28.9597)" fill="#ebebeb" fill-rule="evenodd" stroke="#003bc3" stroke-width="0.00000000000" stroke-linecap="square" stroke-linejoin="miter" stroke-miterlimit="2.00000000000" width="2.43119854771pt" height="3.03153189036pt"/>
  <rect id="shape4" transform="matrix(-0.98986 0.14205 0.539935 0.932761 25.779 24.547)" fill="#ebebeb" fill-rule="evenodd" stroke="#003bc3" stroke-width="0.00000000000" stroke-linecap="square" stroke-linejoin="miter" stroke-miterlimit="2.00000000000" width="2.43119854771pt" height="3.03153189036pt"/>
  <rect id="shape5" transform="matrix(-0.98986 0.14205 0.539935 0.932761 31.7945 23.6884)" fill="#ebebeb" fill-rule="evenodd" stroke="#003bc3" stroke-width="0.00000000000" stroke-linecap="square" stroke-linejoin="miter" stroke-miterlimit="2.00000000000" width="2.43119854771pt" height="3.03153189036pt"/>
  <rect id="shape6" transform="matrix(-0.98986 0.14205 0.539935 0.932761 37.7638 22.8287)" fill="#ebebeb" fill-rule="evenodd" stroke="#003bc3" stroke-width="0.00000000000" stroke-linecap="square" stroke-linejoin="miter" stroke-miterlimit="2.00000000000" width="2.43119854771pt" height="3.03153189036pt"/>
  <rect id="shape7" transform="matrix(-0.98986 0.14205 0.539935 0.932761 43.7797 21.9646)" fill="#ebebeb" fill-rule="evenodd" stroke="#003bc3" stroke-width="0.00000000000" stroke-linecap="square" stroke-linejoin="miter" stroke-miterlimit="2.00000000000" width="2.43119854771pt" height="3.03153189036pt"/>
 </g>
</svg>
