<?xml version="1.0" standalone="no"?>
<!DOCTYPE svg PUBLIC "-//W3C//DTD SVG 20010904//EN" "http://www.w3.org/TR/2001/REC-SVG-20010904/DTD/svg10.dtd">
<!-- Created using Karbon, part of Calligra: http://www.calligra.org/karbon -->
<svg xmlns="http://www.w3.org/2000/svg" xmlns:xlink="http://www.w3.org/1999/xlink" width="38.4pt" height="38.4pt">
<defs/>
<g id="layer1">
  <path id="path4064" transform="translate(3.9996, 3.99897)" fill="#001424" d="M20.0946 0.000207699C9.08296 -0.0494224 0.100018 8.80161 0.000826784 19.8127C-0.0983652 30.8239 8.74027 39.8515 19.7508 40.0002C30.7614 40.1491 39.8025 31.385 40.0008 20.3752L40.0008 20.0002C40.0008 8.98855 31.106 0.0497127 20.0946 0.000207699ZM20.0321 17.0627C21.5924 17.0627 22.8446 18.3149 22.8446 19.8752C22.8446 21.4355 21.5924 22.719 20.0321 22.719C18.4718 22.719 17.2196 21.4355 17.2196 19.8752C17.2196 18.3149 18.4718 17.0627 20.0321 17.0627Z"/>
  <path id="shape0" transform="translate(18.183, 18.183)" fill="none" stroke="#00daae" stroke-width="4.35827526675" stroke-linecap="butt" stroke-linejoin="miter" stroke-miterlimit="2.01260185242" d="M11.6337 5.87403C11.6652 2.66158 9.08658 0.0318347 5.87413 0.000286426C2.66169 -0.0312619 0.0318916 2.54734 0.00028744 5.75979C-0.0313167 8.97223 2.54724 11.6021 5.75968 11.6337C8.97213 11.6654 11.602 9.08688 11.6337 5.87444"/>
  <path id="shape01" transform="translate(33.786, 29.1551)" fill="none" stroke="#435564" stroke-width="10.59450654275" stroke-linecap="butt" stroke-linejoin="miter" stroke-miterlimit="2.01260185242" d="M0 4.56775C1.29792 3.26139 2.32097 1.70825 3.00876 0"/>
  <path id="shape1" transform="matrix(-1 0 0 -1 14.1381 18.9363)" fill="none" stroke="#435564" stroke-width="10.59450654275" stroke-linecap="butt" stroke-linejoin="miter" stroke-miterlimit="2.01260185242" d="M0 4.56775C1.29792 3.26139 2.32097 1.70825 3.00876 0"/>
  <path id="_60001640" transform="translate(19.9642, 9.21364)" fill="#001424" stroke="#e6e6e6" stroke-width="0.00000000000" stroke-linecap="butt" stroke-linejoin="miter" stroke-miterlimit="0.00000000000" d="M0.802807 1.79354L0.802807 1.89707C0.802807 2.11874 0.623078 2.29847 0.40138 2.29847C0.179724 2.29846 0 2.11874 0 1.89707L0 0.40138C0 0.179716 0.179723 2.66129e-10 0.40138 2.66129e-10C0.623078 -7.98566e-06 0.8028 0.179715 0.8028 0.40138Z"/>
  <rect id="shape011" transform="matrix(0.98986 -0.14205 0.14205 0.98986 21.3266 25.2005)" fill="#4c4c4c" fill-rule="evenodd" stroke="#003bc3" stroke-width="0.00000000000" stroke-linecap="square" stroke-linejoin="miter" stroke-miterlimit="2.00000000000" width="19.36648528017pt" height="3.01922371879pt"/>
  <rect id="shape0111" transform="translate(21.8576, 28.9597)" fill="#4c4c4c" fill-rule="evenodd" stroke="#003bc3" stroke-width="0.00000000000" stroke-linecap="square" stroke-linejoin="miter" stroke-miterlimit="2.00000000000" width="19.36648528017pt" height="13.42990553616pt"/>
  <rect id="shape01111" transform="matrix(1 0 -0.401961 1 43.0121 28.9597)" fill="#ebebeb" fill-rule="evenodd" stroke="#003bc3" stroke-width="0.00000000000" stroke-linecap="square" stroke-linejoin="miter" stroke-miterlimit="2.00000000000" width="2.43119854771pt" height="3.03153189036pt"/>
  <rect id="shape11" transform="matrix(1 0 -0.401961 1 36.9444 28.9575)" fill="#ebebeb" fill-rule="evenodd" stroke="#003bc3" stroke-width="0.00000000000" stroke-linecap="square" stroke-linejoin="miter" stroke-miterlimit="2.00000000000" width="2.43119854771pt" height="3.03153189036pt"/>
  <rect id="shape2" transform="matrix(1 0 -0.401961 1 30.9227 28.9597)" fill="#ebebeb" fill-rule="evenodd" stroke="#003bc3" stroke-width="0.00000000000" stroke-linecap="square" stroke-linejoin="miter" stroke-miterlimit="2.00000000000" width="2.43119854771pt" height="3.03153189036pt"/>
  <rect id="shape3" transform="matrix(1 0 -0.401961 1 24.8523 28.9597)" fill="#ebebeb" fill-rule="evenodd" stroke="#003bc3" stroke-width="0.00000000000" stroke-linecap="square" stroke-linejoin="miter" stroke-miterlimit="2.00000000000" width="2.43119854771pt" height="3.03153189036pt"/>
  <rect id="shape4" transform="matrix(-0.98986 0.14205 0.539935 0.932761 25.779 24.547)" fill="#ebebeb" fill-rule="evenodd" stroke="#003bc3" stroke-width="0.00000000000" stroke-linecap="square" stroke-linejoin="miter" stroke-miterlimit="2.00000000000" width="2.43119854771pt" height="3.03153189036pt"/>
  <rect id="shape5" transform="matrix(-0.98986 0.14205 0.539935 0.932761 31.7945 23.6884)" fill="#ebebeb" fill-rule="evenodd" stroke="#003bc3" stroke-width="0.00000000000" stroke-linecap="square" stroke-linejoin="miter" stroke-miterlimit="2.00000000000" width="2.43119854771pt" height="3.03153189036pt"/>
  <rect id="shape6" transform="matrix(-0.98986 0.14205 0.539935 0.932761 37.7638 22.8287)" fill="#ebebeb" fill-rule="evenodd" stroke="#003bc3" stroke-width="0.00000000000" stroke-linecap="square" stroke-linejoin="miter" stroke-miterlimit="2.00000000000" width="2.43119854771pt" height="3.03153189036pt"/>
  <rect id="shape7" transform="matrix(-0.98986 0.14205 0.539935 0.932761 43.7797 21.9646)" fill="#ebebeb" fill-rule="evenodd" stroke="#003bc3" stroke-width="0.00000000000" stroke-linecap="square" stroke-linejoin="miter" stroke-miterlimit="2.00000000000" width="2.43119854771pt" height="3.03153189036pt"/>
 </g>
</svg>
