<?xml version="1.0" standalone="no"?>
<!DOCTYPE svg PUBLIC "-//W3C//DTD SVG 20010904//EN" "http://www.w3.org/TR/2001/REC-SVG-20010904/DTD/svg10.dtd">
<!-- Created using Karbon, part of Calligra: http://www.calligra.org/karbon -->
<svg xmlns="http://www.w3.org/2000/svg" xmlns:xlink="http://www.w3.org/1999/xlink" width="38.4pt" height="38.4pt">
<defs/>
<g id="layer1">
  <path id="path4064" transform="translate(3.9996, 3.99897)" fill="#001424" d="M20.0946 0.000207699C9.08296 -0.0494224 0.100018 8.80161 0.000826784 19.8127C-0.0983652 30.8239 8.74027 39.8515 19.7508 40.0002C30.7614 40.1491 39.8025 31.385 40.0008 20.3752L40.0008 20.0002C40.0008 8.98855 31.106 0.0497127 20.0946 0.000207699ZM20.0321 17.0627C21.5924 17.0627 22.8446 18.3149 22.8446 19.8752C22.8446 21.4355 21.5924 22.719 20.0321 22.719C18.4718 22.719 17.2196 21.4355 17.2196 19.8752C17.2196 18.3149 18.4718 17.0627 20.0321 17.0627Z"/>
  <path id="shape0" transform="translate(18.183, 18.183)" fill="none" stroke="#ff4946" stroke-width="4.35827526675" stroke-linecap="butt" stroke-linejoin="miter" stroke-miterlimit="2.01260185242" d="M11.6337 5.87403C11.6652 2.66158 9.08658 0.0318347 5.87413 0.000286426C2.66169 -0.0312619 0.0318916 2.54734 0.00028744 5.75979C-0.0313167 8.97223 2.54724 11.6021 5.75968 11.6337C8.97213 11.6654 11.602 9.08688 11.6337 5.87444"/>
  <path id="path2278" transform="translate(16.9519, 8.28936)" fill="#ffffff" stroke="#e6e6e6" stroke-width="0.00000000000" stroke-linecap="butt" stroke-linejoin="miter" stroke-miterlimit="0.00000000000" d="M6.9703 4.79754C6.96892 4.79385 6.65854 3.94927 6.28056 2.92068C5.90257 1.89211 5.59191 1.04933 5.59022 1.04786C5.58852 1.04638 5.58895 1.05001 5.59119 1.05592C5.60227 1.08529 5.64889 1.28024 5.66124 1.3488C5.74629 1.82115 5.67503 2.22683 5.44601 2.57406C5.3299 2.75008 5.15536 2.92459 4.95145 3.06852C4.44391 3.42678 3.6545 3.67895 2.63955 3.80708C2.29494 3.85058 1.96535 3.87727 1.52681 3.89719C1.21611 3.9113 0.116668 3.90315 0.0193297 3.88603L0 3.88263L0.31912 2.53512L0.63824 1.18761L1.42024 1.1876L2.20222 1.18758L2.19915 1.19967C2.19747 1.20633 2.09226 1.62167 1.96535 2.12265L1.73462 3.03354L1.7509 3.03549C1.75985 3.03655 1.9033 3.03459 2.06967 3.03114C2.34148 3.02549 2.38172 3.02348 2.46613 3.01155C2.82173 2.96125 3.14061 2.85636 3.39444 2.70622C3.73852 2.50268 3.95779 2.22723 4.02582 1.91306C4.03972 1.84891 4.04002 1.67689 4.02636 1.61396C3.94026 1.21735 3.57887 0.956825 3.03614 0.900119C2.96964 0.893172 2.77222 0.890528 1.84946 0.884231C1.24067 0.880075 0.741702 0.875824 0.740652 0.874781C0.739604 0.873738 0.783199 0.677076 0.837518 0.437755L0.93629 0.00262364L3.84189 0.00131102L6.7475 0L7.136 1.26538C7.34968 1.96134 7.52591 2.53281 7.52763 2.53533C7.52934 2.53784 7.9865 1.97206 8.54355 1.27807L9.55636 0.0162517L11.4307 0.0176686L13.3051 0.0190864L13.3888 0.0312966C13.7914 0.090004 14.0778 0.173155 14.3579 0.312659C14.4622 0.364641 14.5078 0.39063 14.597 0.449217C15.0906 0.772977 15.3614 1.2549 15.3424 1.77603C15.3221 2.33257 14.9872 2.85468 14.4043 3.23786C14.3494 3.274 14.2777 3.3188 14.2451 3.33741C13.7612 3.61312 13.1653 3.78976 12.4706 3.86332C12.2556 3.88608 12.2563 3.88607 10.9549 3.88431L9.7013 3.88263L10.0205 2.53512L10.3396 1.18761L11.1134 1.18759C11.539 1.18759 11.8872 1.18892 11.8872 1.19054C11.8872 1.19216 11.7887 1.60488 11.6684 2.10767C11.548 2.61047 11.4503 3.02252 11.4511 3.0233C11.4518 3.02409 11.6287 3.02134 11.8441 3.0172C12.2859 3.00866 12.2837 3.00887 12.49 2.9583C12.9945 2.83458 13.3876 2.58992 13.607 2.26294C13.6768 2.15892 13.7367 2.0149 13.7592 1.89694C13.7736 1.82135 13.7726 1.69164 13.7571 1.61917C13.7265 1.4775 13.6653 1.36041 13.567 1.25588C13.3865 1.06409 13.1243 0.947264 12.7486 0.891177L12.6677 0.87911L11.5763 0.877363L10.4848 0.875617L8.73133 2.8386L6.97787 4.80157C6.97414 4.8024 6.97163 4.80105 6.9703 4.79754Z"/>
  <path id="shape0" transform="translate(33.786, 29.1551)" fill="none" stroke="#e6e6e6" stroke-opacity="0.56470588235" stroke-width="10.59450654275" stroke-linecap="butt" stroke-linejoin="miter" stroke-miterlimit="2.01260191180" d="M0 4.56775C1.29792 3.26139 2.32097 1.70825 3.00876 0"/>
  <path id="shape1" transform="matrix(-1 0 0 -1 14.1381 18.9363)" fill="none" stroke="#e6e6e6" stroke-opacity="0.56470588235" stroke-width="10.59450654275" stroke-linecap="butt" stroke-linejoin="miter" stroke-miterlimit="2.00000000000" d="M0 4.56775C1.29792 3.26139 2.32097 1.70825 3.00876 0"/>
 </g>
</svg>
