<?xml version="1.0" standalone="no"?>
<!DOCTYPE svg PUBLIC "-//W3C//DTD SVG 20010904//EN" "http://www.w3.org/TR/2001/REC-SVG-20010904/DTD/svg10.dtd">
<!-- Created using Karbon, part of Calligra: http://www.calligra.org/karbon -->
<svg xmlns="http://www.w3.org/2000/svg" xmlns:xlink="http://www.w3.org/1999/xlink" width="38.4pt" height="38.4pt">
<defs/>
<g id="layer0">
  <path id="shape4" transform="matrix(3.88578e-16 1 -1 3.88578e-16 26.9538 17.987)" fill="#e6e6e6" fill-rule="evenodd" stroke="#595959" stroke-width="0.00000000000" stroke-linecap="square" stroke-linejoin="miter" stroke-miterlimit="2.01260191180" d="M5.32463 2.48812C5.22793 1.03664 3.98523 -0.0691822 2.53235 0.00337546C1.07946 0.0759331 -0.0468809 1.30007 0.00150205 2.75396C0.049885 4.20785 1.25512 5.35439 2.70961 5.33019C4.16411 5.306 5.33053 4.12001 5.33053 2.66531"/>
  <path id="shape0" transform="translate(14.2569, 10.3462)" fill="none" stroke="#e6e6e6" stroke-width="1.87795600925" stroke-linecap="square" stroke-linejoin="miter" stroke-miterlimit="2.01260191180" d="M16.8826 17.2879C19.911 14.4284 20.8522 9.99247 19.2459 6.14959C17.6397 2.30671 13.8216 -0.139948 9.65912 0.00620598C5.49662 0.15236 1.85959 2.86079 0.526816 6.80686C-0.805958 10.7529 0.444066 15.1119 3.66553 17.752"/>
  <path id="shape1" transform="translate(24.2998, 20.5679)" fill="none" stroke="#e6e6e6" stroke-width="1.87795600925" stroke-linecap="square" stroke-linejoin="bevel" d="M0 0L0 24.807"/>
  <path id="shape2" transform="translate(10.1397, 6.67397)" fill="none" stroke="#e6e6e6" stroke-width="1.87795600925" stroke-linecap="square" stroke-linejoin="miter" stroke-miterlimit="2.01260191180" d="M23.7862 24.3573C28.0529 20.3285 29.379 14.0786 27.1159 8.66428C24.8529 3.24997 19.4736 -0.197176 13.6089 0.00874372C7.74429 0.214663 2.62001 4.03062 0.742241 9.59032C-1.13553 15.15 0.625653 21.2915 5.16444 25.0112"/>
  <path id="shape3" transform="translate(5.89557, 2.91756)" fill="none" stroke="#595959" stroke-width="1.89106626818" stroke-linecap="square" stroke-linejoin="miter" stroke-miterlimit="2.00000000000" d="M31.0448 31.7902C36.6136 26.5319 38.3443 18.3748 35.3906 11.3083C32.4369 4.24173 25.4161 -0.257346 17.7618 0.0114119C10.1075 0.28017 3.41953 5.2606 0.968743 12.5169C-1.48205 19.7732 0.816576 27.7888 6.74042 32.6435"/>
 </g>
</svg>
