<?xml version="1.0" standalone="no"?>
<!DOCTYPE svg PUBLIC "-//W3C//DTD SVG 20010904//EN" "http://www.w3.org/TR/2001/REC-SVG-20010904/DTD/svg10.dtd">
<!-- Created using Karbon, part of Calligra: http://www.calligra.org/karbon -->
<svg xmlns="http://www.w3.org/2000/svg" xmlns:xlink="http://www.w3.org/1999/xlink" width="38.4pt" height="38.4pt">
<defs/>
<g id="layer0">
  <path id="shape0" transform="matrix(0.707107 -0.707107 0.707107 0.707107 16.6653 9.29234)" fill="#ff2b28" fill-rule="evenodd" stroke="#003bc3" stroke-width="0.00000000000" stroke-linecap="square" stroke-linejoin="miter" stroke-miterlimit="2.01260185242" d="M3.72403 0L6.91606 0L6.91606 3.72403L10.6401 3.72403L10.6401 6.91606L6.91606 6.91606L6.91606 10.6401L3.72403 10.6401L3.72403 6.91606L0 6.91606L0 3.72403L3.72403 3.72403Z"/>
  <path id="shape4" transform="matrix(3.88578e-16 1 -1 3.88578e-16 26.9538 17.987)" fill="#595959" fill-rule="evenodd" stroke="#595959" stroke-width="0.00000000000" stroke-linecap="square" stroke-linejoin="miter" stroke-miterlimit="2.01260185242" d="M5.32463 2.48812C5.22793 1.03664 3.98523 -0.0691822 2.53235 0.00337546C1.07946 0.0759331 -0.0468809 1.30007 0.00150204 2.75396C0.049885 4.20785 1.25512 5.35439 2.70961 5.33019C4.16411 5.306 5.33053 4.12001 5.33053 2.66531"/>
  <path id="shape1" transform="translate(24.2998, 20.5679)" fill="none" stroke="#595959" stroke-width="1.86484575032" stroke-linecap="square" stroke-linejoin="bevel" d="M0 0L0 24.807"/>
 </g>
</svg>
