<?xml version="1.0" standalone="no"?>
<!DOCTYPE svg PUBLIC "-//W3C//DTD SVG 20010904//EN" "http://www.w3.org/TR/2001/REC-SVG-20010904/DTD/svg10.dtd">
<!-- Created using Karbon, part of Calligra: http://www.calligra.org/karbon -->
<svg xmlns="http://www.w3.org/2000/svg" xmlns:xlink="http://www.w3.org/1999/xlink" width="38.4pt" height="38.4pt">
<defs/>
<g id="layer1">
  <path id="shape0" transform="matrix(1 0 0 1 11.8553 39.5236)" fill="#333333" fill-rule="evenodd" stroke="#003bc3" stroke-width="0.00000000000" stroke-linecap="square" stroke-linejoin="bevel" d="M0 3.18708L23.9665 3.18708C14.6273 -1.65791 6.98288 -0.422114 0 3.18708Z"/>
  <path id="shape1" transform="matrix(1 0 0 1 23.8879 32.5592)" fill="none" stroke="#333333" stroke-width="3.73890411502" stroke-linecap="square" stroke-linejoin="bevel" d="M0 7.36475L0.0986274 0"/>
  <path id="shape01" transform="matrix(1 0 0 1 4.00394 8.21622)" fill="#333333" fill-rule="evenodd" stroke="#003bc3" stroke-width="0.00000000000" stroke-linecap="square" stroke-linejoin="bevel" d="M0 0L0.00957172 26.8261C0.176037 26.8394 39.5695 26.829 40.004 26.7489L39.8831 0.0771319C39.3338 -0.00578174 0.122226 0.0231207 0 0Z"/>
  <path id="shape11" transform="matrix(1 0 0 1 5.95439 10.2829)" fill="#2980b9" fill-rule="evenodd" stroke="#003bc3" stroke-width="0.00000000000" stroke-linecap="square" stroke-linejoin="bevel" d="M0 0L0 22.1607L36.0268 22.0991L35.9268 0.0615575Z"/>
 </g>
</svg>
