<svg xmlns="http://www.w3.org/2000/svg" width="48" height="48" viewBox="0 0 13.546666 13.546668">
 <g transform="translate(38.119153,-397.84494)">
  <path d="m 2,4 0,29.074219 0,3.883788 0,0.07422 0.074219,0 19.9355472,0 c -0.0058,0 -0.0098,0.004 -0.0098,0.0098 l 0,4.948242 c 0,0.0058 0.004,0.0098 0.0098,0.0098 l -7,0 c -0.0058,0 -0.0098,0.004 -0.0098,0.0098 l 0,1.980468 c 0,0.0058 0.004,0.0098 0.0098,0.0098 l 17.980468,0 c 0.0058,0 0.0098,-0.004 0.0098,-0.0098 l 0,-1.980468 C 33,42.003974 32.996026,42 32.990234,42 l -7,0 c 0.0058,0 0.0098,-0.004 0.0098,-0.0098 l 0,-4.948242 c 0,-0.0058 -0.004,-0.0098 -0.0098,-0.0098 l 19.935547,0 0.07422,0 0,-0.07422 0,-3.883788 L 46,4 Z" transform="matrix(0.28222225,0,0,0.28222225,-38.119154,397.84494)" style="fill:#2c3e50"/>
  <rect width="11.289" height="7.338" x="-36.99" y="399.82" style="fill:#3498db" rx="0"/>
 </g>
</svg>
