<svg xmlns="http://www.w3.org/2000/svg" width="48" height="48">
 <g transform="translate(-180.23661,-689.8125)">
  <g>
   <rect y="697.81" x="187.24" height="36" width="34" style="fill:#f3dfc6"/>
   <rect y="703.15" x="187.24" height="0.308" width="34" style="fill:#d19e69"/>
   <rect width="34" height="0.308" x="187.24" y="708.66" style="fill:#d19e69"/>
   <rect y="714.16" x="187.24" height="0.308" width="34" style="fill:#d19e69"/>
   <rect y="693.81" x="189.24" height="5" width="3" style="fill:#151718"/>
   <rect width="3" height="5" x="198.24" y="693.81" style="fill:#151718"/>
   <rect y="693.81" x="207.24" height="5" width="3" style="fill:#151718"/>
   <rect width="3" height="5" x="216.24" y="693.81" style="fill:#151718"/>
   <rect width="34" height="0.308" x="187.24" y="719.67" style="fill:#d19e69"/>
   <rect y="725.17" x="187.24" height="0.308" width="34" style="fill:#d19e69"/>
   <rect transform="matrix(0,-1,1,0,0,0)" width="36" height="0.5" x="-733.81" y="194.99" style="fill:#e68273"/>
   <rect y="715.81" x="212.74" height="18" width="3" style="fill:#212325"/>
   <rect width="4" height="11" x="212.24" y="708.64" style="fill:#212325"/>
   <rect y="718.64" x="212.24" height="1" width="4" style="fill:#edc549"/>
   <rect y="709.64" x="213.99" height="9" width="0.5" style="fill:#cbced0"/>
   <rect width="0.5" height="1" x="213.99" y="711.64" style="fill:#666d71"/>
  </g>
 </g>
</svg>
