<?xml version="1.0" standalone="no"?>
<!DOCTYPE svg PUBLIC "-//W3C//DTD SVG 20010904//EN" "http://www.w3.org/TR/2001/REC-SVG-20010904/DTD/svg10.dtd">
<!-- Created using Karbon, part of Calligra: http://www.calligra.org/karbon -->
<svg xmlns="http://www.w3.org/2000/svg" xmlns:xlink="http://www.w3.org/1999/xlink" width="38.4pt" height="38.4pt">
<defs/>
<g id="layer1">
  <path id="shape42" transform="translate(4.95796, 17.5001)" fill="#ff4747" fill-rule="evenodd" stroke="#003bc3" stroke-width="0.00000000000" stroke-linecap="square" stroke-linejoin="miter" stroke-miterlimit="2.00000000000" d="M25.1184 6.31686L6.28297 6.27205L6.33259 0.0705895L31.3728 0L31.4149 28.7575L25.1013 28.7575L25.1624 22.5588L0.0304999 22.5284C0.030861 15.4681 0.0206942 10.0595 0 6.30243L6.28297 6.27205L6.28297 28.7575L18.8795 28.7575L18.8489 16.2992L25.1319 16.2689"/>
  <path id="shape421" transform="translate(9.97944, 17.5198)" fill="#00e0fd" fill-rule="evenodd" stroke="#003bc3" stroke-width="0.00000000000" stroke-linecap="square" stroke-linejoin="miter" stroke-miterlimit="2.00000000000" d="M25.0524 6.31603L6.26646 6.27124L6.31595 0.0705804L31.2904 0L31.3323 28.7537L25.0354 28.7537L25.0962 22.5558L0.0304197 22.5254C0.0307798 15.4661 0.0206399 10.0582 0 6.30162L6.26646 6.27124L6.26646 28.7537L18.8299 28.7537L18.7993 16.2972L25.0658 16.2668"/>
  <path id="shape02" transform="translate(18.7665, 1.23731)" fill="#00e0fd" fill-rule="evenodd" stroke="#003bc3" stroke-width="0.00000000000" stroke-linecap="square" stroke-linejoin="bevel" d="M12.5025 12.5177L6.25886 12.533L6.25886 0.0152099L0 0L0 6.29689L12.5025 6.26646Z"/>
  <path id="shape422" transform="translate(7.5038, 17.4861)" fill="#003366" fill-rule="evenodd" stroke="#003bc3" stroke-width="0.00000000000" stroke-linecap="square" stroke-linejoin="miter" stroke-miterlimit="2.00000000000" d="M25.0195 6.31563L6.25823 6.27084L6.30765 0.0705759L31.2492 0L31.2911 28.7519L25.0025 28.7519L25.0633 22.5544L0.0303797 22.524C0.0307394 15.4652 0.0206128 10.0576 6.93889e-17 6.30122L6.25823 6.27084L6.25823 28.7519L18.8051 28.7519L18.7747 16.2962L25.0329 16.2658"/>
  <path id="shape021" transform="translate(13.7526, 1.22077)" fill="#ff4747" fill-rule="evenodd" stroke="#003bc3" stroke-width="0.00000000000" stroke-linecap="square" stroke-linejoin="bevel" d="M12.505 12.5508L6.26012 12.5661L6.26012 0.01525L0 0L0 6.3135L12.505 6.28299Z"/>
  <path id="shape022" transform="translate(16.2532, 1.24557)" fill="#003366" fill-rule="evenodd" stroke="#003bc3" stroke-width="0.00000000000" stroke-linecap="square" stroke-linejoin="bevel" d="M12.5013 12.5013L6.25823 12.5165L6.25823 0.0151899L0 0L7.97973e-16 6.28861L12.5013 6.25823Z"/>
 </g>
</svg>
