<svg xmlns="http://www.w3.org/2000/svg" width="48" height="48" viewBox="0 0 13.546666 13.546668">
 <g transform="translate(38.119153,-397.84494)">
  <rect width="11.289" height="11.289" x="-36.99" y="398.97" style="fill:#2c3e50"/>
  <g transform="matrix(0.87719307,0,0,0.87719307,-3.7616532,49.689932)" style="fill:#ecf0f1">
   <path d="m -30.437372,407.4292 0,-0.16087 c -0.440267,-0.0508 -0.5588,-0.2286 -0.795867,-0.77893 l -2.0828,-4.76673 -0.169333,0 -1.744133,4.13173 c -0.499534,1.18533 -0.575734,1.36313 -1.066801,1.41393 l 0,0.16087 1.684867,0 0,-0.16087 c -0.4064,0 -0.592666,-0.0847 -0.592666,-0.34713 0,-0.1016 0.03387,-0.24553 0.0762,-0.3556 l 0.389466,-0.9652 2.218267,0 0.347133,0.79587 c 0.1016,0.23706 0.160867,0.46566 0.160867,0.59266 0,0.0762 -0.0508,0.16934 -0.118533,0.2032 -0.1016,0.0593 -0.160867,0.0762 -0.465667,0.0762 l 0,0.16087 2.159,0 z m -2.201333,-2.17593 -1.9558,0 0.973666,-2.32834 0.982134,2.32834 z"/>
   <path d="m -26.595622,406.8704 c -0.143933,0.11853 -0.2286,0.16087 -0.364067,0.16087 -0.1524,0 -0.262466,-0.16934 -0.262466,-0.5588 l 0,-1.61714 c 0,-0.51646 -0.03387,-0.69426 -0.237067,-0.9398 -0.2032,-0.24553 -0.524933,-0.381 -0.999067,-0.381 -0.381,0 -0.7366,0.1016 -0.973666,0.254 -0.296334,0.18627 -0.4318,0.4572 -0.4318,0.67734 0,0.2286 0.186266,0.38946 0.364066,0.38946 0.220134,0 0.389467,-0.18626 0.389467,-0.34713 0,-0.1778 -0.0508,-0.2032 -0.0508,-0.3556 0,-0.2286 0.254,-0.41487 0.592667,-0.41487 0.381,0 0.6604,0.23707 0.6604,0.762 l 0,0.4572 c -0.956734,0.3556 -1.27,0.51647 -1.524,0.6858 -0.3302,0.22014 -0.592667,0.55034 -0.592667,0.9906 0,0.5588 0.364067,0.88054 0.889,0.88054 0.364067,0 0.778933,-0.11007 1.227667,-0.61807 l 0.0085,0 c 0.04233,0.44873 0.2286,0.61807 0.541867,0.61807 0.287867,0 0.508,-0.0847 0.762,-0.4064 l 0,-0.23707 z m -1.312333,-0.51647 c 0,0.24554 -0.0508,0.36407 -0.296334,0.5334 -0.143933,0.0931 -0.321733,0.13547 -0.491066,0.13547 -0.3302,0 -0.5842,-0.2032 -0.5842,-0.65193 0,-0.26247 0.08467,-0.46567 0.287866,-0.65194 0.211667,-0.19473 0.5588,-0.37253 1.083734,-0.5588 l 0,1.1938 z"/>
  </g>
 </g>
</svg>
