<?xml version="1.0" encoding="UTF-8" standalone="no"?>
<!-- Created with Inkscape (http://www.inkscape.org/) -->

<svg
   xmlns:dc="http://purl.org/dc/elements/1.1/"
   xmlns:cc="http://creativecommons.org/ns#"
   xmlns:rdf="http://www.w3.org/1999/02/22-rdf-syntax-ns#"
   xmlns:svg="http://www.w3.org/2000/svg"
   xmlns="http://www.w3.org/2000/svg"
   xmlns:sodipodi="http://sodipodi.sourceforge.net/DTD/sodipodi-0.dtd"
   xmlns:inkscape="http://www.inkscape.org/namespaces/inkscape"
   width="48"
   height="48"
   id="svg2"
   version="1.1"
   inkscape:version="0.48+devel r12378"
   sodipodi:docname="accessories-calculator.svg">
  <defs
     id="defs4" />
  <sodipodi:namedview
     id="base"
     pagecolor="#ffffff"
     bordercolor="#666666"
     borderopacity="1.0"
     inkscape:pageopacity="0.0"
     inkscape:pageshadow="2"
     inkscape:zoom="2.8"
     inkscape:cx="-10.192437"
     inkscape:cy="20.336599"
     inkscape:document-units="px"
     inkscape:current-layer="layer1"
     showgrid="false"
     inkscape:window-width="1366"
     inkscape:window-height="714"
     inkscape:window-x="0"
     inkscape:window-y="30"
     inkscape:window-maximized="1" />
  <metadata
     id="metadata7">
    <rdf:RDF>
      <cc:Work
         rdf:about="">
        <dc:format>image/svg+xml</dc:format>
        <dc:type
           rdf:resource="http://purl.org/dc/dcmitype/StillImage" />
        <dc:title />
      </cc:Work>
    </rdf:RDF>
  </metadata>
  <g
     inkscape:label="Capa 1"
     inkscape:groupmode="layer"
     id="layer1"
     transform="translate(0,-1004.3622)">
    <rect
       style="fill:#585e69;fill-opacity:1;stroke:none"
       id="rect4034"
       width="39.906727"
       height="46"
       x="4.0466366"
       y="1005.3622" />
    <rect
       y="1026.6989"
       x="18.636644"
       height="8.4374552"
       width="8.4374552"
       id="rect4040"
       style="fill:#abaeb3;fill-opacity:1;stroke:none" />
    <rect
       y="1010.8285"
       x="6.9217739"
       height="10.572234"
       width="34.156452"
       id="rect4036"
       style="fill:#303339;fill-opacity:1;stroke:none" />
    <rect
       style="fill:#abaeb3;fill-opacity:1;stroke:none"
       id="rect4038"
       width="8.4374552"
       height="8.4374552"
       x="7.9891634"
       y="1026.6989" />
    <rect
       y="1037.4585"
       x="7.9891634"
       height="8.4374552"
       width="8.4374552"
       id="rect4042"
       style="fill:#abaeb3;fill-opacity:1;stroke:none" />
    <rect
       style="fill:#abaeb3;fill-opacity:1;stroke:none"
       id="rect4044"
       width="8.4374552"
       height="8.4374552"
       x="18.636644"
       y="1037.4585" />
    <path
       style="fill:#de6143;fill-opacity:1;stroke:none"
       d="m 30.496354,1026.6988 0,8.6058 0,1.968 0,8.6059 10.573824,0 0,-8.6059 0,-1.968 0,-8.6058 L 30.496354,1026.6988 Z"
       id="rect4056"
       inkscape:connector-curvature="0" />
    <rect
       y="1028.2491"
       x="11.404434"
       height="5.3369455"
       width="1.6069133"
       id="rect4089"
       style="fill:#ffffff;fill-opacity:1;stroke:none" />
    <rect
       style="fill:#ffffff;fill-opacity:1;stroke:none"
       id="rect4091"
       width="1.6069133"
       height="5.3369455"
       x="1030.1141"
       y="-14.876364"
       transform="matrix(0,1,-1,0,0,0)" />
    <rect
       transform="matrix(0,1,-1,0,0,0)"
       y="-25.523846"
       x="1030.1141"
       height="5.3369455"
       width="1.6069133"
       id="rect4095"
       style="fill:#ffffff;fill-opacity:1;stroke:none" />
    <rect
       transform="matrix(0,1,-1,0,0,0)"
       y="-14.876364"
       x="1040.8738"
       height="5.3369455"
       width="1.6069133"
       id="rect4097"
       style="fill:#ffffff;fill-opacity:1;stroke:none" />
    <path
       sodipodi:type="arc"
       style="fill:#ffffff;fill-opacity:1;stroke:none"
       id="path4099"
       sodipodi:cx="-7.3660712"
       sodipodi:cy="-84.5"
       sodipodi:rx="0.8035714"
       sodipodi:ry="0.8035714"
       d="m -6.5624998,-84.5 c 0,0.4438 -0.3597712,0.803571 -0.8035714,0.803571 -0.4438003,0 -0.8035714,-0.359771 -0.8035714,-0.803571 0,-0.4438 0.3597711,-0.803571 0.8035714,-0.803571 C -6.922271,-85.303571 -6.5624998,-84.9438 -6.5624998,-84.5 Z"
       transform="matrix(0.99955067,0,0,0.99955067,19.570653,1124.274)" />
    <path
       transform="matrix(0.99955067,0,0,0.99955067,19.570653,1128.0045)"
       d="m -6.5624998,-84.5 c 0,0.4438 -0.3597712,0.803571 -0.8035714,0.803571 -0.4438003,0 -0.8035714,-0.359771 -0.8035714,-0.803571 0,-0.4438 0.3597711,-0.803571 0.8035714,-0.803571 C -6.922271,-85.303571 -6.5624998,-84.9438 -6.5624998,-84.5 Z"
       sodipodi:ry="0.8035714"
       sodipodi:rx="0.8035714"
       sodipodi:cy="-84.5"
       sodipodi:cx="-7.3660712"
       id="path4103"
       style="fill:#ffffff;fill-opacity:1;stroke:none"
       sodipodi:type="arc" />
    <rect
       y="750.0697"
       x="-721.21924"
       height="5.3369455"
       width="1.6069133"
       id="rect4089-6"
       style="fill:#ffffff;fill-opacity:1;stroke:none"
       transform="matrix(0.70710678,-0.70710678,0.70710678,0.70710678,0,0)" />
    <rect
       style="fill:#ffffff;fill-opacity:1;stroke:none"
       id="rect4091-8"
       width="1.6069133"
       height="5.3369455"
       x="751.93469"
       y="717.74731"
       transform="matrix(0.70710678,0.70710678,-0.70710678,0.70710678,0,0)" />
    <rect
       style="fill:#ffffff;fill-opacity:1;stroke:none"
       id="rect4126"
       width="1.6069133"
       height="5.3369455"
       x="1033.6202"
       y="-38.45174"
       transform="matrix(0,1,-1,0,0,0)" />
    <rect
       transform="matrix(0,1,-1,0,0,0)"
       y="-38.45174"
       x="1037.3502"
       height="5.3369455"
       width="1.6069133"
       id="rect4128"
       style="fill:#ffffff;fill-opacity:1;stroke:none" />
    <g
       style="font-size:24.8214283px;font-style:normal;font-variant:normal;font-weight:500;font-stretch:normal;text-align:start;line-height:125%;letter-spacing:0px;word-spacing:0px;writing-mode:lr-tb;text-anchor:start;fill:#ffffff;fill-opacity:1;stroke:none;font-family:Helvetica 65 Medium;-inkscape-font-specification:'Helvetica 65 Medium, Medium'"
       id="text4056">
      <path
         d="m 36.558936,1018.8294 0,-5.4297 -1.551339,0 0,5.4297 L 36.558936,1018.8294 z m -2.327009,0.7757 0,-0.7757 -0.77567,0 0,-5.4297 0.77567,0 0,-0.7756 3.102679,0 0,0.7756 0.775669,0 0,5.4297 -0.775669,0 0,0.7757 L 34.231927,1019.6051 Z"
         style="font-weight:normal;font-family:Game Over;-inkscape-font-specification:Game Over"
         id="path4061" />
    </g>
  </g>
</svg>
