<?xml version="1.0" standalone="no"?>
<!DOCTYPE svg PUBLIC "-//W3C//DTD SVG 20010904//EN" "http://www.w3.org/TR/2001/REC-SVG-20010904/DTD/svg10.dtd">
<!-- Created using Karbon, part of Calligra: http://www.calligra.org/karbon -->
<svg xmlns="http://www.w3.org/2000/svg" xmlns:xlink="http://www.w3.org/1999/xlink" width="38.4pt" height="38.4pt">
<defs/>
<g id="layer1">
  <rect id="shape0" transform="translate(4.00394, 4.00394)" fill="#34495e" fill-rule="evenodd" stroke="#003bc3" stroke-width="0.00000000000" stroke-linecap="square" stroke-linejoin="miter" stroke-miterlimit="2.01260191180" width="32.00320504820pt" height="32.00320504820pt"/>
  <path id="text4736" transform="translate(16.2835, 9.75785)" fill="#f2f2f2" d="M14.5823 26.5517L11.1698 26.5517L11.1698 24.32C9.80945 26.124 8.01526 27.0261 5.78717 27.0261C4.00469 27.0261 2.59163 26.5458 1.54794 25.5852C0.515977 24.6128 -1.62633e-06 23.3184 9.39515e-12 21.7018C-1.62633e-06 20.6005 0.21108 19.6458 0.633249 18.8374C1.06714 18.0291 1.71211 17.3731 2.56817 16.8694C3.43594 16.3656 4.56171 16.0259 5.94548 15.8502L11.1698 15.1473C11.1698 13.7649 10.8766 12.7282 10.2903 12.037C9.71565 11.3458 8.85371 11.0002 7.7045 11.0002C6.75462 11.0002 5.74025 11.1818 4.6614 11.545C3.59426 11.9081 2.63853 12.4353 1.7942 13.1265L1.7942 9.66473C3.98711 8.56355 6.05103 8.01296 7.98594 8.01294C10.1202 8.01296 11.7502 8.60455 12.876 9.78774C14.0135 10.971 14.5823 12.6462 14.5823 14.8134L14.5823 26.5517M11.1698 19.7512L11.1698 17.6952C8.23806 18.0701 6.58459 18.2868 6.20933 18.3454C5.8458 18.404 5.39431 18.5504 4.8549 18.7847C4.32719 19.019 3.95192 19.3295 3.72913 19.7161C3.51803 20.1026 3.4125 20.6649 3.4125 21.4031C3.4125 22.2347 3.70567 22.9142 4.292 23.4414C4.89007 23.9569 5.6699 24.2146 6.63151 24.2146C7.82764 24.2146 8.88305 23.7869 9.79774 22.9317C10.7124 22.0765 11.1698 21.0164 11.1698 19.7512M12.6473 0L7.91558 5.7637L5.5761 5.7637L9.39317 0L12.6473 0"/>
 </g>
</svg>
