<?xml version="1.0" encoding="UTF-8" standalone="no"?>
<!-- Created with Inkscape (http://www.inkscape.org/) -->

<svg
   xmlns:dc="http://purl.org/dc/elements/1.1/"
   xmlns:cc="http://creativecommons.org/ns#"
   xmlns:rdf="http://www.w3.org/1999/02/22-rdf-syntax-ns#"
   xmlns:svg="http://www.w3.org/2000/svg"
   xmlns="http://www.w3.org/2000/svg"
   xmlns:sodipodi="http://sodipodi.sourceforge.net/DTD/sodipodi-0.dtd"
   xmlns:inkscape="http://www.inkscape.org/namespaces/inkscape"
   width="48"
   height="48"
   id="svg2"
   version="1.1"
   inkscape:version="0.48+devel r12677"
   sodipodi:docname="accessories-calculator.svg">
  <defs
     id="defs4" />
  <sodipodi:namedview
     id="base"
     pagecolor="#ffffff"
     bordercolor="#666666"
     borderopacity="1.0"
     inkscape:pageopacity="0.0"
     inkscape:pageshadow="2"
     inkscape:zoom="8.3691827"
     inkscape:cx="19.114366"
     inkscape:cy="34.264386"
     inkscape:document-units="px"
     inkscape:current-layer="layer1"
     showgrid="false"
     inkscape:window-width="1366"
     inkscape:window-height="714"
     inkscape:window-x="0"
     inkscape:window-y="30"
     inkscape:window-maximized="1">
    <sodipodi:guide
       position="9,39.000017"
       orientation="30,0"
       id="guide3288" />
    <sodipodi:guide
       position="39,9.0000174"
       orientation="-30,0"
       id="guide3292" />
    <sodipodi:guide
       position="39,39.000017"
       orientation="0,-30"
       id="guide3294" />
    <sodipodi:guide
       position="7,42.000078"
       orientation="35.999939,0"
       id="guide3316" />
    <sodipodi:guide
       position="7,6.0001395"
       orientation="0,34"
       id="guide3318" />
    <sodipodi:guide
       position="41,6.0001395"
       orientation="-35.999939,0"
       id="guide3320" />
    <sodipodi:guide
       position="41,42.000078"
       orientation="0,-34"
       id="guide3322" />
  </sodipodi:namedview>
  <metadata
     id="metadata7">
    <rdf:RDF>
      <cc:Work
         rdf:about="">
        <dc:format>image/svg+xml</dc:format>
        <dc:type
           rdf:resource="http://purl.org/dc/dcmitype/StillImage" />
        <dc:title />
      </cc:Work>
    </rdf:RDF>
  </metadata>
  <g
     inkscape:label="Capa 1"
     inkscape:groupmode="layer"
     id="layer1"
     transform="translate(0,-1004.3622)">
    <rect
       style="fill:#585e69;fill-opacity:1;stroke:none"
       id="rect4034"
       width="40"
       height="40"
       x="4"
       y="1008.3621" />
    <rect
       y="1010.3621"
       x="7"
       height="35.999969"
       width="34"
       id="rect3310"
       style="fill:none;fill-opacity:1;fill-rule:evenodd;stroke:none" />
    <rect
       style="fill:none;fill-opacity:1;fill-rule:evenodd;stroke:none"
       id="rect3304"
       width="30"
       height="30"
       x="9"
       y="1013.3622" />
    <rect
       y="1010.3621"
       x="7"
       height="11"
       width="34"
       id="rect4036"
       style="fill:#303339;fill-opacity:1;stroke:none" />
    <path
       style="fill:#de6143;fill-opacity:1;stroke:none"
       d="m 30,1023.3621 0,10.3215 0,2.3569 0,10.3216 11,0 0,-10.3216 0,-2.3569 0,-10.3215 -11,0 z"
       id="rect4056"
       inkscape:connector-curvature="0" />
    <rect
       style="fill:#abaeb3;fill-opacity:1;stroke:none"
       id="rect3330"
       width="9"
       height="9"
       x="7"
       y="1023.3621" />
    <rect
       y="1037.3621"
       x="7"
       height="9"
       width="9"
       id="rect3324"
       style="fill:#abaeb3;fill-opacity:1;stroke:none" />
    <rect
       style="fill:#abaeb3;fill-opacity:1;stroke:none"
       id="rect3328"
       width="9"
       height="9"
       x="18"
       y="1037.3621" />
    <g
       style="font-size:24.8214283px;font-style:normal;font-variant:normal;font-weight:500;font-stretch:normal;text-align:start;line-height:125%;letter-spacing:0px;word-spacing:0px;writing-mode:lr-tb;text-anchor:start;fill:#ffffff;fill-opacity:1;stroke:none;font-family:Helvetica 65 Medium;-inkscape-font-specification:'Helvetica 65 Medium, Medium'"
       id="text4056"
       transform="matrix(1.0027217,0,0,1.0027217,0.78600029,-3.0180589)">
      <path
         d="m 36.558936,1018.8294 0,-5.4297 -1.551339,0 0,5.4297 1.551339,0 z m -2.327009,0.7757 0,-0.7757 -0.77567,0 0,-5.4297 0.77567,0 0,-0.7756 3.102679,0 0,0.7756 0.775669,0 0,5.4297 -0.775669,0 0,0.7757 -3.102679,0 z"
         style="font-weight:normal;font-family:Game Over;-inkscape-font-specification:Game Over"
         id="path4061"
         inkscape:connector-curvature="0" />
    </g>
    <ellipse
       ry="2.0000615"
       rx="2"
       cy="1028.3622"
       cx="46"
       id="ellipse3280"
       style="fill:none;stroke:none"
       d="m 48,1028.3622 a 2,2.0000615 0 0 1 -2,2 2,2.0000615 0 0 1 -2,-2 2,2.0000615 0 0 1 2,-2.0001 2,2.0000615 0 0 1 2,2.0001 z" />
    <ellipse
       ry="2.0000615"
       rx="2"
       cy="24"
       cx="-1050.3622"
       id="ellipse3282"
       style="fill:none;stroke:none"
       transform="matrix(0,-1,1,0,0,0)" />
    <ellipse
       style="fill:none;stroke:none"
       id="ellipse3284"
       cx="-1006.3622"
       cy="24"
       rx="2"
       ry="2.0000615"
       transform="matrix(0,-1,1,0,0,0)" />
    <ellipse
       style="fill:none;stroke:none"
       id="ellipse3296"
       cx="2"
       cy="1028.3622"
       rx="2"
       ry="2.0000615"
       d="m 4,1028.3622 a 2,2.0000615 0 0 1 -2,2 2,2.0000615 0 0 1 -2,-2 2,2.0000615 0 0 1 2,-2.0001 2,2.0000615 0 0 1 2,2.0001 z" />
    <ellipse
       transform="matrix(0,-1,1,0,0,0)"
       ry="1.0000308"
       rx="1"
       cy="24"
       cx="-1009.3622"
       id="ellipse3298"
       style="fill:none;stroke:none" />
    <ellipse
       style="fill:none;stroke:none"
       id="ellipse3300"
       cx="-1015.8628"
       cy="40"
       rx="1.0006928"
       ry="1.0000308"
       transform="matrix(0,-1,1,0,0,0)"
       d="m -1014.8621,40 a 1.0006928,1.0000308 0 0 1 -1.0007,1.000031 1.0006928,1.0000308 0 0 1 -1.0007,-1.000031 1.0006928,1.0000308 0 0 1 1.0007,-1.000031 1.0006928,1.0000308 0 0 1 1.0007,1.000031 z" />
    <ellipse
       style="fill:none;stroke:none"
       id="ellipse3302"
       cx="-1011.3622"
       cy="24"
       rx="1"
       ry="1.0000308"
       transform="matrix(0,-1,1,0,0,0)" />
    <ellipse
       transform="matrix(0,-1,1,0,0,0)"
       ry="1.0000308"
       rx="1.0006928"
       cy="8"
       cx="-1015.8628"
       id="ellipse3308"
       style="fill:none;stroke:none"
       d="m -1014.8621,8 a 1.0006928,1.0000308 0 0 1 -1.0007,1.0000308 A 1.0006928,1.0000308 0 0 1 -1016.8635,8 1.0006928,1.0000308 0 0 1 -1015.8628,6.9999692 1.0006928,1.0000308 0 0 1 -1014.8621,8 Z" />
    <ellipse
       style="fill:none;stroke:none"
       id="ellipse3312"
       cx="-1047.3622"
       cy="24"
       rx="1.0000005"
       ry="1.0000308"
       transform="matrix(0,-1,1,0,0,0)" />
    <ellipse
       transform="matrix(0,-1,1,0,0,0)"
       ry="1.0000308"
       rx="1.0006928"
       cy="17"
       cx="-1041.8628"
       id="ellipse3326"
       style="fill:none;stroke:none"
       d="m -1040.8621,17 a 1.0006928,1.0000308 0 0 1 -1.0007,1.000031 1.0006928,1.0000308 0 0 1 -1.0007,-1.000031 1.0006928,1.0000308 0 0 1 1.0007,-1.000031 1.0006928,1.0000308 0 0 1 1.0007,1.000031 z" />
    <ellipse
       style="fill:none;stroke:none"
       id="ellipse3332"
       cx="-1022.3628"
       cy="8"
       rx="1.0006928"
       ry="1.0000308"
       transform="matrix(0,-1,1,0,0,0)"
       d="m -1021.3621,8 a 1.0006928,1.0000308 0 0 1 -1.0007,1.0000308 A 1.0006928,1.0000308 0 0 1 -1023.3635,8 1.0006928,1.0000308 0 0 1 -1022.3628,6.9999692 1.0006928,1.0000308 0 0 1 -1021.3621,8 Z" />
    <rect
       y="1025.8621"
       x="11"
       height="4"
       width="1"
       id="rect3334"
       style="fill:#ffffff;fill-opacity:1;stroke:none" />
    <ellipse
       transform="matrix(0,-1,1,0,0,0)"
       ry="1.0000308"
       rx="1.0006928"
       cy="17"
       cx="-1027.8628"
       id="ellipse3336"
       style="fill:none;stroke:none"
       d="m -1026.8621,17 a 1.0006928,1.0000308 0 0 1 -1.0007,1.000031 1.0006928,1.0000308 0 0 1 -1.0007,-1.000031 1.0006928,1.0000308 0 0 1 1.0007,-1.000031 1.0006928,1.0000308 0 0 1 1.0007,1.000031 z" />
    <rect
       y="1023.3621"
       x="18"
       height="9"
       width="9"
       id="rect3338"
       style="fill:#abaeb3;fill-opacity:1;stroke:none" />
    <rect
       style="fill:#ffffff;fill-opacity:1;stroke:none"
       id="rect3342"
       width="1"
       height="4"
       x="1027.3621"
       y="-13.5"
       transform="matrix(0,1,-1,0,0,0)" />
    <rect
       transform="matrix(0,1,-1,0,0,0)"
       y="-24.5"
       x="1027.3621"
       height="4"
       width="1"
       id="rect3344"
       style="fill:#ffffff;fill-opacity:1;stroke:none" />
    <rect
       transform="matrix(0,1,-1,0,0,0)"
       y="-13.5"
       x="1041.3621"
       height="4"
       width="1"
       id="rect3346"
       style="fill:#ffffff;fill-opacity:1;stroke:none" />
    <ellipse
       style="fill:#ffffff;stroke:none"
       id="ellipse3348"
       cx="-1043.3624"
       cy="11.5"
       rx="0.50034642"
       ry="0.50001538"
       transform="matrix(0,-1,1,0,0,0)"
       d="m -1042.8621,11.5 a 0.50034642,0.50001538 0 0 1 -0.5003,0.500015 0.50034642,0.50001538 0 0 1 -0.5004,-0.500015 0.50034642,0.50001538 0 0 1 0.5004,-0.500015 0.50034642,0.50001538 0 0 1 0.5003,0.500015 z" />
    <ellipse
       transform="matrix(0,-1,1,0,0,0)"
       ry="0.50001538"
       rx="0.50034642"
       cy="11.5"
       cx="-1040.3624"
       id="ellipse3354"
       style="fill:#ffffff;stroke:none"
       d="m -1039.8621,11.5 a 0.50034642,0.50001538 0 0 1 -0.5003,0.500015 0.50034642,0.50001538 0 0 1 -0.5004,-0.500015 0.50034642,0.50001538 0 0 1 0.5004,-0.500015 0.50034642,0.50001538 0 0 1 0.5003,0.500015 z" />
    <ellipse
       transform="matrix(0,-1,1,0,0,0)"
       ry="1.0000308"
       rx="1.0006928"
       cy="40"
       cx="-1022.3628"
       id="ellipse3356"
       style="fill:none;stroke:none"
       d="m -1021.3621,40 a 1.0006928,1.0000308 0 0 1 -1.0007,1.000031 1.0006928,1.0000308 0 0 1 -1.0007,-1.000031 1.0006928,1.0000308 0 0 1 1.0007,-1.000031 1.0006928,1.0000308 0 0 1 1.0007,1.000031 z" />
    <rect
       style="fill:#ffffff;fill-opacity:1;stroke:none"
       id="rect3358"
       width="1"
       height="4"
       x="1035.8621"
       y="-37.5"
       transform="matrix(0,1,-1,0,0,0)" />
    <ellipse
       style="fill:none;stroke:none"
       id="ellipse3360"
       cx="-1034.8628"
       cy="35.5"
       rx="1.0006928"
       ry="1.0000308"
       transform="matrix(0,-1,1,0,0,0)"
       d="m -1033.8621,35.5 a 1.0006928,1.0000308 0 0 1 -1.0007,1.000031 1.0006928,1.0000308 0 0 1 -1.0007,-1.000031 1.0006928,1.0000308 0 0 1 1.0007,-1.000031 1.0006928,1.0000308 0 0 1 1.0007,1.000031 z" />
    <rect
       style="fill:#ffffff;fill-opacity:1;stroke:none"
       id="rect3362"
       width="1"
       height="4"
       x="1032.8621"
       y="-37.5"
       transform="matrix(0,1,-1,0,0,0)" />
    <rect
       y="1039.8621"
       x="20.5"
       height="4"
       width="4"
       id="rect3376"
       style="fill:none;fill-opacity:1;stroke:none" />
    <rect
       style="fill:#ffffff;fill-opacity:1;stroke:none"
       id="rect3372"
       width="1"
       height="4.6570001"
       x="-721.29779"
       y="750.28906"
       transform="matrix(0.70710678,-0.70710678,0.70710678,0.70710678,0,0)" />
    <rect
       transform="matrix(0.70710678,0.70710678,0.70710678,-0.70710678,0,0)"
       y="-723.12628"
       x="752.11755"
       height="4.6570001"
       width="1"
       id="rect3378"
       style="fill:#ffffff;fill-opacity:1;stroke:none" />
  </g>
</svg>
