<?xml version="1.0" standalone="no"?>
<!DOCTYPE svg PUBLIC "-//W3C//DTD SVG 20010904//EN" "http://www.w3.org/TR/2001/REC-SVG-20010904/DTD/svg10.dtd">
<!-- Created using Karbon, part of Calligra: http://www.calligra.org/karbon -->
<svg xmlns="http://www.w3.org/2000/svg" xmlns:xlink="http://www.w3.org/1999/xlink" width="38.4pt" height="38.4pt">
<defs/>
<g id="layer1">
  <path id="shape0" transform="translate(4.00391, 4.00386)" fill="#006bff" fill-rule="evenodd" stroke="#003bc3" stroke-width="0.00000000000" stroke-linecap="square" stroke-linejoin="miter" stroke-miterlimit="2.01260185242" d="M39.997 19.47C39.7045 8.47897 30.5956 -0.215327 19.6029 0.00406223C8.61023 0.223451 -0.144458 9.27426 0.00180632 20.2682C0.148071 31.2621 9.14045 40.0768 20.1351 40.0036C31.1297 39.9305 40.004 30.997 40.004 20.0021"/>
  <path id="shape1" transform="translate(7.68936, 24.0059)" fill="#4895ff" fill-rule="evenodd" stroke="#003bc3" stroke-width="0.00000000000" stroke-linecap="square" stroke-linejoin="miter" stroke-miterlimit="2.00000000000" d="M0 0.110149C0.0606873 9.04134 7.33401 16.2409 16.2654 16.2106C25.1967 16.1802 32.4209 8.9314 32.4209 -2.05067e-18"/>
  <path id="shape2" transform="translate(12.4016, 12.4016)" fill="#91bfff" fill-rule="evenodd" stroke="#003bc3" stroke-width="0.00000000000" stroke-linecap="square" stroke-linejoin="miter" stroke-miterlimit="2.00000000000" d="M23.0069 10.7633C22.5961 4.4903 17.2303 -0.294098 10.9513 0.0140894C4.67229 0.322277 -0.199236 5.60916 0.00626953 11.8923C0.211776 18.1754 5.41835 23.1327 11.7041 23.03C17.9898 22.9272 23.0315 17.8024 23.0315 11.5159"/>
 </g>
</svg>
