<?xml version="1.0" standalone="no"?>
<!DOCTYPE svg PUBLIC "-//W3C//DTD SVG 20010904//EN" "http://www.w3.org/TR/2001/REC-SVG-20010904/DTD/svg10.dtd">
<!-- Created using Karbon, part of Calligra: http://www.calligra.org/karbon -->
<svg xmlns="http://www.w3.org/2000/svg" xmlns:xlink="http://www.w3.org/1999/xlink" width="38.4pt" height="38.4pt">
<defs/>
<g id="layer1">
  <path id="shape0" transform="matrix(0.939383 0.342871 -0.342871 0.939383 17.454 9.54158)" fill="#48cffe" fill-opacity="0.60784313725" fill-rule="evenodd" stroke="#003bc3" stroke-width="0.00000000000" stroke-linecap="square" stroke-linejoin="miter" stroke-miterlimit="2.00000000000" d="M2.96915e-05 12.358C-0.0147637 19.1866 5.5003 24.7387 12.3288 24.7696C19.1573 24.8005 24.7224 19.2985 24.7694 12.4701C24.8164 5.64176 19.3276 0.0636831 12.4994 0.000540651C5.67111 -0.0626018 0.0800931 5.41302 0.000834899 12.2411"/>
  <path id="shape1" transform="matrix(0.939383 0.342871 -0.342871 0.939383 9.12047 18.1241)" fill="#008eff" fill-opacity="0.66666666667" fill-rule="evenodd" stroke="#003bc3" stroke-width="0.00000000000" stroke-linecap="square" stroke-linejoin="miter" stroke-miterlimit="2.00000000000" d="M3.99412e-05 -7.86392e-16C-0.0130845 6.05812 3.20906 11.6624 8.45118 14.699C13.6933 17.7357 20.1578 17.7427 25.4065 14.7174C30.6552 11.6921 33.8894 6.09485 33.8894 0.0367092"/>
  <path id="shape2" transform="matrix(0.969841 -0.24374 0.24374 0.969841 3.78021 29.0726)" fill="#002ab6" fill-opacity="0.74117647059" fill-rule="evenodd" stroke="#003bc3" stroke-width="0.00000000000" stroke-linecap="square" stroke-linejoin="miter" stroke-miterlimit="2.01260191180" d="M5.01127e-05 0C-0.0164166 7.60089 4.02628 14.6323 10.6034 18.4423C17.1804 22.2522 25.2912 22.261 31.8765 18.4653C38.4618 14.6696 42.5198 7.64697 42.5198 0.0460576"/>
 </g>
</svg>
