<?xml version="1.0" standalone="no"?>
<!DOCTYPE svg PUBLIC "-//W3C//DTD SVG 20010904//EN" "http://www.w3.org/TR/2001/REC-SVG-20010904/DTD/svg10.dtd">
<!-- Created using Karbon, part of Calligra: http://www.calligra.org/karbon -->
<svg xmlns="http://www.w3.org/2000/svg" xmlns:xlink="http://www.w3.org/1999/xlink" width="38.4pt" height="38.4pt">
<defs/>
<g id="layer1">
  <path id="shape0" transform="matrix(0.999141 0.00780974 0.0490915 0.997886 7.8995 8.74372)" fill="#48aeff" fill-rule="evenodd" stroke="#003bc3" stroke-width="0.00000000000" stroke-linecap="square" stroke-linejoin="miter" stroke-miterlimit="2.00000000000" d="M31.7533 15.3642C31.6279 6.77811 24.4529 -0.091418 15.7067 0.000920074C6.96058 0.0932582 -0.0622868 7.11267 0.000416634 15.6995C0.0631201 24.2864 7.18777 31.2063 15.9344 31.1754C24.681 31.1446 31.7549 24.1749 31.7549 15.5877"/>
  <path id="shape1" transform="matrix(0.872235 0.489087 -0.489087 0.872235 8.50224 14.4665)" fill="#003cff" fill-rule="evenodd" stroke="#003bc3" stroke-width="0.00000000000" stroke-linecap="square" stroke-linejoin="miter" stroke-miterlimit="2.00000000000" d="M3.08374e-05 0C-0.0121881 7.09092 3.60756 13.6493 9.49431 17.2021C15.3811 20.755 22.6394 20.7617 28.5323 17.22C34.4251 13.6782 38.0561 7.12656 38.0561 0.0356319"/>
  <path id="shape2" transform="matrix(0.993592 -0.113026 0.113026 0.993592 2.31074 27.13)" fill="#2300ff" fill-rule="evenodd" stroke="#003bc3" stroke-width="0.00000000000" stroke-linecap="square" stroke-linejoin="miter" stroke-miterlimit="2.01260185242" d="M3.58471e-05 0C-0.0141682 7.94829 4.19367 15.2997 11.0368 19.282C17.88 23.2644 26.3176 23.2721 33.1678 19.302C40.0181 15.332 44.2391 7.98824 44.2391 0.0399401"/>
 </g>
</svg>
