<?xml version="1.0" standalone="no"?>
<!DOCTYPE svg PUBLIC "-//W3C//DTD SVG 20010904//EN" "http://www.w3.org/TR/2001/REC-SVG-20010904/DTD/svg10.dtd">
<!-- Created using Karbon, part of Calligra: http://www.calligra.org/karbon -->
<svg xmlns="http://www.w3.org/2000/svg" xmlns:xlink="http://www.w3.org/1999/xlink" width="38.4pt" height="38.4pt">
<defs/>
<g id="layer1">
  <path id="shape1" transform="matrix(1 0 0 -1 7.77888 23.8808)" fill="#249eff" fill-rule="evenodd" stroke="#003bc3" stroke-width="0.00000000000" stroke-linecap="square" stroke-linejoin="miter" stroke-miterlimit="2.00000000000" d="M0.000309621 0C-0.0359145 5.70324 3.10865 10.9894 8.24372 13.8574C13.3788 16.7255 19.7197 16.7374 24.8664 13.8884C30.013 11.0395 33.1789 5.76518 33.1658 0.0618399"/>
  <path id="shape0" transform="matrix(0.876105 0.482322 -0.47002 0.882656 7.99512 14.9326)" fill="#2457ff" fill-rule="evenodd" stroke="#003bc3" stroke-width="0.00000000000" stroke-linecap="square" stroke-linejoin="miter" stroke-miterlimit="2.00000000000" d="M0.000341609 0.01321C-0.0402719 7.17115 3.54303 13.8036 9.39042 17.3936C15.2379 20.9838 22.4532 20.9812 28.2984 17.387C34.1436 13.7929 37.7228 7.15792 37.6776 0"/>
  <path id="shape01" transform="translate(3.18476, 23.8187)" fill="#0033da" fill-rule="evenodd" stroke="#003bc3" stroke-width="0.00000000000" stroke-linecap="square" stroke-linejoin="miter" stroke-miterlimit="2.01260185242" d="M0.000385506 0.0140764C-0.0454469 7.64147 3.99831 14.7089 10.5971 18.5344C17.196 22.36 25.3385 22.3573 31.9348 18.5274C38.5311 14.6975 42.5702 7.62737 42.5193 0"/>
 </g>
</svg>
