<?xml version="1.0" standalone="no"?>
<!DOCTYPE svg PUBLIC "-//W3C//DTD SVG 20010904//EN" "http://www.w3.org/TR/2001/REC-SVG-20010904/DTD/svg10.dtd">
<!-- Created using Karbon, part of Calligra: http://www.calligra.org/karbon -->
<svg xmlns="http://www.w3.org/2000/svg" xmlns:xlink="http://www.w3.org/1999/xlink" width="38.4pt" height="38.4pt">
<defs/>
<g id="layer1">
  <path id="shape0" transform="translate(4.00391, 4.00386)" fill="#008eff" fill-rule="evenodd" stroke="#003bc3" stroke-width="0.00000000000" stroke-linecap="square" stroke-linejoin="miter" stroke-miterlimit="2.01260185242" d="M39.997 19.47C39.7045 8.47897 30.5956 -0.215327 19.6029 0.00406223C8.61023 0.223451 -0.144458 9.27426 0.00180632 20.2682C0.148071 31.2621 9.14045 40.0768 20.1351 40.0036C31.1297 39.9305 40.004 30.997 40.004 20.0021"/>
  <path id="shape1" transform="translate(9.08108, 25.1955)" fill="#00bcfe" fill-rule="evenodd" stroke="#003bc3" stroke-width="0.00000000000" stroke-linecap="square" stroke-linejoin="miter" stroke-miterlimit="2.00000000000" d="M0 0.0939832C0.0554771 7.7144 6.70436 13.8573 14.869 13.8315C23.0335 13.8055 29.6375 7.6206 29.6375 -1.74971e-18"/>
  <path id="shape2" transform="translate(14.6455, 14.8618)" fill="#91e2fe" fill-rule="evenodd" stroke="#003bc3" stroke-width="0.00000000000" stroke-linecap="square" stroke-linejoin="miter" stroke-miterlimit="2.00000000000" d="M18.5239 8.46386C18.1931 3.53101 13.8729 -0.231268 8.81738 0.0110794C3.76187 0.253427 -0.160414 4.41084 0.00504787 9.35167C0.17051 14.2925 4.36255 18.1907 9.42349 18.1099C14.4844 18.0291 18.5437 13.9992 18.5437 9.05568"/>
 </g>
</svg>
