<?xml version="1.0" standalone="no"?>
<!DOCTYPE svg PUBLIC "-//W3C//DTD SVG 20010904//EN" "http://www.w3.org/TR/2001/REC-SVG-20010904/DTD/svg10.dtd">
<!-- Created using Karbon, part of Calligra: http://www.calligra.org/karbon -->
<svg xmlns="http://www.w3.org/2000/svg" xmlns:xlink="http://www.w3.org/1999/xlink" width="38.4pt" height="38.4pt">
<defs/>
<g id="layer1">
  <path id="shape0" transform="translate(13.2754, 8.63517)" fill="#7fb4ff" fill-rule="evenodd" stroke="#003bc3" stroke-width="0.00000000000" stroke-linecap="square" stroke-linejoin="miter" stroke-miterlimit="2.01260185242" d="M25.8568 11.6681C25.1552 4.67138 19.0024 -0.489589 11.9904 0.0369509C4.97831 0.56349 -0.334757 6.58544 0.0164525 13.6085C0.367662 20.6315 6.25501 26.0933 13.2846 25.9177C20.3142 25.742 25.9214 19.9929 25.9214 12.9611"/>
  <path id="Фигура" transform="matrix(0.840852 0.541266 -0.541266 0.840852 13.7574 9.08194)" fill="#2480ff" fill-rule="evenodd" stroke="#003bc3" stroke-width="0.00000000000" stroke-linecap="square" stroke-linejoin="miter" stroke-miterlimit="2.00000000000" d="M0.393416 0C-1.60139 9.22991 4.18221 18.352 13.3812 20.4847C22.5802 22.6175 31.7879 16.9711 34.0581 7.8051"/>
  <path id="shape1" transform="matrix(0.992552 0.121828 -0.121828 0.992552 4.65581 16.4995)" fill="#155d97" fill-rule="evenodd" stroke="#003bc3" stroke-width="0.00000000000" stroke-linecap="square" stroke-linejoin="miter" stroke-miterlimit="2.00000000000" d="M0.000209368 2.71633C-0.0352093 10.7816 4.42557 18.1949 11.5682 21.9409C18.7109 25.6869 27.3455 25.1417 33.9603 20.527C40.575 15.9122 44.0678 7.99678 43.0182 0"/>
 </g>
</svg>
