<svg xmlns="http://www.w3.org/2000/svg" width="48" height="48">
 <rect width="34" height="40" x="7" y="4" style="fill:#2c3e50"/>
 <rect width="7" height="40" x="7" y="4" style="fill:#3498db"/>
 <path d="M 27.5 15 C 22.514 15 18.5 19.014 18.5 24 C 18.5 24.05545 18.506824 24.108858 18.507812 24.164062 C 18.506206 24.225725 18.5 24.285588 18.5 24.347656 C 18.5 25.158426 18.644438 25.933546 18.896484 26.65625 C 20.024906 30.337157 23.439764 33 27.5 33 C 32.486 33 36.5 28.986 36.5 24 C 36.5 19.014 32.486 15 27.5 15 z M 27.5 17 C 31.378 17 34.5 20.122 34.5 24 C 34.5 27.847629 31.42558 30.94772 27.589844 30.996094 C 29.958372 30.248064 31.774469 28.279995 32.298828 25.818359 C 31.021418 27.291189 29.13895 28.224609 27.027344 28.224609 C 24.040947 28.224609 21.512962 26.363692 20.513672 23.736328 C 20.652721 19.982686 23.711169 17 27.5 17 z " style="fill:#ecf0f1"/>
</svg>
