<?xml version="1.0" standalone="no"?>
<!DOCTYPE svg PUBLIC "-//W3C//DTD SVG 20010904//EN" "http://www.w3.org/TR/2001/REC-SVG-20010904/DTD/svg10.dtd">
<!-- Created using Karbon, part of Calligra: http://www.calligra.org/karbon -->
<svg xmlns="http://www.w3.org/2000/svg" xmlns:xlink="http://www.w3.org/1999/xlink" width="38.4pt" height="38.4pt">
<defs/>
<g id="layer1">
  <path id="shape0" transform="translate(2.54448, 2.54443)" fill="#005191" fill-rule="evenodd" stroke="#003bc3" stroke-width="0.00000000000" stroke-linecap="square" stroke-linejoin="miter" stroke-miterlimit="2.01260185242" d="M42.9153 20.8906C42.6015 9.09763 32.828 -0.231038 21.0332 0.00435862C9.23847 0.239755 -0.154998 9.95095 0.00193811 21.747C0.158875 33.5431 9.80737 43.001 21.6042 42.9224C33.401 42.844 42.9229 33.2587 42.9229 21.4615"/>
  <path id="shape01" transform="translate(9.40295, 9.40291)" fill="#0065b6" fill-rule="evenodd" stroke="#003bc3" stroke-width="0.00000000000" stroke-linecap="square" stroke-linejoin="miter" stroke-miterlimit="2.01260185242" d="M29.1647 14.1722C28.9377 6.1605 22.2885 -0.166921 14.2754 0.00335763C6.26232 0.173636 -0.112031 6.77781 0.00149307 14.7919C0.115017 22.806 6.67388 29.227 14.6886 29.1702C22.7033 29.1134 29.1705 22.6002 29.1705 14.5853"/>
  <path id="shape1" transform="translate(9.403, 23.9882)" fill="#008eff" fill-rule="evenodd" stroke="#003bc3" stroke-width="0.00000000000" stroke-linecap="square" stroke-linejoin="miter" stroke-miterlimit="2.00000000000" d="M0 0.0217651C0.0120142 8.07272 6.54516 14.5913 14.5961 14.5852C22.6471 14.5792 29.1705 8.05096 29.1705 -1.17437e-18"/>
  <path id="shape2" transform="translate(15.9357, 16.1233)" fill="#48cffe" fill-rule="evenodd" stroke="#003bc3" stroke-width="0.00000000000" stroke-linecap="square" stroke-linejoin="miter" stroke-miterlimit="2.00000000000" d="M16.0677 7.34159C15.7808 3.06282 12.0334 -0.200603 7.64824 0.0096103C3.26306 0.219824 -0.139144 3.82598 0.00437857 8.11169C0.147901 12.3974 3.7841 15.7787 8.17398 15.7086C12.5638 15.6385 16.0849 12.143 16.0849 7.85494"/>
 </g>
</svg>
