<?xml version="1.0" standalone="no"?>
<!DOCTYPE svg PUBLIC "-//W3C//DTD SVG 20010904//EN" "http://www.w3.org/TR/2001/REC-SVG-20010904/DTD/svg10.dtd">
<!-- Created using Karbon, part of Calligra: http://www.calligra.org/karbon -->
<svg xmlns="http://www.w3.org/2000/svg" xmlns:xlink="http://www.w3.org/1999/xlink" width="38.4pt" height="38.4pt">
<defs/>
<g id="layer1">
  <path id="shape0" transform="translate(7.08672, 23.494)" fill="none" stroke="#0d5887" stroke-width="6.87402765650" stroke-linecap="butt" stroke-linejoin="miter" stroke-miterlimit="2.01260191180" d="M0.000827295 0.345045C-0.0596128 6.47034 3.19547 12.1499 8.5111 15.1941C13.8267 18.2382 20.3726 18.1715 25.6251 15.0195C30.8775 11.8676 34.0161 6.12279 33.8307 0"/>
  <path id="shape1" transform="translate(13.2242, 17.6822)" fill="none" stroke="#2980b9" stroke-width="6.87402765650" stroke-linecap="butt" stroke-linejoin="miter" stroke-miterlimit="2.01260191180" d="M2.04664 0C-1.16762 4.44108 -0.535067 10.5876 3.51633 14.2809C7.56774 17.9743 13.7464 18.037 17.872 14.4267C21.9975 10.8164 22.7548 4.68403 19.6314 0.178583"/>
  <path id="shape2" transform="translate(15.9728, 15.9455)" fill="#52beea" fill-rule="evenodd" stroke="#2980b9" stroke-width="0.00000000000" stroke-linecap="square" stroke-linejoin="miter" stroke-miterlimit="2.01260191180" d="M16.1044 7.78547C15.9567 3.36585 12.2734 -0.108197 7.85268 0.00257706C3.43198 0.113351 -0.0727073 3.76752 0.00114607 8.18899C0.0749995 12.6105 3.69977 16.1455 8.12171 16.1086C12.5436 16.0717 16.1089 12.4766 16.1089 8.05447"/>
 </g>
</svg>
