<svg xmlns="http://www.w3.org/2000/svg" width="48" height="48" viewBox="0 0 47.999998 48.000001">
 <g transform="translate(0,-1004.3622)">
  <rect width="40" height="40" x="4" y="1008.36" style="fill:#f39c12" fill-rule="evenodd" rx="20"/>
  <path d="m 37.764275,36.719215 a 7.5025368,7.2807674 0 1 1 -15.005074,0 7.5025368,7.2807674 0 1 1 15.005074,0 z" transform="matrix(0.89187994,0,0,0.78321469,2.3726476,1008.9135)" style="fill:#34495e"/>
  <path d="m 22.714024,1013.3622 2.539788,0 0,24 -2.556949,0.074 z" style="fill:#34495e"/>
  <path transform="translate(-1.5e-6,1004.3622)" d="m 15,8.9999819 9.875007,0 0.02031,4.0000001 z" style="fill:#34495e"/>
  <path transform="matrix(0.70023865,0,0,0.61492268,8.1720462,1015.0931)" d="m 37.764275,36.719215 a 7.5025368,7.2807674 0 1 1 -15.005074,0 7.5025368,7.2807674 0 1 1 15.005074,0 z" style="fill:#ecf0f1"/>
 </g>
</svg>
