<?xml version="1.0" encoding="UTF-8" standalone="no"?>
<!-- Created with Inkscape (http://www.inkscape.org/) -->

<svg
   xmlns:dc="http://purl.org/dc/elements/1.1/"
   xmlns:cc="http://creativecommons.org/ns#"
   xmlns:rdf="http://www.w3.org/1999/02/22-rdf-syntax-ns#"
   xmlns:svg="http://www.w3.org/2000/svg"
   xmlns="http://www.w3.org/2000/svg"
   xmlns:sodipodi="http://sodipodi.sourceforge.net/DTD/sodipodi-0.dtd"
   xmlns:inkscape="http://www.inkscape.org/namespaces/inkscape"
   width="48"
   height="48"
   id="svg2"
   version="1.1"
   inkscape:version="0.48+devel r12351"
   sodipodi:docname="beatbox.svg">
  <defs
     id="defs4" />
  <sodipodi:namedview
     id="base"
     pagecolor="#ffffff"
     bordercolor="#666666"
     borderopacity="1.0"
     inkscape:pageopacity="0.0"
     inkscape:pageshadow="2"
     inkscape:zoom="11.313708"
     inkscape:cx="26.756636"
     inkscape:cy="24.973944"
     inkscape:document-units="px"
     inkscape:current-layer="layer1"
     showgrid="false"
     fit-margin-top="0"
     fit-margin-left="0"
     fit-margin-right="0"
     fit-margin-bottom="0"
     inkscape:window-width="1366"
     inkscape:window-height="714"
     inkscape:window-x="0"
     inkscape:window-y="30"
     inkscape:window-maximized="1"
     showguides="false" />
  <metadata
     id="metadata7">
    <rdf:RDF>
      <cc:Work
         rdf:about="">
        <dc:format>image/svg+xml</dc:format>
        <dc:type
           rdf:resource="http://purl.org/dc/dcmitype/StillImage" />
        <dc:title />
      </cc:Work>
    </rdf:RDF>
  </metadata>
  <g
     inkscape:label="Capa 1"
     inkscape:groupmode="layer"
     id="layer1"
     transform="translate(-180.23661,-689.8125)">
    <path
       sodipodi:type="arc"
       style="fill:#2c2c2c;fill-opacity:1;stroke:none"
       id="path826"
       sodipodi:cx="50.25"
       sodipodi:cy="25.75"
       sodipodi:rx="19"
       sodipodi:ry="19"
       d="m 69.25,25.75 a 19,19 0 1 1 -38,0 A 19,19 0 1 1 69.25,25.75 Z"
       transform="matrix(1.0367475,0,0,1.037593,155.44184,687.09455)" />
    <rect
       y="693.27673"
       x="181.23662"
       height="0.51268882"
       width="41.037922"
       id="rect848"
       style="fill:#ffffff;fill-opacity:0.31372549;stroke:none" />
    <rect
       style="fill:#ff8000;fill-opacity:1;stroke:none"
       id="rect824"
       width="41"
       height="41.071396"
       x="181.23662"
       y="693.27673" />
    <g
       id="g829"
       transform="matrix(0.06404897,1.6769689e-8,-1.6769689e-8,0.06404897,185.34009,697.41589)"
       style="fill:#ffffff">
	<path
   id="path831"
   d="m 199.5,318.466 c -16,-4.635 -7.93,-7.499 -18.514,-7.499 -25.814,0 -41.969,16.406 -41.969,36.634 0,20.242 12.41,36.649 38.227,36.649 25.831,0 38.256,-16.407 38.256,-36.649 l 0,-109.934 112,-54.951 0,117.417 c -16,-4.634 -6.475,-7.483 -17.057,-7.483 -25.801,0 -41.25,16.407 -41.25,36.634 0,20.243 11.33,36.649 37.146,36.649 25.831,0 37.16,-16.406 37.16,-36.649 l 0,-201.534 -144,73.284 L 199.499,318.466 Z"
   inkscape:connector-curvature="0"
   style="fill:#ffffff" />

	<path
   id="path833"
   d="M 256,-0.5 C 114.349,-0.5 -0.5,114.333 -0.5,256 -0.5,397.667 114.349,512.5 256,512.5 397.683,512.5 512.5,397.667 512.5,256 512.5,114.333 397.683,-0.5 256,-0.5 z m 0,472.922 C 136.485,472.422 39.578,375.53 39.578,256 39.578,136.47 136.485,39.578 256,39.578 375.546,39.578 472.422,136.47 472.422,256 472.422,375.53 375.546,472.422 256,472.422 Z"
   inkscape:connector-curvature="0"
   style="fill:#ffffff" />

</g>
    <rect
       y="693.22314"
       x="181.23662"
       height="1"
       width="41"
       id="rect965"
       style="fill:#ffffff;fill-opacity:0.31372549;stroke:none" />
  </g>
</svg>
