<svg xmlns="http://www.w3.org/2000/svg" width="48" height="48" viewBox="0 0 47.999998 48.000001">
 <g transform="translate(0,-1004.3622)">
  <rect width="40" height="40" x="4" y="1008.36" style="fill:#f29c33" fill-rule="evenodd" rx="20"/>
  <path d="m 22.200554,1019.3622 0,2.3999 -0.0013,0 -2.399041,0 -2.400214,0 0,1.1998 2.400214,0 0,2.3602 c -3.6e-5,0.014 -0.0013,0.026 -0.0013,0.039 0,0.011 0.0013,0.015 0.0013,0.024 l 0,6.3044 c -1.8e-5,0.012 -0.0013,0.021 -0.0013,0.032 0,0.02 0.0013,0.037 0.0013,0.056 l 0,1.985 -2.400214,0 0,1.1998 2.400214,0 2.039244,0 0.360968,0 0,2.3999 1.200107,0 0,-2.3999 1.200106,0 0,2.3999 1.200106,0 0,-2.3999 1.559905,0 c 1.795119,0 3.23935,-1.4452 3.23935,-3.2398 0,-1.7216 -1.329025,-3.118 -3.021363,-3.2298 1.088667,-0.6176 1.821256,-1.7839 1.821256,-3.1298 0,-1.9938 -1.605119,-3.5991 -3.599148,-3.5997 l 0,-2.3998 -1.200106,0 0,2.3998 -1.200106,0 0,-2.3998 -1.200107,0 z m 1.648975,3.7497 1.500133,0 c 1.246612,0 2.250201,1.0035 2.250201,2.25 0,1.2464 -1.003589,2.2498 -2.250201,2.2498 l -1.500133,0 c -0.154627,0 -0.304334,-0.015 -0.45004,-0.046 l 0,-4.4082 c 0.145706,-0.031 0.295413,-0.046 0.45004,-0.046 z m -0.08906,6.4496 2.879554,0 c 1.196745,0 2.159956,0.9632 2.159956,2.1597 0,1.1966 -0.963211,2.1597 -2.159956,2.1597 l -2.879554,0 c -0.123543,0 -0.243202,-0.017 -0.360968,-0.037 l 0,-4.2469 c 0.117766,-0.021 0.237425,-0.037 0.360968,-0.037 z" style="fill:#ffffff" fill-rule="evenodd"/>
 </g>
</svg>
