<?xml version="1.0" standalone="no"?>
<!DOCTYPE svg PUBLIC "-//W3C//DTD SVG 20010904//EN" "http://www.w3.org/TR/2001/REC-SVG-20010904/DTD/svg10.dtd">
<!-- Created using Karbon, part of Calligra: http://www.calligra.org/karbon -->
<svg xmlns="http://www.w3.org/2000/svg" xmlns:xlink="http://www.w3.org/1999/xlink" width="38.4pt" height="38.4pt">
<defs/>
<g id="layer1">
  <path id="shape0" transform="translate(14.5924, 14.5523)" fill="#ff9e22" fill-rule="evenodd" stroke="#003bc3" stroke-width="0.00000000000" stroke-linecap="square" stroke-linejoin="miter" stroke-miterlimit="2.01260185242" d="M31.4762 15.8311C31.3506 6.98287 24.2374 -0.0952824 15.5678 0.000970138C6.89818 0.0972232 -0.0624479 7.33163 0.000422564 16.1806C0.0632931 25.0296 7.12599 32.1603 15.796 32.1281C24.4661 32.0961 31.478 24.9133 31.478 16.0642"/>
  <path id="shape1" transform="matrix(0.933126 -0.359601 0.348356 0.937381 9.6768 16.2424)" fill="none" stroke="#ff9e22" stroke-width="6.87013001195" stroke-linecap="round" stroke-linejoin="bevel" d="M23.6892 11.5596L0 0"/>
  <path id="shape2" transform="matrix(0.752425 0.668765 -0.738129 0.672838 25.8244 5.88424)" fill="none" stroke="#ff9e22" stroke-width="6.87013001195" stroke-linecap="round" stroke-linejoin="bevel" d="M22.1272 3.40985L0 0"/>
  <path id="shape3" transform="matrix(0.613082 -0.790085 0.777467 0.629006 5.12563 33.873)" fill="none" stroke="#ff9e22" stroke-width="6.87013001195" stroke-linecap="round" stroke-linejoin="bevel" d="M26.1209 7.33714L0 0"/>
  <path id="shape4" transform="translate(19.8982, 20.0621)" fill="#e6e6e6" fill-rule="evenodd" stroke="#003bc3" stroke-width="0.00000000000" stroke-linecap="square" stroke-linejoin="miter" stroke-miterlimit="2.00000000000" d="M21.529 10.7645C21.529 4.81944 16.7095 3.64031e-16 10.7645 0C4.81943 -3.64031e-16 7.2806e-16 4.81944 0 10.7645C-7.2806e-16 16.7094 4.81943 21.529 10.7645 21.529C16.7095 21.529 21.529 16.7094 21.529 10.7645"/>
  <path id="shape5" transform="translate(26.1709, 25.7487)" fill="#006bff" fill-rule="evenodd" stroke="#003bc3" stroke-width="0.00000000000" stroke-linecap="square" stroke-linejoin="miter" stroke-miterlimit="2.00000000000" d="M9.70868 4.85435C9.70868 2.17336 7.53531 1.64162e-16 4.85434 0C2.17336 -1.64162e-16 3.28325e-16 2.17336 0 4.85435C-3.28325e-16 7.53532 2.17336 9.70868 4.85434 9.70868C7.53531 9.70868 9.70868 7.53532 9.70868 4.85435"/>
 </g>
</svg>
