<?xml version="1.0" standalone="no"?>
<!DOCTYPE svg PUBLIC "-//W3C//DTD SVG 20010904//EN" "http://www.w3.org/TR/2001/REC-SVG-20010904/DTD/svg10.dtd">
<!-- Created using Karbon, part of Calligra: http://www.calligra.org/karbon -->
<svg xmlns="http://www.w3.org/2000/svg" xmlns:xlink="http://www.w3.org/1999/xlink" width="38.4pt" height="38.4pt">
<defs/>
<g id="layer1">
  <path id="shape0" transform="translate(14.5924, 14.5523)" fill="#f39c12" fill-rule="evenodd" stroke="#003bc3" stroke-width="0.00000000000" stroke-linecap="square" stroke-linejoin="miter" stroke-miterlimit="2.01260185242" d="M31.4762 15.8311C31.3506 6.98287 24.2374 -0.0952824 15.5678 0.000970138C6.89818 0.0972232 -0.0624479 7.33163 0.000422564 16.1806C0.0632931 25.0296 7.12599 32.1603 15.796 32.1281C24.4661 32.0961 31.478 24.9133 31.478 16.0642"/>
  <path id="shape1" transform="matrix(0.933126 -0.359601 0.348356 0.937381 9.6768 16.2424)" fill="none" stroke="#f39c12" stroke-width="6.87402765650" stroke-linecap="round" stroke-linejoin="bevel" d="M23.6892 11.5596L0 0"/>
  <path id="shape2" transform="matrix(0.752425 0.668765 -0.738129 0.672838 25.8244 5.88424)" fill="none" stroke="#f39c12" stroke-width="6.87402765650" stroke-linecap="round" stroke-linejoin="bevel" d="M22.1272 3.40985L0 0"/>
  <path id="shape3" transform="matrix(0.613082 -0.790085 0.777467 0.629006 5.12563 33.873)" fill="none" stroke="#f39c12" stroke-width="6.87402765650" stroke-linecap="round" stroke-linejoin="bevel" d="M26.1209 7.33714L0 0"/>
  <path id="shape4" transform="translate(20.2944, 20.7826)" fill="#f2f2f2" fill-rule="evenodd" stroke="#003bc3" stroke-width="0.00000000000" stroke-linecap="square" stroke-linejoin="miter" stroke-miterlimit="2.00000000000" d="M20.3043 10.1521C20.3043 4.54528 15.7589 3.43322e-16 10.1521 0C4.54527 -3.43322e-16 6.86643e-16 4.54528 0 10.1521C-6.86643e-16 15.7589 4.54527 20.3043 10.1521 20.3043C15.7589 20.3043 20.3043 15.7589 20.3043 10.1521"/>
  <path id="shape5" transform="translate(25.6304, 26.073)" fill="#2980b9" fill-rule="evenodd" stroke="#003bc3" stroke-width="0.00000000000" stroke-linecap="square" stroke-linejoin="miter" stroke-miterlimit="2.00000000000" d="M9.70868 4.85435C9.70868 2.17336 7.53531 1.64162e-16 4.85434 0C2.17336 -1.64162e-16 3.28325e-16 2.17336 0 4.85435C-3.28325e-16 7.53532 2.17336 9.70868 4.85434 9.70868C7.53531 9.70868 9.70868 7.53532 9.70868 4.85435"/>
 </g>
</svg>
