<svg xmlns="http://www.w3.org/2000/svg" width="48" height="48" viewBox="0 0 13.546667 13.546667">
 <g transform="translate(0,-283.45334)">
  <g>
   <rect width="11.289" height="11.289" x="1.129" y="284.58" style="fill:#1893d2"/>
   <rect y="285.99" x="2.54" height="8.467" width="8.467" style="fill:#f8f8f8"/>
   <path transform="matrix(0.28222223,0,0,0.28222223,0,283.45334)" d="M 15 15 L 15 33 L 19 33 L 23 33 L 23 29 L 19 29 L 19 19 L 23 19 L 23 15 L 19 15 L 15 15 z M 25 15 L 25 19 L 29 19 L 29 29 L 25 29 L 25 33 L 29 33 L 33 33 L 33 15 L 29 15 L 25 15 z " style="fill:#4d4d4d"/>
  </g>
 </g>
</svg>
