<?xml version="1.0" standalone="no"?>
<!DOCTYPE svg PUBLIC "-//W3C//DTD SVG 20010904//EN" "http://www.w3.org/TR/2001/REC-SVG-20010904/DTD/svg10.dtd">
<!-- Created using Karbon, part of Calligra: http://www.calligra.org/karbon -->
<svg xmlns="http://www.w3.org/2000/svg" xmlns:xlink="http://www.w3.org/1999/xlink" width="38.4pt" height="38.4pt">
<defs/>
<g id="layer1">
  <path id="shape0" transform="matrix(1 0 0 1 15.4336 2.97722)" fill="#2980b9" fill-rule="evenodd" stroke="#003bc3" stroke-width="0.00000000000" stroke-linecap="square" stroke-linejoin="bevel" d="M0 34.3722C1.56599 17.1213 6.43125 9.87956 12.4409 5.44712L13.4879 7.89873L13.1269 4.95638C15.9464 2.99874 18.9937 1.58444 22.055 0C23.284 6.03693 18.2163 14.3855 15.5607 17.1242L10.3874 18.0319L15.0676 17.8633C9.42057 25.6872 5.15522 25.2913 0 34.3722Z"/>
  <path id="shape1" transform="matrix(1 0 0 1 9.79228 34.6838)" fill="#2c3e50" fill-rule="evenodd" stroke="#003bc3" stroke-width="0.00000000000" stroke-linecap="square" stroke-linejoin="miter" stroke-miterlimit="2.00000000000" d="M1.09254 0L9.46278 0.00354127L9.48367 2.35071L8.5315 2.3337C8.57696 4.06245 12.5309 9.33478 9.46979 9.3217C5.56304 9.32285 2.77251 9.32367 1.09818 9.32417C-1.81327 9.31558 1.97908 4.03168 2.03511 2.3337L1.08367 2.34929Z"/>
 </g>
</svg>
