<?xml version="1.0" standalone="no"?>
<!DOCTYPE svg PUBLIC "-//W3C//DTD SVG 20010904//EN" "http://www.w3.org/TR/2001/REC-SVG-20010904/DTD/svg10.dtd">
<!-- Created using Karbon, part of Calligra: http://www.calligra.org/karbon -->
<svg xmlns="http://www.w3.org/2000/svg" xmlns:xlink="http://www.w3.org/1999/xlink" width="38.4pt" height="38.4pt">
<defs/>
<g id="layer1">
  <path id="shape0" transform="matrix(-0.21044 -0.977607 0.977607 -0.21044 15.5997 25.8158)" fill="#9b59b6" fill-rule="evenodd" stroke="#003bc3" stroke-width="0.00000000000" stroke-linecap="square" stroke-linejoin="miter" stroke-miterlimit="2.01260185242" d="M15.2302 21.5791C20.3442 15.5721 21.4497 7.12021 18.0527 0L0 8.61288Z"/>
  <path id="shape1" transform="matrix(0.401113 -0.916028 0.916028 0.401113 16.8891 20.8842)" fill="#de4567" fill-rule="evenodd" stroke="#003bc3" stroke-width="0.00000000000" stroke-linecap="square" stroke-linejoin="miter" stroke-miterlimit="2.00000000000" d="M17.047 18.2442C20.4243 12.7418 20.938 5.94764 18.4265 0L0 7.78103Z"/>
  <path id="shape2" transform="matrix(0.772445 -0.635082 0.635082 0.772445 22.8578 22.5952)" fill="#e74c3c" fill-rule="evenodd" stroke="#003bc3" stroke-width="0.00000000000" stroke-linecap="square" stroke-linejoin="miter" stroke-miterlimit="2.00000000000" d="M13.9359 16.1737C18.2711 11.9631 20.4701 6.01819 19.9185 -8.32667e-16L0 1.82556Z"/>
  <path id="shape3" transform="matrix(1 -0.00068103 0.00068103 1 24.0167 21.1637)" fill="#e67e22" fill-rule="evenodd" stroke="#003bc3" stroke-width="0.00000000000" stroke-linecap="square" stroke-linejoin="miter" stroke-miterlimit="2.00000000000" d="M13.7972 17.3226C18.482 12.8591 20.7183 6.40511 19.7992 0L0 2.84092Z"/>
  <path id="shape4" transform="matrix(0.809403 0.587254 -0.587254 0.809403 26.1093 21.123)" fill="#f1c40f" fill-rule="evenodd" stroke="#003bc3" stroke-width="0.00000000000" stroke-linecap="square" stroke-linejoin="miter" stroke-miterlimit="2.00000000000" d="M13.7972 18.041C18.6685 13.4 20.88 6.6208 19.6828 -1.72085e-14L0 3.55938Z"/>
  <path id="shape5" transform="matrix(0.385107 0.922872 -0.922872 0.385107 25.242 23.4957)" fill="#8bc941" fill-rule="evenodd" stroke="#003bc3" stroke-width="0.00000000000" stroke-linecap="square" stroke-linejoin="miter" stroke-miterlimit="2.00000000000" d="M13.7972 15.8063C18.0941 11.7125 20.3511 5.92186 19.9581 1.11022e-15L0 1.32467Z"/>
  <path id="shape6" transform="matrix(-0.204459 0.978875 -0.978875 -0.204459 24.0202 24.003)" fill="#2ecc71" fill-rule="evenodd" stroke="#003bc3" stroke-width="0.00000000000" stroke-linecap="square" stroke-linejoin="miter" stroke-miterlimit="2.00000000000" d="M13.7972 14.4816C17.7595 10.7066 20.002 5.47279 20.002 4.89908e-15L0 0Z"/>
  <path id="shape7" transform="matrix(-0.763513 0.645792 -0.645792 -0.763513 24.0198 24.0034)" fill="#1abc9c" fill-rule="evenodd" stroke="#003bc3" stroke-width="0.00000000000" stroke-linecap="square" stroke-linejoin="miter" stroke-miterlimit="2.00000000000" d="M13.7972 14.4816C17.7595 10.7066 20.002 5.47279 20.002 4.89908e-15L0 0Z"/>
  <path id="shape8" transform="matrix(-0.995119 -0.0986791 0.0986791 -0.995119 24.0203 24.0044)" fill="#2980b9" fill-rule="evenodd" stroke="#003bc3" stroke-width="0.00000000000" stroke-linecap="square" stroke-linejoin="miter" stroke-miterlimit="2.00000000000" d="M12.4039 15.6915C17.2028 11.8981 20.002 6.11718 20.002 4.89908e-15L0 0Z"/>
  <path id="shape01" transform="matrix(0.707107 -0.707107 0.707107 0.707107 2.03035 4.21164)" fill="#34495e" fill-rule="evenodd" stroke="#003bc3" stroke-width="0.00000000000" stroke-linecap="square" stroke-linejoin="miter" stroke-miterlimit="2.00000000000" d="M0.766978 0L2.63525 0.0138908L3.30391 37.4357L0 37.4357Z"/>
  <path id="shape1111" transform="matrix(0.707107 -0.707107 0.707107 0.707107 28.4524 30.6337)" fill="#bdc3c7" fill-rule="evenodd" stroke="#003bc3" stroke-width="0.00000000000" stroke-linecap="square" stroke-linejoin="miter" stroke-miterlimit="2.00000000000" d="M0 0L3.30391 0L2.81225 9.51821L0.314657 9.49286Z"/>
  <path id="shape21" transform="translate(29.5081, 28.2914)" fill="#ecf0f1" fill-rule="evenodd" stroke="#003bc3" stroke-width="0.00000000000" stroke-linecap="square" stroke-linejoin="miter" stroke-miterlimit="2.00000000000" d="M0 1.32007L1.25378 0L7.50496 6.87415L6.58509 7.51311Z"/>
  <path id="shape31" transform="translate(34.2243, 34.3981)" fill="#4d4d4d" fill-rule="evenodd" stroke="#003bc3" stroke-width="0.00000000000" stroke-linecap="square" stroke-linejoin="bevel" d="M1.80239 1.29684C6.57064 -3.38182 5.38446 5.72409 12.1315 10.7753C5.00589 13.1964 -3.86314 6.85593 1.80239 1.29684Z"/>
 </g>
</svg>
