<?xml version="1.0" standalone="no"?>
<!DOCTYPE svg PUBLIC "-//W3C//DTD SVG 20010904//EN" "http://www.w3.org/TR/2001/REC-SVG-20010904/DTD/svg10.dtd">
<!-- Created using Karbon, part of Calligra: http://www.calligra.org/karbon -->
<svg xmlns="http://www.w3.org/2000/svg" xmlns:xlink="http://www.w3.org/1999/xlink" width="38.4pt" height="38.4pt">
<defs/>
<g id="layer1">
  <path id="shape1" transform="matrix(0.231034 0.972946 -0.972946 0.231034 29.6777 7.99272)" fill="#c0392b" fill-rule="evenodd" stroke="#003bc3" stroke-width="0.00000000000" stroke-linecap="square" stroke-linejoin="bevel" d="M0 3.51964L4.94062 19.2705L14.1479 0Z"/>
  <path id="shape2" transform="matrix(0.231034 0.972946 -0.972946 0.231034 32.1682 11.046)" fill="#f39c12" fill-rule="evenodd" stroke="#003bc3" stroke-width="0.00000000000" stroke-linecap="square" stroke-linejoin="bevel" d="M0 20.1989C6.75104 6.65253 10.1064 -0.0802144 10.066 0.000721035C10.0255 0.0816565 14.6937 2.84857 24.0705 8.30146Z"/>
  <path id="shape3" transform="matrix(0.231034 0.972946 -0.972946 0.231034 23.9648 11.2492)" fill="#75a039" fill-rule="evenodd" stroke="#003bc3" stroke-width="0.00000000000" stroke-linecap="square" stroke-linejoin="bevel" d="M27.9694 15.4511L0 10.7745L24.3433 0C25.8003 6.22474 27.5889 10.4992 29.7092 12.8232C29.22 13.5885 28.7367 14.4631 27.9694 15.4511Z"/>
  <path id="shape4" transform="matrix(0.231034 0.972946 -0.972946 0.231034 15.4205 14.4627)" fill="#1abc9c" fill-rule="evenodd" stroke="#003bc3" stroke-width="0.00000000000" stroke-linecap="square" stroke-linejoin="bevel" d="M0 0L27.9616 4.75403C25.12 9.45727 19.4573 13.0004 14.1036 13.6999Z"/>
  <path id="shape5" transform="matrix(0.231034 0.972946 -0.972946 0.231034 15.3959 11.2898)" fill="#3498db" fill-rule="evenodd" stroke="#003bc3" stroke-width="0.00000000000" stroke-linecap="square" stroke-linejoin="bevel" d="M0 8.64998C0.782139 6.91998 2.08571 4.03666 3.9107 0L19.2558 14.0043C13.5926 15.4207 5.4295 14.3916 0 8.64998Z"/>
  <path id="shape6" transform="matrix(0.231034 0.972946 -0.972946 0.231034 24.1327 3.41717)" fill="#8e44ad" fill-rule="evenodd" stroke="#003bc3" stroke-width="0.00000000000" stroke-linecap="square" stroke-linejoin="bevel" d="M0.229792 1.92727L7.85934 0L10.6181 11.4119L7.02439 20.3372C2.40456 16.7321 -0.923101 9.56221 0.229792 1.92727Z"/>
  <path id="shape7" transform="matrix(0.231034 0.972946 -0.972946 0.231034 34.7065 0.915949)" fill="#9b59b6" fill-rule="evenodd" stroke="#003bc3" stroke-width="0.00000000000" stroke-linecap="square" stroke-linejoin="bevel" d="M7.72351 0L8.32981 12.5652L0 14.8815C0.191374 9.3474 3.20405 3.23501 7.72351 0Z"/>
  <path id="shape8" transform="matrix(0.231034 0.972946 -0.972946 0.231034 33.5706 30.7479)" fill="#8bc941" fill-rule="evenodd" stroke="#003bc3" stroke-width="0.00000000000" stroke-linecap="square" stroke-linejoin="bevel" d="M7.91503 18.6609L0 3.86973L9.56454 0C12.5473 6.3485 11.2419 13.5481 7.91503 18.6609Z"/>
  <path id="shape9" transform="matrix(0.231034 0.972946 -0.972946 0.231034 40.224 5.81343)" fill="#e74c3c" fill-rule="evenodd" stroke="#003bc3" stroke-width="0.00000000000" stroke-linecap="square" stroke-linejoin="bevel" d="M14.477 0.0483256C7.83804 -0.492758 1.93636 3.64662 0 5.62984L2.28256 16.7868L13.7461 11.2581Z"/>
  <path id="shape10" transform="matrix(0.231034 0.972946 -0.972946 0.231034 42.9472 17.242)" fill="#f1c40f" fill-rule="evenodd" stroke="#003bc3" stroke-width="0.00000000000" stroke-linecap="square" stroke-linejoin="bevel" d="M1.07032 0.0160784L0 12.1978L12.0353 18.0403L21.1508 13.7834C17.6371 3.20111 8.08064 -0.26925 1.07032 0.0160784Z"/>
  <path id="shape01" transform="matrix(0.707107 -0.707107 0.707107 0.707107 2.03035 4.21164)" fill="#34495e" fill-rule="evenodd" stroke="#003bc3" stroke-width="0.00000000000" stroke-linecap="square" stroke-linejoin="miter" stroke-miterlimit="2.00000000000" d="M0.766978 0L2.63525 0.0138908L3.30391 37.4357L0 37.4357Z"/>
  <path id="shape1111" transform="matrix(0.707107 -0.707107 0.707107 0.707107 28.4524 30.6337)" fill="#bdc3c7" fill-rule="evenodd" stroke="#003bc3" stroke-width="0.00000000000" stroke-linecap="square" stroke-linejoin="miter" stroke-miterlimit="2.00000000000" d="M0 0L3.30391 0L2.81225 9.51821L0.314657 9.49286Z"/>
  <path id="shape21" transform="translate(29.5081, 28.2914)" fill="#ecf0f1" fill-rule="evenodd" stroke="#003bc3" stroke-width="0.00000000000" stroke-linecap="square" stroke-linejoin="miter" stroke-miterlimit="2.00000000000" d="M0 1.32007L1.25378 0L7.50496 6.87415L6.58509 7.51311Z"/>
  <path id="shape31" transform="translate(34.2243, 34.3981)" fill="#4d4d4d" fill-rule="evenodd" stroke="#003bc3" stroke-width="0.00000000000" stroke-linecap="square" stroke-linejoin="bevel" d="M1.80239 1.29684C6.57064 -3.38182 5.38446 5.72409 12.1315 10.7753C5.00589 13.1964 -3.86314 6.85593 1.80239 1.29684Z"/>
 </g>
</svg>
