<?xml version="1.0" standalone="no"?>
<!DOCTYPE svg PUBLIC "-//W3C//DTD SVG 20010904//EN" "http://www.w3.org/TR/2001/REC-SVG-20010904/DTD/svg10.dtd">
<!-- Created using Karbon, part of Calligra: http://www.calligra.org/karbon -->
<svg xmlns="http://www.w3.org/2000/svg" xmlns:xlink="http://www.w3.org/1999/xlink" width="38.4pt" height="38.4pt">
<defs/>
<g id="layer1">
  <path id="shape0" transform="translate(4.0776, 5.32747)" fill="#34495e" fill-rule="evenodd" stroke="#003bc3" stroke-width="0.00000000000" stroke-linecap="square" stroke-linejoin="bevel" d="M12.6137 0C22.7054 4.36861 24.0731 10.4981 16.7167 18.3884C9.36032 26.2786 14.5947 31.5918 32.4199 34.3278C23.2085 41.8363 7.13824 39.8461 1.27135 25.7996C-2.24592 16.2144 1.53486 4.77897 12.6137 0Z"/>
  <path id="shape1" transform="matrix(-1 0 0 -1 44.0141 37.3782)" fill="#34495e" fill-rule="evenodd" stroke="#003bc3" stroke-width="0.00000000000" stroke-linecap="square" stroke-linejoin="bevel" d="M5.13214 0C22.8278 1.33995 28.0518 5.96138 20.804 13.8643C13.5562 21.7672 15.0954 28.0456 25.4217 32.6997C19.4065 34.3557 6.81649 33.8943 1.30778 20.5346C-1.90008 12.2674 1.3414 3.003 5.13214 0Z"/>
  <path id="shape2" transform="translate(33.3833, 35.0825)" fill="#ecf0f1" fill-rule="evenodd" stroke="#003bc3" stroke-width="0.00000000000" stroke-linecap="square" stroke-linejoin="miter" stroke-miterlimit="2.01260185242" d="M3.50962 0.000160883C1.55719 0.0187043 -0.01229 1.6132 7.25341e-05 3.56565C0.0124351 5.51809 1.60198 7.09259 3.55449 7.08641C5.50699 7.08023 7.0864 5.47326 7.0864 3.52078C7.06167 1.56845 5.46205 -0.0183825 3.50962 0.000160883Z"/>
  <path id="shape3" transform="translate(15.7706, 28.1281)" fill="#ecf0f1" fill-rule="evenodd" stroke="#003bc3" stroke-width="0.00000000000" stroke-linecap="square" stroke-linejoin="miter" stroke-miterlimit="2.00000000000" d="M3.50974 0.000160888C1.55723 0.0187049 -0.0122904 1.61325 7.25374e-05 3.56578C0.0124354 5.51828 1.60203 7.09284 3.5546 7.08667C5.50716 7.08048 7.08663 5.47346 7.08663 3.5209C7.0619 1.5685 5.46222 -0.0183831 3.50974 0.000160888Z"/>
  <path id="shape4" transform="translate(15.0372, 1.82714)" fill="#ecf0f1" fill-rule="evenodd" stroke="#003bc3" stroke-width="0.00000000000" stroke-linecap="square" stroke-linejoin="miter" stroke-miterlimit="2.00000000000" d="M3.50974 0.000160888C1.55723 0.0187049 -0.0122904 1.61325 7.25374e-05 3.56578C0.0124354 5.51828 1.60203 7.09284 3.5546 7.08667C5.50716 7.08048 7.08663 5.47346 7.08663 3.5209C7.0619 1.5685 5.46222 -0.0183831 3.50974 0.000160888Z"/>
  <path id="shape31" transform="translate(22.7788, 12.9278)" fill="#ecf0f1" fill-rule="evenodd" stroke="#003bc3" stroke-width="0.00000000000" stroke-linecap="square" stroke-linejoin="miter" stroke-miterlimit="2.00000000000" d="M3.50973 0.000162494C1.55723 0.0188917 -0.0122904 1.62937 7.25373e-05 3.6014C0.0124354 5.57342 1.60203 7.1637 3.55461 7.15747C5.50715 7.15122 7.08663 5.52814 7.08663 3.55607C7.0619 1.58418 5.46221 -0.0185667 3.50973 0.000162494Z"/>
 </g>
</svg>
