<?xml version="1.0" standalone="no"?>
<!DOCTYPE svg PUBLIC "-//W3C//DTD SVG 20010904//EN" "http://www.w3.org/TR/2001/REC-SVG-20010904/DTD/svg10.dtd">
<!-- Created using Karbon, part of Calligra: http://www.calligra.org/karbon -->
<svg xmlns="http://www.w3.org/2000/svg" xmlns:xlink="http://www.w3.org/1999/xlink" width="38.4pt" height="38.4pt">
<defs/>
<g id="layer1">
  <path id="shape11" transform="translate(31.1704, 31.4013)" fill="#f1c40f" fill-rule="evenodd" stroke="#003bc3" stroke-width="0.00000000000" stroke-linecap="square" stroke-linejoin="bevel" d="M11.5061 0C10.0689 4.25034 4.45961 9.76126 0 11.3137L0.643979 0.321787Z"/>
  <path id="shape0" transform="translate(30.5547, 8.58503)" fill="#c0392b" fill-rule="evenodd" stroke="#003bc3" stroke-width="0.00000000000" stroke-linecap="square" stroke-linejoin="bevel" d="M6.15958 0C9.63929 2.74129 13.1876 9.46334 13.3148 13.6191L0.656184 17.4286L0 5.69179Z"/>
  <path id="shape12" transform="translate(22.8027, 12.9524)" fill="#e74c3c" fill-rule="evenodd" stroke="#003bc3" stroke-width="0.00000000000" stroke-linecap="square" stroke-linejoin="bevel" d="M8.19048 0L9.87755 13.1156L0 12.7891Z"/>
  <path id="shape41" transform="matrix(-0.570584 -0.821239 0.821239 -0.570584 39.1489 35.1955)" fill="#e67e22" fill-rule="evenodd" stroke="#003bc3" stroke-width="0.00000000000" stroke-linecap="square" stroke-linejoin="bevel" d="M10.1918 12.3917C11.416 8.26113 12.6402 4.13056 13.8644 0L0 3.00929C0.912273 5.24421 4.1054 9.78716 10.1918 12.3917Z"/>
  <path id="shape9" transform="translate(19.5489, 23.4452)" fill="#75a039" fill-rule="evenodd" stroke="#003bc3" stroke-width="0.00000000000" stroke-linecap="square" stroke-linejoin="bevel" d="M0 13.2666L12.8145 0L14.0459 9.76481Z"/>
  <g id="group0" transform="translate(30.5894, 22.9981)" fill="none">
   <path id="shape6" transform="translate(0.621511, 0.424667)" fill="#f39c12" fill-rule="evenodd" stroke="#003bc3" stroke-width="0.00000000000" stroke-linecap="square" stroke-linejoin="bevel" d="M1.12081 0L0 10.5636L10.5034 10.0194Z"/>
  </g>
  <path id="shape1" transform="translate(18.0481, 4.05754)" fill="#f0005f" fill-rule="evenodd" stroke="#003bc3" stroke-width="0.00000000000" stroke-linecap="square" stroke-linejoin="bevel" d="M0 0.829671L12.5067 11.2583L19.3494 5.08676C13.1856 -0.243926 5.17904 -0.847787 0 0.829671Z"/>
  <path id="shape3" transform="translate(3.94621, 10.3946)" fill="#8e44ad" fill-rule="evenodd" stroke="#003bc3" stroke-width="0.00000000000" stroke-linecap="square" stroke-linejoin="bevel" d="M0.0265781 13.9864C-0.329951 8.241 2.97593 3.11331 5.41433 0L15.9722 5.63265Z"/>
  <path id="shape411" transform="translate(3.91837, 16.4051)" fill="#2980b9" fill-rule="evenodd" stroke="#003bc3" stroke-width="0.00000000000" stroke-linecap="square" stroke-linejoin="bevel" d="M12.7891 13.7446C13.4832 9.16304 14.1774 4.58152 14.8715 0L0 6.66973Z"/>
  <path id="shape8" transform="translate(14.4762, 16.6803)" fill="#3498db" fill-rule="evenodd" stroke="#003bc3" stroke-width="0.00000000000" stroke-linecap="square" stroke-linejoin="bevel" d="M11.4286 9.22449L0 13.0884L4.13605 0Z"/>
  <path id="shape111" transform="translate(3.94925, 22.9671)" fill="#16a085" fill-rule="evenodd" stroke="#003bc3" stroke-width="0.00000000000" stroke-linecap="square" stroke-linejoin="bevel" d="M0.000117327 0L13.7922 4.51589L6.38317 15.6303C2.31645 11.7602 -0.019072 5.6778 0.000117327 0Z"/>
  <path id="shape4" transform="matrix(-0.707107 -0.707107 0.707107 -0.707107 21.0919 49.3879)" fill="#1abc9c" fill-rule="evenodd" stroke="#003bc3" stroke-width="0.00000000000" stroke-linecap="square" stroke-linejoin="bevel" d="M0 7.83144L9.31519 10.8881L19.8593 12.1964L17.5431 0.109587C15.0042 -0.2816 6.0155 -0.0254279 0 7.83144Z"/>
  <path id="shape5" transform="translate(21.9494, 23.4558)" fill="#27ae60" fill-rule="evenodd" stroke="#003bc3" stroke-width="0.00000000000" stroke-linecap="square" stroke-linejoin="bevel" d="M1.5608 1.14286L10.4043 0L0 11.724Z"/>
  <path id="shape2" transform="translate(21.9543, 31.7285)" fill="#8bc941" fill-rule="evenodd" stroke="#003bc3" stroke-width="0.00000000000" stroke-linecap="square" stroke-linejoin="bevel" d="M2.07291 12.2987C4.5045 12.3252 7.82767 11.7345 10.6979 10.3649L9.87085 0L0 3.41559Z"/>
  <path id="shape7" transform="translate(17.3061, 4.40375)" fill="#de4567" fill-rule="evenodd" stroke="#003bc3" stroke-width="0.00000000000" stroke-linecap="square" stroke-linejoin="bevel" d="M2.41412 0L0 11.052L7.29047 20.2358L13.9498 10.3112Z"/>
  <path id="shape10" transform="translate(15.5241, 24.638)" fill="#2ecc71" fill-rule="evenodd" stroke="#003bc3" stroke-width="0.00000000000" stroke-linecap="square" stroke-linejoin="bevel" d="M0 2.16456L9.12911 0L6.57114 10.7906Z"/>
  <path id="shape13" transform="translate(9.10825, 4.42524)" fill="#9b59b6" fill-rule="evenodd" stroke="#003bc3" stroke-width="0.00000000000" stroke-linecap="square" stroke-linejoin="bevel" d="M10.6764 0C5.54018 1.00707 1.94459 4.05416 0 6.27266L9.50399 12.5271Z"/>
  <path id="shape01" transform="matrix(0.707107 -0.707107 0.707107 0.707107 2.03035 4.21164)" fill="#2c3e50" fill-rule="evenodd" stroke="#003bc3" stroke-width="0.00000000000" stroke-linecap="square" stroke-linejoin="miter" stroke-miterlimit="2.00000000000" d="M0.766978 0L2.63525 0.0138908L3.30391 37.4357L0 37.4357Z"/>
  <path id="shape1111" transform="matrix(0.707107 -0.707107 0.707107 0.707107 28.4524 30.6337)" fill="#bdc3c7" fill-rule="evenodd" stroke="#003bc3" stroke-width="0.00000000000" stroke-linecap="square" stroke-linejoin="miter" stroke-miterlimit="2.00000000000" d="M0 0L3.30391 0L2.81225 9.51821L0.314657 9.49286Z"/>
  <path id="shape21" transform="translate(29.5081, 28.2914)" fill="#ecf0f1" fill-rule="evenodd" stroke="#003bc3" stroke-width="0.00000000000" stroke-linecap="square" stroke-linejoin="miter" stroke-miterlimit="2.00000000000" d="M0 1.32007L1.25378 0L7.50496 6.87415L6.58509 7.51311Z"/>
  <path id="shape31" transform="translate(34.7141, 34.0652)" fill="#4d4d4d" fill-rule="evenodd" stroke="#003bc3" stroke-width="0.00000000000" stroke-linecap="square" stroke-linejoin="bevel" d="M1.80239 1.29684C6.57064 -3.38182 5.38446 5.72409 12.1315 10.7753C5.00589 13.1964 -3.86314 6.85593 1.80239 1.29684Z"/>
 </g>
</svg>
