<?xml version="1.0" encoding="UTF-8" standalone="no"?>
<!-- Created using Karbon, part of Calligra: http://www.calligra.org/karbon -->

<svg
   xmlns:dc="http://purl.org/dc/elements/1.1/"
   xmlns:cc="http://creativecommons.org/ns#"
   xmlns:rdf="http://www.w3.org/1999/02/22-rdf-syntax-ns#"
   xmlns:svg="http://www.w3.org/2000/svg"
   xmlns="http://www.w3.org/2000/svg"
   xmlns:sodipodi="http://sodipodi.sourceforge.net/DTD/sodipodi-0.dtd"
   xmlns:inkscape="http://www.inkscape.org/namespaces/inkscape"
   width="38.4pt"
   height="38.4pt"
   id="svg2"
   version="1.1"
   inkscape:version="0.48.4 r9939"
   sodipodi:docname="calligrawords.svg">
  <metadata
     id="metadata13">
    <rdf:RDF>
      <cc:Work
         rdf:about="">
        <dc:format>image/svg+xml</dc:format>
        <dc:type
           rdf:resource="http://purl.org/dc/dcmitype/StillImage" />
      </cc:Work>
    </rdf:RDF>
  </metadata>
  <sodipodi:namedview
     pagecolor="#ffffff"
     bordercolor="#666666"
     borderopacity="1"
     objecttolerance="10"
     gridtolerance="10"
     guidetolerance="10"
     inkscape:pageopacity="0"
     inkscape:pageshadow="2"
     inkscape:window-width="661"
     inkscape:window-height="480"
     id="namedview11"
     showgrid="false"
     inkscape:zoom="4.9166667"
     inkscape:cx="24"
     inkscape:cy="24"
     inkscape:window-x="0"
     inkscape:window-y="55"
     inkscape:window-maximized="0"
     inkscape:current-layer="svg2" />
  <defs
     id="defs4" />
  <g
     id="layer1">
    <rect
       id="shape01"
       transform="matrix(0.980611 -0.195963 0.195963 0.980611 6.3128 9.10774)"
       fill="#ecf0f1"
       fill-rule="evenodd"
       stroke="#003bc3"
       stroke-width="0.00000000000"
       stroke-linecap="square"
       stroke-linejoin="miter"
       stroke-miterlimit="2.00000000000"
       width="23.56755600010pt"
       height="29.22104486723pt" />
    <path
       style="font-size:35px;font-style:normal;font-variant:normal;font-weight:500;font-stretch:normal;text-align:start;line-height:125%;writing-mode:lr-tb;text-anchor:start;fill:#27ae60;font-family:Roboto;-inkscape-font-specification:Roboto Medium"
       d="m 21.8741,36.227653 c 0.0831,-0.273232 0.233971,-0.855845 0.34225,-1.24129 1.549328,-5.670221 3.098656,-11.340442 4.647984,-17.010663 1.105144,0 2.210287,0 3.31543,0 1.6755,6.124902 3.390978,12.241481 5.041504,18.371582 1.277569,-6.129899 2.638237,-12.246713 3.947754,-18.371582 1.361491,0 2.722982,0 4.084473,0 -1.971029,8.294271 -3.942058,16.588542 -5.913086,24.882812 -1.258952,1e-6 -2.517904,0 -3.776856,0 -1.657715,-5.952962 -3.31543,-11.905924 -4.973144,-17.858886 -0.303509,0.220834 -0.277263,0.876197 -0.455284,1.26239 -1.54583,5.532166 -3.09166,11.064331 -4.63749,16.596496 -1.264648,1e-6 -2.529297,0 -3.793945,0 -1.965332,-8.29427 -3.930664,-16.588541 -5.895996,-24.882812 1.361491,0 2.722981,0 4.084472,0 1.327312,6.083984 2.654623,12.167969 3.981934,18.251953 z"
       id="shape0"
       inkscape:connector-curvature="0" />
  </g>
</svg>
