<svg xmlns="http://www.w3.org/2000/svg" width="48" height="48">
 <rect width="20" height="7" x="14" y="4" style="fill:#3498db"/>
 <rect y="15.11" x="14" height="7" width="20" style="fill:#3498db"/>
 <rect width="1" height="18" x="23.5" y="4.113" style="fill:#3498db"/>
 <rect y="-14" x="18.11" height="5.5" width="1" transform="matrix(0,1,-1,0,0,0)" style="fill:#2ecc71"/>
 <rect transform="matrix(0,1,-1,0,0,0)" width="1" height="5.5" x="18.11" y="-39.5" style="fill:#2ecc71"/>
 <rect width="10" height="7" x="4" y="27.11" style="fill:#2ecc71"/>
 <rect y="27.11" x="34" height="7" width="10" style="fill:#2ecc71"/>
 <rect y="37.11" x="19" height="7" width="10" style="fill:#34495e"/>
 <rect transform="scale(-1,-1)" width="1" height="9" x="-9.5" y="-27.11" style="fill:#2ecc71"/>
 <rect y="-27.11" x="-39.5" height="9" width="1" transform="scale(-1,-1)" style="fill:#2ecc71"/>
 <rect y="31.11" x="23.5" height="6" width="1" style="fill:#2ecc71"/>
 <rect width="1" height="20" x="30.11" y="-34" transform="matrix(0,1,-1,0,0,0)" style="fill:#2ecc71"/>
</svg>
