<svg xmlns="http://www.w3.org/2000/svg" width="48" height="48">
 <rect width="40" height="40" x="4" y="4" style="fill:#2c3e50" rx="20"/>
 <path d="m 16.000001,15.000001 0,1 0,0.0098 a 7.4999888,7.4999888 0 0 1 0.300782,-0.0098 7.4999888,7.4999888 0 0 1 7.5,7.5 7.4999888,7.4999888 0 0 1 -4.800782,6.996093 l 0,-1.496093 -4,0 0,4 4,0 0,-1.447266 a 8.4999889,8.4999889 0 0 0 0.134766,-0.05273 l 9.93164,0 a 2.0000008,2.0000008 0 0 0 1.933594,1.5 2.0000008,2.0000008 0 0 0 2,-2 2.0000008,2.0000008 0 0 0 -2,-2 2.0000008,2.0000008 0 0 0 -1.935547,1.5 l -7.964843,0 a 8.4999889,8.4999889 0 0 0 3.701172,-7 8.4999889,8.4999889 0 0 0 -4.515626,-7.5 l 9.714844,0 0,-1 -14,0 z m 0,15 2,0 0,2 -2,0 0,-2 z m 15,0 a 1.0000003,1.0000003 0 0 1 1,1 1.0000003,1.0000003 0 0 1 -1,1 1.0000003,1.0000003 0 0 1 -1,-1 1.0000003,1.0000003 0 0 1 1,-1 z" style="fill:#ecf0f1"/>
</svg>
