<?xml version="1.0" standalone="no"?>
<!DOCTYPE svg PUBLIC "-//W3C//DTD SVG 20010904//EN" "http://www.w3.org/TR/2001/REC-SVG-20010904/DTD/svg10.dtd">
<!-- Created using Karbon, part of Calligra: http://www.calligra.org/karbon -->
<svg xmlns="http://www.w3.org/2000/svg" xmlns:xlink="http://www.w3.org/1999/xlink" width="38.4pt" height="38.4pt">
<defs/>
<g id="layer1">
  <path id="shape1" transform="translate(19.7417, 4.01344)" fill="#f0005f" fill-rule="evenodd" stroke="#003bc3" stroke-width="0.00000000000" stroke-linecap="square" stroke-linejoin="bevel" d="M0 0.411796L11.4927 10.7445L17.6558 5.13086C11.492 -0.199823 5.26067 -0.530968 0 0.411796Z"/>
  <path id="shape4" transform="matrix(-0.707107 -0.707107 0.707107 -0.707107 20.4091 48.6961)" fill="#1abc9c" fill-rule="evenodd" stroke="#003bc3" stroke-width="0.00000000000" stroke-linecap="square" stroke-linejoin="bevel" d="M0 6.61859L8.49007 10.6754L18.9711 12.0424L16.5711 0.103207C13.8975 -0.153293 6.68893 -0.487876 0 6.61859Z"/>
  <path id="shape41" transform="matrix(-0.570584 -0.821239 0.821239 -0.570584 40.0563 34.5651)" fill="#e67e22" fill-rule="evenodd" stroke="#003bc3" stroke-width="0.00000000000" stroke-linecap="square" stroke-linejoin="bevel" d="M10.0678 11.2669L13.6047 0L0 1.9044C0.875115 4.01072 3.98139 8.66234 10.0678 11.2669Z"/>
  <path id="shape0" transform="translate(31.2344, 9.10825)" fill="#c0392b" fill-rule="evenodd" stroke="#003bc3" stroke-width="0.00000000000" stroke-linecap="square" stroke-linejoin="bevel" d="M6.10081 0C9.4266 2.95294 11.5876 6.82951 12.3305 10.8698L1.07409 14.3498L0 5.58525Z"/>
  <path id="shape11" transform="translate(31.8144, 31.7231)" fill="#f1c40f" fill-rule="evenodd" stroke="#003bc3" stroke-width="0.00000000000" stroke-linecap="square" stroke-linejoin="bevel" d="M9.81715 1.75613C7.84119 5.31379 5.04502 8.35607 0.816306 10.3703L0 0Z"/>
  <path id="shape2" transform="translate(21.9543, 31.7285)" fill="#8bc941" fill-rule="evenodd" stroke="#003bc3" stroke-width="0.00000000000" stroke-linecap="square" stroke-linejoin="bevel" d="M3.12559 12.2875C5.46194 12.0419 7.82767 11.7345 10.6979 10.3649L9.87085 0L0 3.41559Z"/>
  <path id="shape3" transform="translate(4.01013, 10.6481)" fill="#8e44ad" fill-rule="evenodd" stroke="#003bc3" stroke-width="0.00000000000" stroke-linecap="square" stroke-linejoin="bevel" d="M0 12.3342C0.269321 6.75207 2.59579 2.81399 5.08861 0L14.7649 5.8069Z"/>
  <path id="shape411" transform="translate(3.97975, 16.4051)" fill="#2980b9" fill-rule="evenodd" stroke="#003bc3" stroke-width="0.00000000000" stroke-linecap="square" stroke-linejoin="bevel" d="M11.5595 10.4051L14.8101 0L0 6.56203Z"/>
  <path id="shape5" transform="translate(21.9494, 23.5225)" fill="#27ae60" fill-rule="evenodd" stroke="#003bc3" stroke-width="0.00000000000" stroke-linecap="square" stroke-linejoin="bevel" d="M2.66869 1.13853L10.3806 0L0 11.6573Z"/>
  <path id="shape6" transform="translate(31.793, 23.4228)" fill="#f39c12" fill-rule="evenodd" stroke="#003bc3" stroke-width="0.00000000000" stroke-linecap="square" stroke-linejoin="bevel" d="M0.538693 0L0 8.3272L9.88159 10.0887Z"/>
  <path id="shape7" transform="translate(18.7106, 4.40375)" fill="#de4567" fill-rule="evenodd" stroke="#003bc3" stroke-width="0.00000000000" stroke-linecap="square" stroke-linejoin="bevel" d="M1.00964 0L0 12.0083L5.88599 20.2358L12.5453 10.3112Z"/>
  <path id="shape8" transform="translate(15.5241, 16.412)" fill="#3498db" fill-rule="evenodd" stroke="#003bc3" stroke-width="0.00000000000" stroke-linecap="square" stroke-linejoin="bevel" d="M9.08354 8.25632L0 10.4133L3.25098 0Z"/>
  <path id="shape9" transform="translate(21.919, 23.458)" fill="#75a039" fill-rule="evenodd" stroke="#003bc3" stroke-width="0.00000000000" stroke-linecap="square" stroke-linejoin="bevel" d="M0 11.6913L10.454 0L9.91899 8.33436Z"/>
  <path id="shape10" transform="translate(15.5241, 24.638)" fill="#2ecc71" fill-rule="evenodd" stroke="#003bc3" stroke-width="0.00000000000" stroke-linecap="square" stroke-linejoin="bevel" d="M0 2.16456L9.12911 0L6.44051 10.5418Z"/>
  <path id="shape111" transform="translate(3.9492, 22.9671)" fill="#16a085" fill-rule="evenodd" stroke="#003bc3" stroke-width="0.00000000000" stroke-linecap="square" stroke-linejoin="bevel" d="M0.000164874 0L11.5976 3.82785L4.85831 14.0244C1.63706 10.3719 -0.0190245 5.6778 0.000164874 0Z"/>
  <path id="shape12" transform="translate(24.5106, 14.672)" fill="#e74c3c" fill-rule="evenodd" stroke="#003bc3" stroke-width="0.00000000000" stroke-linecap="square" stroke-linejoin="bevel" d="M6.76674 0L7.86231 8.87195L0 10.032Z"/>
  <path id="shape13" transform="translate(9.10825, 4.42524)" fill="#9b59b6" fill-rule="evenodd" stroke="#003bc3" stroke-width="0.00000000000" stroke-linecap="square" stroke-linejoin="bevel" d="M10.6764 0C5.54018 1.00707 1.94459 4.05416 0 6.27266L9.62381 12.0083Z"/>
  <path id="shape01" transform="matrix(0.707107 -0.707107 0.707107 0.707107 2.03035 4.21164)" fill="#2c3e50" fill-rule="evenodd" stroke="#003bc3" stroke-width="0.00000000000" stroke-linecap="square" stroke-linejoin="miter" stroke-miterlimit="2.00000000000" d="M0.766978 0L2.63525 0.0138908L3.30391 37.4357L0 37.4357Z"/>
  <path id="shape11" transform="matrix(0.707107 -0.707107 0.707107 0.707107 28.4524 30.6337)" fill="#bdc3c7" fill-rule="evenodd" stroke="#003bc3" stroke-width="0.00000000000" stroke-linecap="square" stroke-linejoin="miter" stroke-miterlimit="2.00000000000" d="M0 0L3.30391 0L2.81225 9.51821L0.314657 9.49286Z"/>
  <path id="shape21" transform="translate(29.5081, 28.2914)" fill="#ecf0f1" fill-rule="evenodd" stroke="#003bc3" stroke-width="0.00000000000" stroke-linecap="square" stroke-linejoin="miter" stroke-miterlimit="2.00000000000" d="M0 1.32007L1.25378 0L7.50496 6.87415L6.58509 7.51311Z"/>
  <path id="shape31" transform="translate(34.7141, 34.0652)" fill="#4d4d4d" fill-rule="evenodd" stroke="#003bc3" stroke-width="0.00000000000" stroke-linecap="square" stroke-linejoin="bevel" d="M1.80239 1.29684C6.57064 -3.38182 5.38446 5.72409 12.1315 10.7753C5.00589 13.1964 -3.86314 6.85593 1.80239 1.29684Z"/>
 </g>
</svg>
