<svg xmlns="http://www.w3.org/2000/svg" width="48" height="48">
 <path d="M 4 4 L 4 14 L 44 14 L 44 4 L 4 4 z M 8 6 L 12 6 L 12 12 L 8 12 L 8 6 z " style="fill:#bdc3c7"/>
 <path d="m 4,19 0,10 40,0 0,-10 -40,0 z m 4,2 4,0 0,6 -4,0 0,-6 z" style="fill:#bdc3c7"/>
 <path d="m 4,34 0,10 40,0 0,-10 -40,0 z m 4,2 4,0 0,6 -4,0 0,-6 z" style="fill:#bdc3c7"/>
 <path d="M 37 4 L 37 14 L 44 14 L 44 4 L 37 4 z " style="fill:#ecf0f1"/>
 <path d="m 37,19 0,10 7,0 0,-10 -7,0 z" style="fill:#ecf0f1"/>
 <path d="m 37,34 0,10 7,0 0,-10 -7,0 z" style="fill:#ecf0f1"/>
 <path d="M 4,4 4,14 8,14 8,4 Z" style="fill:#95a5a6"/>
 <path d="M 4,19 4,29 8,29 8,19 Z" style="fill:#95a5a6"/>
 <path d="M 4,34 4,44 8,44 8,34 Z" style="fill:#95a5a6"/>
</svg>
