<svg xmlns="http://www.w3.org/2000/svg" width="48" height="48">
 <rect width="40" height="40" x="4" y="4" style="fill:#bdc3c7" rx="20"/>
 <path d="m 23.996094,13.999998 c -2.618176,1.55e-4 -5.219049,1.078467 -7.06901,2.929687 C 15.077122,18.780905 14,21.382215 14,23.999998 c 0,2.617782 1.077122,5.219092 2.927084,7.070312 1.849961,1.85122 4.450834,2.929532 7.06901,2.929687 2.618175,1.56e-4 5.220595,-1.077156 7.072916,-2.928385 C 32.921332,29.220383 34,26.618072 34,23.999998 c 0,-2.618075 -1.078668,-5.220386 -2.93099,-7.071615 -1.852321,-1.851229 -4.454741,-2.92854 -7.072916,-2.928385 z" style="fill:#4d4d4d" fill-rule="evenodd"/>
 <path d="m 22.666667,17.999998 0,7.333333 1.333333,0 1.333333,0 4.666667,0 0,-2.666667 -4.666667,0 0,-4.666666 -2.666666,0 z" style="fill:#bdc3c7" fill-rule="evenodd"/>
</svg>
