<?xml version="1.0" standalone="no"?>
<!DOCTYPE svg PUBLIC "-//W3C//DTD SVG 20010904//EN" "http://www.w3.org/TR/2001/REC-SVG-20010904/DTD/svg10.dtd">
<!-- Created using Karbon, part of Calligra: http://www.calligra.org/karbon -->
<svg xmlns="http://www.w3.org/2000/svg" xmlns:xlink="http://www.w3.org/1999/xlink" width="38.4pt" height="38.4pt">
<defs/>
<g id="layer1">
  <path id="shape0" transform="translate(15.0565, 14.88)" fill="#e9e9e9" fill-rule="evenodd" stroke="#003bc3" stroke-width="0.00000000000" stroke-linecap="square" stroke-linejoin="miter" stroke-miterlimit="2.00000000000" d="M18.1161 8.86099C18.007 3.87831 13.8938 -0.0805186 8.9105 0.00124401C3.9273 0.0830068 -0.0539566 4.17464 0.000553121 9.15822C0.0550629 14.1418 4.12486 18.1454 9.10866 18.1182C14.0924 18.0907 18.1182 14.0431 18.1182 9.05915"/>
  <path id="path3511" transform="translate(8.00391, 4)" fill="#2480ff" fill-rule="evenodd" d="M15.9961 0C9.43065 0 3.64219 3.14646 0 8.00391L7.10547 18.6602C7.24216 17.7396 7.51641 16.8667 7.9082 16.0605C8.00618 15.8589 8.11042 15.6615 8.22266 15.4688C8.55536 14.8974 8.94836 14.3685 9.39453 13.8867C9.40427 13.8762 9.41404 13.8659 9.42383 13.8555C10.017 13.2211 10.6981 12.6735 11.4531 12.2324C11.4728 12.2209 11.4919 12.2086 11.5117 12.1973C11.6737 12.1043 11.8397 12.0185 12.0078 11.9355C12.0546 11.9125 12.1012 11.8895 12.1484 11.8672C12.3216 11.7855 12.4967 11.7075 12.6758 11.6367C12.7054 11.625 12.7359 11.6149 12.7656 11.6035C13.1634 11.4512 13.5731 11.3239 13.9961 11.2285C14.3042 11.159 14.6181 11.1056 14.9375 11.0684C14.9395 11.0681 14.9413 11.0666 14.9434 11.0664C14.9553 11.065 14.9666 11.0619 14.9785 11.0605C14.9811 11.0603 14.9838 11.0608 14.9863 11.0605C15.3184 11.0237 15.6539 11 15.9961 11L33.8535 11C30.5688 4.47005 23.8308 0 15.9961 0Z"/>
  <path id="rect3426" transform="translate(4, 4)" fill="#6daaff" fill-rule="evenodd" d="M20 0C20.447 0 20.8887 0.0201802 21.3281 0.0488281C20.8885 0.0202248 20.4471 0 20 0ZM21.625 0.0703125C21.985 0.0991094 22.343 0.138041 22.6973 0.185547C22.343 0.138174 21.985 0.0990314 21.625 0.0703125ZM22.9512 0.216797C23.357 0.276491 23.757 0.350007 24.1543 0.433594C23.7569 0.350248 23.357 0.276317 22.9512 0.216797ZM25.7891 0.851562C25.9722 0.906695 26.1512 0.971056 26.332 1.03125C26.1509 0.97115 25.9725 0.9066 25.7891 0.851562ZM27.4258 1.43164C27.6283 1.51258 27.8321 1.59043 28.0312 1.67773C27.8318 1.59056 27.6287 1.51244 27.4258 1.43164ZM29.1816 2.23047C29.4851 2.38752 29.7821 2.55464 30.0762 2.72656C29.7816 2.55491 29.4856 2.38725 29.1816 2.23047ZM30.832 3.18555C31.0859 3.34954 31.3363 3.51832 31.582 3.69336C31.3358 3.51852 31.0864 3.34932 30.832 3.18555ZM32.125 4.09961C32.6195 4.4778 33.0963 4.87688 33.5527 5.29883C33.0955 4.87731 32.6204 4.4773 32.125 4.09961ZM33.8652 5.58398C34.1318 5.84105 34.3887 6.10937 34.6406 6.38086C34.3878 6.10905 34.1328 5.84129 33.8652 5.58398ZM37.2188 9.83398C37.4427 10.2139 37.6564 10.6005 37.8555 10.9961C37.6562 10.6002 37.443 10.2141 37.2188 9.83398ZM2.59375 10.166C2.23048 10.8104 1.90086 11.477 1.60938 12.1641C1.90138 11.4775 2.23103 10.811 2.59375 10.166ZM20 11C24.986 11 29 15.014 29 20C29 21.8156 28.4625 23.4992 27.5449 24.9102L20 40C31.08 40 40 31.08 40 20C40 16.7547 39.218 13.7048 37.8574 11ZM16.1523 11.8672C16.1051 11.8895 16.0585 11.9125 16.0117 11.9355C16.0584 11.9125 16.1052 11.8894 16.1523 11.8672ZM15.5156 12.1973C15.4958 12.2086 15.4767 12.2209 15.457 12.2324C15.4767 12.2209 15.4958 12.2086 15.5156 12.1973ZM1.0293 13.6738C0.919824 14.0041 0.824952 14.3399 0.732422 14.6777C0.825774 14.3404 0.918967 14.0036 1.0293 13.6738ZM13.4277 13.8555C13.418 13.8659 13.4082 13.8762 13.3984 13.8867C13.4081 13.8762 13.418 13.8659 13.4277 13.8555ZM0.53125 15.4629C0.441446 15.8523 0.35198 16.2408 0.285156 16.6387C0.352654 16.2415 0.44067 15.8515 0.53125 15.4629ZM0.269531 16.7266C0.190425 17.2108 0.127893 17.7017 0.0839844 18.1973C0.128455 17.7017 0.18952 17.2106 0.269531 16.7266ZM0.0605469 18.502C0.0241609 18.9971 0 19.4952 0 20C0 19.495 0.0237076 18.9971 0.0605469 18.502ZM29 22L28.998 22.0039L28.9941 22.0039ZM17.8164 28.7246L17.8203 28.7305L17.8379 28.7305C17.8307 28.7287 17.8236 28.7264 17.8164 28.7246Z"/>
  <path id="rect3423" transform="translate(4, 12.0039)" fill="#b6d4ff" fill-rule="evenodd" d="M4.00391 0C1.49945 3.34009 0 7.48154 0 11.9961C0 23.0761 8.92 31.9961 20 31.9961L27.5449 16.9062C25.9426 19.37 23.1704 20.9961 20 20.9961C19.2527 20.9961 18.5313 20.8967 17.8379 20.7266L17.8203 20.7266L17.8164 20.7207C13.8946 19.7482 11 16.227 11 11.9961C11 11.5399 11.0445 11.0958 11.1094 10.6582ZM29 13.9961L28.9941 14L28.998 14Z"/>
  <rect id="rect3268" transform="translate(22, 0)" fill="none" width="3.20000000000pt" height="3.20000000000pt" rx="1.60000000000pt" ry="1.60000000000pt"/>
  <rect id="rect3354" transform="translate(22, 4)" fill="none" width="3.20000000000pt" height="3.20000000000pt" rx="1.60000000000pt" ry="1.60000000000pt"/>
  <rect id="rect3272" transform="translate(22, 44)" fill="none" width="3.20000000000pt" height="3.20000000000pt" rx="1.60000000000pt" ry="1.60000000000pt"/>
  <rect id="rect4196" transform="translate(22, 40)" fill="none" width="3.20000000000pt" height="3.20000000000pt" rx="1.60000000000pt" ry="1.60000000000pt"/>
  <rect id="rect3278" transform="matrix(0 1 -1 0 48 22)" fill="none" width="3.20000000000pt" height="3.20000000000pt" rx="1.60000000000pt" ry="1.60000000000pt"/>
  <rect id="rect3280" transform="matrix(0 1 -1 0 3.99999 22)" fill="none" width="3.20000000000pt" height="3.20000000000pt" rx="1.60000000000pt" ry="1.60000000000pt"/>
  <rect id="rect3282" transform="matrix(0 1 -1 0 44 22)" fill="none" width="3.20000000000pt" height="3.20000000000pt" rx="1.60000000000pt" ry="1.60000000000pt"/>
  <rect id="rect3284" transform="matrix(0 1 -1 0 7.99999 22)" fill="none" width="3.20000000000pt" height="3.20000000000pt" rx="1.60000000000pt" ry="1.60000000000pt"/>
  <path id="shape01" transform="translate(16.9519, 16.8911)" fill="#2480ff" fill-rule="evenodd" stroke="#003bc3" stroke-width="0.00000000000" stroke-linecap="square" stroke-linejoin="miter" stroke-miterlimit="2.01260185242" d="M14.1716 6.93164C14.0863 3.03386 10.8686 -0.0629869 6.97038 0.000973149C3.07219 0.0649332 -0.0422084 3.26568 0.000432688 7.16415C0.0430738 11.0626 3.22674 14.1945 7.12539 14.1732C11.024 14.1518 14.1733 10.9854 14.1733 7.08665"/>
 </g>
</svg>
