<?xml version="1.0" standalone="no"?>
<!DOCTYPE svg PUBLIC "-//W3C//DTD SVG 20010904//EN" "http://www.w3.org/TR/2001/REC-SVG-20010904/DTD/svg10.dtd">
<!-- Created using Karbon, part of Calligra: http://www.calligra.org/karbon -->
<svg xmlns="http://www.w3.org/2000/svg" xmlns:xlink="http://www.w3.org/1999/xlink" width="38.4pt" height="38.4pt">
<defs/>
<g id="layer1">
  <path id="shape0" transform="translate(4.00394, 4.00394)" fill="#de6143" fill-rule="evenodd" stroke="#003bc3" stroke-width="0.00000000000" stroke-linecap="square" stroke-linejoin="bevel" d="M6.87042 33.1456C-2.27883 23.9959 -2.29178 9.16562 6.84149 0L19.5739 19.4533L40.0154 33.1754C30.8497 42.3086 16.0197 42.2952 6.87042 33.1456Z"/>
  <rect id="appRect" transform="translate(3.79289, 4.32053)" fill="none" width="32.00000000000pt" height="32.00000000000pt"/>
  <path id="shape1" transform="translate(5.62099, 5.48744)" fill="#f2f2f2" fill-rule="evenodd" stroke="#003bc3" stroke-width="0.00000000000" stroke-linecap="square" stroke-linejoin="bevel" d="M6.44616 30.2194C-1.97872 21.7941 -2.22713 8.43996 6.18303 0C10.0876 5.98995 13.9921 11.9799 17.8966 17.9698L36.7107 30.5427C28.2706 38.9528 14.871 38.6446 6.44616 30.2194Z"/>
  <path id="shape2" transform="translate(7.1855, 6.82915)" fill="#ff9a5b" fill-rule="evenodd" stroke="#003bc3" stroke-width="0.00000000000" stroke-linecap="square" stroke-linejoin="bevel" d="M6.03644 27.3611C-1.6577 19.6666 -2.17274 7.70791 5.50796 0L16.3321 16.6281L33.322 27.9648C25.614 35.6454 13.7306 35.0555 6.03644 27.3611Z"/>
 </g>
</svg>
