<?xml version="1.0" standalone="no"?>
<!DOCTYPE svg PUBLIC "-//W3C//DTD SVG 20010904//EN" "http://www.w3.org/TR/2001/REC-SVG-20010904/DTD/svg10.dtd">
<!-- Created using Karbon, part of Calligra: http://www.calligra.org/karbon -->
<svg xmlns="http://www.w3.org/2000/svg" xmlns:xlink="http://www.w3.org/1999/xlink" width="38.4pt" height="38.4pt">
<defs/>
<g id="layer1">
  <path id="shape0" transform="translate(4.01074, 4.00634)" fill="#e74c3c" fill-rule="evenodd" stroke="#003bc3" stroke-width="0.00000000000" stroke-linecap="square" stroke-linejoin="bevel" d="M6.86362 33.1432C-2.28563 23.9935 -2.285 9.16562 6.84827 0L19.5117 19.4517L40.0086 33.173C30.8429 42.3062 16.0129 42.2928 6.86362 33.1432Z"/>
  <rect id="appRect" transform="translate(3.79289, 4.32053)" fill="none" width="32.00000000000pt" height="32.00000000000pt"/>
  <path id="shape1" transform="translate(6.61354, 6.25823)" fill="#f2f2f2" fill-rule="evenodd" stroke="#003bc3" stroke-width="0.00000000000" stroke-linecap="square" stroke-linejoin="bevel" d="M6.08519 28.1924C-1.45169 20.6146 -2.47444 8.26052 5.77711 0C9.608 5.8626 13.4282 11.7346 17.259 17.5972L34.6422 28.9215C26.3612 37.1528 13.7435 35.8916 6.08519 28.1924Z"/>
  <path id="shape2" transform="translate(8.32405, 7.95949)" fill="#f39c12" fill-rule="evenodd" stroke="#003bc3" stroke-width="0.00000000000" stroke-linecap="square" stroke-linejoin="bevel" d="M5.62389 25.5116C-1.54441 18.3372 -2.02425 7.18689 5.13152 0L15.2159 15.5041L31.0412 26.0872C23.86 33.2486 12.7922 32.6859 5.62389 25.5116Z"/>
 </g>
</svg>
