<?xml version="1.0" standalone="no"?>
<!DOCTYPE svg PUBLIC "-//W3C//DTD SVG 20010904//EN" "http://www.w3.org/TR/2001/REC-SVG-20010904/DTD/svg10.dtd">
<!-- Created using Karbon, part of Calligra: http://www.calligra.org/karbon -->
<svg xmlns="http://www.w3.org/2000/svg" xmlns:xlink="http://www.w3.org/1999/xlink" width="38.4pt" height="38.4pt">
<defs/>
<g id="layer1">
  <path id="shape0" transform="translate(4.05837, 3.94952)" fill="#f2f2f2" fill-rule="evenodd" stroke="#435564" stroke-width="1.86484575032" stroke-linecap="square" stroke-linejoin="miter" stroke-miterlimit="2.01260191180" d="M40.0003 19.6192C39.7896 8.61178 30.7232 -0.155937 19.7149 0.00210337C8.70658 0.160144 -0.104427 9.18452 0.00093517 20.1934C0.106298 31.2024 9.08842 40.0565 20.0977 40.0038C31.107 39.9511 40.004 31.0115 40.004 20.002"/>
  <path id="Фигура" transform="translate(17.009, 18.7755)" fill="none" stroke="#c74640" stroke-width="0.63779638050" stroke-linecap="round" stroke-linejoin="bevel" d="M9.38551 0L0 21.0149"/>
  <path id="shape1" transform="translate(14.1614, 15.0849)" fill="none" stroke="#34495e" stroke-width="2.52886264868" stroke-linecap="round" stroke-linejoin="bevel" d="M9.89305 9.07832L0 0"/>
  <path id="shape2" transform="translate(14.2313, 15.1565)" fill="none" stroke="#f2f2f2" stroke-width="0.85039517400" stroke-linecap="round" stroke-linejoin="bevel" d="M3.10204 2.88435L0 0"/>
  <path id="shape3" transform="matrix(-1 0 0 1 40.2177 20.1905)" fill="none" stroke="#34495e" stroke-width="1.89106626818" stroke-linecap="round" stroke-linejoin="bevel" d="M16.1633 3.86395L0 0"/>
  <path id="Фигура1" transform="translate(21.3574, 21.3381)" fill="#c74640" fill-rule="evenodd" stroke="#f2f2f2" stroke-width="0.00000000000" stroke-linecap="square" stroke-linejoin="miter" stroke-miterlimit="2.01260191180" d="M5.32886 2.3464C5.15149 0.912266 3.86702 -0.121627 2.42811 0.0115434C0.989202 0.144714 -0.0837087 1.39678 0.00514179 2.83911C0.0939922 4.28143 1.31247 5.39234 2.75684 5.3479C4.20121 5.30345 5.34908 4.11972 5.34908 2.67466"/>
  <path id="Фигура2" transform="translate(22.5931, 22.6185)" fill="#f2f2f2" fill-rule="evenodd" stroke="#f2f2f2" stroke-width="0.00000000000" stroke-linecap="square" stroke-linejoin="miter" stroke-miterlimit="2.00000000000" d="M2.85923 1.25897C2.76407 0.489482 2.07487 -0.0652599 1.30282 0.00619368C0.530763 0.0776472 -0.0449144 0.749453 0.00275886 1.52334C0.0504322 2.29723 0.704214 2.8933 1.4792 2.86945C2.25419 2.8456 2.87008 2.21046 2.87008 1.43511"/>
  <path id="Фигура3" transform="translate(25.2263, 17.7416)" fill="#c74640" fill-rule="evenodd" stroke="#f2f2f2" stroke-width="0.00000000000" stroke-linecap="square" stroke-linejoin="miter" stroke-miterlimit="2.00000000000" d="M2.22105 0.977971C2.14713 0.38023 1.61176 -0.0506938 1.01203 0.00481125C0.412297 0.0603163 -0.0348895 0.582175 0.00214308 1.18333C0.0391757 1.78449 0.547033 2.24751 1.14904 2.22899C1.75105 2.21046 2.22948 1.71709 2.22948 1.11479"/>
  <path id="shape4" transform="translate(35.5646, 20.2177)" fill="none" stroke="#f2f2f2" stroke-width="0.85039517400" stroke-linecap="round" stroke-linejoin="bevel" d="M4.46259 0L0 1.06122"/>
 </g>
</svg>
