<svg xmlns="http://www.w3.org/2000/svg" width="48" height="48">
 <g transform="translate(0,-1004.3622)">
  <path d="M 17.5 4 L 17.5 14 L 11 14 L 11 11 L 4 11 L 4 14 L 0 14 L 0 44 L 48 44 L 48 14 L 37.5 14 L 37.5 4 L 17.5 4 z " transform="translate(0,1004.3622)" style="fill:#565759"/>
  <rect y="1018.36" height="30" width="11" style="fill:#818286" rx="0"/>
  <g transform="matrix(0.5,0,0,0.5,17.5,1021.3622)">
   <rect y="4" x="4" height="40" width="40" style="fill:#ecf0f1" fill-rule="evenodd" rx="20"/>
   <rect width="33.33" height="33.33" x="7.333" y="7.333" style="fill:#34495e" fill-rule="evenodd" rx="16.667"/>
   <rect y="10.667" x="10.667" height="26.667" width="26.667" style="fill:#2c3e50" fill-rule="evenodd" rx="13.333"/>
   <rect width="20" height="20" x="14" y="14" style="fill:#103151" fill-rule="evenodd" rx="10"/>
   <rect y="17.333" x="17.333" height="13.333" width="13.333" style="fill:#202332" fill-rule="evenodd" rx="6.667"/>
   <rect width="6.667" height="6.667" x="24" y="17.333" style="fill:#8ea6bb" fill-rule="evenodd" rx="3.333"/>
   <rect y="27.333" x="17.333" height="3.333" width="3.333" style="fill:#8ea6bb" fill-rule="evenodd" rx="1.667"/>
  </g>
  <g transform="translate(-0.04124832,1.5000174)">
   <rect width="3" height="3" x="44.541" y="1017.86" style="fill:#ecf0f1" fill-rule="evenodd" rx="1.5"/>
   <rect y="1018.11" x="44.791" height="2.5" width="2.5" style="fill:#34495e" fill-rule="evenodd" rx="1.25"/>
   <rect width="2" height="2" x="45.04" y="1018.36" style="fill:#2c3e50" fill-rule="evenodd" rx="1"/>
  </g>
  <rect y="1009.36" x="18.5" height="8" width="18" style="fill:#e5e5e5"/>
  <rect width="16" height="1" x="19.5" y="1012.86" style="fill:#bebebe"/>
  <rect y="1010.86" x="19.5" height="1" width="16" style="fill:#bebebe"/>
  <rect width="16" height="1" x="19.5" y="1014.86" style="fill:#bebebe"/>
 </g>
</svg>
