<svg xmlns="http://www.w3.org/2000/svg" width="48" height="48">
 <rect width="34" height="40" x="7" y="4" style="fill:#c0392b"/>
 <path d="m 30.000001,3.9999826 11,0 0,11.0000194 -5.5,-4 -5.5,4 z" style="fill:#f39c12"/>
 <rect y="4" x="7" height="40" width="7" style="fill:#2c3e50"/>
 <g transform="matrix(0.63314095,0,0,0.63036935,66.713467,20.148735)" style="fill:#ecf0f1">
  <path d="m -50.089111,5.8360996 c -2.8e-5,4.7005304 -1.341172,8.3007874 -4.023438,10.8007814 -2.669291,2.500001 -6.529964,3.75 -11.582031,3.75 l -8.085938,0 0,-28.5546876 8.964844,0 c 4.661441,2.85e-5 8.281229,1.230496 10.859375,3.6914062 2.578099,2.4609599 3.86716,5.8984565 3.867188,10.3125 m -6.289063,0.15625 c -2.1e-5,-6.13279195 -2.708351,-9.1991951 -8.125,-9.1992187 l -3.222656,0 0,18.5937501 2.597656,0 c 5.833315,5e-6 8.749979,-3.131502 8.75,-9.3945314"/>
 </g>
</svg>
