<?xml version="1.0" standalone="no"?>
<!DOCTYPE svg PUBLIC "-//W3C//DTD SVG 20010904//EN" "http://www.w3.org/TR/2001/REC-SVG-20010904/DTD/svg10.dtd">
<!-- Created using Karbon, part of Calligra: http://www.calligra.org/karbon -->
<svg xmlns="http://www.w3.org/2000/svg" xmlns:xlink="http://www.w3.org/1999/xlink" width="38.4pt" height="38.4pt">
<defs/>
<g id="layer1">
  <path id="shape0" transform="translate(2.65747, 2.65745)" fill="#333333" fill-rule="evenodd" stroke="#003bc3" stroke-width="0.00000000000" stroke-linecap="square" stroke-linejoin="miter" stroke-miterlimit="2.01260185242" d="M42.5171 20.9203C42.33 9.21343 32.7127 -0.138719 21.0052 0.00155762C9.29766 0.141834 -0.0928262 9.72173 0.000692479 21.4297C0.0942111 33.1377 9.63653 42.5664 21.3448 42.5196C33.0531 42.4729 42.5198 32.9683 42.5198 21.2599"/>
  <path id="shape1" transform="translate(6.32686, 6.1194)" fill="#249eff" fill-rule="evenodd" stroke="#003bc3" stroke-width="0.00000000000" stroke-linecap="square" stroke-linejoin="miter" stroke-miterlimit="2.00000000000" d="M35.4331 17.7166C35.4331 7.93198 27.5012 5.99133e-16 17.7166 0C7.93198 -5.99133e-16 1.19827e-15 7.93198 0 17.7166C-1.19827e-15 27.5012 7.93198 35.4331 17.7166 35.4331C27.5012 35.4331 35.4331 27.5012 35.4331 17.7166"/>
  <path id="shape2" transform="translate(12.9063, 12.3636)" fill="#00429f" fill-rule="evenodd" stroke="#003bc3" stroke-width="0.00000000000" stroke-linecap="square" stroke-linejoin="miter" stroke-miterlimit="2.00000000000" d="M23.0315 11.5158C23.0315 5.15578 17.8758 3.89437e-16 11.5158 0C5.15578 -3.89437e-16 7.78873e-16 5.15578 0 11.5158C-7.78873e-16 17.8758 5.15578 23.0315 11.5158 23.0315C17.8758 23.0315 23.0315 17.8758 23.0315 11.5158"/>
  <path id="shape3" transform="translate(17.0653, 16.3906)" fill="#002f53" fill-rule="evenodd" stroke="#003bc3" stroke-width="0.00000000000" stroke-linecap="square" stroke-linejoin="miter" stroke-miterlimit="2.00000000000" d="M14.9228 7.46141C14.9228 3.34058 11.5822 2.52328e-16 7.46141 0C3.34058 -2.52328e-16 5.04655e-16 3.34058 0 7.46141C-5.04655e-16 11.5822 3.34058 14.9228 7.46141 14.9228C11.5822 14.9228 14.9228 11.5822 14.9228 7.46141"/>
  <path id="shape4" transform="matrix(0.904807 0.425821 -0.425821 0.904807 26.836 15.3953)" fill="#ffffff" fill-opacity="0.40000000000" fill-rule="evenodd" stroke="#003bc3" stroke-width="0.00000000000" stroke-linecap="square" stroke-linejoin="miter" stroke-miterlimit="2.00000000000" d="M5.1964 2.62223C5.1964 1.17401 4.03315 8.86771e-17 2.5982 0C1.16325 -8.86771e-17 1.75731e-16 1.17401 0 2.62223C-1.75731e-16 4.07046 1.16325 5.24447 2.5982 5.24447C4.03315 5.24447 5.1964 4.07046 5.1964 2.62223"/>
  <path id="shape41" transform="matrix(0.963066 0.269266 -0.269266 0.963066 18.3365 25.9116)" fill="#ffffff" fill-opacity="0.15294117647" fill-rule="evenodd" stroke="#003bc3" stroke-width="0.00000000000" stroke-linecap="square" stroke-linejoin="miter" stroke-miterlimit="2.00000000000" d="M3.14996 2.54506C3.54534 1.64627 3.19723 0.581014 2.37243 0.165742C1.54764 -0.249531 0.558491 0.142438 0.163111 1.04123C-0.232275 1.94003 0.115834 3.00528 0.940632 3.42056C1.76543 3.83583 2.75458 3.44386 3.14996 2.54506"/>
 </g>
</svg>
