<?xml version="1.0" standalone="no"?>
<!DOCTYPE svg PUBLIC "-//W3C//DTD SVG 20010904//EN" "http://www.w3.org/TR/2001/REC-SVG-20010904/DTD/svg10.dtd">
<!-- Created using Karbon, part of Calligra: http://www.calligra.org/karbon -->
<svg xmlns="http://www.w3.org/2000/svg" xmlns:xlink="http://www.w3.org/1999/xlink" width="38.4pt" height="38.4pt">
<defs/>
<g id="layer1">
  <path id="shape2" transform="translate(4.00394, 4.00394)" fill="#435564" fill-rule="evenodd" stroke="#001424" stroke-width="3.13122589693" stroke-linecap="butt" stroke-linejoin="miter" stroke-miterlimit="2.01260185242" d="M19.9918 2.66904e-06C8.94634 0.00562846 -0.00374934 8.96332 1.17831e-06 20.0087C0.00375171 31.0543 8.95993 40.0059 20.0053 40.004C31.0508 40.0021 40.0077 30.974 40.0077 19.9284C40.0002 8.88295 31.0374 -0.00562311 19.9918 2.66904e-06Z"/>
  <path id="shape3" transform="translate(13.049, 13.0227)" fill="#001424" fill-rule="evenodd" stroke="#34495e" stroke-width="5.66008854562" stroke-linecap="butt" stroke-linejoin="miter" stroke-miterlimit="2.01260185242" d="M10.9742 1.45424e-06C4.91098 0.00308965 -0.00205816 4.9203 6.4682e-07 10.9836C0.00205945 17.0469 4.91845 21.9608 10.9817 21.9597C17.045 21.9587 21.9597 17.0394 21.9597 10.9761C21.9556 4.91281 17.0375 -0.00308676 10.9742 1.45424e-06Z"/>
  <path id="shape4" transform="translate(24.2678, 14.6998)" fill="#a8b2b8" fill-rule="evenodd" stroke="#c4cbcf" stroke-width="0.00000000000" stroke-linecap="butt" stroke-linejoin="miter" stroke-miterlimit="2.00000000000" d="M7.34782 3.6714C7.34642 1.64261 5.70083 -0.00103284 3.67203 4.86958e-07C1.64324 0.00103381 -0.000688668 1.64635 2.16427e-07 3.67517C0.0006891 5.70395 1.64573 7.34817 3.67452 7.34782C5.70332 7.34746 7.34782 5.7027 7.34782 3.6739"/>
  <path id="shape5" transform="translate(16.5652, 28.555)" fill="#c4cbcf" fill-rule="evenodd" stroke="#c4cbcf" stroke-width="0.00000000000" stroke-linecap="butt" stroke-linejoin="miter" stroke-miterlimit="2.00000000000" d="M3.32637 1.66205C3.32574 0.743616 2.58079 -0.00046757 1.66233 2.20447e-07C0.743897 0.000468009 -0.000311762 0.74531 9.79777e-08 1.66376C0.000311958 2.5822 0.745028 3.32653 1.66347 3.32637C2.5819 3.32622 3.32637 2.58162 3.32637 1.66319"/>
 </g>
</svg>
