<svg xmlns="http://www.w3.org/2000/svg" width="48" height="48" viewBox="0 0 13.546667 13.546667">
 <g transform="translate(0,-283.45334)">
  <g>
   <rect width="11.289" height="11.289" x="1.129" y="284.58" style="fill:#e67e22"/>
   <rect y="285.99" x="2.54" height="8.467" width="8.467" style="fill:#2c3e50"/>
   <g transform="matrix(0.1077651,0,0,0.1077651,1.3578039,285.92789)" style="fill:#f8f8f8">
    <path d="m 34.567225,28.24297 c -2.278666,0.781249 -4.550799,1.171874 -6.816407,1.171875 -3.697927,-1e-6 -6.549487,-0.963542 -8.554687,-2.890625 -1.992192,-1.927079 -2.988285,-4.661452 -2.988281,-8.203125 -4e-6,-3.476549 0.983068,-6.19139 2.949218,-8.144532 1.979159,-1.953104 4.726552,-2.9296656 8.242188,-2.9296872 2.239566,2.16e-5 4.498679,0.338563 6.777344,1.015625 l 0,3.2226562 c -2.51304,-0.898419 -4.654965,-1.347637 -6.425782,-1.347656 -2.31772,1.9e-5 -4.140635,0.729184 -5.46875,2.1875 -1.315112,1.458348 -1.972663,3.457044 -1.972656,5.996094 -7e-6,2.565112 0.703117,4.576828 2.109375,6.035156 1.41926,1.445315 3.372383,2.167971 5.859375,2.167969 1.861962,2e-6 3.958314,-0.436196 6.289063,-1.308594 l 0,3.027344"/>
    <path d="m 38.2839,13.496876 0,-5.7812502 5.78125,0 0,5.7812502 -5.78125,0 m 0,15.429687 0,-5.78125 5.78125,0 0,5.78125 -5.78125,0"/>
    <path d="m 47.134396,8.203907 16.787545,10.371094 -16.787545,10.351562 0,-3.242187 11.550337,-7.109375 -11.550337,-7.128906 0,-3.242188"/>
   </g>
   <g transform="matrix(1.2023998,0,0,1.4369267,-2.3483788,-126.38776)" style="fill:#f8f8f8">
    <path d="m 8.8185139,289.10946 0,-0.19845 1.6546311,0 0,0.19845 -1.6546311,0"/>
   </g>
  </g>
 </g>
</svg>
