<svg xmlns="http://www.w3.org/2000/svg" width="48" height="48">
 <g transform="translate(0,-1004.3622)">
  <path d="m 4,1008.3622 0,40 40,0 0,-40 -40,0 z m 1,5 5,0 0,5 -5,0 0,-5 z m 33,0 5,0 0,5 -5,0 0,-5 z m -33,8.5 5,0 0,5 -5,0 0,-5 z m 33,0 5,0 0,5 -5,0 0,-5 z m -33,8 5,0 0,5 -5,0 0,-5 z m 33,0 5,0 0,5 -5,0 0,-5 z m -33,8.5 5,0 0,5 -5,0 0,-5 z m 33,0 5,0 0,5 -5,0 0,-5 z" style="fill:#2c3e50"/>
  <rect width="26" height="15.5" x="11" y="1011.36" style="fill:#2ecc71"/>
  <rect width="26" height="15.5" x="11" y="1029.86" style="fill:#2ecc71"/>
 </g>
</svg>
