<svg xmlns="http://www.w3.org/2000/svg" width="48" height="48">
 <g>
  <rect rx="20" width="40" height="40" x="4" y="4" style="fill:#2c3e50"/>
  <rect rx="17" y="7" x="7" height="34" width="34" style="fill:#eeeeec"/>
  <g>
   <path d="m 24,17.375 -4.78125,-3.96875 -6.5625,4.375 4.625,3.71875 z" style="fill:#2c3e50"/>
   <path d="m 24.09375,17.375 4.78125,-3.96875 6.5625,4.375 -4.625,3.71875 z" style="fill:#2c3e50"/>
   <path d="m 24,25.71875 -4.78125,3.96875 -6.5625,-4.375 4.625,-3.71875 z" style="fill:#2c3e50"/>
   <path d="m 24.09375,25.71875 4.78125,3.96875 6.5625,-4.375 -4.625,-3.71875 z" style="fill:#2c3e50"/>
   <path d="m 17.302019,29.106991 0,1.414213 6.695417,4.043767 6.717515,-4.02167 c 0,0 0.02358,-1.61269 0,-1.524699 -0.02358,0.08799 -2.032932,1.325826 -2.032932,1.325826 l -4.70668,-3.911185 -4.596194,3.86699 z" style="fill:#2c3e50"/>
  </g>
 </g>
</svg>
