<?xml version="1.0" encoding="UTF-8" standalone="no"?>
<!-- Created with Inkscape (http://www.inkscape.org/) -->

<svg
   xmlns:dc="http://purl.org/dc/elements/1.1/"
   xmlns:cc="http://creativecommons.org/ns#"
   xmlns:rdf="http://www.w3.org/1999/02/22-rdf-syntax-ns#"
   xmlns:svg="http://www.w3.org/2000/svg"
   xmlns="http://www.w3.org/2000/svg"
   xmlns:sodipodi="http://sodipodi.sourceforge.net/DTD/sodipodi-0.dtd"
   xmlns:inkscape="http://www.inkscape.org/namespaces/inkscape"
   width="48"
   height="48"
   id="svg2"
   version="1.1"
   inkscape:version="0.48.4 r9939"
   viewBox="0 0 13.546666 13.546668"
   sodipodi:docname="easystroke.svg">
  <defs
     id="defs4" />
  <sodipodi:namedview
     id="base"
     pagecolor="#ffffff"
     bordercolor="#666666"
     borderopacity="1.0"
     inkscape:pageopacity="0"
     inkscape:pageshadow="2"
     inkscape:zoom="12.58683"
     inkscape:cx="33.702276"
     inkscape:cy="15.776811"
     inkscape:document-units="px"
     inkscape:current-layer="surface0"
     showgrid="false"
     inkscape:showpageshadow="false"
     borderlayer="true"
     units="px"
     fit-margin-top="0"
     fit-margin-left="0"
     fit-margin-right="0"
     fit-margin-bottom="0"
     showguides="true"
     inkscape:window-width="1440"
     inkscape:window-height="843"
     inkscape:window-x="0"
     inkscape:window-y="27"
     inkscape:window-maximized="1">
    <sodipodi:guide
       position="-6.6748425e-06,47.999999"
       orientation="47.999977,0"
       id="guide4120" />
    <sodipodi:guide
       position="-6.6748425e-06,2.2810037e-05"
       orientation="0,48.000004"
       id="guide4122" />
    <sodipodi:guide
       position="47.999997,2.2810037e-05"
       orientation="-47.999977,0"
       id="guide4124" />
    <sodipodi:guide
       position="47.999997,47.999999"
       orientation="0,-48.000004"
       id="guide4126" />
    <sodipodi:guide
       position="3.9999733,44.000154"
       orientation="39.999962,0"
       id="guide4138" />
    <sodipodi:guide
       position="3.9999733,4.0001921"
       orientation="0,40.000003"
       id="guide4140" />
    <sodipodi:guide
       position="43.999976,4.0001921"
       orientation="-39.999962,0"
       id="guide4142" />
    <sodipodi:guide
       position="43.999976,44.000154"
       orientation="0,-40.000003"
       id="guide4144" />
    <sodipodi:guide
       position="6.9999922,47.999999"
       orientation="39.999962,0"
       id="guide4148" />
    <sodipodi:guide
       position="6.9999922,8.0000369"
       orientation="0,34.000006"
       id="guide4150" />
    <sodipodi:guide
       position="40.999998,8.0000369"
       orientation="-39.999962,0"
       id="guide4152" />
    <sodipodi:guide
       position="40.999998,47.999999"
       orientation="0,-34.000006"
       id="guide4154" />
    <sodipodi:guide
       position="14.999993,32.999986"
       orientation="17.999951,0"
       id="guide4158" />
    <sodipodi:guide
       position="14.999993,15.000036"
       orientation="0,17.999998"
       id="guide4160" />
    <sodipodi:guide
       position="32.999991,15.000036"
       orientation="-17.999951,0"
       id="guide4162" />
    <sodipodi:guide
       position="32.999991,32.999986"
       orientation="0,-17.999998"
       id="guide4164" />
    <sodipodi:guide
       position="1.9999969,44.000046"
       orientation="39.999962,0"
       id="guide3279" />
    <sodipodi:guide
       position="1.9999969,4.0000839"
       orientation="0,44.000003"
       id="guide3281" />
    <sodipodi:guide
       position="46,4.0000839"
       orientation="-39.999962,0"
       id="guide3283" />
    <sodipodi:guide
       position="46,44.000046"
       orientation="0,-44.000003"
       id="guide3285" />
  </sodipodi:namedview>
  <metadata
     id="metadata7">
    <rdf:RDF>
      <cc:Work
         rdf:about="">
        <dc:format>image/svg+xml</dc:format>
        <dc:type
           rdf:resource="http://purl.org/dc/dcmitype/StillImage" />
        <dc:title />
      </cc:Work>
    </rdf:RDF>
  </metadata>
  <g
     inkscape:label="Capa 1"
     inkscape:groupmode="layer"
     id="layer1"
     transform="translate(38.119153,-397.84494)">
    <rect
       style="fill:#2c3e50;fill-opacity:1;stroke:none"
       id="rect4118"
       width="11.288891"
       height="11.288879"
       x="-36.990273"
       y="398.97379"
       ry="5.6444397" />
    <g
       id="surface0"
       transform="matrix(0.17105496,0,0,0.17105496,-34.09455,401.89443)">
      <g
         id="g3941"
         style="stroke:#7f8c8d;stroke-opacity:1">
        <path
           inkscape:connector-curvature="0"
           style="fill:none;stroke:#7f8c8d;stroke-width:0.07142859999999999;stroke-linecap:round;stroke-linejoin:miter;stroke-miterlimit:10;stroke-opacity:1"
           d="M 0.23284,0.449498 C 0.213309,0.459263 0.160296,0.486049 0.115374,0.522461"
           transform="matrix(28,0,0,28,2,2)"
           id="path3007" />
        <path
           inkscape:connector-curvature="0"
           style="fill:none;stroke:#7f8c8d;stroke-width:0.07142859999999999;stroke-linecap:round;stroke-linejoin:miter;stroke-miterlimit:10;stroke-opacity:1"
           d="M 0.115374,0.522461 C 0.070452,0.558733 0.0337612,0.604492 0.0115792,0.660156"
           transform="matrix(28,0,0,28,2,2)"
           id="path3009" />
        <path
           inkscape:connector-curvature="0"
           style="fill:none;stroke:#7f8c8d;stroke-width:0.07142859999999999;stroke-linecap:round;stroke-linejoin:miter;stroke-miterlimit:10;stroke-opacity:1"
           d="M 0.0115792,0.660156 C -0.0106027,0.71582 -0.0182757,0.78139 0,0.837333"
           transform="matrix(28,0,0,28,2,2)"
           id="path3011" />
        <path
           inkscape:connector-curvature="0"
           style="fill:none;stroke:#7f8c8d;stroke-width:0.07142859999999999;stroke-linecap:round;stroke-linejoin:miter;stroke-miterlimit:10;stroke-opacity:1"
           d="m 0,0.837333 c 0.0182757,0.055943 0.0623605,0.10226 0.117188,0.126255"
           transform="matrix(28,0,0,28,2,2)"
           id="path3013" />
        <path
           inkscape:connector-curvature="0"
           style="fill:none;stroke:#7f8c8d;stroke-width:0.07142859999999999;stroke-linecap:round;stroke-linejoin:miter;stroke-miterlimit:10;stroke-opacity:1"
           d="m 0.117188,0.963588 c 0.054966,0.023996 0.120535,0.02567 0.17871,0.012974"
           transform="matrix(28,0,0,28,2,2)"
           id="path3015" />
        <path
           inkscape:connector-curvature="0"
           style="fill:none;stroke:#7f8c8d;stroke-width:0.07142859999999999;stroke-linecap:round;stroke-linejoin:miter;stroke-miterlimit:10;stroke-opacity:1"
           d="M 0.295898,0.976562 C 0.354074,0.963867 0.404855,0.936942 0.444615,0.908622"
           transform="matrix(28,0,0,28,2,2)"
           id="path3017" />
        <path
           inkscape:connector-curvature="0"
           style="fill:none;stroke:#7f8c8d;stroke-width:0.07142859999999999;stroke-linecap:round;stroke-linejoin:miter;stroke-miterlimit:10;stroke-opacity:1"
           d="M 0.444615,0.908622 C 0.484515,0.880301 0.513393,0.850725 0.536133,0.824358"
           transform="matrix(28,0,0,28,2,2)"
           id="path3019" />
      </g>
      <g
         id="g3933"
         style="stroke:#95a5a6;stroke-opacity:1">
        <path
           inkscape:connector-curvature="0"
           style="fill:none;stroke:#95a5a6;stroke-width:0.07142859999999999;stroke-linecap:round;stroke-linejoin:miter;stroke-miterlimit:10;stroke-opacity:1"
           d="M 0.536133,0.824358 C 0.558733,0.798131 0.575195,0.775112 0.588867,0.754325"
           transform="matrix(28,0,0,28,2,2)"
           id="path3021" />
        <path
           inkscape:connector-curvature="0"
           style="fill:none;stroke:#95a5a6;stroke-width:0.07142859999999999;stroke-linecap:round;stroke-linejoin:miter;stroke-miterlimit:10;stroke-opacity:1"
           d="M 0.588867,0.754325 C 0.602679,0.733677 0.613839,0.715402 0.623744,0.697963"
           transform="matrix(28,0,0,28,2,2)"
           id="path3023" />
        <path
           inkscape:connector-curvature="0"
           style="fill:none;stroke:#95a5a6;stroke-width:0.07142859999999999;stroke-linecap:round;stroke-linejoin:miter;stroke-miterlimit:10;stroke-opacity:1"
           d="M 0.623744,0.697963 C 0.63365,0.680525 0.642299,0.663783 0.650391,0.646903"
           transform="matrix(28,0,0,28,2,2)"
           id="path3025" />
        <path
           inkscape:connector-curvature="0"
           style="fill:none;stroke:#95a5a6;stroke-width:0.07142859999999999;stroke-linecap:round;stroke-linejoin:miter;stroke-miterlimit:10;stroke-opacity:1"
           d="M 0.650391,0.646903 C 0.658343,0.629883 0.665737,0.612584 0.672991,0.59389"
           transform="matrix(28,0,0,28,2,2)"
           id="path3027" />
        <path
           inkscape:connector-curvature="0"
           style="fill:none;stroke:#95a5a6;stroke-width:0.07142859999999999;stroke-linecap:round;stroke-linejoin:miter;stroke-miterlimit:10;stroke-opacity:1"
           d="M 0.672991,0.59389 C 0.680106,0.575056 0.687221,0.554967 0.694475,0.53111"
           transform="matrix(28,0,0,28,2,2)"
           id="path3029" />
        <path
           inkscape:connector-curvature="0"
           style="fill:none;stroke:#95a5a6;stroke-width:0.07142859999999999;stroke-linecap:round;stroke-linejoin:miter;stroke-miterlimit:10;stroke-opacity:1"
           d="M 0.694475,0.53111 C 0.70159,0.507394 0.709124,0.48005 0.714983,0.445871"
           transform="matrix(28,0,0,28,2,2)"
           id="path3031" />
      </g>
      <g
         id="g3924"
         style="stroke:#bdc3c7;stroke-opacity:1">
        <path
           inkscape:connector-curvature="0"
           style="fill:none;stroke:#bdc3c7;stroke-width:0.07141676000000000;stroke-linecap:round;stroke-linejoin:miter;stroke-miterlimit:10;stroke-opacity:1;stroke-dasharray:none"
           d="M 0.72083482,0.40198233 C 0.72683382,0.36780233 0.725446,0.370536 0.722098,0.321847"
           transform="matrix(28,0,0,28,2,2)"
           id="path3033"
           sodipodi:nodetypes="cc" />
        <path
           inkscape:connector-curvature="0"
           style="fill:none;stroke:#bdc3c7;stroke-width:0.07141676000000000;stroke-linecap:round;stroke-linejoin:miter;stroke-miterlimit:10;stroke-opacity:1;stroke-dasharray:none"
           d="M 0.722098,0.321847 C 0.71861,0.273158 0.70731,0.216797 0.680106,0.163783"
           transform="matrix(28,0,0,28,2,2)"
           id="path3035" />
        <path
           inkscape:connector-curvature="0"
           style="fill:none;stroke:#bdc3c7;stroke-width:0.07141676000000000;stroke-linecap:round;stroke-linejoin:miter;stroke-miterlimit:10;stroke-opacity:1;stroke-dasharray:none"
           d="M 0.680106,0.163783 C 0.653041,0.110631 0.610073,0.0609654 0.55678,0.0339007"
           transform="matrix(28,0,0,28,2,2)"
           id="path3037" />
        <path
           inkscape:connector-curvature="0"
           style="fill:none;stroke:#bdc3c7;stroke-width:0.07141676000000000;stroke-linecap:round;stroke-linejoin:miter;stroke-miterlimit:10;stroke-opacity:1;stroke-dasharray:none"
           d="M 0.55678,0.0339007 C 0.503348,0.00669643 0.439732,0.00237165 0.384766,0.0234375"
           transform="matrix(28,0,0,28,2,2)"
           id="path3039" />
        <path
           inkscape:connector-curvature="0"
           style="fill:none;stroke:#bdc3c7;stroke-width:0.07141676000000000;stroke-linecap:round;stroke-linejoin:miter;stroke-miterlimit:10;stroke-opacity:1;stroke-dasharray:none"
           d="M 0.384766,0.0234375 C 0.329799,0.0445033 0.283761,0.0910993 0.255162,0.14481"
           transform="matrix(28,0,0,28,2,2)"
           id="path3041" />
        <path
           inkscape:connector-curvature="0"
           style="fill:none;stroke:#bdc3c7;stroke-width:0.07141676000000000;stroke-linecap:round;stroke-linejoin:miter;stroke-miterlimit:10;stroke-opacity:1;stroke-dasharray:none"
           d="M 0.255162,0.14481 C 0.226562,0.198382 0.215681,0.259068 0.214565,0.31236"
           transform="matrix(28,0,0,28,2,2)"
           id="path3043" />
        <path
           inkscape:connector-curvature="0"
           style="fill:none;stroke:#bdc3c7;stroke-width:0.07141676000000000;stroke-linecap:round;stroke-linejoin:miter;stroke-miterlimit:10;stroke-opacity:1;stroke-dasharray:none"
           d="M 0.214565,0.31236 C 0.213449,0.365792 0.222377,0.411691 0.23284,0.449498"
           transform="matrix(28,0,0,28,2,2)"
           id="path3045" />
      </g>
      <g
         id="g3902"
         style="stroke:#ecf0f1;stroke-opacity:1;fill:none;fill-opacity:1">
        <path
           inkscape:connector-curvature="0"
           style="fill:none;stroke:#ecf0f1;stroke-width:0.07142859999999999;stroke-linecap:round;stroke-linejoin:miter;stroke-miterlimit:10;stroke-opacity:1;fill-opacity:1"
           d="M 0.23284,0.449498 C 0.243304,0.487305 0.255441,0.516741 0.266881,0.541853"
           transform="matrix(28,0,0,28,2,2)"
           id="path3047" />
        <path
           inkscape:connector-curvature="0"
           style="fill:none;stroke:#ecf0f1;stroke-width:0.07142859999999999;stroke-linecap:round;stroke-linejoin:miter;stroke-miterlimit:10;stroke-opacity:1;fill-opacity:1"
           d="M 0.266881,0.541853 C 0.27832,0.566825 0.288923,0.587333 0.299247,0.605748"
           transform="matrix(28,0,0,28,2,2)"
           id="path3049" />
        <path
           inkscape:connector-curvature="0"
           style="fill:none;stroke:#ecf0f1;stroke-width:0.07142859999999999;stroke-linecap:round;stroke-linejoin:miter;stroke-miterlimit:10;stroke-opacity:1;fill-opacity:1"
           d="M 0.299247,0.605748 C 0.30957,0.624302 0.319615,0.640904 0.329939,0.656669"
           transform="matrix(28,0,0,28,2,2)"
           id="path3051" />
        <path
           inkscape:connector-curvature="0"
           style="fill:none;stroke:#ecf0f1;stroke-width:0.07142859999999999;stroke-linecap:round;stroke-linejoin:miter;stroke-miterlimit:10;stroke-opacity:1;fill-opacity:1"
           d="M 0.329939,0.656669 C 0.340262,0.672573 0.351004,0.68764 0.362863,0.702985"
           transform="matrix(28,0,0,28,2,2)"
           id="path3053" />
        <path
           inkscape:connector-curvature="0"
           style="fill:none;stroke:#ecf0f1;stroke-width:0.07142859999999999;stroke-linecap:round;stroke-linejoin:miter;stroke-miterlimit:10;stroke-opacity:1;fill-opacity:1"
           d="m 0.362863,0.702985 c 0.011858,0.015346 0.024693,0.030832 0.03976,0.047852"
           transform="matrix(28,0,0,28,2,2)"
           id="path3055" />
        <path
           inkscape:connector-curvature="0"
           style="fill:none;stroke:#ecf0f1;stroke-width:0.07142859999999999;stroke-linecap:round;stroke-linejoin:miter;stroke-miterlimit:10;stroke-opacity:1;fill-opacity:1"
           d="M 0.402623,0.750837 C 0.41769,0.767857 0.435128,0.786412 0.457589,0.807338"
           transform="matrix(28,0,0,28,2,2)"
           id="path3057" />
        <path
           inkscape:connector-curvature="0"
           style="fill:none;stroke:#ecf0f1;stroke-width:0.07142859999999999;stroke-linecap:round;stroke-linejoin:miter;stroke-miterlimit:10;stroke-opacity:1;fill-opacity:1"
           d="M 0.457589,0.807338 C 0.48019,0.828265 0.508092,0.851562 0.545619,0.874581"
           transform="matrix(28,0,0,28,2,2)"
           id="path3059" />
        <path
           inkscape:connector-curvature="0"
           style="fill:none;stroke:#ecf0f1;stroke-width:0.07142859999999999;stroke-linecap:round;stroke-linejoin:miter;stroke-miterlimit:10;stroke-opacity:1;fill-opacity:1"
           d="M 0.545619,0.874581 C 0.583008,0.8976 0.630301,0.920201 0.686105,0.93192"
           transform="matrix(28,0,0,28,2,2)"
           id="path3061" />
        <path
           inkscape:connector-curvature="0"
           style="fill:none;stroke:#ecf0f1;stroke-width:0.07142859999999999;stroke-linecap:round;stroke-linejoin:miter;stroke-miterlimit:10;stroke-opacity:1;fill-opacity:1"
           d="M 0.686105,0.93192 C 0.741908,0.943638 0.806362,0.944336 0.8637,0.924107"
           transform="matrix(28,0,0,28,2,2)"
           id="path3063" />
        <path
           inkscape:connector-curvature="0"
           style="fill:none;stroke:#ecf0f1;stroke-width:0.07142859999999999;stroke-linecap:round;stroke-linejoin:miter;stroke-miterlimit:10;stroke-opacity:1;fill-opacity:1"
           d="M 0.8637,0.924107 C 0.920898,0.904018 0.970982,0.863002 0.995954,0.810268"
           transform="matrix(28,0,0,28,2,2)"
           id="path3065" />
        <path
           inkscape:connector-curvature="0"
           style="fill:none;stroke:#ecf0f1;stroke-width:0.07142859999999999;stroke-linecap:round;stroke-linejoin:miter;stroke-miterlimit:10;stroke-opacity:1;fill-opacity:1"
           d="M 0.995954,0.810268 C 1.020926,0.757394 1.020787,0.692801 1,0.635742"
           transform="matrix(28,0,0,28,2,2)"
           id="path3067" />
        <path
           inkscape:connector-curvature="0"
           style="fill:none;stroke:#ecf0f1;stroke-width:0.07142859999999999;stroke-linecap:round;stroke-linejoin:miter;stroke-miterlimit:10;stroke-opacity:1;fill-opacity:1"
           d="M 1,0.635742 C 0.979213,0.578683 0.937779,0.529297 0.893276,0.493583"
           transform="matrix(28,0,0,28,2,2)"
           id="path3069" />
        <path
           inkscape:connector-curvature="0"
           style="fill:none;stroke:#ecf0f1;stroke-width:0.07142859999999999;stroke-linecap:round;stroke-linejoin:miter;stroke-miterlimit:10;stroke-opacity:1;fill-opacity:1"
           d="M 0.893276,0.493583 C 0.848912,0.457868 0.801479,0.435686 0.759905,0.421317"
           transform="matrix(28,0,0,28,2,2)"
           id="path3071" />
        <path
           inkscape:connector-curvature="0"
           style="fill:none;stroke:#ecf0f1;stroke-width:0.07142859999999999;stroke-linecap:round;stroke-linejoin:miter;stroke-miterlimit:10;stroke-opacity:1;fill-opacity:1"
           d="M 0.759905,0.421317 C 0.718192,0.406948 0.682478,0.400251 0.652065,0.396205"
           transform="matrix(28,0,0,28,2,2)"
           id="path3073" />
        <path
           inkscape:connector-curvature="0"
           style="fill:none;stroke:#ecf0f1;stroke-width:0.07142859999999999;stroke-linecap:round;stroke-linejoin:miter;stroke-miterlimit:10;stroke-opacity:1;fill-opacity:1"
           d="M 0.652065,0.396205 C 0.621512,0.39202 0.596261,0.390346 0.573521,0.389509"
           transform="matrix(28,0,0,28,2,2)"
           id="path3075" />
        <path
           inkscape:connector-curvature="0"
           style="fill:none;stroke:#ecf0f1;stroke-width:0.07142859999999999;stroke-linecap:round;stroke-linejoin:miter;stroke-miterlimit:10;stroke-opacity:1;fill-opacity:1"
           d="M 0.573521,0.389509 C 0.550642,0.388532 0.530413,0.388532 0.5113,0.38909"
           transform="matrix(28,0,0,28,2,2)"
           id="path3077" />
        <path
           inkscape:connector-curvature="0"
           style="fill:none;stroke:#ecf0f1;stroke-width:0.07142859999999999;stroke-linecap:round;stroke-linejoin:miter;stroke-miterlimit:10;stroke-opacity:1;fill-opacity:1"
           d="M 0.5113,0.38909 C 0.492048,0.389648 0.473772,0.390765 0.45452,0.392997"
           transform="matrix(28,0,0,28,2,2)"
           id="path3079" />
        <path
           inkscape:connector-curvature="0"
           style="fill:none;stroke:#ecf0f1;stroke-width:0.07142859999999999;stroke-linecap:round;stroke-linejoin:miter;stroke-miterlimit:10;stroke-opacity:1;fill-opacity:1"
           d="M 0.45452,0.392997 C 0.435407,0.395229 0.415318,0.398577 0.395787,0.401646"
           transform="matrix(28,0,0,28,2,2)"
           id="path3081" />
        <path
           inkscape:connector-curvature="0"
           style="fill:none;stroke:#ecf0f1;stroke-width:0.07142859999999999;stroke-linecap:round;stroke-linejoin:miter;stroke-miterlimit:10;stroke-opacity:1;fill-opacity:1"
           d="M 0.395787,0.401646 C 0.376395,0.404715 0.357561,0.407506 0.325753,0.417271"
           transform="matrix(28,0,0,28,2,2)"
           id="path3083" />
        <path
           inkscape:connector-curvature="0"
           style="fill:none;stroke:#ecf0f1;stroke-width:0.07142859999999999;stroke-linecap:round;stroke-linejoin:miter;stroke-miterlimit:10;stroke-opacity:1;fill-opacity:1"
           d="M 0.325753,0.417271 C 0.293945,0.426897 0.249163,0.443499 0.23284,0.449498"
           transform="matrix(28,0,0,28,2,2)"
           id="path3085" />
      </g>
    </g>
  </g>
</svg>
