<svg xmlns="http://www.w3.org/2000/svg" width="48" height="48" viewBox="0 0 13.546666 13.546668">
 <g transform="translate(38.119153,-397.84494)">
  <rect width="11.289" height="11.289" x="-36.99" y="398.97" style="fill:#2c3e50" rx="5.644"/>
  <g transform="translate(-14.145496,-0.83153893)">
   <path d="m -15.902373,404.68136 c -0.08731,0.62363 -0.417831,1.58402 -1.110059,2.34485 0.0062,0.0249 0.374177,0.27439 0.374177,0.27439 0.879988,-1.0318 1.036733,-1.81296 1.178659,-2.50075 0,0 -0.255688,-0.14344 -0.442777,-0.11849 z" style="fill:#95a5a6"/>
   <path d="m -18.576184,404.46096 c -0.48508,-2.67701 2.620406,-3.29482 2.774635,-0.22244 l 0.440513,0.10475 c 0.09918,-1.56362 -0.918344,-2.69191 -2.019754,-2.63416 -0.976645,0.0512 -1.994818,1.17234 -1.628692,2.94701 z" style="fill:#bdc3c7"/>
   <path d="m -17.290622,407.3779 c -1.98846,1.52135 -4.144055,-0.31851 -1.587784,-2.27117 l -0.133164,-0.47675 c -1.850145,1.07722 -1.776465,2.63311 -0.986126,3.4024 0.700808,0.68215 2.198281,0.54546 3.075973,-0.38163 z" style="fill:#7f8c8d"/>
   <path d="m -16.729406,404.13843 c -1.434346,-0.025 -2.284236,0.49388 -2.284236,0.49388 0.01034,0.0428 -0.0032,0.3668 0.670277,1.56105 0.617393,0.92297 1.484999,1.70178 2.55764,1.91382 1.072641,0.21203 2.239512,-0.38408 2.301874,-1.48167 0.06236,-1.09759 -0.791869,-1.70607 -0.978958,-1.84326 -0.187088,-0.1372 -0.832251,-0.61888 -2.266597,-0.64382 z m -0.273403,0.47625 c 0.341479,-0.007 0.749653,0.0176 1.234722,0.0882 2.143125,0.62618 1.957918,2.11667 1.587501,2.50472 -0.336861,0.3529 -1.137709,0.77611 -2.372432,0.12347 -1.234722,-0.65263 -1.887361,-2.41652 -1.887361,-2.41652 0,0 0.413137,-0.28002 1.43757,-0.29986 z" style="fill:#ecf0f1"/>
  </g>
 </g>
</svg>
