<?xml version="1.0" encoding="UTF-8" standalone="no"?>
<!-- Created with Inkscape (http://www.inkscape.org/) -->

<svg
   xmlns:dc="http://purl.org/dc/elements/1.1/"
   xmlns:cc="http://creativecommons.org/ns#"
   xmlns:rdf="http://www.w3.org/1999/02/22-rdf-syntax-ns#"
   xmlns:svg="http://www.w3.org/2000/svg"
   xmlns="http://www.w3.org/2000/svg"
   xmlns:sodipodi="http://sodipodi.sourceforge.net/DTD/sodipodi-0.dtd"
   xmlns:inkscape="http://www.inkscape.org/namespaces/inkscape"
   width="48"
   height="48"
   id="svg2"
   version="1.1"
   inkscape:version="0.48+devel r12351"
   sodipodi:docname="eclipse.svg">
  <defs
     id="defs4" />
  <sodipodi:namedview
     id="base"
     pagecolor="#ffffff"
     bordercolor="#666666"
     borderopacity="1.0"
     inkscape:pageopacity="0.0"
     inkscape:pageshadow="2"
     inkscape:zoom="4.0000001"
     inkscape:cx="9.7068712"
     inkscape:cy="26.861731"
     inkscape:document-units="px"
     inkscape:current-layer="layer1"
     showgrid="false"
     fit-margin-top="0"
     fit-margin-left="0"
     fit-margin-right="0"
     fit-margin-bottom="0"
     inkscape:window-width="1366"
     inkscape:window-height="714"
     inkscape:window-x="0"
     inkscape:window-y="30"
     inkscape:window-maximized="1" />
  <metadata
     id="metadata7">
    <rdf:RDF>
      <cc:Work
         rdf:about="">
        <dc:format>image/svg+xml</dc:format>
        <dc:type
           rdf:resource="http://purl.org/dc/dcmitype/StillImage" />
        <dc:title />
      </cc:Work>
    </rdf:RDF>
  </metadata>
  <g
     inkscape:label="Capa 1"
     inkscape:groupmode="layer"
     id="layer1"
     transform="translate(-180.23661,-689.8125)">
    <path
       sodipodi:type="arc"
       style="fill:#55ceff;fill-opacity:1;stroke:none"
       id="path828"
       sodipodi:cx="78.57724"
       sodipodi:cy="34.388195"
       sodipodi:rx="4.8613591"
       sodipodi:ry="4.8613591"
       d="m 83.438599,34.388195 c 0,2.684855 -2.176505,4.861359 -4.861359,4.861359 -2.684855,0 -4.861359,-2.176504 -4.861359,-4.861359 0,-2.684854 2.176504,-4.861359 4.861359,-4.861359 C 81.262094,29.526836 83.438599,31.703341 83.438599,34.388195 Z"
       transform="matrix(4.1113806,0,0,4.1113806,-118.91091,572.07337)" />
    <path
       transform="matrix(2.8415361,0,0,2.8415361,-14.544179,610.67014)"
       d="m 83.438599,34.388195 c 0,2.684855 -2.176505,4.861359 -4.861359,4.861359 -2.684855,0 -4.861359,-2.176504 -4.861359,-4.861359 0,-2.684854 2.176504,-4.861359 4.861359,-4.861359 C 81.262094,29.526836 83.438599,31.703341 83.438599,34.388195 Z"
       sodipodi:ry="4.8613591"
       sodipodi:rx="4.8613591"
       sodipodi:cy="34.388195"
       sodipodi:cx="78.57724"
       id="path826"
       style="fill:#55ceff;fill-opacity:1;stroke:none"
       sodipodi:type="arc" />
    <path
       sodipodi:type="arc"
       style="fill:#55ceff;fill-opacity:1;stroke:none"
       id="path833"
       sodipodi:cx="78.57724"
       sodipodi:cy="34.388195"
       sodipodi:rx="4.8613591"
       sodipodi:ry="4.8613591"
       d="m 83.438599,34.388195 c 0,2.684855 -2.176505,4.861359 -4.861359,4.861359 -2.684855,0 -4.861359,-2.176504 -4.861359,-4.861359 0,-2.684854 2.176504,-4.861359 4.861359,-4.861359 C 81.262094,29.526836 83.438599,31.703341 83.438599,34.388195 Z"
       transform="matrix(2.8415361,0,0,2.8415361,-22.559583,609.06901)" />
    <path
       transform="matrix(2.8415361,0,0,2.8415361,-14.827531,621.15707)"
       d="m 83.438599,34.388195 c 0,2.684855 -2.176505,4.861359 -4.861359,4.861359 -2.684855,0 -4.861359,-2.176504 -4.861359,-4.861359 0,-2.684854 2.176504,-4.861359 4.861359,-4.861359 C 81.262094,29.526836 83.438599,31.703341 83.438599,34.388195 Z"
       sodipodi:ry="4.8613591"
       sodipodi:rx="4.8613591"
       sodipodi:cy="34.388195"
       sodipodi:cx="78.57724"
       id="path835"
       style="fill:#55ceff;fill-opacity:1;stroke:none"
       sodipodi:type="arc" />
    <path
       sodipodi:type="arc"
       style="fill:#55ceff;fill-opacity:1;stroke:none"
       id="path837"
       sodipodi:cx="78.57724"
       sodipodi:cy="34.388195"
       sodipodi:rx="4.8613591"
       sodipodi:ry="4.8613591"
       d="m 83.438599,34.388195 c 0,2.684855 -2.176505,4.861359 -4.861359,4.861359 -2.684855,0 -4.861359,-2.176504 -4.861359,-4.861359 0,-2.684854 2.176504,-4.861359 4.861359,-4.861359 C 81.262094,29.526836 83.438599,31.703341 83.438599,34.388195 Z"
       transform="matrix(2.8415361,0,0,2.8415361,-25.63952,618.79643)" />
    <path
       style="fill:#55ceff;fill-opacity:1;stroke:none"
       inkscape:transform-center-x="3.6090641"
       d="m 198.40243,715.9193 -8.68449,-12.50217 c 7.21813,-4.16739 3.87939,-10.25421 21.65438,-12.50217 C 233.76534,707.55346 202.72573,707.58452 198.40243,715.9193 Z"
       id="path839"
       inkscape:connector-curvature="0"
       sodipodi:nodetypes="cccc" />
    <path
       sodipodi:nodetypes="cccc"
       inkscape:connector-curvature="0"
       id="path842"
       d="m 204.51325,719.97239 -8.68449,-12.50217 c 7.21812,-4.16738 1.41211,-19.40529 21.65437,-12.50217 C 228.3076,711.22099 208.83654,711.63761 204.51325,719.97239 Z"
       style="fill:#55ceff;fill-opacity:1;stroke:none"
       inkscape:transform-center-x="3.6090652" />
    <path
       inkscape:transform-center-y="0.36658911"
       style="fill:#55ceff;fill-opacity:1;stroke:none"
       d="m 199.14297,708.10885 13.77207,6.48496 -12.50216,21.65438 C 166.57163,723.52661 199.56628,717.48863 199.14297,708.10885 Z"
       id="path844"
       inkscape:connector-curvature="0"
       sodipodi:nodetypes="cccc"
       inkscape:transform-center-x="-5.6161262" />
    <path
       inkscape:transform-center-x="-3.6090651"
       sodipodi:nodetypes="cccc"
       inkscape:connector-curvature="0"
       id="path846"
       d="m 203.85751,708.43679 8.68448,12.50217 C 205.61563,725.39812 214.70277,737.83106 190.88761,733.44113 Z"
       style="fill:#55ceff;fill-opacity:1;stroke:none" />
    <path
       style="fill:#55ceff;fill-opacity:1;stroke:none"
       d="m 209.20492,696.33674 -2.69952,14.98122 c -8.05077,-2.1572 -10.50631,44.51676 -24.15232,-6.4716 C 192.20992,687.51026 200.2543,699.17328 209.20492,696.33674 Z"
       id="path848"
       inkscape:connector-curvature="0"
       sodipodi:nodetypes="cccc"
       inkscape:transform-center-x="0.51843248"
       inkscape:transform-center-y="2.7173616" />
    <path
       inkscape:transform-center-y="1.8681863"
       inkscape:transform-center-x="-0.18975918"
       sodipodi:nodetypes="cccc"
       inkscape:connector-curvature="0"
       id="path850"
       d="m 211.49922,712.95698 -14.32388,5.15276 c -2.1572,-8.05077 -10.21022,-15.73305 -6.4716,-24.15232 C 220.31882,687.39229 204.56739,706.62379 211.49922,712.95698 Z"
       style="fill:#55ceff;fill-opacity:1;stroke:none" />
    <path
       sodipodi:nodetypes="cccc"
       inkscape:connector-curvature="0"
       id="path856"
       d="m 203.13041,706.70303 14.32389,-5.15276 6.47159,24.15232 C 187.84329,754.10224 210.06224,713.03622 203.13041,706.70303 Z"
       style="fill:#55ceff;fill-opacity:1;stroke:none"
       inkscape:transform-center-y="-1.8681886"
       inkscape:transform-center-x="0.18976293" />
    <path
       style="fill:#55ceff;fill-opacity:1;stroke:none"
       d="m 206.72051,706.43252 14.98123,2.69951 C 219.54453,717.18282 226.07172,725.79996 215.23014,733.28437 Z"
       id="path858"
       inkscape:connector-curvature="0"
       sodipodi:nodetypes="cccc"
       inkscape:transform-center-x="-2.7173634"
       inkscape:transform-center-y="0.51843659" />
    <path
       inkscape:transform-center-x="-3.6090564"
       sodipodi:nodetypes="cccc"
       inkscape:connector-curvature="0"
       id="path860"
       d="m 202.60704,692.19936 8.68448,12.50217 L 189.63714,717.20369 Z"
       style="fill:#55ceff;fill-opacity:1;stroke:none" />
    <path
       style="fill:#55ceff;fill-opacity:1;stroke:none"
       d="m 214.6148,700.96248 -6.48496,13.77207 c -7.21812,-4.16739 -28.18072,7.73926 -21.65438,-12.50217 C 196.04198,692.47177 205.23502,701.38578 214.6148,700.96248 Z"
       id="path862"
       inkscape:connector-curvature="0"
       sodipodi:nodetypes="cccc"
       inkscape:transform-center-x="0.36659124"
       inkscape:transform-center-y="5.6161342" />
    <path
       transform="matrix(3.5605601,2.0556903,-2.0556903,3.5605601,-5.3713318,430.12916)"
       d="m 83.438599,34.388195 c 0,2.684855 -2.176505,4.861359 -4.861359,4.861359 -2.684855,0 -4.861359,-2.176504 -4.861359,-4.861359 0,-2.684854 2.176504,-4.861359 4.861359,-4.861359 C 81.262094,29.526836 83.438599,31.703341 83.438599,34.388195 Z"
       sodipodi:ry="4.8613591"
       sodipodi:rx="4.8613591"
       sodipodi:cy="34.388195"
       sodipodi:cx="78.57724"
       id="path864"
       style="fill:#9a99ff;fill-opacity:0.61206863;stroke:none"
       sodipodi:type="arc" />
    <path
       sodipodi:type="arc"
       style="fill:#9a99ff;fill-opacity:0.61206863;stroke:none"
       id="path866"
       sodipodi:cx="78.57724"
       sodipodi:cy="34.388195"
       sodipodi:rx="4.8613591"
       sodipodi:ry="4.8613591"
       d="m 83.438599,34.388195 c 0,2.684855 -2.176505,4.861359 -4.861359,4.861359 -2.684855,0 -4.861359,-2.176504 -4.861359,-4.861359 0,-2.684854 2.176504,-4.861359 4.861359,-4.861359 C 81.262094,29.526836 83.438599,31.703341 83.438599,34.388195 Z"
       transform="matrix(2.4608424,1.4207681,-1.4207681,2.4608424,66.097107,515.57735)" />
    <path
       transform="matrix(2.4608424,1.4207681,-1.4207681,2.4608424,59.573551,510.34399)"
       d="m 83.438599,34.388195 c 0,2.684855 -2.176505,4.861359 -4.861359,4.861359 -2.684855,0 -4.861359,-2.176504 -4.861359,-4.861359 0,-2.684854 2.176504,-4.861359 4.861359,-4.861359 C 81.262094,29.526836 83.438599,31.703341 83.438599,34.388195 Z"
       sodipodi:ry="4.8613591"
       sodipodi:rx="4.8613591"
       sodipodi:cy="34.388195"
       sodipodi:cx="78.57724"
       id="path868"
       style="fill:#9a99ff;fill-opacity:0.61206863;stroke:none"
       sodipodi:type="arc" />
    <path
       sodipodi:type="arc"
       style="fill:#9a99ff;fill-opacity:0.61206863;stroke:none"
       id="path870"
       sodipodi:cx="78.57724"
       sodipodi:cy="34.388195"
       sodipodi:rx="4.8613591"
       sodipodi:ry="4.8613591"
       d="m 83.438599,34.388195 c 0,2.684855 -2.176505,4.861359 -4.861359,4.861359 -2.684855,0 -4.861359,-2.176504 -4.861359,-4.861359 0,-2.684854 2.176504,-4.861359 4.861359,-4.861359 C 81.262094,29.526836 83.438599,31.703341 83.438599,34.388195 Z"
       transform="matrix(2.4608424,1.4207681,-1.4207681,2.4608424,59.784758,524.07543)" />
    <path
       transform="matrix(2.4608424,1.4207681,-1.4207681,2.4608424,53.233441,516.89753)"
       d="m 83.438599,34.388195 c 0,2.684855 -2.176505,4.861359 -4.861359,4.861359 -2.684855,0 -4.861359,-2.176504 -4.861359,-4.861359 0,-2.684854 2.176504,-4.861359 4.861359,-4.861359 C 81.262094,29.526836 83.438599,31.703341 83.438599,34.388195 Z"
       sodipodi:ry="4.8613591"
       sodipodi:rx="4.8613591"
       sodipodi:cy="34.388195"
       sodipodi:cx="78.57724"
       id="path872"
       style="fill:#9a99ff;fill-opacity:0.61206863;stroke:none"
       sodipodi:type="arc" />
    <path
       sodipodi:nodetypes="cccc"
       inkscape:connector-curvature="0"
       id="path874"
       d="m 197.05049,712.78275 -1.2699,-15.16944 c 8.3348,4e-5 20.94058,-4.63235 25.00432,-10e-6 C 238.86629,737.01748 204.96196,707.72627 197.05049,712.78275 Z"
       style="fill:#9a99ff;fill-opacity:0.61206863;stroke:none"
       inkscape:transform-center-y="0.3665883" />
    <path
       inkscape:transform-center-y="-5.6161258"
       style="fill:#9a99ff;fill-opacity:0.61206863;stroke:none"
       d="m 198.6414,713.02038 6.48494,-13.77207 21.6544,12.50216 C 220.15763,748.0105 208.02117,712.59707 198.6414,713.02038 Z"
       id="path876"
       inkscape:connector-curvature="0"
       sodipodi:nodetypes="cccc"
       inkscape:transform-center-x="-0.36659545" />
    <path
       inkscape:transform-center-x="-3.6090667"
       sodipodi:nodetypes="cccc"
       inkscape:connector-curvature="0"
       id="path878"
       d="m 202.05368,706.96628 8.68449,12.50217 c -7.21813,4.16739 -9.1096,12.77366 -21.65439,12.50217 C 174.4087,709.23508 197.73038,715.30106 202.05368,706.96628 Z"
       style="fill:#9a99ff;fill-opacity:0.61206863;stroke:none" />
    <path
       style="fill:#9a99ff;fill-opacity:0.61206863;stroke:none"
       d="m 207.46199,709.45941 1.26989,15.16944 c -8.33477,0 -7.2489,12.48784 -25.00432,0 C 179.1286,693.93339 199.55052,714.5159 207.46199,709.45941 Z"
       id="path880"
       inkscape:connector-curvature="0"
       sodipodi:nodetypes="cccc"
       inkscape:transform-center-y="-0.36659297" />
    <path
       inkscape:transform-center-y="5.1039846"
       inkscape:transform-center-x="0.18976418"
       sodipodi:nodetypes="cccc"
       inkscape:connector-curvature="0"
       id="path882"
       d="m 216.65363,702.92469 -9.82846,11.62437 c -5.89358,-5.89358 -25.62653,4.02929 -17.68073,-17.68073 C 208.02923,688.79986 207.4839,700.90591 216.65363,702.92469 Z"
       style="fill:#9a99ff;fill-opacity:0.61206863;stroke:none" />
    <path
       style="fill:#9a99ff;fill-opacity:0.61206863;stroke:none"
       d="m 211.29695,717.66433 -14.98123,-2.6995 c 2.1572,-8.05078 -23.9671,-18.85556 6.47159,-24.15233 C 230.84112,699.03848 208.4604,708.71372 211.29695,717.66433 Z"
       id="path884"
       inkscape:connector-curvature="0"
       sodipodi:nodetypes="cccc"
       inkscape:transform-center-x="2.717363"
       inkscape:transform-center-y="-0.51843592" />
    <path
       inkscape:transform-center-x="-2.7173602"
       inkscape:transform-center-y="0.51843249"
       style="fill:#9a99ff;fill-opacity:0.61206863;stroke:none"
       d="m 204.96434,708.20959 14.98123,2.69952 -6.47158,24.15232 C 182.72722,735.81872 207.80088,717.1602 204.96434,708.20959 Z"
       id="path886"
       inkscape:connector-curvature="0"
       sodipodi:nodetypes="cccc" />
    <path
       inkscape:transform-center-y="0.18976349"
       inkscape:transform-center-x="-5.1039899"
       sodipodi:nodetypes="cccc"
       inkscape:connector-curvature="0"
       id="path888"
       d="m 209.45419,709.30331 11.62436,9.82845 c -5.89358,5.89358 2.74483,10.99451 -17.68073,17.68074 C 177.54494,722.9453 207.43539,718.47304 209.45419,709.30331 Z"
       style="fill:#9a99ff;fill-opacity:0.61206863;stroke:none" />
    <path
       style="fill:#9a99ff;fill-opacity:0.61206863;stroke:none"
       d="m 213.0084,694.92029 1.26989,15.16944 L 189.27396,710.08972 Z"
       id="path890"
       inkscape:connector-curvature="0"
       sodipodi:nodetypes="cccc"
       inkscape:transform-center-y="-0.36658978"
       inkscape:transform-center-x="1.0732664e-05" />
    <path
       inkscape:transform-center-y="3.6090622"
       sodipodi:nodetypes="cccc"
       inkscape:connector-curvature="0"
       id="path892"
       d="M 219.02586,708.51325 206.52369,717.19774 194.02152,695.54335 Z"
       style="fill:#9a99ff;fill-opacity:0.61206863;stroke:none" />
    <path
       transform="matrix(3.9712887,1.0641036,-1.0641036,3.9712887,-71.39191,493.23537)"
       d="m 83.438599,34.388195 c 0,2.684855 -2.176505,4.861359 -4.861359,4.861359 -2.684855,0 -4.861359,-2.176504 -4.861359,-4.861359 0,-2.684854 2.176504,-4.861359 4.861359,-4.861359 C 81.262094,29.526836 83.438599,31.703341 83.438599,34.388195 Z"
       sodipodi:ry="4.8613591"
       sodipodi:rx="4.8613591"
       sodipodi:cy="34.388195"
       sodipodi:cx="78.57724"
       id="path954"
       style="fill:#e978ff;fill-opacity:0.41810345;stroke:none"
       sodipodi:type="arc"
       inkscape:transform-center-x="-1.4107396"
       inkscape:transform-center-y="-0.94441548" />
    <path
       sodipodi:type="arc"
       style="fill:#e978ff;fill-opacity:0.41810345;stroke:none"
       id="path956"
       sodipodi:cx="78.57724"
       sodipodi:cy="34.388195"
       sodipodi:rx="4.8613591"
       sodipodi:ry="4.8613591"
       d="m 83.438599,34.388195 c 0,2.684855 -2.176505,4.861359 -4.861359,4.861359 -2.684855,0 -4.861359,-2.176504 -4.861359,-4.861359 0,-2.684854 2.176504,-4.861359 4.861359,-4.861359 C 81.262094,29.526836 83.438599,31.703341 83.438599,34.388195 Z"
       transform="matrix(2.7447131,0.73544367,-0.73544367,2.7447131,19.429039,557.52909)"
       inkscape:transform-center-x="-7.1527851"
       inkscape:transform-center-y="-4.6556066" />
    <path
       transform="matrix(2.7447131,0.73544367,-0.73544367,2.7447131,12.101157,553.90798)"
       d="m 83.438599,34.388195 c 0,2.684855 -2.176505,4.861359 -4.861359,4.861359 -2.684855,0 -4.861359,-2.176504 -4.861359,-4.861359 0,-2.684854 2.176504,-4.861359 4.861359,-4.861359 C 81.262094,29.526836 83.438599,31.703341 83.438599,34.388195 Z"
       sodipodi:ry="4.8613591"
       sodipodi:rx="4.8613591"
       sodipodi:cy="34.388195"
       sodipodi:cx="78.57724"
       id="path958"
       style="fill:#e978ff;fill-opacity:0.41810345;stroke:none"
       sodipodi:type="arc"
       inkscape:transform-center-x="0.17509697"
       inkscape:transform-center-y="-8.2767166" />
    <path
       sodipodi:type="arc"
       style="fill:#e978ff;fill-opacity:0.41810345;stroke:none"
       id="path960"
       sodipodi:cx="78.57724"
       sodipodi:cy="34.388195"
       sodipodi:rx="4.8613591"
       sodipodi:ry="4.8613591"
       d="m 83.438599,34.388195 c 0,2.684855 -2.176505,4.861359 -4.861359,4.861359 -2.684855,0 -4.861359,-2.176504 -4.861359,-4.861359 0,-2.684854 2.176504,-4.861359 4.861359,-4.861359 C 81.262094,29.526836 83.438599,31.703341 83.438599,34.388195 Z"
       transform="matrix(2.7447131,0.73544367,-0.73544367,2.7447131,16.441125,567.58535)"
       inkscape:transform-center-x="-4.1648711"
       inkscape:transform-center-y="5.4006534" />
    <path
       transform="matrix(2.7447131,0.73544367,-0.73544367,2.7447131,6.6085242,562.5068)"
       d="m 83.438599,34.388195 c 0,2.684855 -2.176505,4.861359 -4.861359,4.861359 -2.684855,0 -4.861359,-2.176504 -4.861359,-4.861359 0,-2.684854 2.176504,-4.861359 4.861359,-4.861359 C 81.262094,29.526836 83.438599,31.703341 83.438599,34.388195 Z"
       sodipodi:ry="4.8613591"
       sodipodi:rx="4.8613591"
       sodipodi:cy="34.388195"
       sodipodi:cx="78.57724"
       id="path962"
       style="fill:#e978ff;fill-opacity:0.41810345;stroke:none"
       sodipodi:type="arc"
       inkscape:transform-center-x="5.6677299"
       inkscape:transform-center-y="0.32210337" />
    <path
       sodipodi:nodetypes="cccc"
       inkscape:connector-curvature="0"
       id="path964"
       d="M 197.3907,716.37058 192.23792,702.0467 C 200.28869,699.8895 194.21488,686.74651 216.39025,695.57509 Z"
       inkscape:transform-center-x="-1.6564214"
       style="fill:#e978ff;fill-opacity:0.41810345;stroke:none"
       inkscape:transform-center-y="-8.3867231" />
    <path
       inkscape:transform-center-x="-6.9984827"
       style="fill:#e978ff;fill-opacity:0.41810345;stroke:none"
       d="m 202.73276,719.80318 -5.15277,-14.32388 c 9.23552,-0.41125 13.89346,-21.21354 27.70656,-1.23376 C 229.11985,726.72852 210.25069,714.6173 202.73276,719.80318 Z"
       id="path966"
       inkscape:connector-curvature="0"
       sodipodi:nodetypes="cccc"
       inkscape:transform-center-y="-4.9541205" />
    <path
       style="fill:#e978ff;fill-opacity:0.41810345;stroke:none"
       d="m 208.0797,692.48313 5.15277,14.32388 -24.15233,6.47159 C 195.41333,706.34678 186.43027,689.35653 208.0797,692.48313 Z"
       id="path980"
       inkscape:connector-curvature="0"
       sodipodi:nodetypes="cccc"
       inkscape:transform-center-x="1.5013585"
       inkscape:transform-center-y="-11.478695" />
    <path
       inkscape:transform-center-y="-7.5200676"
       inkscape:transform-center-x="-0.99797934"
       sodipodi:nodetypes="cccc"
       inkscape:connector-curvature="0"
       id="path982"
       d="m 217.41024,704.05549 -9.82847,11.62437 c -3.78592,7.63981 -42.39443,12.95949 -17.68072,-17.68073 C 213.60129,683.50597 208.2405,702.03671 217.41024,704.05549 Z"
       style="fill:#e978ff;fill-opacity:0.41810345;stroke:none" />
    <path
       sodipodi:type="arc"
       style="fill:#e978ff;fill-opacity:0.41810345;stroke:none"
       id="path984"
       sodipodi:cx="78.57724"
       sodipodi:cy="34.388195"
       sodipodi:rx="4.8613591"
       sodipodi:ry="4.8613591"
       d="m 83.438599,34.388195 c 0,2.684855 -2.176505,4.861359 -4.861359,4.861359 -2.684855,0 -4.861359,-2.176504 -4.861359,-4.861359 0,-2.684854 2.176504,-4.861359 4.861359,-4.861359 C 81.262094,29.526836 83.438599,31.703341 83.438599,34.388195 Z"
       transform="matrix(2.9071851,2.9071851,-2.9071851,2.9071851,75.016775,385.51399)"
       inkscape:transform-center-x="-0.82485453"
       inkscape:transform-center-y="-0.43414028" />
    <path
       transform="matrix(2.0092695,2.0092695,-2.0092695,2.0092695,121.93438,486.54801)"
       d="m 83.438599,34.388195 c 0,2.684855 -2.176505,4.861359 -4.861359,4.861359 -2.684855,0 -4.861359,-2.176504 -4.861359,-4.861359 0,-2.684854 2.176504,-4.861359 4.861359,-4.861359 C 81.262094,29.526836 83.438599,31.703341 83.438599,34.388195 Z"
       sodipodi:ry="4.8613591"
       sodipodi:rx="4.8613591"
       sodipodi:cy="34.388195"
       sodipodi:cx="78.57724"
       id="path986"
       style="fill:#e978ff;fill-opacity:0.41810345;stroke:none"
       sodipodi:type="arc"
       inkscape:transform-center-x="-8.0644167"
       inkscape:transform-center-y="-0.83354668" />
    <path
       sodipodi:type="arc"
       style="fill:#e978ff;fill-opacity:0.41810345;stroke:none"
       id="path988"
       sodipodi:cx="78.57724"
       sodipodi:cy="34.388195"
       sodipodi:rx="4.8613591"
       sodipodi:ry="4.8613591"
       d="m 83.438599,34.388195 c 0,2.684855 -2.176505,4.861359 -4.861359,4.861359 -2.684855,0 -4.861359,-2.176504 -4.861359,-4.861359 0,-2.684854 2.176504,-4.861359 4.861359,-4.861359 C 81.262094,29.526836 83.438599,31.703341 83.438599,34.388195 Z"
       transform="matrix(2.0092695,2.0092695,-2.0092695,2.0092695,116.9876,479.80454)"
       inkscape:transform-center-x="-3.1176367"
       inkscape:transform-center-y="-7.5770167" />
    <path
       transform="matrix(2.0092695,2.0092695,-2.0092695,2.0092695,113.63765,493.12276)"
       d="m 83.438599,34.388195 c 0,2.684855 -2.176505,4.861359 -4.861359,4.861359 -2.684855,0 -4.861359,-2.176504 -4.861359,-4.861359 0,-2.684854 2.176504,-4.861359 4.861359,-4.861359 C 81.262094,29.526836 83.438599,31.703341 83.438599,34.388195 Z"
       sodipodi:ry="4.8613591"
       sodipodi:rx="4.8613591"
       sodipodi:cy="34.388195"
       sodipodi:cx="78.57724"
       id="path990"
       style="fill:#e978ff;fill-opacity:0.41810345;stroke:none"
       sodipodi:type="arc"
       inkscape:transform-center-x="0.23231327"
       inkscape:transform-center-y="5.7412033" />
    <path
       sodipodi:type="arc"
       style="fill:#e978ff;fill-opacity:0.41810345;stroke:none"
       id="path992"
       sodipodi:cx="78.57724"
       sodipodi:cy="34.388195"
       sodipodi:rx="4.8613591"
       sodipodi:ry="4.8613591"
       d="m 83.438599,34.388195 c 0,2.684855 -2.176505,4.861359 -4.861359,4.861359 -2.684855,0 -4.861359,-2.176504 -4.861359,-4.861359 0,-2.684854 2.176504,-4.861359 4.861359,-4.861359 C 81.262094,29.526836 83.438599,31.703341 83.438599,34.388195 Z"
       transform="matrix(2.0092695,2.0092695,-2.0092695,2.0092695,109.16734,484.49384)"
       inkscape:transform-center-x="4.7026233"
       inkscape:transform-center-y="-2.8877167" />
    <path
       inkscape:transform-center-y="-9.0655251"
       inkscape:transform-center-x="-1.3388165"
       sodipodi:nodetypes="cccc"
       inkscape:connector-curvature="0"
       id="path1011"
       d="M 217.4224,697.80342 214.72289,712.78465 190.57056,706.31304 Z"
       style="fill:#e978ff;fill-opacity:0.41810345;stroke:none" />
    <path
       style="fill:#e978ff;fill-opacity:0.41810345;stroke:none"
       d="M 219.71671,712.49065 205.39283,717.64342 198.92124,693.49108 Z"
       id="path1013"
       inkscape:connector-curvature="0"
       sodipodi:nodetypes="cccc"
       inkscape:transform-center-y="-8.7923098"
       inkscape:transform-center-x="-6.6613114" />
  </g>
  <g
     inkscape:groupmode="layer"
     id="layer2"
     inkscape:label="Capa 2">
    <path
       sodipodi:type="arc"
       style="fill:#0e0b0f;fill-opacity:1;stroke:none"
       id="path840"
       sodipodi:cx="78.57724"
       sodipodi:cy="34.388195"
       sodipodi:rx="4.8613591"
       sodipodi:ry="4.8613591"
       d="m 83.438599,34.388195 a 4.8613591,4.8613591 0 1 1 -9.722718,0 A 4.8613591,4.8613591 0 1 1 83.438599,34.388195 Z"
       transform="matrix(3.9882443,0,0,3.9882443,-289.38521,-113.14851)" />
    <path
       style="fill:#390420;fill-opacity:1;stroke:none"
       d="m 23.993614,4.6181611 c 5.876619,0 11.109222,2.6415582 14.664779,6.7708229 -3.39473,-2.9230746 -7.779821,-4.7171101 -12.611066,-4.7171101 -10.707854,0 -19.381899,8.6740351 -19.381899,19.3818891 0,4.831245 1.7940358,9.216336 4.71712,12.611065 C 7.2532735,35.109262 4.6117253,29.876668 4.6117253,24.00005 4.6117253,13.292196 13.28576,4.6181611 23.993614,4.6181611 Z"
       id="path1000"
       inkscape:connector-curvature="0" />
  </g>
</svg>
