<svg xmlns="http://www.w3.org/2000/svg" width="48" height="48">
 <g transform="translate(-180.23661,-689.8125)">
  <g>
   <ellipse cx="204.22" cy="713.81" rx="20.01" ry="20" style="fill:#d580ff" fill-rule="evenodd"/>
   <ellipse ry="18" rx="18.01" cy="713.81" cx="204.22" style="fill:#0e0b0f" fill-rule="evenodd"/>
   <path transform="translate(180.23661,689.8125)" d="M 23.994141 9 C 20.066877 9.0002328 16.165567 10.617701 13.390625 13.394531 C 10.615683 16.171361 9 20.073326 9 24 C 9 27.926674 10.615683 31.828639 13.390625 34.605469 C 13.727695 34.942768 14.080882 35.262201 14.449219 35.564453 C 12.254541 32.89608 11 29.458456 11 26 C 11 22.073326 12.615683 18.171361 15.390625 15.394531 C 18.165567 12.617701 22.066877 11.000233 25.994141 11 C 29.448951 10.999795 32.884184 12.25198 35.552734 14.443359 C 35.252871 14.078626 34.93777 13.726635 34.603516 13.392578 C 31.825032 10.615734 27.921404 8.9997672 23.994141 9 z " style="fill:#ae95ff" fill-rule="evenodd"/>
  </g>
 </g>
</svg>
