<svg xmlns="http://www.w3.org/2000/svg" width="48" height="48">
 <rect width="40" height="40" x="4" y="4" style="fill:#9b59b6" rx="20"/>
 <path d="m 25.256741,12.245904 c 12.006203,2.008183 6.44472,3.676541 -2.914696,1.861956 -2.417578,-0.468714 -3.65387,-0.13805 -4.070333,0.430284 -1.84017,2.511223 4.539673,6.804468 7.506732,8.559462 -14.405727,-3.590091 -20.9844973,6.253848 -2.307023,10.305375 1.598095,0.34666 4.663233,0.471032 4.654689,0.930575 -0.0092,0.494008 -7.875314,0.535357 -12.028163,0.662498 2.833319,0.757425 9.644101,1.27338 14.073574,0.853817 4.304583,-0.407733 6.187205,-1.868699 0.755758,-3.203834 -2.801779,-0.68872 -13.784169,-2.771062 -12.626584,-4.990451 1.69013,-3.240416 8.99427,-2.459789 13.245472,-2.902678 -10.462592,-7.191318 -12.836336,-8.887607 1.362225,-7.034778 3.714582,0.824322 4.954892,-5.459236 -1.275647,-5.70761 -1.372531,-0.05471 -4.302384,0.116007 -6.376004,0.235384 z" style="fill:#ecf0f1"/>
</svg>
