<?xml version="1.0" encoding="UTF-8" standalone="no"?>
<!-- Created with Inkscape (http://www.inkscape.org/) -->

<svg
   xmlns:dc="http://purl.org/dc/elements/1.1/"
   xmlns:cc="http://creativecommons.org/ns#"
   xmlns:rdf="http://www.w3.org/1999/02/22-rdf-syntax-ns#"
   xmlns:svg="http://www.w3.org/2000/svg"
   xmlns="http://www.w3.org/2000/svg"
   xmlns:sodipodi="http://sodipodi.sourceforge.net/DTD/sodipodi-0.dtd"
   xmlns:inkscape="http://www.inkscape.org/namespaces/inkscape"
   width="48"
   height="48"
   id="svg2"
   version="1.1"
   inkscape:version="0.48+devel r12351"
   sodipodi:docname="empathy.svg">
  <defs
     id="defs4" />
  <sodipodi:namedview
     id="base"
     pagecolor="#ffffff"
     bordercolor="#666666"
     borderopacity="1.0"
     inkscape:pageopacity="0.0"
     inkscape:pageshadow="2"
     inkscape:zoom="2.8284271"
     inkscape:cx="-31.376753"
     inkscape:cy="17.260696"
     inkscape:document-units="px"
     inkscape:current-layer="layer1"
     showgrid="false"
     fit-margin-top="0"
     fit-margin-left="0"
     fit-margin-right="0"
     fit-margin-bottom="0"
     inkscape:window-width="1366"
     inkscape:window-height="714"
     inkscape:window-x="0"
     inkscape:window-y="30"
     inkscape:window-maximized="1" />
  <metadata
     id="metadata7">
    <rdf:RDF>
      <cc:Work
         rdf:about="">
        <dc:format>image/svg+xml</dc:format>
        <dc:type
           rdf:resource="http://purl.org/dc/dcmitype/StillImage" />
        <dc:title></dc:title>
      </cc:Work>
    </rdf:RDF>
  </metadata>
  <g
     inkscape:label="Capa 1"
     inkscape:groupmode="layer"
     id="layer1"
     transform="translate(-180.23661,-689.8125)">
    <g
       id="g886"
       transform="matrix(1.7236534,0,0,1.7236534,-277.1504,-424.27939)">
      <path
         inkscape:connector-curvature="0"
         id="path860"
         d="m 278.78295,647.8125 c -7.09341,0 -12.84375,4.47455 -12.84375,10 0,3.03857 1.72373,5.79013 4.46875,7.625 -0.26197,1.48366 -1.03892,2.83679 -2.96875,4.375 3.16466,0.82238 6.36377,-0.34461 8.28125,-2.28125 0.98279,0.18757 2.00548,0.3125 3.0625,0.3125 7.09341,0 12.84375,-4.5058 12.84375,-10.03125 C 291.6267,652.28705 285.87636,647.8125 278.78295,647.8125 Z"
         style="fill:#45c7d7;fill-opacity:1;stroke:none" />
      <path
         inkscape:connector-curvature="0"
         style="fill:#ededed;fill-opacity:1;stroke:none"
         d="m 284.78295,659.1467 c 4.33199,0 7.84375,2.73262 7.84375,6.10705 0,1.85567 -1.05268,3.53607 -2.7291,4.65663 0.16,0.90608 0.63447,1.73245 1.81305,2.67182 -1.93268,0.50223 -3.8864,-0.21045 -5.0574,-1.39315 -0.6002,0.11454 -1.22478,0.19085 -1.8703,0.19085 -4.33199,0 -7.84375,-2.75174 -7.84375,-6.12615 C 276.9392,661.87932 280.45096,659.1467 284.78295,659.1467 Z"
         id="path866" />
      <path
         inkscape:connector-curvature="0"
         id="path868"
         d="m 281.32983,664.406 c -0.56954,0 -1.03125,0.46171 -1.03125,1.03125 0,0.56954 0.46171,1.03125 1.03125,1.03125 0.56953,0 1.03125,-0.46171 1.03125,-1.03125 C 282.36108,664.86771 281.89936,664.406 281.32983,664.406 z m 3.4375,0 c -0.56954,0 -1.03125,0.46171 -1.03125,1.03125 0,0.56954 0.46171,1.03125 1.03125,1.03125 0.56953,0 1.03125,-0.46171 1.03125,-1.03125 C 285.79858,664.86771 285.33686,664.406 284.76733,664.406 z m 3.46875,0 c -0.56954,0 -1.03125,0.46171 -1.03125,1.03125 0,0.56954 0.46171,1.03125 1.03125,1.03125 0.56953,0 1.03125,-0.46171 1.03125,-1.03125 C 289.26733,664.86771 288.80561,664.406 288.23608,664.406 Z"
         style="fill:#45c7d7;fill-opacity:1;stroke:none" />
      <path
         inkscape:connector-curvature="0"
         id="path878"
         d="m 277.58036,650.8125 c -4.40102,0 -7.96875,2.50441 -7.96875,5.59375 0,0.15031 0.0147,0.29018 0.0312,0.4375 0.40808,-2.82068 3.81154,-5.03125 7.9375,-5.03125 0.28988,0 0.56179,0.01 0.84375,0.0312 l 0.25005,-0.9687 C 278.31384,650.84001 277.95434,650.8125 277.58036,650.8125 Z"
         style="fill:#d9f4f7;fill-opacity:1;stroke:none" />
    </g>
  </g>
</svg>
