<svg xmlns="http://www.w3.org/2000/svg" width="48" height="48" viewBox="0 0 13.546666 13.546668">
 <g transform="translate(38.119153,-397.84494)">
  <g transform="matrix(0.28222225,0,0,0.28222225,-61.793671,386.44873)">
   <path d="m -13.87544,27.499989 a 12.499974,12.499974 0 1 1 -24.999948,0 12.499974,12.499974 0 1 1 24.999948,0 z" transform="matrix(1.6000033,0,0,1.6000033,150.08682,20.380195)" style="fill:#34495f" fill-opacity="0.941"/>
   <g transform="translate(1.0000015,0.09788678)">
    <path d="m 106.73203,53.186882 c -0.9029,0.0042 -1.76517,0.08199 -2.5239,0.217554 -2.23507,0.39871 -2.6409,1.233243 -2.6409,2.772253 l 0,2.03258 5.2818,0 0,0.67753 -5.2818,0 -1.982197,0 c -1.53503,0 -2.879152,0.93163 -3.299575,2.70389 -0.484953,2.03141 -0.506464,3.29911 0,5.42021 0.375448,1.5789 1.272065,2.7039 2.807095,2.7039 l 1.815997,0 0,-2.4366 c 0,-1.7603 1.50838,-3.3131 3.29958,-3.3131 l 5.2756,0 c 1.4686,0 2.6409,-1.22088 2.6409,-2.71007 l 0,-5.07834 c 0,-1.44531 -1.2075,-2.531035 -2.6409,-2.772253 -0.9073,-0.152507 -1.8487,-0.221791 -2.7517,-0.217554 z m -2.85632,1.634767 c 0.54559,0 0.9911,0.45721 0.9911,1.01939 0,0.56019 -0.44551,1.01318 -0.9911,1.01318 -0.54754,0 -0.99111,-0.45299 -0.99111,-1.01318 0,-0.56218 0.44357,-1.01939 0.99111,-1.01939 z" style="fill:#1abc9f" fill-opacity="0.941"/>
    <path d="m 112.82033,58.845999 0,2.35078 c 0,1.82252 -1.54472,3.35648 -3.30626,3.35648 l -5.28637,0 c -1.44803,0 -2.64627,1.23963 -2.64627,2.69013 l 0,5.04091 c 0,1.4347 1.24723,2.2785 2.64627,2.6901 1.67533,0.4928 3.28187,0.5818 5.28637,0 1.33241,-0.3859 2.64626,-1.1624 2.64626,-2.6901 l 0,-2.0176 -5.28636,0 0,-0.6725 5.28636,0 2.6463,0 c 1.5381,0 2.1113,-1.0732 2.6462,-2.68399 0.5526,-1.65828 0.5291,-3.25298 0,-5.38025 -0.3801,-1.53164 -1.1061,-2.68396 -2.6462,-2.68396 z m -2.97316,12.7658 c 0.54864,0 0.99312,0.4496 0.99312,1.0057 0,0.558 -0.44448,1.0119 -0.99312,1.0119 -0.54668,0 -0.99312,-0.4539 -0.99312,-1.0119 0,-0.5561 0.44644,-1.0057 0.99312,-1.0057 z" style="fill:#1abc9f" fill-opacity="0.941"/>
   </g>
  </g>
 </g>
</svg>
