<?xml version="1.0" encoding="UTF-8" standalone="no"?>
<!-- Created with Inkscape (http://www.inkscape.org/) -->

<svg
   xmlns:dc="http://purl.org/dc/elements/1.1/"
   xmlns:cc="http://creativecommons.org/ns#"
   xmlns:rdf="http://www.w3.org/1999/02/22-rdf-syntax-ns#"
   xmlns:svg="http://www.w3.org/2000/svg"
   xmlns="http://www.w3.org/2000/svg"
   xmlns:sodipodi="http://sodipodi.sourceforge.net/DTD/sodipodi-0.dtd"
   xmlns:inkscape="http://www.inkscape.org/namespaces/inkscape"
   width="48"
   height="48"
   id="svg2"
   version="1.1"
   inkscape:version="0.48+devel r12691"
   viewBox="0 0 13.546666 13.546667"
   sodipodi:docname="eStudio.svg">
  <defs
     id="defs4" />
  <sodipodi:namedview
     id="base"
     pagecolor="#ffffff"
     bordercolor="#666666"
     borderopacity="1.0"
     inkscape:pageopacity="0.0"
     inkscape:pageshadow="2"
     inkscape:zoom="8.1002711"
     inkscape:cx="37.024592"
     inkscape:cy="33.365065"
     inkscape:document-units="px"
     inkscape:current-layer="layer1"
     showgrid="false"
     units="px"
     inkscape:showpageshadow="false"
     borderlayer="true">
    <sodipodi:guide
       position="8.9999997,38.999975"
       orientation="30.000028,0"
       id="guide3274" />
    <sodipodi:guide
       position="8.9999997,8.9999467"
       orientation="0,29.999999"
       id="guide3276" />
    <sodipodi:guide
       position="38.999999,8.9999467"
       orientation="-30.000028,0"
       id="guide3278" />
    <sodipodi:guide
       position="38.999999,38.999975"
       orientation="0,-29.999999"
       id="guide3280" />
    <sodipodi:guide
       position="3.999999,44.000052"
       orientation="39.999965,0"
       id="guide3370" />
    <sodipodi:guide
       position="3.999999,4.0000862"
       orientation="0,40.000003"
       id="guide3372" />
    <sodipodi:guide
       position="44.000002,4.0000862"
       orientation="-39.999965,0"
       id="guide3374" />
    <sodipodi:guide
       position="44.000002,44.000052"
       orientation="0,-40.000003"
       id="guide3376" />
  </sodipodi:namedview>
  <metadata
     id="metadata7">
    <rdf:RDF>
      <cc:Work
         rdf:about="">
        <dc:format>image/svg+xml</dc:format>
        <dc:type
           rdf:resource="http://purl.org/dc/dcmitype/StillImage" />
        <dc:title></dc:title>
      </cc:Work>
    </rdf:RDF>
  </metadata>
  <g
     inkscape:label="Capa 1"
     inkscape:groupmode="layer"
     id="layer1"
     transform="translate(0,-283.45334)">
    <rect
       style="fill:none;fill-opacity:1;fill-rule:evenodd;stroke:none"
       id="rect3262"
       width="1.128889"
       height="1.128889"
       x="-5e-07"
       y="289.66223"
       ry="0.56444448" />
    <rect
       ry="0.56444448"
       y="289.66223"
       x="12.417777"
       height="1.128889"
       width="1.128889"
       id="rect3264"
       style="fill:none;fill-opacity:1;fill-rule:evenodd;stroke:none" />
    <rect
       ry="0.56444448"
       y="-7.3377771"
       x="283.45334"
       height="1.128889"
       width="1.128889"
       id="rect3266"
       style="fill:none;fill-opacity:1;fill-rule:evenodd;stroke:none"
       transform="matrix(0,1,-1,0,0,0)" />
    <rect
       style="fill:none;fill-opacity:1;fill-rule:evenodd;stroke:none"
       id="rect3268"
       width="1.128889"
       height="1.128889"
       x="295.87112"
       y="-7.3377771"
       ry="0.56444448"
       transform="matrix(0,1,-1,0,0,0)" />
    <rect
       style="fill:#ffaaaa;fill-opacity:1;fill-rule:evenodd;stroke:none"
       id="rect3270"
       width="8.4666672"
       height="8.4666672"
       x="2.5399995"
       y="285.99335"
       ry="0" />
    <rect
       ry="0"
       y="284.58221"
       x="1.1288881"
       height="11.28889"
       width="11.28889"
       id="rect3282"
       style="fill:#3498db;fill-opacity:1;fill-rule:evenodd;stroke:none" />
    <path
       style="fill:#ecf0f1;fill-opacity:1;fill-rule:evenodd;stroke:none"
       d="M 5.9003906 4 L 5.9003906 5.9003906 L 4 5.9003906 L 4 6.0996094 L 5.9003906 6.0996094 L 5.9003906 11.900391 L 4 11.900391 L 4 12.099609 L 5.9003906 12.099609 L 5.9003906 17.900391 L 4 17.900391 L 4 18.099609 L 5.9003906 18.099609 L 5.9003906 23.900391 L 4 23.900391 L 4 24.099609 L 5.9003906 24.099609 L 5.9003906 29.900391 L 4 29.900391 L 4 30.099609 L 5.9003906 30.099609 L 5.9003906 35.900391 L 4 35.900391 L 4 36.099609 L 5.9003906 36.099609 L 5.9003906 41.900391 L 4 41.900391 L 4 42.099609 L 5.9003906 42.099609 L 5.9003906 44 L 6.0996094 44 L 6.0996094 42.099609 L 11.900391 42.099609 L 11.900391 44 L 12.099609 44 L 12.099609 42.099609 L 17.900391 42.099609 L 17.900391 44 L 18.099609 44 L 18.099609 42.099609 L 23.900391 42.099609 L 23.900391 44 L 24.099609 44 L 24.099609 42.099609 L 29.900391 42.099609 L 29.900391 44 L 30.099609 44 L 30.099609 42.099609 L 35.900391 42.099609 L 35.900391 44 L 36.099609 44 L 36.099609 42.099609 L 41.900391 42.099609 L 41.900391 44 L 42.099609 44 L 42.099609 42.099609 L 44 42.099609 L 44 41.900391 L 42.099609 41.900391 L 42.099609 36.099609 L 44 36.099609 L 44 35.900391 L 42.099609 35.900391 L 42.099609 30.099609 L 44 30.099609 L 44 29.900391 L 42.099609 29.900391 L 42.099609 24.099609 L 44 24.099609 L 44 23.900391 L 42.099609 23.900391 L 42.099609 18.099609 L 44 18.099609 L 44 17.900391 L 42.099609 17.900391 L 42.099609 12.099609 L 44 12.099609 L 44 11.900391 L 42.099609 11.900391 L 42.099609 6.0996094 L 44 6.0996094 L 44 5.9003906 L 42.099609 5.9003906 L 42.099609 4 L 41.900391 4 L 41.900391 5.9003906 L 36.099609 5.9003906 L 36.099609 4 L 35.900391 4 L 35.900391 5.9003906 L 30.099609 5.9003906 L 30.099609 4 L 29.900391 4 L 29.900391 5.9003906 L 24.099609 5.9003906 L 24.099609 4 L 23.900391 4 L 23.900391 5.9003906 L 18.099609 5.9003906 L 18.099609 4 L 17.900391 4 L 17.900391 5.9003906 L 12.099609 5.9003906 L 12.099609 4 L 11.900391 4 L 11.900391 5.9003906 L 6.0996094 5.9003906 L 6.0996094 4 L 5.9003906 4 z M 6.0996094 6.0996094 L 11.900391 6.0996094 L 11.900391 11.900391 L 6.0996094 11.900391 L 6.0996094 6.0996094 z M 12.099609 6.0996094 L 17.900391 6.0996094 L 17.900391 11.900391 L 12.099609 11.900391 L 12.099609 6.0996094 z M 18.099609 6.0996094 L 23.900391 6.0996094 L 23.900391 11.900391 L 18.099609 11.900391 L 18.099609 6.0996094 z M 24.099609 6.0996094 L 29.900391 6.0996094 L 29.900391 11.900391 L 24.099609 11.900391 L 24.099609 6.0996094 z M 30.099609 6.0996094 L 35.900391 6.0996094 L 35.900391 11.900391 L 30.099609 11.900391 L 30.099609 6.0996094 z M 36.099609 6.0996094 L 41.900391 6.0996094 L 41.900391 11.900391 L 36.099609 11.900391 L 36.099609 6.0996094 z M 6.0996094 12.099609 L 11.900391 12.099609 L 11.900391 17.900391 L 6.0996094 17.900391 L 6.0996094 12.099609 z M 12.099609 12.099609 L 17.900391 12.099609 L 17.900391 17.900391 L 12.099609 17.900391 L 12.099609 12.099609 z M 18.099609 12.099609 L 23.900391 12.099609 L 23.900391 17.900391 L 18.099609 17.900391 L 18.099609 12.099609 z M 24.099609 12.099609 L 29.900391 12.099609 L 29.900391 17.900391 L 24.099609 17.900391 L 24.099609 12.099609 z M 30.099609 12.099609 L 35.900391 12.099609 L 35.900391 17.900391 L 30.099609 17.900391 L 30.099609 12.099609 z M 36.099609 12.099609 L 41.900391 12.099609 L 41.900391 17.900391 L 36.099609 17.900391 L 36.099609 12.099609 z M 6.0996094 18.099609 L 11.900391 18.099609 L 11.900391 23.900391 L 6.0996094 23.900391 L 6.0996094 18.099609 z M 12.099609 18.099609 L 17.900391 18.099609 L 17.900391 23.900391 L 12.099609 23.900391 L 12.099609 18.099609 z M 18.099609 18.099609 L 23.900391 18.099609 L 23.900391 23.900391 L 18.099609 23.900391 L 18.099609 18.099609 z M 24.099609 18.099609 L 29.900391 18.099609 L 29.900391 23.900391 L 24.099609 23.900391 L 24.099609 18.099609 z M 30.099609 18.099609 L 35.900391 18.099609 L 35.900391 23.900391 L 30.099609 23.900391 L 30.099609 18.099609 z M 36.099609 18.099609 L 41.900391 18.099609 L 41.900391 23.900391 L 36.099609 23.900391 L 36.099609 18.099609 z M 6.0996094 24.099609 L 11.900391 24.099609 L 11.900391 29.900391 L 6.0996094 29.900391 L 6.0996094 24.099609 z M 12.099609 24.099609 L 17.900391 24.099609 L 17.900391 29.900391 L 12.099609 29.900391 L 12.099609 24.099609 z M 18.099609 24.099609 L 23.900391 24.099609 L 23.900391 29.900391 L 18.099609 29.900391 L 18.099609 24.099609 z M 24.099609 24.099609 L 29.900391 24.099609 L 29.900391 29.900391 L 24.099609 29.900391 L 24.099609 24.099609 z M 30.099609 24.099609 L 35.900391 24.099609 L 35.900391 29.900391 L 30.099609 29.900391 L 30.099609 24.099609 z M 36.099609 24.099609 L 41.900391 24.099609 L 41.900391 29.900391 L 36.099609 29.900391 L 36.099609 24.099609 z M 6.0996094 30.099609 L 11.900391 30.099609 L 11.900391 35.900391 L 6.0996094 35.900391 L 6.0996094 30.099609 z M 12.099609 30.099609 L 17.900391 30.099609 L 17.900391 35.900391 L 12.099609 35.900391 L 12.099609 30.099609 z M 18.099609 30.099609 L 23.900391 30.099609 L 23.900391 35.900391 L 18.099609 35.900391 L 18.099609 30.099609 z M 24.099609 30.099609 L 29.900391 30.099609 L 29.900391 35.900391 L 24.099609 35.900391 L 24.099609 30.099609 z M 30.099609 30.099609 L 35.900391 30.099609 L 35.900391 35.900391 L 30.099609 35.900391 L 30.099609 30.099609 z M 36.099609 30.099609 L 41.900391 30.099609 L 41.900391 35.900391 L 36.099609 35.900391 L 36.099609 30.099609 z M 6.0996094 36.099609 L 11.900391 36.099609 L 11.900391 41.900391 L 6.0996094 41.900391 L 6.0996094 36.099609 z M 12.099609 36.099609 L 17.900391 36.099609 L 17.900391 41.900391 L 12.099609 41.900391 L 12.099609 36.099609 z M 18.099609 36.099609 L 23.900391 36.099609 L 23.900391 41.900391 L 18.099609 41.900391 L 18.099609 36.099609 z M 24.099609 36.099609 L 29.900391 36.099609 L 29.900391 41.900391 L 24.099609 41.900391 L 24.099609 36.099609 z M 30.099609 36.099609 L 35.900391 36.099609 L 35.900391 41.900391 L 30.099609 41.900391 L 30.099609 36.099609 z M 36.099609 36.099609 L 41.900391 36.099609 L 41.900391 41.900391 L 36.099609 41.900391 L 36.099609 36.099609 z "
       transform="matrix(0.28222223,0,0,0.28222223,-5e-7,283.45334)"
       id="rect3299" />
    <rect
       style="fill:none;stroke:none"
       id="rect3265"
       width="8.4666672"
       height="8.4666672"
       x="2.5399995"
       y="285.99335" />
    <rect
       y="291.35556"
       x="2.5399995"
       height="3.1044445"
       width="3.1044445"
       id="rect4147"
       style="fill:none;stroke:none" />
    <rect
       y="285.99335"
       x="5.9266663"
       height="5.0799999"
       width="5.0799999"
       id="rect4149"
       style="fill:none;stroke:none" />
    <path
       inkscape:connector-curvature="0"
       id="path4151"
       d="m 4.0073681,291.35569 c -0.098572,0 -0.1972007,0.0102 -0.2941831,0.0287 l -0.1554804,0.37743 0,0.006 c -0.056392,0.0223 -0.1116564,0.0468 -0.1641098,0.077 -0.052149,0.0301 -0.1009861,0.0654 -0.1479703,0.10293 l -0.00495,-0.003 -0.4050808,-0.054 c -0.1290801,0.14927 -0.2304287,0.32198 -0.2954612,0.50819 l 0.2505588,0.32537 0.00415,0.003 c -0.017343,0.11949 -0.016782,0.24135 9.876e-4,0.36088 l -0.00511,0.003 -0.2507194,0.32579 c 0.03189,0.0931 0.072195,0.18329 0.1214443,0.26866 0.049248,0.0853 0.1072444,0.16536 0.1719397,0.23954 l 0.4073178,-0.0544 0.00511,-0.003 c 0.094624,0.0751 0.1997805,0.13634 0.31192,0.18107 l 0,0.005 0.1564398,0.37955 c 0.1937376,0.0367 0.3939519,0.0352 0.5877263,-0.003 l 0.1558001,-0.37777 0,-0.005 c 0.056034,-0.0217 0.1109981,-0.0466 0.163151,-0.0767 0.052454,-0.0303 0.1016877,-0.0657 0.148929,-0.10357 l 0.00496,0.003 0.4046016,0.054 c 0.1291593,-0.14941 0.2303798,-0.32229 0.2954612,-0.50866 l -0.2502394,-0.32474 -0.00415,-0.003 c 0.017372,-0.11938 0.016864,-0.24124 -8.184e-4,-0.36068 l 0.00512,-0.003 0.2503992,-0.3255 c -0.031866,-0.0931 -0.07187,-0.18348 -0.121125,-0.26878 -0.049254,-0.0854 -0.1075296,-0.16524 -0.172259,-0.23941 l -0.4069983,0.0542 -0.00512,0.003 c -0.094585,-0.075 -0.1998293,-0.13643 -0.3119204,-0.18106 l -1.638e-4,-0.005 -0.1561201,-0.37906 c -0.096971,-0.0183 -0.1954511,-0.0274 -0.2940229,-0.0271 z m -1.64e-4,0.65152 c 0.2356268,0 0.469921,0.0971 0.6366239,0.26367 0.1667027,0.16662 0.2638218,0.40073 0.2638218,0.63635 0,0.23567 -0.097119,0.46991 -0.2638218,0.63654 -0.1667029,0.16661 -0.4009971,0.26349 -0.6366239,0.26349 -0.2356269,0 -0.4696542,-0.0971 -0.6361446,-0.26363 -0.1664902,-0.16663 -0.2633427,-0.40079 -0.2633427,-0.6364 0,-0.23559 0.096852,-0.46973 0.2633427,-0.63635 0.1664904,-0.16658 0.4005177,-0.26364 0.6361446,-0.26367 z"
       style="fill:#ffffff;fill-opacity:1;fill-rule:evenodd;stroke:none" />
    <path
       style="fill:#ffffff;fill-opacity:1;fill-rule:evenodd;stroke:none"
       d="m 8.6041378,285.99335 c -0.1613504,0 -0.3227942,0.0164 -0.4815424,0.0468 l -0.2545034,0.6178 0,0.01 c -0.092305,0.036 -0.1827678,0.0765 -0.2686279,0.12609 -0.085363,0.0493 -0.1653021,0.10693 -0.2422097,0.16842 l -0.00811,-0.005 -0.6630687,-0.0884 c -0.2112889,0.24427 -0.3771844,0.52701 -0.483635,0.83177 l 0.410135,0.53254 0.0068,0.004 c -0.028391,0.19557 -0.027469,0.39504 0.00158,0.59066 l -0.00837,0.005 -0.4103966,0.53305 c 0.0522,0.15243 0.1181762,0.30005 0.1987899,0.43971 0.080614,0.13961 0.1755459,0.27069 0.2814447,0.39209 l 0.6667307,-0.089 0.00837,-0.005 c 0.1548882,0.12295 0.3270166,0.22314 0.510576,0.29634 l 0,0.008 0.2560728,0.62125 c 0.3171255,0.0602 0.6448521,0.0577 0.9620383,-0.003 l 0.2550261,-0.61833 0,-0.009 c 0.09172,-0.0358 0.1816901,-0.0763 0.2670585,-0.12553 0.085861,-0.0496 0.166451,-0.10757 0.2437791,-0.16952 l 0.00811,0.005 0.6622838,0.0884 c 0.211419,-0.24455 0.377105,-0.52749 0.483635,-0.83256 l -0.409612,-0.5315 -0.0068,-0.004 c 0.02844,-0.19543 0.0276,-0.3949 -0.0013,-0.59035 l 0.0084,-0.005 0.409874,-0.5328 c -0.05216,-0.15244 -0.117643,-0.3003 -0.198267,-0.43993 -0.08062,-0.13969 -0.176013,-0.27044 -0.281968,-0.39184 l -0.6662067,0.0887 -0.00837,0.005 c -0.154825,-0.12279 -0.3270965,-0.22328 -0.5105763,-0.29635 l -2.684e-4,-0.008 -0.2555495,-0.62043 c -0.1587307,-0.0301 -0.3199304,-0.0448 -0.4812806,-0.0442 z m -2.686e-4,1.06638 c 0.3856932,0 0.7692046,0.15891 1.0420771,0.43163 0.2728727,0.27266 0.4318447,0.65584 0.4318447,1.04151 0,0.38571 -0.158972,0.76914 -0.4318447,1.04183 -0.2728725,0.27271 -0.6563839,0.43133 -1.0420771,0.4313 -0.3856933,0 -0.7687679,-0.15885 -1.0412926,-0.43155 -0.2725248,-0.27269 -0.4310602,-0.65593 -0.4310602,-1.04158 0,-0.38561 0.1585354,-0.76885 0.4310602,-1.04151 0.2725247,-0.27272 0.6555993,-0.4316 1.0412926,-0.43163 z"
       id="path4112"
       inkscape:connector-curvature="0" />
    <rect
       style="fill:none;stroke:none"
       id="rect3389"
       width="3.1044445"
       height="3.1044445"
       x="7.9022222"
       y="291.35556" />
    <g
       id="layer1-2"
       transform="matrix(0.03233795,0,0,0.03233795,7.3848156,260.94618)"
       style="fill:#ffffff">
      <path
         style="fill:#ffffff;fill-opacity:1;stroke:none"
         id="path2993"
         inkscape:connector-curvature="0"
         d="m 64,940.36218 c -26.509667,0 -48,21.49034 -48,48 0,26.50972 21.490333,48.00002 48,48.00002 26.509664,0 48,-21.4903 48,-48.00002 0,-26.50966 -21.490336,-48 -48,-48 z m 0,4 c 20.15479,0 37.14462,13.55176 42.355,32.04 -4.4877,9.25637 -10.873381,17.59038 -18.650002,24.32502 -3.735795,3.2352 -7.814534,6.1193 -12.32,8.15 -4.505465,2.0307 -9.461145,3.1829 -14.394998,2.9 -3.706902,-0.2126 -7.368725,-1.2452 -10.615,-3.045 8.603218,-4.6618 16.365742,-10.87737 22.720002,-18.32002 4.170803,-4.88521 7.819942,-10.43709 9.224998,-16.705 0.702528,-3.13395 0.821581,-6.4161 0.164998,-9.56 -0.656582,-3.1439 -2.110188,-6.1399 -4.309996,-8.48 -2.149082,-2.28613 -4.97033,-3.90553 -7.995002,-4.74 -3.024672,-0.83446 -6.24345,-0.89907 -9.33,-0.335 -6.173101,1.12814 -11.684554,4.71584 -16.105,9.17 -7.79168,7.8511 -12.608581,18.92915 -11.725,29.955 0.441789,5.51292 2.289248,10.93012 5.455,15.46502 0.706642,1.0122 1.483501,1.9764 2.315,2.89 -4.611828,1.614 -9.386995,2.7629 -14.23,3.41 -4.15805,-6.7188 -6.56,-14.638 -6.56,-23.12002 0,-24.30053 19.69947,-44 44,-44 z m 0.28,8.89 c 3.093024,0.004 6.207066,0.94057 8.675002,2.805 2.223488,1.67977 3.871027,4.06951 4.804998,6.695 0.933971,2.62549 1.173658,5.47662 0.855002,8.245 -0.637319,5.53677 -3.430458,10.61442 -6.804999,15.05 -5.975053,7.85375 -13.917093,14.13972 -22.750003,18.54002 -0.904118,0.4504 -1.822565,0.8785 -2.745,1.29 -1.921973,-1.6819 -3.569314,-3.6768 -4.825,-5.90002 -2.623798,-4.64556 -3.489056,-10.16402 -2.98,-15.475 0.509056,-5.31097 2.331648,-10.42962 4.78,-15.17 2.838755,-5.49625 6.70822,-10.70239 12.125,-13.69 2.70839,-1.4938 5.771973,-2.39419 8.865,-2.39 z m 43.325,29.22 c 0.25778,1.9268 0.395,3.89265 0.395,5.89 0,24.30052 -19.699469,44.00002 -44,44.00002 -13.647425,0 -25.844438,-6.2128 -33.915,-15.965 4.98138,-1.1314 9.850072,-2.7565 14.52,-4.825 2.042194,1.5553 4.297558,2.8309 6.695,3.75 6.904163,2.6469 14.742694,2.2639 21.730003,-0.155 6.987303,-2.4189 13.183469,-6.7606 18.584999,-11.81 6.434617,-6.01522 11.859848,-13.10515 15.989998,-20.88502 z" />
    </g>
  </g>
</svg>
