<svg xmlns="http://www.w3.org/2000/svg" width="48" height="48">
 <rect y="4" x="7" height="40" width="34" style="fill:#ecf0f1" rx="0"/>
 <rect width="8" height="40" x="7" y="4" style="fill:#34495e" rx="0"/>
 <path d="M 33,4 41,4 41,15 37,12.00002 33,15 Z" style="fill:#c0392b"/>
 <g transform="matrix(0.94114043,0,0,0.84702639,7.4293084,4.2613794)" style="fill:#c0392b">
  <path d="m 33.227802,21.037403 q 0,0.292969 -0.429687,1.035156 -1.015625,1.464844 -2.285156,2.929688 -1.25,1.464844 -2.675782,2.792969 -1.40625,1.308593 -2.949218,2.460937 -1.523438,1.132813 -3.085938,1.972656 -1.5625,0.820313 -3.125,1.269532 -1.542969,0.449218 -2.988281,0.429687 -3.125,0 -4.863281,-1.816406 -1.7187505,-1.816406 -1.7187505,-5.488281 0,-3.066407 0.9375005,-5.957032 0.957031,-2.890625 3.242187,-5.566406 0.429688,-0.46875 0.957031,-0.898437 0.546875,-0.429688 1.132813,-0.761719 0.605469,-0.332031 1.230469,-0.527344 0.644531,-0.195312 1.289062,-0.234375 0.15625,0 0.429688,0.03906 0.273437,0.03906 0.585937,0.136718 0.3125,0.09766 0.605469,0.253907 0.292969,0.136718 0.46875,0.351562 0.546875,0.625 0.859375,1.289063 0.332031,0.664062 0.371094,1.464843 0.03906,0.898438 -0.214844,1.777344 -0.234375,0.859375 -0.820313,1.777344 -0.566406,0.898437 -1.503906,1.875 -0.9375,0.957031 -2.265625,2.070312 -0.839844,0.703125 -1.875,1.5625 -1.015625,0.839844 -2.460937,1.777344 0,1.894531 1.132812,2.890625 1.152344,0.976563 3.144531,0.976563 1.113282,0 2.246094,-0.292969 1.132813,-0.292969 2.226563,-0.761719 1.09375,-0.488281 2.109375,-1.09375 1.035156,-0.625 1.933593,-1.269531 1.660157,-1.210938 3.007813,-2.402344 1.347656,-1.210937 2.675781,-2.539062 l 1.054688,-1.054688 q 0.957031,-0.839844 1.386718,-0.839844 0.234375,0 0.234375,0.371094 z M 18.305927,17.150684 q -0.01953,-0.292968 -0.09766,-0.566406 -0.05859,-0.292969 -0.195312,-0.507812 -0.136719,-0.214844 -0.3125,-0.332032 -0.175782,-0.136718 -0.410157,-0.136718 -1.035156,0.05859 -2.070312,1.269531 -1.035156,1.191406 -1.953125,3.164062 -0.214844,0.429688 -0.390625,0.976563 -0.15625,0.527344 -0.3125,1.09375 -0.136719,0.546875 -0.253906,1.09375 -0.09766,0.546875 -0.175782,0.976562 1.015625,-0.761718 1.875,-1.40625 0.859375,-0.644531 1.601563,-1.328125 0.46875,-0.429687 0.957031,-0.917968 0.488281,-0.507813 0.878906,-1.054688 0.410157,-0.546875 0.644532,-1.132812 0.234375,-0.585938 0.214843,-1.191407 z"/>
 </g>
</svg>
