<?xml version="1.0" encoding="UTF-8" standalone="no"?>
<!-- Created with Inkscape (http://www.inkscape.org/) -->

<svg
   xmlns:dc="http://purl.org/dc/elements/1.1/"
   xmlns:cc="http://creativecommons.org/ns#"
   xmlns:rdf="http://www.w3.org/1999/02/22-rdf-syntax-ns#"
   xmlns:svg="http://www.w3.org/2000/svg"
   xmlns="http://www.w3.org/2000/svg"
   xmlns:sodipodi="http://sodipodi.sourceforge.net/DTD/sodipodi-0.dtd"
   xmlns:inkscape="http://www.inkscape.org/namespaces/inkscape"
   width="48"
   height="48"
   id="svg2"
   version="1.1"
   inkscape:version="0.48+devel r12396"
   sodipodi:docname="evolution-tasks.svg">
  <defs
     id="defs4" />
  <sodipodi:namedview
     id="base"
     pagecolor="#ffffff"
     bordercolor="#666666"
     borderopacity="1.0"
     inkscape:pageopacity="0.0"
     inkscape:pageshadow="2"
     inkscape:zoom="2"
     inkscape:cx="16.450182"
     inkscape:cy="-17.443641"
     inkscape:document-units="px"
     inkscape:current-layer="layer1"
     showgrid="false"
     fit-margin-top="0"
     fit-margin-left="0"
     fit-margin-right="0"
     fit-margin-bottom="0"
     inkscape:window-width="1366"
     inkscape:window-height="714"
     inkscape:window-x="0"
     inkscape:window-y="30"
     inkscape:window-maximized="1" />
  <metadata
     id="metadata7">
    <rdf:RDF>
      <cc:Work
         rdf:about="">
        <dc:format>image/svg+xml</dc:format>
        <dc:type
           rdf:resource="http://purl.org/dc/dcmitype/StillImage" />
        <dc:title></dc:title>
      </cc:Work>
    </rdf:RDF>
  </metadata>
  <g
     inkscape:label="Capa 1"
     inkscape:groupmode="layer"
     id="layer1"
     transform="translate(-180.23661,-689.8125)">
    <rect
       y="690.8125"
       x="184.06071"
       height="46"
       width="40.351776"
       id="rect865"
       style="fill:#e9c496;fill-opacity:1;stroke:none" />
    <rect
       style="fill:#f6d47b;fill-opacity:1;stroke:none"
       id="rect853"
       width="39.819214"
       height="45.5"
       x="184.327"
       y="691.04608" />
    <path
       sodipodi:nodetypes="ccccc"
       inkscape:connector-curvature="0"
       id="path4149"
       d="m 184.327,691.04608 39.81921,0 0,43.5 L 184.327,736.54608 Z"
       style="fill:#f9e2a4;fill-opacity:1;stroke:none" />
    <path
       style="fill:#fcefcf;fill-opacity:1;stroke:none"
       d="m 184.327,691.04608 39.81921,0 0,39.5 L 184.327,736.54608 Z"
       id="rect4146"
       inkscape:connector-curvature="0"
       sodipodi:nodetypes="ccccc" />
    <rect
       y="192.15619"
       x="-693.5625"
       height="0.5"
       width="1.4999998"
       id="rect895"
       style="fill:#b18060;fill-opacity:1;stroke:none"
       transform="matrix(0,-1,1,0,0,0)" />
    <path
       sodipodi:type="arc"
       style="fill:#b28138;fill-opacity:1;stroke:none"
       id="path4088"
       sodipodi:cx="7.9991455"
       sodipodi:cy="13.661127"
       sodipodi:rx="1.5467961"
       sodipodi:ry="1.5467961"
       d="m 9.5459416,13.661127 a 1.5467961,1.5467961 0 1 1 -3.0935922,0 A 1.5467961,1.5467961 0 1 1 9.5459416,13.661127 Z"
       transform="translate(180.23661,691.256)" />
    <path
       transform="translate(180.23661,709.04677)"
       d="m 9.5459416,13.661127 a 1.5467961,1.5467961 0 1 1 -3.0935922,0 A 1.5467961,1.5467961 0 1 1 9.5459416,13.661127 Z"
       sodipodi:ry="1.5467961"
       sodipodi:rx="1.5467961"
       sodipodi:cy="13.661127"
       sodipodi:cx="7.9991455"
       id="path4094"
       style="fill:#b28138;fill-opacity:1;stroke:none"
       sodipodi:type="arc" />
    <rect
       transform="matrix(0,-1,1,0,0,0)"
       style="fill:#b18060;fill-opacity:1;stroke:none"
       id="rect4098"
       width="1.4999998"
       height="0.5"
       x="-697.38068"
       y="192.15619" />
    <rect
       y="192.15619"
       x="-701.19885"
       height="0.5"
       width="1.4999998"
       id="rect4100"
       style="fill:#b18060;fill-opacity:1;stroke:none"
       transform="matrix(0,-1,1,0,0,0)" />
    <rect
       transform="matrix(0,-1,1,0,0,0)"
       style="fill:#b18060;fill-opacity:1;stroke:none"
       id="rect4102"
       width="1.4999998"
       height="0.5"
       x="-705.01703"
       y="192.15619" />
    <rect
       y="192.15619"
       x="-708.83521"
       height="0.5"
       width="1.4999998"
       id="rect4104"
       style="fill:#b18060;fill-opacity:1;stroke:none"
       transform="matrix(0,-1,1,0,0,0)" />
    <rect
       transform="matrix(0,-1,1,0,0,0)"
       style="fill:#b18060;fill-opacity:1;stroke:none"
       id="rect4106"
       width="1.4999998"
       height="0.5"
       x="-712.65338"
       y="192.15619" />
    <rect
       y="192.15619"
       x="-716.47162"
       height="0.5"
       width="1.4999998"
       id="rect4108"
       style="fill:#b18060;fill-opacity:1;stroke:none"
       transform="matrix(0,-1,1,0,0,0)" />
    <rect
       transform="matrix(0,-1,1,0,0,0)"
       style="fill:#b18060;fill-opacity:1;stroke:none"
       id="rect4110"
       width="1.4999998"
       height="0.5"
       x="-720.28979"
       y="192.15619" />
    <rect
       y="192.15619"
       x="-724.10797"
       height="0.5"
       width="1.4999998"
       id="rect4112"
       style="fill:#b18060;fill-opacity:1;stroke:none"
       transform="matrix(0,-1,1,0,0,0)" />
    <rect
       transform="matrix(0,-1,1,0,0,0)"
       style="fill:#b18060;fill-opacity:1;stroke:none"
       id="rect4114"
       width="1.4999998"
       height="0.5"
       x="-727.92615"
       y="192.15619" />
    <rect
       y="192.15619"
       x="-731.74432"
       height="0.5"
       width="1.4999998"
       id="rect4116"
       style="fill:#b18060;fill-opacity:1;stroke:none"
       transform="matrix(0,-1,1,0,0,0)" />
    <rect
       transform="matrix(0,-1,1,0,0,0)"
       style="fill:#b18060;fill-opacity:1;stroke:none"
       id="rect4118"
       width="1.4999998"
       height="0.5"
       x="-735.5625"
       y="192.15619" />
    <path
       id="path868"
       d="m 201.48663,711.56242 5.25,5.25009 8.24995,-10.50001 2.25001,2.24999 -10.49996,12.75001 -7.5,-7.50007 L 201.48663,711.56242 Z"
       inkscape:connector-curvature="0"
       style="fill:#b18060;fill-opacity:1;stroke-width:0.2;stroke-linejoin:round" />
  </g>
</svg>
