<svg xmlns="http://www.w3.org/2000/svg" width="48" height="48">
 <g transform="translate(-180.23661,-689.8125)">
  <g>
   <rect y="693.81" x="184.24" height="40" width="40" style="fill:#fcefcf"/>
   <circle r="1" cy="706.81" cx="186.74" style="fill:#b28138"/>
   <g transform="translate(3.1999928,0)">
    <rect width="2.4" height="5.237" x="-362.37" y="645.69" transform="matrix(0.70710678,-0.70710678,0.70710678,0.70710678,0,0)" style="fill:#b28138" fill-rule="evenodd"/>
    <g>
     <path d="m 203.03309,704.81251 c -2.35636,1.4e-4 -4.69714,0.97062 -6.36211,2.63672 -1.66496,1.66609 -2.63437,4.00727 -2.63437,6.36328 0,2.356 0.96941,4.69718 2.63437,6.36328 1.66497,1.66609 4.00575,2.63657 6.36211,2.63671 2.35636,1.4e-4 4.69853,-0.96944 6.36562,-2.63554 1.66709,-1.66611 2.63789,-4.00819 2.63789,-6.36445 l -2.4,0 c 0,1.72792 -0.71223,3.44576 -1.93476,4.66757 -1.22253,1.22181 -2.94075,1.93253 -4.66875,1.93242 -1.728,-10e-5 -3.44426,-0.71178 -4.66523,-1.93359 -1.22098,-1.2218 -1.93125,-2.93867 -1.93125,-4.6664 0,-1.72774 0.71027,-3.4446 1.93125,-4.66641 1.22097,-1.2218 2.93723,-1.93349 4.66523,-1.93359 0.001,0 0.002,0 0.004,0 l 0,-2.4 c -0.001,0 -0.002,0 -0.004,0 z" style="fill:#b28138" fill-rule="evenodd"/>
     <path d="m 212.73973,704.81251 -10.19999,10.2 1.69687,1.69687 10.19999,-10.2 -1.69687,-1.69687 z" style="fill:#b28138" fill-rule="evenodd"/>
    </g>
   </g>
   <circle cx="186.74" cy="720.81" r="1" style="fill:#b28138"/>
   <rect y="190.99" x="-697.81" height="0.5" width="2" transform="matrix(0,-1,1,0,0,0)" style="fill:#b18060"/>
   <rect transform="matrix(0,-1,1,0,0,0)" width="2" height="0.5" x="-701.81" y="190.99" style="fill:#b18060"/>
   <rect transform="matrix(0,-1,1,0,0,0)" width="2" height="0.5" x="-705.81" y="190.99" style="fill:#b18060"/>
   <rect y="190.99" x="-709.81" height="0.5" width="2" transform="matrix(0,-1,1,0,0,0)" style="fill:#b18060"/>
   <rect transform="matrix(0,-1,1,0,0,0)" width="2" height="0.5" x="-713.81" y="190.99" style="fill:#b18060"/>
   <rect y="190.99" x="-717.81" height="0.5" width="2" transform="matrix(0,-1,1,0,0,0)" style="fill:#b18060"/>
   <rect y="190.99" x="-721.81" height="0.5" width="2" transform="matrix(0,-1,1,0,0,0)" style="fill:#b18060"/>
   <rect transform="matrix(0,-1,1,0,0,0)" width="2" height="0.5" x="-725.81" y="190.99" style="fill:#b18060"/>
   <rect y="190.99" x="-729.81" height="0.5" width="2" transform="matrix(0,-1,1,0,0,0)" style="fill:#b18060"/>
   <rect transform="matrix(0,-1,1,0,0,0)" width="2" height="0.5" x="-733.81" y="190.99" style="fill:#b18060"/>
  </g>
 </g>
</svg>
