<svg xmlns="http://www.w3.org/2000/svg" width="48" height="48">
 <g transform="translate(-180.23661,-689.8125)">
  <g>
   <path d="M 9 4 L 9 8 L 9 14 L 13 14 L 13 8 L 35 8 L 35 14 L 39 14 L 39 8 L 39 4 L 9 4 z " transform="translate(180.23661,689.8125)" style="fill:#222222" fill-rule="evenodd"/>
   <rect width="44" height="30" x="182.24" y="703.81" style="fill:#c74640" fill-rule="evenodd"/>
   <rect y="703.81" x="182.24" height="11" width="44" style="fill:#cc524c" fill-rule="evenodd"/>
   <rect width="4" height="7" x="202.24" y="712.81" style="fill:#ad2824" fill-rule="evenodd"/>
   <rect y="714.81" x="200.74" height="7" width="7" style="fill:#dedfe2" fill-rule="evenodd"/>
   <path d="m 201.73661,715.8125 0,5 5,0 0,-5 -5,0 z m 0.71429,0.71429 3.57142,0 0,3.57142 -3.57142,0 0,-3.57142 z" style="fill:#c0c0c0" fill-rule="evenodd"/>
  </g>
 </g>
</svg>
