<svg xmlns="http://www.w3.org/2000/svg" width="48" height="48">
 <g transform="translate(0,-1004.3622)">
  <g>
   <path transform="translate(0,1004.3622)" d="M 24 4 A 20 20 0 0 0 4 24 A 20 20 0 0 0 24 44 A 20 20 0 0 0 44 24 A 20 20 0 0 0 24 4 z " style="fill:#ffce7b"/>
   <circle cx="33.4" cy="1031.36" r="9.25" style="fill:#ff9f30"/>
   <path transform="translate(0,1004.3622)" d="M 17.25 19.96875 C 11.810118 19.96875 7.452767 22.213373 4.0449219 25.232422 A 20 20 0 0 0 24 44 A 20 20 0 0 0 42.0625 32.53125 C 32.059917 23.311365 23.857678 19.96875 17.25 19.96875 z " style="fill:#869fcb"/>
  </g>
 </g>
</svg>
