<svg xmlns="http://www.w3.org/2000/svg" width="48" height="48">
 <g transform="translate(0,-1004.3622)">
  <g transform="translate(-366.57144,504.57145)">
   <rect transform="matrix(0.70710678,-0.70710678,0.70710678,0.70710678,0,0)" y="640.77" x="-97.61" height="8.728" width="4" style="fill:#ff8080" fill-rule="evenodd"/>
   <g>
    <rect y="1008.36" x="4" height="40" width="40" transform="translate(366.57144,-504.57145)" style="fill:#2c3e50" rx="0"/>
    <path d="M 23.994141,9 C 20.066877,9.0002328 16.165567,10.617701 13.390625,13.394531 10.615683,16.171361 9,20.073326 9,24 c 0,3.926674 1.615683,7.828639 4.390625,10.605469 2.774942,2.77683 6.676252,4.394298 10.603516,4.394531 3.927263,2.33e-4 7.830892,-1.615734 10.609375,-4.392578 C 37.381999,31.830578 39,27.927112 39,24 l -4,0 c 0,2.879882 -1.187055,5.742944 -3.224609,7.779297 C 29.737836,33.81565 26.874134,35.000171 23.994141,35 21.114147,34.999829 18.253707,33.813686 16.21875,31.777344 14.183793,29.741001 13,26.879561 13,24 13,21.120439 14.183793,18.258999 16.21875,16.222656 18.253707,14.186314 21.114147,13.000171 23.994141,13 c 0.002,0 0.0039,-10e-7 0.0059,0 l 0,-4 c -0.002,-7e-7 -0.0039,-10e-8 -0.0059,0 z" transform="translate(364.57143,499.79075)" style="fill:#2ecc71" fill-rule="evenodd"/>
    <path transform="translate(366.57144,499.79075)" d="M 38.171875 9 L 24 23.171875 L 20.328125 19.5 L 17.5 22.328125 L 21.171875 26 L 23.671875 28.5 L 24 28.828125 L 41 11.828125 L 38.171875 9 z " style="fill:#ecf0f1" fill-rule="evenodd"/>
   </g>
  </g>
 </g>
</svg>
