<svg xmlns="http://www.w3.org/2000/svg" width="48" height="48">
 <rect width="40" height="40" x="4" y="4" style="fill:#f1c40f" rx="20"/>
 <path d="m 23.375004,11.5 c 3.45,0 6.25,2.800001 6.25,6.25 0,0.881615 -0.217067,1.700091 -0.546874,2.460938 1.086493,0.917416 1.796875,2.256787 1.796875,3.789062 0,1.878821 -1.044682,3.481622 -2.578125,4.335937 0.04032,0.220218 0.07812,0.432252 0.07812,0.664064 0,0.591533 -0.146346,1.142891 -0.390626,1.640625 0.974116,0.529388 1.640625,1.548436 1.640625,2.734374 0,1.725 -1.4,3.125 -3.124999,3.125 -1.725,0 -3.125,-1.4 -3.125,-3.125 0,-0.286307 0.04497,-0.556826 0.117187,-0.820312 -1.50805,-0.485827 -2.617186,-1.885749 -2.617186,-3.554687 0,-0.866052 0.287577,-1.669645 0.781249,-2.304688 C 21.16332,25.920681 20.875001,24.985557 20.875001,24 c 0,-0.173255 0.0609,-0.339081 0.07812,-0.507812 C 18.710151,22.542969 17.124995,20.3375 17.124995,17.75 c 0,-3.449999 2.8,-6.25 6.249999,-6.25 z" style="fill:#ecf0f1" color="#000000"/>
</svg>
