<?xml version="1.0" encoding="UTF-8" standalone="no"?>
<!-- Created using Karbon, part of Calligra: http://www.calligra.org/karbon -->

<svg
   xmlns:dc="http://purl.org/dc/elements/1.1/"
   xmlns:cc="http://creativecommons.org/ns#"
   xmlns:rdf="http://www.w3.org/1999/02/22-rdf-syntax-ns#"
   xmlns:svg="http://www.w3.org/2000/svg"
   xmlns="http://www.w3.org/2000/svg"
   xmlns:sodipodi="http://sodipodi.sourceforge.net/DTD/sodipodi-0.dtd"
   xmlns:inkscape="http://www.inkscape.org/namespaces/inkscape"
   width="38.4pt"
   height="38.4pt"
   id="svg2"
   version="1.1"
   inkscape:version="0.48.4 r9939"
   sodipodi:docname="geogebra.svg">
  <metadata
     id="metadata16">
    <rdf:RDF>
      <cc:Work
         rdf:about="">
        <dc:format>image/svg+xml</dc:format>
        <dc:type
           rdf:resource="http://purl.org/dc/dcmitype/StillImage" />
        <dc:title />
      </cc:Work>
    </rdf:RDF>
  </metadata>
  <sodipodi:namedview
     pagecolor="#ffffff"
     bordercolor="#666666"
     borderopacity="1"
     objecttolerance="10"
     gridtolerance="10"
     guidetolerance="10"
     inkscape:pageopacity="0"
     inkscape:pageshadow="2"
     inkscape:window-width="1440"
     inkscape:window-height="836"
     id="namedview14"
     showgrid="false"
     inkscape:showpageshadow="false"
     borderlayer="true"
     inkscape:zoom="6.9532167"
     inkscape:cx="34.429095"
     inkscape:cy="11.330213"
     inkscape:window-x="0"
     inkscape:window-y="26"
     inkscape:window-maximized="1"
     inkscape:current-layer="svg2">
    <sodipodi:guide
       position="9.5367432e-07,48.000001"
       orientation="47.999999,0"
       id="guide4074" />
    <sodipodi:guide
       position="9.5367432e-07,1.9073486e-06"
       orientation="0,47.999999"
       id="guide4076" />
    <sodipodi:guide
       position="48,1.9073486e-06"
       orientation="-47.999999,0"
       id="guide4078" />
    <sodipodi:guide
       position="48,48.000001"
       orientation="0,-47.999999"
       id="guide4080" />
    <sodipodi:guide
       position="4.000001,44.000001"
       orientation="39.999999,0"
       id="guide4082" />
    <sodipodi:guide
       position="4.000001,4.0000019"
       orientation="0,39.999999"
       id="guide4084" />
    <sodipodi:guide
       position="44,4.0000019"
       orientation="-39.999999,0"
       id="guide4086" />
    <sodipodi:guide
       position="44,44.000001"
       orientation="0,-39.999999"
       id="guide4088" />
    <sodipodi:guide
       position="11.000001,37.000001"
       orientation="25.999999,0"
       id="guide4121" />
    <sodipodi:guide
       position="11.000001,11.000002"
       orientation="0,25.999999"
       id="guide4123" />
    <sodipodi:guide
       position="37,11.000002"
       orientation="-25.999999,0"
       id="guide4125" />
    <sodipodi:guide
       position="37,37.000001"
       orientation="0,-25.999999"
       id="guide4127" />
  </sodipodi:namedview>
  <defs
     id="defs4" />
  <path
     style="font-size:medium;font-style:normal;font-variant:normal;font-weight:normal;font-stretch:normal;text-indent:0;text-align:start;text-decoration:none;line-height:normal;letter-spacing:normal;word-spacing:normal;text-transform:none;direction:ltr;block-progression:tb;writing-mode:lr-tb;text-anchor:start;baseline-shift:baseline;color:#000000;fill:#7f8c8d;fill-opacity:1;stroke:none;stroke-width:2.64358997;marker:none;visibility:visible;display:inline;overflow:visible;enable-background:accumulate;font-family:Sans;-inkscape-font-specification:Sans"
     d="m 25.728518,5.9211882 c -10.462492,0 -19.7359148,8.1028798 -20.6899516,18.0783508 -0.954037,9.975471 6.7694946,18.078351 17.2319866,18.078351 10.462491,0 19.735914,-8.10288 20.689952,-18.078351 C 43.914541,14.024068 36.191009,5.9211882 25.728518,5.9211882 z m -0.294707,3.0814706 c 8.696319,0 15.087766,6.7053682 14.29478,14.9968802 -0.792987,8.291513 -8.467014,14.99688 -17.163332,14.99688 -8.696318,0 -15.087765,-6.705367 -14.2947791,-14.99688 C 9.0634661,15.708027 16.737493,9.0026588 25.433811,9.0026588 z"
     id="path3810"
     inkscape:connector-curvature="0"
     sodipodi:nodetypes="ssssssssss" />
  <path
     sodipodi:type="arc"
     style="fill:#3498db;fill-opacity:1;stroke:none"
     id="path3816"
     sodipodi:cx="-11.79661"
     sodipodi:cy="10.983051"
     sodipodi:rx="3.9661016"
     sodipodi:ry="3.9661016"
     d="m -7.8305082,10.983051 a 3.9661016,3.9661016 0 1 1 -7.9322038,0 3.9661016,3.9661016 0 1 1 7.9322038,0 z"
     transform="matrix(1.1346154,0,0,1.1346154,52.874182,2.4318753)" />
  <path
     sodipodi:type="arc"
     style="fill:#3498db;fill-opacity:1;stroke:none"
     id="path3816-5"
     sodipodi:cx="-11.79661"
     sodipodi:cy="10.983051"
     sodipodi:rx="3.9661016"
     sodipodi:ry="3.9661016"
     d="m -7.8305082,10.983051 a 3.9661016,3.9661016 0 1 1 -7.9322038,0 3.9661016,3.9661016 0 1 1 7.9322038,0 z"
     transform="matrix(1.1346154,0,0,1.1346154,21.938576,5.4988395)" />
  <path
     sodipodi:type="arc"
     style="fill:#3498db;fill-opacity:1;stroke:none"
     id="path3816-6"
     sodipodi:cx="-11.79661"
     sodipodi:cy="10.983051"
     sodipodi:rx="3.9661016"
     sodipodi:ry="3.9661016"
     d="m -7.8305082,10.983051 a 3.9661016,3.9661016 0 1 1 -7.9322038,0 3.9661016,3.9661016 0 1 1 7.9322038,0 z"
     transform="matrix(1.1346154,0,0,1.1346154,26.830901,24.981755)" />
  <path
     sodipodi:type="arc"
     style="fill:#3498db;fill-opacity:1;stroke:none"
     id="path3816-8"
     sodipodi:cx="-11.79661"
     sodipodi:cy="10.983051"
     sodipodi:rx="3.9661016"
     sodipodi:ry="3.9661016"
     d="m -7.8305082,10.983051 a 3.9661016,3.9661016 0 1 1 -7.9322038,0 3.9661016,3.9661016 0 1 1 7.9322038,0 z"
     transform="matrix(1.1346154,0,0,1.1346154,49.074548,23.218793)" />
  <path
     sodipodi:type="arc"
     style="fill:#3498db;fill-opacity:1;stroke:none"
     id="path3816-7"
     sodipodi:cx="-11.79661"
     sodipodi:cy="10.983051"
     sodipodi:rx="3.9661016"
     sodipodi:ry="3.9661016"
     d="m -7.8305082,10.983051 a 3.9661016,3.9661016 0 1 1 -7.9322038,0 3.9661016,3.9661016 0 1 1 7.9322038,0 z"
     transform="matrix(1.1346154,0,0,1.1346154,35.494664,-4.7328544)" />
</svg>
