<svg xmlns="http://www.w3.org/2000/svg" width="48" height="48">
 <g transform="translate(-180.23661,-689.8125)">
  <g>
   <rect width="40" height="40" x="184.24" y="693.81" style="fill:#fdb87e" fill-rule="evenodd" rx="0"/>
   <rect y="698.81" x="189.24" height="30" width="30" style="fill:#ecf0f1" fill-rule="evenodd" rx="0"/>
   <rect width="26" height="26" x="191.24" y="700.81" style="fill:#5acffb" fill-rule="evenodd" rx="0"/>
   <path transform="matrix(1.4551953,0.37519897,-0.38991856,1.4002619,184.18782,-353.28991)" d="m 208.89973,715.38334 -11.54088,3.09237 3.09237,-11.54088 z" style="fill:#46b969" fill-rule="evenodd"/>
   <path d="m 208.89973,715.38334 -11.54088,3.09237 3.09237,-11.54088 z" transform="matrix(1.212663,0.2751458,-0.32493202,1.0268574,196.36263,-65.262965)" style="fill:#82ca9c" fill-rule="evenodd"/>
   <rect width="7" height="7" x="208.24" y="702.81" style="fill:#ffec96" fill-rule="evenodd" rx="3.5"/>
   <rect transform="matrix(0.70710678,-0.70710678,0.70710678,0.70710678,0,0)" y="659.51" x="-361.82" height="9.362" width="3" style="fill:#d6d6d6" fill-rule="evenodd" rx="0"/>
   <path d="m 206.2366,715.8125 c 0,0 4.99288,0.0431 6.36396,1.41421 1.37108,1.37108 1.37108,3.57867 0,4.94975 -1.37108,1.37108 -3.57867,1.37108 -4.94975,0 -1.37108,-1.37108 -1.41421,-6.36396 -1.41421,-6.36396 z" style="fill:#877875" fill-rule="evenodd"/>
   <rect transform="matrix(0.70710678,-0.70710678,0.70710678,0.70710678,0,0)" width="4" height="9.362" x="-362.32" y="666.08" style="fill:#37baa8" fill-rule="evenodd" rx="0"/>
  </g>
 </g>
</svg>
