<svg xmlns="http://www.w3.org/2000/svg" width="48" height="48">
 <path d="M 4.000001,24 24,3.9999999 44,24 24,44 Z" style="fill:#e74c3c"/>
 <path d="M 18.707031 9.2929688 L 17.292969 10.707031 L 20.929688 14.345703 C 20.663631 14.839799 20.5 15.397362 20.5 16 C 20.5 17.588802 21.554696 18.909443 23 19.339844 L 23 28.660156 C 21.554696 29.090557 20.5 30.411198 20.5 32 C 20.5 33.939 22.061 35.5 24 35.5 C 25.939 35.5 27.5 33.939 27.5 32 C 27.5 30.411198 26.445304 29.090557 25 28.660156 L 25 19.339844 C 25.22964 19.271459 25.447324 19.181762 25.654297 19.070312 L 28.929688 22.345703 C 28.663631 22.839799 28.5 23.397362 28.5 24 C 28.5 25.939 30.061 27.5 32 27.5 C 33.939 27.5 35.5 25.939 35.5 24 C 35.5 22.061 33.939 20.5 32 20.5 C 31.397362 20.5 30.839799 20.663631 30.345703 20.929688 L 27.070312 17.654297 C 27.336369 17.160201 27.5 16.602638 27.5 16 C 27.5 14.061 25.939 12.5 24 12.5 C 23.397362 12.5 22.839799 12.663631 22.345703 12.929688 L 18.707031 9.2929688 z " style="fill:#ecf0f1"/>
</svg>
