<?xml version="1.0" standalone="no"?>
<!DOCTYPE svg PUBLIC "-//W3C//DTD SVG 20010904//EN" "http://www.w3.org/TR/2001/REC-SVG-20010904/DTD/svg10.dtd">
<!-- Created using Karbon, part of Calligra: http://www.calligra.org/karbon -->
<svg xmlns="http://www.w3.org/2000/svg" xmlns:xlink="http://www.w3.org/1999/xlink" width="38.4pt" height="38.4pt">
<defs/>
<g id="layer1">
  <rect id="shape0" transform="matrix(0.707107 -0.707107 0.707107 0.707107 1.77391 23.4651)" fill="#de6143" fill-rule="evenodd" stroke="#003bc3" stroke-width="0.00000000000" stroke-linecap="square" stroke-linejoin="miter" stroke-miterlimit="2.01260185242" width="24.54072263780pt" height="25.76462217276pt"/>
  <g id="content" transform="translate(15.494, 6.9639)" fill="none">
   <path id="shape01" transform="translate(0.441941, 0.442004)" fill="#f2f2f2" stroke="#ff281e" stroke-width="0.00000000000" stroke-linecap="butt" stroke-linejoin="miter" stroke-miterlimit="2.00000000000" d="M1.8945 0L6.7837 4.88926C7.9206 4.50612 9.2241 4.76294 10.1297 5.66855C11.0408 6.58105 11.2953 7.89515 10.9015 9.03585L15.6154 13.7484C16.756 13.3559 18.0701 13.609 18.9831 14.5215C20.2556 15.7941 20.2556 17.8569 18.9831 19.1294C17.7087 20.4021 15.6464 20.4021 14.372 19.1294C13.4155 18.1712 13.1791 16.7649 13.6649 15.5844L9.269 11.1903L9.269 22.7568C9.5781 22.9106 9.871 23.115 10.1297 23.3732C11.4022 24.6457 11.4022 26.7067 10.1297 27.9808C8.8572 29.2532 6.7929 29.2532 5.5223 27.9808C4.2498 26.7067 4.2498 24.6457 5.5223 23.3732C5.8365 23.059 6.202 22.8203 6.5884 22.661L6.5884 10.9881C6.202 10.8289 5.8365 10.5938 5.5223 10.2778C4.5589 9.31445 4.3275 7.89885 4.8208 6.71475L0 1.89397Z"/>
  </g>
 </g>
</svg>
