<?xml version="1.0" encoding="UTF-8" standalone="no"?>
<!-- Created with Inkscape (http://www.inkscape.org/) -->

<svg
   xmlns:dc="http://purl.org/dc/elements/1.1/"
   xmlns:cc="http://creativecommons.org/ns#"
   xmlns:rdf="http://www.w3.org/1999/02/22-rdf-syntax-ns#"
   xmlns:svg="http://www.w3.org/2000/svg"
   xmlns="http://www.w3.org/2000/svg"
   xmlns:sodipodi="http://sodipodi.sourceforge.net/DTD/sodipodi-0.dtd"
   xmlns:inkscape="http://www.inkscape.org/namespaces/inkscape"
   width="48"
   height="48"
   id="svg2"
   version="1.1"
   inkscape:version="0.48.4 r9939"
   viewBox="0 0 13.546666 13.546668"
   sodipodi:docname="giteye.svg">
  <defs
     id="defs4" />
  <sodipodi:namedview
     id="base"
     pagecolor="#ffffff"
     bordercolor="#666666"
     borderopacity="1.0"
     inkscape:pageopacity="0"
     inkscape:pageshadow="2"
     inkscape:zoom="5.6568543"
     inkscape:cx="12.095426"
     inkscape:cy="12.691492"
     inkscape:document-units="px"
     inkscape:current-layer="g2998"
     showgrid="false"
     inkscape:showpageshadow="false"
     borderlayer="true"
     units="px"
     fit-margin-top="0"
     fit-margin-left="0"
     fit-margin-right="0"
     fit-margin-bottom="0"
     showguides="true"
     inkscape:window-width="1364"
     inkscape:window-height="718"
     inkscape:window-x="0"
     inkscape:window-y="25"
     inkscape:window-maximized="1">
    <sodipodi:guide
       position="-6.6748425e-06,47.999999"
       orientation="47.999977,0"
       id="guide4120" />
    <sodipodi:guide
       position="-6.6748425e-06,2.2810037e-05"
       orientation="0,48.000004"
       id="guide4122" />
    <sodipodi:guide
       position="47.999997,2.2810037e-05"
       orientation="-47.999977,0"
       id="guide4124" />
    <sodipodi:guide
       position="47.999997,47.999999"
       orientation="0,-48.000004"
       id="guide4126" />
    <sodipodi:guide
       position="3.9999733,44.000154"
       orientation="39.999962,0"
       id="guide4138" />
    <sodipodi:guide
       position="3.9999733,4.0001921"
       orientation="0,40.000003"
       id="guide4140" />
    <sodipodi:guide
       position="43.999976,4.0001921"
       orientation="-39.999962,0"
       id="guide4142" />
    <sodipodi:guide
       position="43.999976,44.000154"
       orientation="0,-40.000003"
       id="guide4144" />
    <sodipodi:guide
       position="40.999998,47.999999"
       orientation="0,-34.000006"
       id="guide4154" />
    <sodipodi:guide
       position="1.9999969,4.0000839"
       orientation="0,44.000003"
       id="guide3281" />
    <sodipodi:guide
       position="46,44.000046"
       orientation="0,-44.000003"
       id="guide3285" />
  </sodipodi:namedview>
  <metadata
     id="metadata7">
    <rdf:RDF>
      <cc:Work
         rdf:about="">
        <dc:format>image/svg+xml</dc:format>
        <dc:type
           rdf:resource="http://purl.org/dc/dcmitype/StillImage" />
        <dc:title />
      </cc:Work>
    </rdf:RDF>
  </metadata>
  <g
     inkscape:label="Capa 1"
     inkscape:groupmode="layer"
     id="layer1"
     transform="translate(38.119153,-397.84494)">
    <g
       id="layer1-1"
       inkscape:label="Capa 1"
       transform="matrix(0.28367991,0,0,0.28273264,-107.88536,276.25482)">
      <g
         transform="translate(242.41755,429.62489)"
         id="g2998">
        <rect
           style="fill:#ecf0f1;fill-opacity:1;stroke:none"
           id="rect3161"
           width="39.794464"
           height="39.927792"
           x="7.4957643"
           y="4.422214"
           ry="6.6897092" />
        <path
           style="fill:none;stroke:#2980b9;stroke-width:2.14479256;stroke-miterlimit:4;stroke-opacity:1"
           d="m 11.880908,15.353952 0,-3.302389 c 0,-1.788486 1.412667,-3.2283154 3.167414,-3.2283154 l 0,0 0,0 15.566806,0 c 1.754745,0 3.167415,1.4398294 3.167415,3.2283154 l 0,15.520096 c 0,1.788488 -1.41267,3.228316 -3.167415,3.228316 l -15.566806,0 c -1.754747,0 -3.167414,-1.439828 -3.167414,-3.228316 l 0,-10.312917"
           id="path3954"
           inkscape:connector-curvature="0" />
        <rect
           style="fill:#2980b9;fill-opacity:1;stroke:none"
           id="rect3960"
           width="3.5863929"
           height="3.5867534"
           x="1.0355656"
           y="42.950199"
           transform="matrix(0.716764,-0.69731583,0.69497414,0.71903473,0,0)" />
        <path
           inkscape:connector-curvature="0"
           id="rect3962"
           d="m 37.228889,29.272066 c -0.492296,-0.0049 -0.987494,0.182878 -1.368545,0.557503 l -3.015867,2.964907 c -0.762096,0.74926 -0.797463,1.972314 -0.05068,2.736835 l 8.185926,8.387897 c 0.186698,0.191132 0.344485,0.265607 0.575292,0.36256 1.125711,-0.171038 2.160669,-0.553589 3.083486,-1.186214 0.418794,-0.335122 0.840195,-0.68735 1.149777,-1.095993 0.735535,-0.927298 1.250135,-1.878315 1.390323,-3.120522 -0.08499,-0.16023 -0.287229,-0.525052 -0.42058,-0.661577 l -8.160582,-8.362555 c -0.373387,-0.382265 -0.87625,-0.577865 -1.368546,-0.582841 z m 10.06134,10.592569 c -0.0087,0.05909 -0.01124,0.119132 -0.02535,0.177387 0.01426,-0.05763 0.01646,-0.118895 0.02535,-0.177387 z"
           style="fill:#2980b9;fill-opacity:1;stroke:none"
           sodipodi:nodetypes="ccccccccccccccc" />
        <rect
           style="fill:#f1c40f;fill-opacity:1;stroke:none"
           id="rect3966"
           width="15.107316"
           height="1.7733403"
           x="13.156259"
           y="15.399888"
           ry="0.54065257" />
        <rect
           style="fill:#f1c40f;fill-opacity:1;stroke:none"
           id="rect3966-6"
           width="13.99981"
           height="1.5561639"
           x="23.142508"
           y="-2.9459305"
           ry="0.47444019"
           transform="matrix(0.70138307,0.71278453,-0.74096022,0.67154892,0,0)" />
        <path
           sodipodi:type="arc"
           style="fill:#f1c40f;fill-opacity:1;stroke:none"
           id="path3986"
           sodipodi:cx="-92.404495"
           sodipodi:cy="37.752808"
           sodipodi:rx="6.2322097"
           sodipodi:ry="6.2322097"
           d="m -86.172286,37.752808 a 6.2322097,6.2322097 0 1 1 -12.464419,0 6.2322097,6.2322097 0 1 1 12.464419,0 z"
           transform="matrix(0.32343634,0,0,0.32965515,48.920652,3.8844005)" />
        <path
           sodipodi:type="arc"
           style="fill:#f1c40f;fill-opacity:1;stroke:none"
           id="path3986-8"
           sodipodi:cx="-92.404495"
           sodipodi:cy="37.752808"
           sodipodi:rx="6.2322097"
           sodipodi:ry="6.2322097"
           d="m -86.172286,37.752808 a 6.2322097,6.2322097 0 1 1 -12.464419,0 6.2322097,6.2322097 0 1 1 12.464419,0 z"
           transform="matrix(0.32343634,0,0,0.32965515,56.325785,3.6465139)" />
        <path
           sodipodi:type="arc"
           style="fill:#f1c40f;fill-opacity:1;stroke:none"
           id="path3986-3"
           sodipodi:cx="-92.404495"
           sodipodi:cy="37.752808"
           sodipodi:rx="6.2322097"
           sodipodi:ry="6.2322097"
           d="m -86.172286,37.752808 a 6.2322097,6.2322097 0 1 1 -12.464419,0 6.2322097,6.2322097 0 1 1 12.464419,0 z"
           transform="matrix(0.32343634,0,0,0.32965515,56.283347,11.215651)" />
      </g>
    </g>
  </g>
</svg>
