<svg xmlns="http://www.w3.org/2000/svg" width="48" height="48">
 <g transform="matrix(0,-1,1,0,0,48)">
  <g transform="translate(-1.152543,0)">
   <path d="m 12.152544,4 0,40 c 7.666667,0 7.333331,0 14.999998,0 l 11,-11 0,-29 -2,0 C 25.485875,4 22.819211,4 12.152544,4 z" style="fill:#ecf0f1" fill-rule="evenodd"/>
   <path d="m 27.152532,33 0,11 11.00001,-11.00001 z" style="fill:#bdc3c7"/>
  </g>
  <path d="m 26,28.543312 0,8.206897 -2,0 0,-8.206897 z" style="fill:#7f8c8d"/>
  <path d="m 32,8 0,20 -3,0 0,-20 z" style="fill:#7f8c8d"/>
  <path d="m 26,7 0,20 -2,0 0,-20 z" style="fill:#7f8c8d"/>
  <path d="m 22,18.907483 0,20.215727 -2,0 0,-20.215727 z" style="fill:#7f8c8d"/>
  <path d="m 22,7 0,9.57317 -2,0 L 20,7 z" style="fill:#7f8c8d"/>
  <path d="m 18,21.999576 0,17.123633 -2,0 0,-17.123633 z" style="fill:#7f8c8d"/>
  <path d="m 18,7 0,13.528173 -2,0 L 16,7 z" style="fill:#7f8c8d"/>
 </g>
</svg>
