<svg xmlns="http://www.w3.org/2000/svg" width="48" height="48">
 <path d="m 2.000001,4 0,40 44,0 0,-29 L 35.916668,4 2.000001,4 Z" style="fill:#3498db"/>
 <path d="m 5.849611,4.000001 0,1.84961 -3.84961,0 0,0.300781 3.84961,0 0,5.699218 -3.84961,0 0,0.300782 3.84961,0 0,5.699218 -3.84961,0 0,0.300782 3.84961,0 0,5.699218 -3.84961,0 0,0.300782 3.84961,0 0,5.699218 -3.84961,0 0,0.300782 3.84961,0 0,5.699218 -3.84961,0 0,0.300782 3.84961,0 0,5.699218 -3.84961,0 0,0.300782 3.84961,0 0,1.849609 0.300781,0 0,-1.849609 5.699218,0 0,1.849609 0.300782,0 0,-1.849609 5.699218,0 0,1.849609 0.300782,0 0,-1.849609 5.699218,0 0,1.849609 0.300782,0 0,-1.849609 5.699218,0 0,1.849609 0.300782,0 0,-1.849609 5.699218,0 0,1.849609 0.300782,0 0,-1.849609 5.699218,0 0,1.849609 0.300782,0 0,-1.849609 3.849609,0 0,-0.300782 -3.849609,0 0,-5.699218 3.849609,0 0,-0.300782 -3.849609,0 0,-5.699218 3.849609,0 0,-0.300782 -3.849609,0 0,-5.699218 3.849609,0 0,-0.300782 -3.849609,0 0,-5.699218 3.849609,0 0,-0.300782 -3.849609,0 0,-5.699218 1,0 -0.300782,-0.300782 -0.699218,0 0,-0.699218 -0.300782,-0.300782 0,1 -5.699218,0 0,-5.699218 1,0 -0.300782,-0.300781 -0.699218,0 0,-0.699219 -0.300782,-0.300781 0,1 -5.699218,0 0,-1.84961 -0.300782,0 0,1.84961 -5.699218,0 0,-1.84961 -0.300782,0 0,1.84961 -5.699218,0 0,-1.84961 -0.300782,0 0,1.84961 -5.699218,0 0,-1.84961 -0.300782,0 0,1.84961 -5.699218,0 0,-1.84961 -0.300781,0 z m 0.300781,2.150391 5.699218,0 0,5.699218 -5.699218,0 0,-5.699218 z m 6,0 5.699218,0 0,5.699218 -5.699218,0 0,-5.699218 z m 6,0 5.699218,0 0,5.699218 -5.699218,0 0,-5.699218 z m 6,0 5.699218,0 0,5.699218 -5.699218,0 0,-5.699218 z m 6,0 5.699218,0 0,5.699218 -5.699218,0 0,-5.699218 z m -24,6 5.699218,0 0,5.699218 -5.699218,0 0,-5.699218 z m 6,0 5.699218,0 0,5.699218 -5.699218,0 0,-5.699218 z m 6,0 5.699218,0 0,5.699218 -5.699218,0 0,-5.699218 z m 6,0 5.699218,0 0,5.699218 -5.699218,0 0,-5.699218 z m 6,0 5.699218,0 0,5.699218 -5.699218,0 0,-5.699218 z m 6,0 5.699218,0 0,5.699218 -5.699218,0 0,-5.699218 z m -30,6 5.699218,0 0,5.699218 -5.699218,0 0,-5.699218 z m 6,0 5.699218,0 0,5.699218 -5.699218,0 0,-5.699218 z m 6,0 5.699218,0 0,5.699218 -5.699218,0 0,-5.699218 z m 6,0 5.699218,0 0,5.699218 -5.699218,0 0,-5.699218 z m 6,0 5.699218,0 0,5.699218 -5.699218,0 0,-5.699218 z m 6,0 5.699218,0 0,5.699218 -5.699218,0 0,-5.699218 z m -30,6 5.699218,0 0,5.699218 -5.699218,0 0,-5.699218 z m 6,0 5.699218,0 0,5.699218 -5.699218,0 0,-5.699218 z m 6,0 5.699218,0 0,5.699218 -5.699218,0 0,-5.699218 z m 6,0 5.699218,0 0,5.699218 -5.699218,0 0,-5.699218 z m 6,0 5.699218,0 0,5.699218 -5.699218,0 0,-5.699218 z m 6,0 5.699218,0 0,5.699218 -5.699218,0 0,-5.699218 z m -30,6 5.699218,0 0,5.699218 -5.699218,0 0,-5.699218 z m 6,0 5.699218,0 0,5.699218 -5.699218,0 0,-5.699218 z m 6,0 5.699218,0 0,5.699218 -5.699218,0 0,-5.699218 z m 6,0 5.699218,0 0,5.699218 -5.699218,0 0,-5.699218 z m 6,0 5.699218,0 0,5.699218 -5.699218,0 0,-5.699218 z m 6,0 5.699218,0 0,5.699218 -5.699218,0 0,-5.699218 z m -30,6 5.699218,0 0,5.699218 -5.699218,0 0,-5.699218 z m 6,0 5.699218,0 0,5.699218 -5.699218,0 0,-5.699218 z m 6,0 5.699218,0 0,5.699218 -5.699218,0 0,-5.699218 z m 6,0 5.699218,0 0,5.699218 -5.699218,0 0,-5.699218 z m 6,0 5.699218,0 0,5.699218 -5.699218,0 0,-5.699218 z m 6,0 5.699218,0 0,5.699218 -5.699218,0 0,-5.699218 z" style="fill:#68b1e1" fill-rule="evenodd"/>
 <path d="M 48,15.000001 37,4.0000009 37,15.000001 Z" style="fill:#ecf0f1"/>
 <g transform="matrix(1.0569008,0,0,1.0569008,-0.89346308,-1.052499)">
  <path d="M 42.857242,19.199758 C 29.893944,26.705863 17.033129,34.296189 5.9394494,40.734664 c 12.9995046,0 25.7685986,0 36.9177856,0 3.4e-5,-7.533851 -1.19e-4,-15.043747 7e-6,-21.534906 z m -5.255306,9.933337 0,7.689718 -13.204082,0 z" color="#000000" style="fill:#2c3e50"/>
  <rect transform="matrix(0.86357525,-0.50421998,0.50421998,0.86357525,0,0)" y="38.18" x="6.239" height="2.491" width="0.415" style="fill:#ecf0f1"/>
  <rect transform="matrix(0.86357525,-0.50421998,0.50421998,0.86357525,0,0)" width="0.415" height="1.246" x="4.578" y="38.18" style="fill:#ecf0f1"/>
  <rect transform="matrix(0.86357525,-0.50421998,0.50421998,0.86357525,0,0)" y="38.18" x="2.918" height="1.246" width="0.415" style="fill:#ecf0f1"/>
  <rect transform="matrix(0.86357525,-0.50421998,0.50421998,0.86357525,0,0)" width="0.415" height="2.491" x="1.257" y="38.18" style="fill:#ecf0f1"/>
  <rect transform="matrix(0.86357525,-0.50421998,0.50421998,0.86357525,0,0)" y="38.18" x="-0.404" height="1.246" width="0.415" style="fill:#ecf0f1"/>
  <rect transform="matrix(0.86357525,-0.50421998,0.50421998,0.86357525,0,0)" width="0.415" height="1.246" x="-2.065" y="38.18" style="fill:#ecf0f1"/>
  <rect transform="matrix(0.86357525,-0.50421998,0.50421998,0.86357525,0,0)" width="0.415" height="1.246" x="-5.386" y="38.18" style="fill:#ecf0f1"/>
  <rect transform="matrix(0.86357525,-0.50421998,0.50421998,0.86357525,0,0)" y="38.18" x="-7.05" height="1.246" width="0.415" style="fill:#ecf0f1"/>
  <rect transform="matrix(0.86357525,-0.50421998,0.50421998,0.86357525,0,0)" y="38.18" x="-10.368" height="1.246" width="0.415" style="fill:#ecf0f1"/>
  <rect transform="matrix(0.86357525,-0.50421998,0.50421998,0.86357525,0,0)" width="0.415" height="1.246" x="-12.03" y="38.18" style="fill:#ecf0f1"/>
  <rect transform="matrix(0.86357525,-0.50421998,0.50421998,0.86357525,0,0)" width="0.415" height="2.491" x="-3.725" y="38.18" style="fill:#ecf0f1"/>
  <rect transform="matrix(0.86357525,-0.50421998,0.50421998,0.86357525,0,0)" y="38.18" x="-8.707" height="2.491" width="0.415" style="fill:#ecf0f1"/>
  <rect transform="matrix(0.86357525,-0.50421998,0.50421998,0.86357525,0,0)" y="38.18" x="24.507" height="1.246" width="0.415" style="fill:#ecf0f1"/>
  <rect transform="matrix(0.86357525,-0.50421998,0.50421998,0.86357525,0,0)" width="0.415" height="1.246" x="22.846" y="38.18" style="fill:#ecf0f1"/>
  <rect transform="matrix(0.86357525,-0.50421998,0.50421998,0.86357525,0,0)" y="38.18" x="21.19" height="2.491" width="0.415" style="fill:#ecf0f1"/>
  <rect transform="matrix(0.86357525,-0.50421998,0.50421998,0.86357525,0,0)" width="0.415" height="1.246" x="19.525" y="38.18" style="fill:#ecf0f1"/>
  <rect transform="matrix(0.86357525,-0.50421998,0.50421998,0.86357525,0,0)" y="38.18" x="17.864" height="1.246" width="0.415" style="fill:#ecf0f1"/>
  <rect transform="matrix(0.86357525,-0.50421998,0.50421998,0.86357525,0,0)" y="38.18" x="14.543" height="1.246" width="0.415" style="fill:#ecf0f1"/>
  <rect transform="matrix(0.86357525,-0.50421998,0.50421998,0.86357525,0,0)" width="0.415" height="1.246" x="12.882" y="38.18" style="fill:#ecf0f1"/>
  <rect transform="matrix(0.86357525,-0.50421998,0.50421998,0.86357525,0,0)" width="0.415" height="1.246" x="9.561" y="38.18" style="fill:#ecf0f1"/>
  <rect transform="matrix(0.86357525,-0.50421998,0.50421998,0.86357525,0,0)" y="38.18" x="7.9" height="1.246" width="0.415" style="fill:#ecf0f1"/>
  <rect transform="matrix(0.86357525,-0.50421998,0.50421998,0.86357525,0,0)" y="38.18" x="16.204" height="2.491" width="0.415" style="fill:#ecf0f1"/>
  <rect transform="matrix(0.86357525,-0.50421998,0.50421998,0.86357525,0,0)" width="0.415" height="2.491" x="11.221" y="38.18" style="fill:#ecf0f1"/>
 </g>
</svg>
