<?xml version="1.0" encoding="UTF-8" standalone="no"?>
<!-- Created with Inkscape (http://www.inkscape.org/) -->

<svg
   xmlns:dc="http://purl.org/dc/elements/1.1/"
   xmlns:cc="http://creativecommons.org/ns#"
   xmlns:rdf="http://www.w3.org/1999/02/22-rdf-syntax-ns#"
   xmlns:svg="http://www.w3.org/2000/svg"
   xmlns="http://www.w3.org/2000/svg"
   xmlns:sodipodi="http://sodipodi.sourceforge.net/DTD/sodipodi-0.dtd"
   xmlns:inkscape="http://www.inkscape.org/namespaces/inkscape"
   width="48"
   height="48"
   id="svg2"
   version="1.1"
   inkscape:version="0.48+devel r12392"
   sodipodi:docname="gloobus-preview.svg">
  <defs
     id="defs4" />
  <sodipodi:namedview
     id="base"
     pagecolor="#ffffff"
     bordercolor="#666666"
     borderopacity="1.0"
     inkscape:pageopacity="0.0"
     inkscape:pageshadow="2"
     inkscape:zoom="7.2614427"
     inkscape:cx="2.3117322"
     inkscape:cy="24.591509"
     inkscape:document-units="px"
     inkscape:current-layer="layer1"
     showgrid="false"
     inkscape:window-width="1366"
     inkscape:window-height="718"
     inkscape:window-x="0"
     inkscape:window-y="30"
     inkscape:window-maximized="1"
     showguides="true"
     inkscape:guide-bbox="true">
    <inkscape:grid
       type="xygrid"
       id="grid3850" />
  </sodipodi:namedview>
  <metadata
     id="metadata7">
    <rdf:RDF>
      <cc:Work
         rdf:about="">
        <dc:format>image/svg+xml</dc:format>
        <dc:type
           rdf:resource="http://purl.org/dc/dcmitype/StillImage" />
        <dc:title />
      </cc:Work>
    </rdf:RDF>
  </metadata>
  <g
     inkscape:label="Capa 1"
     inkscape:groupmode="layer"
     id="layer1"
     transform="translate(0,-1004.3622)">
    <path
       style="fill:#ffffff;fill-opacity:1;fill-rule:evenodd;stroke:none"
       id="path3263"
       inkscape:connector-curvature="0"
       d="m 24.611119,1029.7254 c -0.336427,-1.4651 1.42592,-2.3139 2.625902,-2.1572 2.345635,0.3062 3.457817,2.9329 2.917686,5.0376 -0.821343,3.201 -4.459951,4.6411 -7.443095,3.6823 -4.053581,-1.3024 -5.830403,-6.0004 -4.441767,-9.8582 1.76887,-4.9148 7.53542,-7.0339 12.260266,-5.2074 5.77057,2.231 8.231522,9.0827 5.965848,14.6789 -2.68638,6.6354 -10.6184,9.442 -17.077436,6.7323 -7.492054,-3.1435 -10.6417227,-12.1694 -7.48993,-19.4994 3.594419,-8.3589 13.704261,-11.8565 21.89463,-8.2574 9.21565,4.049 13.055952,15.2582 9.014016,24.32 -4.49832,10.0843 -16.791496,14.2737 -26.711806,9.7825 -10.9403728,-4.9525 -15.47235309,-18.3477 -10.5381174,-29.1405 3.8689776,-8.4622 12.7135414,-13.7869 21.9691334,-13.5472" />
    <path
       style="fill:#128ddb;fill-opacity:1;fill-rule:evenodd;stroke:none"
       id="path3239-0"
       inkscape:connector-curvature="0"
       d="m 24.59995,1029.7254 c -0.336424,-1.4651 1.425918,-2.3139 2.6259,-2.1572 2.345633,0.3062 3.457816,2.9329 2.917687,5.0376 -0.821345,3.201 -4.45995,4.6411 -7.443091,3.6823 -4.053585,-1.3024 -5.830408,-6.0004 -4.441773,-9.8582 1.76887,-4.9148 7.53542,-7.0339 12.260267,-5.2074 5.770571,2.231 8.231522,9.0827 5.96585,14.6789 -2.686384,6.6354 -10.618403,9.442 -17.077437,6.7323 -7.492054,-3.1435 -10.6417243,-12.1694 -7.489933,-19.4994 3.594423,-8.3589 13.704261,-11.8565 21.894633,-8.2574 9.215651,4.049 13.05595,15.2582 9.01401,24.32 -4.498314,10.0843 -16.79149,14.2737 -26.711801,9.7825 -10.9403718,-4.9525 -15.47235716,-18.3477 -10.5381176,-29.1405 3.8689781,-8.4622 12.7135446,-13.7869 21.9691346,-13.5472" />
    <path
       style="fill:none;stroke:none;stroke-width:1.6514858;stroke-linecap:butt;stroke-linejoin:round;stroke-miterlimit:4;stroke-opacity:1;stroke-dasharray:none"
       id="path3180"
       inkscape:connector-curvature="0"
       d="m 27.511369,1006.185 c -8.03748,0.7025 -16.357572,4.3319 -20.6838379,11.4392 -5.92641318,9.3856 -3.2576402,23.2104 6.0760749,29.3817 7.481855,4.9819 18.352361,4.7451 25.249014,-1.1803 7.682465,-6.8161 8.334529,-20.0647 1.096317,-27.4321 -3.228582,-3.4661 -7.914719,-5.1307 -12.58687,-5.1814" />
  </g>
</svg>
