<svg xmlns="http://www.w3.org/2000/svg" width="48" height="48">
 <g transform="translate(0,-1004.3622)">
  <path d="m 24.522306,1029.4381 c -0.296574,-1.3172 1.257039,-2.0803 2.314921,-1.9395 2.067834,0.2754 3.048284,2.637 2.572133,4.5293 -0.724081,2.878 -3.93174,4.1727 -6.561578,3.3107 -3.573526,-1.171 -5.13992,-5.3949 -3.915724,-8.8634 1.559364,-4.4188 6.642974,-6.3241 10.808256,-4.6819 5.08715,2.0058 7.256625,8.1661 5.259305,13.1976 -2.368242,5.9658 -9.360853,8.4891 -15.054926,6.0529 -6.604777,-2.8263 -9.381422,-10.9413 -6.602899,-17.5317 3.168729,-7.5152 12.081237,-10.6599 19.301626,-7.424 8.124203,3.6404 11.50969,13.7184 7.946448,21.8657 -3.965569,9.0666 -14.802841,12.8332 -23.548263,8.7953 -9.6446851,-4.4527 -13.6399391,-16.4961 -9.2900731,-26.1998 3.4107571,-7.6081 11.2078671,-12.3955 19.3673011,-12.1801" style="fill:#128ddb" fill-rule="evenodd"/>
 </g>
</svg>
