<?xml version="1.0" encoding="UTF-8" standalone="no"?>
<!-- Created with Inkscape (http://www.inkscape.org/) -->

<svg
   xmlns:dc="http://purl.org/dc/elements/1.1/"
   xmlns:cc="http://creativecommons.org/ns#"
   xmlns:rdf="http://www.w3.org/1999/02/22-rdf-syntax-ns#"
   xmlns:svg="http://www.w3.org/2000/svg"
   xmlns="http://www.w3.org/2000/svg"
   xmlns:sodipodi="http://sodipodi.sourceforge.net/DTD/sodipodi-0.dtd"
   xmlns:inkscape="http://www.inkscape.org/namespaces/inkscape"
   width="48"
   height="48"
   id="svg2"
   version="1.1"
   inkscape:version="0.48+devel r12677"
   sodipodi:docname="basket.svg">
  <defs
     id="defs4" />
  <sodipodi:namedview
     id="base"
     pagecolor="#ffffff"
     bordercolor="#666666"
     borderopacity="1.0"
     inkscape:pageopacity="0.0"
     inkscape:pageshadow="2"
     inkscape:zoom="4.1425341"
     inkscape:cx="24.438539"
     inkscape:cy="32.600656"
     inkscape:document-units="px"
     inkscape:current-layer="layer1"
     showgrid="false"
     borderlayer="true"
     inkscape:showpageshadow="false"
     inkscape:window-width="1366"
     inkscape:window-height="714"
     inkscape:window-x="0"
     inkscape:window-y="30"
     inkscape:window-maximized="1"
     showguides="true">
    <sodipodi:guide
       position="9,39.000017"
       orientation="30,0"
       id="guide3279" />
    <sodipodi:guide
       position="9,9.0000174"
       orientation="0,30"
       id="guide3281" />
    <sodipodi:guide
       position="39,9.0000174"
       orientation="-30,0"
       id="guide3283" />
    <sodipodi:guide
       position="39,39.000017"
       orientation="0,-30"
       id="guide3285" />
    <sodipodi:guide
       position="7,44.000017"
       orientation="40,0"
       id="guide3292" />
    <sodipodi:guide
       position="7,4.0000174"
       orientation="0,34"
       id="guide3294" />
    <sodipodi:guide
       position="41,4.0000174"
       orientation="-40,0"
       id="guide3296" />
    <sodipodi:guide
       position="41,44.000017"
       orientation="0,-34"
       id="guide3298" />
    <sodipodi:guide
       position="9,42.000017"
       orientation="36,0"
       id="guide3300" />
    <sodipodi:guide
       position="9,6.0000174"
       orientation="0,30"
       id="guide3302" />
    <sodipodi:guide
       position="39,6.0000174"
       orientation="-36,0"
       id="guide3304" />
    <sodipodi:guide
       position="39,42.000017"
       orientation="0,-30"
       id="guide3306" />
  </sodipodi:namedview>
  <metadata
     id="metadata7">
    <rdf:RDF>
      <cc:Work
         rdf:about="">
        <dc:format>image/svg+xml</dc:format>
        <dc:type
           rdf:resource="http://purl.org/dc/dcmitype/StillImage" />
        <dc:title />
      </cc:Work>
    </rdf:RDF>
  </metadata>
  <g
     inkscape:label="Capa 1"
     inkscape:groupmode="layer"
     id="layer1"
     transform="translate(0,-1004.3622)">
    <circle
       style="fill:none;stroke:none"
       id="path3267"
       cx="3.5"
       cy="1028.3622"
       r="3.5"
       d="m 7,1028.3622 a 3.5,3.5 0 0 1 -3.5,3.5 3.5,3.5 0 0 1 -3.5,-3.5 3.5,3.5 0 0 1 3.5,-3.5 3.5,3.5 0 0 1 3.5,3.5 z" />
    <circle
       r="3.5"
       cy="1028.3622"
       cx="44.5"
       id="circle3269"
       style="fill:none;stroke:none"
       d="m 48,1028.3622 a 3.5,3.5 0 0 1 -3.5,3.5 3.5,3.5 0 0 1 -3.5,-3.5 3.5,3.5 0 0 1 3.5,-3.5 3.5,3.5 0 0 1 3.5,3.5 z" />
    <circle
       style="fill:none;stroke:none"
       id="circle3271"
       cx="24"
       cy="1006.3622"
       r="2"
       d="m 26,1006.3622 a 2,2 0 0 1 -2,2 2,2 0 0 1 -2,-2 2,2 0 0 1 2,-2 2,2 0 0 1 2,2 z" />
    <circle
       r="2"
       cy="1050.3622"
       cx="24"
       id="circle3273"
       style="fill:none;stroke:none"
       d="m 26,1050.3622 a 2,2 0 0 1 -2,2 2,2 0 0 1 -2,-2 2,2 0 0 1 2,-2 2,2 0 0 1 2,2 z" />
    <rect
       style="fill:#ae8566;fill-opacity:1;stroke:none"
       id="rect4043"
       width="34"
       height="40"
       x="7"
       y="1008.3622" />
    <rect
       y="1010.3622"
       x="9"
       height="35.999973"
       width="29.999998"
       id="rect4047"
       style="fill:#fdf4a9;fill-opacity:1;stroke:none" />
    <circle
       style="fill:none;stroke:none"
       id="circle3277"
       cx="40"
       cy="1028.3622"
       r="1"
       d="m 41,1028.3622 a 1,1 0 0 1 -1,1 1,1 0 0 1 -1,-1 1,1 0 0 1 1,-1 1,1 0 0 1 1,1 z" />
    <circle
       r="1"
       cy="1028.3622"
       cx="8"
       id="circle3279"
       style="fill:none;stroke:none"
       d="m 9,1028.3622 a 1,1 0 0 1 -1,1 1,1 0 0 1 -1,-1 1,1 0 0 1 1,-1 1,1 0 0 1 1,1 z" />
    <circle
       style="fill:none;stroke:none"
       id="circle3281"
       cx="24"
       cy="1047.3622"
       r="1"
       d="m 25,1047.3622 a 1,1 0 0 1 -1,1 1,1 0 0 1 -1,-1 1,1 0 0 1 1,-1 1,1 0 0 1 1,1 z" />
    <rect
       y="-39"
       x="1017.3622"
       height="30"
       width="2"
       id="rect4051"
       style="fill:#fbef82;fill-opacity:1;stroke:none"
       transform="matrix(0,1,-1,0,0,0)" />
    <circle
       style="fill:none;stroke:none"
       id="circle3283"
       cx="24"
       cy="1013.8622"
       r="3.5"
       d="m 27.5,1013.8622 a 3.5,3.5 0 0 1 -3.5,3.5 3.5,3.5 0 0 1 -3.5,-3.5 3.5,3.5 0 0 1 3.5,-3.5 3.5,3.5 0 0 1 3.5,3.5 z" />
    <circle
       r="3.5"
       cy="1042.8622"
       cx="24"
       id="circle3285"
       style="fill:none;stroke:none"
       d="m 27.5,1042.8622 a 3.5,3.5 0 0 1 -3.5,3.5 3.5,3.5 0 0 1 -3.5,-3.5 3.5,3.5 0 0 1 3.5,-3.5 3.5,3.5 0 0 1 3.5,3.5 z" />
    <rect
       transform="matrix(0,1,-1,0,0,0)"
       style="fill:#fbef82;fill-opacity:1;stroke:none"
       id="rect3287"
       width="2"
       height="30"
       x="1037.3622"
       y="-39" />
    <rect
       y="-39"
       x="1027.3622"
       height="30"
       width="2"
       id="rect3289"
       style="fill:#fbef82;fill-opacity:1;stroke:none"
       transform="matrix(0,1,-1,0,0,0)" />
    <rect
       style="fill:#ed8484;fill-opacity:1;stroke:none"
       id="rect4049"
       width="0.49999991"
       height="36"
       x="13"
       y="1010.3622" />
    <circle
       style="fill:none;stroke:none"
       id="circle3295"
       cx="11"
       cy="1028.3622"
       r="2"
       d="m 13,1028.3622 a 2,2 0 0 1 -2,2 2,2 0 0 1 -2,-2 2,2 0 0 1 2,-2 2,2 0 0 1 2,2 z" />
    <rect
       style="fill:none;stroke:none"
       id="rect3275"
       width="30"
       height="30"
       x="9"
       y="1013.3622" />
  </g>
</svg>
