<svg xmlns="http://www.w3.org/2000/svg" width="48" height="48">
 <g transform="translate(0,-1004.3622)">
  <rect width="44" height="33" x="2" y="1010.36" style="fill:#f0f0f0" rx="0"/>
  <rect width="24" height="24" x="12" y="1014.86" style="fill:#ffffff" fill-rule="evenodd" rx="12"/>
  <rect width="44" height="5" x="2" y="1043.36" style="fill:#35383d" fill-rule="evenodd"/>
  <rect width="7" height="2" x="2" y="1008.36" style="fill:#ef4f39" fill-rule="evenodd"/>
  <rect y="1044.36" x="4" height="3" width="40" fill-rule="evenodd"/>
  <rect width="4" height="4" x="40.5" y="1013.86" style="fill:#5b5e6c" fill-rule="evenodd" rx="2"/>
  <circle cy="1015.86" cx="42.5" r="1.5" style="fill:#222021" fill-rule="evenodd"/>
  <circle r="0.5" cx="43.5" cy="1014.86" style="fill:#5b5e6c" fill-rule="evenodd"/>
  <rect y="1016.86" x="14" height="20" width="20" fill-rule="evenodd" rx="10"/>
  <rect width="16" height="16" x="16" y="1018.86" style="fill:#435564" fill-rule="evenodd" rx="8"/>
  <rect y="1020.86" x="18" height="12" width="12" style="fill:#103151" fill-rule="evenodd" rx="6"/>
  <rect width="8" height="8" x="20" y="1022.86" style="fill:#202332" fill-rule="evenodd" rx="4"/>
  <rect y="1022.86" x="24" height="4" width="4" style="fill:#8ea6bb" fill-rule="evenodd" rx="2"/>
  <rect width="2" height="2" x="20" y="1028.86" style="fill:#8ea6bb" fill-rule="evenodd" rx="1"/>
 </g>
</svg>
