<svg xmlns="http://www.w3.org/2000/svg" width="48" height="48">
 <g transform="translate(0,-0.33342)">
  <rect transform="translate(18.6852,8.70176)" width="10.339" height="24.19" rx="5.169" ry="6.549" style="fill:#bdc3c7" fill-rule="evenodd"/>
  <path transform="translate(16.6698,42.942)" d="M 0,3.34357 14.4175,3.39142 C 10.6819,-1.15464 3.83662,-1.09035 0,3.34357 z" style="fill:#34495e" fill-rule="evenodd"/>
  <rect transform="translate(22.3506,37.8078)" width="3.099" height="5.301" style="fill:#34495e" fill-rule="evenodd"/>
  <path transform="translate(18.6837,14.1152)" d="M 0.0757482,0 6.53571,0.00200914 6.53571,1.77367 0.00359629,1.76582 C 0.0080506,1.23422 -0.0316009,0.830931 0.0757482,0 z" style="fill:#7f8c8d" fill-rule="evenodd"/>
  <path transform="translate(18.6835,17.8691)" d="M 0,0.00938327 6.50553,0 l 0,1.77166 L 0,1.76761 z" style="fill:#7f8c8d" fill-rule="evenodd"/>
  <path transform="translate(18.6835,21.6666)" d="M 0,0.0055858 6.53591,0 l 0,1.77166 -6.53211253,0.00355 z" style="fill:#7f8c8d" fill-rule="evenodd"/>
  <path transform="translate(12.83,27.6152)" d="M 0,0.0143056 3.24091,0 C 3.85772,10.5442 18.1809,10.4685 18.7346,0 l 3.2922,0.0193159 C 21.0937,15.2659 0.628167,14.7098 0,0.0143056 z" style="fill:#34495e" fill-rule="evenodd"/>
 </g>
 <path d="m -54.711864,7.3220339 a 4.8813558,4.8813558 0 1 1 -9.762712,0 4.8813558,4.8813558 0 1 1 9.762712,0 z" transform="matrix(0.92187503,0,0,0.92187503,89.335807,34.75)" style="fill:#c0392b"/>
</svg>
