<?xml version="1.0" encoding="UTF-8" standalone="no"?>
<!-- Created with Inkscape (http://www.inkscape.org/) -->

<svg
   xmlns:dc="http://purl.org/dc/elements/1.1/"
   xmlns:cc="http://creativecommons.org/ns#"
   xmlns:rdf="http://www.w3.org/1999/02/22-rdf-syntax-ns#"
   xmlns:svg="http://www.w3.org/2000/svg"
   xmlns="http://www.w3.org/2000/svg"
   version="1.1"
   width="48"
   height="48"
   id="svg2">
  <defs
     id="defs4" />
  <metadata
     id="metadata7">
    <rdf:RDF>
      <cc:Work
         rdf:about="">
        <dc:format>image/svg+xml</dc:format>
        <dc:type
           rdf:resource="http://purl.org/dc/dcmitype/StillImage" />
        <dc:title></dc:title>
      </cc:Work>
    </rdf:RDF>
  </metadata>
  <g
     transform="translate(-180.23661,-689.8125)"
     id="layer1">
    <path
       d="m 204.23661,693.8125 c -6.56545,0 -12.3539,3.14646 -15.99609,8.00391 l 7.10547,10.65625 c 0.13668,-0.92055 0.41094,-1.79345 0.80273,-2.59961 0.098,-0.20161 0.20221,-0.39904 0.31445,-0.5918 0.33271,-0.57139 0.7257,-1.10023 1.17188,-1.58203 0.01,-0.0105 0.0195,-0.0208 0.0293,-0.0312 0.59312,-0.63441 1.27427,-1.18194 2.02929,-1.62305 0.0197,-0.0115 0.0388,-0.0238 0.0586,-0.0352 0.16193,-0.0929 0.32796,-0.17875 0.49609,-0.26172 0.0468,-0.0231 0.0934,-0.0461 0.14062,-0.0684 0.17319,-0.0817 0.34825,-0.15965 0.52735,-0.23047 0.0296,-0.0117 0.0601,-0.0218 0.0898,-0.0332 0.39773,-0.15236 0.80751,-0.27958 1.23047,-0.375 0.30806,-0.0695 0.62205,-0.12296 0.9414,-0.16015 0.002,-2.4e-4 0.004,-0.002 0.006,-0.002 0.0119,-10e-4 0.0232,-0.005 0.0352,-0.006 0.003,-2.9e-4 0.005,2.8e-4 0.008,0 0.33203,-0.0367 0.66754,-0.0605 1.00974,-0.0605 l 17.85742,0 c -3.28473,-6.52995 -10.0227,-11 -17.85742,-11 z"
       id="path3511"
       style="fill:#f69c09;fill-opacity:1;fill-rule:evenodd;stroke:none" />
    <path
       d="m 204.23661,693.8125 c 0.44696,0 0.88875,0.0202 1.32813,0.0488 -0.43962,-0.0286 -0.88104,-0.0488 -1.32813,-0.0488 z m 1.625,0.0703 c 0.36004,0.0288 0.71803,0.0677 1.07227,0.11524 -0.35423,-0.0474 -0.7123,-0.0865 -1.07227,-0.11524 z m 1.32617,0.14649 c 0.40585,0.0597 0.80581,0.13321 1.20313,0.21679 -0.39737,-0.0833 -0.79731,-0.15727 -1.20313,-0.21679 z m 2.83789,0.63476 c 0.18315,0.0551 0.36212,0.1195 0.54297,0.17969 -0.18115,-0.0601 -0.35952,-0.12465 -0.54297,-0.17969 z m 1.63672,0.58008 c 0.20255,0.0809 0.4063,0.15879 0.60547,0.24609 -0.19949,-0.0872 -0.4026,-0.16529 -0.60547,-0.24609 z m 1.75586,0.79883 c 0.3035,0.15705 0.60046,0.32417 0.89453,0.49609 -0.29454,-0.17165 -0.59057,-0.33931 -0.89453,-0.49609 z m 1.65039,0.95508 c 0.2539,0.16399 0.50424,0.33277 0.75,0.50781 -0.24622,-0.17484 -0.49562,-0.34404 -0.75,-0.50781 z m 1.29297,0.91406 c 0.49453,0.37819 0.97127,0.77727 1.42773,1.19922 -0.45724,-0.42152 -0.93235,-0.82153 -1.42773,-1.19922 z m 1.74023,1.48437 c 0.26657,0.25707 0.52343,0.52539 0.7754,0.79688 -0.25284,-0.27181 -0.50786,-0.53957 -0.7754,-0.79688 z m 3.35352,4.25 c 0.2239,0.3799 0.43764,0.76656 0.63672,1.16211 -0.19925,-0.39589 -0.41249,-0.78197 -0.63672,-1.16211 z m -34.625,0.33204 c -0.36327,0.64437 -0.69289,1.31101 -0.98437,1.99804 0.292,-0.68651 0.62165,-1.35308 0.98437,-1.99804 z m 17.40625,0.83398 c 4.986,0 9,4.014 9,9 0,1.81561 -0.53746,3.4992 -1.45508,4.91016 l -7.54492,15.08984 c 11.08,0 20,-8.92 20,-20 0,-3.24528 -0.78199,-6.29518 -2.14258,-9 l -17.85742,0 z m -3.84766,0.86719 c -0.0472,0.0223 -0.0939,0.0453 -0.14062,0.0684 0.0467,-0.023 0.0935,-0.0461 0.14062,-0.0684 z m -0.63671,0.33008 c -0.0198,0.0114 -0.0389,0.0236 -0.0586,0.0352 0.0197,-0.0115 0.0388,-0.0238 0.0586,-0.0352 z m -14.48633,1.47656 c -0.10948,0.33031 -0.20435,0.66609 -0.29688,1.0039 0.0933,-0.33733 0.18655,-0.67409 0.29688,-1.0039 z m 12.39843,0.18164 c -0.01,0.0105 -0.0196,0.0207 -0.0293,0.0312 0.01,-0.0105 0.0196,-0.0208 0.0293,-0.0312 z m -12.89648,1.60742 c -0.0898,0.38943 -0.17927,0.77787 -0.24609,1.17578 0.0675,-0.39719 0.15551,-0.78716 0.24609,-1.17578 z m -0.26172,1.26367 c -0.0791,0.48428 -0.14164,0.97517 -0.18555,1.47071 0.0445,-0.49554 0.10554,-0.98668 0.18555,-1.47071 z m -0.20898,1.77539 c -0.0364,0.49516 -0.0605,0.99328 -0.0605,1.49805 0,-0.50505 0.0237,-1.00294 0.0605,-1.49805 z m 28.93945,3.49805 -0.002,0.004 -0.004,0 0.006,-0.004 z m -11.18359,6.72461 0.004,0.006 0.0176,0 c -0.007,-0.002 -0.0143,-0.004 -0.0215,-0.006 z"
       id="rect3426"
       style="fill:#f7bb27;fill-opacity:1;fill-rule:evenodd;stroke:none" />
    <path
       d="m 188.24052,701.81641 c -2.50446,3.34009 -4.00391,7.48154 -4.00391,11.99609 0,11.08 8.92,20 20,20 l 7.54492,-15.08984 c -1.60234,2.46379 -4.37453,4.08984 -7.54492,4.08984 -0.74734,0 -1.46869,-0.0994 -2.16211,-0.26953 l -0.0176,0 -0.004,-0.006 c -3.92185,-0.97245 -6.81641,-4.49369 -6.81641,-8.72457 0,-0.45623 0.0445,-0.90027 0.10938,-1.33789 l -7.10547,-10.6582 z m 24.99609,13.99609 -0.006,0.004 0.004,0 0.002,-0.004 z"
       id="rect3423"
       style="fill:#f7d327;fill-opacity:1;fill-rule:evenodd;stroke:none" />
    <rect
       width="18"
       height="18"
       ry="9"
       x="195.2366"
       y="704.8125"
       id="rect3431"
       style="fill:#ecf0f1;fill-opacity:1;fill-rule:evenodd;stroke:none" />
    <rect
       width="15"
       height="15"
       ry="7.5"
       x="196.7366"
       y="706.3125"
       id="rect3400"
       style="fill:#fdd160;fill-opacity:1;fill-rule:evenodd;stroke:none" />
  </g>
</svg>
