<?xml version="1.0" encoding="UTF-8" standalone="no"?>
<!-- Created with Inkscape (http://www.inkscape.org/) -->

<svg
   xmlns:dc="http://purl.org/dc/elements/1.1/"
   xmlns:cc="http://creativecommons.org/ns#"
   xmlns:rdf="http://www.w3.org/1999/02/22-rdf-syntax-ns#"
   xmlns:svg="http://www.w3.org/2000/svg"
   xmlns="http://www.w3.org/2000/svg"
   xmlns:sodipodi="http://sodipodi.sourceforge.net/DTD/sodipodi-0.dtd"
   xmlns:inkscape="http://www.inkscape.org/namespaces/inkscape"
   width="48"
   height="48"
   id="svg2"
   version="1.1"
   inkscape:version="0.48.5 r10040"
   sodipodi:docname="gparted.svg">
  <defs
     id="defs4" />
  <sodipodi:namedview
     id="base"
     pagecolor="#ffffff"
     bordercolor="#666666"
     borderopacity="1.0"
     inkscape:pageopacity="0.0"
     inkscape:pageshadow="2"
     inkscape:zoom="22.627417"
     inkscape:cx="28.757957"
     inkscape:cy="17.303522"
     inkscape:document-units="px"
     inkscape:current-layer="layer1"
     showgrid="false"
     borderlayer="true"
     inkscape:showpageshadow="false"
     inkscape:window-width="1366"
     inkscape:window-height="720"
     inkscape:window-x="0"
     inkscape:window-y="0"
     inkscape:window-maximized="1"
     showguides="true">
    <sodipodi:guide
       position="9,39.000017"
       orientation="30,0"
       id="guide3279" />
    <sodipodi:guide
       position="39,9.0000174"
       orientation="-30,0"
       id="guide3283" />
    <sodipodi:guide
       position="7,44.000017"
       orientation="40,0"
       id="guide3292" />
    <sodipodi:guide
       position="7,4.0000174"
       orientation="0,34"
       id="guide3294" />
    <sodipodi:guide
       position="41,4.0000174"
       orientation="-40,0"
       id="guide3296" />
    <sodipodi:guide
       position="41,44.000017"
       orientation="0,-34"
       id="guide3298" />
    <sodipodi:guide
       position="9,42.000017"
       orientation="36,0"
       id="guide3300" />
    <sodipodi:guide
       position="9,6.0000174"
       orientation="0,30"
       id="guide3302" />
    <sodipodi:guide
       position="39,6.0000174"
       orientation="-36,0"
       id="guide3304" />
    <sodipodi:guide
       position="39,42.000017"
       orientation="0,-30"
       id="guide3306" />
  </sodipodi:namedview>
  <metadata
     id="metadata7">
    <rdf:RDF>
      <cc:Work
         rdf:about="">
        <dc:format>image/svg+xml</dc:format>
        <dc:type
           rdf:resource="http://purl.org/dc/dcmitype/StillImage" />
        <dc:title />
      </cc:Work>
    </rdf:RDF>
  </metadata>
  <g
     inkscape:label="Capa 1"
     inkscape:groupmode="layer"
     id="layer1"
     transform="translate(0,-1004.3622)">
    <rect
       style="fill:#2c3e50;fill-opacity:1;stroke:none"
       id="rect4043"
       width="34"
       height="40"
       x="7"
       y="1008.3622" />
    <path
       sodipodi:type="arc"
       style="fill:#2ecc71;fill-opacity:1;fill-rule:nonzero;stroke:none"
       id="path3824-1"
       sodipodi:cx="198.5"
       sodipodi:cy="-15"
       sodipodi:rx="44"
       sodipodi:ry="44"
       d="M 198.5,29 C 180.00247,29 163.48005,17.430878 157.15352,0.04888644 L 198.5,-15 z"
       transform="matrix(0.34091175,0,0,0.34091175,-43.671733,1030.4757)"
       sodipodi:start="1.5707963"
       sodipodi:end="2.7925268" />
    <path
       sodipodi:type="arc"
       style="fill:#f39c12;fill-opacity:1;fill-rule:nonzero;stroke:none"
       id="path3824-4"
       sodipodi:cx="198.5"
       sodipodi:cy="-15"
       sodipodi:rx="44"
       sodipodi:ry="44"
       d="M 157.15352,0.04888644 C 155.39805,-4.7742447 154.5,-9.867333 154.5,-15.000002 l 44,2e-6 z"
       transform="matrix(0.34090908,0,0,0.34090908,-43.670452,1030.4755)"
       sodipodi:start="2.7925268"
       sodipodi:end="3.1415927" />
    <path
       sodipodi:type="arc"
       style="fill:#3498db;fill-opacity:1;fill-rule:nonzero;stroke:none"
       id="path3824-9"
       sodipodi:cx="198.5"
       sodipodi:cy="-15"
       sodipodi:rx="44"
       sodipodi:ry="44"
       d="M 222.46412,21.901505 C 215.33017,26.534347 207.00626,29 198.5,29 l 0,-44 z"
       transform="matrix(0.34090908,0,0,0.34090908,-43.670452,1030.4758)"
       sodipodi:start="0.99483767"
       sodipodi:end="1.5707963" />
    <path
       sodipodi:type="arc"
       style="fill:#f1c40f;fill-opacity:1;fill-rule:nonzero;stroke:none"
       id="path3824-2"
       sodipodi:cx="198.5"
       sodipodi:cy="-15"
       sodipodi:rx="44"
       sodipodi:ry="44"
       d="m 242.5,-15 c 0,14.8994352 -7.54016,28.786691 -20.03588,36.901505 L 198.5,-15 z"
       transform="matrix(0.34090908,0,0,0.34090908,-43.670452,1030.4755)"
       sodipodi:start="0"
       sodipodi:end="0.99483767" />
    <path
       sodipodi:type="arc"
       style="fill:#e74c3c;fill-opacity:1;fill-rule:nonzero;stroke:none"
       id="path3824"
       sodipodi:cx="198.5"
       sodipodi:cy="-15"
       sodipodi:rx="44"
       sodipodi:ry="44"
       d="m 154.5,-15.000002 c 0,-24.300529 19.69947,-43.999999 44,-43.999998 24.30053,10e-7 44,19.699472 44,44 l -44,0 z"
       transform="matrix(0.34090908,0,0,0.34090908,-43.670453,1030.4758)"
       sodipodi:start="3.1415927"
       sodipodi:end="6.2831853" />
    <path
       sodipodi:type="arc"
       style="fill:#ecf0f1;fill-opacity:1;fill-rule:nonzero;stroke:none"
       id="path3992"
       sodipodi:cx="13.9375"
       sodipodi:cy="17.5"
       sodipodi:rx="15.5625"
       sodipodi:ry="15.75"
       d="m 29.5,17.5 c 0,8.698485 -6.967569,15.75 -15.5625,15.75 C 5.3425686,33.25 -1.625,26.198485 -1.625,17.5 -1.625,8.8015152 5.3425686,1.75 13.9375,1.75 22.532431,1.75 29.5,8.8015152 29.5,17.5 z"
       transform="matrix(0.1686747,0,0,0.16666666,21.649097,1022.4454)" />
    <path
       style="fill:#ecf0f1;fill-opacity:1;fill-rule:nonzero;stroke:none"
       d="m 24,1021.8622 c -1.932929,0 -3.5,1.5672 -3.5,3.5 0,1.9329 1.567071,3.5 3.5,3.5 1.932929,0 3.5,-1.5671 3.5,-3.5 0,-1.9328 -1.567071,-3.5 -3.5,-3.5 z m 0,0.5833 c 1.610831,0 2.916668,1.3059 2.916668,2.9167 0,1.6108 -1.305837,2.9168 -2.916668,2.9168 -1.610831,0 -2.916668,-1.3059 -2.916668,-2.9168 0,-1.6108 1.305837,-2.9167 2.916668,-2.9167 z"
       id="path3994"
       inkscape:connector-curvature="0" />
    <g
       id="g3825"
       transform="matrix(1.1887287,0,0,1.1887287,-2.5600921,-195.26396)">
      <path
         inkscape:connector-curvature="0"
         id="path3856"
         d="m 14.016873,1036.8812 9.09134,-5.5557 -5.555856,9.0913 z"
         style="fill:#ecf0f1;fill-opacity:1;stroke:none" />
      <path
         sodipodi:end="3.1415927"
         sodipodi:start="0"
         transform="matrix(0.64649763,0.64649763,-0.64649763,0.64649763,49.377471,1030.3712)"
         d="m -16.84375,32.359375 c 0,1.510154 -1.224221,2.734375 -2.734375,2.734375 -1.510154,0 -2.734375,-1.224221 -2.734375,-2.734375 0,0 0,0 0,0 l 2.734375,0 z"
         sodipodi:ry="2.734375"
         sodipodi:rx="2.734375"
         sodipodi:cy="32.359375"
         sodipodi:cx="-19.578125"
         id="path3018"
         style="fill:#ecf0f1;fill-opacity:1;fill-rule:nonzero;stroke:none"
         sodipodi:type="arc" />
      <g
         transform="matrix(0.50507627,0.50507627,-0.50507627,0.50507627,515.23542,487.17536)"
         id="g3796">
        <path
           sodipodi:type="arc"
           style="fill:#2c3e50;fill-opacity:1;fill-rule:nonzero;stroke:none"
           id="path3992-3"
           sodipodi:cx="13.9375"
           sodipodi:cy="17.5"
           sodipodi:rx="15.5625"
           sodipodi:ry="15.75"
           d="m 29.5,17.5 c 0,8.698485 -6.967569,15.75 -15.5625,15.75 C 5.3425686,33.25 -1.625,26.198485 -1.625,17.5 -1.625,8.8015152 5.3425686,1.75 13.9375,1.75 22.532431,1.75 29.5,8.8015152 29.5,17.5 z"
           transform="matrix(0.05111698,0.05111698,-0.05050846,0.05050846,51.6715,1039.2657)" />
        <path
           style="fill:#2c3e50;fill-opacity:1;fill-rule:nonzero;stroke:none"
           d="m 52.560683,1039.8016 c -0.585775,-0.5859 -1.535619,-0.5858 -2.121354,0 -0.585769,0.5855 -0.585776,1.5356 0,2.1213 0.585775,0.5858 1.535587,0.5858 2.121354,0 0.585736,-0.5857 0.585775,-1.5357 0,-2.1213 z m -0.17677,0.1767 c 0.488163,0.4881 0.488144,1.2797 -8e-6,1.7678 -0.488156,0.4882 -1.279675,0.4883 -1.767838,10e-5 -0.488162,-0.4882 -0.488144,-1.2797 4e-5,-1.7679 0.488154,-0.4882 1.279643,-0.4882 1.767806,0 z"
           id="path3994-3"
           inkscape:connector-curvature="0" />
      </g>
    </g>
    <path
       style="fill:#ecf0f1;fill-opacity:1;fill-rule:nonzero;stroke:none"
       d="m 9,1036.8622 0,9.5 9.5,0 -9.5,-9.5 z"
       id="rect3812"
       inkscape:connector-curvature="0" />
  </g>
</svg>
