<svg xmlns="http://www.w3.org/2000/svg" width="48" height="48">
 <g transform="translate(0,-1004.3622)">
  <g transform="translate(-1.9e-6,1004.3622)">
   <path d="m 4.0000019,4.0000019 0,40.0000001 40.0000001,0 0,-40.0000001 -40.0000001,0 z m 3,3 3.0000001,0 0,3.0000001 -3.0000001,0 0,-3.0000001 z m 31.0000001,0 3,0 0,3.0000001 -3,0 0,-3.0000001 z m -31.0000001,7.5000001 3.0000001,0 0,3 -3.0000001,0 0,-3 z m 31.0000001,0 3,0 0,3 -3,0 0,-3 z m -31.0000001,8 3.0000001,0 0,3 -3.0000001,0 0,-3 z m 31.0000001,0 3,0 0,3 -3,0 0,-3 z m -31.0000001,8 3.0000001,0 0,3 -3.0000001,0 0,-3 z m 31.0000001,0 3,0 0,3 -3,0 0,-3 z m -31.0000001,7.5 3.0000001,0 0,3 -3.0000001,0 0,-3 z m 31.0000001,0 3,0 0,3 -3,0 0,-3 z" style="fill:#2c3e50"/>
   <path d="M 13 7 L 13 15 L 35 15 L 35 7 L 28.9375 7 L 28.9375 9.15625 L 28.9375 10.03125 L 28.9375 10.0625 L 24.4375 10.0625 L 24.4375 11.1875 L 26.03125 11.1875 L 26.03125 11.625 L 21.96875 11.625 L 21.96875 11.1875 L 23.5625 11.1875 L 23.5625 10.0625 L 19.0625 10.0625 L 19.0625 10.03125 L 19.0625 9.15625 L 19.0625 7 L 13 7 z M 19.5 7 L 19.5 9.15625 L 28.5 9.15625 L 28.5 7 L 19.5 7 z " transform="translate(1.9e-6,0)" style="fill:#3498db"/>
   <path d="M 13 33 L 13 41 L 19.0625 41 L 19.0625 35.46875 L 28.9375 35.46875 L 28.9375 41 L 35 41 L 35 33 L 13 33 z M 19.5 36.15625 L 19.5 41 L 28.5 41 L 28.5 36.15625 L 19.5 36.15625 z " transform="translate(1.9e-6,0)" style="fill:#3498db"/>
   <rect width="22" height="14" x="13" y="17" style="fill:#3498db"/>
   <rect width="4.232" height="4.232" x="21.884" y="20.934" style="fill:#e74c3c" rx="2.116"/>
   <path d="m 24.000002,37.815665 c -1.172329,0 -2.125,0.952672 -2.125,2.125 0,0.397621 0.123265,0.745368 0.3125,1.0625 l 3.625,0 c 0.189235,-0.317132 0.3125,-0.664879 0.3125,-1.0625 0,-1.172328 -0.952671,-2.125 -2.125,-2.125 z" style="fill:#e74c3c"/>
   <path d="m 22.250002,7 c 0.379537,0.5627134 1.017295,0.9375 1.75,0.9375 0.732705,0 1.370463,-0.3747866 1.75,-0.9375 l -3.5,0 z" style="fill:#e74c3c"/>
  </g>
  <g transform="matrix(0.79724129,0,0,0.79724129,48.990184,705.78379)">
   <path d="m 19.0625,19.5 0,6.53125 0,0.875 0,0.03125 4.5,0 0,1.125 -1.59375,0 0,0.4375 4.0625,0 0,-0.4375 -1.59375,0 0,-1.125 4.5,0 0,-0.03125 0,-0.875 0,-6.53125 -9.875,0 z m 0.4375,0.6875 9,0 0,5.84375 -9,0 0,-5.84375 z" transform="matrix(1.2543254,0,0,1.2543254,-61.449631,374.51448)" style="fill:#2c3e50"/>
  </g>
 </g>
</svg>
