<?xml version="1.0" standalone="no"?>
<!DOCTYPE svg PUBLIC "-//W3C//DTD SVG 20010904//EN" "http://www.w3.org/TR/2001/REC-SVG-20010904/DTD/svg10.dtd">
<!-- Created using Karbon, part of Calligra: http://www.calligra.org/karbon -->
<svg xmlns="http://www.w3.org/2000/svg" xmlns:xlink="http://www.w3.org/1999/xlink" width="38.4pt" height="38.4pt">
<defs/>
<g id="layer1">
  <path id="shape0" transform="matrix(0.939902 0.341445 -0.341445 0.939902 13.9729 2.6617)" fill="none" stroke="#cc00ff" stroke-width="4.99607164725" stroke-linecap="square" stroke-linejoin="miter" stroke-miterlimit="2.01260191180" d="M12.7127 20.8799C22.1842 25.9452 33.0982 20.0625 31.9179 1.44772C5.90306 -5.03797 7.07063 11.6584 0 23.9673C6.68502 27.3013 13.3299 33.0235 22.1564 30.8231"/>
  <circle id="shape1" transform="translate(23.3963, 15.3808)" r="3.88541290283pt" cx="3.88541290283pt" cy="3.88541290283pt" fill="#000000" fill-rule="evenodd" stroke="#dd22dd" stroke-opacity="0.60784313725" stroke-width="1.86484575032" stroke-linecap="square" stroke-linejoin="miter" stroke-miterlimit="2.01260185242"/>
  <path id="shape2" transform="translate(27.9093, 15.3671)" fill="#ffffff" fill-opacity="0.74117647059" fill-rule="evenodd" stroke="#dd22dd" stroke-opacity="0.60784313725" stroke-width="0.00000000000" stroke-linecap="square" stroke-linejoin="miter" stroke-miterlimit="2.01260185242" d="M3.85252 1.92626C3.85252 0.862414 2.99011 6.51417e-17 1.92626 0C0.862414 -6.51417e-17 1.30283e-16 0.862414 0 1.92626C-1.30283e-16 2.99011 0.862414 3.85252 1.92626 3.85252C2.99011 3.85252 3.85252 2.99011 3.85252 1.92626"/>
  <path id="shape3" transform="translate(24.8273, 19.9901)" fill="#ffffff" fill-opacity="0.74117647059" fill-rule="evenodd" stroke="#dd22dd" stroke-opacity="0.60784313725" stroke-width="0.00000000000" stroke-linecap="square" stroke-linejoin="miter" stroke-miterlimit="2.00000000000" d="M1.58864 0.794317C1.58864 0.355629 1.23301 2.68621e-17 0.794317 0C0.355629 -2.68621e-17 5.37241e-17 0.355629 0 0.794317C-5.37241e-17 1.23301 0.355629 1.58864 0.794317 1.58864C1.23301 1.58864 1.58864 1.23301 1.58864 0.794317"/>
 </g>
</svg>
