<?xml version="1.0" standalone="no"?>
<!DOCTYPE svg PUBLIC "-//W3C//DTD SVG 20010904//EN" "http://www.w3.org/TR/2001/REC-SVG-20010904/DTD/svg10.dtd">
<!-- Created using Karbon, part of Calligra: http://www.calligra.org/karbon -->
<svg xmlns="http://www.w3.org/2000/svg" xmlns:xlink="http://www.w3.org/1999/xlink" width="38.4pt" height="38.4pt">
<defs/>
<g id="layer1">
  <path id="shape0" transform="matrix(0.999953 0.00908242 -0.00991128 0.999945 14.3759 11.0372)" fill="#808080" fill-rule="evenodd" stroke="#9800b6" stroke-width="0.00000000000" stroke-linecap="square" stroke-linejoin="miter" stroke-miterlimit="2.01260185242" d="M20.3355 9.48217C20.1902 4.13217 15.561 -0.102369 9.97134 0.00188439C4.38176 0.106138 -0.0717312 4.51008 0.000875309 9.86144C0.0734817 15.2129 4.64495 19.5045 10.2355 19.4699C15.8259 19.4351 20.3389 15.0868 20.3389 9.73499"/>
  <path id="shape1" transform="matrix(0.975602 -0.206538 0.224406 0.971346 1.77975 14.4076)" fill="none" stroke="#d600ff" stroke-width="2.90551684450" stroke-linecap="square" stroke-linejoin="miter" stroke-miterlimit="2.01260191180" d="M9.34218 16.8516C23.0298 29.1087 32.5118 17.9368 39.9971 8.15964C20.4777 -5.66439 11.3081 -1.45791 0 17.2574C2.84416 21.1817 10.7071 30.4623 21.3216 29.6548"/>
  <path id="shape3" transform="matrix(0.999967 0.00765608 -0.0083548 0.999961 20.0548 16.3717)" fill="#000000" fill-rule="evenodd" stroke="#5c004b" stroke-opacity="0.46666666667" stroke-width="0.62468612157" stroke-linecap="square" stroke-linejoin="miter" stroke-miterlimit="2.01260185242" d="M8.70449 4.05879C8.64235 1.76875 6.66079 -0.0438185 4.26819 0.000806606C1.87559 0.0454316 -0.0307042 1.93051 0.000374672 4.22113C0.0314536 6.51174 1.98826 8.34881 4.38124 8.33392C6.77425 8.31905 8.70596 6.45782 8.70596 4.16701"/>
  <path id="shape2" transform="translate(24.6646, 16.4465)" fill="#ffffff" fill-opacity="0.72156862745" fill-rule="evenodd" stroke="#9800b6" stroke-width="0.00000000000" stroke-linecap="square" stroke-linejoin="miter" stroke-miterlimit="2.00000000000" d="M4.0404 1.88397C4.01155 0.821001 3.09177 -0.0203391 1.98117 0.000374397C0.870601 0.0210881 -0.0142521 0.896084 0.000173913 1.95934C0.0145999 3.02258 0.922895 3.87527 2.03366 3.86835C3.14444 3.86146 4.04108 2.99754 4.04108 1.9342"/>
  <path id="shape21" transform="translate(21.3021, 23.2273)" fill="#ffffff" fill-opacity="0.72156862745" fill-rule="evenodd" stroke="#9800b6" stroke-width="0.00000000000" stroke-linecap="square" stroke-linejoin="miter" stroke-miterlimit="2.00000000000" d="M1.9177 0.89774C1.90399 0.391219 1.46744 -0.00969189 0.940322 0.000178406C0.413212 0.0100488 -0.00676448 0.426999 8.25448e-05 0.93365C0.00692958 1.4403 0.438034 1.84663 0.965236 1.84332C1.49244 1.84005 1.91801 1.42838 1.91801 0.921678"/>
 </g>
</svg>
