<?xml version="1.0" standalone="no"?>
<!DOCTYPE svg PUBLIC "-//W3C//DTD SVG 20010904//EN" "http://www.w3.org/TR/2001/REC-SVG-20010904/DTD/svg10.dtd">
<!-- Created using Karbon, part of Calligra: http://www.calligra.org/karbon -->
<svg xmlns="http://www.w3.org/2000/svg" xmlns:xlink="http://www.w3.org/1999/xlink" width="38.4pt" height="38.4pt">
<defs/>
<g id="layer1">
  <path id="shape0" transform="translate(4.00394, 4.00394)" fill="none" stroke="#dd22dd" stroke-width="6.23764860129" stroke-linecap="square" stroke-linejoin="miter" stroke-miterlimit="2.01260185242" d="M14.4492 25.9048C27.6712 30.0099 36.2368 25.1221 40.004 0.332459C10.3544 -2.39255 3.32383 11.8719 0 34.3883C9.9791 34.6576 22.8025 45.4775 35.5259 34.9986"/>
  <circle id="shape1" transform="translate(20.8741, 13.3334)" r="4.25197587000pt" cx="4.25197587000pt" cy="4.25197587000pt" fill="#000000" fill-rule="evenodd" stroke="#dd22dd" stroke-opacity="0.60784313725" stroke-width="1.86484575032" stroke-linecap="square" stroke-linejoin="miter" stroke-miterlimit="2.01260185242"/>
  <path id="shape2" transform="translate(25.729, 12.1304)" fill="#ffffff" fill-opacity="0.74117647059" fill-rule="evenodd" stroke="#dd22dd" stroke-opacity="0.60784313725" stroke-width="0.00000000000" stroke-linecap="square" stroke-linejoin="miter" stroke-miterlimit="2.01260185242" d="M5.15561 2.57781C5.15561 1.15412 4.00149 8.71755e-17 2.57781 0C1.15412 -8.71755e-17 1.74351e-16 1.15412 0 2.57781C-1.74351e-16 4.00149 1.15412 5.15561 2.57781 5.15561C4.00149 5.15561 5.15561 4.00149 5.15561 2.57781"/>
  <path id="shape3" transform="translate(21.6045, 18.3172)" fill="#ffffff" fill-opacity="0.74117647059" fill-rule="evenodd" stroke="#dd22dd" stroke-opacity="0.60784313725" stroke-width="0.00000000000" stroke-linecap="square" stroke-linejoin="miter" stroke-miterlimit="2.00000000000" d="M2.12599 1.06299C2.12599 0.475919 1.65007 3.5948e-17 1.06299 0C0.475919 -3.5948e-17 7.1896e-17 0.475919 0 1.06299C-7.1896e-17 1.65007 0.475919 2.12599 1.06299 2.12599C1.65007 2.12599 2.12599 1.65007 2.12599 1.06299"/>
 </g>
</svg>
