<?xml version="1.0" standalone="no"?>
<!DOCTYPE svg PUBLIC "-//W3C//DTD SVG 20010904//EN" "http://www.w3.org/TR/2001/REC-SVG-20010904/DTD/svg10.dtd">
<!-- Created using Karbon, part of Calligra: http://www.calligra.org/karbon -->
<svg xmlns="http://www.w3.org/2000/svg" xmlns:xlink="http://www.w3.org/1999/xlink" width="38.4pt" height="38.4pt">
<defs/>
<g id="layer1">
  <path id="shape0" transform="translate(12.1335, 12.9964)" fill="#333333" fill-rule="evenodd" stroke="#003bc3" stroke-width="0.00000000000" stroke-linecap="square" stroke-linejoin="miter" stroke-miterlimit="2.00000000000" d="M22.9841 11.3091C22.8829 4.98062 17.684 -0.074989 11.3551 0.000842021C5.02616 0.0766729 -0.0501803 5.2554 0.000374343 11.5846C0.050929 17.9137 5.20935 23.0107 11.5386 22.9854C17.868 22.9601 22.9855 17.8221 22.9855 11.4927"/>
  <path id="shape1" transform="translate(14.051, 14.9322)" fill="#e749ff" fill-opacity="0.40000000000" fill-rule="evenodd" stroke="#003bc3" stroke-width="0.00000000000" stroke-linecap="square" stroke-linejoin="miter" stroke-miterlimit="2.00000000000" d="M19.3826 9.69131C19.3826 4.33893 15.0437 5.99889e-16 9.69131 0C4.33893 -5.99889e-16 5.99889e-16 4.33893 0 9.69131C-5.99889e-16 15.0437 4.33893 19.3826 9.69131 19.3826C15.0437 19.3826 19.3826 15.0437 19.3826 9.69131"/>
  <path id="shape2" transform="translate(17.4106, 18.2735)" fill="#620082" fill-opacity="0.87450980392" fill-rule="evenodd" stroke="#003bc3" stroke-width="0.00000000000" stroke-linecap="square" stroke-linejoin="miter" stroke-miterlimit="2.00000000000" d="M12.7386 6.36934C12.7386 2.85164 9.887 0 6.36934 0C2.85164 0 0 2.85164 0 6.36934C0 9.887 2.85164 12.7386 6.36934 12.7386C9.887 12.7386 12.7386 9.887 12.7386 6.36934"/>
  <path id="shape3" transform="translate(19.5927, 20.4494)" fill="#2c0053" fill-rule="evenodd" stroke="#003bc3" stroke-width="0.00000000000" stroke-linecap="square" stroke-linejoin="miter" stroke-miterlimit="2.00000000000" d="M8.02174 4.01089C8.02174 1.79573 6.22602 0 4.01089 0C1.79573 0 0 1.79573 0 4.01089C0 6.22602 1.79573 8.02174 4.01089 8.02174C6.22602 8.02174 8.02174 6.22602 8.02174 4.01089"/>
  <path id="shape4" transform="translate(24.2611, 19.7638)" fill="#ffffff" fill-opacity="0.64313725490" fill-rule="evenodd" stroke="#003bc3" stroke-width="0.00000000000" stroke-linecap="square" stroke-linejoin="miter" stroke-miterlimit="2.00000000000" d="M3.35278 2.45366C3.74849 1.60681 3.3531 0.585671 2.46966 0.172863C1.58622 -0.239942 0.549276 0.111916 0.15357 0.958762C-0.242139 1.80561 0.153245 2.82675 1.03668 3.23955C1.92013 3.65236 2.95708 3.30051 3.35278 2.45366"/>
  <path id="shape41" transform="translate(20.2151, 25.9153)" fill="#ffffff" fill-opacity="0.36470588235" fill-rule="evenodd" stroke="#003bc3" stroke-width="0.00000000000" stroke-linecap="square" stroke-linejoin="miter" stroke-miterlimit="2.00000000000" d="M1.38655 1.48047C1.69338 1.084 1.68156 0.509116 1.36015 0.196432C1.03874 -0.116252 0.529446 -0.0483307 0.222613 0.348139C-0.0842232 0.744609 -0.072403 1.31949 0.249009 1.63218C0.570422 1.94486 1.07972 1.87694 1.38655 1.48047"/>
  <path id="shape01" transform="translate(2.43038, 6.64433)" fill="#d600ff" fill-rule="evenodd" stroke="#9800b6" stroke-width="0.00000000000" stroke-linecap="square" stroke-linejoin="bevel" d="M0 31.0874C6.47954 9.10261 20.0159 0.928185 41.3165 3.5025C21.4876 -3.41207 0.480575 -2.8161 0.0607595 30.9659C22.5209 39.2886 37.9083 21.9585 41.3165 3.5025C43.145 26.0304 31.2171 44.233 0 31.0874Z"/>
 </g>
</svg>
