<?xml version="1.0" standalone="no"?>
<!DOCTYPE svg PUBLIC "-//W3C//DTD SVG 20010904//EN" "http://www.w3.org/TR/2001/REC-SVG-20010904/DTD/svg10.dtd">
<!-- Created using Karbon, part of Calligra: http://www.calligra.org/karbon -->
<svg xmlns="http://www.w3.org/2000/svg" xmlns:xlink="http://www.w3.org/1999/xlink" width="38.4pt" height="38.4pt">
<defs/>
<g id="layer1">
  <path id="shape0" transform="matrix(0.999955 0.00948786 -0.00948786 0.999955 15.8229 10.7237)" fill="#816087" fill-opacity="0.80000000000" fill-rule="evenodd" stroke="#9800b6" stroke-width="0.00000000000" stroke-linecap="square" stroke-linejoin="miter" stroke-miterlimit="2.01260185242" d="M17.8306 8.68524C17.7033 3.78488 13.6442 -0.0937652 8.7431 0.00172601C3.84203 0.0972173 -0.0628955 4.13103 0.000767489 9.03263C0.0644305 13.9343 4.0728 17.8652 8.97471 17.8335C13.8766 17.8016 17.8336 13.8188 17.8336 8.91682"/>
  <path id="shape1" transform="matrix(0.976408 -0.215936 0.215936 0.976408 0.0603024 14.2915)" fill="none" stroke="#d600ff" stroke-width="3.54331326000" stroke-linecap="square" stroke-linejoin="miter" stroke-miterlimit="2.01260185242" d="M10.0828 15.5862C23.9645 28.2643 35.0549 16.4913 43.0199 7.45271C22.2493 -5.32709 12.0329 -1.1777 0 16.1239C3.02646 19.7517 12.8041 29.2942 24.5038 28.2697"/>
  <path id="shape3" transform="matrix(0.999968 0.00799785 -0.00799785 0.999968 20.8024 15.6099)" fill="#202020" fill-rule="evenodd" stroke="#9800b6" stroke-width="0.00000000000" stroke-linecap="square" stroke-linejoin="miter" stroke-miterlimit="2.00000000000" d="M7.6323 3.71768C7.57781 1.6201 5.84033 -0.0401358 3.74245 0.000738814C1.64456 0.0416134 -0.0269222 1.76827 0.000328522 3.86638C0.0275792 5.96448 1.74335 7.64715 3.84158 7.63352C5.93982 7.61989 7.63359 5.91509 7.63359 3.81681"/>
  <path id="shape2" transform="translate(25.9297, 14.7136)" fill="#ffffff" fill-opacity="0.61960784314" fill-rule="evenodd" stroke="#9800b6" stroke-width="0.00000000000" stroke-linecap="square" stroke-linejoin="miter" stroke-miterlimit="2.00000000000" d="M3.54273 1.72565C3.51742 0.752008 2.71094 -0.0186299 1.73714 0.000342934C0.763364 0.0193159 -0.0124966 0.820781 0.000152493 1.79468C0.0128016 2.76857 0.809217 3.54961 1.78316 3.54327C2.75712 3.53696 3.54331 2.74564 3.54331 1.77166"/>
 </g>
</svg>
