<?xml version="1.0" standalone="no"?>
<!DOCTYPE svg PUBLIC "-//W3C//DTD SVG 20010904//EN" "http://www.w3.org/TR/2001/REC-SVG-20010904/DTD/svg10.dtd">
<!-- Created using Karbon, part of Calligra: http://www.calligra.org/karbon -->
<svg xmlns="http://www.w3.org/2000/svg" xmlns:xlink="http://www.w3.org/1999/xlink" width="38.4pt" height="38.4pt">
<defs/>
<g id="layer1">
  <path id="shape0" transform="matrix(0.999953 0.00908242 -0.00991128 0.999945 17.1064 13.8512)" fill="#595959" fill-rule="evenodd" stroke="#9800b6" stroke-width="0.00000000000" stroke-linecap="square" stroke-linejoin="miter" stroke-miterlimit="2.01260185242" d="M14.8215 6.91106C14.7156 3.01172 11.3416 -0.0746113 7.26759 0.00137343C3.19364 0.0773582 -0.0522811 3.28716 0.000637965 7.18749C0.053557 11.0879 3.38546 14.2158 7.46011 14.1906C11.5347 14.1652 14.824 10.996 14.824 7.09533"/>
  <path id="shape1" transform="matrix(0.975602 -0.206538 0.224406 0.971346 4.00394 16.6902)" fill="none" stroke="#d600ff" stroke-width="2.90551684450" stroke-linecap="square" stroke-linejoin="miter" stroke-miterlimit="2.01260191180" d="M8.38811 12.4668C19.9366 22.6076 29.1629 13.1908 35.7892 5.96115C18.5097 -4.26095 10.0104 -0.942 0 12.8969C2.51778 15.7987 10.652 23.4314 20.3853 22.6119"/>
  <path id="shape3" transform="matrix(0.999967 0.00765608 -0.0083548 0.999961 21.2455 17.7392)" fill="#000000" fill-rule="evenodd" stroke="#5c004b" stroke-opacity="0.46666666667" stroke-width="0.62468612157" stroke-linecap="square" stroke-linejoin="miter" stroke-miterlimit="2.01260185242" d="M6.34425 2.95824C6.29896 1.28915 4.8547 -0.031937 3.11086 0.000587891C1.36702 0.0331127 -0.0223787 1.40705 0.00027308 3.07656C0.0229249 4.74607 1.44914 6.08501 3.19326 6.07416C4.9374 6.06332 6.34532 4.70677 6.34532 3.03712"/>
  <path id="shape2" transform="matrix(1 0 0 1 24.6053 17.7937)" fill="#ffffff" fill-opacity="0.72156862745" fill-rule="evenodd" stroke="#9800b6" stroke-width="0.00000000000" stroke-linecap="square" stroke-linejoin="miter" stroke-miterlimit="2.00000000000" d="M2.94484 1.37313C2.92381 0.598385 2.25343 -0.0148241 1.44397 0.000272879C0.634536 0.01537 -0.0103876 0.653109 0.000126756 1.42806C0.0106411 2.203 0.67265 2.82448 1.48223 2.81944C2.29182 2.81442 2.94533 2.18475 2.94533 1.40974"/>
  <path id="shape21" transform="matrix(1 0 0 1 22.1546 22.7359)" fill="#ffffff" fill-opacity="0.72156862745" fill-rule="evenodd" stroke="#9800b6" stroke-width="0.00000000000" stroke-linecap="square" stroke-linejoin="miter" stroke-miterlimit="2.00000000000" d="M1.39771 0.654316C1.38772 0.285139 1.06954 -0.00706391 0.685352 0.000130031C0.301169 0.00732402 -0.00493028 0.311217 6.01624e-05 0.680489C0.00505061 1.04976 0.31926 1.34591 0.70351 1.3435C1.08776 1.34112 1.39794 1.04107 1.39794 0.671763"/>
 </g>
</svg>
