<?xml version="1.0" standalone="no"?>
<!DOCTYPE svg PUBLIC "-//W3C//DTD SVG 20010904//EN" "http://www.w3.org/TR/2001/REC-SVG-20010904/DTD/svg10.dtd">
<!-- Created using Karbon, part of Calligra: http://www.calligra.org/karbon -->
<svg xmlns="http://www.w3.org/2000/svg" xmlns:xlink="http://www.w3.org/1999/xlink" width="38.4pt" height="38.4pt">
<defs/>
<g id="layer1">
  <path id="shape0" transform="matrix(0.999955 0.00948786 -0.00948786 0.999955 15.8229 10.7237)" fill="#343a57" fill-rule="evenodd" stroke="#9800b6" stroke-width="0.00000000000" stroke-linecap="square" stroke-linejoin="miter" stroke-miterlimit="2.01260185242" d="M17.8306 8.68524C17.7033 3.78488 13.6442 -0.0937652 8.7431 0.00172601C3.84203 0.0972173 -0.0628955 4.13103 0.000767489 9.03263C0.0644305 13.9343 4.0728 17.8652 8.97471 17.8335C13.8766 17.8016 17.8336 13.8188 17.8336 8.91682"/>
  <path id="shape1" transform="matrix(0.976408 -0.215936 0.215936 0.976408 0.0603018 14.2915)" fill="none" stroke="#d600ff" stroke-width="3.54331326000" stroke-linecap="square" stroke-linejoin="miter" stroke-miterlimit="2.01260185242" d="M10.0828 15.5862C23.9645 28.2643 35.0549 16.4913 43.0199 7.45271C22.2493 -5.32709 12.0329 -1.1777 0 16.1239C3.02646 19.7517 16.2876 33.0908 30.4019 26.7332"/>
  <path id="shape3" transform="matrix(0.999968 0.00799785 -0.00799785 0.999968 20.8024 15.6099)" fill="#202020" fill-rule="evenodd" stroke="#9800b6" stroke-width="0.00000000000" stroke-linecap="square" stroke-linejoin="miter" stroke-miterlimit="2.00000000000" d="M7.6323 3.71768C7.57781 1.6201 5.84033 -0.0401358 3.74245 0.000738814C1.64456 0.0416134 -0.0269222 1.76827 0.000328522 3.86638C0.0275792 5.96448 1.74335 7.64715 3.84158 7.63352C5.93982 7.61989 7.63359 5.91509 7.63359 3.81681"/>
  <path id="shape2" transform="translate(25.4177, 14.8513)" fill="#ffffff" fill-opacity="0.45490196078" fill-rule="evenodd" stroke="#9800b6" stroke-width="0.00000000000" stroke-linecap="square" stroke-linejoin="miter" stroke-miterlimit="2.00000000000" d="M4.67199 2.3117C4.63861 1.0074 3.57506 -0.0249569 2.29087 0.000459403C1.00669 0.0258758 -0.01648 1.09953 0.0002011 2.40418C0.0168821 3.70881 1.06716 4.7551 2.35156 4.74662C3.63596 4.73816 4.67277 3.67809 4.67277 2.37334"/>
 </g>
</svg>
