<?xml version="1.0" standalone="no"?>
<!DOCTYPE svg PUBLIC "-//W3C//DTD SVG 20010904//EN" "http://www.w3.org/TR/2001/REC-SVG-20010904/DTD/svg10.dtd">
<!-- Created using Karbon, part of Calligra: http://www.calligra.org/karbon -->
<svg xmlns="http://www.w3.org/2000/svg" xmlns:xlink="http://www.w3.org/1999/xlink" width="38.4pt" height="38.4pt">
<defs/>
<g id="layer1">
  <path id="shape0" transform="matrix(0.999955 0.00948786 -0.00948786 0.999955 15.3405 10.784)" fill="#595959" fill-rule="evenodd" stroke="#9800b6" stroke-width="0.00000000000" stroke-linecap="square" stroke-linejoin="miter" stroke-miterlimit="2.01260185242" d="M17.8306 8.68524C17.7033 3.78488 13.6442 -0.0937652 8.7431 0.00172601C3.84203 0.0972173 -0.0628955 4.13103 0.000767489 9.03263C0.0644305 13.9343 4.0728 17.8652 8.97471 17.8335C13.8766 17.8016 17.8336 13.8188 17.8336 8.91682"/>
  <path id="shape1" transform="matrix(0.976408 -0.215936 0.215936 0.976408 0.361809 14.2312)" fill="none" stroke="#d600ff" stroke-width="3.54331326000" stroke-linecap="square" stroke-linejoin="miter" stroke-miterlimit="2.01260185242" d="M10.0828 15.5862C23.9645 28.2643 35.0549 16.4913 43.0199 7.45271C22.2493 -5.32709 12.0329 -1.1777 0 16.1239C3.02646 19.7517 19.2988 35.6713 34.3518 26.1863C36.0452 34.5216 15.9985 35.3388 0.173822 16.5279"/>
  <path id="shape3" transform="matrix(0.999968 0.00799785 -0.00799785 0.999968 20.6818 15.4893)" fill="#202020" fill-rule="evenodd" stroke="#9800b6" stroke-width="0.00000000000" stroke-linecap="square" stroke-linejoin="miter" stroke-miterlimit="2.00000000000" d="M7.6323 3.71768C7.57781 1.6201 5.84033 -0.0401358 3.74245 0.000738814C1.64456 0.0416134 -0.0269222 1.76827 0.000328522 3.86638C0.0275792 5.96448 1.74335 7.64715 3.84158 7.63352C5.93982 7.61989 7.63359 5.91509 7.63359 3.81681"/>
  <path id="shape2" transform="translate(26.081, 14.2483)" fill="#ffffff" fill-opacity="0.68627450980" fill-rule="evenodd" stroke="#9800b6" stroke-width="0.00000000000" stroke-linecap="square" stroke-linejoin="miter" stroke-miterlimit="2.00000000000" d="M3.04416 1.4828C3.02241 0.646179 2.32943 -0.0160082 1.49268 0.000294676C0.655937 0.0165976 -0.010738 0.705277 0.000131032 1.54212C0.011 2.37895 0.695336 3.05008 1.53222 3.04464C2.36911 3.03921 3.04467 2.35925 3.04467 1.52234"/>
 </g>
</svg>
