<?xml version="1.0" encoding="UTF-8" standalone="no"?>
<!-- Created using Karbon, part of Calligra: http://www.calligra.org/karbon -->

<svg
   xmlns:dc="http://purl.org/dc/elements/1.1/"
   xmlns:cc="http://creativecommons.org/ns#"
   xmlns:rdf="http://www.w3.org/1999/02/22-rdf-syntax-ns#"
   xmlns:svg="http://www.w3.org/2000/svg"
   xmlns="http://www.w3.org/2000/svg"
   xmlns:sodipodi="http://sodipodi.sourceforge.net/DTD/sodipodi-0.dtd"
   xmlns:inkscape="http://www.inkscape.org/namespaces/inkscape"
   width="38.4pt"
   height="38.4pt"
   id="svg2"
   version="1.1"
   inkscape:version="0.48.4 r9939"
   sodipodi:docname="help-browser.svg">
  <metadata
     id="metadata21">
    <rdf:RDF>
      <cc:Work
         rdf:about="">
        <dc:format>image/svg+xml</dc:format>
        <dc:type
           rdf:resource="http://purl.org/dc/dcmitype/StillImage" />
      </cc:Work>
    </rdf:RDF>
  </metadata>
  <sodipodi:namedview
     pagecolor="#ffffff"
     bordercolor="#666666"
     borderopacity="1"
     objecttolerance="10"
     gridtolerance="10"
     guidetolerance="10"
     inkscape:pageopacity="0"
     inkscape:pageshadow="2"
     inkscape:window-width="1920"
     inkscape:window-height="994"
     id="namedview19"
     showgrid="false"
     inkscape:zoom="17.270833"
     inkscape:cx="24"
     inkscape:cy="24"
     inkscape:window-x="-1"
     inkscape:window-y="51"
     inkscape:window-maximized="1"
     inkscape:current-layer="layer1" />
  <defs
     id="defs4" />
  <g
     id="layer1"
     transform="translate(-0.60869743,-0.66512645)">
    <rect
       id="rect3282"
       width="40.000038"
       height="40.000038"
       rx="20.000019"
       ry="20.000019"
       x="4.6948133"
       y="4.1157322"
       style="fill:#34495e;fill-rule:evenodd" />
    <rect
       id="rect3262"
       transform="matrix(3.54331,0,0,3.54331,0,22)"
       width="1.1288891"
       height="1.1288891"
       rx="0.56444448"
       ry="0.56444448"
       x="0"
       y="0"
       style="fill:none" />
    <rect
       id="rect3264"
       transform="matrix(3.54331,0,0,3.54331,44,22)"
       width="1.1288891"
       height="1.1288891"
       rx="0.56444448"
       ry="0.56444448"
       x="0"
       y="0"
       style="fill:none" />
    <rect
       id="rect3266"
       transform="matrix(0,3.54331,-3.54331,0,26,0)"
       width="1.1288891"
       height="1.1288891"
       rx="0.56444448"
       ry="0.56444448"
       x="0"
       y="0"
       style="fill:none" />
    <rect
       id="rect3268"
       transform="matrix(0,3.54331,-3.54331,0,26,44)"
       width="1.1288891"
       height="1.1288891"
       rx="0.56444448"
       ry="0.56444448"
       x="0"
       y="0"
       style="fill:none" />
    <rect
       id="rect3270"
       transform="matrix(3.54331,0,0,3.54331,9,9.00004)"
       width="8.4666672"
       height="8.4666672"
       x="0"
       y="0"
       style="fill:none" />
    <rect
       id="rect3284"
       transform="matrix(3.54331,0,0,3.54331,9,18.5)"
       width="8.4666672"
       height="3.1044445"
       x="0"
       y="0"
       style="fill:none" />
    <rect
       id="rect3299"
       transform="matrix(3.54331,0,0,3.54331,9,22.4999)"
       width="0.84666669"
       height="0.84666669"
       rx="0.42333335"
       ry="0.42333335"
       x="0"
       y="0"
       style="fill:none" />
    <rect
       id="rect3301"
       transform="matrix(3.54331,0,0,3.54331,36,22.4999)"
       width="0.84666669"
       height="0.84666669"
       rx="0.42333335"
       ry="0.42333335"
       x="0"
       y="0"
       style="fill:none" />
    <text
       id="text2994"
       font-size="28.04295730591pt"
       x="17.206797"
       y="36.548737"
       transform="scale(0.99191597,1.0081499)"
       style="font-size:35.05369949px;fill:#ffffff;font-family:Roboto">
      <tspan
         x="17.206797"
         y="36.548767"
         id="tspan17">?</tspan>
    </text>
  </g>
</svg>
