<?xml version="1.0" standalone="no"?>
<!DOCTYPE svg PUBLIC "-//W3C//DTD SVG 20010904//EN" "http://www.w3.org/TR/2001/REC-SVG-20010904/DTD/svg10.dtd">
<!-- Created using Karbon, part of Calligra: http://www.calligra.org/karbon -->
<svg xmlns="http://www.w3.org/2000/svg" xmlns:xlink="http://www.w3.org/1999/xlink" width="38.4pt" height="38.4pt">
<defs/>
<g id="layer1">
  <path id="shape0" transform="translate(4.00382, 4.00369)" fill="#34495e" fill-rule="evenodd" stroke="#003bc3" stroke-width="0.00000000000" stroke-linecap="square" stroke-linejoin="miter" stroke-miterlimit="2.01260185242" d="M39.9802 19.0241C39.4446 8.08583 30.2124 -0.388014 19.2684 0.0137125C8.32437 0.415439 -0.261751 9.54336 0.00609995 20.4915C0.273951 31.4396 9.29618 40.1367 20.2467 40.0028C31.1973 39.8688 40.0041 30.9536 40.0041 20.0023"/>
  <g id="g846" transform="translate(14.213, 8.67879)" fill="none">
   <path id="path829" transform="translate(0.625, 0.625)" fill="#fffddb" d="M9.21601 24C10.9127 24 12.2881 25.3429 12.2881 27C12.2881 28.6571 10.9127 30 9.21601 30C7.51941 30 6.14402 28.6571 6.14402 27C6.14402 25.3429 7.51941 24 9.21601 24ZM9.83043 0C15.2596 0 19.6608 3.4293 19.6608 8.4C19.6608 10.2 18.432 13.2 15.9745 14.4C13.5168 15.6 12.2881 17.2115 12.2881 19.2L12.2881 21.6L6.14402 21.6L6.14402 19.8C6.14402 15.7189 9.83043 13.2 11.0592 12C13.5168 9.6 13.5168 9.267 13.5168 8.4C13.5168 6.4115 11.8663 4.8 9.83043 4.8C7.79445 4.8 6.14402 6.4115 6.14402 8.4L6.14402 10.2L0 10.2L0 9C1.024e-06 4.0293 4.40125 0 9.83043 0Z"/>
  </g>
 </g>
</svg>
