<svg xmlns="http://www.w3.org/2000/svg" width="48" height="48">
 <rect width="40" height="40" x="4" y="4" style="fill:#ecf0f1" rx="20"/>
 <rect y="7" x="7" height="34" width="34" style="fill:#3498db" rx="17"/>
 <path d="m 23.593756,30.000001 c 1.121879,0 2.03131,0.895265 2.03131,2 0,1.104735 -0.909431,2 -2.03131,2 -1.121815,0 -2.03124,-0.895265 -2.03124,-2 0,-1.104735 0.909425,-2 2.03124,-2 z m 0.406265,-16 c 3.589843,0 6.49998,2.2862 6.49998,5.6 0,1.2 -0.8125,3.2 -2.437435,4 -1.625065,0.8 -2.4375,1.874335 -2.4375,3.2 l 0,1.6 -4.06255,0 0,-1.2 c 0,-2.720735 2.437505,-4.4 3.249985,-5.2 1.625,-1.6 1.625,-1.822 1.625,-2.4 0,-1.325665 -1.091336,-2.4 -2.43748,-2.4 -1.346219,0 -2.437505,1.074335 -2.437505,2.4 l 0,1.2 -4.062515,0 0,-0.8 c 10e-7,-3.3138 2.910167,-6 6.50002,-6 z" style="fill:#ecf0f1"/>
</svg>
