<?xml version="1.0" standalone="no"?>
<!DOCTYPE svg PUBLIC "-//W3C//DTD SVG 20010904//EN" "http://www.w3.org/TR/2001/REC-SVG-20010904/DTD/svg10.dtd">
<!-- Created using Karbon, part of Calligra: http://www.calligra.org/karbon -->
<svg xmlns="http://www.w3.org/2000/svg" xmlns:xlink="http://www.w3.org/1999/xlink" width="38.4pt" height="38.4pt">
<defs/>
<g id="layer1">
  <rect id="rect3282" transform="matrix(3.54331 0 0 3.54331 4 3.99993)" fill="#34495e" fill-rule="evenodd" width="9.03111200000pt" height="9.03111200000pt" rx="4.51555600000pt" ry="4.51555600000pt"/>
  <rect id="rect3262" transform="matrix(3.54331 0 0 3.54331 5.55112e-16 22)" fill="none" width="0.90311120000pt" height="0.90311120000pt" rx="0.45155558400pt" ry="0.45155558400pt"/>
  <rect id="rect3264" transform="matrix(3.54331 0 0 3.54331 44 22)" fill="none" width="0.90311120000pt" height="0.90311120000pt" rx="0.45155558400pt" ry="0.45155558400pt"/>
  <rect id="rect3266" transform="matrix(0 3.54331 -3.54331 0 26 5.55112e-16)" fill="none" width="0.90311120000pt" height="0.90311120000pt" rx="0.45155558400pt" ry="0.45155558400pt"/>
  <rect id="rect3268" transform="matrix(0 3.54331 -3.54331 0 26 44)" fill="none" width="0.90311120000pt" height="0.90311120000pt" rx="0.45155558400pt" ry="0.45155558400pt"/>
  <rect id="rect3270" transform="matrix(3.54331 0 0 3.54331 9 9.00004)" fill="none" width="6.77333376000pt" height="6.77333376000pt"/>
  <rect id="rect3284" transform="matrix(3.54331 0 0 3.54331 9 18.5)" fill="none" width="6.77333376000pt" height="2.48355544000pt"/>
  <rect id="rect3299" transform="matrix(3.54331 0 0 3.54331 9 22.4999)" fill="none" width="0.67733335200pt" height="0.67733335200pt" rx="0.33866667600pt" ry="0.33866667600pt"/>
  <rect id="rect3301" transform="matrix(3.54331 0 0 3.54331 36 22.4999)" fill="none" width="0.67733335200pt" height="0.67733335200pt" rx="0.33866667600pt" ry="0.33866667600pt"/>
  <text id="shape0" fill="#ffffff" font-family="Roboto" font-size="22.00000000000pt" x="0.00000000000pt" y="15.85937500000pt" transform="matrix(1.26873 0 0 1.26873 16.6027 11.9306)"><tspan x="0"  y="19.8242">?</tspan></text>
 </g>
</svg>
