<?xml version="1.0" standalone="no"?>
<!DOCTYPE svg PUBLIC "-//W3C//DTD SVG 20010904//EN" "http://www.w3.org/TR/2001/REC-SVG-20010904/DTD/svg10.dtd">
<!-- Created using Karbon, part of Calligra: http://www.calligra.org/karbon -->
<svg xmlns="http://www.w3.org/2000/svg" xmlns:xlink="http://www.w3.org/1999/xlink" width="38.4pt" height="38.4pt">
<defs/>
<g id="layer1">
  <rect id="rect4077" transform="matrix(0.707107 0.707107 -0.707107 0.707107 24.0021 3.89107)" fill="#3498db" width="22.69040106947pt" height="22.69040106947pt"/>
  <path id="shape0" transform="translate(24, 23.9439)" fill="#2980b9" fill-rule="evenodd" stroke="#000000" stroke-width="0.00000000000" d="M0 0.00801068L20.0587 0L0 20.0507Z"/>
  <path id="path17" transform="translate(12.4598, 6.05511)" fill="#f2f2f2" stroke="#003bc3" stroke-width="0.00000000000" stroke-linecap="butt" stroke-linejoin="miter" stroke-miterlimit="2.00000000000" d="M8.77099 0C8.77099 0 0 0.832327 0 0.832327C0 0.832327 0 36.4925 0 36.4925C0 36.4925 8.67728 35.1977 8.67728 35.1977C8.67728 35.1977 8.67728 19.9941 8.67728 19.9941C8.67728 19.9941 20.3532 36.8626 20.3532 36.8626C20.3532 36.8626 29.499 33.9955 29.499 33.9955C29.499 33.9955 17.5419 17.7746 17.5419 17.7746C17.5419 17.7746 29.5928 2.47847 29.5928 2.47847C29.5928 2.47847 20.2596 0.369921 20.2596 0.369921C20.2596 0.369921 8.67728 15.6661 8.67728 15.6661C8.67728 15.6661 8.77099 3.60097e-15 8.77099 3.60097e-15C8.77099 3.60097e-15 8.77099 0 8.77099 0Z"/>
 </g>
</svg>
