<?xml version="1.0" standalone="no"?>
<!DOCTYPE svg PUBLIC "-//W3C//DTD SVG 20010904//EN" "http://www.w3.org/TR/2001/REC-SVG-20010904/DTD/svg10.dtd">
<!-- Created using Karbon, part of Calligra: http://www.calligra.org/karbon -->
<svg xmlns="http://www.w3.org/2000/svg" xmlns:xlink="http://www.w3.org/1999/xlink" width="38.4pt" height="38.4pt">
<defs/>
<g id="layer1">
  <path id="rect3300" transform="matrix(8.88178e-16 -1 1 8.88178e-16 3.81909 38.8141)" fill="#76bd74" d="M0 0L0 41.8287L31.2764 41.8287L31.2764 0Z"/>
  <rect id="rect3345" transform="matrix(8.88178e-16 -1 1 8.88178e-16 43.5568 34.9045)" fill="#f1cb6d" fill-rule="evenodd" width="1.25105487638pt" height="1.67314824280pt"/>
  <rect id="rect3589" transform="matrix(8.88178e-16 -1 1 8.88178e-16 40.4192 32.5588)" fill="#f1cb6d" fill-rule="evenodd" width="1.25105487638pt" height="4.18322799147pt"/>
  <rect id="rect3595" transform="matrix(8.88178e-16 -1 1 8.88178e-16 40.4192 30.2131)" fill="#f1cb6d" fill-rule="evenodd" width="1.25105487638pt" height="4.18322799147pt"/>
  <rect id="rect3611" transform="matrix(8.88178e-16 -1 1 8.88178e-16 40.4192 27.8673)" fill="#f1cb6d" fill-rule="evenodd" width="1.25105487638pt" height="4.18322799147pt"/>
  <rect id="rect3628" transform="matrix(8.88178e-16 -1 1 8.88178e-16 40.4192 25.5216)" fill="#f1cb6d" fill-rule="evenodd" width="1.25105487638pt" height="4.18322799147pt"/>
  <rect id="rect3634" transform="matrix(8.88178e-16 -1 1 8.88178e-16 40.4192 23.1759)" fill="#f1cb6d" fill-rule="evenodd" width="1.25105487638pt" height="4.18322799147pt"/>
  <rect id="rect3640" transform="matrix(8.88178e-16 -1 1 8.88178e-16 40.4192 20.8301)" fill="#f1cb6d" fill-rule="evenodd" width="1.25105487638pt" height="4.18322799147pt"/>
  <rect id="rect3646" transform="matrix(8.88178e-16 -1 1 8.88178e-16 40.4192 18.4844)" fill="#f1cb6d" fill-rule="evenodd" width="1.25105487638pt" height="4.18322799147pt"/>
  <rect id="rect36461" transform="matrix(0 -1 1 0 40.4031 13.645)" fill="#f1cb6d" fill-rule="evenodd" width="1.25105487638pt" height="4.18322799147pt"/>
  <rect id="rect36462" transform="matrix(0 -1 1 0 40.4031 11.1538)" fill="#f1cb6d" fill-rule="evenodd" width="1.25105487638pt" height="4.18322799147pt"/>
  <rect id="rect33451" transform="matrix(0 -1 1 0 43.5774 37.204)" fill="#f1cb6d" fill-rule="evenodd" width="1.25105487638pt" height="1.67314824280pt"/>
  <rect id="rect33452" transform="matrix(0 -1 1 0 16.6829 14.4704)" fill="#e6e6e6" fill-rule="evenodd" width="1.25105487638pt" height="1.67314824280pt"/>
  <rect id="rect33453" transform="matrix(0 -1 1 0 16.6829 16.9427)" fill="#e6e6e6" fill-rule="evenodd" width="1.25105487638pt" height="1.67314824280pt"/>
  <rect id="rect33454" transform="matrix(0 -1 1 0 16.6829 19.3246)" fill="#e6e6e6" fill-rule="evenodd" width="1.25105487638pt" height="1.67314824280pt"/>
  <rect id="rect33455" transform="matrix(0 -1 1 0 16.6829 21.797)" fill="#e6e6e6" fill-rule="evenodd" width="1.25105487638pt" height="1.67314824280pt"/>
  <rect id="rect33456" transform="matrix(0 -1 1 0 7.39649 14.5457)" fill="#e6e6e6" fill-rule="evenodd" width="1.25105487638pt" height="1.67314824280pt"/>
  <rect id="rect33457" transform="matrix(0 -1 1 0 7.39649 17.0181)" fill="#e6e6e6" fill-rule="evenodd" width="1.25105487638pt" height="1.67314824280pt"/>
  <rect id="rect33458" transform="matrix(0 -1 1 0 7.39649 19.4)" fill="#e6e6e6" fill-rule="evenodd" width="1.25105487638pt" height="1.67314824280pt"/>
  <rect id="rect33459" transform="matrix(0 -1 1 0 7.39649 21.8724)" fill="#e6e6e6" fill-rule="evenodd" width="1.25105487638pt" height="1.67314824280pt"/>
  <rect id="shape0" transform="translate(9.46734, 11.4573)" fill="#4c4c4c" fill-rule="evenodd" stroke="#003bc3" stroke-width="0.00000000000" stroke-linecap="square" stroke-linejoin="miter" stroke-miterlimit="2.01260191180" width="5.74070351759pt" height="9.69648241206pt"/>
  <rect id="rect334510" transform="matrix(0 -1 1 0 33.688 14.2593)" fill="#e6e6e6" fill-rule="evenodd" width="1.25105487638pt" height="1.67314824280pt"/>
  <rect id="rect334511" transform="matrix(0 -1 1 0 33.688 16.7317)" fill="#e6e6e6" fill-rule="evenodd" width="1.25105487638pt" height="1.67314824280pt"/>
  <rect id="rect334512" transform="matrix(0 -1 1 0 33.688 19.1136)" fill="#e6e6e6" fill-rule="evenodd" width="1.25105487638pt" height="1.67314824280pt"/>
  <rect id="rect334513" transform="matrix(0 -1 1 0 33.688 21.5859)" fill="#e6e6e6" fill-rule="evenodd" width="1.25105487638pt" height="1.67314824280pt"/>
  <rect id="rect334514" transform="matrix(0 -1 1 0 24.4015 14.3347)" fill="#e6e6e6" fill-rule="evenodd" width="1.25105487638pt" height="1.67314824280pt"/>
  <rect id="rect334515" transform="matrix(0 -1 1 0 24.4015 16.807)" fill="#e6e6e6" fill-rule="evenodd" width="1.25105487638pt" height="1.67314824280pt"/>
  <rect id="rect334516" transform="matrix(0 -1 1 0 24.4015 19.1889)" fill="#e6e6e6" fill-rule="evenodd" width="1.25105487638pt" height="1.67314824280pt"/>
  <rect id="rect334517" transform="matrix(0 -1 1 0 24.4015 21.6613)" fill="#e6e6e6" fill-rule="evenodd" width="1.25105487638pt" height="1.67314824280pt"/>
  <rect id="shape1" transform="translate(26.4724, 11.2462)" fill="#4c4c4c" fill-rule="evenodd" stroke="#003bc3" stroke-width="0.00000000000" stroke-linecap="square" stroke-linejoin="miter" stroke-miterlimit="2.00000000000" width="5.74070351759pt" height="9.69648241206pt"/>
  <rect id="rect334518" transform="matrix(0 -1 1 0 12.5712 36.4834)" fill="#e6e6e6" fill-rule="evenodd" width="8.77909867448pt" height="0.42784691816pt"/>
  <rect id="rect334519" transform="matrix(0 -1 1 0 11.6279 34.0392)" fill="#8e7e6d" fill-rule="evenodd" width="4.79919587990pt" height="1.88964384462pt"/>
  <rect id="rect334520" transform="matrix(0 -1 1 0 16.9468 36.4344)" fill="#e6e6e6" fill-rule="evenodd" width="8.77909867448pt" height="0.42784691816pt"/>
  <rect id="rect334521" transform="matrix(0 -1 1 0 16.0035 33.9902)" fill="#8e7e6d" fill-rule="evenodd" width="4.79919587990pt" height="1.88964384462pt"/>
  <rect id="rect334522" transform="matrix(0 -1 1 0 8.18154 36.5113)" fill="#e6e6e6" fill-rule="evenodd" width="8.77909867448pt" height="0.42784691816pt"/>
  <rect id="rect334523" transform="matrix(0 -1 1 0 7.23822 34.0671)" fill="#8e7e6d" fill-rule="evenodd" width="4.79919587990pt" height="1.88964384462pt"/>
  <rect id="rect334524" transform="matrix(1 0 0 1 23.0664 27.1886)" fill="#e6e6e6" fill-rule="evenodd" width="11.21721596370pt" height="0.70136868834pt"/>
  <rect id="rect334525" transform="matrix(1 0 0 1 26.1895 25.6422)" fill="#ffbfa2" fill-rule="evenodd" width="6.13202090932pt" height="3.09768977751pt"/>
  <rect id="rect334526" transform="translate(27.7301, 25.6668)" fill="#ff6d6d" fill-rule="evenodd" width="0.69785581394pt" height="3.09768977751pt"/>
  <rect id="rect334527" transform="translate(29.6271, 25.6668)" fill="#ff6d6d" fill-rule="evenodd" width="0.69785581394pt" height="3.09768977751pt"/>
  <rect id="rect334528" transform="translate(31.6262, 25.7052)" fill="#ff6d6d" fill-rule="evenodd" width="0.69785581394pt" height="3.09768977751pt"/>
  <rect id="rect334529" transform="translate(23.0525, 32.756)" fill="#e6e6e6" fill-rule="evenodd" width="11.21721596370pt" height="0.70136868834pt"/>
  <rect id="rect334530" transform="translate(26.1755, 31.2097)" fill="#ffbfa2" fill-rule="evenodd" width="6.13202090932pt" height="3.09768977751pt"/>
  <rect id="rect334531" transform="translate(27.7161, 31.2342)" fill="#ff6d6d" fill-rule="evenodd" width="0.69785581394pt" height="3.09768977751pt"/>
  <rect id="rect334532" transform="translate(29.6132, 31.2342)" fill="#ff6d6d" fill-rule="evenodd" width="0.69785581394pt" height="3.09768977751pt"/>
  <rect id="rect334533" transform="translate(31.6123, 31.2727)" fill="#ff6d6d" fill-rule="evenodd" width="0.69785581394pt" height="3.09768977751pt"/>
 </g>
</svg>
