<?xml version="1.0" standalone="no"?>
<!DOCTYPE svg PUBLIC "-//W3C//DTD SVG 20010904//EN" "http://www.w3.org/TR/2001/REC-SVG-20010904/DTD/svg10.dtd">
<!-- Created using Karbon, part of Calligra: http://www.calligra.org/karbon -->
<svg xmlns="http://www.w3.org/2000/svg" xmlns:xlink="http://www.w3.org/1999/xlink" width="38.4pt" height="38.4pt">
<defs/>
<g id="layer1">
  <path id="rect3300" transform="matrix(8.88178e-16 -1 1 8.88178e-16 4.00394 44.008)" fill="#76bd74" d="M0 0L0 39.9839L40.004 39.9839L40.004 0Z"/>
  <rect id="rect3345" transform="matrix(8.88178e-16 -1 1 8.88178e-16 41.9891 39.0074)" fill="#f1cb6d" fill-rule="evenodd" width="1.60015881525pt" height="1.59935579960pt"/>
  <rect id="rect3589" transform="matrix(8.88178e-16 -1 1 8.88178e-16 38.9898 36.0071)" fill="#f1cb6d" fill-rule="evenodd" width="1.60015881525pt" height="3.99873112141pt"/>
  <rect id="rect3595" transform="matrix(8.88178e-16 -1 1 8.88178e-16 38.9898 33.0069)" fill="#f1cb6d" fill-rule="evenodd" width="1.60015881525pt" height="3.99873112141pt"/>
  <rect id="rect3611" transform="matrix(8.88178e-16 -1 1 8.88178e-16 38.9898 30.0065)" fill="#f1cb6d" fill-rule="evenodd" width="1.60015881525pt" height="3.99873112141pt"/>
  <rect id="rect3628" transform="matrix(8.88178e-16 -1 1 8.88178e-16 38.9898 27.0062)" fill="#f1cb6d" fill-rule="evenodd" width="1.60015881525pt" height="3.99873112141pt"/>
  <rect id="rect3634" transform="matrix(8.88178e-16 -1 1 8.88178e-16 38.9898 24.0059)" fill="#f1cb6d" fill-rule="evenodd" width="1.60015881525pt" height="3.99873112141pt"/>
  <rect id="rect3640" transform="matrix(8.88178e-16 -1 1 8.88178e-16 38.9898 21.0056)" fill="#f1cb6d" fill-rule="evenodd" width="1.60015881525pt" height="3.99873112141pt"/>
  <rect id="rect3646" transform="matrix(8.88178e-16 -1 1 8.88178e-16 38.9898 18.0053)" fill="#f1cb6d" fill-rule="evenodd" width="1.60015881525pt" height="3.99873112141pt"/>
  <rect id="rect36461" transform="matrix(0 -1 1 0 38.9745 11.8155)" fill="#f1cb6d" fill-rule="evenodd" width="1.60015881525pt" height="3.99873112141pt"/>
  <rect id="rect36462" transform="matrix(0 -1 1 0 38.9745 8.62911)" fill="#f1cb6d" fill-rule="evenodd" width="1.60015881525pt" height="3.99873112141pt"/>
  <rect id="rect33451" transform="matrix(0 -1 1 0 42.0088 41.9486)" fill="#f1cb6d" fill-rule="evenodd" width="1.60015881525pt" height="1.59935579960pt"/>
  <rect id="rect33452" transform="matrix(0 -1 1 0 16.3004 12.8712)" fill="#c4cbcf" fill-rule="evenodd" width="1.60015881525pt" height="1.59935579960pt"/>
  <rect id="rect33453" transform="matrix(0 -1 1 0 16.3004 16.0334)" fill="#c4cbcf" fill-rule="evenodd" width="1.60015881525pt" height="1.59935579960pt"/>
  <rect id="rect33454" transform="matrix(0 -1 1 0 16.3004 19.08)" fill="#c4cbcf" fill-rule="evenodd" width="1.60015881525pt" height="1.59935579960pt"/>
  <rect id="rect33455" transform="matrix(0 -1 1 0 16.3004 22.2423)" fill="#c4cbcf" fill-rule="evenodd" width="1.60015881525pt" height="1.59935579960pt"/>
  <rect id="rect33456" transform="matrix(0 -1 1 0 7.42357 12.9675)" fill="#c4cbcf" fill-rule="evenodd" width="1.60015881525pt" height="1.59935579960pt"/>
  <rect id="rect33457" transform="matrix(0 -1 1 0 7.42357 16.1298)" fill="#c4cbcf" fill-rule="evenodd" width="1.60015881525pt" height="1.59935579960pt"/>
  <rect id="rect33458" transform="matrix(0 -1 1 0 7.42357 19.1764)" fill="#c4cbcf" fill-rule="evenodd" width="1.60015881525pt" height="1.59935579960pt"/>
  <rect id="rect33459" transform="matrix(0 -1 1 0 7.42357 22.3387)" fill="#c4cbcf" fill-rule="evenodd" width="1.60015881525pt" height="1.59935579960pt"/>
  <rect id="shape0" transform="translate(9.40308, 9.0173)" fill="#435564" fill-rule="evenodd" stroke="#003bc3" stroke-width="0.00000000000" stroke-linecap="square" stroke-linejoin="miter" stroke-miterlimit="2.01260185242" width="5.48751582781pt" height="12.40226316326pt"/>
  <rect id="rect334510" transform="matrix(0 -1 1 0 32.5555 12.6012)" fill="#c4cbcf" fill-rule="evenodd" width="1.60015881525pt" height="1.59935579960pt"/>
  <rect id="rect334511" transform="matrix(0 -1 1 0 32.5555 15.7635)" fill="#c4cbcf" fill-rule="evenodd" width="1.60015881525pt" height="1.59935579960pt"/>
  <rect id="rect334512" transform="matrix(0 -1 1 0 32.5555 18.8101)" fill="#c4cbcf" fill-rule="evenodd" width="1.60015881525pt" height="1.59935579960pt"/>
  <rect id="rect334513" transform="matrix(0 -1 1 0 32.5555 21.9723)" fill="#c4cbcf" fill-rule="evenodd" width="1.60015881525pt" height="1.59935579960pt"/>
  <rect id="rect334514" transform="matrix(0 -1 1 0 23.6786 12.6976)" fill="#c4cbcf" fill-rule="evenodd" width="1.60015881525pt" height="1.59935579960pt"/>
  <rect id="rect334515" transform="matrix(0 -1 1 0 23.6786 15.8598)" fill="#c4cbcf" fill-rule="evenodd" width="1.60015881525pt" height="1.59935579960pt"/>
  <rect id="rect334516" transform="matrix(0 -1 1 0 23.6786 18.9064)" fill="#c4cbcf" fill-rule="evenodd" width="1.60015881525pt" height="1.59935579960pt"/>
  <rect id="rect334517" transform="matrix(0 -1 1 0 23.6786 22.0687)" fill="#c4cbcf" fill-rule="evenodd" width="1.60015881525pt" height="1.59935579960pt"/>
  <rect id="shape1" transform="translate(25.6582, 8.74729)" fill="#435564" fill-rule="evenodd" stroke="#003bc3" stroke-width="0.00000000000" stroke-linecap="square" stroke-linejoin="miter" stroke-miterlimit="2.00000000000" width="5.48751582781pt" height="12.40226316326pt"/>
  <rect id="rect334518" transform="matrix(0 -1 1 0 12.6127 41.0269)" fill="#c4cbcf" fill-rule="evenodd" width="11.22888563812pt" height="0.42844116276pt"/>
  <rect id="rect334519" transform="matrix(0 -1 1 0 11.6681 37.9006)" fill="#8e7e6d" fill-rule="evenodd" width="6.13840027189pt" height="1.89226840635pt"/>
  <rect id="rect334520" transform="matrix(0 -1 1 0 16.9944 40.9642)" fill="#c4cbcf" fill-rule="evenodd" width="11.22888563812pt" height="0.42844116276pt"/>
  <rect id="rect334521" transform="matrix(0 -1 1 0 16.0498 37.838)" fill="#8e7e6d" fill-rule="evenodd" width="6.13840027189pt" height="1.89226840635pt"/>
  <rect id="rect334522" transform="matrix(0 -1 1 0 8.2169 41.0626)" fill="#c4cbcf" fill-rule="evenodd" width="11.22888563812pt" height="0.42844116276pt"/>
  <rect id="rect334523" transform="matrix(0 -1 1 0 7.27228 37.9363)" fill="#8e7e6d" fill-rule="evenodd" width="6.13840027189pt" height="1.89226840635pt"/>
  <rect id="rect334524" transform="translate(23.1269, 32.4625)" fill="#c4cbcf" fill-rule="evenodd" width="10.72249245344pt" height="0.54811340093pt"/>
  <rect id="rect334525" transform="translate(26.1122, 31.254)" fill="#f3dfc6" fill-rule="evenodd" width="5.86157457762pt" height="2.42081704985pt"/>
  <rect id="rect334526" transform="translate(27.5849, 31.2732)" fill="#de6143" fill-rule="evenodd" width="0.66707761737pt" height="2.42081704985pt"/>
  <rect id="rect334527" transform="translate(29.3982, 31.2732)" fill="#de6143" fill-rule="evenodd" width="0.66707761737pt" height="2.42081704985pt"/>
  <rect id="rect334528" transform="translate(31.3092, 31.3032)" fill="#de6143" fill-rule="evenodd" width="0.66707761737pt" height="2.42081704985pt"/>
  <rect id="rect334529" transform="translate(23.1136, 38.9481)" fill="#c4cbcf" fill-rule="evenodd" width="10.72249245344pt" height="0.54811340093pt"/>
  <rect id="rect334530" transform="translate(26.0988, 37.7396)" fill="#f3dfc6" fill-rule="evenodd" width="5.86157457762pt" height="2.42081704985pt"/>
  <rect id="rect334531" transform="translate(27.5715, 37.7588)" fill="#de6143" fill-rule="evenodd" width="0.66707761737pt" height="2.42081704985pt"/>
  <rect id="rect334532" transform="translate(29.3849, 37.7588)" fill="#de6143" fill-rule="evenodd" width="0.66707761737pt" height="2.42081704985pt"/>
  <rect id="rect334533" transform="translate(31.2959, 37.7888)" fill="#de6143" fill-rule="evenodd" width="0.66707761737pt" height="2.42081704985pt"/>
 </g>
</svg>
