<svg xmlns="http://www.w3.org/2000/svg" width="48" height="48">
 <path d="m 4.0000008,44.000001 40.0000002,0 0,-40 -40.0000002,0 z" style="fill:#76bd74"/>
 <rect y="42" x="-39" transform="matrix(0,-1,1,0,0,0)" width="2" height="2" style="fill:#f1cb6d" fill-rule="evenodd"/>
 <rect y="38" x="-12" transform="matrix(0,-1,1,0,0,0)" width="2" height="6" style="fill:#f1cb6d" fill-rule="evenodd"/>
 <rect y="38" x="-9" transform="matrix(0,-1,1,0,0,0)" width="2" height="6" style="fill:#f1cb6d" fill-rule="evenodd"/>
 <rect y="42" x="-42" transform="matrix(0,-1,1,0,0,0)" width="2" height="2" style="fill:#f1cb6d" fill-rule="evenodd"/>
 <rect y="23" x="-12" transform="matrix(0,-1,1,0,0,0)" width="2" height="11" style="fill:#c4cbcf" fill-rule="evenodd"/>
 <rect y="8.75" x="-40" transform="matrix(0,-1,1,0,0,0)" width="14" height="0.5" style="fill:#c4cbcf" fill-rule="evenodd"/>
 <rect y="8" x="-36.5" transform="matrix(0,-1,1,0,0,0)" width="7" height="2" style="fill:#8e7e6d" fill-rule="evenodd"/>
 <rect y="32.25" x="23" width="11" height="0.5" style="fill:#c4cbcf" fill-rule="evenodd"/>
 <rect y="31" x="25" width="7" height="3" style="fill:#f3dfc6" fill-rule="evenodd"/>
 <rect height="6" width="2" transform="matrix(0,-1,1,0,0,0)" x="-21" y="38" style="fill:#f1cb6d" fill-rule="evenodd"/>
 <rect height="6" width="2" transform="matrix(0,-1,1,0,0,0)" x="-18" y="38" style="fill:#f1cb6d" fill-rule="evenodd"/>
 <rect y="38" x="-27" transform="matrix(0,-1,1,0,0,0)" width="2" height="6" style="fill:#f1cb6d" fill-rule="evenodd"/>
 <rect y="38" x="-24" transform="matrix(0,-1,1,0,0,0)" width="2" height="6" style="fill:#f1cb6d" fill-rule="evenodd"/>
 <rect height="6" width="2" transform="matrix(0,-1,1,0,0,0)" x="-33" y="38" style="fill:#f1cb6d" fill-rule="evenodd"/>
 <rect height="6" width="2" transform="matrix(0,-1,1,0,0,0)" x="-30" y="38" style="fill:#f1cb6d" fill-rule="evenodd"/>
 <rect y="38" x="-36" transform="matrix(0,-1,1,0,0,0)" width="2" height="6" style="fill:#f1cb6d" fill-rule="evenodd"/>
 <rect height="11" width="2" transform="matrix(0,-1,1,0,0,0)" x="-15" y="23" style="fill:#c4cbcf" fill-rule="evenodd"/>
 <rect y="23" x="-18" transform="matrix(0,-1,1,0,0,0)" width="2" height="11" style="fill:#c4cbcf" fill-rule="evenodd"/>
 <rect height="11" width="2" transform="matrix(0,-1,1,0,0,0)" x="-21" y="23" style="fill:#c4cbcf" fill-rule="evenodd"/>
 <rect y="9" x="25" width="7" height="14" style="fill:#435564" fill-rule="evenodd"/>
 <rect height="11" width="2" transform="matrix(0,-1,1,0,0,0)" x="-12" y="8" style="fill:#c4cbcf" fill-rule="evenodd"/>
 <rect y="8" x="-15" transform="matrix(0,-1,1,0,0,0)" width="2" height="11" style="fill:#c4cbcf" fill-rule="evenodd"/>
 <rect height="11" width="2" transform="matrix(0,-1,1,0,0,0)" x="-18" y="8" style="fill:#c4cbcf" fill-rule="evenodd"/>
 <rect y="8" x="-21" transform="matrix(0,-1,1,0,0,0)" width="2" height="11" style="fill:#c4cbcf" fill-rule="evenodd"/>
 <rect height="14" width="7" x="10" y="9" style="fill:#435564" fill-rule="evenodd"/>
 <rect y="31" x="28" width="1" height="3" style="fill:#de6143" fill-rule="evenodd"/>
 <rect height="3" width="1" x="26" y="31" style="fill:#de6143" fill-rule="evenodd"/>
 <rect y="31" x="30" width="1" height="3" style="fill:#de6143" fill-rule="evenodd"/>
 <rect height="0.5" width="11" x="23" y="38.25" style="fill:#c4cbcf" fill-rule="evenodd"/>
 <rect height="3" width="7" x="25" y="37" style="fill:#f3dfc6" fill-rule="evenodd"/>
 <rect height="3" width="1" x="28" y="37" style="fill:#de6143" fill-rule="evenodd"/>
 <rect y="37" x="26" width="1" height="3" style="fill:#de6143" fill-rule="evenodd"/>
 <rect height="3" width="1" x="30" y="37" style="fill:#de6143" fill-rule="evenodd"/>
 <rect height="0.5" width="14" transform="matrix(0,-1,1,0,0,0)" x="-40" y="13.25" style="fill:#c4cbcf" fill-rule="evenodd"/>
 <rect height="2" width="7" transform="matrix(0,-1,1,0,0,0)" x="-36.5" y="12.5" style="fill:#8e7e6d" fill-rule="evenodd"/>
 <rect y="17.75" x="-40" transform="matrix(0,-1,1,0,0,0)" width="14" height="0.5" style="fill:#c4cbcf" fill-rule="evenodd"/>
 <rect y="17" x="-36.5" transform="matrix(0,-1,1,0,0,0)" width="7" height="2" style="fill:#8e7e6d" fill-rule="evenodd"/>
</svg>
