<svg xmlns="http://www.w3.org/2000/svg" width="48" height="48">
 <g transform="translate(-180.23661,-689.8125)">
  <g>
   <path transform="translate(180.23661,689.8125)" d="M 2 4 L 2 44 L 46 44 L 46 15 L 35 4 L 2 4 z " style="fill:#006cff" fill-rule="evenodd"/>
   <path transform="translate(180.23661,689.8125)" d="M 5.8496094 4 L 5.8496094 5.8496094 L 2 5.8496094 L 2 6.1503906 L 5.8496094 6.1503906 L 5.8496094 11.849609 L 2 11.849609 L 2 12.150391 L 5.8496094 12.150391 L 5.8496094 17.849609 L 2 17.849609 L 2 18.150391 L 5.8496094 18.150391 L 5.8496094 23.849609 L 2 23.849609 L 2 24.150391 L 5.8496094 24.150391 L 5.8496094 29.849609 L 2 29.849609 L 2 30.150391 L 5.8496094 30.150391 L 5.8496094 35.849609 L 2 35.849609 L 2 36.150391 L 5.8496094 36.150391 L 5.8496094 41.849609 L 2 41.849609 L 2 42.150391 L 5.8496094 42.150391 L 5.8496094 44 L 6.1503906 44 L 6.1503906 42.150391 L 11.849609 42.150391 L 11.849609 44 L 12.150391 44 L 12.150391 42.150391 L 17.849609 42.150391 L 17.849609 44 L 18.150391 44 L 18.150391 42.150391 L 23.849609 42.150391 L 23.849609 44 L 24.150391 44 L 24.150391 42.150391 L 29.849609 42.150391 L 29.849609 44 L 30.150391 44 L 30.150391 42.150391 L 35.849609 42.150391 L 35.849609 44 L 36.150391 44 L 36.150391 42.150391 L 41.849609 42.150391 L 41.849609 44 L 42.150391 44 L 42.150391 42.150391 L 46 42.150391 L 46 41.849609 L 42.150391 41.849609 L 42.150391 36.150391 L 46 36.150391 L 46 35.849609 L 42.150391 35.849609 L 42.150391 30.150391 L 46 30.150391 L 46 29.849609 L 42.150391 29.849609 L 42.150391 24.150391 L 46 24.150391 L 46 23.849609 L 42.150391 23.849609 L 42.150391 18.150391 L 46 18.150391 L 46 17.849609 L 42.150391 17.849609 L 42.150391 12.150391 L 43.150391 12.150391 L 42.849609 11.849609 L 42.150391 11.849609 L 42.150391 11.150391 L 41.849609 10.849609 L 41.849609 11.849609 L 36.150391 11.849609 L 36.150391 6.1503906 L 37.150391 6.1503906 L 36.849609 5.8496094 L 36.150391 5.8496094 L 36.150391 5.1503906 L 35.849609 4.8496094 L 35.849609 5.8496094 L 30.150391 5.8496094 L 30.150391 4 L 29.849609 4 L 29.849609 5.8496094 L 24.150391 5.8496094 L 24.150391 4 L 23.849609 4 L 23.849609 5.8496094 L 18.150391 5.8496094 L 18.150391 4 L 17.849609 4 L 17.849609 5.8496094 L 12.150391 5.8496094 L 12.150391 4 L 11.849609 4 L 11.849609 5.8496094 L 6.1503906 5.8496094 L 6.1503906 4 L 5.8496094 4 z M 6.1503906 6.1503906 L 11.849609 6.1503906 L 11.849609 11.849609 L 6.1503906 11.849609 L 6.1503906 6.1503906 z M 12.150391 6.1503906 L 17.849609 6.1503906 L 17.849609 11.849609 L 12.150391 11.849609 L 12.150391 6.1503906 z M 18.150391 6.1503906 L 23.849609 6.1503906 L 23.849609 11.849609 L 18.150391 11.849609 L 18.150391 6.1503906 z M 24.150391 6.1503906 L 29.849609 6.1503906 L 29.849609 11.849609 L 24.150391 11.849609 L 24.150391 6.1503906 z M 30.150391 6.1503906 L 35.849609 6.1503906 L 35.849609 11.849609 L 30.150391 11.849609 L 30.150391 6.1503906 z M 6.1503906 12.150391 L 11.849609 12.150391 L 11.849609 17.849609 L 6.1503906 17.849609 L 6.1503906 12.150391 z M 12.150391 12.150391 L 17.849609 12.150391 L 17.849609 17.849609 L 12.150391 17.849609 L 12.150391 12.150391 z M 18.150391 12.150391 L 23.849609 12.150391 L 23.849609 17.849609 L 18.150391 17.849609 L 18.150391 12.150391 z M 24.150391 12.150391 L 29.849609 12.150391 L 29.849609 17.849609 L 24.150391 17.849609 L 24.150391 12.150391 z M 30.150391 12.150391 L 35.849609 12.150391 L 35.849609 17.849609 L 30.150391 17.849609 L 30.150391 12.150391 z M 36.150391 12.150391 L 41.849609 12.150391 L 41.849609 17.849609 L 36.150391 17.849609 L 36.150391 12.150391 z M 6.1503906 18.150391 L 11.849609 18.150391 L 11.849609 23.849609 L 6.1503906 23.849609 L 6.1503906 18.150391 z M 12.150391 18.150391 L 17.849609 18.150391 L 17.849609 23.849609 L 12.150391 23.849609 L 12.150391 18.150391 z M 18.150391 18.150391 L 23.849609 18.150391 L 23.849609 23.849609 L 18.150391 23.849609 L 18.150391 18.150391 z M 24.150391 18.150391 L 29.849609 18.150391 L 29.849609 23.849609 L 24.150391 23.849609 L 24.150391 18.150391 z M 30.150391 18.150391 L 35.849609 18.150391 L 35.849609 23.849609 L 30.150391 23.849609 L 30.150391 18.150391 z M 36.150391 18.150391 L 41.849609 18.150391 L 41.849609 23.849609 L 36.150391 23.849609 L 36.150391 18.150391 z M 6.1503906 24.150391 L 11.849609 24.150391 L 11.849609 29.849609 L 6.1503906 29.849609 L 6.1503906 24.150391 z M 12.150391 24.150391 L 17.849609 24.150391 L 17.849609 29.849609 L 12.150391 29.849609 L 12.150391 24.150391 z M 18.150391 24.150391 L 23.849609 24.150391 L 23.849609 29.849609 L 18.150391 29.849609 L 18.150391 24.150391 z M 24.150391 24.150391 L 29.849609 24.150391 L 29.849609 29.849609 L 24.150391 29.849609 L 24.150391 24.150391 z M 30.150391 24.150391 L 35.849609 24.150391 L 35.849609 29.849609 L 30.150391 29.849609 L 30.150391 24.150391 z M 36.150391 24.150391 L 41.849609 24.150391 L 41.849609 29.849609 L 36.150391 29.849609 L 36.150391 24.150391 z M 6.1503906 30.150391 L 11.849609 30.150391 L 11.849609 35.849609 L 6.1503906 35.849609 L 6.1503906 30.150391 z M 12.150391 30.150391 L 17.849609 30.150391 L 17.849609 35.849609 L 12.150391 35.849609 L 12.150391 30.150391 z M 18.150391 30.150391 L 23.849609 30.150391 L 23.849609 35.849609 L 18.150391 35.849609 L 18.150391 30.150391 z M 24.150391 30.150391 L 29.849609 30.150391 L 29.849609 35.849609 L 24.150391 35.849609 L 24.150391 30.150391 z M 30.150391 30.150391 L 35.849609 30.150391 L 35.849609 35.849609 L 30.150391 35.849609 L 30.150391 30.150391 z M 36.150391 30.150391 L 41.849609 30.150391 L 41.849609 35.849609 L 36.150391 35.849609 L 36.150391 30.150391 z M 6.1503906 36.150391 L 11.849609 36.150391 L 11.849609 41.849609 L 6.1503906 41.849609 L 6.1503906 36.150391 z M 12.150391 36.150391 L 17.849609 36.150391 L 17.849609 41.849609 L 12.150391 41.849609 L 12.150391 36.150391 z M 18.150391 36.150391 L 23.849609 36.150391 L 23.849609 41.849609 L 18.150391 41.849609 L 18.150391 36.150391 z M 24.150391 36.150391 L 29.849609 36.150391 L 29.849609 41.849609 L 24.150391 41.849609 L 24.150391 36.150391 z M 30.150391 36.150391 L 35.849609 36.150391 L 35.849609 41.849609 L 30.150391 41.849609 L 30.150391 36.150391 z M 36.150391 36.150391 L 41.849609 36.150391 L 41.849609 41.849609 L 36.150391 41.849609 L 36.150391 36.150391 z " style="fill:#2e86ff" fill-rule="evenodd"/>
   <path transform="translate(180.23661,689.8125)" d="M 8 4 L 8 8 L 4 8 L 4 9 L 8 9 L 8 39 L 4 39 L 4 40 L 8 40 L 8 44 L 9 44 L 9 40 L 39 40 L 39 44 L 40 44 L 40 40 L 44 40 L 44 39 L 40 39 L 40 9 L 39 8 L 9 8 L 9 4 L 8 4 z M 9 9 L 39 9 L 39 39 L 9 39 L 9 9 z " style="fill:#72aeff" fill-rule="evenodd"/>
   <path transform="translate(180.23661,689.8125)" d="M 35 4 L 35 15 L 46 15 L 35 4 z " style="fill:#d4e8f4" fill-rule="evenodd"/>
   <path transform="translate(180.23661,689.8125)" d="M 15 15 L 15 18 L 15 27 L 21 27 L 21 33 L 30 33 L 33 33 L 33 30 L 33 21 L 27 21 L 27 15 L 18 15 L 15 15 z M 30 15 L 30 18 L 33 18 L 33 15 L 30 15 z M 15.75 15.75 L 17.25 15.75 L 17.25 17.25 L 15.75 17.25 L 15.75 15.75 z M 30.75 15.75 L 32.25 15.75 L 32.25 17.25 L 30.75 17.25 L 30.75 15.75 z M 18 17 L 25 17 L 25 21 L 21 21 L 21 25 L 17 25 L 17 18 L 18 18 L 18 17 z M 23 23 L 25 23 L 25 25 L 23 25 L 23 23 z M 27 23 L 31 23 L 31 30 L 30 30 L 30 31 L 23 31 L 23 27 L 27 27 L 27 23 z M 15 30 L 15 33 L 18 33 L 18 30 L 15 30 z M 15.75 30.75 L 17.25 30.75 L 17.25 32.25 L 15.75 32.25 L 15.75 30.75 z M 30.75 30.75 L 32.25 30.75 L 32.25 32.25 L 30.75 32.25 L 30.75 30.75 z " style="fill:#72aeff" fill-rule="evenodd"/>
  </g>
 </g>
</svg>
