<?xml version="1.0" standalone="no"?>
<!DOCTYPE svg PUBLIC "-//W3C//DTD SVG 20010904//EN" "http://www.w3.org/TR/2001/REC-SVG-20010904/DTD/svg10.dtd">
<!-- Created using Karbon, part of Calligra: http://www.calligra.org/karbon -->
<svg xmlns="http://www.w3.org/2000/svg" xmlns:xlink="http://www.w3.org/1999/xlink" width="38.4pt" height="38.4pt">
<defs/>
<g id="layer1">
  <path id="path4064" transform="translate(4.00394, 4.00394)" fill="#000000" stroke="#482d09" stroke-width="0.00000000000" stroke-linecap="butt" stroke-linejoin="miter" stroke-miterlimit="2.00000000000" d="M20.095 0.00020771C9.08314 -0.0494249 0.10002 8.80207 0.000826801 19.8138C-0.0983672 30.8255 8.74045 39.8536 19.7511 40.0023C30.762 40.1512 39.8033 31.3866 40.0016 20.3763L40.0016 20.0013C40.0016 8.98902 31.1066 0.0497153 20.095 0.00020771ZM20.0325 17.0636C21.5928 17.0636 22.8451 18.3158 22.8451 19.8763C22.8451 21.4366 21.5928 22.7202 20.0325 22.7202C18.4721 22.7202 17.22 21.4366 17.22 19.8763C17.22 18.3158 18.4721 17.0636 20.0325 17.0636Z"/>
  <path id="shape0" transform="translate(17.9565, 17.9571)" fill="none" stroke="#ff9e22" stroke-width="4.35827526675" stroke-linecap="butt" stroke-linejoin="miter" stroke-miterlimit="2.00000000000" d="M12.0308 6.07452C12.0634 2.75242 9.39672 0.0329213 6.07462 0.000296202C2.75254 -0.0323289 0.0329802 2.63428 0.000297252 5.95638C-0.0323857 9.27847 2.63418 11.9981 5.95626 12.0308C9.27836 12.0636 11.998 9.39703 12.0308 6.07495"/>
  <path id="shape01" transform="matrix(0.989753 -0.14279 0.14279 0.989753 33.4908 29.4225)" fill="none" stroke="#ffc780" stroke-opacity="0.37647058824" stroke-width="10.59450654275" stroke-linecap="butt" stroke-linejoin="miter" stroke-miterlimit="2.00000000000" d="M0 4.17287C1.56206 2.97944 2.7933 1.56057 3.62106 0"/>
  <path id="shape1" transform="matrix(0.994023 -0.109172 0.109172 0.994023 10.3196 14.9921)" fill="none" stroke="#ffc780" stroke-opacity="0.37647058824" stroke-width="10.59450654275" stroke-linecap="butt" stroke-linejoin="miter" stroke-miterlimit="2.00000000000" d="M3.62106 0C2.059 1.19343 0.827755 2.6123 0 4.17287"/>
  <g id="g839" transform="" fill="none">
   <g id="text872" transform="" fill="none"/>
  </g>
  <path id="shape01" transform="translate(12.6424, 3.13568)" fill="#ffab41" fill-rule="evenodd" stroke="#003bc3" stroke-width="0.00000000000" stroke-linecap="square" stroke-linejoin="bevel" d="M9.60887 40.7638C-13.7156 37.3854 14.3903 15.2041 1.89028 0C8.21248 1.51034 15.81 6.23875 12.2565 15.2055C4.37725 30.1676 27.587 29.0975 18.5938 16.8241C32.7383 18.49 29.2855 43.6139 9.60887 40.7638Z"/>
  <path id="shape11" transform="translate(15.7844, 7.29648)" fill="#ff4400" fill-rule="evenodd" stroke="#003bc3" stroke-width="0.00000000000" stroke-linecap="square" stroke-linejoin="bevel" d="M9.60252 34.1307C-12.2691 33.0897 11.1744 11.3196 3.39146 0C8.25884 2.94309 9.39583 5.48137 5.80352 14.4121C1.35536 28.1262 24.5895 28.6783 18.4669 15.4372C25.9469 20.0419 19.7972 34.6159 9.60252 34.1307Z"/>
 </g>
</svg>
