<?xml version="1.0" standalone="no"?>
<!DOCTYPE svg PUBLIC "-//W3C//DTD SVG 20010904//EN" "http://www.w3.org/TR/2001/REC-SVG-20010904/DTD/svg10.dtd">
<!-- Created using Karbon, part of Calligra: http://www.calligra.org/karbon -->
<svg xmlns="http://www.w3.org/2000/svg" xmlns:xlink="http://www.w3.org/1999/xlink" width="38.4pt" height="38.4pt">
<defs/>
<g id="layer1">
  <path id="path4064" transform="matrix(1 0 0 -1 3.99998 44)" fill="#ecf0f1" d="M39.9968 19.6397C39.7984 8.63099 30.7393 -0.146907 19.7298 0.00186343C8.72026 0.150634 -0.0983534 9.17011 0.000828471 20.1802C0.10001 31.1903 9.07968 40.0494 20.0901 39.9998C31.1005 39.9502 40 31.0106 40 20"/>
  <g id="g839" transform="" fill="none">
   <g id="text872" transform="" fill="none"/>
  </g>
  <path id="path40641" transform="matrix(1 0 0 -1 17.8492 30.191)" fill="#536c72" d="M12.402 6.20101C12.402 2.77628 9.62573 2.09704e-16 6.20101 0C2.77628 -2.09704e-16 4.19407e-16 2.77628 0 6.20101C-4.19407e-16 9.62573 2.77628 12.402 6.20101 12.402C9.62573 12.402 12.402 9.62573 12.402 6.20101"/>
  <path id="shape0" transform="matrix(0.995354 -0.0962872 -0.0962872 -0.995354 23.9129 44.1388)" fill="#ffffff" fill-opacity="0.20784313725" fill-rule="evenodd" stroke="#003bc3" stroke-width="0.00000000000" stroke-linecap="square" stroke-linejoin="bevel" d="M0 0.151373L2.33371 20.0768L2.61763 0.0177226C1.69584 -0.0271437 0.871411 0.0116743 0 0.151373Z"/>
  <path id="shape1" transform="translate(21.2165, 3.98936)" fill="#ffffff" fill-opacity="0.25490196078" fill-rule="evenodd" stroke="#003bc3" stroke-width="0.00000000000" stroke-linecap="square" stroke-linejoin="bevel" d="M0 0.191008L2.84382 19.3473L3.16899 0.0112069C2.07819 -0.0322742 1.03118 0.0556222 0 0.191008Z"/>
  <path id="path40642" transform="matrix(1 0 0 -1 21.4581 26.5319)" fill="#202020" d="M5.31497 2.65748C5.31497 1.1898 4.12517 8.987e-17 2.65748 0C1.1898 -8.987e-17 1.7974e-16 1.1898 0 2.65748C-1.7974e-16 4.12517 1.1898 5.31497 2.65748 5.31497C4.12517 5.31497 5.31497 4.12517 5.31497 2.65748"/>
  <path id="shape2" transform="translate(14.8757, 7.31667)" fill="#ffe05a" fill-rule="evenodd" stroke="#003bc3" stroke-width="0.00000000000" stroke-linecap="square" stroke-linejoin="bevel" d="M10.4582 36.5034C6.24517 36.4098 0.652718 32.9113 0.0679239 29.5057C-0.51687 26.1002 2.8658 23.2523 2.89862 19.9531C2.93143 16.6539 0.140884 14.3411 0.0679239 13.121C-0.00503655 11.901 1.80995 9.57122 3.51032 9.962C3.44703 10.4655 1.73001 11.7781 2.33789 13.1734C2.94577 14.5687 6.12205 16.4285 6.66074 18.924C7.19943 21.4194 5.43589 22.8897 6.11005 24.4389C6.78421 25.9882 7.82798 25.9722 9.11759 25.2545C10.4072 24.5369 11.7236 20.2461 11.4076 16.8332C11.0916 13.4203 8.68047 12.1919 8.40125 9.83558C8.12202 7.47924 11.0321 6.05961 10.9329 3.862C10.8668 2.39692 9.98773 1.11687 8.29576 0.0218367C12.434 -0.236705 13.6191 1.85543 13.992 3.39264C14.5513 5.69847 13.0091 7.51477 13.1481 9.62224C13.287 11.7297 16.487 14.0156 16.8401 16.1932C17.1931 18.3708 15.6276 21.2606 16.1017 22.4654C16.5757 23.6703 17.2098 23.922 18.4751 23.8308C19.7403 23.7397 20.9752 22.4007 21.4287 21.1854C21.8821 19.97 19.6612 19.3102 19.6881 17.4306C19.699 16.6743 19.9523 14.658 22.589 13.6757C21.8626 15.3585 22.0278 16.539 22.167 17.2172C22.3816 18.262 24.3722 19.6389 25.4898 22.0814C27.0302 25.4476 22.8696 31.3276 20.4793 32.9619C18.089 34.5961 14.6712 36.5969 10.4582 36.5034Z"/>
  <path id="shape3" transform="translate(15.7623, 8.00118)" fill="#ff9e22" fill-rule="evenodd" stroke="#003bc3" stroke-width="0.00000000000" stroke-linecap="square" stroke-linejoin="bevel" d="M9.91312 34.4592C5.78813 34.3672 0.902356 31.741 0.380759 28.5971C-0.140837 25.4532 2.64252 22.0531 2.67464 18.8098C2.70677 15.5666 1.01292 14.5039 0.380759 13.3555C-0.251404 12.2071 -0.213587 10.8814 1.40026 10.195C1.3383 10.69 0.448266 11.2702 1.04344 12.6418C1.63861 14.0135 4.39012 15.847 4.91755 18.3001C5.44498 20.7532 3.95163 23.2001 4.6117 24.723C5.27177 26.2458 7.529 27.5185 9.30142 25.6915C11.0738 23.8645 12.1086 19.4121 11.7992 16.0572C11.4898 12.7021 9.42188 11.186 9.14849 8.86968C8.87509 6.55336 10.8768 5.47368 10.7797 3.31339C10.715 1.87319 10.7031 1.07643 9.04654 0C11.7729 0.204626 11.6889 2.00617 12.0541 3.51729C12.6016 5.78395 11.0514 6.69606 11.1875 8.76773C11.3235 10.8394 14.0533 13.8147 14.3989 15.9552C14.7447 18.0959 13.7819 21.0408 14.246 22.2252C14.7102 23.4095 15.1991 24.5068 17.7633 24.2132C20.3275 23.9196 20.225 23.165 21.1277 21.0018C22.0303 18.8385 19.5211 18.1596 19.5474 16.3121C19.5581 15.5685 19.7184 14.372 21.0767 13.8143C20.3655 15.4684 20.3286 15.8492 20.465 16.516C20.6751 17.543 22.735 19.4673 23.8293 21.8684C25.3374 25.1774 21.1232 30.1001 18.7828 31.7066C16.4425 33.3131 14.0381 34.5511 9.91312 34.4592Z"/>
 </g>
</svg>
