<?xml version="1.0" standalone="no"?>
<!DOCTYPE svg PUBLIC "-//W3C//DTD SVG 20010904//EN" "http://www.w3.org/TR/2001/REC-SVG-20010904/DTD/svg10.dtd">
<!-- Created using Karbon, part of Calligra: http://www.calligra.org/karbon -->
<svg xmlns="http://www.w3.org/2000/svg" xmlns:xlink="http://www.w3.org/1999/xlink" width="38.4pt" height="38.4pt">
<defs/>
<g id="layer1">
  <path id="path4064" transform="matrix(1 0 0 -1 3.99998 44)" fill="#b6c7ff" d="M39.9968 19.6397C39.7984 8.63099 30.7393 -0.146907 19.7298 0.00186343C8.72026 0.150634 -0.0983534 9.17011 0.000828471 20.1802C0.10001 31.1903 9.07968 40.0494 20.0901 39.9998C31.1005 39.9502 40 31.0106 40 20"/>
  <g id="g839" transform="" fill="none">
   <g id="text872" transform="" fill="none"/>
  </g>
  <path id="path40641" transform="matrix(1 0 0 -1 17.8492 30.191)" fill="#536c72" d="M12.402 6.20101C12.402 2.77628 9.62573 2.09704e-16 6.20101 0C2.77628 -2.09704e-16 4.19407e-16 2.77628 0 6.20101C-4.19407e-16 9.62573 2.77628 12.402 6.20101 12.402C9.62573 12.402 12.402 9.62573 12.402 6.20101"/>
  <path id="shape0" transform="matrix(0.995354 -0.0962872 -0.0962872 -0.995354 23.9129 44.1388)" fill="#ffffff" fill-opacity="0.20784313725" fill-rule="evenodd" stroke="#003bc3" stroke-width="0.00000000000" stroke-linecap="square" stroke-linejoin="bevel" d="M0 0.151373L2.33371 20.0768L2.61763 0.0177226C1.69584 -0.0271437 0.871411 0.0116743 0 0.151373Z"/>
  <path id="shape1" transform="translate(21.2165, 3.98936)" fill="#ffffff" fill-opacity="0.46666666667" fill-rule="evenodd" stroke="#003bc3" stroke-width="0.00000000000" stroke-linecap="square" stroke-linejoin="bevel" d="M0 0.191008L2.84382 19.3473L3.16899 0.0112069C2.07819 -0.0322742 1.03118 0.0556222 0 0.191008Z"/>
  <path id="path40642" transform="matrix(1 0 0 -1 21.4581 26.5319)" fill="#202020" d="M5.31497 2.65748C5.31497 1.1898 4.12517 8.987e-17 2.65748 0C1.1898 -8.987e-17 1.7974e-16 1.1898 0 2.65748C-1.7974e-16 4.12517 1.1898 5.31497 2.65748 5.31497C4.12517 5.31497 5.31497 4.12517 5.31497 2.65748"/>
  <path id="shape2" transform="translate(10.4322, 7.67848)" fill="#ffda39" fill-rule="evenodd" stroke="#003bc3" stroke-width="0.00000000000" stroke-linecap="square" stroke-linejoin="bevel" d="M12.3555 36.5034C7.37814 36.4098 0.771131 32.9113 0.0802463 29.5057C-0.610638 26.1002 3.3857 23.2523 3.42447 19.9531C3.46324 16.6539 0.166442 14.3411 0.0802463 13.121C-0.00595023 11.901 2.1383 9.57122 4.14714 9.962C4.07237 10.4655 2.04386 11.7781 2.76202 13.1734C3.48018 14.5687 7.23268 16.4285 7.8691 18.924C8.50551 21.4194 6.42204 22.8897 7.2185 24.4389C8.01497 25.9882 9.24809 25.9722 10.7717 25.2545C12.2952 24.5369 13.8504 20.2461 13.4771 16.8332C13.1038 13.4203 10.2552 12.1919 9.92536 9.83558C9.59548 7.47924 13.0335 6.05961 12.9163 3.862C12.8382 2.39692 11.7997 1.11687 9.80073 0.0218367C14.6897 -0.236705 16.0898 1.85543 16.5304 3.39264C17.1911 5.69847 15.3691 7.51477 15.5334 9.62224C15.6975 11.7297 19.478 14.0156 19.8951 16.1932C20.3122 18.3708 18.4627 21.2606 19.0228 22.4654C19.5828 23.6703 20.3319 23.922 21.8268 23.8308C23.3215 23.7397 24.298 23.2449 25.3162 21.1854C25.8518 20.3318 23.228 19.3102 23.2598 17.4306C23.2727 16.6743 23.5719 14.658 26.687 13.6757C25.8288 15.3585 26.024 16.539 26.1884 17.2172C26.442 18.262 28.7937 19.6389 30.114 22.0814C31.9339 25.4476 27.0185 31.3276 24.1945 32.9619C21.3706 34.5961 17.3328 36.5969 12.3555 36.5034Z"/>
  <path id="shape3" transform="translate(11.4796, 8.36299)" fill="#ff6a26" fill-rule="evenodd" stroke="#003bc3" stroke-width="0.00000000000" stroke-linecap="square" stroke-linejoin="bevel" d="M11.7115 34.4592C6.83818 34.3672 1.06606 31.741 0.449835 28.5971C-0.166386 25.4532 3.12191 22.0531 3.15986 18.8098C3.19782 15.5666 1.19668 14.5039 0.449835 13.3555C-0.297012 12.2071 -0.252334 10.8814 1.65429 10.195C1.58109 10.69 0.529589 11.2702 1.23274 12.6418C1.93588 14.0135 5.18655 15.847 5.80967 18.3001C6.43278 20.7532 4.66851 23.2001 5.44833 24.723C6.22815 26.2458 8.89487 27.5185 10.9888 25.6915C13.0828 23.8645 14.3053 19.4121 13.9398 16.0572C13.5742 12.7021 11.1311 11.186 10.8082 8.86968C10.4852 6.55336 12.85 5.47368 12.7353 3.31339C12.6589 1.87319 12.6448 1.07643 10.6877 0C13.9087 0.204626 13.8094 2.00617 14.2409 3.51729C14.8877 5.78395 13.0563 6.69606 13.2171 8.76773C13.3778 10.8394 16.6028 13.8147 17.0111 15.9552C17.4196 18.0959 16.2821 21.0408 16.8304 22.2252C17.3788 23.4095 17.9564 24.5068 20.9858 24.2132C24.0152 23.9196 23.8941 23.165 24.9606 21.0018C26.0269 18.8385 23.0625 18.1596 23.0936 16.3121C23.1062 15.5685 23.2956 14.372 24.9003 13.8143C24.0601 15.4684 24.0165 15.8492 24.1777 16.516C24.4259 17.543 26.8595 19.4673 28.1523 21.8684C29.934 25.1774 24.9553 30.1001 22.1903 31.7066C19.4254 33.3131 16.5848 34.5511 11.7115 34.4592Z"/>
 </g>
</svg>
