<?xml version="1.0" standalone="no"?>
<!DOCTYPE svg PUBLIC "-//W3C//DTD SVG 20010904//EN" "http://www.w3.org/TR/2001/REC-SVG-20010904/DTD/svg10.dtd">
<!-- Created using Karbon, part of Calligra: http://www.calligra.org/karbon -->
<svg xmlns="http://www.w3.org/2000/svg" xmlns:xlink="http://www.w3.org/1999/xlink" width="38.4pt" height="38.4pt">
<defs/>
<g id="layer1">
  <path id="path4064" transform="matrix(1 0 0 -1 3.99998 44)" fill="#b6c7ff" d="M39.9968 19.6397C39.7984 8.63099 30.7393 -0.146907 19.7298 0.00186343C8.72026 0.150634 -0.0983534 9.17011 0.000828471 20.1802C0.10001 31.1903 9.07968 40.0494 20.0901 39.9998C31.1005 39.9502 40 31.0106 40 20"/>
  <g id="g839" transform="" fill="none">
   <g id="text872" transform="" fill="none"/>
  </g>
  <path id="path40641" transform="matrix(1 0 0 -1 17.8492 30.191)" fill="#536c72" d="M12.402 6.20101C12.402 2.77628 9.62573 2.09704e-16 6.20101 0C2.77628 -2.09704e-16 4.19407e-16 2.77628 0 6.20101C-4.19407e-16 9.62573 2.77628 12.402 6.20101 12.402C9.62573 12.402 12.402 9.62573 12.402 6.20101"/>
  <path id="shape0" transform="matrix(0.408462 -0.912776 -0.912776 -0.408462 41.4814 33.9207)" fill="#ffffff" fill-opacity="0.20784313725" fill-rule="evenodd" stroke="#003bc3" stroke-width="0.00000000000" stroke-linecap="square" stroke-linejoin="bevel" d="M0 0.113363L2.29986 20.1568L2.59991 0.0304227C1.67812 -0.0144436 0.871411 -0.0263357 0 0.113363Z"/>
  <path id="shape1" transform="matrix(0.494453 -0.869204 0.869204 0.494453 5.16323 16.4107)" fill="#ffffff" fill-opacity="0.46666666667" fill-rule="evenodd" stroke="#003bc3" stroke-width="0.00000000000" stroke-linecap="square" stroke-linejoin="bevel" d="M0 0.191008L2.84382 19.3473L3.16899 0.0112069C2.07819 -0.0322742 1.03118 0.0556222 0 0.191008Z"/>
  <path id="path40642" transform="matrix(1 0 0 -1 21.4581 26.5319)" fill="#202020" d="M5.31497 2.65748C5.31497 1.1898 4.12517 8.987e-17 2.65748 0C1.1898 -8.987e-17 1.7974e-16 1.1898 0 2.65748C-1.7974e-16 4.12517 1.1898 5.31497 2.65748 5.31497C4.12517 5.31497 5.31497 4.12517 5.31497 2.65748"/>
  <path id="shape0" transform="translate(12.6424, 3.13568)" fill="#ffab41" fill-rule="evenodd" stroke="#003bc3" stroke-width="0.00000000000" stroke-linecap="square" stroke-linejoin="bevel" d="M9.60887 40.7638C-13.7156 37.3854 14.3903 15.2041 1.89028 0C8.21248 1.51034 15.81 6.23875 12.2565 15.2055C4.37725 30.1676 27.587 29.0975 18.5938 16.8241C32.7383 18.49 29.2855 43.6139 9.60887 40.7638Z"/>
  <path id="shape1" transform="translate(15.7844, 7.29648)" fill="#ff4400" fill-rule="evenodd" stroke="#003bc3" stroke-width="0.00000000000" stroke-linecap="square" stroke-linejoin="bevel" d="M9.60254 34.1307C-12.2691 33.0897 11.1744 11.3196 3.39148 0C8.25886 2.94309 9.39585 5.48137 5.80354 14.4121C1.35538 28.1262 24.5895 28.6783 18.4669 15.4372C25.9469 20.0419 19.7972 34.6159 9.60254 34.1307Z"/>
 </g>
</svg>
