<?xml version="1.0" standalone="no"?>
<!DOCTYPE svg PUBLIC "-//W3C//DTD SVG 20010904//EN" "http://www.w3.org/TR/2001/REC-SVG-20010904/DTD/svg10.dtd">
<!-- Created using Karbon, part of Calligra: http://www.calligra.org/karbon -->
<svg xmlns="http://www.w3.org/2000/svg" xmlns:xlink="http://www.w3.org/1999/xlink" width="38.4pt" height="38.4pt">
<defs/>
<g id="layer1">
  <rect id="shape0" transform="matrix(0.98986 -0.14205 0.14205 0.98986 2.92056 10.0752)" fill="#4c4c4c" fill-rule="evenodd" stroke="#003bc3" stroke-width="0.00000000000" stroke-linecap="square" stroke-linejoin="miter" stroke-miterlimit="2.00000000000" width="31.98379746835pt" height="4.98625530325pt"/>
  <rect id="shape01" transform="translate(3.79747, 16.2835)" fill="#4c4c4c" fill-rule="evenodd" stroke="#003bc3" stroke-width="0.00000000000" stroke-linecap="square" stroke-linejoin="miter" stroke-miterlimit="2.00000000000" width="31.98379746835pt" height="22.17952160516pt"/>
  <rect id="shape011" transform="matrix(1 0 -0.401961 1 38.7342 16.2835)" fill="#ebebeb" fill-rule="evenodd" stroke="#003bc3" stroke-width="0.00000000000" stroke-linecap="square" stroke-linejoin="miter" stroke-miterlimit="2.01260185242" width="4.01513030529pt" height="5.00658227848pt"/>
  <rect id="shape1" transform="matrix(1 0 -0.401961 1 28.7135 16.28)" fill="#ebebeb" fill-rule="evenodd" stroke="#003bc3" stroke-width="0.00000000000" stroke-linecap="square" stroke-linejoin="miter" stroke-miterlimit="2.00000000000" width="4.01513030529pt" height="5.00658227848pt"/>
  <rect id="shape2" transform="matrix(1 0 -0.401961 1 18.7686 16.2835)" fill="#ebebeb" fill-rule="evenodd" stroke="#003bc3" stroke-width="0.00000000000" stroke-linecap="square" stroke-linejoin="miter" stroke-miterlimit="2.00000000000" width="4.01513030529pt" height="5.00658227848pt"/>
  <rect id="shape3" transform="matrix(1 0 -0.401961 1 8.74326 16.2835)" fill="#ebebeb" fill-rule="evenodd" stroke="#003bc3" stroke-width="0.00000000000" stroke-linecap="square" stroke-linejoin="miter" stroke-miterlimit="2.00000000000" width="4.01513030529pt" height="5.00658227848pt"/>
  <rect id="shape4" transform="matrix(-0.98986 0.14205 0.539935 0.932761 10.2737 8.99591)" fill="#ebebeb" fill-rule="evenodd" stroke="#003bc3" stroke-width="0.00000000000" stroke-linecap="square" stroke-linejoin="miter" stroke-miterlimit="2.00000000000" width="4.01513030529pt" height="5.00658227848pt"/>
  <rect id="shape5" transform="matrix(-0.98986 0.14205 0.539935 0.932761 20.2083 7.57792)" fill="#ebebeb" fill-rule="evenodd" stroke="#003bc3" stroke-width="0.00000000000" stroke-linecap="square" stroke-linejoin="miter" stroke-miterlimit="2.00000000000" width="4.01513030529pt" height="5.00658227848pt"/>
  <rect id="shape6" transform="matrix(-0.98986 0.14205 0.539935 0.932761 30.0667 6.15815)" fill="#ebebeb" fill-rule="evenodd" stroke="#003bc3" stroke-width="0.00000000000" stroke-linecap="square" stroke-linejoin="miter" stroke-miterlimit="2.00000000000" width="4.01513030529pt" height="5.00658227848pt"/>
  <rect id="shape7" transform="matrix(-0.98986 0.14205 0.539935 0.932761 40.002 4.73106)" fill="#ebebeb" fill-rule="evenodd" stroke="#003bc3" stroke-width="0.00000000000" stroke-linecap="square" stroke-linejoin="miter" stroke-miterlimit="2.00000000000" width="4.01513030529pt" height="5.00658227848pt"/>
  <path id="shape0" transform="translate(25.0521, 29.7722)" fill="#ae8566" fill-rule="evenodd" stroke="#003bc3" stroke-width="0.00000000000" stroke-linecap="square" stroke-linejoin="bevel" d="M2.59343 0C5.24645 3.22024 5.67923 5.46823 11.3428 8.14177C14.8148 9.78075 17.352 14.244 17.8441 15.2506C14.271 18.4433 7.99086 17.0313 4.05165 13.1848C0.112449 9.3383 -1.97186 4.02945 2.59343 0Z"/>
  <path id="shape1" transform="matrix(-1 0 0 -1 46.7512 43.8104)" fill="#ae8566" fill-rule="evenodd" stroke="#003bc3" stroke-width="0.00000000000" stroke-linecap="square" stroke-linejoin="bevel" d="M2.64441 0C5.3496 3.13094 5.79088 5.31658 11.5658 7.91597C15.106 9.50948 17.6931 13.8489 18.1948 14.8277C14.5516 17.9319 8.14797 16.559 4.13131 12.8191C0.114659 9.07931 -2.01063 3.91769 2.64441 0Z"/>
 </g>
</svg>
