<?xml version="1.0" standalone="no"?>
<!DOCTYPE svg PUBLIC "-//W3C//DTD SVG 20010904//EN" "http://www.w3.org/TR/2001/REC-SVG-20010904/DTD/svg10.dtd">
<!-- Created using Karbon, part of Calligra: http://www.calligra.org/karbon -->
<svg xmlns="http://www.w3.org/2000/svg" xmlns:xlink="http://www.w3.org/1999/xlink" width="38.4pt" height="38.4pt">
<defs/>
<g id="layer1">
  <rect id="shape0" transform="translate(4.00394, 4.00394)" fill="none" stroke="#003bc3" stroke-width="0.00000000000" stroke-linecap="square" stroke-linejoin="miter" stroke-miterlimit="2.01260191180" width="32.00320504820pt" height="32.00320504820pt"/>
  <rect id="shape1" transform="matrix(0.435611 -0.900135 0.900135 0.435611 11.2584 26.4748)" fill="#34495e" fill-rule="evenodd" stroke="#003bc3" stroke-width="0.00000000000" stroke-linecap="square" stroke-linejoin="miter" stroke-miterlimit="2.00000000000" width="2.89447236181pt" height="21.03316582915pt"/>
  <rect id="shape2" transform="translate(34.191, 11.8191)" fill="#34495e" fill-rule="evenodd" stroke="#003bc3" stroke-width="0.00000000000" stroke-linecap="square" stroke-linejoin="miter" stroke-miterlimit="2.01260191180" width="2.89447236181pt" height="19.15175879397pt"/>
  <path id="shape4" transform="translate(27.9714, 28.043)" fill="#ff4946" fill-rule="evenodd" stroke="#003bc3" stroke-width="0.00000000000" stroke-linecap="butt" stroke-linejoin="bevel" d="M7.80009 0.00187019C3.42013 0.097628 -0.0625973 3.7311 0.000853384 8.1387C0.0643017 12.5462 3.62412 15.9766 8.00502 15.9447C12.3858 15.9127 15.9449 12.3144 15.9449 7.90633C15.8181 3.50013 12.18 -0.0938879 7.80009 0.00187019Z"/>
  <rect id="shape3" transform="matrix(0.478805 0.877921 -0.877921 0.478805 35.2777 9.8462)" fill="#34495e" fill-rule="evenodd" stroke="#003bc3" stroke-width="0.00000000000" stroke-linecap="square" stroke-linejoin="miter" stroke-miterlimit="2.00000000000" width="2.89447236181pt" height="21.03316582915pt"/>
  <path id="shape41" transform="translate(4.00394, 16.4975)" fill="#4d4d4d" fill-rule="evenodd" stroke="#003bc3" stroke-width="0.00000000000" stroke-linecap="butt" stroke-linejoin="bevel" d="M7.80008 0.00187018C3.42013 0.0976276 -0.0625972 3.73108 0.000853383 8.13866C0.0643017 12.5462 3.62412 15.9765 8.00501 15.9447C12.3858 15.9127 15.9449 12.3144 15.9449 7.90629C15.8182 3.50012 12.18 -0.0938876 7.80008 0.00187018Z"/>
  <path id="shape42" transform="translate(28.1392, 4.12455)" fill="#2980b9" fill-rule="evenodd" stroke="#003bc3" stroke-width="0.00000000000" stroke-linecap="butt" stroke-linejoin="bevel" d="M7.80012 0.00187017C3.42015 0.0976271 -0.0625976 3.73105 0.000853388 8.1386C0.0643019 12.5461 3.62413 15.9765 8.00505 15.9447C12.3858 15.9126 15.9449 12.3143 15.9449 7.90625C15.8182 3.5001 12.1801 -0.093887 7.80012 0.00187017Z"/>
 </g>
</svg>
