<?xml version="1.0" standalone="no"?>
<!DOCTYPE svg PUBLIC "-//W3C//DTD SVG 20010904//EN" "http://www.w3.org/TR/2001/REC-SVG-20010904/DTD/svg10.dtd">
<!-- Created using Karbon, part of Calligra: http://www.calligra.org/karbon -->
<svg xmlns="http://www.w3.org/2000/svg" xmlns:xlink="http://www.w3.org/1999/xlink" width="38.4pt" height="38.4pt">
<defs/>
<g id="layer1">
  <path id="shape1" transform="translate(9.47848, 21.3266)" fill="#0d5887" stroke="#435564" stroke-width="3.78744750620" stroke-linecap="butt" stroke-linejoin="bevel" d="M28.3139 16.7089L0 0"/>
  <path id="shape11" transform="translate(9.72152, 9.35696)" fill="#0d5887" stroke="#435564" stroke-width="3.78744750620" stroke-linecap="butt" stroke-linejoin="bevel" d="M28.3747 0L0 11.6051"/>
  <path id="shape12" transform="translate(37.8532, 9.11392)" fill="#0d5887" stroke="#435564" stroke-width="3.78744750620" stroke-linecap="butt" stroke-linejoin="bevel" d="M0 0L0.243038 29.8937"/>
  <path id="shape4" transform="translate(29.8871, 30.2191)" fill="#c74640" fill-rule="evenodd" stroke="#435564" stroke-width="1.91338914150" stroke-linecap="butt" stroke-linejoin="bevel" d="M7.67906 0.00184136C3.36706 0.0961231 -0.061626 3.67358 0.000840143 8.01324C0.063304 12.3528 3.56789 15.7303 7.88081 15.6989C12.1936 15.6674 15.6975 12.1246 15.6975 7.78445C15.5727 3.44618 11.991 -0.0924406 7.67906 0.00184136Z"/>
  <path id="shape41" transform="translate(1.95731, 13.743)" fill="#001424" fill-rule="evenodd" stroke="#435564" stroke-width="1.91338914150" stroke-linecap="butt" stroke-linejoin="bevel" d="M7.41797 0.00177894C3.25258 0.0928647 -0.0595307 3.54905 0.000811577 7.7416C0.0611517 11.9341 3.44658 15.1971 7.61286 15.1668C11.779 15.1364 15.1638 11.7136 15.1638 7.52057C15.0433 3.32936 11.5833 -0.0893071 7.41797 0.00177894Z"/>
  <path id="shape42" transform="translate(30.0669, 2.29649)" fill="#2980b9" fill-rule="evenodd" stroke="#435564" stroke-width="1.91338914150" stroke-linecap="butt" stroke-linejoin="bevel" d="M7.49897 0.00179875C3.2881 0.0938989 -0.0601808 3.58857 0.000820439 7.82781C0.0618193 12.067 3.48421 15.3664 7.69599 15.3358C11.9076 15.3049 15.3293 11.844 15.3293 7.60433C15.2075 3.36644 11.7098 -0.0903017 7.49897 0.00179875Z"/>
 </g>
</svg>
