<?xml version="1.0" standalone="no"?>
<!DOCTYPE svg PUBLIC "-//W3C//DTD SVG 20010904//EN" "http://www.w3.org/TR/2001/REC-SVG-20010904/DTD/svg10.dtd">
<!-- Created using Karbon, part of Calligra: http://www.calligra.org/karbon -->
<svg xmlns="http://www.w3.org/2000/svg" xmlns:xlink="http://www.w3.org/1999/xlink" width="38.4pt" height="38.4pt">
<defs/>
<g id="layer1">
  <path id="shape3" transform="translate(8.96637, 14.2177)" fill="none" stroke="#4c4c4c" stroke-width="1.22704936982" stroke-linecap="square" stroke-linejoin="bevel" d="M3.30705 0C-2.33089 6.69894 0.142407 8.21114 4.03616 8.81015"/>
  <path id="shape4" transform="matrix(1 0 0 -1 12.0469 41.8464)" fill="none" stroke="#4c4c4c" stroke-width="1.22704936982" stroke-linecap="square" stroke-linejoin="bevel" d="M4.70888 0C1.56624 1.77899 -2.199 6.79728 1.5936 7.91222"/>
  <path id="shape5" transform="translate(7.78416, 27.919)" fill="none" stroke="#4c4c4c" stroke-width="1.22704936982" stroke-linecap="square" stroke-linejoin="bevel" d="M0.550754 8.59991C-0.488798 5.80376 -0.543888 0.330248 4.82343 0"/>
  <path id="shape6" transform="matrix(-1 0 0 1 41.5746 14.0727)" fill="none" stroke="#4c4c4c" stroke-width="1.22704936982" stroke-linecap="square" stroke-linejoin="bevel" d="M3.14441 0C-2.34882 6.63784 0.348312 8.30682 3.72144 8.77287"/>
  <path id="shape7" transform="matrix(-1 0 0 1 38.9505 34.0557)" fill="none" stroke="#4c4c4c" stroke-width="1.22704936982" stroke-linecap="square" stroke-linejoin="bevel" d="M5.09535 8.04849C0.586642 4.2264 -1.77231 1.21468 1.58344 0"/>
  <path id="shape8" transform="matrix(-1 0 0 1 42.5088 28.0405)" fill="none" stroke="#4c4c4c" stroke-width="1.22704936982" stroke-linecap="square" stroke-linejoin="bevel" d="M0.797371 7.95949C-0.475839 5.12541 -0.787015 0.0821614 4.23028 0"/>
  <path id="shape9" transform="translate(4.03856, 2.39298)" fill="none" stroke="#4c4c4c" stroke-width="0.60236324825" stroke-linecap="square" stroke-linejoin="bevel" d="M17.3184 7.99689C14.6854 2.90592 9.9271 -0.227985 0 0.0129675"/>
  <path id="shape10" transform="matrix(-1 0 0 1 46.3852 2.41625)" fill="none" stroke="#4c4c4c" stroke-width="0.60236324825" stroke-linecap="square" stroke-linejoin="bevel" d="M17.0687 7.76096C14.6876 2.33174 10.0411 -0.238533 0 0.0173762"/>
  <path id="shape0" transform="translate(13.7852, 20.962)" fill="#4c4c4c" fill-rule="evenodd" stroke="#003bc3" stroke-width="0.00000000000" stroke-linecap="square" stroke-linejoin="bevel" d="M0.584443 0C3.97998 1.64385 7.61542 2.4641 11.4908 2.73418C11.4138 12.0223 11.6974 18.6349 11.6731 22.8152C3.03385 21.6074 -1.73577 11.3289 0.584443 0Z"/>
  <path id="shape1" transform="matrix(-1 0 0 1 37.1152 20.9013)" fill="#4c4c4c" fill-rule="evenodd" stroke="#003bc3" stroke-width="0.00000000000" stroke-linecap="square" stroke-linejoin="bevel" d="M0.689922 0C4.18924 1.67354 7.17528 2.52822 11.2621 2.79494C11.2454 12.6013 11.1352 18.6202 11.1102 22.8759C2.20693 21.6463 -1.7012 11.5335 0.689922 0Z"/>
  <path id="shape2" transform="translate(14.643, 9.99262)" fill="#4c4c4c" fill-rule="evenodd" stroke="#003bc3" stroke-width="0.00000000000" stroke-linecap="square" stroke-linejoin="bevel" d="M0 10.5137C7.1438 13.718 14.6979 13.774 21.6304 10.3618C15.8373 -3.50081 5.59646 -3.45735 0 10.5137Z"/>
 </g>
</svg>
