<?xml version="1.0" standalone="no"?>
<!DOCTYPE svg PUBLIC "-//W3C//DTD SVG 20010904//EN" "http://www.w3.org/TR/2001/REC-SVG-20010904/DTD/svg10.dtd">
<!-- Created using Karbon, part of Calligra: http://www.calligra.org/karbon -->
<svg xmlns="http://www.w3.org/2000/svg" xmlns:xlink="http://www.w3.org/1999/xlink" width="38.4pt" height="38.4pt">
<defs/>
<g id="layer1">
  <path id="shape3" transform="translate(7.38814, 16.2313)" fill="none" stroke="#4d4d4d" stroke-width="1.84252287700" stroke-linecap="square" stroke-linejoin="bevel" d="M3.30705 0C-2.33089 6.69894 0.1424 8.21114 4.03616 8.81015"/>
  <path id="shape4" transform="matrix(1 0 0 -1 10.3699 43.2815)" fill="none" stroke="#4d4d4d" stroke-width="1.84252287700" stroke-linecap="square" stroke-linejoin="bevel" d="M4.70888 0C1.56624 1.77899 -2.199 6.79728 1.5936 7.91222"/>
  <path id="shape5" transform="translate(6.22232, 30.0541)" fill="none" stroke="#4d4d4d" stroke-width="1.84252287700" stroke-linecap="square" stroke-linejoin="bevel" d="M0.550754 8.59991C-0.488798 5.80376 -0.543888 0.330248 4.82343 0"/>
  <path id="shape9" transform="translate(2.95012, 3.37322)" fill="none" stroke="#4d4d4d" stroke-width="1.84252287700" stroke-linecap="square" stroke-linejoin="bevel" d="M17.3184 7.99624C14.8677 3.08755 9.9271 -0.228634 0 0.0123186"/>
  <path id="shape10" transform="matrix(-1 0 0 1 46.0169 3.48729)" fill="none" stroke="#4c4c4c" stroke-width="1.84252287700" stroke-linecap="square" stroke-linejoin="bevel" d="M17.0687 7.75934C14.2015 2.63391 10.0411 -0.240156 0 0.015753"/>
  <path id="shape0" transform="translate(12.9145, 23.2123)" fill="#c74640" fill-rule="evenodd" stroke="#992600" stroke-width="0.00000000000" stroke-linecap="square" stroke-linejoin="bevel" d="M0.584441 0C3.97998 1.64385 7.61542 2.4641 11.4908 2.73418C11.4138 12.0223 11.6974 18.6349 11.6731 22.8152C3.03385 21.6074 -1.73577 11.3289 0.584441 0Z"/>
  <path id="shape1" transform="matrix(-1 0 0 1 36.5483 23.1516)" fill="#c74640" fill-rule="evenodd" stroke="#992600" stroke-width="0.00000000000" stroke-linecap="square" stroke-linejoin="bevel" d="M0.68992 0C4.18924 1.67354 7.17528 2.52822 11.2621 2.79494C11.2454 12.6013 11.1352 18.6202 11.1102 22.8759C2.20693 21.6463 -1.7012 11.5335 0.68992 0Z"/>
  <path id="shape2" transform="translate(13.7723, 11.9391)" fill="#4c4c4c" fill-rule="evenodd" stroke="#4d4d4d" stroke-width="0.00000000000" stroke-linecap="square" stroke-linejoin="bevel" d="M0 10.5137C7.1438 13.718 14.6979 13.774 21.6304 10.3618C15.8373 -3.50081 5.59646 -3.45735 0 10.5137Z"/>
  <path id="shape31" transform="matrix(-1 0 0 1 42.4228 16.2011)" fill="none" stroke="#4d4d4d" stroke-width="1.84252287700" stroke-linecap="square" stroke-linejoin="bevel" d="M3.55941 0C-2.50876 6.74499 0.153266 8.26758 4.34416 8.87071"/>
  <path id="shape41" transform="matrix(-1 0 0 1 39.198 34.965)" fill="none" stroke="#4d4d4d" stroke-width="1.84252287700" stroke-linecap="square" stroke-linejoin="bevel" d="M4.43471 8.3471C1.47505 6.47034 -2.07096 1.17623 1.50081 0"/>
  <path id="shape51" transform="matrix(-1 0 0 1 43.1025 29.9632)" fill="none" stroke="#4d4d4d" stroke-width="1.84252287700" stroke-linecap="square" stroke-linejoin="bevel" d="M0.531306 8.4524C-0.471536 5.70421 -0.524681 0.324583 4.65309 0"/>
 </g>
</svg>
