<?xml version="1.0" standalone="no"?>
<!DOCTYPE svg PUBLIC "-//W3C//DTD SVG 20010904//EN" "http://www.w3.org/TR/2001/REC-SVG-20010904/DTD/svg10.dtd">
<!-- Created using Karbon, part of Calligra: http://www.calligra.org/karbon -->
<svg xmlns="http://www.w3.org/2000/svg" xmlns:xlink="http://www.w3.org/1999/xlink" width="38.4pt" height="38.4pt">
<defs/>
<g id="layer1">
  <path id="shape3" transform="translate(7.38814, 16.2313)" fill="none" stroke="#4c4c4c" stroke-width="1.84252287700" stroke-linecap="square" stroke-linejoin="bevel" d="M3.30705 0C-2.33089 6.69894 0.142402 8.21114 4.03616 8.81015"/>
  <path id="shape4" transform="matrix(1 0 0 -1 10.7952 44.1321)" fill="none" stroke="#4c4c4c" stroke-width="1.84252287700" stroke-linecap="square" stroke-linejoin="bevel" d="M4.70888 0C1.56624 1.77899 -2.199 6.79728 1.5936 7.91222"/>
  <path id="shape5" transform="translate(6.58688, 29.9326)" fill="none" stroke="#4c4c4c" stroke-width="1.84252287700" stroke-linecap="square" stroke-linejoin="bevel" d="M0.550754 8.59991C-0.488798 5.80376 -0.543888 0.330248 4.82343 0"/>
  <path id="shape6" transform="matrix(-1 0 0 1 41.1392 16.1407)" fill="none" stroke="#4c4c4c" stroke-width="1.84252287700" stroke-linecap="square" stroke-linejoin="bevel" d="M3.14441 0C-2.34882 6.63784 0.348312 8.30682 3.72144 8.77287"/>
  <path id="shape7" transform="matrix(-1 0 0 1 38.4063 36.7224)" fill="none" stroke="#4c4c4c" stroke-width="1.84252287700" stroke-linecap="square" stroke-linejoin="bevel" d="M5.09535 8.04849C0.586642 4.2264 -1.77231 1.21468 1.58344 0"/>
  <path id="shape8" transform="matrix(-1 0 0 1 42.019 30.2174)" fill="none" stroke="#4c4c4c" stroke-width="1.84252287700" stroke-linecap="square" stroke-linejoin="bevel" d="M0.797371 7.95949C-0.475839 5.12541 -0.787015 0.0821614 4.23028 0"/>
  <path id="shape9" transform="translate(2.95012, 3.37322)" fill="none" stroke="#4c4c4c" stroke-width="1.84252287700" stroke-linecap="square" stroke-linejoin="bevel" d="M17.3184 7.99624C14.8677 3.08755 9.9271 -0.228634 0 0.0123186"/>
  <path id="shape10" transform="matrix(-1 0 0 1 45.8954 3.66957)" fill="none" stroke="#4c4c4c" stroke-width="1.84252287700" stroke-linecap="square" stroke-linejoin="bevel" d="M17.0687 7.75934C14.2015 2.63391 10.0411 -0.240156 0 0.015753"/>
  <path id="shape0" transform="translate(12.9145, 23.03)" fill="#cc3333" fill-rule="evenodd" stroke="#992600" stroke-width="0.00000000000" stroke-linecap="square" stroke-linejoin="bevel" d="M0.584441 0C3.97998 1.64385 7.61542 2.4641 11.4908 2.73418C11.4138 12.0223 11.6974 18.6349 11.6731 22.8152C3.03385 21.6074 -1.73577 11.3289 0.584441 0Z"/>
  <path id="shape1" transform="matrix(-1 0 0 1 36.2445 22.9693)" fill="#cc3333" fill-rule="evenodd" stroke="#992600" stroke-width="0.00000000000" stroke-linecap="square" stroke-linejoin="bevel" d="M0.68992 0C4.18924 1.67354 7.17528 2.52822 11.2621 2.79494C11.2454 12.6013 11.1352 18.6202 11.1102 22.8759C2.20693 21.6463 -1.7012 11.5335 0.68992 0Z"/>
  <path id="shape2" transform="translate(13.7723, 12.0606)" fill="#4c4c4c" fill-rule="evenodd" stroke="#992600" stroke-width="0.00000000000" stroke-linecap="square" stroke-linejoin="bevel" d="M0 10.5137C7.1438 13.718 14.6979 13.774 21.6304 10.3618C15.8373 -3.50081 5.59646 -3.45735 0 10.5137Z"/>
 </g>
</svg>
