<?xml version="1.0" standalone="no"?>
<!DOCTYPE svg PUBLIC "-//W3C//DTD SVG 20010904//EN" "http://www.w3.org/TR/2001/REC-SVG-20010904/DTD/svg10.dtd">
<!-- Created using Karbon, part of Calligra: http://www.calligra.org/karbon -->
<svg xmlns="http://www.w3.org/2000/svg" xmlns:xlink="http://www.w3.org/1999/xlink" width="38.4pt" height="38.4pt">
<defs/>
<g id="layer1">
  <path id="shape0" transform="translate(13.671, 9.92776)" fill="#4c4c4c" stroke="#003bc3" stroke-width="0.00000000000" stroke-linecap="square" stroke-linejoin="miter" stroke-miterlimit="2.01260191180" d="M23.6936 16.6137C23.5611 7.2834 18.1866 -0.140253 11.6675 0.00201101C5.14819 0.144275 -0.0656395 7.79899 0.000624689 17.1306C0.0668888 26.4624 5.38835 33.9638 11.9082 33.9164C18.4281 33.869 23.6961 26.2905 23.6961 16.9583"/>
  <path id="shape1" transform="translate(15.1899, 20.2329)" fill="none" stroke="#3f3a36" stroke-width="1.26248250207" stroke-linecap="square" stroke-linejoin="bevel" d="M0 0.364557C3.1947 1.28156 15.2221 1.61303 20.5367 0"/>
  <path id="shape2" transform="translate(25.6101, 22.1165)" fill="none" stroke="#3f3a36" stroke-width="0.60236324825" stroke-linecap="square" stroke-linejoin="bevel" d="M0.0303797 0L0 21.4177"/>
  <path id="shape3" transform="translate(8.98151, 14.2177)" fill="none" stroke="#4c4c4c" stroke-width="1.25326988768" stroke-linecap="square" stroke-linejoin="bevel" d="M3.29191 0C-2.34603 6.69894 -0.024632 10.6997 4.87165 8.62529"/>
  <path id="shape4" transform="matrix(1 0 0 -1 13.246 41.8464)" fill="none" stroke="#4c4c4c" stroke-width="1.25326988768" stroke-linecap="square" stroke-linejoin="bevel" d="M3.50979 0C0.36715 1.77899 -1.85135 8.36018 2.18428 8.13841"/>
  <path id="shape5" transform="translate(7.65171, 27.552)" fill="none" stroke="#4c4c4c" stroke-width="1.25326988768" stroke-linecap="square" stroke-linejoin="bevel" d="M0.683206 8.9669C0.251249 8.35809 -2.16576 2.51759 5.75346 0"/>
  <path id="shape6" transform="matrix(-1 0 0 1 41.6376 14.0727)" fill="none" stroke="#4c4c4c" stroke-width="1.25326988768" stroke-linecap="square" stroke-linejoin="bevel" d="M3.20741 0C-2.28582 6.63784 -0.0239919 10.6021 4.7466 8.54663"/>
  <path id="shape7" transform="matrix(-1 0 0 1 38.0336 33.7722)" fill="none" stroke="#4c4c4c" stroke-width="1.25326988768" stroke-linecap="square" stroke-linejoin="bevel" d="M4.17842 8.33199C-0.330285 4.5099 -1.65238 -0.290534 2.52362 0.0137707"/>
  <path id="shape8" transform="matrix(-1 0 0 1 42.3064 27.9262)" fill="none" stroke="#4c4c4c" stroke-width="1.25326988768" stroke-linecap="square" stroke-linejoin="bevel" d="M0.545968 8.16306C-0.0285086 6.84796 -1.37454 1.44925 4.58453 0"/>
  <path id="shape9" transform="translate(4.03856, 2.39289)" fill="none" stroke="#4c4c4c" stroke-width="0.60236324825" stroke-linecap="square" stroke-linejoin="bevel" d="M17.7009 9.29316C15.8274 2.86548 9.9271 -0.227893 0 0.0130592"/>
  <path id="shape10" transform="matrix(-1 0 0 1 46.3852 2.41976)" fill="none" stroke="#4c4c4c" stroke-width="0.60236324825" stroke-linecap="square" stroke-linejoin="bevel" d="M17.9042 9.87004C16.0091 3.04335 10.0411 -0.242039 0 0.0138698"/>
 </g>
</svg>
