<?xml version="1.0" standalone="no"?>
<!DOCTYPE svg PUBLIC "-//W3C//DTD SVG 20010904//EN" "http://www.w3.org/TR/2001/REC-SVG-20010904/DTD/svg10.dtd">
<!-- Created using Karbon, part of Calligra: http://www.calligra.org/karbon -->
<svg xmlns="http://www.w3.org/2000/svg" xmlns:xlink="http://www.w3.org/1999/xlink" width="128pt" height="128pt">
<defs/>
<g id="K">
  <rect id="shape0" transform="translate(8.85828, 8.85828)" fill="#249eff" fill-rule="evenodd" stroke="#003bc3" stroke-width="0.00000000000" stroke-linecap="square" stroke-linejoin="miter" stroke-miterlimit="2.01260185242" width="113.38602320000pt" height="113.38602320000pt"/>
  <path id="path17" transform="matrix(1.25 0 0 1.25 70.08 24.124)" fill="#ffffff" stroke="#003bc3" stroke-width="0.00000000000" stroke-linecap="butt" stroke-linejoin="miter" stroke-miterlimit="2.01260191180" d="M15.3635 0C15.3635 0 0 1.47727 0 1.47727C0 1.47727 0 64.7697 0 64.7697C0 64.7697 15.1994 62.4718 15.1994 62.4718C15.1994 62.4718 15.1994 35.4871 15.1994 35.4871C15.1994 35.4871 35.6514 65.4262 35.6514 65.4262C35.6514 65.4262 51.6713 60.3379 51.6713 60.3379C51.6713 60.3379 30.727 31.5476 30.727 31.5476C30.727 31.5476 51.8355 4.39896 51.8355 4.39896C51.8355 4.39896 35.4872 0.656561 35.4872 0.656561C35.4872 0.656561 15.1994 27.8054 15.1994 27.8054C15.1994 27.8054 15.3635 7.92598e-15 15.3635 7.92598e-15C15.3635 7.92598e-15 15.3635 0 15.3635 0Z"/>
 </g><g id="gear">
  <path id="gear_path" transform="matrix(1.25 0 0 1.25 25.557 43.4024)" fill="#ffffff" stroke="#003bc3" stroke-width="0.00000000000" stroke-linecap="butt" stroke-linejoin="miter" stroke-miterlimit="2.01260191180" d="M16.1514 0.00648945C15.9776 0.0244264 15.7897 0.0723476 15.6591 0.203439C15.6591 0.203439 9.61859 6.24382 9.61859 6.24382C9.36488 6.49824 9.33392 6.88777 9.52016 7.19573C9.52016 7.19573 16.5782 18.8498 16.5782 18.8498C15.325 20.9565 14.3073 23.2165 13.5908 25.6124C13.5908 25.6124 0.623733 28.3043 0.623733 28.3043C0.262888 28.3789 0 28.7223 0 29.0922C0 29.0922 0 37.6274 0 37.6274C0 37.9883 0.274441 38.2973 0.623733 38.3824C0.623733 38.3824 13.1969 41.4355 13.1969 41.4355C13.8692 44.2094 14.9079 46.8637 16.2827 49.2813C16.2827 49.2813 8.9949 60.3772 8.9949 60.3772C8.79161 60.6871 8.83126 61.1005 9.09333 61.3622C9.09333 61.3622 15.1338 67.4025 15.1338 67.4025C15.3882 67.6561 15.7785 67.688 16.0857 67.5009C16.0857 67.5009 27.5099 60.5743 27.5099 60.5743C29.7506 61.8678 32.1765 62.9042 34.732 63.5945C34.732 63.5945 37.3912 76.3976 37.3912 76.3976C37.4657 76.7591 37.7767 77.0214 38.1461 77.0214C38.1461 77.0214 46.6814 77.0214 46.6814 77.0214C47.0397 77.0214 47.3515 76.7805 47.4364 76.4298C47.4364 76.4298 50.588 63.5616 50.588 63.5616C53.2236 62.8509 55.7087 61.7959 58.0072 60.4429C58.0072 60.4429 69.2671 67.8292 69.2671 67.8292C69.5776 68.0314 69.9888 67.9923 70.252 67.7308C70.252 67.7308 76.2596 61.6903 76.2596 61.6903C76.5147 61.4357 76.5777 61.0457 76.3909 60.7383C76.3909 60.7383 72.2873 53.9758 72.2873 53.9758C72.2873 53.9758 70.5316 54.3746 70.4161 54.2055C70.4161 54.2055 67.824 50.3925 64.4414 45.4405C60.396 53.3565 52.1458 58.7686 42.6436 58.7686C29.1411 58.7686 18.1867 47.8143 18.1867 34.3118C18.1867 24.3797 24.126 15.8491 32.6311 12.0216C32.6311 12.0216 32.6311 5.71856 32.6311 5.71856C31.0832 6.26033 29.5878 6.914 28.1665 7.68824C28.1638 7.68663 28.1691 7.65692 28.1665 7.65549C28.1665 7.65549 16.6439 0.10492 16.6439 0.10492C16.4889 0.00363382 16.3251 -0.0114475 16.1514 0.00648945C16.1514 0.00648945 16.1514 0.00648945 16.1514 0.00648945Z"/>
 </g>
</svg>
