<svg xmlns="http://www.w3.org/2000/svg" width="48" height="48">
 <path d="M 4 4 L 4 44 L 44 44 L 44 4 L 4 4 z M 7 7 L 10 7 L 10 10 L 7 10 L 7 7 z M 38 7 L 41 7 L 41 10 L 38 10 L 38 7 z M 7 14.5 L 10 14.5 L 10 17.5 L 7 17.5 L 7 14.5 z M 38 14.5 L 41 14.5 L 41 17.5 L 38 17.5 L 38 14.5 z M 7 22.5 L 10 22.5 L 10 25.5 L 7 25.5 L 7 22.5 z M 38 22.5 L 41 22.5 L 41 25.5 L 38 25.5 L 38 22.5 z M 7 30.5 L 10 30.5 L 10 33.5 L 7 33.5 L 7 30.5 z M 38 30.5 L 41 30.5 L 41 33.5 L 38 33.5 L 38 30.5 z M 7 38 L 10 38 L 10 41 L 7 41 L 7 38 z M 38 38 L 41 38 L 41 41 L 38 41 L 38 38 z " style="fill:#2c3e50"/>
 <rect width="22" height="15.5" x="13" y="7" style="fill:#ff4946"/>
 <rect width="22" height="15.5" x="13" y="25.5" style="fill:#52beea"/>
</svg>
