<?xml version="1.0" standalone="no"?>
<!DOCTYPE svg PUBLIC "-//W3C//DTD SVG 20010904//EN" "http://www.w3.org/TR/2001/REC-SVG-20010904/DTD/svg10.dtd">
<!-- Created using Karbon, part of Calligra: http://www.calligra.org/karbon -->
<svg xmlns="http://www.w3.org/2000/svg" xmlns:xlink="http://www.w3.org/1999/xlink" width="38.4pt" height="38.4pt">
<defs/>
<g id="layer1">
  <path id="gear_path" transform="translate(4.00394, 4.00394)" fill="#737373" stroke="#003bc3" stroke-width="0.00000000000" stroke-linecap="butt" stroke-linejoin="miter" stroke-miterlimit="2.00000000000" d="M8.44613 0.00337054C8.35527 0.0126868 8.25702 0.0375765 8.18871 0.105664C8.18871 0.105664 5.02991 3.24298 5.02991 3.24298C4.89722 3.37511 4.88103 3.57743 4.97843 3.73737C4.97843 3.73737 8.66936 9.79034 8.66936 9.79034C8.01398 10.8846 7.48176 12.0584 7.10709 13.3028C7.10709 13.3028 0.326172 14.7009 0.326172 14.7009C0.137473 14.7397 0 14.918 0 15.1101C0 15.1101 0 19.5432 0 19.5432C0 19.7307 0.143515 19.8911 0.326172 19.9354C0.326172 19.9354 6.90111 21.5211 6.90111 21.5211C7.25272 22.9618 7.79585 24.3405 8.51483 25.5961C8.51483 25.5961 4.70375 31.3592 4.70375 31.3592C4.59745 31.5202 4.61818 31.7349 4.75522 31.8709C4.75522 31.8709 7.91398 35.0081 7.91398 35.0081C8.04706 35.1398 8.25113 35.1564 8.41181 35.0592C8.41181 35.0592 14.3859 31.4616 14.3859 31.4616C15.5577 32.1334 16.8262 32.6718 18.1626 33.0303C18.1626 33.0303 19.5533 39.68 19.5533 39.68C19.5921 39.8677 19.7548 40.004 19.948 40.004C19.948 40.004 24.4113 40.004 24.4113 40.004C24.5988 40.004 24.7617 39.8788 24.8062 39.6966C24.8062 39.6966 26.4542 33.0131 26.4542 33.0131C27.8326 32.6439 29.1321 32.096 30.3341 31.3933C30.3341 31.3933 36.2223 35.2297 36.2223 35.2297C36.3846 35.3347 36.5996 35.3144 36.7373 35.1786C36.7373 35.1786 39.8789 32.0412 39.8789 32.0412C40.0123 31.9089 40.0452 31.7064 39.9474 31.5468C39.9474 31.5468 37.8016 28.0343 37.8016 28.0343C37.8016 28.0343 36.8835 28.2416 36.8231 28.1537C36.8231 28.1537 35.4676 26.1733 33.6986 23.6013C31.5832 27.7128 27.2688 30.5238 22.2998 30.5238C15.2389 30.5238 9.5105 24.8342 9.5105 17.8212C9.5105 12.6626 12.6163 8.23185 17.0639 6.24388C17.0639 6.24388 17.0639 2.97015 17.0639 2.97015C16.2546 3.25154 15.4725 3.59105 14.7293 3.99319C14.7278 3.99234 14.7306 3.97692 14.7293 3.97617C14.7293 3.97617 8.70368 0.0544942 8.70368 0.0544942C8.62261 0.00188736 8.53699 -0.0059457 8.44613 0.00337054C8.44613 0.00337054 8.44613 0.00337054 8.44613 0.00337054Z"/>
  <path id="shape0" transform="translate(14.8992, 10.6781)" fill="#00da42" fill-rule="evenodd" stroke="#003bc3" stroke-width="0.00000000000" stroke-linecap="square" stroke-linejoin="miter" stroke-miterlimit="2.01260185242" d="M22.9015 10.6712C22.6625 4.59022 17.4094 -0.16903 11.1281 0.00460371C4.8468 0.178238 -0.117426 5.21993 0.00211433 11.3042C0.121655 17.3885 5.28032 22.2436 11.5639 22.1857C17.8475 22.1279 22.9098 17.1785 22.9098 11.0932"/>
  <path id="shape1" transform="translate(23.2161, 17.7889)" fill="#737373" fill-rule="evenodd" stroke="#003bc3" stroke-width="0.00000000000" stroke-linecap="square" stroke-linejoin="bevel" d="M0.120603 8.32161L0 0L8.32161 3.79899Z"/>
 </g>
</svg>
