<svg xmlns="http://www.w3.org/2000/svg" width="48" height="48">
 <g transform="translate(0,-1004.3622)">
  <rect width="44" height="40" x="2" y="1008.36" style="fill:#16a085"/>
  <path d="M 4 9 L 4 39 L 5 39 L 43 39 L 44 39 L 44 9 L 43 9 L 5 9 L 4 9 z M 5 10 L 43 10 L 43 38 L 5 38 L 5 10 z M 24 15 C 19.014 15 15 19.014 15 24 C 15 28.986 19.014 33 24 33 C 28.986 33 33 28.986 33 24 C 33 19.014 28.986 15 24 15 z M 24 16 C 28.432 16 32 19.568 32 24 C 32 28.432 28.432 32 24 32 C 19.568 32 16 28.432 16 24 C 16 19.568 19.568 16 24 16 z M 23.648438 19.5 L 23.648438 20.708984 C 22.100182 20.801318 21.324219 21.425918 21.324219 22.583984 C 21.324219 23.884718 22.038266 24.535156 23.464844 24.535156 L 24.408203 24.535156 C 25.142471 24.535156 25.509766 24.828616 25.509766 25.416016 C 25.509766 26.045349 24.984791 26.359375 23.931641 26.359375 C 23.138631 26.359375 22.352399 26.234155 21.576172 25.982422 L 21.576172 26.990234 C 22.260091 27.174434 22.951932 27.277495 23.648438 27.298828 L 23.648438 28.5 L 24.748047 28.5 L 24.748047 27.253906 C 26.031967 27.081906 26.675781 26.469149 26.675781 25.416016 C 26.675781 24.115282 25.918696 23.464844 24.408203 23.464844 L 23.464844 23.464844 C 22.772534 23.464844 22.425781 23.171384 22.425781 22.583984 C 22.425781 21.954651 22.976867 21.640625 24.076172 21.640625 C 24.864985 21.640625 25.647601 21.765845 26.423828 22.017578 L 26.423828 21.009766 C 25.869979 20.858832 25.310286 20.762703 24.748047 20.720703 L 24.748047 19.5 L 23.648438 19.5 z " transform="translate(0,1004.3622)" style="fill:#ecf0f1"/>
 </g>
</svg>
