<?xml version="1.0" encoding="UTF-8" standalone="no"?>
<!-- Created with Inkscape (http://www.inkscape.org/) -->

<svg
   xmlns:dc="http://purl.org/dc/elements/1.1/"
   xmlns:cc="http://creativecommons.org/ns#"
   xmlns:rdf="http://www.w3.org/1999/02/22-rdf-syntax-ns#"
   xmlns:svg="http://www.w3.org/2000/svg"
   xmlns="http://www.w3.org/2000/svg"
   xmlns:sodipodi="http://sodipodi.sourceforge.net/DTD/sodipodi-0.dtd"
   xmlns:inkscape="http://www.inkscape.org/namespaces/inkscape"
   width="48"
   height="48"
   id="svg4230"
   version="1.1"
   inkscape:version="0.48.4 r9939"
   sodipodi:docname="kmymoney.svg">
  <defs
     id="defs4232" />
  <sodipodi:namedview
     id="base"
     pagecolor="#ffffff"
     bordercolor="#666666"
     borderopacity="1.0"
     inkscape:pageopacity="0.0"
     inkscape:pageshadow="2"
     inkscape:zoom="7.3990251"
     inkscape:cx="9.8608976"
     inkscape:cy="34.032724"
     inkscape:document-units="px"
     inkscape:current-layer="layer1"
     showgrid="false"
     inkscape:showpageshadow="false"
     borderlayer="true"
     inkscape:window-width="830"
     inkscape:window-height="774"
     inkscape:window-x="929"
     inkscape:window-y="67"
     inkscape:window-maximized="0" />
  <metadata
     id="metadata4235">
    <rdf:RDF>
      <cc:Work
         rdf:about="">
        <dc:format>image/svg+xml</dc:format>
        <dc:type
           rdf:resource="http://purl.org/dc/dcmitype/StillImage" />
        <dc:title />
      </cc:Work>
    </rdf:RDF>
  </metadata>
  <g
     inkscape:label="Capa 1"
     inkscape:groupmode="layer"
     id="layer1"
     transform="translate(0,-1004.3622)">
    <path
       style="fill:#000000"
       d=""
       id="path906"
       inkscape:connector-curvature="0" />
    <rect
       style="fill:#e67e22;fill-opacity:1;stroke:none"
       id="rect5237-3"
       width="42"
       height="42"
       x="3"
       y="1007.3622"
       ry="0" />
    <path
       style="fill:#ecf0f1;fill-opacity:1;stroke:none"
       d="m 7.5500002,1020.1363 0,16.4519 32.8999998,0 0,-16.4519 -32.8999998,0 z m 0.8163436,0.7988 31.2707592,0 0,14.8544 -31.2707593,0 10e-8,-14.8544 z m 3.1486672,0.8093 c 0.01019,0.077 0.01019,0.1592 0.01019,0.2389 0,1.2374 -1.002982,2.2392 -2.2394823,2.2428 l 0,8.2723 c 1.2364853,0 2.2394823,1.0054 2.2394823,2.2428 0,0.081 -0.0035,0.1602 -0.01019,0.2389 l 24.973409,0 c -0.0089,-0.079 -0.01396,-0.158 -0.01396,-0.2389 0,-1.2384 1.001145,-2.2409 2.239558,-2.2428 l 0,-8.2723 c -1.238413,0 -2.239558,-1.0042 -2.239558,-2.2428 0,-0.08 0.0078,-0.1611 0.01396,-0.2389 l -24.973409,0 z m 12.272977,1.5405 0.844822,0 0,1.1445 c 0.664785,0.089 1.188526,0.3363 1.568962,0.7487 0.380345,0.4126 0.563432,0.9466 0.552493,1.5975 l -0.0103,0.028 -1.761122,0 c 0,-0.3555 -0.0789,-0.6209 -0.235296,-0.7915 -0.15306,-0.1707 -0.36804,-0.2532 -0.648959,-0.2532 -0.291859,0 -0.496355,0.072 -0.617189,0.2246 -0.120682,0.1493 -0.185393,0.3536 -0.185393,0.6061 0,0.2382 0.06843,0.4284 0.196196,0.5707 0.131652,0.1386 0.393211,0.2999 0.788183,0.4883 0.821411,0.2631 1.437932,0.5894 1.84671,0.9735 0.412783,0.3841 0.61687,0.9111 0.61687,1.5832 0,0.6223 -0.197106,1.1241 -0.591592,1.5011 -0.394957,0.3769 -0.935994,0.5957 -1.622369,0.6595 l 0,1.0734 -0.848767,0 0,-1.0734 c -0.718207,-0.061 -1.306129,-0.2898 -1.768769,-0.6846 -0.462141,-0.3982 -0.684571,-0.9862 -0.666758,-1.7614 l 0.0091,-0.028 1.75786,0 c 0,0.4089 0.09683,0.6994 0.29239,0.8736 0.19911,0.1742 0.468012,0.2639 0.802293,0.2639 0.295167,0 0.506688,-0.075 0.638249,-0.221 0.135111,-0.1495 0.19964,-0.3502 0.199654,-0.5955 0,-0.2845 -0.06814,-0.496 -0.2068,-0.6418 -0.135142,-0.1494 -0.393273,-0.3035 -0.777305,-0.4636 -0.84989,-0.2987 -1.473694,-0.6285 -1.871957,-0.9841 -0.394774,-0.3556 -0.591897,-0.8683 -0.591897,-1.5439 0,-0.6081 0.20791,-1.11 0.620406,-1.4976 0.412511,-0.3911 0.968175,-0.6135 1.672317,-0.6703 l -0.002,-1.1267 z"
       id="path10364-7"
       inkscape:connector-curvature="0" />
  </g>
</svg>
