<?xml version="1.0" standalone="no"?>
<!DOCTYPE svg PUBLIC "-//W3C//DTD SVG 20010904//EN" "http://www.w3.org/TR/2001/REC-SVG-20010904/DTD/svg10.dtd">
<!-- Created using Karbon, part of Calligra: http://www.calligra.org/karbon -->
<svg xmlns="http://www.w3.org/2000/svg" xmlns:xlink="http://www.w3.org/1999/xlink" width="38.4pt" height="38.4pt">
<defs/>
<g id="layer1">
  <rect id="rect853" transform="translate(7.00001, 7.99945)" fill="#f3dfc6" width="27.19998800000pt" height="28.80000000000pt"/>
  <rect id="shape0" transform="translate(7.00304, 30.1519)" fill="#52beea" fill-rule="evenodd" stroke="#003bc3" stroke-width="0.00000000000" stroke-linecap="square" stroke-linejoin="miter" stroke-miterlimit="2.00000000000" opacity="0.52000000000" width="27.20445653756pt" height="4.15594936709pt"/>
  <rect id="rect3291" transform="translate(9.03796, 9)" fill="none" width="24.00000000000pt" height="24.00000000000pt"/>
  <rect id="rect859" transform="translate(6.99999, 13.3379)" fill="#d19e69" width="27.20000000000pt" height="0.24615385600pt"/>
  <rect id="rect861" transform="translate(6.99999, 18.8436)" fill="#d19e69" width="27.20000000000pt" height="0.24615385600pt"/>
  <rect id="rect863" transform="translate(6.99999, 24.3492)" fill="#d19e69" width="27.20000000000pt" height="0.24615385600pt"/>
  <rect id="rect870" transform="translate(8.99999, 3.99976)" fill="#151718" width="2.40000000000pt" height="4.00000080000pt"/>
  <rect id="rect872" transform="translate(18, 3.99976)" fill="#151718" width="2.40000000000pt" height="4.00000080000pt"/>
  <rect id="rect874" transform="translate(27, 3.99976)" fill="#151718" width="2.40000000000pt" height="4.00000080000pt"/>
  <rect id="rect876" transform="translate(36, 3.99976)" fill="#151718" width="2.40000000000pt" height="4.00000080000pt"/>
  <rect id="rect889" transform="translate(6.99999, 29.8549)" fill="#d19e69" width="27.20000000000pt" height="0.24615385600pt"/>
  <rect id="rect891" transform="translate(6.99999, 35.3605)" fill="#d19e69" width="27.20000000000pt" height="0.24615385600pt"/>
  <rect id="rect895" transform="matrix(0 -1 1 0 23.6816 44)" fill="#e68273" width="28.80000000000pt" height="0.40000000000pt"/>
  <ellipse id="path3283" transform="translate(-1e-05, 20.4999)" rx="2.80000000000pt" ry="2.80008624000pt" cx="2.80000000000pt" cy="2.80008624000pt" fill="none"/>
  <ellipse id="ellipse3285" transform="translate(41, 20.4999)" rx="2.80000000000pt" ry="2.80008624000pt" cx="2.80000000000pt" cy="2.80008624000pt" fill="none"/>
  <ellipse id="ellipse3287" transform="translate(21.9972, -6.15e-05)" rx="1.60110856000pt" ry="1.60004920000pt" cx="1.60110856000pt" cy="1.60004920000pt" fill="none"/>
  <ellipse id="ellipse3289" transform="translate(21.9972, 43.9999)" rx="1.60110856000pt" ry="1.60004920000pt" cx="1.60110856000pt" cy="1.60004920000pt" fill="none"/>
  <ellipse id="ellipse3323" transform="translate(21.9972, 3.99994)" rx="1.60110856000pt" ry="1.60004920000pt" cx="1.60110856000pt" cy="1.60004920000pt" fill="none"/>
  <rect id="shape1" transform="translate(7.00253, 13.5949)" fill="#ff4946" fill-rule="evenodd" stroke="#003bc3" stroke-width="0.00000000000" stroke-linecap="square" stroke-linejoin="miter" stroke-miterlimit="2.01260185242" opacity="0.52000000000" width="13.35493670886pt" height="4.20455696203pt"/>
  <rect id="shape2" transform="translate(24.1823, 19.1544)" fill="#76bd74" fill-rule="evenodd" stroke="#003bc3" stroke-width="0.00000000000" stroke-linecap="square" stroke-linejoin="miter" stroke-miterlimit="2.00000000000" opacity="0.52000000000" width="13.45215189873pt" height="4.15594936709pt"/>
 </g>
</svg>
