<svg xmlns="http://www.w3.org/2000/svg" height="48" width="48">
 <g transform="translate(-8,-8)">
  <rect width="34" height="40" x="15" y="12" style="fill:#ecf0f1"/>
  <path d="m 32.024159,23.000039 -0.04506,0.02764 c -1.944918,0.963363 -12.668842,9.532222 -7.658722,15.493866 1.566027,1.863183 4.739838,1.915517 6.861459,-0.723489 6e-6,0.0041 1.92e-4,0.04541 1.92e-4,0.04693 0,1.455961 -0.974579,2.687723 -2.34169,3.14601 l 0,0.009 6.319332,0 0,-0.009 c -1.367112,-0.458287 -2.341672,-1.69005 -2.341672,-3.14601 0,-0.0018 1.84e-4,-0.04319 2e-4,-0.04751 1.9024,2.544448 5.307346,2.578308 6.861433,0.724027 l -1.79e-4,0 C 44.689587,32.559859 33.96734,23.991 32.024136,23.027643 l 0,-0.02764 z" style="fill:#34495e"/>
 </g>
</svg>
