<svg xmlns="http://www.w3.org/2000/svg" width="48" height="48" viewBox="0 0 13.546666 13.546668">
 <g transform="translate(38.119153,-397.84494)">
  <path d="m -37.542207,398.99252 0,7.37573 0,0.98526 0,0.0189 0.01849,0 c 4.308533,0.0101 5.78215,0.0227 5.959296,0.003 0,-0.002 -9.71e-4,-0.003 -0.0025,-0.003 l 4.965374,0 0.01849,0 0,-0.0188 0,-0.98526 0,-7.37571 z" style="fill:#2c3e50"/>
  <rect width="9.963" height="6.596" x="-37.04" y="399.75" style="fill:#3498db" rx="0"/>
  <path d="m -36.096404,400.12561 0,7.37573 0,0.98526 0,0.0189 0.01849,0 4.965375,0 c -0.0014,0 -0.0025,9e-4 -0.0025,0.003 l 0,1.2553 c 0,0.002 9.6e-4,0.003 0.0025,0.003 l -1.7435,0 c -0.0014,0 -0.0025,9e-4 -0.0025,0.003 l 0,0.50242 c 0,0.002 9.6e-4,0.003 0.0025,0.003 l 4.478421,0 c 0.0014,0 0.0025,-9e-4 0.0025,-0.003 l 0,-0.50242 c -8e-6,-0.002 -9.6e-4,-0.003 -0.0025,-0.003 l -1.7435,0 c 0.0014,0 0.0025,-9e-4 0.0025,-0.003 l 0,-1.2553 c 0,-0.002 -9.6e-4,-0.003 -0.0025,-0.003 l 4.965374,0 0.01849,0 0,-0.0188 0,-0.98526 0,-7.37571 z" style="fill:#2c3e50"/>
  <rect width="9.963" height="6.596" x="-35.598" y="400.89" style="fill:#3498db" rx="0"/>
  <rect y="400.88" x="-35.605" height="0.83" width="9.989" style="fill:#37353a"/>
  <rect width="0.543" height="0.497" x="-28.06" y="401.05" style="fill:#ffffff"/>
  <rect y="401.05" x="-27.07" height="0.497" width="0.543" style="fill:#ffffff"/>
  <rect y="401.05" x="-29.06" height="0.497" width="0.543" style="fill:#ffffff"/>
  <rect y="402.54" x="-34.688" height="0.83" width="1.361" style="fill:#1abc9c"/>
  <rect width="1.361" height="0.83" x="-34.688" y="403.79" style="fill:#1abc9c"/>
  <rect y="405.03" x="-34.688" height="0.83" width="1.361" style="fill:#1abc9c"/>
 </g>
</svg>
