<svg xmlns="http://www.w3.org/2000/svg" width="48" height="48">
 <path d="m 2.000001,4 0,40 44,0 0,-29 L 35.916668,4 2.000001,4 Z" style="fill:#3498db"/>
 <path d="m 5.849611,4.000001 0,1.84961 -3.84961,0 0,0.300781 3.84961,0 0,5.699218 -3.84961,0 0,0.300782 3.84961,0 0,5.699218 -3.84961,0 0,0.300782 3.84961,0 0,5.699218 -3.84961,0 0,0.300782 3.84961,0 0,5.699218 -3.84961,0 0,0.300782 3.84961,0 0,5.699218 -3.84961,0 0,0.300782 3.84961,0 0,5.699218 -3.84961,0 0,0.300782 3.84961,0 0,1.849609 0.300781,0 0,-1.849609 5.699218,0 0,1.849609 0.300782,0 0,-1.849609 5.699218,0 0,1.849609 0.300782,0 0,-1.849609 5.699218,0 0,1.849609 0.300782,0 0,-1.849609 5.699218,0 0,1.849609 0.300782,0 0,-1.849609 5.699218,0 0,1.849609 0.300782,0 0,-1.849609 5.699218,0 0,1.849609 0.300782,0 0,-1.849609 3.849609,0 0,-0.300782 -3.849609,0 0,-5.699218 3.849609,0 0,-0.300782 -3.849609,0 0,-5.699218 3.849609,0 0,-0.300782 -3.849609,0 0,-5.699218 3.849609,0 0,-0.300782 -3.849609,0 0,-5.699218 3.849609,0 0,-0.300782 -3.849609,0 0,-5.699218 1,0 -0.300782,-0.300782 -0.699218,0 0,-0.699218 -0.300782,-0.300782 0,1 -5.699218,0 0,-5.699218 1,0 -0.300782,-0.300781 -0.699218,0 0,-0.699219 -0.300782,-0.300781 0,1 -5.699218,0 0,-1.84961 -0.300782,0 0,1.84961 -5.699218,0 0,-1.84961 -0.300782,0 0,1.84961 -5.699218,0 0,-1.84961 -0.300782,0 0,1.84961 -5.699218,0 0,-1.84961 -0.300782,0 0,1.84961 -5.699218,0 0,-1.84961 -0.300781,0 z m 0.300781,2.150391 5.699218,0 0,5.699218 -5.699218,0 0,-5.699218 z m 6,0 5.699218,0 0,5.699218 -5.699218,0 0,-5.699218 z m 6,0 5.699218,0 0,5.699218 -5.699218,0 0,-5.699218 z m 6,0 5.699218,0 0,5.699218 -5.699218,0 0,-5.699218 z m 6,0 5.699218,0 0,5.699218 -5.699218,0 0,-5.699218 z m -24,6 5.699218,0 0,5.699218 -5.699218,0 0,-5.699218 z m 6,0 5.699218,0 0,5.699218 -5.699218,0 0,-5.699218 z m 6,0 5.699218,0 0,5.699218 -5.699218,0 0,-5.699218 z m 6,0 5.699218,0 0,5.699218 -5.699218,0 0,-5.699218 z m 6,0 5.699218,0 0,5.699218 -5.699218,0 0,-5.699218 z m 6,0 5.699218,0 0,5.699218 -5.699218,0 0,-5.699218 z m -30,6 5.699218,0 0,5.699218 -5.699218,0 0,-5.699218 z m 6,0 5.699218,0 0,5.699218 -5.699218,0 0,-5.699218 z m 6,0 5.699218,0 0,5.699218 -5.699218,0 0,-5.699218 z m 6,0 5.699218,0 0,5.699218 -5.699218,0 0,-5.699218 z m 6,0 5.699218,0 0,5.699218 -5.699218,0 0,-5.699218 z m 6,0 5.699218,0 0,5.699218 -5.699218,0 0,-5.699218 z m -30,6 5.699218,0 0,5.699218 -5.699218,0 0,-5.699218 z m 6,0 5.699218,0 0,5.699218 -5.699218,0 0,-5.699218 z m 6,0 5.699218,0 0,5.699218 -5.699218,0 0,-5.699218 z m 6,0 5.699218,0 0,5.699218 -5.699218,0 0,-5.699218 z m 6,0 5.699218,0 0,5.699218 -5.699218,0 0,-5.699218 z m 6,0 5.699218,0 0,5.699218 -5.699218,0 0,-5.699218 z m -30,6 5.699218,0 0,5.699218 -5.699218,0 0,-5.699218 z m 6,0 5.699218,0 0,5.699218 -5.699218,0 0,-5.699218 z m 6,0 5.699218,0 0,5.699218 -5.699218,0 0,-5.699218 z m 6,0 5.699218,0 0,5.699218 -5.699218,0 0,-5.699218 z m 6,0 5.699218,0 0,5.699218 -5.699218,0 0,-5.699218 z m 6,0 5.699218,0 0,5.699218 -5.699218,0 0,-5.699218 z m -30,6 5.699218,0 0,5.699218 -5.699218,0 0,-5.699218 z m 6,0 5.699218,0 0,5.699218 -5.699218,0 0,-5.699218 z m 6,0 5.699218,0 0,5.699218 -5.699218,0 0,-5.699218 z m 6,0 5.699218,0 0,5.699218 -5.699218,0 0,-5.699218 z m 6,0 5.699218,0 0,5.699218 -5.699218,0 0,-5.699218 z m 6,0 5.699218,0 0,5.699218 -5.699218,0 0,-5.699218 z" style="fill:#68b1e1" fill-rule="evenodd"/>
 <g transform="matrix(0.70710678,-0.70710678,0.70710678,0.70710678,-9.6127,20.964467)">
  <path d="m -3.8345238,28.742643 0,-8.485282 46.6690478,0 0,8.485282 z" style="fill:#2c3e50"/>
  <rect y="20.257" x="19.25" height="3" width="0.5" style="fill:#ecf0f1"/>
  <rect width="0.5" height="1.5" x="17.25" y="20.257" style="fill:#ecf0f1"/>
  <rect y="20.257" x="15.25" height="1.5" width="0.5" style="fill:#ecf0f1"/>
  <rect width="0.5" height="3" x="13.25" y="20.257" style="fill:#ecf0f1"/>
  <rect y="20.257" x="11.25" height="1.5" width="0.5" style="fill:#ecf0f1"/>
  <rect width="0.5" height="1.5" x="9.25" y="20.257" style="fill:#ecf0f1"/>
  <rect width="0.5" height="1.5" x="5.25" y="20.257" style="fill:#ecf0f1"/>
  <rect y="20.257" x="3.25" height="1.5" width="0.5" style="fill:#ecf0f1"/>
  <rect y="20.257" x="-0.75" height="1.5" width="0.5" style="fill:#ecf0f1"/>
  <rect width="0.5" height="1.5" x="-2.75" y="20.257" style="fill:#ecf0f1"/>
  <rect width="0.5" height="3" x="7.25" y="20.257" style="fill:#ecf0f1"/>
  <rect y="20.257" x="1.25" height="3" width="0.5" style="fill:#ecf0f1"/>
  <rect y="20.257" x="41.25" height="1.5" width="0.5" style="fill:#ecf0f1"/>
  <rect width="0.5" height="1.5" x="39.25" y="20.257" style="fill:#ecf0f1"/>
  <rect y="20.257" x="37.25" height="3" width="0.5" style="fill:#ecf0f1"/>
  <rect width="0.5" height="1.5" x="35.25" y="20.257" style="fill:#ecf0f1"/>
  <rect y="20.257" x="33.25" height="1.5" width="0.5" style="fill:#ecf0f1"/>
  <rect y="20.257" x="29.25" height="1.5" width="0.5" style="fill:#ecf0f1"/>
  <rect width="0.5" height="1.5" x="27.25" y="20.257" style="fill:#ecf0f1"/>
  <rect width="0.5" height="1.5" x="23.25" y="20.257" style="fill:#ecf0f1"/>
  <rect y="20.257" x="21.25" height="1.5" width="0.5" style="fill:#ecf0f1"/>
  <rect y="20.257" x="31.25" height="3" width="0.5" style="fill:#ecf0f1"/>
  <rect width="0.5" height="3" x="25.25" y="20.257" style="fill:#ecf0f1"/>
 </g>
 <path d="M 48,15.000001 37,4.0000009 37,15.000001 Z" style="fill:#ecf0f1"/>
</svg>
