<?xml version="1.0" standalone="no"?>
<!DOCTYPE svg PUBLIC "-//W3C//DTD SVG 20010904//EN" "http://www.w3.org/TR/2001/REC-SVG-20010904/DTD/svg10.dtd">
<!-- Created using Karbon, part of Calligra: http://www.calligra.org/karbon -->
<svg xmlns="http://www.w3.org/2000/svg" xmlns:xlink="http://www.w3.org/1999/xlink" width="38.4pt" height="38.4pt">
<defs/>
<g id="layer1">
  <rect id="rect4082" transform="translate(4, 4)" fill="#34495e" width="32.00000000000pt" height="32.00000000000pt"/>
  <rect id="rect4124" transform="translate(6, 6)" fill="#f1cb6d" width="28.80000000000pt" height="28.80000000000pt"/>
  <path id="path4178" transform="translate(6.5, 9.5)" fill="#e74c3c" d="M0 0L0 5L16 5L16 0Z"/>
  <path id="rect4118" transform="translate(25.5, 9.5)" fill="#e74c3c" d="M0 0L0 5L16 5L16 0Z"/>
  <path id="path4170" transform="translate(6.5, 33.5)" fill="#e74c3c" d="M0 0L0 5L16 5L16 0Z"/>
  <path id="path4162" transform="translate(6.5, 21.5)" fill="#e74c3c" d="M0 0L0 5L16 5L16 0Z"/>
  <path id="rect4140" transform="translate(25.5, 21.5)" fill="#e74c3c" d="M0 0L0 5L16 5L16 0Z"/>
  <rect id="rect4136" transform="translate(23, 6)" fill="#34495e" width="1.60000000000pt" height="30.40000000000pt"/>
  <g id="Group" transform="translate(44.4545, 14.3359)" fill="none">
   <path id="Triangle 295" transform="translate(-15.4587, 13.0939)" fill="#e74c3c" fill-rule="evenodd" d="M0 0L8.99637 7.06672L5.63772 8.38585L7.99677 13.2501L5.99758 14.1334L3.60327 9.18488L0 10.6001ZM0 0"/>
  </g>
 </g>
</svg>
