<?xml version="1.0" standalone="no"?>
<!DOCTYPE svg PUBLIC "-//W3C//DTD SVG 20010904//EN" "http://www.w3.org/TR/2001/REC-SVG-20010904/DTD/svg10.dtd">
<!-- Created using Karbon, part of Calligra: http://www.calligra.org/karbon -->
<svg xmlns="http://www.w3.org/2000/svg" xmlns:xlink="http://www.w3.org/1999/xlink" width="38.4pt" height="38.4pt">
<defs/>
<g id="layer1">
  <path id="rect3359" transform="translate(3.71875, 2.5)" fill="#6dbeff" fill-rule="evenodd" d="M16.2188 0L16.2188 2.53125L13.75 2.53125L13.75 0.03125L11.2812 0.03125L11.3125 5.03125L8.78125 5.03125L8.8125 21.375L0 21.375L20.0938 41.25L40.2188 21.375L31.3125 21.375L31.3125 12.5312L28.8125 12.5312L28.8125 8.75L31.25 8.75L31.25 3.8125L28.8125 3.8125L28.8125 1.34375L26.3438 1.34375L26.3438 7.5L23.75 7.5L23.75 5.0625L21.3125 5.0625L21.2812 12.5312L18.7812 12.5312L18.7812 10L16.3125 10L16.3125 5.03125L16.2812 5.03125L16.2812 5L18.7812 5L18.7812 0Z"/>
 </g>
</svg>
