<?xml version="1.0" standalone="no"?>
<!DOCTYPE svg PUBLIC "-//W3C//DTD SVG 20010904//EN" "http://www.w3.org/TR/2001/REC-SVG-20010904/DTD/svg10.dtd">
<!-- Created using Karbon, part of Calligra: http://www.calligra.org/karbon -->
<svg xmlns="http://www.w3.org/2000/svg" xmlns:xlink="http://www.w3.org/1999/xlink" width="38.4pt" height="38.4pt">
<defs/>
<g id="layer1">
  <path id="rect3359" transform="translate(3.71875, 2.49114)" fill="#52beea" fill-rule="evenodd" d="M12.5496 0.0303797L8.76733 0C8.7905 10.624 8.80556 17.7519 8.8125 21.3839L0 21.3839L20.0938 41.2589L40.2188 21.3839L31.3125 21.3839L31.3091 11.3013L27.5552 11.2858C27.5509 10.4584 27.5449 9.2029 27.5372 7.51934L31.2965 7.49786L31.2965 0.000740859L27.5157 0.000740859L27.5157 3.76004L20.0534 3.7519L20.0534 0.0151899L23.8053 0.0151899L23.7901 3.7519L23.7993 7.49786L20.0615 7.49786L20.083 11.2572L16.3022 11.2786L16.3022 15.0165L12.5214 15.0379L12.5214 11.2572L16.3015 11.2861L16.2863 3.7519L12.5344 3.78228Z"/>
 </g>
</svg>
