<svg xmlns="http://www.w3.org/2000/svg" width="48" height="48">
 <path d="m 2,10 0,2 0,3 0,29 44,0 0,-29 0,-3 0,-2 z m 2,2 40,0 0,3 -40,0 z" style="fill:#be8856"/>
 <rect width="40" height="3" x="4" y="12" style="fill:#2c3e50"/>
 <rect width="30" height="11" x="5" y="4" rx="15" ry="0" style="fill:#f1c40f"/>
 <rect ry="0" rx="15" y="8" x="13" height="7" width="30" style="fill:#3498db"/>
 <rect width="2" height="0.5" x="41" y="41.5" style="fill:#34495e"/>
 <rect y="41.5" x="37" height="0.5" width="2" style="fill:#34495e"/>
 <rect y="41.5" x="33" height="0.5" width="2" style="fill:#34495e"/>
 <rect width="2" height="0.5" x="29" y="41.5" style="fill:#34495e"/>
 <rect y="41.5" x="25" height="0.5" width="2" style="fill:#34495e"/>
 <rect width="2" height="0.5" x="21" y="41.5" style="fill:#34495e"/>
 <rect width="2" height="0.5" x="17" y="41.5" style="fill:#34495e"/>
 <rect y="41.5" x="13" height="0.5" width="2" style="fill:#34495e"/>
 <rect width="2" height="0.5" x="9" y="41.5" style="fill:#34495e"/>
 <rect y="41.5" x="5" height="0.5" width="2" style="fill:#34495e"/>
 <rect y="5" x="-26" height="0.5" width="2" transform="matrix(0,-1,1,0,0,0)" style="fill:#34495e"/>
 <rect y="5" x="-30" height="0.5" width="2" transform="matrix(0,-1,1,0,0,0)" style="fill:#34495e"/>
 <rect width="2" height="0.5" x="-34" y="5" transform="matrix(0,-1,1,0,0,0)" style="fill:#34495e"/>
 <rect y="5" x="-38" height="0.5" width="2" transform="matrix(0,-1,1,0,0,0)" style="fill:#34495e"/>
 <rect width="2" height="0.5" x="-42" y="5" transform="matrix(0,-1,1,0,0,0)" style="fill:#34495e"/>
 <rect transform="matrix(0,-1,1,0,0,0)" width="2" height="0.5" x="-22" y="5" style="fill:#34495e"/>
 <rect y="5" x="-18" height="0.5" width="2" transform="matrix(0,-1,1,0,0,0)" style="fill:#34495e"/>
 <rect y="16" x="41" height="0.5" width="2" style="fill:#34495e"/>
 <rect width="2" height="0.5" x="37" y="16" style="fill:#34495e"/>
 <rect width="2" height="0.5" x="33" y="16" style="fill:#34495e"/>
 <rect y="16" x="29" height="0.5" width="2" style="fill:#34495e"/>
 <rect width="2" height="0.5" x="25" y="16" style="fill:#34495e"/>
 <rect y="16" x="21" height="0.5" width="2" style="fill:#34495e"/>
 <rect y="16" x="17" height="0.5" width="2" style="fill:#34495e"/>
 <rect width="2" height="0.5" x="13" y="16" style="fill:#34495e"/>
 <rect y="16" x="9" height="0.5" width="2" style="fill:#34495e"/>
 <rect width="2" height="0.5" x="5" y="16" style="fill:#34495e"/>
 <rect transform="matrix(0,-1,1,0,0,0)" width="2" height="0.5" x="-26" y="42.5" style="fill:#34495e"/>
 <rect transform="matrix(0,-1,1,0,0,0)" width="2" height="0.5" x="-30" y="42.5" style="fill:#34495e"/>
 <rect transform="matrix(0,-1,1,0,0,0)" y="42.5" x="-34" height="0.5" width="2" style="fill:#34495e"/>
 <rect transform="matrix(0,-1,1,0,0,0)" width="2" height="0.5" x="-38" y="42.5" style="fill:#34495e"/>
 <rect transform="matrix(0,-1,1,0,0,0)" y="42.5" x="-42" height="0.5" width="2" style="fill:#34495e"/>
 <rect y="42.5" x="-22" height="0.5" width="2" transform="matrix(0,-1,1,0,0,0)" style="fill:#34495e"/>
 <rect transform="matrix(0,-1,1,0,0,0)" width="2" height="0.5" x="-18" y="42.5" style="fill:#34495e"/>
 <rect width="13" height="6" x="33" y="25" style="fill:#9c6339"/>
 <rect width="3.864" height="3.864" x="35" y="26.07" rx="1.932" style="fill:#ecf0f1"/>
</svg>
