<?xml version="1.0" encoding="UTF-8" standalone="no"?>
<!-- Created with Inkscape (http://www.inkscape.org/) -->

<svg
   xmlns:dc="http://purl.org/dc/elements/1.1/"
   xmlns:cc="http://creativecommons.org/ns#"
   xmlns:rdf="http://www.w3.org/1999/02/22-rdf-syntax-ns#"
   xmlns:svg="http://www.w3.org/2000/svg"
   xmlns="http://www.w3.org/2000/svg"
   xmlns:sodipodi="http://sodipodi.sourceforge.net/DTD/sodipodi-0.dtd"
   xmlns:inkscape="http://www.inkscape.org/namespaces/inkscape"
   width="48"
   height="48"
   id="svg2"
   version="1.1"
   inkscape:version="0.48+devel r12923"
   sodipodi:docname="libreoffice-calc.svg">
  <defs
     id="defs4" />
  <sodipodi:namedview
     id="base"
     pagecolor="#ffffff"
     bordercolor="#666666"
     borderopacity="1.0"
     inkscape:pageopacity="0.0"
     inkscape:pageshadow="2"
     inkscape:zoom="4.7871094"
     inkscape:cx="-0.23594177"
     inkscape:cy="25.627468"
     inkscape:document-units="px"
     inkscape:current-layer="layer1"
     showgrid="false"
     inkscape:window-width="1366"
     inkscape:window-height="669"
     inkscape:window-x="0"
     inkscape:window-y="26"
     inkscape:window-maximized="1">
    <inkscape:grid
       type="xygrid"
       id="grid3850" />
    <sodipodi:guide
       position="4,44.000017"
       orientation="40,0"
       id="guide4125" />
    <sodipodi:guide
       position="4,4.0000174"
       orientation="0,40"
       id="guide4127" />
    <sodipodi:guide
       position="44,4.0000174"
       orientation="-40,0"
       id="guide4129" />
    <sodipodi:guide
       position="44,44.000017"
       orientation="0,-40"
       id="guide4131" />
    <sodipodi:guide
       position="9,39.000017"
       orientation="30,0"
       id="guide4137" />
    <sodipodi:guide
       position="9,9.0000174"
       orientation="0,30"
       id="guide4139" />
    <sodipodi:guide
       position="39,9.0000174"
       orientation="-30,0"
       id="guide4141" />
    <sodipodi:guide
       position="39,39.000017"
       orientation="0,-30"
       id="guide4143" />
    <sodipodi:guide
       position="15,33.000017"
       orientation="18,0"
       id="guide4147" />
    <sodipodi:guide
       position="15,15.000017"
       orientation="0,18"
       id="guide4149" />
    <sodipodi:guide
       position="33,15.000017"
       orientation="-18,0"
       id="guide4151" />
    <sodipodi:guide
       position="33,33.000017"
       orientation="0,-18"
       id="guide4153" />
  </sodipodi:namedview>
  <metadata
     id="metadata7">
    <rdf:RDF>
      <cc:Work
         rdf:about="">
        <dc:format>image/svg+xml</dc:format>
        <dc:type
           rdf:resource="http://purl.org/dc/dcmitype/StillImage" />
        <dc:title />
      </cc:Work>
    </rdf:RDF>
  </metadata>
  <g
     inkscape:label="Capa 1"
     inkscape:groupmode="layer"
     id="layer1"
     transform="translate(0,-1004.3622)">
    <rect
       style="fill:#27ae60;fill-opacity:1;stroke:none"
       id="rect4118"
       width="40"
       height="40"
       x="4"
       y="1008.3622"
       ry="0" />
    <g
       transform="translate(-461.7136,504.57141)"
       id="layer1-7"
       inkscape:label="Capa 1">
      <rect
         y="508.79074"
         x="470.71429"
         height="30.000031"
         width="30"
         id="rect3270"
         style="fill:none;stroke:none" />
      <path
         id="rect3278"
         d="m 472.71428,508.79074 0,30 26,0 0,-15 -4,0 0,11 -18,0 0,-22 9,0 0,-4 -13,0 z"
         style="fill:#ecf0f1;fill-opacity:1;fill-rule:evenodd;stroke:none"
         inkscape:connector-curvature="0" />
      <ellipse
         id="path3302"
         style="fill:none;stroke:none"
         cx="487.71289"
         cy="536.79077"
         rx="2.0013857"
         ry="2.0000615"
         d="m 489.71428,536.79077 a 2.0013857,2.0000615 0 0 1 -2.00139,2.00006 2.0013857,2.0000615 0 0 1 -2.00139,-2.00006 2.0013857,2.0000615 0 0 1 2.00139,-2.00006 2.0013857,2.0000615 0 0 1 2.00139,2.00006 z" />
      <rect
         transform="scale(1,-1)"
         y="-519.79071"
         x="489.71429"
         height="10.999969"
         width="9"
         id="rect3320"
         style="fill:#ecf0f1;fill-opacity:1;fill-rule:evenodd;stroke:none" />
      <ellipse
         style="fill:none;stroke:none"
         id="path3367"
         cx="474.71289"
         cy="523.79077"
         rx="2.0013857"
         ry="2.0000615"
         d="m 476.71428,523.79077 a 2.0013857,2.0000615 0 0 1 -2.00139,2.00006 2.0013857,2.0000615 0 0 1 -2.00139,-2.00006 2.0013857,2.0000615 0 0 1 2.00139,-2.00006 2.0013857,2.0000615 0 0 1 2.00139,2.00006 z" />
      <ellipse
         id="path3349"
         style="fill:none;stroke:none"
         cx="471.71359"
         cy="523.79071"
         rx="1.0006928"
         ry="1.0000308"
         d="m 472.71429,523.79071 a 1.0006928,1.0000308 0 0 1 -1.0007,1.00003 1.0006928,1.0000308 0 0 1 -1.00069,-1.00003 1.0006928,1.0000308 0 0 1 1.00069,-1.00003 1.0006928,1.0000308 0 0 1 1.0007,1.00003 z" />
      <ellipse
         style="fill:none;stroke:none"
         id="path3351"
         cx="499.71359"
         cy="523.79071"
         rx="1.0006928"
         ry="1.0000308"
         d="m 500.71429,523.79071 a 1.0006928,1.0000308 0 0 1 -1.0007,1.00003 1.0006928,1.0000308 0 0 1 -1.00069,-1.00003 1.0006928,1.0000308 0 0 1 1.00069,-1.00003 1.0006928,1.0000308 0 0 1 1.0007,1.00003 z" />
    </g>
  </g>
</svg>
