<svg xmlns="http://www.w3.org/2000/svg" width="48" height="48" xmlns:xlink="http://www.w3.org/1999/xlink">
 <g transform="translate(0,-1004.3622)">
  <rect width="34" height="40" x="7" y="1008.36" style="fill:#ecf0f1"/>
  <path d="m 25.889648,1023.3622 0.675781,2.543 0.957032,0.1299 -2.547852,3.8564 1.803711,0.5967 1.183594,-1.7139 0.46582,2.083 2.620117,0.2696 -1.234375,-3.8428 L 32,1024.705 l -2.433594,-0.5439 -0.976562,1.1796 -0.47754,-1.5263 -2.222656,-0.4522 z m -7.805664,1.086 -0.0498,0.069 -2.034179,1.0098 2.526367,6.1982 3.458984,-1.8125 -0.866211,-2.0039 -1.394531,0.752 -1.640625,-4.2129 z m 2.198242,1.0273 1.919922,4.4395 -0.410156,3.0468 2.378906,0.4004 0.574219,-3.3945 2.345703,-3.5527 -2.55957,-0.3477 -0.951172,1.4453 -0.754883,-1.6719 -2.542969,-0.3652 z" style="fill:#bac3c8" fill-rule="evenodd"/>
  <rect y="8.25" x="-1015.36" height="0.5" width="2" transform="matrix(0,-1,1,0,0,0)" style="fill:#34495e"/>
  <rect y="8.25" x="-1019.36" height="0.5" width="2" transform="matrix(0,-1,1,0,0,0)" style="fill:#34495e"/>
  <rect transform="matrix(0,-1,1,0,0,0)" width="2" height="0.5" x="-1023.36" y="8.25" style="fill:#34495e"/>
  <rect y="8.25" x="-1027.36" height="0.5" width="2" transform="matrix(0,-1,1,0,0,0)" style="fill:#34495e"/>
  <rect transform="matrix(0,-1,1,0,0,0)" width="2" height="0.5" x="-1031.36" y="8.25" style="fill:#34495e"/>
  <rect transform="matrix(0,-1,1,0,0,0)" width="2" height="0.5" x="-1035.36" y="8.25" style="fill:#34495e"/>
  <rect y="8.25" x="-1039.36" height="0.5" width="2" transform="matrix(0,-1,1,0,0,0)" style="fill:#34495e"/>
  <rect transform="matrix(0,-1,1,0,0,0)" width="2" height="0.5" x="-1043.36" y="8.25" style="fill:#34495e"/>
  <rect y="8.25" x="-1047.36" height="0.5" width="2" transform="matrix(0,-1,1,0,0,0)" style="fill:#34495e"/>
  <rect width="34" height="4" x="7" y="1008.36" style="fill:#3498db"/>
  <path d="m 39,1013.3622 0,1 -28,0 0,-1 z" style="fill:#bdc3c7" id="0"/>
  <use xlink:href="#0"/>
  <path d="m 39,1046.3622 0,1 -28,0 0,-1 z" style="fill:#bdc3c7"/>
 </g>
</svg>
