<?xml version="1.0" encoding="UTF-8" standalone="no"?>
<!-- Created with Inkscape (http://www.inkscape.org/) -->

<svg
   xmlns:dc="http://purl.org/dc/elements/1.1/"
   xmlns:cc="http://creativecommons.org/ns#"
   xmlns:rdf="http://www.w3.org/1999/02/22-rdf-syntax-ns#"
   xmlns:svg="http://www.w3.org/2000/svg"
   xmlns="http://www.w3.org/2000/svg"
   xmlns:sodipodi="http://sodipodi.sourceforge.net/DTD/sodipodi-0.dtd"
   xmlns:inkscape="http://www.inkscape.org/namespaces/inkscape"
   width="48"
   height="48"
   id="svg2"
   version="1.1"
   inkscape:version="0.48.4 r9939"
   sodipodi:docname="lyx.svg"
   inkscape:export-filename="/home/uri/Iconos/NITRUX/apps/16/accessories-text-editor.png"
   inkscape:export-xdpi="30"
   inkscape:export-ydpi="30">
  <defs
     id="defs4" />
  <sodipodi:namedview
     id="base"
     pagecolor="#ffffff"
     bordercolor="#666666"
     borderopacity="1.0"
     inkscape:pageopacity="0.0"
     inkscape:pageshadow="2"
     inkscape:zoom="4.5919486"
     inkscape:cx="18.389851"
     inkscape:cy="7.9395965"
     inkscape:document-units="px"
     inkscape:current-layer="layer1"
     showgrid="false"
     inkscape:window-width="530"
     inkscape:window-height="518"
     inkscape:window-x="1242"
     inkscape:window-y="175"
     inkscape:window-maximized="0"
     showguides="false">
    <inkscape:grid
       type="xygrid"
       id="grid3797" />
  </sodipodi:namedview>
  <metadata
     id="metadata7">
    <rdf:RDF>
      <cc:Work
         rdf:about="">
        <dc:format>image/svg+xml</dc:format>
        <dc:type
           rdf:resource="http://purl.org/dc/dcmitype/StillImage" />
        <dc:title />
      </cc:Work>
    </rdf:RDF>
  </metadata>
  <g
     inkscape:label="Capa 1"
     inkscape:groupmode="layer"
     id="layer1"
     transform="translate(0,-1004.3622)">
    <path
       style="fill:#3498db;fill-opacity:1"
       d="m 27.779297,13.845703 1.351562,5.085938 1.914063,0.259765 -5.095703,7.712891 3.607422,1.193359 2.367187,-3.427734 0.931641,4.166016 L 38.095703,29.375 35.626953,21.689453 40,16.53125 35.132812,15.443359 33.179688,17.802734 32.224609,14.75 27.779297,13.845703 z M 12.167969,16.017578 12.068359,16.15625 8,18.175781 l 5.052734,12.396485 6.917969,-3.625 -1.732422,-4.007813 -2.789062,1.503906 -3.28125,-8.425781 z m 4.396484,2.054688 3.839844,8.878906 -0.820313,6.09375 4.757813,0.800781 1.148437,-6.789062 4.691407,-7.105469 -5.119141,-0.695313 -1.902344,2.890625 -1.509765,-3.34375 -5.085938,-0.730468 z"
       transform="translate(0,1004.3622)"
       id="path4411"
       inkscape:connector-curvature="0" />
    <path
       style="fill:#e74c3c;fill-opacity:1"
       d="m 27.779297,13.845703 1.351562,5.085938 1.429688,0.193359 0.484375,-0.732422 -1.914063,-0.259766 -1.126953,-4.242187 -0.224609,-0.04492 z M 39.429688,16.404297 35.626953,20.890625 35.8125,21.470703 40,16.53125 39.429688,16.404297 z M 8.2714844,18.041016 8,18.175781 l 5.052734,12.396485 6.917969,-3.625 -0.28125,-0.650391 -6.636719,3.476563 -4.7812496,-11.732422 z m 8.2929686,0.03125 3.757813,8.689453 0.08203,-0.609375 L 16.933593,18.125 16.564452,18.07227 z m 13.132813,1.8125 -4.207032,6.373046 -1.148437,6.789063 -4.652344,-0.783203 -0.105469,0.78125 4.757813,0.800781 1.148437,-6.789062 0.597657,-0.90625 -0.138672,-0.04492 4.080078,-6.175781 -0.332031,-0.04492 z m 2.226562,3.986328 -2.367187,3.427734 -3.173829,-1.050781 -0.433593,0.65625 3.607422,1.193359 2.367187,-3.427734 0.931641,4.166016 5.240234,0.539062 -0.265625,-0.826172 -4.974609,-0.511719 -0.931641,-4.166015 z"
       id="path4470"
       transform="translate(0,1004.3622)"
       inkscape:connector-curvature="0" />
    <path
       style="fill:#e74c3c;fill-opacity:1"
       d="m 27.779297,13.845703 0.113281,0.423828 4.332031,0.88086 0.955079,3.052734 1.953124,-2.359375 4.582032,1.023438 L 40,16.53125 35.132812,15.443359 33.179688,17.802734 32.224609,14.75 27.779297,13.845703 z M 12.167969,16.017578 12.068359,16.15625 8,18.175781 l 0.1347656,0.333985 3.9335934,-1.953125 0.09961,-0.138672 3.28125,8.425781 2.789062,-1.503906 1.591797,3.68164 0.140625,-0.07422 -1.732422,-4.007813 -2.789062,1.503906 -3.28125,-8.425781 z M 16.564453,18.072266 16.75,18.5 l 4.900391,0.703125 1.509765,3.34375 1.902344,-2.890625 4.876953,0.662109 0.242188,-0.367187 -5.119141,-0.695313 -1.902344,2.890625 -1.509765,-3.34375 -5.085938,-0.730468 z m 14.238281,1.486328 -4.853515,7.345703 0.216797,0.07227 4.878906,-7.384765 -0.242188,-0.0332 z m 4.917969,2.421875 -0.09375,0.109375 2.335938,7.271484 0.132812,0.01367 -2.375,-7.394531 z m -15.357422,5.27539 -0.779297,5.789063 0.05273,0.0098 0.767578,-5.703126 -0.04102,-0.0957 z"
       id="path4475"
       transform="translate(0,1004.3622)"
       inkscape:connector-curvature="0" />
  </g>
</svg>
