<svg xmlns="http://www.w3.org/2000/svg" width="48" height="48">
 <g transform="translate(0,-1004.3622)">
  <rect width="40" height="40" x="4" y="1008.36" style="fill:#34495e" rx="0"/>
  <rect y="1010.36" x="6" height="36" width="36" style="fill:#ecf0f1" rx="0"/>
  <path d="m 6,1013.3622 0,6 17,0 0,-6 -17,0 z" style="fill:#2980b9"/>
  <path d="m 25,1013.3622 0,6 17,0 0,-6 -17,0 z" style="fill:#27ae60"/>
  <path d="m 6.5,1013.8622 0,5 16,0 0,-5 -16,0 z" style="fill:#3498db"/>
  <path d="m 25.5,1013.8622 0,5 16,0 0,-5 -16,0 z" style="fill:#2ecc71"/>
  <path d="m 6,1037.3622 0,6 17,0 0,-6 -17,0 z" style="fill:#8e44ad"/>
  <path d="m 25,1037.3622 0,6 17,0 0,-6 -17,0 z" style="fill:#8e44ad"/>
  <path d="m 6.5,1037.8622 0,5 16,0 0,-5 -16,0 z" style="fill:#9b59b6"/>
  <path d="m 25.5,1037.8622 0,5 16,0 0,-5 -16,0 z" style="fill:#9b59b6"/>
  <path d="m 6,1025.3622 0,6 17,0 0,-6 -17,0 z" style="fill:#2980b9"/>
  <path d="m 25,1025.3622 0,6 17,0 0,-6 -17,0 z" style="fill:#27ae60"/>
  <path d="m 6.5,1025.8622 0,5 16,0 0,-5 -16,0 z" style="fill:#3498db"/>
  <path d="m 25.5,1025.8622 0,5 16,0 0,-5 -16,0 z" style="fill:#2ecc71"/>
  <rect width="2" height="38" x="23" y="1010.36" style="fill:#34495e"/>
 </g>
</svg>
