<?xml version="1.0" encoding="UTF-8" standalone="no"?>
<!-- Created with Inkscape (http://www.inkscape.org/) -->

<svg
   xmlns:dc="http://purl.org/dc/elements/1.1/"
   xmlns:cc="http://creativecommons.org/ns#"
   xmlns:rdf="http://www.w3.org/1999/02/22-rdf-syntax-ns#"
   xmlns:svg="http://www.w3.org/2000/svg"
   xmlns="http://www.w3.org/2000/svg"
   xmlns:sodipodi="http://sodipodi.sourceforge.net/DTD/sodipodi-0.dtd"
   xmlns:inkscape="http://www.inkscape.org/namespaces/inkscape"
   width="48"
   height="48"
   id="svg5453"
   version="1.1"
   inkscape:version="0.48.4 r9939"
   sodipodi:docname="minecraft.svg"
   viewBox="0 0 48 48"
   inkscape:export-filename="/home/uri/workspace/nitruxforAndroid/res/drawable-xhdpi/minecraft.png"
   inkscape:export-xdpi="180"
   inkscape:export-ydpi="180">
  <defs
     id="defs5455" />
  <sodipodi:namedview
     id="base"
     pagecolor="#ffffff"
     bordercolor="#666666"
     borderopacity="1.0"
     inkscape:pageopacity="0"
     inkscape:pageshadow="2"
     inkscape:zoom="5.6568542"
     inkscape:cx="59.451113"
     inkscape:cy="24.760127"
     inkscape:document-units="px"
     inkscape:current-layer="layer1"
     showgrid="false"
     fit-margin-top="0"
     fit-margin-left="0"
     fit-margin-right="0"
     fit-margin-bottom="0"
     inkscape:window-width="1440"
     inkscape:window-height="843"
     inkscape:window-x="0"
     inkscape:window-y="27"
     inkscape:window-maximized="1"
     showguides="true"
     inkscape:guide-bbox="true">
    <inkscape:grid
       type="xygrid"
       id="grid3298" />
    <sodipodi:guide
       orientation="0,1"
       position="-0.875,48"
       id="guide3044" />
    <sodipodi:guide
       orientation="1,0"
       position="0,22.375"
       id="guide3046" />
    <sodipodi:guide
       orientation="0,1"
       position="49.5,0"
       id="guide3048" />
    <sodipodi:guide
       orientation="1,0"
       position="48,15.25"
       id="guide3050" />
  </sodipodi:namedview>
  <metadata
     id="metadata5458">
    <rdf:RDF>
      <cc:Work
         rdf:about="">
        <dc:format>image/svg+xml</dc:format>
        <dc:type
           rdf:resource="http://purl.org/dc/dcmitype/StillImage" />
        <dc:title />
      </cc:Work>
    </rdf:RDF>
  </metadata>
  <g
     inkscape:label="Capa 1"
     inkscape:groupmode="layer"
     id="layer1"
     transform="translate(-384.57143,-499.798)">
    <rect
       style="fill:#76bd74;fill-opacity:1;stroke:none"
       id="rect3052"
       width="48"
       height="48"
       x="0"
       y="0"
       transform="translate(384.57143,499.798)"
       ry="0" />
    <rect
       style="fill:#5bb059;fill-opacity:1;stroke:none"
       id="rect3052-2"
       width="24"
       height="24"
       x="384.57144"
       y="523.79803"
       ry="0" />
    <rect
       style="fill:#8f6335;fill-opacity:1;stroke:none"
       id="rect3052-2-4"
       width="6"
       height="6"
       x="384.57144"
       y="541.79797"
       ry="0" />
    <rect
       style="fill:#a2703c;fill-opacity:1;stroke:none"
       id="rect3052-2-4-4"
       width="6"
       height="6"
       x="390.57144"
       y="541.79797"
       ry="0" />
    <rect
       style="fill:#875d32;fill-opacity:1;stroke:none"
       id="rect3052-2-4-9"
       width="6"
       height="6"
       x="396.57144"
       y="541.79797"
       ry="0" />
    <rect
       style="fill:#b77939;fill-opacity:1;stroke:none"
       id="rect3052-2-4-4-8"
       width="6"
       height="6"
       x="402.57144"
       y="541.79797"
       ry="0" />
    <rect
       style="fill:#956837;fill-opacity:1;stroke:none"
       id="rect3052-2-4-2"
       width="6"
       height="6"
       x="408.57144"
       y="541.79797"
       ry="0" />
    <rect
       style="fill:#a2703c;fill-opacity:1;stroke:none"
       id="rect3052-2-4-4-0"
       width="6"
       height="6"
       x="414.57144"
       y="541.79797"
       ry="0" />
    <rect
       style="fill:#956837;fill-opacity:1;stroke:none"
       id="rect3052-2-4-9-3"
       width="6"
       height="6"
       x="420.57144"
       y="541.79797"
       ry="0" />
    <rect
       style="fill:#a2703c;fill-opacity:1;stroke:none"
       id="rect3052-2-4-4-8-9"
       width="6"
       height="6"
       x="426.57144"
       y="541.79797"
       ry="0" />
    <rect
       style="fill:#a2703c;fill-opacity:1;stroke:none"
       id="rect3052-2-4-3"
       width="6"
       height="6"
       x="384.57144"
       y="535.79797"
       ry="0" />
    <rect
       style="fill:#946f2d;fill-opacity:1;stroke:none"
       id="rect3052-2-4-4-6"
       width="6"
       height="6"
       x="390.57144"
       y="535.79797"
       ry="0" />
    <rect
       style="fill:#8f6335;fill-opacity:1;stroke:none"
       id="rect3052-2-4-9-2"
       width="6"
       height="6"
       x="396.57144"
       y="535.79797"
       ry="0" />
    <rect
       style="fill:#aa7034;fill-opacity:1;stroke:none"
       id="rect3052-2-4-4-8-4"
       width="6"
       height="6"
       x="402.57144"
       y="535.79797"
       ry="0" />
    <rect
       style="fill:#956837;fill-opacity:1;stroke:none"
       id="rect3052-2-4-2-6"
       width="6"
       height="6"
       x="408.57144"
       y="535.79797"
       ry="0" />
    <rect
       style="fill:#8f6335;fill-opacity:1;stroke:none"
       id="rect3052-2-4-4-0-8"
       width="6"
       height="6"
       x="414.57144"
       y="535.79797"
       ry="0" />
    <rect
       style="fill:#8f6335;fill-opacity:1;stroke:none"
       id="rect3052-2-4-9-3-9"
       width="6"
       height="6"
       x="420.57144"
       y="535.79797"
       ry="0" />
    <rect
       style="fill:#ac7740;fill-opacity:1;stroke:none"
       id="rect3052-2-4-4-8-9-4"
       width="6"
       height="6"
       x="426.57144"
       y="535.79797"
       ry="0" />
    <rect
       style="fill:#a36b30;fill-opacity:1;stroke:none"
       id="rect3052-2-4-6"
       width="6"
       height="6"
       x="384.57144"
       y="529.79797"
       ry="0" />
    <rect
       style="fill:#a2703c;fill-opacity:1;stroke:none"
       id="rect3052-2-4-4-4"
       width="6"
       height="6"
       x="390.57144"
       y="529.79797"
       ry="0" />
    <rect
       style="fill:#7c502e;fill-opacity:1;stroke:none"
       id="rect3052-2-4-9-0"
       width="6"
       height="6"
       x="396.57144"
       y="529.79797"
       ry="0" />
    <rect
       style="fill:#a2703c;fill-opacity:1;stroke:none"
       id="rect3052-2-4-4-8-5"
       width="6"
       height="6"
       x="402.57144"
       y="529.79797"
       ry="0" />
    <rect
       style="fill:#bc844a;fill-opacity:1;stroke:none"
       id="rect3052-2-4-2-8"
       width="6"
       height="6"
       x="408.57144"
       y="529.79797"
       ry="0" />
    <rect
       style="fill:#a2703c;fill-opacity:1;stroke:none"
       id="rect3052-2-4-4-0-6"
       width="6"
       height="6"
       x="414.57144"
       y="529.79797"
       ry="0" />
    <rect
       style="fill:#866b3b;fill-opacity:1;stroke:none"
       id="rect3052-2-4-9-3-0"
       width="6"
       height="6"
       x="420.57144"
       y="529.79797"
       ry="0" />
    <rect
       style="fill:#a2703c;fill-opacity:1;stroke:none"
       id="rect3052-2-4-4-8-9-9"
       width="6"
       height="6"
       x="426.57144"
       y="529.79797"
       ry="0" />
    <rect
       style="fill:#a2703c;fill-opacity:1;stroke:none"
       id="rect3052-2-4-3-0"
       width="6"
       height="6"
       x="384.57144"
       y="523.79797"
       ry="0" />
    <rect
       style="fill:#956837;fill-opacity:1;stroke:none"
       id="rect3052-2-4-4-6-1"
       width="6"
       height="6"
       x="390.57144"
       y="523.79797"
       ry="0" />
    <rect
       style="fill:#a36b30;fill-opacity:1;stroke:none"
       id="rect3052-2-4-9-2-5"
       width="6"
       height="6"
       x="396.57144"
       y="523.79797"
       ry="0" />
    <rect
       style="fill:#ab7033;fill-opacity:1;stroke:none"
       id="rect3052-2-4-4-8-4-2"
       width="6"
       height="6"
       x="402.57144"
       y="523.79797"
       ry="0" />
    <rect
       style="fill:#8f6335;fill-opacity:1;stroke:none"
       id="rect3052-2-4-2-6-1"
       width="6"
       height="6"
       x="408.57144"
       y="523.79797"
       ry="0" />
    <rect
       style="fill:#845531;fill-opacity:1;stroke:none"
       id="rect3052-2-4-4-0-8-1"
       width="6"
       height="6"
       x="414.57144"
       y="523.79797"
       ry="0" />
    <rect
       style="fill:#a2703c;fill-opacity:1;stroke:none"
       id="rect3052-2-4-9-3-9-9"
       width="6"
       height="6"
       x="420.57144"
       y="523.79797"
       ry="0" />
    <rect
       style="fill:#ac7740;fill-opacity:1;stroke:none"
       id="rect3052-2-4-4-8-9-4-7"
       width="6"
       height="6"
       x="426.57144"
       y="523.79797"
       ry="0" />
    <rect
       style="fill:#5bb059;fill-opacity:1;stroke:none"
       id="rect3052-2-5"
       width="24"
       height="24"
       x="384.57144"
       y="499.79803"
       ry="0" />
    <rect
       style="fill:#3fa13d;fill-opacity:1;stroke:none"
       id="rect3052-2-4-8"
       width="6"
       height="6"
       x="384.57144"
       y="517.79791"
       ry="0" />
    <rect
       style="fill:#674726;fill-opacity:1;stroke:none"
       id="rect3052-2-4-4-7"
       width="6"
       height="6"
       x="390.57144"
       y="517.79791"
       ry="0" />
    <rect
       style="fill:#a36b30;fill-opacity:1;stroke:none"
       id="rect3052-2-4-9-9"
       width="6"
       height="6"
       x="396.57144"
       y="517.79791"
       ry="0" />
    <rect
       style="fill:#977047;fill-opacity:1;stroke:none"
       id="rect3052-2-4-4-8-0"
       width="6"
       height="6"
       x="402.57144"
       y="517.79791"
       ry="0" />
    <rect
       style="fill:#a36b30;fill-opacity:1;stroke:none"
       id="rect3052-2-4-2-2"
       width="6"
       height="6"
       x="408.57144"
       y="517.79791"
       ry="0" />
    <rect
       style="fill:#3b843a;fill-opacity:1;stroke:none"
       id="rect3052-2-4-4-0-84"
       width="6"
       height="6"
       x="414.57144"
       y="517.79791"
       ry="0" />
    <rect
       style="fill:#b17a41;fill-opacity:1;stroke:none"
       id="rect3052-2-4-9-3-90"
       width="6"
       height="6"
       x="420.57144"
       y="517.79791"
       ry="0" />
    <rect
       style="fill:#a2703c;fill-opacity:1;stroke:none"
       id="rect3052-2-4-4-8-9-0"
       width="6"
       height="6"
       x="426.57144"
       y="517.79791"
       ry="0" />
    <rect
       style="fill:#4eb84b;fill-opacity:1;stroke:none"
       id="rect3052-2-4-3-5"
       width="6"
       height="6"
       x="384.57144"
       y="511.79797"
       ry="0" />
    <rect
       style="fill:#956837;fill-opacity:1;stroke:none"
       id="rect3052-2-4-4-6-9"
       width="6"
       height="6"
       x="390.57144"
       y="511.79797"
       ry="0" />
    <rect
       style="fill:#7c502e;fill-opacity:1;stroke:none"
       id="rect3052-2-4-9-2-9"
       width="6"
       height="6"
       x="396.57144"
       y="511.79797"
       ry="0" />
    <rect
       style="fill:#50a85f;fill-opacity:1;stroke:none"
       id="rect3052-2-4-4-8-4-9"
       width="6"
       height="6"
       x="402.57144"
       y="511.79797"
       ry="0" />
    <rect
       style="fill:#43c340;fill-opacity:1;stroke:none"
       id="rect3052-2-4-2-6-7"
       width="6"
       height="6"
       x="408.57144"
       y="511.79797"
       ry="0" />
    <rect
       style="fill:#3b843a;fill-opacity:1;stroke:none"
       id="rect3052-2-4-4-0-8-3"
       width="6"
       height="6"
       x="414.57144"
       y="511.79797"
       ry="0" />
    <rect
       style="fill:#9b783a;fill-opacity:1;stroke:none"
       id="rect3052-2-4-9-3-9-2"
       width="6"
       height="6"
       x="420.57144"
       y="511.79797"
       ry="0" />
    <rect
       style="fill:#377c36;fill-opacity:1;stroke:none"
       id="rect3052-2-4-4-8-9-4-4"
       width="6"
       height="6"
       x="426.57144"
       y="511.79797"
       ry="0" />
    <rect
       style="fill:#499648;fill-opacity:1;stroke:none"
       id="rect3052-2-4-6-4"
       width="6"
       height="6"
       x="384.57144"
       y="505.79797"
       ry="0" />
    <rect
       style="fill:#45a943;fill-opacity:1;stroke:none"
       id="rect3052-2-4-4-4-0"
       width="6"
       height="6"
       x="390.57144"
       y="505.79797"
       ry="0" />
    <rect
       style="fill:#3b843a;fill-opacity:1;stroke:none"
       id="rect3052-2-4-9-0-6"
       width="6"
       height="6"
       x="396.57144"
       y="505.79797"
       ry="0" />
    <rect
       style="fill:#4eb84b;fill-opacity:1;stroke:none"
       id="rect3052-2-4-4-8-5-5"
       width="6"
       height="6"
       x="402.57144"
       y="505.79797"
       ry="0" />
    <rect
       style="fill:#499648;fill-opacity:1;stroke:none"
       id="rect3052-2-4-2-8-0"
       width="6"
       height="6"
       x="408.57144"
       y="505.79797"
       ry="0" />
    <rect
       style="fill:#45a943;fill-opacity:1;stroke:none"
       id="rect3052-2-4-4-0-6-7"
       width="6"
       height="6"
       x="414.57144"
       y="505.79797"
       ry="0" />
    <rect
       style="fill:#3ca33b;fill-opacity:1;stroke:none"
       id="rect3052-2-4-9-3-0-0"
       width="6"
       height="6"
       x="420.57144"
       y="505.79797"
       ry="0" />
    <rect
       style="fill:#499648;fill-opacity:1;stroke:none"
       id="rect3052-2-4-4-8-9-9-5"
       width="6"
       height="6"
       x="426.57144"
       y="505.79797"
       ry="0" />
    <rect
       style="fill:#3eb13b;fill-opacity:1;stroke:none"
       id="rect3052-2-4-3-0-8"
       width="6"
       height="6"
       x="384.57144"
       y="499.79797"
       ry="0" />
    <rect
       style="fill:#499648;fill-opacity:1;stroke:none"
       id="rect3052-2-4-4-6-1-3"
       width="6"
       height="6"
       x="390.57144"
       y="499.79797"
       ry="0" />
    <rect
       style="fill:#548b53;fill-opacity:1;stroke:none"
       id="rect3052-2-4-9-2-5-4"
       width="6"
       height="6"
       x="396.57144"
       y="499.79797"
       ry="0" />
    <rect
       style="fill:#3b843a;fill-opacity:1;stroke:none"
       id="rect3052-2-4-4-8-4-2-8"
       width="6"
       height="6"
       x="402.57144"
       y="499.79797"
       ry="0" />
    <rect
       style="fill:#3b843a;fill-opacity:1;stroke:none"
       id="rect3052-2-4-2-6-1-1"
       width="6"
       height="6"
       x="408.57144"
       y="499.79797"
       ry="0" />
    <rect
       style="fill:#499648;fill-opacity:1;stroke:none"
       id="rect3052-2-4-4-0-8-1-4"
       width="6"
       height="6"
       x="414.57144"
       y="499.79797"
       ry="0" />
    <rect
       style="fill:#46b044;fill-opacity:1;stroke:none"
       id="rect3052-2-4-9-3-9-9-7"
       width="6"
       height="6"
       x="420.57144"
       y="499.79797"
       ry="0" />
    <rect
       style="fill:#45a943;fill-opacity:1;stroke:none"
       id="rect3052-2-4-4-8-9-4-7-0"
       width="6"
       height="6"
       x="426.57144"
       y="499.79797"
       ry="0" />
    <path
       style="fill:#51c164;fill-opacity:0.87005651;stroke:none"
       d="m 48,18 -6.003815,0 0.0039,-6.004083 -5.997464,0.01172 -0.0039,11.988341 -6.003821,0.0039 -0.0039,-6.005277 -11.996153,0.0039 0.0074,-6.004301 -6.005467,0.04004 -5.9991103,-0.03395 0.00103,6.002115 -2e-7,5.993672 L 0,24.001108 0,0 48,0 z"
       id="path3054"
       inkscape:connector-curvature="0"
       transform="translate(384.57143,499.798)"
       sodipodi:nodetypes="ccccccccccccccccc" />
    <path
       style="fill:#9c6d42;fill-opacity:0.75706214;stroke:none"
       d="M 0,24.002563 0,48 l 48,0 0,-30 -6.003906,-0.0039 0,-5.996093 -5.996094,0 0,12 -6.0051,0.0012 0.0012,-6.013088 -11.996037,0.0092 0.0065,-6.015539 -11.9987181,0.01294 -0.00915,12.00274 z"
       id="path3824"
       inkscape:connector-curvature="0"
       transform="translate(384.57143,499.798)"
       sodipodi:nodetypes="ccccccccccccccc" />
  </g>
</svg>
