<svg xmlns="http://www.w3.org/2000/svg" width="48" height="48" viewBox="0 0 48 48">
 <g transform="translate(-384.57143,-499.798)">
  <rect width="40" height="40" x="388.57" y="503.8" style="fill:#76bd74" rx="0"/>
  <rect width="20" height="20" x="388.57" y="523.8" style="fill:#5bb059" rx="0"/>
  <rect width="5" height="5" x="388.57" y="538.8" style="fill:#8f6335" rx="0"/>
  <rect width="5" height="5" x="393.57" y="538.8" style="fill:#a2703c" rx="0"/>
  <rect width="5" height="5" x="398.57" y="538.8" style="fill:#875d32" rx="0"/>
  <rect width="5" height="5" x="403.57" y="538.8" style="fill:#b77939" rx="0"/>
  <rect width="5" height="5" x="408.57" y="538.8" style="fill:#956837" rx="0"/>
  <rect width="5" height="5" x="413.57" y="538.8" style="fill:#a2703c" rx="0"/>
  <rect width="5" height="5" x="418.57" y="538.8" style="fill:#956837" rx="0"/>
  <rect width="5" height="5" x="423.57" y="538.8" style="fill:#a2703c" rx="0"/>
  <rect width="5" height="5" x="388.57" y="533.8" style="fill:#a2703c" rx="0"/>
  <rect width="5" height="5" x="393.57" y="533.8" style="fill:#946f2d" rx="0"/>
  <rect width="5" height="5" x="398.57" y="533.8" style="fill:#8f6335" rx="0"/>
  <rect width="5" height="5" x="403.57" y="533.8" style="fill:#aa7034" rx="0"/>
  <rect width="5" height="5" x="408.57" y="533.8" style="fill:#956837" rx="0"/>
  <rect width="5" height="5" x="413.57" y="533.8" style="fill:#8f6335" rx="0"/>
  <rect width="5" height="5" x="418.57" y="533.8" style="fill:#8f6335" rx="0"/>
  <rect width="5" height="5" x="423.57" y="533.8" style="fill:#ac7740" rx="0"/>
  <rect width="5" height="5" x="388.57" y="528.8" style="fill:#a36b30" rx="0"/>
  <rect width="5" height="5" x="393.57" y="528.8" style="fill:#a2703c" rx="0"/>
  <rect width="5" height="5" x="398.57" y="528.8" style="fill:#7c502e" rx="0"/>
  <rect width="5" height="5" x="403.57" y="528.8" style="fill:#a2703c" rx="0"/>
  <rect width="5" height="5" x="408.57" y="528.8" style="fill:#bc844a" rx="0"/>
  <rect width="5" height="5" x="413.57" y="528.8" style="fill:#a2703c" rx="0"/>
  <rect width="5" height="5" x="418.57" y="528.8" style="fill:#866b3b" rx="0"/>
  <rect width="5" height="5" x="423.57" y="528.8" style="fill:#a2703c" rx="0"/>
  <rect width="5" height="5" x="388.57" y="523.8" style="fill:#a2703c" rx="0"/>
  <rect width="5" height="5" x="393.57" y="523.8" style="fill:#956837" rx="0"/>
  <rect width="5" height="5" x="398.57" y="523.8" style="fill:#a36b30" rx="0"/>
  <rect width="5" height="5" x="403.57" y="523.8" style="fill:#ab7033" rx="0"/>
  <rect width="5" height="5" x="408.57" y="523.8" style="fill:#8f6335" rx="0"/>
  <rect width="5" height="5" x="413.57" y="523.8" style="fill:#845531" rx="0"/>
  <rect width="5" height="5" x="418.57" y="523.8" style="fill:#a2703c" rx="0"/>
  <rect width="5" height="5" x="423.57" y="523.8" style="fill:#ac7740" rx="0"/>
  <rect width="20" height="20" x="388.57" y="503.8" style="fill:#5bb059" rx="0"/>
  <rect width="5" height="5" x="388.57" y="518.8" style="fill:#3fa13d" rx="0"/>
  <rect width="5" height="5" x="393.57" y="518.8" style="fill:#674726" rx="0"/>
  <rect width="5" height="5" x="398.57" y="518.8" style="fill:#a36b30" rx="0"/>
  <rect width="5" height="5" x="403.57" y="518.8" style="fill:#977047" rx="0"/>
  <rect width="5" height="5" x="408.57" y="518.8" style="fill:#a36b30" rx="0"/>
  <rect width="5" height="5" x="413.57" y="518.8" style="fill:#3b843a" rx="0"/>
  <rect width="5" height="5" x="418.57" y="518.8" style="fill:#b17a41" rx="0"/>
  <rect width="5" height="5" x="423.57" y="518.8" style="fill:#a2703c" rx="0"/>
  <rect width="5" height="5" x="388.57" y="513.8" style="fill:#4eb84b" rx="0"/>
  <rect width="5" height="5" x="393.57" y="513.8" style="fill:#956837" rx="0"/>
  <rect width="5" height="5" x="398.57" y="513.8" style="fill:#7c502e" rx="0"/>
  <rect width="5" height="5" x="403.57" y="513.8" style="fill:#50a85f" rx="0"/>
  <rect width="5" height="5" x="408.57" y="513.8" style="fill:#43c340" rx="0"/>
  <rect width="5" height="5" x="413.57" y="513.8" style="fill:#3b843a" rx="0"/>
  <rect width="5" height="5" x="418.57" y="513.8" style="fill:#9b783a" rx="0"/>
  <rect width="5" height="5" x="423.57" y="513.8" style="fill:#377c36" rx="0"/>
  <rect width="5" height="5" x="388.57" y="508.8" style="fill:#499648" rx="0"/>
  <rect width="5" height="5" x="393.57" y="508.8" style="fill:#45a943" rx="0"/>
  <rect width="5" height="5" x="398.57" y="508.8" style="fill:#3b843a" rx="0"/>
  <rect width="5" height="5" x="403.57" y="508.8" style="fill:#4eb84b" rx="0"/>
  <rect width="5" height="5" x="408.57" y="508.8" style="fill:#499648" rx="0"/>
  <rect width="5" height="5" x="413.57" y="508.8" style="fill:#45a943" rx="0"/>
  <rect width="5" height="5" x="418.57" y="508.8" style="fill:#3ca33b" rx="0"/>
  <rect width="5" height="5" x="423.57" y="508.8" style="fill:#499648" rx="0"/>
  <rect width="5" height="5" x="388.57" y="503.8" style="fill:#3eb13b" rx="0"/>
  <rect width="5" height="5" x="393.57" y="503.8" style="fill:#499648" rx="0"/>
  <rect width="5" height="5" x="398.57" y="503.8" style="fill:#548b53" rx="0"/>
  <rect width="5" height="5" x="403.57" y="503.8" style="fill:#3b843a" rx="0"/>
  <rect width="5" height="5" x="408.57" y="503.8" style="fill:#3b843a" rx="0"/>
  <rect width="5" height="5" x="413.57" y="503.8" style="fill:#499648" rx="0"/>
  <rect width="5" height="5" x="418.57" y="503.8" style="fill:#46b044" rx="0"/>
  <rect width="5" height="5" x="423.57" y="503.8" style="fill:#45a943" rx="0"/>
  <path d="m 428.57143,518.798 -5.00317,0 0.004,-5.0034 -4.99789,0.01 -0.004,9.9903 -5.00319,0.004 -0.004,-5.0044 -9.9968,0.004 0.007,-5.00358 -5.00456,0.0333 -4.99925,-0.0283 8.5e-4,5.00176 0,4.99474 -4.99892,0.005 0,-20.00093 40.00003,0 z" style="fill:#51c164" fill-opacity="0.87"/>
  <path d="m 388.5714,523.80013 0,19.99789 40.00003,0 0,-25.00002 -5.00326,-0.004 0,-4.99673 -4.99674,0 0,10 -5.00426,8.7e-4 8.7e-4,-5.01092 -9.99671,0.009 0.006,-5.01294 -9.99894,0.0109 -0.009,10.00229 z" style="fill:#9c6d42" fill-opacity="0.757"/>
 </g>
</svg>
