<?xml version="1.0" standalone="no"?>
<!DOCTYPE svg PUBLIC "-//W3C//DTD SVG 20010904//EN" "http://www.w3.org/TR/2001/REC-SVG-20010904/DTD/svg10.dtd">
<!-- Created using Karbon, part of Calligra: http://www.calligra.org/karbon -->
<svg xmlns="http://www.w3.org/2000/svg" xmlns:xlink="http://www.w3.org/1999/xlink" width="38.4pt" height="38.4pt">
<defs/>
<g id="layer1">
  <rect id="rect3264" transform="matrix(3.54331 0 0 3.54331 5.55112e-16 22)" fill="none" width="0.90311120000pt" height="0.90311120000pt" rx="0.45047569600pt" ry="0.45047569600pt"/>
  <rect id="rect4066" transform="matrix(3.54331 0 0 3.54331 44 22)" fill="none" width="0.90311120000pt" height="0.90311120000pt" rx="0.45047569600pt" ry="0.45047569600pt"/>
  <rect id="rect4068" transform="matrix(0 -3.54331 3.54331 0 22 48)" fill="none" width="0.90311120000pt" height="0.90311120000pt" rx="0.45047569600pt" ry="0.45047569600pt"/>
  <rect id="rect4070" transform="matrix(0 -3.54331 3.54331 0 22 4.00007)" fill="none" width="0.90311120000pt" height="0.90311120000pt" rx="0.45047569600pt" ry="0.45047569600pt"/>
  <rect id="rect4072" transform="matrix(3.54331 0 0 3.54331 4 3.99997)" fill="#2980b9" fill-rule="evenodd" width="9.03111120000pt" height="9.03111120000pt"/>
  <rect id="rect4094" transform="matrix(0 -3.54331 3.54331 0 23 5.99946)" fill="none" width="0.45155558400pt" height="0.45155558400pt" rx="0.22523784800pt" ry="0.22523784800pt"/>
  <rect id="rect4096" transform="matrix(0 -3.54331 3.54331 0 23 6.00013)" fill="none" width="0.45155558400pt" height="0.45155558400pt" rx="0.22523784800pt" ry="0.22523784800pt"/>
  <rect id="rect4098" transform="matrix(3.54331 0 0 3.54331 6 6.00002)" fill="#2c2c2c" fill-rule="evenodd" width="8.12800080000pt" height="2.03199960000pt"/>
  <rect id="rect4100" transform="matrix(0 -3.54331 3.54331 0 4 9.32088)" fill="none" width="0.45155558400pt" height="0.45155558400pt" rx="0.22523784800pt" ry="0.22523784800pt"/>
  <rect id="rect4102" transform="matrix(0 -3.54331 3.54331 0 42 9.32088)" fill="none" width="0.45155558400pt" height="0.45155558400pt" rx="0.22523784800pt" ry="0.22523784800pt"/>
  <rect id="rect4104" transform="matrix(3.54331 0 0 3.54331 4 19.4995)" fill="none" width="2.03200096000pt" height="2.03200096000pt" rx="1.01356984000pt" ry="1.01356984000pt"/>
  <rect id="rect4106" transform="matrix(3.54331 0 0 3.54331 35 19.4995)" fill="none" width="2.03200096000pt" height="2.03200096000pt" rx="1.01356984000pt" ry="1.01356984000pt"/>
  <rect id="rect4125" transform="matrix(3.54331 0 0 3.54331 13 17)" fill="#2c2c2c" fill-rule="evenodd" width="0.90311120000pt" height="0.90311120000pt" rx="0.45047569600pt" ry="0.45047569600pt"/>
  <rect id="rect4127" transform="matrix(3.54331 0 0 3.54331 31 17)" fill="#2c2c2c" fill-rule="evenodd" width="0.90311120000pt" height="0.90311120000pt" rx="0.45047569600pt" ry="0.45047569600pt"/>
  <rect id="rect4129" transform="matrix(0 -3.54331 3.54331 0 23 16.9994)" fill="none" width="0.45155558400pt" height="0.45155558400pt" rx="0.22523784800pt" ry="0.22523784800pt"/>
  <rect id="rect4226" transform="matrix(0 -3.54331 3.54331 0 14 20.9999)" fill="none" width="0.45155558400pt" height="0.45155558400pt" rx="0.22523784800pt" ry="0.22523784800pt"/>
  <rect id="rect4228" transform="matrix(0 -3.54331 3.54331 0 32 20.9999)" fill="none" width="0.45155558400pt" height="0.45155558400pt" rx="0.22523784800pt" ry="0.22523784800pt"/>
  <rect id="rect4230" transform="matrix(0 -3.54331 3.54331 0 14 28.4995)" fill="#ffffff" fill-rule="evenodd" width="2.03200000000pt" height="0.45155558400pt" rx="0.22577779200pt" ry="0.22577779200pt"/>
  <rect id="rect4232" transform="matrix(0 -3.54331 3.54331 0 32 28.5201)" fill="#ffffff" fill-rule="evenodd" width="2.03200000000pt" height="0.45155558400pt" rx="0.22577779200pt" ry="0.22577779200pt"/>
  <rect id="rect4234" transform="matrix(3.54331 0 0 3.54331 14 26.5201)" fill="#ffffff" fill-rule="evenodd" width="4.51555480000pt" height="0.45155558400pt" rx="0.22577779200pt" ry="0.22577779200pt"/>
  <rect id="rect4095" transform="matrix(0.707107 -0.707107 0.707107 0.707107 36.5348 37.4649)" fill="#2c3e50" width="1.06092973827pt" height="6.44090444106pt"/>
  <rect id="rect40701" transform="matrix(1 0 0 1 29.5725 29.8963)" fill="#ecf0f1" width="7.69174007202pt" height="7.69174007202pt" rx="3.84587003601pt" ry="3.84587003601pt"/>
  <rect id="rect40721" transform="matrix(1 0 0 1 30.8986 31.2225)" fill="#3498db" width="5.56988059547pt" height="5.56988059547pt" rx="2.78494029774pt" ry="2.78494029774pt"/>
 </g>
</svg>
