<?xml version="1.0" encoding="UTF-8" standalone="no"?>
<!-- Created with Inkscape (http://www.inkscape.org/) -->

<svg
   xmlns:dc="http://purl.org/dc/elements/1.1/"
   xmlns:cc="http://creativecommons.org/ns#"
   xmlns:rdf="http://www.w3.org/1999/02/22-rdf-syntax-ns#"
   xmlns:svg="http://www.w3.org/2000/svg"
   xmlns="http://www.w3.org/2000/svg"
   xmlns:sodipodi="http://sodipodi.sourceforge.net/DTD/sodipodi-0.dtd"
   xmlns:inkscape="http://www.inkscape.org/namespaces/inkscape"
   width="48"
   height="48"
   id="svg2"
   version="1.1"
   inkscape:version="0.48+devel r12923"
   sodipodi:docname="myunity.svg">
  <defs
     id="defs4" />
  <sodipodi:namedview
     id="base"
     pagecolor="#ffffff"
     bordercolor="#666666"
     borderopacity="1.0"
     inkscape:pageopacity="0.0"
     inkscape:pageshadow="2"
     inkscape:zoom="5.7455882"
     inkscape:cx="10.496229"
     inkscape:cy="20.843756"
     inkscape:document-units="px"
     inkscape:current-layer="layer1"
     showgrid="false"
     inkscape:window-width="1366"
     inkscape:window-height="669"
     inkscape:window-x="0"
     inkscape:window-y="26"
     inkscape:window-maximized="1"
     showguides="true">
    <inkscape:grid
       type="xygrid"
       id="grid3850" />
    <sodipodi:guide
       position="2.0000153,4.0000174"
       orientation="0,44.000008"
       id="guide4204" />
    <sodipodi:guide
       position="46.000023,44.000017"
       orientation="0,-44.000008"
       id="guide4208" />
    <sodipodi:guide
       position="9,39.000017"
       orientation="30,0"
       id="guide4212" />
    <sodipodi:guide
       position="9,9.0000174"
       orientation="0,30"
       id="guide4214" />
    <sodipodi:guide
       position="39,9.0000174"
       orientation="-30,0"
       id="guide4216" />
    <sodipodi:guide
       position="39,39.000017"
       orientation="0,-30"
       id="guide4218" />
    <sodipodi:guide
       position="15,33.000017"
       orientation="18,0"
       id="guide4222" />
    <sodipodi:guide
       position="15,15.000017"
       orientation="0,18"
       id="guide4224" />
    <sodipodi:guide
       position="33,15.000017"
       orientation="-18,0"
       id="guide4226" />
    <sodipodi:guide
       position="33,33.000017"
       orientation="0,-18"
       id="guide4228" />
    <sodipodi:guide
       position="35.000008,15.000017"
       orientation="11,0"
       id="guide4232" />
    <sodipodi:guide
       position="35.000008,4.0000174"
       orientation="0,11.000015"
       id="guide4234" />
    <sodipodi:guide
       position="46.000023,15.000017"
       orientation="0,-11.000015"
       id="guide4238" />
    <sodipodi:guide
       position="4,44.000017"
       orientation="40,0"
       id="guide4242" />
    <sodipodi:guide
       position="4,4.0000174"
       orientation="0,40"
       id="guide4244" />
    <sodipodi:guide
       position="44,4.0000174"
       orientation="-40,0"
       id="guide4246" />
    <sodipodi:guide
       position="44,44.000017"
       orientation="0,-40"
       id="guide4248" />
    <sodipodi:guide
       position="9,28.500017"
       orientation="9,0"
       id="guide4254" />
    <sodipodi:guide
       position="9,19.500017"
       orientation="0,30"
       id="guide4256" />
    <sodipodi:guide
       position="39,19.500017"
       orientation="-9,0"
       id="guide4258" />
    <sodipodi:guide
       position="39,28.500017"
       orientation="0,-30"
       id="guide4260" />
  </sodipodi:namedview>
  <metadata
     id="metadata7">
    <rdf:RDF>
      <cc:Work
         rdf:about="">
        <dc:format>image/svg+xml</dc:format>
        <dc:type
           rdf:resource="http://purl.org/dc/dcmitype/StillImage" />
        <dc:title />
      </cc:Work>
    </rdf:RDF>
  </metadata>
  <g
     inkscape:label="Capa 1"
     inkscape:groupmode="layer"
     id="layer1"
     transform="translate(0,-1004.3622)">
    <rect
       y="1008.3622"
       x="4"
       height="40"
       width="40"
       id="rect813"
       style="fill:#34495e;fill-opacity:1;stroke:none" />
    <ellipse
       style="fill:none;stroke:none"
       id="path3266"
       cx="1006.3622"
       cy="-24"
       rx="2"
       ry="2.0000615"
       transform="matrix(0,1,-1,0,0,0)"
       d="m 1008.3622,-24 a 2,2.0000615 0 0 1 -2,2.000062 2,2.0000615 0 0 1 -2,-2.000062 2,2.0000615 0 0 1 2,-2.000062 2,2.0000615 0 0 1 2,2.000062 z" />
    <ellipse
       ry="2.0000615"
       rx="2"
       cy="-24"
       cx="1050.3622"
       id="ellipse3268"
       style="fill:none;stroke:none"
       transform="matrix(0,1,-1,0,0,0)"
       d="m 1052.3622,-24 a 2,2.0000615 0 0 1 -2,2.000062 2,2.0000615 0 0 1 -2,-2.000062 2,2.0000615 0 0 1 2,-2.000062 2,2.0000615 0 0 1 2,2.000062 z" />
    <ellipse
       transform="scale(-1,-1)"
       ry="1.0000308"
       rx="1"
       cy="-1028.3622"
       cx="-47"
       id="ellipse3270"
       style="fill:none;stroke:none"
       d="m -46,-1028.3622 a 1,1.0000308 0 0 1 -1,1 1,1.0000308 0 0 1 -1,-1 1,1.0000308 0 0 1 1,-1 1,1.0000308 0 0 1 1,1 z" />
    <ellipse
       transform="scale(-1,-1)"
       style="fill:none;stroke:none"
       id="ellipse3272"
       cx="-1"
       cy="-1028.3622"
       rx="1"
       ry="1.0000308"
       d="m 0,-1028.3622 a 1,1.0000308 0 0 1 -1,1 1,1.0000308 0 0 1 -1,-1 1,1.0000308 0 0 1 1,-1 1,1.0000308 0 0 1 1,1 z" />
    <rect
       y="1013.3622"
       x="9"
       height="30"
       width="30"
       id="rect3286"
       style="fill:none;stroke:none" />
    <path
       style="fill:#9b59b6;fill-opacity:1;stroke:none"
       d="M 13.5 19.5 C 11.007 19.5 9 21.507 9 24 C 9 26.493 11.007 28.5 13.5 28.5 L 30.5 28.5 C 30.755364 28.5 31.00061 28.46431 31.244141 28.423828 A 5.5 5.5 0 0 1 29 24 A 5.5 5.5 0 0 1 31.244141 19.576172 C 31.00061 19.53569 30.755364 19.5 30.5 19.5 L 13.5 19.5 z "
       transform="translate(0,1004.3622)"
       id="rect4250" />
    <path
       style="fill:#ecf0f1;fill-opacity:1;stroke:none"
       d="m 34.5,1022.8622 a 5.5,5.5 0 0 0 -5.5,5.5 5.5,5.5 0 0 0 5.5,5.5 5.5,5.5 0 0 0 5.5,-5.5 5.5,5.5 0 0 0 -5.5,-5.5 z"
       id="path4093"
       inkscape:connector-curvature="0" />
  </g>
</svg>
