<svg xmlns="http://www.w3.org/2000/svg" width="48" height="48">
 <g transform="translate(0,-1004.3622)">
  <g>
   <rect width="40" height="40" x="4" y="1008.36" style="fill:#34495e"/>
   <path transform="translate(0,1004.3622)" d="M 13.5 19.5 C 11.007 19.5 9 21.507 9 24 C 9 26.493 11.007 28.5 13.5 28.5 L 30.5 28.5 C 30.755364 28.5 31.00061 28.46431 31.244141 28.423828 A 5.5 5.5 0 0 1 29 24 A 5.5 5.5 0 0 1 31.244141 19.576172 C 31.00061 19.53569 30.755364 19.5 30.5 19.5 L 13.5 19.5 z " style="fill:#9b59b6"/>
   <path d="m 34.5,1022.8622 a 5.5,5.5 0 0 0 -5.5,5.5 5.5,5.5 0 0 0 5.5,5.5 5.5,5.5 0 0 0 5.5,-5.5 5.5,5.5 0 0 0 -5.5,-5.5 z" style="fill:#ecf0f1"/>
  </g>
 </g>
</svg>
