<svg xmlns="http://www.w3.org/2000/svg" width="48" height="48">
 <rect width="40" height="40" x="4" y="4" style="fill:#ecf0f1" rx="20"/>
 <path d="M 23,34.000004 16,34 l -2,-1.999996 0,-7 9,0 z" style="fill:#9b59b6"/>
 <path d="m 18,19.000004 0,7 2,2 7,0 0,-7 -2,-2 z" style="fill:#3498db"/>
 <path d="m 16,34.000004 -2,-2 0,-7 2,2 z" style="fill:#8e44ad"/>
 <path d="M 23 24 L 23 29.445312 L 24.554688 31 L 30 31 L 30 25.554688 L 28.445312 24 L 23 24 z " style="fill:#34495e"/>
 <path d="m 20,28.000004 -2,-2 0,-7 2,2 z" style="fill:#2980b9"/>
 <path d="M 24.555556,31.000004 23,29.444448 l 0,-5.444444 1.555556,1.555555 z" style="fill:#2c3e50"/>
 <path d="M 24 17 L 24 20.888672 L 25.111328 22 L 29 22 L 29 18.111328 L 27.888672 17 L 24 17 z " style="fill:#2ecc71"/>
 <path d="M 25.111112,22.000004 24,20.888892 l 0,-3.888889 1.111112,1.111111 z" style="fill:#27ae60"/>
 <path d="M 27 14 L 27 19.445312 L 28.554688 21 L 34 21 L 34 15.554688 L 32.445312 14 L 27 14 z " style="fill:#1abc9c"/>
 <path d="M 28.555557,21.000004 27,19.444447 l 0,-5.444444 1.555557,1.555556 z" style="fill:#16a085"/>
 <path d="M 26.75 30.5 L 26.75 33.222656 L 27.527344 34 L 30.25 34 L 30.25 31.277344 L 29.472656 30.5 L 26.75 30.5 z " style="fill:#e74c3c"/>
 <path d="M 27.527779,34.000004 26.75,33.222226 l 0,-2.722222 0.777779,0.777778 z" style="fill:#c0392b"/>
 <path d="m 17,22.000004 -1,-1 0,-4 4,0 1,1 0,4 z" style="fill:#e67e22"/>
 <path d="M 17.111112,22.000004 16,20.888892 l 0,-3.888889 1.111112,1.111111 z" style="fill:#d35400"/>
</svg>
