<?xml version="1.0" standalone="no"?>
<!DOCTYPE svg PUBLIC "-//W3C//DTD SVG 20010904//EN" "http://www.w3.org/TR/2001/REC-SVG-20010904/DTD/svg10.dtd">
<!-- Created using Karbon, part of Calligra: http://www.calligra.org/karbon -->
<svg xmlns="http://www.w3.org/2000/svg" xmlns:xlink="http://www.w3.org/1999/xlink" width="38.4pt" height="38.4pt">
<defs/>
<g id="layer1">
  <path id="shape0" transform="translate(8.27816, 10.5316)" fill="none" stroke="#4c4c4c" stroke-width="3.14043851132" stroke-linecap="square" stroke-linejoin="bevel" d="M0 25.2514L27.1004 24.9969L6.97158 0"/>
  <path id="shape1" transform="translate(35.1962, 8.56984)" fill="none" stroke="#4c4c4c" stroke-width="3.14043851132" stroke-linecap="square" stroke-linejoin="bevel" d="M6.90025 0L0 25.6828"/>
  <path id="shape11" transform="translate(23.7459, 23.106)" fill="#6dd8fe" fill-rule="evenodd" stroke="#4c4c4c" stroke-width="1.90027888257" stroke-linecap="square" stroke-linejoin="bevel" d="M21.4679 10.4253C21.297 4.52868 16.4008 -0.125565 10.503 0.00258399C4.60529 0.130732 -0.084288 4.99325 0.00114908 10.8917C0.0865872 16.7903 4.91503 21.5149 10.814 21.4721C16.713 21.4293 21.4725 16.6354 21.4725 10.7362"/>
  <path id="shape2" transform="translate(2.96633, 30.7508)" fill="#00ff4d" fill-rule="evenodd" stroke="#4c4c4c" stroke-width="1.27949040555" stroke-linecap="square" stroke-linejoin="bevel" d="M10.6277 5.16106C10.5431 2.24192 8.11919 -0.0621608 5.19951 0.0012792C2.27985 0.064729 -0.0417266 2.47191 0.000568847 5.39196C0.0428641 8.31201 2.4332 10.651 5.35347 10.6298C8.27374 10.6087 10.6299 8.23534 10.6299 5.31499"/>
  <path id="shape3" transform="translate(38.4621, 5.65631)" fill="#ffee00" fill-rule="evenodd" stroke="#4c4c4c" stroke-width="1.27949040555" stroke-linecap="square" stroke-linejoin="bevel" d="M7.08663 3.42439C7.03071 1.31503 5.34117 -0.0447176 3.41157 0.00112417C1.48199 0.0469736 -0.0275708 1.59874 0.000381991 3.70875C0.0283314 5.81878 1.72655 7.10177 3.65657 7.08649C5.58657 7.07119 7.08663 5.53462 7.08663 3.42439"/>
  <path id="shape4" transform="translate(7.82707, 3.54021)" fill="#ff6699" fill-rule="evenodd" stroke="#4c4c4c" stroke-width="1.27949040555" stroke-linecap="square" stroke-linejoin="bevel" d="M14.1702 6.9246C14.0575 3.008 10.8255 -0.0834016 6.93267 0.00171631C3.03979 0.086834 -0.055636 3.31657 0.00075848 7.23442C0.0571509 11.1522 3.2211 14.2014 7.11481 14.1731C11.0084 14.1446 14.1733 11.0494 14.1733 7.13114"/>
 </g>
</svg>
