<?xml version="1.0" standalone="no"?>
<!DOCTYPE svg PUBLIC "-//W3C//DTD SVG 20010904//EN" "http://www.w3.org/TR/2001/REC-SVG-20010904/DTD/svg10.dtd">
<!-- Created using Karbon, part of Calligra: http://www.calligra.org/karbon -->
<svg xmlns="http://www.w3.org/2000/svg" xmlns:xlink="http://www.w3.org/1999/xlink" width="38.4pt" height="38.4pt">
<defs/>
<g id="layer1">
  <path id="shape0" transform="translate(3.28125, 3.23802)" fill="#595959" fill-rule="evenodd" stroke="#003bc3" stroke-width="0.00000000000" stroke-linecap="square" stroke-linejoin="bevel" d="M22.6439 38.9408C26.3971 42.938 34.1086 43.4558 38.8835 39.5934C43.6584 35.7312 43.7924 28.7281 39.8996 25.4363C37.3046 23.2417 34.5489 21.6048 35.6269 18.6039C37.7418 12.7166 39.9247 14.4121 40.7292 11.762C41.7232 8.48719 36.5321 6.58005 34.7396 9.36615C32.9471 12.1523 35.5271 12.9623 33.2104 18.0555C30.8937 23.1487 22.832 23.7475 23.2292 17.6474C23.483 13.7487 28.8176 3.26845 19.1146 0.407818C12.6487 -1.49845 5.20965 3.53265 7.86458 10.1995C11.0757 18.2629 15.8848 13.3193 19.8109 21.9067C20.5836 23.8455 21.6552 31.1766 16.6344 31.498C11.6137 31.8193 10.0758 26.1771 4.52968 27.2778C-1.01638 28.3785 -0.75425 34.5173 1.52496 36.2552C7.57225 40.8664 13.3158 33.9228 16.3769 34.1835C19.525 34.4516 19.7492 35.4808 22.6439 38.9408Z"/>
  <path id="shape1" transform="translate(24.0365, 26.1421)" fill="#6dd8fe" fill-rule="evenodd" stroke="#003bc3" stroke-width="0.00000000000" stroke-linecap="square" stroke-linejoin="miter" stroke-miterlimit="2.01260185242" d="M20.1738 8.75617C20.0132 3.80362 15.4121 -0.105462 9.86987 0.00217028C4.32768 0.109802 -0.0792064 4.19382 0.00107979 9.14794C0.0813659 14.1021 4.61874 18.0703 10.1621 18.0344C15.7055 17.9985 20.1781 13.972 20.1781 9.01734"/>
  <path id="shape2" transform="translate(4.19921, 31.2953)" fill="#00ff4d" fill-rule="evenodd" stroke="#003bc3" stroke-width="0.00000000000" stroke-linecap="square" stroke-linejoin="miter" stroke-miterlimit="2.00000000000" d="M10.0869 4.37808C10.0066 1.9018 7.70602 -0.0527306 4.93492 0.00108514C2.16383 0.0549009 -0.0396032 2.0969 0.000539899 4.57396C0.0406829 7.051 2.30938 9.03512 5.08104 9.01717C7.85271 8.99923 10.089 6.98597 10.089 4.50866"/>
  <path id="shape3" transform="translate(38.2882, 12.0823)" fill="#ffee00" fill-rule="evenodd" stroke="#003bc3" stroke-width="0.00000000000" stroke-linecap="square" stroke-linejoin="miter" stroke-miterlimit="2.00000000000" d="M5.04345 2.18904C5.00331 0.950902 3.853 -0.0263653 2.46746 0.000542569C1.08192 0.0274504 -0.0198015 1.04845 0.000269948 2.28698C0.0203415 3.52551 1.15468 4.51756 2.54052 4.50859C3.92635 4.49962 5.0445 3.49298 5.0445 2.25433"/>
  <path id="shape4" transform="translate(11.7906, 4.31093)" fill="#ff6699" fill-rule="evenodd" stroke="#003bc3" stroke-width="0.00000000000" stroke-linecap="square" stroke-linejoin="miter" stroke-miterlimit="2.00000000000" d="M15.1303 6.56711C15.0099 2.85271 11.559 -0.0790959 7.40238 0.00162771C3.24575 0.0823513 -0.0594046 3.14535 0.000809842 6.86094C0.0610243 10.5765 3.46404 13.5526 7.62155 13.5258C11.779 13.4988 15.1335 10.479 15.1335 6.76299"/>
 </g>
</svg>
