<?xml version="1.0" standalone="no"?>
<!DOCTYPE svg PUBLIC "-//W3C//DTD SVG 20010904//EN" "http://www.w3.org/TR/2001/REC-SVG-20010904/DTD/svg10.dtd">
<!-- Created using Karbon, part of Calligra: http://www.calligra.org/karbon -->
<svg xmlns="http://www.w3.org/2000/svg" xmlns:xlink="http://www.w3.org/1999/xlink" width="38.4pt" height="38.4pt">
<defs/>
<g id="layer1">
  <rect id="shape0" transform="matrix(0.994364 -0.10602 0.10602 0.994364 9.18775 32.6335)" fill="#4d4d4d" fill-rule="evenodd" stroke="#003bc3" stroke-width="0.00000000000" stroke-linecap="square" stroke-linejoin="miter" stroke-miterlimit="2.01260191180" width="19.04140103829pt" height="2.40595319978pt"/>
  <rect id="shape1" transform="matrix(0.681042 0.732245 -0.732245 0.681042 17.743 13.204)" fill="#4d4d4d" fill-rule="evenodd" stroke="#003bc3" stroke-width="0.00000000000" stroke-linecap="square" stroke-linejoin="miter" stroke-miterlimit="2.00000000000" width="19.04140103829pt" height="2.40595319978pt"/>
  <rect id="shape2" transform="matrix(-0.310303 0.950638 -0.950638 -0.310303 40.7058 12.2692)" fill="#4d4d4d" fill-rule="evenodd" stroke="#003bc3" stroke-width="0.00000000000" stroke-linecap="square" stroke-linejoin="miter" stroke-miterlimit="2.00000000000" width="16.61835341038pt" height="2.40595319978pt"/>
  <path id="shape11" transform="translate(21.3059, 20.7634)" fill="#52beea" fill-rule="evenodd" stroke="#003bc3" stroke-width="0.00000000000" stroke-linecap="square" stroke-linejoin="bevel" d="M21.8227 10.5976C21.6489 4.60351 16.6718 -0.12764 10.6766 0.00262671C4.68139 0.132892 -0.0856809 5.07577 0.00116807 11.0717C0.0880181 17.0677 4.99625 21.8705 10.9927 21.8269C16.9892 21.7835 21.8273 16.9103 21.8273 10.9136"/>
  <path id="shape2" transform="translate(4.00394, 28.0459)" fill="#88c941" fill-rule="evenodd" stroke="#003bc3" stroke-width="0.00000000000" stroke-linecap="square" stroke-linejoin="bevel" d="M11.6693 5.66686C11.5763 2.46164 8.91491 -0.0682529 5.70908 0.00140457C2.50329 0.0710727 -0.045816 2.71417 0.000624596 5.9204C0.047065 9.12663 2.67167 11.6948 5.87813 11.6716C9.0846 11.6484 11.6716 9.04245 11.6716 5.83589"/>
  <path id="shape3" transform="translate(33.413, 7.4373)" fill="#f39c12" fill-rule="evenodd" stroke="#003bc3" stroke-width="0.00000000000" stroke-linecap="square" stroke-linejoin="bevel" d="M10.5829 5.11387C10.4994 1.96382 7.97633 -0.0667798 5.09473 0.00167881C2.21316 0.0701488 -0.0411733 2.38751 0.000570451 5.53853C0.0423092 8.68957 2.57837 10.6056 5.4606 10.5827C8.3428 10.5599 10.5829 8.26522 10.5829 5.11387"/>
  <path id="shape4" transform="translate(7.18542, 4.00394)" fill="#ff4c91" fill-rule="evenodd" stroke="#003bc3" stroke-width="0.00000000000" stroke-linecap="square" stroke-linejoin="bevel" d="M15.1467 7.40177C15.0262 3.21528 11.5715 -0.0891489 7.4104 0.00183458C3.24926 0.0928178 -0.05947 3.54511 0.00081075 7.73295C0.0610893 11.9207 3.44306 15.1801 7.60509 15.1498C11.767 15.1194 15.15 11.8108 15.15 7.62255"/>
 </g>
</svg>
