<?xml version="1.0" standalone="no"?>
<!DOCTYPE svg PUBLIC "-//W3C//DTD SVG 20010904//EN" "http://www.w3.org/TR/2001/REC-SVG-20010904/DTD/svg10.dtd">
<!-- Created using Karbon, part of Calligra: http://www.calligra.org/karbon -->
<svg xmlns="http://www.w3.org/2000/svg" xmlns:xlink="http://www.w3.org/1999/xlink" width="38.4pt" height="38.4pt">
<defs/>
<g id="layer1">
  <path id="shape0" transform="translate(8.74937, 10.5722)" fill="none" stroke="#4c4c4c" stroke-width="3.14043851132" stroke-linecap="square" stroke-linejoin="bevel" d="M0 24.6684L25.1544 23.3316L5.83291 0"/>
  <path id="shape1" transform="translate(34.1158, 12.5898)" fill="none" stroke="#4c4c4c" stroke-width="3.14043851132" stroke-linecap="square" stroke-linejoin="bevel" d="M5.68743 0L0 20.8539"/>
  <path id="shape11" transform="translate(22.7427, 22.3773)" fill="#52beea" fill-rule="evenodd" stroke="#4d4d4d" stroke-width="1.91338914150" stroke-linecap="square" stroke-linejoin="bevel" d="M21.195 10.2928C21.0262 4.4711 16.1923 -0.123969 10.3695 0.00255114C4.54674 0.12907 -0.0832164 4.92977 0.00113447 10.7532C0.0854864 16.5768 4.85254 21.2414 10.6765 21.1991C16.5005 21.1569 21.1995 16.4239 21.1995 10.5997"/>
  <path id="shape2" transform="translate(2.67342, 29.0302)" fill="#88c941" fill-rule="evenodd" stroke="#4d4d4d" stroke-width="1.90027888257" stroke-linecap="square" stroke-linejoin="bevel" d="M12.6839 6.1596C12.5829 2.67568 9.69006 -0.0741875 6.20549 0.00152669C2.72095 0.0772525 -0.0497997 2.95017 0.000678906 6.43518C0.0511573 9.92019 2.90397 12.7117 6.38924 12.6864C9.87451 12.6612 12.6865 9.82869 12.6865 6.34332"/>
  <path id="shape3" transform="translate(35.1433, 7.64887)" fill="#f39c12" fill-rule="evenodd" stroke="#4d4d4d" stroke-width="1.90027888257" stroke-linecap="square" stroke-linejoin="bevel" d="M9.63649 4.65653C9.56045 1.78819 7.26299 -0.0608076 4.6391 0.00152866C2.01523 0.0638753 -0.0374911 2.17399 0.000519436 5.04321C0.0385254 7.91245 2.34778 9.65708 4.97225 9.6363C7.59669 9.61549 9.63649 7.52605 9.63649 4.65653"/>
  <path id="shape4" transform="translate(6.85926, 2.93805)" fill="#ff4c91" fill-rule="evenodd" stroke="#4d4d4d" stroke-width="1.90027888257" stroke-linecap="square" stroke-linejoin="bevel" d="M15.6958 7.67012C15.571 3.33185 11.991 -0.0923809 7.67906 0.00190109C3.36706 0.0961828 -0.061626 3.67364 0.000840141 8.0133C0.063304 12.3529 3.56789 15.7304 7.88081 15.699C12.1936 15.6675 15.6992 12.239 15.6992 7.8989"/>
 </g>
</svg>
