<?xml version="1.0" standalone="no"?>
<!DOCTYPE svg PUBLIC "-//W3C//DTD SVG 20010904//EN" "http://www.w3.org/TR/2001/REC-SVG-20010904/DTD/svg10.dtd">
<!-- Created using Karbon, part of Calligra: http://www.calligra.org/karbon -->
<svg xmlns="http://www.w3.org/2000/svg" xmlns:xlink="http://www.w3.org/1999/xlink" width="38.4pt" height="38.4pt">
<defs/>
<g id="layer1">
  <path id="shape0" transform="translate(3.91871, 4.00394)" fill="#595959" fill-rule="evenodd" stroke="#003bc3" stroke-width="0.00000000000" stroke-linecap="square" stroke-linejoin="bevel" d="M19.4277 36.9327C22.5675 40.6832 29.0472 41.1194 33.0965 37.5728C36.5805 34.5214 36.7169 29.685 35.6555 26.3756C35.0218 24.4576 33.1789 22.5331 34.2896 19.0001C35.6154 15.3437 37.3819 17.7865 39.5 14.7685C41.69 9.6535 35.8333 6.13994 33.1532 10.0234C31.0425 13.2514 34.4559 15.0476 31.9298 17.9456C28.3607 21.0137 23.4896 20.7532 21.0449 16.9797C19.0738 13.4215 26.0247 8.54251 20.3093 2.43302C14.4236 -3.81527 4.90943 3.12948 7.01778 10.2213C9.91923 18.2844 14.5313 13.6644 17.6651 18.7337C20.0643 22.4172 17.2439 30.0534 13.7481 29.4363C9.16518 28.4973 10.0836 24.1139 4.30508 24.7541C-1.93202 25.9401 -1.09354 35.7931 4.89665 35.9924C9.78538 36.216 10.4641 32.2772 13.2376 32.331C15.8803 32.3823 16.9636 33.8771 19.4277 36.9327Z"/>
  <path id="shape1" transform="translate(21.9675, 25.3699)" fill="#6dd8fe" fill-rule="evenodd" stroke="#003bc3" stroke-width="0.00000000000" stroke-linecap="square" stroke-linejoin="miter" stroke-miterlimit="2.01260185242" d="M16.8764 8.21583C16.7421 3.5689 12.893 -0.098954 8.25667 0.00203637C3.62033 0.103026 -0.0662608 3.93502 0.000903318 8.58342C0.0680683 13.2319 3.86382 16.9552 8.50113 16.9215C13.1385 16.8878 16.88 13.1098 16.88 8.46088"/>
  <path id="shape2" transform="translate(5.37255, 30.2051)" fill="#00ff4d" fill-rule="evenodd" stroke="#003bc3" stroke-width="0.00000000000" stroke-linecap="square" stroke-linejoin="miter" stroke-miterlimit="2.00000000000" d="M8.43822 4.10791C8.37105 1.78444 6.44649 -0.0494765 4.12832 0.00101817C1.81016 0.0515206 -0.0331302 1.9675 0.000451656 4.2917C0.0340333 6.61589 1.93192 8.47757 4.25056 8.46072C6.5692 8.44389 8.43998 6.55487 8.43998 4.23043"/>
  <path id="shape3" transform="translate(37.5212, 13.7265)" fill="#ffee00" fill-rule="evenodd" stroke="#003bc3" stroke-width="0.00000000000" stroke-linecap="square" stroke-linejoin="miter" stroke-miterlimit="2.00000000000" d="M5.18622 2.82483C5.14493 1.22709 3.96206 -0.0340229 2.5373 0.000700151C1.11255 0.0354289 -0.020362 1.35297 0.000277588 2.95121C0.0209146 4.54946 1.18737 5.82965 2.61244 5.81808C4.0375 5.80649 5.1873 4.50749 5.1873 2.90909"/>
  <path id="shape4" transform="translate(12.278, 5.96096)" fill="#ff6699" fill-rule="evenodd" stroke="#003bc3" stroke-width="0.00000000000" stroke-linecap="square" stroke-linejoin="miter" stroke-miterlimit="2.00000000000" d="M12.6573 6.16186C12.5566 2.67667 9.66971 -0.0742149 6.19248 0.00152726C2.71524 0.0772693 -0.0496958 2.95125 0.000677496 6.43755C0.051049 9.92383 2.89785 12.7163 6.37583 12.6911C9.85375 12.6658 12.66 9.83234 12.66 6.34565"/>
 </g>
</svg>
