<?xml version="1.0" standalone="no"?>
<!DOCTYPE svg PUBLIC "-//W3C//DTD SVG 20010904//EN" "http://www.w3.org/TR/2001/REC-SVG-20010904/DTD/svg10.dtd">
<!-- Created using Karbon, part of Calligra: http://www.calligra.org/karbon -->
<svg xmlns="http://www.w3.org/2000/svg" xmlns:xlink="http://www.w3.org/1999/xlink" width="38.4pt" height="38.4pt">
<defs/>
<g id="layer1">
  <path id="shape0" transform="translate(3.28125, 4.49392)" fill="#595959" fill-rule="evenodd" stroke="#003bc3" stroke-width="0.00000000000" stroke-linecap="square" stroke-linejoin="bevel" d="M22.7087 37.476C26.4619 41.4732 33.6122 42.1222 38.3871 38.2599C43.162 34.3976 42.7657 27.2601 39.4122 24.089C37.0276 21.9431 35.3331 21.4175 36.4574 18.0589C37.3303 15.4841 40.8191 16.7044 41.9231 13.1422C43.1998 8.66721 37.2858 6.79365 35.0989 9.76302C33.0843 13.2033 36.0968 14.2024 34.7552 17.3927C32.2684 23.3066 25.7846 19.4188 24.3368 16.9734C22.1839 13.0795 29.5268 6.15084 21.3218 1.11412C13.1167 -2.59596 6.62498 3.63605 8.43341 9.87221C10.1454 15.9638 17.2115 14.7621 20.2966 18.8428C22.707 22.2601 21.2169 29.7375 16.377 30.3001C11.3563 30.6214 10.0758 24.9212 4.52968 26.0219C-1.01638 27.1226 -0.754253 33.2614 1.52496 34.9993C7.57225 39.6105 13.3158 32.6669 16.3769 32.9276C19.525 33.1957 19.814 34.016 22.7087 37.476Z"/>
  <path id="shape1" transform="translate(24.0365, 26.1421)" fill="#6dd8fe" fill-rule="evenodd" stroke="#003bc3" stroke-width="0.00000000000" stroke-linecap="square" stroke-linejoin="miter" stroke-miterlimit="2.01260185242" d="M20.1738 8.75617C20.0132 3.80362 15.4121 -0.105462 9.86987 0.0021703C4.32768 0.109802 -0.0792064 4.19382 0.0010798 9.14794C0.0813659 14.1021 4.61874 18.0703 10.1621 18.0344C15.7055 17.9985 20.1781 13.972 20.1781 9.01734"/>
  <path id="shape2" transform="translate(4.19921, 31.2953)" fill="#00ff4d" fill-rule="evenodd" stroke="#003bc3" stroke-width="0.00000000000" stroke-linecap="square" stroke-linejoin="miter" stroke-miterlimit="2.00000000000" d="M10.0869 4.37808C10.0066 1.9018 7.70602 -0.0527306 4.93492 0.00108514C2.16383 0.0549009 -0.0396032 2.0969 0.0005399 4.57396C0.0406829 7.051 2.30938 9.03512 5.08104 9.01717C7.85271 8.99923 10.089 6.98597 10.089 4.50866"/>
  <path id="shape3" transform="translate(38.4088, 13.5295)" fill="#ffee00" fill-rule="evenodd" stroke="#003bc3" stroke-width="0.00000000000" stroke-linecap="square" stroke-linejoin="miter" stroke-miterlimit="2.00000000000" d="M6.19951 3.01061C6.15017 1.30779 4.73618 -0.0362605 3.03305 0.000746199C1.32992 0.0377528 -0.0243404 1.44195 0.000331823 3.14531C0.0250042 4.84867 1.41936 6.21305 3.12286 6.20072C4.82635 6.18838 6.2008 4.80394 6.2008 3.10041"/>
  <path id="shape4" transform="translate(12.4539, 5.45666)" fill="#ff6699" fill-rule="evenodd" stroke="#003bc3" stroke-width="0.00000000000" stroke-linecap="square" stroke-linejoin="miter" stroke-miterlimit="2.00000000000" d="M15.1303 6.56711C15.0099 2.85271 11.559 -0.0790959 7.40238 0.0016277C3.24575 0.0823513 -0.0594046 3.14535 0.000809844 6.86094C0.0610243 10.5765 3.46404 13.5526 7.62155 13.5258C11.779 13.4988 15.1335 10.479 15.1335 6.76299"/>
 </g>
</svg>
