<?xml version="1.0" standalone="no"?>
<!DOCTYPE svg PUBLIC "-//W3C//DTD SVG 20010904//EN" "http://www.w3.org/TR/2001/REC-SVG-20010904/DTD/svg10.dtd">
<!-- Created using Karbon, part of Calligra: http://www.calligra.org/karbon -->
<svg xmlns="http://www.w3.org/2000/svg" xmlns:xlink="http://www.w3.org/1999/xlink" width="38.4pt" height="38.4pt">
<defs/>
<g id="layer1">
  <path id="shape0" transform="translate(4.006, 4.52827)" fill="#595959" fill-rule="evenodd" stroke="#003bc3" stroke-width="0.00000000000" stroke-linecap="square" stroke-linejoin="bevel" d="M18.9689 35.934C21.8072 39.383 27.1005 40.6264 31.8131 37.6225C36.3222 34.752 37.2162 29.4143 35.6121 25.5622C34.3754 22.5588 32.9939 21.256 34.0443 18.0848C35.8525 15.152 38.3181 17.0626 39.7729 13.8034C41.782 8.56779 34.9153 5.57822 32.4764 10.3059C31.3305 14.3178 33.5553 13.619 32.4161 16.9391C30.4752 19.4645 23.4023 20.2289 20.9576 16.4554C18.9865 12.8972 25.5888 8.5762 20.1749 2.2858C14.1083 -3.35947 4.49872 2.24926 7.33068 10.4265C9.62912 16.6806 15.5939 14.4627 17.5819 18.2657C19.9811 21.9492 16.736 28.8325 13.6623 28.9994C10.4061 29.387 10.878 23.716 4.55681 24.2959C-1.92149 25.6025 -1.18083 34.7261 4.80936 35.4681C9.81869 36.0535 11.0094 31.1767 13.6623 31.5923C16.5462 32.0657 16.8063 33.4815 18.9689 35.934Z"/>
  <path id="shape1" transform="translate(21.9675, 25.3699)" fill="#6dd8fe" fill-rule="evenodd" stroke="#003bc3" stroke-width="0.00000000000" stroke-linecap="square" stroke-linejoin="miter" stroke-miterlimit="2.01260185242" d="M16.8764 8.21583C16.7421 3.5689 12.893 -0.098954 8.25667 0.00203637C3.62033 0.103026 -0.0662608 3.93502 0.000903319 8.58342C0.0680683 13.2319 3.86382 16.9552 8.50113 16.9215C13.1385 16.8878 16.88 13.1098 16.88 8.46088"/>
  <path id="shape2" transform="translate(5.37255, 30.2051)" fill="#00ff4d" fill-rule="evenodd" stroke="#003bc3" stroke-width="0.00000000000" stroke-linecap="square" stroke-linejoin="miter" stroke-miterlimit="2.00000000000" d="M8.43822 4.10791C8.37105 1.78444 6.44649 -0.0494765 4.12832 0.00101817C1.81016 0.0515206 -0.0331302 1.9675 0.000451655 4.2917C0.0340333 6.61589 1.93192 8.47757 4.25056 8.46072C6.5692 8.44389 8.43998 6.55487 8.43998 4.23043"/>
  <path id="shape3" transform="translate(37.5212, 13.8685)" fill="#ffee00" fill-rule="evenodd" stroke="#003bc3" stroke-width="0.00000000000" stroke-linecap="square" stroke-linejoin="miter" stroke-miterlimit="2.00000000000" d="M5.23257 2.59382C5.19128 0.996076 3.94377 -0.0338715 2.51901 0.000851507C1.09426 0.0355803 -0.0203575 1.21097 0.000282053 2.80921C0.0209191 4.40746 1.27484 5.37926 2.69991 5.36769C4.12497 5.3561 5.23257 4.19222 5.23257 2.59382"/>
  <path id="shape4" transform="translate(12.278, 5.96096)" fill="#ff6699" fill-rule="evenodd" stroke="#003bc3" stroke-width="0.00000000000" stroke-linecap="square" stroke-linejoin="miter" stroke-miterlimit="2.00000000000" d="M12.6573 6.16186C12.5566 2.67667 9.66971 -0.0742149 6.19248 0.00152726C2.71524 0.0772693 -0.0496958 2.95125 0.000677497 6.43755C0.051049 9.92383 2.87719 12.6371 6.35517 12.6119C9.83309 12.5866 12.66 9.83234 12.66 6.34565"/>
 </g>
</svg>
