<svg xmlns="http://www.w3.org/2000/svg" width="48" height="48">
 <g transform="translate(-384.57143,-499.798)">
  <rect width="40" height="40" x="388.57" y="503.8" style="fill:#e74c3c"/>
  <path d="m 408.83275,508.79821 0,0.51897 c 0,0 -0.002,0.91555 -0.002,1.71138 -0.79878,-0.88178 -2.01344,-2.23035 -2.01344,-2.23035 l -5.54583,0 0.003,27.48162 3.19485,2.51804 3.33093,-0.41662 c 0,0 0.0141,-1.45123 0.0237,-2.43601 1.09397,0.89817 2.59195,2.12472 2.59195,2.12472 l 5.45546,-0.55472 0,-25.88832 -2.96044,-2.82279 -4.07779,-0.006 z"/>
  <path d="m 409.74132,530.35476 -0.18472,0.0217 -3.18696,-20.83944 -4.24314,-0.005 0.002,26.15797 c 0,0 0.84217,-0.12105 2.63502,-0.32411 l -0.18473,-19.88288 0.18374,-0.0174 3.03179,19.58897 c 0,0 1.03613,-0.12171 4.55969,-0.46976 l 0,-25.05083 -2.70669,0 0.0941,20.82042 z" style="fill:#ffffff"/>
 </g>
</svg>
