<svg xmlns="http://www.w3.org/2000/svg" width="48" height="48">
 <g transform="translate(0,-1004.3622)">
  <g>
   <rect y="1008.36" x="4" height="40" width="40" style="fill:#2c3e50" rx="20"/>
   <rect width="34" height="34" x="7" y="1011.36" style="fill:#9b59b6" rx="17"/>
   <path d="m 24,1019.3622 -1.414062,1.4108 -7.212891,7.1965 1.414062,1.4109 6.212891,-6.1988 0,12.1851 -6,0 0,-1.9954 2,0 0,-1.9955 -4,0 0,1.9955 0,3.9909 2,0 16,0 0,-1.9955 0,-1.9954 0,-1.9955 -4,0 0,1.9955 2,0 0,1.9954 -6,0 0,-12.1851 6.212891,6.1988 1.414062,-1.4109 -7.212891,-7.1965 z" style="fill:#ecf0f1" fill-rule="evenodd"/>
  </g>
 </g>
</svg>
