<svg xmlns="http://www.w3.org/2000/svg" width="48" height="48" viewBox="0 0 13.546666 13.546668">
 <g transform="translate(38.119153,-397.84494)">
  <g transform="matrix(0.04246847,0,0,0.04406105,-33.868872,403.58054)">
   <path d="m -46.340532,-1.0385075 c 0,0 24.032859,-34.1812085 72.021311,-37.7140985 l 0,-12.399066 c -53.151335,4.110024 -99.17985,47.5001835 -99.17985,47.5001835 0,0 26.067789,72.6421805 99.17985,79.2918105 l 0,-13.18098 C -27.969347,55.952072 -46.340532,-1.0385075 -46.340532,-1.0385075 m 72.021311,37.2848095 0,12.07271 C -14.868985,41.350702 -26.123026,0.72246149 -26.123026,0.72246149 c 0,0 19.4676155,-20.79214449 51.803805,-24.16076549 l 0,13.245601 c -0.025,0 -0.0409,-0.0066 -0.0624,-0.0066 C 8.6503975,-12.162871 -4.6078965,3.1185765 -4.6078965,3.1185765 c 0,0 7.427326,25.7235155 30.2887655,33.1276955 m 0,-140.799182 0,53.401208 c 1.56,-0.119369 3.12114,-0.214645 4.68795,-0.270497 60.4321,-1.961378 99.803631,47.7706805 99.803631,47.7706805 0,0 -45.224091,53.0021205 -92.334261,53.0021205 -4.31755,0 -8.35901,-0.38439 -12.15732,-1.03162 l 0,14.14033 c 3.24839,0.39753 6.61267,0.63189 10.12352,0.63189 43.84361,0 75.550351,-21.57955 106.251551,-47.121271 5.08676,3.928232 25.92804,13.484341 30.21378,17.673211 -29.19461,23.55406 -97.223321,42.53815 -135.790431,42.53815 -3.7165,0 -7.29211,-0.21574 -10.79842,-0.541 l 0,50.395968 166.638201,0 0,-230.58917 z m 0,81.114576 0,-15.314302 c 1.54182,-0.106228 3.10068,-0.185077 4.68795,-0.233263 43.45616,-1.316347 71.966781,35.9892685 71.966781,35.9892685 0,0 -30.792101,41.2228925 -63.807741,41.2228925 -4.75499,0 -9.01119,-0.73921 -12.84699,-1.97999 l 0,-46.439005 c 16.91799,1.9701405 20.31863,9.1728125 30.49214,25.513251 l 22.62057,-18.3828565 c 0,0 -16.51237,-20.8742795 -44.34694,-20.8742795 -3.02911,0 -5.92414,0.205884 -8.76577,0.498284" style="fill:#90c84b"/>
  </g>
 </g>
</svg>
