<svg xmlns="http://www.w3.org/2000/svg" width="48" height="48">
 <g transform="translate(0,-1004.3622)">
  <path d="M 21.5 4 C 13.500662 4 7.0597455 10.414207 7.0058594 18.400391 L 7 18.400391 L 7 33 L 7 40 C 7 42.216 8.784 44 11 44 C 13.216 44 15 42.216 15 40 C 15 42.216 16.784 44 19 44 L 20 44 C 22.216 44 24 42.216 24 40 C 24 42.216 25.784 44 28 44 L 29 44 C 31.216 44 33 42.216 33 40 C 33 42.216 34.784 44 37 44 C 39.216 44 41 42.216 41 40 L 41 19 L 41 18.400391 L 40.994141 18.400391 C 40.940255 10.414207 34.499338 4 26.5 4 L 21.5 4 z " transform="translate(0,1004.3622)" style="fill:#2ecc71"/>
  <rect width="9" height="9" x="14" y="1018.36" style="fill:#ecf0f1" rx="4.5"/>
  <rect y="1018.36" x="30" height="9" width="9" style="fill:#ecf0f1" rx="4.5"/>
  <rect y="1021.61" x="20.5" height="2.5" width="2.5" style="fill:#34495e" rx="1.25"/>
  <rect width="2.5" height="2.5" x="36.5" y="1021.61" style="fill:#34495e" rx="1.25"/>
 </g>
</svg>
