<svg xmlns="http://www.w3.org/2000/svg" width="48" height="48">
 <rect y="4" x="7" height="40" width="34" style="fill:#ecf0f1" rx="0"/>
 <rect width="8" height="40" x="7" y="4" style="fill:#7a4522" rx="0"/>
 <path d="M 33,4 41,4 41,15 37,12.00002 33,15 Z" style="fill:#2c89c4"/>
 <path d="m 36.62129,20.696441 c 0.245045,-0.529502 0.378713,-1.059001 0.378713,-1.565497 0,-0.897819 -0.378713,-1.634513 -1.136139,-2.210072 -0.801976,-0.62162 -1.938116,-0.920873 -3.40842,-0.920873 -0.289594,0 -0.60148,0.02299 -0.891085,0.04587 -2.472775,0.207185 -4.900992,1.174068 -7.284651,2.946758 -2.138621,1.588561 -3.586636,3.246129 -4.366341,5.018816 -0.601479,1.381313 -0.913364,2.624503 -0.913364,3.752569 0,2.555433 1.603962,4.09788 3.94307,4.213001 0.334154,0.02299 0.646038,0.02299 0.935644,0.02299 3.631184,0 6.905938,-1.358314 9.824256,-4.051828 1.893566,-1.749686 2.851489,-3.591432 2.851489,-5.502251 0,-0.437432 -0.06682,-0.874813 -0.178217,-1.266195 l 0.245045,-0.483282 z m -0.534651,-0.207184 c -0.623767,-1.174125 -1.715349,-1.956878 -3.274751,-2.348252 -0.846535,-0.207192 -1.559412,-0.299261 -2.138624,-0.299261 -0.646037,0 -1.314344,0.115123 -2.004942,0.345321 -0.02225,0.02299 -0.04458,0.04588 -0.04458,0.06906 0,0.04588 0.400993,0.09214 1.180698,0.115115 0.935644,0.02299 1.626232,0.0921 2.049503,0.207194 0.824256,0.253252 1.537124,0.644623 2.138613,1.19713 0.690599,0.621619 1.09158,1.358314 1.202968,2.210121 -0.512369,0.644625 -1.292077,1.427379 -2.339108,2.371256 l -1.247521,1.059002 c -0.512375,0.437431 -0.712871,0.644625 -0.579203,0.644625 0.02224,0 0.0891,-0.02299 0.178216,-0.04587 1.893567,-1.197132 3.230193,-2.233128 4.009899,-3.130957 -0.155937,1.588512 -1.180688,3.246079 -3.074255,4.995707 -2.829209,2.601503 -5.836637,3.821688 -8.977722,3.6375 -1.982674,-0.115125 -2.962877,-1.197132 -2.962877,-3.200059 0,-1.243191 0.400995,-2.67051 1.225249,-4.259072 1.113859,-2.187071 2.628714,-3.959762 4.544559,-5.34107 2.071777,-1.496443 4.210395,-2.233126 6.460395,-2.233126 1.626232,0 2.740094,0.460434 3.386141,1.381307 0.334154,0.483497 0.490091,0.966941 0.490091,1.496442 0,0.368211 -0.06681,0.736528 -0.222766,1.12791 z" style="fill:#2c89c4"/>
</svg>
