<?xml version="1.0" encoding="UTF-8" standalone="no"?>
<!-- Created with Inkscape (http://www.inkscape.org/) -->

<svg
   xmlns:dc="http://purl.org/dc/elements/1.1/"
   xmlns:cc="http://creativecommons.org/ns#"
   xmlns:rdf="http://www.w3.org/1999/02/22-rdf-syntax-ns#"
   xmlns:svg="http://www.w3.org/2000/svg"
   xmlns="http://www.w3.org/2000/svg"
   xmlns:sodipodi="http://sodipodi.sourceforge.net/DTD/sodipodi-0.dtd"
   xmlns:inkscape="http://www.inkscape.org/namespaces/inkscape"
   width="48"
   height="48"
   id="svg2"
   version="1.1"
   inkscape:version="0.48.4 r9939"
   sodipodi:docname="openshot.svg">
  <defs
     id="defs4">
    <linearGradient
       id="linearGradient1157">
      <stop
         style="stop-color:#02d7ef;stop-opacity:1"
         offset="1"
         id="stop1161" />
    </linearGradient>
  </defs>
  <sodipodi:namedview
     id="base"
     pagecolor="#ffffff"
     bordercolor="#666666"
     borderopacity="1.0"
     inkscape:pageopacity="0.0"
     inkscape:pageshadow="2"
     inkscape:zoom="8"
     inkscape:cx="25.414444"
     inkscape:cy="19.252379"
     inkscape:document-units="px"
     inkscape:current-layer="layer1"
     showgrid="false"
     inkscape:window-width="661"
     inkscape:window-height="684"
     inkscape:window-x="1149"
     inkscape:window-y="121"
     inkscape:window-maximized="0"
     showguides="true"
     inkscape:guide-bbox="true" />
  <metadata
     id="metadata7">
    <rdf:RDF>
      <cc:Work
         rdf:about="">
        <dc:format>image/svg+xml</dc:format>
        <dc:type
           rdf:resource="http://purl.org/dc/dcmitype/StillImage" />
        <dc:title />
      </cc:Work>
    </rdf:RDF>
  </metadata>
  <g
     inkscape:label="Capa 1"
     inkscape:groupmode="layer"
     id="layer1"
     transform="translate(0,-1004.3622)">
    <g
       id="layer1-5"
       inkscape:label="Capa 1">
      <path
         id="rect2991-1-7"
         d="m 3.2166341,1004.8622 c -2.0239744,0 -1.8416341,0.8422 -1.8416341,1.8971 l 0,43.2058 c 0,2.0549 0.8176597,1.8971 1.8416341,1.8971 l 41.9417319,0 C 47.18234,1051.8622 47,1051.02 47,1049.9651 l 0,-43.2058 c 0,-2.0549 -0.81766,-1.8971 -1.841634,-1.8971 l -41.9417319,0 z m 1.1287435,6.2422 4.9902343,0 0,5.1406 -4.9902343,0 0,-5.1406 z m 34.6940104,0 4.990234,0 0,5.1406 -4.990234,0 0,-5.1406 z m -34.6940104,9.7916 4.9902343,0 0,5.1406 -4.9902343,0 0,-5.1406 z m 34.6940104,0 4.990234,0 0,5.1406 -4.990234,0 0,-5.1406 z m -34.6940104,9.7918 4.9902343,0 0,5.1406 -4.9902343,0 0,-5.1406 z m 34.6940104,0 4.990234,0 0,5.1406 -4.990234,0 0,-5.1406 z m -34.6940104,9.7916 4.9902343,0 0,5.1406 -4.9902343,0 0,-5.1406 z m 34.6940104,0 4.990234,0 0,5.1406 -4.990234,0 0,-5.1406 z"
         style="fill:#4d4d4d;fill-opacity:1;stroke:none"
         inkscape:connector-curvature="0" />
      <path
         sodipodi:nodetypes="ccccc"
         inkscape:connector-curvature="0"
         id="rect870"
         d="m 11.8125,1043.6122 0,8.25 24.375,0 0,-8.25 z"
         style="fill:#3498db;fill-opacity:1;stroke:none" />
      <path
         sodipodi:nodetypes="ccccc"
         inkscape:connector-curvature="0"
         id="rect868"
         d="m 11.8125,1004.8622 0,8.25 24.375,0 0,-8.25 z"
         style="fill:#3498db;fill-opacity:1;stroke:none" />
      <rect
         ry="0"
         y="1017.844"
         x="11.802408"
         height="21.036427"
         width="24.395184"
         id="rect872"
         style="fill:#3498db;fill-opacity:1;stroke:none" />
      <path
         inkscape:transform-center-x="-1.9709809"
         transform="translate(0.27901912,1004.4872)"
         d="m 29.633924,23.875 -5.912943,3.413839 -5.912943,3.413839 0,-6.827678 0,-6.827678 5.912943,3.413839 z"
         inkscape:randomized="0"
         inkscape:rounded="0"
         inkscape:flatsided="false"
         sodipodi:arg2="1.0471976"
         sodipodi:arg1="0"
         sodipodi:r2="3.9419618"
         sodipodi:r1="7.8839235"
         sodipodi:cy="23.875"
         sodipodi:cx="21.75"
         sodipodi:sides="3"
         id="path922"
         style="fill:#bdc3c7;fill-opacity:1;stroke:none"
         sodipodi:type="star" />
    </g>
  </g>
</svg>
