<svg xmlns="http://www.w3.org/2000/svg" width="48" height="48">
 <path d="m 4.0000019,4.0000019 0,40.0000001 40.0000001,0 0,-40.0000001 -40.0000001,0 z m 3,3 3.0000001,0 0,3.0000001 -3.0000001,0 0,-3.0000001 z m 31.0000001,0 3,0 0,3.0000001 -3,0 0,-3.0000001 z m -31.0000001,7.5000001 3.0000001,0 0,3 -3.0000001,0 0,-3 z m 31.0000001,0 3,0 0,3 -3,0 0,-3 z m -31.0000001,8 3.0000001,0 0,3 -3.0000001,0 0,-3 z m 31.0000001,0 3,0 0,3 -3,0 0,-3 z m -31.0000001,8 3.0000001,0 0,3 -3.0000001,0 0,-3 z m 31.0000001,0 3,0 0,3 -3,0 0,-3 z m -31.0000001,7.5 3.0000001,0 0,3 -3.0000001,0 0,-3 z m 31.0000001,0 3,0 0,3 -3,0 0,-3 z" style="fill:#2c3e50"/>
 <rect width="22" height="8" x="13" y="7" style="fill:#3498db"/>
 <rect width="22" height="8" x="13" y="33" style="fill:#3498db"/>
 <rect y="17" x="13" height="14" width="22" style="fill:#3498db"/>
 <path d="M 24.459955,1037.5345 9,1028.6086 l 15.459956,-8.9258 z" transform="matrix(-0.521778,0,0,0.61619063,32.729336,-609.819)" style="fill:#ecf0f1" fill-rule="evenodd"/>
</svg>
