<?xml version="1.0" standalone="no"?>
<!DOCTYPE svg PUBLIC "-//W3C//DTD SVG 20010904//EN" "http://www.w3.org/TR/2001/REC-SVG-20010904/DTD/svg10.dtd">
<!-- Created using Karbon, part of Calligra: http://www.calligra.org/karbon -->
<svg xmlns="http://www.w3.org/2000/svg" xmlns:xlink="http://www.w3.org/1999/xlink" width="38.4pt" height="38.4pt">
<defs/>
<g id="layer1">
  <rect id="shape0" transform="translate(3.54331, 3.54331)" fill="#eaf1ff" fill-rule="evenodd" stroke="#003bc3" stroke-width="0.00000000000" stroke-linecap="square" stroke-linejoin="miter" stroke-miterlimit="2.01260185242" width="32.59848167000pt" height="32.59848167000pt"/>
  <rect id="shape1" transform="translate(13.0027, 6.35245)" fill="#48aeff" fill-rule="evenodd" stroke="#003bc3" stroke-width="0.00000000000" stroke-linecap="square" stroke-linejoin="miter" stroke-miterlimit="2.00000000000" width="17.50893013897pt" height="16.87368550808pt"/>
  <rect id="shape2" transform="translate(3.54235, 32.1519)" fill="#48aeff" fill-rule="evenodd" stroke="#003bc3" stroke-width="0.00000000000" stroke-linecap="square" stroke-linejoin="miter" stroke-miterlimit="2.01260185242" width="32.58958651056pt" height="5.83718592965pt"/>
  <path id="path17" transform="translate(22.833, 9.73986)" fill="#ffffff" stroke="#000000" stroke-width="0.00000000000" stroke-linecap="butt" stroke-linejoin="miter" stroke-miterlimit="2.01260185242" d="M2.28174 0C2.28174 0 0 0.209875 0 0.209875C0 0.209875 0 9.20181 0 9.20181C0 9.20181 2.25735 8.87534 2.25735 8.87534C2.25735 8.87534 2.25735 5.04164 2.25735 5.04164C2.25735 5.04164 5.29481 9.29509 5.29481 9.29509C5.29481 9.29509 7.67402 8.57219 7.67402 8.57219C7.67402 8.57219 4.56345 4.48197 4.56345 4.48197C4.56345 4.48197 7.69841 0.624958 7.69841 0.624958C7.69841 0.624958 5.27042 0.0932775 5.27042 0.0932775C5.27042 0.0932775 2.25735 3.95031 2.25735 3.95031C2.25735 3.95031 2.28174 1.13271e-15 2.28174 1.13271e-15C2.28174 1.13271e-15 2.28174 0 2.28174 0Z"/>
  <path id="gear_path" transform="translate(17.5965, 11.9439)" fill="#ffffff" stroke="#000000" stroke-width="0.00000000000" stroke-linecap="butt" stroke-linejoin="miter" stroke-miterlimit="2.01260185242" d="M2.36005 0.000928053C2.33465 0.0034932 2.30719 0.0103464 2.2881 0.0290938C2.2881 0.0290938 1.40547 0.892926 1.40547 0.892926C1.3684 0.92931 1.36387 0.985016 1.39109 1.02906C1.39109 1.02906 2.42241 2.69569 2.42241 2.69569C2.23929 2.99699 2.09059 3.32018 1.98589 3.66281C1.98589 3.66281 0.0911399 4.04777 0.0911399 4.04777C0.0384133 4.05845 0 4.10756 0 4.16045C0 4.16045 0 5.38106 0 5.38106C0 5.43267 0.0401014 5.47687 0.0911399 5.48905C0.0911399 5.48905 1.92832 5.92567 1.92832 5.92567C2.02658 6.32235 2.17836 6.70194 2.37923 7.0477C2.37923 7.0477 1.31434 8.6345 1.31434 8.6345C1.28463 8.67882 1.29043 8.73795 1.32872 8.77536C1.32872 8.77536 2.21135 9.63919 2.21135 9.63919C2.24853 9.67545 2.30556 9.68001 2.35045 9.65326C2.35045 9.65326 4.01974 8.66269 4.01974 8.66269C4.34716 8.84768 4.70164 8.99589 5.07505 9.0946C5.07505 9.0946 5.46361 10.9256 5.46361 10.9256C5.4745 10.9773 5.51994 11.0148 5.57393 11.0148C5.57393 11.0148 6.8211 11.0148 6.8211 11.0148C6.87345 11.0148 6.91901 10.9803 6.93141 10.9302C6.93141 10.9302 7.39192 9.0899 7.39192 9.0899C7.77704 8.98826 8.14016 8.83739 8.47601 8.6439C8.47601 8.6439 10.1213 9.70021 10.1213 9.70021C10.1667 9.72913 10.2268 9.72354 10.2652 9.68614C10.2652 9.68614 11.1431 8.82229 11.1431 8.82229C11.1804 8.78588 11.1895 8.73011 11.1622 8.68614C11.1622 8.68614 10.5626 7.71904 10.5626 7.71904C10.5626 7.71904 10.3061 7.77609 10.2892 7.7519C10.2892 7.7519 9.91045 7.2066 9.41618 6.49842C8.82508 7.63047 7.61956 8.40447 6.23109 8.40447C4.2581 8.40447 2.65745 6.83789 2.65745 4.90691C2.65745 3.48654 3.5253 2.26656 4.76807 1.7192C4.76807 1.7192 4.76807 0.817809 4.76807 0.817809C4.54188 0.895287 4.32337 0.988768 4.1157 1.09949C4.1153 1.09926 4.11607 1.09501 4.1157 1.09481C4.1157 1.09481 2.43201 0.0150045 2.43201 0.0150045C2.40935 0.00051967 2.38543 -0.0016371 2.36005 0.000928053C2.36005 0.000928053 2.36005 0.000928053 2.36005 0.000928053Z"/>
 </g>
</svg>
