<svg xmlns="http://www.w3.org/2000/svg" width="48" height="48" viewBox="0 0 13.546666 13.546668">
 <g transform="translate(38.119153,-397.84494)">
  <g transform="matrix(0.28219397,0,0,0.31981616,-38.120153,396.96943)">
   <path transform="translate(12.2975,6.26734)" d="M 11.7084,0 C 5.58743,0 0.586824,4.62764 0,10.5893 l 23.4169,0 C 22.8301,4.62764 17.8294,0 11.7084,0 z" style="fill:#4d4d4d"/>
   <rect transform="translate(4.00394,18.5039)" width="40" height="4.706" rx="2.353" style="fill:#4d4d4d"/>
   <path transform="translate(5.18053,27.4459)" d="M 2.35318,0 C 1.04952,0 0,1.04952 0,2.35318 0,3.65684 1.04952,4.70635 2.35318,4.70635 l 14.70732,0 0,-4.70635 z" style="fill:#4d4d4d"/>
   <path transform="translate(25.7708,27.4459)" d="m 0,0 0,4.70635 14.7074,0 c 1.3036,0 2.3531,-1.04951 2.3531,-2.35317 C 17.0605,1.04952 16.011,0 14.7074,0 z" style="fill:#4d4d4d"/>
   <path transform="translate(8.12192,29.7003)" d="M 14.1191,0 1.17896,7.47087 C 0.0499686,8.1227 -0.334623,9.55684 0.317207,10.6858 c 0.65183,1.129 2.085943,1.5135 3.214933,0.8617 L 14.1191,5.43478 z" style="fill:#4d4d4d"/>
   <path transform="translate(25.7708,29.7003)" d="m 0,0 0,5.43478 10.587,6.11272 c 1.129,0.6518 2.5631,0.2673 3.2149,-0.8617 0.6519,-1.12896 0.2673,-2.5631 -0.8617,-3.21493 z" style="fill:#4d4d4d"/>
   <path transform="translate(9.88688,18.5043)" d="m 0,0 0,10.5893 0.00705953,0 C 0.00668302,10.6293 0,10.667 0,10.707 0,17.5512 5.08506,23.0611 11.4028,23.0611 l 0.9514,0 0,-16.4722 3.5297,0 0,16.4722 0.9514,0 c 6.3178,0 11.4028,-5.5099 11.4028,-12.3541 0,-0.04 -0.007,-0.0777 -0.007,-0.1177 l 0.007,0 0,-10.5893 z" style="fill:#e74c3c"/>
  </g>
 </g>
</svg>
