<?xml version="1.0" standalone="no"?>
<!DOCTYPE svg PUBLIC "-//W3C//DTD SVG 20010904//EN" "http://www.w3.org/TR/2001/REC-SVG-20010904/DTD/svg10.dtd">
<!-- Created using Karbon, part of Calligra: http://www.calligra.org/karbon -->
<svg xmlns="http://www.w3.org/2000/svg" xmlns:xlink="http://www.w3.org/1999/xlink" width="38.4pt" height="38.4pt">
<defs/>
<g id="layer1">
  <g id="group0" transform="translate(3.38513, 3.26361)" fill="none">
   <g id="group1" transform="" fill="none">
    <path id="shape0" transform="translate(0.625, 0.625)" fill="#4c4c4c" d="M35.4076 40.1013L35.4076 40.1013C34.0562 40.1013 32.7866 39.5799 31.8314 38.6334L29.261 36.0861C26.4933 37.6217 23.3859 38.4304 20.2329 38.4304C17.0799 38.4304 13.9725 37.6217 11.2048 36.0861L8.63439 38.6334C7.67923 39.5799 6.40962 40.1013 5.05823 40.1013C3.70684 40.1013 2.43722 39.5799 1.48206 38.6334C0.526056 37.686 0 36.4278 0 35.0886C0 33.7494 0.526056 32.4912 1.48206 31.5447L4.05164 28.9982C2.50214 26.2546 1.68608 23.1752 1.68608 20.0506C1.68608 16.9261 2.50214 13.8466 4.05164 11.1039L1.48206 8.55744C0.526056 7.61005 0 6.35187 0 5.01266C0 3.67344 0.526056 2.41527 1.48206 1.46787C2.43722 0.522152 3.70684 0 5.05823 0C6.40962 0 7.67923 0.522152 8.63439 1.46871L11.2048 4.01514C13.9725 2.47959 17.0799 1.67089 20.2329 1.67089C23.3859 1.67089 26.4933 2.47959 29.261 4.01514L31.8314 1.46871C32.7866 0.522152 34.0562 0 35.4076 0C36.759 0 38.0286 0.522152 38.9838 1.46871C39.9398 2.41527 40.4658 3.67344 40.4658 5.01266C40.4658 6.35187 39.9398 7.61005 38.9838 8.55744L36.4133 11.1039C37.9637 13.8475 38.7797 16.9261 38.7797 20.0506C38.7797 23.1752 37.9637 26.2538 36.4133 28.9974L38.9838 31.5438C39.9398 32.4912 40.4658 33.7494 40.4658 35.0886C40.4658 36.4278 39.9398 37.686 38.9838 38.6334C38.0286 39.5799 36.759 40.1013 35.4076 40.1013Z"/>
   </g>
   <g id="group2" transform="translate(5.00554, 4.96044)" fill="none">
    <path id="shape1" transform="translate(0.625, 0.625)" fill="#8e7e6d" d="M14.9131 29.5574C6.69016 29.5574 0 22.9275 0 14.7787C0 6.62989 6.69016 0 14.9131 0C23.1359 0 29.8261 6.62989 29.8261 14.7787C29.8261 22.9275 23.1359 29.5574 14.9131 29.5574Z"/>
   </g>
   <g id="group3" transform="translate(33.3703, 3.30696)" fill="none">
    <path id="shape2" transform="translate(0.625, 0.625)" fill="#000000" d="M1.77975 0C0.795547 0 0 0.790143 0 1.76371C0 2.73728 0.795547 3.52743 1.77975 3.52743C2.76306 3.52743 3.55949 2.73728 3.55949 1.76371C3.55949 0.790143 2.76306 0 1.77975 0Z"/>
   </g>
   <g id="group4" transform="translate(3.33703, 3.30696)" fill="none">
    <path id="shape3" transform="translate(0.625, 0.625)" fill="#000000" d="M1.77975 0C0.795547 0 0 0.790143 0 1.76371C0 2.73728 0.795547 3.52743 1.77975 3.52743C2.76306 3.52743 3.55949 2.73728 3.55949 1.76371C3.55949 0.790143 2.76306 0 1.77975 0Z"/>
   </g>
   <g id="group5" transform="translate(33.3703, 33.0696)" fill="none">
    <path id="shape4" transform="translate(0.625, 0.625)" fill="#000000" d="M1.77975 0C0.795547 0 0 0.790143 0 1.76371C0 2.73728 0.795547 3.52743 1.77975 3.52743C2.76306 3.52743 3.55949 2.73728 3.55949 1.76371C3.55949 0.790143 2.76306 0 1.77975 0Z"/>
   </g>
   <g id="group6" transform="translate(3.33703, 33.0696)" fill="none">
    <path id="shape5" transform="translate(0.625, 0.625)" fill="#000000" d="M1.77975 0C0.795547 0 0 0.790143 0 1.76371C0 2.73728 0.795547 3.52743 1.77975 3.52743C2.76306 3.52743 3.55949 2.73728 3.55949 1.76371C3.55949 0.790143 2.76306 0 1.77975 0Z"/>
   </g>
   <g id="group7" transform="translate(15.8509, 15.7081)" fill="none">
    <path id="shape6" transform="translate(0.625, 0.625)" fill="#202020" stroke="#3f3a36" stroke-width="1.26248250207" stroke-linecap="butt" stroke-linejoin="miter" stroke-miterlimit="0.00000000000" d="M4.17128 8.26741C1.87124 8.26741 0 6.41303 0 4.1337C0 1.85438 1.87124 0 4.17128 0C6.47133 0 8.34256 1.85438 8.34256 4.1337C8.34256 6.41303 6.47133 8.26741 4.17128 8.26741Z"/>
   </g>
  </g>
 </g>
</svg>
