<?xml version="1.0" encoding="UTF-8" standalone="no"?>
<!-- Created using Karbon, part of Calligra: http://www.calligra.org/karbon -->

<svg
   xmlns:dc="http://purl.org/dc/elements/1.1/"
   xmlns:cc="http://creativecommons.org/ns#"
   xmlns:rdf="http://www.w3.org/1999/02/22-rdf-syntax-ns#"
   xmlns:svg="http://www.w3.org/2000/svg"
   xmlns="http://www.w3.org/2000/svg"
   xmlns:sodipodi="http://sodipodi.sourceforge.net/DTD/sodipodi-0.dtd"
   xmlns:inkscape="http://www.inkscape.org/namespaces/inkscape"
   width="38.4pt"
   height="38.4pt"
   id="svg2"
   version="1.1"
   inkscape:version="0.48.4 r9939"
   sodipodi:docname="package_multimedia_audioplayer.svg">
  <metadata
     id="metadata17">
    <rdf:RDF>
      <cc:Work
         rdf:about="">
        <dc:format>image/svg+xml</dc:format>
        <dc:type
           rdf:resource="http://purl.org/dc/dcmitype/StillImage" />
      </cc:Work>
    </rdf:RDF>
  </metadata>
  <sodipodi:namedview
     pagecolor="#ffffff"
     bordercolor="#666666"
     borderopacity="1"
     objecttolerance="10"
     gridtolerance="10"
     guidetolerance="10"
     inkscape:pageopacity="0"
     inkscape:pageshadow="2"
     inkscape:window-width="1920"
     inkscape:window-height="996"
     id="namedview15"
     showgrid="false"
     inkscape:zoom="19.666667"
     inkscape:cx="28.83089"
     inkscape:cy="12.360635"
     inkscape:window-x="0"
     inkscape:window-y="53"
     inkscape:window-maximized="1"
     inkscape:current-layer="svg2" />
  <defs
     id="defs4" />
  <path
     style="fill:#bdc3c7;fill-rule:evenodd;stroke:#003bc3;stroke-width:0;stroke-linecap:square;stroke-linejoin:miter;stroke-miterlimit:2.01260185"
     d="M 4 4 L 4 44 L 44 44 L 44 4 L 4 4 z M 7.96875 6.21875 C 8.94556 6.211798 9.74074 6.991968 9.75 7.96875 C 9.75 8.94555 8.94559 9.74768 7.96875 9.75 C 6.991925 9.75232 6.1921347 8.97681 6.1875 8 C 6.1828652 7.023196 6.991945 6.2257021 7.96875 6.21875 z M 40.53125 6.21875 C 41.50805 6.211798 42.33445 6.991967 42.34375 7.96875 C 42.34375 8.94555 41.53932 9.74767 40.5625 9.75 C 39.585665 9.75231 38.78585 8.97681 38.78125 8 C 38.776616 7.023195 39.554435 6.2257 40.53125 6.21875 z M 40.53125 38.75 C 41.50805 38.743048 42.33445 39.523217 42.34375 40.5 C 42.34375 41.4768 41.53932 42.27895 40.5625 42.28125 C 39.585665 42.28356 38.78585 41.50806 38.78125 40.53125 C 38.776616 39.554445 39.554435 38.757 40.53125 38.75 z M 7.96875 38.84375 C 8.89171 38.837181 9.6475 39.57705 9.65625 40.5 C 9.65625 41.42296 8.89173 42.1853 7.96875 42.1875 C 7.045754 42.18968 6.2856294 41.45423 6.28125 40.53125 C 6.2768707 39.608284 7.045779 38.850319 7.96875 38.84375 z "
     id="shape0" />
  <path
     style="fill:#7f8c8d;fill-rule:evenodd;stroke:#003bc3;stroke-width:0;stroke-linecap:square;stroke-linejoin:miter;stroke-miterlimit:2.01260185"
     inkscape:connector-curvature="0"
     d="M 23.86825,7.5553605 C 14.80955,7.6198336 7.5121566,15.0043 7.5551389,24.06314 c 0.042982,9.0589 7.4101211,16.3738 16.4691111,16.3523 9.0589,-0.0215 16.3909,-7.4492 16.3909,-16.5082 -0.086,-9.05854 -7.4881,-16.4163526 -16.5469,-16.3518795 z"
     stroke-miterlimit="2.01260191180"
     id="shape1" />
  <path
     style="fill:#34495e;fill-rule:evenodd;stroke:#003bc3;stroke-width:0;stroke-linecap:square;stroke-linejoin:miter;stroke-miterlimit:2"
     inkscape:connector-curvature="0"
     d="m 23.96152,19.247621 c -2.60569,0.01854 -4.704729,2.142659 -4.692366,4.748409 0.01236,2.60574 2.131466,4.70983 4.737196,4.70365 2.60576,-0.0062 4.71471,-2.14274 4.71471,-4.74849 -0.0247,-2.60567 -2.15386,-4.722115 -4.75954,-4.703569 z"
     stroke-miterlimit="2.00000000000"
     id="shape6" />
  <path
     style="fill:#2c3e50;fill-rule:evenodd;stroke:#003bc3;stroke-width:0;stroke-linecap:square;stroke-linejoin:miter;stroke-miterlimit:2"
     inkscape:connector-curvature="0"
     d="m 23.96304,20.562288 c -1.89131,0.01346 -3.414875,1.555262 -3.405901,3.446662 0.009,1.89141 1.547111,3.41868 3.438451,3.41419 1.89136,-0.0045 3.42213,-1.55533 3.42213,-3.44673 -0.01793,-1.89134 -1.56336,-3.427584 -3.45468,-3.414122 z"
     stroke-miterlimit="2.00000000000"
     id="shape7" />
</svg>
