<?xml version="1.0" standalone="no"?>
<!DOCTYPE svg PUBLIC "-//W3C//DTD SVG 20010904//EN" "http://www.w3.org/TR/2001/REC-SVG-20010904/DTD/svg10.dtd">
<!-- Created using Karbon, part of Calligra: http://www.calligra.org/karbon -->
<svg xmlns="http://www.w3.org/2000/svg" xmlns:xlink="http://www.w3.org/1999/xlink" width="38.4pt" height="38.4pt">
<defs/>
<g id="layer1">
  <path id="rect4162" transform="matrix(1 0 0 1 12.2975 6.26734)" fill="#4d4d4d" d="M11.7084 0C5.58743 0 0.586824 4.62764 0 10.5893L23.4169 10.5893C22.8301 4.62764 17.8294 0 11.7084 0Z"/>
  <rect id="rect4210" transform="matrix(1 0 0 1 4.00394 18.5039)" fill="#4d4d4d" width="32.00320759159pt" height="3.76508324607pt" rx="1.88254162303pt" ry="1.88254162303pt"/>
  <path id="path4228" transform="matrix(1 0 0 1 5.18053 27.4459)" fill="#4d4d4d" d="M2.35318 0C1.04952 0 0 1.04952 0 2.35318C0 3.65684 1.04952 4.70635 2.35318 4.70635L17.0605 4.70635L17.0605 0Z"/>
  <path id="rect4212" transform="matrix(1 0 0 1 25.7708 27.4459)" fill="#4d4d4d" d="M0 0L0 4.70635L14.7074 4.70635C16.011 4.70635 17.0605 3.65684 17.0605 2.35318C17.0605 1.04952 16.011 0 14.7074 0Z"/>
  <path id="rect4214" transform="matrix(1 0 0 1 8.12192 29.7003)" fill="#4d4d4d" d="M14.1191 0L1.17896 7.47087C0.0499686 8.1227 -0.334623 9.55684 0.317207 10.6858C0.969037 11.8148 2.40315 12.1993 3.53214 11.5475L14.1191 5.43478Z"/>
  <path id="rect4216" transform="matrix(1 0 0 1 25.7708 29.7003)" fill="#4d4d4d" d="M0 0L0 5.43478L10.587 11.5475C11.716 12.1993 13.1501 11.8148 13.8019 10.6858C14.4538 9.55684 14.0692 8.1227 12.9402 7.47087Z"/>
  <path id="rect4191" transform="matrix(1 0 0 1 9.88688 18.5043)" fill="#e74c3c" d="M0 0L0 10.5893L0.00705953 10.5893C0.00668302 10.6293 0 10.667 0 10.707C0 17.5512 5.08506 23.0611 11.4028 23.0611L12.3542 23.0611L12.3542 6.5889L15.8839 6.5889L15.8839 23.0611L16.8353 23.0611C23.1531 23.0611 28.2381 17.5512 28.2381 10.707C28.2381 10.667 28.2311 10.6293 28.2311 10.5893L28.2381 10.5893L28.2381 0Z"/>
 </g>
</svg>
