<svg xmlns="http://www.w3.org/2000/svg" width="48" height="48">
 <g transform="translate(0,-1004.3622)">
  <rect width="40" height="40" x="4" y="1008.36" style="fill:#2c3e50" rx="20"/>
  <rect y="1011.36" x="7" height="34" width="34" style="fill:#9b59b6" rx="17"/>
  <path d="m 19.5,1019.3622 0,3.6 0,8.4533 c -0.418571,-0.217 -0.876209,-0.3533 -1.351758,-0.3533 -1.64945,10e-5 -3.148242,1.5007 -3.148242,3.15 0,1.6492 1.498792,3.1499 3.148242,3.15 1.649451,10e-5 3.151758,-1.5007 3.151758,-3.15 l 0,-11.25 9.9,0 0,8.4533 c -0.418571,-0.217 -0.876209,-0.3533 -1.351758,-0.3533 -1.649449,10e-5 -3.148242,1.5007 -3.148242,3.15 0,1.6492 1.498793,3.1499 3.148242,3.15 1.649451,10e-5 3.151758,-1.5007 3.151758,-3.15 l 0,-11.25 0,-3.6 -13.5,0 z" style="fill:#ecf0f1" fill-rule="evenodd"/>
 </g>
</svg>
