<svg xmlns="http://www.w3.org/2000/svg" width="48" height="48" viewBox="0 0 13.546666 13.546668">
 <g transform="translate(38.119153,-397.84494)">
  <path d="m -36.143599,398.97383 0,7.62 1.693334,-1.69334 1.693333,1.69334 1.693334,-1.69334 1.693333,1.69334 1.693334,-1.69334 1.128889,1.12889 0,-3.95111 -3.104445,-3.10444 z" style="fill:#e74c3c"/>
  <path d="m -29.370265,407.15827 -1.693333,-1.69333 -1.693334,1.69333 -1.693333,-1.69333 -1.693334,1.69333 0,3.10445 9.595557,0 0,-3.66889 -1.128889,-1.12889 z" style="fill:#e74c3c"/>
  <path d="m -29.652535,398.97379 3.104493,3.10449 -3.104493,0 z" style="fill:#c0392b" fill-rule="evenodd"/>
  <path d="M 15 15 C 15.004961 14.98937 15.010664 21.686775 15.015625 27.015625 L 16.589844 28.589844 C 18.387122 23.578014 21.453662 14.993197 21.439453 15 L 15 15 z M 26.341797 15 C 26.341797 15 30.411576 26.013669 31.921875 30.078125 L 32.996094 29.003906 C 32.997097 24.193052 33 15.037134 33 15 L 26.341797 15 z M 23.929688 21.84375 C 23.967388 21.81186 21.913713 27.322045 21.427734 28.572266 L 25 25 L 25.193359 25.193359 C 24.661782 23.784186 23.935367 21.850518 23.929688 21.84375 z M 25 27 L 22.650391 29.349609 L 24.101562 29.349609 C 24.088452 29.367326 25.388672 32.964035 25.388672 33 L 28.136719 33 C 28.138717 33.003543 27.240237 30.628036 26.402344 28.402344 L 25 27 z M 15.017578 29.017578 C 15.018577 30.378669 15.023438 32.968869 15.023438 32.974609 C 15.027335 32.978153 15.77798 30.851913 16.0625 30.0625 L 15.017578 29.017578 z M 32.996094 31.003906 L 32.460938 31.539062 C 32.539741 31.749535 32.996427 32.989017 32.996094 32.984375 C 32.996094 32.987387 32.996016 31.389453 32.996094 31.003906 z " transform="matrix(0.28222225,0,0,0.28222225,-38.119154,397.84494)" style="fill:#ecf0f1" fill-rule="evenodd"/>
 </g>
</svg>
