<svg xmlns="http://www.w3.org/2000/svg" width="48" height="48">
 <g transform="translate(0,-1004.3622)">
  <rect width="40" height="40" x="4" y="1008.36" style="fill:#2c3e50" rx="20"/>
  <g transform="matrix(-1.7393597,0.46606005,0.46609695,1.7394976,-229.19322,341.47026)">
   <g transform="matrix(0.2802404,0,0,0.28156164,-140.05406,275.58759)">
    <text y="716.65" x="-288.57" font-family="DejaVu Sans" word-spacing="0" line-height="125%" letter-spacing="0" font-size="40"><tspan y="716.65" x="-288.57"/>
    </text>
    <path d="m 364.15625,432.8125 c -10.22942,0.17979 -19.1771,8.33305 -21.15625,18.21875 4.36567,-0.0149 12.1287,5.98293 13.71875,1.0625 1.60522,-5.00898 7.78319,-7.23053 12.5,-5.1875 -0.34895,-4.24239 6.86068,-13.04952 0.4606,-13.6512 -1.8123,-0.35456 -3.66855,-0.55695 -5.5231,-0.44255 z" style="fill:#e74c3c"/>
    <path d="m 374.875,436.65625 c -0.0247,4.11743 -5.90142,11.33933 0.34375,12.03125 4.5291,1.98129 6.20727,7.69345 4.3125,12.09375 4.25465,-0.38501 13.11554,6.83316 13.7137,0.42935 2.86439,-11.92564 -5.95583,-24.36265 -17.8387,-26.55435 -0.17708,0.66667 -0.35417,1.33333 -0.53125,2 z" style="fill:#2ecc71"/>
    <path d="m 341.84375,455.6875 c -3.5559,12.13199 5.29566,25.35502 17.5625,27.59375 0.0592,-4.35162 5.91026,-11.82903 1.15625,-13.6875 -5.06483,-1.46921 -7.35711,-7.71457 -5.25,-12.40625 -3.34777,0.34639 -12.89509,-6.00877 -13.46875,-1.5 z" style="fill:#f39c12"/>
    <path d="m 378.28125,465.3125 c -1.32195,5.33184 -7.75842,7.87039 -12.65625,5.71875 0.36184,4.24029 -6.81177,12.88697 -0.52986,13.64879 11.88822,2.83033 24.63608,-5.78909 26.65486,-17.77379 -3.98807,-0.0664 -11.83178,-5.5015 -13.46875,-1.59375 z" style="fill:#3498db"/>
   </g>
  </g>
 </g>
</svg>
