<svg xmlns="http://www.w3.org/2000/svg" width="48" height="48">
 <g transform="translate(0,-1004.3622)">
  <rect width="34" height="40" x="7" y="1008.36" style="fill:#2980b9"/>
  <path d="m 9,1010.3622 29.999998,0 0,36 -29.999998,0 z" style="fill:#ecf0f1"/>
  <rect y="-39" x="1017.36" height="30" width="2" transform="matrix(0,1,-1,0,0,0)" style="fill:#bdc3c7"/>
  <rect transform="matrix(0,1,-1,0,0,0)" width="2" height="30" x="1037.36" y="-39" style="fill:#bdc3c7"/>
  <rect y="-39" x="1027.36" height="30" width="2" transform="matrix(0,1,-1,0,0,0)" style="fill:#bdc3c7"/>
  <rect width="0.5" height="36" x="13" y="1010.36" style="fill:#95a5a6"/>
  <g transform="matrix(0.4534056,0,0,0.4534056,7.1383749,556.33387)" style="fill:#2c3e50">
   <path d="m 30.875,1039.6455 -3.554688,-9.082 -11.445312,0 -3.515625,9.082 -3.359375,0 11.289062,-28.6719 2.792969,0 11.230469,28.6719 -3.4375,0 m -4.589844,-12.0703 -3.320312,-8.8477 c -0.429701,-1.1197 -0.872409,-2.4934 -1.328125,-4.1211 -0.286471,1.2501 -0.696627,2.6238 -1.230469,4.1211 l -3.359375,8.8477 9.238281,0"/>
  </g>
  <g transform="matrix(0.36977778,0,0,0.36977778,3.7059747,656.1992)" style="fill:#2c3e50">
   <path d="m 64.518417,1034.5313 c -1.875011,2.7083 -4.531258,5.2083 -7.96875,7.5 l -2.1875,-2.8125 c 3.437494,-2.1875 5.989575,-4.4271 7.65625,-6.7188 -0.104177,-0.2083 -1.145842,-0.9375 -3.125,-2.1875 l -0.625,1.875 -2.96875,-1.25 c 1.458328,-4.0625 2.552077,-8.2812 3.28125,-12.6563 l -3.90625,0 0,-2.9687 4.375,0 c 0.416659,-2.5 0.781242,-5 1.09375,-7.5 l 3.28125,0.4687 c 0.520821,0.1042 0.468738,0.4167 -0.15625,0.9375 -0.312511,2.0834 -0.677094,4.1147 -1.09375,6.0938 l 3.75,0 0.46875,-0.7813 2.96875,1.875 -0.46875,0.7813 c -0.52085,6.3542 -1.458349,11.0938 -2.8125,14.2188 1.458318,1.1458 2.968733,2.3958 4.53125,3.75 l -2.03125,3.125 c -1.666682,-1.6667 -3.020847,-2.9167 -4.0625,-3.75 m 16.71875,4.6875 c -2.9e-5,1.8749 -0.677112,2.8124 -2.03125,2.8125 l -3.90625,0 -0.78125,-3.4375 2.96875,0 c 0.416641,0 0.624974,-0.2084 0.625,-0.625 l 0,-10.9375 -8.28125,0 0,-2.9688 8.28125,0 0,-6.5625 1.09375,0.1562 3.59375,-4.6875 -11.875,0 0,-2.9687 13.90625,0 0.625,-0.625 2.65625,2.6562 c 0.624963,0.5209 0.41663,0.8334 -0.625,0.9375 l -6.25,6.25 0,4.8438 8.28125,0 0,2.9688 -8.28125,0 0,12.1875 m -21.5625,-11.5625 c 0.937491,0.4166 2.135407,1.0937 3.59375,2.0312 1.145821,-3.0208 1.92707,-6.8229 2.34375,-11.4063 l -3.90625,0 c -1.041675,5.1042 -1.718758,8.2292 -2.03125,9.3751"/>
  </g>
  <path d="m 31.281386,1024.6345 -0.749634,0 0,-2.003 0,-2.6237 -2.623718,0 -2.002928,0 0,-0.7496 -2.62372,2.0615 2.62372,2.0615 0,-0.7497 2.002928,0 0,2.003 -0.749634,0 2.061493,2.6237 2.061493,-2.6237 z" style="fill:#7f8c8d" fill-rule="evenodd"/>
  <g transform="matrix(0.8836103,0,0,0.8836103,-64.792586,956.12912)">
   <path d="m 89.489787,86.057098 0.848376,0 0,2.266755 0,2.969316 2.969316,0 2.266755,0 0,0.848376 2.969318,-2.333034 -2.969318,-2.333034 0,0.848376 -2.266755,0 0,-2.266755 0.848376,0 -2.333034,-2.969314 -2.333034,2.969314 z" style="fill:#7f8c8d" fill-rule="evenodd"/>
  </g>
 </g>
</svg>
