<?xml version="1.0" standalone="no"?>
<!DOCTYPE svg PUBLIC "-//W3C//DTD SVG 20010904//EN" "http://www.w3.org/TR/2001/REC-SVG-20010904/DTD/svg10.dtd">
<!-- Created using Karbon, part of Calligra: http://www.calligra.org/karbon -->
<svg xmlns="http://www.w3.org/2000/svg" xmlns:xlink="http://www.w3.org/1999/xlink" width="38.4pt" height="38.4pt">
<defs/>
<g id="layer1">
  <path id="shape0" transform="translate(4.00393, 4.00392)" fill="#4895ff" fill-rule="evenodd" stroke="#003bc3" stroke-width="0.00000000000" stroke-linecap="square" stroke-linejoin="miter" stroke-miterlimit="2.01260185242" d="M40.0025 19.7566C39.8672 8.73455 30.8403 -0.100587 19.8179 0.000865034C8.79554 0.102317 -0.0672506 9.10211 0.000384548 20.1248C0.0680197 31.1474 9.04058 40.0377 20.0634 40.0039C31.0862 39.9701 40.004 31.0249 40.004 20.002"/>
  <path id="shape01" transform="translate(9.41772, 16.9618)" fill="#ffffff" fill-rule="evenodd" stroke="#000000" stroke-opacity="0.18823529412" stroke-width="0.00000000000" stroke-linecap="square" stroke-linejoin="miter" stroke-miterlimit="2.01260185242" d="M19.8076 23.6708L17.1902 9.58184L18.1821 3.38946L28.9823 1.71236L28.9823 0L14.4911 1.38757L0 0L0 1.71236L11.2641 3.38946L12.1589 9.52934L9.20731 23.6708L10.9367 23.6194L14.7231 10.7792L18.0781 23.6194Z"/>
  <path id="shape011" transform="translate(21.3706, 10.708)" fill="#ffffff" fill-rule="evenodd" stroke="#003bc3" stroke-width="0.00000000000" stroke-linecap="square" stroke-linejoin="miter" stroke-miterlimit="2.01260185242" d="M5.18094 2.90938C5.15601 1.2793 3.98296 -0.0211082 2.55672 0.0002596C1.13047 0.0216273 -0.0123623 1.35672 0.000100977 2.98699C0.0125642 4.61727 1.17563 5.92933 2.60198 5.92221C4.02834 5.91508 5.18133 4.59145 5.18133 2.96112"/>
 </g>
</svg>
