<svg xmlns="http://www.w3.org/2000/svg" width="48" height="48" viewBox="0 0 13.546666 13.546668">
 <g transform="translate(38.119153,-397.84494)">
  <path d="M 24.5 4 C 19.196789 4 14.90625 8.2892072 14.90625 13.59375 C 14.90625 17.314781 17.00261 20.554673 20.09375 22.15625 L 20.09375 41.4375 L 24.40625 44.03125 C 24.442194 30.154812 24.473508 23.2808 24.46875 23.21875 C 24.47909 23.218783 24.489652 23.21875 24.5 23.21875 C 29.803271 23.21875 34.09375 18.898222 34.09375 13.59375 C 34.09375 8.2892072 29.803271 4 24.5 4 z M 24.46875 6.84375 C 26.043651 6.84375 27.3125 8.1122521 27.3125 9.6875 C 27.3125 11.262783 26.043651 12.53125 24.46875 12.53125 C 22.893853 12.53125 21.625 11.262783 21.625 9.6875 C 21.625 8.1122521 22.893853 6.84375 24.46875 6.84375 z " transform="matrix(0.28222225,0,0,0.28222225,-38.119154,397.84494)" style="fill:#f1c40f" fill-rule="evenodd"/>
  <path d="m -31.232166,410.26921 1.249293,-0.72942 c 0,-0.15195 0,-0.36943 0,-0.65243 l -0.557721,-0.59557 0.557721,-0.49294 0,-0.186 -0.562257,-0.58047 0.562257,-0.60292 -0.566789,-0.60933 0.566789,-0.5437 c 0,-0.65296 0,-1.05544 0,-1.20739 -0.292969,0.13182 -0.77308,0.30538 -1.237493,0.2985 -0.0015,-6e-5 -0.0089,1.96428 -0.0118,5.90167 z" style="fill:#f39c12" fill-rule="evenodd"/>
 </g>
</svg>
