<?xml version="1.0" standalone="no"?>
<!DOCTYPE svg PUBLIC "-//W3C//DTD SVG 20010904//EN" "http://www.w3.org/TR/2001/REC-SVG-20010904/DTD/svg10.dtd">
<!-- Created using Karbon, part of Calligra: http://www.calligra.org/karbon -->
<svg xmlns="http://www.w3.org/2000/svg" xmlns:xlink="http://www.w3.org/1999/xlink" width="38.4pt" height="38.4pt">
<defs/>
<g id="layer1">
  <rect id="shape0" transform="translate(3.03797, 3.15949)" fill="#f2f2f2" fill-rule="evenodd" stroke="#003bc3" stroke-width="0.00000000000" stroke-linecap="square" stroke-linejoin="miter" stroke-miterlimit="2.01260185242" width="34.12253164557pt" height="33.15037974684pt"/>
  <path id="shape1" transform="translate(28.3467, 6.09044)" fill="#ff4c91" fill-rule="evenodd" stroke="#003bc3" stroke-width="0.00000000000" stroke-linecap="square" stroke-linejoin="miter" stroke-miterlimit="2.01260185242" d="M14.5475 7.10201C14.4523 3.10227 11.1454 -0.0700777 7.14516 0.00117721C3.14493 0.0724322 -0.046981 3.36055 0.000523434 7.36113C0.0480279 11.3617 3.31712 14.5731 7.3179 14.5493C11.3186 14.5256 14.5495 11.2756 14.5495 7.27476"/>
  <path id="shape2" transform="translate(6.06439, 6.13016)" fill="#52beea" fill-rule="evenodd" stroke="#003bc3" stroke-width="0.00000000000" stroke-linecap="square" stroke-linejoin="miter" stroke-miterlimit="2.00000000000" d="M14.5475 7.10201C14.4523 3.10227 11.1454 -0.0700777 7.14516 0.00117721C3.14493 0.0724322 -0.046981 3.36055 0.000523434 7.36113C0.0480279 11.3617 3.31712 14.5731 7.3179 14.5493C11.3186 14.5256 14.5495 11.2756 14.5495 7.27476"/>
  <path id="shape3" transform="translate(5.93619, 27.1028)" fill="#88c941" fill-rule="evenodd" stroke="#003bc3" stroke-width="0.00000000000" stroke-linecap="square" stroke-linejoin="miter" stroke-miterlimit="2.00000000000" d="M14.5475 7.10203C14.4524 3.10227 11.1455 -0.0700779 7.14516 0.00117721C3.14494 0.0724324 -0.0469811 3.36055 0.000523434 7.36114C0.0480281 11.3617 3.31713 14.5732 7.31792 14.5494C11.3187 14.5257 14.5495 11.2756 14.5495 7.27477"/>
  <path id="shape4" transform="translate(28.284, 27.1028)" fill="#f1cb6d" fill-rule="evenodd" stroke="#003bc3" stroke-width="0.00000000000" stroke-linecap="square" stroke-linejoin="miter" stroke-miterlimit="2.00000000000" d="M14.5475 7.10203C14.4524 3.10227 11.1455 -0.0700779 7.14516 0.00117721C3.14494 0.0724324 -0.0469811 3.36055 0.000523434 7.36114C0.0480281 11.3617 3.31713 14.5732 7.31792 14.5494C11.3187 14.5257 14.5495 11.2756 14.5495 7.27477"/>
 </g>
</svg>
