<?xml version="1.0" standalone="no"?>
<!DOCTYPE svg PUBLIC "-//W3C//DTD SVG 20010904//EN" "http://www.w3.org/TR/2001/REC-SVG-20010904/DTD/svg10.dtd">
<!-- Created using Karbon, part of Calligra: http://www.calligra.org/karbon -->
<svg xmlns="http://www.w3.org/2000/svg" xmlns:xlink="http://www.w3.org/1999/xlink" width="38.4pt" height="38.4pt">
<defs/>
<g id="layer1">
  <path id="shape0" transform="translate(1.07329, 1.74991)" fill="#f2f2f2" fill-rule="evenodd" stroke="#435564" stroke-width="1.86484575032" stroke-linecap="square" stroke-linejoin="miter" stroke-miterlimit="2.00000000000" d="M22.9374 11.2502C22.8165 4.93825 17.6176 -0.0894189 11.3051 0.00120614C4.99261 0.0918312 -0.0598817 5.26668 0.000536255 11.5795C0.0609542 17.8924 5.21157 22.9696 11.5246 22.9393C17.8377 22.9091 22.9395 17.7829 22.9395 11.4697"/>
  <path id="shape1" transform="translate(6.86666, 8.13529)" fill="none" stroke="#34495e" stroke-width="1.89106626818" stroke-linecap="round" stroke-linejoin="bevel" d="M5.61229 5.40111L0 0"/>
  <path id="shape2" transform="translate(12.5891, 11.063)" fill="none" stroke="#34495e" stroke-width="1.25326988768" stroke-linecap="round" stroke-linejoin="bevel" d="M0 2.28303L9.21901 0"/>
  <path id="Фигура" transform="translate(8.49959, 10.2857)" fill="none" stroke="#c74640" stroke-width="0.31889819025" stroke-linecap="round" stroke-linejoin="bevel" d="M5.32354 0L0 11.8831"/>
  <path id="Фигура1" transform="translate(10.9931, 11.721)" fill="#c74640" fill-rule="evenodd" stroke="#f2f2f2" stroke-width="0.00000000000" stroke-linecap="square" stroke-linejoin="miter" stroke-miterlimit="2.00000000000" d="M3.05572 1.34549C2.95402 0.52312 2.21746 -0.0697446 1.39235 0.00661932C0.567238 0.0829832 -0.048001 0.800956 0.00294845 1.62803C0.0538979 2.4551 0.752608 3.09213 1.58085 3.06664C2.4091 3.04115 3.06732 2.36237 3.06732 1.53373"/>
  <path id="Фигура2" transform="translate(11.7016, 12.4553)" fill="#f2f2f2" fill-rule="evenodd" stroke="#f2f2f2" stroke-width="0.00000000000" stroke-linecap="square" stroke-linejoin="miter" stroke-miterlimit="2.00000000000" d="M1.63957 0.721933C1.585 0.280684 1.18979 -0.0374219 0.747074 0.00355163C0.304355 0.0445252 -0.0257553 0.429758 0.00158202 0.873528C0.0289193 1.3173 0.403817 1.6591 0.848218 1.64543C1.29262 1.63175 1.64579 1.26754 1.64579 0.822933"/>
  <path id="Фигура3" transform="translate(13.2116, 9.65868)" fill="#c74640" fill-rule="evenodd" stroke="#f2f2f2" stroke-width="0.00000000000" stroke-linecap="square" stroke-linejoin="miter" stroke-miterlimit="2.00000000000" d="M1.27362 0.560797C1.23123 0.218035 0.924231 -0.0290693 0.580327 0.0027589C0.236423 0.0345872 -0.0200067 0.333836 0.00122891 0.678557C0.0224645 1.02328 0.313685 1.28879 0.658895 1.27817C1.00411 1.26754 1.27845 0.984628 1.27845 0.639254"/>
  <path id="shape3" transform="translate(6.90675, 8.1763)" fill="none" stroke="#f2f2f2" stroke-width="0.85039517400" stroke-linecap="round" stroke-linejoin="bevel" d="M1.964 1.91894L0 0"/>
  <path id="shape4" transform="translate(19.2653, 11.1293)" fill="none" stroke="#f2f2f2" stroke-width="0.70866264500" stroke-linecap="round" stroke-linejoin="bevel" d="M2.34014 0L0 0.571429"/>
  <rect id="shape5" transform="translate(11.9728, 23.5091)" fill="#f3dfc6" fill-rule="evenodd" stroke="#003bc3" stroke-width="0.00000000000" stroke-linecap="square" stroke-linejoin="miter" stroke-miterlimit="2.00000000000" width="27.65550816880pt" height="18.13417683360pt"/>
  <rect id="shape6" transform="translate(12.0147, 16.3608)" fill="#1abc9c" fill-rule="evenodd" stroke="#003bc3" stroke-width="0.00000000000" stroke-linecap="square" stroke-linejoin="miter" stroke-miterlimit="2.00000000000" width="27.65550816880pt" height="5.86915266813pt"/>
  <rect id="shape7" transform="translate(16.1532, 12.6926)" fill="#435564" fill-rule="evenodd" stroke="#003bc3" stroke-width="0.00000000000" stroke-linecap="square" stroke-linejoin="miter" stroke-miterlimit="2.00000000000" width="2.23993984219pt" height="5.86915266813pt" rx="1.11996992110pt" ry="1.11996992110pt"/>
  <rect id="shape8" transform="translate(39.9387, 12.6926)" fill="#435564" fill-rule="evenodd" stroke="#003bc3" stroke-width="0.00000000000" stroke-linecap="square" stroke-linejoin="miter" stroke-miterlimit="2.00000000000" width="2.23993984219pt" height="5.86915266813pt" rx="1.11996992110pt" ry="1.11996992110pt"/>
  <rect id="shape10" transform="translate(17.1396, 26.0438)" fill="#a8b2b8" fill-rule="evenodd" stroke="#003bc3" stroke-width="0.00000000000" stroke-linecap="square" stroke-linejoin="miter" stroke-miterlimit="2.00000000000" width="3.67433678062pt" height="3.67433678062pt"/>
  <rect id="shape11" transform="translate(17.1359, 32.2793)" fill="#a8b2b8" fill-rule="evenodd" stroke="#003bc3" stroke-width="0.00000000000" stroke-linecap="square" stroke-linejoin="miter" stroke-miterlimit="2.00000000000" width="3.67433678062pt" height="3.67433678062pt"/>
  <rect id="shape12" transform="translate(17.1359, 38.7971)" fill="#a8b2b8" fill-rule="evenodd" stroke="#003bc3" stroke-width="0.00000000000" stroke-linecap="square" stroke-linejoin="miter" stroke-miterlimit="2.00000000000" width="3.67433678062pt" height="3.67433678062pt"/>
  <rect id="shape13" transform="translate(23.7128, 26.0288)" fill="#a8b2b8" fill-rule="evenodd" stroke="#003bc3" stroke-width="0.00000000000" stroke-linecap="square" stroke-linejoin="miter" stroke-miterlimit="2.00000000000" width="3.67433678062pt" height="3.67433678062pt"/>
  <rect id="shape14" transform="translate(23.7091, 32.2643)" fill="#a8b2b8" fill-rule="evenodd" stroke="#003bc3" stroke-width="0.00000000000" stroke-linecap="square" stroke-linejoin="miter" stroke-miterlimit="2.00000000000" width="3.67433678062pt" height="3.67433678062pt"/>
  <rect id="shape15" transform="translate(23.7091, 38.7821)" fill="#a8b2b8" fill-rule="evenodd" stroke="#003bc3" stroke-width="0.00000000000" stroke-linecap="square" stroke-linejoin="miter" stroke-miterlimit="2.00000000000" width="3.67433678062pt" height="3.67433678062pt"/>
  <rect id="shape16" transform="translate(30.1141, 26.0363)" fill="#a8b2b8" fill-rule="evenodd" stroke="#003bc3" stroke-width="0.00000000000" stroke-linecap="square" stroke-linejoin="miter" stroke-miterlimit="2.00000000000" width="3.67433678062pt" height="3.67433678062pt"/>
  <rect id="shape17" transform="translate(30.1103, 32.2718)" fill="#a8b2b8" fill-rule="evenodd" stroke="#003bc3" stroke-width="0.00000000000" stroke-linecap="square" stroke-linejoin="miter" stroke-miterlimit="2.00000000000" width="3.67433678062pt" height="3.67433678062pt"/>
  <rect id="shape18" transform="translate(30.1103, 38.7896)" fill="#a8b2b8" fill-rule="evenodd" stroke="#003bc3" stroke-width="0.00000000000" stroke-linecap="square" stroke-linejoin="miter" stroke-miterlimit="2.00000000000" width="3.67433678062pt" height="3.67433678062pt"/>
  <rect id="shape19" transform="translate(36.6872, 26.0213)" fill="#de6143" fill-rule="evenodd" stroke="#003bc3" stroke-width="0.00000000000" stroke-linecap="square" stroke-linejoin="miter" stroke-miterlimit="2.00000000000" width="3.67433678062pt" height="3.67433678062pt"/>
  <rect id="shape20" transform="translate(36.6835, 32.2568)" fill="#de6143" fill-rule="evenodd" stroke="#003bc3" stroke-width="0.00000000000" stroke-linecap="square" stroke-linejoin="miter" stroke-miterlimit="2.00000000000" width="3.67433678062pt" height="3.67433678062pt"/>
  <rect id="shape21" transform="translate(36.6835, 38.7746)" fill="#de6143" fill-rule="evenodd" stroke="#003bc3" stroke-width="0.00000000000" stroke-linecap="square" stroke-linejoin="miter" stroke-miterlimit="2.00000000000" width="3.67433678062pt" height="3.67433678062pt"/>
 </g>
</svg>
