<?xml version="1.0" standalone="no"?>
<!DOCTYPE svg PUBLIC "-//W3C//DTD SVG 20010904//EN" "http://www.w3.org/TR/2001/REC-SVG-20010904/DTD/svg10.dtd">
<!-- Created using Karbon, part of Calligra: http://www.calligra.org/karbon -->
<svg xmlns="http://www.w3.org/2000/svg" xmlns:xlink="http://www.w3.org/1999/xlink" width="38.4pt" height="38.4pt">
<defs/>
<g id="layer1">
  <path id="shape0" transform="translate(4.00382, 4.00369)" fill="#34495e" fill-rule="evenodd" stroke="#003bc3" stroke-width="0.00000000000" stroke-linecap="square" stroke-linejoin="miter" stroke-miterlimit="2.01260185242" d="M39.9802 19.0241C39.4446 8.08583 30.2124 -0.388014 19.2684 0.0137125C8.32437 0.415439 -0.261751 9.54336 0.00609995 20.4915C0.273951 31.4396 9.29618 40.1367 20.2467 40.0028C31.1973 39.8688 40.0041 30.9536 40.0041 20.0023"/>
  <g id="g846" transform="translate(15.0636, 9.16487)" fill="none">
   <path id="path829" transform="translate(5.73072, 0.416075)" fill="#fffbb7" d="M3.25966 23.7228C4.95634 23.7228 6.33171 25.0657 6.33171 26.7228C6.33171 28.38 4.95634 29.7228 3.25966 29.7228C1.56306 29.7228 0.187672 28.38 0.187672 26.7228C0.187672 25.0657 1.56306 23.7228 3.25966 23.7228ZM5.84873 21.4064L0.896829 21.4368L0 0.257681C2.16249 -0.0879871 4.32499 -0.0539731 6.48748 0.171754Z"/>
  </g>
 </g>
</svg>
