<svg xmlns="http://www.w3.org/2000/svg" width="48" height="48" viewBox="0 0 13.546666 13.546668">
 <g transform="translate(38.119153,-397.84494)">
  <path d="M 4 4 L 4 36 L 12 36 L 12 40 L 15 40 L 15 44 L 33 44 L 33 40 L 36 40 L 36 36 L 44 36 L 44 4 L 4 4 z " transform="matrix(0.28222225,0,0,0.28222225,-38.119154,397.84494)" style="fill:#95a5a6"/>
  <path d="M 7 7 L 7 33.001953 L 15 33.001953 L 15 36 L 18 36 L 18 41.099609 L 30 41.099609 L 30 36 L 33 36 L 33 33.001953 L 41 33.001953 L 41 7 L 33 7 L 15 7 L 7 7 z " transform="matrix(0.28222225,0,0,0.28222225,-38.119154,397.84494)" style="fill:#2c3e50"/>
  <rect width="0.847" height="2.258" x="-34.732" y="399.82" style="fill:#f1c40f"/>
  <rect y="399.82" x="-32.757" height="2.258" width="0.847" style="fill:#f1c40f"/>
  <rect width="0.847" height="2.258" x="-30.781" y="399.82" style="fill:#f1c40f"/>
  <rect width="0.847" height="2.258" x="-28.806" y="399.82" style="fill:#f1c40f"/>
 </g>
</svg>
