<?xml version="1.0" standalone="no"?>
<!DOCTYPE svg PUBLIC "-//W3C//DTD SVG 20010904//EN" "http://www.w3.org/TR/2001/REC-SVG-20010904/DTD/svg10.dtd">
<!-- Created using Karbon, part of Calligra: http://www.calligra.org/karbon -->
<svg xmlns="http://www.w3.org/2000/svg" xmlns:xlink="http://www.w3.org/1999/xlink" width="38.4pt" height="38.4pt">
<defs/>
<g id="layer1">
  <path id="shape0" transform="translate(19.4784, 3.47838)" fill="#595959" fill-rule="evenodd" stroke="#003bc3" stroke-width="0.00000000000" stroke-linecap="square" stroke-linejoin="miter" stroke-miterlimit="2.01260191180" d="M8.76027 4.20079C8.6609 1.80041 6.64734 -0.0723882 4.24606 0.00214987C1.84479 0.076688 -0.0487403 2.07077 0.000956234 4.47269C0.0506527 6.8746 2.02504 8.78866 4.42735 8.76381C6.82965 8.73896 8.76402 6.78447 8.76402 4.38204"/>
  <path id="shape1" transform="translate(5.87879, 11.697)" fill="#595959" fill-rule="evenodd" stroke="#003bc3" stroke-width="0.00000000000" stroke-linecap="square" stroke-linejoin="bevel" d="M0.0629565 0.121212C12.195 4.13277 24.9578 3.83383 36.9028 0C37.7216 2.71263 26.4749 3.66044 21.1288 5.33333C17.8022 8.25471 23.1642 31.5354 20.5182 31.6364C18.0937 9.42917 18.0258 9.42425 14.4122 31.3939C11.5627 31.3131 17.8361 8.28021 14.8193 5.0303C8.62459 3.71679 -0.862559 2.60147 0.0629565 0.121212Z"/>
 </g>
</svg>
