<?xml version="1.0" standalone="no"?>
<!DOCTYPE svg PUBLIC "-//W3C//DTD SVG 20010904//EN" "http://www.w3.org/TR/2001/REC-SVG-20010904/DTD/svg10.dtd">
<!-- Created using Karbon, part of Calligra: http://www.calligra.org/karbon -->
<svg xmlns="http://www.w3.org/2000/svg" xmlns:xlink="http://www.w3.org/1999/xlink" width="38.4pt" height="38.4pt">
<defs/>
<g id="layer1">
  <path id="shape0" transform="translate(11.8972, 4.42926)" fill="#88c941" fill-rule="evenodd" stroke="#003bc3" stroke-width="0.00000000000" stroke-linecap="square" stroke-linejoin="miter" stroke-miterlimit="2.01260185242" d="M24.4486 11.2006C23.6706 4.3859 17.7953 -0.554148 11.1869 0.0499827C4.57839 0.654113 -0.368135 6.58345 0.0215224 13.4337C0.41118 20.284 5.9958 25.5725 12.6272 25.3709C19.2585 25.1692 24.5332 19.5506 24.5332 12.6886"/>
  <path id="shape1" transform="translate(19.7177, 18.5707)" fill="#2980b9" fill-rule="evenodd" stroke="#003bc3" stroke-width="0.00000000000" stroke-linecap="square" stroke-linejoin="miter" stroke-miterlimit="2.00000000000" d="M24.4486 11.2006C23.6706 4.3859 17.7953 -0.554148 11.1869 0.0499827C4.57839 0.654113 -0.368135 6.58345 0.0215224 13.4337C0.41118 20.284 5.9958 25.5725 12.6272 25.3709C19.2585 25.1692 24.5332 19.5506 24.5332 12.6886"/>
  <path id="shape2" transform="translate(4.00394, 18.618)" fill="#ff4946" fill-rule="evenodd" stroke="#003bc3" stroke-width="0.00000000000" stroke-linecap="square" stroke-linejoin="miter" stroke-miterlimit="2.01260185242" d="M24.4486 11.2006C23.6706 4.3859 17.7953 -0.554148 11.1869 0.0499827C4.57839 0.654113 -0.368135 6.58345 0.0215224 13.4337C0.41118 20.284 5.9958 25.5725 12.6272 25.3709C19.2585 25.1692 24.5332 19.5506 24.5332 12.6886"/>
  <path id="shape0" transform="translate(19.82, 21.5468)" fill="#9b59b6" fill-rule="evenodd" stroke="#003bc3" stroke-width="0.00000000000" stroke-linecap="square" stroke-linejoin="bevel" d="M4.27873 0C12.1325 6.05777 8.29227 16.6725 4.34708 19.4734C-0.456513 15.435 -2.33675 6.79632 4.27873 0Z"/>
  <path id="shape1" transform="matrix(0.456245 -0.889854 0.889854 0.456245 10.0304 23.3802)" fill="#ae8566" fill-rule="evenodd" stroke="#003bc3" stroke-width="0.00000000000" stroke-linecap="square" stroke-linejoin="bevel" d="M4.52342 0C12.4627 5.89828 8.1415 15.7613 4.15335 18.4884C-0.702538 14.5564 -2.16408 6.61738 4.52342 0Z"/>
  <path id="shape2" transform="matrix(0.555658 -0.831411 0.831411 0.555658 19.3614 27.9089)" fill="#1abc9c" fill-rule="evenodd" stroke="#003bc3" stroke-width="0.00000000000" stroke-linecap="square" stroke-linejoin="bevel" d="M0 1.00323C11.7133 -2.97211 15.7351 5.92394 16.4885 9.285C10.7662 11.9476 2.67721 10.0833 0 1.00323Z"/>
  <path id="shape3" transform="translate(20.1722, 21.0987)" fill="#34495e" fill-rule="evenodd" stroke="#003bc3" stroke-width="0.00000000000" stroke-linecap="square" stroke-linejoin="bevel" d="M4.14684 0C5.08167 0.737228 7.76133 3.94617 8.32405 7.53418C6.01927 8.3927 2.85694 8.30725 0 7.38228C0.582335 5.31199 1.49073 2.43433 4.14684 0Z"/>
 </g>
</svg>
