<?xml version="1.0" standalone="no"?>
<!DOCTYPE svg PUBLIC "-//W3C//DTD SVG 20010904//EN" "http://www.w3.org/TR/2001/REC-SVG-20010904/DTD/svg10.dtd">
<!-- Created using Karbon, part of Calligra: http://www.calligra.org/karbon -->
<svg xmlns="http://www.w3.org/2000/svg" xmlns:xlink="http://www.w3.org/1999/xlink" width="38.4pt" height="38.4pt">
<defs/>
<g id="layer1">
  <path id="shape0" transform="translate(4.00393, 4.00392)" fill="#2980b9" fill-rule="evenodd" stroke="#003bc3" stroke-width="0.00000000000" stroke-linecap="square" stroke-linejoin="miter" stroke-miterlimit="2.01260185242" d="M40.0025 19.7566C39.8672 8.73455 30.8403 -0.100587 19.8179 0.000865034C8.79554 0.102317 -0.0672506 9.10211 0.000384548 20.1248C0.0680197 31.1474 9.04058 40.0377 20.0634 40.0039C31.0862 39.9701 40.004 31.0249 40.004 20.002"/>
  <path id="shape01" transform="translate(12.7595, 16.9618)" fill="#f2f2f2" fill-rule="evenodd" stroke="#000000" stroke-opacity="0.18823529412" stroke-width="0.00000000000" stroke-linecap="square" stroke-linejoin="miter" stroke-miterlimit="2.01260185242" d="M15.2398 20.7698L13.226 8.40755L13.9891 2.97407L22.2987 1.5025L22.2987 0L11.1493 1.21752L0 0L0 1.5025L8.6665 2.97407L9.35495 8.36148L7.08402 20.7698L8.4146 20.7247L11.3278 9.45816L13.9091 20.7247Z"/>
  <path id="shape011" transform="translate(21.7005, 12.2127)" fill="#f2f2f2" fill-rule="evenodd" stroke="#003bc3" stroke-width="0.00000000000" stroke-linecap="square" stroke-linejoin="miter" stroke-miterlimit="2.01260185242" d="M4.50752 2.26678C4.48583 0.99674 3.46525 -0.016446 2.2244 0.000202262C0.983531 0.0168505 -0.0107554 1.05706 8.78522e-05 2.32725C0.0109311 3.59745 1.02282 4.61971 2.26377 4.61417C3.50474 4.60861 4.50786 3.57733 4.50786 2.30709"/>
 </g>
</svg>
