<?xml version="1.0" encoding="UTF-8" standalone="no"?>
<!-- Created with Inkscape (http://www.inkscape.org/) -->

<svg
   xmlns:dc="http://purl.org/dc/elements/1.1/"
   xmlns:cc="http://creativecommons.org/ns#"
   xmlns:rdf="http://www.w3.org/1999/02/22-rdf-syntax-ns#"
   xmlns:svg="http://www.w3.org/2000/svg"
   xmlns="http://www.w3.org/2000/svg"
   xmlns:sodipodi="http://sodipodi.sourceforge.net/DTD/sodipodi-0.dtd"
   xmlns:inkscape="http://www.inkscape.org/namespaces/inkscape"
   width="48"
   height="48"
   id="svg2"
   version="1.1"
   inkscape:version="0.48+devel r12691"
   viewBox="0 0 13.546667 13.546667"
   sodipodi:docname="preferences-desktop-screensaver.svg">
  <defs
     id="defs4" />
  <sodipodi:namedview
     id="base"
     pagecolor="#ffffff"
     bordercolor="#666666"
     borderopacity="1.0"
     inkscape:pageopacity="0.0"
     inkscape:pageshadow="2"
     inkscape:zoom="8.0377972"
     inkscape:cx="36.59214"
     inkscape:cy="26.780521"
     inkscape:document-units="px"
     inkscape:current-layer="layer1"
     showgrid="false"
     units="px"
     borderlayer="true"
     inkscape:showpageshadow="false">
    <sodipodi:guide
       position="8.9999996,38.999975"
       orientation="30.000028,0"
       id="guide3274" />
    <sodipodi:guide
       position="8.9999996,8.9999467"
       orientation="0,30.000001"
       id="guide3276" />
    <sodipodi:guide
       position="39.000001,8.9999467"
       orientation="-30.000028,0"
       id="guide3278" />
    <sodipodi:guide
       position="39.000001,38.999975"
       orientation="0,-30.000001"
       id="guide3280" />
    <sodipodi:guide
       position="3.9999989,44.000052"
       orientation="39.999965,0"
       id="guide3284" />
    <sodipodi:guide
       position="3.9999989,4.0000862"
       orientation="0,40.000001"
       id="guide3286" />
    <sodipodi:guide
       position="44,4.0000862"
       orientation="-39.999965,0"
       id="guide3288" />
    <sodipodi:guide
       position="44,44.000052"
       orientation="0,-40.000001"
       id="guide3290" />
  </sodipodi:namedview>
  <metadata
     id="metadata7">
    <rdf:RDF>
      <cc:Work
         rdf:about="">
        <dc:format>image/svg+xml</dc:format>
        <dc:type
           rdf:resource="http://purl.org/dc/dcmitype/StillImage" />
        <dc:title />
      </cc:Work>
    </rdf:RDF>
  </metadata>
  <g
     inkscape:label="Capa 1"
     inkscape:groupmode="layer"
     id="layer1"
     transform="translate(0,-283.45334)">
    <circle
       style="fill:none;stroke:none"
       id="path3262"
       cx="0.56444448"
       cy="290.35141"
       r="0.56444448"
       d="M 1.128889,290.35141 A 0.56444448,0.56444448 0 0 1 0.56444448,290.91585 0.56444448,0.56444448 0 0 1 0,290.35141 0.56444448,0.56444448 0 0 1 0.56444448,289.78697 0.56444448,0.56444448 0 0 1 1.128889,290.35141 Z" />
    <circle
       r="0.56444448"
       cy="290.35141"
       cx="12.982223"
       id="circle3264"
       style="fill:none;stroke:none"
       d="m 13.546667,290.35141 a 0.56444448,0.56444448 0 0 1 -0.564444,0.56444 0.56444448,0.56444448 0 0 1 -0.564445,-0.56444 0.56444448,0.56444448 0 0 1 0.564445,-0.56444 0.56444448,0.56444448 0 0 1 0.564444,0.56444 z" />
    <circle
       r="0.56444448"
       cy="-6.7910199"
       cx="284.01779"
       id="circle3266"
       style="fill:none;stroke:none"
       transform="matrix(0,1,-1,0,0,0)"
       d="m 284.58224,-6.7910199 a 0.56444448,0.56444448 0 0 1 -0.56445,0.5644445 0.56444448,0.56444448 0 0 1 -0.56444,-0.5644445 0.56444448,0.56444448 0 0 1 0.56444,-0.5644445 0.56444448,0.56444448 0 0 1 0.56445,0.5644445 z" />
    <circle
       style="fill:none;stroke:none"
       id="circle3268"
       cx="296.43558"
       cy="-6.7910199"
       r="0.56444448"
       transform="matrix(0,1,-1,0,0,0)"
       d="m 297.00002,-6.7910199 a 0.56444448,0.56444448 0 0 1 -0.56444,0.5644445 0.56444448,0.56444448 0 0 1 -0.56445,-0.5644445 0.56444448,0.56444448 0 0 1 0.56445,-0.5644445 0.56444448,0.56444448 0 0 1 0.56444,0.5644445 z" />
    <rect
       style="fill:#9b59b6;fill-opacity:1;fill-rule:evenodd;stroke:none"
       id="rect3270"
       width="11.28889"
       height="11.28889"
       x="1.1288886"
       y="284.58221"
       ry="5.6444449" />
    <rect
       style="fill:none;stroke:none"
       id="rect3260"
       width="8.4666672"
       height="8.4666672"
       x="2.5406842"
       y="285.99335"
       ry="0" />
    <rect
       ry="0"
       y="290.22668"
       x="3.6695733"
       height="4.2333336"
       width="6.208889"
       id="rect3272"
       style="fill:#ffffff;fill-opacity:1;fill-rule:evenodd;stroke:none" />
    <ellipse
       ry="0.98780823"
       rx="0.98846221"
       cy="290.22668"
       cx="3.5277772"
       id="path3282"
       style="fill:none;stroke:none" />
    <ellipse
       ry="0.56446183"
       rx="0.56483555"
       cy="290.22668"
       cx="3.1047368"
       style="fill:none;stroke:none"
       id="path3274" />
    <ellipse
       ry="0.98780823"
       rx="0.98846221"
       cy="290.22668"
       cx="10.018889"
       style="fill:none;stroke:none"
       id="path3280" />
    <ellipse
       ry="0.56446183"
       rx="0.56483555"
       cy="290.22668"
       cx="10.442515"
       id="path3276"
       style="fill:none;stroke:none" />
    <path
       inkscape:connector-curvature="0"
       style="fill:#ffffff;fill-opacity:1;fill-rule:evenodd;stroke:none"
       d="m 6.632906,285.99336 c -1.172633,0 -2.116666,0.94403 -2.116666,2.11667 l 0,2.11666 1.128889,0 0,-1.97004 5.64e-4,0 c -2.2e-5,-0.002 -5.64e-4,-0.004 -5.64e-4,-0.006 0,-0.62541 0.503485,-1.12889 1.128889,-1.12889 0.625403,0 1.128888,0.50348 1.128888,1.12889 0,0.002 -5.36e-4,0.004 -5.64e-4,0.006 l 5.64e-4,0 0,1.97004 1.128889,0 0,-2.11666 c 0,-1.17264 -0.944033,-2.11667 -2.116666,-2.11667 l -0.282223,0 z"
       id="rect3278" />
    <ellipse
       ry="0.56446183"
       rx="0.56483555"
       cy="286.55777"
       cx="6.7736249"
       style="fill:none;stroke:none"
       id="path3286" />
  </g>
</svg>
