<?xml version="1.0" standalone="no"?>
<!DOCTYPE svg PUBLIC "-//W3C//DTD SVG 20010904//EN" "http://www.w3.org/TR/2001/REC-SVG-20010904/DTD/svg10.dtd">
<!-- Created using Karbon, part of Calligra: http://www.calligra.org/karbon -->
<svg xmlns="http://www.w3.org/2000/svg" xmlns:xlink="http://www.w3.org/1999/xlink" width="38.4pt" height="38.4pt">
<defs/>
<g id="layer1">
  <path id="shape0" transform="translate(4.00382, 4.00369)" fill="#34495e" fill-rule="evenodd" stroke="#003bc3" stroke-width="0.00000000000" stroke-linecap="square" stroke-linejoin="miter" stroke-miterlimit="2.01260185242" d="M39.9802 19.0241C39.4446 8.08583 30.2124 -0.388014 19.2684 0.0137125C8.32437 0.415439 -0.261751 9.54336 0.00609995 20.4915C0.273951 31.4396 9.29618 40.1367 20.2467 40.0028C31.1973 39.8688 40.0041 30.9536 40.0041 20.0023"/>
  <g id="g846" transform="translate(20.1699, 8.9572)" fill="none">
   <path id="path829" transform="translate(1.17206, 3.25546)" fill="#f1cb6d" d="M2.70935 19.5219C4.11959 19.5219 5.26276 20.627 5.26276 21.9906C5.26276 23.3544 4.11959 24.4594 2.70935 24.4594C1.29918 24.4594 0.155988 23.3544 0.155988 21.9906C0.155988 20.627 1.29918 19.5219 2.70935 19.5219ZM4.86132 17.6157L0.745422 17.6407L0 0.21205C1.79741 -0.0724059 3.59483 -0.0444153 5.39223 0.141339Z"/>
  </g>
 </g>
</svg>
