<?xml version="1.0" standalone="no"?>
<!DOCTYPE svg PUBLIC "-//W3C//DTD SVG 20010904//EN" "http://www.w3.org/TR/2001/REC-SVG-20010904/DTD/svg10.dtd">
<!-- Created using Karbon, part of Calligra: http://www.calligra.org/karbon -->
<svg xmlns="http://www.w3.org/2000/svg" xmlns:xlink="http://www.w3.org/1999/xlink" width="38.4pt" height="38.4pt">
<defs/>
<g id="layer1">
  <rect id="shape0" transform="translate(3.03797, 3.15949)" fill="#f2f2f2" fill-rule="evenodd" stroke="#003bc3" stroke-width="0.00000000000" stroke-linecap="square" stroke-linejoin="miter" stroke-miterlimit="2.01260185242" width="34.12253164557pt" height="33.15037974684pt"/>
  <path id="shape1" transform="translate(26.952, 4.38509)" fill="#ff4c91" fill-rule="evenodd" stroke="#003bc3" stroke-width="0.00000000000" stroke-linecap="square" stroke-linejoin="miter" stroke-miterlimit="2.01260185242" d="M17.7141 8.64797C17.5983 3.77757 13.5715 -0.0853322 8.7005 0.00143346C3.82952 0.0881992 -0.0572078 4.09207 0.000637374 8.96349C0.0584826 13.8349 4.03919 17.7454 8.91085 17.7164C13.7825 17.6875 17.7166 13.73 17.7166 8.85832"/>
  <path id="shape2" transform="translate(4.30429, 4.42862)" fill="#52beea" fill-rule="evenodd" stroke="#003bc3" stroke-width="0.00000000000" stroke-linecap="square" stroke-linejoin="miter" stroke-miterlimit="2.00000000000" d="M17.7141 8.64797C17.5983 3.77757 13.5715 -0.0853322 8.7005 0.00143346C3.82952 0.0881992 -0.0572078 4.09207 0.000637374 8.96349C0.0584826 13.8349 4.03919 17.7454 8.91085 17.7164C13.7825 17.6875 17.7166 13.73 17.7166 8.85832"/>
  <path id="shape3" transform="translate(4.16379, 25.641)" fill="#88c941" fill-rule="evenodd" stroke="#003bc3" stroke-width="0.00000000000" stroke-linecap="square" stroke-linejoin="miter" stroke-miterlimit="2.00000000000" d="M17.7141 8.64797C17.5983 3.77757 13.5715 -0.0853322 8.7005 0.00143346C3.82952 0.0881992 -0.0572078 4.09207 0.000637374 8.96349C0.0584826 13.8349 4.03919 17.7454 8.91085 17.7164C13.7825 17.6875 17.7166 13.73 17.7166 8.85832"/>
  <path id="shape4" transform="translate(26.8833, 25.641)" fill="#f1cb6d" fill-rule="evenodd" stroke="#003bc3" stroke-width="0.00000000000" stroke-linecap="square" stroke-linejoin="miter" stroke-miterlimit="2.00000000000" d="M17.7141 8.64797C17.5983 3.77757 13.5715 -0.0853322 8.7005 0.00143346C3.82952 0.0881992 -0.0572078 4.09207 0.000637374 8.96349C0.0584826 13.8349 4.03919 17.7454 8.91085 17.7164C13.7825 17.6875 17.7166 13.73 17.7166 8.85832"/>
 </g>
</svg>
