<?xml version="1.0" standalone="no"?>
<!DOCTYPE svg PUBLIC "-//W3C//DTD SVG 20010904//EN" "http://www.w3.org/TR/2001/REC-SVG-20010904/DTD/svg10.dtd">
<!-- Created using Karbon, part of Calligra: http://www.calligra.org/karbon -->
<svg xmlns="http://www.w3.org/2000/svg" xmlns:xlink="http://www.w3.org/1999/xlink" width="38.4pt" height="38.4pt">
<defs/>
<g id="layer1">
  <path id="shape0" transform="translate(7.04039, 27.3229)" fill="#4d4d4d" fill-rule="evenodd" stroke="#ae8566" stroke-width="0.00000000000" stroke-linecap="square" stroke-linejoin="bevel" d="M2.19129 20.6467L30.8447 20.6771C36.1636 6.76137 31.353 -0.130383 16.413 0.00186755C1.4729 0.134118 -3.26766 7.01574 2.19129 20.6467Z"/>
  <path id="shape01" transform="translate(12.3334, 5.96732)" fill="#f3dfc6" fill-rule="evenodd" stroke="#003bc3" stroke-width="0.00000000000" stroke-linecap="square" stroke-linejoin="miter" stroke-miterlimit="2.01260185242" d="M4.70941 0C0.757871 3.20821 -0.938276 8.98752 0.513889 14.2955C1.96605 19.6034 6.23347 23.2226 11.0696 23.2477C15.9057 23.2729 20.2013 19.6981 21.6951 14.4054C23.1888 9.11283 21.5381 3.31613 17.6119 0.0670101"/>
  <path id="shape2" transform="translate(12.2005, 12.054)" fill="#de6143" d="M21.7803 4.18169C21.6697 3.07463 21.1571 2.01788 20.3279 1.24293C19.4685 0.442827 18.3529 0 17.1769 0C15.0914 0 13.2923 1.3788 12.7294 3.37152C12.3777 3.01927 11.7997 2.78276 11.257 2.78276C10.7142 2.78276 10.1363 3.01927 9.78453 3.37152C9.22168 1.3788 7.42257 0 5.33702 0C4.16609 0 3.04542 0.437795 2.18607 1.2379C1.35687 2.01788 0.844274 3.07463 0.733714 4.18169L0 4.18169L0 5.08748L0.733714 5.08748C0.844274 6.19454 1.35687 7.25129 2.18607 8.02624C3.04542 8.82634 4.16106 9.26917 5.33702 9.26917C7.88994 9.26917 9.96544 7.19594 9.96544 4.63962C9.96544 4.63459 9.96544 4.63459 9.96544 4.63459L9.96544 4.63459C9.96544 4.13641 10.5434 3.54765 11.257 3.54765C11.9706 3.54765 12.5485 4.13641 12.5485 4.63459L12.5485 4.63459C12.5485 4.63459 12.5485 4.63459 12.5485 4.63962C12.5485 7.19594 14.624 9.26917 17.1769 9.26917C18.3479 9.26917 19.4685 8.83138 20.3279 8.02624C21.1571 7.25129 21.6697 6.18951 21.7803 5.08244L22.514 5.08244L22.514 4.17666L21.7803 4.17666ZM17.1769 8.50932C15.0411 8.50932 13.3074 6.76821 13.3074 4.63459C13.3074 2.49593 15.0462 0.759851 17.1769 0.759851C19.3128 0.759851 21.0465 2.50097 21.0465 4.63459C21.0465 6.77324 19.3128 8.50932 17.1769 8.50932ZM5.33702 8.50932C3.2012 8.50932 1.46743 6.76821 1.46743 4.63459C1.46743 2.49593 3.20623 0.759851 5.33702 0.759851C7.47283 0.759851 9.2066 2.50097 9.2066 4.63459C9.2066 6.77324 7.47283 8.50932 5.33702 8.50932Z"/>
  <path id="shape1" transform="matrix(-1 0 0 -1 33.8928 12.0921)" fill="#8e7e6d" fill-rule="evenodd" stroke="#003bc3" stroke-width="0.00000000000" stroke-linecap="square" stroke-linejoin="miter" stroke-miterlimit="2.00000000000" d="M0 0.3201C1.79862 6.01008 5.3595 8.8809 10.6826 8.93257C16.0058 8.98424 19.4893 6.02728 21.1333 0.0616876C15.8166 -0.189305 10.5595 0.180139 6.36871 3.9503C4.80629 2.17975 3.29671 0.356359 0 0.3201Z"/>
  <path id="shape3" transform="translate(28.2931, 15.7441)" fill="#4d4d4d" fill-rule="evenodd" stroke="#003bc3" stroke-width="0.00000000000" stroke-linecap="square" stroke-linejoin="miter" stroke-miterlimit="2.00000000000" d="M2.30886 1.15443C2.30886 0.516856 1.792 3.90402e-17 1.15443 0C0.516856 -3.90402e-17 7.80803e-17 0.516856 0 1.15443C-7.80803e-17 1.792 0.516856 2.30886 1.15443 2.30886C1.792 2.30886 2.30886 1.792 2.30886 1.15443"/>
  <path id="shape4" transform="translate(21.3769, 24.7212)" fill="none" stroke="#ae8566" stroke-width="1.24015962875" stroke-linecap="round" stroke-linejoin="bevel" d="M0 0C1.04705 1.02142 2.90757 1.07793 4.07089 0.0607595"/>
  <path id="shape5" transform="translate(16.5035, 15.7732)" fill="#4d4d4d" fill-rule="evenodd" stroke="#003bc3" stroke-width="0.00000000000" stroke-linecap="square" stroke-linejoin="miter" stroke-miterlimit="2.00000000000" d="M2.30886 1.15443C2.30886 0.516856 1.792 3.90402e-17 1.15443 0C0.516856 -3.90402e-17 7.80803e-17 0.516856 0 1.15443C-7.80803e-17 1.792 0.516856 2.30886 1.15443 2.30886C1.792 2.30886 2.30886 1.792 2.30886 1.15443"/>
 </g>
</svg>
