<svg xmlns="http://www.w3.org/2000/svg" width="48" height="48" viewBox="0 0 13.546666 13.546668">
 <g transform="translate(38.119153,-397.84494)">
  <rect width="11.289" height="11.289" x="-36.99" y="398.97" style="fill:#9b59b6" rx="5.644"/>
  <path d="M 17.5 15 C 16.115 15 15 16.115 15 17.5 C 15 18.71386 15.855928 19.719022 17 19.949219 L 17 28.050781 C 15.855928 28.280978 15 29.28614 15 30.5 C 15 31.885 16.115 33 17.5 33 C 18.885 33 20 31.885 20 30.5 C 20 29.924906 19.800555 29.401962 19.476562 28.980469 L 29.113281 19.582031 C 29.509599 19.845737 29.986254 20 30.5 20 C 31.885 20 33 18.885 33 17.5 C 33 16.115 31.885 15 30.5 15 C 29.115 15 28 16.115 28 17.5 C 28 18.007502 28.15231 18.477671 28.410156 18.871094 L 18.716797 28.326172 C 18.494699 28.201964 18.257818 28.102656 18 28.050781 L 18 19.949219 C 19.144072 19.719022 20 18.71386 20 17.5 C 20 16.115 18.885 15 17.5 15 z " transform="matrix(0.28222225,0,0,0.28222225,-38.119154,397.84494)" style="fill:#ecf0f1"/>
 </g>
</svg>
