<?xml version="1.0" standalone="no"?>
<!DOCTYPE svg PUBLIC "-//W3C//DTD SVG 20010904//EN" "http://www.w3.org/TR/2001/REC-SVG-20010904/DTD/svg10.dtd">
<!-- Created using Karbon, part of Calligra: http://www.calligra.org/karbon -->
<svg xmlns="http://www.w3.org/2000/svg" xmlns:xlink="http://www.w3.org/1999/xlink" width="38.4pt" height="38.4pt">
<defs/>
<g id="layer1">
  <rect id="rect9071" transform="translate(5.01346, 9.46517)" fill="#737373" stroke="#00daae" stroke-width="0.35433132250" stroke-linecap="square" stroke-linejoin="miter" stroke-miterlimit="0.00000000000" width="30.88484528485pt" height="23.86555607583pt"/>
  <rect id="rect907" transform="translate(39.7819, 10.7191)" fill="#00daae" width="2.10345926297pt" height="2.26012242922pt"/>
  <rect id="rect9" transform="translate(35.5679, 10.7354)" fill="#00daae" width="2.10345926298pt" height="2.26012242922pt"/>
  <rect id="rect9072" transform="translate(31.3819, 10.7354)" fill="#00daae" width="2.10345926298pt" height="2.26012242922pt"/>
 </g><g id="g3269">
  <path id="path3271" transform="matrix(0.030552 0 0 0.030552 26.0779 21.9468)" fill="#00daae" stroke="#003bc3" stroke-width="0.00000000000" stroke-linecap="butt" stroke-linejoin="miter" stroke-miterlimit="2.01260191180" d="M456.15 241.575L490.56 236.982L494.065 236.929L533.686 249.901L533.686 283.785L494.065 296.757L490.56 296.704L456.15 292.111L443.422 339.613L475.518 352.841L478.581 354.548L506.407 385.592L489.465 414.937L448.666 406.361L445.657 404.562L418.153 383.38L383.38 418.153L404.562 445.657L406.361 448.666L414.937 489.465L385.592 506.407L354.548 478.581L352.841 475.518L339.613 443.422L292.111 456.15L296.704 490.56L296.757 494.065L283.785 533.686L249.901 533.686L236.929 494.065L236.982 490.56L241.575 456.15L194.073 443.422L180.845 475.518L179.138 478.581L148.094 506.407L118.749 489.465L127.325 448.666L129.124 445.657L150.306 418.153L115.533 383.38L88.029 404.562L85.02 406.361L44.221 414.937L27.279 385.592L55.105 354.548L58.168 352.841L90.264 339.613L77.536 292.111L43.126 296.704L39.621 296.757L0 283.785L0 249.901L39.621 236.929L43.126 236.982L77.536 241.575L90.264 194.073L58.168 180.845L55.105 179.138L27.279 148.094L44.221 118.749L85.02 127.325L88.029 129.124C97.197 136.185 106.365 143.245 115.533 150.306L150.306 115.533L129.124 88.029L127.325 85.02L118.749 44.221L148.094 27.279L179.138 55.105L180.845 58.168L194.073 90.264L241.575 77.536L236.982 43.126L236.929 39.621L249.901 0L283.785 0L296.757 39.621L296.704 43.126L292.111 77.536L339.613 90.264L352.841 58.168L354.548 55.105L385.592 27.279L414.937 44.221L406.361 85.02L404.562 88.029L383.38 115.533L418.153 150.306L445.657 129.124L448.666 127.325L489.465 118.749L506.407 148.094L478.581 179.138L475.518 180.845L443.422 194.073Z"/>
  <path id="shape0" transform="translate(30.775, 26.6255)" fill="#737373" fill-rule="evenodd" stroke="#003bc3" stroke-width="0.00000000000" stroke-linecap="square" stroke-linejoin="miter" stroke-miterlimit="2.01260191180" d="M7.08494 3.43385C7.02481 1.48855 5.40692 -0.0441331 3.46121 0.000970448C1.51549 0.046074 -0.0296389 1.65207 0.00043156 3.59808C0.0305021 5.54408 1.62452 7.10158 3.5707 7.08654C5.51687 7.0715 7.08664 5.48957 7.08664 3.54333"/>
 </g>
</svg>
