<?xml version="1.0" standalone="no"?>
<!DOCTYPE svg PUBLIC "-//W3C//DTD SVG 20010904//EN" "http://www.w3.org/TR/2001/REC-SVG-20010904/DTD/svg10.dtd">
<!-- Created using Karbon, part of Calligra: http://www.calligra.org/karbon -->
<svg xmlns="http://www.w3.org/2000/svg" xmlns:xlink="http://www.w3.org/1999/xlink" width="38.4pt" height="38.4pt">
<defs/>
<g id="layer1">
  <path id="shape0" transform="translate(11.8972, 4.42926)" fill="#76bd74" fill-opacity="0.83137254902" fill-rule="evenodd" stroke="#003bc3" stroke-width="0.00000000000" stroke-linecap="square" stroke-linejoin="miter" stroke-miterlimit="2.01260185242" d="M24.4486 11.2006C23.6706 4.3859 17.7953 -0.554148 11.1869 0.0499827C4.57839 0.654113 -0.368135 6.58345 0.0215224 13.4337C0.41118 20.284 5.9958 25.5725 12.6272 25.3709C19.2585 25.1692 24.5332 19.5506 24.5332 12.6886"/>
  <path id="shape1" transform="translate(19.4747, 18.6315)" fill="#52beea" fill-opacity="0.65490196078" fill-rule="evenodd" stroke="#003bc3" stroke-width="0.00000000000" stroke-linecap="square" stroke-linejoin="miter" stroke-miterlimit="2.00000000000" d="M24.4486 11.2006C23.6706 4.3859 17.7953 -0.554148 11.1869 0.0499827C4.57839 0.654113 -0.368135 6.58345 0.0215224 13.4337C0.41118 20.284 5.9958 25.5725 12.6272 25.3709C19.2585 25.1692 24.5332 19.5506 24.5332 12.6886"/>
  <path id="shape2" transform="translate(4.00394, 18.618)" fill="#de6143" fill-opacity="0.67450980392" fill-rule="evenodd" stroke="#003bc3" stroke-width="0.00000000000" stroke-linecap="square" stroke-linejoin="miter" stroke-miterlimit="2.01260185242" d="M24.4486 11.2006C23.6706 4.3859 17.7953 -0.554148 11.1869 0.0499827C4.57839 0.654113 -0.368135 6.58345 0.0215224 13.4337C0.41118 20.284 5.9958 25.5725 12.6272 25.3709C19.2585 25.1692 24.5332 19.5506 24.5332 12.6886"/>
 </g>
</svg>
