<?xml version="1.0" standalone="no"?>
<!DOCTYPE svg PUBLIC "-//W3C//DTD SVG 20010904//EN" "http://www.w3.org/TR/2001/REC-SVG-20010904/DTD/svg10.dtd">
<!-- Created using Karbon, part of Calligra: http://www.calligra.org/karbon -->
<svg xmlns="http://www.w3.org/2000/svg" xmlns:xlink="http://www.w3.org/1999/xlink" width="38.4pt" height="38.4pt">
<defs/>
<g id="layer1">
  <path id="shape0" transform="translate(16.1575, 3.08268)" fill="#4c4c4c" fill-rule="evenodd" stroke="#000000" stroke-opacity="0.18823529412" stroke-width="0.00000000000" stroke-linecap="square" stroke-linejoin="miter" stroke-miterlimit="2.01260191180" d="M8.02025 26.2735L8.02025 39.9947L12.0304 39.9947L12.0304 17.1261L12.0304 26.2735L16.0405 26.2735L16.0405 12.5524L0 12.5524L0 26.2735L4.01013 26.2735L4.01013 17.1261L4.01013 39.9947L8.02025 39.9947ZM7.2767 1.89773L7.39199 0.0197128L8.492 0L8.65895 1.87299L9.37399 2.12386L10.4351 0.681805L11.3352 1.40326L10.505 3.03046L10.9542 3.71277L12.5558 3.25754L12.9122 4.44461L11.402 5.20453L11.4137 6.05763L12.9441 6.76308L12.6206 7.96231L11.0072 7.56467L10.5771 8.26276L11.4516 9.8594L10.5719 10.6128L9.47156 9.20943L8.76381 9.48582L8.64852 11.3638L7.5485 11.3835L7.38156 9.51056L6.66651 9.25969L5.6054 10.7017L4.70532 9.98028L5.5355 8.35309L5.08632 7.67078L3.48466 8.126L3.12832 6.93894L4.63851 6.17901L4.62676 5.32592L3.09638 4.62047L3.41986 3.42124L5.03327 3.81888L5.46344 3.12079L4.58887 1.52415L5.46861 0.770764L6.56895 2.17412Z"/>
 </g>
</svg>
