<?xml version="1.0" standalone="no"?>
<!DOCTYPE svg PUBLIC "-//W3C//DTD SVG 20010904//EN" "http://www.w3.org/TR/2001/REC-SVG-20010904/DTD/svg10.dtd">
<!-- Created using Karbon, part of Calligra: http://www.calligra.org/karbon -->
<svg xmlns="http://www.w3.org/2000/svg" xmlns:xlink="http://www.w3.org/1999/xlink" width="38.4pt" height="38.4pt">
<defs/>
<g id="layer1">
  <path id="shape0" transform="translate(4.00393, 4.00392)" fill="#008eff" fill-rule="evenodd" stroke="#003bc3" stroke-width="0.00000000000" stroke-linecap="square" stroke-linejoin="miter" stroke-miterlimit="2.01260191180" d="M40.0017 19.6994C39.835 8.68338 30.7916 -0.123711 19.775 0.00131484C8.75847 0.126341 -0.082767 9.13641 0.000584538 20.1534C0.0839361 31.1703 9.06049 40.0456 20.0777 40.0039C31.0949 39.9622 40.004 31.0193 40.004 20.002"/>
  <path id="path970" transform="matrix(1 0 0 1 1.45455 1.21212)" fill="#c4cbcf" d="M39.4579 0.539952C38.483 0.173598 37.4327 -1.0222e-05 36.3306 4.51501e-10C31.392 4.51501e-10 27.3884 4.02178 27.3884 8.98292C27.3884 9.57652 27.4501 10.1641 27.5595 10.7255L14.5616 23.7827C13.4624 23.4162 12.2856 23.2181 11.0678 23.2181C4.95521 23.2181 0 28.196 0 34.3363C0 36.0415 0.416539 37.6291 1.09945 39.0732L7.64727 32.4956L12.9001 37.7725L6.35235 44.3501C7.78997 45.0362 9.37033 45.4545 11.0678 45.4545C17.1803 45.4545 22.1355 40.4768 22.1355 34.3363C22.1355 33.1042 21.9388 31.933 21.5735 30.8267L34.5715 17.7695C35.1389 17.8829 35.7299 17.9659 36.3306 17.9658C41.2692 17.9658 45.2727 13.944 45.2727 8.98292C45.2727 7.87573 45.0756 6.79616 44.7108 5.81681L40.9972 9.54742L35.7442 4.27057ZM28.3412 12.9836C28.3865 13.0748 28.4152 13.1642 28.4634 13.2536C28.4159 13.1658 28.3859 13.0729 28.3412 12.9836ZM29.0987 14.2352C29.1271 14.2747 29.1429 14.3191 29.1719 14.358C29.1435 14.3199 29.1265 14.2737 29.0987 14.2352ZM16.1008 24.4454C15.8667 24.3255 15.6111 24.2051 15.3678 24.1018C15.6184 24.2082 15.8601 24.3212 16.1008 24.4454ZM20.9628 29.3785C21.0679 29.5892 21.1639 29.7989 21.256 30.0167C21.1653 29.7999 21.0666 29.588 20.9628 29.3785Z"/>
  <path id="rect997" transform="matrix(1 0 0 1 1.45866 1.22747)" fill="#a8b2b8" d="M39.4484 0.540493C38.4734 0.17414 37.4201 0 36.3179 0C31.3793 0 27.3913 4.00618 27.3913 8.96732C27.3913 9.56093 27.4532 10.1502 27.5625 10.7116L14.5517 23.7819C13.4526 23.4154 12.2723 23.2168 11.0544 23.2168C7.99807 23.2168 5.23112 24.4478 3.22826 26.4598C1.22539 28.4718 0 31.2513 0 34.3215C0 36.0267 0.417627 37.619 1.10053 39.0632L7.65489 32.4789L10.2717 35.1077L38.3722 6.87904L35.7554 4.25027Z"/>
 </g>
</svg>
