<svg xmlns="http://www.w3.org/2000/svg" width="48" height="48">
 <rect width="44" height="40" x="2" y="4" style="fill:#bdc3c7"/>
 <path d="m 12,13 0,3 0,27 33,0 0,-27 -20,0 0,-3 z" style="fill:#ecf0f1"/>
 <rect y="16" x="3" height="27" width="8" style="fill:#ecf0f1"/>
 <rect width="4" height="1" x="41" y="5" style="fill:#34495e"/>
 <rect y="12" x="12" height="1" width="13" style="fill:#1abc9c"/>
 <rect y="13" x="25" height="3" width="7" style="fill:#95a5a6"/>
 <path d="m 28.556645,19.280707 c -5.975128,0 -10.819598,4.619088 -10.819598,10.316234 0,5.697071 4.84447,10.316234 10.819598,10.316234 5.975051,0 10.819599,-4.619163 10.819599,-10.316234 0,-5.697146 -4.844548,-10.316234 -10.819599,-10.316234 z m 4.05735,12.895292 0,-1.289529 -2.7049,0 0,2.579059 1.35245,0 -2.7049,2.579058 -2.704899,-2.579058 1.35245,0 0,-2.579059 -2.7049,0 0,1.289529 -2.7049,-2.579058 2.7049,-2.579059 0,1.289529 2.7049,0 0,-2.579058 -1.35245,0 2.704899,-2.579059 2.7049,2.579059 -1.35245,0 0,2.579058 2.7049,0 0,-1.289529 2.704899,2.579059 z" style="fill:#1abc9c"/>
</svg>
