<svg xmlns="http://www.w3.org/2000/svg" width="48" height="48" viewBox="0 0 13.546666 13.546668">
 <g transform="translate(38.119153,-397.84494)">
  <rect width="11.289" height="11.289" x="-36.99" y="398.97" style="fill:#2c3e50" rx="5.644"/>
  <path d="m -31.346541,402.07822 c -0.70936,4e-5 -1.354008,0.64548 -1.354008,1.35472 0,0.31384 0.126461,0.61512 0.32874,0.85354 l 0,0.18026 c -0.285847,0.12621 -0.550023,0.30189 -0.770931,0.52293 -0.469885,0.47023 -0.743144,1.13122 -0.743144,1.79618 l 0,0.37239 0.03147,0 0.455086,0 0.229857,0 0.976975,0 0.338667,0 1.016005,0 0.33866,0 0.976975,0 0.229859,0 0.455079,0 0.03148,0 0,-0.37239 c 0,-0.66503 -0.273982,-1.32594 -0.744474,-1.79618 -0.22076,-0.22069 -0.484514,-0.3961 -0.769938,-0.52223 l 0,-0.18121 c 0.202374,-0.23846 0.329078,-0.53958 0.329079,-0.85329 0,-0.70933 -0.645981,-1.35477 -1.355333,-1.35472 z m 3.19e-4,0.67736 c 0.354669,-2e-5 0.677662,0.3227 0.677662,0.67736 0,0.23381 -0.141374,0.45176 -0.338667,0.5744 0,0.6797 -0.06773,0.67981 0.527515,1.13218 0.165572,0.0862 0.318264,0.1969 0.450448,0.32905 0.272678,0.27246 0.453609,0.63263 0.518254,1.01231 l -0.98822,0 0,-0.50796 -0.338661,0 0,0.50796 -1.016005,0 0,-0.50796 -0.338661,0 0,0.50796 -0.98822,0 c 0.06447,-0.37967 0.244931,-0.73985 0.517257,-1.01231 0.132256,-0.1324 0.28505,-0.24333 0.450788,-0.32975 0.603154,-0.4519 0.528166,-0.45178 0.528166,-1.13148 -0.197232,-0.12262 -0.33866,-0.34051 -0.33866,-0.5744 0,-0.35462 0.322324,-0.67734 0.677004,-0.67736 z" style="fill:#ecf0f1" fill-rule="evenodd"/>
 </g>
</svg>
