<?xml version="1.0" standalone="no"?>
<!DOCTYPE svg PUBLIC "-//W3C//DTD SVG 20010904//EN" "http://www.w3.org/TR/2001/REC-SVG-20010904/DTD/svg10.dtd">
<!-- Created using Karbon, part of Calligra: http://www.calligra.org/karbon -->
<svg xmlns="http://www.w3.org/2000/svg" xmlns:xlink="http://www.w3.org/1999/xlink" width="38.4pt" height="38.4pt">
<defs/>
<g id="layer1">
  <rect id="shape0" transform="matrix(0 1 -1 0 25.6709 12.2278)" fill="#4d4d4d" fill-rule="evenodd" stroke="#003bc3" stroke-width="0.00000000000" stroke-linecap="square" stroke-linejoin="miter" stroke-miterlimit="2.00000000000" width="11.31341772152pt" height="1.60405063291pt"/>
  <rect id="shape0" transform="translate(14.9437, 24.6378)" fill="#34495e" fill-rule="evenodd" stroke="#003bc3" stroke-width="0.00000000000" stroke-linecap="square" stroke-linejoin="miter" stroke-miterlimit="2.01260185242" width="14.87640809709pt" height="17.27132499546pt"/>
  <path id="shape3" transform="translate(31.7369, 25.2021)" fill="#f2f2f2" fill-rule="evenodd" stroke="#4c4c4c" stroke-width="0.00000000000" stroke-linecap="square" stroke-linejoin="miter" stroke-miterlimit="2.01260185242" d="M1.32608 0.560866C1.26892 0.207317 0.942869 -0.0380716 0.587315 0.00487463C0.231756 0.0478208 -0.0264964 0.363785 0.00217271 0.720777C0.0308418 1.07777 0.336208 1.34847 0.694063 1.33412C1.05191 1.31978 1.33463 1.0255 1.33463 0.667359"/>
  <path id="shape4" transform="translate(15.4067, 25.2135)" fill="#f2f2f2" fill-rule="evenodd" stroke="#4c4c4c" stroke-width="0.00000000000" stroke-linecap="square" stroke-linejoin="miter" stroke-miterlimit="2.00000000000" d="M1.32608 0.560866C1.26892 0.207317 0.942869 -0.0380716 0.587315 0.00487463C0.231756 0.0478208 -0.0264964 0.363785 0.00217271 0.720777C0.0308418 1.07777 0.336208 1.34847 0.694063 1.33412C1.05191 1.31978 1.33463 1.0255 1.33463 0.667359"/>
  <path id="shape5" transform="translate(15.342, 44.4254)" fill="#f2f2f2" fill-rule="evenodd" stroke="#4c4c4c" stroke-width="0.00000000000" stroke-linecap="square" stroke-linejoin="miter" stroke-miterlimit="2.00000000000" d="M1.32608 0.560866C1.26892 0.207317 0.942869 -0.0380716 0.587315 0.00487463C0.231756 0.0478208 -0.0264964 0.363785 0.00217271 0.720777C0.0308418 1.07777 0.336208 1.34847 0.694063 1.33412C1.05191 1.31978 1.33463 1.0255 1.33463 0.667359"/>
  <path id="shape6" transform="translate(31.8803, 44.5225)" fill="#f2f2f2" fill-rule="evenodd" stroke="#4c4c4c" stroke-width="0.00000000000" stroke-linecap="square" stroke-linejoin="miter" stroke-miterlimit="2.00000000000" d="M1.32608 0.560866C1.26892 0.207317 0.942869 -0.0380716 0.587315 0.00487463C0.231756 0.0478208 -0.0264964 0.363785 0.00217271 0.720777C0.0308418 1.07777 0.336208 1.34847 0.694063 1.33412C1.05191 1.31978 1.33463 1.0255 1.33463 0.667359"/>
  <path id="shape7" transform="translate(28.5657, 41.3556)" fill="#34495e" fill-rule="evenodd" stroke="#4c4c4c" stroke-width="0.00000000000" stroke-linecap="square" stroke-linejoin="miter" stroke-miterlimit="2.00000000000" d="M2.38216 0.990669C2.27949 0.366186 1.69377 -0.0672463 1.05505 0.00861013C0.416326 0.0844666 -0.0475981 0.642557 0.00390305 1.27312C0.0554043 1.90368 0.603963 2.38182 1.24681 2.35648C1.88966 2.33114 2.39753 1.81136 2.39753 1.17877"/>
  <rect id="shape1" transform="translate(7.95949, 18.7747)" fill="#4d4d4d" fill-rule="evenodd" stroke="#003bc3" stroke-width="0.00000000000" stroke-linecap="square" stroke-linejoin="miter" stroke-miterlimit="2.01260191180" width="26.39392405063pt" height="1.60405063291pt"/>
  <rect id="shape2" transform="matrix(0 1 -1 0 9.93418 12.2734)" fill="#4d4d4d" fill-rule="evenodd" stroke="#003bc3" stroke-width="0.00000000000" stroke-linecap="square" stroke-linejoin="miter" stroke-miterlimit="2.00000000000" width="6.78075949367pt" height="1.60405063291pt"/>
  <rect id="shape3" transform="matrix(0 1 -1 0 40.9215 12.2278)" fill="#4d4d4d" fill-rule="evenodd" stroke="#003bc3" stroke-width="0.00000000000" stroke-linecap="square" stroke-linejoin="miter" stroke-miterlimit="2.00000000000" width="6.78075949367pt" height="1.60405063291pt"/>
  <path id="shape4" transform="translate(3.46314, 2.2478)" fill="#2980b9" fill-rule="evenodd" stroke="#003bc3" stroke-width="0.00000000000" stroke-linecap="square" stroke-linejoin="miter" stroke-miterlimit="2.01260191180" d="M10.9664 4.95459C10.6722 1.98636 8.06432 -0.20551 5.08973 0.0153196C2.11514 0.236149 -0.140474 2.78908 0.00682097 5.76822C0.154116 8.74735 2.65056 11.0653 5.63242 10.9917C8.61429 10.918 10.9932 8.47956 10.9932 5.49679"/>
  <path id="shape5" transform="translate(19.0819, 2.22382)" fill="#2980b9" fill-rule="evenodd" stroke="#003bc3" stroke-width="0.00000000000" stroke-linecap="square" stroke-linejoin="miter" stroke-miterlimit="2.00000000000" d="M10.9664 4.95459C10.6722 1.98636 8.06432 -0.20551 5.08973 0.0153196C2.11514 0.236149 -0.140474 2.78908 0.00682097 5.76822C0.154116 8.74735 2.65056 11.0653 5.63242 10.9917C8.61429 10.918 10.9932 8.47956 10.9932 5.49679"/>
  <path id="shape6" transform="translate(34.6372, 2.24368)" fill="#2980b9" fill-rule="evenodd" stroke="#003bc3" stroke-width="0.00000000000" stroke-linecap="square" stroke-linejoin="miter" stroke-miterlimit="2.00000000000" d="M10.9664 4.95459C10.6722 1.98636 8.06432 -0.20551 5.08973 0.0153196C2.11514 0.236149 -0.140474 2.78908 0.00682097 5.76822C0.154116 8.74735 2.65056 11.0653 5.63242 10.9917C8.61429 10.918 10.9932 8.47956 10.9932 5.49679"/>
 </g>
</svg>
