<?xml version="1.0" encoding="UTF-8" standalone="no"?>
<!-- Created with Inkscape (http://www.inkscape.org/) -->

<svg
   xmlns:dc="http://purl.org/dc/elements/1.1/"
   xmlns:cc="http://creativecommons.org/ns#"
   xmlns:rdf="http://www.w3.org/1999/02/22-rdf-syntax-ns#"
   xmlns:svg="http://www.w3.org/2000/svg"
   xmlns="http://www.w3.org/2000/svg"
   xmlns:sodipodi="http://sodipodi.sourceforge.net/DTD/sodipodi-0.dtd"
   xmlns:inkscape="http://www.inkscape.org/namespaces/inkscape"
   width="48"
   height="48"
   id="svg2"
   version="1.1"
   inkscape:version="0.48+devel r12691"
   viewBox="0 0 13.546667 13.546667"
   sodipodi:docname="preferences-desktop-screensaver.svg">
  <defs
     id="defs4" />
  <sodipodi:namedview
     id="base"
     pagecolor="#ffffff"
     bordercolor="#666666"
     borderopacity="1.0"
     inkscape:pageopacity="0.0"
     inkscape:pageshadow="2"
     inkscape:zoom="8.221169"
     inkscape:cx="15.130959"
     inkscape:cy="30.687179"
     inkscape:document-units="px"
     inkscape:current-layer="layer1"
     showgrid="false"
     units="px"
     borderlayer="true"
     inkscape:showpageshadow="false">
    <sodipodi:guide
       position="8.9999996,38.999975"
       orientation="30.000028,0"
       id="guide3274" />
    <sodipodi:guide
       position="8.9999996,8.9999467"
       orientation="0,30.000001"
       id="guide3276" />
    <sodipodi:guide
       position="39.000001,8.9999467"
       orientation="-30.000028,0"
       id="guide3278" />
    <sodipodi:guide
       position="39.000001,38.999975"
       orientation="0,-30.000001"
       id="guide3280" />
    <sodipodi:guide
       position="3.9999989,44.000052"
       orientation="39.999965,0"
       id="guide3284" />
    <sodipodi:guide
       position="3.9999989,4.0000862"
       orientation="0,40.000001"
       id="guide3286" />
    <sodipodi:guide
       position="44,4.0000862"
       orientation="-39.999965,0"
       id="guide3288" />
    <sodipodi:guide
       position="44,44.000052"
       orientation="0,-40.000001"
       id="guide3290" />
  </sodipodi:namedview>
  <metadata
     id="metadata7">
    <rdf:RDF>
      <cc:Work
         rdf:about="">
        <dc:format>image/svg+xml</dc:format>
        <dc:type
           rdf:resource="http://purl.org/dc/dcmitype/StillImage" />
        <dc:title />
      </cc:Work>
    </rdf:RDF>
  </metadata>
  <g
     inkscape:label="Capa 1"
     inkscape:groupmode="layer"
     id="layer1"
     transform="translate(0,-283.45334)">
    <circle
       r="0.56444448"
       cy="-6.7910199"
       cx="284.01779"
       id="circle3266"
       style="fill:none;stroke:none"
       transform="matrix(0,1,-1,0,0,0)"
       d="m 284.58224,-6.7910199 a 0.56444448,0.56444448 0 0 1 -0.56445,0.5644445 0.56444448,0.56444448 0 0 1 -0.56444,-0.5644445 0.56444448,0.56444448 0 0 1 0.56444,-0.5644445 0.56444448,0.56444448 0 0 1 0.56445,0.5644445 z" />
    <circle
       style="fill:none;stroke:none"
       id="circle3268"
       cx="296.43558"
       cy="-6.7910199"
       r="0.56444448"
       transform="matrix(0,1,-1,0,0,0)"
       d="m 297.00002,-6.7910199 a 0.56444448,0.56444448 0 0 1 -0.56444,0.5644445 0.56444448,0.56444448 0 0 1 -0.56445,-0.5644445 0.56444448,0.56444448 0 0 1 0.56445,-0.5644445 0.56444448,0.56444448 0 0 1 0.56444,0.5644445 z" />
    <rect
       style="fill:#34495e;fill-opacity:1;fill-rule:evenodd;stroke:none"
       id="rect3270"
       width="8.4666672"
       height="8.4666672"
       x="2.54"
       y="285.99335"
       ry="4.2333336" />
    <path
       style="fill:#ecf0f1;fill-opacity:1;fill-rule:evenodd;stroke:none"
       d="M 24 12 L 24 36 C 30.648 36 36 30.648 36 24 C 36 17.352 30.648 12 24 12 z "
       transform="matrix(0.28222223,0,0,0.28222223,0,283.45334)"
       id="rect3280" />
    <circle
       transform="scale(-1,-1)"
       style="fill:none;stroke:none"
       id="circle3285"
       cx="-12.999912"
       cy="-290.22668"
       r="0.56444448" />
    <circle
       transform="scale(-1,-1)"
       r="0.56444448"
       cy="-290.22668"
       cx="-0.58212709"
       id="circle3287"
       style="fill:none;stroke:none" />
    <rect
       style="fill:#34495e;fill-opacity:1;fill-rule:evenodd;stroke:none"
       id="rect3289"
       width="0.56444448"
       height="1.4111328"
       x="6.5087976"
       y="284.58224"
       ry="0.28222224" />
    <rect
       ry="0.28222224"
       y="294.46002"
       x="6.5087976"
       height="1.4111328"
       width="0.56444448"
       id="rect3291"
       style="fill:#34495e;fill-opacity:1;fill-rule:evenodd;stroke:none" />
    <rect
       ry="0.28222224"
       y="194.77484"
       x="209.74103"
       height="1.4111328"
       width="0.56444448"
       id="rect3293"
       style="fill:#34495e;fill-opacity:1;fill-rule:evenodd;stroke:none"
       transform="matrix(0.70710678,0.70710678,-0.70710678,0.70710678,0,0)" />
    <rect
       style="fill:#34495e;fill-opacity:1;fill-rule:evenodd;stroke:none"
       id="rect3295"
       width="0.56444448"
       height="1.4111328"
       x="209.74103"
       y="204.65262"
       ry="0.28222224"
       transform="matrix(0.70710678,0.70710678,-0.70710678,0.70710678,0,0)" />
    <rect
       transform="matrix(0.70710678,-0.70710678,-0.70710678,-0.70710678,0,0)"
       style="fill:#34495e;fill-opacity:1;fill-rule:evenodd;stroke:none"
       id="rect3297"
       width="0.56444448"
       height="1.4111328"
       x="-200.70152"
       y="-215.66771"
       ry="0.28222224" />
    <rect
       transform="matrix(0.70710678,-0.70710678,-0.70710678,-0.70710678,0,0)"
       ry="0.28222224"
       y="-205.78993"
       x="-200.70152"
       height="1.4111328"
       width="0.56444448"
       id="rect3299"
       style="fill:#34495e;fill-opacity:1;fill-rule:evenodd;stroke:none" />
    <rect
       ry="0.28222224"
       y="-12.435475"
       x="-290.50894"
       height="1.4111328"
       width="0.56444448"
       id="rect3301"
       style="fill:#34495e;fill-opacity:1;fill-rule:evenodd;stroke:none"
       transform="matrix(0,-1,-1,0,0,0)" />
    <rect
       style="fill:#34495e;fill-opacity:1;fill-rule:evenodd;stroke:none"
       id="rect3303"
       width="0.56444448"
       height="1.4111328"
       x="-290.50894"
       y="-2.5576987"
       ry="0.28222224"
       transform="matrix(0,-1,-1,0,0,0)" />
  </g>
</svg>
