<svg xmlns="http://www.w3.org/2000/svg" width="48" height="48" viewBox="0 0 13.546666 13.546668">
 <g transform="translate(38.119153,-397.84494)">
  <rect width="11.289" height="11.289" x="-36.99" y="398.97" style="fill:#3498db" rx="5.644"/>
  <path d="M 23 15 C 22.169001 15 21.5 15.669001 21.5 16.5 C 21.5 17.330999 22.169001 18 23 18 C 23.830999 18 24.5 17.330999 24.5 16.5 C 24.5 15.669001 23.830999 15 23 15 z M 21.5 18.699219 L 21.134766 20.845703 L 21.076172 20.820312 L 20.861328 22.251953 L 20.894531 22.261719 L 20.599609 24 C 20.411077 25.256917 20.239979 26.400391 21.5 26.400391 L 27.5 26 L 30.132812 31.265625 L 31 31 L 29.574219 26.007812 C 29.124311 24.433202 29.000002 24 27.5 24 L 27.384766 24 L 23.556641 24 L 23.550781 22.972656 L 27.384766 24 L 27.5 23.570312 L 23.544922 21.876953 L 23.529297 19 L 21.5 18.699219 z M 20 21.691406 C 18.094831 22.694522 16.800781 24.689212 16.800781 27 C 16.800781 30.323999 19.476782 33 22.800781 33 C 24.656532 33 26.309291 32.16486 27.408203 30.849609 L 26.402344 30.462891 C 25.493766 31.407965 24.221363 32 22.800781 32 C 20.030782 32 17.800781 29.769999 17.800781 27 C 17.800781 25.269743 18.671698 23.750494 20 22.853516 L 20 21.691406 z " transform="matrix(0.28222225,0,0,0.28222225,-38.119154,397.84494)" style="fill:#ecf0f1"/>
 </g>
</svg>
