<svg xmlns="http://www.w3.org/2000/svg" width="48" height="48" viewBox="0 0 13.546666 13.546668">
 <g transform="translate(38.119153,-397.84494)">
  <rect width="11.289" height="11.289" x="-36.99" y="398.97" style="fill:#bdc3c7"/>
  <rect width="9.596" height="9.596" x="-36.14" y="400.1" style="fill:#95a5a6"/>
  <rect y="399.54" x="-36.14" height="9.596" width="9.596" style="fill:#ecf0f1"/>
  <path d="M 18.630859 20.207031 C 18.093815 20.207031 17.601014 20.304709 17.152344 20.501953 C 16.703674 20.692347 16.314587 20.96194 15.988281 21.308594 C 15.668774 21.655295 15.425808 22.059225 15.255859 22.521484 C 15.085899 22.983744 15 23.476559 15 24 C 15 24.523465 15.085899 25.016256 15.255859 25.478516 C 15.425796 25.940775 15.668762 26.344705 15.988281 26.691406 C 16.314587 27.038107 16.703674 27.310663 17.152344 27.507812 C 17.601014 27.698206 18.093815 27.792969 18.630859 27.792969 C 19.093124 27.792969 19.519777 27.725907 19.914062 27.589844 C 20.30835 27.453781 20.652999 27.259246 20.945312 27.007812 C 21.244427 26.749505 21.478486 26.437423 21.648438 26.070312 C 21.825178 25.696423 21.927889 25.278666 21.955078 24.816406 L 20.058594 24.816406 C 20.024602 25.237894 19.880431 25.566766 19.628906 25.804688 C 19.377379 26.042609 19.031715 26.162109 18.589844 26.162109 C 18.29753 26.162109 18.041757 26.103793 17.824219 25.988281 C 17.606683 25.865919 17.430883 25.703929 17.294922 25.5 C 17.158953 25.296142 17.056242 25.065066 16.988281 24.806641 C 16.9271 24.548334 16.896484 24.27874 16.896484 24 C 16.896484 23.721283 16.9271 23.45362 16.988281 23.195312 C 17.056265 22.936982 17.158977 22.705906 17.294922 22.501953 C 17.43089 22.298095 17.60669 22.137114 17.824219 22.021484 C 18.041754 21.899122 18.297528 21.837891 18.589844 21.837891 C 18.997726 21.837891 19.329565 21.937522 19.587891 22.134766 C 19.853013 22.325159 20.011007 22.600678 20.058594 22.960938 L 21.955078 22.960938 L 21.955078 22.958984 C 21.941377 22.537496 21.835703 22.158257 21.638672 21.818359 C 21.448325 21.471659 21.192554 21.179327 20.873047 20.941406 C 20.55354 20.696658 20.199987 20.512987 19.8125 20.390625 C 19.425013 20.268263 19.031943 20.207031 18.630859 20.207031 z M 31.265625 20.359375 L 31.265625 27.640625 L 33 27.640625 L 33 20.359375 L 31.265625 20.359375 z M 23.287109 20.748047 L 23.287109 22.347656 L 22.410156 22.347656 L 22.410156 23.470703 L 23.287109 23.470703 L 23.287109 25.826172 C 23.287109 26.200062 23.314763 26.504266 23.369141 26.742188 C 23.430322 26.973211 23.530047 27.161821 23.666016 27.304688 C 23.801984 27.44075 23.988641 27.538428 24.226562 27.599609 C 24.464493 27.66079 24.770639 27.691406 25.144531 27.691406 C 25.266893 27.691406 25.445661 27.681416 25.683594 27.660156 C 25.867137 27.645983 26.00342 27.638672 26.091797 27.638672 L 26.091797 26.363281 C 26.037419 26.363281 25.959398 26.367913 25.857422 26.375 C 25.762249 26.382087 25.690153 26.384766 25.642578 26.384766 C 25.431846 26.384766 25.275804 26.351235 25.173828 26.283203 C 25.071852 26.208321 25.021484 26.072031 25.021484 25.875 L 25.021484 23.46875 L 26.091797 23.46875 L 26.091797 22.347656 L 25.021484 22.347656 L 25.021484 20.748047 L 23.287109 20.748047 z M 30.21875 22.246094 C 29.844858 22.246094 29.518953 22.335026 29.240234 22.511719 C 28.961516 22.688412 28.756116 22.942225 28.626953 23.275391 L 28.607422 23.275391 L 28.607422 22.347656 L 26.923828 22.347656 L 26.923828 27.640625 L 28.658203 27.640625 L 28.658203 25.019531 C 28.658203 24.666027 28.774718 24.370734 29.005859 24.132812 C 29.237001 23.888064 29.555018 23.765625 29.962891 23.765625 C 30.153237 23.765625 30.375428 23.799156 30.626953 23.867188 L 30.626953 22.287109 C 30.511394 22.259944 30.375111 22.246094 30.21875 22.246094 z " transform="matrix(0.28222225,0,0,0.28222225,-38.119154,397.84494)" style="fill:#7f8c8d"/>
 </g>
</svg>
