<svg xmlns="http://www.w3.org/2000/svg" width="48" height="48" viewBox="0 0 13.546667 13.546667">
 <g transform="translate(0,-283.45334)">
  <g>
   <path transform="matrix(0.28222223,0,0,0.28222223,0,283.45334)" d="M 24.0625 4 C 23.5085 4 23.0625 4.446 23.0625 5 L 23.0625 8 C 23.0625 8.554 23.5085 9 24.0625 9 C 24.6165 9 25.0625 8.554 25.0625 8 L 25.0625 5 C 25.0625 4.446 24.6165 4 24.0625 4 z M 24 9 C 19.944367 9 16.280489 10.599704 13.585938 13.197266 C 13.82075 12.812179 13.790727 12.312212 13.457031 11.978516 L 11.333984 9.8574219 C 10.942247 9.4656847 10.311659 9.4656847 9.9199219 9.8574219 C 9.5281847 10.249159 9.5281847 10.879747 9.9199219 11.271484 L 12.041016 13.394531 C 12.370576 13.724092 12.862837 13.758148 13.246094 13.533203 C 10.673356 16.176562 9.076875 19.768956 9.0117188 23.75 C 8.8990519 23.321014 8.5278068 23 8.0625 23 L 5.0625 23 C 4.5085 23 4.0625 23.446 4.0625 24 C 4.0625 24.554 4.5085 25 5.0625 25 L 8.0625 25 C 8.5278068 25 8.8990519 24.678986 9.0117188 24.25 C 9.0768913 28.232036 10.674183 31.825207 13.248047 34.46875 C 12.864529 34.242459 12.371145 34.277293 12.041016 34.607422 L 9.9199219 36.728516 C 9.5281847 37.120253 9.5281847 37.750841 9.9199219 38.142578 C 10.311659 38.534315 10.942247 38.534315 11.333984 38.142578 L 13.457031 36.021484 C 13.791294 35.687221 13.822117 35.186106 13.585938 34.800781 C 16.280576 37.398881 19.943892 39 24 39 C 32.31 39 39 32.31 39 24 C 39 15.69 32.31 9 24 9 z M 37.498047 9.5644531 C 37.242428 9.5644531 36.986884 9.6615533 36.791016 9.8574219 L 34.669922 11.978516 C 34.278185 12.370253 34.278185 13.000841 34.669922 13.392578 C 35.061659 13.784315 35.692247 13.784315 36.083984 13.392578 L 38.205078 11.271484 C 38.596815 10.879747 38.596815 10.249159 38.205078 9.8574219 C 38.00921 9.6615533 37.753666 9.5644531 37.498047 9.5644531 z M 40.0625 23 C 39.5085 23 39.0625 23.446 39.0625 24 C 39.0625 24.554 39.5085 25 40.0625 25 L 43.0625 25 C 43.6165 25 44.0625 24.554 44.0625 24 C 44.0625 23.446 43.6165 23 43.0625 23 L 40.0625 23 z M 35.376953 34.3125 C 35.121334 34.3125 34.86579 34.411553 34.669922 34.607422 C 34.278185 34.999159 34.278185 35.629747 34.669922 36.021484 L 36.791016 38.142578 C 37.182753 38.534315 37.813341 38.534315 38.205078 38.142578 C 38.596815 37.750841 38.596815 37.120253 38.205078 36.728516 L 36.083984 34.607422 C 35.888116 34.411553 35.632572 34.3125 35.376953 34.3125 z M 24.0625 39 C 23.5085 39 23.0625 39.446 23.0625 40 L 23.0625 43 C 23.0625 43.554 23.5085 44 24.0625 44 C 24.6165 44 25.0625 43.554 25.0625 43 L 25.0625 40 C 25.0625 39.446 24.6165 39 24.0625 39 z " style="fill:#34495e" fill-rule="evenodd"/>
   <path transform="matrix(0.28222223,0,0,0.28222223,0,283.45334)" d="M 24 12 L 24 36 C 30.648 36 36 30.648 36 24 C 36 17.352 30.648 12 24 12 z " style="fill:#ecf0f1" fill-rule="evenodd"/>
  </g>
 </g>
</svg>
