<svg xmlns="http://www.w3.org/2000/svg" width="48" height="48" viewBox="0 0 13.546666 13.546668">
 <g transform="translate(38.119153,-397.84494)">
  <rect width="11.289" height="11.289" x="-36.99" y="398.97" style="fill:#bdc3c7"/>
  <rect width="9.596" height="9.596" x="-36.14" y="400.1" style="fill:#95a5a6"/>
  <rect y="399.54" x="-36.14" height="9.596" width="9.596" style="fill:#ecf0f1"/>
  <path d="M 24 15 L 22.585938 16.414062 L 15 24 L 15 26 L 19.5 26 L 19.5 31 L 19.5 33 L 21.5 33 L 26.5 33 L 28.5 33 L 28.5 31 L 28.5 26 L 33 26 L 33 24 L 25.414062 16.414062 L 24 15 z M 24 17.828125 L 30.171875 24 L 26.5 24 L 26.5 26 L 26.5 31 L 21.5 31 L 21.5 26 L 21.5 24 L 17.828125 24 L 24 17.828125 z " transform="matrix(0.28222225,0,0,0.28222225,-38.119154,397.84494)" style="fill:#7f8c8d"/>
 </g>
</svg>
