<?xml version="1.0" standalone="no"?>
<!DOCTYPE svg PUBLIC "-//W3C//DTD SVG 20010904//EN" "http://www.w3.org/TR/2001/REC-SVG-20010904/DTD/svg10.dtd">
<!-- Created using Karbon, part of Calligra: http://www.calligra.org/karbon -->
<svg xmlns="http://www.w3.org/2000/svg" xmlns:xlink="http://www.w3.org/1999/xlink" width="38.4pt" height="38.4pt">
<defs/>
<g id="layer1">
  <rect id="rect907" transform="translate(1.87879, 2.21212)" fill="#001424" width="30.64242424242pt" height="23.67823077345pt"/>
  <rect id="rect914" transform="translate(5.36088, 9.17631)" fill="none" width="3.36032810584pt" height="2.47603145581pt"/>
  <path id="path3290" transform="translate(6, 20.3114)" fill="none" d="M0 0"/>
  <path id="path3292" transform="translate(5.36088, 7.43526)" fill="none" d="M0 0"/>
  <path id="path3294" transform="translate(9.41258, 20)" fill="none" d="M0 0"/>
  <path id="path3296" transform="translate(9.41258, 26)" fill="none" d="M0 0"/>
  <path id="path3303" transform="translate(40.1818, 3.95317)" fill="none" d="M0 0"/>
  <path id="path3305" transform="translate(34.6154, 3.95317)" fill="none" d="M0 0"/>
  <path id="path3307" transform="translate(30.79, 3.95317)" fill="none" d="M0 0"/>
  <path id="path3311" transform="translate(27.5, 44.5)" fill="none" d="M0 0"/>
  <path id="path3313" transform="translate(27.5, 3.5)" fill="none" d="M0 0"/>
  <path id="path3315" transform="translate(2, 24)" fill="none" d="M0 0"/>
  <path id="path3317" transform="translate(22.3514, 14.1937)" fill="none" d="M0 0"/>
  <rect id="rect9071" transform="translate(7.51182, 11.2323)" fill="#435564" stroke="#003bc3" stroke-width="0.00000000000" stroke-linecap="square" stroke-linejoin="miter" stroke-miterlimit="0.00000000000" width="30.88484528485pt" height="23.86555607583pt"/>
  <rect id="rect9141" transform="translate(35.0909, 28.6364)" fill="none" width="3.86012304000pt" height="2.84430144000pt"/>
  <path id="path32901" transform="translate(35.0909, 33.9478)" fill="none" d="M0 0"/>
  <path id="path32921" transform="translate(35.0909, 26.6364)" fill="none" d="M0 0"/>
  <path id="path32941" transform="translate(38.5035, 33.6364)" fill="none" d="M0 0"/>
  <path id="path32961" transform="translate(38.5035, 39.6364)" fill="none" d="M0 0"/>
  <path id="path33031" transform="translate(75.0909, 22.6364)" fill="none" d="M0 0"/>
  <path id="path33051" transform="translate(68.6966, 22.6364)" fill="none" d="M0 0"/>
  <path id="path33071" transform="translate(64.3023, 22.6364)" fill="none" d="M0 0"/>
  <path id="path33151" transform="translate(31.0909, 37.6364)" fill="none" d="M0 0"/>
  <path id="path33171" transform="translate(77.0909, 37.6364)" fill="none" d="M0 0"/>
  <rect id="rect90711" transform="translate(42.2803, 12.4863)" fill="#1abc9c" width="2.10345926297pt" height="2.26012242922pt"/>
  <rect id="rect9072" transform="translate(38.0663, 12.5026)" fill="#1abc9c" width="2.10345926298pt" height="2.26012242922pt"/>
  <rect id="rect9073" transform="translate(33.8803, 12.5026)" fill="#1abc9c" width="2.10345926298pt" height="2.26012242922pt"/>
  <rect id="rect9074" transform="translate(36.4949, 3.29126)" fill="#4d4d4d" width="2.04329118043pt" height="2.19547309881pt"/>
  <rect id="rect9075" transform="translate(32.4014, 3.30707)" fill="#4d4d4d" width="2.04329118043pt" height="2.19547309881pt"/>
  <rect id="rect9076" transform="translate(28.3351, 3.30707)" fill="#4d4d4d" width="2.04329118043pt" height="2.19547309881pt"/>
 </g>
</svg>
