<svg xmlns="http://www.w3.org/2000/svg" width="48" height="48" viewBox="0 0 13.546666 13.546668">
 <g transform="translate(38.119153,-397.84494)">
  <path d="M 24 4 C 16.520992 4 10.5 10.020877 10.5 17.5 L 10.5 44 L 13.5 44 L 13.5 17.5 C 13.5 11.682877 18.182967 7 24 7 C 29.817033 7 34.5 11.682877 34.5 17.5 L 34.5 44 L 37.5 44 L 37.5 17.5 C 37.5 10.020877 31.479008 4 24 4 z " transform="matrix(0.28222225,0,0,0.28222225,-38.119154,397.84494)" style="fill:#bdc3c7"/>
  <rect width="9.596" height="5.644" x="-36.14" y="-410.26" transform="scale(1,-1)" style="fill:#f1c40f"/>
  <path d="M 24 28 A 2.5 2.5 0 0 0 21.5 30.5 A 2.5 2.5 0 0 0 23 32.789062 L 23 40 L 25 40 L 25 32.789062 A 2.5 2.5 0 0 0 26.5 30.5 A 2.5 2.5 0 0 0 24 28 z " transform="matrix(0.28222225,0,0,0.28222225,-38.119154,397.84494)" style="fill:#2c3e50"/>
 </g>
</svg>
