<svg xmlns="http://www.w3.org/2000/svg" width="48" height="48">
 <g transform="translate(0,-1004.3622)">
  <rect width="41.21" height="42.22" x="3.325" y="-1049.62" transform="scale(1,-1)" style="fill:#2980b9" rx="0"/>
  <path d="m 24.000001,1043.7622 c 8.505194,0 15.400016,-6.8948 15.400016,-15.4 0,-8.5052 -6.894822,-15.4 -15.400016,-15.4 l 0,2.8875 c 6.91047,0 12.512513,5.6021 12.512513,12.5125 0,6.9105 -5.602043,12.5125 -12.512513,12.5125 l 0,2.8875 z" style="fill:#2c3e50"/>
  <path d="m 8.5999834,1028.3622 c 0,8.5052 6.8948226,15.4 15.4000176,15.4 l 0,-2.8875 c -6.910471,0 -12.512514,-5.602 -12.512514,-12.5125 0,-6.9104 5.602043,-12.5125 12.512514,-12.5125 l 0,-2.8875 c -8.505195,0 -15.4000176,6.8948 -15.4000176,15.4 z" style="fill:#1abc9c"/>
  <path d="m 21.666667,1021.3622 0,5.9997 -2.333334,0 4.673502,5.3342 4.659832,-5.3342 -2.333334,0 0,-5.9997 z m 2.340168,11.3339 -7.006835,0 0,2.6661 14,0 0,-2.6661 z" style="fill:#ecf0f1"/>
 </g>
</svg>
