<svg xmlns="http://www.w3.org/2000/svg" width="48" height="48" viewBox="0 0 13.546666 13.546668">
 <g transform="translate(38.119153,-397.84494)">
  <rect width="11.289" height="11.289" x="-36.99" y="398.97" style="fill:#2c3e50"/>
  <g transform="matrix(0.80673767,0,0,0.77156718,-5.8284661,92.428093)">
   <path transform="matrix(0.28222225,0,0,0.28222225,-38.119154,397.84494)" d="M 44.064528,5.0203944 1.9194775,19.625115 19.11132,27.136114 22.282631,45.412879 z" style="fill:#88c941"/>
   <path d="m -31.354639,398.40005 c -3.069802,0 -5.556251,2.44906 -5.556251,5.46805 0,2.1061 1.215759,3.92227 2.989792,4.83306 l -1.137708,0.74083 0.352777,0.35278 c 0,0 0.58028,-0.40642 0.917223,-0.47625 0.354382,-0.0735 1.084791,0.0706 1.084791,0.0706 0.519153,0.14179 -0.08538,-0.0613 0.917223,0.33513 0,0 2.072209,0.87938 3.175,1.05834 0.348733,0.0566 0.724406,0.0857 1.067153,0 0.64741,-0.16185 1.763889,-0.94368 1.763889,-0.94368 l 0,-0.42334 c 0,0 -0.790628,0.2303 -1.199445,0.25577 -0.267452,0.0167 -0.541621,-0.01 -0.802569,-0.0706 -0.561588,-0.13116 -1.532016,-0.57951 -1.631597,-0.62618 2.111585,-0.77389 3.624792,-2.76094 3.624792,-5.10646 0,-3.01899 -2.495269,-5.46805 -5.56507,-5.46805 z m 0.0088,1.56986 c 1.845933,0 3.34257,1.73184 3.34257,3.87173 0,2.1399 -1.496637,3.88056 -3.34257,3.88056 -1.845933,0 -3.34257,-1.74066 -3.34257,-3.88056 0,-2.13989 1.496637,-3.87173 3.34257,-3.87173 z" style="fill:#ecf0f1"/>
  </g>
 </g>
</svg>
