<?xml version="1.0" encoding="UTF-8" standalone="no"?>
<!-- Created with Inkscape (http://www.inkscape.org/) -->

<svg
   xmlns:dc="http://purl.org/dc/elements/1.1/"
   xmlns:cc="http://creativecommons.org/ns#"
   xmlns:rdf="http://www.w3.org/1999/02/22-rdf-syntax-ns#"
   xmlns:svg="http://www.w3.org/2000/svg"
   xmlns="http://www.w3.org/2000/svg"
   xmlns:xlink="http://www.w3.org/1999/xlink"
   xmlns:sodipodi="http://sodipodi.sourceforge.net/DTD/sodipodi-0.dtd"
   xmlns:inkscape="http://www.inkscape.org/namespaces/inkscape"
   width="48"
   height="48"
   id="svg2"
   version="1.1"
   inkscape:version="0.48+devel r12830"
   sodipodi:docname="qmkvextractor.svg">
  <defs
     id="defs4">
    <linearGradient
       inkscape:collect="always"
       id="linearGradient4166">
      <stop
         style="stop-color:#efefef;stop-opacity:1"
         offset="0"
         id="stop4168" />
      <stop
         style="stop-color:#fbfbfb;stop-opacity:1"
         offset="1"
         id="stop4170" />
    </linearGradient>
    <linearGradient
       inkscape:collect="always"
       id="linearGradient1479">
      <stop
         style="stop-color:#1b9bf9;stop-opacity:1"
         offset="0"
         id="stop1481" />
      <stop
         style="stop-color:#6bc0f7;stop-opacity:1"
         offset="1"
         id="stop1483" />
    </linearGradient>
    <linearGradient
       gradientUnits="userSpaceOnUse"
       y2="-1004.3624"
       x2="23.646446"
       y1="-1052.3719"
       x1="23.646446"
       id="linearGradient5063"
       xlink:href="#linearGradient4166"
       inkscape:collect="always"
       gradientTransform="translate(2.0727539e-7,2.5507812e-5)" />
    <linearGradient
       gradientUnits="userSpaceOnUse"
       y2="6.936377"
       x2="36.801556"
       y1="41.361221"
       x1="36.801556"
       id="linearGradient4180"
       xlink:href="#linearGradient1479"
       inkscape:collect="always"
       gradientTransform="matrix(0.8912077,0,0,0.8912077,0.48644521,1006.7346)" />
  </defs>
  <sodipodi:namedview
     id="base"
     pagecolor="#ffffff"
     bordercolor="#666666"
     borderopacity="1.0"
     inkscape:pageopacity="0.0"
     inkscape:pageshadow="2"
     inkscape:zoom="5.6568542"
     inkscape:cx="23.774963"
     inkscape:cy="28.692685"
     inkscape:document-units="px"
     inkscape:current-layer="layer1"
     showgrid="false"
     inkscape:window-width="1366"
     inkscape:window-height="673"
     inkscape:window-x="0"
     inkscape:window-y="24"
     inkscape:window-maximized="1"
     width="0px"
     height="0px"
     fit-margin-top="0"
     fit-margin-left="0"
     fit-margin-right="0"
     fit-margin-bottom="0">
    <inkscape:grid
       type="xygrid"
       id="grid3850"
       empspacing="5"
       visible="true"
       enabled="true"
       snapvisiblegridlinesonly="true" />
  </sodipodi:namedview>
  <metadata
     id="metadata7">
    <rdf:RDF>
      <cc:Work
         rdf:about="">
        <dc:format>image/svg+xml</dc:format>
        <dc:type
           rdf:resource="http://purl.org/dc/dcmitype/StillImage" />
        <dc:title></dc:title>
      </cc:Work>
    </rdf:RDF>
  </metadata>
  <g
     inkscape:label="Capa 1"
     inkscape:groupmode="layer"
     id="layer1"
     transform="translate(0,-1004.3622)">
    <rect
       style="fill:url(#linearGradient5063);fill-opacity:1;stroke:none"
       id="rect2991-1-0"
       width="48"
       height="48"
       x="0"
       y="-1052.3622"
       ry="1.9445436"
       transform="scale(1,-1)" />
    <circle
       r="15.4"
       cy="1029.5621"
       cx="24.000004"
       id="path4192"
       style="fill:#000000;fill-opacity:0.05882353;stroke:none"
       d="m 39.400003,1029.5621 a 15.4,15.4 0 0 1 -15.399999,15.4 15.4,15.4 0 0 1 -15.3999998,-15.4 15.4,15.4 0 0 1 15.3999998,-15.4 15.4,15.4 0 0 1 15.399999,15.4 z" />
    <circle
       r="15.4"
       cy="1029.1622"
       cx="24.000004"
       style="fill:#000000;fill-opacity:0.11764706;stroke:none"
       id="path4190"
       d="m 39.400003,1029.1622 a 15.4,15.4 0 0 1 -15.399999,15.4 15.4,15.4 0 0 1 -15.3999998,-15.4 15.4,15.4 0 0 1 15.3999998,-15.4 15.4,15.4 0 0 1 15.399999,15.4 z" />
    <circle
       r="15.4"
       cy="1028.7622"
       cx="24.000004"
       id="path4186"
       style="fill:#000000;fill-opacity:0.23529412;stroke:none"
       d="m 39.400003,1028.7622 a 15.4,15.4 0 0 1 -15.399999,15.4 15.4,15.4 0 0 1 -15.3999998,-15.4 15.4,15.4 0 0 1 15.3999998,-15.4 15.4,15.4 0 0 1 15.399999,15.4 z" />
    <path
       inkscape:connector-curvature="0"
       style="fill:#000000;fill-opacity:1;stroke:none"
       d="m 2.0727539e-7,1049.3622 0,1.0625 c 0,1.0773 0.86022300272461,1.9375 1.93749999272461,1.9375 l 44.1249998,0 c 1.077277,0 1.937496,-0.8602 1.937496,-1.9375 l 0,-1.0625 c 0,1.0773 -0.860219,1.9375 -1.937496,1.9375 l -44.1249998,0 c -1.07727699,0 -1.93749999272461,-0.8602 -1.93749999272461,-1.9375 z"
       id="rect846-2" />
    <path
       inkscape:connector-curvature="0"
       style="fill:#ffffff;fill-opacity:0.5372549;stroke:none"
       d="m 2.5312502,1005.0185 c -0.917088,0 -1.67114599,0.6395 -1.84374999,1.5 0.33561199,-0.2799 0.77451199,-0.4375 1.24999999,-0.4375 l 44.1249998,0 c 0.475488,0 0.914388,0.1576 1.249996,0.4375 -0.172599,-0.8605 -0.926658,-1.5 -1.843746,-1.5 l -42.9374998,0 z"
       id="path7515-9" />
    <path
       inkscape:connector-curvature="0"
       style="fill:#000000;fill-opacity:0.39215686;stroke:none"
       d="m 1.9375002,1004.3622 c -1.07727699,0 -1.93749999272461,0.8602 -1.93749999272461,1.9375 l 0,43.0625 c 0,0.7934 0.48002400272461,1.449 1.15624999272461,1.75 -0.30934099,-0.3333 -0.49999999,-0.7824 -0.49999999,-1.2812 l 0,-42.9375 c 0,-1.0482 0.82689899,-1.875 1.87499999,-1.875 l 42.9374998,0 c 1.048101,0 1.874996,0.8268 1.874996,1.875 l 0,42.9375 c 0,0.4988 -0.190654,0.9479 -0.499996,1.2812 0.676226,-0.301 1.156246,-0.9566 1.156246,-1.75 l 0,-43.0625 c 0,-1.0773 -0.860219,-1.9375 -1.937496,-1.9375 l -44.1249998,0 z"
       id="rect4280-4" />
    <circle
       r="15.4"
       cy="1028.3622"
       cx="24.000004"
       style="fill:url(#linearGradient4180);fill-opacity:1;stroke:none"
       id="path4172"
       d="m 39.400003,1028.3622 a 15.4,15.4 0 0 1 -15.399999,15.4 15.4,15.4 0 0 1 -15.3999998,-15.4 15.4,15.4 0 0 1 15.3999998,-15.4 15.4,15.4 0 0 1 15.399999,15.4 z" />
    <path
       id="path4175"
       d="m 15.5,1029.5537 3.01325,3.009 c 0,0 1.690438,-1.6893 3.354312,-3.3532 l 0,8.8527 4.261156,0 0,-8.8527 3.3575,3.3575 3.013782,-3.0133 -8.498937,-8.4915 -8.501063,8.4915 z"
       style="fill:#000000;fill-opacity:0.05882353"
       inkscape:connector-curvature="0" />
    <path
       inkscape:connector-curvature="0"
       style="fill:#000000;fill-opacity:0.11764706"
       d="m 15.5,1029.1537 3.01325,3.009 c 0,0 1.690438,-1.6893 3.354312,-3.3532 l 0,8.8527 4.261156,0 0,-8.8527 3.3575,3.3575 3.013782,-3.0133 -8.498937,-8.4915 -8.501063,8.4915 z"
       id="path4173" />
    <path
       inkscape:connector-curvature="0"
       style="fill:#055d9b;fill-opacity:0.31372549;stroke:none"
       d="m 8.6191412,1027.9618 c -0.0035,0.1344 -0.01953,0.2652 -0.01953,0.4004 0,8.5052 6.8952058,15.4004 15.4003908,15.4004 8.505185,0 15.400391,-6.8952 15.400391,-15.4004 0,-0.1352 -0.01607,-0.266 -0.01953,-0.4004 -0.214125,8.3185 -7.010694,15 -15.380859,15 -8.370165,0 -15.1667338,-6.6815 -15.3808588,-15 z"
       id="path4195" />
    <path
       inkscape:connector-curvature="0"
       style="fill:#ffffff;fill-opacity:0.23529412;stroke:none"
       d="m 24,1012.9618 c -8.505185,0 -15.4003908,6.8952 -15.4003908,15.4004 0,0.067 0.0089,0.1322 0.0098,0.1992 0.108907,-8.4114 6.9533588,-15.1992 15.3906208,-15.1992 8.437262,0 15.281714,6.7878 15.390625,15.1992 8.6e-4,-0.067 0.0098,-0.1319 0.0098,-0.1992 -3.4e-5,-8.5052 -6.89524,-15.4004 -15.400425,-15.4004 z"
       id="path4200" />
    <path
       id="path4160"
       d="m 15.5,1028.7537 3.01325,3.009 c 0,0 1.690438,-1.6893 3.354312,-3.3532 l 0,8.8527 4.261156,0 0,-8.8527 3.3575,3.3575 3.013782,-3.0133 -8.498937,-8.4915 -8.501063,8.4915 z"
       style="fill:#000000;fill-opacity:0.23529412"
       inkscape:connector-curvature="0" />
    <path
       inkscape:connector-curvature="0"
       style="fill:#ffffff;fill-opacity:1"
       d="m 15.5,1028.3537 3.01325,3.009 c 0,0 1.690438,-1.6893 3.354312,-3.3532 l 0,8.8527 4.261156,0 0,-8.8527 3.3575,3.3575 3.013782,-3.0133 -8.498937,-8.4915 -8.501063,8.4915 z"
       id="path4099-3" />
  </g>
</svg>
