<?xml version="1.0" standalone="no"?>
<!DOCTYPE svg PUBLIC "-//W3C//DTD SVG 20010904//EN" "http://www.w3.org/TR/2001/REC-SVG-20010904/DTD/svg10.dtd">
<!-- Created using Karbon, part of Calligra: http://www.calligra.org/karbon -->
<svg xmlns="http://www.w3.org/2000/svg" xmlns:xlink="http://www.w3.org/1999/xlink" width="38.4pt" height="38.4pt">
<defs/>
<g id="layer1">
  <path id="shape0" transform="translate(2.83968, 2.75843)" fill="#00b637" fill-rule="evenodd" stroke="#003bc3" stroke-width="0.00000000000" stroke-linecap="square" stroke-linejoin="miter" stroke-miterlimit="2.00000000000" d="M0.168542 42.4827C0.0152063 12.3181 -0.69998 6.85136 2.6717 3.44945C6.04338 0.0475322 8.18895 0.00718742 41.8878 0C41.8865 34.8502 42.9574 38.6425 39.9211 41.2724C36.8845 43.9023 34.5241 42.3084 0.168542 42.4827Z"/>
  <path id="shape1" transform="translate(7.37365, 8.24587)" fill="#ffffff" fill-rule="evenodd" d="M16.9259 14.3846C16.9259 15.8521 16.7083 17.218 16.2728 18.4821C15.8373 19.7463 15.2221 20.836 14.4268 21.7514L17.8538 25.609L15.5628 27.9847L11.7573 23.7783C11.2399 24.0252 10.6971 24.2069 10.129 24.3232C9.56109 24.4393 8.97416 24.4975 8.36831 24.4975C5.89443 24.4975 3.88124 23.5386 2.32873 21.6207C0.776246 19.7026 0 17.2906 0 14.3846L0 10.1129C0 7.20686 0.776246 4.79489 2.32873 2.87695C3.88124 0.958979 5.88812 0 8.34939 0C10.8864 0 12.9501 0.958979 14.5405 2.87695C16.1308 4.79489 16.9259 7.20686 16.9259 10.1129L16.9259 14.3846M13.4802 10.0693C13.4802 8.0932 13.0195 6.46584 12.0981 5.18721C11.1767 3.90856 9.92716 3.26925 8.34939 3.26925C6.83476 3.26925 5.63883 3.90856 4.76161 5.18721C3.88438 6.46584 3.44578 8.0932 3.44578 10.0693L3.44578 14.3846C3.44578 16.3898 3.88438 18.0317 4.76161 19.3103C5.63883 20.589 6.84107 21.2283 8.36831 21.2283C9.94608 21.2283 11.1924 20.5926 12.1075 19.3213C13.0227 18.0498 13.4802 16.4043 13.4802 14.3846L13.4802 10.0693M24.0448 2.15769L24.0448 6.45131L26.79 6.45131L26.79 9.39363L24.0448 9.39363L24.0448 19.1796C24.0448 19.906 24.1805 20.4254 24.4518 20.738C24.7232 21.0504 25.0859 21.2065 25.5405 21.2065C25.7298 21.2065 25.9159 21.1883 26.099 21.1521C26.2818 21.1157 26.4492 21.0612 26.6007 20.9886L26.9793 23.9091C26.6891 24.098 26.3388 24.2432 25.9285 24.345C25.5183 24.4468 25.0987 24.4975 24.6694 24.4975C23.3947 24.4975 22.3976 24.0689 21.6781 23.2117C20.9587 22.3544 20.5989 21.0104 20.5989 19.1796L20.5989 9.39363L18.2512 9.39363L18.2512 6.45131L20.5989 6.45131L20.5989 2.15769L24.0448 2.15769"/>
  <text id="shape01" fill="#ffffff" font-family="Roboto" font-size="14.00000000000pt" x="0.00000000000pt" y="10.09375000000pt" transform="matrix(0.811728 0.00117506 -0.00103499 0.714606 28.4173 34.5651)"><tspan x="0"  y="12.6172">?!</tspan></text>
 </g>
</svg>
