<?xml version="1.0" encoding="UTF-8" standalone="no"?>
<!-- Created with Inkscape (http://www.inkscape.org/) -->

<svg
   xmlns:dc="http://purl.org/dc/elements/1.1/"
   xmlns:cc="http://creativecommons.org/ns#"
   xmlns:rdf="http://www.w3.org/1999/02/22-rdf-syntax-ns#"
   xmlns:svg="http://www.w3.org/2000/svg"
   xmlns="http://www.w3.org/2000/svg"
   xmlns:sodipodi="http://sodipodi.sourceforge.net/DTD/sodipodi-0.dtd"
   xmlns:inkscape="http://www.inkscape.org/namespaces/inkscape"
   width="48"
   height="48"
   id="svg4230"
   version="1.1"
   inkscape:version="0.48.4 r9939"
   sodipodi:docname="quassel.svg">
  <defs
     id="defs4232">
    <linearGradient
       id="linearGradient4678">
      <stop
         id="stop4680"
         offset="0"
         style="stop-color:#096fc3;stop-opacity:1;" />
      <stop
         id="stop4682"
         offset="1"
         style="stop-color:#34b8ff;stop-opacity:1;" />
    </linearGradient>
    <linearGradient
       id="linearGradient1489">
      <stop
         style="stop-color:#f9f9f9;stop-opacity:1"
         offset="0"
         id="stop1491" />
      <stop
         style="stop-color:#ffffff;stop-opacity:1"
         offset="1"
         id="stop1493" />
    </linearGradient>
    <linearGradient
       id="linearGradient3795">
      <stop
         id="stop3797"
         offset="0"
         style="stop-color:#1e92ce;stop-opacity:1" />
      <stop
         id="stop3799"
         offset="1"
         style="stop-color:#3aaeea;stop-opacity:1" />
    </linearGradient>
  </defs>
  <sodipodi:namedview
     id="base"
     pagecolor="#ffffff"
     bordercolor="#666666"
     borderopacity="1.0"
     inkscape:pageopacity="0.0"
     inkscape:pageshadow="2"
     inkscape:zoom="3.8479082"
     inkscape:cx="34.882574"
     inkscape:cy="40.83307"
     inkscape:document-units="px"
     inkscape:current-layer="layer1"
     showgrid="false"
     inkscape:showpageshadow="false"
     borderlayer="true"
     inkscape:window-width="541"
     inkscape:window-height="619"
     inkscape:window-x="1211"
     inkscape:window-y="176"
     inkscape:window-maximized="0" />
  <metadata
     id="metadata4235">
    <rdf:RDF>
      <cc:Work
         rdf:about="">
        <dc:format>image/svg+xml</dc:format>
        <dc:type
           rdf:resource="http://purl.org/dc/dcmitype/StillImage" />
        <dc:title />
      </cc:Work>
    </rdf:RDF>
  </metadata>
  <g
     inkscape:label="Capa 1"
     inkscape:groupmode="layer"
     id="layer1"
     transform="translate(0,-1004.3622)">
    <path
       style="fill:#000000"
       d=""
       id="path906"
       inkscape:connector-curvature="0" />
    <rect
       style="fill:#3498db;fill-opacity:0;stroke:none"
       id="rect5237-3"
       width="45.37846"
       height="46.158104"
       x="1.7005928"
       y="1005.0233"
       ry="0" />
    <path
       id="path3916-0"
       d="m 24.367529,1005.439 c -12.051222,0 -21.8206704,10.263 -21.8206704,22.9232 0,12.6604 9.7694484,22.9233 21.8206704,22.9233 12.051223,0 21.820668,-10.2629 21.820668,-22.9233 0,-12.6602 -9.769445,-22.9232 -21.820668,-22.9232 z m 0,5.094 c 9.373172,0 16.971631,7.9825 16.971631,17.8292 0,5.3405 -2.292867,10.1045 -5.833998,13.372 1.549754,-1.6283 2.500283,-3.8037 2.500283,-6.2879 0,-4.9688 -3.831884,-8.9942 -8.561579,-8.9942 -4.729695,0 -8.561583,4.0254 -8.561583,8.9942 0,4.9683 3.831888,8.9941 8.561583,8.9941 1.773634,0 3.406468,-0.6218 4.773271,-1.5918 -2.784655,2.1009 -6.159432,3.343 -9.849608,3.343 -9.373174,0 -16.9716324,-7.9825 -16.9716324,-17.8294 0,-9.8467 7.5984584,-17.8292 16.9716324,-17.8292 z"
       style="fill:#3498db;fill-opacity:1;fill-rule:evenodd;stroke:none;display:inline"
       inkscape:connector-curvature="0" />
  </g>
</svg>
