<?xml version="1.0" encoding="UTF-8" standalone="no"?>
<!-- Created with Inkscape (http://www.inkscape.org/) -->

<svg
   xmlns:dc="http://purl.org/dc/elements/1.1/"
   xmlns:cc="http://creativecommons.org/ns#"
   xmlns:rdf="http://www.w3.org/1999/02/22-rdf-syntax-ns#"
   xmlns:svg="http://www.w3.org/2000/svg"
   xmlns="http://www.w3.org/2000/svg"
   xmlns:sodipodi="http://sodipodi.sourceforge.net/DTD/sodipodi-0.dtd"
   xmlns:inkscape="http://www.inkscape.org/namespaces/inkscape"
   width="48"
   height="48"
   id="svg4230"
   version="1.1"
   inkscape:version="0.48.4 r9939"
   sodipodi:docname="quassel.svg">
  <defs
     id="defs4232">
    <linearGradient
       id="linearGradient4678">
      <stop
         id="stop4680"
         offset="0"
         style="stop-color:#096fc3;stop-opacity:1;" />
      <stop
         id="stop4682"
         offset="1"
         style="stop-color:#34b8ff;stop-opacity:1;" />
    </linearGradient>
    <linearGradient
       id="linearGradient1489">
      <stop
         style="stop-color:#f9f9f9;stop-opacity:1"
         offset="0"
         id="stop1491" />
      <stop
         style="stop-color:#ffffff;stop-opacity:1"
         offset="1"
         id="stop1493" />
    </linearGradient>
    <linearGradient
       id="linearGradient3795">
      <stop
         id="stop3797"
         offset="0"
         style="stop-color:#1e92ce;stop-opacity:1" />
      <stop
         id="stop3799"
         offset="1"
         style="stop-color:#3aaeea;stop-opacity:1" />
    </linearGradient>
  </defs>
  <sodipodi:namedview
     id="base"
     pagecolor="#ffffff"
     bordercolor="#666666"
     borderopacity="1.0"
     inkscape:pageopacity="0.0"
     inkscape:pageshadow="2"
     inkscape:zoom="3.8479082"
     inkscape:cx="34.882574"
     inkscape:cy="40.83307"
     inkscape:document-units="px"
     inkscape:current-layer="layer1"
     showgrid="false"
     inkscape:showpageshadow="false"
     borderlayer="true"
     inkscape:window-width="541"
     inkscape:window-height="619"
     inkscape:window-x="1211"
     inkscape:window-y="176"
     inkscape:window-maximized="0" />
  <metadata
     id="metadata4235">
    <rdf:RDF>
      <cc:Work
         rdf:about="">
        <dc:format>image/svg+xml</dc:format>
        <dc:type
           rdf:resource="http://purl.org/dc/dcmitype/StillImage" />
        <dc:title />
      </cc:Work>
    </rdf:RDF>
  </metadata>
  <g
     inkscape:label="Capa 1"
     inkscape:groupmode="layer"
     id="layer1"
     transform="translate(0,-1004.3622)">
    <path
       style="fill:#000000"
       d=""
       id="path906"
       inkscape:connector-curvature="0" />
    <rect
       style="fill:#3498db;fill-opacity:0;stroke:none"
       id="rect5237-3"
       width="43.299408"
       height="44.338932"
       x="2.2203557"
       y="1006.3227"
       ry="0" />
    <path
       id="path3916-0"
       d="m 23.847767,1006.9983 c -11.620637,0 -21.041027,9.623 -21.041027,21.4939 0,11.871 9.42039,21.4939 21.041027,21.4939 11.620637,0 21.041023,-9.6229 21.041023,-21.4939 0,-11.8709 -9.420386,-21.4939 -21.041023,-21.4939 z m 0,4.7763 c 9.038271,0 16.365241,7.4848 16.365241,16.7176 0,5.0074 -2.210946,9.4744 -5.625552,12.5382 1.494381,-1.5268 2.410949,-3.5666 2.410949,-5.896 0,-4.6589 -3.694972,-8.4333 -8.255677,-8.4333 -4.560705,0 -8.255681,3.7744 -8.255681,8.4333 0,4.6586 3.694976,8.4334 8.255681,8.4334 1.710261,0 3.284756,-0.5831 4.602723,-1.4926 -2.68516,1.9701 -5.939358,3.1347 -9.497684,3.1347 -9.038274,0 -16.3652432,-7.4849 -16.3652432,-16.7177 0,-9.2328 7.3269692,-16.7176 16.3652432,-16.7176 z"
       style="fill:#3498db;fill-opacity:1;fill-rule:evenodd;stroke:none;display:inline"
       inkscape:connector-curvature="0" />
  </g>
</svg>
