<?xml version="1.0" encoding="UTF-8" standalone="no"?>
<!-- Created with Inkscape (http://www.inkscape.org/) -->

<svg
   xmlns:dc="http://purl.org/dc/elements/1.1/"
   xmlns:cc="http://creativecommons.org/ns#"
   xmlns:rdf="http://www.w3.org/1999/02/22-rdf-syntax-ns#"
   xmlns:svg="http://www.w3.org/2000/svg"
   xmlns="http://www.w3.org/2000/svg"
   xmlns:sodipodi="http://sodipodi.sourceforge.net/DTD/sodipodi-0.dtd"
   xmlns:inkscape="http://www.inkscape.org/namespaces/inkscape"
   width="48"
   height="48"
   id="svg4230"
   version="1.1"
   inkscape:version="0.48.4 r9939"
   sodipodi:docname="quassel.svg">
  <defs
     id="defs4232">
    <linearGradient
       id="linearGradient4678">
      <stop
         id="stop4680"
         offset="0"
         style="stop-color:#096fc3;stop-opacity:1;" />
      <stop
         id="stop4682"
         offset="1"
         style="stop-color:#34b8ff;stop-opacity:1;" />
    </linearGradient>
    <linearGradient
       id="linearGradient1489">
      <stop
         style="stop-color:#f9f9f9;stop-opacity:1"
         offset="0"
         id="stop1491" />
      <stop
         style="stop-color:#ffffff;stop-opacity:1"
         offset="1"
         id="stop1493" />
    </linearGradient>
    <linearGradient
       id="linearGradient3795">
      <stop
         id="stop3797"
         offset="0"
         style="stop-color:#1e92ce;stop-opacity:1" />
      <stop
         id="stop3799"
         offset="1"
         style="stop-color:#3aaeea;stop-opacity:1" />
    </linearGradient>
  </defs>
  <sodipodi:namedview
     id="base"
     pagecolor="#ffffff"
     bordercolor="#666666"
     borderopacity="1.0"
     inkscape:pageopacity="0.0"
     inkscape:pageshadow="2"
     inkscape:zoom="2.720882"
     inkscape:cx="47.101514"
     inkscape:cy="40.83307"
     inkscape:document-units="px"
     inkscape:current-layer="layer1"
     showgrid="false"
     inkscape:showpageshadow="false"
     borderlayer="true"
     inkscape:window-width="512"
     inkscape:window-height="417"
     inkscape:window-x="1286"
     inkscape:window-y="118"
     inkscape:window-maximized="0" />
  <metadata
     id="metadata4235">
    <rdf:RDF>
      <cc:Work
         rdf:about="">
        <dc:format>image/svg+xml</dc:format>
        <dc:type
           rdf:resource="http://purl.org/dc/dcmitype/StillImage" />
        <dc:title />
      </cc:Work>
    </rdf:RDF>
  </metadata>
  <g
     inkscape:label="Capa 1"
     inkscape:groupmode="layer"
     id="layer1"
     transform="translate(0,-1004.3622)">
    <path
       style="fill:#000000"
       d=""
       id="path906"
       inkscape:connector-curvature="0" />
    <rect
       style="fill:#3498db;fill-opacity:1;stroke:none"
       id="rect5237-3"
       width="42"
       height="42"
       x="3"
       y="1007.3622"
       ry="0" />
    <path
       id="path3916-0"
       d="m 24,1015.3622 c -7.179701,0 -13,5.8202 -13,13 0,7.1798 5.820299,13 13,13 7.179702,0 13,-5.8202 13,-13 0,-7.1798 -5.820298,-13 -13,-13 z m 0,2.8889 c 5.584212,0 10.111111,4.5269 10.111111,10.1111 0,3.0287 -1.366011,5.7303 -3.475694,7.5833 0.92329,-0.9233 1.489583,-2.1571 1.489583,-3.5659 0,-2.8178 -2.282905,-5.1007 -5.100694,-5.1007 -2.817789,0 -5.100695,2.2829 -5.100695,5.1007 0,2.8177 2.282906,5.1007 5.100695,5.1007 1.05667,0 2.029456,-0.3526 2.84375,-0.9028 -1.659001,1.1915 -3.669577,1.8958 -5.868056,1.8958 -5.584212,0 -10.111111,-4.5269 -10.111111,-10.1111 0,-5.5842 4.526899,-10.1111 10.111111,-10.1111 z"
       style="fill:#ecf0f1;fill-opacity:1;fill-rule:evenodd;stroke:none;display:inline"
       inkscape:connector-curvature="0" />
  </g>
</svg>
