<svg xmlns="http://www.w3.org/2000/svg" width="128" height="128">
 <g transform="translate(-451.69643,-1052.5988)">
  <g transform="matrix(1.012046,0,0,1.012046,-6.2201527,-12.681289)">
   <path d="m 516.39123,1052.7346 c -17.41639,0 -32.67603,8.0968 -41.1337,20.2223 -0.70298,1.0079 -1.359,2.0436 -1.96533,3.1048 l -12.41335,22.7435 c -0.80119,1.4563 -1.52963,2.949 -2.18115,4.4741 -2.49881,5.8498 -3.86607,12.1805 -3.86607,18.7944 0,29.729 27.58355,53.8477 61.5596,53.8477 33.97602,0 61.55957,-24.1186 61.55957,-53.8477 0,-8.1532 -2.07782,-15.8764 -5.79188,-22.7986 l -12.21663,-22.4006 c -7.7179,-14.2675 -24.31964,-24.1399 -43.55106,-24.1399 z m -0.0676,32.4034 c 14.48026,0 27.38334,5.859 35.81956,15.0177 -1.552,16.1168 -17.00123,28.7843 -35.81956,28.7843 -18.81752,0 -34.26644,-12.6684 -35.81957,-28.7843 8.43645,-9.1517 21.34592,-15.0177 35.81957,-15.0177 z" style="fill:#2980b9"/>
   <path transform="matrix(1.0328906,0,0,1.0328906,448.86895,1048.0635)" d="M 13.25,46.375 C 37.558865,7.4261035 99.571677,12.408004 117.875,47.03125 94.671842,14.29931 42.494497,8.4965424 13.25,46.375 z" style="fill:#3498db" fill-rule="evenodd"/>
   <path transform="matrix(1.0823666,0,0,1.0823666,444.5728,1041.8866)" d="m 100.25,55 c 17.35412,18.781701 4.96176,57.93934 -33.5,57.93934 -38.280561,0 -52.243351,-39.06434 -33.59375,-59.03309 C 11.495494,76.53125 26.107068,115.75 66.75,115.75 c 40.76793,0 53.53949,-39.058418 33.5,-60.75 z" style="fill:#3498db" fill-rule="evenodd"/>
  </g>
  <g transform="matrix(1.3145485,0,0,1.3145485,-165.66351,-354.12444)">
   <path transform="matrix(0.2264337,0,0,0.2264337,497.0898,1095.8911)" d="m 231.16084,147.785 c 0,51.00406 -41.34697,92.35102 -92.35103,92.35102 -51.004056,0 -92.351016,-41.34696 -92.351016,-92.35102 0,-51.004057 41.34696,-92.351017 92.351016,-92.351017 51.00406,0 92.35103,41.34696 92.35103,92.351017 z" style="fill:#34495e"/>
  </g>
 </g>
</svg>
