<?xml version="1.0" encoding="UTF-8" standalone="no"?>
<!-- Created with Inkscape (http://www.inkscape.org/) -->

<svg
   xmlns:dc="http://purl.org/dc/elements/1.1/"
   xmlns:cc="http://creativecommons.org/ns#"
   xmlns:rdf="http://www.w3.org/1999/02/22-rdf-syntax-ns#"
   xmlns:svg="http://www.w3.org/2000/svg"
   xmlns="http://www.w3.org/2000/svg"
   xmlns:sodipodi="http://sodipodi.sourceforge.net/DTD/sodipodi-0.dtd"
   xmlns:inkscape="http://www.inkscape.org/namespaces/inkscape"
   width="48"
   height="48"
   id="svg4230"
   version="1.1"
   inkscape:version="0.48.4 r9939"
   sodipodi:docname="quassel.svg">
  <defs
     id="defs4232">
    <linearGradient
       id="linearGradient4678">
      <stop
         id="stop4680"
         offset="0"
         style="stop-color:#096fc3;stop-opacity:1;" />
      <stop
         id="stop4682"
         offset="1"
         style="stop-color:#34b8ff;stop-opacity:1;" />
    </linearGradient>
    <linearGradient
       id="linearGradient1489">
      <stop
         style="stop-color:#f9f9f9;stop-opacity:1"
         offset="0"
         id="stop1491" />
      <stop
         style="stop-color:#ffffff;stop-opacity:1"
         offset="1"
         id="stop1493" />
    </linearGradient>
    <linearGradient
       id="linearGradient3795">
      <stop
         id="stop3797"
         offset="0"
         style="stop-color:#1e92ce;stop-opacity:1" />
      <stop
         id="stop3799"
         offset="1"
         style="stop-color:#3aaeea;stop-opacity:1" />
    </linearGradient>
  </defs>
  <sodipodi:namedview
     id="base"
     pagecolor="#ffffff"
     bordercolor="#666666"
     borderopacity="1.0"
     inkscape:pageopacity="0.0"
     inkscape:pageshadow="2"
     inkscape:zoom="2.720882"
     inkscape:cx="47.101514"
     inkscape:cy="40.83307"
     inkscape:document-units="px"
     inkscape:current-layer="layer1"
     showgrid="false"
     inkscape:showpageshadow="false"
     borderlayer="true"
     inkscape:window-width="541"
     inkscape:window-height="619"
     inkscape:window-x="1211"
     inkscape:window-y="176"
     inkscape:window-maximized="0" />
  <metadata
     id="metadata4235">
    <rdf:RDF>
      <cc:Work
         rdf:about="">
        <dc:format>image/svg+xml</dc:format>
        <dc:type
           rdf:resource="http://purl.org/dc/dcmitype/StillImage" />
        <dc:title />
      </cc:Work>
    </rdf:RDF>
  </metadata>
  <g
     inkscape:label="Capa 1"
     inkscape:groupmode="layer"
     id="layer1"
     transform="translate(0,-1004.3622)">
    <path
       style="fill:#000000"
       d=""
       id="path906"
       inkscape:connector-curvature="0" />
    <rect
       style="fill:#3498db;fill-opacity:0;stroke:none"
       id="rect5237-3"
       width="42"
       height="42"
       x="3"
       y="1007.3622"
       ry="0" />
    <path
       id="path3916-0"
       d="m 24.000001,1012.422 c -8.600562,0 -15.5726962,7.2189 -15.5726962,16.124 0,8.9051 6.9721342,16.124 15.5726962,16.124 8.600562,0 15.572694,-7.2189 15.572694,-16.124 0,-8.9051 -6.972132,-16.124 -15.572694,-16.124 z m 0,3.5832 c 6.689325,0 12.112096,5.6147 12.112096,12.5408 0,3.7565 -1.636344,7.1073 -4.163533,9.4057 1.106009,-1.1453 1.78437,-2.6755 1.78437,-4.4229 0,-3.495 -2.73469,-6.3264 -6.110118,-6.3264 -3.375429,0 -6.110121,2.8314 -6.110121,6.3264 0,3.4948 2.734692,6.3264 6.110121,6.3264 1.265784,0 2.431084,-0.4373 3.406527,-1.1197 -1.987317,1.4779 -4.395785,2.3514 -7.029342,2.3514 -6.689326,0 -12.112097,-5.6147 -12.112097,-12.5409 0,-6.9261 5.422771,-12.5408 12.112097,-12.5408 z"
       style="fill:#3498db;fill-opacity:1;fill-rule:evenodd;stroke:none;display:inline"
       inkscape:connector-curvature="0" />
  </g>
</svg>
