<svg xmlns="http://www.w3.org/2000/svg" width="48" height="48" viewBox="0 0 13.546667 13.546667">
 <g transform="translate(0,-283.45334)">
  <rect y="284.58" x="1.129" height="11.289" width="11.289" style="fill:#3498db" fill-rule="evenodd" rx="5.644"/>
  <circle cx="3.669" cy="291.92" r="2.54" style="fill:#f2f2f2" fill-rule="evenodd"/>
  <circle r="4.233" cy="290.23" cx="8.184" style="fill:#f2f2f2" fill-rule="evenodd"/>
  <rect width="4.516" height="1.129" x="3.669" y="293.33" style="fill:#f2f2f2" fill-rule="evenodd"/>
  <rect width="0.564" height="1.411" x="2.117" y="284.58" style="fill:#f1c40f" fill-rule="evenodd" rx="0.282"/>
  <rect width="2.54" height="2.54" x="1.129" y="285.99" style="fill:#f1c40f" fill-rule="evenodd" rx="1.27"/>
  <rect y="138.87" x="249.69" height="1.411" width="0.564" transform="matrix(0.5,0.8660254,-0.8660254,0.5,0,0)" style="fill:#f1c40f" fill-rule="evenodd" rx="0.282"/>
  <rect width="0.564" height="1.411" x="249.69" y="142.82" transform="matrix(0.5,0.8660254,-0.8660254,0.5,0,0)" style="fill:#f1c40f" fill-rule="evenodd" rx="0.282"/>
  <rect transform="matrix(-0.5,0.8660254,-0.8660254,-0.5,0,0)" y="-144.44" x="247.3" height="1.411" width="0.564" style="fill:#f1c40f" fill-rule="evenodd" rx="0.282"/>
 </g>
</svg>
