<svg xmlns="http://www.w3.org/2000/svg" width="48" height="48">
 <rect width="40" height="40" x="4" y="4" style="fill:#f39c12" rx="20"/>
 <path d="m 14.000001,14.000001 0,4 4,0 c 6.647996,0 12,5.352004 12,12 l 0,4 4,0 0,-4 c 0,-8.863996 -7.136004,-16 -16,-16 l -4,0 z m 0,8 0,4 4,0 c 2.215996,0 4,1.784004 4,4 l 0,4 4,0 0,-4 c 0,-4.431996 -3.568004,-8 -8,-8 l -4,0 z m 2.333335,7.333335 c -1.29267,0 -2.333335,1.040665 -2.333335,2.33333 0,1.29267 1.040665,2.333335 2.333335,2.333335 1.292665,0 2.33333,-1.040665 2.33333,-2.333335 0,-1.292665 -1.040665,-2.33333 -2.33333,-2.33333 z" style="fill:#ecf0f1"/>
</svg>
