<?xml version="1.0" standalone="no"?>
<!DOCTYPE svg PUBLIC "-//W3C//DTD SVG 20010904//EN" "http://www.w3.org/TR/2001/REC-SVG-20010904/DTD/svg10.dtd">
<!-- Created using Karbon, part of Calligra: http://www.calligra.org/karbon -->
<svg xmlns="http://www.w3.org/2000/svg" xmlns:xlink="http://www.w3.org/1999/xlink" width="38.4pt" height="38.4pt">
<defs/>
<g id="layer1">
  <rect id="rect3282" transform="matrix(3.54331 0 0 3.54331 4 3.99993)" fill="#f1cb6d" fill-rule="evenodd" width="9.03201593519pt" height="9.03201593519pt"/>
  <path id="Oval 213" transform="translate(3.99711, 19.2717)" fill="#f2f2f2" fill-rule="evenodd" d="M10.8204 24.7323C10.8204 18.7564 5.97593 13.9119 0 13.9119L0 9.27462C8.53706 9.27462 15.4577 16.1953 15.4577 24.7323ZM3.09154 24.7323C2.5224 24.7323 1.49318 24.7319 0.00386236 24.731C0.00128745 23.24 0 22.21 0 21.6408C0 19.9333 1.38413 18.5492 3.09154 18.5492C4.79896 18.5492 6.18308 19.9333 6.18308 21.6408C6.18308 23.3483 4.79896 24.7323 3.09154 24.7323ZM20.095 24.7323C20.095 13.6342 11.0982 4.63731 0 4.63731L0 0C13.6593 0 24.7323 11.073 24.7323 24.7323ZM20.095 24.7323"/>
 </g>
</svg>
