<svg xmlns="http://www.w3.org/2000/svg" width="48" height="48" viewBox="0 0 13.546666 13.546668">
 <g transform="translate(38.119153,-397.84494)">
  <rect width="11.289" height="11.289" x="-36.99" y="398.97" style="fill:#2980b9" rx="5.644"/>
  <g transform="matrix(0.72894881,0,0,0.72894881,-7.9930286,109.34397)" style="fill:#ecf0f1">
   <path d="m -30.22906,409.13382 -1.736328,-3.40651 c -0.106573,0.0147 -0.216816,0.0257 -0.330729,0.0331 -0.110247,0.007 -0.224165,0.011 -0.341754,0.011 -0.13597,0 -0.275611,-0.006 -0.418924,-0.0165 -0.139644,-0.011 -0.284797,-0.0257 -0.43546,-0.0441 l 0,2.80018 1.245747,0.39687 0,0.226 -3.274219,0 0,-0.226 1.014236,-0.39687 0,-6.88468 -1.014236,-0.39688 0,-0.226 3.103342,0 c 0.477716,1e-5 0.902151,0.0551 1.273308,0.16537 0.371146,0.10657 0.683501,0.25908 0.937066,0.45751 0.257227,0.19844 0.45199,0.4373 0.584288,0.71658 0.132285,0.27561 0.198431,0.58245 0.198437,0.92053 -6e-6,0.4961 -0.128623,0.93707 -0.38585,1.32291 -0.253565,0.38218 -0.630229,0.67433 -1.129992,0.87644 l 1.604037,3.1309 0.810286,0.31419 0,0.226 -1.703255,0 m -2.028472,-7.55165 -1.234723,0 0,3.54431 c 0.150663,0.0184 0.292141,0.0331 0.424436,0.0441 0.135963,0.007 0.268255,0.011 0.396875,0.011 1.418456,0 2.127686,-0.61001 2.127691,-1.83004 -5e-6,-0.59163 -0.146996,-1.03444 -0.440972,-1.32843 -0.293986,-0.29397 -0.718422,-0.44096 -1.273307,-0.44097"/>
  </g>
 </g>
</svg>
