<?xml version="1.0" encoding="UTF-8" standalone="no"?>
<!-- Created with Inkscape (http://www.inkscape.org/) -->

<svg
   xmlns:dc="http://purl.org/dc/elements/1.1/"
   xmlns:cc="http://creativecommons.org/ns#"
   xmlns:rdf="http://www.w3.org/1999/02/22-rdf-syntax-ns#"
   xmlns:svg="http://www.w3.org/2000/svg"
   xmlns="http://www.w3.org/2000/svg"
   xmlns:sodipodi="http://sodipodi.sourceforge.net/DTD/sodipodi-0.dtd"
   xmlns:inkscape="http://www.inkscape.org/namespaces/inkscape"
   width="48px"
   height="48px"
   id="svg7412"
   sodipodi:version="0.32"
   inkscape:version="0.48.4 r9939"
   sodipodi:docname="sage-notebook.svg"
   inkscape:output_extension="org.inkscape.output.svg.inkscape"
   version="1.1">
  <defs
     id="defs7414">
    <inkscape:perspective
       id="perspective10"
       inkscape:persp3d-origin="372.04724 : 350.78739 : 1"
       inkscape:vp_z="744.09448 : 526.18109 : 1"
       inkscape:vp_y="0 : 1000 : 0"
       inkscape:vp_x="0 : 526.18109 : 1"
       sodipodi:type="inkscape:persp3d" />
  </defs>
  <sodipodi:namedview
     id="base"
     pagecolor="#ffffff"
     bordercolor="#666666"
     borderopacity="1.0"
     inkscape:pageopacity="0.0"
     inkscape:pageshadow="2"
     inkscape:zoom="7"
     inkscape:cx="18.870889"
     inkscape:cy="21.096341"
     inkscape:current-layer="layer1"
     showgrid="true"
     inkscape:grid-bbox="true"
     inkscape:document-units="px"
     inkscape:window-width="1440"
     inkscape:window-height="843"
     inkscape:window-x="0"
     inkscape:window-y="27"
     inkscape:window-maximized="1"
     inkscape:showpageshadow="false"
     borderlayer="true">
    <sodipodi:guide
       position="0,48"
       orientation="48,0"
       id="guide4108" />
    <sodipodi:guide
       position="0,0"
       orientation="0,48"
       id="guide4110" />
    <sodipodi:guide
       position="48,0"
       orientation="-48,0"
       id="guide4112" />
    <sodipodi:guide
       position="48,48"
       orientation="0,-48"
       id="guide4114" />
    <sodipodi:guide
       position="4,44"
       orientation="40,0"
       id="guide4116" />
    <sodipodi:guide
       position="4,4"
       orientation="0,40"
       id="guide4118" />
    <sodipodi:guide
       position="44,4"
       orientation="-40,0"
       id="guide4120" />
    <sodipodi:guide
       position="44,44"
       orientation="0,-40"
       id="guide4122" />
    <sodipodi:guide
       position="15,33"
       orientation="18,0"
       id="guide4125" />
    <sodipodi:guide
       position="15,15"
       orientation="0,18"
       id="guide4127" />
    <sodipodi:guide
       position="33,15"
       orientation="-18,0"
       id="guide4129" />
    <sodipodi:guide
       position="33,33"
       orientation="0,-18"
       id="guide4131" />
  </sodipodi:namedview>
  <metadata
     id="metadata7417">
    <rdf:RDF>
      <cc:Work
         rdf:about="">
        <dc:format>image/svg+xml</dc:format>
        <dc:type
           rdf:resource="http://purl.org/dc/dcmitype/StillImage" />
        <dc:title />
      </cc:Work>
    </rdf:RDF>
  </metadata>
  <g
     id="layer1"
     inkscape:label="Layer 1"
     inkscape:groupmode="layer">
    <rect
       style="fill:#8e44ad;fill-opacity:1;stroke:none"
       id="rect4105"
       width="40"
       height="40"
       x="4"
       y="4"
       ry="0" />
    <g
       transform="matrix(0.21910473,0,0,0.22621597,-318.55878,-502.3942)"
       id="g5086"
       style="fill:#ecf0f1;fill-opacity:1;stroke:#ecf0f1;stroke-opacity:1">
      <path
         inkscape:connector-curvature="0"
         id="path5088"
         d="m 1332.2546,1792.4095 c 0,4.0459 -3.2798,7.3257 -7.3256,7.3257 -4.0459,0 -7.3257,-3.2798 -7.3257,-7.3257 0,-4.0458 3.2798,-7.3256 7.3257,-7.3256 4.0458,0 7.3256,3.2798 7.3256,7.3256 z"
         style="opacity:0.98999999000000005;fill:#ecf0f1;fill-opacity:1;stroke:#ecf0f1;stroke-opacity:1"
         transform="matrix(0.9672595,0,0,0.9672595,235.69886,548.04605)" />
      <path
         inkscape:connector-curvature="0"
         id="path5090"
         d="m 1332.2546,1792.4095 c 0,4.0459 -3.2798,7.3257 -7.3256,7.3257 -4.0459,0 -7.3257,-3.2798 -7.3257,-7.3257 0,-4.0458 3.2798,-7.3256 7.3257,-7.3256 4.0458,0 7.3256,3.2798 7.3256,7.3256 z"
         style="opacity:0.98999999000000005;fill:#ecf0f1;fill-opacity:1;stroke:#ecf0f1;stroke-opacity:1"
         transform="matrix(0.9672595,0,0,0.9672595,308.74604,539.35166)" />
      <path
         inkscape:connector-curvature="0"
         id="path5092"
         d="m 1332.2546,1792.4095 c 0,4.0459 -3.2798,7.3257 -7.3256,7.3257 -4.0459,0 -7.3257,-3.2798 -7.3257,-7.3257 0,-4.0458 3.2798,-7.3256 7.3257,-7.3256 4.0458,0 7.3256,3.2798 7.3256,7.3256 z"
         style="opacity:0.98999999000000005;fill:#ecf0f1;fill-opacity:1;stroke:#ecf0f1;stroke-opacity:1"
         transform="matrix(1.2053547,0,0,1.2053547,-25.196551,182.19849)" />
      <path
         inkscape:connector-curvature="0"
         id="path5094"
         d="m 1332.2546,1792.4095 c 0,4.0459 -3.2798,7.3257 -7.3256,7.3257 -4.0459,0 -7.3257,-3.2798 -7.3257,-7.3257 0,-4.0458 3.2798,-7.3256 7.3257,-7.3256 4.0458,0 7.3256,3.2798 7.3256,7.3256 z"
         style="opacity:0.98999999000000005;fill:#ecf0f1;fill-opacity:1;stroke:#ecf0f1;stroke-opacity:1"
         transform="matrix(0.7953719,0,0,0.7953719,449.34462,925.45441)" />
      <path
         inkscape:connector-curvature="0"
         id="path5096"
         d="m 1332.2546,1792.4095 c 0,4.0459 -3.2798,7.3257 -7.3256,7.3257 -4.0459,0 -7.3257,-3.2798 -7.3257,-7.3257 0,-4.0458 3.2798,-7.3256 7.3257,-7.3256 4.0458,0 7.3256,3.2798 7.3256,7.3256 z"
         style="opacity:0.98999999000000005;fill:#ecf0f1;fill-opacity:1;stroke:#ecf0f1;stroke-opacity:1"
         transform="matrix(0.7953719,0,0,0.7953719,499.30379,973.24771)" />
      <path
         inkscape:connector-curvature="0"
         id="path5098"
         d="m 1332.2546,1792.4095 c 0,4.0459 -3.2798,7.3257 -7.3256,7.3257 -4.0459,0 -7.3257,-3.2798 -7.3257,-7.3257 0,-4.0458 3.2798,-7.3256 7.3257,-7.3256 4.0458,0 7.3256,3.2798 7.3256,7.3256 z"
         style="opacity:0.98999999000000005;fill:#ecf0f1;fill-opacity:1;stroke:#ecf0f1;stroke-opacity:1"
         transform="matrix(0.7953719,0,0,0.7953719,556.29908,956.69427)" />
      <path
         inkscape:connector-curvature="0"
         id="path5100"
         d="m 1332.2546,1792.4095 c 0,4.0459 -3.2798,7.3257 -7.3256,7.3257 -4.0459,0 -7.3257,-3.2798 -7.3257,-7.3257 0,-4.0458 3.2798,-7.3256 7.3257,-7.3256 4.0458,0 7.3256,3.2798 7.3256,7.3256 z"
         style="opacity:0.98999999000000005;fill:#ecf0f1;fill-opacity:1;stroke:#ecf0f1;stroke-opacity:1"
         transform="matrix(0.7953719,0,0,0.7953719,581.00221,902.90894)" />
      <path
         inkscape:connector-curvature="0"
         id="path5102"
         d="m 1332.2546,1792.4095 c 0,4.0459 -3.2798,7.3257 -7.3256,7.3257 -4.0459,0 -7.3257,-3.2798 -7.3257,-7.3257 0,-4.0458 3.2798,-7.3256 7.3257,-7.3256 4.0458,0 7.3256,3.2798 7.3256,7.3256 z"
         style="opacity:0.98999999000000005;fill:#ecf0f1;fill-opacity:1;stroke:#ecf0f1;stroke-opacity:1"
         transform="matrix(0.6234843,0,0,0.6234843,800.65848,1180.6657)" />
      <path
         inkscape:connector-curvature="0"
         id="path5104"
         d="m 1332.2546,1792.4095 c 0,4.0459 -3.2798,7.3257 -7.3256,7.3257 -4.0459,0 -7.3257,-3.2798 -7.3257,-7.3257 0,-4.0458 3.2798,-7.3256 7.3257,-7.3256 4.0458,0 7.3256,3.2798 7.3256,7.3256 z"
         style="opacity:0.98999999000000005;fill:#ecf0f1;fill-opacity:1;stroke:#ecf0f1;stroke-opacity:1"
         transform="matrix(0.6234843,0,0,0.6234843,766.33259,1139.9519)" />
      <path
         inkscape:connector-curvature="0"
         id="path5106"
         d="m 1332.2546,1792.4095 c 0,4.0459 -3.2798,7.3257 -7.3256,7.3257 -4.0459,0 -7.3257,-3.2798 -7.3257,-7.3257 0,-4.0458 3.2798,-7.3256 7.3257,-7.3256 4.0458,0 7.3256,3.2798 7.3256,7.3256 z"
         style="opacity:0.98999999000000005;fill:#ecf0f1;fill-opacity:1;stroke:#ecf0f1;stroke-opacity:1"
         transform="matrix(0.6234843,0,0,0.6234843,664.75027,1230.1938)" />
      <path
         inkscape:connector-curvature="0"
         id="path5108"
         d="m 1332.2546,1792.4095 c 0,4.0459 -3.2798,7.3257 -7.3256,7.3257 -4.0459,0 -7.3257,-3.2798 -7.3257,-7.3257 0,-4.0458 3.2798,-7.3256 7.3257,-7.3256 4.0458,0 7.3256,3.2798 7.3256,7.3256 z"
         style="opacity:0.98999999000000005;fill:#ecf0f1;fill-opacity:1;stroke:#ecf0f1;stroke-opacity:1"
         transform="matrix(0.6234843,0,0,0.6234843,701.58781,1267.5497)" />
      <path
         inkscape:connector-curvature="0"
         id="path5110"
         d="m 1332.2546,1792.4095 c 0,4.0459 -3.2798,7.3257 -7.3256,7.3257 -4.0459,0 -7.3257,-3.2798 -7.3257,-7.3257 0,-4.0458 3.2798,-7.3256 7.3257,-7.3256 4.0458,0 7.3256,3.2798 7.3256,7.3256 z"
         style="opacity:0.98999999000000005;fill:#ecf0f1;fill-opacity:1;stroke:#ecf0f1;stroke-opacity:1"
         transform="matrix(0.7953719,0,0,0.7953719,440.41431,869.81028)" />
      <path
         inkscape:connector-curvature="0"
         id="path5112"
         d="m 1332.2546,1792.4095 c 0,4.0459 -3.2798,7.3257 -7.3256,7.3257 -4.0459,0 -7.3257,-3.2798 -7.3257,-7.3257 0,-4.0458 3.2798,-7.3256 7.3257,-7.3256 4.0458,0 7.3256,3.2798 7.3256,7.3256 z"
         style="opacity:0.98999999000000005;fill:#ecf0f1;fill-opacity:1;stroke:#ecf0f1;stroke-opacity:1"
         transform="matrix(0.7953719,0,0,0.7953719,484.50773,829.39633)" />
      <path
         inkscape:connector-curvature="0"
         id="path5114"
         d="m 1332.2546,1792.4095 c 0,4.0459 -3.2798,7.3257 -7.3256,7.3257 -4.0459,0 -7.3257,-3.2798 -7.3257,-7.3257 0,-4.0458 3.2798,-7.3256 7.3257,-7.3256 4.0458,0 7.3256,3.2798 7.3256,7.3256 z"
         style="opacity:0.98999999000000005;fill:#ecf0f1;fill-opacity:1;stroke:#ecf0f1;stroke-opacity:1"
         transform="matrix(0.6234843,0,0,0.6234843,699.00639,1196.6154)" />
      <path
         inkscape:connector-curvature="0"
         id="path5116"
         d="m 1332.2546,1792.4095 c 0,4.0459 -3.2798,7.3257 -7.3256,7.3257 -4.0459,0 -7.3257,-3.2798 -7.3257,-7.3257 0,-4.0458 3.2798,-7.3256 7.3257,-7.3256 4.0458,0 7.3256,3.2798 7.3256,7.3256 z"
         style="opacity:0.98999999000000005;fill:#ecf0f1;fill-opacity:1;stroke:#ecf0f1;stroke-opacity:1"
         transform="matrix(0.6234843,0,0,0.6234843,749.0301,1256.3969)" />
      <path
         inkscape:connector-curvature="0"
         style="fill:#ecf0f1;stroke:#ecf0f1;stroke-width:8;stroke-linecap:butt;stroke-linejoin:miter;stroke-miterlimit:4;stroke-opacity:1;stroke-dasharray:none;fill-opacity:1"
         d="m 1590.0065,2271.6035 -18.6281,72.6731"
         id="path5118" />
      <path
         inkscape:connector-curvature="0"
         style="fill:#ecf0f1;stroke:#ecf0f1;stroke-width:8;stroke-linecap:butt;stroke-linejoin:miter;stroke-miterlimit:4;stroke-opacity:1;stroke-dasharray:none;fill-opacity:1"
         d="m 1589.0995,2273.5223 -72.5588,8.4545"
         id="path5120" />
      <path
         inkscape:connector-curvature="0"
         style="fill:#ecf0f1;stroke:#ecf0f1;stroke-width:8;stroke-linecap:butt;stroke-linejoin:miter;stroke-miterlimit:4;stroke-opacity:1;stroke-dasharray:none;fill-opacity:1"
         d="m 1571.3087,2343.4372 -54.6982,-61.8801"
         id="path5122" />
      <path
         inkscape:connector-curvature="0"
         style="fill:#ecf0f1;stroke:#ecf0f1;stroke-width:6;stroke-linecap:butt;stroke-linejoin:miter;stroke-miterlimit:4;stroke-opacity:1;stroke-dasharray:none;fill-opacity:1"
         d="m 1571.3087,2343.8569 -18.07,55.944"
         id="path5124" />
      <path
         inkscape:connector-curvature="0"
         style="fill:#ecf0f1;stroke:#ecf0f1;stroke-width:4;stroke-linecap:butt;stroke-linejoin:miter;stroke-miterlimit:4;stroke-opacity:1;stroke-dasharray:none;fill-opacity:1"
         d="m 1516.4012,2281.3172 21.0002,-24.3443"
         id="path5126" />
      <path
         inkscape:connector-curvature="0"
         style="fill:#ecf0f1;stroke:#ecf0f1;stroke-width:4;stroke-linecap:butt;stroke-linejoin:miter;stroke-miterlimit:4;stroke-opacity:1;stroke-dasharray:none;fill-opacity:1"
         d="m 1493.9359,2295.4681 21.7676,-14.3307"
         id="path5128" />
      <path
         inkscape:connector-curvature="0"
         style="fill:#ecf0f1;stroke:#ecf0f1;stroke-width:4;stroke-linecap:butt;stroke-linejoin:miter;stroke-miterlimit:4;stroke-opacity:1;stroke-dasharray:none;fill-opacity:1"
         d="m 1503.0057,2350.6326 13.3955,-69.9749"
         id="path5130" />
      <path
         inkscape:connector-curvature="0"
         style="fill:#ecf0f1;stroke:#ecf0f1;stroke-width:6;stroke-linecap:butt;stroke-linejoin:miter;stroke-miterlimit:4;stroke-opacity:1;stroke-dasharray:none;fill-opacity:1"
         d="m 1552.1922,2398.5417 -49.5353,-46.59"
         id="path5132" />
      <path
         inkscape:connector-curvature="0"
         style="fill:#ecf0f1;stroke:#ecf0f1;stroke-width:6;stroke-linecap:butt;stroke-linejoin:miter;stroke-miterlimit:4;stroke-opacity:1;stroke-dasharray:none;fill-opacity:1"
         d="m 1610.0997,2381.3328 -58.1168,16.969"
         id="path5134" />
      <path
         inkscape:connector-curvature="0"
         style="fill:#ecf0f1;stroke:#ecf0f1;stroke-width:6;stroke-linecap:butt;stroke-linejoin:miter;stroke-miterlimit:4;stroke-opacity:1;stroke-dasharray:none;fill-opacity:1"
         d="m 1634.2395,2328.3869 -24.1398,53.1257"
         id="path5136" />
      <path
         inkscape:connector-curvature="0"
         style="fill:#ecf0f1;stroke:#ecf0f1;stroke-width:6;stroke-linecap:butt;stroke-linejoin:miter;stroke-miterlimit:4;stroke-opacity:1;stroke-dasharray:none;fill-opacity:1"
         d="m 1570.5412,2343.4372 62.8611,-14.6306"
         id="path5138" />
      <path
         inkscape:connector-curvature="0"
         style="fill:#ecf0f1;stroke:#ecf0f1;stroke-width:6;stroke-linecap:butt;stroke-linejoin:miter;stroke-miterlimit:4;stroke-opacity:1;stroke-dasharray:none;fill-opacity:1"
         d="m 1590.1461,2273.0426 43.1166,55.1644"
         id="path5140" />
      <path
         inkscape:connector-curvature="0"
         style="fill:#ecf0f1;stroke:#ecf0f1;stroke-width:6;stroke-linecap:butt;stroke-linejoin:miter;stroke-miterlimit:4;stroke-opacity:1;stroke-dasharray:none;fill-opacity:1"
         d="m 1501.7987,2350.6326 66.9774,-7.1954"
         id="path5142" />
      <path
         inkscape:connector-curvature="0"
         style="fill:#ecf0f1;stroke:#ecf0f1;stroke-width:4;stroke-linecap:butt;stroke-linejoin:miter;stroke-miterlimit:4;stroke-opacity:1;stroke-dasharray:none;fill-opacity:1"
         d="m 1551.4038,2398.062 -24.4188,-13.1316"
         id="path5144" />
      <path
         inkscape:connector-curvature="0"
         style="fill:#ecf0f1;stroke:#ecf0f1;stroke-width:4;stroke-linecap:butt;stroke-linejoin:miter;stroke-miterlimit:4;stroke-opacity:1;stroke-dasharray:none;fill-opacity:1"
         d="m 1489.38,2347.2747 36.3492,37.296"
         id="path5146" />
      <path
         inkscape:connector-curvature="0"
         style="fill:#ecf0f1;stroke:#ecf0f1;stroke-width:4;stroke-linecap:butt;stroke-linejoin:miter;stroke-miterlimit:4;stroke-opacity:1;stroke-dasharray:none;fill-opacity:1"
         d="m 1493.2173,2295.9478 -2.721,51.3269"
         id="path5148" />
      <path
         inkscape:connector-curvature="0"
         style="fill:#ecf0f1;stroke:#ecf0f1;stroke-width:4;stroke-linecap:butt;stroke-linejoin:miter;stroke-miterlimit:4;stroke-opacity:1;stroke-dasharray:none;fill-opacity:1"
         d="m 1537.3805,2254.8743 54.0702,1.8588"
         id="path5150" />
      <path
         inkscape:connector-curvature="0"
         style="fill:#ecf0f1;stroke:#ecf0f1;stroke-width:4;stroke-linecap:butt;stroke-linejoin:miter;stroke-miterlimit:4;stroke-opacity:1;stroke-dasharray:none;fill-opacity:1"
         d="m 1627.172,2298.5261 -34.2562,-41.9729"
         id="path5152" />
      <path
         inkscape:connector-curvature="0"
         style="fill:#ecf0f1;stroke:#ecf0f1;stroke-width:4;stroke-linecap:butt;stroke-linejoin:miter;stroke-miterlimit:4;stroke-opacity:1;stroke-dasharray:none;fill-opacity:1"
         d="m 1635.4744,2328.207 -9.0001,-30.1006"
         id="path5154" />
      <path
         inkscape:connector-curvature="0"
         style="fill:#ecf0f1;stroke:#ecf0f1;stroke-width:4;stroke-linecap:butt;stroke-linejoin:miter;stroke-miterlimit:4;stroke-opacity:1;stroke-dasharray:none;fill-opacity:1"
         d="m 1589.4972,2272.2631 3.2093,-15.2902"
         id="path5156" />
      <path
         inkscape:connector-curvature="0"
         style="fill:#ecf0f1;stroke:#ecf0f1;stroke-width:4;stroke-linecap:butt;stroke-linejoin:miter;stroke-miterlimit:4;stroke-opacity:1;stroke-dasharray:none;fill-opacity:1"
         d="m 1503.6825,2351.2305 -14.1629,-2.6983"
         id="path5158" />
      <path
         inkscape:connector-curvature="0"
         style="fill:#ecf0f1;stroke:#ecf0f1;stroke-width:2;stroke-linecap:butt;stroke-linejoin:miter;stroke-miterlimit:4;stroke-opacity:1;stroke-dasharray:none;fill-opacity:1"
         d="m 1526.985,2385.4084 46.7446,-11.4526"
         id="path5160" />
      <path
         inkscape:connector-curvature="0"
         style="fill:#ecf0f1;stroke:#ecf0f1;stroke-width:2;stroke-linecap:butt;stroke-linejoin:miter;stroke-miterlimit:4;stroke-opacity:1;stroke-dasharray:none;fill-opacity:1"
         d="m 1574.9157,2373.8958 33.6282,7.2554"
         id="path5162" />
      <path
         inkscape:connector-curvature="0"
         style="fill:#ecf0f1;stroke:#ecf0f1;stroke-width:2;stroke-linecap:butt;stroke-linejoin:miter;stroke-miterlimit:4;stroke-opacity:1;stroke-dasharray:none;fill-opacity:1"
         d="m 1492.5121,2295.941 61.203,-6.8478"
         id="path5164" />
      <path
         inkscape:connector-curvature="0"
         style="fill:#ecf0f1;stroke:#ecf0f1;stroke-width:2;stroke-linecap:butt;stroke-linejoin:miter;stroke-miterlimit:4;stroke-opacity:1;stroke-dasharray:none;fill-opacity:1"
         d="m 1553.7151,2287.7387 36.4241,-13.5452"
         id="path5166" />
      <path
         inkscape:connector-curvature="0"
         id="path5168"
         d="m 1332.2546,1792.4095 c 0,4.0459 -3.2798,7.3257 -7.3256,7.3257 -4.0459,0 -7.3257,-3.2798 -7.3257,-7.3257 0,-4.0458 3.2798,-7.3256 7.3257,-7.3256 4.0458,0 7.3256,3.2798 7.3256,7.3256 z"
         style="opacity:0.98999999000000005;fill:#ecf0f1;fill-opacity:1;stroke:#ecf0f1;stroke-opacity:1"
         transform="matrix(0.6234843,0,0,0.6234843,726.86911,1170.9368)" />
      <path
         inkscape:connector-curvature="0"
         id="path5170"
         d="m 1332.2546,1792.4095 c 0,4.0459 -3.2798,7.3257 -7.3256,7.3257 -4.0459,0 -7.3257,-3.2798 -7.3257,-7.3257 0,-4.0458 3.2798,-7.3256 7.3257,-7.3256 4.0458,0 7.3256,3.2798 7.3256,7.3256 z"
         style="opacity:0.98999999000000005;fill:#ecf0f1;fill-opacity:1;stroke:#ecf0f1;stroke-opacity:1"
         transform="matrix(0.5833906,0,0,0.5833906,837.2333,1298.2147)" />
      <path
         inkscape:connector-curvature="0"
         style="fill:#ecf0f1;stroke:#ecf0f1;stroke-width:2;stroke-linecap:butt;stroke-linejoin:miter;stroke-miterlimit:4;stroke-opacity:1;stroke-dasharray:none;fill-opacity:1"
         d="m 1609.6576,2343.739 16.404,-46.0639"
         id="path5172" />
      <path
         inkscape:connector-curvature="0"
         style="fill:#ecf0f1;stroke:#ecf0f1;stroke-width:2;stroke-linecap:butt;stroke-linejoin:miter;stroke-miterlimit:4;stroke-opacity:1;stroke-dasharray:none;fill-opacity:1"
         d="m 1609.4298,2381.481 0.5696,-38.77"
         id="path5174" />
      <path
         inkscape:connector-curvature="0"
         id="path5176"
         d="m 1502.1919,2350.0723 23.4339,-35.9573"
         style="fill:#ecf0f1;stroke:#ecf0f1;stroke-width:2;stroke-linecap:butt;stroke-linejoin:miter;stroke-miterlimit:4;stroke-opacity:1;stroke-dasharray:none;fill-opacity:1" />
      <path
         inkscape:connector-curvature="0"
         id="path5178"
         d="M 1537.8572,2255.3651 1524.94,2314.115"
         style="fill:#ecf0f1;stroke:#ecf0f1;stroke-width:2;stroke-linecap:butt;stroke-linejoin:miter;stroke-miterlimit:4;stroke-opacity:1;stroke-dasharray:none;fill-opacity:1" />
    </g>
  </g>
</svg>
