<svg xmlns="http://www.w3.org/2000/svg" width="500" height="500">
 <g transform="translate(0,-552.36218)">
  <g transform="matrix(0.61111605,0,0,0.61111605,22.620894,428.83935)">
   <g transform="translate(588.70462,474.89775)">
    <g transform="translate(-848.73957,165.39329)">
     <path d="m 700,602.36218 a 290,290 0 1 1 -580,0 290,290 0 1 1 580,0 z" transform="matrix(1.0853852,0,0,1.1168771,171.30595,-701.84133)" style="fill:#3498db" fill-rule="evenodd" stroke="#2c3e50" stroke-width="13.183"/>
    </g>
    <path d="m -527.64105,46.815701 c 0,0 -8.85636,46.25901 65.57108,153.992689 74.42745,107.73369 191.74575,183.79773 191.74575,183.79773 0,0 -40.72225,-79.77456 -43.71407,-131.14216 -2.99182,-51.36759 4.37679,-105.77419 27.81805,-152.00569 27.50519,-54.246549 48.34191,-128.660819 48.68155,-175.849719 0.33964,-47.188901 -25.18879,-101.748651 -25.18879,-101.748651 0,0 -81.99169,1.52891 -163.86744,69.54509 -81.87575,68.016178 -101.04613,153.410711 -101.04613,153.410711 z" style="fill:#bdc3c7" stroke="#ecf0f1"/>
   </g>
   <g transform="translate(-218.07993,56.94756)">
    <g transform="translate(220.92656,-57.382009)">
     <path d="m 696.8914,357.57834 a 73.061195,72.358681 0 1 1 -146.1224,0 73.061195,72.358681 0 1 1 146.1224,0 z" transform="matrix(1.091593,0.78411578,-0.47247827,0.6577523,107.7007,-367.89375)" style="fill:#2c3e50" fill-rule="evenodd" stroke="#2c3e50"/>
     <g transform="translate(113.25914,27.818035)">
      <path d="m 215.07677,831.68264 13.62046,-2.19132 c 0,0 33.51842,-53.28184 100.61502,-115.8341 67.0966,-62.55227 149.07491,-75.56368 149.07491,-75.56368 0,0 2.40983,-94.91258 22.02001,-150.19091 21.08133,-59.42531 65.40804,-108.22369 65.40804,-108.22369 0,0 -3.77944,-56.44493 -46.09248,-80.87438 -42.03888,-24.27116 -68.35975,-6.09983 -68.35975,-6.09983 0,0 -18.49977,48.40515 -57.4234,113.59365 -27.96224,46.8306 -73.27413,121.14304 -73.27413,121.14304 0,0 -35.55677,85.37713 -53.33709,136.05734 -17.78032,50.68021 -52.25159,168.18388 -52.25159,168.18388 z" style="fill:#f39c12"/>
      <path d="m 215.07677,831.68264 13.62046,-2.19132 c 0,0 33.51842,-53.28184 100.61502,-115.8341 67.0966,-62.55227 149.07491,-75.56368 149.07491,-75.56368 0,0 2.40983,-94.91258 22.02001,-150.19091 21.08133,-59.42531 65.40804,-108.22369 65.40804,-108.22369 0,0 -3.77944,-56.44493 -46.09248,-80.87438 -42.03888,-24.27116 -68.35975,-6.09983 -68.35975,-6.09983 0,0 -18.49977,48.40515 -57.4234,113.59365 -27.96224,46.8306 -73.27413,121.14304 -73.27413,121.14304 0,0 -35.55677,85.37713 -53.33709,136.05734 -17.78032,50.68021 -52.25159,168.18388 -52.25159,168.18388 z" style="fill:#9d7100" stroke="#2c3e50" fill-opacity="0" stroke-width="4.918"/>
     </g>
    </g>
    <g>
     <path d="m 453.82241,587.29956 a 9.4839048,28.100458 0 1 1 -18.96781,0 9.4839048,28.100458 0 1 1 18.96781,0 z" transform="matrix(0.75697815,0.46515404,-0.46515404,0.75697815,609.84148,-135.65843)" style="fill:#4d4d4d" fill-rule="evenodd" stroke="#4d4d4d"/>
     <path d="m 666.68338,524.77607 c 0,0 -29.39375,49.75349 -57.60593,118.72444 -28.21218,68.97095 -54.09339,155.95755 -54.09339,155.95755" style="fill:none" stroke="#4d4d4d" stroke-width="2"/>
    </g>
   </g>
  </g>
 </g>
</svg>
