<?xml version="1.0" encoding="UTF-8" standalone="no"?>
<!-- Created with Inkscape (http://www.inkscape.org/) -->

<svg
   xmlns:dc="http://purl.org/dc/elements/1.1/"
   xmlns:cc="http://creativecommons.org/ns#"
   xmlns:rdf="http://www.w3.org/1999/02/22-rdf-syntax-ns#"
   xmlns:svg="http://www.w3.org/2000/svg"
   xmlns="http://www.w3.org/2000/svg"
   xmlns:sodipodi="http://sodipodi.sourceforge.net/DTD/sodipodi-0.dtd"
   xmlns:inkscape="http://www.inkscape.org/namespaces/inkscape"
   width="48"
   height="48"
   id="svg2"
   version="1.1"
   inkscape:version="0.48+devel r12392"
   sodipodi:docname="skype.svg">
  <defs
     id="defs4" />
  <sodipodi:namedview
     id="base"
     pagecolor="#ffffff"
     bordercolor="#666666"
     borderopacity="1.0"
     inkscape:pageopacity="0.0"
     inkscape:pageshadow="2"
     inkscape:zoom="5.8091542"
     inkscape:cx="-7.421719"
     inkscape:cy="20.375686"
     inkscape:document-units="px"
     inkscape:current-layer="layer1"
     showgrid="false"
     inkscape:window-width="1366"
     inkscape:window-height="718"
     inkscape:window-x="0"
     inkscape:window-y="30"
     inkscape:window-maximized="1">
    <inkscape:grid
       type="xygrid"
       id="grid3850" />
  </sodipodi:namedview>
  <metadata
     id="metadata7">
    <rdf:RDF>
      <cc:Work
         rdf:about="">
        <dc:format>image/svg+xml</dc:format>
        <dc:type
           rdf:resource="http://purl.org/dc/dcmitype/StillImage" />
        <dc:title />
      </cc:Work>
    </rdf:RDF>
  </metadata>
  <g
     inkscape:label="Capa 1"
     inkscape:groupmode="layer"
     id="layer1"
     transform="translate(0,-1004.3622)">
    <path
       inkscape:connector-curvature="0"
       style="fill:#52beea;fill-opacity:1;display:inline"
       d="m 45.373334,1033.2453 c 0.326866,-1.4957 0.500779,-3.048 0.500779,-4.6415 0,-11.9483 -9.685036,-21.6334 -21.633173,-21.6334 -1.261087,0 -2.496429,0.112 -3.699271,0.3168 -1.933987,-1.2173 -4.221658,-1.925 -6.675501,-1.925 -6.9280966,0 -12.5444273,5.6174 -12.5444273,12.5458 0,2.3154 0.6300478,4.4831 1.7250482,6.3449 -0.2875234,1.405 -0.4391163,2.8605 -0.4391163,4.3509 0,11.9482 9.6851274,21.6332 21.6331774,21.6332 1.354524,0 2.677364,-0.1252 3.962126,-0.3637 1.765554,0.9502 3.784697,1.4889 5.92969,1.4889 6.929266,0 12.545593,-5.6165 12.545593,-12.5456 C 46.678259,1036.8153 46.207727,1034.9243 45.373334,1033.2453 z m -10.037918,5.6962 c -0.999578,1.4173 -2.478511,2.5392 -4.394402,3.3354 -1.896892,0.7886 -4.17097,1.1879 -6.759667,1.1879 -3.107481,0 -5.712921,-0.5456 -7.745567,-1.6238 -1.453278,-0.7858 -2.652611,-1.8481 -3.562351,-3.1611 -0.918649,-1.3264 -1.384685,-2.6404 -1.384685,-3.9096 0,-0.7929 0.304356,-1.4798 0.9029,-2.0419 0.59296,-0.5577 1.352187,-0.8398 2.257334,-0.8398 0.743474,0 1.384681,0.2226 1.905806,0.6625 0.49754,0.4225 0.925404,1.0467 1.267928,1.8532 0.384115,0.8782 0.801895,1.6194 1.243263,2.2033 0.424533,0.5617 1.034327,1.0333 1.813715,1.4028 0.785061,0.3721 1.841806,0.5592 3.142321,0.5592 1.789052,0 3.255742,-0.3818 4.358573,-1.1354 1.076905,-0.7343 1.600102,-1.6173 1.600102,-2.6987 0,-0.8547 -0.27393,-1.525 -0.835473,-2.0516 -0.589539,-0.5502 -1.364339,-0.9795 -2.308918,-1.2737 -0.982564,-0.3055 -2.317917,-0.6369 -3.967708,-0.9826 -2.244913,-0.4806 -4.153061,-1.0511 -5.670253,-1.6971 -1.550946,-0.6589 -2.801954,-1.5741 -3.716191,-2.7197 -0.928734,-1.1612 -1.399268,-2.6204 -1.399268,-4.335 0,-1.6344 0.494121,-3.1075 1.468942,-4.378 0.966901,-1.2619 2.379761,-2.2427 4.199059,-2.9152 1.795717,-0.6639 3.930709,-1.0006 6.346391,-1.0006 1.93263,0 3.630673,0.2234 5.049207,0.6648 1.425012,0.4436 2.627942,1.0435 3.572341,1.781 0.951329,0.7438 1.658882,1.5385 2.10349,2.364 0.449196,0.8355 0.676227,1.6646 0.676227,2.4683 0,0.7727 -0.297693,1.4759 -0.887141,2.0869 -0.593052,0.6167 -1.339947,0.9299 -2.221506,0.9299 -0.800819,0 -1.428524,-0.1967 -1.863142,-0.5817 -0.405449,-0.357 -0.825479,-0.9163 -1.291601,-1.7182 -0.540121,-1.0255 -1.192584,-1.8329 -1.941634,-2.4025 -0.72664,-0.5534 -1.941817,-0.8341 -3.611773,-0.8341 -1.550948,0 -2.810954,0.3118 -3.747609,0.9252 -0.9029,0.5918 -1.340936,1.2715 -1.340936,2.0744 0,0.4928 0.140431,0.904 0.431286,1.2587 0.307689,0.3751 0.741223,0.7053 1.289263,0.9795 0.568292,0.2865 1.154505,0.513 1.740711,0.6747 0.601961,0.1674 1.611535,0.4146 2.993964,0.7347 1.750885,0.3752 3.360166,0.7962 4.783106,1.2511 1.439777,0.4613 2.685109,1.0294 3.699451,1.6903 1.036489,0.6747 1.857556,1.5408 2.439175,2.5761 0.584045,1.0375 0.879312,2.3199 0.879312,3.8092 C 36.849188,1035.8956 36.340577,1037.5207 35.335416,1038.9415 Z"
       id="path857" />
  </g>
</svg>
