<?xml version="1.0" encoding="UTF-8" standalone="no"?>
<!-- Created with Inkscape (http://www.inkscape.org/) -->

<svg
   xmlns:dc="http://purl.org/dc/elements/1.1/"
   xmlns:cc="http://creativecommons.org/ns#"
   xmlns:rdf="http://www.w3.org/1999/02/22-rdf-syntax-ns#"
   xmlns:svg="http://www.w3.org/2000/svg"
   xmlns="http://www.w3.org/2000/svg"
   xmlns:sodipodi="http://sodipodi.sourceforge.net/DTD/sodipodi-0.dtd"
   xmlns:inkscape="http://www.inkscape.org/namespaces/inkscape"
   width="48"
   height="48"
   id="svg2"
   version="1.1"
   inkscape:version="0.48+devel r12392"
   sodipodi:docname="rpmdrake.svg">
  <defs
     id="defs4" />
  <sodipodi:namedview
     id="base"
     pagecolor="#ffffff"
     bordercolor="#666666"
     borderopacity="1.0"
     inkscape:pageopacity="0.0"
     inkscape:pageshadow="2"
     inkscape:zoom="1.4522885"
     inkscape:cx="-94.197214"
     inkscape:cy="40.257419"
     inkscape:document-units="px"
     inkscape:current-layer="layer1"
     showgrid="false"
     inkscape:showpageshadow="false"
     borderlayer="true"
     inkscape:window-width="1366"
     inkscape:window-height="718"
     inkscape:window-x="0"
     inkscape:window-y="30"
     inkscape:window-maximized="1" />
  <metadata
     id="metadata7">
    <rdf:RDF>
      <cc:Work
         rdf:about="">
        <dc:format>image/svg+xml</dc:format>
        <dc:type
           rdf:resource="http://purl.org/dc/dcmitype/StillImage" />
        <dc:title />
      </cc:Work>
    </rdf:RDF>
  </metadata>
  <g
     inkscape:label="Capa 1"
     inkscape:groupmode="layer"
     id="layer1"
     transform="translate(0,-1004.3622)">
    <path
       style="fill:#431900;fill-opacity:1;stroke:none"
       d="m 6.137495,1011.0917 0,5.7529 0.27395,0 0,8.287 -5.41049,1.9176 5.41049,0 35.20246,0 5.4105,0 -5.4105,-1.9176 0,-8.287 0.27395,0 0,-5.7529 L 6.137495,1011.0917 Z"
       id="rect4269"
       inkscape:connector-curvature="0" />
    <g
       id="g4342"
       transform="matrix(2.1915929,0,0,2.1915929,449.86657,-1237.5915)">
      <rect
         transform="matrix(0.96592583,-0.25881905,0.25881905,0.96592583,0,0)"
         y="943.23767"
         x="-461.53049"
         height="7.6875"
         width="7.6875"
         id="rect4330"
         style="fill:#3492b5;fill-opacity:1;stroke:none" />
      <rect
         transform="matrix(0.96592583,0.25881905,-0.25881905,0.96592583,0,0)"
         style="fill:#7ab53b;fill-opacity:1;stroke:none"
         id="rect4332"
         width="7.6875"
         height="7.6875"
         x="79.365631"
         y="1043.5786" />
      <rect
         transform="matrix(0.70710678,0.70710678,-0.70710678,0.70710678,0,0)"
         y="864.56268"
         x="590.42621"
         height="7.6875"
         width="7.6875"
         id="rect4334"
         style="fill:#ef7462;fill-opacity:1;stroke:none" />
    </g>
    <path
       style="fill:#f0bf63;fill-opacity:1;stroke:none"
       d="m 0.975595,1027.0715 46.03721,0 -1.53457,24.2778 L 2.509865,1051.3493 Z"
       id="rect4180"
       inkscape:connector-curvature="0"
       sodipodi:nodetypes="ccccc" />
    <path
       style="fill:#000000;fill-opacity:0.39215687;stroke:none"
       d="M 2.4375 46.25 L 2.5 47 L 45.46875 47 L 45.53125 46.25 L 2.4375 46.25 z "
       transform="translate(0,1004.3622)"
       id="path4042" />
    <path
       style="fill:#f0bf63;fill-opacity:1;stroke:none"
       d="m 6.097895,1016.4558 -5.1223,10.6157 18.53833,-5.6833 L 19.513905,1013.4533 Z"
       id="path4183"
       inkscape:connector-curvature="0"
       sodipodi:nodetypes="ccccc" />
    <path
       sodipodi:nodetypes="ccccc"
       inkscape:connector-curvature="0"
       id="path4185"
       d="m 41.890485,1016.4558 5.12232,10.6157 -18.53835,-5.6833 L 28.474455,1013.4533 Z"
       style="fill:#f0bf63;fill-opacity:1;stroke:none" />
    <path
       sodipodi:nodetypes="ccccccc"
       inkscape:connector-curvature="0"
       id="path4187"
       d="m 3.824975,1005.3622 40.33846,0 -0.10958,3.0818 -2.08202,3.0821 -35.95527,0 L 3.934555,1008.4442 Z"
       style="fill:#f0bf63;fill-opacity:1;stroke:none" />
    <path
       style="fill:#f6d89f;fill-opacity:0.7356322;stroke:none"
       d="m 5.468405,1010.6808 0.5479,0.8218 35.95582,0 0.5479,-0.8218 L 5.468405,1010.6808 Z"
       id="rect4196"
       inkscape:connector-curvature="0" />
    <path
       style="fill:#eddebe;fill-opacity:0.51724135;stroke:none"
       d="m 17.712945,1046.7744 -0.001,4.5878 12.60166,0 0.001,-4.5878 -1.71218,0 c -0.0395,0.7756 -0.65347,1.4382 -1.43824,1.4382 -0.78586,0 -1.46893,-0.6611 -1.50672,-1.4382 l -3.35587,0 c -0.0394,0.7756 -0.65347,1.4382 -1.43824,1.4382 C 20.077495,1048.2126 19.394425,1047.5515 19.356635,1046.7744 Z"
       id="rect4282"
       inkscape:connector-curvature="0"
       sodipodi:nodetypes="cccccsccscc" />
    <path
       style="fill:#e0c48d;fill-opacity:0.62068936;stroke:none"
       d="m 17.986895,1047.2538 -0.001,4.1084 11.98527,0 0.001,-4.1084 -0.95882,0 c -0.23801,0.7888 -0.98848,1.3697 -1.84916,1.3697 -0.86068,0 -1.61115,-0.5809 -1.84915,-1.3697 l -2.60252,0 c -0.23801,0.7888 -0.98847,1.3697 -1.84916,1.3697 C 20.002675,1048.6235 19.252205,1048.0426 19.014205,1047.2538 Z"
       id="rect4280"
       inkscape:connector-curvature="0"
       sodipodi:nodetypes="cccccsccscc" />
    <path
       style="fill:#8a4e17;fill-opacity:1;stroke:none"
       d="m 20.588315,1031.6379 0,6.6432 -2.19159,0 5.61595,6.3693 5.54747,-6.3693 -2.1231,0 0,-6.6432 L 20.588315,1031.6379 Z"
       id="rect4325"
       inkscape:connector-curvature="0" />
  </g>
</svg>
