<svg xmlns="http://www.w3.org/2000/svg" width="48" height="48" viewBox="0 0 13.546667 13.546667">
 <g transform="translate(0,-283.45333)">
  <rect width="11.289" height="11.289" x="1.129" y="284.58" style="fill:#ff8000" fill-rule="evenodd" rx="0"/>
  <rect width="10.16" height="2.54" x="1.693" y="285.15" style="fill:#2c2c2c" fill-rule="evenodd" rx="0"/>
  <rect y="288.25" x="3.669" height="1.129" width="1.129" style="fill:#2c2c2c" fill-rule="evenodd" rx="0.563"/>
  <rect width="1.129" height="1.129" x="8.749" y="288.25" style="fill:#2c2c2c" fill-rule="evenodd" rx="0.563"/>
  <path d="m 10.865595,292.76666 c -0.857243,0 -1.5521836,0.69494 -1.5521836,1.55211 0,0.85732 0.6949406,1.55233 1.5521836,1.55233 0.857262,0 1.552183,-0.69501 1.552183,-1.55233 0,-0.85717 -0.694921,-1.55211 -1.552183,-1.55211 z m 0.553269,0.4327 c 0.02671,0.004 0.05314,0.0124 0.07791,0.0261 0.09912,0.0571 0.13332,0.18401 0.07609,0.28315 -0.0572,0.0989 -0.184042,0.13291 -0.283153,0.0758 -0.09909,-0.0573 -0.132996,-0.18425 -0.07579,-0.28314 0.04292,-0.0745 0.124814,-0.11182 0.204936,-0.10191 z m -0.553269,0.2191 c 0.08334,0 0.163835,0.0121 0.240406,0.0328 0.01355,0.0834 0.0631,0.15999 0.141881,0.20558 0.07866,0.0454 0.169506,0.0497 0.248287,0.0198 0.153251,0.15081 0.253155,0.35597 0.267691,0.58429 l -0.295277,0.005 c -0.02718,-0.30914 -0.286739,-0.55179 -0.602988,-0.55179 -0.09113,0 -0.177451,0.0203 -0.254959,0.0564 l -0.144001,-0.25797 c 0.120267,-0.0595 0.255655,-0.0934 0.39896,-0.0934 z m -0.499305,0.15127 0.151276,0.25377 c -0.15562,0.1096 -0.257384,0.29063 -0.257384,0.49527 0,0.2049 0.101765,0.3859 0.257384,0.49548 l -0.151276,0.25378 c -0.181358,-0.12132 -0.31626,-0.30664 -0.3722827,-0.5236 0.065461,-0.0533 0.1070167,-0.13445 0.1070167,-0.22566 0,-0.0911 -0.04156,-0.17207 -0.1070167,-0.22545 0.056032,-0.21695 0.1909357,-0.40245 0.3722827,-0.52359 z m -0.5563018,0.54169 c 0.1144342,0 0.2073628,0.0929 0.2073628,0.20735 0,0.11462 -0.092929,0.20737 -0.2073628,0.20737 -0.1144727,0 -0.2070577,-0.0928 -0.2070577,-0.20737 0,-0.11438 0.092585,-0.20735 0.2070577,-0.20735 z m 1.6585948,0.26108 0.295277,0.005 c -0.01452,0.22814 -0.114156,0.43315 -0.267388,0.58376 -0.07879,-0.0297 -0.169939,-0.0251 -0.248591,0.0203 -0.07879,0.0455 -0.12833,0.12232 -0.14188,0.20563 -0.07658,0.0211 -0.157066,0.0328 -0.240406,0.0328 -0.143305,0 -0.278683,-0.0338 -0.39896,-0.0935 l 0.144001,-0.25807 c 0.07752,0.0361 0.163832,0.0564 0.254959,0.0564 0.316249,0 0.575808,-0.24247 0.602988,-0.55168 z m -0.100953,0.65483 c 0.08012,-0.0105 0.162333,0.0276 0.20524,0.10191 0.05723,0.0991 0.0233,0.22585 -0.07579,0.28316 -0.09912,0.0572 -0.225927,0.0234 -0.283152,-0.0758 -0.05722,-0.0991 -0.02333,-0.22585 0.07579,-0.28315 0.02477,-0.015 0.05121,-0.0227 0.07791,-0.0261 z" style="fill:#ffffff"/>
  <rect transform="matrix(0,-1,1,0,0,0)" y="3.951" x="-291.5" height="0.564" width="2.54" style="fill:#ffffff" fill-rule="evenodd" rx="0.282"/>
  <rect width="2.54" height="0.564" x="-291.5" y="9.03" transform="matrix(0,-1,1,0,0,0)" style="fill:#ffffff" fill-rule="evenodd" rx="0.282"/>
  <rect width="5.644" height="0.564" x="3.951" y="290.94" style="fill:#ffffff" fill-rule="evenodd" rx="0.282"/>
 </g>
</svg>
