<?xml version="1.0" encoding="UTF-8" standalone="no"?>
<!-- Created with Inkscape (http://www.inkscape.org/) -->

<svg
   xmlns:dc="http://purl.org/dc/elements/1.1/"
   xmlns:cc="http://creativecommons.org/ns#"
   xmlns:rdf="http://www.w3.org/1999/02/22-rdf-syntax-ns#"
   xmlns:svg="http://www.w3.org/2000/svg"
   xmlns="http://www.w3.org/2000/svg"
   xmlns:sodipodi="http://sodipodi.sourceforge.net/DTD/sodipodi-0.dtd"
   xmlns:inkscape="http://www.inkscape.org/namespaces/inkscape"
   width="48"
   height="48"
   id="svg2"
   version="1.1"
   inkscape:version="0.48+devel r12677"
   sodipodi:docname="drakstats.svg">
  <defs
     id="defs4" />
  <sodipodi:namedview
     id="base"
     pagecolor="#ffffff"
     bordercolor="#666666"
     borderopacity="1.0"
     inkscape:pageopacity="0.0"
     inkscape:pageshadow="2"
     inkscape:zoom="8"
     inkscape:cx="28.860952"
     inkscape:cy="27.049371"
     inkscape:document-units="px"
     inkscape:current-layer="layer1"
     showgrid="false"
     inkscape:showpageshadow="false"
     borderlayer="true"
     inkscape:window-width="1366"
     inkscape:window-height="718"
     inkscape:window-x="0"
     inkscape:window-y="30"
     inkscape:window-maximized="1">
    <sodipodi:guide
       position="9,39.000017"
       orientation="30,0"
       id="guide3275" />
    <sodipodi:guide
       position="9,9.0000174"
       orientation="0,30"
       id="guide3277" />
    <sodipodi:guide
       position="39,9.0000174"
       orientation="-30,0"
       id="guide3279" />
    <sodipodi:guide
       position="39,39.000017"
       orientation="0,-30"
       id="guide3281" />
    <sodipodi:guide
       position="4,44.000017"
       orientation="40,0"
       id="guide4198" />
    <sodipodi:guide
       position="4,4.0000174"
       orientation="0,40"
       id="guide4200" />
    <sodipodi:guide
       position="44,4.0000174"
       orientation="-40,0"
       id="guide4202" />
    <sodipodi:guide
       position="44,44.000017"
       orientation="0,-40"
       id="guide4204" />
    <sodipodi:guide
       position="20.5,8.0002615"
       orientation="4,0"
       id="guide4210" />
    <sodipodi:guide
       position="20.5,4.0002615"
       orientation="0,7"
       id="guide4212" />
    <sodipodi:guide
       position="27.5,4.0002615"
       orientation="-4,0"
       id="guide4214" />
    <sodipodi:guide
       position="27.5,8.0002615"
       orientation="0,-7"
       id="guide4216" />
    <sodipodi:guide
       position="20.5,44.000017"
       orientation="4,0"
       id="guide4229" />
    <sodipodi:guide
       position="20.5,40.000017"
       orientation="0,7"
       id="guide4231" />
    <sodipodi:guide
       position="27.5,40.000017"
       orientation="-4,0"
       id="guide4233" />
    <sodipodi:guide
       position="27.5,44.000017"
       orientation="0,-7"
       id="guide4235" />
  </sodipodi:namedview>
  <metadata
     id="metadata7">
    <rdf:RDF>
      <cc:Work
         rdf:about="">
        <dc:format>image/svg+xml</dc:format>
        <dc:type
           rdf:resource="http://purl.org/dc/dcmitype/StillImage" />
        <dc:title />
      </cc:Work>
    </rdf:RDF>
  </metadata>
  <g
     inkscape:label="Capa 1"
     inkscape:groupmode="layer"
     id="layer1"
     transform="translate(0,-1004.3622)">
    <rect
       style="fill:none;stroke:none"
       id="rect3289"
       width="4"
       height="4"
       x="22"
       y="1004.3622"
       ry="2" />
    <rect
       ry="2"
       y="1048.3622"
       x="22"
       height="4"
       width="4"
       id="rect3291"
       style="fill:none;stroke:none" />
    <rect
       style="fill:#d4a275;fill-opacity:1;fill-rule:evenodd;stroke:none"
       id="rect3304"
       width="40"
       height="40"
       x="4"
       y="1008.3622"
       ry="0" />
    <path
       style="fill:#c89766;fill-opacity:1;fill-rule:evenodd;stroke:none"
       d="M 5.9003906 4 L 5.9003906 44 L 6.0996094 44 L 6.0996094 4 L 5.9003906 4 z M 7.9003906 4 L 7.9003906 44 L 8.0996094 44 L 8.0996094 4 L 7.9003906 4 z M 9.9003906 4 L 9.9003906 44 L 10.099609 44 L 10.099609 4 L 9.9003906 4 z M 11.900391 4 L 11.900391 44 L 12.099609 44 L 12.099609 4 L 11.900391 4 z M 13.900391 4 L 13.900391 44 L 14.099609 44 L 14.099609 4 L 13.900391 4 z M 15.900391 4 L 15.900391 44 L 16.099609 44 L 16.099609 4 L 15.900391 4 z M 17.900391 4 L 17.900391 44 L 18.099609 44 L 18.099609 4 L 17.900391 4 z M 19.900391 4 L 19.900391 44 L 20.099609 44 L 20.099609 4 L 19.900391 4 z M 21.900391 4 L 21.900391 44 L 22.099609 44 L 22.099609 4 L 21.900391 4 z M 23.900391 4 L 23.900391 44 L 24.099609 44 L 24.099609 4 L 23.900391 4 z M 25.900391 4 L 25.900391 44 L 26.099609 44 L 26.099609 4 L 25.900391 4 z M 27.900391 4 L 27.900391 44 L 28.099609 44 L 28.099609 4 L 27.900391 4 z M 29.900391 4 L 29.900391 44 L 30.099609 44 L 30.099609 4 L 29.900391 4 z M 31.900391 4 L 31.900391 44 L 32.099609 44 L 32.099609 4 L 31.900391 4 z M 33.900391 4 L 33.900391 44 L 34.099609 44 L 34.099609 4 L 33.900391 4 z M 35.900391 4 L 35.900391 44 L 36.099609 44 L 36.099609 4 L 35.900391 4 z M 37.900391 4 L 37.900391 44 L 38.099609 44 L 38.099609 4 L 37.900391 4 z M 39.900391 4 L 39.900391 44 L 40.099609 44 L 40.099609 4 L 39.900391 4 z M 41.900391 4 L 41.900391 44 L 42.099609 44 L 42.099609 4 L 41.900391 4 z "
       transform="translate(0,1004.3622)"
       id="rect3340" />
    <path
       style="fill:#201810;fill-opacity:1;stroke:none"
       d="M 23.996094 15 C 21.639736 15.0002 19.297777 15.970619 17.632812 17.636719 C 15.967848 19.302819 15 21.644 15 24 C 15 26.356 15.967848 28.697181 17.632812 30.363281 C 19.297777 32.029381 21.639736 32.9998 23.996094 33 C 26.35245 33.0002 28.694239 32.029381 30.361328 30.363281 C 32.028418 28.697181 33 26.3563 33 24 C 33 21.6437 32.028418 19.302819 30.361328 17.636719 C 28.694239 15.970619 26.35245 14.9998 23.996094 15 z M 23.996094 17 C 27.661538 16.9998 31 20.3347 31 24 C 31 27.6653 27.661538 31.0002 23.996094 31 C 20.330649 30.9998 17 27.665 17 24 C 17 20.335 20.330649 17.0002 23.996094 17 z "
       transform="translate(0,1004.3622)"
       id="path3331" />
    <rect
       style="fill:#201810;fill-opacity:1;fill-rule:evenodd;stroke:none"
       id="rect4351"
       width="4"
       height="7"
       x="22"
       y="1023.3622" />
    <path
       sodipodi:type="star"
       style="fill:#201810;fill-opacity:1;fill-rule:evenodd;stroke:none"
       id="path4353"
       sodipodi:sides="3"
       sodipodi:cx="24.000002"
       sodipodi:cy="1033.1117"
       sodipodi:r1="4.2504597"
       sodipodi:r2="2.1252298"
       sodipodi:arg1="1.5707963"
       sodipodi:arg2="2.6179939"
       inkscape:flatsided="true"
       inkscape:rounded="0"
       inkscape:randomized="0"
       d="m 24.000002,1037.3622 -3.681006,-6.3757 7.362012,0 z"
       inkscape:transform-center-y="1.0001363"
       transform="matrix(1.4941567,0,0,0.94107467,-11.859764,57.126936)" />
    <rect
       ry="2"
       y="1026.3622"
       x="44"
       height="4"
       width="4"
       id="rect3287"
       style="fill:none;stroke:none" />
    <rect
       style="fill:none;stroke:none"
       id="rect3285"
       width="4"
       height="4"
       x="0"
       y="1026.3622"
       ry="2" />
    <path
       style="fill:#110d08;fill-opacity:1;fill-rule:evenodd;stroke:none"
       d="M 23.996094 15 C 23.964109 15.000003 23.932369 15.003547 23.900391 15.003906 L 23.900391 17.005859 C 23.932509 17.005346 23.963922 17.000002 23.996094 17 C 24.030783 16.999998 24.064981 17.005266 24.099609 17.005859 L 24.099609 15.005859 C 24.064994 15.005444 24.030717 14.999997 23.996094 15 z M 22.099609 15.214844 C 22.032792 15.229534 21.966865 15.247476 21.900391 15.263672 L 21.900391 17.367188 C 21.966638 17.344048 22.032691 17.321838 22.099609 17.300781 L 22.099609 15.214844 z M 25.900391 15.216797 L 25.900391 17.302734 C 25.967233 17.323819 26.033434 17.345979 26.099609 17.369141 L 26.099609 15.265625 C 26.033146 15.249371 25.967198 15.231545 25.900391 15.216797 z M 20.099609 15.908203 C 20.033439 15.939954 19.965778 15.968631 19.900391 16.001953 L 19.900391 18.457031 C 19.967133 18.406058 20.031259 18.35143 20.099609 18.302734 L 20.099609 15.908203 z M 27.900391 15.912109 L 27.900391 18.308594 C 27.967979 18.356793 28.033592 18.408562 28.099609 18.458984 L 28.099609 16.005859 C 28.034232 15.972471 27.96655 15.943927 27.900391 15.912109 z M 18.099609 17.214844 C 18.031933 17.273378 17.966245 17.333931 17.900391 17.394531 L 17.900391 20.726562 C 17.962069 20.618469 18.03246 20.515137 18.099609 20.410156 L 18.099609 17.214844 z M 29.900391 17.220703 L 29.900391 20.414062 C 29.967599 20.519085 30.03788 20.622336 30.099609 20.730469 L 30.099609 17.400391 C 30.033852 17.339821 29.967961 17.279215 29.900391 17.220703 z M 22 19 L 22 23 L 21.900391 23 L 21.900391 26.708984 L 22.099609 26.927734 L 22.099609 19 L 22 19 z M 23.900391 19 L 23.900391 28.890625 L 24 29 L 24.099609 28.890625 L 24.099609 19 L 23.900391 19 z M 25.900391 19 L 25.900391 26.927734 L 26.099609 26.708984 L 26.099609 23 L 26 23 L 26 19 L 25.900391 19 z M 16.099609 19.708984 C 16.02772 19.842238 15.965622 19.980526 15.900391 20.117188 L 15.900391 27.882812 C 15.965622 28.019474 16.02772 28.157762 16.099609 28.291016 L 16.099609 19.708984 z M 31.900391 19.712891 L 31.900391 28.287109 C 31.972501 28.153609 32.034185 28.015822 32.099609 27.878906 L 32.099609 20.121094 C 32.034185 19.984178 31.972501 19.846391 31.900391 19.712891 z M 19.900391 23 L 19.900391 24.527344 L 20.099609 24.744141 L 20.099609 23 L 19.900391 23 z M 27.900391 23 L 27.900391 24.744141 L 28.099609 24.527344 L 28.099609 23 L 27.900391 23 z M 30.099609 27.269531 C 30.03788 27.377664 29.967599 27.480915 29.900391 27.585938 L 29.900391 30.779297 C 29.967961 30.720785 30.033852 30.660179 30.099609 30.599609 L 30.099609 27.269531 z M 17.900391 27.273438 L 17.900391 30.605469 C 17.966245 30.666069 18.031933 30.726622 18.099609 30.785156 L 18.099609 27.589844 C 18.03246 27.484863 17.962069 27.381531 17.900391 27.273438 z M 28.099609 29.541016 C 28.033592 29.591438 27.967979 29.643207 27.900391 29.691406 L 27.900391 32.087891 C 27.96655 32.056073 28.034232 32.027529 28.099609 31.994141 L 28.099609 29.541016 z M 19.900391 29.542969 L 19.900391 31.998047 C 19.965778 32.031369 20.033439 32.060046 20.099609 32.091797 L 20.099609 29.697266 C 20.031259 29.64857 19.967133 29.593942 19.900391 29.542969 z M 26.099609 30.630859 C 26.033434 30.654021 25.967233 30.676181 25.900391 30.697266 L 25.900391 32.783203 C 25.967198 32.768455 26.033146 32.750629 26.099609 32.734375 L 26.099609 30.630859 z M 21.900391 30.632812 L 21.900391 32.736328 C 21.966865 32.752524 22.032792 32.770466 22.099609 32.785156 L 22.099609 30.699219 C 22.032691 30.678162 21.966638 30.655952 21.900391 30.632812 z M 23.900391 30.994141 L 23.900391 32.996094 C 23.932369 32.996453 23.964109 32.999997 23.996094 33 C 24.030717 33.000003 24.064994 32.994556 24.099609 32.994141 L 24.099609 30.994141 C 24.064981 30.994734 24.030783 31.000002 23.996094 31 C 23.963922 30.999998 23.932509 30.994654 23.900391 30.994141 z "
       transform="translate(0,1004.3622)"
       id="path3386" />
    <rect
       style="fill:none;stroke:none"
       id="rect3327"
       width="2"
       height="2"
       x="23"
       y="1019.3622"
       ry="1" />
    <rect
       ry="1"
       y="1021.3622"
       x="23"
       height="2"
       width="2"
       id="rect3334"
       style="fill:none;stroke:none" />
    <rect
       style="fill:none;stroke:none"
       id="rect3336"
       width="2"
       height="2"
       x="23"
       y="1035.3622"
       ry="1" />
    <rect
       ry="1"
       y="1033.3622"
       x="23"
       height="2"
       width="2"
       id="rect3338"
       style="fill:none;stroke:none" />
    <rect
       style="fill:#dbb797;fill-opacity:1;fill-rule:evenodd;stroke:none"
       id="rect4206"
       width="7"
       height="4.000001"
       x="20.5"
       y="1044.3619" />
    <rect
       y="1008.3622"
       x="20.5"
       height="4.000001"
       width="7"
       id="rect4223"
       style="fill:#dbb797;fill-opacity:1;fill-rule:evenodd;stroke:none" />
  </g>
</svg>
