<svg xmlns="http://www.w3.org/2000/svg" width="48" height="48" viewBox="0 0 13.546666 13.546668">
 <g transform="translate(38.119153,-397.84494)">
  <rect width="11.289" height="11.289" x="-36.99" y="398.97" style="fill:#2c3e50" rx="5.644"/>
  <rect y="68.801" x="-399.65" height="11.289" width="1.411" transform="matrix(0.25881905,-0.96592583,0.96592583,0.25881905,0,0)" style="fill:#e74c3c" rx="0"/>
  <rect transform="matrix(0.25881905,0.96592583,0.96592583,-0.25881905,0,0)" width="1.411" height="11.289" x="382.01" y="-140.65" style="fill:#e67e22" rx="0"/>
  <path d="M 36.375,8.0898438 23.253906,21.210938 28.830078,22.705078 39.910156,11.625 Z" transform="matrix(0.28222225,0,0,0.28222225,-38.119154,397.84494)" style="fill:#f39c12"/>
  <path d="M 26.761719 4.0351562 L 21.042969 25.378906 C 21.990042 25.140097 22.976725 25 24 25 C 24.774604 25 25.52872 25.079846 26.261719 25.21875 L 31.591797 5.328125 L 26.761719 4.0351562 z " transform="matrix(0.28222225,0,0,0.28222225,-38.119154,397.84494)" style="fill:#f1c40f"/>
  <path d="M 21.238281 4.0351562 L 16.408203 5.328125 L 21.738281 25.21875 C 22.47128 25.079846 23.225396 25 24 25 C 25.023275 25 26.009958 25.140097 26.957031 25.378906 L 21.238281 4.0351562 z " transform="matrix(0.28222225,0,0,0.28222225,-38.119154,397.84494)" style="fill:#e67e22"/>
  <path d="M 11.625,8.0898438 8.0898438,11.625 21.689453,25.224609 C 22.437392,25.079716 23.208472,25 24,25 c 2.344641,0 4.520936,0.676581 6.365234,1.830078 z" transform="matrix(0.28222225,0,0,0.28222225,-38.119154,397.84494)" style="fill:#f39c12"/>
  <rect width="1.411" height="5.08" x="-32.05" y="405.18" style="fill:#c0392b" rx="0"/>
  <rect transform="matrix(0.25881905,-0.96592583,0.96592583,0.25881905,0,0)" width="1.411" height="11.289" x="-399.65" y="68.801" style="fill:#e67e22" rx="0"/>
 </g>
</svg>
