<svg xmlns="http://www.w3.org/2000/svg" width="48" height="48" viewBox="0 0 13.546666 13.546668">
 <g transform="translate(38.119153,-397.84494)">
  <rect width="11.289" height="11.289" x="-36.99" y="398.97" style="fill:#2c3e50" rx="5.644"/>
  <path d="M 31.5 18.199219 C 29.753189 18.199219 28.324945 19.469837 28.056641 21.138672 C 28.056427 21.140002 28.0549 21.141248 28.054688 21.142578 L 25.849609 26.744141 C 25.701854 26.721933 25.554528 26.699219 25.400391 26.699219 C 24.827195 26.699219 24.298273 26.867829 23.84375 27.144531 L 19.953125 24.462891 C 19.981041 24.312788 20 24.158433 20 24 C 20 22.615 18.885 21.5 17.5 21.5 C 16.115 21.5 15 22.615 15 24 C 15 25.385 16.115 26.5 17.5 26.5 C 17.989054 26.5 18.441651 26.356079 18.826172 26.115234 L 22.582031 28.703125 C 22.471867 29.016127 22.400391 29.347617 22.400391 29.699219 C 22.400391 31.361207 23.738392 32.699219 25.400391 32.699219 C 27.062393 32.699219 28.400391 31.361207 28.400391 29.699219 C 28.400391 29.352098 28.330151 29.024462 28.222656 28.714844 L 32.234375 25.121094 C 33.81797 24.785061 35 23.38584 35 21.699219 C 35 19.760219 33.439 18.199219 31.5 18.199219 z M 31.5 19.199219 C 32.885 19.199219 34 20.314219 34 21.699219 C 34 23.084219 32.885 24.199219 31.5 24.199219 C 30.115 24.199219 29 23.084219 29 21.699219 C 29 20.314219 30.115 19.199219 31.5 19.199219 z M 31.5 19.699219 C 30.392 19.699219 29.5 20.591219 29.5 21.699219 C 29.5 22.807219 30.392 23.699219 31.5 23.699219 C 32.608 23.699219 33.5 22.807219 33.5 21.699219 C 33.5 20.591219 32.608 19.699219 31.5 19.699219 z M 17.5 22.5 C 18.259296 22.5 18.876475 23.060713 18.978516 23.791016 L 18.599609 23.529297 C 18.143478 23.214877 17.523405 23.329025 17.208984 23.785156 C 16.894564 24.241288 17.008712 24.861361 17.464844 25.175781 L 17.863281 25.451172 C 17.746378 25.480228 17.626142 25.5 17.5 25.5 C 16.669 25.5 16 24.831 16 24 C 16 23.169 16.669 22.5 17.5 22.5 z M 26.224609 26.826172 C 26.24968 26.833304 26.274041 26.841852 26.298828 26.849609 C 26.27408 26.841843 26.249633 26.833313 26.224609 26.826172 z M 27.287109 27.380859 C 27.305418 27.395772 27.323857 27.410444 27.341797 27.425781 C 27.323823 27.410434 27.30545 27.395784 27.287109 27.380859 z M 25.400391 27.699219 C 26.508393 27.699219 27.400391 28.591227 27.400391 29.699219 C 27.400391 30.807211 26.508393 31.699219 25.400391 31.699219 C 24.292392 31.699219 23.400391 30.807211 23.400391 29.699219 C 23.400391 29.56072 23.414852 29.425351 23.441406 29.294922 L 24.875 30.283203 C 25.331131 30.597623 25.951205 30.483475 26.265625 30.027344 C 26.580045 29.571212 26.465897 28.951139 26.009766 28.636719 L 24.796875 27.800781 C 24.988058 27.740392 25.18873 27.699219 25.400391 27.699219 z " transform="matrix(0.28222225,0,0,0.28222225,-38.119154,397.84494)" style="fill:#ecf0f1"/>
 </g>
</svg>
