<?xml version="1.0" encoding="UTF-8" standalone="no"?>
<!-- Created with Inkscape (http://www.inkscape.org/) -->

<svg
   xmlns:dc="http://purl.org/dc/elements/1.1/"
   xmlns:cc="http://creativecommons.org/ns#"
   xmlns:rdf="http://www.w3.org/1999/02/22-rdf-syntax-ns#"
   xmlns:svg="http://www.w3.org/2000/svg"
   xmlns="http://www.w3.org/2000/svg"
   xmlns:sodipodi="http://sodipodi.sourceforge.net/DTD/sodipodi-0.dtd"
   xmlns:inkscape="http://www.inkscape.org/namespaces/inkscape"
   width="48"
   height="48"
   id="svg2"
   version="1.1"
   inkscape:version="0.48.4 r9939"
   viewBox="0 0 13.546666 13.546668"
   sodipodi:docname="steam.svg">
  <defs
     id="defs4" />
  <sodipodi:namedview
     id="base"
     pagecolor="#ffffff"
     bordercolor="#666666"
     borderopacity="1.0"
     inkscape:pageopacity="0"
     inkscape:pageshadow="2"
     inkscape:zoom="10.875"
     inkscape:cx="7.8881875"
     inkscape:cy="23.169349"
     inkscape:document-units="px"
     inkscape:current-layer="layer1"
     showgrid="false"
     inkscape:showpageshadow="false"
     borderlayer="true"
     units="px"
     fit-margin-top="0"
     fit-margin-left="0"
     fit-margin-right="0"
     fit-margin-bottom="0"
     showguides="true"
     inkscape:window-width="1366"
     inkscape:window-height="720"
     inkscape:window-x="0"
     inkscape:window-y="21"
     inkscape:window-maximized="1">
    <sodipodi:guide
       position="-6.6748425e-06,47.999999"
       orientation="47.999977,0"
       id="guide4120" />
    <sodipodi:guide
       position="-6.6748425e-06,2.2810037e-05"
       orientation="0,48.000004"
       id="guide4122" />
    <sodipodi:guide
       position="47.999997,2.2810037e-05"
       orientation="-47.999977,0"
       id="guide4124" />
    <sodipodi:guide
       position="47.999997,47.999999"
       orientation="0,-48.000004"
       id="guide4126" />
    <sodipodi:guide
       position="3.9999733,44.000154"
       orientation="39.999962,0"
       id="guide4138" />
    <sodipodi:guide
       position="3.9999733,4.0001921"
       orientation="0,40.000003"
       id="guide4140" />
    <sodipodi:guide
       position="43.999976,4.0001921"
       orientation="-39.999962,0"
       id="guide4142" />
    <sodipodi:guide
       position="43.999976,44.000154"
       orientation="0,-40.000003"
       id="guide4144" />
    <sodipodi:guide
       position="6.9999922,47.999999"
       orientation="39.999962,0"
       id="guide4148" />
    <sodipodi:guide
       position="6.9999922,8.0000369"
       orientation="0,34.000006"
       id="guide4150" />
    <sodipodi:guide
       position="40.999998,8.0000369"
       orientation="-39.999962,0"
       id="guide4152" />
    <sodipodi:guide
       position="40.999998,47.999999"
       orientation="0,-34.000006"
       id="guide4154" />
    <sodipodi:guide
       position="14.999993,32.999986"
       orientation="17.999951,0"
       id="guide4158" />
    <sodipodi:guide
       position="14.999993,15.000036"
       orientation="0,17.999998"
       id="guide4160" />
    <sodipodi:guide
       position="32.999991,15.000036"
       orientation="-17.999951,0"
       id="guide4162" />
    <sodipodi:guide
       position="32.999991,32.999986"
       orientation="0,-17.999998"
       id="guide4164" />
    <sodipodi:guide
       position="1.9999969,44.000046"
       orientation="39.999962,0"
       id="guide3279" />
    <sodipodi:guide
       position="1.9999969,4.0000839"
       orientation="0,44.000003"
       id="guide3281" />
    <sodipodi:guide
       position="46,4.0000839"
       orientation="-39.999962,0"
       id="guide3283" />
    <sodipodi:guide
       position="46,44.000046"
       orientation="0,-44.000003"
       id="guide3285" />
  </sodipodi:namedview>
  <metadata
     id="metadata7">
    <rdf:RDF>
      <cc:Work
         rdf:about="">
        <dc:format>image/svg+xml</dc:format>
        <dc:type
           rdf:resource="http://purl.org/dc/dcmitype/StillImage" />
        <dc:title />
      </cc:Work>
    </rdf:RDF>
  </metadata>
  <g
     inkscape:label="Capa 1"
     inkscape:groupmode="layer"
     id="layer1"
     transform="translate(38.119153,-397.84494)">
    <rect
       style="fill:#2c3e50;fill-opacity:1;stroke:none"
       id="rect4118"
       width="11.288891"
       height="11.288879"
       x="-36.990273"
       y="398.97379"
       ry="5.6444397" />
    <path
       style="fill:#ecf0f1;fill-opacity:1;stroke:none"
       d="m -29.201904,402.08584 c -0.570054,0 -1.036147,0.44387 -1.123705,1.02686 -7e-5,4.6e-4 -5.69e-4,9e-4 -6.38e-4,0.001 l -0.719605,1.95684 c -0.04821,-0.008 -0.0963,-0.0157 -0.146597,-0.0157 -0.187057,0 -0.359665,0.0589 -0.507994,0.15558 l -1.269666,-0.9368 c 0.0091,-0.0525 0.0153,-0.10636 0.0153,-0.16171 0,-0.48383 -0.36387,-0.87335 -0.81585,-0.87335 -0.451981,0 -0.815849,0.38952 -0.815849,0.87335 0,0.48383 0.363868,0.87334 0.815849,0.87334 0.159598,0 0.307298,-0.0502 0.432783,-0.13441 l 1.225686,0.90405 c -0.03595,0.10934 -0.05928,0.22514 -0.05928,0.34798 0,0.58059 0.436642,1.04801 0.979019,1.04801 0.542378,0 0.979019,-0.46742 0.979019,-1.04801 0,-0.12127 -0.02292,-0.23572 -0.058,-0.34389 l 1.309184,-1.25543 c 0.516789,-0.11739 0.902532,-0.60619 0.902532,-1.19539 0,-0.67736 -0.509415,-1.22269 -1.142188,-1.22269 z m 0,0.34934 c 0.45198,0 0.815849,0.38951 0.815849,0.87335 0,0.48382 -0.363869,0.87334 -0.815849,0.87334 -0.451981,0 -0.81585,-0.38952 -0.81585,-0.87334 0,-0.48384 0.363869,-0.87335 0.81585,-0.87335 z m 0,0.17467 c -0.361585,0 -0.65268,0.31161 -0.65268,0.69868 0,0.38706 0.291095,0.69866 0.65268,0.69866 0.361584,0 0.652679,-0.3116 0.652679,-0.69866 0,-0.38707 -0.291095,-0.69868 -0.652679,-0.69868 z m -4.568757,0.97842 c 0.247788,0 0.449199,0.19588 0.482498,0.451 l -0.123652,-0.0915 c -0.148853,-0.10983 -0.351208,-0.07 -0.453816,0.0894 -0.102608,0.15934 -0.06536,0.37595 0.0835,0.4858 l 0.130026,0.0962 c -0.03815,0.0101 -0.07738,0.017 -0.118553,0.017 -0.271188,0 -0.489509,-0.23371 -0.489509,-0.52401 0,-0.2903 0.218321,-0.524 0.489509,-0.524 z m 2.847187,1.5113 c 0.0082,0.002 0.01613,0.005 0.02422,0.008 -0.0081,-0.003 -0.01605,-0.006 -0.02422,-0.008 z m 0.346736,0.19377 c 0.006,0.005 0.01199,0.0103 0.01784,0.0157 -0.0059,-0.005 -0.01186,-0.0105 -0.01784,-0.0157 z m -0.615711,0.11121 c 0.361585,0 0.652679,0.31161 0.652679,0.69868 0,0.38706 -0.291094,0.69867 -0.652679,0.69867 -0.361584,0 -0.65268,-0.31161 -0.65268,-0.69867 0,-0.0484 0.0048,-0.0956 0.01339,-0.14124 l 0.467839,0.34524 c 0.148853,0.10984 0.351208,0.07 0.453816,-0.0893 0.102608,-0.15934 0.06536,-0.37596 -0.0835,-0.48579 l -0.395814,-0.29203 c 0.06239,-0.0211 0.127877,-0.0355 0.196951,-0.0355 z"
       id="rect4139"
       inkscape:connector-curvature="0" />
  </g>
</svg>
