<?xml version="1.0" encoding="UTF-8" standalone="no"?>
<!-- Created with Inkscape (http://www.inkscape.org/) -->

<svg
   xmlns:dc="http://purl.org/dc/elements/1.1/"
   xmlns:cc="http://creativecommons.org/ns#"
   xmlns:rdf="http://www.w3.org/1999/02/22-rdf-syntax-ns#"
   xmlns:svg="http://www.w3.org/2000/svg"
   xmlns="http://www.w3.org/2000/svg"
   xmlns:sodipodi="http://sodipodi.sourceforge.net/DTD/sodipodi-0.dtd"
   xmlns:inkscape="http://www.inkscape.org/namespaces/inkscape"
   id="svg3020"
   version="1.1"
   inkscape:version="0.48.4 r9939"
   width="232.74797"
   height="209.75951"
   sodipodi:docname="sublime-text.svg">
  <metadata
     id="metadata3026">
    <rdf:RDF>
      <cc:Work
         rdf:about="">
        <dc:format>image/svg+xml</dc:format>
        <dc:type
           rdf:resource="http://purl.org/dc/dcmitype/StillImage" />
        <dc:title></dc:title>
      </cc:Work>
    </rdf:RDF>
  </metadata>
  <defs
     id="defs3024" />
  <sodipodi:namedview
     pagecolor="#ffffff"
     bordercolor="#666666"
     borderopacity="1"
     objecttolerance="10"
     gridtolerance="10"
     guidetolerance="10"
     inkscape:pageopacity="0"
     inkscape:pageshadow="2"
     inkscape:window-width="1364"
     inkscape:window-height="718"
     id="namedview3022"
     showgrid="false"
     inkscape:zoom="2"
     inkscape:cx="194.66283"
     inkscape:cy="125.57608"
     inkscape:window-x="0"
     inkscape:window-y="25"
     inkscape:window-maximized="1"
     inkscape:current-layer="svg3020"
     fit-margin-top="0"
     fit-margin-left="0"
     fit-margin-right="0"
     fit-margin-bottom="0" />
  <path
     style="fill:#999999;fill-opacity:1;stroke:none"
     d="m 218.3118,209.75949 c 5.29612,0 14.43617,-5.57311 14.43617,-12.06086 0,-4.18116 -0.12101,-2.02262 -0.12101,-7.06718 -30.07121,0 -203.112106,0.18324 -232.54116667,0.18324 0,5.04304 -0.07317,1.78508 -0.07317,7.50493 -0.414074,6.46786 9.45973897,11.43989 14.75587467,11.43989 z"
     id="path3032-7-5"
     inkscape:connector-curvature="0"
     sodipodi:nodetypes="csccccc" />
  <path
     style="fill:#d5d5d5;fill-opacity:1;stroke:none"
     d="m 219.6032,199.8308 c 5.37145,0 13.45199,-4.11653 13.032,-9.47154 C 229.59002,151.53173 222.35001,80.169263 218.87728,33.110999 218.45187,27.346498 212.10941,21.116023 206.32923,21.116023 l -179.924347,0 c -5.78019,0 -12.12265,6.23047 -12.54805,11.994976 C 10.384103,80.169263 3.1440833,151.53173 0.09890333,190.35926 c -0.41999,5.35501 7.69511997,9.47154 13.06656967,9.47154 z"
     id="path3032-5"
     inkscape:connector-curvature="0"
     sodipodi:nodetypes="csscccccc" />
  <path
     style="fill:#292929;fill-opacity:1;stroke:none"
     d="m 208.63865,181.12099 c 4.79391,0 13.06726,-4.11809 13.06726,-8.91202 0,-3.08954 -0.21747,-15.26 -0.21747,-18.98753 -27.2197,0 -183.60456,-0.002 -210.24301,-0.002 0,3.72641 -0.205747,15.22153 -0.205747,19.44804 -0.37481,4.77925 8.56272,8.45318 13.35665,8.45318 z"
     id="path3032-7"
     inkscape:connector-curvature="0"
     sodipodi:nodetypes="csccccc" />
  <path
     style="fill:#6c6b69;fill-opacity:1;stroke:none"
     d="m 209.69505,161.56251 c 4.85592,0 12.16093,-3.72144 11.78125,-8.5625 C 218.72338,117.89898 212.17823,53.38556 209.0388,10.84375 208.65422,5.6325 202.92048,0 197.69505,0 L 35.039059,0 c -5.22543,0 -10.95918,5.632496 -11.34375,10.84375 -3.13943,42.541809 -9.68458,107.05523 -12.4375,142.15626 -0.37968,4.84106 6.95657,8.5625 11.8125,8.5625 z"
     id="path3032"
     inkscape:connector-curvature="0"
     sodipodi:nodetypes="csscccccc" />
  <g
     id="g4006"
     transform="translate(137.95263,-14.247192)"
     style="fill:#ffa236;fill-opacity:1">
    <path
       style="fill:#ffa236;fill-opacity:1;stroke:#000000;stroke-width:0.1;stroke-miterlimit:4;stroke-opacity:1;stroke-dasharray:none"
       d="m -39.399195,138.20631 c -21.623069,-3.53186 -32.745979,-13.82052 -23.422486,-21.66571 4.335944,-3.64845 10.96605,-3.66501 22.0463,-0.055 4.576383,1.49099 11.686098,2.97068 15.799379,3.2882 6.435875,0.4968 8.147171,0.23053 12.272759,-1.90961 5.1658968,-2.6798 7.2961704,-6.87922 6.0362243,-11.89925 -0.9670057,-3.85289 -4.5574193,-5.70331 -19.0993953,-9.843447 -28.373476,-8.078024 -38.823037,-16.905672 -35.065432,-29.622818 2.684968,-9.086917 10.297893,-15.869872 22.589626,-20.126883 12.947135,-4.483988 35.3321442,-2.614921 46.5280677,3.884923 5.8254533,3.381991 6.5055763,5.437331 3.0074603,9.088571 C 7.2982223,63.515241 3.2769612,63.95951 -6.1839058,61.27615 -15.959252,58.503597 -25.3578,58.241425 -29.017295,60.639214 c -2.611688,1.711246 -4.411766,6.94147 -3.345422,9.720315 0.786887,2.050598 6.749595,4.544589 18.070562,7.558275 14.47018099,3.852022 21.349574,6.725586 27.230893,11.37449 19.341993,15.288966 9.413099,41.152586 -18.6838155,48.669166 -5.9725805,1.5978 -24.5437765,1.73292 -33.6541175,0.24486 z"
       id="path4018"
       inkscape:connector-curvature="0" />
  </g>
</svg>
