<?xml version="1.0" encoding="UTF-8" standalone="no"?>
<!-- Created with Inkscape (http://www.inkscape.org/) -->

<svg
   xmlns:dc="http://purl.org/dc/elements/1.1/"
   xmlns:cc="http://creativecommons.org/ns#"
   xmlns:rdf="http://www.w3.org/1999/02/22-rdf-syntax-ns#"
   xmlns:svg="http://www.w3.org/2000/svg"
   xmlns="http://www.w3.org/2000/svg"
   xmlns:sodipodi="http://sodipodi.sourceforge.net/DTD/sodipodi-0.dtd"
   xmlns:inkscape="http://www.inkscape.org/namespaces/inkscape"
   id="svg3020"
   version="1.1"
   inkscape:version="0.48.4 r9939"
   width="210.42032"
   height="178.71478"
   sodipodi:docname="sublime-text.svg">
  <metadata
     id="metadata3026">
    <rdf:RDF>
      <cc:Work
         rdf:about="">
        <dc:format>image/svg+xml</dc:format>
        <dc:type
           rdf:resource="http://purl.org/dc/dcmitype/StillImage" />
        <dc:title />
      </cc:Work>
    </rdf:RDF>
  </metadata>
  <defs
     id="defs3024" />
  <sodipodi:namedview
     pagecolor="#ffffff"
     bordercolor="#666666"
     borderopacity="1"
     objecttolerance="10"
     gridtolerance="10"
     guidetolerance="10"
     inkscape:pageopacity="0"
     inkscape:pageshadow="2"
     inkscape:window-width="1364"
     inkscape:window-height="718"
     id="namedview3022"
     showgrid="false"
     inkscape:zoom="2"
     inkscape:cx="140.1896"
     inkscape:cy="112.50424"
     inkscape:window-x="0"
     inkscape:window-y="25"
     inkscape:window-maximized="1"
     inkscape:current-layer="svg3020"
     fit-margin-top="0"
     fit-margin-left="0"
     fit-margin-right="0"
     fit-margin-bottom="0" />
  <path
     style="fill:#d5d5d5;fill-opacity:1;stroke:none"
     d="m 198.48136,178.71478 c 5.01402,0 11.93895,-4.10009 11.93895,-9.47154 0,-37.32756 0,-109.189992 0,-157.248264 C 210.42031,6.214799 203.87691,0 198.48136,0 L 11.620845,0 C 6.2252821,0 0.4129031,6.23047 0.0158101,11.994976 c 0,48.560565 0,117.418134 0,157.248264 -0.392043,5.35501 6.591014,9.47154 11.6050349,9.47154 z"
     id="path3032-5"
     inkscape:connector-curvature="0"
     sodipodi:nodetypes="csscccccc" />
  <path
     style="fill:#6c6b69;fill-opacity:1;stroke:none"
     d="m 192.53815,170.44649 c 4.85592,0 11.5625,-3.70657 11.5625,-8.5625 0,-34.10193 0,-99.614225 0,-142.156263 0,-5.225421 -6.33707,-10.84375 -11.5625,-10.84375 l -174.640364,0 c -5.22543,0 -11.1935549,5.632496 -11.5781249,10.84375 0,44.04203 0,105.533993 0,142.156263 -0.37968,4.84106 6.7221949,8.5625 11.5781249,8.5625 z"
     id="path3032"
     inkscape:connector-curvature="0"
     sodipodi:nodetypes="csscccccc" />
  <g
     id="g4006"
     transform="translate(126.7957,-5.363215)"
     style="fill:#ffa236;fill-opacity:1">
    <path
       style="fill:#ffa236;fill-opacity:1;stroke:#000000;stroke-width:0.1;stroke-miterlimit:4;stroke-opacity:1;stroke-dasharray:none"
       d="m -39.399195,138.20631 c -21.623069,-3.53186 -32.745979,-13.82052 -23.422486,-21.66571 4.335944,-3.64845 10.96605,-3.66501 22.0463,-0.055 4.576383,1.49099 11.686098,2.97068 15.799379,3.2882 6.435875,0.4968 8.147171,0.23053 12.272759,-1.90961 5.1658968,-2.6798 7.2961704,-6.87922 6.0362243,-11.89925 -0.9670057,-3.85289 -4.5574193,-5.70331 -19.0993953,-9.843447 -28.373476,-8.078024 -38.823037,-16.905672 -35.065432,-29.622818 2.684968,-9.086917 10.297893,-15.869872 22.589626,-20.126883 12.947135,-4.483988 35.3321442,-2.614921 46.5280677,3.884923 5.8254533,3.381991 6.5055763,5.437331 3.0074603,9.088571 C 7.2982223,63.515241 3.2769612,63.95951 -6.1839058,61.27615 -15.959252,58.503597 -25.3578,58.241425 -29.017295,60.639214 c -2.611688,1.711246 -4.411766,6.94147 -3.345422,9.720315 0.786887,2.050598 6.749595,4.544589 18.070562,7.558275 14.47018099,3.852022 21.349574,6.725586 27.230893,11.37449 19.341993,15.288966 9.413099,41.152586 -18.6838155,48.669166 -5.9725805,1.5978 -24.5437765,1.73292 -33.6541175,0.24486 z"
       id="path4018"
       inkscape:connector-curvature="0" />
  </g>
</svg>
