<?xml version="1.0" encoding="UTF-8" standalone="no"?>
<!-- Created with Inkscape (http://www.inkscape.org/) -->

<svg
   xmlns:dc="http://purl.org/dc/elements/1.1/"
   xmlns:cc="http://creativecommons.org/ns#"
   xmlns:rdf="http://www.w3.org/1999/02/22-rdf-syntax-ns#"
   xmlns:svg="http://www.w3.org/2000/svg"
   xmlns="http://www.w3.org/2000/svg"
   xmlns:sodipodi="http://sodipodi.sourceforge.net/DTD/sodipodi-0.dtd"
   xmlns:inkscape="http://www.inkscape.org/namespaces/inkscape"
   id="svg3020"
   version="1.1"
   inkscape:version="0.48.4 r9939"
   width="48.000004"
   height="48"
   sodipodi:docname="sublime-text.svg">
  <metadata
     id="metadata3026">
    <rdf:RDF>
      <cc:Work
         rdf:about="">
        <dc:format>image/svg+xml</dc:format>
        <dc:type
           rdf:resource="http://purl.org/dc/dcmitype/StillImage" />
        <dc:title></dc:title>
      </cc:Work>
    </rdf:RDF>
  </metadata>
  <defs
     id="defs3024" />
  <sodipodi:namedview
     pagecolor="#ffffff"
     bordercolor="#666666"
     borderopacity="1"
     objecttolerance="10"
     gridtolerance="10"
     guidetolerance="10"
     inkscape:pageopacity="0"
     inkscape:pageshadow="2"
     inkscape:window-width="1364"
     inkscape:window-height="718"
     id="namedview3022"
     showgrid="false"
     inkscape:zoom="8.451344"
     inkscape:cx="47.174364"
     inkscape:cy="22.43243"
     inkscape:window-x="0"
     inkscape:window-y="25"
     inkscape:window-maximized="1"
     inkscape:current-layer="svg3020"
     fit-margin-top="0"
     fit-margin-left="0"
     fit-margin-right="0"
     fit-margin-bottom="0" />
  <path
     style="fill:#ecf0f1;fill-opacity:1;stroke:none"
     d="m 45.276544,48 c 1.14378,0 2.72346,-1.10122 2.72346,-2.54391 0,-10.0256 0,-29.326725 0,-42.234427 C 48.000004,1.669198 46.507354,0 45.276544,0 L 2.6508865,0 c -1.230808,0 -2.55669805,1.673407 -2.64728005,3.221663 0,13.04261 0,31.536677 0,42.234427 C -0.08582355,46.89436 1.5071145,48 2.6508865,48 z"
     id="path3032-5"
     inkscape:connector-curvature="0"
     sodipodi:nodetypes="csscccccc" />
  <path
     style="fill:#34495e;fill-opacity:1;stroke:none"
     d="m 41.661734,44 c 0.982,0 2.33827,-0.91768 2.33827,-2.11992 0,-8.443031 0,-24.662708 0,-35.195359 0,-1.293721 -1.28154,-2.684719 -2.33827,-2.684719 l -35.3173455,0 c -1.056733,0 -2.263661,1.394505 -2.341432,2.684719 0,10.904022 0,26.128336 0,35.195359 C 3.9261765,43.07864 5.3623785,44 6.3443885,44 z"
     id="path3032"
     inkscape:connector-curvature="0"
     sodipodi:nodetypes="csscccccc" />
  <g
     id="g4006"
     transform="matrix(0.33620081,0,0,0.31428755,31.257074,-4.78276)"
     style="fill:#f39c12;fill-opacity:1">
    <path
       style="fill:#f39c12;fill-opacity:1;stroke:#000000;stroke-width:0.10000000000000001;stroke-miterlimit:4;stroke-opacity:1;stroke-dasharray:none"
       d="m -39.399195,138.20631 c -21.623069,-3.53186 -32.745979,-13.82052 -23.422486,-21.66571 4.335944,-3.64845 10.96605,-3.66501 22.0463,-0.055 4.576383,1.49099 11.686098,2.97068 15.799379,3.2882 6.435875,0.4968 8.147171,0.23053 12.272759,-1.90961 5.1658968,-2.6798 7.2961704,-6.87922 6.0362243,-11.89925 -0.9670057,-3.85289 -4.5574193,-5.70331 -19.0993953,-9.843447 -28.373476,-8.078024 -38.823037,-16.905672 -35.065432,-29.622818 2.684968,-9.086917 10.297893,-15.869872 22.589626,-20.126883 12.947135,-4.483988 35.3321442,-2.614921 46.5280677,3.884923 5.8254533,3.381991 6.5055763,5.437331 3.0074603,9.088571 C 7.2982223,63.515241 3.2769612,63.95951 -6.1839058,61.27615 -15.959252,58.503597 -25.3578,58.241425 -29.017295,60.639214 c -2.611688,1.711246 -4.411766,6.94147 -3.345422,9.720315 0.786887,2.050598 6.749595,4.544589 18.070562,7.558275 14.47018099,3.852022 21.349574,6.725586 27.230893,11.37449 19.341993,15.288966 9.413099,41.152586 -18.6838155,48.669166 -5.9725805,1.5978 -24.5437765,1.73292 -33.6541175,0.24486 z"
       id="path4018"
       inkscape:connector-curvature="0" />
  </g>
</svg>
