<svg xmlns="http://www.w3.org/2000/svg" width="48" height="48" viewBox="0 0 13.546666 13.546668">
 <g transform="translate(38.119153,-397.84494)">
  <rect width="11.289" height="11.289" x="-36.99" y="398.97" style="fill:#ecf0f1" rx="5.644"/>
  <rect y="399.82" x="-36.14" height="9.596" width="9.596" style="fill:#34495e" rx="4.798"/>
  <path d="m -29.653673,403.38926 -0.712482,0.0285 q -0.07125,-0.3135 -0.370491,-0.47737 -0.292118,-0.16387 -0.648359,-0.15674 -0.61986,0.0143 -0.904853,0.37761 -0.142496,0.18525 -0.121122,0.46312 0.0071,0.14962 0.0855,0.25649 0.07837,0.10687 0.170996,0.17099 0.09262,0.0641 0.263618,0.10688 0.170996,0.0427 0.284993,0.057 0.121122,0.0143 0.327742,0.0356 0.306368,0.0356 0.534362,0.0926 0.235119,0.057 0.498738,0.171 0.270743,0.10687 0.441739,0.31349 0.178121,0.1995 0.249369,0.48449 0.03562,0.17812 0.03562,0.32774 0,0.68398 -0.562861,1.10435 -0.562861,0.41324 -1.289593,0.41324 -0.398991,0 -0.783731,-0.1425 -0.384741,-0.14962 -0.676859,-0.46311 -0.292118,-0.32062 -0.334867,-0.74098 l -0.0071,-0.13538 0.726732,-0.0142 0.0071,0.10687 0,-0.0285 q 0.03562,0.32774 0.363366,0.52011 0.327742,0.18525 0.712482,0.18525 0.434615,0 0.776606,-0.22087 0.341992,-0.228 0.341992,-0.59136 0,-0.0713 -0.02137,-0.171 -0.0285,-0.13537 -0.128246,-0.22799 -0.09975,-0.0926 -0.277869,-0.1425 -0.170995,-0.0499 -0.313492,-0.0712 -0.142496,-0.0285 -0.377616,-0.0499 -0.277868,-0.0285 -0.484488,-0.0641 -0.199495,-0.0356 -0.448864,-0.12112 -0.242244,-0.0926 -0.406115,-0.22087 -0.163871,-0.13537 -0.284993,-0.35624 -0.121122,-0.22799 -0.142496,-0.52724 l 0,0.007 q -0.04275,-0.53436 0.270743,-0.9476 0.242244,-0.3135 0.648359,-0.48449 0.41324,-0.17812 0.862104,-0.17812 0.634109,0 1.118598,0.33486 0.484488,0.33487 0.57711,0.97611 z" style="fill:#e67e22"/>
 </g>
</svg>
