<svg xmlns="http://www.w3.org/2000/svg" width="48" height="48" viewBox="0 0 13.546666 13.546668">
 <g transform="translate(38.119153,-397.84494)">
  <g transform="matrix(0.28222225,0,0,0.28222225,-38.076192,397.93651)">
   <g transform="matrix(0.99297771,0,0,0.99765924,-361.33887,-433.51974)">
    <text y="716.65" x="-288.57" font-family="DejaVu Sans" word-spacing="0" line-height="125%" letter-spacing="0" font-size="40"><tspan y="716.65" x="-288.57"/>
    </text>
    <g transform="matrix(0.91555342,0,0,0.91118506,44.005717,3.0470552)">
     <path d="m 375.63371,477.59335 c -12.12518,0.0687 -21.94087,9.88285 -22.00831,22.00832 l 10.30282,0 c 0.0667,-6.43422 5.27162,-11.63716 11.70549,-11.70549 l 0,-10.30283 z" style="fill:#77adff"/>
     <path d="m 375.61708,477.59335 0,10.30283 c 6.43511,0.0668 11.63882,5.27034 11.70549,11.70549 l 10.30283,0 c -0.0674,-12.1264 -9.88188,-21.94111 -22.00832,-22.00832 z" style="fill:#34495e"/>
     <path d="m 353.6254,499.58504 c 0.0689,12.12421 9.88406,21.93961 22.00831,22.00831 l 0,-10.30282 c -6.43295,-0.0683 -11.63732,-5.27251 -11.70549,-11.70549 l -10.30282,0 z" style="fill:#88c941"/>
     <path d="m 387.32257,499.58504 c -0.0681,6.43391 -5.27129,11.63862 -11.70549,11.70549 l 0,10.30282 c 12.12551,-0.0672 21.93939,-9.88317 22.00832,-22.00831 l -10.30283,0 z" style="fill:#3eaad6"/>
    </g>
   </g>
  </g>
 </g>
</svg>
