<?xml version="1.0" encoding="UTF-8" standalone="no"?>
<!-- Created with Inkscape (http://www.inkscape.org/) -->

<svg
   xmlns:dc="http://purl.org/dc/elements/1.1/"
   xmlns:cc="http://creativecommons.org/ns#"
   xmlns:rdf="http://www.w3.org/1999/02/22-rdf-syntax-ns#"
   xmlns:svg="http://www.w3.org/2000/svg"
   xmlns="http://www.w3.org/2000/svg"
   xmlns:sodipodi="http://sodipodi.sourceforge.net/DTD/sodipodi-0.dtd"
   xmlns:inkscape="http://www.inkscape.org/namespaces/inkscape"
   width="44"
   height="44"
   id="svg2"
   version="1.1"
   inkscape:version="0.48.4 r9939"
   sodipodi:docname="Nuevo documento 1">
  <defs
     id="defs4" />
  <sodipodi:namedview
     id="base"
     pagecolor="#ffffff"
     bordercolor="#666666"
     borderopacity="1.0"
     inkscape:pageopacity="0.0"
     inkscape:pageshadow="2"
     inkscape:zoom="3.959798"
     inkscape:cx="62.896478"
     inkscape:cy="39.405808"
     inkscape:document-units="px"
     inkscape:current-layer="layer1"
     showgrid="false"
     fit-margin-top="0"
     fit-margin-left="0"
     fit-margin-right="0"
     fit-margin-bottom="0"
     inkscape:window-width="1364"
     inkscape:window-height="718"
     inkscape:window-x="0"
     inkscape:window-y="25"
     inkscape:window-maximized="1" />
  <metadata
     id="metadata7">
    <rdf:RDF>
      <cc:Work
         rdf:about="">
        <dc:format>image/svg+xml</dc:format>
        <dc:type
           rdf:resource="http://purl.org/dc/dcmitype/StillImage" />
        <dc:title></dc:title>
      </cc:Work>
    </rdf:RDF>
  </metadata>
  <g
     inkscape:label="Capa 1"
     inkscape:groupmode="layer"
     id="layer1"
     transform="translate(-353.6254,-477.59335)">
    <path
       style="fill:#77adff;fill-opacity:1;stroke:none"
       d="m 375.63371,477.59335 c -12.12518,0.0687 -21.94087,9.88285 -22.00831,22.00832 l 10.30282,0 c 0.0667,-6.43422 5.27162,-11.63716 11.70549,-11.70549 l 0,-10.30283 z"
       id="path3234"
       inkscape:connector-curvature="0" />
    <path
       style="fill:#34495e;fill-opacity:1;stroke:none"
       d="m 375.61708,477.59335 0,10.30283 c 6.43511,0.0668 11.63882,5.27034 11.70549,11.70549 l 10.30283,0 c -0.0674,-12.1264 -9.88188,-21.94111 -22.00832,-22.00832 z"
       id="path3232"
       inkscape:connector-curvature="0" />
    <path
       style="fill:#88c941;fill-opacity:1;stroke:none"
       d="m 353.6254,499.58504 c 0.0689,12.12421 9.88406,21.93961 22.00831,22.00831 l 0,-10.30282 c -6.43295,-0.0683 -11.63732,-5.27251 -11.70549,-11.70549 l -10.30282,0 z"
       id="path3230"
       inkscape:connector-curvature="0" />
    <path
       style="fill:#3eaad6;fill-opacity:1;stroke:none"
       d="m 387.32257,499.58504 c -0.0681,6.43391 -5.27129,11.63862 -11.70549,11.70549 l 0,10.30282 c 12.12551,-0.0672 21.93939,-9.88317 22.00832,-22.00831 l -10.30283,0 z"
       id="path3070"
       inkscape:connector-curvature="0" />
  </g>
</svg>
