<?xml version="1.0" encoding="UTF-8" standalone="no"?>
<!-- Created with Inkscape (http://www.inkscape.org/) -->

<svg
   xmlns:dc="http://purl.org/dc/elements/1.1/"
   xmlns:cc="http://creativecommons.org/ns#"
   xmlns:rdf="http://www.w3.org/1999/02/22-rdf-syntax-ns#"
   xmlns:svg="http://www.w3.org/2000/svg"
   xmlns="http://www.w3.org/2000/svg"
   xmlns:sodipodi="http://sodipodi.sourceforge.net/DTD/sodipodi-0.dtd"
   xmlns:inkscape="http://www.inkscape.org/namespaces/inkscape"
   width="48"
   height="48"
   id="svg2"
   version="1.1"
   inkscape:version="0.48+devel r12347"
   sodipodi:docname="system-file-manager.svg">
  <defs
     id="defs4" />
  <sodipodi:namedview
     id="base"
     pagecolor="#ffffff"
     bordercolor="#666666"
     borderopacity="1.0"
     inkscape:pageopacity="0.0"
     inkscape:pageshadow="2"
     inkscape:zoom="2"
     inkscape:cx="-118.79011"
     inkscape:cy="-11.541935"
     inkscape:document-units="px"
     inkscape:current-layer="layer1"
     showgrid="false"
     fit-margin-top="0"
     fit-margin-left="0"
     fit-margin-right="0"
     fit-margin-bottom="0"
     inkscape:window-width="1366"
     inkscape:window-height="714"
     inkscape:window-x="0"
     inkscape:window-y="30"
     inkscape:window-maximized="1" />
  <metadata
     id="metadata7">
    <rdf:RDF>
      <cc:Work
         rdf:about="">
        <dc:format>image/svg+xml</dc:format>
        <dc:type
           rdf:resource="http://purl.org/dc/dcmitype/StillImage" />
        <dc:title></dc:title>
      </cc:Work>
    </rdf:RDF>
  </metadata>
  <g
     inkscape:label="Capa 1"
     inkscape:groupmode="layer"
     id="layer1"
     transform="translate(-180.23661,-689.8125)">
    <path
       style="fill:#155e8f;fill-opacity:1;stroke:none"
       d="m 182.73661,695.46527 15.17669,0 1.33381,1.3997 26.4895,0 0,26.0006 L 182.73661,722.86557 Z"
       id="rect823"
       inkscape:connector-curvature="0"
       sodipodi:nodetypes="ccccccc" />
    <rect
       style="fill:#8cc8ec;fill-opacity:1;stroke:none"
       id="rect821"
       width="45"
       height="29"
       x="181.7366"
       y="703.15967" />
    <path
       sodipodi:nodetypes="cccc"
       inkscape:connector-curvature="0"
       id="path879"
       d="M 217.13452,718.95475 224.7366,703.15967 192.87888,703.15967 Z"
       inkscape:transform-center-y="2.6325317"
       style="fill:#000000;fill-opacity:0.09913791;stroke:none" />
    <rect
       style="fill:#000000;fill-opacity:0.31372549;stroke:none"
       id="rect841"
       width="45"
       height="0.7411893"
       x="181.7366"
       y="731.41852" />
    <path
       style="fill:#ffffff;fill-opacity:0.49803922;stroke:none"
       d="m 182.73661,695.46527 0,0.5625 14.9375,0 1.3125,1.4062 26.75,0 0,-0.5625 -26.4375,0 -0.0625,0 -1.34375,-1.4062 L 182.73661,695.46527 Z"
       id="path843"
       inkscape:connector-curvature="0" />
    <path
       id="path949"
       d="m 186.84766,727.15967 0,-9.5 -1.05551,1.05556 -1.58333,-2.63888 10.02776,-7.91668 3.69446,2.91667 0,-1.99308 2.11108,-0.39583 0,4.05557 4.22227,3.33335 -1.58338,2.63888 -1.05551,-1.05556 0,9.5 L 186.84766,727.15967 z m 7.38892,-15.34955 -5.80554,4.79398 0,8.97225 3.16665,0 0,-5.80549 5.27778,0 0,5.80549 3.16665,0 0,-8.97225 L 194.23658,711.81012 Z"
       inkscape:connector-curvature="0"
       style="fill:#000000;fill-opacity:0.49803922;stroke-width:0.2;stroke-linejoin:round" />
    <path
       style="fill:#f9f9f9;fill-opacity:1;stroke:none"
       inkscape:transform-center-y="2.3096128"
       d="M 216.42202,717.01725 224.7366,703.15967 193.38794,703.15967 Z"
       id="path832"
       inkscape:connector-curvature="0"
       sodipodi:nodetypes="cccc" />
    <path
       style="fill:#2ba2e8;fill-opacity:1;stroke:none"
       d="m 222.07018,703.18285 -6.46868,10.6543 -17.63034,-10.6543 L 222.07018,703.18285 Z"
       id="path835"
       inkscape:connector-curvature="0" />
    <rect
       y="703.15967"
       x="181.7366"
       height="0.7411893"
       width="45"
       id="rect839"
       style="fill:#ffffff;fill-opacity:0.31372549;stroke:none" />
  </g>
</svg>
