<svg xmlns="http://www.w3.org/2000/svg" width="48" height="48">
 <g transform="translate(0,-1004.3622)">
  <path d="M 24 4 L 2 20 L 24 32 L 46 20 L 24 4 z " transform="translate(0,1004.3622)" style="fill:#287fb5" fill-rule="evenodd"/>
  <path d="m 9,1013.3622 0,30 30,0 0,-23 -7,0 0,-7 -23,0 z" style="fill:#ecf0f1" fill-rule="evenodd"/>
  <path d="m 2,1024.3622 0,24 44,0 0,-24 -22,12 -22,-12 z" style="fill:#2995d3" fill-rule="evenodd"/>
  <rect width="17" height="2" x="11" y="1018.36" style="fill:#95a5a6" fill-rule="evenodd"/>
  <path d="m 39,1020.3622 -7,-7 0,7 7,0 z" style="fill:#bdc3c7" fill-rule="evenodd"/>
  <rect y="1022.36" x="11" height="2" width="26" style="fill:#95a5a6" fill-rule="evenodd"/>
  <rect width="26" height="2" x="11" y="1026.36" style="fill:#95a5a6" fill-rule="evenodd"/>
 </g>
</svg>
