<?xml version="1.0" encoding="UTF-8" standalone="no"?>
<!-- Created with Inkscape (http://www.inkscape.org/) -->

<svg
   xmlns:dc="http://purl.org/dc/elements/1.1/"
   xmlns:cc="http://creativecommons.org/ns#"
   xmlns:rdf="http://www.w3.org/1999/02/22-rdf-syntax-ns#"
   xmlns:svg="http://www.w3.org/2000/svg"
   xmlns="http://www.w3.org/2000/svg"
   xmlns:xlink="http://www.w3.org/1999/xlink"
   xmlns:sodipodi="http://sodipodi.sourceforge.net/DTD/sodipodi-0.dtd"
   xmlns:inkscape="http://www.inkscape.org/namespaces/inkscape"
   width="48"
   height="48"
   id="svg2"
   version="1.1"
   inkscape:version="0.48+devel r12487"
   sodipodi:docname="xmms.svg">
  <defs
     id="defs4">
    <linearGradient
       inkscape:collect="always"
       id="linearGradient860">
      <stop
         style="stop-color:#242424;stop-opacity:1"
         offset="0"
         id="stop862" />
      <stop
         style="stop-color:#5d5d5d;stop-opacity:1"
         offset="1"
         id="stop864" />
    </linearGradient>
    <linearGradient
       inkscape:collect="always"
       xlink:href="#linearGradient860"
       id="linearGradient866"
       x1="28.637823"
       y1="-1052.3843"
       x2="28.637823"
       y2="-1004.3894"
       gradientUnits="userSpaceOnUse"
       gradientTransform="matrix(1,0,0,-1,0,-1004.3622)" />
  </defs>
  <sodipodi:namedview
     id="base"
     pagecolor="#ffffff"
     bordercolor="#666666"
     borderopacity="1.0"
     inkscape:pageopacity="0.0"
     inkscape:pageshadow="2"
     inkscape:zoom="8"
     inkscape:cx="32.654665"
     inkscape:cy="24.003066"
     inkscape:document-units="px"
     inkscape:current-layer="layer1"
     showgrid="false"
     inkscape:window-width="1366"
     inkscape:window-height="716"
     inkscape:window-x="0"
     inkscape:window-y="28"
     inkscape:window-maximized="1" />
  <metadata
     id="metadata7">
    <rdf:RDF>
      <cc:Work
         rdf:about="">
        <dc:format>image/svg+xml</dc:format>
        <dc:type
           rdf:resource="http://purl.org/dc/dcmitype/StillImage" />
        <dc:title />
      </cc:Work>
    </rdf:RDF>
  </metadata>
  <g
     inkscape:label="Capa 1"
     inkscape:groupmode="layer"
     id="layer1"
     transform="translate(0,-1004.3622)">
    <g
       inkscape:label="Capa 1"
       id="g1004"
       style="fill:none;stroke:#ff0000" />
    <g
       style="fill:none;stroke:#ff0000"
       id="g1008"
       inkscape:label="Capa 1" />
    <path
       style="fill:url(#linearGradient866);fill-opacity:1;stroke:none"
       d="M 1.9375 0 C 0.86022285 0 0 0.86022285 0 1.9375 L 0 46.0625 C 0 47.139777 0.86022285 48 1.9375 48 L 46.0625 48 C 47.139777 48 48 47.139777 48 46.0625 L 48 1.9375 C 48 0.86022285 47.139777 0 46.0625 0 L 1.9375 0 z M 3.125 6.375 L 8.375 6.375 L 8.375 11.625 L 3.125 11.625 L 3.125 6.375 z M 39.625 6.375 L 44.875 6.375 L 44.875 11.625 L 39.625 11.625 L 39.625 6.375 z M 3.125 16.375 L 8.375 16.375 L 8.375 21.625 L 3.125 21.625 L 3.125 16.375 z M 39.625 16.375 L 44.875 16.375 L 44.875 21.625 L 39.625 21.625 L 39.625 16.375 z M 3.125 26.375 L 8.375 26.375 L 8.375 31.625 L 3.125 31.625 L 3.125 26.375 z M 39.625 26.375 L 44.875 26.375 L 44.875 31.625 L 39.625 31.625 L 39.625 26.375 z M 3.125 36.375 L 8.375 36.375 L 8.375 41.625 L 3.125 41.625 L 3.125 36.375 z M 39.625 36.375 L 44.875 36.375 L 44.875 41.625 L 39.625 41.625 L 39.625 36.375 z "
       transform="translate(0,1004.3622)"
       id="rect2991-1" />
    <path
       style="fill:#404040;fill-opacity:1;stroke:none"
       d="m 11.8125,39.25 0,8.75 24.375,0 L 36.1875,39.25 Z"
       transform="translate(0,1004.3622)"
       id="rect870"
       inkscape:connector-curvature="0"
       sodipodi:nodetypes="ccccc" />
    <path
       inkscape:connector-curvature="0"
       style="fill:#000000;fill-opacity:1;stroke:none"
       d="m 0,1049.3622 0,1.0625 c 0,1.0773 0.86022289,1.9375 1.9374999,1.9375 l 44.1250001,0 c 1.077277,0 1.9375,-0.8602 1.9375,-1.9375 l 0,-1.0625 c 0,1.0773 -0.860223,1.9375 -1.9375,1.9375 l -44.1250001,0 C 0.86022289,1051.2997 0,1050.4395 0,1049.3622 Z"
       id="rect846" />
    <path
       style="fill:#404040;fill-opacity:1;stroke:none"
       d="m 11.8125,0 0,8.75 24.375,0 L 36.1875,0 Z"
       transform="translate(0,1004.3622)"
       id="rect868"
       inkscape:connector-curvature="0"
       sodipodi:nodetypes="ccccc" />
    <path
       inkscape:connector-curvature="0"
       style="fill:#ffffff;fill-opacity:0.5372549;stroke:none"
       d="m 2.5312499,1005.0185 c -0.9170884,0 -1.67114671,0.6395 -1.84374991,1.5 0.33561201,-0.2799 0.77451211,-0.4375 1.24999991,-0.4375 l 44.1250001,0 c 0.475488,0 0.914388,0.1576 1.25,0.4375 -0.172603,-0.8605 -0.926662,-1.5 -1.84375,-1.5 L 2.5312499,1005.0185 Z"
       id="path7515" />
    <path
       inkscape:connector-curvature="0"
       style="fill:#000000;fill-opacity:0.39215686;stroke:none"
       d="M 1.9374999,1004.3622 C 0.86022299,1004.3622 0,1005.2224 0,1006.2997 l 0,43.0625 c 0,0.7934 0.48002359,1.449 1.1562499,1.75 -0.30934161,-0.3333 -0.49999991,-0.7824 -0.49999991,-1.2812 l 0,-42.9375 c 0,-1.0482 0.82689891,-1.875 1.87499991,-1.875 l 42.9375001,0 c 1.048101,0 1.875,0.8268 1.875,1.875 l 0,42.9375 c 0,0.4988 -0.190658,0.9479 -0.5,1.2812 0.676226,-0.301 1.15625,-0.9566 1.15625,-1.75 l 0,-43.0625 c 0,-1.0773 -0.860223,-1.9375 -1.9375,-1.9375 L 1.9374999,1004.3622 Z"
       id="rect4280" />
    <rect
       style="fill:#404040;fill-opacity:1;stroke:none"
       id="rect872"
       width="24.395184"
       height="21.036427"
       x="11.802408"
       y="1017.844"
       ry="0" />
    <path
       style="fill:#000000;fill-opacity:0.29554656;stroke:none"
       d="M 11.8125 13.46875 L 11.8125 34.53125 L 36.1875 34.53125 L 36.1875 13.46875 L 11.8125 13.46875 z M 12.03125 13.6875 L 35.96875 13.6875 L 35.96875 34.3125 L 12.03125 34.3125 L 12.03125 13.6875 z "
       transform="translate(0,1004.3622)"
       id="rect899" />
    <path
       style="fill:#000000;fill-opacity:0.29554659;stroke:none"
       d="M 11.8125 0 L 11.8125 8.75 L 36.1875 8.75 L 36.1875 0 L 35.96875 0 L 35.96875 8.53125 L 12.03125 8.53125 L 12.03125 0 L 11.8125 0 z "
       transform="translate(0,1004.3622)"
       id="path904" />
    <path
       id="path909"
       d="m 11.8125,1052.3622 0,-8.75 24.375,0 0,8.75 -0.21875,0 0,-8.5312 -23.9375,0 0,8.5312 L 11.8125,1052.3622 Z"
       style="fill:#000000;fill-opacity:0.51821864;stroke:none"
       inkscape:connector-curvature="0" />
    <path
       style="fill:#ffffff;fill-opacity:0.18218623;stroke:none"
       d="m 11.8125,1038.8935 0,0.1875 24.375,0 0,-0.1875 L 11.8125,1038.8935 Z"
       id="rect911"
       inkscape:connector-curvature="0" />
    <path
       inkscape:connector-curvature="0"
       id="path916"
       d="m 11.8125,1013.1122 0,0.1875 24.375,0 0,-0.1875 L 11.8125,1013.1122 Z"
       style="fill:#ffffff;fill-opacity:0.18218623;stroke:none" />
    <path
       style="fill:#ffffff;fill-opacity:0.18218623;stroke:none"
       d="m 11.8125,1043.4247 0,0.1875 24.375,0 0,-0.1875 L 11.8125,1043.4247 Z"
       id="path920"
       inkscape:connector-curvature="0" />
    <path
       sodipodi:type="star"
       style="fill:#ffffff;fill-opacity:0.18218623;stroke:none"
       id="path922"
       sodipodi:sides="3"
       sodipodi:cx="21.75"
       sodipodi:cy="23.875"
       sodipodi:r1="7.8839235"
       sodipodi:r2="3.9419618"
       sodipodi:arg1="0"
       sodipodi:arg2="1.0471976"
       inkscape:flatsided="false"
       inkscape:rounded="0"
       inkscape:randomized="0"
       d="m 29.633924,23.875 -5.912943,3.413839 -5.912943,3.413839 0,-6.827678 0,-6.827678 L 23.720981,20.461161 Z"
       transform="translate(0.27901912,1004.4872)"
       inkscape:transform-center-x="-1.9709809" />
  </g>
</svg>
