<svg xmlns="http://www.w3.org/2000/svg" width="48" height="48">
 <g transform="translate(-180.23661,-689.8125)">
  <rect width="44" height="40" x="182.24" y="693.81" style="fill:#e67e22"/>
  <path d="m 197.48661,714.3125 -15.25,15.25 0,4.25 44,0 0,-4.25 -15.25,-15.25 -6.75,6.75 -6.75,-6.75 z" style="fill:#d35400" fill-rule="evenodd"/>
  <path d="m 182.23661,693.8125 0,5.5 22,22 22,-22 0,-5.5 -44,0 z" style="fill:#d35400" fill-rule="evenodd"/>
  <path d="m 197.98661,715.0625 -15.75,15.75 0,3 44,0 0,-3 -15.75,-15.75 -6.25,6.25 -6.25,-6.25 z" style="fill:#e67e22" fill-rule="evenodd"/>
  <path d="m 182.23661,693.8125 0,3 22,22 22,-22 0,-3 -44,0 z" style="fill:#e67e22" fill-rule="evenodd"/>
 </g>
</svg>
