<?xml version="1.0" encoding="UTF-8" standalone="no"?>
<!-- Created with Inkscape (http://www.inkscape.org/) -->

<svg
   xmlns:dc="http://purl.org/dc/elements/1.1/"
   xmlns:cc="http://creativecommons.org/ns#"
   xmlns:rdf="http://www.w3.org/1999/02/22-rdf-syntax-ns#"
   xmlns:svg="http://www.w3.org/2000/svg"
   xmlns="http://www.w3.org/2000/svg"
   xmlns:xlink="http://www.w3.org/1999/xlink"
   xmlns:sodipodi="http://sodipodi.sourceforge.net/DTD/sodipodi-0.dtd"
   xmlns:inkscape="http://www.inkscape.org/namespaces/inkscape"
   width="48"
   height="48"
   id="svg2"
   version="1.1"
   inkscape:version="0.48+devel r12712"
   sodipodi:docname="unity-mail.svg"
   inkscape:export-filename="/home/uri/workspace/NitruxforAndroid/res/drawable-xhdpi/mail.png"
   inkscape:export-xdpi="180"
   inkscape:export-ydpi="180">
  <defs
     id="defs4">
    <linearGradient
       inkscape:collect="always"
       xlink:href="#linearGradient3795"
       id="linearGradient4715"
       x1="25.367456"
       y1="48.088387"
       x2="25.367456"
       y2="24.046759"
       gradientUnits="userSpaceOnUse" />
    <linearGradient
       inkscape:collect="always"
       xlink:href="#linearGradient3795"
       id="linearGradient5169"
       gradientUnits="userSpaceOnUse"
       x1="25.367456"
       y1="48.088387"
       x2="25.367456"
       y2="24.046759"
       gradientTransform="matrix(1,0,0,-1,5.1791382e-7,1052.3622)" />
    <linearGradient
       gradientTransform="translate(5.1791382e-7,5e-5)"
       y2="-1004.376"
       x2="36.25"
       y1="-1052.3622"
       x1="36.25"
       gradientUnits="userSpaceOnUse"
       id="linearGradient5358"
       xlink:href="#linearGradient3795"
       inkscape:collect="always" />
    <linearGradient
       id="linearGradient3795">
      <stop
         id="stop3797"
         offset="0"
         style="stop-color:#dd4814;stop-opacity:1" />
      <stop
         id="stop3799"
         offset="1"
         style="stop-color:#ed632b;stop-opacity:1" />
    </linearGradient>
  </defs>
  <sodipodi:namedview
     id="base"
     pagecolor="#ffffff"
     bordercolor="#666666"
     borderopacity="1.0"
     inkscape:pageopacity="0.0"
     inkscape:pageshadow="2"
     inkscape:zoom="4.0585237"
     inkscape:cx="6.2465288"
     inkscape:cy="34.292543"
     inkscape:document-units="px"
     inkscape:current-layer="layer1"
     showgrid="false"
     inkscape:window-width="1366"
     inkscape:window-height="718"
     inkscape:window-x="0"
     inkscape:window-y="30"
     inkscape:window-maximized="1">
    <inkscape:grid
       type="xygrid"
       id="grid3850" />
  </sodipodi:namedview>
  <metadata
     id="metadata7">
    <rdf:RDF>
      <cc:Work
         rdf:about="">
        <dc:format>image/svg+xml</dc:format>
        <dc:type
           rdf:resource="http://purl.org/dc/dcmitype/StillImage" />
        <dc:title></dc:title>
      </cc:Work>
    </rdf:RDF>
  </metadata>
  <g
     inkscape:label="Capa 1"
     inkscape:groupmode="layer"
     id="layer1"
     transform="translate(0,-1004.3622)">
    <rect
       style="fill:url(#linearGradient5358);fill-opacity:1.0;stroke:none"
       id="rect2991-1-7"
       width="48"
       height="48"
       x="5.2923278e-06"
       y="-1052.3622"
       ry="1.9445436"
       transform="scale(1,-1)" />
    <g
       transform="translate(5.1791382e-7,-5e-5)"
       id="g5223">
      <path
         inkscape:connector-curvature="0"
         style="fill:#000000;fill-opacity:0.05882353;stroke:none"
         d="m 24,1027.1622 -24,18 0,4.0547 c 0,1.0773 0.86803535,1.9453 1.9453125,1.9453 l 44.1093755,0 c 1.077277,0 1.945312,-0.868 1.945312,-1.9453 l 0,-4.0547 L 24,1027.1622 Z"
         id="path4728" />
      <path
         id="path4726"
         d="m 24,1027.5622 -24,18 0,4.0547 c 0,1.0773 0.86803535,1.9453 1.9453125,1.9453 l 44.1093755,0 c 1.077277,0 1.945312,-0.868 1.945312,-1.9453 l 0,-4.0547 L 24,1027.5622 Z"
         style="fill:#000000;fill-opacity:0.11764706;stroke:none"
         inkscape:connector-curvature="0" />
      <path
         inkscape:connector-curvature="0"
         style="fill:#000000;fill-opacity:0.23529412;stroke:none"
         d="m 24,1027.9622 -24,18 0,4.0547 c 0,1.0773 0.86803535,1.9453 1.9453125,1.9453 l 44.1093755,0 c 1.077277,0 1.945312,-0.868 1.945312,-1.9453 l 0,-4.0547 L 24,1027.9622 Z"
         id="path4722" />
      <path
         inkscape:connector-curvature="0"
         id="rect4704"
         transform="translate(0,1004.3622)"
         d="M 24,24 0,42 0,46.054688 C 0,47.131965 0.86803535,48 1.9453125,48 L 46.054688,48 C 47.131965,48 48,47.131965 48,46.054688 L 48,42 24,24 Z"
         style="fill:url(#linearGradient4715);fill-opacity:1.0;stroke:none" />
      <path
         inkscape:connector-curvature="0"
         id="path4717"
         transform="translate(0,1004.3622)"
         d="m 24,24 -24,18 0,0.800781 24,-18 24,18 L 48,42 24,24 Z"
         style="fill:#ffffff;fill-opacity:0.31372549;stroke:none" />
    </g>
    <path
       inkscape:connector-curvature="0"
       style="fill:#000000;fill-opacity:0.05882353;stroke:none"
       d="m 24.000001,1033.5622 -24.00000048208618,-18 0,-8.0547 c 0,-1.0773 0.86803500208618,-1.9453 1.94531198208618,-1.9453 l 44.1093765,0 c 1.077277,0 1.945312,0.868 1.945312,1.9453 L 48.000001,1015.5622 Z"
       id="path5159"
       sodipodi:nodetypes="ccsssscc" />
    <path
       id="path5161"
       d="m 24.000001,1033.1622 -24.00000048208618,-18 0,-8.0547 c 0,-1.0773 0.86803500208618,-1.9453 1.94531198208618,-1.9453 l 44.1093765,0 c 1.077277,0 1.945312,0.868 1.945312,1.9453 L 48.000001,1015.1622 Z"
       style="fill:#000000;fill-opacity:0.11764706;stroke:none"
       inkscape:connector-curvature="0"
       sodipodi:nodetypes="ccsssscc" />
    <path
       inkscape:connector-curvature="0"
       style="fill:#000000;fill-opacity:0.23529412;stroke:none"
       d="m 24.000001,1032.7622 -24.00000048208618,-18 0,-8.0547 c 0,-1.0773 0.86803500208618,-1.9453 1.94531198208618,-1.9453 l 44.1093765,0 c 1.077277,0 1.945312,0.868 1.945312,1.9453 L 48.000001,1014.7622 Z"
       id="path5163"
       sodipodi:nodetypes="ccsssscc" />
    <path
       id="path5165"
       d="m 24.000001,1032.3622 -24.00000048208618,-18 0,-8.0547 c 0,-1.0773 0.86803500208618,-1.9453 1.94531198208618,-1.9453 l 44.1093765,0 c 1.077277,0 1.945312,0.868 1.945312,1.9453 L 48.000001,1014.3622 Z"
       style="fill:url(#linearGradient5169);fill-opacity:1.0;stroke:none"
       inkscape:connector-curvature="0"
       sodipodi:nodetypes="ccsssscc" />
    <g
       transform="translate(5.1791382e-7,-5e-5)"
       id="g4699">
      <path
         id="rect846"
         d="m -5.8102417e-6,1049.3623 0,1.0625 c 0,1.0773 0.8602200002417,1.9375 1.9375000102417,1.9375 l 44.1249998,0 c 1.07728,0 1.9375,-0.8602 1.9375,-1.9375 l 0,-1.0625 c 0,1.0773 -0.86022,1.9375 -1.9375,1.9375 l -44.1249998,0 C 0.86021419,1051.2998 -5.8102417e-6,1050.4396 -5.8102417e-6,1049.3623 Z"
         style="fill:#000000;fill-opacity:1;stroke:none"
         inkscape:connector-curvature="0" />
      <path
         id="path7515"
         d="m 2.5312442,1005.0185 c -0.91709,0 -1.67115001,0.6395 -1.84375001,1.5 0.33561001,-0.2799 0.77451001,-0.4375 1.25000001,-0.4375 l 44.1249998,0 c 0.47549,0 0.91439,0.1576 1.25,0.4375 -0.1726,-0.8605 -0.92666,-1.5 -1.84375,-1.5 L 2.5312442,1005.0185 Z"
         style="fill:#ffffff;fill-opacity:0.5372549;stroke:none"
         inkscape:connector-curvature="0" />
      <path
         id="rect4280"
         d="m 1.9374942,1004.3622 c -1.07728001,0 -1.9375000102417,0.8602 -1.9375000102417,1.9375 l 0,43.0626 c 0,0.7934 0.4800200002417,1.449 1.1562500102417,1.75 -0.30934001,-0.3333 -0.50000001,-0.7824 -0.50000001,-1.2812 l 0,-42.9376 c 0,-1.0482 0.82690001,-1.875 1.87500001,-1.875 l 42.9374998,0 c 1.0481,0 1.875,0.8268 1.875,1.875 l 0,42.9376 c 0,0.4988 -0.19066,0.9479 -0.5,1.2812 0.67623,-0.301 1.15625,-0.9566 1.15625,-1.75 l 0,-43.0626 c 0,-1.0773 -0.86022,-1.9375 -1.9375,-1.9375 L 1.9374942,1004.3622 Z"
         style="fill:#000000;fill-opacity:0.39215686;stroke:none"
         inkscape:connector-curvature="0" />
    </g>
    <path
       id="path5167"
       d="m 24.000001,1032.3622 -24.00000048208618,-18 0,-0.8008 24.00000048208618,18 24,-18 L 48.000001,1014.3622 Z"
       style="fill:#ffffff;fill-opacity:0.11764706;stroke:none"
       inkscape:connector-curvature="0"
       sodipodi:nodetypes="ccccccc" />
  </g>
</svg>
