<svg xmlns="http://www.w3.org/2000/svg" width="48" height="48">
 <g transform="translate(0,-1004.3622)">
  <g>
   <circle r="20" cy="-1028.36" cx="24" transform="scale(1,-1)" style="fill:#ecf0f1"/>
   <circle transform="scale(1,-1)" cx="24" cy="-1028.36" r="17" style="fill:#2dc3a9" fill-opacity="0.996"/>
   <path transform="translate(0,1004.3622)" d="M 23.996094 15 C 21.639736 15.0002 19.297777 15.970619 17.632812 17.636719 C 15.967848 19.302819 15 21.644 15 24 C 15 26.356 15.967849 28.697181 17.632812 30.363281 C 19.297777 32.029381 21.639736 32.9998 23.996094 33 C 26.35245 33.0002 28.694239 32.029381 30.361328 30.363281 C 32.028418 28.697181 33 26.3563 33 24 C 33 21.6437 32.028418 19.302819 30.361328 17.636719 C 28.694239 15.970619 26.35245 14.9998 23.996094 15 z M 23.996094 17 C 27.661538 16.9998 31 20.3347 31 24 C 31 27.6653 27.661538 31.0002 23.996094 31 C 20.330649 30.9998 17 27.665 17 24 C 17 20.335 20.330649 17.0002 23.996094 17 z M 24 19 L 18.5 25 L 22 25 L 22 29 L 26 29 L 26 25 L 29.5 25 L 24 19 z " style="fill:#354b5f"/>
  </g>
 </g>
</svg>
