<?xml version="1.0" encoding="UTF-8" standalone="no"?>
<!-- Created with Inkscape (http://www.inkscape.org/) -->

<svg
   xmlns:dc="http://purl.org/dc/elements/1.1/"
   xmlns:cc="http://creativecommons.org/ns#"
   xmlns:rdf="http://www.w3.org/1999/02/22-rdf-syntax-ns#"
   xmlns:svg="http://www.w3.org/2000/svg"
   xmlns="http://www.w3.org/2000/svg"
   xmlns:sodipodi="http://sodipodi.sourceforge.net/DTD/sodipodi-0.dtd"
   xmlns:inkscape="http://www.inkscape.org/namespaces/inkscape"
   width="48"
   height="48"
   id="svg2"
   version="1.1"
   inkscape:version="0.48+devel r12392"
   sodipodi:docname="mandrivaupdate.svg">
  <defs
     id="defs4" />
  <sodipodi:namedview
     id="base"
     pagecolor="#ffffff"
     bordercolor="#666666"
     borderopacity="1.0"
     inkscape:pageopacity="0.0"
     inkscape:pageshadow="2"
     inkscape:zoom="4.2343751"
     inkscape:cx="35.417111"
     inkscape:cy="45.77023"
     inkscape:document-units="px"
     inkscape:current-layer="layer1"
     showgrid="false"
     inkscape:window-width="1366"
     inkscape:window-height="718"
     inkscape:window-x="0"
     inkscape:window-y="30"
     inkscape:window-maximized="1" />
  <metadata
     id="metadata7">
    <rdf:RDF>
      <cc:Work
         rdf:about="">
        <dc:format>image/svg+xml</dc:format>
        <dc:type
           rdf:resource="http://purl.org/dc/dcmitype/StillImage" />
        <dc:title />
      </cc:Work>
    </rdf:RDF>
  </metadata>
  <g
     inkscape:label="Capa 1"
     inkscape:groupmode="layer"
     id="layer1"
     transform="translate(0,-1004.3622)">
    <path
       sodipodi:type="arc"
       style="fill:#2ec3a9;fill-opacity:0.99607843;stroke:none"
       id="path4064"
       sodipodi:cx="27.125"
       sodipodi:cy="26.375"
       sodipodi:rx="20.375"
       sodipodi:ry="20.375"
       d="m 47.5,26.375 a 20.375,20.375 0 1 1 -40.75,0 A 20.375,20.375 0 1 1 47.5,26.375 Z"
       transform="matrix(1.1288344,0,0,-1.1288344,-6.6196331,1058.1352)" />
    <path
       style="fill:#f7f1f9;fill-opacity:1;stroke:none"
       d="m 21.778163,1013.519 0,2.1562 c -1.801518,0.3143 -3.475319,0.9874 -4.9375,1.9688 l -1.5,-1.5313 -3.25,3.125 1.5,1.5625 c -1.040221,1.4255 -1.802928,3.0606 -2.1875,4.8438 l -2.1562505,-0.094 -0.15625,4.5 2.1562505,0.094 c 0.292705,1.9561 1.084622,3.7095 2.1875,5.25 l -1.6875,1.625 3.125,3.25 1.75,-1.6875 c -0.05895,-0.086 -0.13101,-0.162 -0.1875,-0.25 0.663995,0.607 1.432266,1.097 2.28125,1.4375 0.848984,0.3404 1.778681,0.5312 2.75,0.5312 0.312314,0 0.605128,-0.028 0.90625,-0.062 0.219377,-0.018 0.444659,-0.048 0.65625,-0.094 l 0.03125,0 c 0.951925,-0.097 1.873272,-0.3655 2.6875,-0.7813 0.495824,-0.2532 0.926927,-0.582 1.34375,-0.9375 0.267673,-0.2283 0.542836,-0.4571 0.78125,-0.7187 0.152419,-0.1673 0.300583,-0.353 0.4375,-0.5313 0.273834,-0.3567 0.512768,-0.7215 0.71875,-1.125 0.102991,-0.2017 0.196683,-0.4109 0.28125,-0.625 0.303862,-0.7691 0.435102,-1.6303 0.46875,-2.5 -2.078979,2.6308 -5.643692,3.7126 -8.84375,2.2813 -3.783033,-1.6921 -5.47337,-6.1233 -3.78125,-9.9063 1.692089,-3.7858 6.12326,-5.4734 9.90625,-3.7812 2.254933,1.0086 3.628969,3.0102 4.125,5.25 l 1.125,-1.1563 0.5625,-0.5312 3.9375,3.9375 1.9375,1.9375 0.15625,-4.3125 -2.15625,-0.094 c -0.277881,-1.9612 -1.003135,-3.7695 -2.0625,-5.3437 -0.005,-0.01 0.0051,-0.024 0,-0.031 l 1.5625,-1.4687 -3.125,-3.25 -1.5625,1.5 c -1.540276,-1.124 -3.331452,-1.8995 -5.28125,-2.25 l 0,-2.1875 L 21.778163,1013.519 Z"
       id="path4094"
       inkscape:connector-curvature="0" />
    <g
       id="g839"
       transform="translate(-308.06918,674.42268)">
      <g
         id="text872"
         style="font-size:7.5px;font-style:normal;font-variant:normal;font-weight:bold;font-stretch:normal;line-height:125%;letter-spacing:0px;word-spacing:0px;fill:#ffffff;fill-opacity:1;stroke:none;font-family:Impact;-inkscape-font-specification:Impact Bold" />
    </g>
    <path
       style="fill:#364b5f;fill-opacity:0.99607843"
       d="m 32.878088,1025.0804 -6.03125,6.0312 3,0 0,1.5313 c 0,3.9097 -2.973549,7.1133 -6.78125,7.5 -0.0097,0 -0.02157,0 -0.03125,0 -0.504024,0.1091 -1.025069,0.1562 -1.5625,0.1562 -1.942638,0 -3.703261,-0.7546 -5.03125,-1.9687 1.879835,2.9292 5.137183,4.875 8.875,4.875 5.836896,0 10.5625,-4.7257 10.5625,-10.5625 l 0,-1.5313 3.03125,0 L 32.878088,1025.0804 Z"
       id="path4069"
       inkscape:connector-curvature="0" />
  </g>
</svg>
