<svg xmlns="http://www.w3.org/2000/svg" width="48" height="48">
 <g transform="translate(-180.23661,-689.8125)">
  <rect y="693.81" x="182.24" height="40" width="44" style="fill:#203040"/>
  <g transform="matrix(1.9803549,0,0,1.6334143,-181.25324,-450.55589)" style="fill:#ffffff">
   <path d="m 189.11133,709.59542 0,0.79899 -0.53757,0 0,-0.7769 q -0.74744,-0.004 -1.39179,-0.33874 l 0,-1.01991 q 0.21355,0.17305 0.63698,0.32033 0.42343,0.14728 0.75481,0.16937 l 0,-1.34024 q -0.86159,-0.32033 -1.17824,-0.69222 -0.31297,-0.37556 -0.31297,-0.91313 0,-0.57807 0.40871,-0.98309 0.4087,-0.4087 1.0825,-0.47498 l 0,-0.68485 0.53757,0 0,0.67012 q 0.7769,0.0368 1.15983,0.25038 l 0,0.99414 q -0.51548,-0.31297 -1.15983,-0.38293 l 0,1.39547 q 0.80636,0.29088 1.15615,0.66644 0.34979,0.37189 0.34979,0.90209 0,0.61121 -0.39029,0.98678 -0.3903,0.37188 -1.11565,0.45288 z m -0.53757,-3.22174 0,-1.16719 q -0.5118,0.092 -0.5118,0.53389 0,0.37924 0.5118,0.6333 z m 0.53757,1.24451 0,1.11565 q 0.52653,-0.081 0.52653,-0.52653 0,-0.36083 -0.52653,-0.58912 z"/>
  </g>
  <rect width="4" height="11" x="198.24" y="698.81" style="fill:#ffffff"/>
 </g>
</svg>
