<?xml version="1.0" encoding="UTF-8" standalone="no"?>
<!-- Created with Inkscape (http://www.inkscape.org/) -->

<svg
   xmlns:dc="http://purl.org/dc/elements/1.1/"
   xmlns:cc="http://creativecommons.org/ns#"
   xmlns:rdf="http://www.w3.org/1999/02/22-rdf-syntax-ns#"
   xmlns:svg="http://www.w3.org/2000/svg"
   xmlns="http://www.w3.org/2000/svg"
   xmlns:sodipodi="http://sodipodi.sourceforge.net/DTD/sodipodi-0.dtd"
   xmlns:inkscape="http://www.inkscape.org/namespaces/inkscape"
   width="48"
   height="48"
   id="svg2"
   version="1.1"
   inkscape:version="0.48+devel r12392"
   sodipodi:docname="virtualbox.svg">
  <defs
     id="defs4" />
  <sodipodi:namedview
     id="base"
     pagecolor="#ffffff"
     bordercolor="#666666"
     borderopacity="1.0"
     inkscape:pageopacity="0.0"
     inkscape:pageshadow="2"
     inkscape:zoom="11.618308"
     inkscape:cx="26.047134"
     inkscape:cy="29.648347"
     inkscape:document-units="px"
     inkscape:current-layer="layer1"
     showgrid="false"
     fit-margin-top="0"
     fit-margin-left="0"
     fit-margin-right="0"
     fit-margin-bottom="0"
     inkscape:window-width="1366"
     inkscape:window-height="718"
     inkscape:window-x="0"
     inkscape:window-y="30"
     inkscape:window-maximized="1" />
  <metadata
     id="metadata7">
    <rdf:RDF>
      <cc:Work
         rdf:about="">
        <dc:format>image/svg+xml</dc:format>
        <dc:type
           rdf:resource="http://purl.org/dc/dcmitype/StillImage" />
        <dc:title />
      </cc:Work>
    </rdf:RDF>
  </metadata>
  <g
     inkscape:label="Capa 1"
     inkscape:groupmode="layer"
     id="layer1"
     transform="translate(-180.23661,-689.8125)">
    <rect
       style="fill:#157557;fill-opacity:1;stroke:none"
       id="rect902"
       width="44.232235"
       height="46"
       x="182.12048"
       y="690.8125" />
    <path
       style="fill:#4f9882;fill-opacity:1;stroke:none"
       d="M 17.21875 1 L 17.21875 5.59375 L 1.875 5.59375 L 1.875 7.15625 L 17.21875 7.15625 L 17.21875 47 L 18.78125 47 L 18.78125 7.15625 L 31.71875 7.15625 L 31.71875 47 L 33.28125 47 L 33.28125 44.53125 L 46.125 44.53125 L 46.125 42.96875 L 33.28125 42.96875 L 33.28125 7.15625 L 46.125 7.15625 L 46.125 5.59375 L 33.28125 5.59375 L 31.71875 5.59375 L 18.78125 5.59375 L 18.78125 1 L 17.21875 1 z "
       transform="translate(180.23661,689.8125)"
       id="rect904" />
    <path
       style="fill:#4f9882;fill-opacity:1;stroke:none"
       d="m 14.71875,1 0,21.59375 -12.84375,0 0,1.5625 12.84375,0 1.5625,0 12.9375,0 0,8.59375 1.5625,0 0,-8.59375 15.34375,0 0,-1.5625 -15.34375,0 0,-21.59375 -1.5625,0 0,21.59375 -12.9375,0 L 16.28125,1 Z"
       transform="translate(180.23661,689.8125)"
       id="path4057"
       inkscape:connector-curvature="0"
       sodipodi:nodetypes="ccccccccccccccccccc" />
    <path
       style="fill:#4f9882;fill-opacity:1;stroke:none"
       d="m 8.15625,1 0,1.25 -6.28125,0 0,1.5625 6.28125,0 0,35.8125 -6.28125,0 0,1.5625 6.28125,0 1.5625,0 12.9375,0 0,4.59375 1.5625,0 0,-4.59375 19.34375,0 0,-1.5625 -19.34375,0 0,-38.625 -1.5625,0 0,38.625 -12.9375,0 L 9.71875,1 Z"
       transform="translate(180.23661,689.8125)"
       id="path4059"
       inkscape:connector-curvature="0"
       sodipodi:nodetypes="ccccccccccccccccccccccc" />
    <path
       style="fill:#1a1a1a;fill-opacity:1;stroke:none"
       d="M 1.875 1 L 1.875 47 L 46.125 47 L 46.125 1 L 1.875 1 z M 4.78125 4 L 43.21875 4 L 43.21875 44 L 4.78125 44 L 4.78125 4 z "
       id="rect4044"
       transform="translate(180.23661,689.8125)" />
    <path
       style="fill:#ffffff;fill-opacity:0.11764706;stroke:none"
       d="M 1.875 1 L 1.875 24 L 4.78125 24 L 4.78125 4 L 43.21875 4 L 43.21875 24 L 46.125 24 L 46.125 1 L 1.875 1 z "
       transform="translate(180.23661,689.8125)"
       id="path4051" />
    <g
       id="g888"
       transform="matrix(0.73913044,0,0,0.73913044,53.27912,182.0308)">
      <rect
         y="702.12622"
         x="181.2366"
         height="10.307693"
         width="46"
         id="rect845"
         style="fill:#211d1e;fill-opacity:1;stroke:none" />
      <rect
         y="714.31549"
         x="181.2366"
         height="10.307693"
         width="46"
         id="rect849"
         style="fill:#211d1e;fill-opacity:1;stroke:none" />
      <rect
         style="fill:#211d1e;fill-opacity:1;stroke:none"
         id="rect851"
         width="46"
         height="10.307693"
         x="181.2366"
         y="726.50482" />
      <path
         transform="matrix(0.77777777,0,0,0.77777777,189.95883,703.05089)"
         d="m 43.75,5.4374995 c 0,0.9319805 -0.755519,1.6875 -1.6875,1.6875 -0.931981,0 -1.6875,-0.7555195 -1.6875,-1.6875 0,-0.9319805 0.755519,-1.6875 1.6875,-1.6875 C 42.994481,3.7499995 43.75,4.505519 43.75,5.4374995 Z"
         sodipodi:ry="1.6875"
         sodipodi:rx="1.6875"
         sodipodi:cy="5.4374995"
         sodipodi:cx="42.0625"
         id="path853"
         style="fill:#9ff681;fill-opacity:1;stroke:none"
         sodipodi:type="arc" />
      <path
         sodipodi:type="arc"
         style="fill:#157557;fill-opacity:1;stroke:none"
         id="path855"
         sodipodi:cx="42.0625"
         sodipodi:cy="5.4374995"
         sodipodi:rx="1.6875"
         sodipodi:ry="1.6875"
         d="m 43.75,5.4374995 c 0,0.9319805 -0.755519,1.6875 -1.6875,1.6875 -0.931981,0 -1.6875,-0.7555195 -1.6875,-1.6875 0,-0.9319805 0.755519,-1.6875 1.6875,-1.6875 C 42.994481,3.7499995 43.75,4.505519 43.75,5.4374995 Z"
         transform="matrix(0.77777777,0,0,0.77777777,184.31032,703.05089)" />
      <path
         transform="matrix(0.77777777,0,0,0.77777777,178.66181,703.05089)"
         d="m 43.75,5.4374995 c 0,0.9319805 -0.755519,1.6875 -1.6875,1.6875 -0.931981,0 -1.6875,-0.7555195 -1.6875,-1.6875 0,-0.9319805 0.755519,-1.6875 1.6875,-1.6875 C 42.994481,3.7499995 43.75,4.505519 43.75,5.4374995 Z"
         sodipodi:ry="1.6875"
         sodipodi:rx="1.6875"
         sodipodi:cy="5.4374995"
         sodipodi:cx="42.0625"
         id="path857"
         style="fill:#157557;fill-opacity:1;stroke:none"
         sodipodi:type="arc" />
      <path
         transform="matrix(0.77777777,0,0,0.77777777,189.95883,715.24017)"
         d="m 43.75,5.4374995 c 0,0.9319805 -0.755519,1.6875 -1.6875,1.6875 -0.931981,0 -1.6875,-0.7555195 -1.6875,-1.6875 0,-0.9319805 0.755519,-1.6875 1.6875,-1.6875 C 42.994481,3.7499995 43.75,4.505519 43.75,5.4374995 Z"
         sodipodi:ry="1.6875"
         sodipodi:rx="1.6875"
         sodipodi:cy="5.4374995"
         sodipodi:cx="42.0625"
         id="path865"
         style="fill:#9ff681;fill-opacity:1;stroke:none"
         sodipodi:type="arc" />
      <path
         sodipodi:type="arc"
         style="fill:#9ff681;fill-opacity:1;stroke:none"
         id="path867"
         sodipodi:cx="42.0625"
         sodipodi:cy="5.4374995"
         sodipodi:rx="1.6875"
         sodipodi:ry="1.6875"
         d="m 43.75,5.4374995 c 0,0.9319805 -0.755519,1.6875 -1.6875,1.6875 -0.931981,0 -1.6875,-0.7555195 -1.6875,-1.6875 0,-0.9319805 0.755519,-1.6875 1.6875,-1.6875 C 42.994481,3.7499995 43.75,4.505519 43.75,5.4374995 Z"
         transform="matrix(0.77777777,0,0,0.77777777,184.31032,715.24017)" />
      <path
         transform="matrix(0.77777777,0,0,0.77777777,178.66181,715.24017)"
         d="m 43.75,5.4374995 c 0,0.9319805 -0.755519,1.6875 -1.6875,1.6875 -0.931981,0 -1.6875,-0.7555195 -1.6875,-1.6875 0,-0.9319805 0.755519,-1.6875 1.6875,-1.6875 C 42.994481,3.7499995 43.75,4.505519 43.75,5.4374995 Z"
         sodipodi:ry="1.6875"
         sodipodi:rx="1.6875"
         sodipodi:cy="5.4374995"
         sodipodi:cx="42.0625"
         id="path869"
         style="fill:#157557;fill-opacity:1;stroke:none"
         sodipodi:type="arc" />
      <path
         sodipodi:type="arc"
         style="fill:#9ff681;fill-opacity:1;stroke:none"
         id="path871"
         sodipodi:cx="42.0625"
         sodipodi:cy="5.4374995"
         sodipodi:rx="1.6875"
         sodipodi:ry="1.6875"
         d="m 43.75,5.4374995 c 0,0.9319805 -0.755519,1.6875 -1.6875,1.6875 -0.931981,0 -1.6875,-0.7555195 -1.6875,-1.6875 0,-0.9319805 0.755519,-1.6875 1.6875,-1.6875 C 42.994481,3.7499995 43.75,4.505519 43.75,5.4374995 Z"
         transform="matrix(0.77777777,0,0,0.77777777,189.95883,727.4295)" />
      <path
         transform="matrix(0.77777777,0,0,0.77777777,184.31032,727.4295)"
         d="m 43.75,5.4374995 c 0,0.9319805 -0.755519,1.6875 -1.6875,1.6875 -0.931981,0 -1.6875,-0.7555195 -1.6875,-1.6875 0,-0.9319805 0.755519,-1.6875 1.6875,-1.6875 C 42.994481,3.7499995 43.75,4.505519 43.75,5.4374995 Z"
         sodipodi:ry="1.6875"
         sodipodi:rx="1.6875"
         sodipodi:cy="5.4374995"
         sodipodi:cx="42.0625"
         id="path873"
         style="fill:#9ff681;fill-opacity:1;stroke:none"
         sodipodi:type="arc" />
      <path
         sodipodi:type="arc"
         style="fill:#9ff681;fill-opacity:1;stroke:none"
         id="path875"
         sodipodi:cx="42.0625"
         sodipodi:cy="5.4374995"
         sodipodi:rx="1.6875"
         sodipodi:ry="1.6875"
         d="m 43.75,5.4374995 c 0,0.9319805 -0.755519,1.6875 -1.6875,1.6875 -0.931981,0 -1.6875,-0.7555195 -1.6875,-1.6875 0,-0.9319805 0.755519,-1.6875 1.6875,-1.6875 C 42.994481,3.7499995 43.75,4.505519 43.75,5.4374995 Z"
         transform="matrix(0.77777777,0,0,0.77777777,178.66181,727.4295)" />
    </g>
  </g>
</svg>
