<svg xmlns="http://www.w3.org/2000/svg" width="48" height="48">
 <g transform="translate(-180.23661,-689.8125)">
  <path d="M 4 4 L 4 44 L 36 44 L 36 42 L 38 42 L 38 44 L 44 44 L 44 4 L 4 4 z M 6.5 40.5 C 7.0236351 40.499969 7.5 40.976385 7.5 41.5 C 7.5 42.023615 7.0236351 42.500031 6.5 42.5 C 5.9763649 42.499969 5.5 42.023556 5.5 41.5 C 5.5 40.976444 5.9763649 40.500031 6.5 40.5 z M 41.5 40.5 C 42.023635 40.499969 42.5 40.976385 42.5 41.5 C 42.5 42.023615 42.023635 42.500031 41.5 42.5 C 40.976365 42.499969 40.5 42.023556 40.5 41.5 C 40.5 40.976444 40.976365 40.500031 41.5 40.5 z " transform="translate(180.23661,689.8125)" style="fill:#76bd74"/>
  <rect width="2" height="2" x="189.24" y="731.81" style="fill:#f1cb6d" fill-rule="evenodd"/>
  <path d="m 38,11.5 0,8 -5,0 0,1 5,0 1,0 0,-1 0,-8 z m -2,3 0,3 -3,0 0,1 4,0 0,-1 0,-3 z m -3,1 0,1 2,0 0,-1 z m 0,6 0,1 0.917969,0 0,0.002 3.082031,0 0,2.998047 1,0 0,-4 -1,0 -1.128906,0 -0.871094,0 -1.082031,0 z m 0,2 0,1 2,0 0,-1 z m 0,2 0,1 2,0 0,-1 z m 0,2 0,1 6,0 0,-1 z m 0,2 0,1 6,0 0,-1 z m 0,2 0,1 1.650391,0 1.623047,2.810547 0,3.689453 1.001953,0 0,-1.953125 0,-2.001953 L 36.273438,33.308594 35.806641,32.5 l -0.578125,-1 -1.15625,0 z" transform="translate(180.23661,689.8125)" style="fill:#548c54"/>
  <rect width="18" height="18" x="195.24" y="704.81" style="fill:#333333"/>
  <path d="m 190.23662,726.3125 0,-8 5,0 0,-1 -5,0 -1,0 0,1 0,8 z m 2,-3 0,-3 3,0 0,-1 -4,0 0,1 0,3 z m 3,-1 0,-1 -2,0 0,1 z m 0,-6 0,-1 -0.91797,0 0,-0.002 -3.08203,0 0,-2.99805 -1,0 0,4 1,0 1.12891,0 0.87109,0 1.08203,0 z m 0,-2 0,-1 -2,0 0,1 z m 0,-2 0,-1 -2,0 0,1 z m 0,-2 0,-1 -6,0 0,1 z m 0,-2 0,-1 -6,0 0,1 z m 0,-2 0,-1 -1.65039,0 -1.62305,-2.81055 0,-3.68945 -1.00195,0 0,1.95313 0,2.00195 1.00195,1.73633 0.4668,0.80859 0.57812,1 1.15625,0 z" style="fill:#548c54"/>
  <rect y="728.81" x="192.24" height="5" width="2" style="fill:#f1cb6d" fill-rule="evenodd"/>
  <rect width="2" height="5" x="195.24" y="728.81" style="fill:#f1cb6d" fill-rule="evenodd"/>
  <rect y="728.81" x="198.24" height="5" width="2" style="fill:#f1cb6d" fill-rule="evenodd"/>
  <rect y="728.81" x="201.24" height="5" width="2" style="fill:#f1cb6d" fill-rule="evenodd"/>
  <rect width="2" height="5" x="204.24" y="728.81" style="fill:#f1cb6d" fill-rule="evenodd"/>
  <rect y="728.81" x="207.24" height="5" width="2" style="fill:#f1cb6d" fill-rule="evenodd"/>
  <rect width="2" height="5" x="210.24" y="728.81" style="fill:#f1cb6d" fill-rule="evenodd"/>
  <rect width="2" height="5" x="213.24" y="728.81" style="fill:#f1cb6d" fill-rule="evenodd"/>
  <path d="m 207.32487,707.31292 c -0.0395,0 -0.0709,0.0105 -0.10863,0.0155 -0.22622,0.031 -0.4342,0.19815 -0.49661,0.4217 l -1.67604,5.46635 -0.41901,0 -0.1707,0 -0.41901,0 -0.15519,0 -0.86906,0 c -0.24026,0.005 -0.46807,0.1762 -0.54316,0.40605 l -1.24151,4.06075 -1.76915,-6.34095 c -0.12511,-0.40775 -0.76663,-0.5265 -1.02424,-0.1874 l -1.50533,2.06155 -0.46557,0 -0.37245,0 -0.0465,0 c -0.0224,0 -0.031,0.0245 -0.031,0.047 l 0,1.0933 c 0,0.0225 0.009,0.031 0.031,0.031 l 0.0465,0 0.37245,0 0.74491,0 c 0.18575,-0.005 0.36108,-0.0951 0.46556,-0.24985 l 1.00873,-1.39005 1.97089,7.13755 c 0.0539,0.1903 0.21439,0.35165 0.4035,0.40605 0.29467,0.0888 0.64617,-0.108 0.72938,-0.40605 l 1.66052,-5.49765 0.43453,0 0.15519,0 0.41901,0 0.1707,0 0.85354,0 c 0.24027,-0.005 0.48359,-0.16055 0.55868,-0.3904 l 1.22599,-4.04515 1.78467,6.34095 c 0.12511,0.40795 0.76664,0.52665 1.02425,0.18745 l 1.50533,-2.09285 0.46557,0 0.34141,0 0.031,0 c 0.0225,0 0.0465,-0.009 0.0465,-0.031 l 0,-1.0933 c 0,-0.0225 -0.0241,-0.047 -0.0465,-0.047 l -0.031,0 -0.34141,0 -0.76043,0 c -0.18575,0.005 -0.34556,0.11085 -0.45005,0.2655 l -1.02424,1.39 -1.95538,-7.12185 c -0.0539,-0.19025 -0.21438,-0.35175 -0.40349,-0.40605 -0.0368,-0.011 -0.0847,-0.029 -0.12415,-0.031 z" color="#000000" style="fill:#5c5c5c"/>
 </g>
</svg>
