<?xml version="1.0" standalone="no"?>
<!DOCTYPE svg PUBLIC "-//W3C//DTD SVG 20010904//EN" "http://www.w3.org/TR/2001/REC-SVG-20010904/DTD/svg10.dtd">
<!-- Created using Karbon, part of Calligra: http://www.calligra.org/karbon -->
<svg xmlns="http://www.w3.org/2000/svg" xmlns:xlink="http://www.w3.org/1999/xlink" width="38.4pt" height="38.4pt">
<defs/>
<g id="layer1">
  <path id="shape0" transform="translate(10.5298, 1.14351)" fill="#ff8800" fill-rule="evenodd" stroke="#ff7700" stroke-width="0.00000000000" stroke-linecap="square" stroke-linejoin="miter" stroke-miterlimit="2.01260191180" d="M13.9604 0C9.30616 12.2846 4.65416 23.2594 0 35.544C8.70602 37.919 17.9056 38.7236 28.3616 35.5306Z"/>
  <path id="shape1" transform="translate(13.0537, 22.9772)" fill="#f3f3f3" fill-rule="evenodd" stroke="#003bc3" stroke-width="0.00000000000" stroke-linecap="square" stroke-linejoin="bevel" d="M0 7.13522C6.45262 9.21853 13.3971 10.0415 23.3353 7.51639L20.4121 0.106167C14.2554 2.10342 8.40805 1.6549 2.72423 0Z"/>
  <path id="shape2" transform="translate(19.6057, 7.18608)" fill="#f3f3f3" fill-rule="evenodd" stroke="#003bc3" stroke-width="0.00000000000" stroke-linecap="square" stroke-linejoin="bevel" d="M0 6.27066C3.04392 6.93828 6.25129 7.27533 9.97925 6.48836L7.52745 0C5.74638 0.371114 4.13606 0.482707 2.46961 0.121956Z"/>
  <path id="shape0" transform="translate(1.6086, 34.4699)" fill="#ff8800" fill-rule="evenodd" stroke="#ff9e22" stroke-width="0.00000000000" stroke-linecap="square" stroke-linejoin="miter" stroke-miterlimit="2.01260191180" d="M0 8.3647L45.2705 8.59449L38.1926 0L39.5714 3.21719C27.0561 7.87812 16.6047 6.43686 6.84802 3.21719L7.81318 0.505558Z"/>
 </g>
</svg>
