<?xml version="1.0" encoding="UTF-8" standalone="no"?>
<!-- Created with Inkscape (http://www.inkscape.org/) -->

<svg
   xmlns:dc="http://purl.org/dc/elements/1.1/"
   xmlns:cc="http://creativecommons.org/ns#"
   xmlns:rdf="http://www.w3.org/1999/02/22-rdf-syntax-ns#"
   xmlns:svg="http://www.w3.org/2000/svg"
   xmlns="http://www.w3.org/2000/svg"
   xmlns:sodipodi="http://sodipodi.sourceforge.net/DTD/sodipodi-0.dtd"
   xmlns:inkscape="http://www.inkscape.org/namespaces/inkscape"
   width="48px"
   height="48px"
   id="svg3089"
   version="1.1"
   inkscape:version="0.48.4 r9939"
   sodipodi:docname="New document 2">
  <defs
     id="defs3091">
    <clipPath
       clipPathUnits="userSpaceOnUse"
       id="clipPath3258">
      <path
         transform="matrix(0.28222225,0,0,0.28222225,-38.10664,397.8642)"
         sodipodi:type="arc"
         style="fill:#000038"
         id="path3260"
         sodipodi:cx="23.999975"
         sodipodi:cy="23.999826"
         sodipodi:rx="20.000002"
         sodipodi:ry="19.999981"
         d="m 43.999977,23.999826 a 20.000002,19.999981 0 1 1 -40.0000037,0 20.000002,19.999981 0 1 1 40.0000037,0 z" />
    </clipPath>
  </defs>
  <sodipodi:namedview
     id="base"
     pagecolor="#ffffff"
     bordercolor="#666666"
     borderopacity="1.0"
     inkscape:pageopacity="0.0"
     inkscape:pageshadow="2"
     inkscape:zoom="7"
     inkscape:cx="24"
     inkscape:cy="24"
     inkscape:current-layer="layer1"
     showgrid="true"
     inkscape:grid-bbox="true"
     inkscape:document-units="px"
     inkscape:window-width="1024"
     inkscape:window-height="713"
     inkscape:window-x="0"
     inkscape:window-y="33"
     inkscape:window-maximized="1" />
  <metadata
     id="metadata3094">
    <rdf:RDF>
      <cc:Work
         rdf:about="">
        <dc:format>image/svg+xml</dc:format>
        <dc:type
           rdf:resource="http://purl.org/dc/dcmitype/StillImage" />
        <dc:title></dc:title>
      </cc:Work>
    </rdf:RDF>
  </metadata>
  <g
     id="layer1"
     inkscape:label="Layer 1"
     inkscape:groupmode="layer">
    <g
       transform="matrix(3.5433067,0,0,3.5433067,135.02354,-1409.469)"
       id="g3243"
       clip-path="url(#clipPath3258)">
      <rect
         style="fill:#0064e0;fill-opacity:1;fill-rule:nonzero;stroke:none;display:inline"
         id="rect2419-8"
         y="397.89212"
         x="-38.131992"
         ry="0.96416169"
         rx="0.96691191"
         height="13.498262"
         width="13.536768" />
      <path
         style="opacity:0.8;fill:#0094ec;fill-opacity:1;stroke:none;display:inline"
         id="path3522-9"
         inkscape:connector-curvature="0"
         d="m -33.253293,397.90756 c 0.265919,0.35603 0.01813,0.95057 0.419232,0.94466 0.1953,0.27529 -0.389253,0.082 0.03281,0.29431 0.242712,0.19058 -0.25678,0.29948 0.0438,0.47049 -0.346425,0.17823 0.05615,0.93221 0.313459,1.12091 0.423499,0.35547 0.187291,-0.7526 0.659836,-0.81023 0.256773,-0.29228 0.707753,-0.47989 1.028033,-0.77392 -0.313004,-0.0253 -0.49578,-0.21958 -0.199348,-0.3399 0.545572,0.55739 0.1368,-0.26397 -0.165203,-0.39402 0.292225,-0.0926 0.576438,-0.0247 0.53589,-0.26524 0.308817,-0.22525 -0.296885,-0.29798 -0.513102,-0.24706 -0.718468,0 -1.436936,0 -2.155408,0 z m -4.480322,0.23253 c -0.394785,0.11215 -0.422322,1.0528 -0.02553,0.53046 0.0974,-0.21447 0.547447,-0.47294 0.02553,-0.53046 z m 1.844624,0.0326 c -0.227588,0.35581 0.03301,0.6411 0.222374,0.2071 0.134034,-0.18123 -0.09957,-0.20046 -0.222374,-0.2071 z m 0.568697,0.0799 c -0.439745,0.2032 -0.108399,0.67709 -0.09752,0.78247 0.463242,0.15978 0.720869,-0.10449 0.896116,0.34717 0.440775,0.25327 -0.0086,0.69338 -0.174131,0.80799 0.298024,-0.25878 0.870892,0.70358 0.720713,0.19514 -0.179165,-0.13044 0.481064,0.20953 0.138531,-0.21437 -0.315225,-0.50636 0.02502,-0.2267 0.15792,-0.1085 0.452014,-0.40414 -0.511433,-0.45297 -0.270932,-0.86886 -0.210748,-0.17018 -0.487145,-0.68575 -0.860338,-0.58497 -0.249823,0.32212 -0.03452,-0.70188 -0.401043,-0.18946 -0.01901,0.28645 -0.0069,0.64992 -0.113726,0.15369 -0.07157,-0.0869 0.123119,-0.28884 0.0045,-0.3203 z m -0.896792,0.004 c -0.29517,0.0981 -0.279313,0.49574 0.08364,0.53837 0.124318,-0.14129 0.04938,-0.51161 -0.08364,-0.53837 z m -1.151982,0.12718 c -0.383391,0.0906 -0.2269,0.39875 -0.109507,0.48558 -0.474582,0.11851 0.724488,0.15147 0.127741,0.22656 -0.496475,0.19767 0.478081,0.43058 0.637963,0.19617 0.613085,0.1495 0.02208,-0.48931 -0.03175,-0.83559 -0.259901,-0.2781 -0.01018,0.64109 -0.245254,0.0296 -0.082,0.18158 -0.342694,0.0267 -0.379184,-0.10237 z m 12.183273,0.0398 c -0.514469,0.20075 0.319753,0.95829 0.112426,0.26912 -0.02066,-0.0833 0.04643,-0.30311 -0.112426,-0.26912 z m -10.743299,0.30521 c -0.369695,0.3464 0.469917,0.63285 -0.106193,0.8909 -0.08638,-0.32171 -0.235005,0.16097 -0.564589,-0.0988 -0.566593,0.2352 -0.856342,-0.12252 -1.330718,-0.36773 -0.284924,-0.0354 -0.177876,0.26991 -0.196747,0.55574 0,0.78995 0,1.57991 0,2.36985 0.279354,0.29303 0.108992,0.12928 0,0.0484 0.15333,0.52065 -0.06762,1.28174 0.536772,1.58458 0.102743,0.19004 0.533879,0.99953 0.553754,0.75731 -0.21614,-0.22568 -0.437906,-0.90222 -0.07218,-0.29923 0.327581,0.5732 0.769459,0.94499 1.41499,1.08139 0.352931,0.11967 0.643185,0.53113 0.953555,0.4406 0.175502,0.46129 -0.520104,0.90424 0.02335,1.33447 0.283711,0.43557 0.760022,0.72124 0.502146,1.33272 -0.180342,0.59719 -0.103122,1.24792 -0.2591,1.80435 -0.04842,0.33868 0.47347,1.19835 0.428255,0.50997 0.15238,-0.47839 0.148362,-1.00475 0.507241,-1.34353 0.491048,0.004 0.09385,-0.52644 0.581275,-0.45716 0.29743,-0.38869 0.383578,-0.85239 0.885515,-1.00674 0.05997,-0.47182 0.834577,-1.19442 0.03435,-1.37813 -0.21749,-0.10688 -0.777475,-0.14531 -0.73468,-0.19804 0.0867,-0.46817 -0.724131,-0.60145 -1.069121,-0.79298 -0.452959,-0.32058 -1.133583,0.53252 -1.293166,-0.20256 -0.09523,-0.23126 -0.443385,-0.23502 -0.283376,-0.59188 -0.288364,0.28593 -0.852386,0.19903 -0.704721,-0.35317 0.224252,-0.46508 1.085461,-0.48708 1.232208,0.0723 -0.203751,-0.61694 0.393846,-1.09721 0.725594,-1.53614 0.06755,-0.20978 0.468909,-0.39003 0.330793,-0.11122 0.235305,-0.008 0.591955,-0.43181 0.17395,-0.23643 -0.0058,-0.38608 -0.366296,-0.27628 -0.483134,-0.22146 0.216549,-0.34267 1.328695,-0.15533 0.862983,-0.71546 -0.360868,-0.1458 -0.330849,-0.99652 -0.695854,-0.52258 0.03071,-0.29203 -0.742913,-0.86364 -0.726031,-0.37397 0.09442,0.4382 0.01726,0.94295 -0.1837,1.23016 -0.04194,-0.64206 -1.14026,-0.50016 -0.999049,-1.18435 0.204573,-0.32611 0.443624,-0.77704 0.466403,-0.73648 0.366628,-0.13955 0.661462,-0.54552 0.236542,-0.81239 -0.0227,0.2326 -0.319569,0.71249 -0.277771,0.13208 -0.274894,0.32494 -0.212109,-0.5171 -0.469559,-0.60442 z m 8.774726,0.22526 c -0.643955,0.15707 -0.899242,0.77028 -1.217795,1.2782 -0.469573,0.21108 -0.451699,1.11761 0.07289,0.82807 0.140408,0.24449 -0.09822,0.62987 0.310751,0.31018 0.329877,-0.43525 0.05768,-1.1392 0.619052,-1.41365 0.04089,0.2134 -0.517837,1.01025 0.134881,0.87927 0.590071,0.0223 -0.42896,0.0586 -0.141972,0.43441 -0.298176,-0.17638 -0.143239,0.48173 -0.532444,0.32859 -0.337182,0.18286 -0.558284,-0.0849 -0.481046,-0.37825 -0.265248,0.15429 0.08342,0.58953 -0.377027,0.61569 -0.103153,0.36517 -0.951344,0.31013 -0.468985,0.682 0.214155,0.55336 -0.797949,0.0346 -0.510616,0.69873 0.245829,0.65667 0.761025,-0.21758 0.970043,-0.38648 0.403279,-0.31188 1.000861,0.53179 0.637964,0.56315 0.406921,-0.0545 0.323302,-0.44027 -0.0028,-0.58964 -0.176088,-0.45533 0.557428,0.2233 0.516749,0.45159 0.258802,0.48318 0.152229,-0.4947 0.415588,-0.0617 -0.03075,0.45669 1.059442,0.10743 0.538954,0.68943 -0.4475,0.0899 -0.887968,-0.11503 -1.273235,0.0163 -0.35858,-0.004 -0.34059,-0.38513 -0.471138,-0.4808 -0.45612,0.0369 -1.019761,0.0327 -1.325117,0.40014 -0.330205,0.45172 -0.806376,1.08315 -0.446476,1.65992 0.360153,0.85471 1.253308,0.0443 1.766705,0.54909 0.1526,0.21047 -0.13224,0.46067 0.208966,0.68865 0.128392,0.4856 -0.145758,0.94669 0.169575,1.41092 0.16306,0.43657 0.264256,1.09002 0.871149,0.69109 0.642315,-0.38539 0.471233,-1.09583 1.001227,-1.48931 -0.419361,-0.80919 0.513049,-1.16399 0.745686,-1.82091 -0.508265,0.0742 -0.961073,-0.43104 -1.083875,-0.93956 -0.213518,-0.24701 -0.158521,-0.61123 0.07999,-0.14721 0.327824,0.31673 0.334906,1.25649 0.941331,0.77304 0.277238,-0.11562 1.03437,-0.55664 0.4311,-0.75735 -0.388867,0.28082 -0.817887,-0.83909 -0.246856,-0.18952 0.415131,0.1756 0.705841,0.28022 0.705841,-0.30198 0,-1.56857 0,-3.1584 0,-4.7376 -0.129311,0.13175 -0.461509,0.37508 -0.629186,0.21338 -0.28852,0.0401 -0.669406,0.59979 -0.578736,0.0587 -0.25079,-0.0165 -0.04489,0.48516 -0.389445,0.49918 -0.0347,0.25793 -0.348068,0.0478 -0.230356,0.29269 -0.241833,-0.17102 -0.4465,-0.71104 0.02999,-0.37208 0.707622,-0.21167 -0.466634,-0.68911 -0.557272,-0.80451 0.152361,-0.0365 -0.165764,-0.19472 -0.204148,-0.1417 z m -5.840097,0.1417 c -0.235525,0.19566 0.447767,0.23251 0,0 z m -3.146069,0.10534 c -0.263429,0.27474 0.419525,0.25255 0,0 z m 1.527465,0.27249 c -0.199483,0.32582 0.294753,0.12031 0,0 z m 4.367311,0.38514 c -0.233545,0.26807 -0.5418,-0.0706 -0.546824,0.15987 0.04234,0.0695 0.21186,0.56653 0.58328,0.19984 0.199343,-0.0837 0.120857,-0.29504 -0.03647,-0.35971 z m -4.972465,0.15987 c -0.442975,0.3857 0.752306,0.42125 0.09385,0.0443 l -0.09385,-0.0443 z m 5.843743,1.06819 c -0.318935,0.20735 0.153001,0.64773 -0.0069,0.85459 -0.199845,0.34716 0.742639,-0.0244 0.239248,-0.30144 -0.03586,-0.23797 -0.294911,-0.52832 -0.232306,-0.55315 z m -0.215088,0.41783 c -0.444359,0.12526 -0.100876,0.77194 0.05652,0.16285 0.0088,-0.0353 0.02086,-0.16403 -0.05652,-0.16285 z m -3.558008,0.46871 c -0.413393,0.28104 -0.06422,0.56158 0.238755,0.43512 -0.0622,-0.16957 -0.235954,-0.27642 -0.238755,-0.43512 z m 7.808668,0.47232 c 0.206266,0.10375 -0.377991,0.28109 -0.0081,0.46376 0.2153,0.25243 0.134132,0.79431 -0.215812,0.41078 0.06501,-0.42819 -0.474358,-0.74797 0.223845,-0.87454 z m -1.060844,0.004 c -0.028,0.2751 0.595287,0.70272 -0.07656,0.56317 -0.355301,0.0415 -0.887458,-0.0108 -0.439853,-0.45223 0.141434,-0.0847 0.512795,0.29208 0.319553,-0.06 0.06851,-0.005 0.132316,-0.0301 0.196855,-0.0508 z m -2.052418,0.59587 c -0.259149,0.16646 0.1792,0.29411 0,0 z m -6.507221,1.55143 c -0.04368,0.14532 0.819617,0.29258 0.223886,0.0598 l -0.08881,-0.0312 -0.135081,-0.0286 z m 0.670772,0.20709 c -0.261859,0.26507 0.539507,0.0793 0,0 z m 8.756498,2.43071 c -0.568983,0.0145 -0.493338,1.47789 -0.09671,0.61206 0.03761,-0.18788 0.18837,-0.43585 0.09671,-0.61206 z" />
      <g
         id="layer7"
         transform="matrix(0.13935168,0,0,0.13895532,-38.052487,397.97136)">
        <path
           style="color:#000000;fill:#ffffff;fill-opacity:1;fill-rule:nonzero;stroke:none;stroke-width:0.80000001;marker:none;visibility:visible;display:inline;overflow:visible;enable-background:accumulate"
           id="path4588"
           inkscape:connector-curvature="0"
           d="m 48,16 -4.625,16.6875 c -1.750115,0.528895 -3.372187,1.350473 -4.8125,2.40625 l -7.53125,-4.0625 4.0625,7.53125 c -1.055777,1.440313 -1.877355,3.062385 -2.40625,4.8125 L 16,48 32.6875,52.625 c 0.528895,1.750115 1.350473,3.372187 2.40625,4.8125 l -4.0625,7.53125 7.53125,-4.0625 c 1.440313,1.055777 3.062385,1.877355 4.8125,2.40625 L 48,80 52.625,63.3125 c 1.750115,-0.528895 3.372187,-1.350473 4.8125,-2.40625 l 7.53125,4.0625 -4.0625,-7.53125 c 1.055777,-1.440313 1.877355,-3.062385 2.40625,-4.8125 L 80,48 63.3125,43.375 c -0.528895,-1.750115 -1.350473,-3.372187 -2.40625,-4.8125 l 4.0625,-7.53125 -7.53125,4.0625 C 55.997187,34.037973 54.375115,33.216395 52.625,32.6875 L 48,16 z m 0,20 c 6.627417,0 12,5.372583 12,12 0,6.627417 -5.372583,12 -12,12 -6.627417,0 -12,-5.372583 -12,-12 0,-6.627417 5.372583,-12 12,-12 z" />
        <g
           id="g4572"
           transform="matrix(0.70710678,0.70710678,-0.70710678,0.70710678,51.864822,-19.873366)">
          <g
             id="g5928-7-4"
             transform="matrix(0.98983765,0,0,0.77048859,-18.069009,1.4360243)">
            <path
               style="fill:#ff5555;fill-opacity:1;fill-rule:evenodd;stroke:none"
               id="path5923-0-5"
               inkscape:connector-curvature="0"
               d="m 69,64 -10,0 5,-48 5,48 z" />
            <path
               style="fill:#e6e6e6;fill-opacity:1;fill-rule:evenodd;stroke:none"
               id="path5926-8-6"
               inkscape:connector-curvature="0"
               d="m 69,63.999997 -10,0 L 64,112 69,63.999997 z" />
          </g>
          <path
             style="fill:#333333;fill-opacity:1;fill-rule:evenodd;stroke:none"
             id="path5958-8-4"
             d="m 47.094326,50.775531 a 1.5409775,1.5409775 0 1 1 -3.081955,0 1.5409775,1.5409775 0 1 1 3.081955,0 z"
             inkscape:connector-curvature="0" />
        </g>
      </g>
    </g>
  </g>
</svg>
