<svg xmlns="http://www.w3.org/2000/svg" width="48" height="48">
 <g transform="translate(0,-1004.3622)">
  <rect width="40" height="40" x="4" y="1008.36" style="fill:#2c3e50" rx="0"/>
  <path d="M 26 9 L 26 12 L 9 12 L 9 15 L 26 15 L 26 20 L 33 20 L 33 15 L 39 15 L 39 12 L 33 12 L 33 9 L 26 9 z M 15 18.5 L 15 22.5 L 9 22.5 L 9 25.5 L 15 25.5 L 15 29.5 L 22 29.5 L 22 25.5 L 39 25.5 L 39 22.5 L 22 22.5 L 22 18.5 L 15 18.5 z M 26 29 L 26 33 L 9 33 L 9 36 L 26 36 L 26 40 L 33 40 L 33 36 L 39 36 L 39 33 L 33 33 L 33 29 L 26 29 z " transform="translate(0,1004.3622)" style="fill:#ecf0f1"/>
 </g>
</svg>
