<?xml version="1.0" standalone="no"?>
<!DOCTYPE svg PUBLIC "-//W3C//DTD SVG 20010904//EN" "http://www.w3.org/TR/2001/REC-SVG-20010904/DTD/svg10.dtd">
<!-- Created using Karbon, part of Calligra: http://www.calligra.org/karbon -->
<svg xmlns="http://www.w3.org/2000/svg" xmlns:xlink="http://www.w3.org/1999/xlink" width="38.4pt" height="38.4pt">
<defs/>
<g id="layer1">
  <path id="shape0" transform="translate(4.00394, 4.00394)" fill="#88c941" fill-rule="evenodd" stroke="#003bc3" stroke-width="0.00000000000" stroke-linecap="square" stroke-linejoin="miter" stroke-miterlimit="2.01260185242" d="M40.004 20.002C40.004 8.95518 31.0488 6.76421e-16 20.002 0C8.9552 -6.76421e-16 1.35285e-15 8.95518 0 20.002C-1.35285e-15 31.0487 8.9552 40.004 20.002 40.004C31.0488 40.004 40.004 31.0487 40.004 20.002"/>
  <path id="yast" transform="matrix(1 0.000762088 0.00145829 0.999999 8.77497 9.31958)" fill="#f2f2f2" stroke="#003bc3" stroke-width="0.00000000000" stroke-linecap="round" stroke-linejoin="miter" stroke-miterlimit="0.00000000000" d="M5.51997 0.0689166L6.03506 1.83924C6.72918 3.37976 7.9169 4.37215 8.90705 5.5839C7.97709 5.75312 7.14758 6.03861 6.36618 6.37867C5.92718 6.62171 5.50377 6.88428 5.26968 7.41343L4.55467 8.86235C4.32346 9.39353 3.83475 9.81894 3.35741 10.2503C1.66166 11.5612 0.728315 12.2944 0.557364 12.4497C-0.886235 12.6002 0.878954 14.3915 1.32275 14.7482C2.73277 14.994 2.02009 13.6508 7.35228 11.9639C8.25282 11.6987 9.66021 11.614 10.6777 11.2519C11.0988 11.0967 11.8003 10.5514 11.8487 10.5485C11.8323 10.5016 10.8721 11.4035 10.8121 11.4425L10.2459 18.3304L10.2339 24.9889L9.24773 26.6693L9.91951 26.642L10.6345 25.563L10.1092 26.8544C10.1092 26.8544 13.5497 26.5916 13.5497 26.6199C13.5497 26.6482 12.4893 18.6559 12.4893 18.6559C12.4893 18.6559 13.6379 17.187 13.6625 17.1656C13.679 17.1515 14.6901 17.2885 16.6953 17.5767L17.3384 17.8197C17.3384 17.8197 19.102 19.5414 19.102 19.5414L17.5398 26.7771L19.6128 27.5856L19.5506 26.479L20.0448 27.8533L20.8078 27.9113L20.2918 26.479L21.1917 27.7263L21.6836 27.6132L20.7958 26.1534L21.8323 19.1029C21.434 18.7431 20.7027 17.7009 20.7597 17.7701L22.1418 18.9455L23.2022 18.7607L24.0661 16.9613C24.0746 16.9605 23.3871 19.0035 23.3871 19.0035L25.237 24.9613C25.237 24.9613 24.3833 26.467 24.3972 26.4487L25.1265 26.2667C25.1265 26.2667 25.2457 26.536 25.4842 27.0751L26.0263 26.5205C26.0554 26.5301 26.4209 26.7904 27.1228 27.3014L27.9244 26.3796C27.4177 21.9919 26.7484 17.6045 26.5687 13.2167C26.5498 12.3806 25.936 10.9048 25.2728 9.93843C24.5011 8.92095 22.9242 6.74761 20.6855 6.13852C19.4623 5.97272 18.218 6.19867 16.8632 6.7043C15.6641 7.10422 14.4253 7.59237 13.0795 8.32966C13.3968 8.9235 13.8242 9.66664 13.4464 9.174C13.1993 8.8195 13.0082 8.46352 12.8659 8.10892C12.6377 7.51596 12.9062 6.76354 13.3482 5.95364C13.7478 5.39214 14.1884 4.84448 15.0853 4.44975C15.8924 4.08222 16.702 3.71576 17.4678 3.23005C18.334 2.58881 19.0593 1.42812 19.7941 0C17.7918 0.83914 16.4471 0.625066 14.4567 1.96616C13.7115 2.54944 12.9812 3.45452 12.2373 4.39179C11.9199 4.80005 11.5769 5.18456 11.1265 5.45698C10.5075 5.83679 10.0796 5.47658 9.79483 5.18652C9.3307 4.61902 8.95447 4.01994 8.62391 3.40112C8.18311 2.71082 7.72056 2.01904 7.04515 1.32873C6.26795 0.504471 6.2252 0.931513 5.51997 0.0689166ZM9.36044 8.14757C9.65432 8.18311 9.76465 8.39489 9.80689 8.67188C9.84208 9.04228 9.56343 9.2619 9.37725 9.29269C9.19089 9.32358 8.95245 9.26982 8.8159 9.04141C8.77522 8.94849 8.7023 8.5017 8.83754 8.35995C8.99292 8.18722 8.83754 8.35995 8.83754 8.35995C8.65243 8.43935 9.05962 8.07034 9.36044 8.14757Z"/>
 </g>
</svg>
