<?xml version="1.0" standalone="no"?>
<!DOCTYPE svg PUBLIC "-//W3C//DTD SVG 20010904//EN" "http://www.w3.org/TR/2001/REC-SVG-20010904/DTD/svg10.dtd">
<!-- Created using Karbon, part of Calligra: http://www.calligra.org/karbon -->
<svg xmlns="http://www.w3.org/2000/svg" xmlns:xlink="http://www.w3.org/1999/xlink" width="38.4pt" height="38.4pt">
<defs/>
<g id="layer1">
  <path id="shape0" transform="translate(0.0726395, 0.0607595)" fill="#88c941" fill-rule="evenodd" stroke="#003bc3" stroke-width="0.00000000000" stroke-linecap="square" stroke-linejoin="miter" stroke-miterlimit="2.01260185242" d="M47.8666 24.0059C47.8666 10.7478 37.1513 8.11825e-16 23.9333 0C10.7153 -8.11825e-16 1.61875e-15 10.7478 0 24.0059C-1.61875e-15 37.2639 10.7153 48.0119 23.9333 48.0119C37.1513 48.0119 47.8666 37.2639 47.8666 24.0059"/>
  <path id="yast" transform="matrix(1 0.000762088 0.00145829 0.999999 6.86582 7.41266)" fill="#f2f2f2" stroke="#003bc3" stroke-width="0.00000000000" stroke-linecap="round" stroke-linejoin="miter" stroke-miterlimit="0.00000000000" d="M6.27365 0.0783263L6.85907 2.09037C7.64797 3.84122 8.99786 4.96911 10.1232 6.34631C9.06626 6.53864 8.12349 6.86311 7.2354 7.2496C6.73647 7.52583 6.25524 7.82424 5.98919 8.42565L5.17655 10.0724C4.91378 10.6761 4.35834 11.1596 3.81582 11.6498C1.88854 13.1397 0.827757 13.973 0.633465 14.1496C-1.00724 14.3206 0.998964 16.3565 1.50336 16.7619C3.1059 17.0412 2.29591 15.5146 8.35614 13.5974C9.37964 13.296 10.9792 13.1998 12.1356 12.7882C12.6142 12.6118 13.4115 11.9921 13.4665 11.9888C13.4479 11.9355 12.3565 12.9605 12.2884 13.0048L11.6449 20.8332L11.6312 28.4008L10.5104 30.3107L11.2739 30.2796L12.0865 29.0533L11.4895 30.5211C11.4895 30.5211 15.3998 30.2224 15.3998 30.2545C15.3998 30.2867 14.1946 21.2031 14.1946 21.2031C14.1946 21.2031 15.5 19.5337 15.5279 19.5094C15.5467 19.4933 16.6958 19.649 18.9748 19.9766L19.7057 20.2528C19.7057 20.2528 21.7101 22.2095 21.7101 22.2095L19.9347 30.4332L22.2907 31.3521L22.22 30.0944L22.7817 31.6563L23.6488 31.7222L23.0624 30.0944L24.0852 31.512L24.6442 31.3835L23.6352 29.7243L24.8132 21.7112C24.3606 21.3023 23.5294 20.1177 23.5942 20.1964L25.165 21.5323L26.3702 21.3222L27.352 19.2772C27.3617 19.2762 26.5803 21.5982 26.5803 21.5982L28.6828 28.3695C28.6828 28.3695 27.7125 30.0807 27.7284 30.06L28.5572 29.8531C28.5572 29.8531 28.6927 30.1592 28.9638 30.7719L29.5799 30.1416C29.613 30.1525 30.0284 30.4483 30.8261 31.0291L31.7371 29.9814C31.1612 24.9946 30.4006 20.0082 30.1963 15.0213C30.1748 14.071 29.4773 12.3937 28.7235 11.2954C27.8464 10.139 26.0542 7.66891 23.5099 6.97666C22.1196 6.78822 20.7054 7.04502 19.1657 7.61969C17.8029 8.07421 16.3949 8.62902 14.8654 9.46698C15.226 10.1419 15.7117 10.9865 15.2824 10.4266C15.0015 10.0237 14.7843 9.61911 14.6226 9.21609C14.3632 8.54217 14.6684 7.68702 15.1707 6.76654C15.6249 6.12837 16.1256 5.50594 17.145 5.05731C18.0623 4.6396 18.9825 4.2231 19.8528 3.67107C20.8373 2.94228 21.6616 1.62311 22.4968 0C20.221 0.953715 18.6927 0.710411 16.4306 2.23462C15.5836 2.89754 14.7536 3.92619 13.9081 4.99144C13.5474 5.45544 13.1576 5.89245 12.6457 6.20207C11.9422 6.63373 11.4558 6.22434 11.1322 5.89468C10.6047 5.24969 10.1771 4.56882 9.8014 3.8655C9.30041 3.08095 8.77471 2.29472 8.00708 1.51015C7.12376 0.57335 7.07518 1.0587 6.27365 0.0783263ZM10.6385 9.26002C10.9725 9.30042 11.0979 9.54111 11.1459 9.85592C11.1859 10.2769 10.8692 10.5265 10.6576 10.5615C10.4458 10.5966 10.1748 10.5355 10.0196 10.2759C9.97337 10.1703 9.89049 9.66251 10.0442 9.5014C10.2208 9.30509 10.0442 9.5014 10.0442 9.5014C9.83382 9.59164 10.2966 9.17225 10.6385 9.26002Z"/>
 </g>
</svg>
