<?xml version="1.0" standalone="no"?>
<!DOCTYPE svg PUBLIC "-//W3C//DTD SVG 20010904//EN" "http://www.w3.org/TR/2001/REC-SVG-20010904/DTD/svg10.dtd">
<!-- Created using Karbon, part of Calligra: http://www.calligra.org/karbon -->
<svg xmlns="http://www.w3.org/2000/svg" xmlns:xlink="http://www.w3.org/1999/xlink" width="38.4pt" height="38.4pt">
<defs/>
<g id="layer1">
  <path id="shape0" transform="translate(3.21407, 3.15331)" fill="#00a754" fill-rule="evenodd" stroke="#003bc3" stroke-width="0.00000000000" stroke-linecap="square" stroke-linejoin="miter" stroke-miterlimit="2.01260185242" d="M39.2568 19.598C39.2568 8.77436 30.4689 6.6276e-16 19.6284 0C8.78796 -6.6276e-16 1.32758e-15 8.77436 0 19.598C-1.32758e-15 30.4217 8.78796 39.1961 19.6284 39.1961C30.4689 39.1961 39.2568 30.4217 39.2568 19.598"/>
  <path id="yast" transform="matrix(1 0.000759782 0.00146272 0.999999 6.82559 7.19844)" fill="#b5b5b5" stroke="#003bc3" stroke-width="0.00000000000" stroke-linecap="round" stroke-linejoin="miter" stroke-miterlimit="0.00000000000" d="M7.55258 0.0928893L8.25734 2.47903C9.20707 4.55541 10.8321 5.89301 12.1869 7.52626C10.9145 7.75435 9.77953 8.13916 8.71039 8.5975C8.10974 8.92509 7.53042 9.27899 7.21012 9.99221L6.23183 11.9451C5.9155 12.6612 5.24682 13.2344 4.5937 13.8158C2.27353 15.5828 0.996499 16.571 0.762601 16.7804C-1.21257 16.9833 1.20261 19.3977 1.80983 19.8784C3.73905 20.2097 2.76395 18.3992 10.0596 16.1255C11.2918 15.7681 13.2174 15.654 14.6095 15.1659C15.1857 14.9568 16.1455 14.2218 16.2118 14.2178C16.1894 14.1547 14.8756 15.3703 14.7936 15.4227L14.0188 24.7066L14.0022 33.6813L12.6531 35.9463L13.5722 35.9094L14.5505 34.4551L13.8316 36.1958C13.8316 36.1958 18.5392 35.8415 18.5392 35.8796C18.5392 35.9179 17.0883 25.1454 17.0883 25.1454C17.0883 25.1454 18.6598 23.1656 18.6934 23.1367C18.716 23.1177 20.0993 23.3023 22.843 23.6909L23.7228 24.0183C23.7228 24.0183 26.1357 26.339 26.1357 26.339L23.9985 36.0916L26.8348 37.1814L26.7496 35.6898L27.4259 37.542L28.4698 37.6202L27.7639 35.6898L28.995 37.371L29.6681 37.2186L28.4534 35.2509L29.8716 25.7479C29.3267 25.2631 28.3261 23.8581 28.4041 23.9514L30.295 25.5357L31.746 25.2867L32.928 22.8615C32.9396 22.8601 31.9988 25.6139 31.9988 25.6139L34.53 33.6442C34.53 33.6442 33.362 35.6735 33.381 35.6491L34.3789 35.4036C34.3789 35.4036 34.5419 35.7667 34.8682 36.4933L35.6099 35.7459C35.6498 35.7587 36.1499 36.1095 37.1103 36.7983L38.2069 35.5559C37.5137 29.6418 36.598 23.7283 36.352 17.8143C36.3261 16.6871 35.4864 14.698 34.5791 13.3956C33.5232 12.0242 31.3655 9.09478 28.3025 8.27382C26.6289 8.05034 24.9264 8.35489 23.0729 9.0364C21.4321 9.57543 19.737 10.2334 17.8958 11.2272C18.3298 12.0276 18.9147 13.0293 18.3978 12.3653C18.0596 11.8874 17.7981 11.4076 17.6036 10.9296C17.2912 10.1304 17.6587 9.11626 18.2634 8.02464C18.8102 7.2678 19.4129 6.52966 20.6402 5.9976C21.7445 5.50223 22.8522 5.00828 23.9 4.35363C25.0852 3.48933 26.0774 1.92489 27.0829 0C24.3433 1.13104 22.5033 0.842496 19.7802 2.6501C18.7605 3.43627 17.7612 4.65618 16.7434 5.91949C16.3091 6.46976 15.8398 6.98801 15.2236 7.35521C14.3768 7.86712 13.7912 7.38162 13.4015 6.99066C12.7665 6.22576 12.2517 5.41828 11.7995 4.58421C11.1964 3.65379 10.5635 2.72137 9.63938 1.79093C8.57599 0.679951 8.5175 1.25554 7.55258 0.0928893ZM12.8073 10.9817C13.2094 11.0296 13.3602 11.3151 13.4181 11.6884C13.4662 12.1877 13.0849 12.4837 12.8302 12.5252C12.5753 12.5668 12.249 12.4944 12.0622 12.1866C12.0065 12.0612 11.9067 11.459 12.0918 11.268C12.3045 11.0352 12.0918 11.268 12.0918 11.268C11.8385 11.375 12.3956 10.8776 12.8073 10.9817Z"/>
 </g>
</svg>
