<?xml version="1.0" standalone="no"?>
<!DOCTYPE svg PUBLIC "-//W3C//DTD SVG 20010904//EN" "http://www.w3.org/TR/2001/REC-SVG-20010904/DTD/svg10.dtd">
<!-- Created using Karbon, part of Calligra: http://www.calligra.org/karbon -->
<svg xmlns="http://www.w3.org/2000/svg" xmlns:xlink="http://www.w3.org/1999/xlink" width="38.4pt" height="38.4pt">
<defs/>
<g id="layer1">
  <path id="shape0" transform="translate(1.02216, 1.02216)" fill="#00c372" fill-rule="evenodd" stroke="#003bc3" stroke-width="0.00000000000" stroke-linecap="square" stroke-linejoin="miter" stroke-miterlimit="2.01260185242" d="M46.0631 23.0315C46.0631 10.3116 35.7515 7.78873e-16 23.0315 0C10.3116 -7.78873e-16 1.55775e-15 10.3116 0 23.0315C-1.55775e-15 35.7515 10.3116 46.0631 23.0315 46.0631C35.7515 46.0631 46.0631 35.7515 46.0631 23.0315"/>
  <path id="yast" transform="translate(5.90955, 3.9196)" fill="#e6e6e6" stroke="#003bc3" stroke-width="0.00000000000" stroke-linecap="round" stroke-linejoin="miter" stroke-miterlimit="0.00000000000" d="M6.7162 0L8.47007 4.64426L12.7633 10.1677C11.3731 10.4173 10.1331 10.8384 8.96503 11.34C8.3088 11.6985 7.67588 12.0858 7.32594 12.8663L6.25713 15.0034C5.91152 15.7871 5.18098 16.4143 4.46741 17.0507L1.53714 19.6273C2.11912 19.948 2.64376 20.3645 3.12243 20.8605C2.60695 20.5387 2.10263 20.1978 1.50128 20.022C1.08099 19.9461 0.665132 19.9512 0.281818 20.2948C-0.0625887 20.6191 -0.023276 21.1619 0.0486872 21.6705C0.180483 22.4599 0.762545 23.1593 1.42595 23.6852C2.04565 23.997 2.61293 23.8366 3.15828 23.4737C3.63294 22.9786 3.82591 22.1101 3.76802 20.9215C4.11054 20.8487 4.0341 23.1412 4.0944 22.8796C4.12685 22.7386 9.118 19.9263 10.4391 19.5783C11.7853 19.187 13.8891 19.0622 15.4101 18.5281C16.3545 18.1848 17.0467 17.3762 17.6303 16.3629L17.1605 17.4904C16.7657 18.1858 16.2359 18.5988 15.611 18.8092L14.7646 28.9688L14.7465 38.7904L13.2726 41.2691L14.2767 41.2286L15.3455 39.6371L14.5601 41.5421C14.5601 41.5421 19.7033 41.1543 19.7033 41.196C19.7033 41.2379 18.1181 29.4491 18.1181 29.4491C18.1181 29.4491 19.8351 27.2825 19.8718 27.2509C19.9088 27.2196 25.5184 28.776 25.1981 28.35L24.4053 27.8574L25.3666 28.2157C25.3666 28.2157 28.0027 30.7555 28.0027 30.7555L25.6678 41.428L28.7667 42.6208L28.6734 40.9883L29.4123 43.0153L30.5529 43.1009L29.7816 40.9883L31.1266 42.8282L31.862 42.6613L30.535 40.508L32.0843 30.1084L30.2983 28.5167L28.6914 22.6392L30.481 28.1423L32.5469 29.8763L34.1322 29.6037L35.1831 26.9295L35.2728 25.2729L35.4236 26.9497C35.4364 26.9482 34.4084 29.9618 34.4084 29.9618L37.1737 38.7497C37.1737 38.7497 35.8978 40.9704 35.9184 40.9437L37.0086 40.6751C37.0086 40.6751 37.2167 40.7375 37.6329 40.8622L37.5433 41.8676L38.3538 41.0496C39.2553 41.1219 39.7094 41.1571 39.7166 41.1552L39.9928 42.2015L40.3981 40.8825L41.1908 40.842C40.4334 34.3699 39.4331 27.8983 39.1643 21.4264C39.136 20.1929 38.2186 18.0161 37.2276 16.5908C36.0737 15.0901 33.7165 11.8842 30.37 10.9858C28.5415 10.7412 26.6815 11.0745 24.6564 11.8203C22.864 12.4102 21.012 13.1302 19.0004 14.2178C19.4744 15.0937 20.1018 15.9512 21.1703 16.9692C21.5057 17.3392 22.1094 17.4409 22.7018 17.3885C22.2926 17.5502 21.8696 17.6877 21.4285 17.4292C20.708 16.8799 20.1135 16.1899 19.5489 15.4633C19.1793 14.9403 18.8937 14.4152 18.6811 13.8921C18.3398 13.0175 18.7413 11.9077 19.4019 10.7131C19.9994 9.88484 20.6578 9.07707 21.9987 8.49482C23.2052 7.95269 24.4153 7.41216 25.5602 6.69573C26.855 5.74989 28.92 2.73333 30.0186 0.626836C27.0256 1.86458 24.0342 2.85334 21.059 4.8315C19.9452 5.69184 18.8534 7.02683 17.7413 8.40933C17.2669 9.01152 16.7541 9.57866 16.0809 9.98051C15.1558 10.5407 14.516 10.0094 14.0902 9.58156C13.3963 8.74451 12.8341 7.86084 12.34 6.94808C11.6811 5.92987 10.9896 4.90948 9.98 3.89126C8.81819 2.67547 7.77043 1.27234 6.7162 0ZM13.4268 13.7374C13.5755 13.7306 13.7239 13.7464 13.8787 13.7822C14.177 13.8998 14.3139 14.1501 14.4597 14.3886C14.1504 14.0782 13.8283 13.8352 13.4411 13.9491C13.8803 14.0016 14.0451 14.314 14.1084 14.7225C14.1609 15.2689 13.7444 15.5929 13.4661 15.6383C13.1876 15.6837 12.8311 15.6045 12.627 15.2677C12.5661 15.1304 12.4106 14.6243 12.6593 14.2625C12.3826 14.3796 12.1468 14.5733 11.9239 14.7916C12.1107 14.4829 12.3404 14.241 12.688 13.9816C12.9364 13.8254 13.1791 13.7489 13.4268 13.7374ZM1.64474 20.885C2.01724 21.3836 2.38157 21.8618 2.55933 22.5212C2.58309 23.1327 2.34408 23.1185 2.111 23.1157C1.91366 23.1132 1.54386 22.8634 1.66268 22.6595C1.75783 22.4966 1.84498 22.0267 1.80615 21.8048ZM0.439636 21.9554C0.731827 22.3036 1.01863 22.5334 1.07447 23.0178C1.09508 23.1332 1.11586 23.4204 0.913073 23.3762C0.160774 21.8271 0.515788 21.8939 0.278232 21.0354Z"/>
 </g>
</svg>
