<?xml version="1.0" standalone="no"?>
<!DOCTYPE svg PUBLIC "-//W3C//DTD SVG 20010904//EN" "http://www.w3.org/TR/2001/REC-SVG-20010904/DTD/svg10.dtd">
<!-- Created using Karbon, part of Calligra: http://www.calligra.org/karbon -->
<svg xmlns="http://www.w3.org/2000/svg" xmlns:xlink="http://www.w3.org/1999/xlink" width="38.4pt" height="38.4pt">
<defs/>
<g id="layer1">
  <path id="shape0" transform="translate(1.02216, 1.02216)" fill="#00da42" fill-rule="evenodd" stroke="#003bc3" stroke-width="0.00000000000" stroke-linecap="square" stroke-linejoin="miter" stroke-miterlimit="2.01260185242" d="M46.0631 23.0315C46.0631 10.3116 35.7515 7.78873e-16 23.0315 0C10.3116 -7.78873e-16 1.55775e-15 10.3116 0 23.0315C-1.55775e-15 35.7515 10.3116 46.0631 23.0315 46.0631C35.7515 46.0631 46.0631 35.7515 46.0631 23.0315"/>
  <path id="yast" transform="matrix(1 0.0022225 2.44929e-16 1 7.23618 9.10553)" fill="#ffffff" stroke="#003bc3" stroke-width="0.00000000000" stroke-linecap="round" stroke-linejoin="miter" stroke-miterlimit="0.00000000000" d="M6.06736 0.0675972L6.63354 1.80403C7.3965 3.31505 8.70201 4.28845 9.7904 5.477C8.76816 5.64298 7.85639 5.92301 6.99749 6.25656C6.51496 6.49495 6.04956 6.75249 5.79225 7.27151L5.00634 8.69264C4.75222 9.21379 4.21504 9.63086 3.69035 10.054C1.82644 11.3399 0.800539 12.059 0.612637 12.2114C-0.974122 12.3591 0.96612 14.1161 1.45393 14.4659C3.00377 14.707 2.22042 13.3894 8.08139 11.7348C9.07126 11.4747 10.6182 11.3917 11.7366 11.0365C12.1995 10.8843 12.9705 10.3494 13.0238 10.3465C13.0057 10.3006 11.9503 11.1852 11.8844 11.2234L11.262 17.9794L11.2487 24.5105L10.1649 26.1588L10.9032 26.1319L11.6891 25.0736L11.1116 26.3403C11.1116 26.3403 14.8935 26.0825 14.8935 26.1102C14.8935 26.1381 13.7279 18.2988 13.7279 18.2988C13.7279 18.2988 14.9903 16.858 15.0174 16.837C15.0355 16.8231 16.1467 16.9575 18.3509 17.2403L19.0577 17.4786C19.0577 17.4786 20.9961 19.1674 20.9961 19.1674L19.2792 26.2645L21.5578 27.0576L21.4893 25.9721L22.0326 27.32L22.8713 27.3769L22.3041 25.9721L23.2932 27.1956L23.8339 27.0846L22.8581 25.6527L23.9974 18.7372C23.5596 18.3844 22.7558 17.362 22.8184 17.4298L24.3375 18.5828L25.5032 18.4016L26.4527 16.6367C26.4621 16.6357 25.7062 18.6397 25.7062 18.6397L27.7397 24.4835C27.7397 24.4835 26.8014 25.9602 26.8166 25.9425L27.6183 25.7638C27.6183 25.7638 27.7493 26.0281 28.0114 26.5568L28.6073 26.0129C28.6393 26.0223 29.041 26.2776 29.8126 26.7788L30.6935 25.8747C30.1366 21.5709 29.401 17.2675 29.2034 12.9638C29.1826 12.1435 28.508 10.696 27.7792 9.74823C26.9308 8.75029 25.1975 6.61843 22.7368 6.02101C21.3923 5.85837 20.0246 6.08 18.5356 6.57595C17.2175 6.96821 15.8557 7.447 14.3766 8.17024C14.7252 8.75269 15.1951 9.48164 14.7799 8.99847C14.5082 8.65068 14.2981 8.30151 14.1418 7.95365C13.8909 7.37206 14.1861 6.63406 14.6719 5.83968C15.1112 5.28891 15.5953 4.75175 16.5813 4.36456C17.4685 4.00407 18.3583 3.64462 19.2001 3.16821C20.1522 2.53925 20.9493 1.40078 21.7571 0C19.5562 0.82308 18.078 0.6131 15.8904 1.92853C15.0713 2.50064 14.2685 3.38839 13.4508 4.30772C13.1019 4.70816 12.7249 5.0853 12.2299 5.35252C11.5496 5.72504 11.0792 5.37174 10.7661 5.08723C10.2559 4.5306 9.84246 3.94298 9.47913 3.33601C8.99464 2.65893 8.48618 1.98039 7.7438 1.30329C6.88952 0.494813 6.84254 0.913677 6.06736 0.0675972ZM10.2888 7.99155C10.6117 8.02646 10.7329 8.2342 10.7795 8.50585C10.8181 8.8692 10.5118 9.08465 10.3072 9.11484C10.1024 9.14503 9.84025 9.09236 9.69017 8.8684C9.64539 8.7771 9.56523 8.3389 9.71392 8.19996C9.88488 8.03054 9.71392 8.19996 9.71392 8.19996C9.51046 8.27783 9.95803 7.91581 10.2888 7.99155Z"/>
 </g>
</svg>
