<?xml version="1.0" standalone="no"?>
<!DOCTYPE svg PUBLIC "-//W3C//DTD SVG 20010904//EN" "http://www.w3.org/TR/2001/REC-SVG-20010904/DTD/svg10.dtd">
<!-- Created using Karbon, part of Calligra: http://www.calligra.org/karbon -->
<svg xmlns="http://www.w3.org/2000/svg" xmlns:xlink="http://www.w3.org/1999/xlink" width="38.4pt" height="38.4pt">
<defs/>
<g id="layer1">
  <path id="shape0" transform="translate(1.02216, 1.02216)" fill="#00c372" fill-rule="evenodd" stroke="#003bc3" stroke-width="0.00000000000" stroke-linecap="square" stroke-linejoin="miter" stroke-miterlimit="2.01260191180" d="M46.0631 23.0315C46.0631 10.3116 35.7515 7.78873e-16 23.0315 0C10.3116 -7.78873e-16 1.55775e-15 10.3116 0 23.0315C-1.55775e-15 35.7515 10.3116 46.0631 23.0315 46.0631C35.7515 46.0631 46.0631 35.7515 46.0631 23.0315"/>
  <path id="yast" transform="translate(4.58231, 6.84541)" fill="#ffffff" d="M5.82404 0L7.34493 3.64053L11.0678 7.97025C9.86231 8.16589 8.78707 8.49598 7.77414 8.88915C7.20508 9.17019 6.65623 9.47377 6.35278 10.0856L5.42595 11.7608C5.12625 12.3751 4.49275 12.8668 3.87397 13.3656L1.33295 15.3854C1.83762 15.6368 2.29257 15.9633 2.70765 16.352C2.26065 16.0998 1.82332 15.8326 1.30185 15.6948C0.937401 15.6353 0.576778 15.6393 0.244382 15.9086C-0.0542745 16.1628 -0.020184 16.5883 0.0422197 16.987C0.156508 17.6058 0.66125 18.154 1.23653 18.5663C1.77391 18.8107 2.26584 18.685 2.73874 18.4005C3.15035 18.0124 3.31769 17.3316 3.26748 16.3999C3.56451 16.3428 3.49822 18.1399 3.55051 17.9348C3.57865 17.8242 7.90676 15.6198 9.05242 15.347C10.2198 15.0402 12.0441 14.9424 13.3631 14.5238C14.182 14.2547 14.7823 13.6208 15.2883 12.8265L14.8809 13.7103C14.5386 14.2554 14.0792 14.5791 13.5373 14.7441L12.8033 22.7079L12.7876 30.4069L11.5095 32.3499L12.3802 32.3181L13.307 31.0706L12.626 32.5639C12.626 32.5639 17.086 32.2599 17.086 32.2926C17.086 32.3254 15.7113 23.0844 15.7113 23.0844C15.7113 23.0844 17.2003 21.3861 17.2321 21.3614C17.2642 21.3368 22.6842 23.2247 22.6842 23.2247L21.8508 22.2229L21.1634 21.8368L21.997 22.1176C21.997 22.1176 23.9297 24.5032 23.9378 24.5361C23.9456 24.5689 24.2829 24.1085 24.2829 24.1085L22.2582 32.4745L24.9454 33.4095L24.8645 32.1298L25.5053 33.7187L26.4943 33.7858L25.8255 32.1298L26.9918 33.572L27.6295 33.4412L26.4788 31.7533L27.8223 23.6013L26.2735 22.3536L25.0729 20.7137C25.0535 20.7065 24.9764 20.1074 24.9764 20.1074L24.8801 17.7464L25.2449 20.0803L26.432 22.0601L28.2235 23.4194L28.1893 23.7321L29.5982 23.2057L30.5095 21.1094L30.5872 19.8108L30.718 21.1253C30.7291 21.1241 29.8377 23.4864 29.8377 23.4864L31.6291 26.7823L32.2356 30.375C32.2356 30.375 31.1292 32.1158 31.1471 32.0948L32.0925 31.8843C32.0925 31.8843 32.3087 32.0172 32.2979 32.0151L32.6338 32.0309L32.5561 32.819L33.259 32.1778L33.7845 32.3436C33.7845 32.3436 34.4315 32.2629 34.4407 32.2606L34.6802 33.0808L35.0317 32.0469L35.7191 32.0151C35.0623 26.9418 34.1949 21.8688 33.9618 16.7957C33.9373 15.8288 33.1417 14.1224 32.2823 13.0051C31.2818 11.8288 29.2377 9.31581 26.3357 8.61156C24.7501 8.41978 23.1372 8.68105 21.3811 9.26565C19.8268 9.72808 18.2208 10.2924 16.4764 11.145C16.8875 11.8316 17.4316 12.5038 18.3581 13.3018C18.6489 13.5918 19.1725 13.6715 19.6862 13.6305C19.3313 13.7572 18.9645 13.865 18.582 13.6624C17.9572 13.2318 17.4417 12.6909 16.9521 12.1213C16.6315 11.7113 16.3839 11.2997 16.1996 10.8897C15.9036 10.2041 16.2517 9.33417 16.8246 8.39779C17.3427 7.74848 17.9137 7.1153 19.0765 6.65889C20.1227 6.23393 21.1721 5.81022 22.1649 5.24863C23.2876 4.50721 25.0783 2.1426 26.031 0.491362C23.4356 1.4616 20.8416 2.23667 18.2616 3.7873C17.2957 4.4617 16.349 5.50817 15.3846 6.59188C14.9732 7.06392 14.5285 7.50846 13.9447 7.82347C13.1425 8.26259 12.5877 7.84617 12.2185 7.51079C11.6168 6.85462 11.1292 6.16193 10.7008 5.44644C10.1294 4.64829 9.52981 3.84843 8.65431 3.05027C7.6468 2.09724 6.73822 0.997351 5.82404 0ZM11.6432 10.7684C11.7722 10.7631 11.9008 10.7755 12.0351 10.8035C12.2938 10.8957 12.4125 11.0919 12.5389 11.2789C12.2707 11.0356 11.9914 10.8451 11.6556 10.9344C12.0365 10.9756 12.1794 11.2204 12.2343 11.5406C12.2798 11.9689 11.9187 12.2229 11.6773 12.2585C11.4358 12.2941 11.1266 12.232 10.9497 11.968C10.8968 11.8604 10.762 11.4636 10.9776 11.18C10.7377 11.2719 10.5332 11.4237 10.34 11.5948C10.502 11.3528 10.7012 11.1632 11.0025 10.9599C11.218 10.8374 11.4284 10.7774 11.6432 10.7684ZM1.42625 16.3712C1.74927 16.7621 2.06521 17.137 2.21935 17.6539C2.23996 18.1332 2.0327 18.1221 1.83058 18.1199C1.65945 18.1179 1.33877 17.9221 1.44181 17.7623C1.52433 17.6346 1.5999 17.2662 1.56622 17.0923ZM0.381236 17.2104C0.634613 17.4833 0.883319 17.6634 0.931739 18.0431C0.949608 18.1336 0.967635 18.3587 0.79178 18.324C0.139418 17.1097 0.447272 17.1621 0.241272 16.4892Z"/>
 </g>
</svg>
