<?xml version="1.0" standalone="no"?>
<!DOCTYPE svg PUBLIC "-//W3C//DTD SVG 20010904//EN" "http://www.w3.org/TR/2001/REC-SVG-20010904/DTD/svg10.dtd">
<!-- Created using Karbon, part of Calligra: http://www.calligra.org/karbon -->
<svg xmlns="http://www.w3.org/2000/svg" xmlns:xlink="http://www.w3.org/1999/xlink" width="38.4pt" height="38.4pt">
<defs/>
<g id="layer1">
  <path id="shape0" transform="translate(4.00394, 4.00394)" fill="#00da68" fill-rule="evenodd" stroke="#003bc3" stroke-width="0.00000000000" stroke-linecap="square" stroke-linejoin="miter" stroke-miterlimit="2.01260185242" d="M40.004 20.002C40.004 8.95522 31.0488 6.76421e-16 20.002 0C8.95523 -6.76421e-16 1.35285e-15 8.95522 0 20.002C-1.35285e-15 31.0487 8.95523 40.004 20.002 40.004C31.0488 40.004 40.004 31.0487 40.004 20.002"/>
  <path id="yast" transform="matrix(1 0.000759782 0.00146272 0.999999 6.38578 8.39275)" fill="#ffffff" stroke="#003bc3" stroke-width="0.00000000000" stroke-linecap="round" stroke-linejoin="miter" stroke-miterlimit="0.00000000000" d="M6.19914 0.0765063L6.77761 2.0418C7.55714 3.75197 8.89096 4.85365 10.003 6.19885C8.9586 6.38671 8.02701 6.70364 7.14947 7.08115C6.65646 7.35096 6.18095 7.64244 5.91806 8.22987L5.11507 9.83833C4.85543 10.4281 4.30658 10.9003 3.7705 11.3791C1.86611 12.8344 0.817924 13.6483 0.62594 13.8208C-0.995275 13.9879 0.987099 15.9765 1.4855 16.3724C3.06901 16.6453 2.26864 15.1541 8.2569 13.2814C9.26829 12.9871 10.8488 12.8931 11.9915 12.4911C12.4644 12.3188 13.2522 11.7134 13.3066 11.7102C13.2882 11.6582 12.2098 12.6594 12.1425 12.7026L11.5066 20.3491L11.493 27.7409L10.3856 29.6064L11.14 29.576L11.943 28.3782L11.353 29.8119C11.353 29.8119 15.2169 29.5201 15.2169 29.5515C15.2169 29.583 14.026 20.7105 14.026 20.7105C14.026 20.7105 15.3159 19.0798 15.3435 19.0561C15.3621 19.0404 16.4975 19.1924 18.7494 19.5125L19.4716 19.7822C19.4716 19.7822 21.4522 21.6935 21.4522 21.6935L19.6979 29.7261L22.026 30.6236L21.9561 29.3951L22.5111 30.9207L23.368 30.9851L22.7885 29.3951L23.7991 30.7798L24.3515 30.6543L23.3545 29.0336L24.5185 21.2067C24.0713 20.8074 23.25 19.6502 23.314 19.7271L24.8661 21.032L26.057 20.8268L27.0272 18.8293C27.0367 18.8283 26.2646 21.0964 26.2646 21.0964L28.3422 27.7103C28.3422 27.7103 27.3834 29.3818 27.3991 29.3616L28.2181 29.1594C28.2181 29.1594 28.3519 29.4585 28.6198 30.0569L29.2286 29.4413C29.2613 29.4519 29.6718 29.7408 30.46 30.3081L31.3602 29.2848C30.7911 24.4138 30.0395 19.5433 29.8377 14.6723C29.8164 13.744 29.1272 12.1057 28.3824 11.033C27.5157 9.90347 25.7448 7.49072 23.2307 6.81455C21.8569 6.63049 20.4595 6.88133 18.9381 7.44264C17.5914 7.8866 16.2001 8.42852 14.6889 9.24704C15.0451 9.90627 15.5251 10.7313 15.1009 10.1844C14.8233 9.79081 14.6087 9.39563 14.449 9.00194C14.1926 8.34369 14.4942 7.50841 14.9905 6.60932C15.4393 5.98597 15.9341 5.37801 16.9414 4.9398C17.8478 4.5318 18.7571 4.12497 19.6171 3.58577C20.5899 2.87392 21.4043 1.58539 22.2296 0C19.9809 0.931557 18.4707 0.693904 16.2355 2.1827C15.3985 2.83021 14.5784 3.83496 13.7429 4.87546C13.3865 5.32868 13.0013 5.75553 12.4955 6.05796C11.8004 6.47959 11.3198 6.07972 11 5.75771C10.4787 5.12771 10.0562 4.46266 9.685 3.77569C9.18998 3.00936 8.6705 2.2414 7.91198 1.47506C7.03916 0.560028 6.99115 1.0341 6.19914 0.0765063ZM10.5122 9.04485C10.8422 9.08429 10.9661 9.31944 11.0135 9.6269C11.053 10.0381 10.7401 10.2819 10.531 10.3161C10.3218 10.3504 10.054 10.2907 9.90062 10.0372C9.85491 9.93395 9.773 9.43796 9.92492 9.28065C10.0995 9.08891 9.92492 9.28065 9.92492 9.28065C9.71701 9.36878 10.1743 8.9591 10.5122 9.04485Z"/>
 </g>
</svg>
