<?xml version="1.0" standalone="no"?>
<!DOCTYPE svg PUBLIC "-//W3C//DTD SVG 20010904//EN" "http://www.w3.org/TR/2001/REC-SVG-20010904/DTD/svg10.dtd">
<!-- Created using Karbon, part of Calligra: http://www.calligra.org/karbon -->
<svg xmlns="http://www.w3.org/2000/svg" xmlns:xlink="http://www.w3.org/1999/xlink" width="38.4pt" height="38.4pt">
<defs/>
<g id="layer1">
  <path id="shape0" transform="translate(1.02216, 1.02216)" fill="#44b648" fill-rule="evenodd" stroke="#003bc3" stroke-width="0.00000000000" stroke-linecap="square" stroke-linejoin="miter" stroke-miterlimit="2.01260185242" d="M46.0631 23.0315C46.0631 10.3116 35.7515 7.78873e-16 23.0315 0C10.3116 -7.78873e-16 1.55775e-15 10.3116 0 23.0315C-1.55775e-15 35.7515 10.3116 46.0631 23.0315 46.0631C35.7515 46.0631 46.0631 35.7515 46.0631 23.0315"/>
  <path id="yast" transform="matrix(1 0.0022225 2.44929e-16 1 4.22111 5.96985)" fill="#ffffff" stroke="#003bc3" stroke-width="0.00000000000" stroke-linecap="round" stroke-linejoin="miter" stroke-miterlimit="0.00000000000" d="M7.22361 0.0837748L7.89768 2.23578C8.80604 4.10842 10.3603 5.31478 11.6561 6.78777C10.4391 6.99348 9.35357 7.34053 8.33099 7.7539C7.75651 8.04934 7.20242 8.36852 6.89607 9.01175L5.96039 10.773C5.65784 11.4189 5.01829 11.9358 4.39361 12.4602C2.1745 14.0538 0.953096 14.945 0.729386 15.1339C-1.15976 15.3169 1.15023 17.4944 1.731 17.9279C3.57619 18.2267 2.64356 16.5938 9.62145 14.5432C10.8 14.2209 12.6417 14.118 13.9732 13.6778C14.5243 13.4892 15.4423 12.8263 15.5057 12.8227C15.4842 12.7658 14.2277 13.8621 14.1492 13.9094L13.4082 22.2823L13.3923 30.3764L12.102 32.4192L12.981 32.3859L13.9167 31.0743L13.2291 32.6442C13.2291 32.6442 17.7317 32.3247 17.7317 32.359C17.7317 32.3936 16.344 22.6781 16.344 22.6781C16.344 22.6781 17.847 20.8925 17.8792 20.8665C17.9008 20.8493 19.2238 21.0158 21.848 21.3663L22.6895 21.6616C22.6895 21.6616 24.9973 23.7546 24.9973 23.7546L22.9532 32.5502L25.666 33.5331L25.5845 32.1878L26.2313 33.8583L27.2298 33.9288L26.5546 32.1878L27.7321 33.7041L28.3759 33.5666L27.2141 31.792L28.5705 23.2215C28.0493 22.7842 27.0923 21.5171 27.1669 21.6012L28.9755 23.0301L30.3633 22.8055L31.4938 20.6183C31.5049 20.617 30.605 23.1006 30.605 23.1006L33.026 30.343C33.026 30.343 31.9089 32.1731 31.927 32.1511L32.8815 31.9297C32.8815 31.9297 33.0374 32.2572 33.3495 32.9125L34.0589 32.2384C34.097 32.25 34.5753 32.5664 35.4939 33.1876L36.5427 32.0671C35.8797 26.7333 35.0039 21.4 34.7686 16.0663C34.7439 15.0497 33.9407 13.2558 33.073 12.0812C32.063 10.8444 29.9993 8.20238 27.0697 7.46198C25.469 7.26042 23.8407 7.53509 22.0679 8.14973C20.4986 8.63587 18.8773 9.22924 17.1163 10.1256C17.5314 10.8474 18.0908 11.7508 17.5965 11.152C17.273 10.721 17.0229 10.2883 16.8368 9.85714C16.5381 9.13637 16.8895 8.22175 17.4679 7.23725C17.9909 6.55467 18.5673 5.88896 19.7412 5.4091C20.7974 4.96234 21.8568 4.51686 22.859 3.92644C23.9926 3.14695 24.9416 1.73602 25.9033 0C23.283 1.02006 21.5231 0.759829 18.9186 2.39007C17.9434 3.0991 16.9876 4.19931 16.0141 5.33866C15.5987 5.83493 15.1499 6.30233 14.5605 6.6335C13.7506 7.09518 13.1905 6.65732 12.8178 6.30472C12.2104 5.61488 11.7181 4.88663 11.2856 4.1344C10.7087 3.29527 10.1034 2.45434 9.21952 1.6152C8.20245 0.613233 8.14651 1.13234 7.22361 0.0837748ZM12.2495 9.90412C12.634 9.94738 12.7783 10.2048 12.8337 10.5415C12.8797 10.9918 12.515 11.2588 12.2714 11.2962C12.0276 11.3337 11.7155 11.2684 11.5368 10.9908C11.4835 10.8777 11.3881 10.3346 11.5651 10.1624C11.7686 9.95244 11.5651 10.1624 11.5651 10.1624C11.3229 10.2589 11.8557 9.81025 12.2495 9.90412Z"/>
 </g>
</svg>
