<?xml version="1.0" encoding="UTF-8" standalone="no"?>
<!-- Created with Inkscape (http://www.inkscape.org/) -->

<svg
   xmlns:dc="http://purl.org/dc/elements/1.1/"
   xmlns:cc="http://creativecommons.org/ns#"
   xmlns:rdf="http://www.w3.org/1999/02/22-rdf-syntax-ns#"
   xmlns:svg="http://www.w3.org/2000/svg"
   xmlns="http://www.w3.org/2000/svg"
   xmlns:xlink="http://www.w3.org/1999/xlink"
   xmlns:sodipodi="http://sodipodi.sourceforge.net/DTD/sodipodi-0.dtd"
   xmlns:inkscape="http://www.inkscape.org/namespaces/inkscape"
   width="64"
   height="64"
   viewBox="0 0 64 64.000003"
   id="svg2"
   version="1.1"
   inkscape:version="0.91 r13725"
   sodipodi:docname="firefox.svg"
   inkscape:export-filename="/home/uri/firefox.png"
   inkscape:export-xdpi="360"
   inkscape:export-ydpi="360">
  <defs
     id="defs4">
    <radialGradient
       inkscape:collect="always"
       xlink:href="#Shadow"
       id="radialGradient4170"
       cx="32"
       cy="1093.5195"
       fx="32"
       fy="1093.5195"
       r="25"
       gradientUnits="userSpaceOnUse"
       gradientTransform="matrix(1.0399999,1.3243184e-5,-1.324321e-5,1.0399984,-1.2655136,-43.739513)" />
    <linearGradient
       inkscape:collect="always"
       id="Shadow">
      <stop
         style="stop-color:#000000;stop-opacity:1;"
         offset="0"
         id="stop4166" />
      <stop
         id="stop4220"
         offset="0.92307687"
         style="stop-color:#000000;stop-opacity:0.49803922;" />
      <stop
         style="stop-color:#000000;stop-opacity:0;"
         offset="1"
         id="stop4168" />
    </linearGradient>
    <linearGradient
       gradientTransform="matrix(1,0,0,0.99999869,7e-8,0.00191115)"
       inkscape:collect="always"
       xlink:href="#linearGradient4393"
       id="linearGradient4391"
       x1="29"
       y1="1095.5192"
       x2="31"
       y2="1100.5197"
       gradientUnits="userSpaceOnUse" />
    <linearGradient
       id="linearGradient4393"
       inkscape:collect="always">
      <stop
         id="stop4395"
         offset="0"
         style="stop-color:#000000;stop-opacity:1;" />
      <stop
         style="stop-color:#000000;stop-opacity:0.49803922;"
         offset="0.59993446"
         id="stop4397" />
      <stop
         id="stop4399"
         offset="1"
         style="stop-color:#000000;stop-opacity:0;" />
    </linearGradient>
    <linearGradient
       inkscape:collect="always"
       xlink:href="#linearGradient4354"
       id="linearGradient4386"
       gradientUnits="userSpaceOnUse"
       gradientTransform="matrix(1,0,0,0.99999869,7e-8,0.00191115)"
       x1="24"
       y1="1084.5197"
       x2="30"
       y2="1090.5197" />
    <linearGradient
       id="linearGradient4354"
       inkscape:collect="always">
      <stop
         id="stop4356"
         offset="0"
         style="stop-color:#000000;stop-opacity:1;" />
      <stop
         style="stop-color:#000000;stop-opacity:0.49803922;"
         offset="0.66665781"
         id="stop4358" />
      <stop
         id="stop4360"
         offset="1"
         style="stop-color:#000000;stop-opacity:0;" />
    </linearGradient>
    <linearGradient
       inkscape:collect="always"
       xlink:href="#linearGradient4354"
       id="linearGradient4352"
       x1="23"
       y1="1085.5197"
       x2="26"
       y2="1093.5197"
       gradientUnits="userSpaceOnUse"
       gradientTransform="matrix(1,0,0,0.99999869,7e-8,0.00191115)" />
  </defs>
  <sodipodi:namedview
     id="base"
     pagecolor="#ffffff"
     bordercolor="#666666"
     borderopacity="1.0"
     inkscape:pageopacity="0.0"
     inkscape:pageshadow="2"
     inkscape:zoom="12.09375"
     inkscape:cx="32"
     inkscape:cy="32"
     inkscape:document-units="px"
     inkscape:current-layer="layer1"
     showgrid="true"
     units="px"
     inkscape:showpageshadow="false"
     borderlayer="true"
     inkscape:window-width="2560"
     inkscape:window-height="959"
     inkscape:window-x="0"
     inkscape:window-y="34"
     inkscape:window-maximized="1"
     showguides="true"
     inkscape:guide-bbox="true">
    <inkscape:grid
       type="xygrid"
       id="grid4136" />
    <sodipodi:guide
       position="5,5.0000688"
       orientation="0,54"
       id="guide4144" />
    <sodipodi:guide
       position="59,5.0000688"
       orientation="-54,0"
       id="guide4146" />
    <sodipodi:guide
       position="59,59.000069"
       orientation="0,-54"
       id="guide4148" />
    <sodipodi:guide
       position="0,64.000069"
       orientation="64,0"
       id="guide4150" />
    <sodipodi:guide
       position="0,6.875e-05"
       orientation="0,64"
       id="guide4152" />
    <sodipodi:guide
       position="64,4.0000002"
       orientation="-64,0"
       id="guide4154" />
    <sodipodi:guide
       position="64,64.000069"
       orientation="0,-64"
       id="guide4156" />
    <sodipodi:guide
       position="5,41.000002"
       orientation="1,0"
       id="guide4174" />
    <sodipodi:guide
       position="32,31.000001"
       orientation="1,0"
       id="guide4200" />
    <sodipodi:guide
       position="32,31.000001"
       orientation="0,1"
       id="guide4211" />
  </sodipodi:namedview>
  <metadata
     id="metadata7">
    <rdf:RDF>
      <cc:Work
         rdf:about="">
        <dc:format>image/svg+xml</dc:format>
        <dc:type
           rdf:resource="http://purl.org/dc/dcmitype/StillImage" />
        <dc:title />
      </cc:Work>
    </rdf:RDF>
  </metadata>
  <g
     inkscape:label="Capa 1"
     inkscape:groupmode="layer"
     id="layer1"
     transform="translate(0,-1058.5196)">
    <ellipse
       cy="1093.5197"
       cx="32.000004"
       id="circle4162"
       style="opacity:1;fill:url(#radialGradient4170);fill-opacity:1;stroke:none;stroke-opacity:1"
       rx="26"
       ry="25.999954" />
    <ellipse
       style="opacity:1;fill:#0277bd;fill-opacity:1;stroke:none;stroke-opacity:1"
       id="path4160"
       cx="32.000004"
       cy="1091.5194"
       rx="25"
       ry="24.999958" />
    <ellipse
       cy="1091.5198"
       cx="32.000004"
       id="circle4251"
       style="opacity:1;fill:#0288d1;fill-opacity:1;stroke:none;stroke-opacity:1"
       rx="24"
       ry="23.999958" />
    <path
       id="path4389"
       d="m 32.7531,1095.7382 c -0.965011,0.036 -1.895367,0.4406 -2.94336,0.8105 -2.062525,0.728 -4.547366,1.4108 -8.316405,-0.4121 -0.0074,-0.013 -0.0012,-0.024 -0.0098,-0.037 -0.09783,-0.1467 -0.282034,-0.2488 -0.429687,-0.2734 -0.295306,-0.049 -0.464154,0.046 -0.644531,0.1367 -0.360755,0.1804 -0.741313,0.4739 -1.128906,0.7969 -0.775188,0.646 -1.533204,1.4062 -1.533204,1.4062 a 0.50005,0.50004914 0 0 0 0.0957,0.7832 l 4.999999,3 a 0.50005,0.50004914 0 0 0 0.25785,0.07 c 2.125,0 5.132381,-0.7655 7.666016,-1.6523 1.266817,-0.4434 2.406362,-0.9184 3.251953,-1.3574 0.422795,-0.2196 0.770802,-0.4283 1.039062,-0.6387 0.26826,-0.2105 0.542969,-0.3932 0.542969,-0.8516 a 0.50005,0.50004914 0 0 0 -0.09961,-0.3007 c -0.816,-1.088 -1.783037,-1.5169 -2.748047,-1.4805 z"
       style="color:#000000;font-style:normal;font-variant:normal;font-weight:normal;font-stretch:normal;font-size:medium;line-height:normal;font-family:sans-serif;text-indent:0;text-align:start;text-decoration:none;text-decoration-line:none;text-decoration-style:solid;text-decoration-color:#000000;letter-spacing:normal;word-spacing:normal;text-transform:none;direction:ltr;block-progression:tb;writing-mode:lr-tb;baseline-shift:baseline;text-anchor:start;white-space:normal;clip-rule:nonzero;display:inline;overflow:visible;visibility:visible;opacity:1;isolation:auto;mix-blend-mode:normal;color-interpolation:sRGB;color-interpolation-filters:linearRGB;solid-color:#000000;solid-opacity:1;fill:url(#linearGradient4391);fill-opacity:1;fill-rule:evenodd;stroke:none;stroke-width:1px;stroke-linecap:round;stroke-linejoin:round;stroke-miterlimit:4;stroke-dasharray:none;stroke-dashoffset:0;stroke-opacity:1;color-rendering:auto;image-rendering:auto;shape-rendering:auto;text-rendering:auto;enable-background:accumulate"
       inkscape:connector-curvature="0" />
    <path
       inkscape:connector-curvature="0"
       style="fill:#1565c0;fill-opacity:1;fill-rule:evenodd;stroke:none;stroke-width:1px;stroke-linecap:butt;stroke-linejoin:miter;stroke-opacity:1"
       d="m 20.755859,1070.3357 a 23.999999,23.99996 0 0 0 -12.7558591,21.1838 23.999999,23.99996 0 0 0 10.3808591,19.7558 L 22,1103.5195 l 0.999999,-7 3,-1 1,0 2,-2 0,-2 -1,-2 -4,-2 0,-4 0,-4 2,-2 0,-2.0001 0,-1 -1,-2.0001 -3.999999,-2 -0.244141,-0.1836 z"
       id="path4185" />
    <path
       inkscape:connector-curvature="0"
       style="color:#000000;font-style:normal;font-variant:normal;font-weight:normal;font-stretch:normal;font-size:medium;line-height:normal;font-family:sans-serif;text-indent:0;text-align:start;text-decoration:none;text-decoration-line:none;text-decoration-style:solid;text-decoration-color:#000000;letter-spacing:normal;word-spacing:normal;text-transform:none;direction:ltr;block-progression:tb;writing-mode:lr-tb;baseline-shift:baseline;text-anchor:start;white-space:normal;clip-rule:nonzero;display:inline;overflow:visible;visibility:visible;opacity:1;isolation:auto;mix-blend-mode:normal;color-interpolation:sRGB;color-interpolation-filters:linearRGB;solid-color:#000000;solid-opacity:1;fill:url(#linearGradient4386);fill-opacity:1;fill-rule:evenodd;stroke:none;stroke-width:1px;stroke-linecap:round;stroke-linejoin:round;stroke-miterlimit:4;stroke-dasharray:none;stroke-dashoffset:0;stroke-opacity:1;color-rendering:auto;image-rendering:auto;shape-rendering:auto;text-rendering:auto;enable-background:accumulate"
       d="m 32.203124,1084.4298 -6.203125,7.0898 0.869141,0.8691 c 1.126524,-0.5547 2.079642,-1.1975 2.833984,-1.8515 1.204617,-1.0442 1.787171,-1.8677 2.158203,-2.4649 0.145547,-0.2342 0.356468,-0.5439 0.41211,-0.6523 0.0053,-0.3286 8.1e-4,-0.6688 0.002,-1.0039 0.0023,-0.6631 0.0059,-1.3269 0.0059,-1.9863 l -0.07813,0 z"
       id="path4372" />
    <path
       inkscape:connector-curvature="0"
       style="color:#000000;font-style:normal;font-variant:normal;font-weight:normal;font-stretch:normal;font-size:medium;line-height:normal;font-family:sans-serif;text-indent:0;text-align:start;text-decoration:none;text-decoration-line:none;text-decoration-style:solid;text-decoration-color:#000000;letter-spacing:normal;word-spacing:normal;text-transform:none;direction:ltr;block-progression:tb;writing-mode:lr-tb;baseline-shift:baseline;text-anchor:start;white-space:normal;clip-rule:nonzero;display:inline;overflow:visible;visibility:visible;opacity:1;isolation:auto;mix-blend-mode:normal;color-interpolation:sRGB;color-interpolation-filters:linearRGB;solid-color:#000000;solid-opacity:1;fill:url(#linearGradient4352);fill-opacity:1;fill-rule:evenodd;stroke:none;stroke-width:1px;stroke-linecap:round;stroke-linejoin:round;stroke-miterlimit:4;stroke-dasharray:none;stroke-dashoffset:0;stroke-opacity:1;color-rendering:auto;image-rendering:auto;shape-rendering:auto;text-rendering:auto;enable-background:accumulate"
       d="m 19.9375,1080.9122 c -4.223899,0.5281 -6.4375,3.7654 -6.4375,6.873 0,1.5539 0.541693,3.0896 1.638672,4.2383 1.096979,1.1486 2.746745,1.8887 4.861328,1.8887 0.07524,0 0.142343,-0.01 0.216797,-0.01 l 0.287109,2.5722 0.980469,0.067 c 0.450066,-1.8006 1.715661,-2.4008 2.980468,-2.6309 1.264806,-0.2299 2.4375,0 2.4375,0 l 1.49414,0.2988 -1.027343,-1.1269 c -0.200325,-0.2196 -0.383972,-0.4359 -0.564453,-0.6504 0.02597,-0.013 0.03868,-0.03 0.06445,-0.043 l -0.869138,-0.8694 6.203125,-7.0898 -5.332031,0 c -0.583317,-1.1312 -1.398914,-1.9813 -2.38086,-2.5215 -0.157479,-0.087 -0.326969,-0.1449 -0.490234,-0.2188 l 0,-0.3515 -0.416016,-0.1973 -0.189453,0.2852 c -1.076964,-0.3705 -2.242807,-0.5137 -3.39453,-0.5137 -0.02081,0 -0.04169,0 -0.0625,0 z"
       id="path4341" />
    <path
       inkscape:connector-curvature="0"
       style="fill:#1565c0;fill-opacity:1;fill-rule:evenodd;stroke:none;stroke-width:1px;stroke-linecap:butt;stroke-linejoin:miter;stroke-opacity:1"
       d="M 43.972656,1069.574 42,1073.5194 l -2,3 -1.000001,1.0001 0,3 2.000001,2 0,2 -1,3 -4.000001,2 -1,2 0,2 0,3 2,0 2,1 3.000001,-2 0,-3 1,0 2,0 2,2 1,4 1,6 3.916016,0.6523 A 24.999999,24.999956 0 0 0 57,1091.5195 24.999999,24.999956 0 0 0 43.972656,1069.574 Z"
       id="path4180" />
    <path
       style="opacity:1;fill:#f57c00;fill-opacity:1;stroke:none;stroke-opacity:1"
       d="m 37.865233,1066.2146 c 2.523983,2.0726 4.58422,4.592 6.10547,7.3946 -1.578072,-0.8679 -3.245301,-1.5627 -4.972657,-2.0723 C 59.999999,1098.5195 21,1117.5195 21,1087.5195 c 0.0075,-1.0032 0.07529,-2.005 0.203125,-3 l -14.2402341,0 c -0.6380059,2.2786 -0.9619599,4.6337 -0.9628909,7 0.0087,9.9531 5.698821,19.0278 14.654297,23.3711 l 0.01367,0.01 c 0.754441,0.3665 1.526177,0.6963 2.312499,0.9883 0.12598,0.043 0.252286,0.084 0.378906,0.125 0.679527,0.2441 1.368926,0.4597 2.066406,0.6464 0.20322,0.048 0.40701,0.094 0.611328,0.1368 0.617483,0.151 1.240298,0.2793 1.867188,0.3847 0.314374,0.044 0.629531,0.083 0.945312,0.1153 0.552052,0.075 1.106375,0.1324 1.66211,0.1718 0.495492,0.032 0.991788,0.049 1.488283,0.053 14.359404,0 26,-11.6406 26,-26 -0.01168,-12.0904 -8.355997,-22.5775 -20.134766,-25.3049 z"
       id="circle4930"
       inkscape:connector-curvature="0"
       sodipodi:nodetypes="ccccccccccccccccccc" />
    <path
       inkscape:connector-curvature="0"
       style="opacity:1;fill:#f57c00;fill-opacity:1;stroke:none"
       d="M 6.482422,1072.7673 A 18.499999,18.499966 0 0 0 5,1080.0195 a 18.499999,18.499966 0 0 0 5.017578,12.6348 26.499999,26.499954 0 0 1 3.628906,-12.9961 28.499999,28.499952 0 0 1 -7.164062,-6.8909 z"
       id="path4589" />
    <ellipse
       style="opacity:1;fill:#f57c00;fill-opacity:1;stroke:none"
       id="path4648"
       cx="15.999996"
       cy="1084.5198"
       rx="8"
       ry="7.9999866" />
    <path
       inkscape:connector-curvature="0"
       style="color:#000000;font-style:normal;font-variant:normal;font-weight:normal;font-stretch:normal;font-size:medium;line-height:normal;font-family:sans-serif;text-indent:0;text-align:start;text-decoration:none;text-decoration-line:none;text-decoration-style:solid;text-decoration-color:#000000;letter-spacing:normal;word-spacing:normal;text-transform:none;direction:ltr;block-progression:tb;writing-mode:lr-tb;baseline-shift:baseline;text-anchor:start;white-space:normal;clip-rule:nonzero;display:inline;overflow:visible;visibility:visible;opacity:1;isolation:auto;mix-blend-mode:normal;color-interpolation:sRGB;color-interpolation-filters:linearRGB;solid-color:#000000;solid-opacity:1;fill:#37474f;fill-opacity:1;fill-rule:evenodd;stroke:none;stroke-width:1px;stroke-linecap:round;stroke-linejoin:round;stroke-miterlimit:4;stroke-dasharray:none;stroke-dashoffset:0;stroke-opacity:1;color-rendering:auto;image-rendering:auto;shape-rendering:auto;text-rendering:auto;enable-background:accumulate"
       d="m 30.999999,1083.5156 0,2.0039 1.277344,0 c 0.03087,-0.06 0.175781,-0.2949 0.175781,-0.2949 a 0.50005,0.50004914 0 0 0 0.04687,-0.209 l 0,-1 a 0.50005,0.50004914 0 0 0 -0.5,-0.5 l -1,0 z"
       id="path4892" />
    <path
       inkscape:connector-curvature="0"
       style="color:#000000;font-style:normal;font-variant:normal;font-weight:normal;font-stretch:normal;font-size:medium;line-height:normal;font-family:sans-serif;text-indent:0;text-align:start;text-decoration:none;text-decoration-line:none;text-decoration-style:solid;text-decoration-color:#000000;letter-spacing:normal;word-spacing:normal;text-transform:none;direction:ltr;block-progression:tb;writing-mode:lr-tb;baseline-shift:baseline;text-anchor:start;white-space:normal;clip-rule:nonzero;display:inline;overflow:visible;visibility:visible;opacity:1;isolation:auto;mix-blend-mode:normal;color-interpolation:sRGB;color-interpolation-filters:linearRGB;solid-color:#000000;solid-opacity:1;fill:#f57c00;fill-opacity:1;fill-rule:evenodd;stroke:none;stroke-width:1px;stroke-linecap:round;stroke-linejoin:round;stroke-miterlimit:4;stroke-dasharray:none;stroke-dashoffset:0;stroke-opacity:1;color-rendering:auto;image-rendering:auto;shape-rendering:auto;text-rendering:auto;enable-background:accumulate"
       d="m 20,1079.0156 0,0 a 0.50005,0.50004914 0 0 0 -0.0625,0 c -4.223899,0.528 -6.4375,3.7642 -6.4375,6.8711 0,1.5535 0.541693,3.0879 1.638672,4.2363 1.096979,1.1484 2.746745,1.8887 4.861328,1.8887 4.620369,0 7.753322,-1.6833 9.703124,-3.3731 1.682973,-1.4585 2.379529,-2.7433 2.574219,-3.123 l -1.277344,0 0,-2.0039 -2,0 -1.703125,0 c -0.571302,-1.6343 -1.558028,-2.8132 -2.806641,-3.5 -1.35315,-0.7442 -2.934677,-1 -4.490233,-1 z"
       id="path4876" />
    <path
       inkscape:connector-curvature="0"
       style="color:#000000;font-style:normal;font-variant:normal;font-weight:normal;font-stretch:normal;font-size:medium;line-height:normal;font-family:sans-serif;text-indent:0;text-align:start;text-decoration:none;text-decoration-line:none;text-decoration-style:solid;text-decoration-color:#000000;letter-spacing:normal;word-spacing:normal;text-transform:none;direction:ltr;block-progression:tb;writing-mode:lr-tb;baseline-shift:baseline;text-anchor:start;white-space:normal;clip-rule:nonzero;display:inline;overflow:visible;visibility:visible;opacity:1;isolation:auto;mix-blend-mode:normal;color-interpolation:sRGB;color-interpolation-filters:linearRGB;solid-color:#000000;solid-opacity:1;fill:#fafafa;fill-opacity:1;fill-rule:evenodd;stroke:none;stroke-width:1px;stroke-linecap:round;stroke-linejoin:round;stroke-miterlimit:4;stroke-dasharray:none;stroke-dashoffset:0;stroke-opacity:1;color-rendering:auto;image-rendering:auto;shape-rendering:auto;text-rendering:auto;enable-background:accumulate"
       d="m 24.86328,1084.6191 -0.734375,5.8652 c 2.15606,-0.5905 3.761198,-1.5893 4.917969,-2.5918 1.72661,-1.4964 2.397725,-2.887 2.453125,-3.0039 l 0,-0.2695 -6.636719,0 z"
       id="path4851" />
    <path
       inkscape:connector-curvature="0"
       style="fill:#fb8c00;fill-opacity:1;fill-rule:evenodd;stroke:none;stroke-width:1px;stroke-linecap:butt;stroke-linejoin:miter;stroke-opacity:1"
       d="m 23.30078,1080.5195 -4.30078,1 c 0,0 0,6 3.999999,6 3.880573,0 3.074279,-1.8788 8.5,-2.9043 l 0,-0.096 -4.5,0 c -1,-2 -0.999219,-3 -3.699219,-4 z"
       id="path4859" />
    <path
       style="opacity:1;fill:#f57c00;fill-opacity:1;stroke:none"
       d="M 24.326172 12.806641 C 22.013641 13.736641 19.913245 15.124619 18.150391 16.886719 C 14.835928 20.213019 12.909855 24.675641 12.763672 29.369141 C 14.671007 27.517725 16.844128 25.982552 19.193359 24.785156 C 19.006327 23.788784 19 23 19 23 L 23.300781 22 C 23.782077 22.178258 24.153752 22.359047 24.484375 22.542969 C 23.874639 19.330456 23.818515 16.037833 24.326172 12.806641 z "
       transform="translate(0,1058.5196)"
       id="path4798" />
    <path
       inkscape:connector-curvature="0"
       style="color:#000000;font-style:normal;font-variant:normal;font-weight:normal;font-stretch:normal;font-size:medium;line-height:normal;font-family:sans-serif;text-indent:0;text-align:start;text-decoration:none;text-decoration-line:none;text-decoration-style:solid;text-decoration-color:#000000;letter-spacing:normal;word-spacing:normal;text-transform:none;direction:ltr;block-progression:tb;writing-mode:lr-tb;baseline-shift:baseline;text-anchor:start;white-space:normal;clip-rule:nonzero;display:inline;overflow:visible;visibility:visible;opacity:1;isolation:auto;mix-blend-mode:normal;color-interpolation:sRGB;color-interpolation-filters:linearRGB;solid-color:#000000;solid-opacity:1;fill:#f57c00;fill-opacity:1;fill-rule:evenodd;stroke:none;stroke-width:1px;stroke-linecap:butt;stroke-linejoin:miter;stroke-miterlimit:4;stroke-dasharray:none;stroke-dashoffset:0;stroke-opacity:1;color-rendering:auto;image-rendering:auto;shape-rendering:auto;text-rendering:auto;enable-background:accumulate"
       d="m 23.583983,1079.2441 -4.101561,6.1504 1.021484,9.1797 0.980469,0.066 c 0.450066,-1.8002 1.715661,-2.3989 2.980468,-2.6289 1.264806,-0.2299 2.4375,0 2.4375,0 l 1.49414,0.2988 -1.027343,-1.1269 c -3.823381,-4.1897 -3.962019,-7.4556 -3.123047,-10.6641 l -0.246094,0 0,-1.0781 -0.416016,-0.1973 z"
       id="path4913" />
    <path
       inkscape:connector-curvature="0"
       style="color:#000000;font-style:normal;font-variant:normal;font-weight:normal;font-stretch:normal;font-size:medium;line-height:normal;font-family:sans-serif;text-indent:0;text-align:start;text-decoration:none;text-decoration-line:none;text-decoration-style:solid;text-decoration-color:#000000;letter-spacing:normal;word-spacing:normal;text-transform:none;direction:ltr;block-progression:tb;writing-mode:lr-tb;baseline-shift:baseline;text-anchor:start;white-space:normal;clip-rule:nonzero;display:inline;overflow:visible;visibility:visible;opacity:1;isolation:auto;mix-blend-mode:normal;color-interpolation:sRGB;color-interpolation-filters:linearRGB;solid-color:#000000;solid-opacity:1;fill:#f57c00;fill-opacity:1;fill-rule:evenodd;stroke:none;stroke-width:1px;stroke-linecap:round;stroke-linejoin:round;stroke-miterlimit:4;stroke-dasharray:none;stroke-dashoffset:0;stroke-opacity:1;color-rendering:auto;image-rendering:auto;shape-rendering:auto;text-rendering:auto;enable-background:accumulate"
       d="m 32.652343,1094.7382 c -0.965011,0.036 -1.895367,0.4406 -2.94336,0.8105 -2.062525,0.728 -4.547366,1.4108 -8.316405,-0.4121 -0.0074,-0.013 -0.0012,-0.024 -0.0098,-0.037 -0.09783,-0.1467 -0.282034,-0.2488 -0.429687,-0.2734 -0.295306,-0.049 -0.464154,0.046 -0.644531,0.1367 -0.360755,0.1804 -0.741313,0.4739 -1.128906,0.7969 -0.775188,0.646 -1.533204,1.4062 -1.533204,1.4062 a 0.50005,0.50004914 0 0 0 0.0957,0.7832 l 4.999999,3 a 0.50005,0.50004914 0 0 0 0.25785,0.07 c 2.125,0 5.132381,-0.7655 7.666016,-1.6523 1.266817,-0.4434 2.406362,-0.9184 3.251953,-1.3574 0.422795,-0.2196 0.770802,-0.4283 1.039062,-0.6387 0.26826,-0.2105 0.542969,-0.3932 0.542969,-0.8516 a 0.50005,0.50004914 0 0 0 -0.09961,-0.3007 c -0.816,-1.088 -1.783037,-1.5169 -2.748047,-1.4805 z"
       id="path4196" />
    <path
       inkscape:connector-curvature="0"
       style="opacity:1;fill:#ffa726;fill-opacity:1;stroke:none;stroke-opacity:1"
       d="M 45.804688,1089.5977 48,1093.5196 l 1,12 1.867188,2.2402 C 54.638513,1103.382 57,1097.7532 57,1091.5216 c -0.0034,-10.1164 -6.103733,-19.2327 -15.453125,-23.0959 2.05747,2.3461 3.657459,5.0228 4.75,7.8926 -1.286771,-0.971 -2.668095,-1.8098 -4.123047,-2.5039 3.288018,5.9638 4.166035,11.2834 3.63086,15.7833 z"
       id="circle4841" />
    <path
       style="opacity:1;fill:#ff9800;fill-opacity:1;stroke:none;stroke-width:2;stroke-linecap:round;stroke-linejoin:round;stroke-miterlimit:4;stroke-dasharray:none;stroke-opacity:1"
       d="m 44.728516,1076.5995 a 22.999999,22.999962 0 0 1 2.271484,9.92 22.999999,22.999962 0 0 1 -1.076172,6.918 l 0.5,4.2109 7.386719,-0.1035 A 16,15.999972 0 0 0 55,1091.5195 a 16,15.999972 0 0 0 -1.498047,-6.6973 24.999999,24.999956 0 0 0 -5.365234,-6.3945 16,15.999972 0 0 0 -3.408203,-1.8282 z"
       id="path4181"
       inkscape:connector-curvature="0" />
    <path
       inkscape:connector-curvature="0"
       style="opacity:1;fill:#ff9800;fill-opacity:1;stroke:none;stroke-width:2;stroke-linecap:round;stroke-linejoin:round;stroke-miterlimit:4;stroke-dasharray:none;stroke-opacity:1"
       d="m 55.607422,1086.1191 c -0.809505,4.2974 -2.853775,8.2658 -5.882813,11.4199 l 2.244141,8.9707 a 24.999999,24.999956 0 0 0 4.970703,-13.7988 c -0.132216,-2.2477 -0.566883,-4.4693 -1.332031,-6.5918 z"
       id="path4230" />
    <path
       style="opacity:1;fill:#f57c00;fill-opacity:1;stroke:none;stroke-width:2;stroke-linecap:round;stroke-linejoin:round;stroke-miterlimit:4;stroke-dasharray:none;stroke-opacity:1"
       d="m 45,1083.7285 c 1,4.791 2.43e-4,15.194 0,22.791 l -2,0 0,0.1035 c 2.388691,2.0331 4.847352,3.1422 5.902344,3.7305 3.261752,-3.2766 5.094393,-6.7107 5.097656,-11.334 -0.0022,-6.3528 -3.446949,-12.2054 -9,-15.291 z"
       id="path4198"
       inkscape:connector-curvature="0"
       sodipodi:nodetypes="ccccccc" />
    <path
       inkscape:connector-curvature="0"
       style="opacity:1;fill:#fb8c00;fill-opacity:1;stroke:none"
       d="m 23.099608,1072.9921 c -1.563418,0.8204 -2.993674,1.8728 -4.242186,3.1212 -0.442251,0.446 -0.860173,0.9154 -1.251953,1.4063 l -1.605469,0 -1,0 0,0.08 c -1.325619,0.1904 -2.568796,0.7571 -3.582031,1.6328 -1.697236,-1.3007 -3.2480156,-2.7821 -4.6250003,-4.4181 -0.5253311,1.6852 -0.7926794,3.4401 -0.7929687,5.2053 0.00421,2.392 0.4987677,4.7578 1.4531249,6.9512 -0.2842218,1.4987 -0.4465788,3.0199 -0.453125,4.5488 0.0063,7.4781 3.3598421,14.5607 9.1406251,19.3047 l -0.0059,0 0.02734,0.021 c 0.556881,0.4516 1.132935,0.8791 1.726563,1.2812 0.103596,0.075 0.207765,0.1492 0.3125,0.2227 0.56085,0.366 1.136184,0.7094 1.724609,1.0293 0.147558,0.087 0.296003,0.1721 0.445313,0.2558 0.561244,0.2898 1.133268,0.5582 1.714844,0.8047 0.187104,0.086 0.37527,0.1703 0.564452,0.252 0.56853,0.2241 1.145089,0.4274 1.728515,0.6093 0.213222,0.074 0.427434,0.1449 0.642578,0.2129 0.538361,0.151 1.081635,0.2839 1.628907,0.3985 0.278851,0.067 0.55884,0.1298 0.839843,0.1875 0.479711,0.081 0.961687,0.1482 1.445313,0.2011 0.360318,0.052 0.721732,0.097 1.083984,0.1329 0.658823,0.056 1.31941,0.085 1.980469,0.088 6.036592,0 11.517208,-2.1892 15.816407,-5.7695 l 0.166016,0.092 c 0.436996,-0.4235 0.842469,-0.8735 1.226562,-1.3379 0.578025,-0.5571 1.133833,-1.1374 1.658204,-1.7461 l -0.236285,-0.2851 c 1.521037,-2.535 2.364575,-5.4463 2.369141,-8.4551 -0.0016,-5.4183 -2.663268,-10.4905 -7.121094,-13.5703 0.550403,1.9157 0.710219,3.689 0.582032,5.3203 l -0.65625,-1.1719 c -1.548739,13.0224 -15.601386,18.7557 -22.291017,10.3828 1.877065,-0.1052 4.556534,-0.7682 6.820312,-1.5605 1.233183,-0.4316 2.343638,-0.8941 3.123047,-1.2988 0.389705,-0.2023 0.697948,-0.392 0.882813,-0.5371 0.0085,0 2.12e-4,0.01 0.0078,0 -0.563642,-0.6342 -1.056542,-0.8687 -1.65625,-0.8457 l 0,0 c -0.691239,0.026 -1.573383,0.3718 -2.65039,0.7519 -2.03784,0.7193 -4.830858,1.4257 -8.61914,-0.2441 C 20.529465,1093.9163 20,1091.0346 20,1087.5196 l 0.09961,-0.248 c 0.123784,1.5265 0.51441,3.3247 1.210938,5.5156 0.689453,-1.2676 1.934592,-1.5687 2.974608,-1.7578 0.924121,-0.17 1.229848,-0.055 1.75,0 C 24,1088.5196 22,1084.5196 23.376953,1080.5235 c -0.414068,-2.4883 -0.507277,-5.0194 -0.277345,-7.5314 z"
       id="path4800"
       sodipodi:nodetypes="cccccccccccccccccccccccccccccccccccccscccccccccccccc" />
    <path
       inkscape:connector-curvature="0"
       style="opacity:1;fill:#f57c00;fill-opacity:1;stroke:none;stroke-opacity:1"
       d="m 9.2851561,1083.8731 a 23.999999,23.99996 0 0 0 -1.2851562,7.6465 23.999999,23.99996 0 0 0 23.9999991,24 23.999999,23.99996 0 0 0 16.923829,-7 22.999999,22.999962 0 0 1 -12.923829,4 22.999999,22.999962 0 0 1 -21.851561,-15.9141 25.999999,25.999954 0 0 1 -0.871094,-1.5136 25.999999,25.999954 0 0 0 5.396484,12.6367 A 25.999999,25.999954 0 0 1 9,1087.5196 a 25.999999,25.999954 0 0 1 0.2851561,-3.6465 z"
       id="circle4302" />
  </g>
</svg>
