<?xml version="1.0" encoding="UTF-8" standalone="no"?>
<!-- Created with Inkscape (http://www.inkscape.org/) -->

<svg
   xmlns:dc="http://purl.org/dc/elements/1.1/"
   xmlns:cc="http://creativecommons.org/ns#"
   xmlns:rdf="http://www.w3.org/1999/02/22-rdf-syntax-ns#"
   xmlns:svg="http://www.w3.org/2000/svg"
   xmlns="http://www.w3.org/2000/svg"
   xmlns:xlink="http://www.w3.org/1999/xlink"
   xmlns:sodipodi="http://sodipodi.sourceforge.net/DTD/sodipodi-0.dtd"
   xmlns:inkscape="http://www.inkscape.org/namespaces/inkscape"
   width="64"
   height="64"
   viewBox="0 0 64 64.000003"
   id="svg2"
   version="1.1"
   inkscape:version="0.91 r13725"
   sodipodi:docname="google-chrome.svg">
  <defs
     id="defs4">
    <linearGradient
       inkscape:collect="always"
       id="Shadow">
      <stop
         style="stop-color:#000000;stop-opacity:1;"
         offset="0"
         id="stop4166" />
      <stop
         id="stop4220"
         offset="0.92307687"
         style="stop-color:#000000;stop-opacity:0.49803922;" />
      <stop
         style="stop-color:#000000;stop-opacity:0;"
         offset="1"
         id="stop4168" />
    </linearGradient>
    <radialGradient
       inkscape:collect="always"
       xlink:href="#Shadow"
       id="radialGradient4170"
       cx="32"
       cy="1093.5195"
       fx="32"
       fy="1093.5195"
       r="25"
       gradientUnits="userSpaceOnUse"
       gradientTransform="matrix(1.0399999,1.3243208e-5,-1.324321e-5,1.04,-1.2655137,-43.741467)" />
  </defs>
  <sodipodi:namedview
     id="base"
     pagecolor="#ffffff"
     bordercolor="#666666"
     borderopacity="1.0"
     inkscape:pageopacity="0.0"
     inkscape:pageshadow="2"
     inkscape:zoom="12.90625"
     inkscape:cx="42.526376"
     inkscape:cy="23.66115"
     inkscape:document-units="px"
     inkscape:current-layer="layer1"
     showgrid="true"
     units="px"
     inkscape:showpageshadow="false"
     borderlayer="true"
     inkscape:window-width="2560"
     inkscape:window-height="1017"
     inkscape:window-x="0"
     inkscape:window-y="0"
     inkscape:window-maximized="1"
     showguides="true"
     inkscape:guide-bbox="true">
    <inkscape:grid
       type="xygrid"
       id="grid4136" />
    <sodipodi:guide
       position="5,5.0000688"
       orientation="0,54"
       id="guide4144" />
    <sodipodi:guide
       position="59,5.0000688"
       orientation="-54,0"
       id="guide4146" />
    <sodipodi:guide
       position="59,59.000069"
       orientation="0,-54"
       id="guide4148" />
    <sodipodi:guide
       position="0,64.000069"
       orientation="64,0"
       id="guide4150" />
    <sodipodi:guide
       position="0,6.875e-05"
       orientation="0,64"
       id="guide4152" />
    <sodipodi:guide
       position="64,4.0000002"
       orientation="-64,0"
       id="guide4154" />
    <sodipodi:guide
       position="64,64.000069"
       orientation="0,-64"
       id="guide4156" />
    <sodipodi:guide
       position="5,41.000002"
       orientation="1,0"
       id="guide4174" />
    <sodipodi:guide
       position="55,42.000002"
       orientation="0,1"
       id="guide4198" />
    <sodipodi:guide
       position="32,31.000001"
       orientation="1,0"
       id="guide4200" />
    <sodipodi:guide
       position="31,6.0000003"
       orientation="-0.86968592,0.49360552"
       id="guide4202" />
    <sodipodi:guide
       position="32,31.000001"
       orientation="0,1"
       id="guide4211" />
    <sodipodi:guide
       position="32,40.000002"
       orientation="0,1"
       id="guide4213" />
    <sodipodi:guide
       position="33,22.000001"
       orientation="0,1"
       id="guide4215" />
    <sodipodi:guide
       position="53.481548,45.610349"
       orientation="0,1"
       id="guide4225" />
    <sodipodi:guide
       position="5,55.333303"
       orientation="50.3332,28.567529"
       id="guide4247" />
  </sodipodi:namedview>
  <metadata
     id="metadata7">
    <rdf:RDF>
      <cc:Work
         rdf:about="">
        <dc:format>image/svg+xml</dc:format>
        <dc:type
           rdf:resource="http://purl.org/dc/dcmitype/StillImage" />
        <dc:title />
      </cc:Work>
    </rdf:RDF>
  </metadata>
  <g
     inkscape:label="Capa 1"
     inkscape:groupmode="layer"
     id="layer1"
     transform="translate(0,-1058.5196)">
    <circle
       r="26"
       cy="1093.5197"
       cx="32"
       id="circle4162"
       style="opacity:1;fill:url(#radialGradient4170);fill-opacity:1;stroke:none;stroke-opacity:1" />
    <path
       style="fill:#ffc107;fill-opacity:1;fill-rule:evenodd;stroke:none;stroke-width:1px;stroke-linecap:butt;stroke-linejoin:miter;stroke-opacity:1"
       d="m 32,1079.5196 0,1 -2,0 0,15 2,0 10.917969,0 -12.44336,21.9238 a 26,26 0 0 0 1.525391,0.076 26,26 0 0 0 26,-26 26,26 0 0 0 -2.980469,-12 l -3.019531,0 -20,0 z"
       id="path4217"
       inkscape:connector-curvature="0" />
    <path
       style="opacity:1;fill:#f44336;fill-opacity:1;stroke:none;stroke-opacity:1"
       d="m 32,1065.5196 c -8.604272,6e-4 -16.350806,4.258 -21.192,11.3711 l 12.543562,22.6289 8.648438,0 0,-20 23.02,0 c -4.473772,-8.599 -13.326826,-13.9954 -23.02,-14 z"
       id="circle4249"
       inkscape:connector-curvature="0"
       sodipodi:nodetypes="ccccccc" />
    <path
       style="fill:#ffca28;fill-opacity:1;fill-rule:evenodd;stroke:none;stroke-width:1px;stroke-linecap:butt;stroke-linejoin:miter;stroke-opacity:1"
       d="M 32 21 L 32 22 L 30 22 L 30 37 L 32 37 L 42.917969 37 L 31.027344 57.951172 A 25 25 0 0 0 32 58 A 25 25 0 0 0 57 33 A 25 25 0 0 0 53.900391 21 L 52 21 L 32 21 z "
       transform="translate(0,1058.5196)"
       id="path4273" />
    <path
       style="opacity:1;fill:#ef5350;fill-opacity:1;stroke:none;stroke-opacity:1"
       d="M 32 8 A 25 25 0 0 0 11.072266 19.365234 L 23.351562 41 L 32 41 L 32 21 L 53.900391 21 A 25 25 0 0 0 32 8 z "
       transform="translate(0,1058.5196)"
       id="path4275" />
    <path
       style="fill:#4caf50;fill-rule:evenodd;stroke:none;stroke-width:1px;stroke-linecap:butt;stroke-linejoin:miter;stroke-opacity:1;fill-opacity:1"
       d="M 10.507812 18.373047 A 26 26 0 0 0 6 33 A 26 26 0 0 0 30.476562 58.923828 L 40.082031 42 L 40.216797 33 L 32 33 L 32 42 L 23.917969 42 L 10.507812 18.373047 z "
       transform="translate(0,1058.5196)"
       id="path4288" />
    <path
       style="opacity:1;fill:#66bb6a;fill-opacity:1;stroke:none;stroke-opacity:1"
       d="M 11.070312 19.367188 A 25 25 0 0 0 7 33 A 25 25 0 0 0 31.027344 57.951172 L 40.082031 42 L 40.082031 33.001953 L 32 33.001953 L 32 42.001953 L 23.917969 42.001953 L 18.810547 33.001953 L 11.070312 19.367188 z "
       transform="translate(0,1058.5196)"
       id="path4277" />
    <path
       style="fill:#ffb300;fill-rule:evenodd;stroke:none;stroke-width:1px;stroke-linecap:butt;stroke-linejoin:miter;stroke-opacity:1;fill-opacity:1"
       d="m 32,1079.5196 0,7 23,-7 z"
       id="path4293"
       inkscape:connector-curvature="0" />
    <path
       id="path4302"
       d="m 10.601954,1076.8789 16.577734,15.8418 -0.03906,0.041 c -2.22065,0.7553 -4.533299,1.2067 -6.875,1.3418 z"
       style="fill:#e53935;fill-opacity:1;fill-rule:evenodd;stroke:none;stroke-width:1px;stroke-linecap:butt;stroke-linejoin:miter;stroke-opacity:1"
       inkscape:connector-curvature="0"
       sodipodi:nodetypes="ccccc" />
    <circle
       style="opacity:1;fill:#e0e0e0;fill-opacity:1;stroke:none;stroke-opacity:1"
       id="circle4353"
       cx="32"
       cy="1091.5194"
       r="12" />
    <circle
       r="11"
       cy="1091.5194"
       cx="32"
       id="circle4417"
       style="opacity:1;fill:#f0f0f0;fill-opacity:1;stroke:none;stroke-opacity:1" />
    <circle
       r="9"
       cy="1091.5194"
       cx="32"
       id="circle4185"
       style="opacity:1;fill:#03a9f4;fill-opacity:1;stroke:none;stroke-opacity:1" />
    <circle
       style="opacity:1;fill:#29b6f6;fill-opacity:1;stroke:none;stroke-opacity:1"
       id="circle4419"
       cx="32"
       cy="1091.5194"
       r="8" />
    <path
       style="fill:#4caf50;fill-opacity:1;fill-rule:evenodd;stroke:none;stroke-width:1px;stroke-linecap:butt;stroke-linejoin:miter;stroke-opacity:1"
       d="M 40.253906 41.699219 L 23.576172 57.541016 L 23.615234 57.582031 A 26 26 0 0 0 30.490234 58.923828 L 40.253906 41.699219 z "
       transform="translate(0,1058.5196)"
       id="path4295" />
  </g>
</svg>
