<?xml version="1.0" encoding="UTF-8" standalone="no"?>
<!-- Created with Inkscape (http://www.inkscape.org/) -->

<svg
   xmlns:dc="http://purl.org/dc/elements/1.1/"
   xmlns:cc="http://creativecommons.org/ns#"
   xmlns:rdf="http://www.w3.org/1999/02/22-rdf-syntax-ns#"
   xmlns:svg="http://www.w3.org/2000/svg"
   xmlns="http://www.w3.org/2000/svg"
   xmlns:xlink="http://www.w3.org/1999/xlink"
   xmlns:sodipodi="http://sodipodi.sourceforge.net/DTD/sodipodi-0.dtd"
   xmlns:inkscape="http://www.inkscape.org/namespaces/inkscape"
   width="64"
   height="64"
   viewBox="0 0 64 64.000003"
   id="svg2"
   version="1.1"
   inkscape:version="0.91 r13725"
   sodipodi:docname="gwenview.svg">
  <defs
     id="defs4">
    <linearGradient
       inkscape:collect="always"
       id="Shadow">
      <stop
         style="stop-color:#000000;stop-opacity:1;"
         offset="0"
         id="stop4186" />
      <stop
         style="stop-color:#000000;stop-opacity:0;"
         offset="1"
         id="stop4188" />
    </linearGradient>
    <radialGradient
       inkscape:collect="always"
       xlink:href="#Shadow"
       id="radialGradient4259-4"
       gradientUnits="userSpaceOnUse"
       gradientTransform="matrix(-2.0000003,-2.935184e-6,3.913579e-6,-2.6666677,14.99984,1228.853)"
       cx="4"
       cy="42.5"
       fx="4"
       fy="42.5"
       r="1.5" />
    <linearGradient
       inkscape:collect="always"
       xlink:href="#Shadow"
       id="linearGradient4257-1"
       gradientUnits="userSpaceOnUse"
       gradientTransform="translate(9.999999,1073.5196)"
       x1="24"
       y1="42"
       x2="24"
       y2="46" />
    <radialGradient
       inkscape:collect="always"
       xlink:href="#Shadow"
       id="radialGradient4255-6"
       gradientUnits="userSpaceOnUse"
       gradientTransform="matrix(-5.6193693e-6,2.666668,-2.0000002,-4.214526e-6,142.00027,998.1864)"
       cx="44"
       cy="42.500004"
       fx="44"
       fy="42.500004"
       r="1.5" />
    <linearGradient
       y2="46"
       x2="24"
       y1="42"
       x1="24"
       gradientTransform="translate(9.999995,1073.5196)"
       gradientUnits="userSpaceOnUse"
       id="linearGradient4228"
       xlink:href="#Shadow"
       inkscape:collect="always" />
    <linearGradient
       inkscape:collect="always"
       xlink:href="#Shadow"
       id="linearGradient4402"
       x1="14"
       y1="1086.5197"
       x2="22"
       y2="1091.5197"
       gradientUnits="userSpaceOnUse"
       gradientTransform="translate(5.74e-6,0)" />
    <linearGradient
       inkscape:collect="always"
       xlink:href="#Shadow"
       id="linearGradient4410"
       x1="37"
       y1="1101.5197"
       x2="32"
       y2="1092.5197"
       gradientUnits="userSpaceOnUse"
       gradientTransform="translate(5.74e-6,0)" />
    <linearGradient
       inkscape:collect="always"
       xlink:href="#Shadow"
       id="linearGradient4418"
       x1="41"
       y1="1111.5197"
       x2="40"
       y2="1104.5197"
       gradientUnits="userSpaceOnUse"
       gradientTransform="translate(5.74e-6,0)" />
    <radialGradient
       inkscape:collect="always"
       xlink:href="#Shadow"
       id="radialGradient4314"
       cx="32"
       cy="1096.5197"
       fx="32"
       fy="1096.5197"
       r="11"
       gradientUnits="userSpaceOnUse"
       gradientTransform="matrix(0.90909091,0,0,0.90909091,48.909088,83.683246)" />
    <radialGradient
       inkscape:collect="always"
       xlink:href="#Shadow"
       id="radialGradient4184"
       cx="30"
       cy="1069.5194"
       fx="30"
       fy="1069.5194"
       r="2"
       gradientUnits="userSpaceOnUse"
       gradientTransform="translate(-38,0)" />
    <linearGradient
       inkscape:collect="always"
       xlink:href="#Shadow"
       id="linearGradient4250"
       x1="19"
       y1="1107.0197"
       x2="22"
       y2="1107.0197"
       gradientUnits="userSpaceOnUse"
       gradientTransform="translate(1064.5198,-1067.5197)" />
    <linearGradient
       inkscape:collect="always"
       xlink:href="#Shadow"
       id="linearGradient4252"
       x1="42"
       y1="1107.0197"
       x2="45"
       y2="1107.0197"
       gradientUnits="userSpaceOnUse"
       gradientTransform="translate(1064.5198,-1067.5197)" />
    <linearGradient
       inkscape:collect="always"
       xlink:href="#Shadow"
       id="linearGradient4254"
       x1="42"
       y1="1084.0197"
       x2="45"
       y2="1084.0197"
       gradientUnits="userSpaceOnUse"
       gradientTransform="translate(1064.5198,-1067.5197)" />
    <linearGradient
       inkscape:collect="always"
       xlink:href="#Shadow"
       id="linearGradient4256"
       x1="19"
       y1="1084.0197"
       x2="22"
       y2="1084.0197"
       gradientUnits="userSpaceOnUse"
       gradientTransform="translate(1064.5198,-1067.5197)" />
  </defs>
  <sodipodi:namedview
     id="base"
     pagecolor="#ffffff"
     bordercolor="#666666"
     borderopacity="1.0"
     inkscape:pageopacity="0.0"
     inkscape:pageshadow="2"
     inkscape:zoom="11.313708"
     inkscape:cx="52.051583"
     inkscape:cy="39.081434"
     inkscape:document-units="px"
     inkscape:current-layer="layer1"
     showgrid="true"
     units="px"
     inkscape:showpageshadow="false"
     borderlayer="true"
     inkscape:window-width="2560"
     inkscape:window-height="1017"
     inkscape:window-x="0"
     inkscape:window-y="0"
     inkscape:window-maximized="1"
     showguides="true">
    <inkscape:grid
       type="xygrid"
       id="grid4136" />
    <sodipodi:guide
       position="5,59.000069"
       orientation="54,0"
       id="guide4142" />
    <sodipodi:guide
       position="5,5.0000688"
       orientation="0,54"
       id="guide4144" />
    <sodipodi:guide
       position="59,5.0000688"
       orientation="-54,0"
       id="guide4146" />
    <sodipodi:guide
       position="59,59.000069"
       orientation="0,-54"
       id="guide4148" />
    <sodipodi:guide
       position="0,64.000069"
       orientation="64,0"
       id="guide4150" />
    <sodipodi:guide
       position="0,6.875e-05"
       orientation="0,64"
       id="guide4152" />
    <sodipodi:guide
       position="64,4.0000002"
       orientation="-64,0"
       id="guide4154" />
    <sodipodi:guide
       position="64,64.000069"
       orientation="0,-64"
       id="guide4156" />
  </sodipodi:namedview>
  <metadata
     id="metadata7">
    <rdf:RDF>
      <cc:Work
         rdf:about="">
        <dc:format>image/svg+xml</dc:format>
        <dc:type
           rdf:resource="http://purl.org/dc/dcmitype/StillImage" />
        <dc:title></dc:title>
      </cc:Work>
    </rdf:RDF>
  </metadata>
  <g
     inkscape:label="Capa 1"
     inkscape:groupmode="layer"
     id="layer1"
     transform="translate(0,-1058.5196)">
    <path
       style="color:#000000;font-style:normal;font-variant:normal;font-weight:normal;font-stretch:normal;font-size:medium;line-height:normal;font-family:sans-serif;text-indent:0;text-align:start;text-decoration:none;text-decoration-line:none;text-decoration-style:solid;text-decoration-color:#000000;letter-spacing:normal;word-spacing:normal;text-transform:none;direction:ltr;block-progression:tb;writing-mode:lr-tb;baseline-shift:baseline;text-anchor:start;white-space:normal;clip-rule:nonzero;display:inline;overflow:visible;visibility:visible;opacity:1;isolation:auto;mix-blend-mode:normal;color-interpolation:sRGB;color-interpolation-filters:linearRGB;solid-color:#000000;solid-opacity:1;fill:#607d8b;fill-opacity:1;fill-rule:evenodd;stroke:none;stroke-width:1px;stroke-linecap:round;stroke-linejoin:round;stroke-miterlimit:4;stroke-dasharray:none;stroke-dashoffset:0;stroke-opacity:1;color-rendering:auto;image-rendering:auto;shape-rendering:auto;text-rendering:auto;enable-background:accumulate"
       d="m -8.001953,1068.0195 a 0.50005,0.50005 0 0 0 -0.388672,0.1875 l -4,5 A 0.50005,0.50005 0 0 0 -12,1074.0195 l 7,0 1,0 a 0.50005,0.50005 0 0 0 0.390625,-0.8125 l -4,-5 a 0.50005,0.50005 0 0 0 -0.392578,-0.1875 z m 0.002,1.3008 2.958984,3.6992 -5.917968,0 L -8,1069.3203 Z"
       id="path4178"
       inkscape:connector-curvature="0" />
    <path
       id="path4249-5"
       d="m 56.999991,1115.5196 0,4 1,0 c 1.108,0 2,-0.892 2,-2 l 0,-2 -3,0 z"
       style="opacity:0.7;fill:url(#radialGradient4255-6);fill-opacity:1;stroke:none;stroke-width:2;stroke-linecap:butt;stroke-linejoin:round;stroke-miterlimit:4;stroke-dasharray:none;stroke-opacity:1"
       inkscape:connector-curvature="0" />
    <path
       style="opacity:1;fill:#eceff1;fill-opacity:1;stroke:none;stroke-width:2.00000024;stroke-linecap:butt;stroke-linejoin:round;stroke-miterlimit:4;stroke-dasharray:none;stroke-opacity:1"
       d="m 8.0000045,1075.5196 c -0.5539702,0 -0.9999997,0.446 -0.9999997,1 l 0,37 c 0,0.554 0.4460295,1 0.9999997,1 l 47.9999915,0 c 0.55397,0 1,-0.446 1,-1 l 0,-37 c 0,-0.554 -0.44603,-1 -1,-1 z"
       id="rect4649"
       inkscape:connector-curvature="0"
       sodipodi:nodetypes="sssssssss" />
    <path
       id="path4251-7"
       d="m 6.9999998,1115.5196 0,4 49.9999912,0 0,-4 z"
       style="opacity:0.7;fill:url(#linearGradient4257-1);fill-opacity:1;stroke:none;stroke-width:2;stroke-linecap:butt;stroke-linejoin:round;stroke-miterlimit:4;stroke-dasharray:none;stroke-opacity:1"
       inkscape:connector-curvature="0"
       sodipodi:nodetypes="ccccc" />
    <path
       id="path4253-6"
       d="m 4,1115.5196 0,2 c 0,1.108 0.892,2 2,2 l 0.9999998,0 0,-4 -2.9999998,0 z"
       style="opacity:0.7;fill:url(#radialGradient4259-4);fill-opacity:1;stroke:none;stroke-width:2;stroke-linecap:butt;stroke-linejoin:round;stroke-miterlimit:4;stroke-dasharray:none;stroke-opacity:1"
       inkscape:connector-curvature="0" />
    <rect
       style="opacity:1;fill:#37474f;fill-opacity:1;stroke:none;stroke-width:2.00000024;stroke-linecap:butt;stroke-linejoin:round;stroke-miterlimit:4;stroke-dasharray:none;stroke-opacity:1"
       id="rect4160"
       width="56"
       height="44.999947"
       x="4.0000067"
       y="1072.5197"
       ry="2.9999466" />
    <rect
       style="opacity:1;fill:#455a64;fill-opacity:1;stroke:none;stroke-width:2.00000024;stroke-linecap:butt;stroke-linejoin:round;stroke-miterlimit:4;stroke-dasharray:none;stroke-opacity:1"
       id="rect4162"
       width="54"
       height="42.999947"
       x="5.0000067"
       y="1073.5197"
       ry="1.9999467" />
    <rect
       style="opacity:1;fill:#eceff1;fill-opacity:1;stroke:none;stroke-width:2.00000024;stroke-linecap:butt;stroke-linejoin:round;stroke-miterlimit:4;stroke-dasharray:none;stroke-opacity:1"
       id="rect4164"
       width="50"
       height="38.999947"
       x="7.0000067"
       y="1075.5197"
       ry="0.99994665" />
    <path
       style="opacity:1;fill:#ab47bc;fill-opacity:1;stroke:none;stroke-width:2.00000024;stroke-linecap:butt;stroke-linejoin:round;stroke-miterlimit:4;stroke-dasharray:none;stroke-opacity:1"
       d="m 8.0000045,1076.5196 0,37 47.9999915,0 0,-37 -47.9999915,0 z"
       id="rect4273"
       inkscape:connector-curvature="0" />
    <path
       style="fill:#ec407a;fill-opacity:1;fill-rule:evenodd;stroke:none;stroke-width:1px;stroke-linecap:butt;stroke-linejoin:miter;stroke-opacity:1"
       d="m 8.0000045,1076.5196 0,33.918 22.0000005,-33.918 -22.0000005,0 z"
       id="path4396"
       inkscape:connector-curvature="0" />
    <path
       style="fill:url(#linearGradient4402);fill-rule:evenodd;stroke:none;stroke-width:1px;stroke-linecap:butt;stroke-linejoin:miter;stroke-opacity:1"
       d="m 30.000005,1076.5196 -22.0000005,33.918 0,3.082 23.9999995,-37 -1.999999,0 z"
       id="path4400"
       inkscape:connector-curvature="0" />
    <path
       style="fill:#7e57c2;fill-opacity:1;fill-rule:evenodd;stroke:none;stroke-width:1px;stroke-linecap:butt;stroke-linejoin:miter;stroke-opacity:1"
       d="m 55.999996,1081.5958 -47.9999915,25.8457 0,6.0781 47.9999915,0 0,-31.9238 z"
       id="path4406"
       inkscape:connector-curvature="0" />
    <path
       style="fill:url(#linearGradient4410);fill-rule:evenodd;stroke:none;stroke-width:1px;stroke-linecap:butt;stroke-linejoin:miter;stroke-opacity:1"
       d="m 55.999996,1079.5958 -47.9999915,25.8457 0,2 47.9999915,-25.8457 0,-2 z"
       id="path4408"
       inkscape:connector-curvature="0" />
    <path
       style="fill:#5c6bc0;fill-opacity:1;fill-rule:evenodd;stroke:none;stroke-width:1px;stroke-linecap:butt;stroke-linejoin:miter;stroke-opacity:1"
       d="m 55.999996,1103.7891 -47.9999915,6.461 0,3.2695 47.9999915,0 0,-9.7305 z"
       id="path4414"
       inkscape:connector-curvature="0" />
    <path
       style="fill:url(#linearGradient4418);fill-rule:evenodd;stroke:none;stroke-width:1px;stroke-linecap:butt;stroke-linejoin:miter;stroke-opacity:1"
       d="m 55.999996,1101.7891 -47.9999915,6.461 0,2 47.9999915,-6.461 0,-2 z"
       id="path4416"
       inkscape:connector-curvature="0" />
    <path
       style="opacity:1;fill:#00ffff;fill-opacity:1;stroke:none;stroke-width:0;stroke-linecap:round;stroke-linejoin:round;stroke-miterlimit:4;stroke-dasharray:none;stroke-opacity:1"
       d="m 93.999996,1103.5196 c -0.55397,0 -1,0.446 -1,1 l 0,1 -1,0 0,-1 -1,0 -1,0 0,1 -1,0 c -0.55397,0 -1,0.446 -1,1 l 0,6 c 0,0.554 0.44603,1 1,1 l 10,0 c 0.55397,0 1,-0.446 1,-1 l 0,-7 c 0,-0.554 -0.44603,-1 -1,-1 0,-0.554 -0.44603,-1 -1,-1 l -3,0 -1,0 z m 0,1 1,0 3,0 0,1 -4,0 0,-1 z m -4,2 1,0 2,0 6,0 0,5 0,1 -1,0 -8,0 0,-6 z m 4,1 a 2,2 0 0 0 -2,2 2,2 0 0 0 2,2 2,2 0 0 0 2,-2 2,2 0 0 0 -2,-2 z m 3.5,0 a 0.5,0.5 0 0 0 -0.5,0.5 0.5,0.5 0 0 0 0.5,0.5 0.5,0.5 0 0 0 0.5,-0.5 0.5,0.5 0 0 0 -0.5,-0.5 z m -3.5,1 a 1,1 0 0 1 1,1 1,1 0 0 1 -1,1 1,1 0 0 1 -1,-1 1,1 0 0 1 1,-1 z"
       id="rect4456"
       inkscape:connector-curvature="0" />
    <path
       style="fill:#000080;fill-opacity:1"
       d="m 93.9707,1073.5196 0.97071,2 -2.94141,0 -1.99219,0 a 5,5 0 0 1 3.96289,-2 z m 1.08789,0.1152 a 5,5 0 0 1 2.85352,1.7735 l -0.9707,1.9961 -0.44141,-0.8848 -0.5,-1 -0.94141,-1.8848 z m 3.48047,2.8047 a 5,5 0 0 1 0.46094,2.0801 5,5 0 0 1 -0.41992,2 l -2.08008,0 1,-2 1.03906,-2.0801 z m -7.03906,0.08 -1,2 -1.03906,2.0801 a 5,5 0 0 1 -0.46094,-2.08 5,5 0 0 1 0.41992,-2 l 2.08008,0 z m -0.44141,3.1152 0.94141,1.8848 0.94336,1.8848 a 5,5 0 0 1 -2.85352,-1.7754 l 0.96875,-1.9942 z m 6.9336,1.8848 a 5,5 0 0 1 -3.96485,2 l -0.9707,-2 2.94336,0 1.99219,0 z"
       id="circle4518"
       inkscape:connector-curvature="0" />
    <circle
       style="fill:url(#radialGradient4314);fill-opacity:1"
       id="path4306"
       cx="78.000015"
       cy="1080.5195"
       r="10" />
    <circle
       cy="1079.5194"
       cx="78.000015"
       id="circle4316"
       style="fill:#4db6ac;fill-opacity:1"
       r="9" />
    <path
       style="fill:#ffffff;fill-opacity:1;fill-rule:evenodd;stroke:none;stroke-width:1px;stroke-linecap:butt;stroke-linejoin:miter;stroke-opacity:1"
       d="m 74.000012,1074.5189 c -0.55397,0 -1,0.446 -1,1 l 0,8 c 0,0.554 0.44603,1 1,1 l 8,0 c 0.55397,0 1,-0.446 1,-1 l 0,-3 0,-5 c 0,-0.554 -0.44603,-1 -1,-1 l -8,0 z m 0,1 8,0 0,4 -1,-1 -3,3 -1,-1 -3,3 0,-8 z m 2.5,1 a 1.5,1.5 0 0 0 -1.5,1.5 1.5,1.5 0 0 0 1.5,1.5 1.5,1.5 0 0 0 1.5,-1.5 1.5,1.5 0 0 0 -1.5,-1.5 z"
       id="path4618"
       inkscape:connector-curvature="0" />
    <circle
       r="2"
       cy="1069.5194"
       cx="-8"
       id="circle4180"
       style="opacity:1;fill:url(#radialGradient4184);fill-opacity:1;stroke:none;stroke-width:2.00000024;stroke-linecap:round;stroke-linejoin:round;stroke-miterlimit:4;stroke-dasharray:none;stroke-opacity:1" />
    <circle
       style="opacity:1;fill:#78909c;fill-opacity:1;stroke:none;stroke-width:2.00000024;stroke-linecap:round;stroke-linejoin:round;stroke-miterlimit:4;stroke-dasharray:none;stroke-opacity:1"
       id="path4174"
       cx="-8"
       cy="1068.5197"
       r="2" />
    <circle
       r="1"
       cy="1068.5197"
       cx="-8"
       id="circle4176"
       style="opacity:1;fill:#eceff1;fill-opacity:1;stroke:none;stroke-width:2.00000024;stroke-linecap:round;stroke-linejoin:round;stroke-miterlimit:4;stroke-dasharray:none;stroke-opacity:1" />
    <path
       style="opacity:1;fill:#000000;fill-opacity:0.46067421;stroke:none;stroke-width:2;stroke-linecap:round;stroke-linejoin:round;stroke-miterlimit:4;stroke-dasharray:none;stroke-opacity:1"
       d="m -52,1076.5196 0,37 48,0 0,-37 -48,0 z m 13,8 22,0 0,22 -22,0 0,-22 z"
       id="rect4188"
       inkscape:connector-curvature="0" />
    <path
       style="opacity:1;fill:#eceff1;fill-opacity:1;stroke:none;stroke-width:2;stroke-linecap:round;stroke-linejoin:round;stroke-miterlimit:4;stroke-dasharray:none;stroke-opacity:1"
       d="m -40,1083.5196 0,24 24,0 0,-24 -24,0 z m 1,1 22,0 0,22 -22,0 0,-22 z"
       id="rect4190"
       inkscape:connector-curvature="0" />
    <rect
       y="38"
       x="1083.5195"
       height="3"
       width="3"
       id="rect4230"
       style="opacity:1;fill:url(#linearGradient4250);fill-opacity:1;stroke:none;stroke-width:2;stroke-linecap:round;stroke-linejoin:round;stroke-miterlimit:4;stroke-dasharray:none;stroke-opacity:1"
       transform="matrix(0,1,-1,0,0,0)" />
    <rect
       style="opacity:1;fill:#4db6ac;fill-opacity:1;stroke:none;stroke-width:2;stroke-linecap:round;stroke-linejoin:round;stroke-miterlimit:4;stroke-dasharray:none;stroke-opacity:1"
       id="rect4199"
       width="3"
       height="3"
       x="-41"
       y="1082.5197" />
    <rect
       y="38"
       x="1106.5195"
       height="3"
       width="3"
       id="rect4234"
       style="opacity:1;fill:url(#linearGradient4252);fill-opacity:1;stroke:none;stroke-width:2;stroke-linecap:round;stroke-linejoin:round;stroke-miterlimit:4;stroke-dasharray:none;stroke-opacity:1"
       transform="matrix(0,1,-1,0,0,0)" />
    <rect
       style="opacity:1;fill:#4db6ac;fill-opacity:1;stroke:none;stroke-width:2;stroke-linecap:round;stroke-linejoin:round;stroke-miterlimit:4;stroke-dasharray:none;stroke-opacity:1"
       id="rect4199-0"
       width="3"
       height="3"
       x="-41"
       y="1105.5197" />
    <rect
       y="15"
       x="1083.5195"
       height="3"
       width="3"
       id="rect4228"
       style="opacity:1;fill:url(#linearGradient4256);fill-opacity:1;stroke:none;stroke-width:2;stroke-linecap:round;stroke-linejoin:round;stroke-miterlimit:4;stroke-dasharray:none;stroke-opacity:1"
       transform="matrix(0,1,-1,0,0,0)" />
    <rect
       style="opacity:1;fill:#4db6ac;fill-opacity:1;stroke:none;stroke-width:2;stroke-linecap:round;stroke-linejoin:round;stroke-miterlimit:4;stroke-dasharray:none;stroke-opacity:1"
       id="rect4199-9"
       width="3"
       height="3"
       x="-18"
       y="1082.5197" />
    <rect
       y="15"
       x="1106.5195"
       height="3"
       width="3"
       id="rect4232"
       style="opacity:1;fill:url(#linearGradient4254);fill-opacity:1;stroke:none;stroke-width:2;stroke-linecap:round;stroke-linejoin:round;stroke-miterlimit:4;stroke-dasharray:none;stroke-opacity:1"
       transform="matrix(0,1,-1,0,0,0)" />
    <rect
       style="opacity:1;fill:#4db6ac;fill-opacity:1;stroke:none;stroke-width:2;stroke-linecap:round;stroke-linejoin:round;stroke-miterlimit:4;stroke-dasharray:none;stroke-opacity:1"
       id="rect4199-2"
       width="3"
       height="3"
       x="-18"
       y="1105.5197" />
    <rect
       style="opacity:1;fill:#eceff1;fill-opacity:1;stroke:none;stroke-width:2;stroke-linecap:round;stroke-linejoin:round;stroke-miterlimit:4;stroke-dasharray:none;stroke-opacity:1"
       id="rect4258"
       width="1"
       height="1"
       x="-40"
       y="1083.5197" />
    <rect
       style="opacity:1;fill:#eceff1;fill-opacity:1;stroke:none;stroke-width:2;stroke-linecap:round;stroke-linejoin:round;stroke-miterlimit:4;stroke-dasharray:none;stroke-opacity:1"
       id="rect4258-5"
       width="1"
       height="1"
       x="-40"
       y="1106.5197" />
    <rect
       style="opacity:1;fill:#eceff1;fill-opacity:1;stroke:none;stroke-width:2;stroke-linecap:round;stroke-linejoin:round;stroke-miterlimit:4;stroke-dasharray:none;stroke-opacity:1"
       id="rect4258-0"
       width="1"
       height="1"
       x="-17"
       y="1106.5197" />
    <rect
       style="opacity:1;fill:#eceff1;fill-opacity:1;stroke:none;stroke-width:2;stroke-linecap:round;stroke-linejoin:round;stroke-miterlimit:4;stroke-dasharray:none;stroke-opacity:1"
       id="rect4258-8"
       width="1"
       height="1"
       x="-17"
       y="1083.5197" />
  </g>
</svg>
