<?xml version="1.0" encoding="UTF-8" standalone="no"?>
<!-- Created with Inkscape (http://www.inkscape.org/) -->

<svg
   xmlns:dc="http://purl.org/dc/elements/1.1/"
   xmlns:cc="http://creativecommons.org/ns#"
   xmlns:rdf="http://www.w3.org/1999/02/22-rdf-syntax-ns#"
   xmlns:svg="http://www.w3.org/2000/svg"
   xmlns="http://www.w3.org/2000/svg"
   xmlns:xlink="http://www.w3.org/1999/xlink"
   xmlns:sodipodi="http://sodipodi.sourceforge.net/DTD/sodipodi-0.dtd"
   xmlns:inkscape="http://www.inkscape.org/namespaces/inkscape"
   width="64"
   height="64"
   viewBox="0 0 64 64.000003"
   id="svg2"
   version="1.1"
   inkscape:version="0.91 r13725"
   sodipodi:docname="htop.svg">
  <defs
     id="defs4">
    <linearGradient
       inkscape:collect="always"
       id="Shadow">
      <stop
         style="stop-color:#000000;stop-opacity:1;"
         offset="0"
         id="stop4186" />
      <stop
         style="stop-color:#000000;stop-opacity:0;"
         offset="1"
         id="stop4188" />
    </linearGradient>
    <radialGradient
       inkscape:collect="always"
       xlink:href="#Shadow"
       id="radialGradient4259-4"
       gradientUnits="userSpaceOnUse"
       gradientTransform="matrix(-2.0000003,-2.935184e-6,3.9135795e-6,-2.6666677,14.999835,1228.853)"
       cx="4"
       cy="42.5"
       fx="4"
       fy="42.5"
       r="1.5" />
    <linearGradient
       inkscape:collect="always"
       xlink:href="#Shadow"
       id="linearGradient4257-1"
       gradientUnits="userSpaceOnUse"
       gradientTransform="translate(9.999995,1073.5196)"
       x1="24"
       y1="42"
       x2="24"
       y2="46" />
    <radialGradient
       inkscape:collect="always"
       xlink:href="#Shadow"
       id="radialGradient4166"
       gradientUnits="userSpaceOnUse"
       gradientTransform="matrix(2.0000003,-2.935184e-6,-3.9135795e-6,-2.6666677,49.00016,1228.853)"
       cx="4"
       cy="42.5"
       fx="4"
       fy="42.5"
       r="1.5" />
    <linearGradient
       inkscape:collect="always"
       xlink:href="#Shadow"
       id="linearGradient4419"
       x1="18"
       y1="1086.5197"
       x2="18"
       y2="1089.5197"
       gradientUnits="userSpaceOnUse" />
    <linearGradient
       inkscape:collect="always"
       xlink:href="#Shadow"
       id="linearGradient4423"
       gradientUnits="userSpaceOnUse"
       x1="18"
       y1="1086.5197"
       x2="18"
       y2="1089.5197"
       gradientTransform="translate(4,0)" />
    <linearGradient
       inkscape:collect="always"
       xlink:href="#Shadow"
       id="linearGradient4427"
       gradientUnits="userSpaceOnUse"
       gradientTransform="translate(8,0)"
       x1="18"
       y1="1086.5197"
       x2="18"
       y2="1089.5197" />
    <linearGradient
       inkscape:collect="always"
       xlink:href="#Shadow"
       id="linearGradient4431"
       gradientUnits="userSpaceOnUse"
       gradientTransform="translate(20,0)"
       x1="18"
       y1="1086.5197"
       x2="18"
       y2="1089.5197" />
    <linearGradient
       inkscape:collect="always"
       xlink:href="#Shadow"
       id="linearGradient4435"
       gradientUnits="userSpaceOnUse"
       gradientTransform="translate(24,0)"
       x1="18"
       y1="1086.5197"
       x2="18"
       y2="1089.5197" />
    <linearGradient
       inkscape:collect="always"
       xlink:href="#Shadow"
       id="linearGradient4439"
       gradientUnits="userSpaceOnUse"
       x1="18"
       y1="1086.5197"
       x2="18"
       y2="1089.5197"
       gradientTransform="translate(27,0)" />
    <linearGradient
       inkscape:collect="always"
       xlink:href="#Shadow"
       id="linearGradient4453"
       gradientUnits="userSpaceOnUse"
       x1="18"
       y1="1086.5197"
       x2="18"
       y2="1089.5197"
       gradientTransform="translate(0,10)" />
    <linearGradient
       inkscape:collect="always"
       xlink:href="#Shadow"
       id="linearGradient4455"
       gradientUnits="userSpaceOnUse"
       gradientTransform="translate(4,10)"
       x1="18"
       y1="1086.5197"
       x2="18"
       y2="1089.5197" />
    <linearGradient
       inkscape:collect="always"
       xlink:href="#Shadow"
       id="linearGradient4457"
       gradientUnits="userSpaceOnUse"
       gradientTransform="translate(8,10)"
       x1="18"
       y1="1086.5197"
       x2="18"
       y2="1089.5197" />
    <linearGradient
       inkscape:collect="always"
       xlink:href="#Shadow"
       id="linearGradient4459"
       gradientUnits="userSpaceOnUse"
       gradientTransform="translate(20,10)"
       x1="18"
       y1="1086.5197"
       x2="18"
       y2="1089.5197" />
    <linearGradient
       inkscape:collect="always"
       xlink:href="#Shadow"
       id="linearGradient4461"
       gradientUnits="userSpaceOnUse"
       gradientTransform="translate(24,10)"
       x1="18"
       y1="1086.5197"
       x2="18"
       y2="1089.5197" />
    <linearGradient
       inkscape:collect="always"
       xlink:href="#Shadow"
       id="linearGradient4463"
       gradientUnits="userSpaceOnUse"
       gradientTransform="translate(27,10)"
       x1="18"
       y1="1086.5197"
       x2="18"
       y2="1089.5197" />
    <linearGradient
       inkscape:collect="always"
       xlink:href="#Shadow"
       id="linearGradient4477"
       gradientUnits="userSpaceOnUse"
       gradientTransform="translate(0,20)"
       x1="18"
       y1="1086.5197"
       x2="18"
       y2="1089.5197" />
    <linearGradient
       inkscape:collect="always"
       xlink:href="#Shadow"
       id="linearGradient4479"
       gradientUnits="userSpaceOnUse"
       gradientTransform="translate(4,20)"
       x1="18"
       y1="1086.5197"
       x2="18"
       y2="1089.5197" />
    <linearGradient
       inkscape:collect="always"
       xlink:href="#Shadow"
       id="linearGradient4481"
       gradientUnits="userSpaceOnUse"
       gradientTransform="translate(8,20)"
       x1="18"
       y1="1086.5197"
       x2="18"
       y2="1089.5197" />
    <linearGradient
       inkscape:collect="always"
       xlink:href="#Shadow"
       id="linearGradient4483"
       gradientUnits="userSpaceOnUse"
       gradientTransform="translate(20,20)"
       x1="18"
       y1="1086.5197"
       x2="18"
       y2="1089.5197" />
    <linearGradient
       inkscape:collect="always"
       xlink:href="#Shadow"
       id="linearGradient4485"
       gradientUnits="userSpaceOnUse"
       gradientTransform="translate(24,20)"
       x1="18"
       y1="1086.5197"
       x2="18"
       y2="1089.5197" />
    <linearGradient
       inkscape:collect="always"
       xlink:href="#Shadow"
       id="linearGradient4487"
       gradientUnits="userSpaceOnUse"
       gradientTransform="translate(27,20)"
       x1="18"
       y1="1086.5197"
       x2="18"
       y2="1089.5197" />
    <linearGradient
       inkscape:collect="always"
       xlink:href="#Shadow"
       id="linearGradient4493"
       gradientUnits="userSpaceOnUse"
       gradientTransform="translate(12,10)"
       x1="18"
       y1="1086.5197"
       x2="18"
       y2="1089.5197" />
    <linearGradient
       inkscape:collect="always"
       xlink:href="#Shadow"
       id="linearGradient4495"
       gradientUnits="userSpaceOnUse"
       gradientTransform="translate(16,10)"
       x1="18"
       y1="1086.5197"
       x2="18"
       y2="1089.5197" />
  </defs>
  <sodipodi:namedview
     id="base"
     pagecolor="#ffffff"
     bordercolor="#666666"
     borderopacity="1.0"
     inkscape:pageopacity="0.0"
     inkscape:pageshadow="2"
     inkscape:zoom="13"
     inkscape:cx="32"
     inkscape:cy="32"
     inkscape:document-units="px"
     inkscape:current-layer="layer1"
     showgrid="true"
     units="px"
     inkscape:showpageshadow="false"
     borderlayer="true"
     inkscape:window-width="2560"
     inkscape:window-height="1017"
     inkscape:window-x="0"
     inkscape:window-y="0"
     inkscape:window-maximized="1"
     showguides="true">
    <inkscape:grid
       type="xygrid"
       id="grid4136" />
    <sodipodi:guide
       position="5,59.000069"
       orientation="54,0"
       id="guide4142" />
    <sodipodi:guide
       position="5,5.0000688"
       orientation="0,54"
       id="guide4144" />
    <sodipodi:guide
       position="59,5.0000688"
       orientation="-54,0"
       id="guide4146" />
    <sodipodi:guide
       position="59,59.000069"
       orientation="0,-54"
       id="guide4148" />
    <sodipodi:guide
       position="0,64.000069"
       orientation="64,0"
       id="guide4150" />
    <sodipodi:guide
       position="0,6.875e-05"
       orientation="0,64"
       id="guide4152" />
    <sodipodi:guide
       position="64,4.0000002"
       orientation="-64,0"
       id="guide4154" />
    <sodipodi:guide
       position="64,64.000069"
       orientation="0,-64"
       id="guide4156" />
  </sodipodi:namedview>
  <metadata
     id="metadata7">
    <rdf:RDF>
      <cc:Work
         rdf:about="">
        <dc:format>image/svg+xml</dc:format>
        <dc:type
           rdf:resource="http://purl.org/dc/dcmitype/StillImage" />
        <dc:title />
      </cc:Work>
    </rdf:RDF>
  </metadata>
  <g
     inkscape:label="Capa 1"
     inkscape:groupmode="layer"
     id="layer1"
     transform="translate(0,-1058.5196)">
    <path
       inkscape:connector-curvature="0"
       style="opacity:0.7;fill:url(#radialGradient4166);fill-opacity:1;stroke:none;stroke-width:2;stroke-linecap:butt;stroke-linejoin:round;stroke-miterlimit:4;stroke-dasharray:none;stroke-opacity:1"
       d="m 60,1115.5196 0,2 c 0,1.108 -0.892,2 -2,2 l -1,0 0,-4 3,0 z"
       id="path4164" />
    <path
       id="path4251-7"
       d="m 6.999995,1115.5196 0,4 50,0 0,-4 z"
       style="opacity:0.7;fill:url(#linearGradient4257-1);fill-opacity:1;stroke:none;stroke-width:2;stroke-linecap:butt;stroke-linejoin:round;stroke-miterlimit:4;stroke-dasharray:none;stroke-opacity:1"
       inkscape:connector-curvature="0"
       sodipodi:nodetypes="ccccc" />
    <path
       id="path4253-6"
       d="m 3.999995,1115.5196 0,2 c 0,1.108 0.892,2 2,2 l 1,0 0,-4 -3,0 z"
       style="opacity:0.7;fill:url(#radialGradient4259-4);fill-opacity:1;stroke:none;stroke-width:2;stroke-linecap:butt;stroke-linejoin:round;stroke-miterlimit:4;stroke-dasharray:none;stroke-opacity:1"
       inkscape:connector-curvature="0" />
    <rect
       style="fill:#37474f;fill-opacity:1"
       id="rect3362"
       width="56"
       height="47.999931"
       x="4"
       y="1069.5197"
       ry="2.9999466" />
    <path
       style="fill:#455a64;fill-opacity:1"
       d="M 5 17 L 5 56 C 5 57.10797 5.8920295 58 7 58 L 10 58 L 57 58 C 58.10797 58 59 57.10797 59 56 L 59 17 L 10 17 L 5 17 z "
       transform="translate(0,1058.5196)"
       id="path3376" />
    <path
       style="fill:#e0e0e0;fill-opacity:1"
       d="M 7 12 C 5.8920295 12 5 12.89203 5 14 L 5 17 L 59 17 L 59 14 C 59 12.89203 58.10797 12 57 12 L 7 12 z "
       id="rect3364"
       transform="translate(0,1058.5196)" />
    <circle
       style="fill:#ef5350;fill-opacity:1"
       id="path3371"
       cx="55.5"
       cy="1073.0197"
       r="1.5" />
    <circle
       r="0.5"
       cy="1073.0197"
       cx="55.5"
       id="circle3505"
       style="fill:#ef9a9a;fill-opacity:1" />
    <rect
       style="fill:#37474f;fill-opacity:1"
       id="rect3507"
       width="54"
       height="1"
       x="5"
       y="1075.5197"
       ry="0" />
    <path
       style="opacity:1;fill:#b0bec5;fill-opacity:1;stroke:none;stroke-width:1.99999988;stroke-linecap:round;stroke-linejoin:round;stroke-miterlimit:4;stroke-dasharray:none;stroke-opacity:1"
       d="M 17 22 L 17 30 L 18 30 L 19 30 L 20 30 L 20 29 L 20 28 L 19 28 L 19 24 L 20 24 L 20 23 L 20 22 L 19 22 L 18 22 L 17 22 z M 44 22 L 44 23 L 44 24 L 45 24 L 45 28 L 44 28 L 44 29 L 44 30 L 45 30 L 46 30 L 47 30 L 47 22 L 46 22 L 45 22 L 44 22 z M 17 32 L 17 40 L 18 40 L 19 40 L 20 40 L 20 39 L 20 38 L 19 38 L 19 34 L 20 34 L 20 33 L 20 32 L 19 32 L 18 32 L 17 32 z M 44 32 L 44 33 L 44 34 L 45 34 L 45 38 L 44 38 L 44 39 L 44 40 L 45 40 L 46 40 L 47 40 L 47 32 L 46 32 L 45 32 L 44 32 z M 17 42 L 17 50 L 18 50 L 19 50 L 20 50 L 20 49 L 20 48 L 19 48 L 19 44 L 20 44 L 20 43 L 20 42 L 19 42 L 18 42 L 17 42 z M 44 42 L 44 43 L 44 44 L 45 44 L 45 48 L 44 48 L 44 49 L 44 50 L 45 50 L 46 50 L 47 50 L 47 42 L 46 42 L 45 42 L 44 42 z "
       transform="translate(0,1058.5196)"
       id="rect4200" />
    <path
       style="opacity:1;fill:#81c784;fill-opacity:1;stroke:none;stroke-width:1.99999988;stroke-linecap:round;stroke-linejoin:round;stroke-miterlimit:4;stroke-dasharray:none;stroke-opacity:1"
       d="M 21 22 L 21 30 L 23 30 L 23 22 L 21 22 z M 25 22 L 25 30 L 27 30 L 27 22 L 25 22 z M 37 22 L 37 30 L 39 30 L 39 22 L 37 22 z M 41 22 L 41 30 L 43 30 L 43 22 L 41 22 z M 21 32 L 21 40 L 23 40 L 23 32 L 21 32 z M 25 32 L 25 40 L 27 40 L 27 32 L 25 32 z M 29 32 L 29 40 L 31 40 L 31 32 L 29 32 z M 33 32 L 33 40 L 35 40 L 35 32 L 33 32 z M 37 32 L 37 40 L 39 40 L 39 32 L 37 32 z M 41 32 L 41 40 L 43 40 L 43 32 L 41 32 z M 21 42 L 21 50 L 23 50 L 23 42 L 21 42 z M 25 42 L 25 50 L 27 50 L 27 42 L 25 42 z M 37 42 L 37 50 L 39 50 L 39 42 L 37 42 z M 41 42 L 41 50 L 43 50 L 43 42 L 41 42 z "
       transform="translate(0,1058.5196)"
       id="rect4212" />
    <path
       style="opacity:1;fill:#80deea;fill-opacity:1;stroke:none;stroke-width:1.99999988;stroke-linecap:round;stroke-linejoin:round;stroke-miterlimit:4;stroke-dasharray:none;stroke-opacity:1"
       d="M 6 55 L 6 56 C 6 56.55397 6.4460296 57 7 57 L 8 57 L 10 57 L 10 56 L 10 55 L 8 55 L 7 55 L 6 55 z M 12 55 L 12 57 L 16 57 L 16 55 L 12 55 z M 18 55 L 18 57 L 22 57 L 22 55 L 18 55 z M 24 55 L 24 57 L 28 57 L 28 55 L 24 55 z M 30 55 L 30 56 L 30 57 L 34 57 L 57 57 C 57.55397 57 58 56.554 58 56 L 58 55 L 57 55 L 34 55 L 30 55 z "
       transform="translate(0,1058.5196)"
       id="rect4396" />
    <rect
       style="opacity:1;fill:url(#linearGradient4419);fill-opacity:1;stroke:none;stroke-width:1.99999988;stroke-linecap:round;stroke-linejoin:round;stroke-miterlimit:4;stroke-dasharray:none;stroke-opacity:1"
       id="rect4417"
       width="3"
       height="1"
       x="17"
       y="1088.5197" />
    <rect
       y="1088.5197"
       x="21"
       height="0.99994665"
       width="2"
       id="rect4421"
       style="opacity:1;fill:url(#linearGradient4423);fill-opacity:1;stroke:none;stroke-width:1.99999988;stroke-linecap:round;stroke-linejoin:round;stroke-miterlimit:4;stroke-dasharray:none;stroke-opacity:1" />
    <rect
       style="opacity:1;fill:url(#linearGradient4427);fill-opacity:1;stroke:none;stroke-width:1.99999988;stroke-linecap:round;stroke-linejoin:round;stroke-miterlimit:4;stroke-dasharray:none;stroke-opacity:1"
       id="rect4425"
       width="2"
       height="0.99994665"
       x="25"
       y="1088.5197" />
    <rect
       y="1088.5197"
       x="37"
       height="0.99994665"
       width="2"
       id="rect4429"
       style="opacity:1;fill:url(#linearGradient4431);fill-opacity:1;stroke:none;stroke-width:1.99999988;stroke-linecap:round;stroke-linejoin:round;stroke-miterlimit:4;stroke-dasharray:none;stroke-opacity:1" />
    <rect
       style="opacity:1;fill:url(#linearGradient4435);fill-opacity:1;stroke:none;stroke-width:1.99999988;stroke-linecap:round;stroke-linejoin:round;stroke-miterlimit:4;stroke-dasharray:none;stroke-opacity:1"
       id="rect4433"
       width="2"
       height="0.99994665"
       x="41"
       y="1088.5197" />
    <rect
       y="1088.5197"
       x="43.999985"
       height="1"
       width="3"
       id="rect4437"
       style="opacity:1;fill:url(#linearGradient4439);fill-opacity:1;stroke:none;stroke-width:1.99999988;stroke-linecap:round;stroke-linejoin:round;stroke-miterlimit:4;stroke-dasharray:none;stroke-opacity:1" />
    <rect
       y="1098.5197"
       x="17"
       height="1"
       width="3"
       id="rect4441"
       style="opacity:1;fill:url(#linearGradient4453);fill-opacity:1;stroke:none;stroke-width:1.99999988;stroke-linecap:round;stroke-linejoin:round;stroke-miterlimit:4;stroke-dasharray:none;stroke-opacity:1" />
    <rect
       style="opacity:1;fill:url(#linearGradient4455);fill-opacity:1;stroke:none;stroke-width:1.99999988;stroke-linecap:round;stroke-linejoin:round;stroke-miterlimit:4;stroke-dasharray:none;stroke-opacity:1"
       id="rect4443"
       width="2"
       height="0.99994665"
       x="21"
       y="1098.5197" />
    <rect
       y="1098.5197"
       x="25"
       height="0.99994665"
       width="2"
       id="rect4445"
       style="opacity:1;fill:url(#linearGradient4457);fill-opacity:1;stroke:none;stroke-width:1.99999988;stroke-linecap:round;stroke-linejoin:round;stroke-miterlimit:4;stroke-dasharray:none;stroke-opacity:1" />
    <rect
       style="opacity:1;fill:url(#linearGradient4459);fill-opacity:1;stroke:none;stroke-width:1.99999988;stroke-linecap:round;stroke-linejoin:round;stroke-miterlimit:4;stroke-dasharray:none;stroke-opacity:1"
       id="rect4447"
       width="2"
       height="0.99994665"
       x="37"
       y="1098.5197" />
    <rect
       y="1098.5197"
       x="41"
       height="0.99994665"
       width="2"
       id="rect4449"
       style="opacity:1;fill:url(#linearGradient4461);fill-opacity:1;stroke:none;stroke-width:1.99999988;stroke-linecap:round;stroke-linejoin:round;stroke-miterlimit:4;stroke-dasharray:none;stroke-opacity:1" />
    <rect
       style="opacity:1;fill:url(#linearGradient4463);fill-opacity:1;stroke:none;stroke-width:1.99999988;stroke-linecap:round;stroke-linejoin:round;stroke-miterlimit:4;stroke-dasharray:none;stroke-opacity:1"
       id="rect4451"
       width="3"
       height="1"
       x="43.999985"
       y="1098.5197" />
    <rect
       style="opacity:1;fill:url(#linearGradient4477);fill-opacity:1;stroke:none;stroke-width:1.99999988;stroke-linecap:round;stroke-linejoin:round;stroke-miterlimit:4;stroke-dasharray:none;stroke-opacity:1"
       id="rect4465"
       width="3"
       height="1"
       x="17"
       y="1108.5197" />
    <rect
       y="1108.5197"
       x="21"
       height="0.99994665"
       width="2"
       id="rect4467"
       style="opacity:1;fill:url(#linearGradient4479);fill-opacity:1;stroke:none;stroke-width:1.99999988;stroke-linecap:round;stroke-linejoin:round;stroke-miterlimit:4;stroke-dasharray:none;stroke-opacity:1" />
    <rect
       style="opacity:1;fill:url(#linearGradient4481);fill-opacity:1;stroke:none;stroke-width:1.99999988;stroke-linecap:round;stroke-linejoin:round;stroke-miterlimit:4;stroke-dasharray:none;stroke-opacity:1"
       id="rect4469"
       width="2"
       height="0.99994665"
       x="25"
       y="1108.5197" />
    <rect
       y="1108.5197"
       x="37"
       height="0.99994665"
       width="2"
       id="rect4471"
       style="opacity:1;fill:url(#linearGradient4483);fill-opacity:1;stroke:none;stroke-width:1.99999988;stroke-linecap:round;stroke-linejoin:round;stroke-miterlimit:4;stroke-dasharray:none;stroke-opacity:1" />
    <rect
       style="opacity:1;fill:url(#linearGradient4485);fill-opacity:1;stroke:none;stroke-width:1.99999988;stroke-linecap:round;stroke-linejoin:round;stroke-miterlimit:4;stroke-dasharray:none;stroke-opacity:1"
       id="rect4473"
       width="2"
       height="0.99994665"
       x="41"
       y="1108.5197" />
    <rect
       y="1108.5197"
       x="43.999985"
       height="1"
       width="3"
       id="rect4475"
       style="opacity:1;fill:url(#linearGradient4487);fill-opacity:1;stroke:none;stroke-width:1.99999988;stroke-linecap:round;stroke-linejoin:round;stroke-miterlimit:4;stroke-dasharray:none;stroke-opacity:1" />
    <rect
       y="1098.5197"
       x="29"
       height="0.99994665"
       width="2"
       id="rect4489"
       style="opacity:1;fill:url(#linearGradient4493);fill-opacity:1;stroke:none;stroke-width:1.99999988;stroke-linecap:round;stroke-linejoin:round;stroke-miterlimit:4;stroke-dasharray:none;stroke-opacity:1" />
    <rect
       style="opacity:1;fill:url(#linearGradient4495);fill-opacity:1;stroke:none;stroke-width:1.99999988;stroke-linecap:round;stroke-linejoin:round;stroke-miterlimit:4;stroke-dasharray:none;stroke-opacity:1"
       id="rect4491"
       width="2"
       height="0.99994665"
       x="33"
       y="1098.5197" />
  </g>
</svg>
