<?xml version="1.0" encoding="UTF-8" standalone="no"?>
<!-- Created with Inkscape (http://www.inkscape.org/) -->

<svg
   xmlns:dc="http://purl.org/dc/elements/1.1/"
   xmlns:cc="http://creativecommons.org/ns#"
   xmlns:rdf="http://www.w3.org/1999/02/22-rdf-syntax-ns#"
   xmlns:svg="http://www.w3.org/2000/svg"
   xmlns="http://www.w3.org/2000/svg"
   xmlns:xlink="http://www.w3.org/1999/xlink"
   xmlns:sodipodi="http://sodipodi.sourceforge.net/DTD/sodipodi-0.dtd"
   xmlns:inkscape="http://www.inkscape.org/namespaces/inkscape"
   width="64"
   height="64"
   viewBox="0 0 64 64.000003"
   id="svg2"
   version="1.1"
   inkscape:version="0.91 r13725"
   sodipodi:docname="partitionmanager.svg">
  <defs
     id="defs4">
    <linearGradient
       inkscape:collect="always"
       id="Shadow">
      <stop
         style="stop-color:#000000;stop-opacity:1;"
         offset="0"
         id="stop4186" />
      <stop
         style="stop-color:#000000;stop-opacity:0;"
         offset="1"
         id="stop4188" />
    </linearGradient>
    <radialGradient
       inkscape:collect="always"
       xlink:href="#Shadow"
       id="radialGradient4259-4"
       gradientUnits="userSpaceOnUse"
       gradientTransform="matrix(-2.0000003,-2.935184e-6,3.9135795e-6,-2.6666677,22.99984,1228.853)"
       cx="4"
       cy="42.5"
       fx="4"
       fy="42.5"
       r="1.5" />
    <linearGradient
       inkscape:collect="always"
       xlink:href="#Shadow"
       id="linearGradient4257-1"
       gradientUnits="userSpaceOnUse"
       gradientTransform="translate(9.999995,1073.5196)"
       x1="24"
       y1="42"
       x2="24"
       y2="46" />
    <radialGradient
       inkscape:collect="always"
       xlink:href="#Shadow"
       id="radialGradient4255-6"
       gradientUnits="userSpaceOnUse"
       gradientTransform="matrix(-5.6193702e-6,2.666668,-2.0000002,-4.214526e-6,134.00027,998.1864)"
       cx="44"
       cy="42.500004"
       fx="44"
       fy="42.500004"
       r="1.5" />
  </defs>
  <sodipodi:namedview
     id="base"
     pagecolor="#ffffff"
     bordercolor="#666666"
     borderopacity="1.0"
     inkscape:pageopacity="0.0"
     inkscape:pageshadow="2"
     inkscape:zoom="1"
     inkscape:cx="32.454315"
     inkscape:cy="17.750048"
     inkscape:document-units="px"
     inkscape:current-layer="layer1"
     showgrid="true"
     units="px"
     inkscape:showpageshadow="false"
     borderlayer="true"
     inkscape:window-width="2560"
     inkscape:window-height="1017"
     inkscape:window-x="0"
     inkscape:window-y="0"
     inkscape:window-maximized="1"
     showguides="true">
    <inkscape:grid
       type="xygrid"
       id="grid4136" />
    <sodipodi:guide
       position="5,59.000069"
       orientation="54,0"
       id="guide4142" />
    <sodipodi:guide
       position="5,5.0000688"
       orientation="0,54"
       id="guide4144" />
    <sodipodi:guide
       position="59,5.0000688"
       orientation="-54,0"
       id="guide4146" />
    <sodipodi:guide
       position="59,59.000069"
       orientation="0,-54"
       id="guide4148" />
    <sodipodi:guide
       position="0,64.000069"
       orientation="64,0"
       id="guide4150" />
    <sodipodi:guide
       position="0,6.875e-05"
       orientation="0,64"
       id="guide4152" />
    <sodipodi:guide
       position="64,4.0000002"
       orientation="-64,0"
       id="guide4154" />
    <sodipodi:guide
       position="64,64.000069"
       orientation="0,-64"
       id="guide4156" />
  </sodipodi:namedview>
  <metadata
     id="metadata7">
    <rdf:RDF>
      <cc:Work
         rdf:about="">
        <dc:format>image/svg+xml</dc:format>
        <dc:type
           rdf:resource="http://purl.org/dc/dcmitype/StillImage" />
        <dc:title />
      </cc:Work>
    </rdf:RDF>
  </metadata>
  <g
     inkscape:label="Capa 1"
     inkscape:groupmode="layer"
     id="layer1"
     transform="translate(0,-1058.5196)">
    <rect
       style="opacity:1;fill:#9e9e9e;fill-opacity:1;stroke:none;stroke-width:2;stroke-linecap:round;stroke-linejoin:round;stroke-miterlimit:4;stroke-dasharray:none;stroke-opacity:1"
       id="rect4271"
       width="22"
       height="2.0000534"
       x="20"
       y="1071.5197" />
    <path
       sodipodi:nodetypes="ssccsss"
       inkscape:connector-curvature="0"
       id="path4265"
       d="m 31,1070.5196 c -0.55397,0 -1.027665,0.4467 -1,1 l 0,2 10,0 0,-2 c 0,-0.554 -0.44603,-1 -1,-1 z"
       style="opacity:1;fill:#fbc02d;fill-opacity:1;stroke:none;stroke-width:2;stroke-linecap:round;stroke-linejoin:round;stroke-miterlimit:4;stroke-dasharray:none;stroke-opacity:1" />
    <path
       style="opacity:1;fill:#fbc02d;fill-opacity:1;stroke:none;stroke-width:2;stroke-linecap:round;stroke-linejoin:round;stroke-miterlimit:4;stroke-dasharray:none;stroke-opacity:1"
       d="m 23,1070.5196 c -0.55397,0 -1,0.446 -1,1 l 0,2 7,0 0,-2 c 0,-0.554 -0.44603,-1 -1,-1 z"
       id="path4255"
       inkscape:connector-curvature="0"
       sodipodi:nodetypes="ssccsss" />
    <rect
       style="opacity:1;fill:#fdd835;fill-opacity:1;stroke:none;stroke-width:2;stroke-linecap:round;stroke-linejoin:round;stroke-miterlimit:4;stroke-dasharray:none;stroke-opacity:1"
       id="rect4287"
       width="6.9999943"
       height="1.0001754"
       x="22.000002"
       y="-1072.5198"
       transform="scale(1,-1)" />
    <path
       id="path4249-5"
       d="m 48.999995,1115.5196 0,4 1,0 c 1.108,0 2,-0.892 2,-2 l 0,-2 -3,0 z"
       style="opacity:0.7;fill:url(#radialGradient4255-6);fill-opacity:1;stroke:none;stroke-width:2;stroke-linecap:butt;stroke-linejoin:round;stroke-miterlimit:4;stroke-dasharray:none;stroke-opacity:1"
       inkscape:connector-curvature="0" />
    <path
       id="path4251-7"
       d="m 14.999995,1115.5196 0,4 34,0 0,-4 z"
       style="opacity:0.7;fill:url(#linearGradient4257-1);fill-opacity:1;stroke:none;stroke-width:2;stroke-linecap:butt;stroke-linejoin:round;stroke-miterlimit:4;stroke-dasharray:none;stroke-opacity:1"
       inkscape:connector-curvature="0"
       sodipodi:nodetypes="ccccc" />
    <path
       id="path4253-6"
       d="m 12,1115.5196 0,2 c 0,1.108 0.892,2 2,2 l 1,0 0,-4 -3,0 z"
       style="opacity:0.7;fill:url(#radialGradient4259-4);fill-opacity:1;stroke:none;stroke-width:2;stroke-linecap:butt;stroke-linejoin:round;stroke-miterlimit:4;stroke-dasharray:none;stroke-opacity:1"
       inkscape:connector-curvature="0" />
    <path
       style="opacity:1;fill:#bdbdbd;fill-opacity:1;stroke:none;stroke-width:2;stroke-linecap:round;stroke-linejoin:round;stroke-miterlimit:4;stroke-dasharray:none;stroke-opacity:1"
       d="M 14 11 C 12.89203 11 12 11.89203 12 13 L 12 57 C 12 58.10797 12.89203 59 14 59 L 50 59 C 51.10797 59 52 58.10797 52 57 L 52 13 C 52 11.89203 51.10797 11 50 11 L 44 11 L 43 11 C 41.89203 11 41 11.892 41 13 L 41 14 L 42 14 L 42 15 L 20 15 L 20 14 L 21 14 L 21 13 C 21 11.892 20.10797 11 19 11 L 18 11 L 14 11 z "
       transform="translate(0,1058.5196)"
       id="rect4160" />
    <path
       style="opacity:1;fill:#e0e0e0;fill-opacity:1;stroke:none;stroke-width:2;stroke-linecap:round;stroke-linejoin:round;stroke-miterlimit:4;stroke-dasharray:none;stroke-opacity:1"
       d="M 14 12 C 13.44603 12 13 12.44603 13 13 L 13 57 C 13 57.55397 13.44603 58 14 58 L 50 58 C 50.55397 58 51 57.55397 51 57 L 51 13 C 51 12.44603 50.55397 12 50 12 L 44 12 L 43 12 C 42.44603 12 42 12.446 42 13 L 42 15 L 20 15 L 20 13 C 20 12.446 19.55397 12 19 12 L 18 12 L 14 12 z "
       transform="translate(0,1058.5196)"
       id="rect4162" />
    <path
       style="opacity:1;fill:#bdbdbd;fill-opacity:1;stroke:none;stroke-width:2;stroke-linecap:round;stroke-linejoin:round;stroke-miterlimit:4;stroke-dasharray:none;stroke-opacity:1"
       d="M 12 13 L 12 16 L 15.5 16 A 1.5 1.5 0 0 0 17 14.5 A 1.5 1.5 0 0 0 15.5 13 L 12 13 z M 48.5 13 A 1.5 1.5 0 0 0 47 14.5 A 1.5 1.5 0 0 0 48.5 16 L 52 16 L 52 13 L 48.5 13 z M 12 54 L 12 57 L 15.5 57 A 1.5 1.5 0 0 0 17 55.5 A 1.5 1.5 0 0 0 15.5 54 L 12 54 z M 48.5 54 A 1.5 1.5 0 0 0 47 55.5 A 1.5 1.5 0 0 0 48.5 57 L 52 57 L 52 54 L 48.5 54 z "
       transform="translate(0,1058.5196)"
       id="path4166" />
    <circle
       r="0.5"
       cy="1073.0197"
       cx="15.5"
       id="circle4168"
       style="opacity:1;fill:#757575;fill-opacity:1;stroke:none;stroke-width:2;stroke-linecap:round;stroke-linejoin:round;stroke-miterlimit:4;stroke-dasharray:none;stroke-opacity:1" />
    <circle
       style="opacity:1;fill:#757575;fill-opacity:1;stroke:none;stroke-width:2;stroke-linecap:round;stroke-linejoin:round;stroke-miterlimit:4;stroke-dasharray:none;stroke-opacity:1"
       id="circle4172"
       cx="48.499985"
       cy="1073.0197"
       r="0.5" />
    <circle
       style="opacity:1;fill:#757575;fill-opacity:1;stroke:none;stroke-width:2;stroke-linecap:round;stroke-linejoin:round;stroke-miterlimit:4;stroke-dasharray:none;stroke-opacity:1"
       id="circle4176"
       cx="15.5"
       cy="1114.0194"
       r="0.5" />
    <circle
       r="0.5"
       cy="1114.0194"
       cx="48.499985"
       id="circle4180"
       style="opacity:1;fill:#757575;fill-opacity:1;stroke:none;stroke-width:2;stroke-linecap:round;stroke-linejoin:round;stroke-miterlimit:4;stroke-dasharray:none;stroke-opacity:1" />
    <path
       style="opacity:1;fill:#bdbdbd;fill-opacity:1;stroke:none;stroke-width:2;stroke-linecap:round;stroke-linejoin:round;stroke-miterlimit:4;stroke-dasharray:none;stroke-opacity:1"
       d="m 47,28 -30,0 0,25 c 0,0.55397 0.44603,1 1,1 l 28,0 c 0.55397,0 1,-0.44603 1,-1 z"
       id="path4206"
       transform="translate(0,1058.5196)"
       inkscape:connector-curvature="0"
       sodipodi:nodetypes="ccssssc" />
    <path
       style="opacity:1;fill:#bdbdbd;fill-opacity:1;stroke:none;stroke-width:2;stroke-linecap:round;stroke-linejoin:round;stroke-miterlimit:4;stroke-dasharray:none;stroke-opacity:1"
       d="m 18,16 c -0.55397,0 -1,0.44603 -1,1 l 0,11 30,0 0,-11 c 0,-0.55397 -0.44603,-1 -1,-1 z"
       id="rect4191"
       transform="translate(0,1058.5196)"
       inkscape:connector-curvature="0"
       sodipodi:nodetypes="ssccsss" />
    <rect
       style="opacity:1;fill:#fafafa;fill-opacity:1;stroke:none;stroke-width:2;stroke-linecap:round;stroke-linejoin:round;stroke-miterlimit:4;stroke-dasharray:none;stroke-opacity:1"
       id="rect4195"
       width="28"
       height="10.999947"
       x="18"
       y="1075.5197"
       ry="0" />
    <rect
       ry="0"
       y="1087.5197"
       x="18"
       height="23.999931"
       width="28"
       id="rect4201"
       style="opacity:1;fill:#fafafa;fill-opacity:1;stroke:none;stroke-width:2;stroke-linecap:round;stroke-linejoin:round;stroke-miterlimit:4;stroke-dasharray:none;stroke-opacity:1" />
    <rect
       transform="scale(1,-1)"
       y="-1072.5197"
       x="30"
       height="1.0000533"
       width="10"
       id="rect4267"
       style="opacity:1;fill:#fdd835;fill-opacity:1;stroke:none;stroke-width:2;stroke-linecap:round;stroke-linejoin:round;stroke-miterlimit:4;stroke-dasharray:none;stroke-opacity:1" />
    <rect
       style="opacity:1;fill:#bdbdbd;fill-opacity:1;stroke:none;stroke-width:2;stroke-linecap:round;stroke-linejoin:round;stroke-miterlimit:4;stroke-dasharray:none;stroke-opacity:1"
       id="rect4291"
       width="22"
       height="0.99994665"
       x="20"
       y="1072.5197" />
    <rect
       style="opacity:1;fill:#4fc3f7;fill-opacity:1;stroke:none;stroke-width:2;stroke-linecap:round;stroke-linejoin:round;stroke-miterlimit:4;stroke-dasharray:none;stroke-opacity:1"
       id="rect4347"
       width="26"
       height="4.9999466"
       x="19"
       y="1076.5197" />
    <path
       style="opacity:1;fill:#ec407a;fill-opacity:1;stroke:none;stroke-width:3;stroke-linecap:round;stroke-linejoin:round;stroke-miterlimit:4;stroke-dasharray:none;stroke-opacity:0.7039108"
       d="m 33,1092.5195 0,6 11,0 c 0.55397,0 1,-0.446 1,-1 l 0,-4 c 0,-0.554 -0.44603,-1 -1,-1 l -11,0 z"
       id="path4228"
       inkscape:connector-curvature="0" />
    <path
       style="opacity:1;fill:#ab47bc;fill-opacity:1;stroke:none;stroke-width:3;stroke-linecap:round;stroke-linejoin:round;stroke-miterlimit:4;stroke-dasharray:none;stroke-opacity:0.7039108"
       d="m 25,1092.5195 0,6 7,0 0,-6 z"
       id="path4212"
       inkscape:connector-curvature="0"
       sodipodi:nodetypes="ccccc" />
    <path
       style="opacity:1;fill:#7e57c2;fill-opacity:1;stroke:none;stroke-width:3;stroke-linecap:round;stroke-linejoin:round;stroke-miterlimit:4;stroke-dasharray:none;stroke-opacity:0.7039108"
       d="m 20,1092.5195 c -0.55397,0 -1,0.446 -1,1 l 0,4 c 0,0.554 0.44603,1 1,1 l 4,0 0,-6 z"
       id="rect4193"
       inkscape:connector-curvature="0"
       sodipodi:nodetypes="ssssccs" />
    <path
       style="opacity:1;fill:#9575cd;fill-opacity:1;stroke:none;stroke-width:3;stroke-linecap:round;stroke-linejoin:round;stroke-miterlimit:4;stroke-dasharray:none;stroke-opacity:0.7039108"
       d="m 24,1093.5195 -4,0 0,4 4,0 z"
       id="path4215"
       inkscape:connector-curvature="0"
       sodipodi:nodetypes="ccccc" />
    <path
       style="opacity:1;fill:#ba68c8;fill-opacity:1;stroke:none;stroke-width:3;stroke-linecap:round;stroke-linejoin:round;stroke-miterlimit:4;stroke-dasharray:none;stroke-opacity:0.7039108"
       d="m 32,1093.5195 -7,0 0,4 7,0 z"
       id="path4225"
       inkscape:connector-curvature="0"
       sodipodi:nodetypes="ccccc" />
    <path
       style="opacity:1;fill:#f06292;fill-opacity:1;stroke:none;stroke-width:3;stroke-linecap:round;stroke-linejoin:round;stroke-miterlimit:4;stroke-dasharray:none;stroke-opacity:0.7039108"
       d="m 33,1093.5195 0,4 11,0 0,-4 -11,0 z"
       id="rect4196"
       inkscape:connector-curvature="0" />
    <path
       style="opacity:1;fill:#9ccc65;fill-opacity:1;stroke:none;stroke-width:3;stroke-linecap:round;stroke-linejoin:round;stroke-miterlimit:4;stroke-dasharray:none;stroke-opacity:0.7039108"
       d="m 35,1103.5196 0,6 9,0 c 0.55397,0 1,-0.446 1,-1 l 0,-4 c 0,-0.554 -0.44603,-1 -1,-1 z"
       id="path4249"
       inkscape:connector-curvature="0"
       sodipodi:nodetypes="ccssssc" />
    <path
       style="opacity:1;fill:#66bb6a;fill-opacity:1;stroke:none;stroke-width:3;stroke-linecap:round;stroke-linejoin:round;stroke-miterlimit:4;stroke-dasharray:none;stroke-opacity:0.7039108"
       d="m 30,1103.5196 0,6 4,0 0,-6 z"
       id="path4244"
       inkscape:connector-curvature="0"
       sodipodi:nodetypes="ccccc" />
    <path
       style="opacity:1;fill:#26a69a;fill-opacity:1;stroke:none;stroke-width:3;stroke-linecap:round;stroke-linejoin:round;stroke-miterlimit:4;stroke-dasharray:none;stroke-opacity:0.7039108"
       d="m 23,1103.5196 0,6 6,0 0,-6 z"
       id="path4239"
       inkscape:connector-curvature="0"
       sodipodi:nodetypes="ccccc" />
    <path
       style="opacity:1;fill:#26c6da;fill-opacity:1;stroke:none;stroke-width:3;stroke-linecap:round;stroke-linejoin:round;stroke-miterlimit:4;stroke-dasharray:none;stroke-opacity:0.7039108"
       d="m 20,1103.5196 c -0.55397,0 -1,0.446 -1,1 l 0,4 c 0,0.554 0.44603,1 1,1 l 2,0 0,-6 z"
       id="rect4202"
       inkscape:connector-curvature="0"
       sodipodi:nodetypes="ssssccs" />
    <path
       style="opacity:1;fill:#4dd0e1;fill-opacity:1;stroke:none;stroke-width:3;stroke-linecap:round;stroke-linejoin:round;stroke-miterlimit:4;stroke-dasharray:none;stroke-opacity:0.7039108"
       d="m 22,1104.5196 -2,0 0,4 2,0 z"
       id="path4254"
       inkscape:connector-curvature="0"
       sodipodi:nodetypes="ccccc" />
    <path
       style="opacity:1;fill:#4db6ac;fill-opacity:1;stroke:none;stroke-width:3;stroke-linecap:round;stroke-linejoin:round;stroke-miterlimit:4;stroke-dasharray:none;stroke-opacity:0.7039108"
       d="m 29,1104.5196 -6,0 0,4 6,0 z"
       id="path4257"
       inkscape:connector-curvature="0"
       sodipodi:nodetypes="ccccc" />
    <path
       style="opacity:1;fill:#81c784;fill-opacity:1;stroke:none;stroke-width:3;stroke-linecap:round;stroke-linejoin:round;stroke-miterlimit:4;stroke-dasharray:none;stroke-opacity:0.7039108"
       d="m 34,1104.5196 -4,0 0,4 4,0 z"
       id="path4260"
       inkscape:connector-curvature="0"
       sodipodi:nodetypes="ccccc" />
    <path
       style="opacity:1;fill:#aed581;fill-opacity:1;stroke:none;stroke-width:3;stroke-linecap:round;stroke-linejoin:round;stroke-miterlimit:4;stroke-dasharray:none;stroke-opacity:0.7039108"
       d="m 35,1104.5196 0,4 9,0 0,-4 z"
       id="rect4204"
       inkscape:connector-curvature="0"
       sodipodi:nodetypes="ccccc" />
    <rect
       style="opacity:1;fill:#29b6f6;fill-opacity:1;stroke:none;stroke-width:3;stroke-linecap:round;stroke-linejoin:round;stroke-miterlimit:4;stroke-dasharray:none;stroke-opacity:0.7039108"
       id="rect4286"
       width="3"
       height="2.9998167"
       x="41"
       y="1099.5198"
       ry="0.9999491" />
    <rect
       ry="0.99995643"
       y="1088.5199"
       x="41"
       height="3.0001829"
       width="3"
       id="rect4292"
       style="opacity:1;fill:#bdbdbd;fill-opacity:1;stroke:none;stroke-width:3;stroke-linecap:round;stroke-linejoin:round;stroke-miterlimit:4;stroke-dasharray:none;stroke-opacity:0.7039108" />
    <rect
       style="opacity:1;fill:#e3f2fd;fill-opacity:1;stroke:none;stroke-width:3;stroke-linecap:round;stroke-linejoin:round;stroke-miterlimit:4;stroke-dasharray:none;stroke-opacity:0.7039108"
       id="rect4298"
       width="1"
       height="0.9999491"
       x="41.999985"
       y="1100.5198" />
    <rect
       style="opacity:1;fill:#e1f5fe;fill-opacity:1;stroke:none;stroke-width:3;stroke-linecap:round;stroke-linejoin:round;stroke-miterlimit:4;stroke-dasharray:none;stroke-opacity:0.7039108"
       id="rect4314"
       width="3"
       height="2.9999466"
       x="20"
       y="1077.5197" />
    <rect
       style="opacity:1;fill:#e1f5fe;fill-opacity:1;stroke:none;stroke-width:3;stroke-linecap:round;stroke-linejoin:round;stroke-miterlimit:4;stroke-dasharray:none;stroke-opacity:0.70391074"
       id="rect4316"
       width="9"
       height="1"
       x="24"
       y="1077.5197" />
    <rect
       style="opacity:1;fill:#e1f5fe;fill-opacity:1;stroke:none;stroke-width:3;stroke-linecap:round;stroke-linejoin:round;stroke-miterlimit:4;stroke-dasharray:none;stroke-opacity:0.7039108"
       id="rect4321"
       width="3"
       height="1"
       x="26"
       y="1079.5197" />
    <rect
       y="1082.5199"
       x="20"
       height="2.9999466"
       width="3"
       id="rect4323"
       style="opacity:1;fill:#546e7a;fill-opacity:1;stroke:none;stroke-width:3;stroke-linecap:round;stroke-linejoin:round;stroke-miterlimit:4;stroke-dasharray:none;stroke-opacity:0.7039108" />
    <rect
       style="opacity:1;fill:#546e7a;fill-opacity:1;stroke:none;stroke-width:3;stroke-linecap:round;stroke-linejoin:round;stroke-miterlimit:4;stroke-dasharray:none;stroke-opacity:0.7039108"
       id="rect4325"
       width="6"
       height="0.99994665"
       x="24"
       y="1082.5197" />
    <rect
       style="opacity:1;fill:#546e7a;fill-opacity:1;stroke:none;stroke-width:3;stroke-linecap:round;stroke-linejoin:round;stroke-miterlimit:4;stroke-dasharray:none;stroke-opacity:0.7039108"
       id="rect4327"
       width="4"
       height="1.0000533"
       x="25"
       y="1084.5197" />
    <rect
       style="opacity:1;fill:#7e57c2;fill-opacity:1;stroke:none;stroke-width:3;stroke-linecap:round;stroke-linejoin:round;stroke-miterlimit:4;stroke-dasharray:none;stroke-opacity:0.70391074"
       id="rect4329"
       width="1"
       height="4"
       x="23"
       y="1093.5197" />
    <rect
       style="opacity:1;fill:#ab47bc;fill-opacity:1;stroke:none;stroke-width:3;stroke-linecap:round;stroke-linejoin:round;stroke-miterlimit:4;stroke-dasharray:none;stroke-opacity:0.70391074"
       id="rect4331"
       width="1"
       height="4"
       x="25"
       y="1093.5197" />
    <rect
       style="opacity:1;fill:#ab47bc;fill-opacity:1;stroke:none;stroke-width:3;stroke-linecap:round;stroke-linejoin:round;stroke-miterlimit:4;stroke-dasharray:none;stroke-opacity:0.70391074"
       id="rect4333"
       width="1"
       height="4"
       x="31"
       y="1093.5197" />
    <rect
       style="opacity:1;fill:#ec407a;fill-opacity:1;stroke:none;stroke-width:3;stroke-linecap:round;stroke-linejoin:round;stroke-miterlimit:4;stroke-dasharray:none;stroke-opacity:0.70391074"
       id="rect4335"
       width="1"
       height="4"
       x="33"
       y="1093.5197" />
    <rect
       style="opacity:1;fill:#26c6da;fill-opacity:1;stroke:none;stroke-width:3;stroke-linecap:round;stroke-linejoin:round;stroke-miterlimit:4;stroke-dasharray:none;stroke-opacity:0.70391074"
       id="rect4337"
       width="1"
       height="4"
       x="21"
       y="1104.5197" />
    <rect
       style="opacity:1;fill:#26a69a;fill-opacity:1;stroke:none;stroke-width:3;stroke-linecap:round;stroke-linejoin:round;stroke-miterlimit:4;stroke-dasharray:none;stroke-opacity:0.70391074"
       id="rect4339"
       width="1"
       height="4"
       x="23"
       y="1104.5197" />
    <rect
       style="opacity:1;fill:#26a69a;fill-opacity:1;stroke:none;stroke-width:3;stroke-linecap:round;stroke-linejoin:round;stroke-miterlimit:4;stroke-dasharray:none;stroke-opacity:0.70391074"
       id="rect4341"
       width="1"
       height="4"
       x="28"
       y="1104.5197" />
    <rect
       style="opacity:1;fill:#66bb6a;fill-opacity:1;stroke:none;stroke-width:3;stroke-linecap:round;stroke-linejoin:round;stroke-miterlimit:4;stroke-dasharray:none;stroke-opacity:0.70391074"
       id="rect4343"
       width="1"
       height="4"
       x="30"
       y="1104.5197" />
    <rect
       style="opacity:1;fill:#66bb6a;fill-opacity:1;stroke:none;stroke-width:3;stroke-linecap:round;stroke-linejoin:round;stroke-miterlimit:4;stroke-dasharray:none;stroke-opacity:0.70391074"
       id="rect4345"
       width="1"
       height="4"
       x="33"
       y="1104.5197" />
    <rect
       style="opacity:1;fill:#9ccc65;fill-opacity:1;stroke:none;stroke-width:3;stroke-linecap:round;stroke-linejoin:round;stroke-miterlimit:4;stroke-dasharray:none;stroke-opacity:0.7039108"
       id="rect4348"
       width="1"
       height="3.9999466"
       x="35"
       y="1104.5197" />
  </g>
</svg>
