<?xml version="1.0" encoding="UTF-8" standalone="no"?>
<!-- Created with Inkscape (http://www.inkscape.org/) -->

<svg
   xmlns:dc="http://purl.org/dc/elements/1.1/"
   xmlns:cc="http://creativecommons.org/ns#"
   xmlns:rdf="http://www.w3.org/1999/02/22-rdf-syntax-ns#"
   xmlns:svg="http://www.w3.org/2000/svg"
   xmlns="http://www.w3.org/2000/svg"
   xmlns:xlink="http://www.w3.org/1999/xlink"
   xmlns:sodipodi="http://sodipodi.sourceforge.net/DTD/sodipodi-0.dtd"
   xmlns:inkscape="http://www.inkscape.org/namespaces/inkscape"
   width="64"
   height="64"
   viewBox="0 0 64 64.000003"
   id="svg2"
   version="1.1"
   inkscape:version="0.91 r13725"
   sodipodi:docname="qpdfview.svg">
  <defs
     id="defs4">
    <linearGradient
       inkscape:collect="always"
       id="Shadow">
      <stop
         style="stop-color:#000000;stop-opacity:1;"
         offset="0"
         id="stop4186" />
      <stop
         style="stop-color:#000000;stop-opacity:0;"
         offset="1"
         id="stop4188" />
    </linearGradient>
    <radialGradient
       r="1.5"
       fy="42.5"
       fx="4"
       cy="42.5"
       cx="4"
       gradientTransform="matrix(-2.0000003,-2.9351788e-6,3.9135795e-6,-2.6666629,21.99984,1228.8529)"
       gradientUnits="userSpaceOnUse"
       id="radialGradient4259"
       xlink:href="#Shadow"
       inkscape:collect="always" />
    <linearGradient
       y2="46"
       x2="24"
       y1="42"
       x1="24"
       gradientTransform="translate(9.0000002,1073.5196)"
       gradientUnits="userSpaceOnUse"
       id="linearGradient4257"
       xlink:href="#Shadow"
       inkscape:collect="always" />
    <radialGradient
       r="1.5"
       fy="42.500004"
       fx="44"
       cy="42.500004"
       cx="44"
       gradientTransform="matrix(-5.6193702e-6,2.6666632,-2.0000002,-4.2145185e-6,135.00027,998.18658)"
       gradientUnits="userSpaceOnUse"
       id="radialGradient4255"
       xlink:href="#Shadow"
       inkscape:collect="always" />
    <radialGradient
       gradientTransform="translate(-33,-40.0001)"
       gradientUnits="userSpaceOnUse"
       r="5"
       fy="1081.5197"
       fx="16"
       cy="1081.5197"
       cx="16"
       id="radialGradient4329-1"
       xlink:href="#Shadow"
       inkscape:collect="always" />
    <linearGradient
       gradientUnits="userSpaceOnUse"
       y2="29"
       x2="25"
       y1="26"
       x1="23"
       id="linearGradient4170-6"
       xlink:href="#Shadow"
       inkscape:collect="always"
       gradientTransform="translate(17,1056.5199)" />
    <linearGradient
       gradientTransform="matrix(-1,0,0,1,69,1056.5199)"
       y2="29"
       x2="25"
       y1="26"
       x1="23"
       gradientUnits="userSpaceOnUse"
       id="linearGradient4180-1"
       xlink:href="#Shadow"
       inkscape:collect="always" />
  </defs>
  <sodipodi:namedview
     id="base"
     pagecolor="#ffffff"
     bordercolor="#666666"
     borderopacity="1.0"
     inkscape:pageopacity="0.0"
     inkscape:pageshadow="2"
     inkscape:zoom="12.09375"
     inkscape:cx="58.197633"
     inkscape:cy="36.687518"
     inkscape:document-units="px"
     inkscape:current-layer="layer1"
     showgrid="true"
     units="px"
     inkscape:showpageshadow="false"
     borderlayer="true"
     inkscape:window-width="2560"
     inkscape:window-height="959"
     inkscape:window-x="0"
     inkscape:window-y="34"
     inkscape:window-maximized="1"
     showguides="true">
    <inkscape:grid
       type="xygrid"
       id="grid4136" />
    <sodipodi:guide
       position="5,59.000069"
       orientation="54,0"
       id="guide4142" />
    <sodipodi:guide
       position="5,5.0000688"
       orientation="0,54"
       id="guide4144" />
    <sodipodi:guide
       position="59,5.0000688"
       orientation="-54,0"
       id="guide4146" />
    <sodipodi:guide
       position="67,59.000003"
       orientation="0,-54"
       id="guide4148" />
    <sodipodi:guide
       position="0,64.000069"
       orientation="64,0"
       id="guide4150" />
    <sodipodi:guide
       position="64,4.0000002"
       orientation="-64,0"
       id="guide4154" />
    <sodipodi:guide
       position="64,64.000069"
       orientation="0,-64"
       id="guide4156" />
  </sodipodi:namedview>
  <metadata
     id="metadata7">
    <rdf:RDF>
      <cc:Work
         rdf:about="">
        <dc:format>image/svg+xml</dc:format>
        <dc:type
           rdf:resource="http://purl.org/dc/dcmitype/StillImage" />
        <dc:title />
      </cc:Work>
    </rdf:RDF>
  </metadata>
  <g
     inkscape:label="Capa 1"
     inkscape:groupmode="layer"
     id="layer1"
     transform="translate(0,-1058.5196)">
    <path
       id="path4249-1"
       d="m 50,1115.5196 0,4 1,0 c 1.108,0 2,-0.892 2,-2 l 0,-2 -3,0 z"
       style="opacity:0.7;fill:url(#radialGradient4255);fill-opacity:1;stroke:none;stroke-width:2;stroke-linecap:butt;stroke-linejoin:round;stroke-miterlimit:4;stroke-dasharray:none;stroke-opacity:1"
       inkscape:connector-curvature="0" />
    <path
       id="path4251"
       d="m 14,1115.5196 0,4 36,0 0,-4 z"
       style="opacity:0.7;fill:url(#linearGradient4257);fill-opacity:1;stroke:none;stroke-width:2;stroke-linecap:butt;stroke-linejoin:round;stroke-miterlimit:4;stroke-dasharray:none;stroke-opacity:1"
       inkscape:connector-curvature="0"
       sodipodi:nodetypes="ccccc" />
    <path
       id="path4253-0"
       d="m 11,1115.5196 0,2 c 0,1.108 0.892,2 2,2 l 1,0 0,-4 -3,0 z"
       style="opacity:0.7;fill:url(#radialGradient4259);fill-opacity:1;stroke:none;stroke-width:2;stroke-linecap:butt;stroke-linejoin:round;stroke-miterlimit:4;stroke-dasharray:none;stroke-opacity:1"
       inkscape:connector-curvature="0" />
    <rect
       style="opacity:1;fill:#455a64;fill-opacity:1;stroke:none;stroke-width:2;stroke-linecap:butt;stroke-linejoin:round;stroke-miterlimit:4;stroke-dasharray:none;stroke-opacity:1"
       id="rect4182"
       width="42"
       height="52.999786"
       x="11"
       y="1064.5195"
       ry="2.9999411" />
    <path
       style="opacity:1;fill:#90a4ae;fill-opacity:1;stroke:none;stroke-width:2;stroke-linecap:butt;stroke-linejoin:round;stroke-miterlimit:4;stroke-dasharray:none;stroke-opacity:1"
       d="M 16 7 L 16 58 L 50 58 C 51.107969 58 52 57.107969 52 56 L 52 9 C 52 7.8920314 51.107969 7 50 7 L 16 7 z "
       id="path4460"
       transform="translate(0,1058.5196)" />
    <path
       style="opacity:1;fill:#546e7a;fill-opacity:1;stroke:none;stroke-width:2;stroke-linecap:butt;stroke-linejoin:round;stroke-miterlimit:4;stroke-dasharray:none;stroke-opacity:1"
       d="M 14 7 C 12.892031 7 12 7.8920314 12 9 L 12 56 C 12 57.107969 12.892031 58 14 58 L 16 58 L 16 7 L 14 7 z "
       id="rect4258"
       transform="translate(0,1058.5196)" />
    <circle
       cy="1041.5199"
       cx="-17.000031"
       id="circle4321-3"
       style="opacity:1;fill:url(#radialGradient4329-1);fill-opacity:1;stroke:none;stroke-width:2;stroke-linecap:round;stroke-linejoin:round;stroke-miterlimit:4;stroke-dasharray:none;stroke-opacity:1"
       r="0" />
    <path
       id="path4178-8"
       d="m 43,1065.5199 4,0 1,0 0,1 0,20 a 1.0001,1.0001 0 0 1 -1.707031,0.707 L 43,1083.934 l 0,-18.4141 z"
       style="color:#000000;font-style:normal;font-variant:normal;font-weight:normal;font-stretch:normal;font-size:medium;line-height:normal;font-family:sans-serif;text-indent:0;text-align:start;text-decoration:none;text-decoration-line:none;text-decoration-style:solid;text-decoration-color:#000000;letter-spacing:normal;word-spacing:normal;text-transform:none;direction:ltr;block-progression:tb;writing-mode:lr-tb;baseline-shift:baseline;text-anchor:start;white-space:normal;clip-rule:nonzero;display:inline;overflow:visible;visibility:visible;opacity:1;isolation:auto;mix-blend-mode:normal;color-interpolation:sRGB;color-interpolation-filters:linearRGB;solid-color:#000000;solid-opacity:1;fill:url(#linearGradient4180-1);fill-opacity:1;fill-rule:evenodd;stroke:none;stroke-width:2;stroke-linecap:round;stroke-linejoin:round;stroke-miterlimit:4;stroke-dasharray:none;stroke-dashoffset:0;stroke-opacity:1;color-rendering:auto;image-rendering:auto;shape-rendering:auto;text-rendering:auto;enable-background:accumulate"
       inkscape:connector-curvature="0" />
    <path
       inkscape:connector-curvature="0"
       style="color:#000000;font-style:normal;font-variant:normal;font-weight:normal;font-stretch:normal;font-size:medium;line-height:normal;font-family:sans-serif;text-indent:0;text-align:start;text-decoration:none;text-decoration-line:none;text-decoration-style:solid;text-decoration-color:#000000;letter-spacing:normal;word-spacing:normal;text-transform:none;direction:ltr;block-progression:tb;writing-mode:lr-tb;baseline-shift:baseline;text-anchor:start;white-space:normal;clip-rule:nonzero;display:inline;overflow:visible;visibility:visible;opacity:1;isolation:auto;mix-blend-mode:normal;color-interpolation:sRGB;color-interpolation-filters:linearRGB;solid-color:#000000;solid-opacity:1;fill:url(#linearGradient4170-6);fill-opacity:1;fill-rule:evenodd;stroke:none;stroke-width:2;stroke-linecap:round;stroke-linejoin:round;stroke-miterlimit:4;stroke-dasharray:none;stroke-dashoffset:0;stroke-opacity:1;color-rendering:auto;image-rendering:auto;shape-rendering:auto;text-rendering:auto;enable-background:accumulate"
       d="m 43,1065.5199 -4,0 -1,0 0,1 0,20 a 1.0001,1.0001 0 0 0 1.707031,0.707 L 43,1083.934 l 0,-18.4141 z"
       id="path4168-4" />
    <path
       id="path4209-0-6"
       d="m 38,1064.5202 0,1 0,20 a 1.0001,1.0001 0 0 0 1.707031,0.707 L 43,1082.9343 l 3.292969,3.2929 A 1.0001,1.0001 0 0 0 48,1085.5202 l 0,-20 0,-1 -1,0 -8,0 -1,0 z"
       style="color:#000000;font-style:normal;font-variant:normal;font-weight:normal;font-stretch:normal;font-size:medium;line-height:normal;font-family:sans-serif;text-indent:0;text-align:start;text-decoration:none;text-decoration-line:none;text-decoration-style:solid;text-decoration-color:#000000;letter-spacing:normal;word-spacing:normal;text-transform:none;direction:ltr;block-progression:tb;writing-mode:lr-tb;baseline-shift:baseline;text-anchor:start;white-space:normal;clip-rule:nonzero;display:inline;overflow:visible;visibility:visible;opacity:1;isolation:auto;mix-blend-mode:normal;color-interpolation:sRGB;color-interpolation-filters:linearRGB;solid-color:#000000;solid-opacity:1;fill:#455a64;fill-opacity:1;fill-rule:evenodd;stroke:none;stroke-width:2;stroke-linecap:round;stroke-linejoin:round;stroke-miterlimit:4;stroke-dasharray:none;stroke-dashoffset:0;stroke-opacity:1;color-rendering:auto;image-rendering:auto;shape-rendering:auto;text-rendering:auto;enable-background:accumulate"
       inkscape:connector-curvature="0" />
    <path
       id="path4199-9-9"
       d="m 39,1065.5202 0,20 1,-1 0,-0.014 2.292969,-2.2929 c 0.39053,-0.3904 1.023532,-0.3904 1.414062,0 L 46,1084.5065 l 0,0.014 1,1 0,-20 -1,0 -6,0 -1,0 z"
       style="color:#000000;font-style:normal;font-variant:normal;font-weight:normal;font-stretch:normal;font-size:medium;line-height:normal;font-family:sans-serif;text-indent:0;text-align:start;text-decoration:none;text-decoration-line:none;text-decoration-style:solid;text-decoration-color:#000000;letter-spacing:normal;word-spacing:normal;text-transform:none;direction:ltr;block-progression:tb;writing-mode:lr-tb;baseline-shift:baseline;text-anchor:start;white-space:normal;clip-rule:nonzero;display:inline;overflow:visible;visibility:visible;opacity:1;isolation:auto;mix-blend-mode:normal;color-interpolation:sRGB;color-interpolation-filters:linearRGB;solid-color:#000000;solid-opacity:1;fill:#f06292;fill-opacity:1;fill-rule:evenodd;stroke:none;stroke-width:2;stroke-linecap:round;stroke-linejoin:round;stroke-miterlimit:4;stroke-dasharray:none;stroke-dashoffset:0;stroke-opacity:1;color-rendering:auto;image-rendering:auto;shape-rendering:auto;text-rendering:auto;enable-background:accumulate"
       inkscape:connector-curvature="0" />
    <path
       style="color:#000000;font-style:normal;font-variant:normal;font-weight:normal;font-stretch:normal;font-size:medium;line-height:normal;font-family:sans-serif;text-indent:0;text-align:start;text-decoration:none;text-decoration-line:none;text-decoration-style:solid;text-decoration-color:#000000;letter-spacing:normal;word-spacing:normal;text-transform:none;direction:ltr;block-progression:tb;writing-mode:lr-tb;baseline-shift:baseline;text-anchor:start;white-space:normal;clip-rule:nonzero;display:inline;overflow:visible;visibility:visible;opacity:1;isolation:auto;mix-blend-mode:normal;color-interpolation:sRGB;color-interpolation-filters:linearRGB;solid-color:#000000;solid-opacity:1;fill:#546e7a;fill-opacity:1;fill-rule:evenodd;stroke:none;stroke-width:1.5;stroke-linecap:butt;stroke-linejoin:miter;stroke-miterlimit:4;stroke-dasharray:none;stroke-dashoffset:0;stroke-opacity:1;color-rendering:auto;image-rendering:auto;shape-rendering:auto;text-rendering:auto;enable-background:accumulate"
       d="M 43.458984 35.855469 C 42.985575 35.911469 42.654641 36.211781 42.400391 36.550781 L 42.326172 36.646484 L 42.289062 36.763672 C 41.178384 40.095672 42.275852 44.253678 44.361328 47.642578 C 44.389418 47.688578 44.426608 47.725584 44.455078 47.771484 C 44.213069 50.713384 43.590387 53.7686 42.558594 56.4375 C 41.655211 56.985295 40.83707 57.501133 40.060547 58 L 43.609375 58 C 43.634056 57.94435 43.663262 57.891915 43.6875 57.835938 C 43.73459 57.727138 43.75137 57.598281 43.796875 57.488281 C 45.770336 56.292281 47.369338 55.238522 50.349609 53.669922 C 50.685546 53.493122 50.692968 53.5382 51.009766 53.375 C 51.337824 53.4753 51.666994 53.572183 52 53.642578 L 52 51.240234 C 51.633803 51.422287 51.291409 51.587245 50.908203 51.78125 C 49.105387 51.02535 47.372902 49.330938 46.001953 47.273438 C 46.22404 43.954637 46.055333 40.896006 45.607422 38.816406 C 45.376646 37.744906 45.128597 36.937422 44.617188 36.357422 C 44.361483 36.067422 43.932393 35.805128 43.458984 35.861328 L 43.458984 35.855469 z M 43.632812 37.732422 C 43.785941 38.018422 43.98087 38.376153 44.142578 39.126953 C 44.411225 40.374253 44.52636 42.191816 44.548828 44.166016 C 43.667195 41.900416 43.169117 39.613122 43.632812 37.732422 z M 45.724609 49.5 C 46.761195 50.7823 47.952215 51.816259 49.25 52.568359 C 47.132581 53.689759 46.055293 54.413584 44.466797 55.333984 C 45.058129 53.426784 45.483736 51.4849 45.724609 49.5 z "
       transform="translate(0,1058.5196)"
       id="path4479" />
    <path
       sodipodi:nodetypes="csscc"
       inkscape:connector-curvature="0"
       id="path4481"
       d="m -31,1081.5196 c -2,6 4,16 10,16 6,0 14.453315,-9.186 -3,0 -19,10 -16,12 -13,11 11,-4 9,-31 6,-27 z"
       style="fill:none;fill-rule:evenodd;stroke:#546e7a;stroke-width:1.5;stroke-linecap:butt;stroke-linejoin:miter;stroke-miterlimit:4;stroke-dasharray:none;stroke-opacity:1" />
  </g>
</svg>
