<?xml version="1.0" encoding="UTF-8" standalone="no"?>
<!-- Created with Inkscape (http://www.inkscape.org/) -->

<svg
   width="22"
   height="22"
   viewBox="0 0 22 22"
   id="svg2"
   version="1.1"
   inkscape:version="1.2-beta (1b65182, 2022-04-05)"
   sodipodi:docname="utilities-log-viewer.svg"
   xmlns:inkscape="http://www.inkscape.org/namespaces/inkscape"
   xmlns:sodipodi="http://sodipodi.sourceforge.net/DTD/sodipodi-0.dtd"
   xmlns="http://www.w3.org/2000/svg"
   xmlns:svg="http://www.w3.org/2000/svg"
   xmlns:rdf="http://www.w3.org/1999/02/22-rdf-syntax-ns#"
   xmlns:cc="http://creativecommons.org/ns#"
   xmlns:dc="http://purl.org/dc/elements/1.1/">
  <defs
     id="defs3051">
    <style
       type="text/css"
       id="current-color-scheme">
    .ColorScheme-Text {
    color:#4d4d4d;
    }
    </style>
  </defs>
  <sodipodi:namedview
     id="base"
     pagecolor="#ffffff"
     bordercolor="#666666"
     borderopacity="1.0"
     inkscape:pageopacity="0.0"
     inkscape:pageshadow="2"
     inkscape:zoom="55.409091"
     inkscape:cx="8.6177194"
     inkscape:cy="11.315833"
     inkscape:document-units="px"
     inkscape:current-layer="layer1"
     showgrid="true"
     units="px"
     inkscape:showpageshadow="false"
     borderlayer="true"
     showguides="true"
     inkscape:guide-bbox="true"
     inkscape:window-width="2558"
     inkscape:window-height="1412"
     inkscape:window-x="0"
     inkscape:window-y="26"
     inkscape:window-maximized="1"
     inkscape:pagecheckerboard="1"
     inkscape:deskcolor="#d1d1d1">
    <inkscape:grid
       type="xygrid"
       id="grid4136"
       empspacing="2"
       enabled="true"
       visible="true"
       snapvisiblegridlinesonly="true"
       dotted="false" />
    <sodipodi:guide
       position="0,20"
       orientation="0,1"
       id="guide4140"
       inkscape:label="Icon Max Height"
       inkscape:color="rgb(233,30,99)"
       inkscape:locked="false" />
    <sodipodi:guide
       position="0,2"
       orientation="0,1"
       id="guide4142"
       inkscape:label="Icon Baseline"
       inkscape:color="rgb(233,30,99)"
       inkscape:locked="false" />
    <sodipodi:guide
       position="11,0"
       orientation="1,0"
       id="guide4144"
       inkscape:label="Center Vertical"
       inkscape:color="rgb(221,44,0)"
       inkscape:locked="false" />
    <sodipodi:guide
       position="15,11"
       orientation="0,1"
       id="guide4146"
       inkscape:label="Center Horizontal"
       inkscape:color="rgb(221,44,0)"
       inkscape:locked="false" />
  </sodipodi:namedview>
  <metadata
     id="metadata7">
    <rdf:RDF>
      <cc:Work
         rdf:about="">
        <dc:format>image/svg+xml</dc:format>
        <dc:type
           rdf:resource="http://purl.org/dc/dcmitype/StillImage" />
      </cc:Work>
    </rdf:RDF>
  </metadata>
  <g
     inkscape:label="Capa 1"
     inkscape:groupmode="layer"
     id="layer1"
     transform="translate(0,-1030.3622)">
    <path
       id="path825"
       style="fill:currentColor;fill-opacity:1;stroke:none" class="ColorScheme-Text"
       d="M 3 2 C 1.8918562 2 1 2.8918562 1 4 L 1 13 L 1 18 C 1 19.108144 1.8918562 20 3 20 L 12 20 L 19 20 C 20.108144 20 21 19.108099 21 18 L 21 13 L 21 12 L 21 10 L 21 4 C 21 2.8919915 20.108009 2 19 2 L 17 2 L 14 2 L 12 2 L 5.0996094 2 L 3 2 z M 4 3 C 4.5522841 3 5 3.4477159 5 4 C 5 4.5522841 4.5522841 5 4 5 C 3.4477159 5 3 4.5522841 3 4 C 3 3.4477159 3.4477159 3 4 3 z M 3 6 L 9 6 L 10 6 L 12 6 L 14 6 L 17 6 L 19 6 L 19 10 L 19 11 L 19 13 L 19 14 L 19 18 L 14 18 L 12 18 L 10 18 L 9 18 L 8 18 L 3 18 L 3 14 L 3 13 L 3 11 L 3 10 L 3 6 z M 5 8 L 5 11 L 8 11 L 8 8 L 5 8 z M 9 8 L 9 9 L 17 9 L 17 8 L 9 8 z M 9 10 L 9 11 L 14 11 L 14 10 L 9 10 z M 5 13 L 5 16 L 8 16 L 8 13 L 5 13 z M 9 13 L 9 14 L 16 14 L 16 13 L 9 13 z M 9 15 L 9 16 L 12 16 L 12 15 L 9 15 z "
       transform="translate(0,1030.3622)" />
  </g>
</svg>
