<?xml version="1.0" encoding="UTF-8" standalone="no"?>
<!-- Created with Inkscape (http://www.inkscape.org/) -->

<svg
   xmlns:dc="http://purl.org/dc/elements/1.1/"
   xmlns:cc="http://creativecommons.org/ns#"
   xmlns:rdf="http://www.w3.org/1999/02/22-rdf-syntax-ns#"
   xmlns:svg="http://www.w3.org/2000/svg"
   xmlns="http://www.w3.org/2000/svg"
   xmlns:sodipodi="http://sodipodi.sourceforge.net/DTD/sodipodi-0.dtd"
   xmlns:inkscape="http://www.inkscape.org/namespaces/inkscape"
   width="640.4375"
   height="475.49704"
   id="svg2"
   version="1.1"
   inkscape:version="0.48.4 r9939"
   sodipodi:docname="applications-accessories.svg">
  <defs
     id="defs4" />
  <sodipodi:namedview
     id="base"
     pagecolor="#ffffff"
     bordercolor="#666666"
     borderopacity="1.0"
     inkscape:pageopacity="0.0"
     inkscape:pageshadow="2"
     inkscape:zoom="0.49497475"
     inkscape:cx="182.83208"
     inkscape:cy="180.5746"
     inkscape:document-units="px"
     inkscape:current-layer="layer1"
     showgrid="false"
     inkscape:window-width="1364"
     inkscape:window-height="718"
     inkscape:window-x="0"
     inkscape:window-y="25"
     inkscape:window-maximized="1"
     fit-margin-top="0"
     fit-margin-left="0"
     fit-margin-right="0"
     fit-margin-bottom="0" />
  <metadata
     id="metadata7">
    <rdf:RDF>
      <cc:Work
         rdf:about="">
        <dc:format>image/svg+xml</dc:format>
        <dc:type
           rdf:resource="http://purl.org/dc/dcmitype/StillImage" />
        <dc:title></dc:title>
      </cc:Work>
    </rdf:RDF>
  </metadata>
  <g
     inkscape:label="Capa 1"
     inkscape:groupmode="layer"
     id="layer1"
     transform="translate(-68.5625,-159.90596)">
    <path
       style="fill:#80d62c;fill-opacity:0.70196078;stroke:none"
       d="m 68.5625,216.65625 0,369.75 640.4375,0 -640.4375,-369.75 z m 97.15625,170 L 339.125,486.75 l -173.40625,1.3125 0,-101.40625 z"
       id="path3035"
       inkscape:connector-curvature="0" />
    <path
       style="fill:#f5f5f3;fill-opacity:1;stroke:none"
       d="m 465.95699,375.42237 c 0,0 79.0821,186.79385 119.2857,256.42858 14.6868,25.43832 36.4572,-91.82116 18.5715,-158.57143 -13.5552,-50.5888 -89.2857,-129.28572 -89.2857,-129.28572 z"
       id="path3883"
       inkscape:connector-curvature="0"
       sodipodi:nodetypes="csscc" />
    <path
       style="fill:#f5f5f3;fill-opacity:1;stroke:none"
       d="m 491.11019,373.2892 c 0,0 -79.0821,186.79385 -119.2857,256.42858 -14.6868,25.43832 -36.4572,-91.82116 -18.5715,-158.57143 13.5552,-50.5888 89.2857,-129.28572 89.2857,-129.28572 z"
       id="path3883-7"
       inkscape:connector-curvature="0"
       sodipodi:nodetypes="csscc" />
    <path
       sodipodi:type="arc"
       style="fill:#f5f5f3;fill-opacity:1;stroke:none"
       id="path3807"
       sodipodi:cx="1240"
       sodipodi:cy="318.07648"
       sodipodi:rx="37.142857"
       sodipodi:ry="37.142857"
       d="m 1277.1429,318.07648 c 0,20.51343 -16.6295,37.14285 -37.1429,37.14285 -20.5134,0 -37.1429,-16.62942 -37.1429,-37.14285 0,-20.51344 16.6295,-37.14286 37.1429,-37.14286 20.5134,0 37.1429,16.62942 37.1429,37.14286 z"
       transform="translate(-763.06872,21.039889)" />
    <path
       style="fill:#517baf;fill-opacity:1;stroke:none"
       d="m 361.34375,159.90625 c -17.20964,0.0514 -34.94499,6.94891 -50.90625,24.4375 -37.30343,40.87299 -4.72841,123.23754 37.125,157 23.98044,19.34463 92.65795,4.81758 92.40625,1.75 -2.8099,-34.25003 30.3947,-39.2459 34.8125,-43.0625 2.4404,-2.10821 -23.36815,-39.88119 -29.84375,-75.0625 -4.9526,-26.9071 -42.83408,-65.18413 -83.59375,-65.0625 z m 1.875,43.125 c 20.40901,0.6241 47.52999,18.77227 55.4375,36.4375 5.0355,11.24921 13.7865,47.24488 -1,61.40625 -11.43444,10.95103 -35.04478,8.56409 -47.46875,-1.25 C 345.6386,280.23305 327.1919,227.74557 346,208.9375 c 4.34878,-4.34878 10.41575,-6.11428 17.21875,-5.90625 z"
       id="path3809-1"
       inkscape:connector-curvature="0" />
    <path
       style="fill:#517baf;fill-opacity:1;stroke:none"
       d="m 592.34375,159.90625 c -40.75967,-0.12163 -78.6724,38.1554 -83.625,65.0625 -6.4756,35.18131 -32.2529,72.95429 -29.8125,75.0625 4.4178,3.8166 37.59115,8.81247 34.78125,43.0625 -0.2517,3.06758 68.45706,17.59463 92.4375,-1.75 41.85341,-33.76246 74.39718,-116.12701 37.09375,-157 -15.96126,-17.48859 -33.66536,-24.38614 -50.875,-24.4375 z M 596,203.03125 c 6.803,-0.20803 12.83873,1.55747 17.1875,5.90625 18.8081,18.80807 0.39265,71.29555 -24.15625,90.6875 -12.42397,9.81409 -36.03431,12.20103 -47.46875,1.25 -14.7865,-14.16137 -6.06675,-50.15704 -1.03125,-61.40625 7.90751,-17.66523 35.05974,-35.8134 55.46875,-36.4375 z"
       id="path3809-1-9"
       inkscape:connector-curvature="0" />
  </g>
</svg>
