<?xml version="1.0" encoding="UTF-8" standalone="no"?>
<!-- Created with Inkscape (http://www.inkscape.org/) -->

<svg
   xmlns:dc="http://purl.org/dc/elements/1.1/"
   xmlns:cc="http://creativecommons.org/ns#"
   xmlns:rdf="http://www.w3.org/1999/02/22-rdf-syntax-ns#"
   xmlns:svg="http://www.w3.org/2000/svg"
   xmlns="http://www.w3.org/2000/svg"
   xmlns:sodipodi="http://sodipodi.sourceforge.net/DTD/sodipodi-0.dtd"
   xmlns:inkscape="http://www.inkscape.org/namespaces/inkscape"
   width="48"
   height="48"
   id="svg2"
   version="1.1"
   inkscape:version="0.48+devel r12347"
   sodipodi:docname="folder-videos.svg">
  <defs
     id="defs4" />
  <sodipodi:namedview
     id="base"
     pagecolor="#ffffff"
     bordercolor="#666666"
     borderopacity="1.0"
     inkscape:pageopacity="0.0"
     inkscape:pageshadow="2"
     inkscape:zoom="3.9999998"
     inkscape:cx="8.924159"
     inkscape:cy="24.915038"
     inkscape:document-units="px"
     inkscape:current-layer="layer1"
     showgrid="false"
     inkscape:window-width="1366"
     inkscape:window-height="714"
     inkscape:window-x="0"
     inkscape:window-y="30"
     inkscape:window-maximized="1"
     showguides="true"
     inkscape:guide-bbox="true">
    <inkscape:grid
       type="xygrid"
       id="grid3031" />
  </sodipodi:namedview>
  <metadata
     id="metadata7">
    <rdf:RDF>
      <cc:Work
         rdf:about="">
        <dc:format>image/svg+xml</dc:format>
        <dc:type
           rdf:resource="http://purl.org/dc/dcmitype/StillImage" />
        <dc:title />
      </cc:Work>
    </rdf:RDF>
  </metadata>
  <g
     inkscape:label="Capa 1"
     inkscape:groupmode="layer"
     id="layer1"
     transform="translate(0,-1004.3622)">
    <path
       style="fill:#894f1b;fill-opacity:1;stroke:none"
       d="m 2.5000001,1010.015 15.1766909,0 1.333812,1.3997 26.489497,0 0,26.0006 L 2.5000001,1037.4153 Z"
       id="rect823"
       inkscape:connector-curvature="0"
       sodipodi:nodetypes="ccccccc" />
    <rect
       y="1015.129"
       x="4.408514"
       height="27.433252"
       width="39.182972"
       id="rect870"
       style="fill:#ffffff;fill-opacity:1;stroke:none" />
    <rect
       style="fill:#edc15a;fill-opacity:1;stroke:none"
       id="rect821"
       width="45"
       height="29"
       x="1.5"
       y="1017.7094" />
    <rect
       y="1017.7094"
       x="1.5"
       height="0.7411893"
       width="45"
       id="rect839"
       style="fill:#ffffff;fill-opacity:0.31372549;stroke:none" />
    <rect
       style="fill:#000000;fill-opacity:0.31372549;stroke:none"
       id="rect841"
       width="45"
       height="0.7411893"
       x="1.5"
       y="1045.9683" />
    <path
       style="fill:#ffffff;fill-opacity:0.49803922;stroke:none"
       d="m 2.5000001,1010.015 0,0.5625 14.9374999,0 1.3125,1.4062 26.75,0 0,-0.5625 -26.4375,0 -0.0625,0 -1.34375,-1.4062 L 2.5000001,1010.015 Z"
       id="path843"
       inkscape:connector-curvature="0" />
    <path
       id="path862"
       d="m 14.5,1022.7094 19,0 0,19 -19,0 L 14.5,1022.7094 z m 3.9583,2.375 0,6.3334 11.08335,0 0,-6.3334 L 18.4583,1025.0844 z m 0,7.9167 0,6.3333 11.08335,0 0,-6.3333 L 18.4583,1033.0011 z m -1.97915,-8.7083 c -0.65585,0 -1.1875,0.5316 -1.1875,1.1875 0,0.6558 0.53165,1.1875 1.1875,1.1875 0.65585,0 1.1875,-0.5317 1.1875,-1.1875 C 17.66665,1024.8244 17.135,1024.2928 16.47915,1024.2928 z m 0,13.4583 c -0.65585,0 -1.1875,0.5317 -1.1875,1.1875 0,0.6558 0.53165,1.1875 1.1875,1.1875 0.65585,0 1.1875,-0.5317 1.1875,-1.1875 C 17.66665,1038.2828 17.135,1037.7511 16.47915,1037.7511 z m 0,-3.3646 c -0.65585,0 -1.1875,0.5317 -1.1875,1.1875 0,0.6559 0.53165,1.1875 1.1875,1.1875 0.65585,0 1.1875,-0.5316 1.1875,-1.1875 C 17.66665,1034.9182 17.135,1034.3865 16.47915,1034.3865 z m 0,-3.3646 c -0.65585,0 -1.1875,0.5317 -1.1875,1.1875 0,0.6559 0.53165,1.1875 1.1875,1.1875 0.65585,0 1.1875,-0.5316 1.1875,-1.1875 C 17.66665,1031.5536 17.135,1031.0219 16.47915,1031.0219 z m 0,-3.3645 c -0.65585,0 -1.1875,0.5316 -1.1875,1.1875 0,0.6558 0.53165,1.1875 1.1875,1.1875 0.65585,0 1.1875,-0.5317 1.1875,-1.1875 C 17.66665,1028.189 17.135,1027.6574 16.47915,1027.6574 z m 15.04165,-3.3646 c -0.65585,0 -1.1875,0.5316 -1.1875,1.1875 0,0.6558 0.53165,1.1875 1.1875,1.1875 0.65585,0 1.1875,-0.5317 1.1875,-1.1875 C 32.7083,1024.8244 32.17665,1024.2928 31.5208,1024.2928 z m 5e-5,13.4583 c -0.65585,0 -1.1875,0.5317 -1.1875,1.1875 0,0.6558 0.53165,1.1875 1.1875,1.1875 0.6558,0 1.1875,-0.5317 1.1875,-1.1875 C 32.70835,1038.2828 32.17665,1037.7511 31.52085,1037.7511 z m 0,-3.3646 c -0.65585,0 -1.1875,0.5317 -1.1875,1.1875 0,0.6558 0.53165,1.1875 1.1875,1.1875 0.6558,0 1.1875,-0.5317 1.1875,-1.1875 C 32.70835,1034.9182 32.17665,1034.3865 31.52085,1034.3865 z m 0,-3.3646 c -0.65585,0 -1.1875,0.5317 -1.1875,1.1875 0,0.6559 0.53165,1.1875 1.1875,1.1875 0.6558,0 1.1875,-0.5316 1.1875,-1.1875 C 32.70835,1031.5535 32.17665,1031.0219 31.52085,1031.0219 z m 0,-3.3646 c -0.65585,0 -1.1875,0.5317 -1.1875,1.1875 0,0.6559 0.53165,1.1875 1.1875,1.1875 0.6558,0 1.1875,-0.5316 1.1875,-1.1875 C 32.70835,1028.189 32.17665,1027.6573 31.52085,1027.6573 Z"
       inkscape:connector-curvature="0"
       style="fill:#000000;fill-opacity:0.49803922;stroke-width:0.2;stroke-linejoin:round" />
  </g>
</svg>
