<?xml version="1.0" encoding="UTF-8" standalone="no"?>
<!-- Created with Inkscape (http://www.inkscape.org/) -->

<svg
   xmlns:dc="http://purl.org/dc/elements/1.1/"
   xmlns:cc="http://creativecommons.org/ns#"
   xmlns:rdf="http://www.w3.org/1999/02/22-rdf-syntax-ns#"
   xmlns:svg="http://www.w3.org/2000/svg"
   xmlns="http://www.w3.org/2000/svg"
   xmlns:sodipodi="http://sodipodi.sourceforge.net/DTD/sodipodi-0.dtd"
   xmlns:inkscape="http://www.inkscape.org/namespaces/inkscape"
   width="48"
   height="48"
   id="svg2"
   version="1.1"
   inkscape:version="0.48+devel r12347"
   sodipodi:docname="folder-pictures.svg">
  <defs
     id="defs4" />
  <sodipodi:namedview
     id="base"
     pagecolor="#ffffff"
     bordercolor="#666666"
     borderopacity="1.0"
     inkscape:pageopacity="0.0"
     inkscape:pageshadow="2"
     inkscape:zoom="6.6438575"
     inkscape:cx="16.994753"
     inkscape:cy="27.659097"
     inkscape:document-units="px"
     inkscape:current-layer="layer1"
     showgrid="false"
     inkscape:window-width="1366"
     inkscape:window-height="714"
     inkscape:window-x="0"
     inkscape:window-y="30"
     inkscape:window-maximized="1">
    <inkscape:grid
       type="xygrid"
       id="grid3831" />
  </sodipodi:namedview>
  <metadata
     id="metadata7">
    <rdf:RDF>
      <cc:Work
         rdf:about="">
        <dc:format>image/svg+xml</dc:format>
        <dc:type
           rdf:resource="http://purl.org/dc/dcmitype/StillImage" />
        <dc:title />
      </cc:Work>
    </rdf:RDF>
  </metadata>
  <g
     inkscape:label="Capa 1"
     inkscape:groupmode="layer"
     id="layer1"
     transform="translate(0,-1004.3622)">
    <path
       style="fill:#894f1b;fill-opacity:1;stroke:none"
       d="m 2.5000001,1010.015 15.1766909,0 1.333812,1.3997 26.489497,0 0,26.0006 L 2.5000001,1037.4153 Z"
       id="rect823"
       inkscape:connector-curvature="0"
       sodipodi:nodetypes="ccccccc" />
    <rect
       y="1015.129"
       x="4.408514"
       height="27.433252"
       width="39.182972"
       id="rect870"
       style="fill:#ffffff;fill-opacity:1;stroke:none" />
    <rect
       style="fill:#edc15a;fill-opacity:1;stroke:none"
       id="rect821"
       width="45"
       height="29"
       x="1.5"
       y="1017.7094" />
    <rect
       y="1017.7094"
       x="1.5"
       height="0.7411893"
       width="45"
       id="rect839"
       style="fill:#ffffff;fill-opacity:0.31372549;stroke:none" />
    <rect
       style="fill:#000000;fill-opacity:0.31372549;stroke:none"
       id="rect841"
       width="45"
       height="0.7411893"
       x="1.5"
       y="1045.9683" />
    <path
       style="fill:#ffffff;fill-opacity:0.49803922;stroke:none"
       d="m 2.5000001,1010.015 0,0.5625 14.9374999,0 1.3125,1.4062 26.75,0 0,-0.5625 -26.4375,0 -0.0625,0 -1.34375,-1.4062 L 2.5000001,1010.015 Z"
       id="path843"
       inkscape:connector-curvature="0" />
    <path
       id="path946"
       d="m 13.363648,1024.1198 21.272704,0 0,18 -21.272704,0 L 13.363648,1024.1198 z m 1.636326,1.6364 0,14.7272 18,0 0,-14.7272 L 14.999974,1025.7562 z m 1.636378,13.9091 3.272704,-3.2728 1.636377,1.6364 6.54546,-6.5455 2.45454,2.4546 1.636326,-1.6364 0,7.3637 L 16.636352,1039.6653 z m 3.272704,-12.2727 c 0,1.8074 -1.465232,3.2727 -3.272704,3.2727 -0.282505,0 -0.55669,-0.036 -0.818163,-0.1031 l 0,-3.9879 3.987776,0 C 19.873297,1026.8359 19.909056,1027.11 19.909056,1027.3926 Z"
       inkscape:connector-curvature="0"
       style="fill:#000000;fill-opacity:0.49803922;stroke-width:0.2;stroke-linejoin:round" />
  </g>
  <g
     inkscape:groupmode="layer"
     id="layer2"
     inkscape:label="Capa 2" />
</svg>
