<svg xmlns="http://www.w3.org/2000/svg" width="48" height="48">
 <g>
  <rect y="7" x="4" height="10" width="18" style="fill:#34495d"/>
  <rect width="40" height="30" x="4" y="9" style="fill:#34495d"/>
  <rect width="36" height="28" x="6" y="11" style="fill:#ffffff"/>
  <rect y="13" x="2" height="28" width="44" style="fill:#1abc9c"/>
  <path d="m 13.999998,16.999993 0,5 9.015625,0 0,9.999987 -3.5,0 0,1.5 -5.515625,0 0,2 5.515625,0 0,1.5 9,0 0,-1.5 5.484375,0 0,-2 -5.484375,0 0,-1.5 -3.5,0 0,-9.999987 8.984375,0 0,-5 z m 18,1 c 0.523635,-3.1e-5 1,0.476385 1,1 0,0.523615 -0.476365,1.000031 -1,1 -0.523635,-3.1e-5 -1,-0.476444 -1,-1 0,-0.523556 0.476365,-0.999969 1,-1 z M 24.015623,33.49998 c 0.523635,-3.1e-5 1,0.476385 1,1 0,0.523615 -0.476365,1.000031 -1,1 -0.523635,-3.1e-5 -1,-0.476444 -1,-1 0,-0.523556 0.476365,-0.999969 1,-1 z" style="fill:#304050" fill-rule="evenodd"/>
 </g>
</svg>
