<svg xmlns="http://www.w3.org/2000/svg" width="48" height="48">
 <g>
  <rect y="7" x="4" height="10" width="18" style="fill:#34495d"/>
  <rect width="40" height="30" x="4" y="9" style="fill:#34495d"/>
  <rect width="36" height="28" x="6" y="11" style="fill:#ffffff"/>
  <rect y="13" x="2" height="28" width="44" style="fill:#1abc9c"/>
  <path d="m 15.999998,16.999987 0,7 0,1 0,1.5 0,1 0,1.5 0,1 0,7 10,0 1,0 5,0 0,-20 -5,0 -1,0 -10,0 z m 2,2 3,0 0,5 -3,0 0,-5 z m 4,0 1.5,0 0,5 -1.5,0 0,-5 z m 2.5,0 1.5,0 0,5 -1.5,0 0,-5 z m 2.5,0 3,0 0,5 -3,0 0,-5 z m -9,6 3,0 0,1.5 -3,0 0,-1.5 z m 4,0 1.5,0 0,1.5 -1.5,0 0,-1.5 z m 2.5,0 1.5,0 0,1.5 -1.5,0 0,-1.5 z m 2.5,0 3,0 0,1.5 -3,0 0,-1.5 z m -9,2.5 3,0 0,1.5 -3,0 0,-1.5 z m 4,0 1.5,0 0,1.5 -1.5,0 0,-1.5 z m 2.5,0 1.5,0 0,1.5 -1.5,0 0,-1.5 z m 2.5,0 3,0 0,1.5 -3,0 0,-1.5 z m -9,2.5 3,0 0,5 -3,0 0,-5 z m 4,0 1.5,0 0,5 -1.5,0 0,-5 z m 2.5,0 1.5,0 0,5 -1.5,0 0,-5 z m 2.5,0 3,0 0,5 -3,0 0,-5 z" style="fill:#304050" fill-rule="evenodd"/>
 </g>
</svg>
