<?xml version="1.0" encoding="UTF-8" standalone="no"?>
<!-- Created with Inkscape (http://www.inkscape.org/) -->

<svg
   xmlns:dc="http://purl.org/dc/elements/1.1/"
   xmlns:cc="http://creativecommons.org/ns#"
   xmlns:rdf="http://www.w3.org/1999/02/22-rdf-syntax-ns#"
   xmlns:svg="http://www.w3.org/2000/svg"
   xmlns="http://www.w3.org/2000/svg"
   xmlns:sodipodi="http://sodipodi.sourceforge.net/DTD/sodipodi-0.dtd"
   xmlns:inkscape="http://www.inkscape.org/namespaces/inkscape"
   width="48"
   height="48"
   id="svg865"
   version="1.1"
   inkscape:version="0.48+devel r12677"
   sodipodi:docname="folder-dropbox.svg">
  <defs
     id="defs867" />
  <sodipodi:namedview
     id="base"
     pagecolor="#ffffff"
     bordercolor="#666666"
     borderopacity="1.0"
     inkscape:pageopacity="0.0"
     inkscape:pageshadow="2"
     inkscape:zoom="12.269"
     inkscape:cx="28.451573"
     inkscape:cy="27.072222"
     inkscape:document-units="px"
     inkscape:current-layer="layer1"
     showgrid="false"
     inkscape:window-width="1366"
     inkscape:window-height="716"
     inkscape:window-x="0"
     inkscape:window-y="28"
     inkscape:window-maximized="1"
     borderlayer="true"
     inkscape:showpageshadow="false"
     showguides="true">
    <sodipodi:guide
       position="0,39.000017"
       orientation="30,0"
       id="guide4110" />
    <sodipodi:guide
       position="0,9.0000174"
       orientation="0,30"
       id="guide4112" />
    <sodipodi:guide
       position="30,9.0000174"
       orientation="-30,0"
       id="guide4114" />
    <sodipodi:guide
       position="30,39.000017"
       orientation="0,-30"
       id="guide4116" />
    <sodipodi:guide
       position="30,39.000017"
       orientation="30,0"
       id="guide4118" />
    <sodipodi:guide
       position="30,9.0000174"
       orientation="0,18"
       id="guide4120" />
    <sodipodi:guide
       position="48,9.0000174"
       orientation="-30,0"
       id="guide4122" />
    <sodipodi:guide
       position="48,39.000017"
       orientation="0,-18"
       id="guide4124" />
    <sodipodi:guide
       position="4,41.000017"
       orientation="34,0"
       id="guide4164" />
    <sodipodi:guide
       position="4,7.0000174"
       orientation="0,18"
       id="guide4166" />
    <sodipodi:guide
       position="22,7.0000174"
       orientation="-34,0"
       id="guide4168" />
    <sodipodi:guide
       position="22,41.000017"
       orientation="0,-18"
       id="guide4170" />
    <sodipodi:guide
       position="6,37.0002"
       orientation="27.999817,0"
       id="guide4174" />
    <sodipodi:guide
       position="6,9.0003836"
       orientation="0,35.999992"
       id="guide4176" />
    <sodipodi:guide
       position="41.999992,9.0003836"
       orientation="-27.999817,0"
       id="guide4178" />
    <sodipodi:guide
       position="41.999992,37.0002"
       orientation="0,-35.999992"
       id="guide4180" />
    <sodipodi:guide
       position="13.999998,31.000017"
       orientation="20,0"
       id="guide3296" />
    <sodipodi:guide
       position="13.999998,11.000017"
       orientation="0,20.000002"
       id="guide3298" />
    <sodipodi:guide
       position="34,11.000017"
       orientation="-20,0"
       id="guide3300" />
    <sodipodi:guide
       position="34,31.000017"
       orientation="0,-20.000002"
       id="guide3302" />
    <sodipodi:guide
       position="26.999998,31.000017"
       orientation="7,0"
       id="guide3375" />
    <sodipodi:guide
       position="26.999998,24.000017"
       orientation="0,7.0000019"
       id="guide3377" />
    <sodipodi:guide
       position="34,24.000017"
       orientation="-7,0"
       id="guide3379" />
    <sodipodi:guide
       position="34,31.000017"
       orientation="0,-7.0000019"
       id="guide3381" />
    <sodipodi:guide
       position="13.999998,18.000017"
       orientation="7,0"
       id="guide3383" />
    <sodipodi:guide
       position="13.999998,11.000017"
       orientation="0,7"
       id="guide3385" />
    <sodipodi:guide
       position="20.999998,11.000017"
       orientation="-7,0"
       id="guide3387" />
    <sodipodi:guide
       position="20.999998,18.000017"
       orientation="0,-7"
       id="guide3389" />
    <sodipodi:guide
       position="23.000001,35.000017"
       orientation="-1.9999999,0"
       id="guide4106" />
    <sodipodi:guide
       position="23.000001,37.000017"
       orientation="0,2"
       id="guide4108" />
    <sodipodi:guide
       position="25,37.000017"
       orientation="1.9999999,0"
       id="guide4111" />
    <sodipodi:guide
       position="25,35.000017"
       orientation="0,-2"
       id="guide4113" />
  </sodipodi:namedview>
  <metadata
     id="metadata870">
    <rdf:RDF>
      <cc:Work
         rdf:about="">
        <dc:format>image/svg+xml</dc:format>
        <dc:type
           rdf:resource="http://purl.org/dc/dcmitype/StillImage" />
        <dc:title />
      </cc:Work>
    </rdf:RDF>
  </metadata>
  <g
     inkscape:label="Capa 1"
     inkscape:groupmode="layer"
     id="layer1"
     transform="translate(0,-1004.3622)">
    <rect
       style="fill:#34495e;fill-opacity:1;stroke:none"
       id="rect4130"
       width="18"
       height="6.0000005"
       x="4"
       y="1011.3622" />
    <rect
       y="1013.3625"
       x="4"
       height="30"
       width="40"
       id="rect4128"
       style="fill:#34495e;fill-opacity:1;stroke:none" />
    <rect
       y="1015.362"
       x="6"
       height="27.999756"
       width="35.999992"
       id="rect870"
       style="fill:#ffffff;fill-opacity:1;stroke:none" />
    <rect
       style="fill:#1abc9c;fill-opacity:1;stroke:none"
       id="rect821"
       width="43.999996"
       height="28.000008"
       x="2"
       y="1017.3622" />
    <path
       sodipodi:type="arc"
       style="fill:none;stroke:none"
       id="path4145"
       sodipodi:cx="23.997576"
       sodipodi:cy="1048.8622"
       sodipodi:rx="3.502425"
       sodipodi:ry="3.5001078"
       d="m 27.500001,1048.8622 a 3.502425,3.5001078 0 0 1 -3.502425,3.5001 3.502425,3.5001078 0 0 1 -3.502425,-3.5001 3.502425,3.5001078 0 0 1 3.502425,-3.5001 3.502425,3.5001078 0 0 1 3.502425,3.5001 z" />
    <path
       d="m 25.999999,1015.3622 a 2.0013857,2.0000615 0 0 1 -2.001386,2 2.0013857,2.0000615 0 0 1 -2.001385,-2 2.0013857,2.0000615 0 0 1 2.001385,-2.0001 2.0013857,2.0000615 0 0 1 2.001386,2.0001 z"
       sodipodi:ry="2.0000615"
       sodipodi:rx="2.0013857"
       sodipodi:cy="1015.3622"
       sodipodi:cx="23.998613"
       id="path4147"
       style="fill:none;stroke:none"
       sodipodi:type="arc" />
    <path
       sodipodi:type="arc"
       style="fill:none;stroke:none"
       id="path4151"
       sodipodi:cx="23.999308"
       sodipodi:cy="1014.362"
       sodipodi:rx="1.0006928"
       sodipodi:ry="1.0000308"
       d="m 25,1014.362 a 1.0006928,1.0000308 0 0 1 -1.000692,1 1.0006928,1.0000308 0 0 1 -1.000693,-1 1.0006928,1.0000308 0 0 1 1.000693,-1 1.0006928,1.0000308 0 0 1 1.000692,1 z" />
    <path
       d="m 25,1012.3625 a 1.0006928,1.0000308 0 0 1 -1.000692,1 1.0006928,1.0000308 0 0 1 -1.000693,-1 1.0006928,1.0000308 0 0 1 1.000693,-1 1.0006928,1.0000308 0 0 1 1.000692,1 z"
       sodipodi:ry="1.0000308"
       sodipodi:rx="1.0006928"
       sodipodi:cy="1012.3625"
       sodipodi:cx="23.999308"
       id="path4153"
       style="fill:none;stroke:none"
       sodipodi:type="arc" />
    <path
       d="m 27.500001,1007.8622 a 3.502425,3.5001078 0 0 1 -3.502425,3.5001 3.502425,3.5001078 0 0 1 -3.502425,-3.5001 3.502425,3.5001078 0 0 1 3.502425,-3.5001 3.502425,3.5001078 0 0 1 3.502425,3.5001 z"
       sodipodi:ry="3.5001078"
       sodipodi:rx="3.502425"
       sodipodi:cy="1007.8622"
       sodipodi:cx="23.997576"
       id="path4155"
       style="fill:none;stroke:none"
       sodipodi:type="arc" />
    <rect
       style="fill:none;fill-opacity:1;fill-rule:evenodd;stroke:none"
       id="rect3292"
       width="20"
       height="20"
       x="13.999998"
       y="1021.3622" />
    <rect
       style="fill:none;fill-opacity:1;fill-rule:evenodd;stroke:none"
       id="rect3339"
       width="7"
       height="7"
       x="26.999998"
       y="1021.3622" />
    <rect
       y="1034.3622"
       x="13.999998"
       height="7"
       width="7"
       id="rect3337"
       style="fill:none;fill-opacity:1;fill-rule:evenodd;stroke:none" />
    <path
       style="fill:#34495e;fill-opacity:1;fill-rule:evenodd;stroke:none"
       d="M 23.996094 17 C 21.377918 17.000155 18.775742 18.078468 16.925781 19.929688 C 15.795171 21.061067 14.963147 22.475413 14.480469 24 L 16.662109 24 C 17.923936 21.153729 20.849208 19.000186 23.996094 19 C 27.14353 18.999814 30.072244 21.15278 31.335938 24 L 33.517578 24 C 33.033739 22.475477 32.200726 21.061385 31.068359 19.929688 C 29.216037 18.078458 26.614269 16.999845 23.996094 17 z M 14.480469 30 C 14.963147 31.524587 15.795171 32.938933 16.925781 34.070312 C 18.775742 35.921532 21.377918 36.999845 23.996094 37 C 26.614269 37.000155 29.216037 35.921543 31.068359 34.070312 C 32.200726 32.938615 33.033739 31.524523 33.517578 30 L 31.335938 30 C 30.072244 32.84722 27.14353 35.000186 23.996094 35 C 20.849208 34.999814 17.923936 32.846271 16.662109 30 L 14.480469 30 z "
       transform="translate(0,1004.3622)"
       id="path3341" />
    <path
       sodipodi:type="arc"
       style="fill:none;fill-opacity:1;fill-rule:evenodd;stroke:none"
       id="path3329"
       sodipodi:cx="23.999306"
       sodipodi:cy="1040.3622"
       sodipodi:rx="1.0006928"
       sodipodi:ry="1.0000308"
       d="m 24.999999,1040.3622 a 1.0006928,1.0000308 0 0 1 -1.000693,1 1.0006928,1.0000308 0 0 1 -1.000693,-1 1.0006928,1.0000308 0 0 1 1.000693,-1 1.0006928,1.0000308 0 0 1 1.000693,1 z" />
    <path
       d="m 24.999999,1022.3622 a 1.0006928,1.0000308 0 0 1 -1.000693,1 1.0006928,1.0000308 0 0 1 -1.000693,-1 1.0006928,1.0000308 0 0 1 1.000693,-1 1.0006928,1.0000308 0 0 1 1.000693,1 z"
       sodipodi:ry="1.0000308"
       sodipodi:rx="1.0006928"
       sodipodi:cy="1022.3622"
       sodipodi:cx="23.999306"
       id="path3331"
       style="fill:none;fill-opacity:1;fill-rule:evenodd;stroke:none"
       sodipodi:type="arc" />
    <path
       d="m 1032.3621,-14.999999 a 1.0006928,1.0000308 0 0 1 -1.0006,1.000031 1.0006928,1.0000308 0 0 1 -1.0007,-1.000031 1.0006928,1.0000308 0 0 1 1.0007,-1.000031 1.0006928,1.0000308 0 0 1 1.0006,1.000031 z"
       sodipodi:ry="1.0000308"
       sodipodi:rx="1.0006928"
       sodipodi:cy="-14.999999"
       sodipodi:cx="1031.3615"
       id="path3333"
       style="fill:none;fill-opacity:1;fill-rule:evenodd;stroke:none"
       sodipodi:type="arc"
       transform="matrix(0,1,-1,0,0,0)" />
    <path
       sodipodi:type="arc"
       style="fill:none;fill-opacity:1;fill-rule:evenodd;stroke:none"
       id="path3335"
       sodipodi:cx="1031.3615"
       sodipodi:cy="-33"
       sodipodi:rx="1.0006928"
       sodipodi:ry="1.0000308"
       d="m 1032.3621,-33 a 1.0006928,1.0000308 0 0 1 -1.0006,1.000031 1.0006928,1.0000308 0 0 1 -1.0007,-1.000031 1.0006928,1.0000308 0 0 1 1.0007,-1.000031 1.0006928,1.0000308 0 0 1 1.0006,1.000031 z"
       transform="matrix(0,1,-1,0,0,0)" />
    <rect
       style="fill:#34495e;fill-opacity:1;stroke:none"
       id="rect3363"
       width="2"
       height="7"
       x="13.999998"
       y="1034.3622" />
    <rect
       y="-20.999998"
       x="1034.3622"
       height="7"
       width="2"
       id="rect3365"
       style="fill:#34495e;fill-opacity:1;stroke:none"
       transform="matrix(0,1,-1,0,0,0)" />
    <rect
       y="-1028.3622"
       x="-34"
       height="7"
       width="2"
       id="rect3367"
       style="fill:#34495e;fill-opacity:1;stroke:none"
       transform="scale(-1,-1)" />
    <rect
       transform="matrix(0,-1,1,0,0,0)"
       style="fill:#34495e;fill-opacity:1;stroke:none"
       id="rect3369"
       width="2"
       height="7"
       x="-1028.3622"
       y="26.999998" />
    <ellipse
       ry="2.0000615"
       rx="2.0013857"
       cy="1028.3622"
       cx="45.998615"
       id="path3267"
       style="fill:none;stroke:none"
       d="m 48.000001,1028.3622 a 2.0013857,2.0000615 0 0 1 -2.001386,2 2.0013857,2.0000615 0 0 1 -2.001385,-2 2.0013857,2.0000615 0 0 1 2.001385,-2.0001 2.0013857,2.0000615 0 0 1 2.001386,2.0001 z" />
    <ellipse
       style="fill:none;stroke:none"
       id="path3273"
       cx="44"
       cy="1028.3622"
       rx="2"
       ry="2.0000615"
       d="m 46,1028.3622 a 2,2.0000615 0 0 1 -2,2 2,2.0000615 0 0 1 -2,-2 2,2.0000615 0 0 1 2,-2.0001 2,2.0000615 0 0 1 2,2.0001 z" />
    <ellipse
       style="fill:none;stroke:none"
       id="path4132"
       cx="46"
       cy="1028.3622"
       rx="2"
       ry="2.0000615"
       d="m 48,1028.3622 a 2,2.0000615 0 0 1 -2,2 2,2.0000615 0 0 1 -2,-2 2,2.0000615 0 0 1 2,-2.0001 2,2.0000615 0 0 1 2,2.0001 z" />
    <ellipse
       style="fill:none;stroke:none"
       id="path3277"
       cx="47"
       cy="1028.3622"
       rx="1"
       ry="1.0000308"
       d="m 48,1028.3622 a 1,1.0000308 0 0 1 -1,1 1,1.0000308 0 0 1 -1,-1 1,1.0000308 0 0 1 1,-1 1,1.0000308 0 0 1 1,1 z" />
    <ellipse
       style="fill:none;stroke:none"
       id="path3312"
       cx="-2.0013857"
       cy="1028.3622"
       rx="2.0013857"
       ry="2.0000615"
       transform="scale(-1,1)"
       d="m 0,1028.3622 a 2.0013857,2.0000615 0 0 1 -2.0013857,2 2.0013857,2.0000615 0 0 1 -2.0013857,-2 2.0013857,2.0000615 0 0 1 2.0013857,-2.0001 A 2.0013857,2.0000615 0 0 1 0,1028.3622 Z" />
    <ellipse
       ry="2.0000615"
       rx="2"
       cy="1028.3622"
       cx="-4.000001"
       id="ellipse3314"
       style="fill:none;stroke:none"
       transform="scale(-1,1)"
       d="m -2.000001,1028.3622 a 2,2.0000615 0 0 1 -2,2 2,2.0000615 0 0 1 -2,-2 2,2.0000615 0 0 1 2,-2.0001 2,2.0000615 0 0 1 2,2.0001 z" />
    <ellipse
       ry="2.0000615"
       rx="2"
       cy="1028.3622"
       cx="-2.000001"
       id="ellipse3316"
       style="fill:none;stroke:none"
       transform="scale(-1,1)"
       d="m -9.5367432e-7,1028.3622 a 2,2.0000615 0 0 1 -2.00000004632568,2 2,2.0000615 0 0 1 -2,-2 2,2.0000615 0 0 1 2,-2.0001 2,2.0000615 0 0 1 2.00000004632568,2.0001 z" />
    <ellipse
       ry="1.0000308"
       rx="1"
       cy="1028.3622"
       cx="-1.000001"
       id="ellipse3318"
       style="fill:none;stroke:none"
       transform="scale(-1,1)"
       d="m -9.5367432e-7,1028.3622 a 1,1.0000308 0 0 1 -1.00000004632568,1 1,1.0000308 0 0 1 -1,-1 1,1.0000308 0 0 1 1,-1 1,1.0000308 0 0 1 1.00000004632568,1 z" />
  </g>
</svg>
