<svg xmlns="http://www.w3.org/2000/svg" width="48" height="48">
 <g>
  <rect y="7" x="4" height="10" width="18" style="fill:#34495d"/>
  <rect width="40" height="30" x="4" y="9" style="fill:#34495d"/>
  <rect width="36" height="28" x="6" y="11" style="fill:#ffffff"/>
  <rect y="13" x="2" height="28" width="44" style="fill:#1abc9c"/>
  <path d="m 23.996092,16.999987 c -2.618176,1.55e-4 -5.220351,1.078467 -7.070312,2.929687 -1.13061,1.131379 -1.962635,2.545726 -2.445313,4.070313 l 2.181641,0 c 1.261827,-2.846271 4.187098,-4.999814 7.333984,-5 2.352261,-1.39e-4 4.581739,1.203871 6.085938,3 l -3.082032,0 0,2 4.335938,0 2.664062,0 0,-2 0,-5 -2,0 0,4.03125 c -0.285511,-0.387631 -0.590394,-0.760518 -0.93164,-1.101563 -1.852322,-1.85123 -4.454091,-2.929842 -7.072266,-2.929687 z m -9.996094,13 0,2 0,5 2,0 0,-4.025391 c 0.283965,0.385492 0.586751,0.756442 0.925782,1.095703 1.849961,1.85122 4.452136,2.929533 7.070312,2.929688 2.618175,1.55e-4 5.219944,-1.078457 7.072266,-2.929688 1.132367,-1.131697 1.96538,-2.545789 2.449219,-4.070312 l -2.181641,0 c -1.263694,2.84722 -4.192408,5.000186 -7.339844,5 -2.35183,-1.39e-4 -4.577657,-1.204112 -6.080078,-3 l 3.083984,0 0,-2 -6.519531,0 -0.480469,0 z" style="fill:#304050" fill-rule="evenodd"/>
 </g>
</svg>
