<svg xmlns="http://www.w3.org/2000/svg" width="48" height="48">
 <g>
  <rect y="7" x="4" height="10" width="18" style="fill:#34495d"/>
  <rect width="40" height="30" x="4" y="9" style="fill:#34495d"/>
  <rect width="36" height="28" x="6" y="11" style="fill:#ffffff"/>
  <rect y="13" x="2" height="28" width="44" style="fill:#1abc9c"/>
  <path d="m 27.754759,19.100004 c -0.04803,0 -0.0862,0.013 -0.132073,0.018 -0.275043,0.037 -0.52791,0.2409 -0.60379,0.5127 l -2.037762,6.6447 -0.50944,0 -0.207541,0 -0.50944,0 -0.188682,0 -1.05662,0 c -0.292115,0 -0.56909,0.2141 -0.660387,0.4936 l -1.509453,4.9361 -2.150966,-7.7078 c -0.152112,-0.4956 -0.932084,-0.6401 -1.245291,-0.2279 l -1.83021,2.506 -0.56605,0 -0.452832,0 -0.05654,0 c -0.02725,0 -0.03769,0.028 -0.03769,0.056 l 0,1.3289 c 0,0.025 0.01096,0.037 0.03769,0.037 l 0.05654,0 0.452832,0 0.905677,0 c 0.225838,0 0.439008,-0.1154 0.566036,-0.3035 l 1.226434,-1.6899 2.396248,8.6763 c 0.06554,0.2313 0.260659,0.4274 0.490581,0.4936 0.358268,0.1082 0.785629,-0.1314 0.886796,-0.4936 l 2.018894,-6.6829 0.52831,0 0.188683,0 0.50944,0 0.207541,0 1.037751,0 c 0.292124,0 0.58796,-0.1951 0.679253,-0.4744 l 1.490584,-4.9172 2.169836,7.7077 c 0.152111,0.4959 0.932097,0.6404 1.245304,0.228 l 1.83021,-2.5436 0.566049,0 0.415093,0 0.03769,0 c 0.02735,0 0.05654,-0.013 0.05654,-0.037 l 0,-1.3291 c 0,-0.027 -0.0293,-0.056 -0.05654,-0.056 l -0.03769,0 -0.415093,0 -0.924546,0 c -0.225838,0 -0.420139,0.1348 -0.54718,0.3226 l -1.245291,1.6897 -2.377388,-8.657 c -0.06555,-0.2315 -0.260649,-0.4278 -0.490572,-0.4937 -0.04476,-0.014 -0.10298,-0.035 -0.150946,-0.037 z" color="#000000" style="fill:#304050"/>
 </g>
</svg>
