<?xml version="1.0" standalone="no"?>
<!DOCTYPE svg PUBLIC "-//W3C//DTD SVG 20010904//EN" "http://www.w3.org/TR/2001/REC-SVG-20010904/DTD/svg10.dtd">
<!-- Created using Karbon, part of Calligra: http://www.calligra.org/karbon -->
<svg xmlns="http://www.w3.org/2000/svg" xmlns:xlink="http://www.w3.org/1999/xlink" width="38.4pt" height="38.4pt">
<defs/>
<g id="layer1">
  <rect id="rect4130" transform="translate(4, 7)" fill="#34495e" width="14.40000000000pt" height="8.00000000000pt"/>
  <rect id="rect4128" transform="translate(4, 9.0003)" fill="#34495e" width="32.00000000000pt" height="24.00000000000pt"/>
  <rect id="rect870" transform="translate(6, 10.9998)" fill="#ffffff" width="28.79999360000pt" height="22.39980480000pt"/>
  <rect id="rect821" transform="translate(2, 13)" fill="#1abc9c" width="35.19999680000pt" height="22.40000640000pt"/>
  <path id="shape0" transform="translate(13.0311, 16.6406)" fill="#233f54" fill-rule="evenodd" stroke="#8e8d8d" stroke-opacity="0.15294117647" stroke-width="0.00000000000" stroke-linecap="square" stroke-linejoin="bevel" d="M14.2857 6.28978C14.0603 6.52291 -0.203515 18.7563 0.00220395 18.9894C0.193905 19.2067 1.20452 20.4569 1.38203 20.658L15.8702 8.07195C16.37 7.68347 17.4612 7.31836 18.223 7.92223C18.9226 8.60481 18.6824 9.18295 18.533 9.69457C19.0508 10.2569 19.7443 10.586 20.262 11.1483L22.8283 8.73846L21.4484 6.92683C20.8304 6.83148 20.3527 7.15156 19.7347 6.48412C19.2813 5.99027 19.5712 5.22157 19.6292 4.65732C18.4506 3.41778 17.9998 2.87793 16.8212 1.6384C15.1826 0.891496 11.0915 -0.555092 8.71995 0.223592C14.3058 1.97381 16.1611 3.99587 14.2857 6.28978Z"/>
 </g>
</svg>
