<?xml version="1.0" encoding="UTF-8" standalone="no"?>
<!-- Created with Inkscape (http://www.inkscape.org/) -->

<svg
   xmlns:dc="http://purl.org/dc/elements/1.1/"
   xmlns:cc="http://creativecommons.org/ns#"
   xmlns:rdf="http://www.w3.org/1999/02/22-rdf-syntax-ns#"
   xmlns:svg="http://www.w3.org/2000/svg"
   xmlns="http://www.w3.org/2000/svg"
   xmlns:sodipodi="http://sodipodi.sourceforge.net/DTD/sodipodi-0.dtd"
   xmlns:inkscape="http://www.inkscape.org/namespaces/inkscape"
   width="48"
   height="48"
   id="svg865"
   version="1.1"
   inkscape:version="0.48+devel r12667"
   sodipodi:docname="folder_download.svg">
  <defs
     id="defs867" />
  <sodipodi:namedview
     id="base"
     pagecolor="#ffffff"
     bordercolor="#666666"
     borderopacity="1.0"
     inkscape:pageopacity="0.0"
     inkscape:pageshadow="2"
     inkscape:zoom="11.477676"
     inkscape:cx="30.422818"
     inkscape:cy="24.771261"
     inkscape:document-units="px"
     inkscape:current-layer="layer1"
     showgrid="false"
     inkscape:window-width="1366"
     inkscape:window-height="716"
     inkscape:window-x="0"
     inkscape:window-y="28"
     inkscape:window-maximized="1"
     borderlayer="true"
     inkscape:showpageshadow="false"
     showguides="true">
    <sodipodi:guide
       position="0,39.000017"
       orientation="30,0"
       id="guide4110" />
    <sodipodi:guide
       position="0,9.0000174"
       orientation="0,30"
       id="guide4112" />
    <sodipodi:guide
       position="30,39.000017"
       orientation="0,-30"
       id="guide4116" />
    <sodipodi:guide
       position="30,9.0000174"
       orientation="0,18"
       id="guide4120" />
    <sodipodi:guide
       position="48,9.0000174"
       orientation="-30,0"
       id="guide4122" />
    <sodipodi:guide
       position="48,39.000017"
       orientation="0,-18"
       id="guide4124" />
    <sodipodi:guide
       position="4,41.000017"
       orientation="34,0"
       id="guide4164" />
    <sodipodi:guide
       position="4,7.0000174"
       orientation="0,18"
       id="guide4166" />
    <sodipodi:guide
       position="22,41.000017"
       orientation="0,-18"
       id="guide4170" />
    <sodipodi:guide
       position="6,37.0002"
       orientation="27.999817,0"
       id="guide4174" />
    <sodipodi:guide
       position="6,9.0003836"
       orientation="0,35.999992"
       id="guide4176" />
    <sodipodi:guide
       position="41.999992,9.0003836"
       orientation="-27.999817,0"
       id="guide4178" />
    <sodipodi:guide
       position="41.999992,37.0002"
       orientation="0,-35.999992"
       id="guide4180" />
    <sodipodi:guide
       position="14,31.000017"
       orientation="20,0"
       id="guide4221" />
    <sodipodi:guide
       position="14,11.000017"
       orientation="0,20"
       id="guide4223" />
    <sodipodi:guide
       position="34,11.000017"
       orientation="-20,0"
       id="guide4225" />
    <sodipodi:guide
       position="34,31.000017"
       orientation="0,-20"
       id="guide4227" />
  </sodipodi:namedview>
  <metadata
     id="metadata870">
    <rdf:RDF>
      <cc:Work
         rdf:about="">
        <dc:format>image/svg+xml</dc:format>
        <dc:type
           rdf:resource="http://purl.org/dc/dcmitype/StillImage" />
        <dc:title />
      </cc:Work>
    </rdf:RDF>
  </metadata>
  <g
     inkscape:label="Capa 1"
     inkscape:groupmode="layer"
     id="layer1"
     transform="translate(0,-1004.3622)">
    <rect
       style="fill:#34495e;fill-opacity:1;stroke:none"
       id="rect4130"
       width="18"
       height="2.0000005"
       x="4"
       y="1011.3622" />
    <rect
       y="1013.3625"
       x="4"
       height="30"
       width="40"
       id="rect4128"
       style="fill:#34495e;fill-opacity:1;stroke:none" />
    <rect
       y="1015.362"
       x="6"
       height="27.999756"
       width="35.999992"
       id="rect870"
       style="fill:#ffffff;fill-opacity:1;stroke:none" />
    <rect
       style="fill:#1abc9c;fill-opacity:1;stroke:none"
       id="rect821"
       width="43.999996"
       height="28.000008"
       x="2"
       y="1017.3622" />
    <path
       sodipodi:type="arc"
       style="fill:none;stroke:none"
       id="path3265"
       sodipodi:cx="1.9986142"
       sodipodi:cy="1028.3622"
       sodipodi:rx="2.0013857"
       sodipodi:ry="2.0000615"
       d="m 3.9999999,1028.3622 c 0,1.0472 -0.9536294,2 -2.0008996,2 -1.04727028,-10e-5 -1.999100331231884,-0.9529 -1.999100331231885,-2 0,-1.0471 0.951830051231885,-2 1.999100331231885,-2 1.0472702,-10e-5 2.0008996,0.9528 2.0008996,2 z" />
    <path
       d="m 48.000001,1028.3622 c 0,1.0472 -0.953629,2 -2.0009,2 -1.04727,-10e-5 -1.9991,-0.9529 -1.9991,-2 0,-1.0471 0.95183,-2 1.9991,-2 1.047271,-10e-5 2.0009,0.9528 2.0009,2 z"
       sodipodi:ry="2.0000615"
       sodipodi:rx="2.0013857"
       sodipodi:cy="1028.3622"
       sodipodi:cx="45.998615"
       id="path3267"
       style="fill:none;stroke:none"
       sodipodi:type="arc" />
    <path
       d="m 6,1028.3622 c 0,1.0472 -0.9536294,2 -2.0008996,2 -1.0472703,-10e-5 -1.9991003,-0.9529 -1.9991003,-2 0,-1.0471 0.95183,-2 1.9991003,-2 C 5.0463706,1026.3621 6,1027.315 6,1028.3622 Z"
       sodipodi:ry="2.0000615"
       sodipodi:rx="2.0013857"
       sodipodi:cy="1028.3622"
       sodipodi:cx="3.9986143"
       id="path3271"
       style="fill:none;stroke:none"
       sodipodi:type="arc" />
    <path
       sodipodi:type="arc"
       style="fill:none;stroke:none"
       id="path3273"
       sodipodi:cx="43.998611"
       sodipodi:cy="1028.3622"
       sodipodi:rx="2.0013857"
       sodipodi:ry="2.0000615"
       d="m 45.999997,1028.3622 c 0,1.0472 -0.953629,2 -2.000899,2 -1.047271,-10e-5 -1.999101,-0.9529 -1.999101,-2 0,-1.0471 0.95183,-2 1.999101,-2 1.04727,-10e-5 2.000899,0.9528 2.000899,2 z" />
    <path
       d="m 1.9999999,1028.3622 c 0,0.5236 -0.4768146,1 -1.00044976,1 -0.52363513,0 -0.999550155615942,-0.4765 -0.999550155615942,-1 0,-0.5236 0.475915025615942,-1 0.999550155615942,-1 0.52363516,0 1.00044976,0.4764 1.00044976,1 z"
       sodipodi:ry="1.0000308"
       sodipodi:rx="1.0006928"
       sodipodi:cy="1028.3622"
       sodipodi:cx="0.9993071"
       id="path3275"
       style="fill:none;stroke:none"
       sodipodi:type="arc" />
    <path
       sodipodi:type="arc"
       style="fill:none;stroke:none"
       id="path3277"
       sodipodi:cx="46.999306"
       sodipodi:cy="1028.3622"
       sodipodi:rx="1.0006928"
       sodipodi:ry="1.0000308"
       d="m 47.999999,1028.3622 c 0,0.5236 -0.476815,1 -1.00045,1 -0.523635,0 -0.99955,-0.4765 -0.99955,-1 0,-0.5236 0.475915,-1 0.99955,-1 0.523635,0 1.00045,0.4764 1.00045,1 z" />
    <path
       sodipodi:type="arc"
       style="fill:none;stroke:none"
       id="path4132"
       sodipodi:cx="45.998615"
       sodipodi:cy="1028.3622"
       sodipodi:rx="2.0013857"
       sodipodi:ry="2.0000615"
       d="m 48.000001,1028.3622 c 0,1.0472 -0.953629,2 -2.0009,2 -1.04727,-10e-5 -1.9991,-0.9529 -1.9991,-2 0,-1.0471 0.95183,-2 1.9991,-2 1.047271,-10e-5 2.0009,0.9528 2.0009,2 z" />
    <path
       sodipodi:type="arc"
       style="fill:none;stroke:none"
       id="path4145"
       sodipodi:cx="23.997576"
       sodipodi:cy="1048.8622"
       sodipodi:rx="3.502425"
       sodipodi:ry="3.5001078"
       d="m 27.500001,1048.8622 c 0,1.8326 -1.668852,3.5001 -3.501575,3.5 -1.832723,-10e-5 -3.498425,-1.6676 -3.498425,-3.5 0,-1.8325 1.665702,-3.4999 3.498425,-3.5 1.832723,-10e-5 3.501575,1.6673 3.501575,3.5 z" />
    <path
       d="m 25.999999,1015.3622 c 0,1.0472 -0.953629,2 -2.0009,2 -1.04727,-10e-5 -1.9991,-0.9529 -1.9991,-2 0,-1.0471 0.95183,-2 1.9991,-2 1.047271,-10e-5 2.0009,0.9528 2.0009,2 z"
       sodipodi:ry="2.0000615"
       sodipodi:rx="2.0013857"
       sodipodi:cy="1015.3622"
       sodipodi:cx="23.998613"
       id="path4147"
       style="fill:none;stroke:none"
       sodipodi:type="arc" />
    <path
       d="m 25,1016.3622 c 0,0.5236 -0.476814,1 -1.000449,1 -0.523635,0 -0.99955,-0.4765 -0.99955,-1 0,-0.5236 0.475915,-1 0.99955,-1 0.523635,0 1.000449,0.4764 1.000449,1 z"
       sodipodi:ry="1.0000308"
       sodipodi:rx="1.0006928"
       sodipodi:cy="1016.3622"
       sodipodi:cx="23.999308"
       id="path4149"
       style="fill:none;stroke:none"
       sodipodi:type="arc" />
    <path
       sodipodi:type="arc"
       style="fill:none;stroke:none"
       id="path4151"
       sodipodi:cx="23.999308"
       sodipodi:cy="1014.362"
       sodipodi:rx="1.0006928"
       sodipodi:ry="1.0000308"
       d="m 25,1014.362 c 0,0.5236 -0.476814,1 -1.000449,1 -0.523635,0 -0.99955,-0.4764 -0.99955,-1 0,-0.5236 0.475915,-1 0.99955,-1 0.523635,0 1.000449,0.4764 1.000449,1 z" />
    <path
       d="m 25,1012.3625 c 0,0.5236 -0.476814,1 -1.000449,1 -0.523635,0 -0.99955,-0.4765 -0.99955,-1 0,-0.5236 0.475915,-1 0.99955,-1 0.523635,0 1.000449,0.4764 1.000449,1 z"
       sodipodi:ry="1.0000308"
       sodipodi:rx="1.0006928"
       sodipodi:cy="1012.3625"
       sodipodi:cx="23.999308"
       id="path4153"
       style="fill:none;stroke:none"
       sodipodi:type="arc" />
    <path
       d="m 27.500001,1007.8622 c 0,1.8326 -1.668852,3.5001 -3.501575,3.5 -1.832723,-10e-5 -3.498425,-1.6676 -3.498425,-3.5 0,-1.8325 1.665702,-3.4999 3.498425,-3.5 1.832723,-10e-5 3.501575,1.6673 3.501575,3.5 z"
       sodipodi:ry="3.5001078"
       sodipodi:rx="3.502425"
       sodipodi:cy="1007.8622"
       sodipodi:cx="23.997576"
       id="path4155"
       style="fill:none;stroke:none"
       sodipodi:type="arc" />
    <rect
       style="fill:none;fill-opacity:1;fill-rule:evenodd;stroke:none"
       id="rect4213"
       width="20"
       height="20"
       x="14"
       y="1021.3622" />
    <path
       sodipodi:type="arc"
       style="fill:none;fill-opacity:1;fill-rule:evenodd;stroke:none"
       id="path4215"
       sodipodi:cx="23.999308"
       sodipodi:cy="1042.3618"
       sodipodi:rx="1.0006928"
       sodipodi:ry="1.0000308"
       d="m 25,1042.3618 c 0,0.5236 -0.476814,1 -1.000449,1 -0.523635,0 -0.99955,-0.4764 -0.99955,-1 0,-0.5235 0.475915,-1 0.99955,-1 0.523635,0 1.000449,0.4764 1.000449,1 z" />
    <path
       d="m 25.999998,1019.3621 c 0,1.0473 -0.95363,2.0001 -2.0009,2 -1.047271,0 -1.999101,-0.9529 -1.999101,-2 0,-1.0471 0.95183,-1.9999 1.999101,-2 1.04727,0 2.0009,0.9528 2.0009,2 z"
       sodipodi:ry="2.0000613"
       sodipodi:rx="2.0013862"
       sodipodi:cy="1019.3621"
       sodipodi:cx="23.998611"
       id="path4217"
       style="fill:none;fill-opacity:1;fill-rule:evenodd;stroke:none"
       sodipodi:type="arc" />
    <path
       d="m 25,1040.3622 c 0,0.5236 -0.476814,1 -1.000449,1 -0.523635,0 -0.99955,-0.4765 -0.99955,-1 0,-0.5236 0.475915,-1 0.99955,-1 0.523635,0 1.000449,0.4764 1.000449,1 z"
       sodipodi:ry="1.0000308"
       sodipodi:rx="1.0006928"
       sodipodi:cy="1040.3622"
       sodipodi:cx="23.999308"
       id="path4235"
       style="fill:none;fill-opacity:1;fill-rule:evenodd;stroke:none"
       sodipodi:type="arc" />
    <path
       style="fill:#34495e;fill-opacity:1;stroke:none"
       d="M 23.996094 17 C 21.377919 17.000155 18.775742 18.078467 16.925781 19.929688 C 15.075821 21.780908 14 24.382217 14 27 C 14 29.617783 15.075821 32.219092 16.925781 34.070312 C 18.775742 35.921533 21.377919 36.999845 23.996094 37 C 26.614268 37.000155 29.216038 35.921542 31.068359 34.070312 C 32.920681 32.219083 34 29.618075 34 27 C 34 24.381925 32.920681 21.780917 31.068359 19.929688 C 29.216038 18.078458 26.614268 16.999845 23.996094 17 z M 23.996094 19 C 28.185173 18.999752 32 22.81108 32 27 C 32 31.18892 28.185173 35.000248 23.996094 35 C 19.807014 34.999752 16 31.188453 16 27 C 16 22.811547 19.807014 19.000248 23.996094 19 z "
       transform="translate(0,1004.3622)"
       id="path4340" />
    <path
       sodipodi:type="arc"
       style="fill:none;fill-opacity:1;fill-rule:evenodd;stroke:none"
       id="path4239"
       sodipodi:cx="23.999308"
       sodipodi:cy="1022.3622"
       sodipodi:rx="1.0006928"
       sodipodi:ry="1.0000308"
       d="m 25,1022.3622 c 0,0.5236 -0.476814,1 -1.000449,1 -0.523635,0 -0.99955,-0.4765 -0.99955,-1 0,-0.5236 0.475915,-1 0.99955,-1 0.523635,0 1.000449,0.4764 1.000449,1 z" />
    <path
       sodipodi:type="arc"
       style="fill:none;fill-opacity:1;fill-rule:evenodd;stroke:none"
       id="path4245"
       sodipodi:cx="23.999308"
       sodipodi:cy="1040.3622"
       sodipodi:rx="1.0006928"
       sodipodi:ry="1.0000308"
       d="m 25,1040.3622 c 0,0.5236 -0.476814,1 -1.000449,1 -0.523635,0 -0.99955,-0.4765 -0.99955,-1 0,-0.5236 0.475915,-1 0.99955,-1 0.523635,0 1.000449,0.4764 1.000449,1 z" />
    <path
       d="m 16,1031.3622 c 0,0.5236 -0.476815,1 -1.00045,1 -0.523635,0 -0.99955,-0.4765 -0.99955,-1 0,-0.5236 0.475915,-1 0.99955,-1 0.523635,0 1.00045,0.4764 1.00045,1 z"
       sodipodi:ry="1.0000308"
       sodipodi:rx="1.0006928"
       sodipodi:cy="1031.3622"
       sodipodi:cx="14.999307"
       id="path4249"
       style="fill:none;fill-opacity:1;fill-rule:evenodd;stroke:none"
       sodipodi:type="arc" />
    <path
       d="m 25,1024.3622 c 0,0.5236 -0.476814,1 -1.000449,1 -0.523635,0 -0.99955,-0.4765 -0.99955,-1 0,-0.5236 0.475915,-1 0.99955,-1 0.523635,0 1.000449,0.4764 1.000449,1 z"
       sodipodi:ry="1.0000308"
       sodipodi:rx="1.0006928"
       sodipodi:cy="1024.3622"
       sodipodi:cx="23.999308"
       id="path4251"
       style="fill:none;fill-opacity:1;fill-rule:evenodd;stroke:none"
       sodipodi:type="arc" />
    <path
       sodipodi:type="arc"
       style="fill:none;fill-opacity:1;fill-rule:evenodd;stroke:none"
       id="path4253"
       sodipodi:cx="32.999306"
       sodipodi:cy="1031.3622"
       sodipodi:rx="1.0006928"
       sodipodi:ry="1.0000308"
       d="m 33.999999,1031.3622 c 0,0.5236 -0.476815,1 -1.00045,1 -0.523635,0 -0.99955,-0.4765 -0.99955,-1 0,-0.5236 0.475915,-1 0.99955,-1 0.523635,0 1.00045,0.4764 1.00045,1 z" />
    <path
       d="m 25,1038.3622 c 0,0.5236 -0.476814,1 -1.000449,1 -0.523635,0 -0.99955,-0.4765 -0.99955,-1 0,-0.5236 0.475915,-1 0.99955,-1 0.523635,0 1.000449,0.4764 1.000449,1 z"
       sodipodi:ry="1.0000308"
       sodipodi:rx="1.0006928"
       sodipodi:cy="1038.3622"
       sodipodi:cx="23.999308"
       id="path4345"
       style="fill:none;fill-opacity:1;fill-rule:evenodd;stroke:none"
       sodipodi:type="arc" />
    <path
       sodipodi:type="arc"
       style="fill:none;fill-opacity:1;fill-rule:evenodd;stroke:none"
       id="path4347"
       sodipodi:cx="16.999306"
       sodipodi:cy="1031.3622"
       sodipodi:rx="1.0006928"
       sodipodi:ry="1.0000308"
       d="m 17.999999,1031.3622 c 0,0.5236 -0.476815,1 -1.00045,1 -0.523635,0 -0.99955,-0.4765 -0.99955,-1 0,-0.5236 0.475915,-1 0.99955,-1 0.523635,0 1.00045,0.4764 1.00045,1 z" />
    <path
       d="m 31.999999,1031.3622 c 0,0.5236 -0.476815,1 -1.00045,1 -0.523635,0 -0.99955,-0.4765 -0.99955,-1 0,-0.5236 0.475915,-1 0.99955,-1 0.523635,0 1.00045,0.4764 1.00045,1 z"
       sodipodi:ry="1.0000308"
       sodipodi:rx="1.0006928"
       sodipodi:cy="1031.3622"
       sodipodi:cx="30.999306"
       id="path4349"
       style="fill:none;fill-opacity:1;fill-rule:evenodd;stroke:none"
       sodipodi:type="arc" />
    <rect
       style="fill:#34495e;fill-opacity:1;fill-rule:evenodd;stroke:none"
       id="rect4351"
       width="4"
       height="9"
       x="22"
       y="1025.3622" />
    <path
       sodipodi:type="star"
       style="fill:#34495e;fill-opacity:1;fill-rule:evenodd;stroke:none"
       id="path4353"
       sodipodi:sides="3"
       sodipodi:cx="24.000002"
       sodipodi:cy="1033.1117"
       sodipodi:r1="4.2504597"
       sodipodi:r2="2.1252298"
       sodipodi:arg1="1.5707963"
       sodipodi:arg2="2.6179939"
       inkscape:flatsided="true"
       inkscape:rounded="0"
       inkscape:randomized="0"
       d="m 24.000002,1037.3622 -3.681006,-6.3757 7.362012,0 z"
       inkscape:transform-center-y="1.1668279"
       transform="matrix(1.6299889,0,0,1.0979206,-15.119748,-101.57897)" />
  </g>
</svg>
