<?xml version="1.0" encoding="UTF-8" standalone="no"?>
<!-- Created with Inkscape (http://www.inkscape.org/) -->

<svg
   xmlns:dc="http://purl.org/dc/elements/1.1/"
   xmlns:cc="http://creativecommons.org/ns#"
   xmlns:rdf="http://www.w3.org/1999/02/22-rdf-syntax-ns#"
   xmlns:svg="http://www.w3.org/2000/svg"
   xmlns="http://www.w3.org/2000/svg"
   xmlns:sodipodi="http://sodipodi.sourceforge.net/DTD/sodipodi-0.dtd"
   xmlns:inkscape="http://www.inkscape.org/namespaces/inkscape"
   width="48"
   height="48"
   id="svg865"
   version="1.1"
   inkscape:version="0.48+devel r12677"
   sodipodi:docname="folder-videos.svg">
  <defs
     id="defs867" />
  <sodipodi:namedview
     id="base"
     pagecolor="#ffffff"
     bordercolor="#666666"
     borderopacity="1.0"
     inkscape:pageopacity="0.0"
     inkscape:pageshadow="2"
     inkscape:zoom="16.594501"
     inkscape:cx="26.224717"
     inkscape:cy="24.576423"
     inkscape:document-units="px"
     inkscape:current-layer="layer1"
     showgrid="false"
     inkscape:window-width="1366"
     inkscape:window-height="716"
     inkscape:window-x="0"
     inkscape:window-y="28"
     inkscape:window-maximized="1"
     borderlayer="true"
     inkscape:showpageshadow="false"
     showguides="true">
    <sodipodi:guide
       position="0,39.000017"
       orientation="30,0"
       id="guide4110" />
    <sodipodi:guide
       position="0,9.0000174"
       orientation="0,30"
       id="guide4112" />
    <sodipodi:guide
       position="30,9.0000174"
       orientation="-30,0"
       id="guide4114" />
    <sodipodi:guide
       position="30,39.000017"
       orientation="0,-30"
       id="guide4116" />
    <sodipodi:guide
       position="30,39.000017"
       orientation="30,0"
       id="guide4118" />
    <sodipodi:guide
       position="30,9.0000174"
       orientation="0,18"
       id="guide4120" />
    <sodipodi:guide
       position="48,9.0000174"
       orientation="-30,0"
       id="guide4122" />
    <sodipodi:guide
       position="48,39.000017"
       orientation="0,-18"
       id="guide4124" />
    <sodipodi:guide
       position="4,41.000017"
       orientation="34,0"
       id="guide4164" />
    <sodipodi:guide
       position="4,7.0000174"
       orientation="0,18"
       id="guide4166" />
    <sodipodi:guide
       position="22,7.0000174"
       orientation="-34,0"
       id="guide4168" />
    <sodipodi:guide
       position="22,41.000017"
       orientation="0,-18"
       id="guide4170" />
    <sodipodi:guide
       position="6,37.0002"
       orientation="27.999817,0"
       id="guide4174" />
    <sodipodi:guide
       position="6,9.0003836"
       orientation="0,35.999992"
       id="guide4176" />
    <sodipodi:guide
       position="41.999992,9.0003836"
       orientation="-27.999817,0"
       id="guide4178" />
    <sodipodi:guide
       position="41.999992,37.0002"
       orientation="0,-35.999992"
       id="guide4180" />
    <sodipodi:guide
       position="13.999998,31.000017"
       orientation="20,0"
       id="guide3296" />
    <sodipodi:guide
       position="13.999998,11.000017"
       orientation="0,20.000002"
       id="guide3298" />
    <sodipodi:guide
       position="34,11.000017"
       orientation="-20,0"
       id="guide3300" />
    <sodipodi:guide
       position="34,31.000017"
       orientation="0,-20.000002"
       id="guide3302" />
    <sodipodi:guide
       position="23.000001,35.000017"
       orientation="-1.9999999,0"
       id="guide4098" />
    <sodipodi:guide
       position="23.000001,37.000017"
       orientation="0,2"
       id="guide4100" />
    <sodipodi:guide
       position="25,37.000017"
       orientation="1.9999999,0"
       id="guide4102" />
    <sodipodi:guide
       position="25,35.000017"
       orientation="0,-2"
       id="guide4104" />
  </sodipodi:namedview>
  <metadata
     id="metadata870">
    <rdf:RDF>
      <cc:Work
         rdf:about="">
        <dc:format>image/svg+xml</dc:format>
        <dc:type
           rdf:resource="http://purl.org/dc/dcmitype/StillImage" />
        <dc:title />
      </cc:Work>
    </rdf:RDF>
  </metadata>
  <g
     inkscape:label="Capa 1"
     inkscape:groupmode="layer"
     id="layer1"
     transform="translate(0,-1004.3622)">
    <rect
       style="fill:#34495e;fill-opacity:1;stroke:none"
       id="rect4130"
       width="18"
       height="6.0000005"
       x="4"
       y="1011.3622" />
    <rect
       y="1013.3625"
       x="4"
       height="30"
       width="40"
       id="rect4128"
       style="fill:#34495e;fill-opacity:1;stroke:none" />
    <rect
       y="1015.362"
       x="6"
       height="27.999756"
       width="35.999992"
       id="rect870"
       style="fill:#ffffff;fill-opacity:1;stroke:none" />
    <rect
       style="fill:#1abc9c;fill-opacity:1;stroke:none"
       id="rect821"
       width="43.999996"
       height="28.000008"
       x="2"
       y="1017.3622" />
    <path
       sodipodi:type="arc"
       style="fill:none;stroke:none"
       id="path4145"
       sodipodi:cx="23.997576"
       sodipodi:cy="1048.8622"
       sodipodi:rx="3.502425"
       sodipodi:ry="3.5001078"
       d="m 27.500001,1048.8622 a 3.502425,3.5001078 0 0 1 -3.502425,3.5001 3.502425,3.5001078 0 0 1 -3.502425,-3.5001 3.502425,3.5001078 0 0 1 3.502425,-3.5001 3.502425,3.5001078 0 0 1 3.502425,3.5001 z" />
    <path
       d="m 25.999999,1015.3622 a 2.0013857,2.0000615 0 0 1 -2.001386,2 2.0013857,2.0000615 0 0 1 -2.001385,-2 2.0013857,2.0000615 0 0 1 2.001385,-2.0001 2.0013857,2.0000615 0 0 1 2.001386,2.0001 z"
       sodipodi:ry="2.0000615"
       sodipodi:rx="2.0013857"
       sodipodi:cy="1015.3622"
       sodipodi:cx="23.998613"
       id="path4147"
       style="fill:none;stroke:none"
       sodipodi:type="arc" />
    <path
       d="m 25,1016.3622 a 1.0006928,1.0000308 0 0 1 -1.000692,1 1.0006928,1.0000308 0 0 1 -1.000693,-1 1.0006928,1.0000308 0 0 1 1.000693,-1 1.0006928,1.0000308 0 0 1 1.000692,1 z"
       sodipodi:ry="1.0000308"
       sodipodi:rx="1.0006928"
       sodipodi:cy="1016.3622"
       sodipodi:cx="23.999308"
       id="path4149"
       style="fill:none;stroke:none"
       sodipodi:type="arc" />
    <path
       sodipodi:type="arc"
       style="fill:none;stroke:none"
       id="path4151"
       sodipodi:cx="23.999308"
       sodipodi:cy="1014.362"
       sodipodi:rx="1.0006928"
       sodipodi:ry="1.0000308"
       d="m 25,1014.362 a 1.0006928,1.0000308 0 0 1 -1.000692,1 1.0006928,1.0000308 0 0 1 -1.000693,-1 1.0006928,1.0000308 0 0 1 1.000693,-1 1.0006928,1.0000308 0 0 1 1.000692,1 z" />
    <path
       d="m 25,1012.3625 a 1.0006928,1.0000308 0 0 1 -1.000692,1 1.0006928,1.0000308 0 0 1 -1.000693,-1 1.0006928,1.0000308 0 0 1 1.000693,-1 1.0006928,1.0000308 0 0 1 1.000692,1 z"
       sodipodi:ry="1.0000308"
       sodipodi:rx="1.0006928"
       sodipodi:cy="1012.3625"
       sodipodi:cx="23.999308"
       id="path4153"
       style="fill:none;stroke:none"
       sodipodi:type="arc" />
    <path
       d="m 27.500001,1007.8622 a 3.502425,3.5001078 0 0 1 -3.502425,3.5001 3.502425,3.5001078 0 0 1 -3.502425,-3.5001 3.502425,3.5001078 0 0 1 3.502425,-3.5001 3.502425,3.5001078 0 0 1 3.502425,3.5001 z"
       sodipodi:ry="3.5001078"
       sodipodi:rx="3.502425"
       sodipodi:cy="1007.8622"
       sodipodi:cx="23.997576"
       id="path4155"
       style="fill:none;stroke:none"
       sodipodi:type="arc" />
    <rect
       style="fill:none;fill-opacity:1;fill-rule:evenodd;stroke:none"
       id="rect3292"
       width="20"
       height="20"
       x="13.999998"
       y="1021.3622" />
    <path
       style="fill:#34495e;fill-opacity:1;fill-rule:evenodd;stroke:none"
       d="m 14,17 0,20 20,0 0,-20 z m 1,2 2,0 0,2 -2,0 z m 16,0 2,0 0,2 -2,0 z m -12,1 10,0 0,6 -10,0 z m -4,6 2,0 0,2 -2,0 z m 16,0 2,0 0,2 -2,0 z m -12,2 10,0 0,6 -10,0 z m -4,5 2,0 0,2 -2,0 z m 16,0 2,0 0,2 -2,0 z"
       transform="translate(0,1004.3622)"
       id="path3371"
       inkscape:connector-curvature="0"
       sodipodi:nodetypes="ccccccccccccccccccccccccccccccccccccccccccccc" />
    <path
       sodipodi:type="arc"
       style="fill:none;fill-opacity:1;fill-rule:evenodd;stroke:none"
       id="path3329"
       sodipodi:cx="23.999306"
       sodipodi:cy="1040.3622"
       sodipodi:rx="1.0006928"
       sodipodi:ry="1.0000308"
       d="m 24.999999,1040.3622 a 1.0006928,1.0000308 0 0 1 -1.000693,1 1.0006928,1.0000308 0 0 1 -1.000693,-1 1.0006928,1.0000308 0 0 1 1.000693,-1 1.0006928,1.0000308 0 0 1 1.000693,1 z" />
    <path
       d="m 24.999999,1022.3622 a 1.0006928,1.0000308 0 0 1 -1.000693,1 1.0006928,1.0000308 0 0 1 -1.000693,-1 1.0006928,1.0000308 0 0 1 1.000693,-1 1.0006928,1.0000308 0 0 1 1.000693,1 z"
       sodipodi:ry="1.0000308"
       sodipodi:rx="1.0006928"
       sodipodi:cy="1022.3622"
       sodipodi:cx="23.999306"
       id="path3331"
       style="fill:none;fill-opacity:1;fill-rule:evenodd;stroke:none"
       sodipodi:type="arc" />
    <path
       d="m 1032.3621,15.999998 a 1.0006928,1.0000308 0 0 1 -1.0006,1.000031 1.0006928,1.0000308 0 0 1 -1.0007,-1.000031 1.0006928,1.0000308 0 0 1 1.0007,-1.000031 1.0006928,1.0000308 0 0 1 1.0006,1.000031 z"
       sodipodi:ry="1.0000308"
       sodipodi:rx="1.0006928"
       sodipodi:cy="15.999998"
       sodipodi:cx="1031.3615"
       id="path3333"
       style="fill:none;fill-opacity:1;fill-rule:evenodd;stroke:none"
       sodipodi:type="arc"
       transform="matrix(0,1,1,0,0,0)" />
    <path
       sodipodi:type="arc"
       style="fill:none;fill-opacity:1;fill-rule:evenodd;stroke:none"
       id="path3335"
       sodipodi:cx="1031.3615"
       sodipodi:cy="32"
       sodipodi:rx="1.0006928"
       sodipodi:ry="1.0000308"
       d="m 1032.3621,32 a 1.0006928,1.0000308 0 0 1 -1.0006,1.000031 A 1.0006928,1.0000308 0 0 1 1030.3608,32 1.0006928,1.0000308 0 0 1 1031.3615,30.999969 1.0006928,1.0000308 0 0 1 1032.3621,32 Z"
       transform="matrix(0,1,1,0,0,0)" />
    <path
       transform="matrix(0,1,1,0,0,0)"
       sodipodi:type="arc"
       style="fill:none;fill-opacity:1;fill-rule:evenodd;stroke:none"
       id="path3342"
       sodipodi:cx="1031.3618"
       sodipodi:cy="14.499999"
       sodipodi:rx="0.50034642"
       sodipodi:ry="0.50001514"
       d="m 1031.8622,14.499999 a 0.50034642,0.50001514 0 0 1 -0.5004,0.500015 0.50034642,0.50001514 0 0 1 -0.5003,-0.500015 0.50034642,0.50001514 0 0 1 0.5003,-0.500015 0.50034642,0.50001514 0 0 1 0.5004,0.500015 z" />
    <path
       d="m 1031.8622,33.5 a 0.50034642,0.50001514 0 0 1 -0.5004,0.500015 0.50034642,0.50001514 0 0 1 -0.5003,-0.500015 0.50034642,0.50001514 0 0 1 0.5003,-0.500015 0.50034642,0.50001514 0 0 1 0.5004,0.500015 z"
       sodipodi:ry="0.50001514"
       sodipodi:rx="0.50034642"
       sodipodi:cy="33.5"
       sodipodi:cx="1031.3618"
       id="path3344"
       style="fill:none;fill-opacity:1;fill-rule:evenodd;stroke:none"
       sodipodi:type="arc"
       transform="matrix(0,1,1,0,0,0)" />
    <path
       d="m 24.499999,1038.8622 a 0.50034642,0.50001514 0 0 1 -0.500346,0.5 0.50034642,0.50001514 0 0 1 -0.500347,-0.5 0.50034642,0.50001514 0 0 1 0.500347,-0.5 0.50034642,0.50001514 0 0 1 0.500346,0.5 z"
       sodipodi:ry="0.50001514"
       sodipodi:rx="0.50034642"
       sodipodi:cy="1038.8622"
       sodipodi:cx="23.999653"
       id="path3346"
       style="fill:none;fill-opacity:1;fill-rule:evenodd;stroke:none"
       sodipodi:type="arc" />
    <path
       sodipodi:type="arc"
       style="fill:none;fill-opacity:1;fill-rule:evenodd;stroke:none"
       id="path3348"
       sodipodi:cx="23.999653"
       sodipodi:cy="1023.8622"
       sodipodi:rx="0.50034642"
       sodipodi:ry="0.50001514"
       d="m 24.499999,1023.8622 a 0.50034642,0.50001514 0 0 1 -0.500346,0.5 0.50034642,0.50001514 0 0 1 -0.500347,-0.5 0.50034642,0.50001514 0 0 1 0.500347,-0.5 0.50034642,0.50001514 0 0 1 0.500346,0.5 z" />
    <path
       transform="matrix(0,1,-1,0,0,0)"
       sodipodi:type="arc"
       style="fill:none;fill-opacity:1;fill-rule:evenodd;stroke:none"
       id="path3352"
       sodipodi:cx="1031.3615"
       sodipodi:cy="-29.999998"
       sodipodi:rx="1.0006928"
       sodipodi:ry="1.0000308"
       d="m 1032.3621,-29.999998 a 1.0006928,1.0000308 0 0 1 -1.0006,1.000031 1.0006928,1.0000308 0 0 1 -1.0007,-1.000031 1.0006928,1.0000308 0 0 1 1.0007,-1.000031 1.0006928,1.0000308 0 0 1 1.0006,1.000031 z" />
    <path
       d="m 1032.3621,-17.999998 a 1.0006928,1.0000308 0 0 1 -1.0006,1.000031 1.0006928,1.0000308 0 0 1 -1.0007,-1.000031 1.0006928,1.0000308 0 0 1 1.0007,-1.000031 1.0006928,1.0000308 0 0 1 1.0006,1.000031 z"
       sodipodi:ry="1.0000308"
       sodipodi:rx="1.0006928"
       sodipodi:cy="-17.999998"
       sodipodi:cx="1031.3615"
       id="path3354"
       style="fill:none;fill-opacity:1;fill-rule:evenodd;stroke:none"
       sodipodi:type="arc"
       transform="matrix(0,1,-1,0,0,0)" />
    <path
       sodipodi:type="arc"
       style="fill:none;fill-opacity:1;fill-rule:evenodd;stroke:none"
       id="path3398"
       sodipodi:cx="23.999306"
       sodipodi:cy="1031.3622"
       sodipodi:rx="1.0006928"
       sodipodi:ry="1.0000308"
       d="m 24.999999,1031.3622 a 1.0006928,1.0000308 0 0 1 -1.000693,1 1.0006928,1.0000308 0 0 1 -1.000693,-1 1.0006928,1.0000308 0 0 1 1.000693,-1 1.0006928,1.0000308 0 0 1 1.000693,1 z" />
    <ellipse
       ry="2.0000615"
       rx="2.0013857"
       cy="1028.3622"
       cx="45.998615"
       id="path3267"
       style="fill:none;stroke:none"
       d="m 48.000001,1028.3622 a 2.0013857,2.0000615 0 0 1 -2.001386,2 2.0013857,2.0000615 0 0 1 -2.001385,-2 2.0013857,2.0000615 0 0 1 2.001385,-2.0001 2.0013857,2.0000615 0 0 1 2.001386,2.0001 z" />
    <ellipse
       style="fill:none;stroke:none"
       id="path3273"
       cx="44"
       cy="1028.3622"
       rx="2"
       ry="2.0000615"
       d="m 46,1028.3622 a 2,2.0000615 0 0 1 -2,2 2,2.0000615 0 0 1 -2,-2 2,2.0000615 0 0 1 2,-2.0001 2,2.0000615 0 0 1 2,2.0001 z" />
    <ellipse
       style="fill:none;stroke:none"
       id="path4132"
       cx="46"
       cy="1028.3622"
       rx="2"
       ry="2.0000615"
       d="m 48,1028.3622 a 2,2.0000615 0 0 1 -2,2 2,2.0000615 0 0 1 -2,-2 2,2.0000615 0 0 1 2,-2.0001 2,2.0000615 0 0 1 2,2.0001 z" />
    <ellipse
       style="fill:none;stroke:none"
       id="path3277"
       cx="47"
       cy="1028.3622"
       rx="1"
       ry="1.0000308"
       d="m 48,1028.3622 a 1,1.0000308 0 0 1 -1,1 1,1.0000308 0 0 1 -1,-1 1,1.0000308 0 0 1 1,-1 1,1.0000308 0 0 1 1,1 z" />
    <ellipse
       style="fill:none;stroke:none"
       id="path3312"
       cx="-2.0013855"
       cy="1028.3622"
       rx="2.0013857"
       ry="2.0000615"
       transform="scale(-1,1)"
       d="m 2.3841858e-7,1028.3622 a 2.0013857,2.0000615 0 0 1 -2.00138573841858,2 2.0013857,2.0000615 0 0 1 -2.0013856,-2 2.0013857,2.0000615 0 0 1 2.0013856,-2.0001 2.0013857,2.0000615 0 0 1 2.00138573841858,2.0001 z" />
    <ellipse
       ry="2.0000615"
       rx="2"
       cy="1028.3622"
       cx="-4.000001"
       id="ellipse3314"
       style="fill:none;stroke:none"
       transform="scale(-1,1)"
       d="m -2.000001,1028.3622 a 2,2.0000615 0 0 1 -2,2 2,2.0000615 0 0 1 -2,-2 2,2.0000615 0 0 1 2,-2.0001 2,2.0000615 0 0 1 2,2.0001 z" />
    <ellipse
       ry="2.0000615"
       rx="2"
       cy="1028.3622"
       cx="-2.0000007"
       id="ellipse3316"
       style="fill:none;stroke:none"
       transform="scale(-1,1)"
       d="m -7.1525574e-7,1028.3622 a 2,2.0000615 0 0 1 -1.99999998474426,2 2,2.0000615 0 0 1 -2,-2 2,2.0000615 0 0 1 2,-2.0001 2,2.0000615 0 0 1 1.99999998474426,2.0001 z" />
    <ellipse
       ry="1.0000308"
       rx="1"
       cy="1028.3622"
       cx="-1.0000002"
       id="ellipse3318"
       style="fill:none;stroke:none"
       transform="scale(-1,1)"
       d="m -2.3841858e-7,1028.3622 a 1,1.0000308 0 0 1 -0.99999996158142,1 1,1.0000308 0 0 1 -1,-1 1,1.0000308 0 0 1 1,-1 1,1.0000308 0 0 1 0.99999996158142,1 z" />
  </g>
</svg>
