<?xml version="1.0" encoding="UTF-8" standalone="no"?>
<!-- Created with Inkscape (http://www.inkscape.org/) -->

<svg
   xmlns:dc="http://purl.org/dc/elements/1.1/"
   xmlns:cc="http://creativecommons.org/ns#"
   xmlns:rdf="http://www.w3.org/1999/02/22-rdf-syntax-ns#"
   xmlns:svg="http://www.w3.org/2000/svg"
   xmlns="http://www.w3.org/2000/svg"
   xmlns:sodipodi="http://sodipodi.sourceforge.net/DTD/sodipodi-0.dtd"
   xmlns:inkscape="http://www.inkscape.org/namespaces/inkscape"
   width="48"
   height="48"
   id="svg2"
   version="1.1"
   inkscape:version="0.48+devel r12347"
   sodipodi:docname="folder-download.svg">
  <defs
     id="defs4" />
  <sodipodi:namedview
     id="base"
     pagecolor="#ffffff"
     bordercolor="#666666"
     borderopacity="1.0"
     inkscape:pageopacity="0"
     inkscape:pageshadow="2"
     inkscape:zoom="6.6438575"
     inkscape:cx="20.999756"
     inkscape:cy="31.856725"
     inkscape:document-units="px"
     inkscape:current-layer="layer1"
     showgrid="false"
     inkscape:window-width="1366"
     inkscape:window-height="714"
     inkscape:window-x="0"
     inkscape:window-y="30"
     inkscape:window-maximized="1"
     width="0px"
     height="0px"
     fit-margin-top="0"
     fit-margin-left="0"
     fit-margin-right="0"
     fit-margin-bottom="0" />
  <metadata
     id="metadata7">
    <rdf:RDF>
      <cc:Work
         rdf:about="">
        <dc:format>image/svg+xml</dc:format>
        <dc:type
           rdf:resource="http://purl.org/dc/dcmitype/StillImage" />
        <dc:title />
      </cc:Work>
    </rdf:RDF>
  </metadata>
  <g
     inkscape:label="Capa 1"
     inkscape:groupmode="layer"
     id="layer1"
     transform="translate(0,-1004.3622)">
    <path
       style="fill:#894f1b;fill-opacity:1;stroke:none"
       d="m 2.5000002,1010.015 15.1766908,0 1.333812,1.3997 26.489497,0 0,26.0006 L 2.5000002,1037.4153 Z"
       id="rect823"
       inkscape:connector-curvature="0"
       sodipodi:nodetypes="ccccccc" />
    <rect
       y="1015.129"
       x="4.408514"
       height="27.433252"
       width="39.182972"
       id="rect870"
       style="fill:#ffffff;fill-opacity:1;stroke:none" />
    <rect
       style="fill:#edc15a;fill-opacity:1;stroke:none"
       id="rect821"
       width="45"
       height="29"
       x="1.5"
       y="1017.7094" />
    <rect
       y="1017.7094"
       x="1.5"
       height="0.7411893"
       width="45"
       id="rect839"
       style="fill:#ffffff;fill-opacity:0.31372549;stroke:none" />
    <rect
       style="fill:#000000;fill-opacity:0.31372549;stroke:none"
       id="rect841"
       width="45"
       height="0.7411893"
       x="1.5"
       y="1045.9683" />
    <path
       style="fill:#ffffff;fill-opacity:0.49803922;stroke:none"
       d="m 2.5000002,1010.015 0,0.5625 14.9374998,0 1.3125,1.4062 26.75,0 0,-0.5625 -26.4375,0 -0.0625,0 -1.34375,-1.4062 L 2.5000002,1010.015 Z"
       id="path843"
       inkscape:connector-curvature="0" />
    <g
       id="g4274"
       transform="matrix(0.03515625,0,0,0.03515625,15,1023.2094)"
       style="fill:#000000;fill-opacity:0.49803922">
	<path
   id="path4276"
   d="M 256,0 C 114.609,0 0,114.609 0,256 0,397.391 114.609,512 256,512 397.391,512 512,397.391 512,256 512,114.609 397.391,0 256,0 z m 0,472 C 136.703,472 40,375.297 40,256 40,136.703 136.703,40 256,40 375.297,40 472,136.703 472,256 472,375.297 375.297,472 256,472 Z"
   inkscape:connector-curvature="0"
   style="fill:#000000;fill-opacity:0.49803922" />

	<g
   id="g4278"
   style="fill:#000000;fill-opacity:0.49803922">
		<polygon
   id="polygon4280"
   points="160,320 128,320 128,384 384,384 384,320 352,320 352,352 256,352 160,352 "
   style="fill-rule:evenodd;clip-rule:evenodd;fill:#000000;fill-opacity:0.49803922" />

		<polygon
   id="polygon4282"
   points="320,256 272,256 272,128 240,128 240,256 192,256 256,336 "
   style="fill-rule:evenodd;clip-rule:evenodd;fill:#000000;fill-opacity:0.49803922" />

	</g>

</g>
  </g>
</svg>
