<?xml version="1.0" encoding="UTF-8" standalone="no"?>
<!-- Created with Inkscape (http://www.inkscape.org/) -->

<svg
   xmlns:dc="http://purl.org/dc/elements/1.1/"
   xmlns:cc="http://creativecommons.org/ns#"
   xmlns:rdf="http://www.w3.org/1999/02/22-rdf-syntax-ns#"
   xmlns:svg="http://www.w3.org/2000/svg"
   xmlns="http://www.w3.org/2000/svg"
   xmlns:sodipodi="http://sodipodi.sourceforge.net/DTD/sodipodi-0.dtd"
   xmlns:inkscape="http://www.inkscape.org/namespaces/inkscape"
   width="48"
   height="48"
   id="svg865"
   version="1.1"
   inkscape:version="0.48+devel r12347"
   sodipodi:docname="folder-dropbox.svg">
  <defs
     id="defs867" />
  <sodipodi:namedview
     id="base"
     pagecolor="#ffffff"
     bordercolor="#666666"
     borderopacity="1.0"
     inkscape:pageopacity="0.0"
     inkscape:pageshadow="2"
     inkscape:zoom="5.6568543"
     inkscape:cx="15.126029"
     inkscape:cy="27.028719"
     inkscape:document-units="px"
     inkscape:current-layer="layer1"
     showgrid="false"
     inkscape:window-width="1366"
     inkscape:window-height="714"
     inkscape:window-x="0"
     inkscape:window-y="30"
     inkscape:window-maximized="1" />
  <metadata
     id="metadata870">
    <rdf:RDF>
      <cc:Work
         rdf:about="">
        <dc:format>image/svg+xml</dc:format>
        <dc:type
           rdf:resource="http://purl.org/dc/dcmitype/StillImage" />
        <dc:title />
      </cc:Work>
    </rdf:RDF>
  </metadata>
  <g
     inkscape:label="Capa 1"
     inkscape:groupmode="layer"
     id="layer1"
     transform="translate(0,-1004.3622)">
    <path
       style="fill:#894f1b;fill-opacity:1;stroke:none"
       d="m 2.5000001,1010.015 15.1766909,0 1.333812,1.3997 26.489497,0 0,26.0006 L 2.5000001,1037.4153 Z"
       id="rect823"
       inkscape:connector-curvature="0"
       sodipodi:nodetypes="ccccccc" />
    <rect
       y="1015.129"
       x="4.408514"
       height="27.433252"
       width="39.182972"
       id="rect870"
       style="fill:#ffffff;fill-opacity:1;stroke:none" />
    <rect
       style="fill:#edc15a;fill-opacity:1;stroke:none"
       id="rect821"
       width="45"
       height="29"
       x="1.5"
       y="1017.7094" />
    <rect
       y="1017.7094"
       x="1.5"
       height="0.7411893"
       width="45"
       id="rect839"
       style="fill:#ffffff;fill-opacity:0.31372549;stroke:none" />
    <rect
       style="fill:#000000;fill-opacity:0.31372549;stroke:none"
       id="rect841"
       width="45"
       height="0.7411893"
       x="1.5"
       y="1045.9683" />
    <path
       style="fill:#ffffff;fill-opacity:0.49803922;stroke:none"
       d="m 2.5000001,1010.015 0,0.5625 14.9374999,0 1.3125,1.4062 26.75,0 0,-0.5625 -26.4375,0 -0.0625,0 -1.34375,-1.4062 L 2.5000001,1010.015 Z"
       id="path843"
       inkscape:connector-curvature="0" />
    <path
       style="fill:#000000;fill-opacity:0.49803922;stroke:none"
       d="m 19.883527,1022.7094 -6.034095,3.9994 4.136368,3.268 L 23.951699,1026.2718 z m -1.897727,7.2674 -4.136368,3.2611 6.034095,3.9995 L 23.951699,1033.6755 z m 10.130674,-7.2674 -4.068181,3.5624 5.965907,3.705 L 34.150568,1026.7088 z m 1.897726,7.2674 -5.965907,3.6987 4.068181,3.5619 L 34.150568,1033.2379 z m -6.005679,4.3278 -4.113632,3.7507 -1.977273,-1.1022 0,1.1194 6.090905,3.6369 6.090913,-3.6369 0,-1.1194 L 28.116474,1038.0553 Z"
       id="path899"
       inkscape:connector-curvature="0"
       sodipodi:nodetypes="ccccccccccccccccccccccccccccc" />
  </g>
  <g
     inkscape:groupmode="layer"
     id="layer2"
     inkscape:label="Capa 2" />
</svg>
