<?xml version="1.0" encoding="UTF-8" standalone="no"?>
<!-- Created with Inkscape (http://www.inkscape.org/) -->

<svg
   xmlns:dc="http://purl.org/dc/elements/1.1/"
   xmlns:cc="http://creativecommons.org/ns#"
   xmlns:rdf="http://www.w3.org/1999/02/22-rdf-syntax-ns#"
   xmlns:svg="http://www.w3.org/2000/svg"
   xmlns="http://www.w3.org/2000/svg"
   xmlns:sodipodi="http://sodipodi.sourceforge.net/DTD/sodipodi-0.dtd"
   xmlns:inkscape="http://www.inkscape.org/namespaces/inkscape"
   width="48"
   height="48"
   id="svg865"
   version="1.1"
   inkscape:version="0.48+devel r12667"
   sodipodi:docname="folder-public.svg">
  <defs
     id="defs867" />
  <sodipodi:namedview
     id="base"
     pagecolor="#ffffff"
     bordercolor="#666666"
     borderopacity="1.0"
     inkscape:pageopacity="0.0"
     inkscape:pageshadow="2"
     inkscape:zoom="23.625544"
     inkscape:cx="27.929126"
     inkscape:cy="37.603539"
     inkscape:document-units="px"
     inkscape:current-layer="layer1"
     showgrid="false"
     inkscape:window-width="1366"
     inkscape:window-height="716"
     inkscape:window-x="0"
     inkscape:window-y="28"
     inkscape:window-maximized="1"
     borderlayer="true"
     inkscape:showpageshadow="false"
     showguides="true"
     inkscape:guide-bbox="true">
    <sodipodi:guide
       position="0,39.000017"
       orientation="30,0"
       id="guide4110" />
    <sodipodi:guide
       position="0,9.0000174"
       orientation="0,30"
       id="guide4112" />
    <sodipodi:guide
       position="30,9.0000174"
       orientation="-30,0"
       id="guide4114" />
    <sodipodi:guide
       position="30,39.000017"
       orientation="0,-30"
       id="guide4116" />
    <sodipodi:guide
       position="30,39.000017"
       orientation="30,0"
       id="guide4118" />
    <sodipodi:guide
       position="30,9.0000174"
       orientation="0,18"
       id="guide4120" />
    <sodipodi:guide
       position="48,9.0000174"
       orientation="-30,0"
       id="guide4122" />
    <sodipodi:guide
       position="48,39.000017"
       orientation="0,-18"
       id="guide4124" />
    <sodipodi:guide
       position="4,41.000017"
       orientation="34,0"
       id="guide4164" />
    <sodipodi:guide
       position="4,7.0000174"
       orientation="0,18"
       id="guide4166" />
    <sodipodi:guide
       position="22,7.0000174"
       orientation="-34,0"
       id="guide4168" />
    <sodipodi:guide
       position="22,41.000017"
       orientation="0,-18"
       id="guide4170" />
    <sodipodi:guide
       position="6,37.0002"
       orientation="27.999817,0"
       id="guide4174" />
    <sodipodi:guide
       position="6,9.0003836"
       orientation="0,35.999992"
       id="guide4176" />
    <sodipodi:guide
       position="41.999992,9.0003836"
       orientation="-27.999817,0"
       id="guide4178" />
    <sodipodi:guide
       position="41.999992,37.0002"
       orientation="0,-35.999992"
       id="guide4180" />
    <sodipodi:guide
       position="13.999998,31.000017"
       orientation="20,0"
       id="guide3296" />
    <sodipodi:guide
       position="13.999998,11.000017"
       orientation="0,20.000002"
       id="guide3298" />
    <sodipodi:guide
       position="34,11.000017"
       orientation="-20,0"
       id="guide3300" />
    <sodipodi:guide
       position="34,31.000017"
       orientation="0,-20.000002"
       id="guide3302" />
    <sodipodi:guide
       orientation="0,1"
       position="22,22.206153"
       id="guide3361" />
    <sodipodi:guide
       orientation="0,1"
       position="22,21.269552"
       id="guide3363" />
  </sodipodi:namedview>
  <metadata
     id="metadata870">
    <rdf:RDF>
      <cc:Work
         rdf:about="">
        <dc:format>image/svg+xml</dc:format>
        <dc:type
           rdf:resource="http://purl.org/dc/dcmitype/StillImage" />
        <dc:title />
      </cc:Work>
    </rdf:RDF>
  </metadata>
  <g
     inkscape:label="Capa 1"
     inkscape:groupmode="layer"
     id="layer1"
     transform="translate(0,-1004.3622)">
    <rect
       style="fill:#34495e;fill-opacity:1;stroke:none"
       id="rect4130"
       width="18"
       height="2.0000005"
       x="4"
       y="1011.3622" />
    <rect
       y="1013.3625"
       x="4"
       height="30"
       width="40"
       id="rect4128"
       style="fill:#34495e;fill-opacity:1;stroke:none" />
    <rect
       y="1015.362"
       x="6"
       height="27.999756"
       width="35.999992"
       id="rect870"
       style="fill:#ffffff;fill-opacity:1;stroke:none" />
    <rect
       style="fill:#1abc9c;fill-opacity:1;stroke:none"
       id="rect821"
       width="43.999996"
       height="28.000008"
       x="2"
       y="1017.3622" />
    <path
       sodipodi:type="arc"
       style="fill:none;stroke:none"
       id="path3265"
       sodipodi:cx="1.9986142"
       sodipodi:cy="1028.3622"
       sodipodi:rx="2.0013857"
       sodipodi:ry="2.0000615"
       d="m 3.9999999,1028.3622 c 0,1.0472 -0.9536294,2 -2.0008996,2 -1.04727028,-10e-5 -1.999100331231884,-0.9529 -1.999100331231885,-2 0,-1.0471 0.951830051231885,-2 1.999100331231885,-2 1.0472702,-10e-5 2.0008996,0.9528 2.0008996,2 z" />
    <path
       d="m 48.000001,1028.3622 c 0,1.0472 -0.953629,2 -2.0009,2 -1.04727,-10e-5 -1.9991,-0.9529 -1.9991,-2 0,-1.0471 0.95183,-2 1.9991,-2 1.047271,-10e-5 2.0009,0.9528 2.0009,2 z"
       sodipodi:ry="2.0000615"
       sodipodi:rx="2.0013857"
       sodipodi:cy="1028.3622"
       sodipodi:cx="45.998615"
       id="path3267"
       style="fill:none;stroke:none"
       sodipodi:type="arc" />
    <path
       d="m 6,1028.3622 c 0,1.0472 -0.9536294,2 -2.0008996,2 -1.0472703,-10e-5 -1.9991003,-0.9529 -1.9991003,-2 0,-1.0471 0.95183,-2 1.9991003,-2 C 5.0463706,1026.3621 6,1027.315 6,1028.3622 Z"
       sodipodi:ry="2.0000615"
       sodipodi:rx="2.0013857"
       sodipodi:cy="1028.3622"
       sodipodi:cx="3.9986143"
       id="path3271"
       style="fill:none;stroke:none"
       sodipodi:type="arc" />
    <path
       sodipodi:type="arc"
       style="fill:none;stroke:none"
       id="path3273"
       sodipodi:cx="43.998611"
       sodipodi:cy="1028.3622"
       sodipodi:rx="2.0013857"
       sodipodi:ry="2.0000615"
       d="m 45.999997,1028.3622 c 0,1.0472 -0.953629,2 -2.000899,2 -1.047271,-10e-5 -1.999101,-0.9529 -1.999101,-2 0,-1.0471 0.95183,-2 1.999101,-2 1.04727,-10e-5 2.000899,0.9528 2.000899,2 z" />
    <path
       d="m 1.9999999,1028.3622 c 0,0.5236 -0.4768146,1 -1.00044976,1 -0.52363513,0 -0.999550155615942,-0.4765 -0.999550155615942,-1 0,-0.5236 0.475915025615942,-1 0.999550155615942,-1 0.52363516,0 1.00044976,0.4764 1.00044976,1 z"
       sodipodi:ry="1.0000308"
       sodipodi:rx="1.0006928"
       sodipodi:cy="1028.3622"
       sodipodi:cx="0.9993071"
       id="path3275"
       style="fill:none;stroke:none"
       sodipodi:type="arc" />
    <path
       sodipodi:type="arc"
       style="fill:none;stroke:none"
       id="path3277"
       sodipodi:cx="46.999306"
       sodipodi:cy="1028.3622"
       sodipodi:rx="1.0006928"
       sodipodi:ry="1.0000308"
       d="m 47.999999,1028.3622 c 0,0.5236 -0.476815,1 -1.00045,1 -0.523635,0 -0.99955,-0.4765 -0.99955,-1 0,-0.5236 0.475915,-1 0.99955,-1 0.523635,0 1.00045,0.4764 1.00045,1 z" />
    <path
       sodipodi:type="arc"
       style="fill:none;stroke:none"
       id="path4132"
       sodipodi:cx="45.998615"
       sodipodi:cy="1028.3622"
       sodipodi:rx="2.0013857"
       sodipodi:ry="2.0000615"
       d="m 48.000001,1028.3622 c 0,1.0472 -0.953629,2 -2.0009,2 -1.04727,-10e-5 -1.9991,-0.9529 -1.9991,-2 0,-1.0471 0.95183,-2 1.9991,-2 1.047271,-10e-5 2.0009,0.9528 2.0009,2 z" />
    <path
       sodipodi:type="arc"
       style="fill:none;stroke:none"
       id="path4145"
       sodipodi:cx="23.997576"
       sodipodi:cy="1048.8622"
       sodipodi:rx="3.502425"
       sodipodi:ry="3.5001078"
       d="m 27.500001,1048.8622 c 0,1.8326 -1.668852,3.5001 -3.501575,3.5 -1.832723,-10e-5 -3.498425,-1.6676 -3.498425,-3.5 0,-1.8325 1.665702,-3.4999 3.498425,-3.5 1.832723,-10e-5 3.501575,1.6673 3.501575,3.5 z" />
    <path
       d="m 25.999999,1015.3622 c 0,1.0472 -0.953629,2 -2.0009,2 -1.04727,-10e-5 -1.9991,-0.9529 -1.9991,-2 0,-1.0471 0.95183,-2 1.9991,-2 1.047271,-10e-5 2.0009,0.9528 2.0009,2 z"
       sodipodi:ry="2.0000615"
       sodipodi:rx="2.0013857"
       sodipodi:cy="1015.3622"
       sodipodi:cx="23.998613"
       id="path4147"
       style="fill:none;stroke:none"
       sodipodi:type="arc" />
    <path
       d="m 25,1016.3622 c 0,0.5236 -0.476814,1 -1.000449,1 -0.523635,0 -0.99955,-0.4765 -0.99955,-1 0,-0.5236 0.475915,-1 0.99955,-1 0.523635,0 1.000449,0.4764 1.000449,1 z"
       sodipodi:ry="1.0000308"
       sodipodi:rx="1.0006928"
       sodipodi:cy="1016.3622"
       sodipodi:cx="23.999308"
       id="path4149"
       style="fill:none;stroke:none"
       sodipodi:type="arc" />
    <path
       sodipodi:type="arc"
       style="fill:none;stroke:none"
       id="path4151"
       sodipodi:cx="23.999308"
       sodipodi:cy="1014.362"
       sodipodi:rx="1.0006928"
       sodipodi:ry="1.0000308"
       d="m 25,1014.362 c 0,0.5236 -0.476814,1 -1.000449,1 -0.523635,0 -0.99955,-0.4764 -0.99955,-1 0,-0.5236 0.475915,-1 0.99955,-1 0.523635,0 1.000449,0.4764 1.000449,1 z" />
    <path
       d="m 25,1012.3625 c 0,0.5236 -0.476814,1 -1.000449,1 -0.523635,0 -0.99955,-0.4765 -0.99955,-1 0,-0.5236 0.475915,-1 0.99955,-1 0.523635,0 1.000449,0.4764 1.000449,1 z"
       sodipodi:ry="1.0000308"
       sodipodi:rx="1.0006928"
       sodipodi:cy="1012.3625"
       sodipodi:cx="23.999308"
       id="path4153"
       style="fill:none;stroke:none"
       sodipodi:type="arc" />
    <path
       d="m 27.500001,1007.8622 c 0,1.8326 -1.668852,3.5001 -3.501575,3.5 -1.832723,-10e-5 -3.498425,-1.6676 -3.498425,-3.5 0,-1.8325 1.665702,-3.4999 3.498425,-3.5 1.832723,-10e-5 3.501575,1.6673 3.501575,3.5 z"
       sodipodi:ry="3.5001078"
       sodipodi:rx="3.502425"
       sodipodi:cy="1007.8622"
       sodipodi:cx="23.997576"
       id="path4155"
       style="fill:none;stroke:none"
       sodipodi:type="arc" />
    <rect
       style="fill:none;fill-opacity:1;fill-rule:evenodd;stroke:none"
       id="rect3292"
       width="20"
       height="20"
       x="13.999998"
       y="1021.3622" />
    <rect
       y="1039.3622"
       x="13.999998"
       height="2"
       width="7.9999986"
       id="rect3328"
       style="fill:#34495e;fill-opacity:1;fill-rule:evenodd;stroke:none" />
    <path
       style="fill:#34495e;fill-opacity:1;fill-rule:evenodd;stroke:none"
       d="M 23.998047,17 C 21.118054,17.000171 18.5,19.620439 18.5,22.5 c 0,1.265128 0.525043,2.464869 1.335938,3.429688 -1.076969,0.492882 -2.073028,1.162301 -2.910157,2 C 15.07582,29.780907 14,32.382217 14,35 c 0,0.672019 0.07424,1.342564 0.210938,2 l 2.085937,0 C 16.109538,36.352407 16,35.682476 16,35 c 0,-3.381251 2.482394,-6.514574 5.642578,-7.597656 0.179992,-0.67174 0.257813,-1.608497 0.257813,-2.185547 C 21.071367,24.558273 20.5,23.563402 20.5,22.5 20.5,20.667552 22.165324,19.000109 23.998047,19 25.83077,18.999891 27.5,20.667348 27.5,22.5 c 0,1.062602 -0.571423,2.056341 -1.400391,2.714844 -0.0037,0.578253 0.07335,1.515604 0.253907,2.189453 C 29.514454,28.487948 32,31.619276 32,35 c 0,0.682552 -0.109191,1.352354 -0.296875,2 l 2.085937,0 C 33.926122,36.3424 34,35.672052 34,35 34,32.381925 32.920681,29.780917 31.068359,27.929688 30.230935,27.092757 29.236203,26.424453 28.160156,25.931641 28.972933,24.966465 29.5,23.76619 29.5,22.5 29.5,19.620118 26.87804,16.999829 23.998047,17 Z"
       transform="translate(0,1004.3622)"
       id="path3338"
       inkscape:connector-curvature="0"
       sodipodi:nodetypes="sscssccsccsssccsccsscss" />
    <path
       d="m 25.999999,1039.3622 c 0,1.0472 -0.953629,2 -2.0009,2 -1.04727,-10e-5 -1.9991,-0.9529 -1.9991,-2 0,-1.0471 0.95183,-2 1.9991,-2 1.047271,-10e-5 2.0009,0.9528 2.0009,2 z"
       sodipodi:ry="2.0000615"
       sodipodi:rx="2.0013857"
       sodipodi:cy="1039.3622"
       sodipodi:cx="23.998613"
       id="path3309"
       style="fill:none;fill-opacity:1;fill-rule:evenodd;stroke:none"
       sodipodi:type="arc" />
    <path
       sodipodi:type="arc"
       style="fill:none;fill-opacity:1;fill-rule:evenodd;stroke:none"
       id="path3330"
       sodipodi:cx="23.999306"
       sodipodi:cy="1040.3622"
       sodipodi:rx="1.0006928"
       sodipodi:ry="1.0000308"
       d="m 24.999999,1040.3622 c 0,0.5236 -0.476815,1 -1.00045,1 -0.523635,0 -0.99955,-0.4765 -0.99955,-1 0,-0.5236 0.475915,-1 0.99955,-1 0.523635,0 1.00045,0.4764 1.00045,1 z" />
    <path
       d="m 24.999999,1022.3622 c 0,0.5236 -0.476815,1 -1.00045,1 -0.523635,0 -0.99955,-0.4765 -0.99955,-1 0,-0.5236 0.475915,-1 0.99955,-1 0.523635,0 1.00045,0.4764 1.00045,1 z"
       sodipodi:ry="1.0000308"
       sodipodi:rx="1.0006928"
       sodipodi:cy="1022.3622"
       sodipodi:cx="23.999306"
       id="path3332"
       style="fill:none;fill-opacity:1;fill-rule:evenodd;stroke:none"
       sodipodi:type="arc" />
    <path
       d="m 1032.3621,-14.999999 c 0,0.523615 -0.4768,1.000031 -1.0004,1 -0.5236,-3.1e-5 -0.9996,-0.476444 -0.9996,-1 0,-0.523557 0.476,-0.999969 0.9996,-1 0.5236,-3.1e-5 1.0004,0.476385 1.0004,1 z"
       sodipodi:ry="1.0000308"
       sodipodi:rx="1.0006928"
       sodipodi:cy="-14.999999"
       sodipodi:cx="1031.3615"
       id="path3334"
       style="fill:none;fill-opacity:1;fill-rule:evenodd;stroke:none"
       sodipodi:type="arc"
       transform="matrix(0,1,-1,0,0,0)" />
    <path
       sodipodi:type="arc"
       style="fill:none;fill-opacity:1;fill-rule:evenodd;stroke:none"
       id="path3336"
       sodipodi:cx="1031.3615"
       sodipodi:cy="-33"
       sodipodi:rx="1.0006928"
       sodipodi:ry="1.0000308"
       d="m 1032.3621,-33 c 0,0.523615 -0.4768,1.000031 -1.0004,1 -0.5236,-3.1e-5 -0.9996,-0.476444 -0.9996,-1 0,-0.523556 0.476,-0.999969 0.9996,-1 0.5236,-3.1e-5 1.0004,0.476385 1.0004,1 z"
       transform="matrix(0,1,-1,0,0,0)" />
    <rect
       style="fill:#34495e;fill-opacity:1;stroke:none"
       id="rect3305"
       width="2"
       height="4"
       x="20"
       y="1037.3622" />
    <rect
       y="1037.3622"
       x="26"
       height="4"
       width="2"
       id="rect3307"
       style="fill:#34495e;fill-opacity:1;stroke:none" />
    <rect
       style="fill:#34495e;fill-opacity:1;fill-rule:evenodd;stroke:none"
       id="rect3311"
       width="7.9999986"
       height="2"
       x="26.000002"
       y="1039.3622" />
  </g>
</svg>
