<?xml version="1.0" standalone="no"?>
<!DOCTYPE svg PUBLIC "-//W3C//DTD SVG 20010904//EN" "http://www.w3.org/TR/2001/REC-SVG-20010904/DTD/svg10.dtd">
<!-- Created using Karbon, part of Calligra: http://www.calligra.org/karbon -->
<svg xmlns="http://www.w3.org/2000/svg" xmlns:xlink="http://www.w3.org/1999/xlink" width="38.4pt" height="38.4pt">
<defs/>
<g id="layer1">
  <rect id="rect4130" transform="translate(4, 7)" fill="#34495e" width="14.40000000000pt" height="8.00000000000pt"/>
  <rect id="rect4128" transform="translate(4, 9.0003)" fill="#34495e" width="32.00000000000pt" height="24.00000000000pt"/>
  <rect id="rect870" transform="translate(6, 10.9998)" fill="#ffffff" width="28.79999360000pt" height="22.39980480000pt"/>
  <rect id="rect821" transform="translate(2, 13)" fill="#1abc9c" width="35.19999680000pt" height="22.40000640000pt"/>
  <path id="path4145" transform="translate(20.4952, 40.9999)" fill="none" d="M7.00485 3.5001C7.00485 5.43315 5.43676 7.0002 3.50243 7.0002C1.56809 7.0002 4.31067e-06 5.43315 0 3.5001C4.31067e-06 1.56705 1.56809 -4.77485e-12 3.50243 0C5.43676 -4.77485e-12 7.00485 1.56705 7.00485 3.5001Z"/>
  <path id="path4147" transform="translate(21.9972, 8.9999)" fill="none" d="M4.00277 2.0001C4.00274 3.10468 3.1067 4.0001 2.00139 4.0001C0.896075 4.0001 3.39876e-05 3.10468 3.78929e-10 2.0001C-2.12769e-05 0.895482 0.896035 3.86144e-07 2.00139 0C3.10673 -1.65783e-07 4.00279 0.895481 4.00277 2.0001Z"/>
  <path id="path4149" transform="translate(22.9986, 11)" fill="none" d="M2.00138 1C2.00137 1.55229 1.55335 2 1.00069 2C0.448038 2 1.70213e-05 1.55229 0 1C1.70213e-05 0.44771 0.448038 -1.10643e-07 1.00069 0C1.55335 4.41264e-07 2.00137 0.447711 2.00138 1Z"/>
  <path id="path4151" transform="translate(22.9986, 8.9998)" fill="none" d="M2.00138 1C2.00137 1.55229 1.55335 2 1.00069 2C0.448038 2 1.70213e-05 1.55229 0 1C1.70213e-05 0.44771 0.448038 -1.10643e-07 1.00069 0C1.55335 4.41264e-07 2.00137 0.447711 2.00138 1Z"/>
  <path id="path4153" transform="translate(22.9986, 7.0003)" fill="none" d="M2.00138 1C2.00137 1.55229 1.55335 2 1.00069 2C0.448038 2 1.70213e-05 1.55229 0 1C1.70213e-05 0.44771 0.448038 -1.10643e-07 1.00069 0C1.55335 4.41264e-07 2.00137 0.447711 2.00138 1Z"/>
  <path id="path4155" transform="translate(20.4952, -0.0001)" fill="none" d="M7.00485 3.5001C7.00485 5.43315 5.43676 7.0002 3.50243 7.0002C1.56809 7.0002 4.31067e-06 5.43315 0 3.5001C4.31067e-06 1.56705 1.56809 -4.77485e-12 3.50243 0C5.43676 -4.77485e-12 7.00485 1.56705 7.00485 3.5001Z"/>
  <rect id="rect3292" transform="translate(14, 17)" fill="none" width="16.00000000000pt" height="16.00000000000pt"/>
  <ellipse id="path3267" transform="translate(43.9972, 21.9999)" rx="1.60110856000pt" ry="1.60004920000pt" cx="1.60110856000pt" cy="1.60004920000pt" fill="none"/>
  <ellipse id="path3273" transform="translate(42, 21.9999)" rx="1.60000000000pt" ry="1.60004920000pt" cx="1.60000000000pt" cy="1.60004920000pt" fill="none"/>
  <ellipse id="path4132" transform="translate(44, 21.9999)" rx="1.60000000000pt" ry="1.60004920000pt" cx="1.60000000000pt" cy="1.60004920000pt" fill="none"/>
  <ellipse id="path3277" transform="translate(46, 23)" rx="0.80000000000pt" ry="0.80002464000pt" cx="0.80000000000pt" cy="0.80002464000pt" fill="none"/>
  <ellipse id="path3312" transform="matrix(-1 0 0 1 4.00277 21.9999)" rx="1.60110856000pt" ry="1.60004920000pt" cx="1.60110856000pt" cy="1.60004920000pt" fill="none"/>
  <ellipse id="ellipse3314" transform="matrix(-1 0 0 1 6 21.9999)" rx="1.60000000000pt" ry="1.60004920000pt" cx="1.60000000000pt" cy="1.60004920000pt" fill="none"/>
  <ellipse id="ellipse3316" transform="matrix(-1 0 0 1 4 21.9999)" rx="1.60000000000pt" ry="1.60004920000pt" cx="1.60000000000pt" cy="1.60004920000pt" fill="none"/>
  <ellipse id="ellipse3318" transform="matrix(-1 0 0 1 2 23)" rx="0.80000000000pt" ry="0.80002464000pt" cx="0.80000000000pt" cy="0.80002464000pt" fill="none"/>
  <path id="shape0" transform="translate(11.5491, 18.8416)" fill="none" stroke="#214257" stroke-width="1.77165661250" stroke-linecap="square" stroke-linejoin="miter" stroke-miterlimit="1.98425540600" d="M0 8.0909L1.92527 8.0909L3.76497 5.9558L6.54592 15.339L9.32687 7.07954L11.9367 7.07954L16.429 0L19.3383 12.923L21.1352 8.25946L24.729 8.14709"/>
 </g>
</svg>
