<svg xmlns="http://www.w3.org/2000/svg" width="48" height="48">
 <defs>
  <clipPath>
   <path d="M 0,0 0,96 96,96 96,0 0,0 z m 12,6 72,0 c 3.324,0 6,2.676 6,6 l 0,72 c 0,3.324 -2.676,6 -6,6 L 12,90 C 8.676,90 6,87.324 6,84 L 6,12 C 6,8.676 8.676,6 12,6 z"/>
  </clipPath>
  <clipPath>
   <rect width="76" height="76" rx="4" x="10" y="10" style="fill:#ffffff"/>
  </clipPath>
  <clipPath>
   <rect width="84" height="84" rx="6" x="6" y="6" style="fill:#ffffff"/>
  </clipPath>
 </defs>
 <g transform="translate(0,-1004.3622)">
  <rect width="34" height="34" x="7" y="1011.36" style="fill:#d9aa51" fill-rule="evenodd"/>
  <rect y="1015.36" x="11" height="23" width="26" style="fill:#896c38" fill-rule="evenodd"/>
  <path d="M 7,6.9257812 7,34 l 8.5,0 4.25,3 4.25,0 4.25,0 4.25,-3 8.5,0 0,-27.0742188 z M 11,11 37,11 37,30 30.5,30 25.25,34 24,34 22.75,34 17.5,30 11,30 Z" transform="translate(0,1004.3622)" style="fill:#f7d195" fill-rule="evenodd"/>
  <path d="m 38.17187,1013.3622 -17,17 2.82812,2.8281 17,-17 -2.82812,-2.8281 z" style="fill:#2ecc71" fill-rule="evenodd"/>
  <rect transform="matrix(0.70710678,-0.70710678,0.70710678,0.70710678,0,0)" y="738.35" x="-713.61" height="8.728" width="4" style="fill:#2ecc71" fill-rule="evenodd"/>
 </g>
</svg>
