<?xml version="1.0" encoding="UTF-8" standalone="no"?>
<!-- Created with Inkscape (http://www.inkscape.org/) -->

<svg
   xmlns:dc="http://purl.org/dc/elements/1.1/"
   xmlns:cc="http://creativecommons.org/ns#"
   xmlns:rdf="http://www.w3.org/1999/02/22-rdf-syntax-ns#"
   xmlns:svg="http://www.w3.org/2000/svg"
   xmlns="http://www.w3.org/2000/svg"
   xmlns:xlink="http://www.w3.org/1999/xlink"
   xmlns:sodipodi="http://sodipodi.sourceforge.net/DTD/sodipodi-0.dtd"
   xmlns:inkscape="http://www.inkscape.org/namespaces/inkscape"
   width="48"
   height="48"
   id="svg3022"
   version="1.1"
   inkscape:version="0.48+devel r12347"
   sodipodi:docname="start-here.svg">
  <defs
     id="defs3024">
    <linearGradient
       inkscape:collect="always"
       id="linearGradient1351">
      <stop
         style="stop-color:#00618e;stop-opacity:1"
         offset="0"
         id="stop1353" />
      <stop
         style="stop-color:#05aeff;stop-opacity:1"
         offset="1"
         id="stop1355" />
    </linearGradient>
    <linearGradient
       gradientTransform="matrix(0.07776006,0,0,0.07776006,-68.260823,932.43018)"
       gradientUnits="userSpaceOnUse"
       y2="1406.3594"
       x2="1036.6875"
       y1="1406.3594"
       x1="1036.5625"
       id="linearGradient1909"
       xlink:href="#linearGradient1351"
       inkscape:collect="always" />
    <linearGradient
       inkscape:collect="always"
       xlink:href="#linearGradient1351"
       id="linearGradient1198"
       gradientUnits="userSpaceOnUse"
       gradientTransform="matrix(0.07776006,0,0,0.07776006,-68.260823,932.43018)"
       x1="1241"
       y1="1320.7019"
       x2="1241"
       y2="1154.375" />
  </defs>
  <sodipodi:namedview
     id="base"
     pagecolor="#ffffff"
     bordercolor="#666666"
     borderopacity="1.0"
     inkscape:pageopacity="0.0"
     inkscape:pageshadow="2"
     inkscape:zoom="3.0953125"
     inkscape:cx="1.7031473"
     inkscape:cy="12.277206"
     inkscape:document-units="px"
     inkscape:current-layer="layer1"
     showgrid="false"
     inkscape:window-width="1366"
     inkscape:window-height="714"
     inkscape:window-x="0"
     inkscape:window-y="30"
     inkscape:window-maximized="1" />
  <metadata
     id="metadata3027">
    <rdf:RDF>
      <cc:Work
         rdf:about="">
        <dc:format>image/svg+xml</dc:format>
        <dc:type
           rdf:resource="http://purl.org/dc/dcmitype/StillImage" />
        <dc:title />
      </cc:Work>
    </rdf:RDF>
  </metadata>
  <g
     inkscape:label="Capa 1"
     inkscape:groupmode="layer"
     id="layer1"
     transform="translate(0,-1004.3622)">
    <path
       sodipodi:type="arc"
       style="fill:#282e3a;fill-opacity:1;stroke:none"
       id="path919"
       sodipodi:cx="23.38213"
       sodipodi:cy="20.821808"
       sodipodi:rx="18.374557"
       sodipodi:ry="18.374557"
       d="m 41.756687,20.821808 a 18.374557,18.374557 0 1 1 -36.7491148,0 A 18.374557,18.374557 0 1 1 41.756687,20.821808 Z"
       transform="matrix(1.1428847,0,0,1.1428847,-2.7230783,1004.5653)" />
    <g
       id="g921"
       transform="translate(2.300418,0)">
      <path
         id="path5344"
         d="m 12.352053,1014.8563 c 0,0 -7.77e-4,0 0,0.014 l -0.0096,0 0,8.7745 0,0.3842 0,4.3082 0,0.054 0,13.0783 0,0.3281 0,0.014 0,0.043 0,0.014 c 0.04186,-0.041 0.08244,-0.082 0.123938,-0.1233 l 11.540019,-6.6851 3.504061,-2.024 0.417961,-0.2405 7.741986,-4.469 -10.626401,-6.1333 c 7.45e-4,0 0.0017,0 0.0025,-0.014 L 24.006366,1021.5848 12.352053,1014.8563 z m 11.136694,12.8354 c -0.04245,0.1092 -0.08509,0.2193 -0.128789,0.3281 C 23.403617,1027.911 23.446315,1027.8011 23.488747,1027.6917 z m -1.05948,2.4131 c -0.05546,0.1115 -0.110867,0.2257 -0.167666,0.3377 -0.05635,0.1104 -0.112417,0.2226 -0.170101,0.333 -0.173444,0.3319 -0.354297,0.6595 -0.539461,0.9842 0.185366,-0.325 0.365824,-0.6521 0.539461,-0.9842 0.0579,-0.1103 0.113555,-0.2214 0.170101,-0.333 C 22.318156,1030.3309 22.374049,1030.217 22.429267,1030.1048 z m -1.066767,1.9829 c -0.06265,0.1069 -0.125647,0.2124 -0.189538,0.3183 C 21.236731,1032.3004 21.299981,1032.1941 21.3625,1032.0877 z m -0.38394,0.6366 c -0.06548,0.1059 -0.132556,0.2112 -0.19926,0.3159 C 20.846158,1032.9353 20.912953,1032.83 20.97856,1032.7243 Z"
         style="fill:url(#linearGradient1198);fill-opacity:1;stroke:none;display:inline"
         inkscape:connector-curvature="0" />
      <path
         inkscape:export-ydpi="90"
         inkscape:export-xdpi="90"
         inkscape:export-filename="/home/uri/logo.png"
         inkscape:connector-curvature="0"
         id="path5118"
         d="m 25.04395,1022.1944 c -0.879514,4.7971 -2.877925,9.201 -5.71779,12.9325 0.03797,-0.019 0.07553,-0.044 0.1142,-0.066 0.267386,-0.1451 0.539027,-0.2854 0.814047,-0.4179 0.275022,-0.1322 0.553684,-0.2572 0.835921,-0.3766 0.282238,-0.1194 0.568737,-0.232 0.857794,-0.3378 0.289027,-0.1069 0.581748,-0.2046 0.877226,-0.2966 0.295481,-0.093 0.592735,-0.1774 0.894242,-0.2549 0.301506,-0.079 0.606536,-0.1486 0.913681,-0.2116 0.307143,-0.064 0.618309,-0.1182 0.930693,-0.1651 0.312378,-0.05 0.625604,-0.089 0.942841,-0.1197 0.317201,-0.031 0.638178,-0.056 0.959847,-0.071 0.15318,-0.014 0.307581,-0.014 0.4617,-0.014 l 7.741986,-4.4684 L 25.04395,1022.1944 Z"
         style="fill:#0283c1;fill-opacity:1;stroke:none;display:inline" />
      <path
         inkscape:export-ydpi="90"
         inkscape:export-xdpi="90"
         inkscape:export-filename="/home/uri/logo.png"
         inkscape:connector-curvature="0"
         id="path1872"
         d="m 27.928365,1032.7967 c -0.15412,0 -0.308521,0 -0.461701,0.014 -0.321669,0.015 -0.642625,0.041 -0.959847,0.071 -0.317231,0.031 -0.630462,0.07 -0.94284,0.1197 -0.312385,0.05 -0.62355,0.1037 -0.930694,0.165 -0.307145,0.064 -0.612175,0.1336 -0.913681,0.2116 -0.301506,0.079 -0.598761,0.163 -0.894242,0.2548 -0.295478,0.093 -0.588177,0.191 -0.877226,0.2967 -0.289056,0.1058 -0.575555,0.2185 -0.857793,0.3377 -0.282238,0.1197 -0.5609,0.2443 -0.835922,0.3768 -0.275019,0.1322 -0.546637,0.2727 -0.814047,0.4177 -0.267417,0.1455 -0.530346,0.2969 -0.789754,0.4547 -0.259407,0.1573 -0.514446,0.3213 -0.765446,0.4907 -0.251009,0.1697 -0.496514,0.346 -0.738722,0.5274 -0.242214,0.1812 -0.481404,0.3666 -0.714428,0.5587 -0.233016,0.1925 -0.461818,0.39 -0.685251,0.5929 -0.223445,0.2034 -0.440216,0.4114 -0.653675,0.6248 -0.213459,0.2135 -0.423863,0.4325 -0.626941,0.6558 -0.203077,0.2237 -0.400611,0.4523 -0.592919,0.6855 -0.19231,0.2329 -0.37776,0.4698 -0.5589,0.712 -0.181144,0.2421 -0.357737,0.4901 -0.527315,0.7411 -0.153482,0.2272 -0.300979,0.4584 -0.444687,0.6924 L 24.006343,1035.0606 27.928365,1032.7967 Z"
         style="fill:#0075ac;fill-opacity:1;stroke:none;display:inline" />
      <path
         inkscape:connector-curvature="0"
         id="path5276"
         d="m 27.928365,1032.7967 c -0.15412,0 -0.308521,0 -0.461701,0.014 -0.321669,0.015 -0.642631,0.041 -0.959847,0.071 -0.317236,0.031 -0.63047,0.07 -0.94284,0.1197 -0.312385,0.05 -0.62355,0.1037 -0.930694,0.165 -0.307145,0.064 -0.612175,0.1336 -0.913681,0.2116 -0.301506,0.079 -0.598761,0.163 -0.894242,0.2548 -0.295478,0.093 -0.588183,0.191 -0.877226,0.2967 -0.289066,0.1058 -0.575555,0.2185 -0.857793,0.3377 -0.282238,0.1197 -0.5609,0.2443 -0.835922,0.3768 -0.275019,0.1322 -0.546644,0.2727 -0.814047,0.4177 -0.267424,0.1455 -0.530346,0.2969 -0.789754,0.4547 -0.259407,0.1573 -0.514452,0.3213 -0.765446,0.4907 -0.251017,0.1697 -0.496522,0.346 -0.738722,0.5274 -0.242222,0.1812 -0.481404,0.3666 -0.714428,0.5587 -0.233007,0.1925 -0.461823,0.39 -0.685251,0.5929 -0.223445,0.2034 -0.440216,0.4114 -0.653675,0.6248 -0.213459,0.2135 -0.423863,0.4325 -0.626941,0.6558 -0.203077,0.2237 -0.400611,0.4523 -0.592919,0.6855 -0.19231,0.2329 -0.37776,0.4698 -0.5589,0.712 -0.181144,0.2421 -0.357729,0.4901 -0.527315,0.7411 -0.153477,0.2272 -0.300979,0.4584 -0.444687,0.6924 l 0.106938,-0.059 c 0.08533,-0.1335 0.171103,-0.267 0.260006,-0.3985 0.169585,-0.251 0.346172,-0.4989 0.527315,-0.7412 0.181141,-0.2421 0.366591,-0.4789 0.5589,-0.7119 0.192308,-0.233 0.389842,-0.4619 0.59292,-0.6853 0.203078,-0.2235 0.413482,-0.4427 0.626941,-0.6562 0.213457,-0.2134 0.43023,-0.4214 0.653674,-0.6244 0.223427,-0.2031 0.452244,-0.4007 0.685253,-0.5929 0.233023,-0.1924 0.472204,-0.3778 0.714427,-0.5589 0.2422,-0.1812 0.487705,-0.3578 0.73872,-0.5274 0.250994,-0.1695 0.50604,-0.3332 0.765447,-0.4908 0.259409,-0.1577 0.522331,-0.3093 0.789755,-0.4544 0.267401,-0.1453 0.539026,-0.2855 0.814047,-0.4181 0.275022,-0.1321 0.553682,-0.2572 0.83592,-0.3766 0.282239,-0.1196 0.568729,-0.2318 0.857794,-0.3377 0.289042,-0.1059 0.581748,-0.2046 0.877227,-0.2965 0.295482,-0.093 0.592734,-0.1776 0.894241,-0.2551 0.301507,-0.079 0.606536,-0.1486 0.913681,-0.2115 0.307143,-0.064 0.618309,-0.1183 0.930693,-0.1652 0.312372,-0.05 0.625604,-0.085 0.942843,-0.1196 0.317214,-0.031 0.638176,-0.056 0.959846,-0.071 0.04034,0 0.08104,0 0.121508,0 L 27.928365,1032.7967 Z"
         style="fill:#000000;fill-opacity:0.19607843;stroke:none;display:inline" />
      <path
         sodipodi:nodetypes="cccccccccccc"
         inkscape:connector-curvature="0"
         id="path1863"
         d="m 12.352053,1014.8559 c 0,0 -7.77e-4,0 0,0.014 l -0.0096,0 0,13.4672 0,13.4598 0.0025,0 0.07048,-0.041 c 3.225341,-2.2409 5.997332,-5.0881 8.15266,-8.3761 0.0098,-0.016 0,0 0.0096,-0.016 2.179108,-3.3289 3.725569,-7.1073 4.468768,-11.1683 L 24.006318,1021.5846 Z"
         style="fill:#006797;fill-opacity:1;stroke:none;display:inline" />
      <path
         sodipodi:nodetypes="cccccccccccccccc"
         inkscape:connector-curvature="0"
         id="path5271"
         d="m 24.951594,1022.1289 c -0.775097,3.8755 -2.282647,7.485 -4.374005,10.6798 -0.0025,0 -0.0051,0 -0.0071,-0.014 -0.0024,0 -0.0051,0 -0.0071,0.014 -0.0016,0 -0.0031,0 -0.005,0.014 0.0027,0 0.0069,0 0.0096,0.014 -2.155337,3.288 -4.927319,6.1352 -8.152661,8.3763 l -0.07048,0.041 -0.0025,0 0,0.5443 0.0025,0 0.07048,-0.041 c 3.225342,-2.241 5.997324,-5.0882 8.152661,-8.376 -0.0051,0 0,0 0.0096,-0.016 C 22.75669,1030.0241 24.30316,1026.2459 25.046361,1022.1848 Z"
         style="fill:#000000;fill-opacity:0.03921569;stroke:none;display:inline" />
      <path
         inkscape:export-ydpi="90"
         inkscape:export-xdpi="90"
         inkscape:export-filename="/home/uri/logo.png"
         inkscape:connector-curvature="0"
         id="path1897"
         d="m 12.342334,1041.7876 0,0.014 c 0.0036,0 0.0064,-0.014 0.0096,-0.016 C 12.348727,1041.7826 12.345662,1041.7853 12.342334,1041.7876 Z"
         style="fill:url(#linearGradient1909);fill-opacity:1;stroke:none;display:inline" />
      <path
         inkscape:connector-curvature="0"
         id="path5200"
         d="m 12.342334,1023.6346 0,4.7483 0,13.4596 0,0.014 c 1.444556,-1.4184 2.660779,-3.0669 3.591544,-4.8869 0.508394,-1.3089 0.787318,-2.7321 0.787318,-4.2209 C 16.721196,1029.0571 15.010881,1025.7722 12.342334,1023.6346 Z"
         style="fill:#0275ac;fill-opacity:1;stroke:none;display:inline" />
      <path
         inkscape:connector-curvature="0"
         id="path1926"
         d="m 12.329582,1014.8559 0,5.0613 c 0.624621,1.6277 1.124918,3.3569 1.465144,5.1059 1.816839,2.0565 2.93029,4.7602 2.93029,7.7253 0,1.4405 -0.276624,2.8113 -0.754772,4.0846 1.292208,-2.5553 2.042324,-5.4649 2.042324,-8.5244 C 18.012625,1023.0418 15.817392,1018.2803 12.329582,1014.8559 z m 1.909129,13.1419 c 0.08735,0.9411 0.133199,1.9217 0.133194,2.886 C 14.37191,1029.9105 14.331196,1028.9462 14.238711,1027.9978 Z"
         style="fill:#002f45;fill-opacity:1;stroke:none;display:inline" />
      <path
         inkscape:connector-curvature="0"
         id="path5266"
         d="m 12.342334,1023.6355 0,0.3838 c 2.632721,2.109 4.331259,5.3346 4.376438,8.9595 0.0015,-0.079 0.0025,-0.1564 0.0025,-0.2357 C 16.721196,1029.0581 15.010881,1025.7731 12.342334,1023.6355 Z"
         style="fill:#000000;fill-opacity:0.23529412;stroke:none;display:inline" />
      <path
         inkscape:export-ydpi="90"
         inkscape:export-xdpi="90"
         inkscape:export-filename="/home/uri/logo.png"
         inkscape:connector-curvature="0"
         id="path5109"
         d="m 12.342334,1019.9346 0,8.3932 0,13.4598 c 0.0017,0 0.003,0 0.005,0 1.298788,-3.3899 2.012042,-7.0689 2.012042,-10.9156 C 14.359235,1027.015 13.644605,1023.3285 12.342334,1019.9346 Z"
         style="fill:#0086c6;fill-opacity:1;stroke:none;display:inline" />
      <path
         inkscape:connector-curvature="0"
         id="path5261"
         d="m 14.34222,1029.8757 c 0.0051,0.2267 0.0071,0.4527 0.0071,0.6805 0,3.8421 -0.711357,7.517 -2.007181,10.9034 l 0,0.328 c 0.0017,0 0.003,0 0.005,0 1.298786,-3.3899 2.012041,-7.0689 2.012041,-10.9156 C 14.359235,1030.5354 14.352751,1030.2051 14.34222,1029.8757 Z"
         style="fill:#1a1a1a;fill-opacity:0.31372549;stroke:none;display:inline" />
    </g>
  </g>
</svg>
