<svg xmlns="http://www.w3.org/2000/svg" width="48" height="48">
 <g transform="translate(0,-1004.3622)">
  <rect width="30" height="30" x="9" y="1015.36" style="fill:#bdc3c7" fill-rule="evenodd"/>
  <rect width="4" height="20" x="33" y="1019.36" style="fill:#7f8c8d" fill-rule="evenodd"/>
  <rect width="4" height="20" x="22" y="1019.36" style="fill:#7f8c8d" fill-rule="evenodd"/>
  <rect y="1019.36" x="11" height="20" width="4" style="fill:#7f8c8d" fill-rule="evenodd"/>
  <rect y="1015.36" x="6" height="7" width="36" style="fill:#bdc3c7" fill-rule="evenodd"/>
  <path d="M 17 4 L 15 9 L 15 11 L 17 11 L 17 9 L 17 4 z M 31 4 L 31 9 L 31 11 L 33 11 L 33 9 L 31 4 z " transform="translate(0,1004.3622)" style="fill:#bdc3c7" fill-rule="evenodd"/>
  <path d="M 17 4 L 17 9 L 31 9 L 31 4 L 17 4 z " transform="translate(0,1004.3622)" style="fill:#7f8c8d" fill-rule="evenodd"/>
 </g>
</svg>
