<?xml version="1.0" encoding="UTF-8" standalone="no"?>
<!-- Created with Inkscape (http://www.inkscape.org/) -->

<svg
   xmlns:dc="http://purl.org/dc/elements/1.1/"
   xmlns:cc="http://creativecommons.org/ns#"
   xmlns:rdf="http://www.w3.org/1999/02/22-rdf-syntax-ns#"
   xmlns:svg="http://www.w3.org/2000/svg"
   xmlns="http://www.w3.org/2000/svg"
   xmlns:xlink="http://www.w3.org/1999/xlink"
   xmlns:sodipodi="http://sodipodi.sourceforge.net/DTD/sodipodi-0.dtd"
   xmlns:inkscape="http://www.inkscape.org/namespaces/inkscape"
   width="32"
   height="32"
   viewBox="0 0 32 32.000001"
   id="svg2"
   version="1.1"
   inkscape:version="0.91 r13725"
   sodipodi:docname="accessories-dictionary.svg">
  <defs
     id="defs4">
    <linearGradient
       id="Shadow"
       inkscape:collect="always">
      <stop
         id="stop4181"
         offset="0"
         style="stop-color:#000000;stop-opacity:1;" />
      <stop
         id="stop4183"
         offset="1"
         style="stop-color:#000000;stop-opacity:0;" />
    </linearGradient>
    <radialGradient
       r="1.5"
       fy="28.5"
       fx="28"
       cy="28.5"
       cx="28"
       gradientTransform="matrix(3.1111458e-7,2.6666673,-1.9999997,2.3333583e-7,80.99998,973.69551)"
       gradientUnits="userSpaceOnUse"
       id="radialGradient4576-1"
       xlink:href="#Shadow"
       inkscape:collect="always" />
    <radialGradient
       r="1.5"
       fy="31.14706"
       fx="0.55971527"
       cy="31.14706"
       cx="0.55971527"
       gradientTransform="matrix(-1.9999998,2.4329792e-6,-3.2319946e-6,-2.6666666,9.119531,1131.421)"
       gradientUnits="userSpaceOnUse"
       id="radialGradient4578-6"
       xlink:href="#Shadow"
       inkscape:collect="always" />
    <linearGradient
       inkscape:collect="always"
       xlink:href="#Shadow"
       id="linearGradient4255"
       gradientUnits="userSpaceOnUse"
       gradientTransform="translate(0,1020.3622)"
       x1="16"
       y1="28"
       x2="16"
       y2="32" />
  </defs>
  <sodipodi:namedview
     id="base"
     pagecolor="#ffffff"
     bordercolor="#666666"
     borderopacity="1.0"
     inkscape:pageopacity="0.0"
     inkscape:pageshadow="2"
     inkscape:zoom="26"
     inkscape:cx="14.715059"
     inkscape:cy="15.295574"
     inkscape:document-units="px"
     inkscape:current-layer="layer1"
     showgrid="true"
     inkscape:window-width="2560"
     inkscape:window-height="1017"
     inkscape:window-x="0"
     inkscape:window-y="0"
     inkscape:window-maximized="1"
     inkscape:showpageshadow="false"
     borderlayer="true"
     units="px">
    <inkscape:grid
       type="xygrid"
       id="grid4155"
       empspacing="2" />
    <sodipodi:guide
       position="2,30.000018"
       orientation="28,0"
       id="guide4159" />
    <sodipodi:guide
       position="2,2.0000174"
       orientation="0,28"
       id="guide4161" />
    <sodipodi:guide
       position="30,2.0000174"
       orientation="-28,0"
       id="guide4163" />
    <sodipodi:guide
       position="30,30.000018"
       orientation="0,-28"
       id="guide4165" />
  </sodipodi:namedview>
  <metadata
     id="metadata7">
    <rdf:RDF>
      <cc:Work
         rdf:about="">
        <dc:format>image/svg+xml</dc:format>
        <dc:type
           rdf:resource="http://purl.org/dc/dcmitype/StillImage" />
        <dc:title />
      </cc:Work>
    </rdf:RDF>
  </metadata>
  <g
     inkscape:label="Layer 1"
     inkscape:groupmode="layer"
     id="layer1"
     transform="translate(0,-1020.3622)">
    <path
       sodipodi:nodetypes="ccccc"
       inkscape:connector-curvature="0"
       id="path4574-2"
       d="m 8,1048.3622 0,4 16,0 0,-4 z"
       style="opacity:1;fill:url(#linearGradient4255);fill-opacity:1;stroke:none;stroke-width:2;stroke-linecap:round;stroke-linejoin:round;stroke-miterlimit:4;stroke-dasharray:none;stroke-opacity:0.52777782" />
    <path
       inkscape:connector-curvature="0"
       id="path4572-1"
       d="m 8,1048.3622 -3,0 0,1 c 0,1.662 1.33799,3 3,3 l 0,-4 z"
       style="opacity:1;fill:url(#radialGradient4578-6);fill-opacity:1;stroke:none;stroke-width:2;stroke-linecap:round;stroke-linejoin:round;stroke-miterlimit:4;stroke-dasharray:none;stroke-opacity:0.52777782" />
    <path
       inkscape:connector-curvature="0"
       id="path4570-2"
       d="m 24,1048.3622 0,4 c 1.66201,0 3,-1.338 3,-3 l 0,-1 -3,0 z"
       style="opacity:1;fill:url(#radialGradient4576-1);fill-opacity:1;stroke:none;stroke-width:2;stroke-linecap:round;stroke-linejoin:round;stroke-miterlimit:4;stroke-dasharray:none;stroke-opacity:0.52777782" />
    <rect
       style="opacity:1;fill:#ba205b;fill-opacity:1;stroke:none;stroke-width:2;stroke-linecap:round;stroke-linejoin:round;stroke-miterlimit:4;stroke-dasharray:none;stroke-opacity:0.52777782"
       id="rect4582"
       width="22"
       height="26"
       x="5"
       y="1024.3622"
       ry="2.1666772" />
    <path
       style="opacity:1;fill:#e14b7a;fill-opacity:1;stroke:none;stroke-width:2;stroke-linecap:round;stroke-linejoin:round;stroke-miterlimit:4;stroke-dasharray:none;stroke-opacity:0.52777782"
       d="M 11 5 L 11 29 L 25 29 C 25.55401 29 26 28.55401 26 28 L 26 6 C 26 5.4459904 25.55401 5 25 5 L 11 5 z "
       id="path4171"
       transform="translate(0,1020.3622)" />
    <path
       style="fill:#dd366b;fill-rule:evenodd;stroke:none;stroke-width:1px;stroke-linecap:butt;stroke-linejoin:miter;stroke-opacity:1;fill-opacity:1"
       d="M 11 5 L 11 29 L 24 29 L 24 27 L 24 25 L 23 24 L 22 25 L 21 25 L 21 26 L 21 27 L 20 27 L 19 28 L 16 28 L 14 28 L 12 26 L 12 24 L 12 22 L 14 20 L 15 21 L 15 22 L 17 23 L 18 23 L 19 22 L 18 21 L 17 20 L 16 19 L 16 18 L 16 17 L 19 17 L 21 16 L 21 14 L 21 12 L 20 9 L 18 7 L 11 5 z "
       transform="translate(0,1020.3622)"
       id="path4256" />
    <path
       style="opacity:1;fill:#d02360;fill-opacity:1;stroke:none;stroke-width:2;stroke-linecap:round;stroke-linejoin:round;stroke-miterlimit:4;stroke-dasharray:none;stroke-opacity:0.52777782"
       d="M 7 5 C 6.4459904 5 6 5.4459904 6 6 L 6 28 C 6 28.55401 6.4459904 29 7 29 L 10 29 L 10 5 L 7 5 z "
       id="rect4168"
       transform="translate(0,1020.3622)" />
    <path
       style="fill:#fafafa;fill-opacity:1;stroke:none"
       d="M 16 11 C 14.338 11 13 12.338 13 14 L 13 22 L 14 22 L 14 18 L 18 18 L 18 22 L 19 22 L 19 14 C 19 12.338 17.662 11 16 11 z M 16 12 C 17.108 12 18 12.892 18 14 L 18 17 L 14 17 L 14 14 C 14 12.892 14.892 12 16 12 z M 22 18 C 20.892 18 20 18.892 20 20 C 20 21.108 20.892 22 22 22 C 22.36693 22 22.704999 21.895709 23 21.724609 L 23 22 L 24 22 L 24 20 C 24 18.892 23.108 18 22 18 z M 22 19 C 22.554 19 23 19.446 23 20 C 23 20.554 22.554 21 22 21 C 21.446 21 21 20.554 21 20 C 21 19.446 21.446 19 22 19 z "
       transform="translate(0,1020.3622)"
       id="path4230" />
  </g>
</svg>
