<?xml version="1.0" encoding="UTF-8" standalone="no"?>
<!-- Created with Inkscape (http://www.inkscape.org/) -->

<svg
   xmlns:dc="http://purl.org/dc/elements/1.1/"
   xmlns:cc="http://creativecommons.org/ns#"
   xmlns:rdf="http://www.w3.org/1999/02/22-rdf-syntax-ns#"
   xmlns:svg="http://www.w3.org/2000/svg"
   xmlns="http://www.w3.org/2000/svg"
   xmlns:xlink="http://www.w3.org/1999/xlink"
   xmlns:sodipodi="http://sodipodi.sourceforge.net/DTD/sodipodi-0.dtd"
   xmlns:inkscape="http://www.inkscape.org/namespaces/inkscape"
   width="32"
   height="32"
   viewBox="0 0 32 32.000001"
   id="svg2"
   version="1.1"
   inkscape:version="0.91 r13725"
   sodipodi:docname="cutemarked.svg">
  <defs
     id="defs4">
    <linearGradient
       inkscape:collect="always"
       id="linearGradient4313">
      <stop
         style="stop-color:#000000;stop-opacity:0.19607843"
         offset="0"
         id="stop4315" />
      <stop
         id="stop4317"
         offset="0.11111304"
         style="stop-color:#000000;stop-opacity:0" />
      <stop
         id="stop4319"
         offset="0.66666859"
         style="stop-color:#000000;stop-opacity:0.19607843;" />
      <stop
         id="stop4321"
         offset="0.7777797"
         style="stop-color:#000000;stop-opacity:0" />
      <stop
         id="stop4323"
         offset="0.7777797"
         style="stop-color:#000000;stop-opacity:0.30980393" />
      <stop
         style="stop-color:#000000;stop-opacity:0;"
         offset="1"
         id="stop4325" />
    </linearGradient>
    <linearGradient
       inkscape:collect="always"
       id="Shadow">
      <stop
         style="stop-color:#000000;stop-opacity:1;"
         offset="0"
         id="stop4181" />
      <stop
         style="stop-color:#000000;stop-opacity:0;"
         offset="1"
         id="stop4183" />
    </linearGradient>
    <radialGradient
       inkscape:collect="always"
       xlink:href="#Shadow"
       id="radialGradient4576-1"
       gradientUnits="userSpaceOnUse"
       gradientTransform="matrix(3.1111458e-7,2.6666673,-1.9999997,2.3333583e-7,80.99998,973.69551)"
       cx="28"
       cy="28.5"
       fx="28"
       fy="28.5"
       r="1.5" />
    <radialGradient
       inkscape:collect="always"
       xlink:href="#Shadow"
       id="radialGradient4578-6"
       gradientUnits="userSpaceOnUse"
       gradientTransform="matrix(-1.9999998,2.4329792e-6,-3.2319946e-6,-2.6666666,9.1195311,1131.421)"
       cx="0.55971527"
       cy="31.14706"
       fx="0.55971527"
       fy="31.14706"
       r="1.5" />
    <linearGradient
       y2="32"
       x2="16"
       y1="28"
       x1="16"
       gradientTransform="translate(1.3846069e-7,1020.3622)"
       gradientUnits="userSpaceOnUse"
       id="linearGradient4255"
       xlink:href="#Shadow"
       inkscape:collect="always" />
    <linearGradient
       inkscape:collect="always"
       xlink:href="#linearGradient4313"
       id="linearGradient4311"
       x1="17"
       y1="1039.3622"
       x2="17"
       y2="1048.3622"
       gradientUnits="userSpaceOnUse"
       gradientTransform="translate(0,1)" />
  </defs>
  <sodipodi:namedview
     id="base"
     pagecolor="#ffffff"
     bordercolor="#666666"
     borderopacity="1.0"
     inkscape:pageopacity="0.0"
     inkscape:pageshadow="2"
     inkscape:zoom="9.413359"
     inkscape:cx="3.9615077"
     inkscape:cy="6.7439333"
     inkscape:document-units="px"
     inkscape:current-layer="layer1"
     showgrid="true"
     inkscape:window-width="2560"
     inkscape:window-height="959"
     inkscape:window-x="0"
     inkscape:window-y="34"
     inkscape:window-maximized="1"
     inkscape:showpageshadow="false"
     borderlayer="true"
     units="px">
    <inkscape:grid
       type="xygrid"
       id="grid4155"
       empspacing="2" />
    <sodipodi:guide
       position="2,30.000018"
       orientation="28,0"
       id="guide4159" />
    <sodipodi:guide
       position="2,2.0000174"
       orientation="0,28"
       id="guide4161" />
    <sodipodi:guide
       position="30,2.0000174"
       orientation="-28,0"
       id="guide4163" />
    <sodipodi:guide
       position="30,30.000018"
       orientation="0,-28"
       id="guide4165" />
  </sodipodi:namedview>
  <metadata
     id="metadata7">
    <rdf:RDF>
      <cc:Work
         rdf:about="">
        <dc:format>image/svg+xml</dc:format>
        <dc:type
           rdf:resource="http://purl.org/dc/dcmitype/StillImage" />
        <dc:title />
      </cc:Work>
    </rdf:RDF>
  </metadata>
  <g
     inkscape:label="Layer 1"
     inkscape:groupmode="layer"
     id="layer1"
     transform="translate(0,-1020.3622)">
    <path
       sodipodi:nodetypes="ccccc"
       inkscape:connector-curvature="0"
       id="path4574-2"
       d="m 8.0000001,1048.3622 0,4 15.9999999,0 0,-4 z"
       style="opacity:1;fill:url(#linearGradient4255);fill-opacity:1;stroke:none;stroke-width:2;stroke-linecap:round;stroke-linejoin:round;stroke-miterlimit:4;stroke-dasharray:none;stroke-opacity:0.52777782" />
    <path
       inkscape:connector-curvature="0"
       id="path4572-1"
       d="m 8.0000001,1048.3622 -3,0 0,1 c 0,1.662 1.33799,3 3,3 l 0,-4 z"
       style="opacity:1;fill:url(#radialGradient4578-6);fill-opacity:1;stroke:none;stroke-width:2;stroke-linecap:round;stroke-linejoin:round;stroke-miterlimit:4;stroke-dasharray:none;stroke-opacity:0.52777782" />
    <path
       inkscape:connector-curvature="0"
       id="path4570-2"
       d="m 24,1048.3622 0,4 c 1.66201,0 3,-1.338 3,-3 l 0,-1 -3,0 z"
       style="opacity:1;fill:url(#radialGradient4576-1);fill-opacity:1;stroke:none;stroke-width:2;stroke-linecap:round;stroke-linejoin:round;stroke-miterlimit:4;stroke-dasharray:none;stroke-opacity:0.52777782" />
    <rect
       style="opacity:1;fill:#9e9e9e;fill-opacity:1;stroke:none;stroke-width:2;stroke-linecap:round;stroke-linejoin:round;stroke-miterlimit:4;stroke-dasharray:none;stroke-opacity:0.52777782"
       id="rect4582"
       width="22"
       height="26.999983"
       x="5"
       y="1023.3622"
       ry="2.1666772" />
    <path
       style="opacity:1;fill:#eeeeee;fill-opacity:1;stroke:none;stroke-width:2;stroke-linecap:round;stroke-linejoin:round;stroke-miterlimit:4;stroke-dasharray:none;stroke-opacity:0.52777782"
       d="M 26 10 L 6 10 L 6 28 C 6 28.55401 6.4459904 29 7 29 L 25 29 C 25.55401 29 26 28.55401 26 28 L 26 10 z "
       id="path4314"
       transform="translate(0,1020.3622)" />
    <rect
       style="opacity:1;fill:#f5f5f5;fill-opacity:1;stroke:none;stroke-width:2;stroke-linecap:round;stroke-linejoin:round;stroke-miterlimit:4;stroke-dasharray:none;stroke-opacity:1"
       id="rect4320"
       width="18"
       height="17"
       x="7"
       y="1031.3622" />
    <rect
       style="opacity:1;fill:#9e9e9e;fill-opacity:1;stroke:none;stroke-width:2;stroke-linecap:round;stroke-linejoin:round;stroke-miterlimit:4;stroke-dasharray:none;stroke-opacity:1"
       id="rect4322"
       width="20"
       height="1"
       x="6"
       y="1033.3624" />
    <path
       style="opacity:1;fill:#e0e0e0;fill-opacity:1;stroke:none;stroke-width:2;stroke-linecap:round;stroke-linejoin:round;stroke-miterlimit:4;stroke-dasharray:none;stroke-opacity:1"
       d="M 6 9 L 6 12 L 6 13 L 7 13 L 25 13 L 26 13 L 26 12 L 26 9 L 6 9 z "
       transform="translate(0,1020.3622)"
       id="rect4324" />
    <path
       style="opacity:1;fill:#616161;fill-opacity:1;stroke:none;stroke-width:2;stroke-linecap:round;stroke-linejoin:round;stroke-miterlimit:4;stroke-dasharray:none;stroke-opacity:1"
       d="m 7,1030.3622 0,1 0,1 2,0 0,-1 -1,0 0,-1 -1,0 z m 3,0 0,2 2,0 0,-2 -2,0 z m 4,0 0,1 -1,0 0,1 2,0 0,-1 0,-1 -1,0 z"
       id="rect4328"
       inkscape:connector-curvature="0" />
    <rect
       style="opacity:1;fill:#e0e0e0;fill-opacity:1;stroke:none;stroke-width:2;stroke-linecap:round;stroke-linejoin:round;stroke-miterlimit:4;stroke-dasharray:none;stroke-opacity:1"
       id="rect4338"
       width="1"
       height="2"
       x="16"
       y="1030.3622" />
    <path
       id="path4309"
       d="m 9,1040.3622 c -0.55401,0 -1,0.446 -1,1 l 0,7 c 0,0.554 0.44599,1 1,1 l 14,0 c 0.55401,0 1,-0.446 1,-1 l 0,-7 c 0,-0.554 -0.44599,-1 -1,-1 l -14,0 z m 0,1 14,0 0,7 -14,0 0,-7 z m 1,0.998 0,0 0,0.1016 0,0.7304 0,4.17 2,0 0,-2.17 1,1 1,-1 0,2.17 2,0 0,-4.17 0,-0.7304 0,-0.1016 -0.09961,0 -1.900391,0 -1,1 -1,-1.002 -0.002,0 -1.998047,0 z m 9,0 0,3 -1,0 2,2 2,-2 -1,0 0,-3 -2,0 z"
       style="opacity:1;fill:url(#linearGradient4311);fill-opacity:1;stroke:none;stroke-width:2;stroke-linecap:round;stroke-linejoin:round;stroke-miterlimit:4;stroke-dasharray:none;stroke-opacity:1"
       inkscape:connector-curvature="0" />
    <path
       style="opacity:1;fill:#616161;fill-opacity:1;stroke:none;stroke-width:2;stroke-linecap:round;stroke-linejoin:round;stroke-miterlimit:4;stroke-dasharray:none;stroke-opacity:1"
       d="m 9,1039.3622 c -0.55401,0 -1,0.446 -1,1 l 0,7 c 0,0.554 0.44599,1 1,1 l 14,0 c 0.55401,0 1,-0.446 1,-1 l 0,-7 c 0,-0.554 -0.44599,-1 -1,-1 l -14,0 z m 0,1 14,0 0,7 -14,0 0,-7 z m 1,0.998 0,0 0,0.1016 0,0.7304 0,4.17 2,0 0,-2.17 1,1 1,-1 0,2.17 2,0 0,-4.17 0,-0.7304 0,-0.1016 -0.09961,0 -1.900391,0 -1,1 -1,-1.002 -0.002,0 -1.998047,0 z m 9,0 0,3 -1,0 2,2 2,-2 -1,0 0,-3 -2,0 z"
       id="rect4277"
       inkscape:connector-curvature="0" />
    <rect
       style="opacity:1;fill:#757575;fill-opacity:1;stroke:none;stroke-width:2;stroke-linecap:round;stroke-linejoin:round;stroke-miterlimit:4;stroke-dasharray:none;stroke-opacity:1"
       id="rect4331"
       width="2"
       height="1.0000174"
       x="8"
       y="1035.3619" />
    <rect
       style="opacity:1;fill:#bdbdbd;fill-opacity:1;stroke:none;stroke-width:2;stroke-linecap:round;stroke-linejoin:round;stroke-miterlimit:4;stroke-dasharray:none;stroke-opacity:1"
       id="rect4333"
       width="12.000004"
       height="1.0000174"
       x="10.999996"
       y="1035.3619" />
    <rect
       style="opacity:1;fill:#bdbdbd;fill-opacity:1;stroke:none;stroke-width:2;stroke-linecap:round;stroke-linejoin:round;stroke-miterlimit:4;stroke-dasharray:none;stroke-opacity:1"
       id="rect4337"
       width="8"
       height="1"
       x="10.999996"
       y="1037.3619" />
    <rect
       style="opacity:1;fill:#757575;fill-opacity:1;stroke:none;stroke-width:2;stroke-linecap:round;stroke-linejoin:round;stroke-miterlimit:4;stroke-dasharray:none;stroke-opacity:1"
       id="rect4339"
       width="2"
       height="1.0000174"
       x="20"
       y="1037.3619" />
    <rect
       style="opacity:1;fill:#bdbdbd;fill-opacity:1;stroke:none;stroke-width:2;stroke-linecap:round;stroke-linejoin:round;stroke-miterlimit:4;stroke-dasharray:none;stroke-opacity:1"
       id="rect4171"
       width="1"
       height="2.0000174"
       x="16"
       y="1030.3622" />
    <path
       inkscape:connector-curvature="0"
       id="path4358"
       d="m 7,1024.3622 c -0.55401,0 -1,0.446 -1,1 l 0,4 20,0 0,-4 c 0,-0.554 -0.44599,-1 -1,-1 l -18,0 z"
       style="opacity:1;fill:#bdbdbd;fill-opacity:1;stroke:none;stroke-width:2;stroke-linecap:round;stroke-linejoin:round;stroke-miterlimit:4;stroke-dasharray:none;stroke-opacity:0.52777782" />
    <rect
       style="opacity:1;fill:#9e9e9e;fill-opacity:1;stroke:none;stroke-width:2;stroke-linecap:round;stroke-linejoin:round;stroke-miterlimit:4;stroke-dasharray:none;stroke-opacity:1"
       id="rect4356"
       width="20"
       height="1"
       x="6"
       y="1028.3622" />
    <circle
       r="1"
       cy="1026.3624"
       cx="24"
       id="circle4388"
       style="opacity:1;fill:#ef5350;fill-opacity:1;stroke:none;stroke-width:2;stroke-linecap:round;stroke-linejoin:round;stroke-miterlimit:4;stroke-dasharray:none;stroke-opacity:1" />
    <path
       style="opacity:1;fill:#616161;fill-opacity:1;stroke:none;stroke-width:2;stroke-linecap:round;stroke-linejoin:round;stroke-miterlimit:4;stroke-dasharray:none;stroke-opacity:1"
       d="M 19 10.087891 A 1.5 1.5 0 0 0 18 11.5 A 0.5 0.5 0 0 0 18.5 12 A 0.5 0.5 0 0 0 19 11.5 L 19 11 L 19 10.087891 z "
       transform="translate(0,1020.3622)"
       id="path4399" />
    <path
       id="path4413"
       d="m 20,1030.4501 a 1.5,1.5 0 0 0 -1,1.4121 0.5,0.5 0 0 0 0.5,0.5 0.5,0.5 0 0 0 0.5,-0.5 l 0,-0.5 0,-0.9121 z"
       style="opacity:1;fill:#616161;fill-opacity:1;stroke:none;stroke-width:2;stroke-linecap:round;stroke-linejoin:round;stroke-miterlimit:4;stroke-dasharray:none;stroke-opacity:1"
       inkscape:connector-curvature="0" />
    <path
       style="opacity:1;fill:#616161;fill-opacity:1;stroke:none;stroke-width:2;stroke-linecap:round;stroke-linejoin:round;stroke-miterlimit:4;stroke-dasharray:none;stroke-opacity:1"
       d="M 22 10 C 21.446 10 21 10.446 21 11 C 21 11.554 21.446 12 22 12 L 23 10 L 22 10 z M 24 10 L 23 12 L 24 12 C 24.554 12 25 11.554 25 11 C 25 10.446 24.554 10 24 10 z "
       transform="translate(0,1020.3622)"
       id="rect4419" />
  </g>
</svg>
