<?xml version="1.0" encoding="UTF-8" standalone="no"?>
<!-- Created with Inkscape (http://www.inkscape.org/) -->

<svg
   xmlns:dc="http://purl.org/dc/elements/1.1/"
   xmlns:cc="http://creativecommons.org/ns#"
   xmlns:rdf="http://www.w3.org/1999/02/22-rdf-syntax-ns#"
   xmlns:svg="http://www.w3.org/2000/svg"
   xmlns="http://www.w3.org/2000/svg"
   xmlns:xlink="http://www.w3.org/1999/xlink"
   xmlns:sodipodi="http://sodipodi.sourceforge.net/DTD/sodipodi-0.dtd"
   xmlns:inkscape="http://www.inkscape.org/namespaces/inkscape"
   width="32"
   height="32"
   viewBox="0 0 32 32.000001"
   id="svg2"
   version="1.1"
   inkscape:version="0.91 r13725"
   sodipodi:docname="gimp.svg">
  <defs
     id="defs4">
    <linearGradient
       inkscape:collect="always"
       id="Shadow">
      <stop
         style="stop-color:#000000;stop-opacity:1;"
         offset="0"
         id="stop4181" />
      <stop
         style="stop-color:#000000;stop-opacity:0;"
         offset="1"
         id="stop4183" />
    </linearGradient>
    <radialGradient
       inkscape:collect="always"
       xlink:href="#Shadow"
       id="radialGradient4576"
       gradientUnits="userSpaceOnUse"
       gradientTransform="matrix(3.1111458e-7,2.6666673,-1.9999997,2.3333583e-7,84.99998,973.69551)"
       cx="28"
       cy="28.5"
       fx="28"
       fy="28.5"
       r="1.5" />
    <radialGradient
       inkscape:collect="always"
       xlink:href="#Shadow"
       id="radialGradient4578"
       gradientUnits="userSpaceOnUse"
       gradientTransform="matrix(-1.9999998,2.4329792e-6,-3.2319946e-6,-2.6666666,5.119531,1131.421)"
       cx="0.55971527"
       cy="31.14706"
       fx="0.55971527"
       fy="31.14706"
       r="1.5" />
    <linearGradient
       inkscape:collect="always"
       xlink:href="#Shadow"
       id="linearGradient4580"
       gradientUnits="userSpaceOnUse"
       gradientTransform="translate(0,1020.3622)"
       x1="16"
       y1="28"
       x2="16"
       y2="32" />
    <linearGradient
       inkscape:collect="always"
       xlink:href="#Shadow"
       id="linearGradient4413"
       gradientUnits="userSpaceOnUse"
       gradientTransform="translate(989.36241,-1089.5197)"
       x1="42"
       y1="1084.0197"
       x2="45"
       y2="1084.0197" />
    <linearGradient
       inkscape:collect="always"
       xlink:href="#Shadow"
       id="linearGradient4448"
       gradientUnits="userSpaceOnUse"
       gradientTransform="translate(989.36241,-1110.5197)"
       x1="42"
       y1="1084.0197"
       x2="45"
       y2="1084.0197" />
    <linearGradient
       inkscape:collect="always"
       xlink:href="#Shadow"
       id="linearGradient4462"
       gradientUnits="userSpaceOnUse"
       gradientTransform="translate(1002.3629,-1089.5197)"
       x1="42"
       y1="1084.0197"
       x2="45"
       y2="1084.0197" />
    <linearGradient
       inkscape:collect="always"
       xlink:href="#Shadow"
       id="linearGradient4464"
       gradientUnits="userSpaceOnUse"
       gradientTransform="translate(1002.3629,-1110.5197)"
       x1="42"
       y1="1084.0197"
       x2="45"
       y2="1084.0197" />
  </defs>
  <sodipodi:namedview
     id="base"
     pagecolor="#ffffff"
     bordercolor="#666666"
     borderopacity="1.0"
     inkscape:pageopacity="0.0"
     inkscape:pageshadow="2"
     inkscape:zoom="26"
     inkscape:cx="16"
     inkscape:cy="16"
     inkscape:document-units="px"
     inkscape:current-layer="layer1"
     showgrid="true"
     inkscape:window-width="2560"
     inkscape:window-height="1017"
     inkscape:window-x="0"
     inkscape:window-y="0"
     inkscape:window-maximized="1"
     inkscape:showpageshadow="false"
     borderlayer="true"
     units="px"
     showguides="true"
     inkscape:guide-bbox="true">
    <inkscape:grid
       type="xygrid"
       id="grid4155"
       empspacing="2" />
    <sodipodi:guide
       position="2,30.000018"
       orientation="28,0"
       id="guide4159" />
    <sodipodi:guide
       position="2,2.0000174"
       orientation="0,28"
       id="guide4161" />
    <sodipodi:guide
       position="30,2.0000174"
       orientation="-28,0"
       id="guide4163" />
    <sodipodi:guide
       position="30,30.000018"
       orientation="0,-28"
       id="guide4165" />
    <sodipodi:guide
       position="17,14"
       orientation="0,1"
       id="guide4237" />
    <sodipodi:guide
       position="16,14"
       orientation="1,0"
       id="guide4239" />
  </sodipodi:namedview>
  <metadata
     id="metadata7">
    <rdf:RDF>
      <cc:Work
         rdf:about="">
        <dc:format>image/svg+xml</dc:format>
        <dc:type
           rdf:resource="http://purl.org/dc/dcmitype/StillImage" />
        <dc:title></dc:title>
      </cc:Work>
    </rdf:RDF>
  </metadata>
  <g
     inkscape:label="Layer 1"
     inkscape:groupmode="layer"
     id="layer1"
     transform="translate(0,-1020.3622)">
    <path
       sodipodi:nodetypes="ccccc"
       inkscape:connector-curvature="0"
       id="path4574"
       d="m 4,1048.3622 0,4 24,0 0,-4 z"
       style="opacity:1;fill:url(#linearGradient4580);fill-opacity:1;stroke:none;stroke-width:2;stroke-linecap:round;stroke-linejoin:round;stroke-miterlimit:4;stroke-dasharray:none;stroke-opacity:0.52777782" />
    <path
       inkscape:connector-curvature="0"
       id="path4572"
       d="m 4,1048.3622 -3,0 0,1 c 0,1.662 1.33799,3 3,3 l 0,-4 z"
       style="opacity:1;fill:url(#radialGradient4578);fill-opacity:1;stroke:none;stroke-width:2;stroke-linecap:round;stroke-linejoin:round;stroke-miterlimit:4;stroke-dasharray:none;stroke-opacity:0.52777782" />
    <path
       inkscape:connector-curvature="0"
       id="path4570"
       d="m 28,1048.3622 0,4 c 1.66201,0 3,-1.338 3,-3 l 0,-1 -3,0 z"
       style="opacity:1;fill:url(#radialGradient4576);fill-opacity:1;stroke:none;stroke-width:2;stroke-linecap:round;stroke-linejoin:round;stroke-miterlimit:4;stroke-dasharray:none;stroke-opacity:0.52777782" />
    <rect
       style="opacity:1;fill:#757575;fill-opacity:1;stroke:none;stroke-width:2;stroke-linecap:round;stroke-linejoin:round;stroke-miterlimit:4;stroke-dasharray:none;stroke-opacity:0.52777782"
       id="rect4163"
       width="30"
       height="23.999983"
       x="1"
       y="1026.3622"
       ry="2.0000174" />
    <rect
       style="opacity:1;fill:#eeeeee;fill-opacity:1;stroke:none;stroke-width:2;stroke-linecap:round;stroke-linejoin:round;stroke-miterlimit:4;stroke-dasharray:none;stroke-opacity:1"
       id="rect4275"
       width="28"
       height="21.999983"
       x="2"
       y="1027.3622"
       ry="1.0000174" />
    <path
       style="opacity:1;fill:#bdbdbd;fill-opacity:1;stroke:none;stroke-width:2;stroke-linecap:round;stroke-linejoin:round;stroke-miterlimit:4;stroke-dasharray:none;stroke-opacity:1"
       d="M 3 7 C 2.4459904 7 2 7.4459904 2 8 L 4 8 L 4 7 L 3 7 z M 4 8 L 4 10 L 6 10 L 6 8 L 4 8 z M 6 8 L 8 8 L 8 7 L 6 7 L 6 8 z M 8 8 L 8 10 L 10 10 L 10 8 L 8 8 z M 10 8 L 12 8 L 12 7 L 10 7 L 10 8 z M 12 8 L 12 10 L 14 10 L 14 8 L 12 8 z M 14 8 L 16 8 L 16 7 L 14 7 L 14 8 z M 16 8 L 16 10 L 18 10 L 18 8 L 16 8 z M 18 8 L 20 8 L 20 7 L 18 7 L 18 8 z M 20 8 L 20 10 L 22 10 L 22 8 L 20 8 z M 22 8 L 24 8 L 24 7 L 22 7 L 22 8 z M 24 8 L 24 10 L 26 10 L 26 8 L 24 8 z M 26 8 L 28 8 L 28 7 L 26 7 L 26 8 z M 28 8 L 28 10 L 30 10 L 30 8 L 28 8 z M 28 10 L 26 10 L 26 12 L 28 12 L 28 10 z M 28 12 L 28 14 L 30 14 L 30 12 L 28 12 z M 28 14 L 26 14 L 26 16 L 28 16 L 28 14 z M 28 16 L 28 18 L 30 18 L 30 16 L 28 16 z M 28 18 L 26 18 L 26 20 L 28 20 L 28 18 z M 28 20 L 28 22 L 30 22 L 30 20 L 28 20 z M 28 22 L 26 22 L 26 24 L 28 24 L 28 22 z M 28 24 L 28 26 L 30 26 L 30 24 L 28 24 z M 28 26 L 26 26 L 26 28 L 28 28 L 28 26 z M 28 28 L 28 29 L 29 29 C 29.55401 29 30 28.55401 30 28 L 28 28 z M 26 28 L 24 28 L 24 29 L 26 29 L 26 28 z M 24 28 L 24 26 L 22 26 L 22 28 L 24 28 z M 22 28 L 20 28 L 20 29 L 22 29 L 22 28 z M 20 28 L 20 26 L 18 26 L 18 28 L 20 28 z M 18 28 L 16 28 L 16 29 L 18 29 L 18 28 z M 16 28 L 16 26 L 14 26 L 14 28 L 16 28 z M 14 28 L 12 28 L 12 29 L 14 29 L 14 28 z M 12 28 L 12 26 L 10 26 L 10 28 L 12 28 z M 10 28 L 8 28 L 8 29 L 10 29 L 10 28 z M 8 28 L 8 26 L 6 26 L 6 28 L 8 28 z M 6 28 L 4 28 L 4 29 L 6 29 L 6 28 z M 4 28 L 4 26 L 2 26 L 2 28 L 4 28 z M 4 26 L 6 26 L 6 24 L 4 24 L 4 26 z M 4 24 L 4 22 L 2 22 L 2 24 L 4 24 z M 4 22 L 6 22 L 6 20 L 4 20 L 4 22 z M 4 20 L 4 18 L 2 18 L 2 20 L 4 20 z M 4 18 L 6 18 L 6 16 L 4 16 L 4 18 z M 4 16 L 4 14 L 2 14 L 2 16 L 4 16 z M 4 14 L 6 14 L 6 12 L 4 12 L 4 14 z M 4 12 L 4 10 L 2 10 L 2 12 L 4 12 z M 6 12 L 8 12 L 8 10 L 6 10 L 6 12 z M 8 12 L 8 14 L 10 14 L 10 12 L 8 12 z M 10 12 L 12 12 L 12 10 L 10 10 L 10 12 z M 12 12 L 12 14 L 14 14 L 14 12 L 12 12 z M 14 12 L 16 12 L 16 10 L 14 10 L 14 12 z M 16 12 L 16 14 L 18 14 L 18 12 L 16 12 z M 18 12 L 20 12 L 20 10 L 18 10 L 18 12 z M 20 12 L 20 14 L 22 14 L 22 12 L 20 12 z M 22 12 L 24 12 L 24 10 L 22 10 L 22 12 z M 24 12 L 24 14 L 26 14 L 26 12 L 24 12 z M 24 14 L 22 14 L 22 16 L 24 16 L 24 14 z M 24 16 L 24 18 L 26 18 L 26 16 L 24 16 z M 24 18 L 22 18 L 22 20 L 24 20 L 24 18 z M 24 20 L 24 22 L 26 22 L 26 20 L 24 20 z M 24 22 L 22 22 L 22 24 L 24 24 L 24 22 z M 24 24 L 24 26 L 26 26 L 26 24 L 24 24 z M 22 24 L 20 24 L 20 26 L 22 26 L 22 24 z M 20 24 L 20 22 L 18 22 L 18 24 L 20 24 z M 18 24 L 16 24 L 16 26 L 18 26 L 18 24 z M 16 24 L 16 22 L 14 22 L 14 24 L 16 24 z M 14 24 L 12 24 L 12 26 L 14 26 L 14 24 z M 12 24 L 12 22 L 10 22 L 10 24 L 12 24 z M 10 24 L 8 24 L 8 26 L 10 26 L 10 24 z M 8 24 L 8 22 L 6 22 L 6 24 L 8 24 z M 8 22 L 10 22 L 10 20 L 8 20 L 8 22 z M 8 20 L 8 18 L 6 18 L 6 20 L 8 20 z M 8 18 L 10 18 L 10 16 L 8 16 L 8 18 z M 8 16 L 8 14 L 6 14 L 6 16 L 8 16 z M 10 16 L 12 16 L 12 14 L 10 14 L 10 16 z M 12 16 L 12 18 L 14 18 L 14 16 L 12 16 z M 14 16 L 16 16 L 16 14 L 14 14 L 14 16 z M 16 16 L 16 18 L 18 18 L 18 16 L 16 16 z M 18 16 L 20 16 L 20 14 L 18 14 L 18 16 z M 20 16 L 20 18 L 22 18 L 22 16 L 20 16 z M 20 18 L 18 18 L 18 20 L 20 20 L 20 18 z M 20 20 L 20 22 L 22 22 L 22 20 L 20 20 z M 18 20 L 16 20 L 16 22 L 18 22 L 18 20 z M 16 20 L 16 18 L 14 18 L 14 20 L 16 20 z M 14 20 L 12 20 L 12 22 L 14 22 L 14 20 z M 12 20 L 12 18 L 10 18 L 10 20 L 12 20 z "
       transform="translate(0,1020.3622)"
       id="rect4245" />
    <rect
       style="opacity:1;fill:#757575;fill-opacity:1;stroke:none;stroke-width:2;stroke-linecap:round;stroke-linejoin:round;stroke-miterlimit:4;stroke-dasharray:none;stroke-opacity:1"
       id="rect4241"
       width="22"
       height="14.000017"
       x="5"
       y="1031.3622"
       ry="0" />
    <rect
       style="opacity:1;fill:#eeeeee;fill-opacity:1;stroke:none;stroke-width:2;stroke-linecap:round;stroke-linejoin:round;stroke-miterlimit:4;stroke-dasharray:none;stroke-opacity:1"
       id="rect4243"
       width="20"
       height="12.000017"
       x="6"
       y="1032.3622" />
    <rect
       transform="matrix(0,1,-1,0,0,0)"
       style="opacity:1;fill:url(#linearGradient4413);fill-opacity:1;stroke:none;stroke-width:2;stroke-linecap:round;stroke-linejoin:round;stroke-miterlimit:4;stroke-dasharray:none;stroke-opacity:1"
       id="rect4401"
       width="3"
       height="3"
       x="1031.3618"
       y="-7.0000057" />
    <rect
       y="1030.3618"
       x="4.0000057"
       height="3"
       width="3"
       id="rect4403"
       style="opacity:1;fill:#29b6f6;fill-opacity:1;stroke:none;stroke-width:2;stroke-linecap:round;stroke-linejoin:round;stroke-miterlimit:4;stroke-dasharray:none;stroke-opacity:1" />
    <rect
       y="1031.3618"
       x="5.0000057"
       height="1"
       width="1"
       id="rect4405"
       style="opacity:1;fill:#eceff1;fill-opacity:1;stroke:none;stroke-width:2;stroke-linecap:round;stroke-linejoin:round;stroke-miterlimit:4;stroke-dasharray:none;stroke-opacity:1" />
    <rect
       y="-28.00001"
       x="1031.3618"
       height="3"
       width="3"
       id="rect4442"
       style="opacity:1;fill:url(#linearGradient4448);fill-opacity:1;stroke:none;stroke-width:2;stroke-linecap:round;stroke-linejoin:round;stroke-miterlimit:4;stroke-dasharray:none;stroke-opacity:1"
       transform="matrix(0,1,-1,0,0,0)" />
    <rect
       style="opacity:1;fill:#29b6f6;fill-opacity:1;stroke:none;stroke-width:2;stroke-linecap:round;stroke-linejoin:round;stroke-miterlimit:4;stroke-dasharray:none;stroke-opacity:1"
       id="rect4444"
       width="3"
       height="3"
       x="25.00001"
       y="1030.3618" />
    <rect
       style="opacity:1;fill:#eceff1;fill-opacity:1;stroke:none;stroke-width:2;stroke-linecap:round;stroke-linejoin:round;stroke-miterlimit:4;stroke-dasharray:none;stroke-opacity:1"
       id="rect4446"
       width="1"
       height="1"
       x="26.00001"
       y="1031.3618" />
    <rect
       y="-7.0000057"
       x="1044.3621"
       height="3"
       width="3"
       id="rect4450"
       style="opacity:1;fill:url(#linearGradient4462);fill-opacity:1;stroke:none;stroke-width:2;stroke-linecap:round;stroke-linejoin:round;stroke-miterlimit:4;stroke-dasharray:none;stroke-opacity:1"
       transform="matrix(0,1,-1,0,0,0)" />
    <rect
       style="opacity:1;fill:#29b6f6;fill-opacity:1;stroke:none;stroke-width:2;stroke-linecap:round;stroke-linejoin:round;stroke-miterlimit:4;stroke-dasharray:none;stroke-opacity:1"
       id="rect4452"
       width="3"
       height="3"
       x="4.0000057"
       y="1043.3621" />
    <rect
       style="opacity:1;fill:#eceff1;fill-opacity:1;stroke:none;stroke-width:2;stroke-linecap:round;stroke-linejoin:round;stroke-miterlimit:4;stroke-dasharray:none;stroke-opacity:1"
       id="rect4454"
       width="1"
       height="1"
       x="5.0000057"
       y="1044.3621" />
    <rect
       transform="matrix(0,1,-1,0,0,0)"
       style="opacity:1;fill:url(#linearGradient4464);fill-opacity:1;stroke:none;stroke-width:2;stroke-linecap:round;stroke-linejoin:round;stroke-miterlimit:4;stroke-dasharray:none;stroke-opacity:1"
       id="rect4456"
       width="3"
       height="3"
       x="1044.3621"
       y="-28.00001" />
    <rect
       y="1043.3621"
       x="25.00001"
       height="3"
       width="3"
       id="rect4458"
       style="opacity:1;fill:#29b6f6;fill-opacity:1;stroke:none;stroke-width:2;stroke-linecap:round;stroke-linejoin:round;stroke-miterlimit:4;stroke-dasharray:none;stroke-opacity:1" />
    <rect
       y="1044.3621"
       x="26.00001"
       height="1"
       width="1"
       id="rect4460"
       style="opacity:1;fill:#eceff1;fill-opacity:1;stroke:none;stroke-width:2;stroke-linecap:round;stroke-linejoin:round;stroke-miterlimit:4;stroke-dasharray:none;stroke-opacity:1" />
    <path
       style="opacity:1;fill:#bdbdbd;fill-opacity:1;stroke:none;stroke-width:2;stroke-linecap:round;stroke-linejoin:round;stroke-miterlimit:4;stroke-dasharray:none;stroke-opacity:1"
       d="m 24.896304,1035.2007 a 8.5,8.5 0 0 1 -5.474609,3.9551 2.5,2.5 0 0 1 0.675781,1.707 2.5,2.5 0 0 1 -0.06641,0.5605 1.5,1.5 0 0 0 -1.433594,-1.0605 1.5,1.5 0 0 0 -1.5,1.5 1.5,1.5 0 0 0 1.056641,1.4336 2.5,2.5 0 0 1 -0.556641,0.066 2.5,2.5 0 0 1 -2.5,-2.5 2.5,2.5 0 0 1 0.675781,-1.7051 8.5,8.5 0 0 1 -4.683593,-2.8496 c -0.01158,1.6337 -0.08336,3.8219 -0.511719,5.1406 a 3.5,2.1631191 60 0 0 -2.2343754,-1.1191 3.5,2.1631191 60 0 0 -0.240235,0.033 1,1.5 0 0 1 0.994141,1.5 1,1.5 0 0 1 -1,1.5 1,1.5 0 0 1 -1,-1.5 1,1.5 0 0 1 0.371094,-1.1641 3.5,2.1631191 60 0 0 -0.019532,3.6641 l 4.5429694,0 10.833985,0 a 12,12 0 0 0 2.271484,-7 12,12 0 0 0 -0.201172,-2.1621 z m -12.298828,4.1621 a 1.5,1.5 0 0 1 1.5,1.5 1.5,1.5 0 0 1 -0.02539,0.2773 1,1 0 0 0 -0.974609,-0.7773 1,1 0 0 0 -1,1 1,1 0 0 0 0.775391,0.9746 1.5,1.5 0 0 1 -0.275391,0.025 1.5,1.5 0 0 1 -1.5,-1.5 1.5,1.5 0 0 1 1.5,-1.5 z"
       id="path4466"
       inkscape:connector-curvature="0" />
  </g>
</svg>
