<?xml version="1.0" encoding="UTF-8" standalone="no"?>
<!-- Created with Inkscape (http://www.inkscape.org/) -->

<svg
   xmlns:dc="http://purl.org/dc/elements/1.1/"
   xmlns:cc="http://creativecommons.org/ns#"
   xmlns:rdf="http://www.w3.org/1999/02/22-rdf-syntax-ns#"
   xmlns:svg="http://www.w3.org/2000/svg"
   xmlns="http://www.w3.org/2000/svg"
   xmlns:xlink="http://www.w3.org/1999/xlink"
   xmlns:sodipodi="http://sodipodi.sourceforge.net/DTD/sodipodi-0.dtd"
   xmlns:inkscape="http://www.inkscape.org/namespaces/inkscape"
   width="32"
   height="32"
   viewBox="0 0 32 32.000001"
   id="svg2"
   version="1.1"
   inkscape:version="0.91 r13725"
   sodipodi:docname="kdenlive.svg">
  <defs
     id="defs4">
    <linearGradient
       inkscape:collect="always"
       id="Shadow">
      <stop
         style="stop-color:#000000;stop-opacity:1;"
         offset="0"
         id="stop4181" />
      <stop
         style="stop-color:#000000;stop-opacity:0;"
         offset="1"
         id="stop4183" />
    </linearGradient>
    <radialGradient
       inkscape:collect="always"
       xlink:href="#Shadow"
       id="radialGradient4576"
       gradientUnits="userSpaceOnUse"
       gradientTransform="matrix(3.1111458e-7,2.6666673,-1.9999997,2.3333583e-7,85.99998,973.69551)"
       cx="28"
       cy="28.5"
       fx="28"
       fy="28.5"
       r="1.5" />
    <radialGradient
       inkscape:collect="always"
       xlink:href="#Shadow"
       id="radialGradient4578"
       gradientUnits="userSpaceOnUse"
       gradientTransform="matrix(-1.9999998,2.4329792e-6,-3.2319946e-6,-2.6666666,4.119531,1131.421)"
       cx="0.55971527"
       cy="31.14706"
       fx="0.55971527"
       fy="31.14706"
       r="1.5" />
    <linearGradient
       inkscape:collect="always"
       xlink:href="#Shadow"
       id="linearGradient4580"
       gradientUnits="userSpaceOnUse"
       gradientTransform="translate(0,1020.3622)"
       x1="16"
       y1="28"
       x2="16"
       y2="32" />
    <radialGradient
       gradientUnits="userSpaceOnUse"
       gradientTransform="matrix(0.66666534,0,0,0.66665938,-260.0471,687.90079)"
       r="2.9999881"
       fy="528.69775"
       fx="406.57144"
       cy="528.69775"
       cx="406.57144"
       id="radialGradient4239-2"
       xlink:href="#Shadow"
       inkscape:collect="always" />
  </defs>
  <sodipodi:namedview
     id="base"
     pagecolor="#ffffff"
     bordercolor="#666666"
     borderopacity="1.0"
     inkscape:pageopacity="0.0"
     inkscape:pageshadow="2"
     inkscape:zoom="16"
     inkscape:cx="9.2093518"
     inkscape:cy="16.656153"
     inkscape:document-units="px"
     inkscape:current-layer="layer1"
     showgrid="true"
     inkscape:window-width="2560"
     inkscape:window-height="959"
     inkscape:window-x="0"
     inkscape:window-y="34"
     inkscape:window-maximized="1"
     inkscape:showpageshadow="false"
     borderlayer="true"
     units="px">
    <inkscape:grid
       type="xygrid"
       id="grid4155"
       empspacing="2" />
    <sodipodi:guide
       position="2,30.000018"
       orientation="28,0"
       id="guide4159" />
    <sodipodi:guide
       position="2,2.0000174"
       orientation="0,28"
       id="guide4161" />
    <sodipodi:guide
       position="30,2.0000174"
       orientation="-28,0"
       id="guide4163" />
    <sodipodi:guide
       position="30,30.000018"
       orientation="0,-28"
       id="guide4165" />
  </sodipodi:namedview>
  <metadata
     id="metadata7">
    <rdf:RDF>
      <cc:Work
         rdf:about="">
        <dc:format>image/svg+xml</dc:format>
        <dc:type
           rdf:resource="http://purl.org/dc/dcmitype/StillImage" />
        <dc:title />
      </cc:Work>
    </rdf:RDF>
  </metadata>
  <g
     inkscape:label="Layer 1"
     inkscape:groupmode="layer"
     id="layer1"
     transform="translate(0,-1020.3622)">
    <path
       sodipodi:nodetypes="ccccc"
       inkscape:connector-curvature="0"
       id="path4574"
       d="m 3,1048.3622 0,4 26,0 0,-4 z"
       style="opacity:1;fill:url(#linearGradient4580);fill-opacity:1;stroke:none;stroke-width:2;stroke-linecap:round;stroke-linejoin:round;stroke-miterlimit:4;stroke-dasharray:none;stroke-opacity:0.52777782" />
    <path
       inkscape:connector-curvature="0"
       id="path4572"
       d="m 3,1048.3622 -3,0 0,1 c 0,1.662 1.33799,3 3,3 l 0,-4 z"
       style="opacity:1;fill:url(#radialGradient4578);fill-opacity:1;stroke:none;stroke-width:2;stroke-linecap:round;stroke-linejoin:round;stroke-miterlimit:4;stroke-dasharray:none;stroke-opacity:0.52777782" />
    <path
       inkscape:connector-curvature="0"
       id="path4570"
       d="m 29,1048.3622 0,4 c 1.66201,0 3,-1.338 3,-3 l 0,-1 -3,0 z"
       style="opacity:1;fill:url(#radialGradient4576);fill-opacity:1;stroke:none;stroke-width:2;stroke-linecap:round;stroke-linejoin:round;stroke-miterlimit:4;stroke-dasharray:none;stroke-opacity:0.52777782" />
    <rect
       style="opacity:1;fill:#37474f;fill-opacity:1;stroke:none;stroke-width:2;stroke-linecap:round;stroke-linejoin:round;stroke-miterlimit:4;stroke-dasharray:none;stroke-opacity:0.52777782"
       id="rect4163"
       width="32"
       height="26.999983"
       x="0"
       y="1023.3622"
       ry="2.0000174" />
    <path
       style="opacity:1;fill:#455a64;fill-opacity:1;stroke:none;stroke-width:2;stroke-linecap:round;stroke-linejoin:round;stroke-miterlimit:4;stroke-dasharray:none;stroke-opacity:1"
       d="M 31 23 L 1 23 L 1 28 C 1 28.55401 1.4459904 29 2 29 L 30 29 C 30.55401 29 31 28.55401 31 28 L 31 23 z "
       id="path4200"
       transform="translate(0,1020.3622)" />
    <rect
       style="opacity:1;fill:#2196f3;fill-opacity:1;stroke:none;stroke-width:2;stroke-linecap:round;stroke-linejoin:round;stroke-miterlimit:4;stroke-dasharray:none;stroke-opacity:1"
       id="rect4317"
       width="6.999999"
       height="1.9999198"
       x="8.000001"
       y="1044.3623"
       ry="0" />
    <rect
       style="opacity:1;fill:#7e57c2;fill-opacity:1;stroke:none;stroke-width:2;stroke-linecap:round;stroke-linejoin:round;stroke-miterlimit:4;stroke-dasharray:none;stroke-opacity:1"
       id="rect4319"
       width="5.0000038"
       height="2.0000174"
       x="15.999996"
       y="1044.3622" />
    <rect
       style="opacity:1;fill:#ab47bc;fill-opacity:1;stroke:none;stroke-width:2;stroke-linecap:round;stroke-linejoin:round;stroke-miterlimit:4;stroke-dasharray:none;stroke-opacity:1"
       id="rect4321"
       width="8"
       height="2.0000174"
       x="22"
       y="1044.3622" />
    <path
       style="opacity:1;fill:#90a4ae;fill-opacity:1;stroke:none;stroke-width:2;stroke-linecap:round;stroke-linejoin:round;stroke-miterlimit:4;stroke-dasharray:none;stroke-opacity:1"
       d="m 4,1047.3622 0,2 1,0 0,-2 -1,0 z m 4,0 0,2 1,0 0,-2 -1,0 z m 4,0 0,2 1,0 0,-2 -1,0 z m 4,0 0,2 1,0 0,-2 -1,0 z m 4,0 0,2 1,0 0,-2 -1,0 z m 4,0 0,2 1,0 0,-2 -1,0 z m -18,1 0,1 1,0 0,-1 -1,0 z m 4,0 0,1 1,0 0,-1 -1,0 z m 4,0 0,1 1,0 0,-1 -1,0 z m 4,0 0,1 1,0 0,-1 -1,0 z m 4,0 0,1 1,0 0,-1 -1,0 z m 4,0 0,1 1,0 0,-1 -1,0 z"
       id="rect4331"
       inkscape:connector-curvature="0" />
    <rect
       style="opacity:1;fill:#ec407a;fill-opacity:1;stroke:none;stroke-width:2;stroke-linecap:round;stroke-linejoin:round;stroke-miterlimit:4;stroke-dasharray:none;stroke-opacity:1"
       id="rect4409"
       width="1"
       height="5"
       x="27"
       y="1044.3622" />
    <path
       style="opacity:1;fill:#455a64;fill-opacity:1;stroke:none;stroke-width:2;stroke-linecap:round;stroke-linejoin:round;stroke-miterlimit:4;stroke-dasharray:none;stroke-opacity:1"
       d="M 2,4 C 1.4459904,4 1,4.4459904 1,5 l 0,16 0,1 1,0 28,0 1,0 0,-1 0,-16 C 31,4.4459904 30.55401,4 30,4 Z"
       transform="translate(0,1020.3622)"
       id="rect4310"
       inkscape:connector-curvature="0"
       sodipodi:nodetypes="ssccccccsss" />
    <path
       style="fill:#eceff1;fill-opacity:1;fill-rule:evenodd;stroke:none;stroke-width:1px;stroke-linecap:butt;stroke-linejoin:miter;stroke-opacity:1"
       d="m 25,1037.3622 0,2 1,0 0,-1 1,0 0,-1 -2,0 z m 3,0 0,1 1,0 0,1 1,0 0,-2 -2,0 z m -3,3 0,2 2,0 0,-1 -1,0 0,-1 -1,0 z m 4,0 0,1 -1,0 0,1 2,0 0,-2 -1,0 z"
       id="path4365"
       inkscape:connector-curvature="0" />
    <path
       style="opacity:1;fill:#ffd54f;fill-opacity:1;stroke:none;stroke-width:2;stroke-linecap:round;stroke-linejoin:round;stroke-miterlimit:4;stroke-dasharray:none;stroke-opacity:1"
       d="m 27.5,1041.3622 c -0.828427,0 -1.5,0.6716 -1.5,1.5 0,0.8284 1,3.5 1.5,3.5 0.5,0 1.5,-2.6716 1.5,-3.5 0,-0.8284 -0.671573,-1.5 -1.5,-1.5 z m 0,1 c 0.276142,0 0.5,0.2239 0.5,0.5 0,0.2761 -0.223858,0.5 -0.5,0.5 -0.276142,0 -0.5,-0.2239 -0.5,-0.5 0,-0.2761 0.223858,-0.5 0.5,-0.5 z"
       id="path4403"
       inkscape:connector-curvature="0"
       sodipodi:nodetypes="ssssssssss" />
    <rect
       style="opacity:1;fill:#26c6da;fill-opacity:1;stroke:none;stroke-width:2;stroke-linecap:round;stroke-linejoin:round;stroke-miterlimit:4;stroke-dasharray:none;stroke-opacity:1"
       id="rect4777"
       width="5"
       height="1.9999826"
       x="2"
       y="1044.3622" />
    <path
       style="fill:#eceff1;fill-opacity:1;fill-rule:evenodd;stroke:none;stroke-width:1px;stroke-linecap:butt;stroke-linejoin:miter;stroke-opacity:1"
       d="m 2,1041.3622 0,-4 3,2 z"
       id="path4320"
       inkscape:connector-curvature="0" />
    <path
       style="opacity:1;fill:#42a5f5;fill-opacity:1;stroke:none;stroke-width:2;stroke-linecap:round;stroke-linejoin:round;stroke-miterlimit:4;stroke-dasharray:none;stroke-opacity:1"
       d="M 12 18 L 7 18 C 6.446 18 6 18.446 6 19 C 6 19.554 6.446 20 7 20 L 12 20 L 12 18 z "
       id="path4328"
       transform="translate(0,1020.3622)" />
    <path
       style="opacity:1;fill:#eceff1;fill-opacity:1;stroke:none;stroke-width:2;stroke-linecap:round;stroke-linejoin:round;stroke-miterlimit:4;stroke-dasharray:none;stroke-opacity:1"
       d="m 12,18 0,2 11,0 c 0.554,0 1,-0.446 1,-1 0,-0.554 -0.446,-1 -1,-1 z"
       id="rect4323"
       transform="translate(0,1020.3622)"
       inkscape:connector-curvature="0"
       sodipodi:nodetypes="ccsssc" />
    <ellipse
       style="opacity:1;fill:url(#radialGradient4239-2);fill-opacity:1;stroke:none;stroke-width:2;stroke-linecap:round;stroke-linejoin:round;stroke-miterlimit:4;stroke-dasharray:none;stroke-opacity:1"
       id="ellipse4235-1"
       cx="10.999989"
       cy="1040.3622"
       rx="1.9999881"
       ry="1.9999685" />
    <ellipse
       ry="1.9999685"
       rx="1.9999881"
       cy="1039.3625"
       cx="10.999989"
       id="path4229-9"
       style="opacity:1;fill:#78909c;fill-opacity:1;stroke:none;stroke-width:2;stroke-linecap:round;stroke-linejoin:round;stroke-miterlimit:4;stroke-dasharray:none;stroke-opacity:1" />
    <ellipse
       style="opacity:1;fill:#607d8b;fill-opacity:1;stroke:none;stroke-width:2;stroke-linecap:round;stroke-linejoin:round;stroke-miterlimit:4;stroke-dasharray:none;stroke-opacity:1"
       id="ellipse4231-8"
       cx="10.999989"
       cy="1039.3625"
       rx="0.99999201"
       ry="0.99998236" />
    <path
       style="opacity:1;fill:#263238;fill-opacity:1;stroke:none;stroke-width:2;stroke-linecap:round;stroke-linejoin:round;stroke-miterlimit:4;stroke-dasharray:none;stroke-opacity:1"
       d="m 2,1025.3622 0,1 1,0 0,-1 z m 3,0 0,1 2,0 0,-1 z m 4,0 0,1 2,0 0,-1 z m 4,0 0,1 2,0 0,-1 z m 4,0 0,1 2,0 0,-1 z m 4,0 0,1 2,0 0,-1 z m 4,0 0,1 2,0 0,-1 z m 4,0 0,1 1,0 0,-1 z"
       id="rect4392-1"
       inkscape:connector-curvature="0"
       sodipodi:nodetypes="cccccccccccccccccccccccccccccccccccccccc" />
    <rect
       style="opacity:1;fill:#37474f;fill-opacity:1;stroke:none;stroke-width:2;stroke-linecap:round;stroke-linejoin:round;stroke-miterlimit:4;stroke-dasharray:none;stroke-opacity:1"
       id="rect4425"
       width="5"
       height="8"
       x="3"
       y="1028.3622"
       ry="1.7382812e-05" />
    <rect
       style="opacity:1;fill:#81d4fa;fill-opacity:1;stroke:none;stroke-width:2;stroke-linecap:round;stroke-linejoin:round;stroke-miterlimit:4;stroke-dasharray:none;stroke-opacity:1"
       id="rect4427"
       width="3"
       height="6"
       x="4"
       y="1029.3622"
       ry="1.7382799e-05" />
    <rect
       ry="1.7382812e-05"
       y="1028.3622"
       x="9"
       height="8.0000172"
       width="14"
       id="rect4429"
       style="opacity:1;fill:#37474f;fill-opacity:1;stroke:none;stroke-width:2;stroke-linecap:round;stroke-linejoin:round;stroke-miterlimit:4;stroke-dasharray:none;stroke-opacity:1" />
    <rect
       ry="1.7382799e-05"
       y="1029.3622"
       x="10"
       height="6.0000172"
       width="12"
       id="rect4431"
       style="opacity:1;fill:#81d4fa;fill-opacity:1;stroke:none;stroke-width:2;stroke-linecap:round;stroke-linejoin:round;stroke-miterlimit:4;stroke-dasharray:none;stroke-opacity:1" />
    <rect
       style="opacity:1;fill:#37474f;fill-opacity:1;stroke:none;stroke-width:2;stroke-linecap:round;stroke-linejoin:round;stroke-miterlimit:4;stroke-dasharray:none;stroke-opacity:1"
       id="rect4433"
       width="5"
       height="8"
       x="24.000004"
       y="1028.3622"
       ry="1.7382812e-05" />
    <rect
       style="opacity:1;fill:#81d4fa;fill-opacity:1;stroke:none;stroke-width:2;stroke-linecap:round;stroke-linejoin:round;stroke-miterlimit:4;stroke-dasharray:none;stroke-opacity:1"
       id="rect4435"
       width="3"
       height="6"
       x="25.000004"
       y="1029.3622"
       ry="1.7382799e-05" />
    <path
       style="fill:#26a69a;fill-rule:evenodd;stroke:none;stroke-width:1px;stroke-linecap:butt;stroke-linejoin:miter;stroke-opacity:1;fill-opacity:1"
       d="m 4,1030.3622 1,1 1,1 0,1 1,1 0,1 -3,0 z"
       id="path4437"
       inkscape:connector-curvature="0" />
    <path
       style="fill:#009688;fill-rule:evenodd;stroke:none;stroke-width:1px;stroke-linecap:butt;stroke-linejoin:miter;stroke-opacity:1;fill-opacity:1"
       d="m 6,1032.3622 -1,1 1,1 -1,1 2,0 0,-1 -1,-1 z"
       id="path4439"
       inkscape:connector-curvature="0" />
    <path
       style="fill:#26a69a;fill-rule:evenodd;stroke:none;stroke-width:1px;stroke-linecap:butt;stroke-linejoin:miter;stroke-opacity:1;fill-opacity:1"
       d="m 10,1035.3622 1,-1 2,-1 1,0 1,-1 1,-1 2,0 1,-1 1,-1 1,0 1,1 0,5 z"
       id="path4441"
       inkscape:connector-curvature="0" />
    <path
       style="fill:#00897b;fill-rule:evenodd;stroke:none;stroke-width:1px;stroke-linecap:butt;stroke-linejoin:miter;stroke-opacity:1;fill-opacity:1"
       d="m 21,1029.3622 1,1 0,4 -2,-2 0,-1 z"
       id="path4445"
       inkscape:connector-curvature="0" />
    <path
       style="fill:#26a69a;fill-rule:evenodd;stroke:none;stroke-width:1px;stroke-linecap:butt;stroke-linejoin:miter;stroke-opacity:1;fill-opacity:1"
       d="m 25,1033.3622 1,0 1,1 1,1 -3,0 z"
       id="path4447"
       inkscape:connector-curvature="0" />
    <path
       style="fill:#00897b;fill-rule:evenodd;stroke:none;stroke-width:1px;stroke-linecap:butt;stroke-linejoin:miter;stroke-opacity:1;fill-opacity:1"
       d="m 26,1033.3622 0,1 1,1 1,0 -2,-2 z"
       id="path4449"
       inkscape:connector-curvature="0" />
  </g>
</svg>
