<?xml version="1.0" encoding="UTF-8" standalone="no"?>
<!-- Created with Inkscape (http://www.inkscape.org/) -->

<svg
   xmlns:dc="http://purl.org/dc/elements/1.1/"
   xmlns:cc="http://creativecommons.org/ns#"
   xmlns:rdf="http://www.w3.org/1999/02/22-rdf-syntax-ns#"
   xmlns:svg="http://www.w3.org/2000/svg"
   xmlns="http://www.w3.org/2000/svg"
   xmlns:xlink="http://www.w3.org/1999/xlink"
   xmlns:sodipodi="http://sodipodi.sourceforge.net/DTD/sodipodi-0.dtd"
   xmlns:inkscape="http://www.inkscape.org/namespaces/inkscape"
   width="32"
   height="32"
   viewBox="0 0 32 32.000001"
   id="svg2"
   version="1.1"
   inkscape:version="0.91 r13725"
   sodipodi:docname="preferences-desktop-accessibility.svg">
  <defs
     id="defs4">
    <radialGradient
       gradientTransform="matrix(1.0833333,0,0,1.0833333,-1.3333333,-87.696801)"
       inkscape:collect="always"
       xlink:href="#linearGradient4163"
       id="radialGradient4169"
       cx="16"
       cy="1040.3622"
       fx="16"
       fy="1040.3622"
       r="12"
       gradientUnits="userSpaceOnUse" />
    <linearGradient
       id="linearGradient4163"
       inkscape:collect="always">
      <stop
         id="stop4166"
         offset="0"
         style="stop-color:#000000;stop-opacity:1;" />
      <stop
         style="stop-color:#000000;stop-opacity:1"
         offset="0.69230777"
         id="stop4170" />
      <stop
         id="stop4168"
         offset="1"
         style="stop-color:#000000;stop-opacity:0;" />
    </linearGradient>
  </defs>
  <sodipodi:namedview
     id="base"
     pagecolor="#ffffff"
     bordercolor="#666666"
     borderopacity="1.0"
     inkscape:pageopacity="0.0"
     inkscape:pageshadow="2"
     inkscape:zoom="32"
     inkscape:cx="13.636803"
     inkscape:cy="14.558582"
     inkscape:document-units="px"
     inkscape:current-layer="layer1"
     showgrid="true"
     inkscape:window-width="2560"
     inkscape:window-height="1017"
     inkscape:window-x="0"
     inkscape:window-y="0"
     inkscape:window-maximized="1"
     inkscape:showpageshadow="false"
     borderlayer="true"
     units="px">
    <inkscape:grid
       type="xygrid"
       id="grid4155"
       empspacing="2" />
    <sodipodi:guide
       position="2,30.000018"
       orientation="28,0"
       id="guide4159" />
    <sodipodi:guide
       position="2,2.0000174"
       orientation="0,28"
       id="guide4161" />
    <sodipodi:guide
       position="30,2.0000174"
       orientation="-28,0"
       id="guide4163" />
    <sodipodi:guide
       position="30,30.000018"
       orientation="0,-28"
       id="guide4165" />
  </sodipodi:namedview>
  <metadata
     id="metadata7">
    <rdf:RDF>
      <cc:Work
         rdf:about="">
        <dc:format>image/svg+xml</dc:format>
        <dc:type
           rdf:resource="http://purl.org/dc/dcmitype/StillImage" />
        <dc:title />
      </cc:Work>
    </rdf:RDF>
  </metadata>
  <g
     inkscape:label="Layer 1"
     inkscape:groupmode="layer"
     id="layer1"
     transform="translate(0,-1020.3622)">
    <circle
       style="opacity:1;fill:url(#radialGradient4169);fill-opacity:1;stroke:none;stroke-width:2;stroke-linecap:round;stroke-linejoin:round;stroke-miterlimit:4;stroke-dasharray:none;stroke-opacity:1"
       id="path4153"
       cx="16"
       cy="1039.3622"
       r="13" />
    <circle
       r="13"
       cy="1037.3623"
       cx="16"
       id="circle4174"
       style="opacity:1;fill:#2196f3;fill-opacity:1;stroke:none;stroke-width:2;stroke-linecap:round;stroke-linejoin:round;stroke-miterlimit:4;stroke-dasharray:none;stroke-opacity:1" />
    <circle
       style="opacity:1;fill:#42a5f5;fill-opacity:1;stroke:none;stroke-width:2;stroke-linecap:round;stroke-linejoin:round;stroke-miterlimit:4;stroke-dasharray:none;stroke-opacity:1"
       id="circle4176"
       cx="16"
       cy="1037.3623"
       r="12" />
    <path
       style="opacity:1;fill:#e3f2fd;fill-opacity:1;stroke:none;stroke-width:2;stroke-linecap:round;stroke-linejoin:round;stroke-miterlimit:4;stroke-dasharray:none;stroke-opacity:1"
       d="m 16,1028.3622 a 2,2 0 0 0 -2,2 2,2 0 0 0 2,2 2,2 0 0 0 2,-2 2,2 0 0 0 -2,-2 z m -6,5 c -0.554,0 -1,0.446 -1,1 0,0.554 0.446,1 1,1 l 3,0 0,4 0,6 c 0,0.554 0.446,1 1,1 0.554,0 1,-0.446 1,-1 l 0,-5 2,0 0,5 c 0,0.554 0.446,1 1,1 0.554,0 1,-0.446 1,-1 l 0,-6 0,-4 3,0 c 0.554,0 1,-0.446 1,-1 0,-0.554 -0.446,-1 -1,-1 l -12,0 z"
       id="path4180"
       inkscape:connector-curvature="0" />
  </g>
</svg>
