<?xml version="1.0" encoding="UTF-8" standalone="no"?>
<!-- Created with Inkscape (http://www.inkscape.org/) -->

<svg
   xmlns:dc="http://purl.org/dc/elements/1.1/"
   xmlns:cc="http://creativecommons.org/ns#"
   xmlns:rdf="http://www.w3.org/1999/02/22-rdf-syntax-ns#"
   xmlns:svg="http://www.w3.org/2000/svg"
   xmlns="http://www.w3.org/2000/svg"
   xmlns:xlink="http://www.w3.org/1999/xlink"
   xmlns:sodipodi="http://sodipodi.sourceforge.net/DTD/sodipodi-0.dtd"
   xmlns:inkscape="http://www.inkscape.org/namespaces/inkscape"
   width="32"
   height="32"
   viewBox="0 0 32 32.000001"
   id="svg2"
   version="1.1"
   inkscape:version="0.91 r13725"
   sodipodi:docname="preferences-desktop-gaming.svg">
  <defs
     id="defs4">
    <linearGradient
       inkscape:collect="always"
       id="Shadow">
      <stop
         style="stop-color:#000000;stop-opacity:1;"
         offset="0"
         id="stop4181" />
      <stop
         style="stop-color:#000000;stop-opacity:0;"
         offset="1"
         id="stop4183" />
    </linearGradient>
    <radialGradient
       inkscape:collect="always"
       xlink:href="#Shadow"
       id="radialGradient4576"
       gradientUnits="userSpaceOnUse"
       gradientTransform="matrix(3.1111458e-7,2.6666673,-1.9999997,2.3333583e-7,85.99998,973.69551)"
       cx="28"
       cy="28.5"
       fx="28"
       fy="28.5"
       r="1.5" />
    <radialGradient
       inkscape:collect="always"
       xlink:href="#Shadow"
       id="radialGradient4578"
       gradientUnits="userSpaceOnUse"
       gradientTransform="matrix(-1.9999998,2.4329792e-6,-3.2319946e-6,-2.6666666,4.119531,1131.421)"
       cx="0.55971527"
       cy="31.14706"
       fx="0.55971527"
       fy="31.14706"
       r="1.5" />
    <linearGradient
       inkscape:collect="always"
       xlink:href="#Shadow"
       id="linearGradient4580"
       gradientUnits="userSpaceOnUse"
       gradientTransform="translate(0,1020.3622)"
       x1="16"
       y1="28"
       x2="16"
       y2="32" />
    <linearGradient
       inkscape:collect="always"
       xlink:href="#Shadow"
       id="linearGradient4162"
       x1="7"
       y1="1039.3622"
       x2="7"
       y2="1046.3622"
       gradientUnits="userSpaceOnUse" />
    <radialGradient
       inkscape:collect="always"
       xlink:href="#Shadow"
       id="radialGradient4172"
       cx="23"
       cy="1045.3618"
       fx="23"
       fy="1045.3618"
       r="1.9999995"
       gradientTransform="matrix(1,0,0,0.99999249,0,0.00785086)"
       gradientUnits="userSpaceOnUse" />
    <radialGradient
       inkscape:collect="always"
       xlink:href="#Shadow"
       id="radialGradient4174"
       cx="1041.3621"
       cy="-26.999996"
       fx="1041.3621"
       fy="-26.999996"
       r="1.9999845"
       gradientTransform="matrix(1,0,0,1.0000075,0,2.0277654e-4)"
       gradientUnits="userSpaceOnUse" />
    <linearGradient
       inkscape:collect="always"
       xlink:href="#Shadow"
       id="linearGradient4178"
       x1="14"
       y1="1045.3622"
       x2="14"
       y2="1047.3622"
       gradientUnits="userSpaceOnUse" />
    <linearGradient
       gradientTransform="translate(4,-1.7187404e-8)"
       inkscape:collect="always"
       xlink:href="#Shadow"
       id="linearGradient4178-4"
       x1="14"
       y1="1045.3622"
       x2="14"
       y2="1047.3622"
       gradientUnits="userSpaceOnUse" />
  </defs>
  <sodipodi:namedview
     id="base"
     pagecolor="#ffffff"
     bordercolor="#666666"
     borderopacity="1.0"
     inkscape:pageopacity="0.0"
     inkscape:pageshadow="2"
     inkscape:zoom="36.769553"
     inkscape:cx="21.015056"
     inkscape:cy="11.113545"
     inkscape:document-units="px"
     inkscape:current-layer="layer1"
     showgrid="true"
     inkscape:window-width="2560"
     inkscape:window-height="1017"
     inkscape:window-x="0"
     inkscape:window-y="0"
     inkscape:window-maximized="1"
     inkscape:showpageshadow="false"
     borderlayer="true"
     units="px">
    <inkscape:grid
       type="xygrid"
       id="grid4155"
       empspacing="2" />
    <sodipodi:guide
       position="2,30.000018"
       orientation="28,0"
       id="guide4159" />
    <sodipodi:guide
       position="2,2.0000174"
       orientation="0,28"
       id="guide4161" />
    <sodipodi:guide
       position="30,2.0000174"
       orientation="-28,0"
       id="guide4163" />
    <sodipodi:guide
       position="30,30.000018"
       orientation="0,-28"
       id="guide4165" />
  </sodipodi:namedview>
  <metadata
     id="metadata7">
    <rdf:RDF>
      <cc:Work
         rdf:about="">
        <dc:format>image/svg+xml</dc:format>
        <dc:type
           rdf:resource="http://purl.org/dc/dcmitype/StillImage" />
        <dc:title />
      </cc:Work>
    </rdf:RDF>
  </metadata>
  <g
     inkscape:label="Layer 1"
     inkscape:groupmode="layer"
     id="layer1"
     transform="translate(0,-1020.3622)">
    <path
       sodipodi:nodetypes="ccccc"
       inkscape:connector-curvature="0"
       id="path4574"
       d="m 3,1048.3622 0,4 26,0 0,-4 z"
       style="opacity:1;fill:url(#linearGradient4580);fill-opacity:1;stroke:none;stroke-width:2;stroke-linecap:round;stroke-linejoin:round;stroke-miterlimit:4;stroke-dasharray:none;stroke-opacity:0.52777782" />
    <path
       inkscape:connector-curvature="0"
       id="path4572"
       d="m 3,1048.3622 -3,0 0,1 c 0,1.662 1.33799,3 3,3 l 0,-4 z"
       style="opacity:1;fill:url(#radialGradient4578);fill-opacity:1;stroke:none;stroke-width:2;stroke-linecap:round;stroke-linejoin:round;stroke-miterlimit:4;stroke-dasharray:none;stroke-opacity:0.52777782" />
    <path
       inkscape:connector-curvature="0"
       id="path4570"
       d="m 29,1048.3622 0,4 c 1.66201,0 3,-1.338 3,-3 l 0,-1 -3,0 z"
       style="opacity:1;fill:url(#radialGradient4576);fill-opacity:1;stroke:none;stroke-width:2;stroke-linecap:round;stroke-linejoin:round;stroke-miterlimit:4;stroke-dasharray:none;stroke-opacity:0.52777782" />
    <path
       style="opacity:1;fill:#607d8b;fill-opacity:1;stroke:none;stroke-width:2;stroke-linecap:round;stroke-linejoin:round;stroke-miterlimit:4;stroke-dasharray:none;stroke-opacity:0.52777782"
       d="M 32 18 L 0 18 L 0 28.076172 C 0 29.141558 0.85844209 30 1.9238281 30 L 30.076172 30 C 31.141558 30 32 29.141558 32 28.076172 L 32 18 z "
       id="path4162"
       transform="translate(0,1020.3622)" />
    <path
       style="opacity:1;fill:#78909c;fill-opacity:1;stroke:none;stroke-width:2;stroke-linecap:round;stroke-linejoin:round;stroke-miterlimit:4;stroke-dasharray:none;stroke-opacity:0.52777782"
       d="M 8 14 L 8 16 L 24 16 L 24 14 L 8 14 z "
       transform="translate(0,1020.3622)"
       id="rect4582" />
    <path
       style="opacity:1;fill:#37474f;fill-opacity:1;stroke:none;stroke-width:2;stroke-linecap:round;stroke-linejoin:round;stroke-miterlimit:4;stroke-dasharray:none;stroke-opacity:1"
       d="m 24,1034.3623 0,4 4,0 2,0 2,0 0,-2 c 0,-1.1079 -0.892126,-2 -2,-2 l -2,0 -4,0 z"
       id="rect4165"
       inkscape:connector-curvature="0" />
    <path
       id="path4172"
       d="m 8,1034.3623 0,4 -4,0 -2,0 -2,0 0,-2 c 0,-1.1079 0.892126,-2 2,-2 l 2,0 4,0 z"
       style="opacity:1;fill:#37474f;fill-opacity:1;stroke:none;stroke-width:2;stroke-linecap:round;stroke-linejoin:round;stroke-miterlimit:4;stroke-dasharray:none;stroke-opacity:1"
       inkscape:connector-curvature="0" />
    <rect
       ry="1.00001"
       y="1035.3623"
       x="1"
       height="13.999913"
       width="30"
       id="rect4218"
       style="opacity:1;fill:#cfd8dc;fill-opacity:1;stroke:none;stroke-width:2;stroke-linecap:round;stroke-linejoin:round;stroke-miterlimit:4;stroke-dasharray:none;stroke-opacity:0.52777782" />
    <rect
       style="opacity:1;fill:#b0bec5;fill-opacity:1;stroke:none;stroke-width:2;stroke-linecap:round;stroke-linejoin:round;stroke-miterlimit:4;stroke-dasharray:none;stroke-opacity:1"
       id="rect4204"
       width="28"
       height="12"
       x="2"
       y="1036.3622"
       ry="1.7382799e-05" />
    <ellipse
       ry="1.9999845"
       rx="1.9999995"
       cy="1045.3618"
       cx="23"
       id="ellipse4164"
       style="opacity:1;fill:url(#radialGradient4172);fill-opacity:1;stroke:none;stroke-width:2;stroke-linecap:round;stroke-linejoin:round;stroke-miterlimit:4;stroke-dasharray:none;stroke-opacity:1" />
    <path
       inkscape:connector-curvature="0"
       id="path4160"
       d="m 5.5,1039.3622 0,0.5 c 0,2 -0.5,2 -2.5,2 l 0,2 c 2,0 2.5,0 2.5,2 l 0,0.5 2,0 0,-0.5 c 0,-2 0.5000001,-2 2.5,-2 l 0,-2 c -1.9999999,0 -2.5,0 -2.5,-2 l 0,-0.5 -2,0 z"
       style="opacity:1;fill:url(#linearGradient4162);fill-opacity:1;stroke:none;stroke-width:2;stroke-linecap:round;stroke-linejoin:round;stroke-miterlimit:4;stroke-dasharray:none;stroke-opacity:1" />
    <path
       style="opacity:1;fill:#37474f;fill-opacity:1;stroke:none;stroke-width:2;stroke-linecap:round;stroke-linejoin:round;stroke-miterlimit:4;stroke-dasharray:none;stroke-opacity:1"
       d="m 5.5,1038.8623 0,0.5 c 0,2 -0.5,2 -2.5,2 l 0,2 c 2,0 2.5,0 2.5,2 l 0,0.5 2,0 0,-0.5 c 0,-2 0.5000001,-2 2.5,-2 l 0,-2 c -1.9999999,0 -2.5,0 -2.5,-2 l 0,-0.5 -2,0 z"
       id="rect4160"
       inkscape:connector-curvature="0" />
    <rect
       style="opacity:1;fill:#37474f;fill-opacity:1;stroke:none;stroke-width:2;stroke-linecap:round;stroke-linejoin:round;stroke-miterlimit:4;stroke-dasharray:none;stroke-opacity:1"
       id="rect4164"
       width="2"
       height="1.00001"
       x="13.000005"
       y="1045.3624" />
    <rect
       style="opacity:1;fill:#37474f;fill-opacity:1;stroke:none;stroke-width:2;stroke-linecap:round;stroke-linejoin:round;stroke-miterlimit:4;stroke-dasharray:none;stroke-opacity:1"
       id="rect4166"
       width="2"
       height="1.00001"
       x="17.00001"
       y="1045.3624" />
    <ellipse
       style="opacity:1;fill:#e53935;fill-opacity:1;stroke:none;stroke-width:2;stroke-linecap:round;stroke-linejoin:round;stroke-miterlimit:4;stroke-dasharray:none;stroke-opacity:1"
       id="path4168-9"
       cx="23"
       cy="1044.3621"
       rx="1.9999995"
       ry="1.9999845" />
    <ellipse
       ry="1.9999995"
       rx="1.9999845"
       transform="matrix(0,1,-1,0,0,0)"
       style="opacity:1;fill:url(#radialGradient4174);fill-opacity:1;stroke:none;stroke-width:2;stroke-linecap:round;stroke-linejoin:round;stroke-miterlimit:4;stroke-dasharray:none;stroke-opacity:1"
       id="ellipse4166"
       cx="1041.3621"
       cy="-26.999996" />
    <ellipse
       cy="-26.999996"
       cx="1040.3623"
       id="circle4223"
       style="opacity:1;fill:#e53935;fill-opacity:1;stroke:none;stroke-width:2;stroke-linecap:round;stroke-linejoin:round;stroke-miterlimit:4;stroke-dasharray:none;stroke-opacity:1"
       transform="matrix(0,1,-1,0,0,0)"
       rx="1.9999845"
       ry="1.9999995" />
    <ellipse
       cy="1044.3621"
       cx="23"
       id="circle4227"
       style="opacity:1;fill:#ef5350;fill-opacity:1;stroke:none;stroke-width:2;stroke-linecap:round;stroke-linejoin:round;stroke-miterlimit:4;stroke-dasharray:none;stroke-opacity:1"
       rx="0.99999952"
       ry="0.99999201" />
    <ellipse
       transform="matrix(0,1,-1,0,0,0)"
       style="opacity:1;fill:#ef5350;fill-opacity:1;stroke:none;stroke-width:2;stroke-linecap:round;stroke-linejoin:round;stroke-miterlimit:4;stroke-dasharray:none;stroke-opacity:1"
       id="circle4229"
       cx="1040.3623"
       cy="-26.999996"
       rx="0.99999201"
       ry="0.99999952" />
    <path
       style="fill:#37474f;fill-opacity:1;fill-rule:evenodd;stroke:none;stroke-width:1px;stroke-linecap:butt;stroke-linejoin:miter;stroke-opacity:1"
       d="m 15,1037.3623 c -2,0 -2,1 -2,1 l 0,1 c 1,0 2,1 2,2 l -1,1 2,-1 2,-1 -2,-1 0,1 -1,-1 c -1,-1 0,-1 0,-1 1,0 2,0 3,1 0,0 -1,-2 -3,-2 z"
       id="path4239"
       inkscape:connector-curvature="0"
       sodipodi:nodetypes="sccccccccsccs" />
    <rect
       style="opacity:1;fill:url(#linearGradient4178);fill-opacity:1;stroke:none;stroke-width:2;stroke-linecap:round;stroke-linejoin:round;stroke-miterlimit:4;stroke-dasharray:none;stroke-opacity:1"
       id="rect4176"
       width="2"
       height="1"
       x="13"
       y="1046.3622"
       ry="1.7382812e-05" />
    <rect
       style="opacity:1;fill:url(#linearGradient4178-4);fill-opacity:1;stroke:none;stroke-width:2;stroke-linecap:round;stroke-linejoin:round;stroke-miterlimit:4;stroke-dasharray:none;stroke-opacity:1"
       id="rect4176-4"
       width="2"
       height="1"
       x="17"
       y="1046.3622"
       ry="1.7382812e-05" />
  </g>
</svg>
