<?xml version="1.0" encoding="UTF-8" standalone="no"?>
<!-- Created with Inkscape (http://www.inkscape.org/) -->

<svg
   xmlns:dc="http://purl.org/dc/elements/1.1/"
   xmlns:cc="http://creativecommons.org/ns#"
   xmlns:rdf="http://www.w3.org/1999/02/22-rdf-syntax-ns#"
   xmlns:svg="http://www.w3.org/2000/svg"
   xmlns="http://www.w3.org/2000/svg"
   xmlns:xlink="http://www.w3.org/1999/xlink"
   xmlns:sodipodi="http://sodipodi.sourceforge.net/DTD/sodipodi-0.dtd"
   xmlns:inkscape="http://www.inkscape.org/namespaces/inkscape"
   width="32"
   height="32"
   viewBox="0 0 32 32.000001"
   id="svg2"
   version="1.1"
   inkscape:version="0.91 r13725"
   sodipodi:docname="qpdfview.svg">
  <defs
     id="defs4">
    <linearGradient
       id="Shadow"
       inkscape:collect="always">
      <stop
         id="stop4181"
         offset="0"
         style="stop-color:#000000;stop-opacity:1;" />
      <stop
         id="stop4183"
         offset="1"
         style="stop-color:#000000;stop-opacity:0;" />
    </linearGradient>
    <radialGradient
       r="1.5"
       fy="28.5"
       fx="28"
       cy="28.5"
       cx="28"
       gradientTransform="matrix(3.1111458e-7,2.6666673,-1.9999997,2.3333583e-7,80.99998,973.69551)"
       gradientUnits="userSpaceOnUse"
       id="radialGradient4576-1"
       xlink:href="#Shadow"
       inkscape:collect="always" />
    <radialGradient
       r="1.5"
       fy="31.14706"
       fx="0.55971527"
       cy="31.14706"
       cx="0.55971527"
       gradientTransform="matrix(-1.9999998,2.4329792e-6,-3.2319946e-6,-2.6666666,9.119531,1131.421)"
       gradientUnits="userSpaceOnUse"
       id="radialGradient4578-6"
       xlink:href="#Shadow"
       inkscape:collect="always" />
    <linearGradient
       inkscape:collect="always"
       xlink:href="#Shadow"
       id="linearGradient4255"
       gradientUnits="userSpaceOnUse"
       gradientTransform="translate(0,1020.3622)"
       x1="16"
       y1="28"
       x2="16"
       y2="32" />
    <linearGradient
       inkscape:collect="always"
       xlink:href="#Shadow"
       id="linearGradient4380"
       x1="26"
       y1="24"
       x2="28"
       y2="24"
       gradientUnits="userSpaceOnUse"
       gradientTransform="matrix(-0.70710678,0.70710678,0.70710678,0.70710678,24.656854,1006.7633)" />
    <radialGradient
       inkscape:collect="always"
       xlink:href="#Shadow"
       id="radialGradient4382"
       cx="26.411766"
       cy="29.352943"
       fx="26.411766"
       fy="29.352943"
       r="1.5"
       gradientTransform="matrix(-2.8284304,-2.8284313,0.94280928,-0.94280889,73.80779,1148.0322)"
       gradientUnits="userSpaceOnUse" />
    <radialGradient
       inkscape:collect="always"
       xlink:href="#Shadow"
       id="radialGradient4402"
       cx="18"
       cy="1037.3621"
       fx="18"
       fy="1037.3621"
       r="6"
       gradientUnits="userSpaceOnUse" />
  </defs>
  <sodipodi:namedview
     id="base"
     pagecolor="#ffffff"
     bordercolor="#666666"
     borderopacity="1.0"
     inkscape:pageopacity="0.0"
     inkscape:pageshadow="2"
     inkscape:zoom="32"
     inkscape:cx="19.629598"
     inkscape:cy="15.576365"
     inkscape:document-units="px"
     inkscape:current-layer="layer1"
     showgrid="true"
     inkscape:window-width="2560"
     inkscape:window-height="1017"
     inkscape:window-x="0"
     inkscape:window-y="0"
     inkscape:window-maximized="1"
     inkscape:showpageshadow="false"
     borderlayer="true"
     units="px">
    <inkscape:grid
       type="xygrid"
       id="grid4155"
       empspacing="2" />
    <sodipodi:guide
       position="2,2.0000174"
       orientation="0,28"
       id="guide4161" />
    <sodipodi:guide
       position="30,2.0000174"
       orientation="-28,0"
       id="guide4163" />
    <sodipodi:guide
       position="30,30.000018"
       orientation="0,-28"
       id="guide4165" />
  </sodipodi:namedview>
  <metadata
     id="metadata7">
    <rdf:RDF>
      <cc:Work
         rdf:about="">
        <dc:format>image/svg+xml</dc:format>
        <dc:type
           rdf:resource="http://purl.org/dc/dcmitype/StillImage" />
        <dc:title />
      </cc:Work>
    </rdf:RDF>
  </metadata>
  <g
     inkscape:label="Layer 1"
     inkscape:groupmode="layer"
     id="layer1"
     transform="translate(0,-1020.3622)">
    <path
       sodipodi:nodetypes="ccccc"
       inkscape:connector-curvature="0"
       id="path4574-2"
       d="m 8,1048.3622 0,4 16,0 0,-4 z"
       style="opacity:1;fill:url(#linearGradient4255);fill-opacity:1;stroke:none;stroke-width:2;stroke-linecap:round;stroke-linejoin:round;stroke-miterlimit:4;stroke-dasharray:none;stroke-opacity:0.52777782" />
    <path
       inkscape:connector-curvature="0"
       id="path4572-1"
       d="m 8,1048.3622 -3,0 0,1 c 0,1.662 1.33799,3 3,3 l 0,-4 z"
       style="opacity:1;fill:url(#radialGradient4578-6);fill-opacity:1;stroke:none;stroke-width:2;stroke-linecap:round;stroke-linejoin:round;stroke-miterlimit:4;stroke-dasharray:none;stroke-opacity:0.52777782" />
    <path
       inkscape:connector-curvature="0"
       id="path4570-2"
       d="m 24,1048.3622 0,4 c 1.66201,0 3,-1.338 3,-3 l 0,-1 -3,0 z"
       style="opacity:1;fill:url(#radialGradient4576-1);fill-opacity:1;stroke:none;stroke-width:2;stroke-linecap:round;stroke-linejoin:round;stroke-miterlimit:4;stroke-dasharray:none;stroke-opacity:0.52777782" />
    <rect
       style="opacity:1;fill:#b0bec5;fill-opacity:1;stroke:none;stroke-width:2;stroke-linecap:round;stroke-linejoin:round;stroke-miterlimit:4;stroke-dasharray:none;stroke-opacity:0.52777782"
       id="rect4582"
       width="22"
       height="26"
       x="5"
       y="1024.3622"
       ry="2.1666772" />
    <rect
       style="opacity:1;fill:#eceff1;fill-opacity:1;stroke:none;stroke-width:2;stroke-linecap:round;stroke-linejoin:round;stroke-miterlimit:4;stroke-dasharray:none;stroke-opacity:0.52777782"
       id="rect4168"
       width="20"
       height="24.000017"
       x="6"
       y="1025.3622"
       ry="1.0000174" />
    <rect
       style="opacity:1;fill:#90a4ae;fill-opacity:1;stroke:none;stroke-width:2;stroke-linecap:round;stroke-linejoin:round;stroke-miterlimit:4;stroke-dasharray:none;stroke-opacity:0.52777782"
       id="rect4268"
       width="7"
       height="1.0000174"
       x="8"
       y="1027.3622"
       ry="0" />
    <rect
       style="opacity:1;fill:#90a4ae;fill-opacity:1;stroke:none;stroke-width:2;stroke-linecap:round;stroke-linejoin:round;stroke-miterlimit:4;stroke-dasharray:none;stroke-opacity:0.52777782"
       id="rect4270"
       width="7"
       height="1.0005057"
       x="8"
       y="1032.3617" />
    <rect
       style="opacity:1;fill:#90a4ae;fill-opacity:1;stroke:none;stroke-width:2;stroke-linecap:round;stroke-linejoin:round;stroke-miterlimit:4;stroke-dasharray:none;stroke-opacity:0.52777782"
       id="rect4278"
       width="14"
       height="1.0002615"
       x="8"
       y="1030.3619" />
    <rect
       style="opacity:1;fill:#b0bec5;fill-opacity:1;stroke:none;stroke-width:2;stroke-linecap:round;stroke-linejoin:round;stroke-miterlimit:4;stroke-dasharray:none;stroke-opacity:1"
       id="rect4251"
       width="16"
       height="12"
       x="8"
       y="-1047.3622"
       transform="scale(1,-1)" />
    <rect
       style="opacity:1;fill:#f5f5f5;fill-opacity:1;stroke:none;stroke-width:2;stroke-linecap:round;stroke-linejoin:round;stroke-miterlimit:4;stroke-dasharray:none;stroke-opacity:1"
       id="rect4253"
       width="14"
       height="10"
       x="9"
       y="1036.3622" />
    <rect
       style="opacity:1;fill:#81d4fa;fill-opacity:1;stroke:none;stroke-width:2;stroke-linecap:round;stroke-linejoin:round;stroke-miterlimit:4;stroke-dasharray:none;stroke-opacity:1"
       id="rect4255"
       width="12"
       height="8"
       x="10"
       y="1037.3622" />
    <circle
       style="opacity:1;fill:#ffee58;fill-opacity:1;stroke:none;stroke-width:2;stroke-linecap:round;stroke-linejoin:round;stroke-miterlimit:4;stroke-dasharray:none;stroke-opacity:1"
       id="path4257"
       cx="19.5"
       cy="1039.8622"
       r="1.5" />
    <path
       style="fill:#1e88e5;fill-rule:evenodd;stroke:none;stroke-width:1px;stroke-linecap:butt;stroke-linejoin:miter;stroke-opacity:1;fill-opacity:1"
       d="M 17.25 22.75 C 14.492249 22.75 11.600653 22.911795 10 23.466797 L 10 25 L 22 25 L 22 22.878906 C 20.739794 22.814571 19.053036 22.75 17.25 22.75 z "
       transform="translate(0,1020.3622)"
       id="path4264" />
    <path
       style="fill:#ffe082;fill-opacity:1;fill-rule:evenodd;stroke:none;stroke-width:1px;stroke-linecap:butt;stroke-linejoin:miter;stroke-opacity:1"
       d="m 12.1875,23.59339 c -0.863851,0.018 -1.602564,0.07205 -2.1875,0.158203 L 10,25 22,25 22,24.292609 C 19.509723,23.848802 15.21502,23.530317 12.1875,23.59339 Z"
       transform="translate(0,1020.3622)"
       id="path4259"
       inkscape:connector-curvature="0"
       sodipodi:nodetypes="sccccs" />
    <path
       style="opacity:1;fill:#f5f5f5;fill-opacity:1;stroke:none;stroke-width:2;stroke-linecap:round;stroke-linejoin:round;stroke-miterlimit:4;stroke-dasharray:none;stroke-opacity:1"
       d="M 18 20 A 1 1 0 0 0 17.126953 20.515625 A 0.5 0.5 0 0 0 17 20.5 A 0.5 0.5 0 0 0 16.5 21 A 0.5 0.5 0 0 0 16 21.5 A 0.5 0.5 0 0 0 16.5 22 L 18 22 L 18.900391 22 A 0.5 0.5 0 0 0 19.400391 21.5 A 0.5 0.5 0 0 0 19 21.009766 A 1 1 0 0 0 19 21 A 1 1 0 0 0 18 20 z "
       transform="translate(0,1020.3622)"
       id="path4269" />
    <path
       style="opacity:1;fill:url(#linearGradient4380);fill-opacity:1;stroke:none;stroke-width:2;stroke-linecap:round;stroke-linejoin:round;stroke-miterlimit:4;stroke-dasharray:none;stroke-opacity:0.52777782"
       d="m 21.12132,1038.5832 0.707107,0.7071 4.949747,4.9497 -2.12132,2.1213 -4.949748,-4.9497 L 19,1040.7045 l 0.707106,-0.7072 0.707107,-0.7071 0.707107,-0.7071 z"
       id="path4371"
       inkscape:connector-curvature="0" />
    <path
       style="opacity:1;fill:url(#radialGradient4382);fill-opacity:1;stroke:none;stroke-width:2;stroke-linecap:round;stroke-linejoin:round;stroke-miterlimit:4;stroke-dasharray:none;stroke-opacity:0.52777782"
       d="m 26.778174,1044.24 -2.12132,2.1213 0.707107,0.7071 c 0.391737,0.3918 1.022469,0.3918 1.414213,0 l 0.707107,-0.7071 c 0.391744,-0.3917 0.391737,-1.0225 0,-1.4142 l -0.707107,-0.7071 z"
       id="path4376"
       inkscape:connector-curvature="0" />
    <path
       style="opacity:1;fill:#455a64;fill-opacity:1;stroke:none;stroke-width:2;stroke-linecap:round;stroke-linejoin:round;stroke-miterlimit:4;stroke-dasharray:none;stroke-opacity:0.52777782"
       d="m 19.707106,1039.9973 0.707107,0.7072 5.656854,5.6568 c 0.391738,0.3918 1.02247,0.3918 1.414214,0 l 0.707107,-0.7072 c 0.391744,-0.3916 0.391737,-1.0224 0,-1.4141 l -5.656855,-5.6568 -0.707106,-0.7072 -0.707107,0.7072 -0.707107,0.7071 -0.707107,0.7071 z"
       id="rect4360"
       inkscape:connector-curvature="0" />
    <rect
       style="opacity:1;fill:#37474f;fill-opacity:1;stroke:none;stroke-width:2;stroke-linecap:round;stroke-linejoin:round;stroke-miterlimit:4;stroke-dasharray:none;stroke-opacity:0.52777782"
       id="rect4367"
       width="1"
       height="8"
       x="-720.45386"
       y="750.3241"
       transform="matrix(0.70710678,-0.70710678,0.70710678,0.70710678,0,0)" />
    <circle
       r="6"
       cy="1037.3621"
       cx="18"
       id="circle4394"
       style="opacity:1;fill:url(#radialGradient4402);fill-opacity:1;stroke:none;stroke-width:2;stroke-linecap:round;stroke-linejoin:round;stroke-miterlimit:4;stroke-dasharray:none;stroke-opacity:0.52777782" />
    <circle
       style="opacity:1;fill:#b0bec5;fill-opacity:1;stroke:none;stroke-width:2;stroke-linecap:round;stroke-linejoin:round;stroke-miterlimit:4;stroke-dasharray:none;stroke-opacity:0.52777782"
       id="path4344"
       cx="18"
       cy="1036.3622"
       r="6" />
    <circle
       r="5"
       cy="1036.3622"
       cx="18"
       id="circle4346"
       style="opacity:1;fill:#78909c;fill-opacity:1;stroke:none;stroke-width:2;stroke-linecap:round;stroke-linejoin:round;stroke-miterlimit:4;stroke-dasharray:none;stroke-opacity:0.52777782" />
    <circle
       style="opacity:1;fill:#d0eaf6;fill-opacity:1;stroke:none;stroke-width:2;stroke-linecap:round;stroke-linejoin:round;stroke-miterlimit:4;stroke-dasharray:none;stroke-opacity:0.52777782"
       id="circle4348"
       cx="18"
       cy="1036.3622"
       r="4" />
    <path
       style="fill:none;fill-rule:evenodd;stroke:#fafafa;stroke-width:1px;stroke-linecap:round;stroke-linejoin:round;stroke-opacity:1"
       d="m 16,1034.3622 c 1,-1 3,-1 4,0"
       id="path4404"
       inkscape:connector-curvature="0"
       sodipodi:nodetypes="cc" />
    <path
       style="opacity:1;fill:#96c1d5;fill-opacity:1;stroke:none;stroke-width:2;stroke-linecap:round;stroke-linejoin:round;stroke-miterlimit:4;stroke-dasharray:none;stroke-opacity:1"
       d="M 15.175781 15 A 3 3 0 0 0 15 16 L 21 16 A 3 3 0 0 0 20.826172 15 L 15.175781 15 z "
       transform="translate(0,1020.3622)"
       id="rect4284" />
    <path
       style="opacity:1;fill:#bee8fb;fill-opacity:1;stroke:none;stroke-width:2;stroke-linecap:round;stroke-linejoin:round;stroke-miterlimit:4;stroke-dasharray:none;stroke-opacity:1"
       d="M 15 16 A 3 3 0 0 0 15.173828 17 L 20.824219 17 A 3 3 0 0 0 21 16 L 15 16 z "
       transform="translate(0,1020.3622)"
       id="rect4286" />
    <path
       style="opacity:1;fill:#90cdeb;fill-opacity:1;stroke:none;stroke-width:2;stroke-linecap:round;stroke-linejoin:round;stroke-miterlimit:4;stroke-dasharray:none;stroke-opacity:1"
       d="M 15.173828 17 A 3 3 0 0 0 18 19 A 3 3 0 0 0 20.824219 17 L 15.173828 17 z "
       transform="translate(0,1020.3622)"
       id="rect4288" />
    <path
       style="opacity:1;fill:#c0f3f3;fill-opacity:1;stroke:none;stroke-width:2;stroke-linecap:round;stroke-linejoin:round;stroke-miterlimit:4;stroke-dasharray:none;stroke-opacity:1"
       d="M 19.5 18 A 1.5 1.5 0 0 0 18.087891 18.996094 A 3 3 0 0 0 20.109375 18.130859 A 1.5 1.5 0 0 0 19.5 18 z "
       transform="translate(0,1020.3622)"
       id="circle4299" />
  </g>
</svg>
