<?xml version="1.0" encoding="UTF-8" standalone="no"?>
<!-- Created with Inkscape (http://www.inkscape.org/) -->

<svg
   xmlns:dc="http://purl.org/dc/elements/1.1/"
   xmlns:cc="http://creativecommons.org/ns#"
   xmlns:rdf="http://www.w3.org/1999/02/22-rdf-syntax-ns#"
   xmlns:svg="http://www.w3.org/2000/svg"
   xmlns="http://www.w3.org/2000/svg"
   xmlns:xlink="http://www.w3.org/1999/xlink"
   xmlns:sodipodi="http://sodipodi.sourceforge.net/DTD/sodipodi-0.dtd"
   xmlns:inkscape="http://www.inkscape.org/namespaces/inkscape"
   width="32"
   height="32"
   viewBox="0 0 32 32.000001"
   id="svg2"
   version="1.1"
   inkscape:version="0.91 r13725"
   sodipodi:docname="qpdfview.svg">
  <defs
     id="defs4">
    <linearGradient
       id="Shadow"
       inkscape:collect="always">
      <stop
         id="stop4181"
         offset="0"
         style="stop-color:#000000;stop-opacity:1;" />
      <stop
         id="stop4183"
         offset="1"
         style="stop-color:#000000;stop-opacity:0;" />
    </linearGradient>
    <radialGradient
       r="1.5"
       fy="28.5"
       fx="28"
       cy="28.5"
       cx="28"
       gradientTransform="matrix(3.1111458e-7,2.6666673,-1.9999997,2.3333583e-7,80.99998,973.69551)"
       gradientUnits="userSpaceOnUse"
       id="radialGradient4576-1"
       xlink:href="#Shadow"
       inkscape:collect="always" />
    <radialGradient
       r="1.5"
       fy="31.14706"
       fx="0.55971527"
       cy="31.14706"
       cx="0.55971527"
       gradientTransform="matrix(-1.9999998,2.4329792e-6,-3.2319946e-6,-2.6666666,9.119531,1131.421)"
       gradientUnits="userSpaceOnUse"
       id="radialGradient4578-6"
       xlink:href="#Shadow"
       inkscape:collect="always" />
    <linearGradient
       inkscape:collect="always"
       xlink:href="#Shadow"
       id="linearGradient4255"
       gradientUnits="userSpaceOnUse"
       gradientTransform="translate(0,1020.3622)"
       x1="16"
       y1="28"
       x2="16"
       y2="32" />
    <radialGradient
       inkscape:collect="always"
       xlink:href="#Shadow"
       id="radialGradient4329-1"
       cx="16"
       cy="1081.5197"
       fx="16"
       fy="1081.5197"
       r="5"
       gradientUnits="userSpaceOnUse"
       gradientTransform="translate(-85.479367,-98.042242)" />
    <linearGradient
       inkscape:collect="always"
       xlink:href="#Shadow"
       id="linearGradient4256"
       x1="19"
       y1="1033.3622"
       x2="20"
       y2="1035.0942"
       gradientUnits="userSpaceOnUse"
       gradientTransform="translate(0,1.0000726)" />
    <linearGradient
       inkscape:collect="always"
       xlink:href="#Shadow"
       id="linearGradient4260"
       gradientUnits="userSpaceOnUse"
       gradientTransform="matrix(-1,0,0,1,42,1.0000726)"
       x1="19"
       y1="1033.3622"
       x2="20"
       y2="1035.0942" />
  </defs>
  <sodipodi:namedview
     id="base"
     pagecolor="#ffffff"
     bordercolor="#666666"
     borderopacity="1.0"
     inkscape:pageopacity="0.0"
     inkscape:pageshadow="2"
     inkscape:zoom="24.1875"
     inkscape:cx="16"
     inkscape:cy="16"
     inkscape:document-units="px"
     inkscape:current-layer="layer1"
     showgrid="true"
     inkscape:window-width="2560"
     inkscape:window-height="959"
     inkscape:window-x="0"
     inkscape:window-y="34"
     inkscape:window-maximized="1"
     inkscape:showpageshadow="false"
     borderlayer="true"
     units="px">
    <inkscape:grid
       type="xygrid"
       id="grid4155"
       empspacing="2" />
    <sodipodi:guide
       position="2,2.0000174"
       orientation="0,28"
       id="guide4161" />
    <sodipodi:guide
       position="30,2.0000174"
       orientation="-28,0"
       id="guide4163" />
    <sodipodi:guide
       position="30,30.000018"
       orientation="0,-28"
       id="guide4165" />
  </sodipodi:namedview>
  <metadata
     id="metadata7">
    <rdf:RDF>
      <cc:Work
         rdf:about="">
        <dc:format>image/svg+xml</dc:format>
        <dc:type
           rdf:resource="http://purl.org/dc/dcmitype/StillImage" />
        <dc:title />
      </cc:Work>
    </rdf:RDF>
  </metadata>
  <g
     inkscape:label="Layer 1"
     inkscape:groupmode="layer"
     id="layer1"
     transform="translate(0,-1020.3622)">
    <path
       sodipodi:nodetypes="ccccc"
       inkscape:connector-curvature="0"
       id="path4574-2"
       d="m 8,1048.3622 0,4 16,0 0,-4 z"
       style="opacity:1;fill:url(#linearGradient4255);fill-opacity:1;stroke:none;stroke-width:2;stroke-linecap:round;stroke-linejoin:round;stroke-miterlimit:4;stroke-dasharray:none;stroke-opacity:0.52777782" />
    <path
       inkscape:connector-curvature="0"
       id="path4572-1"
       d="m 8,1048.3622 -3,0 0,1 c 0,1.662 1.33799,3 3,3 l 0,-4 z"
       style="opacity:1;fill:url(#radialGradient4578-6);fill-opacity:1;stroke:none;stroke-width:2;stroke-linecap:round;stroke-linejoin:round;stroke-miterlimit:4;stroke-dasharray:none;stroke-opacity:0.52777782" />
    <path
       inkscape:connector-curvature="0"
       id="path4570-2"
       d="m 24,1048.3622 0,4 c 1.66201,0 3,-1.338 3,-3 l 0,-1 -3,0 z"
       style="opacity:1;fill:url(#radialGradient4576-1);fill-opacity:1;stroke:none;stroke-width:2;stroke-linecap:round;stroke-linejoin:round;stroke-miterlimit:4;stroke-dasharray:none;stroke-opacity:0.52777782" />
    <rect
       style="opacity:1;fill:#455a64;fill-opacity:1;stroke:none;stroke-width:2;stroke-linecap:round;stroke-linejoin:round;stroke-miterlimit:4;stroke-dasharray:none;stroke-opacity:0.52777782"
       id="rect4582"
       width="22"
       height="26"
       x="5"
       y="1024.3622"
       ry="2.1666772" />
    <path
       style="opacity:1;fill:#546e7a;fill-opacity:1;stroke:none;stroke-width:2;stroke-linecap:round;stroke-linejoin:round;stroke-miterlimit:4;stroke-dasharray:none;stroke-opacity:0.52777782"
       d="M 9 5 L 7 5 C 6.4459904 5 6 5.4459904 6 6 L 6 28 C 6 28.55401 6.4459904 29 7 29 L 9 29 L 9 5 z "
       id="path4230"
       transform="translate(0,1020.3622)" />
    <path
       style="opacity:1;fill:#90a4ae;fill-opacity:1;stroke:none;stroke-width:2;stroke-linecap:round;stroke-linejoin:round;stroke-miterlimit:4;stroke-dasharray:none;stroke-opacity:0.52777782"
       d="M 9 5 L 9 29 L 25 29 C 25.55401 29 26 28.55401 26 28 L 26 6 C 26 5.4459904 25.55401 5 25 5 L 9 5 z "
       id="rect4168"
       transform="translate(0,1020.3622)" />
    <path
       inkscape:connector-curvature="0"
       id="path4258"
       d="m 23.5,1025.3623 a 0.50005,0.50005 0 0 1 0.5,0.5 l 0,11 a 0.50005,0.50005 0 0 1 -0.777344,0.416 l -2.5,-1.666 A 0.50005,0.50005 0 0 1 20.5,1035.1963 l 0,-9.334 a 0.50005,0.50005 0 0 1 0.5,-0.5 l 0.5,0 2,0 z"
       style="color:#000000;font-style:normal;font-variant:normal;font-weight:normal;font-stretch:normal;font-size:medium;line-height:normal;font-family:sans-serif;text-indent:0;text-align:start;text-decoration:none;text-decoration-line:none;text-decoration-style:solid;text-decoration-color:#000000;letter-spacing:normal;word-spacing:normal;text-transform:none;direction:ltr;block-progression:tb;writing-mode:lr-tb;baseline-shift:baseline;text-anchor:start;white-space:normal;clip-rule:nonzero;display:inline;overflow:visible;visibility:visible;opacity:1;isolation:auto;mix-blend-mode:normal;color-interpolation:sRGB;color-interpolation-filters:linearRGB;solid-color:#000000;solid-opacity:1;fill:url(#linearGradient4260);fill-opacity:1;fill-rule:evenodd;stroke:none;stroke-width:1px;stroke-linecap:round;stroke-linejoin:round;stroke-miterlimit:4;stroke-dasharray:none;stroke-dashoffset:0;stroke-opacity:1;color-rendering:auto;image-rendering:auto;shape-rendering:auto;text-rendering:auto;enable-background:accumulate" />
    <path
       style="color:#000000;font-style:normal;font-variant:normal;font-weight:normal;font-stretch:normal;font-size:medium;line-height:normal;font-family:sans-serif;text-indent:0;text-align:start;text-decoration:none;text-decoration-line:none;text-decoration-style:solid;text-decoration-color:#000000;letter-spacing:normal;word-spacing:normal;text-transform:none;direction:ltr;block-progression:tb;writing-mode:lr-tb;baseline-shift:baseline;text-anchor:start;white-space:normal;clip-rule:nonzero;display:inline;overflow:visible;visibility:visible;opacity:1;isolation:auto;mix-blend-mode:normal;color-interpolation:sRGB;color-interpolation-filters:linearRGB;solid-color:#000000;solid-opacity:1;fill:url(#linearGradient4256);fill-opacity:1;fill-rule:evenodd;stroke:none;stroke-width:1px;stroke-linecap:round;stroke-linejoin:round;stroke-miterlimit:4;stroke-dasharray:none;stroke-dashoffset:0;stroke-opacity:1;color-rendering:auto;image-rendering:auto;shape-rendering:auto;text-rendering:auto;enable-background:accumulate"
       d="m 18.5,1025.3623 a 0.50005,0.50005 0 0 0 -0.5,0.5 l 0,11 a 0.50005,0.50005 0 0 0 0.777344,0.416 l 2.5,-1.666 A 0.50005,0.50005 0 0 0 21.5,1035.1963 l 0,-9.334 a 0.50005,0.50005 0 0 0 -0.5,-0.5 l -0.5,0 -2,0 z"
       id="path4248"
       inkscape:connector-curvature="0" />
    <circle
       cy="983.47778"
       cx="-69.479401"
       id="circle4321-3"
       style="opacity:1;fill:url(#radialGradient4329-1);fill-opacity:1;stroke:none;stroke-width:2;stroke-linecap:round;stroke-linejoin:round;stroke-miterlimit:4;stroke-dasharray:none;stroke-opacity:1"
       r="0" />
    <path
       style="fill:#f06292;fill-rule:evenodd;stroke:#455a64;stroke-width:1px;stroke-linecap:round;stroke-linejoin:round;stroke-opacity:1;fill-opacity:1"
       d="M 18.5 4.5 L 18.5 15.5 L 21 13.833984 L 23.5 15.5 L 23.5 4.5 L 21.5 4.5 L 20.5 4.5 L 18.5 4.5 z "
       transform="translate(0,1020.3622)"
       id="path4232" />
    <path
       style="color:#000000;font-style:normal;font-variant:normal;font-weight:normal;font-stretch:normal;font-size:medium;line-height:normal;font-family:sans-serif;text-indent:0;text-align:start;text-decoration:none;text-decoration-line:none;text-decoration-style:solid;text-decoration-color:#000000;letter-spacing:normal;word-spacing:normal;text-transform:none;direction:ltr;block-progression:tb;writing-mode:lr-tb;baseline-shift:baseline;text-anchor:start;white-space:normal;clip-rule:nonzero;display:inline;overflow:visible;visibility:visible;opacity:1;isolation:auto;mix-blend-mode:normal;color-interpolation:sRGB;color-interpolation-filters:linearRGB;solid-color:#000000;solid-opacity:1;fill:#546e7a;fill-opacity:1;fill-rule:evenodd;stroke:none;stroke-width:1;stroke-linecap:butt;stroke-linejoin:miter;stroke-miterlimit:4;stroke-dasharray:none;stroke-dashoffset:0;stroke-opacity:1;color-rendering:auto;image-rendering:auto;shape-rendering:auto;text-rendering:auto;enable-background:accumulate"
       d="M 21.035156 18.134766 C 20.74901 18.168766 20.558172 18.34685 20.419922 18.53125 L 20.371094 18.59375 L 20.345703 18.669922 C 19.771917 20.391322 20.337503 22.497244 21.394531 24.214844 C 21.397231 24.214844 21.401497 24.224563 21.404297 24.226562 C 21.282585 25.679163 20.959025 27.176528 20.453125 28.486328 C 20.15747 28.666047 19.903605 28.830525 19.634766 29 L 21.587891 29 C 22.446274 28.47342 23.219983 27.978794 24.552734 27.277344 C 24.809315 27.142244 24.820408 27.171934 25.054688 27.052734 C 25.318501 27.114734 25.54636 27.333984 25.820312 27.333984 C 25.880389 27.333984 25.939943 27.321258 26 27.318359 L 26 25.501953 C 25.653145 25.669453 25.341978 25.812274 24.96875 25.998047 C 24.052859 25.665247 23.14787 24.97285 22.433594 23.90625 C 22.535516 22.27485 22.469544 20.748338 22.246094 19.710938 C 22.128702 19.165937 22.010211 18.751881 21.722656 18.425781 C 21.578879 18.262681 21.321303 18.102719 21.035156 18.136719 L 21.035156 18.134766 z M 21.275391 20.089844 C 21.338731 20.413144 21.296241 21.0083 21.332031 21.4375 C 21.214171 20.9483 21.267371 20.538544 21.275391 20.089844 z M 22.212891 25.144531 C 22.688253 25.720231 23.176852 26.209719 23.763672 26.574219 C 22.822906 27.074319 22.336207 27.402112 21.609375 27.820312 C 21.870091 26.936213 22.099148 26.056331 22.212891 25.144531 z "
       transform="translate(0,1020.3622)"
       id="path4481" />
  </g>
</svg>
