<?xml version="1.0" encoding="UTF-8" standalone="no"?>
<!-- Created with Inkscape (http://www.inkscape.org/) -->

<svg
   xmlns:dc="http://purl.org/dc/elements/1.1/"
   xmlns:cc="http://creativecommons.org/ns#"
   xmlns:rdf="http://www.w3.org/1999/02/22-rdf-syntax-ns#"
   xmlns:svg="http://www.w3.org/2000/svg"
   xmlns="http://www.w3.org/2000/svg"
   xmlns:xlink="http://www.w3.org/1999/xlink"
   xmlns:sodipodi="http://sodipodi.sourceforge.net/DTD/sodipodi-0.dtd"
   xmlns:inkscape="http://www.inkscape.org/namespaces/inkscape"
   width="32"
   height="32"
   viewBox="0 0 32 32.000001"
   id="svg2"
   version="1.1"
   inkscape:version="0.91 r13725"
   sodipodi:docname="spotify-client.svg">
  <defs
     id="defs4">
    <radialGradient
       gradientTransform="matrix(1.0833333,0,0,1.0833333,-1.3333333,-87.696704)"
       inkscape:collect="always"
       xlink:href="#linearGradient4163"
       id="radialGradient4169"
       cx="16"
       cy="1040.3622"
       fx="16"
       fy="1040.3622"
       r="12"
       gradientUnits="userSpaceOnUse" />
    <linearGradient
       id="linearGradient4163"
       inkscape:collect="always">
      <stop
         id="stop4166"
         offset="0"
         style="stop-color:#000000;stop-opacity:1;" />
      <stop
         style="stop-color:#000000;stop-opacity:1"
         offset="0.69230777"
         id="stop4170" />
      <stop
         id="stop4168"
         offset="1"
         style="stop-color:#000000;stop-opacity:0;" />
    </linearGradient>
  </defs>
  <sodipodi:namedview
     id="base"
     pagecolor="#ffffff"
     bordercolor="#666666"
     borderopacity="1.0"
     inkscape:pageopacity="0.0"
     inkscape:pageshadow="2"
     inkscape:zoom="26"
     inkscape:cx="24.718933"
     inkscape:cy="13.701617"
     inkscape:document-units="px"
     inkscape:current-layer="layer1"
     showgrid="true"
     inkscape:window-width="2560"
     inkscape:window-height="1017"
     inkscape:window-x="0"
     inkscape:window-y="0"
     inkscape:window-maximized="1"
     inkscape:showpageshadow="false"
     borderlayer="true"
     units="px"
     showguides="true"
     inkscape:guide-bbox="true">
    <inkscape:grid
       type="xygrid"
       id="grid4155"
       empspacing="2" />
    <sodipodi:guide
       position="2,30.000018"
       orientation="28,0"
       id="guide4159" />
    <sodipodi:guide
       position="2,2.0000174"
       orientation="0,28"
       id="guide4161" />
    <sodipodi:guide
       position="30,2.0000174"
       orientation="-28,0"
       id="guide4163" />
    <sodipodi:guide
       position="30,30.000018"
       orientation="0,-28"
       id="guide4165" />
    <sodipodi:guide
       position="16,20.000001"
       orientation="1,0"
       id="guide4223" />
    <sodipodi:guide
       position="16,15"
       orientation="0,1"
       id="guide4225" />
    <sodipodi:guide
       position="17,28.000001"
       orientation="0,1"
       id="guide4167" />
    <sodipodi:guide
       position="15,27.000001"
       orientation="0,1"
       id="guide4169" />
    <sodipodi:guide
       position="17,3.0000001"
       orientation="0,1"
       id="guide4171" />
    <sodipodi:guide
       position="18,23.000001"
       orientation="0,1"
       id="guide4177" />
    <sodipodi:guide
       position="24,13"
       orientation="1,0"
       id="guide4179" />
    <sodipodi:guide
       position="11,7.0000002"
       orientation="0,1"
       id="guide4181" />
  </sodipodi:namedview>
  <metadata
     id="metadata7">
    <rdf:RDF>
      <cc:Work
         rdf:about="">
        <dc:format>image/svg+xml</dc:format>
        <dc:type
           rdf:resource="http://purl.org/dc/dcmitype/StillImage" />
        <dc:title />
      </cc:Work>
    </rdf:RDF>
  </metadata>
  <g
     inkscape:label="Layer 1"
     inkscape:groupmode="layer"
     id="layer1"
     transform="translate(0,-1020.3622)">
    <circle
       style="opacity:1;fill:url(#radialGradient4169);fill-opacity:1;stroke:none;stroke-width:2;stroke-linecap:round;stroke-linejoin:round;stroke-miterlimit:4;stroke-dasharray:none;stroke-opacity:1"
       id="path4153"
       cx="16"
       cy="1039.3622"
       r="13" />
    <circle
       r="13"
       cy="1037.3622"
       cx="16"
       id="circle4174"
       style="opacity:1;fill:#00c853;fill-opacity:1;stroke:none;stroke-width:2;stroke-linecap:round;stroke-linejoin:round;stroke-miterlimit:4;stroke-dasharray:none;stroke-opacity:1" />
    <circle
       style="opacity:1;fill:#00e676;fill-opacity:1;stroke:none;stroke-width:2;stroke-linecap:round;stroke-linejoin:round;stroke-miterlimit:4;stroke-dasharray:none;stroke-opacity:1"
       id="circle4176"
       cx="16"
       cy="1037.3622"
       r="12" />
    <path
       sodipodi:nodetypes="sccssccssccscccsccccccscssccsccsc"
       inkscape:connector-curvature="0"
       id="path4172-4"
       d="m 21.260163,1042.2347 c 0.340939,-0.1984 0.422619,-0.6658 0.177388,-1.0151 -0.13275,-0.1891 -1.655382,-0.907 -2.574554,-1.2139 -1.8046,-0.6024 -3.674305,-0.8455 -5.395642,-0.7013 -1.315763,0.1102 -3.14928,0.49 -3.8255765,0.7926 -0.5071812,0.2268 -0.639242,0.737 -0.2875411,1.1109 0.291246,0.3096 0.4559592,0.3185 1.3037126,0.071 3.14696,-0.9192 6.110163,-0.7245 8.934543,0.5873 1.221031,0.5671 1.297808,0.5841 1.66767,0.3687 z m 1.350664,-3.1225 c 0.355391,-0.3047 0.409528,-0.8364 0.116695,-1.1463 -0.361787,-0.3827 -3.217824,-1.3969 -4.812742,-1.709 -2.598821,-0.5085 -5.394843,-0.4342 -8.1009563,0.2151 -0.8730467,0.2095 -1.0814093,0.3117 -1.2462666,0.6114 -0.1507938,0.2741 -0.1561005,0.4795 -0.019341,0.7485 0.2116008,0.416 0.6968481,0.543 1.3542412,0.3542 0.5874647,-0.1688 1.7489477,-0.3844 2.5944887,-0.4817 0.964886,-0.1109 2.789631,-0.1256 3.631294,-0.029 1.704005,0.1953 3.566849,0.706 5.149474,1.4119 0.657561,0.2932 1.01256,0.3 1.333111,0.025 z m 0.92127,-3.2049 C 23.778285,1035.7694 24,1035.4037 24,1035.1355 c 0,-0.2685 -0.147309,-0.5576 -0.375388,-0.7367 -0.428962,-0.3368 -2.758917,-1.1374 -4.371111,-1.5019 -1.904652,-0.4306 -3.422815,-0.578 -5.397249,-0.5243 -2.364871,0.065 -5.0251068,0.4986 -5.5150199,0.9 -0.572965,0.4695 -0.3971133,1.3344 0.3235271,1.5912 0.2797278,0.1 0.3071944,0.098 0.9895636,-0.054 0.9048262,-0.2015 1.9956692,-0.3727 2.9545962,-0.4635 1.0107,-0.096 3.615641,-0.043 4.488147,0.089 1.545851,0.2356 3.249487,0.6824 4.556391,1.1948 1.294327,0.5074 1.431596,0.5277 1.87864,0.2773 z"
       style="fill:#263238;fill-opacity:1" />
  </g>
</svg>
