<?xml version="1.0" encoding="UTF-8" standalone="no"?>
<!-- Created with Inkscape (http://www.inkscape.org/) -->

<svg
   xmlns:dc="http://purl.org/dc/elements/1.1/"
   xmlns:cc="http://creativecommons.org/ns#"
   xmlns:rdf="http://www.w3.org/1999/02/22-rdf-syntax-ns#"
   xmlns:svg="http://www.w3.org/2000/svg"
   xmlns="http://www.w3.org/2000/svg"
   xmlns:xlink="http://www.w3.org/1999/xlink"
   xmlns:sodipodi="http://sodipodi.sourceforge.net/DTD/sodipodi-0.dtd"
   xmlns:inkscape="http://www.inkscape.org/namespaces/inkscape"
   width="32"
   height="32"
   viewBox="0 0 32 32.000001"
   id="svg2"
   version="1.1"
   inkscape:version="0.91 r13725"
   sodipodi:docname="utilities-system-monitor.svg">
  <defs
     id="defs4">
    <linearGradient
       id="linearGradient4405"
       inkscape:collect="always">
      <stop
         id="stop4407"
         offset="0"
         style="stop-color:#000000;stop-opacity:0.30980393" />
      <stop
         style="stop-color:#000000;stop-opacity:0.15294118;"
         offset="0.83333623"
         id="stop4411" />
      <stop
         id="stop4409"
         offset="1"
         style="stop-color:#000000;stop-opacity:0;" />
    </linearGradient>
    <linearGradient
       id="linearGradient4373"
       inkscape:collect="always">
      <stop
         id="stop4375"
         offset="0"
         style="stop-color:#000000;stop-opacity:0.30980393" />
      <stop
         style="stop-color:#000000;stop-opacity:0.23137255;"
         offset="0.50000292"
         id="stop4381" />
      <stop
         style="stop-color:#000000;stop-opacity:0.49803922"
         offset="0.83333623"
         id="stop4379" />
      <stop
         id="stop4377"
         offset="1"
         style="stop-color:#000000;stop-opacity:0;" />
    </linearGradient>
    <linearGradient
       inkscape:collect="always"
       id="Shadow">
      <stop
         style="stop-color:#000000;stop-opacity:1;"
         offset="0"
         id="stop4181" />
      <stop
         style="stop-color:#000000;stop-opacity:0;"
         offset="1"
         id="stop4183" />
    </linearGradient>
    <radialGradient
       inkscape:collect="always"
       xlink:href="#Shadow"
       id="radialGradient4576"
       gradientUnits="userSpaceOnUse"
       gradientTransform="matrix(3.1111458e-7,2.6666673,-1.9999997,2.3333583e-7,84.99998,973.69551)"
       cx="28"
       cy="28.5"
       fx="28"
       fy="28.5"
       r="1.5" />
    <radialGradient
       inkscape:collect="always"
       xlink:href="#Shadow"
       id="radialGradient4578"
       gradientUnits="userSpaceOnUse"
       gradientTransform="matrix(-1.9999998,2.4329792e-6,-3.2319946e-6,-2.6666666,5.119531,1131.421)"
       cx="0.55971527"
       cy="31.14706"
       fx="0.55971527"
       fy="31.14706"
       r="1.5" />
    <linearGradient
       inkscape:collect="always"
       xlink:href="#Shadow"
       id="linearGradient4580"
       gradientUnits="userSpaceOnUse"
       gradientTransform="translate(0,1020.3622)"
       x1="16"
       y1="28"
       x2="16"
       y2="32" />
    <linearGradient
       inkscape:collect="always"
       xlink:href="#Shadow"
       id="linearGradient4361"
       x1="19"
       y1="1028.3622"
       x2="19"
       y2="1034.3622"
       gradientUnits="userSpaceOnUse" />
    <linearGradient
       inkscape:collect="always"
       xlink:href="#linearGradient4373"
       id="linearGradient4371"
       x1="11"
       y1="1028.3622"
       x2="11"
       y2="1034.3622"
       gradientUnits="userSpaceOnUse" />
    <linearGradient
       inkscape:collect="always"
       xlink:href="#linearGradient4405"
       id="linearGradient4393"
       x1="7"
       y1="1028.3622"
       x2="7"
       y2="1034.3622"
       gradientUnits="userSpaceOnUse" />
  </defs>
  <sodipodi:namedview
     id="base"
     pagecolor="#ffffff"
     bordercolor="#666666"
     borderopacity="1.0"
     inkscape:pageopacity="0.0"
     inkscape:pageshadow="2"
     inkscape:zoom="16"
     inkscape:cx="9.0768689"
     inkscape:cy="11.164098"
     inkscape:document-units="px"
     inkscape:current-layer="layer1"
     showgrid="true"
     inkscape:window-width="2560"
     inkscape:window-height="1017"
     inkscape:window-x="0"
     inkscape:window-y="0"
     inkscape:window-maximized="1"
     inkscape:showpageshadow="false"
     borderlayer="true"
     units="px">
    <inkscape:grid
       type="xygrid"
       id="grid4155"
       empspacing="2" />
    <sodipodi:guide
       position="2,30.000018"
       orientation="28,0"
       id="guide4159" />
    <sodipodi:guide
       position="2,2.0000174"
       orientation="0,28"
       id="guide4161" />
    <sodipodi:guide
       position="30,2.0000174"
       orientation="-28,0"
       id="guide4163" />
    <sodipodi:guide
       position="30,30.000018"
       orientation="0,-28"
       id="guide4165" />
  </sodipodi:namedview>
  <metadata
     id="metadata7">
    <rdf:RDF>
      <cc:Work
         rdf:about="">
        <dc:format>image/svg+xml</dc:format>
        <dc:type
           rdf:resource="http://purl.org/dc/dcmitype/StillImage" />
        <dc:title />
      </cc:Work>
    </rdf:RDF>
  </metadata>
  <g
     inkscape:label="Layer 1"
     inkscape:groupmode="layer"
     id="layer1"
     transform="translate(0,-1020.3622)">
    <path
       sodipodi:nodetypes="ccccc"
       inkscape:connector-curvature="0"
       id="path4574"
       d="m 4,1048.3622 0,4 24,0 0,-4 z"
       style="opacity:1;fill:url(#linearGradient4580);fill-opacity:1;stroke:none;stroke-width:2;stroke-linecap:round;stroke-linejoin:round;stroke-miterlimit:4;stroke-dasharray:none;stroke-opacity:0.52777782" />
    <path
       inkscape:connector-curvature="0"
       id="path4572"
       d="m 4,1048.3622 -3,0 0,1 c 0,1.662 1.33799,3 3,3 l 0,-4 z"
       style="opacity:1;fill:url(#radialGradient4578);fill-opacity:1;stroke:none;stroke-width:2;stroke-linecap:round;stroke-linejoin:round;stroke-miterlimit:4;stroke-dasharray:none;stroke-opacity:0.52777782" />
    <path
       inkscape:connector-curvature="0"
       id="path4570"
       d="m 28,1048.3622 0,4 c 1.66201,0 3,-1.338 3,-3 l 0,-1 -3,0 z"
       style="opacity:1;fill:url(#radialGradient4576);fill-opacity:1;stroke:none;stroke-width:2;stroke-linecap:round;stroke-linejoin:round;stroke-miterlimit:4;stroke-dasharray:none;stroke-opacity:0.52777782" />
    <rect
       style="opacity:1;fill:#37474f;fill-opacity:1;stroke:none;stroke-width:2;stroke-linecap:round;stroke-linejoin:round;stroke-miterlimit:4;stroke-dasharray:none;stroke-opacity:0.52777782"
       id="rect4163"
       width="30"
       height="25.999983"
       x="1"
       y="1024.3622"
       ry="2.0000174" />
    <rect
       style="opacity:1;fill:#455a64;fill-opacity:1;stroke:none;stroke-width:2;stroke-linecap:round;stroke-linejoin:round;stroke-miterlimit:4;stroke-dasharray:none;stroke-opacity:1"
       id="rect4267"
       width="28"
       height="24"
       x="2"
       y="1025.3622"
       ry="1.0000174" />
    <path
       style="fill:#26c6da;fill-opacity:1;fill-rule:evenodd;stroke:none;stroke-width:1px;stroke-linecap:butt;stroke-linejoin:miter;stroke-opacity:1"
       d="M 26 15 L 18 19 L 16 18 L 13 17 L 7 21 L 5 20 L 2 22 L 2 28 C 2 28.55401 2.4459904 29 3 29 L 29 29 C 29.55401 29 30 28.55401 30 28 L 30 15 L 28 16 L 26 15 z "
       transform="translate(0,1020.3622)"
       id="path4269" />
    <path
       style="fill:#4dd0e1;fill-rule:evenodd;stroke:none;stroke-width:1px;stroke-linecap:butt;stroke-linejoin:miter;stroke-opacity:1;fill-opacity:1"
       d="M 13 17 L 13 29 L 18 29 L 18 19 L 16 18 L 13 17 z "
       transform="translate(0,1020.3622)"
       id="path4271" />
    <path
       style="fill:#00bcd4;fill-rule:evenodd;stroke:none;stroke-width:1px;stroke-linecap:butt;stroke-linejoin:miter;stroke-opacity:1;fill-opacity:1"
       d="M 5 20 L 2 22 L 2 28 C 2 28.55401 2.4459904 29 3 29 L 5 29 L 5 20 z "
       transform="translate(0,1020.3622)"
       id="path4276" />
    <path
       style="fill:#4dd0e1;fill-rule:evenodd;stroke:none;stroke-width:1px;stroke-linecap:butt;stroke-linejoin:miter;stroke-opacity:1;fill-opacity:1"
       d="M 26 15 L 26 29 L 29 29 C 29.55401 29 30 28.55401 30 28 L 30 15 L 28 16 L 26 15 z "
       transform="translate(0,1020.3622)"
       id="path4281" />
    <path
       style="opacity:1;fill:#00acc1;fill-opacity:1;stroke:none;stroke-width:2;stroke-linecap:round;stroke-linejoin:round;stroke-miterlimit:4;stroke-dasharray:none;stroke-opacity:1"
       d="M 30 15 L 29 15.5 L 29 28 L 3 28 L 3 21.333984 L 2 22 L 2 28 C 2 28.55401 2.4459904 29 3 29 L 29 29 C 29.55401 29 30 28.55401 30 28 L 30 15 z "
       transform="translate(0,1020.3622)"
       id="rect4295" />
    <path
       inkscape:connector-curvature="0"
       id="path4391"
       d="m 7,1028.3622 a 3,3 0 0 0 -3,3 3,3 0 0 0 3,3 3,3 0 0 0 2.4941406,-1.3379 l -0.8320312,-0.5527 A 2,2 0 0 1 7,1033.3622 a 2,2 0 0 1 -2,-2 2,2 0 0 1 2,-2 2,2 0 0 1 1.6640625,0.8906 l 0.8300781,-0.5547 A 3,3 0 0 0 7,1028.3622 Z"
       style="opacity:1;fill:url(#linearGradient4393);fill-opacity:1;stroke:none;stroke-width:2;stroke-linecap:round;stroke-linejoin:round;stroke-miterlimit:4;stroke-dasharray:none;stroke-opacity:1" />
    <path
       style="opacity:1;fill:#b0bec5;fill-opacity:1;stroke:none;stroke-width:2;stroke-linecap:round;stroke-linejoin:round;stroke-miterlimit:4;stroke-dasharray:none;stroke-opacity:1"
       d="m 7,1027.3622 a 3,3 0 0 0 -3,3 3,3 0 0 0 3,3 3,3 0 0 0 2.4941406,-1.3379 l -0.8320312,-0.5527 A 2,2 0 0 1 7,1032.3622 a 2,2 0 0 1 -2,-2 2,2 0 0 1 2,-2 2,2 0 0 1 1.6640625,0.8906 l 0.8300781,-0.5547 A 3,3 0 0 0 7,1027.3622 Z"
       id="path4306"
       inkscape:connector-curvature="0" />
    <path
       id="path4369"
       d="m 10,1028.3622 0,6 1,0 0,-2 2,0 c 1.108,0 2,-0.892 2,-2 0,-1.108 -0.892,-2 -2,-2 l -2,0 -1,0 z m 1,1 2,0 c 0.554,0 1,0.446 1,1 0,0.554 -0.446,1 -1,1 l -2,0 0,-2 z"
       style="opacity:1;fill:url(#linearGradient4371);fill-opacity:1;stroke:none;stroke-width:2;stroke-linecap:round;stroke-linejoin:round;stroke-miterlimit:4;stroke-dasharray:none;stroke-opacity:1"
       inkscape:connector-curvature="0" />
    <path
       style="opacity:1;fill:#b0bec5;fill-opacity:1;stroke:none;stroke-width:2;stroke-linecap:round;stroke-linejoin:round;stroke-miterlimit:4;stroke-dasharray:none;stroke-opacity:1"
       d="M 10 7 L 10 13 L 11 13 L 11 11 L 13 11 C 14.108 11 15 10.108 15 9 C 15 7.892 14.108 7 13 7 L 11 7 L 10 7 z M 11 8 L 13 8 C 13.554 8 14 8.446 14 9 C 14 9.554 13.554 10 13 10 L 11 10 L 11 8 z "
       transform="translate(0,1020.3622)"
       id="rect4314" />
    <path
       inkscape:connector-curvature="0"
       id="path4359"
       d="m 16.000001,1028.3622 0,1.5 0,0.5 0,1.5 c 0,1.385 1.115,2.5 2.5,2.5 1.385,0 2.5,-1.115 2.5,-2.5 l 0,-1.5 0,-0.5 0,-1.5 -0.519531,0 -0.480469,0 0,2 0,1.5 c 0,0.831 -0.669,1.5 -1.5,1.5 -0.831,0 -1.5,-0.669 -1.5,-1.5 l 0,-1.5 0,-2 -0.480469,0 -0.519531,0 z"
       style="opacity:1;fill:url(#linearGradient4361);fill-opacity:1;stroke:none;stroke-width:2;stroke-linecap:round;stroke-linejoin:round;stroke-miterlimit:4;stroke-dasharray:none;stroke-opacity:1" />
    <path
       style="opacity:1;fill:#b0bec5;fill-opacity:1;stroke:none;stroke-width:2;stroke-linecap:round;stroke-linejoin:round;stroke-miterlimit:4;stroke-dasharray:none;stroke-opacity:1"
       d="m 16.000001,1027.3622 0,1.5 0,0.5 0,1.5 c 0,1.385 1.115,2.5 2.5,2.5 1.385,0 2.5,-1.115 2.5,-2.5 l 0,-1.5 0,-0.5 0,-1.5 -0.519531,0 -0.480469,0 0,2 0,1.5 c 0,0.831 -0.669,1.5 -1.5,1.5 -0.831,0 -1.5,-0.669 -1.5,-1.5 l 0,-1.5 0,-2 -0.480469,0 -0.519531,0 z"
       id="rect4330"
       inkscape:connector-curvature="0" />
  </g>
</svg>
