<?xml version="1.0" encoding="UTF-8" standalone="no"?>
<!-- Created with Inkscape (http://www.inkscape.org/) -->

<svg
   xmlns:dc="http://purl.org/dc/elements/1.1/"
   xmlns:cc="http://creativecommons.org/ns#"
   xmlns:rdf="http://www.w3.org/1999/02/22-rdf-syntax-ns#"
   xmlns:svg="http://www.w3.org/2000/svg"
   xmlns="http://www.w3.org/2000/svg"
   xmlns:sodipodi="http://sodipodi.sourceforge.net/DTD/sodipodi-0.dtd"
   xmlns:inkscape="http://www.inkscape.org/namespaces/inkscape"
   width="64"
   height="64"
   viewBox="0 0 64 64.000003"
   id="svg2"
   version="1.1"
   inkscape:version="0.91+devel r"
   sodipodi:docname="firefox.svg">
  <defs
     id="defs4" />
  <sodipodi:namedview
     id="base"
     pagecolor="#ffffff"
     bordercolor="#666666"
     borderopacity="1.0"
     inkscape:pageopacity="0.0"
     inkscape:pageshadow="2"
     inkscape:zoom="5.6568543"
     inkscape:cx="38.234069"
     inkscape:cy="43.882161"
     inkscape:document-units="px"
     inkscape:current-layer="layer1"
     showgrid="true"
     units="px"
     inkscape:showpageshadow="false"
     borderlayer="true"
     inkscape:window-width="1366"
     inkscape:window-height="670"
     inkscape:window-x="-4"
     inkscape:window-y="29"
     inkscape:window-maximized="1"
     showguides="true">
    <inkscape:grid
       type="xygrid"
       id="grid4136" />
    <sodipodi:guide
       position="5,59.000069"
       orientation="54,0"
       id="guide4142" />
    <sodipodi:guide
       position="5,5.0000688"
       orientation="0,54"
       id="guide4144" />
    <sodipodi:guide
       position="59,5.0000688"
       orientation="-54,0"
       id="guide4146" />
    <sodipodi:guide
       position="59,59.000069"
       orientation="0,-54"
       id="guide4148" />
    <sodipodi:guide
       position="0,64.000069"
       orientation="64,0"
       id="guide4150" />
    <sodipodi:guide
       position="0,6.875e-05"
       orientation="0,64"
       id="guide4152" />
    <sodipodi:guide
       position="64,6.875e-05"
       orientation="-64,0"
       id="guide4154" />
    <sodipodi:guide
       position="64,64.000069"
       orientation="0,-64"
       id="guide4156" />
    <sodipodi:guide
       position="13,50.999947"
       orientation="38,0"
       id="guide4155" />
    <sodipodi:guide
       position="13,12.999947"
       orientation="0,38"
       id="guide4157" />
    <sodipodi:guide
       position="51,12.999947"
       orientation="-38,0"
       id="guide4159" />
    <sodipodi:guide
       position="51,50.999947"
       orientation="0,-38"
       id="guide4161" />
    <sodipodi:guide
       position="17,46.999949"
       orientation="30,0"
       id="guide4151" />
    <sodipodi:guide
       position="105,16.999947"
       orientation="0,30"
       id="guide4153" />
    <sodipodi:guide
       position="47,16.999947"
       orientation="-30,0"
       id="guide4158" />
    <sodipodi:guide
       position="49,46.999949"
       orientation="0,-30"
       id="guide4160" />
  </sodipodi:namedview>
  <metadata
     id="metadata7">
    <rdf:RDF>
      <cc:Work
         rdf:about="">
        <dc:format>image/svg+xml</dc:format>
        <dc:type
           rdf:resource="http://purl.org/dc/dcmitype/StillImage" />
        <dc:title />
      </cc:Work>
    </rdf:RDF>
  </metadata>
  <g
     inkscape:label="Capa 1"
     inkscape:groupmode="layer"
     id="layer1"
     transform="translate(0,-1058.5196)">
    <circle
       style="opacity:1;fill:#265581;fill-opacity:1;stroke:none;stroke-opacity:1"
       id="path4204"
       cx="32"
       cy="1090.5197"
       r="26" />
    <path
       style="fill:#265581;fill-opacity:1;stroke:none"
       d="M 32 5 C 23.743952 5 16.384189 8.6758449 11.439453 14.478516 C 11.876435 15.438171 12.496837 16.00509 13.255859 16.277344 C 15.083443 15.629337 16.745046 15.409231 18.220703 15.626953 C 19.45521 15.163648 20.758382 14.58511 22.076172 14.009766 C 23.669102 13.015453 25.37426 12.398026 27.203125 12.171875 C 26.823434 12.42715 26.474851 12.678766 26.158203 12.925781 C 25.208899 13.666529 24.539931 14.37035 24.136719 15.035156 L 24.015625 15.15625 C 23.881297 15.3814 23.7557 15.613825 23.638672 15.855469 C 23.287 16.580587 23.017081 17.384749 22.845703 18.302734 C 22.831153 18.376134 22.806641 18.503906 22.806641 18.503906 C 23.000879 20.000806 25.055183 20.909775 26.558594 21.609375 L 26.558594 21.570312 C 27.566477 21.771213 28.574175 21.864547 29.582031 21.810547 C 29.702958 21.884397 29.802099 21.961333 29.876953 22.041016 C 30.026771 22.200255 30.082597 22.370982 30.041016 22.560547 C 30.02017 22.655392 29.97477 22.7552 29.904297 22.859375 C 29.890387 22.873375 29.838529 22.878344 29.824219 22.902344 C 29.810719 22.902344 29.797513 22.919406 29.783203 22.941406 C 29.736128 23.203506 29.645519 23.431935 29.505859 23.626953 C 29.366516 23.822166 29.177487 23.983578 28.935547 24.111328 C 27.847272 24.729428 26.543354 25.683072 25.105469 27.013672 L 25.105469 27.056641 C 21.000489 30.000241 19.999024 29.999928 20.423828 32.986328 L 20.423828 33.025391 L 20.828125 33.630859 C 21.09691 33.963359 21.368473 34.278996 21.642578 34.578125 C 22.190917 35.176753 22.74781 35.707957 23.316406 36.171875 C 23.316775 36.172176 23.31799 36.171574 23.318359 36.171875 C 23.602083 36.403311 23.889136 36.618744 24.177734 36.816406 C 25.277374 37.521629 26.393574 37.807563 27.535156 37.664062 C 27.763523 37.635339 27.994118 37.590573 28.224609 37.527344 C 28.68573 37.400741 29.150686 37.205003 29.621094 36.939453 C 29.867217 36.783693 30.113713 36.644625 30.357422 36.523438 C 30.358211 36.523046 30.358586 36.521876 30.359375 36.521484 C 31.337248 36.035643 32.294366 35.828113 33.232422 35.892578 C 33.466942 35.908679 33.699669 35.942085 33.931641 35.992188 C 34.396221 36.092369 34.854371 36.260498 35.308594 36.496094 C 35.516966 36.613644 35.715396 36.733989 35.902344 36.857422 C 36.275791 37.103991 36.604228 37.363909 36.876953 37.640625 C 37.013807 37.779482 37.136487 37.922183 37.244141 38.070312 C 37.539184 38.862913 37.202789 39.358969 36.316406 39.480469 C 36.209351 39.430014 36.101593 39.390398 35.994141 39.363281 C 35.993507 39.363122 35.992821 39.36344 35.992188 39.363281 C 35.784337 39.311073 35.574251 39.304583 35.357422 39.339844 C 35.23615 39.359565 35.114762 39.390369 34.988281 39.4375 L 31.357422 41.779297 C 30.976955 41.971793 30.583158 42.138664 30.185547 42.292969 C 30.006552 42.362394 29.828891 42.434508 29.646484 42.496094 C 29.351589 42.595734 29.053659 42.684748 28.75 42.763672 C 27.23581 43.157223 25.613511 43.292016 23.894531 43.150391 C 24.555851 43.817141 25.247181 44.415244 25.96875 44.939453 C 26.690319 45.463662 27.441618 45.914642 28.222656 46.291016 C 28.743348 46.541931 29.277385 46.760109 29.824219 46.943359 C 30.197038 47.064534 30.576025 47.168833 30.960938 47.257812 C 31.345896 47.346746 31.735986 47.419608 32.132812 47.478516 C 32.926944 47.596641 33.743799 47.65696 34.583984 47.667969 C 35.380417 47.637631 36.161366 47.523159 36.925781 47.324219 C 37.945002 47.058966 38.934361 46.644078 39.896484 46.078125 C 42.061262 44.80473 44.082992 42.767628 45.957031 39.962891 C 46.048632 40.860341 45.9417 41.932929 45.65625 43.195312 C 45.56121 43.616127 45.446812 44.057959 45.3125 44.521484 C 45.666894 44.141884 45.992809 43.736903 46.291016 43.306641 C 46.589222 42.876378 46.859572 42.420484 47.101562 41.939453 C 47.343843 41.457923 47.55822 40.952432 47.744141 40.419922 C 47.929887 39.888016 48.087325 39.330934 48.216797 38.748047 C 48.605213 36.999386 48.739666 35.021906 48.621094 32.8125 C 48.581586 32.076045 48.513883 31.313266 48.417969 30.525391 C 48.693733 30.740391 48.990269 31.147359 49.300781 31.755859 C 49.611294 32.364359 49.937638 33.175966 50.273438 34.197266 C 50.518689 33.431191 50.694133 32.615327 50.800781 31.75 C 50.90743 30.884673 50.944905 29.968659 50.914062 29.001953 C 50.898641 28.5186 50.865992 28.022769 50.816406 27.513672 C 50.717234 26.495478 50.549451 25.4255 50.314453 24.302734 C 50.196954 23.741351 50.063357 23.16605 49.912109 22.578125 C 50.157357 22.651975 50.389288 22.743628 50.609375 22.853516 C 51.049385 23.073439 51.440034 23.367158 51.779297 23.738281 C 51.948928 23.923843 52.1055 24.128466 52.25 24.353516 C 52.465196 22.210116 51.637143 20.207122 49.767578 18.349609 C 48.682485 17.271512 47.235679 16.243991 45.449219 15.265625 C 45.312023 15.190479 45.184299 15.113612 45.042969 15.039062 C 45.042469 15.038799 45.041516 15.039326 45.041016 15.039062 C 44.842832 14.934538 44.628186 14.831864 44.421875 14.728516 C 44.21547 14.625138 44.017273 14.520168 43.802734 14.417969 C 43.373861 14.213629 42.930122 14.012104 42.46875 13.8125 C 42.007385 13.6129 41.529019 13.415547 41.035156 13.220703 C 41.310114 13.113529 41.593904 13.029331 41.884766 12.966797 C 42.17691 12.904247 42.477774 12.862592 42.787109 12.84375 C 43.404345 12.805562 44.055564 12.854772 44.748047 12.982422 C 44.404874 12.226734 43.782211 11.543686 42.863281 10.972656 C 42.86282 10.97237 42.861789 10.972943 42.861328 10.972656 C 42.55476 10.782253 42.216698 10.604028 41.84375 10.439453 C 41.602586 10.32877 41.345131 10.225894 41.074219 10.128906 C 41.073659 10.128706 41.072826 10.129106 41.072266 10.128906 C 40.257565 9.8373906 39.311625 9.6019 38.253906 9.390625 C 41.4654 9.485025 44.262552 9.8620469 46.601562 10.560547 C 47.39593 10.801247 48.145021 11.101122 48.849609 11.451172 C 49.554491 11.801141 50.215456 12.201125 50.832031 12.640625 C 45.97442 7.9145331 39.344389 5 32 5 z M 50.832031 12.640625 C 52.624183 14.383825 54.1673 16.375347 55.419922 18.560547 C 55.538491 18.876747 55.666956 19.189725 55.759766 19.515625 C 55.758056 19.383225 55.740122 19.223478 55.732422 19.080078 C 54.43113 16.685962 52.767953 14.524132 50.832031 12.640625 z M 55.476562 20.119141 C 55.540762 20.252341 55.578462 20.387438 55.638672 20.523438 C 55.638672 20.550437 55.663424 20.573562 55.677734 20.601562 C 55.683134 20.578563 55.672334 20.547437 55.677734 20.523438 C 55.609239 20.393638 55.549732 20.251441 55.476562 20.119141 z "
       transform="translate(0,1058.5196)"
       id="rect4158" />
    <path
       style="fill:#1771a2;fill-opacity:1;fill-rule:nonzero;stroke:none"
       d="m 26.269531,5.8925781 c -1.091744,0.2315 -2.14957,0.5461969 -3.1875,0.9042969 -0.0261,0.075 -0.06087,0.1518719 -0.04687,0.2011719 0.0727,0.2584 0.550121,0.073806 0.677735,0.3164062 -0.02932,0.3 -0.353313,0.449225 -0.607422,0.578125 -0.23694,0.1191 -0.540937,0.4209784 -0.796875,0.2675781 -0.100073,-0.2607999 0.289967,-0.2614749 0.195312,-0.484375 -0.07028,-0.1665999 -0.373425,-0.056397 -0.507812,-0.2167968 -0.05991,-0.074 -0.0736,-0.1545875 -0.07227,-0.2421875 -4.055364,1.6123685 -7.607939,4.1849221 -10.412109,7.4238281 1.494124,2.991639 4.934549,1.798119 8.705078,0.167969 -0.04521,0.01072 -0.09223,0.02493 -0.132813,0.02148 -0.18019,-0.017 -0.386111,-0.263841 -0.386718,-0.43164 -6.13e-4,-0.207101 0.300078,-0.324147 0.121093,-0.560547 0.02565,-0.1604 0.381879,-0.24996 0.337891,-0.50586 -0.0452,-0.266 -0.417716,-0.130275 -0.75,-0.171875 -0.241874,-0.03 -0.561009,-0.168709 -0.775391,-0.287109 -0.283351,-0.1569 -0.525034,-0.463866 -0.894531,-0.509766 -0.210123,-0.026 -0.406868,0.07317 -0.505859,-0.04883 -0.108609,-0.1297 0.04463,-0.323009 0.05078,-0.412109 -0.0072,-0.147 -0.280649,-0.193891 -0.292969,-0.337891 -0.0098,-0.1028 0.260039,-0.420568 0.363281,-0.509765 0.191128,-0.166402 0.539843,-0.341013 0.847657,-0.507813 0.301135,-0.1633 0.649459,-0.335794 0.941406,-0.433594 0.124661,-0.043 0.266993,-0.02722 0.386719,-0.07422 C 19.833301,9.9264625 20.03471,9.7097 20.324219,9.625 c 0.150876,-0.047 0.31776,-0.032219 0.486328,-0.074219 0.401261,-0.088 0.697671,-0.3773468 1.039062,-0.4355468 -0.07571,0.2785 -0.386282,0.3229687 -0.458984,0.6054687 0.292548,0.5323999 0.793505,-0.1252467 1.136719,-0.1230469 0.311547,0 0.623629,0.4419908 0.820312,0.025391 -0.07141,-0.2254 -0.281489,-0.3530219 -0.482422,-0.4824219 -0.185656,-0.1192 -0.4785,-0.2274281 -0.458984,-0.4863281 0.222971,-0.1007 0.308003,0.170675 0.507812,0.171875 0.1087,6e-4 0.250934,-0.134175 0.363282,-0.171875 0.251683,-0.085 0.672507,-0.1109094 0.871094,-0.2871094 0.119644,-0.1058 0.09856,-0.2758094 0.191406,-0.4121094 0.07944,-0.1151 0.277,-0.148325 0.361328,-0.265625 0.102659,-0.1429 0.01713,-0.2625906 0.148437,-0.3378906 0.28222,-0.126 0.632642,0.029 0.945313,0 0.147838,-0.014 0.245515,-0.1327469 0.384766,-0.1230469 0.270593,0.023 0.414128,0.456478 0.603515,0.5800782 0.138645,0.088 0.388254,0.084772 0.412109,0.2636718 0.04698,0.3529 -0.462629,0.3821469 -0.77539,0.5605469 -0.155728,0.087 -0.217597,0.2887281 -0.408203,0.3613281 -0.511787,0.1955 -1.29137,-0.2180625 -1.455078,0.3359375 0.236409,0.3481 0.670042,-0.022438 0.96875,-0.023437 0.213163,0 0.472859,0.1974907 0.603515,0.3378906 0.113025,0.1215002 0.153588,0.3580998 0.291016,0.4374998 0.09161,0.053 0.252151,0.03522 0.363281,0.07422 0.35484,0.108 0.652603,0.299197 1.041016,0.216797 0.13318,-0.234 -0.273637,-0.300775 -0.119141,-0.4843751 0.260267,0.023 0.426624,0.1394031 0.626953,0.2207031 0.279793,-0.2047004 0.46879,-0.2299936 0.458985,-0.5585938 -0.0077,-0.2748998 -0.366193,-0.2877687 -0.361328,-0.6054687 0.003,-0.1788 0.12815,-0.2581719 0.263671,-0.2636719 0.311456,-0.015 0.40234,0.450875 0.63086,0.484375 0.137952,0.022 0.546389,-0.1803031 0.628906,-0.2207031 0.116548,-0.056 0.470886,-0.2648656 0.482422,-0.3847656 0.0178,-0.1784 -0.373402,-0.4112281 -0.556641,-0.4863281 -0.260788,-0.1070001 -0.520632,-0.087553 -0.625,-0.3144532 -0.05557,-0.1235 0.03017,-0.2477843 -0.07422,-0.3339844 -0.0123,-0.1307999 0.159557,-0.2171498 0.121093,-0.34375 -0.03912,-0.1286997 -0.180047,-0.1063531 -0.363281,-0.1894531 -0.128845,-0.058 -0.249058,-0.19185 -0.361328,-0.21875 C 28.424616,6.6398265 28.275631,6.674 28.160156,6.625 27.735049,6.4675 27.81669,6.1113125 27.535156,5.9453125 c -0.365253,0.047 -0.680733,-0.1294098 -0.943359,0.025391 -0.08169,-0.047 -0.176948,-0.060312 -0.275391,-0.070312 l 0,-0.00781 c -0.01503,-9e-4 -0.03157,3.4e-6 -0.04687,0 z M 26.279297,7.875 c -0.23421,-0.03 -0.550689,0.1693375 -0.511719,0.3359375 0.0653,0.2781 0.753789,1.5e-4 0.703125,-0.21875 -0.04384,-0.073 -0.113315,-0.1071344 -0.191406,-0.1152344 z m 1.314453,0.5996094 c 0.02835,-5e-4 0.06097,0.015391 0.08789,0.025391 0.0171,0.1215 -0.05289,0.1571781 -0.171875,0.1425781 -0.07147,-0.088 -0.0014,-0.1662683 0.08398,-0.1679687 z m -5.476562,1.5117187 c -0.04705,0.0045 -0.08887,0.017063 -0.121094,0.039063 -0.09461,0.056 -0.1062,0.146106 -0.09766,0.191406 0.05183,0.2572 0.5361,0.03339 0.53125,-0.09961 -0.0029,-0.062 -0.07583,-0.108654 -0.167969,-0.1269536 l 0,0.00391 c -0.04607,-0.01 -0.09749,-0.012306 -0.144531,-0.00781 z m 1.859374,0.1523439 c -0.326736,0.076 -0.311149,0.580634 -0.626953,0.677734 0.0428,0.2364 -0.279061,0.391225 -0.314453,0.578125 -0.02382,0.1261 0.03956,0.276225 0.04687,0.390625 0.0727,1.1567 -0.878969,1.699069 -2.005859,1.667969 -0.221058,0.2114 -0.168731,0.604731 -0.289063,0.894531 -0.05459,0.131354 -0.184544,0.263299 -0.330078,0.357422 0.539493,-0.234855 1.071783,-0.456337 1.619141,-0.695312 1.61915,-0.679677 3.31283,-1.434839 5.126953,-1.837891 -0.379691,0.255275 -0.728274,0.506891 -1.044922,0.753906 -0.949304,0.740748 -1.618272,1.444569 -2.021484,2.109375 l -0.121094,0.121094 c -0.127989,0.214525 -0.246996,0.43859 -0.359375,0.667969 -0.09822,0.202935 -0.190386,0.412625 -0.275391,0.628906 -0.0023,0.0058 -0.0036,0.01176 -0.0059,0.01758 -0.182663,0.467541 -0.33498,0.966649 -0.453125,1.503906 0.0771,-0.02411 0.167377,-0.05476 0.234375,-0.08008 0.340784,-0.1296 0.691963,-0.361762 1.066406,-0.289062 -0.07328,0.2596 -0.424401,0.167222 -0.365234,0.482422 0.08253,0.4373 0.665796,-0.12936 0.820312,-0.19336 0.295065,-0.1249 0.8003,-0.199445 1.1875,-0.339843 0.339569,-0.123402 0.948958,-0.310819 0.628907,-0.699219 -0.266951,-0.018 -0.396225,0.310656 -0.628907,0.410156 -0.160675,0.025 -0.128895,-0.133584 -0.265625,-0.146484 -0.129532,-0.017 -0.204108,0.121108 -0.33789,0.09961 -0.133086,-0.024 -0.319022,-0.229166 -0.339844,-0.384766 -0.05307,-0.4037 0.340546,-0.569893 0.507813,-0.871093 -0.110525,-0.3652 -0.614536,-0.0781 -0.919922,-0.220703 0.02931,-0.217303 0.255654,-0.368557 0.509765,-0.410157 0.208219,-0.032 0.674852,-0.01334 0.798828,0.09766 0.0727,0.059 0.0087,0.212953 0.121094,0.314453 0.123403,0.1113 0.273612,0.101873 0.433594,0.07617 0.05813,-0.275598 -0.359653,-0.206071 -0.314453,-0.388671 0.326728,-0.2139 0.855821,-0.0317 1.255859,-0.0957 0.230256,-0.032 0.473679,-0.199354 0.677735,-0.314454 0.194161,-0.1092 0.448418,-0.3051 0.654296,-0.125 0.05625,0.1972 -0.181092,0.265082 -0.291015,0.363282 -0.370106,0.3291 -0.75333,0.707943 -1.041016,1.089843 0.176555,0.1723 0.500209,0.08219 0.798828,0.117188 0.116676,0.018 0.265214,0.05217 0.388672,0.07617 0.144102,0.026 0.295249,0.02083 0.408203,0.04883 0.203446,0.051 0.261877,0.269531 0.462891,0.269531 0.330984,-7e-4 0.332015,-0.360384 0.144531,-0.583984 0.0593,-0.2285 0.150935,-0.34556 0.07031,-0.50586 -0.149053,-0.2977 -0.69649,0.0011 -0.72461,-0.386718 -0.01774,-0.2411 0.201706,-0.23131 0.289063,-0.41211 -0.0398,-0.466 0.386912,-0.500268 0.341797,-0.917968 -0.01891,-0.174902 -0.168255,-0.174591 -0.291016,-0.337891 -0.06354,-0.083 -0.09561,-0.249753 -0.171875,-0.314453 -0.252899,-0.2135 -0.76573,-0.172278 -0.796875,-0.580078 -0.01138,-0.2409 0.05705,-0.443678 0.02344,-0.705078 -0.03108,-0.243502 -0.196993,-0.918444 -0.410156,-0.964844 -0.269991,-0.057 -0.547397,0.40334 -0.871094,0.55664 -0.175944,0.083 -0.426965,0.177932 -0.603515,0.144532 -0.114797,-0.023 -0.34363,-0.192463 -0.361328,-0.414063 -0.01959,-0.2544 0.167818,-0.257897 0.214843,-0.529297 -0.04038,-0.1598 -0.204382,-0.12504 -0.361328,-0.24414 -0.177762,-0.135 -0.320226,-0.423632 -0.55664,-0.457032 -0.117806,-0.019 -0.269427,0.08661 -0.386719,0.09961 -0.359781,0.025 -0.671683,-0.231622 -0.945313,-0.169922 z m 23.949219,0.404297 c -0.02683,0.204068 0.02782,0.369307 0.06641,0.52539 0.0019,7.97e-4 0.004,0.0012 0.0059,0.002 0.476092,0.199384 0.929948,0.424861 1.369141,0.666016 0.0055,0.003 0.01204,0.0048 0.01758,0.0078 0.01455,-0.01024 0.03048,-0.01923 0.04492,-0.0293 -0.484187,-0.411 -0.991035,-0.795278 -1.503907,-1.171875 z m -3.84375,1.464843 c -0.118158,0.10053 -0.222215,0.207046 -0.246093,0.263672 -0.06864,0.162776 0.0042,0.34891 -0.002,0.591797 0.297528,0.02441 0.600608,0.06136 0.914063,0.119141 -0.08667,-0.190853 -0.209389,-0.371961 -0.332031,-0.552734 -0.103014,-0.142976 -0.212607,-0.28447 -0.333985,-0.421876 z m -1.822265,1.71875 c -0.0065,0.01508 -0.01603,0.02367 -0.01953,0.04492 -0.02387,0.149 0.125356,0.221529 0.121094,0.361328 -0.07145,0.177802 -0.281009,0.223 -0.316406,0.4375 0.244917,0.399802 0.834498,0.03822 1.138672,-0.05078 0.136822,-0.043 0.336238,-0.03098 0.410156,-0.142578 0.0083,-0.01273 0.0023,-0.03441 0.0078,-0.04883 -0.431111,-0.202353 -0.878583,-0.403886 -1.341796,-0.601563 z M 13.626953,13.84375 c 0.452534,-0.1059 0.269911,0.695178 0,0.705078 -0.376261,0.014 -0.30304,-0.634278 0,-0.705078 z m 30.503906,0.740234 c -0.008,0.01419 -0.02325,0.02091 -0.0293,0.03711 0.04222,0.118 0.22133,0.100034 0.240235,0.240234 -0.02689,0.154 -0.300102,0.179097 -0.240235,0.341797 0.258976,0.2022 0.528515,-0.04422 0.773438,-0.07422 0.105945,-0.01351 0.205353,-0.0072 0.310547,-0.0098 -0.338026,-0.180638 -0.692519,-0.35801 -1.054688,-0.535157 z m 1.876953,0.992188 c -0.145848,0.06958 -0.293467,0.131613 -0.357421,0.132812 -0.137424,0 -0.264381,-0.12555 -0.363282,-0.09375 -0.145322,0.048 -0.127281,0.329019 -0.291015,0.386719 -0.32066,0.1128 -0.855057,-0.284541 -0.966797,0.193359 0.137421,0.2764 0.486589,0.208329 0.726562,0.361329 0.150878,0.094 0.468076,0.515834 0.507813,0.677734 0.03358,0.1368 -0.01805,0.678819 -0.07422,0.824219 -0.149656,0.3858 -0.497384,0.250834 -0.941406,0.240234 -0.121538,0 -0.248976,0.03139 -0.361328,0.02539 -0.748807,-0.052 -1.501488,-0.312597 -1.839844,0.220703 0.0273,0.4105 0.113813,0.682362 0.02344,1.039062 -0.06655,0.2619 -0.300603,0.499563 -0.289062,0.726563 0.0054,0.1152 0.139777,0.226365 0.167969,0.384765 0.01474,0.083 -0.03914,0.263644 0,0.339844 0.122786,0.2385 0.459018,0.03422 0.677734,0.07422 0.21377,0.033 0.461429,0.340678 0.458985,0.580078 -0.0023,0.1669 -0.161907,0.444769 -0.267579,0.605469 -0.211255,0.3207 -0.49452,0.336812 -0.796875,0.507812 -0.252202,0.1429 -0.359977,0.380407 -0.507812,0.628907 -0.16007,0.2688 -0.257342,0.431412 -0.191406,0.820312 -0.216202,0.4288 -0.54443,0.692484 -0.992188,0.896485 -0.132478,0.058 -0.313998,0.08212 -0.435547,0.169921 -0.09644,0.073 -0.15359,0.25751 -0.291015,0.41211 -0.169175,0.1893 -0.346364,0.266056 -0.435547,0.410156 -0.06896,0.1115 -0.09219,0.332722 -0.167969,0.482422 -0.103251,0.2029 -0.327291,0.303966 -0.462891,0.509765 -0.06231,0.099 -0.09894,0.285357 -0.167968,0.410157 -0.153305,0.2783 -0.412884,0.479709 -0.384766,0.724609 0.028,0.237 0.292233,0.279828 0.310547,0.486328 0.0107,0.1151 -0.07517,0.1854 -0.07031,0.3125 0.0082,0.1856 0.129872,0.316185 0.144532,0.458985 0.03665,0.3592 -0.125588,0.5046 -0.19336,0.75 -0.03239,0.1163 -0.01635,0.248043 -0.04687,0.339843 -0.0593,0.1794 -0.309556,0.342088 -0.314453,0.554688 -0.003,0.1515 0.157083,0.274528 0.169922,0.486328 0.0098,0.1459 -0.07642,0.297241 -0.05078,0.431641 0.0513,0.2633 0.521991,0.57079 0.726562,0.77539 0.273633,0.2736 0.630143,0.485138 0.748047,0.773438 0.09953,0.2448 0.102468,0.567453 0.292969,0.751953 0.14107,0.1355 0.373883,0.219528 0.554687,0.361328 0.168483,0.1309 0.353092,0.248172 0.533203,0.388672 0.294455,0.2303 0.73793,0.68579 1.207032,0.65039 0.244915,-0.02 0.495558,-0.216125 0.773437,-0.265624 0.285867,-0.051 0.657019,-0.07783 0.945313,-0.04883 0.221144,0.024 0.446131,0.155632 0.675781,0.144532 0.242401,-0.011 0.523377,-0.194154 0.798828,-0.314453 0.476997,-0.2076 1.189887,-0.486866 1.886719,-0.384766 0.53079,0.078 0.50341,0.684969 0.871094,0.917969 0.238351,0.01842 0.451081,-0.02971 0.652343,-0.06445 0.03775,-0.61936 0.04684,-1.265014 0.03906,-1.925782 -0.004,-0.232619 -0.0017,-0.45916 -0.01172,-0.697265 -0.0088,-0.240508 -0.02587,-0.48809 -0.04102,-0.734375 -0.04074,-0.61615 -0.08868,-1.239332 -0.167969,-1.890625 0.275764,0.215 0.5723,0.621968 0.882812,1.230468 0.310513,0.6085 0.636857,1.420107 0.972657,2.441407 0.122625,-0.383038 0.226547,-0.779783 0.314453,-1.1875 0.08709,-0.403926 0.157791,-0.819638 0.210937,-1.248047 4.73e-4,-0.0038 0.0015,-0.0079 0.002,-0.01172 0.02167,-0.175831 0.02699,-0.362987 0.04297,-0.542969 0.02334,-0.262895 0.05324,-0.52117 0.06445,-0.792969 0.01857,-0.450275 0.02047,-0.913759 0.0059,-1.388671 -1.9e-5,-6.32e-4 2e-5,-0.0013 0,-0.002 -0.01491,-0.480452 -0.04701,-0.972622 -0.0957,-1.478516 -0.03459,-0.359318 -0.08906,-0.733213 -0.140625,-1.105469 -0.02109,-0.152356 -0.03271,-0.298587 -0.05664,-0.453125 -7.81e-4,-0.005 -0.0012,-0.01058 -0.002,-0.01563 -0.04937,-0.317538 -0.116422,-0.647848 -0.177735,-0.974609 -0.04045,-0.215624 -0.07154,-0.424862 -0.117187,-0.644532 -0.0012,-0.0057 -0.0027,-0.01187 -0.0039,-0.01758 -0.115074,-0.552247 -0.246791,-1.117425 -0.394531,-1.695312 -1.61e-4,-6.31e-4 1.61e-4,-0.0013 0,-0.002 -0.06214,-0.04363 -0.127639,-0.08841 -0.140625,-0.132813 -0.0513,-0.1784 0.327004,-0.37965 0.339844,-0.53125 0.0098,-0.1126 -0.141798,-0.187481 -0.169922,-0.363281 -0.0165,-0.1069 0.04557,-0.21836 0.02539,-0.289063 -0.03541,-0.1248 -0.242737,-0.262625 -0.4375,-0.265624 -0.172309,0 -0.335202,0.139531 -0.482422,0.144531 -0.212561,0.014 -0.557087,-0.11751 -0.820313,-0.09961 -0.161281,0.015 -0.312631,0.109894 -0.46289,0.121094 -0.421473,0.032 -0.759819,-0.021 -1.085938,0 -0.237542,0.017 -0.650032,0.08771 -0.871094,0.191406 -0.112344,0.052 -0.195135,0.167535 -0.339843,0.240235 -0.0653,0.031 -0.157476,0.03317 -0.244141,0.07617 -0.13743,0.06 -0.277543,0.209387 -0.408203,0.242187 -0.189389,0.05 -0.482218,-0.03344 -0.824219,-0.02344 -0.245526,0.016 -0.646712,0.01593 -0.65039,-0.292969 -0.0059,-0.4478 0.758961,-0.282328 1.18164,-0.361328 0.159379,-0.029 0.246978,-0.178216 0.4375,-0.291016 0.0911,-0.054 0.205468,-0.06179 0.291016,-0.121094 0.14653,-0.1028 0.365289,-0.342184 0.386719,-0.458984 0.01892,-0.108 -0.06156,-0.257891 -0.04883,-0.337891 0.01664,-0.1038 0.134363,-0.210243 0.265626,-0.339843 0.203966,-0.2016 0.427352,-0.471516 0.677734,-0.603516 0.171084,-0.088 0.405597,-0.0802 0.484375,-0.216797 0.01774,-0.1549 -0.02907,-0.243665 -0.02539,-0.384766 0.1051,-0.098 0.179609,-0.178265 0.267578,-0.197265 0.260788,-0.056 0.516753,0.182622 0.820313,0.169922 0.131265,0 0.245645,-0.102813 0.386719,-0.195313 0.118492,-0.079 0.247197,-0.132406 0.363281,-0.191406 0.127634,-0.064 0.258937,-0.207097 0.414062,-0.216797 0.01588,-0.0011 0.02637,0.0084 0.04102,0.0098 -0.0028,-0.0025 -0.0051,-0.0053 -0.0078,-0.0078 -0.204638,-0.184407 -0.42117,-0.367307 -0.646484,-0.548828 -0.03814,-0.03066 -0.07649,-0.06123 -0.115234,-0.0918 -0.207133,-0.163864 -0.424162,-0.32684 -0.648438,-0.488281 -0.07539,-0.0541 -0.153143,-0.108288 -0.230468,-0.162109 -0.203099,-0.141795 -0.410332,-0.282017 -0.626954,-0.421875 -0.110245,-0.07101 -0.22613,-0.142376 -0.339843,-0.212891 -0.215253,-0.133711 -0.430257,-0.266567 -0.658203,-0.398437 -0.0052,-0.003 -0.01042,-0.0068 -0.01563,-0.0098 z m 3.310547,3.095703 c -0.156836,0.052 -0.231487,0.381628 0.0078,0.423828 0.111106,-0.063 0.197429,-0.156628 0.169922,-0.361328 -0.06137,-0.064 -0.123492,-0.08055 -0.175782,-0.06055 l -0.002,0 z m -0.06055,0.673828 c -0.07755,0.023 -0.163021,0.07731 -0.246093,0.162109 0.0059,0.27 0.02969,0.443035 -0.02344,0.677735 0.155816,0.2979 0.498663,0.02773 0.578125,-0.171875 0.09344,-0.5035 -0.0762,-0.731369 -0.308594,-0.667969 z m 2.0625,1.332031 c -0.215285,-0.014 -0.416827,0.01703 -0.542968,0.111328 0.177159,0.2902 0.548913,0.387485 0.945312,0.458985 0.01877,-0.01406 0.03041,-0.03448 0.04492,-0.05273 -0.07121,-0.168582 -0.156162,-0.335407 -0.242187,-0.501953 -0.07192,-0.0049 -0.133529,-0.0097 -0.205079,-0.01172 z m -0.18164,2.333985 c -0.08411,-0.01105 -0.167098,0.0048 -0.25,0.01563 0.213478,0.129272 0.414413,0.278527 0.601562,0.447265 0.06201,0.05453 0.124406,0.109126 0.183594,0.167969 0.06407,0.06533 0.126826,0.132545 0.1875,0.203125 0.137633,0.15664 0.269489,0.322193 0.388672,0.507813 0.02011,-0.200288 0.02155,-0.397861 0.02344,-0.595704 -0.2606,-0.08895 -0.230757,-0.344413 -0.457032,-0.503906 -0.131952,-0.091 -0.469428,-0.219582 -0.677734,-0.242187 z m -29.181641,9.927734 c -0.07783,-0.0053 -0.168657,0.0019 -0.27539,0.02148 -0.194855,0.034 -0.30538,0.286968 -0.533203,0.292968 -0.18688,0 -0.333341,-0.206887 -0.580079,-0.242187 -0.0472,-0.0066 -0.09569,0.0025 -0.144531,0.0059 l 0,0.0078 0.404297,0.605468 c 0.268785,0.3325 0.540348,0.648137 0.814453,0.947266 0.548339,0.598628 1.105232,1.129832 1.673828,1.59375 3.69e-4,3.01e-4 0.0016,-3.01e-4 0.002,0 0.283724,0.231436 0.570777,0.446869 0.859375,0.644531 0.270724,0.173621 0.543512,0.313799 0.816407,0.435547 0.06107,0.02744 0.122411,0.04934 0.183593,0.07422 0.235456,0.09488 0.47171,0.173859 0.708985,0.230469 0.03903,0.0095 0.07811,0.02085 0.117187,0.0293 0.587181,0.124344 1.179191,0.137014 1.779297,0.0293 -0.03633,-0.03259 -0.07944,-0.05896 -0.101562,-0.105468 0.158767,-0.521 -0.28374,-0.665797 -0.390625,-0.966797 -0.05005,-0.141 -0.0283,-0.3117 -0.07227,-0.4375 -0.06291,-0.1803 -0.240083,-0.281241 -0.435547,-0.431641 -0.349982,-0.2694 -0.659909,-0.522284 -1.160156,-0.583984 -0.219841,-0.027 -0.43552,0.06878 -0.701172,0.05078 -0.28153,-0.02 -0.635058,-0.267212 -0.845703,-0.507813 -0.204663,-0.2351 -0.306003,-0.442287 -0.484375,-0.554687 -0.169179,-0.108 -0.394374,-0.10885 -0.509766,-0.21875 -0.05122,-0.05 -0.04269,-0.131041 -0.09766,-0.244141 -0.08487,-0.1757 -0.224875,-0.271821 -0.119141,-0.482422 -0.193036,-0.100698 -0.199335,0.182985 -0.410156,0.146485 -0.141067,-0.200025 -0.264563,-0.32381 -0.498047,-0.339844 z m 12.046875,7.132813 -2.646484,1.707031 c -0.380467,0.192496 -0.774264,0.359367 -1.171875,0.513672 -0.178995,0.06943 -0.356656,0.141539 -0.539063,0.203125 -0.294895,0.09964 -0.592825,0.188654 -0.896484,0.267578 -1.51419,0.393551 -3.136489,0.528344 -4.855469,0.386719 0.66132,0.66675 1.35265,1.264853 2.074219,1.789062 0.721569,0.524209 1.472868,0.975189 2.253906,1.351563 0.520692,0.250915 1.054729,0.469093 1.601563,0.652343 0.366602,0.119155 0.740361,0.221281 1.11914,0.308594 0.37878,0.08731 0.762579,0.159815 1.152344,0.21875 0.06325,-0.150511 0.121683,-0.304575 0.203125,-0.455078 0.106287,-0.1954 0.244801,-0.393903 0.265625,-0.533203 0.01891,-0.1261 -0.04672,-0.236866 -0.02539,-0.384766 0.02133,-0.1454 0.157537,-0.2769 0.197266,-0.4375 0.05247,-0.2096 0.07031,-0.5167 0.07031,-0.75 0,-0.1916 -0.08907,-0.35845 -0.09766,-0.53125 -0.03109,-0.6274 0.226912,-0.699415 0.458985,-1.041015 0.115444,-0.1698 0.159034,-0.361022 0.240234,-0.482422 0.389717,-0.5815 1.068458,-0.863288 1.019531,-1.742188 -0.01583,-0.2908 -0.197727,-0.946262 -0.412109,-1.039062 -0.0027,-0.0012 -0.0089,-8.46e-4 -0.01172,-0.002 z"
       transform="translate(0,1058.5196)"
       id="path34"
       inkscape:connector-curvature="0"
       sodipodi:nodetypes="cccccccccccccccccccccccccccccccccccccccccccccccccccccccccccccccccccccccccccccccccccccccccccccccccccccccccccccccccccccccccccccccccccccccccccccccccccccccccccsccccccccccccccccccccccccccccccccccccccccccccccccccccccccccccccccccccccccccccscsccssccscccccccccccccccccccccccccccccccccccccccccccccccccccccccccccccccccccccccccccccccccccscccccccccccccccccccccccscsscscccccscccccc" />
    <path
       style="display:inline;fill:#ff8a00;fill-opacity:1;fill-rule:nonzero;stroke:none"
       d="M 38.253906 9.390625 C 39.664197 9.672325 40.876988 9.9957531 41.84375 10.439453 C 43.33554 11.097753 44.290248 11.974322 44.748047 12.982422 C 43.363082 12.727122 42.137309 12.791103 41.035156 13.220703 C 43.593274 14.229958 45.708712 15.305951 47.394531 16.441406 C 44.425015 16.48028 40.645862 17.640009 36 20 C 36 20 46.55397 22.267184 50.642578 32.685547 C 50.630329 32.749761 50.622457 32.817243 50.609375 32.880859 C 50.326875 32.78155 50.016725 32.690095 49.679688 32.605469 C 49.229859 31.528043 48.803547 30.826007 48.417969 30.525391 C 48.495535 31.162547 48.541357 31.771479 48.582031 32.375 C 47.368124 32.165496 45.878035 32.030706 44 32 C 44 32 50.328208 37.43359 45.775391 43.990234 C 45.626671 44.172167 45.472695 44.349895 45.3125 44.521484 C 45.849746 42.667384 46.079165 41.159491 45.957031 39.962891 C 42.625406 44.949091 38.831624 47.506169 34.583984 47.667969 C 32.904963 47.645969 31.315497 47.428059 29.824219 46.943359 C 27.636882 46.210359 25.658049 44.928391 23.894531 43.150391 C 26.644899 43.376991 29.148093 42.897097 31.357422 41.779297 L 34.988281 39.4375 C 35.458445 39.2623 35.885891 39.277569 36.316406 39.480469 C 37.202789 39.358969 37.539184 38.862913 37.244141 38.070312 C 36.814558 37.479212 36.142084 36.966294 35.308594 36.496094 C 33.494181 35.554994 31.596279 35.689453 29.621094 36.939453 C 27.739464 38.001653 25.938161 37.945406 24.177734 36.816406 C 23.021662 36.024606 21.903265 34.960859 20.828125 33.630859 L 20.423828 33.025391 L 20.423828 32.986328 C 21.421479 28.715428 24.599705 26.606528 28.935547 24.111328 C 29.419428 23.855828 29.689054 23.465606 29.783203 22.941406 C 29.797513 22.919406 29.810719 22.902344 29.824219 22.902344 C 29.838529 22.878344 29.890387 22.873375 29.904297 22.859375 C 30.18619 22.442675 30.065736 22.105947 29.582031 21.810547 C 28.574175 21.864547 27.566477 21.771213 26.558594 21.570312 L 26.558594 21.609375 C 25.055183 20.909775 23.000879 20.000806 22.806641 18.503906 C 22.806641 18.503906 22.831153 18.376134 22.845703 18.302734 C 23.074042 17.079634 23.478312 16.05685 24.015625 15.15625 L 24.136719 15.035156 C 24.674573 14.148356 25.684362 13.192975 27.203125 12.171875 C 20.369896 13.619375 11.197618 21.818309 10.738281 10.912109 C 5.0006992 20.000209 5.0374432 27.8045 5 32 C 5 46.958 17.042 59 32 59 C 46.958 59 59 46.958 59 32 C 59 27.3133 57.816099 22.913578 55.732422 19.080078 C 55.740122 19.223478 55.758056 19.383225 55.759766 19.515625 C 55.666956 19.189725 55.538491 18.876747 55.419922 18.560547 C 54.1673 16.375347 52.624183 14.383825 50.832031 12.640625 C 49.59888 11.761625 48.190297 11.041947 46.601562 10.560547 C 44.262552 9.8620469 41.4654 9.485025 38.253906 9.390625 z M 55.476562 20.119141 C 55.549732 20.251441 55.609239 20.393638 55.677734 20.523438 C 55.672334 20.547437 55.683134 20.578563 55.677734 20.601562 C 55.663424 20.573562 55.638672 20.550437 55.638672 20.523438 C 55.578462 20.387438 55.540762 20.252341 55.476562 20.119141 z "
       transform="translate(0,1058.5196)"
       id="path28" />
    <path
       style="fill:#faa330;fill-opacity:1;fill-rule:evenodd;stroke:none;stroke-width:1px;stroke-linecap:butt;stroke-linejoin:miter;stroke-opacity:1"
       d="m 52.977476,15.762563 c -0.85687,0 -5.787176,1.392185 -6.74896,1.608531 L 39,20 C 42.802976,19.366171 53,18 58.466135,30.873154 58,24 55.334838,18.341201 52.977476,15.762563 Z"
       transform="translate(0,1058.5196)"
       id="path4218"
       inkscape:connector-curvature="0"
       sodipodi:nodetypes="ccccc" />
    <path
       sodipodi:nodetypes="ccccc"
       inkscape:connector-curvature="0"
       id="path4224"
       d="m 56.186481,1082.7199 c -0.742071,-0.4285 -5.707934,-1.6879 -6.649036,-1.9815 l -7.574532,-1.3375 c 3.610388,1.3526 13.124356,5.2679 11.42159,19.1495 3.032893,-6.1854 3.554194,-12.4187 2.801978,-15.8305 z"
       style="fill:#faa330;fill-opacity:1;fill-rule:evenodd;stroke:none;stroke-width:1px;stroke-linecap:butt;stroke-linejoin:miter;stroke-opacity:1" />
    <path
       style="fill:#faa330;fill-opacity:1;fill-rule:evenodd;stroke:none;stroke-width:1px;stroke-linecap:butt;stroke-linejoin:miter;stroke-opacity:1"
       d="m 54.196889,1103.41 c -0.221729,-0.8277 -2.842594,-5.2296 -3.300447,-6.1027 l -4.410247,-6.3018 c 1.596497,3.5094 5.555353,13.0053 -5.464458,21.6171 6.518318,-2.2292 11.294542,-6.2682 13.175152,-9.2126 z"
       id="path4226"
       inkscape:connector-curvature="0"
       sodipodi:nodetypes="ccccc" />
    <path
       sodipodi:nodetypes="ccccc"
       inkscape:connector-curvature="0"
       id="path4228"
       d="m 53.174796,1090.2774 c -0.605873,-0.6059 -5.076558,-3.1077 -5.909621,-3.6349 l -6.970286,-3.2524 c 3.137307,2.241 11.313727,8.4853 6.076191,21.4532 4.530429,-5.1897 6.64726,-11.0757 6.803716,-14.5659 z"
       style="fill:#faa330;fill-opacity:1;fill-rule:evenodd;stroke:none;stroke-width:1px;stroke-linecap:butt;stroke-linejoin:miter;stroke-opacity:1" />
    <path
       style="fill:#faa330;fill-opacity:1;fill-rule:evenodd;stroke:none;stroke-width:1px;stroke-linecap:butt;stroke-linejoin:miter;stroke-opacity:1"
       d="m 58.299796,1088.9506 c -0.299796,-1.431 -4.329841,-8.195 -5.47113,-8.9172 l -12.174232,-0.5183 c 4.298084,3.0702 15.499709,11.6248 8.324329,29.3907 6.206649,-7.1098 9.10669,-15.1736 9.321033,-19.9552 z"
       id="path4230"
       inkscape:connector-curvature="0"
       sodipodi:nodetypes="ccccc" />
    <path
       style="fill:#f89612;fill-opacity:1;fill-rule:evenodd;stroke:none;stroke-width:1px;stroke-linecap:butt;stroke-linejoin:miter;stroke-opacity:1"
       d="m 43.71875,10.273438 c 1.266576,0.727709 3.307153,1.960546 5.142578,3.935546 l -6.417969,-1.132812 c 2.463986,0.923105 7.672045,3.045311 10.19336,8.708984 0.438528,2.551478 0.310992,5.598143 -0.75586,9.238282 0.821397,-1.153195 1.511603,-2.324941 2.13086,-3.490235 0.09898,1.422344 0.06345,2.979961 -0.146485,4.691406 C 56,12 53,15 43.71875,10.273438 Z"
       transform="translate(0,1058.5196)"
       id="path4232"
       inkscape:connector-curvature="0"
       sodipodi:nodetypes="cccccccc" />
  </g>
</svg>
