<?xml version="1.0" encoding="UTF-8" standalone="no"?>
<!-- Created with Inkscape (http://www.inkscape.org/) -->

<svg
   xmlns:dc="http://purl.org/dc/elements/1.1/"
   xmlns:cc="http://creativecommons.org/ns#"
   xmlns:rdf="http://www.w3.org/1999/02/22-rdf-syntax-ns#"
   xmlns:svg="http://www.w3.org/2000/svg"
   xmlns="http://www.w3.org/2000/svg"
   xmlns:sodipodi="http://sodipodi.sourceforge.net/DTD/sodipodi-0.dtd"
   xmlns:inkscape="http://www.inkscape.org/namespaces/inkscape"
   width="64"
   height="64"
   viewBox="0 0 64 64.000003"
   id="svg2"
   version="1.1"
   inkscape:version="0.91+devel r"
   sodipodi:docname="gpick.svg">
  <defs
     id="defs4" />
  <sodipodi:namedview
     id="base"
     pagecolor="#ffffff"
     bordercolor="#666666"
     borderopacity="1.0"
     inkscape:pageopacity="0.0"
     inkscape:pageshadow="2"
     inkscape:zoom="2.8284271"
     inkscape:cx="6.7099898"
     inkscape:cy="51.586896"
     inkscape:document-units="px"
     inkscape:current-layer="layer1"
     showgrid="true"
     units="px"
     inkscape:showpageshadow="false"
     borderlayer="true"
     inkscape:window-width="1366"
     inkscape:window-height="670"
     inkscape:window-x="-4"
     inkscape:window-y="29"
     inkscape:window-maximized="1">
    <inkscape:grid
       type="xygrid"
       id="grid4136" />
    <sodipodi:guide
       position="5,59.000069"
       orientation="54,0"
       id="guide4142" />
    <sodipodi:guide
       position="5,5.0000688"
       orientation="0,54"
       id="guide4144" />
    <sodipodi:guide
       position="59,5.0000688"
       orientation="-54,0"
       id="guide4146" />
    <sodipodi:guide
       position="59,59.000069"
       orientation="0,-54"
       id="guide4148" />
    <sodipodi:guide
       position="0,64.000069"
       orientation="64,0"
       id="guide4150" />
    <sodipodi:guide
       position="0,6.875e-05"
       orientation="0,64"
       id="guide4152" />
    <sodipodi:guide
       position="64,6.875e-05"
       orientation="-64,0"
       id="guide4154" />
    <sodipodi:guide
       position="64,64.000069"
       orientation="0,-64"
       id="guide4156" />
    <sodipodi:guide
       position="32.000027,16.999947"
       orientation="-15,0"
       id="guide4191" />
    <sodipodi:guide
       position="15,15"
       orientation="0,-15.000027"
       id="guide4193" />
  </sodipodi:namedview>
  <metadata
     id="metadata7">
    <rdf:RDF>
      <cc:Work
         rdf:about="">
        <dc:format>image/svg+xml</dc:format>
        <dc:type
           rdf:resource="http://purl.org/dc/dcmitype/StillImage" />
        <dc:title />
      </cc:Work>
    </rdf:RDF>
  </metadata>
  <g
     inkscape:label="Capa 1"
     inkscape:groupmode="layer"
     id="layer1"
     transform="translate(0,-1058.5196)">
    <g
       inkscape:transform-center-x="-16.998404"
       transform="rotate(90,15.000004,1107.518)"
       id="g4209"
       inkscape:transform-center-y="-2.3024856e-05">
      <path
         transform="translate(0,1058.5196)"
         id="path4211"
         d="M 6,5 C 5.4459618,5 5,5.4459618 5,6 l 0,10 0,1 0,1 1,0 18,0 1,0 0,-1 0,-1 0,-10 C 25,5.4459618 24.554038,5 24,5 L 6,5 Z"
         style="opacity:1;fill:#db0a5b;fill-opacity:1;stroke:none"
         inkscape:connector-curvature="0" />
      <path
         id="path4213"
         transform="translate(0,1058.5196)"
         d="m 5,45 0,4 c 0,5.54 4.4600001,10 10,10 5.54,0 10,-4.46 10,-10 l 0,-4 -20,0 z"
         style="opacity:1;fill:#fa9ec1;fill-opacity:1;stroke:none"
         inkscape:connector-curvature="0" />
      <rect
         y="1089.5197"
         x="5"
         height="13.999948"
         width="20"
         id="rect4215"
         style="opacity:1;fill:#f8639c;fill-opacity:1;stroke:none" />
      <rect
         style="opacity:1;fill:#f52977;fill-opacity:1;stroke:none"
         id="rect4217"
         width="20"
         height="12.999948"
         x="5"
         y="1076.5197" />
    </g>
    <g
       inkscape:transform-center-y="-13.879581"
       id="g4199"
       transform="rotate(45,15,1107.518)"
       inkscape:transform-center-x="-13.879562">
      <path
         inkscape:connector-curvature="0"
         style="opacity:1;fill:#8e44ad;fill-opacity:1;stroke:none"
         d="M 6,5 C 5.4459618,5 5,5.4459618 5,6 l 0,10 0,1 0,1 1,0 18,0 1,0 0,-1 0,-1 0,-10 C 25,5.4459618 24.554038,5 24,5 L 6,5 Z"
         id="path4201"
         transform="translate(0,1058.5196)" />
      <path
         inkscape:connector-curvature="0"
         style="opacity:1;fill:#ddc4e8;fill-opacity:1;stroke:none"
         d="m 5,45 0,4 c 0,5.54 4.4600001,10 10,10 5.54,0 10,-4.46 10,-10 l 0,-4 -20,0 z"
         transform="translate(0,1058.5196)"
         id="path4203" />
      <rect
         style="opacity:1;fill:#c498d7;fill-opacity:1;stroke:none"
         id="rect4205"
         width="20"
         height="13.999948"
         x="5"
         y="1089.5197" />
      <rect
         y="1076.5197"
         x="5"
         height="12.999948"
         width="20"
         id="rect4207"
         style="opacity:1;fill:#ab6cc6;fill-opacity:1;stroke:none" />
    </g>
    <path
       style="opacity:1;fill:#dadfe1;fill-opacity:1;stroke:none;stroke-width:1;stroke-linecap:round;stroke-linejoin:miter;stroke-miterlimit:4;stroke-dasharray:none;stroke-opacity:1"
       d="M 6,5 C 5.4459619,5 5,5.4459619 5,6 l 0,9 0,21 0,13 c 0,5.54 4.46,10 10,10 5.54,0 10,-4.46 10,-10 L 25,36 25,15 25,6 C 25,5.4459619 24.554038,5 24,5 L 15,5 6,5 Z"
       id="rect4167"
       inkscape:connector-curvature="0"
       inkscape:transform-center-y="-17"
       transform="translate(0,1058.5196)" />
    <g
       id="g4193"
       inkscape:transform-center-y="-16.998419">
      <path
         transform="translate(0,1058.5196)"
         id="rect4159"
         d="M 6,5 C 5.4459618,5 5,5.4459618 5,6 l 0,10 0,1 0,1 1,0 18,0 1,0 0,-1 0,-1 0,-10 C 25,5.4459618 24.554038,5 24,5 L 6,5 Z"
         style="opacity:1;fill:#22a7f0;fill-opacity:1;stroke:none"
         inkscape:connector-curvature="0" />
      <path
         id="rect4165"
         transform="translate(0,1058.5196)"
         d="m 5,45 0,4 c 0,5.54 4.4600001,10 10,10 5.54,0 10,-4.46 10,-10 l 0,-4 -20,0 z"
         style="opacity:1;fill:#d9f0fc;fill-opacity:1;stroke:none"
         inkscape:connector-curvature="0" />
      <rect
         y="1089.5197"
         x="5"
         height="13.999948"
         width="20"
         id="rect4163"
         style="opacity:1;fill:#a0d9f8;fill-opacity:1;stroke:none" />
      <rect
         style="opacity:1;fill:#66c3f4;fill-opacity:1;stroke:none"
         id="rect4161"
         width="20"
         height="12.999948"
         x="5"
         y="1076.5197" />
    </g>
    <circle
       style="opacity:1;fill:#c5ccd0;fill-opacity:1;stroke:none;stroke-width:1.19999945;stroke-linecap:round;stroke-linejoin:miter;stroke-miterlimit:4;stroke-dasharray:none;stroke-opacity:1"
       id="path4176"
       cx="15.000001"
       cy="1107.5189"
       r="9.000001" />
    <circle
       r="8.000001"
       cy="1107.5189"
       cx="15.000001"
       id="circle4155"
       style="opacity:1;fill:#e9eced;fill-opacity:1;stroke:none;stroke-width:1.06666625;stroke-linecap:round;stroke-linejoin:miter;stroke-miterlimit:4;stroke-dasharray:none;stroke-opacity:1" />
  </g>
</svg>
