<?xml version="1.0" encoding="UTF-8" standalone="no"?>
<!-- Created with Inkscape (http://www.inkscape.org/) -->

<svg
   xmlns:dc="http://purl.org/dc/elements/1.1/"
   xmlns:cc="http://creativecommons.org/ns#"
   xmlns:rdf="http://www.w3.org/1999/02/22-rdf-syntax-ns#"
   xmlns:svg="http://www.w3.org/2000/svg"
   xmlns="http://www.w3.org/2000/svg"
   xmlns:sodipodi="http://sodipodi.sourceforge.net/DTD/sodipodi-0.dtd"
   xmlns:inkscape="http://www.inkscape.org/namespaces/inkscape"
   width="64"
   height="64"
   viewBox="0 0 64 64.000003"
   id="svg2"
   version="1.1"
   inkscape:version="0.91+devel r"
   sodipodi:docname="partitionmanager.svg">
  <defs
     id="defs4">
    <clipPath
       id="clipPath16"
       clipPathUnits="userSpaceOnUse">
      <path
         id="path18"
         d="m 0,706.465 1490.926,0 L 1490.926,0 0,0 0,706.465 Z" />
    </clipPath>
    <clipPath
       id="clipPath24"
       clipPathUnits="userSpaceOnUse">
      <path
         id="path26"
         d="m 22.1953,686.117 1447.7347,0 0,-667.1902 -1447.7347,0 L 22.1953,686.117 Z" />
    </clipPath>
  </defs>
  <sodipodi:namedview
     id="base"
     pagecolor="#ffffff"
     bordercolor="#666666"
     borderopacity="1.0"
     inkscape:pageopacity="0.0"
     inkscape:pageshadow="2"
     inkscape:zoom="7.9999996"
     inkscape:cx="3.0228799"
     inkscape:cy="16.78166"
     inkscape:document-units="px"
     inkscape:current-layer="layer1"
     showgrid="true"
     units="px"
     inkscape:showpageshadow="false"
     borderlayer="true"
     inkscape:window-width="2560"
     inkscape:window-height="957"
     inkscape:window-x="-4"
     inkscape:window-y="29"
     inkscape:window-maximized="1">
    <inkscape:grid
       type="xygrid"
       id="grid4136" />
    <sodipodi:guide
       position="5,59.000069"
       orientation="54,0"
       id="guide4142" />
    <sodipodi:guide
       position="5,5.0000688"
       orientation="0,54"
       id="guide4144" />
    <sodipodi:guide
       position="59,5.0000688"
       orientation="-54,0"
       id="guide4146" />
    <sodipodi:guide
       position="59,59.000069"
       orientation="0,-54"
       id="guide4148" />
    <sodipodi:guide
       position="0,64.000069"
       orientation="64,0"
       id="guide4150" />
    <sodipodi:guide
       position="0,6.875e-05"
       orientation="0,64"
       id="guide4152" />
    <sodipodi:guide
       position="64,6.875e-05"
       orientation="-64,0"
       id="guide4154" />
    <sodipodi:guide
       position="64,64.000069"
       orientation="0,-64"
       id="guide4156" />
    <sodipodi:guide
       position="10,35"
       orientation="38,0"
       id="guide4155" />
    <sodipodi:guide
       position="54,37"
       orientation="-38,0"
       id="guide4159" />
    <sodipodi:guide
       position="51,50.999947"
       orientation="0,-38"
       id="guide4161" />
  </sodipodi:namedview>
  <metadata
     id="metadata7">
    <rdf:RDF>
      <cc:Work
         rdf:about="">
        <dc:format>image/svg+xml</dc:format>
        <dc:type
           rdf:resource="http://purl.org/dc/dcmitype/StillImage" />
        <dc:title />
      </cc:Work>
    </rdf:RDF>
  </metadata>
  <g
     inkscape:label="Capa 1"
     inkscape:groupmode="layer"
     id="layer1"
     transform="translate(0,-1058.5196)">
    <rect
       y="1063.5195"
       x="10"
       height="54.000069"
       width="44"
       id="rect4149"
       style="fill:#bdc3c7;fill-opacity:1;stroke:none"
       ry="1.0000688" />
    <path
       style="fill:#a6aeb3;fill-opacity:1;stroke:none;stroke-opacity:1"
       d="M 10 55 L 10 58 C 10 58.554038 10.445962 59 11 59 L 53 59 C 53.554038 59 54 58.554038 54 58 L 54 55 L 10 55 z "
       transform="translate(0,1058.5196)"
       id="rect4157" />
    <rect
       style="fill:#ecf0f1;fill-opacity:1;stroke:none;stroke-opacity:1"
       id="rect4170"
       width="40"
       height="44.999947"
       x="12"
       y="1065.5197" />
    <rect
       style="fill:#f7ca18;fill-opacity:1;stroke:none;stroke-opacity:1"
       id="rect4172"
       width="17"
       height="8.9999466"
       x="15"
       y="1099.5197" />
    <rect
       style="fill:#2c3e50;fill-opacity:1;stroke:none;stroke-opacity:1"
       id="rect4174"
       width="14"
       height="1"
       x="16"
       y="1100.5197" />
    <rect
       style="fill:#2c3e50;fill-opacity:1;stroke:none;stroke-opacity:1"
       id="rect4176"
       width="4"
       height="1"
       x="16"
       y="1102.5197" />
    <rect
       style="fill:#2c3e50;fill-opacity:1;stroke:none;stroke-opacity:1"
       id="rect4178"
       width="9"
       height="1"
       x="22"
       y="1102.5197" />
    <rect
       style="fill:#2c3e50;fill-opacity:1;stroke:none;stroke-opacity:1"
       id="rect4180"
       width="1"
       height="1"
       x="16"
       y="1104.5197" />
    <path
       style="fill:#2c3e50;fill-rule:evenodd;stroke:none;stroke-width:1px;stroke-linecap:butt;stroke-linejoin:miter;stroke-opacity:1;fill-opacity:1"
       d="m 25,1107.5196 2,-3 2,3 z"
       id="path4182"
       inkscape:connector-curvature="0" />
    <g
       transform="matrix(0.5,0,0,0.5,-261.14285,764.12735)"
       id="layer1-0"
       inkscape:label="Capa 1"
       style="fill:#2c3e50;fill-opacity:1">
      <path
         id="rect4144"
         transform="translate(551.28571,607.64788)"
         d="M 10,3.0683594 C 6.0443281,3.5584193 3,6.907464 3,11 c 0,4.092536 3.0443281,7.441581 7,7.931641 l 0,-1.009766 C 6.6006429,17.438059 4,14.537215 4,11 4,7.4627852 6.6006429,4.5619415 10,4.078125 l 0,-1.0097656 z m 2,0 0,1.0097656 C 15.399357,4.5619415 18,7.4627852 18,11 c 0,3.537215 -2.600643,6.438059 -6,6.921875 l 0,1.009766 C 15.955672,18.441581 19,15.092536 19,11 19,6.907464 15.955672,3.5584193 12,3.0683594 Z"
         style="opacity:1;fill:#2c3e50;fill-opacity:1;stroke:none;stroke-width:2.79999995;stroke-miterlimit:4;stroke-dasharray:none;stroke-opacity:0.55026455"
         inkscape:connector-curvature="0" />
      <path
         id="rect4149-4"
         transform="translate(551.28571,607.64788)"
         d="m 11,5 c -3.324,0 -6,2.676 -6,6 0,3.324 2.676,6 6,6 3.324,0 6,-2.676 6,-6 0,-0.881776 -0.192482,-1.716033 -0.53125,-2.46875 L 15.6875,9.3125 C 15.877228,9.8417746 16,10.403857 16,11 c 0,2.77 -2.23,5 -5,5 -2.77,0 -5,-2.23 -5,-5 0,-2.77 2.23,-5 5,-5 1.641573,0 3.079708,0.7951359 3.990234,2.0097656 L 15.712891,7.2871094 C 14.616004,5.8947115 12.918061,5 11,5 Z"
         style="opacity:1;fill:#2c3e50;fill-opacity:1;stroke:none;stroke-width:2.79999995;stroke-miterlimit:4;stroke-dasharray:none;stroke-opacity:0.55026455"
         inkscape:connector-curvature="0" />
      <path
         id="rect4154"
         transform="translate(551.28571,607.64788)"
         d="M 11,7 C 9.892,7 8.8929219,7.4469219 8.1699219,8.1699219 L 8.8769531,8.8769531 C 9.4192031,8.3347031 10.169,8 11,8 c 1.662,0 3,1.338 3,3 0,1.662 -1.338,3 -3,3 C 9.338,14 8,12.662 8,11 8,10.698149 8.056477,10.413074 8.1386719,10.138672 L 7.3574219,9.3574219 C 7.1318349,9.8589963 7,10.412506 7,11 c 0,2.216 1.784,4 4,4 2.216,0 4,-1.784 4,-4 0,-2.216 -1.784,-4 -4,-4 z"
         style="opacity:1;fill:#2c3e50;fill-opacity:1;stroke:none;stroke-width:2.79999995;stroke-miterlimit:4;stroke-dasharray:none;stroke-opacity:0.55026455"
         inkscape:connector-curvature="0" />
    </g>
    <rect
       style="fill:#2c3e50;fill-opacity:1;stroke:none;stroke-opacity:1"
       id="rect4260"
       width="22"
       height="0.99994665"
       x="28"
       y="1069.5197" />
    <rect
       style="fill:#2c3e50;fill-opacity:1;stroke:none;stroke-opacity:1"
       id="rect4262"
       width="7"
       height="1"
       x="28"
       y="1072.5197" />
    <rect
       style="fill:#2c3e50;fill-opacity:1;stroke:none;stroke-opacity:1"
       id="rect4264"
       width="1"
       height="1"
       x="38"
       y="1075.5197" />
    <rect
       style="fill:#2c3e50;fill-opacity:1;stroke:none;stroke-opacity:1"
       id="rect4266"
       width="3"
       height="1"
       x="41"
       y="1075.5197" />
    <rect
       style="fill:#2c3e50;fill-opacity:1;stroke:none;stroke-opacity:1"
       id="rect4268"
       width="2"
       height="1"
       x="46"
       y="1075.5197" />
    <rect
       style="fill:#2c3e50;fill-opacity:1;stroke:none;stroke-opacity:1"
       id="rect4270"
       width="1"
       height="1"
       x="49"
       y="1075.5197" />
    <path
       style="opacity:1;fill:#8b969c;fill-opacity:1;stroke:none;stroke-width:0.1;stroke-linecap:square;stroke-linejoin:miter;stroke-miterlimit:4;stroke-dasharray:none;stroke-dashoffset:0;stroke-opacity:1"
       d="M 10 58 C 10 58.554038 10.445962 59 11 59 L 53 59 C 53.554038 59 54 58.554038 54 58 L 10 58 z "
       transform="translate(0,1058.5196)"
       id="rect4181" />
    <rect
       style="fill:#2c3e50;fill-opacity:1;stroke:none;stroke-opacity:1"
       id="rect4159"
       width="8"
       height="3.0000534"
       x="44"
       y="1114.5197" />
    <rect
       y="1114.5197"
       x="32"
       height="3"
       width="10"
       id="rect4161"
       style="fill:#2c3e50;fill-opacity:1;stroke:none;stroke-opacity:1" />
    <rect
       style="fill:#f7ca18;fill-opacity:1;stroke:none;stroke-opacity:1"
       id="rect4163"
       width="8"
       height="1"
       x="33"
       y="1115.5197" />
    <path
       style="fill:#f7ca18;fill-opacity:1;stroke:none;stroke-opacity:1"
       d="M 45 57 L 45 58 L 50 58 L 50 59 L 51 59 L 51 58 L 51 57 L 50 57 L 45 57 z "
       transform="translate(0,1058.5196)"
       id="rect4165" />
  </g>
</svg>
