<?xml version="1.0" encoding="UTF-8" standalone="no"?>
<!-- Created with Inkscape (http://www.inkscape.org/) -->

<svg
   xmlns:dc="http://purl.org/dc/elements/1.1/"
   xmlns:cc="http://creativecommons.org/ns#"
   xmlns:rdf="http://www.w3.org/1999/02/22-rdf-syntax-ns#"
   xmlns:svg="http://www.w3.org/2000/svg"
   xmlns="http://www.w3.org/2000/svg"
   xmlns:sodipodi="http://sodipodi.sourceforge.net/DTD/sodipodi-0.dtd"
   xmlns:inkscape="http://www.inkscape.org/namespaces/inkscape"
   width="64"
   height="64"
   viewBox="0 0 64 64.000003"
   id="svg2"
   version="1.1"
   inkscape:version="0.91+devel r"
   sodipodi:docname="preferences-system-windows-actions.svg">
  <defs
     id="defs4" />
  <sodipodi:namedview
     id="base"
     pagecolor="#ffffff"
     bordercolor="#666666"
     borderopacity="1.0"
     inkscape:pageopacity="0.0"
     inkscape:pageshadow="2"
     inkscape:zoom="11.313708"
     inkscape:cx="30.952297"
     inkscape:cy="38.275855"
     inkscape:document-units="px"
     inkscape:current-layer="layer1"
     showgrid="true"
     units="px"
     inkscape:showpageshadow="false"
     borderlayer="true"
     inkscape:window-width="1366"
     inkscape:window-height="670"
     inkscape:window-x="-4"
     inkscape:window-y="29"
     inkscape:window-maximized="1"
     showguides="true">
    <inkscape:grid
       type="xygrid"
       id="grid4136" />
    <sodipodi:guide
       position="5,59.000069"
       orientation="54,0"
       id="guide4142" />
    <sodipodi:guide
       position="5,5.0000688"
       orientation="0,54"
       id="guide4144" />
    <sodipodi:guide
       position="59,5.0000688"
       orientation="-54,0"
       id="guide4146" />
    <sodipodi:guide
       position="59,59.000069"
       orientation="0,-54"
       id="guide4148" />
    <sodipodi:guide
       position="0,64.000069"
       orientation="64,0"
       id="guide4150" />
    <sodipodi:guide
       position="0,6.875e-05"
       orientation="0,64"
       id="guide4152" />
    <sodipodi:guide
       position="64,6.875e-05"
       orientation="-64,0"
       id="guide4154" />
    <sodipodi:guide
       position="64,64.000069"
       orientation="0,-64"
       id="guide4156" />
    <sodipodi:guide
       position="13,50.999947"
       orientation="38,0"
       id="guide4155" />
    <sodipodi:guide
       position="13,12.999947"
       orientation="0,38"
       id="guide4157" />
    <sodipodi:guide
       position="51,12.999947"
       orientation="-38,0"
       id="guide4159" />
    <sodipodi:guide
       position="51,50.999947"
       orientation="0,-38"
       id="guide4161" />
  </sodipodi:namedview>
  <metadata
     id="metadata7">
    <rdf:RDF>
      <cc:Work
         rdf:about="">
        <dc:format>image/svg+xml</dc:format>
        <dc:type
           rdf:resource="http://purl.org/dc/dcmitype/StillImage" />
        <dc:title />
      </cc:Work>
    </rdf:RDF>
  </metadata>
  <g
     inkscape:label="Capa 1"
     inkscape:groupmode="layer"
     id="layer1"
     transform="translate(0,-1058.5196)">
    <rect
       style="fill:#f1f2f4;fill-opacity:1;stroke:none"
       id="rect4148"
       width="54"
       height="53.999931"
       x="5"
       y="1063.5197" />
    <path
       style="opacity:1;fill:#34495e;fill-opacity:1;stroke:none;stroke-opacity:1"
       d="M 3 5 L 3 57 L 3 59 L 5 59 L 59 59 L 61 59 L 61 57 L 61 5 L 59 5 L 5 5 L 3 5 z M 5 9 L 59 9 L 59 57 L 5 57 L 5 9 z "
       transform="translate(0,1058.5196)"
       id="rect4151" />
    <circle
       style="opacity:1;fill:#ecf0f1;fill-opacity:1;stroke:none;stroke-opacity:1"
       id="path4155"
       cx="57.999981"
       cy="1065.5197"
       r="1" />
    <rect
       style="opacity:1;fill:#03c9a9;fill-opacity:1;stroke:none;stroke-opacity:1"
       id="rect4153"
       width="54"
       height="1.018868"
       x="5"
       y="1067.5197" />
    <path
       style="fill:#03c9a9;fill-opacity:1;fill-rule:nonzero;stroke:none;stroke-width:0.30563769"
       d="m 30.625322,1083.5196 -0.741627,2.4918 c -0.57826,0.1629 -1.131646,0.3852 -1.647037,0.6698 l -2.296651,-1.244 -1.94516,1.9451 1.231137,2.2746 c -0.294523,0.5165 -0.531801,1.069 -0.702981,1.6507 L 22,1092.0584 l 0,2.7494 2.478837,0.7379 c 0.163821,0.6064 0.393195,1.1842 0.690099,1.7225 l -1.25138,2.3113 1.94516,1.9452 2.28929,-1.2385 c 0.538595,0.3065 1.117273,0.5494 1.726169,0.7215 l 0.747147,2.5119 2.749356,0 0.747147,-2.5119 c 0.609289,-0.1723 1.187265,-0.4147 1.726169,-0.7215 l 2.28929,1.2385 1.94516,-1.9452 -1.25138,-2.3113 c 0.296878,-0.5382 0.524433,-1.1161 0.688259,-1.7225 L 42,1094.8078 l 0,-2.7494 -2.524843,-0.7508 c -0.171171,-0.5816 -0.40666,-1.1343 -0.701141,-1.6507 l 1.231137,-2.2746 -1.94516,-1.9451 -2.298491,1.244 c -0.515362,-0.2846 -1.066991,-0.5069 -1.645197,-0.6698 l -0.741627,-2.4918 -2.749356,0 z m 1.45565,6.1723 c 2.063361,0 3.735737,1.6723 3.735737,3.7356 0,2.0631 -1.672376,3.7376 -3.735737,3.7376 -2.063057,0 -3.735738,-1.6745 -3.735738,-3.7376 0,-2.0633 1.672681,-3.7356 3.735738,-3.7356 z"
       id="path88"
       inkscape:connector-curvature="0" />
  </g>
</svg>
