<?xml version="1.0" encoding="UTF-8" standalone="no"?>
<!-- Created with Inkscape (http://www.inkscape.org/) -->

<svg
   xmlns:dc="http://purl.org/dc/elements/1.1/"
   xmlns:cc="http://creativecommons.org/ns#"
   xmlns:rdf="http://www.w3.org/1999/02/22-rdf-syntax-ns#"
   xmlns:svg="http://www.w3.org/2000/svg"
   xmlns="http://www.w3.org/2000/svg"
   xmlns:sodipodi="http://sodipodi.sourceforge.net/DTD/sodipodi-0.dtd"
   xmlns:inkscape="http://www.inkscape.org/namespaces/inkscape"
   width="64"
   height="64"
   viewBox="0 0 64 64.000003"
   id="svg2"
   version="1.1"
   inkscape:version="0.91+devel r"
   sodipodi:docname="wallch.svg">
  <defs
     id="defs4">
    <inkscape:perspective
       id="perspective4156"
       inkscape:persp3d-origin="32 : 21.333334 : 1"
       inkscape:vp_z="64 : 32.000002 : 1"
       inkscape:vp_y="0 : 1000 : 0"
       inkscape:vp_x="0 : 32.000002 : 1"
       sodipodi:type="inkscape:persp3d" />
  </defs>
  <sodipodi:namedview
     id="base"
     pagecolor="#ffffff"
     bordercolor="#666666"
     borderopacity="1.0"
     inkscape:pageopacity="0.0"
     inkscape:pageshadow="2"
     inkscape:zoom="5.6568543"
     inkscape:cx="32.449447"
     inkscape:cy="35.630365"
     inkscape:document-units="px"
     inkscape:current-layer="layer1"
     showgrid="true"
     units="px"
     inkscape:showpageshadow="false"
     borderlayer="true"
     inkscape:window-width="1366"
     inkscape:window-height="670"
     inkscape:window-x="-4"
     inkscape:window-y="29"
     inkscape:window-maximized="1"
     showguides="true">
    <inkscape:grid
       type="xygrid"
       id="grid4136" />
    <sodipodi:guide
       position="5,59.000069"
       orientation="54,0"
       id="guide4142" />
    <sodipodi:guide
       position="5,5.0000688"
       orientation="0,54"
       id="guide4144" />
    <sodipodi:guide
       position="59,5.0000688"
       orientation="-54,0"
       id="guide4146" />
    <sodipodi:guide
       position="59,59.000069"
       orientation="0,-54"
       id="guide4148" />
    <sodipodi:guide
       position="0,64.000069"
       orientation="64,0"
       id="guide4150" />
    <sodipodi:guide
       position="0,6.875e-05"
       orientation="0,64"
       id="guide4152" />
    <sodipodi:guide
       position="64,6.875e-05"
       orientation="-64,0"
       id="guide4154" />
    <sodipodi:guide
       position="64,64.000069"
       orientation="0,-64"
       id="guide4156" />
    <sodipodi:guide
       position="14,13.999947"
       orientation="0,36"
       id="guide4176" />
    <sodipodi:guide
       position="14,13.999947"
       orientation="0,18.000053"
       id="guide4186" />
  </sodipodi:namedview>
  <metadata
     id="metadata7">
    <rdf:RDF>
      <cc:Work
         rdf:about="">
        <dc:format>image/svg+xml</dc:format>
        <dc:type
           rdf:resource="http://purl.org/dc/dcmitype/StillImage" />
        <dc:title />
      </cc:Work>
    </rdf:RDF>
  </metadata>
  <g
     inkscape:label="Capa 1"
     inkscape:groupmode="layer"
     id="layer1"
     transform="translate(0,-1058.5196)">
    <path
       inkscape:connector-curvature="0"
       style="fill:#3ecdf6;fill-opacity:1;stroke:none"
       d="m 3,1063.5196 0,52 0,2 2,0 54,0 2,0 0,-2 0,-52 -2,0 -54,0 -2,0 z"
       id="rect4148" />
    <g
       id="g4273"
       transform="translate(0,6.5003)">
      <path
         inkscape:connector-curvature="0"
         id="path4202-5"
         d="m 55,1082.0193 -29,29 35,0 0,-23 -6,-6 z"
         style="fill:#172f55;fill-opacity:1;fill-rule:evenodd;stroke:none;stroke-width:1px;stroke-linecap:butt;stroke-linejoin:miter;stroke-opacity:1" />
      <path
         id="path4236-1"
         d="m 55,1082.0193 -7.599609,7.5996 3.599609,-1.5996 4,3 1,-2 5,5 -2,-5 2,0 0,-1 -6,-6 z"
         style="fill:#f1f2f4;fill-opacity:1;fill-rule:evenodd;stroke:none;stroke-width:1px;stroke-linecap:butt;stroke-linejoin:miter;stroke-opacity:1"
         inkscape:connector-curvature="0" />
    </g>
    <g
       id="g4267"
       transform="translate(0,0.49982461)">
      <rect
         y="1114.0198"
         x="3"
         height="3"
         width="58"
         id="rect4230"
         style="opacity:1;fill:#c5eff7;fill-opacity:1;stroke:none;stroke-opacity:1" />
      <circle
         r="0.5"
         cy="1115.5195"
         cx="59.5"
         id="path4323"
         style="opacity:1;fill:#2c3e50;fill-opacity:1;stroke:none;stroke-opacity:1" />
      <circle
         r="0.5"
         cy="1115.5195"
         cx="56.5"
         id="path4323-6"
         style="opacity:1;fill:#2c3e50;fill-opacity:1;stroke:none;stroke-opacity:1" />
      <circle
         r="0.5"
         cy="1115.5195"
         cx="53.5"
         id="path4323-8"
         style="opacity:1;fill:#2c3e50;fill-opacity:1;stroke:none;stroke-opacity:1" />
    </g>
    <path
       style="opacity:1;fill:#baebfc;fill-opacity:1;stroke:none;stroke-width:0.99996877;stroke-opacity:1"
       d="m 13,1065.0198 c -0.860926,0 -1.679702,0.3729 -2.248047,1.0194 -0.628246,0.078 -1.182434,0.449 -1.494141,1 -0.08543,-0.012 -0.171543,-0.019 -0.257812,-0.019 -1.104569,0 -2,0.8953 -2,1.9998 8.58e-4,0.087 0.0074,0.1737 0.01953,0.2598 -0.628865,0.3537 -1.018466,1.0187 -1.01953,1.7401 0,1.1046 0.895431,1.9999 2,1.9999 l 9,0 c 1.656854,0 3,-1.343 3,-2.9998 0,-1.6568 -1.343146,-2.9998 -3,-2.9998 -0.0874,7e-4 -0.17472,0.01 -0.261719,0.014 -0.312215,-0.549 -0.865414,-0.9183 -1.492187,-0.9961 -0.568252,-0.6454 -1.386157,-1.0159 -2.246094,-1.0175 z"
       id="rect4249"
       inkscape:connector-curvature="0"
       sodipodi:nodetypes="cccccccssscccc" />
    <path
       style="fill:#d4e8f4;fill-rule:evenodd;stroke:none;stroke-width:1px;stroke-linecap:butt;stroke-linejoin:miter;stroke-opacity:1;fill-opacity:1"
       d="m 61,1074.5196 -11,-11.0001 0,11.0001 z"
       id="path4252"
       inkscape:connector-curvature="0" />
    <path
       style="fill:#202b33;fill-rule:evenodd;stroke:none;stroke-width:1px;stroke-linecap:butt;stroke-linejoin:miter;stroke-opacity:1;fill-opacity:1"
       d="m 61,1074.5196 -11,-11 11,-10e-5 z"
       id="path4254"
       inkscape:connector-curvature="0" />
  </g>
</svg>
