<?xml version="1.0" encoding="UTF-8" standalone="no"?>
<!-- Created with Inkscape (http://www.inkscape.org/) -->

<svg
   xmlns:dc="http://purl.org/dc/elements/1.1/"
   xmlns:cc="http://creativecommons.org/ns#"
   xmlns:rdf="http://www.w3.org/1999/02/22-rdf-syntax-ns#"
   xmlns:svg="http://www.w3.org/2000/svg"
   xmlns="http://www.w3.org/2000/svg"
   xmlns:sodipodi="http://sodipodi.sourceforge.net/DTD/sodipodi-0.dtd"
   xmlns:inkscape="http://www.inkscape.org/namespaces/inkscape"
   width="16"
   height="16"
   viewBox="0 0 16 16"
   id="svg2"
   version="1.1"
   inkscape:version="0.92.3 (unknown)"
   sodipodi:docname="amarok_lyrics.svg">
  <defs
     id="defs3051">
    <style
       type="text/css"
       id="current-color-scheme">
    .ColorScheme-Text {
    color:#4d4d4d;
    }
    </style>
  </defs>
  <sodipodi:namedview
     id="base"
     pagecolor="#ffffff"
     bordercolor="#666666"
     borderopacity="1.0"
     inkscape:pageopacity="0.0"
     inkscape:pageshadow="2"
     inkscape:zoom="75.5625"
     inkscape:cx="11.685691"
     inkscape:cy="7.7088503"
     inkscape:document-units="px"
     inkscape:current-layer="layer1"
     showgrid="true"
     units="px"
     inkscape:showpageshadow="false"
     borderlayer="true"
     showguides="true"
     inkscape:guide-bbox="true"
     inkscape:window-width="2560"
     inkscape:window-height="1378"
     inkscape:window-x="0"
     inkscape:window-y="32"
     inkscape:window-maximized="1"
     fit-margin-top="0"
     fit-margin-left="0"
     fit-margin-right="0"
     fit-margin-bottom="0">
    <inkscape:grid
       type="xygrid"
       id="grid4136"
       empspacing="2"
       originx="-3"
       originy="-3.0000174" />
    <sodipodi:guide
       position="0,14.999983"
       orientation="0,1"
       id="guide4140"
       inkscape:label="Icon Max Height"
       inkscape:color="rgb(233,30,99)"
       inkscape:locked="false" />
    <sodipodi:guide
       position="0,0.9999826"
       orientation="0,1"
       id="guide4142"
       inkscape:label="Icon Baseline"
       inkscape:color="rgb(233,30,99)"
       inkscape:locked="false" />
    <sodipodi:guide
       position="8,-1.74e-05"
       orientation="1,0"
       id="guide4144"
       inkscape:label="Center Vertical"
       inkscape:color="rgb(221,44,0)"
       inkscape:locked="false" />
    <sodipodi:guide
       position="16,7.9999826"
       orientation="0,1"
       id="guide4146"
       inkscape:label="Center Horizontal"
       inkscape:color="rgb(221,44,0)"
       inkscape:locked="false" />
  </sodipodi:namedview>
  <metadata
     id="metadata7">
    <rdf:RDF>
      <cc:Work
         rdf:about="">
        <dc:format>image/svg+xml</dc:format>
        <dc:type
           rdf:resource="http://purl.org/dc/dcmitype/StillImage" />
        <dc:title />
      </cc:Work>
    </rdf:RDF>
  </metadata>
  <g
     inkscape:label="Capa 1"
     inkscape:groupmode="layer"
     id="layer1"
     transform="translate(-3,-1033.3622)">
    <path
       style="fill:currentColor;fill-opacity:1;stroke:none" class="ColorScheme-Text"
       d="M 9.0585938 3.5410156 C 8.0986854 3.6081025 7.1892969 4.1355937 6.6699219 5.0351562 L 4.6699219 8.5 C 3.8389217 9.9393 4.3282441 11.766656 5.7675781 12.597656 C 6.4729643 13.004911 7.2710803 13.09167 8 12.908203 L 8 14 L 6.5 14 C 6.223 14 6 14.223 6 14.5 C 6 14.777 6.223 15 6.5 15 L 9.5 15 C 9.777 15 10 14.777 10 14.5 C 10 14.223 9.777 14 9.5 14 L 9 14 L 9 12.5 C 9 12.482687 8.9919353 12.468021 8.9902344 12.451172 C 9.3364056 12.207555 9.6389298 11.891962 9.8652344 11.5 L 11.865234 8.0351562 C 12.696234 6.5958562 12.206912 4.7685 10.767578 3.9375 C 10.227828 3.625875 9.6345387 3.5007635 9.0585938 3.5410156 z M 9.1269531 4.5390625 C 9.5109165 4.5122236 9.9077446 4.5969375 10.267578 4.8046875 C 11.227134 5.3586875 11.554 6.5756563 11 7.5351562 L 9.5 10.134766 L 6.0351562 8.1347656 L 7.5351562 5.5351562 C 7.8814063 4.9354688 8.4870142 4.5837939 9.1269531 4.5390625 z M 5.5351562 9 L 9 11 C 8.446 11.9595 7.2271341 12.286422 6.2675781 11.732422 C 5.3080221 11.178422 4.9811562 9.9595 5.5351562 9 z "
       transform="translate(3,1033.3622)"
       id="rect29" />
  </g>
</svg>
