<?xml version="1.0" encoding="UTF-8" standalone="no"?>
<!-- Created with Inkscape (http://www.inkscape.org/) -->

<svg
   xmlns:dc="http://purl.org/dc/elements/1.1/"
   xmlns:cc="http://creativecommons.org/ns#"
   xmlns:rdf="http://www.w3.org/1999/02/22-rdf-syntax-ns#"
   xmlns:svg="http://www.w3.org/2000/svg"
   xmlns="http://www.w3.org/2000/svg"
   xmlns:sodipodi="http://sodipodi.sourceforge.net/DTD/sodipodi-0.dtd"
   xmlns:inkscape="http://www.inkscape.org/namespaces/inkscape"
   width="16"
   height="16"
   viewBox="0 0 16 16"
   id="svg2"
   version="1.1"
   inkscape:version="0.92.3 (unknown)"
   sodipodi:docname="application-menu.svg">
  <defs
     id="defs3051">
    <style
       type="text/css"
       id="current-color-scheme">
    .ColorScheme-Text {
    color:#4d4d4d;
    }
    </style>
  </defs>
  <sodipodi:namedview
     id="base"
     pagecolor="#ffffff"
     bordercolor="#666666"
     borderopacity="1.0"
     inkscape:pageopacity="0.0"
     inkscape:pageshadow="2"
     inkscape:zoom="45.254834"
     inkscape:cx="10.735226"
     inkscape:cy="8.4682201"
     inkscape:document-units="px"
     inkscape:current-layer="layer1"
     showgrid="true"
     units="px"
     inkscape:showpageshadow="false"
     borderlayer="true"
     showguides="true"
     inkscape:guide-bbox="true"
     inkscape:window-width="2560"
     inkscape:window-height="1378"
     inkscape:window-x="0"
     inkscape:window-y="32"
     inkscape:window-maximized="1"
     fit-margin-top="0"
     fit-margin-left="0"
     fit-margin-right="0"
     fit-margin-bottom="0">
    <inkscape:grid
       type="xygrid"
       id="grid4136"
       empspacing="2"
       originx="-3"
       originy="-3.0000174" />
    <sodipodi:guide
       position="0,14.999983"
       orientation="0,1"
       id="guide4140"
       inkscape:label="Icon Max Height"
       inkscape:color="rgb(233,30,99)"
       inkscape:locked="false" />
    <sodipodi:guide
       position="0,0.9999826"
       orientation="0,1"
       id="guide4142"
       inkscape:label="Icon Baseline"
       inkscape:color="rgb(233,30,99)"
       inkscape:locked="false" />
    <sodipodi:guide
       position="8,-1.74e-05"
       orientation="1,0"
       id="guide4144"
       inkscape:label="Center Vertical"
       inkscape:color="rgb(221,44,0)"
       inkscape:locked="false" />
    <sodipodi:guide
       position="16,7.9999826"
       orientation="0,1"
       id="guide4146"
       inkscape:label="Center Horizontal"
       inkscape:color="rgb(221,44,0)"
       inkscape:locked="false" />
  </sodipodi:namedview>
  <metadata
     id="metadata7">
    <rdf:RDF>
      <cc:Work
         rdf:about="">
        <dc:format>image/svg+xml</dc:format>
        <dc:type
           rdf:resource="http://purl.org/dc/dcmitype/StillImage" />
        <dc:title />
      </cc:Work>
    </rdf:RDF>
  </metadata>
  <g
     inkscape:label="Capa 1"
     inkscape:groupmode="layer"
     id="layer1"
     transform="translate(-3,-1033.3622)">
    <path
       style="fill:currentColor;fill-opacity:1;stroke:none" class="ColorScheme-Text"
       d="M 3.5 4 C 3.223 4 3 4.223 3 4.5 C 3 4.777 3.223 5 3.5 5 L 12.5 5 C 12.777 5 13 4.777 13 4.5 C 13 4.223 12.777 4 12.5 4 L 3.5 4 z M 3.5 7 C 3.2229904 7 3 7.2229904 3 7.5 C 3 7.7770096 3.2229904 8 3.5 8 L 12.5 8 C 12.77701 8 13 7.7770096 13 7.5 C 13 7.2229904 12.77701 7 12.5 7 L 3.5 7 z M 3.5 10 C 3.223 10 3 10.223 3 10.5 C 3 10.777 3.223 11 3.5 11 L 12.5 11 C 12.777 11 13 10.777 13 10.5 C 13 10.223 12.777 10 12.5 10 L 3.5 10 z "
       transform="translate(3,1033.3622)"
       id="rect14" />
  </g>
</svg>
