<?xml version="1.0" encoding="UTF-8" standalone="no"?>
<!-- Created with Inkscape (http://www.inkscape.org/) -->

<svg
   xmlns:dc="http://purl.org/dc/elements/1.1/"
   xmlns:cc="http://creativecommons.org/ns#"
   xmlns:rdf="http://www.w3.org/1999/02/22-rdf-syntax-ns#"
   xmlns:svg="http://www.w3.org/2000/svg"
   xmlns="http://www.w3.org/2000/svg"
   xmlns:sodipodi="http://sodipodi.sourceforge.net/DTD/sodipodi-0.dtd"
   xmlns:inkscape="http://www.inkscape.org/namespaces/inkscape"
   width="16"
   height="16"
   viewBox="0 0 16 16"
   id="svg2"
   version="1.1"
   inkscape:version="0.91 r13725"
   sodipodi:docname="application-exit.svg">
<defs
    id="defs3051">
<style
    type="text/css"
    id="current-color-scheme">
    .ColorScheme-Text {
    color:#4d4d4d;
    }
    </style>
</defs>
  <sodipodi:namedview
     id="base"
     pagecolor="#ffffff"
     bordercolor="#666666"
     borderopacity="1.0"
     inkscape:pageopacity="0.0"
     inkscape:pageshadow="2"
     inkscape:zoom="45.254834"
     inkscape:cx="7.5421971"
     inkscape:cy="9.6393657"
     inkscape:document-units="px"
     inkscape:current-layer="layer1"
     showgrid="true"
     units="px"
     inkscape:showpageshadow="false"
     borderlayer="true"
     showguides="true"
     inkscape:guide-bbox="true"
     inkscape:window-width="2560"
     inkscape:window-height="1050"
     inkscape:window-x="0"
     inkscape:window-y="0"
     inkscape:window-maximized="1"
     fit-margin-top="0"
     fit-margin-left="0"
     fit-margin-right="0"
     fit-margin-bottom="0">
    <inkscape:grid
       type="xygrid"
       id="grid4136"
       empspacing="2"
       originx="-3"
       originy="-3.0000174" />
    <sodipodi:guide
       position="0,14.999983"
       orientation="0,1"
       id="guide4140"
       inkscape:label="Icon Max Height"
       inkscape:color="rgb(233,30,99)" />
    <sodipodi:guide
       position="0,0.9999826"
       orientation="0,1"
       id="guide4142"
       inkscape:label="Icon Baseline"
       inkscape:color="rgb(233,30,99)" />
    <sodipodi:guide
       position="8,-1.74e-05"
       orientation="1,0"
       id="guide4144"
       inkscape:label="Center Vertical"
       inkscape:color="rgb(221,44,0)" />
    <sodipodi:guide
       position="16,7.9999826"
       orientation="0,1"
       id="guide4146"
       inkscape:label="Center Horizontal"
       inkscape:color="rgb(221,44,0)" />
  </sodipodi:namedview>
  <metadata
     id="metadata7">
    <rdf:RDF>
      <cc:Work
         rdf:about="">
        <dc:format>image/svg+xml</dc:format>
        <dc:type
           rdf:resource="http://purl.org/dc/dcmitype/StillImage" />
        <dc:title />
      </cc:Work>
    </rdf:RDF>
  </metadata>
  <g
     inkscape:label="Capa 1"
     inkscape:groupmode="layer"
     id="layer1"
     transform="translate(-3,-1033.3622)">
    <path
       style="fill:currentColor;fill-opacity:1;stroke:none" class="ColorScheme-Text"
       d="M 4 1 C 2.8919807 1 2 1.892 2 3 L 2 13 C 2 14.108 2.8919807 15 4 15 L 8 15 L 8 14 L 7 14 L 4 14 C 3.4459807 14 3 13.554 3 13 L 3 3 C 3 2.446 3.4459807 2 4 2 L 8 2 L 8 1.0019531 L 4 1.0019531 L 4 1 z M 11.564453 5.0039062 C 11.259415 4.9609062 10.942547 5.2156719 10.998047 5.5761719 L 10.998047 7.0019531 L 8.5 7.0019531 C 8.290404 7.0019531 8.1135625 7.1287469 8.0390625 7.3105469 C 8.0151825 7.3688469 8 7.433 8 7.5 C 8.00053 7.5676 8.0143025 7.6314531 8.0390625 7.6894531 C 8.1135615 7.8712531 8.290404 7.9980469 8.5 7.9980469 L 10.998047 7.9980469 L 10.998047 9.4238281 C 10.924047 9.9042281 11.512766 10.194903 11.851562 9.8457031 L 13.828125 7.875 L 13.849609 7.8535156 C 13.867499 7.8355156 13.875735 7.8129687 13.890625 7.7929688 C 13.914685 7.7609688 13.941041 7.7323125 13.957031 7.6953125 C 13.974621 7.6541125 13.979928 7.6104063 13.986328 7.5664062 C 13.989428 7.5444062 13.999931 7.5249531 14 7.5019531 C 13.99993 7.4779531 13.989428 7.4595 13.986328 7.4375 C 13.979928 7.3934 13.974621 7.3495937 13.957031 7.3085938 C 13.941031 7.2715937 13.914685 7.2429375 13.890625 7.2109375 C 13.875735 7.1909375 13.867499 7.1654375 13.849609 7.1484375 L 13.828125 7.1289062 L 11.851562 5.15625 C 11.766863 5.06865 11.666133 5.0218125 11.564453 5.0078125 L 11.564453 5.0039062 z "
       transform="translate(3,1033.3622)"
       id="path4198" />
  </g>
</svg>
