<?xml version="1.0" encoding="UTF-8" standalone="no"?>
<!-- Created with Inkscape (http://www.inkscape.org/) -->

<svg
   xmlns:dc="http://purl.org/dc/elements/1.1/"
   xmlns:cc="http://creativecommons.org/ns#"
   xmlns:rdf="http://www.w3.org/1999/02/22-rdf-syntax-ns#"
   xmlns:svg="http://www.w3.org/2000/svg"
   xmlns="http://www.w3.org/2000/svg"
   xmlns:sodipodi="http://sodipodi.sourceforge.net/DTD/sodipodi-0.dtd"
   xmlns:inkscape="http://www.inkscape.org/namespaces/inkscape"
   width="16"
   height="16"
   viewBox="0 0 16 16"
   id="svg2"
   version="1.1"
   inkscape:version="0.92.3 (unknown)"
   sodipodi:docname="archive-extract.svg">
  <defs
     id="defs3051">
    <style
       type="text/css"
       id="current-color-scheme">
    .ColorScheme-Text {
    color:#4d4d4d;
    }
    </style>
  </defs>
  <sodipodi:namedview
     id="base"
     pagecolor="#ffffff"
     bordercolor="#666666"
     borderopacity="1.0"
     inkscape:pageopacity="0.0"
     inkscape:pageshadow="2"
     inkscape:zoom="77.8125"
     inkscape:cx="7.9871486"
     inkscape:cy="8"
     inkscape:document-units="px"
     inkscape:current-layer="layer1"
     showgrid="true"
     units="px"
     inkscape:showpageshadow="false"
     borderlayer="true"
     showguides="true"
     inkscape:guide-bbox="true"
     inkscape:window-width="2560"
     inkscape:window-height="1407"
     inkscape:window-x="0"
     inkscape:window-y="33"
     inkscape:window-maximized="1"
     fit-margin-top="0"
     fit-margin-left="0"
     fit-margin-right="0"
     fit-margin-bottom="0">
    <inkscape:grid
       type="xygrid"
       id="grid4136"
       empspacing="2"
       originx="-3"
       originy="-3.0000174" />
    <sodipodi:guide
       position="0,14.999983"
       orientation="0,1"
       id="guide4140"
       inkscape:label="Icon Max Height"
       inkscape:color="rgb(233,30,99)"
       inkscape:locked="false" />
    <sodipodi:guide
       position="0,0.9999826"
       orientation="0,1"
       id="guide4142"
       inkscape:label="Icon Baseline"
       inkscape:color="rgb(233,30,99)"
       inkscape:locked="false" />
    <sodipodi:guide
       position="8,-1.74e-05"
       orientation="1,0"
       id="guide4144"
       inkscape:label="Center Vertical"
       inkscape:color="rgb(221,44,0)"
       inkscape:locked="false" />
    <sodipodi:guide
       position="17,7.9999826"
       orientation="0,1"
       id="guide4146"
       inkscape:label="Center Horizontal"
       inkscape:color="rgb(221,44,0)"
       inkscape:locked="false" />
  </sodipodi:namedview>
  <metadata
     id="metadata7">
    <rdf:RDF>
      <cc:Work
         rdf:about="">
        <dc:format>image/svg+xml</dc:format>
        <dc:type
           rdf:resource="http://purl.org/dc/dcmitype/StillImage" />
        <dc:title />
      </cc:Work>
    </rdf:RDF>
  </metadata>
  <g
     inkscape:label="Capa 1"
     inkscape:groupmode="layer"
     id="layer1"
     transform="translate(-3,-1033.3622)">
    <path
       style="fill:currentColor;fill-opacity:1;stroke:none" class="ColorScheme-Text"
       d="M 11.496094 2 C 11.195361 2.0009 10.963998 2.2673063 11.003906 2.5664062 L 11.003906 4.5019531 L 11.003906 7.5 C 11.003906 7.7768 11.226058 8 11.501953 8 C 11.777849 8 12 7.7768 12 7.5 L 12 5.0019531 L 13.423828 5.0019531 C 13.903655 5.0759531 14.194505 4.4872375 13.845703 4.1484375 L 11.855469 2.1503906 C 11.761309 2.0533906 11.630751 1.9995 11.496094 2 z M 4 3 C 2.8919807 3 2 3.892 2 5 L 2 13 C 2 14.108 2.8919807 15 4 15 L 12 15 C 13.108019 15 13.977844 14.1078 14 13 L 14 8 L 14 7.5 C 14 7.223 13.777 7 13.5 7 C 13.223 7 13 7.223 13 7.5 L 13 8.5 L 13 13 C 13 13.554 12.554019 14 12 14 L 4 14 C 3.4459807 14 3 13.554 3 13 L 3 5 C 3 4.446 3.4466718 3.9723 4 4 L 6 4 L 6 6 L 7 6 L 7 8 L 6 8 L 6 10 L 7 10 L 7 12 L 9 12 L 9 10 L 8 10 L 8 8 L 9 8 L 9 6 L 8 6 L 8 4 L 9 4 L 9 3 L 6 3 L 4 3 z "
       transform="translate(3,1033.3622)"
       id="path4160" />
  </g>
</svg>
