<?xml version="1.0" encoding="UTF-8" standalone="no"?>
<!-- Created with Inkscape (http://www.inkscape.org/) -->

<svg
   xmlns:dc="http://purl.org/dc/elements/1.1/"
   xmlns:cc="http://creativecommons.org/ns#"
   xmlns:rdf="http://www.w3.org/1999/02/22-rdf-syntax-ns#"
   xmlns:svg="http://www.w3.org/2000/svg"
   xmlns="http://www.w3.org/2000/svg"
   xmlns:sodipodi="http://sodipodi.sourceforge.net/DTD/sodipodi-0.dtd"
   xmlns:inkscape="http://www.inkscape.org/namespaces/inkscape"
   width="16"
   height="16"
   viewBox="0 0 16 16"
   id="svg2"
   version="1.1"
   inkscape:version="0.92.3 (unknown)"
   sodipodi:docname="dialer-call-start.svg">
  <defs
     id="defs3051">
    <style
       type="text/css"
       id="current-color-scheme">
    .ColorScheme-Text {
    color:#4d4d4d;
    }
    </style>
  </defs>
  <sodipodi:namedview
     id="base"
     pagecolor="#ffffff"
     bordercolor="#666666"
     borderopacity="1.0"
     inkscape:pageopacity="0.0"
     inkscape:pageshadow="2"
     inkscape:zoom="64"
     inkscape:cx="8.37472"
     inkscape:cy="8.875303"
     inkscape:document-units="px"
     inkscape:current-layer="layer1"
     showgrid="true"
     units="px"
     inkscape:showpageshadow="false"
     borderlayer="true"
     showguides="true"
     inkscape:guide-bbox="true"
     inkscape:window-width="2560"
     inkscape:window-height="1378"
     inkscape:window-x="0"
     inkscape:window-y="32"
     inkscape:window-maximized="1"
     fit-margin-top="0"
     fit-margin-left="0"
     fit-margin-right="0"
     fit-margin-bottom="0">
    <inkscape:grid
       type="xygrid"
       id="grid4136"
       empspacing="2"
       originx="-3"
       originy="-3.0000174" />
    <sodipodi:guide
       position="0,14.999983"
       orientation="0,1"
       id="guide4140"
       inkscape:label="Icon Max Height"
       inkscape:color="rgb(233,30,99)"
       inkscape:locked="false" />
    <sodipodi:guide
       position="0,0.9999826"
       orientation="0,1"
       id="guide4142"
       inkscape:label="Icon Baseline"
       inkscape:color="rgb(233,30,99)"
       inkscape:locked="false" />
    <sodipodi:guide
       position="8,-1.74e-05"
       orientation="1,0"
       id="guide4144"
       inkscape:label="Center Vertical"
       inkscape:color="rgb(221,44,0)"
       inkscape:locked="false" />
    <sodipodi:guide
       position="16,7.9999826"
       orientation="0,1"
       id="guide4146"
       inkscape:label="Center Horizontal"
       inkscape:color="rgb(221,44,0)"
       inkscape:locked="false" />
  </sodipodi:namedview>
  <metadata
     id="metadata7">
    <rdf:RDF>
      <cc:Work
         rdf:about="">
        <dc:format>image/svg+xml</dc:format>
        <dc:type
           rdf:resource="http://purl.org/dc/dcmitype/StillImage" />
        <dc:title />
      </cc:Work>
    </rdf:RDF>
  </metadata>
  <g
     inkscape:label="Capa 1"
     inkscape:groupmode="layer"
     id="layer1"
     transform="translate(-3,-1033.3622)">
    <path
       style="fill:currentColor;fill-opacity:1;stroke:none" class="ColorScheme-Text"
       d="M 7.9667969,1.0078125 C 6.5830826,1.0151888 5.2325947,1.4325011 4.0859375,2.2070312 l -0.00977,0.00977 C 3.9136825,2.3285751 3.7559897,2.4471704 3.6035156,2.5722656 3.5661194,2.6005379 3.5290082,2.6291852 3.4921875,2.6582031 3.339435,2.7853401 3.1921661,2.9189247 3.0507812,3.0585938 2.5719829,3.5383205 2.1653956,4.0850423 1.84375,4.6816406 L 3.7578125,6.59375 c 0.3917506,0.3917 1.0223117,0.3917 1.4140625,0 L 6.5859375,5.1796875 c 0.3917508,-0.3918 0.3917506,-1.0223625 0,-1.4140625 L 6.1757812,3.3554688 c 1.1721565,-0.4590315 2.4743279,-0.4590315 3.6464844,0 l -0.4082031,0.40625 c -0.391751,0.3916999 -0.391751,1.0222625 0,1.4140624 l 1.4140625,1.4140626 c 0.391751,0.3916999 1.022312,0.3916999 1.414063,0 L 14.152344,4.6757812 C 13.832057,4.0787443 13.426788,3.5313689 12.949219,3.0507812 12.784012,2.8853013 12.610618,2.7282033 12.429688,2.5800781 12.088219,2.3026984 11.721361,2.0581269 11.333984,1.8496094 h -0.0078 C 10.294565,1.2920595 9.139421,1.0026019 7.9667969,1.0078125 Z M 8,15 C 7.446,15 7,14.5541 7,14 V 13 H 5.5 C 5.077554,12.9993 4.8463254,12.507441 5.1152344,12.181641 l 2.5,-3.001953 C 7.7077794,9.068987 7.8438103,9 7.9882812,9 8.1409474,8.9962 8.2869756,9.062388 8.3847656,9.179688 l 2.5000004,3.001953 C 11.153676,12.507441 10.922443,12.9993 10.5,13 H 9 v 1 c 0,0.5541 -0.446,1 -1,1 z"
       transform="translate(3,1033.3622)"
       id="path15"
       inkscape:connector-curvature="0"
       sodipodi:nodetypes="cccccccccccccccccccccccsscccccccccss" />
  </g>
</svg>
