<?xml version="1.0" encoding="UTF-8" standalone="no"?>
<!-- Created with Inkscape (http://www.inkscape.org/) -->

<svg
   xmlns:dc="http://purl.org/dc/elements/1.1/"
   xmlns:cc="http://creativecommons.org/ns#"
   xmlns:rdf="http://www.w3.org/1999/02/22-rdf-syntax-ns#"
   xmlns:svg="http://www.w3.org/2000/svg"
   xmlns="http://www.w3.org/2000/svg"
   xmlns:sodipodi="http://sodipodi.sourceforge.net/DTD/sodipodi-0.dtd"
   xmlns:inkscape="http://www.inkscape.org/namespaces/inkscape"
   width="16"
   height="16"
   viewBox="0 0 16 16"
   id="svg2"
   version="1.1"
   inkscape:version="0.92.3 (unknown)"
   sodipodi:docname="document-open.svg">
  <defs
     id="defs3051">
    <style
       type="text/css"
       id="current-color-scheme">
    .ColorScheme-Text {
    color:#4d4d4d;
    }
    </style>
  </defs>
  <sodipodi:namedview
     id="base"
     pagecolor="#ffffff"
     bordercolor="#666666"
     borderopacity="1.0"
     inkscape:pageopacity="0.0"
     inkscape:pageshadow="2"
     inkscape:zoom="1"
     inkscape:cx="8"
     inkscape:cy="8"
     inkscape:document-units="px"
     inkscape:current-layer="layer1"
     showgrid="true"
     units="px"
     inkscape:showpageshadow="false"
     borderlayer="true"
     showguides="true"
     inkscape:guide-bbox="true"
     inkscape:window-width="2560"
     inkscape:window-height="1370"
     inkscape:window-x="0"
     inkscape:window-y="33"
     inkscape:window-maximized="1"
     fit-margin-top="0"
     fit-margin-left="0"
     fit-margin-right="0"
     fit-margin-bottom="0">
    <inkscape:grid
       type="xygrid"
       id="grid4136"
       empspacing="2"
       originx="-3"
       originy="-3.0000174" />
    <sodipodi:guide
       position="0,14.999983"
       orientation="0,1"
       id="guide4140"
       inkscape:label="Icon Max Height"
       inkscape:color="rgb(233,30,99)"
       inkscape:locked="false" />
    <sodipodi:guide
       position="0,0.9999826"
       orientation="0,1"
       id="guide4142"
       inkscape:label="Icon Baseline"
       inkscape:color="rgb(233,30,99)"
       inkscape:locked="false" />
    <sodipodi:guide
       position="8,-1.74e-05"
       orientation="1,0"
       id="guide4144"
       inkscape:label="Center Vertical"
       inkscape:color="rgb(221,44,0)"
       inkscape:locked="false" />
    <sodipodi:guide
       position="17,7.9999826"
       orientation="0,1"
       id="guide4146"
       inkscape:label="Center Horizontal"
       inkscape:color="rgb(221,44,0)"
       inkscape:locked="false" />
  </sodipodi:namedview>
  <metadata
     id="metadata7">
    <rdf:RDF>
      <cc:Work
         rdf:about="">
        <dc:format>image/svg+xml</dc:format>
        <dc:type
           rdf:resource="http://purl.org/dc/dcmitype/StillImage" />
        <dc:title />
      </cc:Work>
    </rdf:RDF>
  </metadata>
  <g
     inkscape:label="Capa 1"
     inkscape:groupmode="layer"
     id="layer1"
     transform="translate(-3,-1033.3622)">
    <path
       style="fill:currentColor;fill-opacity:1;stroke:none" class="ColorScheme-Text"
       d="M 12.496094 2 C 12.195361 2.0009 11.963998 2.2673063 12.003906 2.5664062 L 12.003906 4.5019531 L 12.003906 7.5 C 12.003906 7.7768 12.226058 8 12.501953 8 C 12.777849 8 13 7.7768 13 7.5 L 13 5.0019531 L 14.423828 5.0019531 C 14.903655 5.0759531 15.194505 4.4872375 14.845703 4.1484375 L 12.855469 2.1503906 C 12.761309 2.0533906 12.630751 1.9995 12.496094 2 z M 3 3 C 1.8919807 3 1 3.8919807 1 5 L 1 13 C 1 14.108019 1.8919807 15 3 15 L 13 15 C 14.108019 15 14.977844 14.107797 15 13 L 15 8 L 15 7.5 C 15 7.223 14.777 7 14.5 7 C 14.223 7 14 7.223 14 7.5 L 14 8.5 L 14 13 C 14 13.554019 13.554019 14 13 14 L 3 14 C 2.4459807 14 2 13.554019 2 13 L 2 5 C 2 4.4459807 2.4466718 3.9723336 3 4 L 5 4 L 7.328125 4 L 8.5722656 5.7871094 A 0.49894932 0.49950422 0 0 0 8.9824219 6 L 10.476562 6 A 0.49894932 0.49950422 0 1 0 10.476562 5.0019531 L 9.2441406 5.0019531 L 7.9980469 3.2148438 A 0.49894932 0.49950422 0 0 0 7.5878906 3 L 5 3 L 3 3 z "
       transform="translate(3,1033.3622)"
       id="path4160" />
  </g>
</svg>
