<?xml version="1.0" encoding="UTF-8" standalone="no"?>
<!-- Created with Inkscape (http://www.inkscape.org/) -->

<svg
   xmlns:dc="http://purl.org/dc/elements/1.1/"
   xmlns:cc="http://creativecommons.org/ns#"
   xmlns:rdf="http://www.w3.org/1999/02/22-rdf-syntax-ns#"
   xmlns:svg="http://www.w3.org/2000/svg"
   xmlns="http://www.w3.org/2000/svg"
   xmlns:sodipodi="http://sodipodi.sourceforge.net/DTD/sodipodi-0.dtd"
   xmlns:inkscape="http://www.inkscape.org/namespaces/inkscape"
   width="16"
   height="16"
   viewBox="0 0 16 16"
   id="svg2"
   version="1.1"
   inkscape:version="0.92.3 (2405546, 2018-03-11)"
   sodipodi:docname="document-edit.svg">
<defs
    id="defs3051">
<style
    type="text/css"
    id="current-color-scheme">
    .ColorScheme-Text {
    color:#4d4d4d;
    }
    </style>
</defs>
  <sodipodi:namedview
     id="base"
     pagecolor="#ffffff"
     bordercolor="#666666"
     borderopacity="1.0"
     inkscape:pageopacity="0.0"
     inkscape:pageshadow="2"
     inkscape:zoom="45.254834"
     inkscape:cx="2.7139836"
     inkscape:cy="9.6393657"
     inkscape:document-units="px"
     inkscape:current-layer="layer1"
     showgrid="true"
     units="px"
     inkscape:showpageshadow="false"
     borderlayer="true"
     showguides="true"
     inkscape:guide-bbox="true"
     inkscape:window-width="2560"
     inkscape:window-height="1370"
     inkscape:window-x="0"
     inkscape:window-y="33"
     inkscape:window-maximized="1"
     fit-margin-top="0"
     fit-margin-left="0"
     fit-margin-right="0"
     fit-margin-bottom="0">
    <inkscape:grid
       type="xygrid"
       id="grid4136"
       empspacing="2"
       originx="-3"
       originy="-3.0000174" />
    <sodipodi:guide
       position="0,14.999983"
       orientation="0,1"
       id="guide4140"
       inkscape:label="Icon Max Height"
       inkscape:color="rgb(233,30,99)"
       inkscape:locked="false" />
    <sodipodi:guide
       position="0,0.9999826"
       orientation="0,1"
       id="guide4142"
       inkscape:label="Icon Baseline"
       inkscape:color="rgb(233,30,99)"
       inkscape:locked="false" />
    <sodipodi:guide
       position="8,-1.74e-05"
       orientation="1,0"
       id="guide4144"
       inkscape:label="Center Vertical"
       inkscape:color="rgb(221,44,0)"
       inkscape:locked="false" />
    <sodipodi:guide
       position="16,7.9999826"
       orientation="0,1"
       id="guide4146"
       inkscape:label="Center Horizontal"
       inkscape:color="rgb(221,44,0)"
       inkscape:locked="false" />
  </sodipodi:namedview>
  <metadata
     id="metadata7">
    <rdf:RDF>
      <cc:Work
         rdf:about="">
        <dc:format>image/svg+xml</dc:format>
        <dc:type
           rdf:resource="http://purl.org/dc/dcmitype/StillImage" />
        <dc:title />
      </cc:Work>
    </rdf:RDF>
  </metadata>
  <g
     inkscape:label="Capa 1"
     inkscape:groupmode="layer"
     id="layer1"
     transform="translate(-3,-1033.3622)">
    <path
       style="fill:currentColor;fill-opacity:1;stroke:none" class="ColorScheme-Text"
       d="M 12 1.0039062 L 11.652344 1.6679688 L 11.001953 2.0019531 L 11.652344 2.3339844 L 12 3.0019531 L 12.318359 2.3339844 L 12.998047 2.0019531 L 12.318359 1.6679688 L 12 1.0039062 z M 9 2.0039062 L 8.3242188 3.3339844 L 7.0019531 4.0019531 L 8.3242188 4.6640625 L 9 6 L 9.6542969 4.6640625 L 10.998047 4.0019531 L 9.6542969 3.3339844 L 9 2.0039062 z M 3.9707031 3.4960938 A 0.50005 0.50005 0 0 0 3.6289062 4.3359375 L 12.628906 14.335938 A 0.50005 0.50005 0 1 0 13.371094 13.666016 L 4.3710938 3.6660156 A 0.50005 0.50005 0 0 0 3.9707031 3.4960938 z M 14 4.0039062 L 13.648438 4.6640625 L 13.001953 5.0019531 L 13.648438 5.3320312 L 14 6.0019531 L 14.316406 5.3320312 L 14.998047 5.0019531 L 14.316406 4.6640625 L 14 4.0039062 z M 2.3515625 5.3398438 L 2.0019531 6.0039062 L 1.3515625 6.3378906 L 2.0019531 6.6699219 L 2.3515625 7.3378906 L 2.6699219 6.6699219 L 3.3496094 6.3378906 L 2.6699219 6.0039062 L 2.3515625 5.3398438 z M 4.3515625 8.3398438 L 4 9 L 3.3515625 9.3378906 L 4 9.6679688 L 4.3515625 10.337891 L 4.6679688 9.6679688 L 5.3496094 9.3378906 L 4.6679688 9 L 4.3515625 8.3398438 z "
       transform="translate(3,1033.3622)"
       id="path822" />
  </g>
</svg>
