<?xml version="1.0" encoding="UTF-8" standalone="no"?>
<!-- Created with Inkscape (http://www.inkscape.org/) -->

<svg
   xmlns:dc="http://purl.org/dc/elements/1.1/"
   xmlns:cc="http://creativecommons.org/ns#"
   xmlns:rdf="http://www.w3.org/1999/02/22-rdf-syntax-ns#"
   xmlns:svg="http://www.w3.org/2000/svg"
   xmlns="http://www.w3.org/2000/svg"
   xmlns:sodipodi="http://sodipodi.sourceforge.net/DTD/sodipodi-0.dtd"
   xmlns:inkscape="http://www.inkscape.org/namespaces/inkscape"
   width="16"
   height="16"
   viewBox="0 0 16 16"
   id="svg2"
   version="1.1"
   inkscape:version="0.92.3 (unknown)"
   sodipodi:docname="document-print.svg">
  <defs
     id="defs3051">
    <style
       type="text/css"
       id="current-color-scheme">
    .ColorScheme-Text {
    color:#4d4d4d;
    }
    </style>
  </defs>
  <sodipodi:namedview
     id="base"
     pagecolor="#ffffff"
     bordercolor="#666666"
     borderopacity="1.0"
     inkscape:pageopacity="0.0"
     inkscape:pageshadow="2"
     inkscape:zoom="64"
     inkscape:cx="8.5295664"
     inkscape:cy="7.6477704"
     inkscape:document-units="px"
     inkscape:current-layer="layer1"
     showgrid="true"
     units="px"
     inkscape:showpageshadow="false"
     borderlayer="true"
     showguides="true"
     inkscape:guide-bbox="true"
     inkscape:window-width="2560"
     inkscape:window-height="1384"
     inkscape:window-x="0"
     inkscape:window-y="32"
     inkscape:window-maximized="1"
     fit-margin-top="0"
     fit-margin-left="0"
     fit-margin-right="0"
     fit-margin-bottom="0">
    <inkscape:grid
       type="xygrid"
       id="grid4136"
       empspacing="2"
       originx="-3"
       originy="-3.0000174" />
    <sodipodi:guide
       position="0,14.999983"
       orientation="0,1"
       id="guide4140"
       inkscape:label="Icon Max Height"
       inkscape:color="rgb(233,30,99)"
       inkscape:locked="false" />
    <sodipodi:guide
       position="0,0.9999826"
       orientation="0,1"
       id="guide4142"
       inkscape:label="Icon Baseline"
       inkscape:color="rgb(233,30,99)"
       inkscape:locked="false" />
    <sodipodi:guide
       position="8,-1.74e-05"
       orientation="1,0"
       id="guide4144"
       inkscape:label="Center Vertical"
       inkscape:color="rgb(221,44,0)"
       inkscape:locked="false" />
    <sodipodi:guide
       position="16,7.9999826"
       orientation="0,1"
       id="guide4146"
       inkscape:label="Center Horizontal"
       inkscape:color="rgb(221,44,0)"
       inkscape:locked="false" />
  </sodipodi:namedview>
  <metadata
     id="metadata7">
    <rdf:RDF>
      <cc:Work
         rdf:about="">
        <dc:format>image/svg+xml</dc:format>
        <dc:type
           rdf:resource="http://purl.org/dc/dcmitype/StillImage" />
        <dc:title />
      </cc:Work>
    </rdf:RDF>
  </metadata>
  <g
     inkscape:label="Capa 1"
     inkscape:groupmode="layer"
     id="layer1"
     transform="translate(-3,-1033.3622)">
    <path
       style="fill:currentColor;fill-opacity:1;stroke:none" class="ColorScheme-Text"
       d="M 5 1 C 3.8919807 1 3 1.8919807 3 3 L 3 5 C 1.8919807 5 1 5.8919807 1 7 L 1 12 C 1 13.108019 1.8919807 14 3 14 L 3.2753906 14 C 3.6209515 14.595799 4.2589301 15 5 15 L 11 15 C 11.74107 15 12.379048 14.595799 12.724609 14 L 13 14 C 14.108019 14 15 13.108019 15 12 L 15 7 C 15 5.8919807 14.108019 5 13 5 L 13 3 C 13 1.8919807 12.108019 1 11 1 L 5 1 z M 5 2 L 11 2 C 11.554019 2 12 2.4459807 12 3 L 12 5 L 4 5 L 4 3 C 4 2.4459807 4.4459807 2 5 2 z M 3 6 L 13 6 C 13.554019 6 14 6.4459807 14 7 L 14 12 C 14 12.554019 13.554019 13 13 13 L 13 11 L 4 11 L 3 11 L 3 13 C 2.4459807 13 2 12.554019 2 12 L 2 7 C 2 6.4459807 2.4459807 6 3 6 z M 3 7 L 3 8 L 10 8 L 10 7 L 3 7 z M 12 7 A 1 1 0 0 0 11 8 A 1 1 0 0 0 12 9 A 1 1 0 0 0 13 8 A 1 1 0 0 0 12 7 z M 3 9 L 3 10 L 6 10 L 6 9 L 3 9 z M 4 12 L 12 12 L 12 13 C 12 13.554 11.554 14 11 14 L 5 14 C 4.446 14 4 13.554 4 13 L 4 12 z "
       transform="translate(3,1033.3622)"
       id="path837" />
  </g>
</svg>
