<?xml version="1.0" encoding="UTF-8" standalone="no"?>
<!-- Created with Inkscape (http://www.inkscape.org/) -->

<svg
   xmlns:dc="http://purl.org/dc/elements/1.1/"
   xmlns:cc="http://creativecommons.org/ns#"
   xmlns:rdf="http://www.w3.org/1999/02/22-rdf-syntax-ns#"
   xmlns:svg="http://www.w3.org/2000/svg"
   xmlns="http://www.w3.org/2000/svg"
   xmlns:sodipodi="http://sodipodi.sourceforge.net/DTD/sodipodi-0.dtd"
   xmlns:inkscape="http://www.inkscape.org/namespaces/inkscape"
   width="16"
   height="16"
   viewBox="0 0 16 16"
   id="svg2"
   version="1.1"
   inkscape:version="0.92.3 (unknown)"
   sodipodi:docname="edit-select.svg">
  <defs
     id="defs3051">
    <style
       type="text/css"
       id="current-color-scheme">
    .ColorScheme-Text {
    color:#4d4d4d;
    }
    </style>
  </defs>
  <sodipodi:namedview
     id="base"
     pagecolor="#ffffff"
     bordercolor="#666666"
     borderopacity="1.0"
     inkscape:pageopacity="0.0"
     inkscape:pageshadow="2"
     inkscape:zoom="75.75"
     inkscape:cx="7.9867987"
     inkscape:cy="8"
     inkscape:document-units="px"
     inkscape:current-layer="layer1"
     showgrid="true"
     units="px"
     inkscape:showpageshadow="false"
     borderlayer="true"
     showguides="true"
     inkscape:guide-bbox="true"
     inkscape:window-width="2560"
     inkscape:window-height="1378"
     inkscape:window-x="0"
     inkscape:window-y="32"
     inkscape:window-maximized="1"
     fit-margin-top="0"
     fit-margin-left="0"
     fit-margin-right="0"
     fit-margin-bottom="0">
    <inkscape:grid
       type="xygrid"
       id="grid4136"
       empspacing="2"
       originx="-3"
       originy="-3.0000174" />
    <sodipodi:guide
       position="0,14.999983"
       orientation="0,1"
       id="guide4140"
       inkscape:label="Icon Max Height"
       inkscape:color="rgb(233,30,99)"
       inkscape:locked="false" />
    <sodipodi:guide
       position="0,0.9999826"
       orientation="0,1"
       id="guide4142"
       inkscape:label="Icon Baseline"
       inkscape:color="rgb(233,30,99)"
       inkscape:locked="false" />
    <sodipodi:guide
       position="8,-1.74e-05"
       orientation="1,0"
       id="guide4144"
       inkscape:label="Center Vertical"
       inkscape:color="rgb(221,44,0)"
       inkscape:locked="false" />
    <sodipodi:guide
       position="16,7.9999826"
       orientation="0,1"
       id="guide4146"
       inkscape:label="Center Horizontal"
       inkscape:color="rgb(221,44,0)"
       inkscape:locked="false" />
  </sodipodi:namedview>
  <metadata
     id="metadata7">
    <rdf:RDF>
      <cc:Work
         rdf:about="">
        <dc:format>image/svg+xml</dc:format>
        <dc:type
           rdf:resource="http://purl.org/dc/dcmitype/StillImage" />
        <dc:title />
      </cc:Work>
    </rdf:RDF>
  </metadata>
  <g
     inkscape:label="Capa 1"
     inkscape:groupmode="layer"
     id="layer1"
     transform="translate(-3,-1033.3622)">
    <path
       style="fill:currentColor;fill-opacity:1;stroke:none" class="ColorScheme-Text"
       d="M 5.4882812 2 A 0.49852514 0.49938824 0 0 0 5.1445312 2.1503906 L 3.5039062 3.7949219 L 2.859375 3.1484375 A 0.49852514 0.49938824 0 1 0 2.1542969 3.8554688 L 3.1503906 4.8535156 A 0.49852514 0.49938824 0 0 0 3.8554688 4.8535156 L 5.8496094 2.8554688 A 0.49852514 0.49938824 0 0 0 5.4882812 2 z M 7.5 3 C 7.223 3 7 3.223 7 3.5 C 7 3.777 7.223 4 7.5 4 L 13.5 4 C 13.777 4 14 3.777 14 3.5 C 14 3.223 13.777 3 13.5 3 L 7.5 3 z M 5.4882812 6 A 0.49852514 0.49938824 0 0 0 5.1445312 6.1503906 L 3.5039062 7.7949219 L 2.859375 7.1484375 A 0.49852514 0.49938824 0 1 0 2.1542969 7.8554688 L 3.1503906 8.8535156 A 0.49852514 0.49938824 0 0 0 3.8554688 8.8535156 L 5.8496094 6.8554688 A 0.49852514 0.49938824 0 0 0 5.4882812 6 z M 7.5 7 C 7.223 7 7 7.223 7 7.5 C 7 7.777 7.223 8 7.5 8 L 13.5 8 C 13.777 8 14 7.777 14 7.5 C 14 7.223 13.777 7 13.5 7 L 7.5 7 z M 5.4882812 10 A 0.49852514 0.49938824 0 0 0 5.1445312 10.150391 L 3.5039062 11.794922 L 2.859375 11.148438 A 0.49852514 0.49938824 0 1 0 2.1542969 11.855469 L 3.1503906 12.853516 A 0.49852514 0.49938824 0 0 0 3.8554688 12.853516 L 5.8496094 10.855469 A 0.49852514 0.49938824 0 0 0 5.4882812 10 z M 7.5 11 C 7.223 11 7 11.223 7 11.5 C 7 11.777 7.223 12 7.5 12 L 13.5 12 C 13.777 12 14 11.777 14 11.5 C 14 11.223 13.777 11 13.5 11 L 7.5 11 z "
       transform="translate(3,1033.3622)"
       id="rect838" />
  </g>
</svg>
