<?xml version="1.0" encoding="UTF-8" standalone="no"?>
<!-- Created with Inkscape (http://www.inkscape.org/) -->

<svg
   xmlns:dc="http://purl.org/dc/elements/1.1/"
   xmlns:cc="http://creativecommons.org/ns#"
   xmlns:rdf="http://www.w3.org/1999/02/22-rdf-syntax-ns#"
   xmlns:svg="http://www.w3.org/2000/svg"
   xmlns="http://www.w3.org/2000/svg"
   xmlns:sodipodi="http://sodipodi.sourceforge.net/DTD/sodipodi-0.dtd"
   xmlns:inkscape="http://www.inkscape.org/namespaces/inkscape"
   width="16"
   height="16"
   viewBox="0 0 16 16"
   id="svg2"
   version="1.1"
   inkscape:version="0.92.3 (unknown)"
   sodipodi:docname="edit-add-effect.svg">
  <defs
     id="defs3051">
    <style
       type="text/css"
       id="current-color-scheme">
    .ColorScheme-Text {
    color:#4d4d4d;
    }
    </style>
  </defs>
  <sodipodi:namedview
     id="base"
     pagecolor="#ffffff"
     bordercolor="#666666"
     borderopacity="1.0"
     inkscape:pageopacity="0.0"
     inkscape:pageshadow="2"
     inkscape:zoom="152.25"
     inkscape:cx="6.0045129"
     inkscape:cy="7.250361"
     inkscape:document-units="px"
     inkscape:current-layer="layer1"
     showgrid="true"
     units="px"
     inkscape:showpageshadow="false"
     borderlayer="true"
     showguides="true"
     inkscape:guide-bbox="true"
     inkscape:window-width="2560"
     inkscape:window-height="1378"
     inkscape:window-x="0"
     inkscape:window-y="32"
     inkscape:window-maximized="1"
     fit-margin-top="0"
     fit-margin-left="0"
     fit-margin-right="0"
     fit-margin-bottom="0">
    <inkscape:grid
       type="xygrid"
       id="grid4136"
       empspacing="2"
       originx="-3"
       originy="-3.0000174" />
    <sodipodi:guide
       position="0,14.999983"
       orientation="0,1"
       id="guide4140"
       inkscape:label="Icon Max Height"
       inkscape:color="rgb(233,30,99)"
       inkscape:locked="false" />
    <sodipodi:guide
       position="0,0.9999826"
       orientation="0,1"
       id="guide4142"
       inkscape:label="Icon Baseline"
       inkscape:color="rgb(233,30,99)"
       inkscape:locked="false" />
    <sodipodi:guide
       position="8,-1.74e-05"
       orientation="1,0"
       id="guide4144"
       inkscape:label="Center Vertical"
       inkscape:color="rgb(221,44,0)"
       inkscape:locked="false" />
    <sodipodi:guide
       position="16,7.9999826"
       orientation="0,1"
       id="guide4146"
       inkscape:label="Center Horizontal"
       inkscape:color="rgb(221,44,0)"
       inkscape:locked="false" />
  </sodipodi:namedview>
  <metadata
     id="metadata7">
    <rdf:RDF>
      <cc:Work
         rdf:about="">
        <dc:format>image/svg+xml</dc:format>
        <dc:type
           rdf:resource="http://purl.org/dc/dcmitype/StillImage" />
        <dc:title />
      </cc:Work>
    </rdf:RDF>
  </metadata>
  <g
     inkscape:label="Capa 1"
     inkscape:groupmode="layer"
     id="layer1"
     transform="translate(-3,-1033.3622)">
    <path
       style="fill:currentColor;fill-opacity:1;stroke:none" class="ColorScheme-Text"
       d="M 8 2 A 4 4 0 0 0 4.1132812 5.0800781 A 5 5 0 0 1 5 5 A 5 5 0 0 1 5.171875 5.0078125 A 3 3 0 0 1 8 3 A 3 3 0 0 1 11 6 A 3 3 0 0 1 9.7421875 8.4375 A 5 5 0 0 1 9.96875 9.4785156 A 4 4 0 0 0 11.859375 7.0410156 A 4 4 0 0 1 11.837891 7.1230469 A 3 3 0 0 1 14 10 A 3 3 0 0 1 11 13 A 3 3 0 0 1 9.3300781 12.490234 A 5 5 0 0 1 8.7480469 13.300781 A 4 4 0 0 0 11 14 A 4 4 0 0 0 15 10 A 4 4 0 0 0 11.996094 6.1289062 A 4 4 0 0 0 12 6 A 4 4 0 0 0 8 2 z M 5 6 A 4 4 0 0 0 1 10 A 4 4 0 0 0 5 14 A 4 4 0 0 0 9 10 A 4 4 0 0 0 5 6 z M 11.966797 6.4648438 A 4 4 0 0 1 11.958984 6.5507812 A 4 4 0 0 0 11.966797 6.4648438 z M 11.910156 6.8183594 A 4 4 0 0 1 11.876953 6.9726562 A 4 4 0 0 0 11.910156 6.8183594 z M 5 7 A 3 3 0 0 1 8 10 A 3 3 0 0 1 5 13 A 3 3 0 0 1 2 10 A 3 3 0 0 1 5 7 z M 5 8 A 0.5 0.5 0 0 0 4.5 8.5 A 0.5 0.5 0 0 0 5 9 A 1 1 0 0 1 6 10 A 0.5 0.5 0 0 0 6.5 10.5 A 0.5 0.5 0 0 0 7 10 A 0.5 0.5 0 0 0 6.9980469 9.9648438 A 2 2 0 0 0 5.0507812 8.0019531 A 0.5 0.5 0 0 0 5 8 z "
       transform="translate(3,1033.3622)"
       id="path867" />
  </g>
</svg>
