<?xml version="1.0" encoding="UTF-8" standalone="no"?>
<!-- Created with Inkscape (http://www.inkscape.org/) -->

<svg
   xmlns:dc="http://purl.org/dc/elements/1.1/"
   xmlns:cc="http://creativecommons.org/ns#"
   xmlns:rdf="http://www.w3.org/1999/02/22-rdf-syntax-ns#"
   xmlns:svg="http://www.w3.org/2000/svg"
   xmlns="http://www.w3.org/2000/svg"
   xmlns:sodipodi="http://sodipodi.sourceforge.net/DTD/sodipodi-0.dtd"
   xmlns:inkscape="http://www.inkscape.org/namespaces/inkscape"
   width="16"
   height="16"
   viewBox="0 0 16 16"
   id="svg2"
   version="1.1"
   inkscape:version="0.91 r13725"
   sodipodi:docname="edit-copy.svg">
<defs
    id="defs3051">
<style
    type="text/css"
    id="current-color-scheme">
    .ColorScheme-Text {
    color:#4d4d4d;
    }
    </style>
</defs>
  <sodipodi:namedview
     id="base"
     pagecolor="#ffffff"
     bordercolor="#666666"
     borderopacity="1.0"
     inkscape:pageopacity="0.0"
     inkscape:pageshadow="2"
     inkscape:zoom="52.8125"
     inkscape:cx="10.552408"
     inkscape:cy="9.4931591"
     inkscape:document-units="px"
     inkscape:current-layer="layer1"
     showgrid="true"
     units="px"
     inkscape:showpageshadow="false"
     borderlayer="true"
     showguides="true"
     inkscape:guide-bbox="true"
     inkscape:window-width="2560"
     inkscape:window-height="1050"
     inkscape:window-x="0"
     inkscape:window-y="0"
     inkscape:window-maximized="1"
     fit-margin-top="0"
     fit-margin-left="0"
     fit-margin-right="0"
     fit-margin-bottom="0">
    <inkscape:grid
       type="xygrid"
       id="grid4136"
       empspacing="2"
       originx="-3"
       originy="-3.0000174" />
    <sodipodi:guide
       position="0,14.999983"
       orientation="0,1"
       id="guide4140"
       inkscape:label="Icon Max Height"
       inkscape:color="rgb(233,30,99)" />
    <sodipodi:guide
       position="0,0.9999826"
       orientation="0,1"
       id="guide4142"
       inkscape:label="Icon Baseline"
       inkscape:color="rgb(233,30,99)" />
    <sodipodi:guide
       position="8,-1.74e-05"
       orientation="1,0"
       id="guide4144"
       inkscape:label="Center Vertical"
       inkscape:color="rgb(221,44,0)" />
    <sodipodi:guide
       position="16,7.9999826"
       orientation="0,1"
       id="guide4146"
       inkscape:label="Center Horizontal"
       inkscape:color="rgb(221,44,0)" />
  </sodipodi:namedview>
  <metadata
     id="metadata7">
    <rdf:RDF>
      <cc:Work
         rdf:about="">
        <dc:format>image/svg+xml</dc:format>
        <dc:type
           rdf:resource="http://purl.org/dc/dcmitype/StillImage" />
        <dc:title />
      </cc:Work>
    </rdf:RDF>
  </metadata>
  <g
     inkscape:label="Capa 1"
     inkscape:groupmode="layer"
     id="layer1"
     transform="translate(-3,-1033.3622)">
    <path
       style="fill:currentColor;fill-opacity:1;stroke:none" class="ColorScheme-Text"
       d="M 7 1 C 5.891981 1 5 1.892 5 3 L 4 3 C 2.8919807 3 2 3.892 2 5 L 2 13 C 2 14.108 2.8919807 15 4 15 L 10 15 C 11.108019 15 12 14.108019 12 13 C 13.108019 13 14 12.108 14 11 L 14 10 L 14 3 C 14 1.892 13.108019 1 12 1 L 9 1.0019531 L 9 1 L 8 1 L 7 1 z M 7 2 L 8 2 L 9 2 L 12 2 C 12.554019 2 13 2.446 13 3 L 13 10 L 13 11 C 13 11.554 12.554019 12 12 12 L 12 7.5 L 12 7 L 8.0019531 3.0019531 L 8 3.0019531 L 7.5136719 3.0019531 L 7.5 3.0019531 L 6 3.0019531 L 6 3 C 6 2.446 6.445981 2 7 2 z M 4 4 L 7 4 L 7 7.5 C 7 7.777 7.223113 8.0079111 7.5 8 L 11 8 L 11 12 L 11 13 C 11 13.554019 10.554019 14 10 14 L 4 14 C 3.4459807 14 3 13.554 3 13 L 3 5 C 3 4.446 3.4459807 4 4 4 z M 8 4.4121094 L 10.587891 7 L 8 7 L 8 4.4121094 z "
       transform="translate(3,1033.3622)"
       id="rect3224" />
  </g>
</svg>
