<?xml version="1.0" encoding="UTF-8" standalone="no"?>
<!-- Created with Inkscape (http://www.inkscape.org/) -->

<svg
   xmlns:dc="http://purl.org/dc/elements/1.1/"
   xmlns:cc="http://creativecommons.org/ns#"
   xmlns:rdf="http://www.w3.org/1999/02/22-rdf-syntax-ns#"
   xmlns:svg="http://www.w3.org/2000/svg"
   xmlns="http://www.w3.org/2000/svg"
   xmlns:sodipodi="http://sodipodi.sourceforge.net/DTD/sodipodi-0.dtd"
   xmlns:inkscape="http://www.inkscape.org/namespaces/inkscape"
   width="16"
   height="16"
   viewBox="0 0 16 16"
   id="svg2"
   version="1.1"
   inkscape:version="0.92.3 (unknown)"
   sodipodi:docname="email.svg">
  <defs
     id="defs3051">
    <style
       type="text/css"
       id="current-color-scheme">
    .ColorScheme-Text {
    color:#4d4d4d;
    }
    </style>
  </defs>
  <sodipodi:namedview
     id="base"
     pagecolor="#ffffff"
     bordercolor="#666666"
     borderopacity="1.0"
     inkscape:pageopacity="0.0"
     inkscape:pageshadow="2"
     inkscape:zoom="75.75"
     inkscape:cx="8"
     inkscape:cy="8"
     inkscape:document-units="px"
     inkscape:current-layer="layer1"
     showgrid="true"
     units="px"
     inkscape:showpageshadow="false"
     borderlayer="true"
     showguides="true"
     inkscape:guide-bbox="true"
     inkscape:window-width="2560"
     inkscape:window-height="1378"
     inkscape:window-x="0"
     inkscape:window-y="32"
     inkscape:window-maximized="1"
     fit-margin-top="0"
     fit-margin-left="0"
     fit-margin-right="0"
     fit-margin-bottom="0">
    <inkscape:grid
       type="xygrid"
       id="grid4136"
       empspacing="2"
       originx="-3"
       originy="-3.0000174" />
    <sodipodi:guide
       position="0,14.999983"
       orientation="0,1"
       id="guide4140"
       inkscape:label="Icon Max Height"
       inkscape:color="rgb(233,30,99)"
       inkscape:locked="false" />
    <sodipodi:guide
       position="0,0.9999826"
       orientation="0,1"
       id="guide4142"
       inkscape:label="Icon Baseline"
       inkscape:color="rgb(233,30,99)"
       inkscape:locked="false" />
    <sodipodi:guide
       position="8,-1.74e-05"
       orientation="1,0"
       id="guide4144"
       inkscape:label="Center Vertical"
       inkscape:color="rgb(221,44,0)"
       inkscape:locked="false" />
    <sodipodi:guide
       position="16,7.9999826"
       orientation="0,1"
       id="guide4146"
       inkscape:label="Center Horizontal"
       inkscape:color="rgb(221,44,0)"
       inkscape:locked="false" />
  </sodipodi:namedview>
  <metadata
     id="metadata7">
    <rdf:RDF>
      <cc:Work
         rdf:about="">
        <dc:format>image/svg+xml</dc:format>
        <dc:type
           rdf:resource="http://purl.org/dc/dcmitype/StillImage" />
        <dc:title />
      </cc:Work>
    </rdf:RDF>
  </metadata>
  <g
     inkscape:label="Capa 1"
     inkscape:groupmode="layer"
     id="layer1"
     transform="translate(-3,-1033.3622)">
    <path
       style="fill:currentColor;fill-opacity:1;stroke:none" class="ColorScheme-Text"
       d="M 3 3 C 1.8919807 3 1 3.8919807 1 5 L 1 11 C 1 12.108019 1.8919807 13 3 13 L 13 13 C 14.108019 13 15 12.108019 15 11 L 15 5 C 15 3.8919807 14.108019 3 13 3 L 3 3 z M 3 4 L 13 4 C 13.086565 4 13.16414 4.0283408 13.244141 4.0488281 L 9.671875 7.6210938 L 9.6464844 7.6464844 L 8 9.2929688 L 6.3535156 7.6464844 A 0.50005 0.50005 0 0 0 6.3164062 7.6113281 L 2.7558594 4.0488281 C 2.8358602 4.0283408 2.9134349 4 3 4 z M 2.0488281 4.7558594 L 5.2929688 8 L 2.0488281 11.244141 C 2.0283408 11.16414 2 11.086565 2 11 L 2 5 C 2 4.9134349 2.0283408 4.8358602 2.0488281 4.7558594 z M 13.951172 4.7558594 C 13.971659 4.8358602 14 4.9134349 14 5 L 14 11 C 14 11.086565 13.971659 11.16414 13.951172 11.244141 L 10.707031 8 L 13.951172 4.7558594 z M 6 8.7070312 L 7.6464844 10.353516 A 0.50005 0.50005 0 0 0 8.0078125 10.498047 A 0.50005 0.50005 0 0 0 8.0566406 10.496094 A 0.50005 0.50005 0 0 0 8.3535156 10.353516 L 10 8.7070312 L 13.244141 11.951172 C 13.16414 11.971659 13.086565 12 13 12 L 3 12 C 2.9134349 12 2.8358602 11.971659 2.7558594 11.951172 L 6 8.7070312 z "
       transform="translate(3,1033.3622)"
       id="rect837" />
  </g>
</svg>
