<?xml version="1.0" encoding="UTF-8" standalone="no"?>
<!-- Created with Inkscape (http://www.inkscape.org/) -->

<svg
   xmlns:dc="http://purl.org/dc/elements/1.1/"
   xmlns:cc="http://creativecommons.org/ns#"
   xmlns:rdf="http://www.w3.org/1999/02/22-rdf-syntax-ns#"
   xmlns:svg="http://www.w3.org/2000/svg"
   xmlns="http://www.w3.org/2000/svg"
   xmlns:sodipodi="http://sodipodi.sourceforge.net/DTD/sodipodi-0.dtd"
   xmlns:inkscape="http://www.inkscape.org/namespaces/inkscape"
   width="16"
   height="16"
   viewBox="0 0 16 16"
   id="svg2"
   version="1.1"
   inkscape:version="0.92.3 (unknown)"
   sodipodi:docname="format-text-uppercase.svg">
  <defs
     id="defs3051">
    <style
       type="text/css"
       id="current-color-scheme">
    .ColorScheme-Text {
    color:#4d4d4d;
    }
    </style>
  </defs>
  <sodipodi:namedview
     id="base"
     pagecolor="#ffffff"
     bordercolor="#666666"
     borderopacity="1.0"
     inkscape:pageopacity="0.0"
     inkscape:pageshadow="2"
     inkscape:zoom="128"
     inkscape:cx="12.057728"
     inkscape:cy="6.3034892"
     inkscape:document-units="px"
     inkscape:current-layer="layer1"
     showgrid="true"
     units="px"
     inkscape:showpageshadow="false"
     borderlayer="true"
     showguides="true"
     inkscape:guide-bbox="true"
     inkscape:window-width="2560"
     inkscape:window-height="1378"
     inkscape:window-x="0"
     inkscape:window-y="32"
     inkscape:window-maximized="1"
     fit-margin-top="0"
     fit-margin-left="0"
     fit-margin-right="0"
     fit-margin-bottom="0">
    <inkscape:grid
       type="xygrid"
       id="grid4136"
       empspacing="2"
       originx="-3"
       originy="-3.0000174" />
    <sodipodi:guide
       position="0,14.999983"
       orientation="0,1"
       id="guide4140"
       inkscape:label="Icon Max Height"
       inkscape:color="rgb(233,30,99)"
       inkscape:locked="false" />
    <sodipodi:guide
       position="0,0.9999826"
       orientation="0,1"
       id="guide4142"
       inkscape:label="Icon Baseline"
       inkscape:color="rgb(233,30,99)"
       inkscape:locked="false" />
    <sodipodi:guide
       position="8,-1.74e-05"
       orientation="1,0"
       id="guide4144"
       inkscape:label="Center Vertical"
       inkscape:color="rgb(221,44,0)"
       inkscape:locked="false" />
    <sodipodi:guide
       position="-2,7.9999826"
       orientation="0,1"
       id="guide4146"
       inkscape:label="Center Horizontal"
       inkscape:color="rgb(221,44,0)"
       inkscape:locked="false" />
  </sodipodi:namedview>
  <metadata
     id="metadata7">
    <rdf:RDF>
      <cc:Work
         rdf:about="">
        <dc:format>image/svg+xml</dc:format>
        <dc:type
           rdf:resource="http://purl.org/dc/dcmitype/StillImage" />
        <dc:title />
      </cc:Work>
    </rdf:RDF>
  </metadata>
  <g
     inkscape:label="Capa 1"
     inkscape:groupmode="layer"
     id="layer1"
     transform="translate(-3,-1033.3622)">
    <path
       style="fill:currentColor;fill-opacity:1;stroke:none" class="ColorScheme-Text"
       d="M 4.4765625,3 C 4.2879354,3.0085105 4.1202018,3.1225995 4.0429688,3.2949219 L 0.04492187,12.292969 c -0.27089619,0.609487 0.64316631,1.015737 0.91406251,0.40625 L 2.15625,10 h 4.6855469 l 1.1992187,2.699219 c 0.2707997,0.60945 1.1848622,0.2032 0.9140625,-0.40625 L 4.9570312,3.2949219 C 4.8728704,3.1070499 4.6821591,2.9899873 4.4765625,3 Z M 4.5,4.7304688 6.3964844,8.9960938 H 2.6035156 Z M 12.984375,5 v 0.00195 c -0.28704,-0.011 -0.571148,0.017219 -0.841797,0.074219 -0.541296,0.1156 -1.031974,0.3592437 -1.398437,0.7148437 -0.554146,0.4949503 0.256315,1.2806017 0.765625,0.7421875 0.350039,-0.3397 1.289894,-0.598925 2.041015,-0.390625 C 14.301903,6.3507781 15,7.1962737 15,8.5976737 v 0.6894531 c -1.382075,-1.4272483 -4.963079,-1.3084415 -4.984375,1.0097482 -0.07856,0.7417 0.127845,1.571694 0.640625,2.433594 0.09681,0.163473 0.27643,0.264089 0.470703,0.263672 h 4.25 C 15.707132,13.042952 16.003685,12.79288 16,12.46875 V 9.3144531 8.2636719 C 16,6.5119719 14.991718,5.4480594 13.847656,5.1308594 13.56164,5.0518594 13.271414,5.0085 12.984375,5 Z M 15,10.531267 v 1.46875 l -3.478516,-0.05471 C 9.8115489,8.9522185 13.642926,8.2968842 15,10.531267 Z"
       transform="translate(3,1033.3622)"
       id="path837"
       inkscape:connector-curvature="0"
       sodipodi:nodetypes="ccccccccccccccccccccscccccccscccccc" />
  </g>
</svg>
