<?xml version="1.0" encoding="UTF-8" standalone="no"?>
<!-- Created with Inkscape (http://www.inkscape.org/) -->

<svg
   xmlns:dc="http://purl.org/dc/elements/1.1/"
   xmlns:cc="http://creativecommons.org/ns#"
   xmlns:rdf="http://www.w3.org/1999/02/22-rdf-syntax-ns#"
   xmlns:svg="http://www.w3.org/2000/svg"
   xmlns="http://www.w3.org/2000/svg"
   xmlns:sodipodi="http://sodipodi.sourceforge.net/DTD/sodipodi-0.dtd"
   xmlns:inkscape="http://www.inkscape.org/namespaces/inkscape"
   width="16"
   height="16"
   viewBox="0 0 16 16"
   id="svg2"
   version="1.1"
   inkscape:version="0.91 r13725"
   sodipodi:docname="help-contents.svg">
<defs
    id="defs3051">
<style
    type="text/css"
    id="current-color-scheme">
    .ColorScheme-Text {
    color:#4d4d4d;
    }
    </style>
</defs>
  <sodipodi:namedview
     id="base"
     pagecolor="#ffffff"
     bordercolor="#666666"
     borderopacity="1.0"
     inkscape:pageopacity="0.0"
     inkscape:pageshadow="2"
     inkscape:zoom="53.033009"
     inkscape:cx="10.517618"
     inkscape:cy="7.6135823"
     inkscape:document-units="px"
     inkscape:current-layer="layer1"
     showgrid="true"
     units="px"
     inkscape:showpageshadow="false"
     borderlayer="true"
     showguides="true"
     inkscape:guide-bbox="true"
     inkscape:window-width="2560"
     inkscape:window-height="1015"
     inkscape:window-x="0"
     inkscape:window-y="0"
     inkscape:window-maximized="1"
     fit-margin-top="0"
     fit-margin-left="0"
     fit-margin-right="0"
     fit-margin-bottom="0">
    <inkscape:grid
       type="xygrid"
       id="grid4136"
       empspacing="2"
       originx="-3"
       originy="-3.0000174" />
    <sodipodi:guide
       position="0,14.999983"
       orientation="0,1"
       id="guide4140"
       inkscape:label="Icon Max Height"
       inkscape:color="rgb(233,30,99)" />
    <sodipodi:guide
       position="0,0.9999826"
       orientation="0,1"
       id="guide4142"
       inkscape:label="Icon Baseline"
       inkscape:color="rgb(233,30,99)" />
    <sodipodi:guide
       position="8,-1.74e-05"
       orientation="1,0"
       id="guide4144"
       inkscape:label="Center Vertical"
       inkscape:color="rgb(221,44,0)" />
    <sodipodi:guide
       position="16,7.9999826"
       orientation="0,1"
       id="guide4146"
       inkscape:label="Center Horizontal"
       inkscape:color="rgb(221,44,0)" />
  </sodipodi:namedview>
  <metadata
     id="metadata7">
    <rdf:RDF>
      <cc:Work
         rdf:about="">
        <dc:format>image/svg+xml</dc:format>
        <dc:type
           rdf:resource="http://purl.org/dc/dcmitype/StillImage" />
        <dc:title></dc:title>
      </cc:Work>
    </rdf:RDF>
  </metadata>
  <g
     inkscape:label="Capa 1"
     inkscape:groupmode="layer"
     id="layer1"
     transform="translate(-3,-1033.3622)">
    <path
       style="fill:currentColor;fill-opacity:1;stroke:none" class="ColorScheme-Text"
       d="M 8 1 A 7 7 0 0 0 3.4179688 2.7128906 L 2.859375 2.1542969 A 0.49889403 0.49889403 0 0 0 2.5097656 2 A 0.49889403 0.49889403 0 0 0 2.1542969 2.859375 L 2.7167969 3.421875 A 7 7 0 0 0 1 8 A 7 7 0 0 0 2.7128906 12.582031 L 2.1542969 13.140625 A 0.49925644 0.49925644 0 0 0 2.859375 13.847656 L 3.421875 13.285156 A 7 7 0 0 0 8 15 A 7 7 0 0 0 12.580078 13.287109 L 13.140625 13.847656 A 0.4992564 0.4992564 0 1 0 13.845703 13.140625 L 13.283203 12.578125 A 7 7 0 0 0 15 8 A 7 7 0 0 0 13.287109 3.4179688 L 13.845703 2.859375 A 0.49889403 0.49889403 0 0 0 13.488281 2 A 0.49889403 0.49889403 0 0 0 13.140625 2.1542969 L 12.578125 2.7167969 A 7 7 0 0 0 8 1 z M 8 2 A 6 6 0 0 1 11.875 3.4199219 L 9.7363281 5.5585938 A 3 3 0 0 0 8 5 A 3 3 0 0 0 6.2617188 5.5566406 L 4.1289062 3.4238281 A 6 6 0 0 1 8 2 z M 3.4199219 4.125 L 5.5585938 6.2636719 A 3 3 0 0 0 5 8 A 3 3 0 0 0 5.5566406 9.7382812 L 3.4238281 11.871094 A 6 6 0 0 1 2 8 A 6 6 0 0 1 3.4199219 4.125 z M 12.576172 4.1289062 A 6 6 0 0 1 14 8 A 6 6 0 0 1 12.580078 11.875 L 10.441406 9.7363281 A 3 3 0 0 0 11 8 A 3 3 0 0 0 10.443359 6.2617188 L 12.576172 4.1289062 z M 8 6 A 2 2 0 0 1 9.0449219 6.296875 A 2 2 0 0 1 9.0527344 6.3027344 A 2 2 0 0 1 9.2089844 6.4101562 A 2 2 0 0 1 9.3535156 6.53125 A 2 2 0 0 1 9.3632812 6.5390625 A 2 2 0 0 1 9.3730469 6.5488281 A 2 2 0 0 1 9.4921875 6.671875 A 2 2 0 0 1 9.5019531 6.6816406 A 2 2 0 0 1 9.5097656 6.6914062 A 2 2 0 0 1 9.6210938 6.8320312 A 2 2 0 0 1 9.6347656 6.8496094 A 2 2 0 0 1 9.703125 6.9550781 A 2 2 0 0 1 9.7050781 6.9550781 A 2 2 0 0 1 10 8 A 2 2 0 0 1 9.6972656 9.0527344 A 2 2 0 0 1 9.4609375 9.3632812 A 2 2 0 0 1 9.4511719 9.3730469 A 2 2 0 0 1 9.3183594 9.5019531 A 2 2 0 0 1 9.3085938 9.5097656 A 2 2 0 0 1 9.1601562 9.6269531 A 2 2 0 0 1 9.1503906 9.6347656 A 2 2 0 0 1 9.0449219 9.703125 A 2 2 0 0 1 8 10 A 2 2 0 0 1 6.9550781 9.703125 A 2 2 0 0 1 6.390625 9.1855469 A 2 2 0 0 1 6.3515625 9.1289062 A 2 2 0 0 1 6.2949219 9.0429688 A 2 2 0 0 1 6 8 A 2 2 0 0 1 6.296875 6.9570312 A 2 2 0 0 1 6.9550781 6.296875 A 2 2 0 0 1 8 6 z M 6.2636719 10.441406 A 3 3 0 0 0 8 11 A 3 3 0 0 0 9.7382812 10.443359 L 11.871094 12.576172 A 6 6 0 0 1 8 14 A 6 6 0 0 1 4.125 12.582031 L 6.2636719 10.441406 z "
       transform="translate(3,1033.3622)"
       id="path4172" />
  </g>
</svg>
