<?xml version="1.0" encoding="UTF-8" standalone="no"?>
<!-- Created with Inkscape (http://www.inkscape.org/) -->

<svg
   xmlns:dc="http://purl.org/dc/elements/1.1/"
   xmlns:cc="http://creativecommons.org/ns#"
   xmlns:rdf="http://www.w3.org/1999/02/22-rdf-syntax-ns#"
   xmlns:svg="http://www.w3.org/2000/svg"
   xmlns="http://www.w3.org/2000/svg"
   xmlns:sodipodi="http://sodipodi.sourceforge.net/DTD/sodipodi-0.dtd"
   xmlns:inkscape="http://www.inkscape.org/namespaces/inkscape"
   width="16"
   height="16"
   viewBox="0 0 16 16"
   id="svg2"
   version="1.1"
   inkscape:version="0.92.3 (unknown)"
   sodipodi:docname="love.svg">
  <defs
     id="defs3051">
    <style
       type="text/css"
       id="current-color-scheme">
    .ColorScheme-Text {
    color:#4d4d4d;
    }
    </style>
  </defs>
  <sodipodi:namedview
     id="base"
     pagecolor="#ffffff"
     bordercolor="#666666"
     borderopacity="1.0"
     inkscape:pageopacity="0.0"
     inkscape:pageshadow="2"
     inkscape:zoom="75.6875"
     inkscape:cx="8"
     inkscape:cy="8"
     inkscape:document-units="px"
     inkscape:current-layer="layer1"
     showgrid="true"
     units="px"
     inkscape:showpageshadow="false"
     borderlayer="true"
     showguides="true"
     inkscape:guide-bbox="true"
     inkscape:window-width="2560"
     inkscape:window-height="1378"
     inkscape:window-x="0"
     inkscape:window-y="32"
     inkscape:window-maximized="1"
     fit-margin-top="0"
     fit-margin-left="0"
     fit-margin-right="0"
     fit-margin-bottom="0">
    <inkscape:grid
       type="xygrid"
       id="grid4136"
       empspacing="2"
       originx="-3"
       originy="-3.0000174" />
    <sodipodi:guide
       position="0,14.999983"
       orientation="0,1"
       id="guide4140"
       inkscape:label="Icon Max Height"
       inkscape:color="rgb(233,30,99)"
       inkscape:locked="false" />
    <sodipodi:guide
       position="0,0.9999826"
       orientation="0,1"
       id="guide4142"
       inkscape:label="Icon Baseline"
       inkscape:color="rgb(233,30,99)"
       inkscape:locked="false" />
    <sodipodi:guide
       position="8,-1.74e-05"
       orientation="1,0"
       id="guide4144"
       inkscape:label="Center Vertical"
       inkscape:color="rgb(221,44,0)"
       inkscape:locked="false" />
    <sodipodi:guide
       position="16,7.9999826"
       orientation="0,1"
       id="guide4146"
       inkscape:label="Center Horizontal"
       inkscape:color="rgb(221,44,0)"
       inkscape:locked="false" />
  </sodipodi:namedview>
  <metadata
     id="metadata7">
    <rdf:RDF>
      <cc:Work
         rdf:about="">
        <dc:format>image/svg+xml</dc:format>
        <dc:type
           rdf:resource="http://purl.org/dc/dcmitype/StillImage" />
        <dc:title />
      </cc:Work>
    </rdf:RDF>
  </metadata>
  <g
     inkscape:label="Capa 1"
     inkscape:groupmode="layer"
     id="layer1"
     transform="translate(-3,-1033.3622)">
    <path
       style="fill:currentColor;fill-opacity:1;stroke:none" class="ColorScheme-Text"
       d="M 7.8914495,1035.3622 A 3.8916667,3.7496669 0 0 0 4,1039.1122 a 3.8916667,3.7496669 0 0 0 0.9909417,2.4941 c 0.00614,0.01 0.00494,0.015 0.011727,0.022 l 0.076226,0.074 a 3.8916667,3.7496669 0 0 0 0.052772,0.051 l 5.5977463,5.5 c 0.15198,0.1463 0.399193,0.1463 0.551174,0 l 5.543018,-5.4433 0.0059,-0.01 a 3.8916667,3.7496669 0 0 0 0.0215,-0.022 l 0.156361,-0.1523 c 0.0059,-0.01 0.0044,-0.016 0.0098,-0.02 a 3.8916667,3.7496669 0 0 0 0.992897,-2.4941 3.8916667,3.7496669 0 0 0 -3.89145,-3.75 3.8916667,3.7496669 0 0 0 -3.11355,1.5078 3.8916667,3.7496669 0 0 0 -3.11355,-1.5078 z m 6.1156935,1 c 1.334285,0 2.276899,0.8141 2.64642,1.5527 0.369523,0.7385 0.355723,1.4473 0.355723,1.4473 a 1.0008144,1.0001 0 1 1 -2.001429,0 c 0,0 -0.0138,-0.2912 -0.144634,-0.5527 -0.130837,-0.2615 -0.188937,-0.4473 -0.85608,-0.4473 a 1.0008144,1.0001 0 1 1 0,-2 z"
       id="path851"
       inkscape:connector-curvature="0" />
  </g>
</svg>
