<?xml version="1.0" encoding="UTF-8" standalone="no"?>
<!-- Created with Inkscape (http://www.inkscape.org/) -->

<svg
   width="16"
   height="16"
   viewBox="0 0 16 16"
   id="svg2"
   version="1.1"
   inkscape:version="1.4.4 (dcaf3e7d9e, 2026-05-05)"
   sodipodi:docname="object-flip-horizontal.svg"
   xmlns:inkscape="http://www.inkscape.org/namespaces/inkscape"
   xmlns:sodipodi="http://sodipodi.sourceforge.net/DTD/sodipodi-0.dtd"
   xmlns="http://www.w3.org/2000/svg"
   xmlns:svg="http://www.w3.org/2000/svg"
   xmlns:rdf="http://www.w3.org/1999/02/22-rdf-syntax-ns#"
   xmlns:cc="http://creativecommons.org/ns#"
   xmlns:dc="http://purl.org/dc/elements/1.1/">
  <defs
     id="defs3051">
    <style
       type="text/css"
       id="current-color-scheme">
    .ColorScheme-Text {
    color:#4d4d4d;
    }
    </style>
  </defs>
  <sodipodi:namedview
     id="base"
     pagecolor="#ffffff"
     bordercolor="#666666"
     borderopacity="1.0"
     inkscape:pageopacity="0.0"
     inkscape:pageshadow="2"
     inkscape:zoom="64"
     inkscape:cx="3.8203125"
     inkscape:cy="7.859375"
     inkscape:document-units="px"
     inkscape:current-layer="layer1"
     showgrid="true"
     units="px"
     inkscape:showpageshadow="false"
     borderlayer="true"
     showguides="true"
     inkscape:guide-bbox="true"
     inkscape:window-width="2542"
     inkscape:window-height="1360"
     inkscape:window-x="0"
     inkscape:window-y="0"
     inkscape:window-maximized="1"
     fit-margin-top="0"
     fit-margin-left="0"
     fit-margin-right="0"
     fit-margin-bottom="0"
     inkscape:pagecheckerboard="1"
     inkscape:deskcolor="#d1d1d1">
    <inkscape:grid
       type="xygrid"
       id="grid4136"
       empspacing="2"
       originx="-3"
       originy="-3.0000174"
       spacingy="1"
       spacingx="1"
       units="px" />
    <sodipodi:guide
       position="0,14.999983"
       orientation="0,1"
       id="guide4140"
       inkscape:label="Icon Max Height"
       inkscape:color="rgb(233,30,99)"
       inkscape:locked="false" />
    <sodipodi:guide
       position="0,0.9999826"
       orientation="0,1"
       id="guide4142"
       inkscape:label="Icon Baseline"
       inkscape:color="rgb(233,30,99)"
       inkscape:locked="false" />
    <sodipodi:guide
       position="8,-1.74e-05"
       orientation="1,0"
       id="guide4144"
       inkscape:label="Center Vertical"
       inkscape:color="rgb(221,44,0)"
       inkscape:locked="false" />
    <sodipodi:guide
       position="16,7.9999826"
       orientation="0,1"
       id="guide4146"
       inkscape:label="Center Horizontal"
       inkscape:color="rgb(221,44,0)"
       inkscape:locked="false" />
  </sodipodi:namedview>
  <metadata
     id="metadata7">
    <rdf:RDF>
      <cc:Work
         rdf:about="">
        <dc:format>image/svg+xml</dc:format>
        <dc:type
           rdf:resource="http://purl.org/dc/dcmitype/StillImage" />
        <dc:title />
      </cc:Work>
    </rdf:RDF>
  </metadata>
  <g
     inkscape:label="Capa 1"
     inkscape:groupmode="layer"
     id="layer1"
     transform="translate(-3,-1033.3622)">
    <path
       id="path1"
       style="fill:currentColor;fill-opacity:1;stroke:none"
       class="ColorScheme-Text"
       d="m 6.5097656,1034.3622 c -0.1268453,-0 -0.2574375,0.045 -0.3632812,0.1543 l -1.9746094,1.9707 -0.023437,0.019 c -0.024,0.023 -0.036688,0.053 -0.054687,0.08 -0.018,0.025 -0.037781,0.047 -0.050781,0.076 -0.02,0.047 -0.023203,0.097 -0.033203,0.1484 0,0 8.79e-5,0 0,0.01 -0.0023,0.014 -0.011719,0.027 -0.011719,0.043 0,0.019 0.011719,0.036 0.011719,0.055 0.01,0.051 0.013203,0.1018 0.033203,0.1485 0.014,0.032 0.036641,0.056 0.056641,0.084 0.017,0.024 0.027828,0.052 0.048828,0.072 l 0.023437,0.022 1.9746094,1.9688 C 6.4851844,1039.5587 7.074,1039.2679 7,1038.788 v -1.4238 h 2.4980469 c 0.2089,0 0.3859375,-0.1279 0.4609375,-0.3086 0.025,-0.058 0.038063,-0.1227 0.039063,-0.1895 v -0.01 c 0,-0.2759 -0.2233,-0.498 -0.5,-0.498 H 7 v -1.4238 c 0.050875,-0.3299 -0.2111746,-0.5714 -0.4902344,-0.5762 z m 8.9804684,0 c -0.279059,0 -0.541109,0.2462 -0.490234,0.5762 v 1.4238 h -2.498047 c -0.2767,0 -0.5,0.2221 -0.5,0.498 8e-4,0.067 0.01406,0.1316 0.03906,0.1895 0.075,0.1807 0.252037,0.3086 0.460937,0.3086 H 15 v 1.4238 c -0.074,0.4798 0.514816,0.7707 0.853516,0.4219 l 1.974609,-1.9688 0.02344,-0.021 c 0.021,-0.021 0.03183,-0.048 0.04883,-0.072 0.02,-0.028 0.04264,-0.053 0.05664,-0.084 0.02,-0.047 0.0282,-0.097 0.0332,-0.1484 0,-0.017 0.0097,-0.032 0.01172,-0.049 -2.5e-5,-10e-4 8.7e-5,-0 0,-0 v -0 c -0.0019,-0.015 -0.0099,-0.028 -0.01172,-0.043 -0.01,-0.051 -0.0132,-0.1017 -0.0332,-0.1484 -0.013,-0.029 -0.03278,-0.051 -0.05078,-0.076 -0.018,-0.027 -0.03069,-0.057 -0.05469,-0.08 l -0.02344,-0.019 -1.974609,-1.9707 c -0.105844,-0.109 -0.236436,-0.1565 -0.363282,-0.1543 z m -6.490234,5 -4,9 h 5 v -9 z m 3,0 v 9 h 5 l -4,-9 z"
       sodipodi:nodetypes="ccccccccsccccccccsccssccccccsccscccccccccccccccccccccccccccc" />
  </g>
</svg>
