<?xml version="1.0" encoding="UTF-8" standalone="no"?>
<!-- Created with Inkscape (http://www.inkscape.org/) -->

<svg
   xmlns:dc="http://purl.org/dc/elements/1.1/"
   xmlns:cc="http://creativecommons.org/ns#"
   xmlns:rdf="http://www.w3.org/1999/02/22-rdf-syntax-ns#"
   xmlns:svg="http://www.w3.org/2000/svg"
   xmlns="http://www.w3.org/2000/svg"
   xmlns:sodipodi="http://sodipodi.sourceforge.net/DTD/sodipodi-0.dtd"
   xmlns:inkscape="http://www.inkscape.org/namespaces/inkscape"
   width="16"
   height="16"
   viewBox="0 0 16 16"
   id="svg2"
   version="1.1"
   inkscape:version="0.92.3 (unknown)"
   sodipodi:docname="tab-close.svg">
  <defs
     id="defs3051">
    <style
       type="text/css"
       id="current-color-scheme">
    .ColorScheme-Text {
    color:#4d4d4d;
    }
    </style>
  </defs>
  <sodipodi:namedview
     id="base"
     pagecolor="#ffffff"
     bordercolor="#666666"
     borderopacity="1.0"
     inkscape:pageopacity="0.0"
     inkscape:pageshadow="2"
     inkscape:zoom="52.8125"
     inkscape:cx="13.181054"
     inkscape:cy="6.3195567"
     inkscape:document-units="px"
     inkscape:current-layer="layer1"
     showgrid="true"
     units="px"
     inkscape:showpageshadow="false"
     borderlayer="true"
     showguides="true"
     inkscape:guide-bbox="true"
     inkscape:window-width="2560"
     inkscape:window-height="1384"
     inkscape:window-x="0"
     inkscape:window-y="32"
     inkscape:window-maximized="1"
     fit-margin-top="0"
     fit-margin-left="0"
     fit-margin-right="0"
     fit-margin-bottom="0">
    <inkscape:grid
       type="xygrid"
       id="grid4136"
       empspacing="2"
       originx="-3"
       originy="-3.0000174" />
    <sodipodi:guide
       position="0,14.999983"
       orientation="0,1"
       id="guide4140"
       inkscape:label="Icon Max Height"
       inkscape:color="rgb(233,30,99)"
       inkscape:locked="false" />
    <sodipodi:guide
       position="0,0.9999826"
       orientation="0,1"
       id="guide4142"
       inkscape:label="Icon Baseline"
       inkscape:color="rgb(233,30,99)"
       inkscape:locked="false" />
    <sodipodi:guide
       position="8,-1.74e-05"
       orientation="1,0"
       id="guide4144"
       inkscape:label="Center Vertical"
       inkscape:color="rgb(221,44,0)"
       inkscape:locked="false" />
    <sodipodi:guide
       position="16,7.9999826"
       orientation="0,1"
       id="guide4146"
       inkscape:label="Center Horizontal"
       inkscape:color="rgb(221,44,0)"
       inkscape:locked="false" />
  </sodipodi:namedview>
  <metadata
     id="metadata7">
    <rdf:RDF>
      <cc:Work
         rdf:about="">
        <dc:format>image/svg+xml</dc:format>
        <dc:type
           rdf:resource="http://purl.org/dc/dcmitype/StillImage" />
        <dc:title />
      </cc:Work>
    </rdf:RDF>
  </metadata>
  <g
     inkscape:label="Capa 1"
     inkscape:groupmode="layer"
     id="layer1"
     transform="translate(-3,-1033.3622)">
    <path
       style="fill:currentColor;fill-opacity:1;stroke:none" class="ColorScheme-Text"
       d="M 3 2 C 1.8919807 2 1 2.8919807 1 4 L 1 12 C 1 13.108019 1.8919807 14 3 14 L 10 14 L 10 13 L 3 13 C 2.4459807 13 2 12.554019 2 12 L 2 5 L 3 3 L 7 3 L 8 5 L 14 5 L 14 9 L 15 9 L 15 4 C 15 2.8919807 14.108019 2 13 2 L 3 2 z M 13.5 3 C 13.776142 3 14 3.2238576 14 3.5 C 14 3.7761424 13.776142 4 13.5 4 C 13.223858 4 13 3.7761424 13 3.5 C 13 3.2238576 13.223858 3 13.5 3 z M 11.501953 11 C 11.057383 11 10.840034 11.544369 11.158203 11.855469 L 12.296875 12.996094 L 11.158203 14.136719 C 10.680917 14.606419 11.392867 15.320397 11.861328 14.841797 L 13 13.701172 L 14.138672 14.841797 C 14.607134 15.320397 15.319083 14.606419 14.841797 14.136719 L 13.703125 12.996094 L 14.841797 11.855469 C 15.165701 11.539069 14.934627 10.9877 14.482422 11 C 14.352966 11 14.229066 11.057191 14.138672 11.150391 L 13 12.292969 L 11.861328 11.150391 C 11.767138 11.053391 11.63683 10.9993 11.501953 11 z "
       transform="translate(3,1033.3622)"
       id="rect3198" />
  </g>
</svg>
