<?xml version="1.0" encoding="UTF-8" standalone="no"?>
<!-- Created with Inkscape (http://www.inkscape.org/) -->

<svg
   xmlns:dc="http://purl.org/dc/elements/1.1/"
   xmlns:cc="http://creativecommons.org/ns#"
   xmlns:rdf="http://www.w3.org/1999/02/22-rdf-syntax-ns#"
   xmlns:svg="http://www.w3.org/2000/svg"
   xmlns="http://www.w3.org/2000/svg"
   xmlns:sodipodi="http://sodipodi.sourceforge.net/DTD/sodipodi-0.dtd"
   xmlns:inkscape="http://www.inkscape.org/namespaces/inkscape"
   width="16"
   height="16"
   viewBox="0 0 16 16"
   id="svg2"
   version="1.1"
   inkscape:version="0.92.3 (2405546, 2018-03-11)"
   sodipodi:docname="view-barcode.svg">
  <defs
     id="defs3051">
    <style
       type="text/css"
       id="current-color-scheme">
    .ColorScheme-Text {
    color:#4d4d4d;
    }
    </style>
  </defs>
  <sodipodi:namedview
     id="base"
     pagecolor="#ffffff"
     bordercolor="#666666"
     borderopacity="1.0"
     inkscape:pageopacity="0.0"
     inkscape:pageshadow="2"
     inkscape:zoom="64"
     inkscape:cx="9.3661742"
     inkscape:cy="7.841587"
     inkscape:document-units="px"
     inkscape:current-layer="layer1"
     showgrid="true"
     units="px"
     inkscape:showpageshadow="false"
     borderlayer="true"
     showguides="true"
     inkscape:guide-bbox="true"
     inkscape:window-width="2560"
     inkscape:window-height="1370"
     inkscape:window-x="0"
     inkscape:window-y="33"
     inkscape:window-maximized="1"
     fit-margin-top="0"
     fit-margin-left="0"
     fit-margin-right="0"
     fit-margin-bottom="0">
    <inkscape:grid
       type="xygrid"
       id="grid4136"
       empspacing="2"
       originx="-3"
       originy="-3.0000174" />
    <sodipodi:guide
       position="0,14.999983"
       orientation="0,1"
       id="guide4140"
       inkscape:label="Icon Max Height"
       inkscape:color="rgb(233,30,99)"
       inkscape:locked="false" />
    <sodipodi:guide
       position="0,0.9999826"
       orientation="0,1"
       id="guide4142"
       inkscape:label="Icon Baseline"
       inkscape:color="rgb(233,30,99)"
       inkscape:locked="false" />
    <sodipodi:guide
       position="8,-1.74e-05"
       orientation="1,0"
       id="guide4144"
       inkscape:label="Center Vertical"
       inkscape:color="rgb(221,44,0)"
       inkscape:locked="false" />
    <sodipodi:guide
       position="16,7.9999826"
       orientation="0,1"
       id="guide4146"
       inkscape:label="Center Horizontal"
       inkscape:color="rgb(221,44,0)"
       inkscape:locked="false" />
  </sodipodi:namedview>
  <metadata
     id="metadata7">
    <rdf:RDF>
      <cc:Work
         rdf:about="">
        <dc:format>image/svg+xml</dc:format>
        <dc:type
           rdf:resource="http://purl.org/dc/dcmitype/StillImage" />
        <dc:title />
      </cc:Work>
    </rdf:RDF>
  </metadata>
  <g
     inkscape:label="Capa 1"
     inkscape:groupmode="layer"
     id="layer1"
     transform="translate(-3,-1033.3622)">
    <path
       style="fill:currentColor;fill-opacity:1;stroke:none" class="ColorScheme-Text"
       d="M 1 1 L 1 5 L 5 5 L 5 6 L 4 6 L 4 7 L 3 7 L 3 6 L 2 6 L 1 6 L 1 8 L 2 8 L 2 9 L 3 9 L 3 10 L 2 10 L 2 11 L 1 11 L 1 15 L 5 15 L 5 11 L 6 11 L 6 14 L 6 15 L 7 15 L 7 14 L 9 14 L 10 14 L 10 13 L 9 13 L 9 11 L 8 11 L 8 10 L 5 10 L 5 7 L 6 7 L 6 8 L 8 8 L 8 6 L 6 6 L 6 4 L 5 4 L 5 1 L 1 1 z M 6 4 L 8 4 L 9 4 L 9 3 L 8 3 L 8 2 L 6 2 L 6 4 z M 9 3 L 10 3 L 10 1 L 9 1 L 9 3 z M 9 4 L 9 5 L 8 5 L 8 6 L 9 6 L 11 6 L 11 5 L 15 5 L 15 1 L 11 1 L 11 4 L 9 4 z M 11 6 L 11 9 L 10 9 L 10 8 L 8 8 L 8 10 L 10 10 L 10 11 L 11 11 L 11 15 L 15 15 L 15 11 L 14 11 L 14 8 L 15 8 L 15 7 L 14 7 L 14 6 L 13 6 L 11 6 z M 2 2 L 4 2 L 4 4 L 2 4 L 2 2 z M 12 2 L 14 2 L 14 4 L 12 4 L 12 2 z M 12 9 L 13 9 L 13 11 L 12 11 L 12 9 z M 2 12 L 4 12 L 4 14 L 2 14 L 2 12 z M 12 12 L 14 12 L 14 14 L 12 14 L 12 12 z "
       transform="translate(3,1033.3622)"
       id="rect824" />
  </g>
</svg>
