<?xml version="1.0" encoding="UTF-8" standalone="no"?>
<!-- Created with Inkscape (http://www.inkscape.org/) -->

<svg
   width="16"
   height="16"
   viewBox="0 0 16 16"
   id="svg2"
   version="1.1"
   inkscape:version="1.4.4 (dcaf3e7d9e, 2026-05-05)"
   sodipodi:docname="view-split-left-right.svg"
   xmlns:inkscape="http://www.inkscape.org/namespaces/inkscape"
   xmlns:sodipodi="http://sodipodi.sourceforge.net/DTD/sodipodi-0.dtd"
   xmlns="http://www.w3.org/2000/svg"
   xmlns:svg="http://www.w3.org/2000/svg"
   xmlns:rdf="http://www.w3.org/1999/02/22-rdf-syntax-ns#"
   xmlns:cc="http://creativecommons.org/ns#"
   xmlns:dc="http://purl.org/dc/elements/1.1/">
  <defs
     id="defs3051">
    <style
       type="text/css"
       id="current-color-scheme">
    .ColorScheme-Text {
    color:#4d4d4d;
    }
    </style>
  </defs>
  <sodipodi:namedview
     id="base"
     pagecolor="#ffffff"
     bordercolor="#666666"
     borderopacity="1.0"
     inkscape:pageopacity="0.0"
     inkscape:pageshadow="2"
     inkscape:zoom="52.546873"
     inkscape:cx="1.0752305"
     inkscape:cy="7.0127865"
     inkscape:document-units="px"
     inkscape:current-layer="layer1"
     showgrid="true"
     units="px"
     inkscape:showpageshadow="false"
     borderlayer="true"
     showguides="true"
     inkscape:guide-bbox="true"
     inkscape:window-width="2542"
     inkscape:window-height="1365"
     inkscape:window-x="0"
     inkscape:window-y="0"
     inkscape:window-maximized="1"
     fit-margin-top="0"
     fit-margin-left="0"
     fit-margin-right="0"
     fit-margin-bottom="0"
     inkscape:pagecheckerboard="1"
     inkscape:deskcolor="#d1d1d1">
    <inkscape:grid
       type="xygrid"
       id="grid4136"
       empspacing="2"
       originx="-3"
       originy="-3.0000174"
       spacingy="1"
       spacingx="1"
       units="px" />
    <sodipodi:guide
       position="0,14.999983"
       orientation="0,1"
       id="guide4140"
       inkscape:label="Icon Max Height"
       inkscape:color="rgb(233,30,99)"
       inkscape:locked="false" />
    <sodipodi:guide
       position="0,0.9999826"
       orientation="0,1"
       id="guide4142"
       inkscape:label="Icon Baseline"
       inkscape:color="rgb(233,30,99)"
       inkscape:locked="false" />
    <sodipodi:guide
       position="8,-1.74e-05"
       orientation="1,0"
       id="guide4144"
       inkscape:label="Center Vertical"
       inkscape:color="rgb(221,44,0)"
       inkscape:locked="false" />
    <sodipodi:guide
       position="16,7.9999826"
       orientation="0,1"
       id="guide4146"
       inkscape:label="Center Horizontal"
       inkscape:color="rgb(221,44,0)"
       inkscape:locked="false" />
  </sodipodi:namedview>
  <metadata
     id="metadata7">
    <rdf:RDF>
      <cc:Work
         rdf:about="">
        <dc:format>image/svg+xml</dc:format>
        <dc:type
           rdf:resource="http://purl.org/dc/dcmitype/StillImage" />
        <dc:title />
      </cc:Work>
    </rdf:RDF>
  </metadata>
  <g
     inkscape:label="Capa 1"
     inkscape:groupmode="layer"
     id="layer1"
     transform="translate(-3,-1033.3622)">
    <path
       id="rect4140"
       style="fill:currentColor;fill-opacity:1;stroke:none"
       class="ColorScheme-Text"
       d="M 3 2 C 1.8954305 2 1 2.8954305 1 4 L 1 12 C 1 13.104569 1.8954305 14 3 14 L 13 14 C 14.104569 14 15 13.104569 15 12 L 15 4 C 15 2.8954305 14.104569 2 13 2 L 3 2 z M 13.5 3 C 13.776142 3 14 3.2238576 14 3.5 C 14 3.7761424 13.776142 4 13.5 4 C 13.223858 4 13 3.7761424 13 3.5 C 13 3.2238576 13.223858 3 13.5 3 z M 2 5 L 5 5 L 5 12 L 5 13 L 4 13 L 3 13 C 2.445981 13.00001 2 12.554 2 12 L 2 5 z M 6 5 L 10 5 L 10 13 L 6 13 L 6 12 L 6 5 z M 11 5 L 14 5 L 14 12 C 14 12.554 13.554019 13 13 13 L 11 13 L 11 5 z "
       transform="translate(3,1033.3622)" />
    <path
       id="rect1"
       style="fill:currentColor;fill-opacity:0.5;stroke:none;stroke-width:0.816497"
       class="ColorScheme-Text"
       d="M 6 1039.3622 L 6 1045.3622 L 7 1045.3622 L 7 1039.3622 L 6 1039.3622 z M 10 1039.3622 L 10 1045.3622 L 12 1045.3622 L 12 1039.3622 L 10 1039.3622 z M 15 1039.3622 L 15 1045.3622 L 16 1045.3622 L 16 1039.3622 L 15 1039.3622 z " />
  </g>
</svg>
