<?xml version="1.0" encoding="UTF-8" standalone="no"?>
<!-- Created with Inkscape (http://www.inkscape.org/) -->

<svg
   xmlns:dc="http://purl.org/dc/elements/1.1/"
   xmlns:cc="http://creativecommons.org/ns#"
   xmlns:rdf="http://www.w3.org/1999/02/22-rdf-syntax-ns#"
   xmlns:svg="http://www.w3.org/2000/svg"
   xmlns="http://www.w3.org/2000/svg"
   xmlns:sodipodi="http://sodipodi.sourceforge.net/DTD/sodipodi-0.dtd"
   xmlns:inkscape="http://www.inkscape.org/namespaces/inkscape"
   width="16"
   height="16"
   viewBox="0 0 16 16"
   id="svg2"
   version="1.1"
   inkscape:version="0.91 r13725"
   sodipodi:docname="folder-music.svg">
<defs
    id="defs3051">
<style
    type="text/css"
    id="current-color-scheme">
    .ColorScheme-Text {
    color:#4d4d4d;
    }
    </style>
</defs>
  <sodipodi:namedview
     id="base"
     pagecolor="#ffffff"
     bordercolor="#666666"
     borderopacity="1.0"
     inkscape:pageopacity="0.0"
     inkscape:pageshadow="2"
     inkscape:zoom="90.509668"
     inkscape:cx="12.879827"
     inkscape:cy="11.177254"
     inkscape:document-units="px"
     inkscape:current-layer="layer1"
     showgrid="true"
     units="px"
     inkscape:showpageshadow="false"
     borderlayer="true"
     showguides="true"
     inkscape:guide-bbox="true"
     inkscape:window-width="2560"
     inkscape:window-height="1015"
     inkscape:window-x="0"
     inkscape:window-y="0"
     inkscape:window-maximized="1"
     fit-margin-top="0"
     fit-margin-left="0"
     fit-margin-right="0"
     fit-margin-bottom="0">
    <inkscape:grid
       type="xygrid"
       id="grid4136"
       empspacing="2"
       originx="-3"
       originy="-3.0000174" />
    <sodipodi:guide
       position="0,14.999983"
       orientation="0,1"
       id="guide4140"
       inkscape:label="Icon Max Height"
       inkscape:color="rgb(233,30,99)" />
    <sodipodi:guide
       position="0,0.9999826"
       orientation="0,1"
       id="guide4142"
       inkscape:label="Icon Baseline"
       inkscape:color="rgb(233,30,99)" />
    <sodipodi:guide
       position="8,-1.74e-05"
       orientation="1,0"
       id="guide4144"
       inkscape:label="Center Vertical"
       inkscape:color="rgb(221,44,0)" />
    <sodipodi:guide
       position="17,7.9999826"
       orientation="0,1"
       id="guide4146"
       inkscape:label="Center Horizontal"
       inkscape:color="rgb(221,44,0)" />
  </sodipodi:namedview>
  <metadata
     id="metadata7">
    <rdf:RDF>
      <cc:Work
         rdf:about="">
        <dc:format>image/svg+xml</dc:format>
        <dc:type
           rdf:resource="http://purl.org/dc/dcmitype/StillImage" />
        <dc:title />
      </cc:Work>
    </rdf:RDF>
  </metadata>
  <g
     inkscape:label="Capa 1"
     inkscape:groupmode="layer"
     id="layer1"
     transform="translate(-3,-1033.3622)">
    <path
       style="fill:currentColor;fill-opacity:1;stroke:none" class="ColorScheme-Text"
       d="M 13.511719 2 A 0.50005 0.50005 0 0 0 13.378906 2.015625 L 5.3789062 4.015625 A 0.50022978 0.50022978 0 0 0 5 4.4882812 A 0.50022978 0.50022978 0 0 0 5 4.5 L 5 7.3828125 L 5 7.6289062 L 5 11.271484 A 2 2 0 0 0 4 11 A 2 2 0 0 0 2 13 A 2 2 0 0 0 4 15 A 2 2 0 0 0 6 13 L 6 7.8847656 L 13 6.046875 L 13 9.2714844 A 2 2 0 0 0 12 9 A 2 2 0 0 0 10 11 A 2 2 0 0 0 12 13 A 2 2 0 0 0 14 11 L 14 5.4941406 L 14 5.2949219 L 14 2.5683594 L 14 2.5 L 14 2.4355469 A 0.50005 0.50005 0 0 0 13.511719 2 z M 13 3.140625 L 13 5.0136719 L 6 6.8515625 L 6 4.890625 L 13 3.140625 z M 12 10 A 1.0000025 1.0000025 0 0 1 13 11 A 1.0000025 1.0000025 0 0 1 12 12 A 1.0000025 1.0000025 0 0 1 11 11 A 1.0000025 1.0000025 0 0 1 12 10 z M 4 12 A 1.0000025 1.0000025 0 0 1 5 13 A 1.0000025 1.0000025 0 0 1 4 14 A 1.0000025 1.0000025 0 0 1 3 13 A 1.0000025 1.0000025 0 0 1 4 12 z "
       transform="translate(3,1033.3622)"
       id="rect3198" />
  </g>
</svg>
