<?xml version="1.0" encoding="UTF-8" standalone="no"?>
<!-- Created with Inkscape (http://www.inkscape.org/) -->

<svg
   xmlns:dc="http://purl.org/dc/elements/1.1/"
   xmlns:cc="http://creativecommons.org/ns#"
   xmlns:rdf="http://www.w3.org/1999/02/22-rdf-syntax-ns#"
   xmlns:svg="http://www.w3.org/2000/svg"
   xmlns="http://www.w3.org/2000/svg"
   xmlns:sodipodi="http://sodipodi.sourceforge.net/DTD/sodipodi-0.dtd"
   xmlns:inkscape="http://www.inkscape.org/namespaces/inkscape"
   width="16"
   height="16"
   viewBox="0 0 16 16"
   id="svg2"
   version="1.1"
   inkscape:version="0.92.3 (2405546, 2018-03-11)"
   sodipodi:docname="view-side-tree.svg">
  <defs
     id="defs3051">
    <style
       type="text/css"
       id="current-color-scheme">
    .ColorScheme-Text {
    color:#4d4d4d;
    }
    </style>
  </defs>
  <sodipodi:namedview
     id="base"
     pagecolor="#ffffff"
     bordercolor="#666666"
     borderopacity="1.0"
     inkscape:pageopacity="0.0"
     inkscape:pageshadow="2"
     inkscape:zoom="64"
     inkscape:cx="10.361309"
     inkscape:cy="7.438704"
     inkscape:document-units="px"
     inkscape:current-layer="layer1"
     showgrid="true"
     units="px"
     inkscape:showpageshadow="false"
     borderlayer="true"
     showguides="true"
     inkscape:guide-bbox="true"
     inkscape:window-width="2560"
     inkscape:window-height="1370"
     inkscape:window-x="0"
     inkscape:window-y="33"
     inkscape:window-maximized="1"
     fit-margin-top="0"
     fit-margin-left="0"
     fit-margin-right="0"
     fit-margin-bottom="0">
    <inkscape:grid
       type="xygrid"
       id="grid4136"
       empspacing="2"
       originx="-3"
       originy="-3.0000174" />
    <sodipodi:guide
       position="0,14.999983"
       orientation="0,1"
       id="guide4140"
       inkscape:label="Icon Max Height"
       inkscape:color="rgb(233,30,99)"
       inkscape:locked="false" />
    <sodipodi:guide
       position="0,0.9999826"
       orientation="0,1"
       id="guide4142"
       inkscape:label="Icon Baseline"
       inkscape:color="rgb(233,30,99)"
       inkscape:locked="false" />
    <sodipodi:guide
       position="8,-1.74e-05"
       orientation="1,0"
       id="guide4144"
       inkscape:label="Center Vertical"
       inkscape:color="rgb(221,44,0)"
       inkscape:locked="false" />
    <sodipodi:guide
       position="16,7.9999826"
       orientation="0,1"
       id="guide4146"
       inkscape:label="Center Horizontal"
       inkscape:color="rgb(221,44,0)"
       inkscape:locked="false" />
  </sodipodi:namedview>
  <metadata
     id="metadata7">
    <rdf:RDF>
      <cc:Work
         rdf:about="">
        <dc:format>image/svg+xml</dc:format>
        <dc:type
           rdf:resource="http://purl.org/dc/dcmitype/StillImage" />
        <dc:title />
      </cc:Work>
    </rdf:RDF>
  </metadata>
  <g
     inkscape:label="Capa 1"
     inkscape:groupmode="layer"
     id="layer1"
     transform="translate(-3,-1033.3622)">
    <path
       style="fill:currentColor;fill-opacity:1;stroke:none" class="ColorScheme-Text"
       d="M 3 1 C 1.8919807 1 1 1.8919807 1 3 L 1 13 C 1 14.108019 1.8919807 15 3 15 L 6 15 C 7.1080193 15 8 14.108019 8 13 L 8 3 C 8 1.8919807 7.1080193 1 6 1 L 3 1 z M 11 1 C 9.891981 1 9 1.892 9 3 L 9 5 C 9 6.108 9.891981 7 11 7 L 13 7 C 14.108019 7 15 6.108 15 5 L 15 3 C 15 1.892 14.108019 1 13 1 L 11 1 z M 3 2 L 6 2 C 6.5540193 2 7 2.4459807 7 3 L 7 13 C 7 13.554019 6.5540193 14 6 14 L 3 14 C 2.4459807 14 2 13.554019 2 13 L 2 3 C 2 2.4459807 2.4459807 2 3 2 z M 11 2 L 13 2 C 13.554019 2 14 2.446 14 3 L 14 5 C 14 5.554 13.554019 6 13 6 L 11 6 C 10.445981 6 10 5.554 10 5 L 10 3 C 10 2.446 10.445981 2 11 2 z M 11 9 C 9.891981 9 9 9.892 9 11 L 9 13 C 9 14.108 9.891981 15 11 15 L 13 15 C 14.108019 15 15 14.108 15 13 L 15 11 C 15 9.892 14.108019 9 13 9 L 11 9 z M 11 10 L 13 10 C 13.554019 10 14 10.446 14 11 L 14 13 C 14 13.554 13.554019 14 13 14 L 11 14 C 10.445981 14 10 13.554 10 13 L 10 11 C 10 10.446 10.445981 10 11 10 z "
       transform="translate(3,1033.3622)"
       id="path826" />
  </g>
</svg>
