<?xml version="1.0" encoding="UTF-8" standalone="no"?>
<!-- Created using Karbon, part of Calligra: http://www.calligra.org/karbon -->

<svg
   xmlns:dc="http://purl.org/dc/elements/1.1/"
   xmlns:cc="http://creativecommons.org/ns#"
   xmlns:rdf="http://www.w3.org/1999/02/22-rdf-syntax-ns#"
   xmlns:svg="http://www.w3.org/2000/svg"
   xmlns="http://www.w3.org/2000/svg"
   xmlns:xlink="http://www.w3.org/1999/xlink"
   xmlns:sodipodi="http://sodipodi.sourceforge.net/DTD/sodipodi-0.dtd"
   xmlns:inkscape="http://www.inkscape.org/namespaces/inkscape"
   width="48"
   height="48"
   id="svg2"
   version="1.1"
   inkscape:version="0.91 r13725"
   sodipodi:docname="cutemarked.svg">
  <metadata
     id="metadata12">
    <rdf:RDF>
      <cc:Work
         rdf:about="">
        <dc:format>image/svg+xml</dc:format>
        <dc:type
           rdf:resource="http://purl.org/dc/dcmitype/StillImage" />
        <dc:title />
      </cc:Work>
    </rdf:RDF>
  </metadata>
  <sodipodi:namedview
     pagecolor="#ffffff"
     bordercolor="#666666"
     borderopacity="1"
     objecttolerance="10"
     gridtolerance="10000"
     guidetolerance="10"
     inkscape:pageopacity="0"
     inkscape:pageshadow="2"
     inkscape:window-width="2560"
     inkscape:window-height="959"
     id="namedview10"
     showgrid="true"
     inkscape:showpageshadow="false"
     borderlayer="true"
     fit-margin-top="0"
     fit-margin-left="0"
     fit-margin-right="0"
     fit-margin-bottom="0"
     inkscape:zoom="22.804194"
     inkscape:cx="12.908929"
     inkscape:cy="26.810884"
     inkscape:window-x="0"
     inkscape:window-y="34"
     inkscape:window-maximized="1"
     inkscape:current-layer="layer1"
     showguides="true">
    <inkscape:grid
       type="xygrid"
       id="grid4141"
       originx="20px"
       originy="0px" />
    <sodipodi:guide
       position="0,48"
       orientation="48,0"
       id="guide4147" />
    <sodipodi:guide
       position="48,0"
       orientation="-48,0"
       id="guide4151" />
    <sodipodi:guide
       position="48,48"
       orientation="0,-48"
       id="guide4153" />
    <sodipodi:guide
       position="4,37"
       orientation="40,0"
       id="guide4219" />
    <sodipodi:guide
       position="6.9999962,3.999959"
       orientation="0,34"
       id="guide4221" />
    <sodipodi:guide
       position="44,32"
       orientation="-29,0"
       id="guide4223" />
    <sodipodi:guide
       position="29.999996,43.999958"
       orientation="0,-23"
       id="guide4227" />
  </sodipodi:namedview>
  <defs
     id="defs4">
    <linearGradient
       inkscape:collect="always"
       id="Shadow">
      <stop
         style="stop-color:#000000;stop-opacity:1;"
         offset="0"
         id="stop4186" />
      <stop
         style="stop-color:#000000;stop-opacity:0;"
         offset="1"
         id="stop4188" />
    </linearGradient>
    <linearGradient
       inkscape:collect="always"
       xlink:href="#Shadow"
       id="linearGradient4190"
       x1="24"
       y1="42"
       x2="24"
       y2="46"
       gradientUnits="userSpaceOnUse" />
    <radialGradient
       inkscape:collect="always"
       xlink:href="#Shadow"
       id="radialGradient4200"
       cx="44"
       cy="42.500004"
       fx="44"
       fy="42.500004"
       r="1.5"
       gradientTransform="matrix(-5.6193702e-6,2.666668,-2.0000002,-4.214526e-6,121.00027,-75.333217)"
       gradientUnits="userSpaceOnUse" />
    <radialGradient
       inkscape:collect="always"
       xlink:href="#Shadow"
       id="radialGradient4208"
       cx="4"
       cy="42.5"
       fx="4"
       fy="42.5"
       r="1.5"
       gradientTransform="matrix(-2.0000003,-2.935184e-6,3.9135795e-6,-2.6666677,19.999835,155.33339)"
       gradientUnits="userSpaceOnUse" />
    <linearGradient
       inkscape:collect="always"
       id="linearGradient4181">
      <stop
         style="stop-color:#000000;stop-opacity:0.19607843"
         offset="0"
         id="stop4183" />
      <stop
         id="stop4182"
         offset="0.09090424"
         style="stop-color:#000000;stop-opacity:0" />
      <stop
         id="stop4180"
         offset="0.72726786"
         style="stop-color:#000000;stop-opacity:0.19607843;" />
      <stop
         id="stop4191"
         offset="0.81817698"
         style="stop-color:#000000;stop-opacity:0" />
      <stop
         id="stop4189"
         offset="0.81847018"
         style="stop-color:#000000;stop-opacity:0.30980393" />
      <stop
         style="stop-color:#000000;stop-opacity:0;"
         offset="1"
         id="stop4185" />
    </linearGradient>
    <linearGradient
       gradientTransform="translate(-12,-1071.5228)"
       inkscape:collect="always"
       xlink:href="#linearGradient4181"
       id="linearGradient4187-7"
       x1="40"
       y1="1102.5197"
       x2="40"
       y2="1113.5197"
       gradientUnits="userSpaceOnUse" />
  </defs>
  <g
     inkscape:groupmode="layer"
     id="layer1"
     inkscape:label="Layer 1">
    <path
       style="opacity:0.7;fill:url(#radialGradient4200);fill-opacity:1;stroke:none;stroke-width:2;stroke-linecap:butt;stroke-linejoin:round;stroke-miterlimit:4;stroke-dasharray:none;stroke-opacity:1"
       d="m 36,42 0,4 1,0 c 1.108,0 2,-0.892 2,-2 l 0,-2 -3,0 z"
       id="path4174"
       inkscape:connector-curvature="0" />
    <path
       style="opacity:0.7;fill:url(#linearGradient4190);fill-opacity:1;stroke:none;stroke-width:2;stroke-linecap:butt;stroke-linejoin:round;stroke-miterlimit:4;stroke-dasharray:none;stroke-opacity:1"
       d="m 12,42 0,4 24,0 0,-4 z"
       id="path4169"
       inkscape:connector-curvature="0"
       sodipodi:nodetypes="ccccc" />
    <path
       style="opacity:0.7;fill:url(#radialGradient4208);fill-opacity:1;stroke:none;stroke-width:2;stroke-linecap:butt;stroke-linejoin:round;stroke-miterlimit:4;stroke-dasharray:none;stroke-opacity:1"
       d="m 9,42 0,2 c 0,1.108 0.892,2 2,2 l 1,0 0,-4 -3,0 z"
       id="rect4157"
       inkscape:connector-curvature="0" />
    <rect
       style="opacity:1;fill:#9e9e9e;fill-opacity:1;stroke:none;stroke-width:2;stroke-linecap:butt;stroke-linejoin:round;stroke-miterlimit:4;stroke-dasharray:none;stroke-opacity:1"
       id="rect4272"
       width="29.999996"
       height="38.000061"
       x="9"
       y="6"
       ry="2.9189136" />
    <path
       style="opacity:1;fill:#eeeeee;fill-opacity:1;stroke:none;stroke-width:2;stroke-linecap:butt;stroke-linejoin:round;stroke-miterlimit:4;stroke-dasharray:none;stroke-opacity:1"
       d="m 38,19 -28,0 0,22 c 0,1.108 0.892,2 2,2 l 24,0 c 1.108,0 2,-0.892 2,-2 z"
       id="path4291"
       inkscape:connector-curvature="0"
       sodipodi:nodetypes="ccssssc" />
    <path
       style="opacity:1;fill:#f5f5f5;fill-opacity:1;stroke:none;stroke-width:1;stroke-linecap:round;stroke-linejoin:round;stroke-miterlimit:4;stroke-dasharray:none;stroke-opacity:1"
       d="M 11 20 L 11 21 L 11 41 C 11 41.554 11.446 42 12 42 L 36 42 C 36.554 42 37 41.554 37 41 L 37 21 L 37 20 L 36 20 L 12 20 L 11 20 z "
       id="rect4344" />
    <path
       style="opacity:1;fill:#bdbdbd;fill-opacity:1;stroke:none;stroke-width:2;stroke-linecap:butt;stroke-linejoin:round;stroke-miterlimit:4;stroke-dasharray:none;stroke-opacity:1"
       d="m 12,7.0000042 c -1.108,0 -2,0.8920001 -2,2.0000008 l 0,3 28,0 0,-3 C 38,7.8920043 37.108,7.0000042 36,7.0000042 l -24,0 z"
       id="rect4282"
       inkscape:connector-curvature="0" />
    <circle
       style="opacity:1;fill:#ef5350;fill-opacity:1;stroke:none;stroke-width:2;stroke-linecap:butt;stroke-linejoin:round;stroke-miterlimit:4;stroke-dasharray:none;stroke-opacity:1"
       id="path4284"
       cx="35.5"
       cy="9.4999981"
       r="1.5" />
    <ellipse
       cy="9.4999981"
       cx="35.5"
       id="circle4286"
       style="opacity:1;fill:#ef9a9a;fill-opacity:1;stroke:none;stroke-width:2;stroke-linecap:butt;stroke-linejoin:round;stroke-miterlimit:4;stroke-dasharray:none;stroke-opacity:1"
       rx="0.5"
       ry="0.49999997" />
    <rect
       style="opacity:1;fill:#9e9e9e;fill-opacity:1;stroke:none;stroke-width:2;stroke-linecap:butt;stroke-linejoin:round;stroke-miterlimit:4;stroke-dasharray:none;stroke-opacity:1"
       id="rect4293"
       width="30"
       height="0.99999994"
       x="9"
       y="12"
       ry="0" />
    <rect
       style="opacity:1;fill:#e0e0e0;fill-opacity:1;stroke:none;stroke-width:2;stroke-linecap:butt;stroke-linejoin:round;stroke-miterlimit:4;stroke-dasharray:none;stroke-opacity:1"
       id="rect4295"
       width="28"
       height="5"
       x="10"
       y="13" />
    <rect
       style="opacity:1;fill:#bdbdbd;fill-opacity:1;stroke:none;stroke-width:2;stroke-linecap:butt;stroke-linejoin:round;stroke-miterlimit:4;stroke-dasharray:none;stroke-opacity:1"
       id="rect4297"
       width="28"
       height="0.99999994"
       x="10"
       y="17.999998" />
    <path
       style="opacity:1;fill:#616161;fill-opacity:1;stroke:none;stroke-width:2;stroke-linecap:butt;stroke-linejoin:round;stroke-miterlimit:4;stroke-dasharray:none;stroke-opacity:1"
       d="m 11,14 0,3 1,0 c 0.554,0 1,-0.446 1,-1 0,-0.554 -0.446,-1 -1,-1 l 0,0 c 0.277,0 0.5,-0.223 0.5,-0.5 C 12.5,14.223 12.277,14 12,14 Z m 3,0 0,1.5 c 0,0.831 0.669,1.5 1.5,1.5 0.831,0 1.5,-0.669 1.5,-1.5 l 0,-1.5 -1,0 0,1.5 C 16,15.777 15.777,16 15.5,16 15.223,16 15,15.777 15,15.5 L 15,14 Z m 4,0 0,1 1.166016,0 -0.332032,1 L 18,16 l 0,1 3,0 0,-1 -1.166016,0 0.332032,-1 L 21,15 21,14 Z"
       id="rect4326"
       inkscape:connector-curvature="0"
       sodipodi:nodetypes="ccssscssccsssccsssccccccccccccccc" />
    <path
       id="rect4349-7"
       d="m 26,13.452725 a 2.5,2.5 0 0 0 -2,2.447266 2.5,2.5 0 0 0 0.0039,0.08398 c -8.4e-5,0.0056 -0.0039,0.01004 -0.0039,0.01563 0,0.554 0.446,1 1,1 0.554,0 1,-0.446 1,-1 0,-0.459847 -0.313103,-0.829536 -0.734375,-0.947266 A 1.5,1.5 0 0 1 26,14.487882 l 0,-1.035156 z"
       style="opacity:1;fill:#616161;fill-opacity:1;stroke:none;stroke-width:2;stroke-linecap:round;stroke-linejoin:round;stroke-miterlimit:4;stroke-dasharray:none;stroke-opacity:1"
       inkscape:connector-curvature="0" />
    <path
       inkscape:connector-curvature="0"
       style="opacity:1;fill:#616161;fill-opacity:1;stroke:none;stroke-width:2;stroke-linecap:round;stroke-linejoin:round;stroke-miterlimit:4;stroke-dasharray:none;stroke-opacity:1"
       d="M 28,13.4527 A 2.5,2.5 0 0 0 26,15.9 2.5,2.5 0 0 0 26.0039,15.984 C 26.00381,15.994 26,15.994 26,16 c 0,0.554 0.446,1 1,1 0.554,0 1,-0.446 1,-1 0,-0.4598 -0.313103,-0.8295 -0.734375,-0.9473 A 1.5,1.5 0 0 1 28,14.4879 l 0,-1.0352 z"
       id="path4360-6" />
    <path
       id="rect4367-1"
       d="m 30.5,13.9996 c -0.830985,0 -1.5,0.669 -1.5,1.5 0,0.831 0.669015,1.5 1.5,1.5 l 1,0 c 0.830985,0 1.5,-0.669 1.5,-1.5 0,-0.831 -0.669015,-1.5 -1.5,-1.5 l -1,0 z m 0,1 0.5,0 -0.853516,0.853516 C 30.056109,15.762741 30,15.6381 30,15.4996 c 0,-0.277 0.223,-0.5 0.5,-0.5 z m 1.353516,0.146484 C 31.943886,15.236454 32,15.3611 32,15.4996 c 0,0.277 -0.223,0.5 -0.5,0.5 l -0.5,0 0.853516,-0.853516 z"
       style="opacity:1;fill:#616161;fill-opacity:1;stroke:none;stroke-width:2;stroke-linecap:round;stroke-linejoin:round;stroke-miterlimit:4;stroke-dasharray:none;stroke-opacity:1"
       inkscape:connector-curvature="0" />
    <path
       inkscape:connector-curvature="0"
       style="opacity:1;fill:url(#linearGradient4187-7);fill-opacity:1;stroke:none;stroke-width:2;stroke-linecap:round;stroke-linejoin:round;stroke-miterlimit:4;stroke-dasharray:none;stroke-opacity:1"
       d="m 20,31 c -1.10797,0 -2,0.892 -2,2 l 0,7 c 0,1.108 0.89203,2 2,2 l 15,0 c 1.10797,0 2,-0.892 2,-2 l 0,-7 c 0,-1.108 -0.89203,-2 -2,-2 l -15,0 z m 0,1 15,0 c 0.55397,0 1,0.446 1,1 l 0,7 c 0,0.554 -0.44603,1 -1,1 l -15,0 c -0.55397,0 -1,-0.446 -1,-1 l 0,-7 c 0,-0.554 0.44603,-1 1,-1 z m 0,1 0,0.8281 0,6.1719 2,0 0,-4.1719 2,2 2,-2 0,4.1719 2,0 0,-6.1719 0,-0.8281 -2,0 -2,2 -2,-2 -2,0 z m 11,0 0,4 -2,0 3,3 3,-3 -2,0 0,-4 -2,0 z"
       id="path4179-1" />
    <path
       id="rect4323-9"
       d="m 20,30 c -1.10797,0 -2,0.892 -2,2 l 0,7 c 0,1.108 0.89203,2 2,2 l 15,0 c 1.10797,0 2,-0.892 2,-2 l 0,-7 c 0,-1.108 -0.89203,-2 -2,-2 l -15,0 z m 0,1 15,0 c 0.55397,0 1,0.446 1,1 l 0,7 c 0,0.554 -0.44603,1 -1,1 l -15,0 c -0.55397,0 -1,-0.446 -1,-1 l 0,-7 c 0,-0.554 0.44603,-1 1,-1 z m 0,1 0,0.8281 0,6.1719 2,0 0,-4.1719 2,2 2,-2 0,4.1719 2,0 0,-6.1719 0,-0.8281 -2,0 -2,2 -2,-2 -2,0 z m 11,0 0,4 -2,0 3,3 3,-3 -2,0 0,-4 -2,0 z"
       style="opacity:1;fill:#616161;fill-opacity:1;stroke:none;stroke-width:2;stroke-linecap:round;stroke-linejoin:round;stroke-miterlimit:4;stroke-dasharray:none;stroke-opacity:1"
       inkscape:connector-curvature="0" />
    <path
       style="opacity:1;fill:#616161;fill-opacity:1;stroke:none;stroke-width:1;stroke-linecap:round;stroke-linejoin:round;stroke-miterlimit:4;stroke-dasharray:none;stroke-opacity:1"
       d="M 34 14 L 34 17 L 35 17 L 35 16 L 36 16 L 36 17 L 37 17 L 37 14 L 36 14 L 36 15 L 35 15 L 35 14 L 34 14 z "
       id="rect4350" />
    <rect
       style="opacity:1;fill:#bdbdbd;fill-opacity:1;stroke:none;stroke-width:1;stroke-linecap:round;stroke-linejoin:round;stroke-miterlimit:4;stroke-dasharray:none;stroke-opacity:1"
       id="rect4362"
       width="1"
       height="3"
       x="22"
       y="14" />
    <rect
       ry="0"
       y="20.999578"
       x="15.999993"
       height="2.0004215"
       width="14.000007"
       id="rect4276-0-5"
       style="opacity:1;fill:#bdbdbd;fill-opacity:1;stroke:none;stroke-width:2;stroke-linecap:round;stroke-linejoin:round;stroke-miterlimit:4;stroke-dasharray:none;stroke-opacity:1" />
    <rect
       y="25.000189"
       x="15.999998"
       height="1.9998093"
       width="16.000002"
       id="rect4278-0"
       style="opacity:1;fill:#bdbdbd;fill-opacity:1;stroke:none;stroke-width:2;stroke-linecap:round;stroke-linejoin:round;stroke-miterlimit:4;stroke-dasharray:none;stroke-opacity:1" />
    <rect
       y="21.999945"
       x="12"
       height="0.99994665"
       width="3"
       id="rect4396-7"
       style="opacity:1;fill:#757575;fill-opacity:1;stroke:none;stroke-width:2;stroke-linecap:round;stroke-linejoin:round;stroke-miterlimit:4;stroke-dasharray:none;stroke-opacity:1" />
    <rect
       y="25.999945"
       x="32.999985"
       height="1.0000533"
       width="3"
       id="rect4398-6"
       style="opacity:1;fill:#757575;fill-opacity:1;stroke:none;stroke-width:2;stroke-linecap:round;stroke-linejoin:round;stroke-miterlimit:4;stroke-dasharray:none;stroke-opacity:1" />
  </g>
</svg>
