<?xml version="1.0" encoding="UTF-8" standalone="no"?>
<!-- Created using Karbon, part of Calligra: http://www.calligra.org/karbon -->

<svg
   xmlns:dc="http://purl.org/dc/elements/1.1/"
   xmlns:cc="http://creativecommons.org/ns#"
   xmlns:rdf="http://www.w3.org/1999/02/22-rdf-syntax-ns#"
   xmlns:svg="http://www.w3.org/2000/svg"
   xmlns="http://www.w3.org/2000/svg"
   xmlns:xlink="http://www.w3.org/1999/xlink"
   xmlns:sodipodi="http://sodipodi.sourceforge.net/DTD/sodipodi-0.dtd"
   xmlns:inkscape="http://www.inkscape.org/namespaces/inkscape"
   width="48"
   height="48"
   id="svg2"
   version="1.1"
   inkscape:version="0.91 r13725"
   sodipodi:docname="firefox.svg">
  <metadata
     id="metadata12">
    <rdf:RDF>
      <cc:Work
         rdf:about="">
        <dc:format>image/svg+xml</dc:format>
        <dc:type
           rdf:resource="http://purl.org/dc/dcmitype/StillImage" />
        <dc:title></dc:title>
      </cc:Work>
    </rdf:RDF>
  </metadata>
  <sodipodi:namedview
     pagecolor="#ffffff"
     bordercolor="#666666"
     borderopacity="1"
     objecttolerance="10"
     gridtolerance="10000"
     guidetolerance="10"
     inkscape:pageopacity="0"
     inkscape:pageshadow="2"
     inkscape:window-width="2560"
     inkscape:window-height="959"
     id="namedview10"
     showgrid="true"
     inkscape:showpageshadow="false"
     borderlayer="true"
     fit-margin-top="0"
     fit-margin-left="0"
     fit-margin-right="0"
     fit-margin-bottom="0"
     inkscape:zoom="16.125"
     inkscape:cx="24"
     inkscape:cy="24"
     inkscape:window-x="0"
     inkscape:window-y="34"
     inkscape:window-maximized="1"
     inkscape:current-layer="layer1"
     showguides="true">
    <inkscape:grid
       type="xygrid"
       id="grid4141"
       originx="20px"
       originy="0px" />
    <sodipodi:guide
       position="0,48"
       orientation="48,0"
       id="guide4147" />
    <sodipodi:guide
       position="48,0"
       orientation="-48,0"
       id="guide4151" />
    <sodipodi:guide
       position="48,48"
       orientation="0,-48"
       id="guide4153" />
    <sodipodi:guide
       position="4,37"
       orientation="40,0"
       id="guide4219" />
    <sodipodi:guide
       position="6.9999962,3.999959"
       orientation="0,34"
       id="guide4221" />
    <sodipodi:guide
       position="44,32"
       orientation="-29,0"
       id="guide4223" />
    <sodipodi:guide
       position="29.999996,43.999958"
       orientation="0,-23"
       id="guide4227" />
  </sodipodi:namedview>
  <defs
     id="defs4">
    <linearGradient
       inkscape:collect="always"
       id="linearGradient4396">
      <stop
         style="stop-color:#000000;stop-opacity:1;"
         offset="0"
         id="stop4398" />
      <stop
         id="stop4400"
         offset="0.56698728"
         style="stop-color:#000000;stop-opacity:0.49803922;" />
      <stop
         style="stop-color:#000000;stop-opacity:0;"
         offset="1"
         id="stop4402" />
    </linearGradient>
    <radialGradient
       gradientTransform="matrix(0.75999995,9.6777288e-6,-9.6777298e-6,0.76000002,-0.30941472,-804.07548)"
       gradientUnits="userSpaceOnUse"
       r="25"
       fy="1093.5195"
       fx="32"
       cy="1093.5195"
       cx="32"
       id="radialGradient4170"
       xlink:href="#Shadow"
       inkscape:collect="always" />
    <linearGradient
       id="Shadow"
       inkscape:collect="always">
      <stop
         id="stop4166"
         offset="0"
         style="stop-color:#000000;stop-opacity:1;" />
      <stop
         style="stop-color:#000000;stop-opacity:0.49803922;"
         offset="0.80000001"
         id="stop4220" />
      <stop
         id="stop4168"
         offset="1"
         style="stop-color:#000000;stop-opacity:0;" />
    </linearGradient>
    <linearGradient
       inkscape:collect="always"
       xlink:href="#linearGradient4396"
       id="linearGradient4394"
       x1="16.690599"
       y1="23"
       x2="19"
       y2="27"
       gradientUnits="userSpaceOnUse" />
    <linearGradient
       inkscape:collect="always"
       xlink:href="#linearGradient4396"
       id="linearGradient4411"
       x1="19"
       y1="20"
       x2="22"
       y2="24"
       gradientUnits="userSpaceOnUse" />
    <linearGradient
       inkscape:collect="always"
       xlink:href="#linearGradient4396"
       id="linearGradient4423"
       x1="18"
       y1="28"
       x2="20"
       y2="33"
       gradientUnits="userSpaceOnUse" />
  </defs>
  <g
     inkscape:groupmode="layer"
     id="layer1"
     inkscape:label="Layer 1">
    <circle
       r="19"
       cy="27.000002"
       cx="24"
       id="circle4162"
       style="opacity:1;fill:url(#radialGradient4170);fill-opacity:1;stroke:none;stroke-opacity:1" />
    <circle
       style="opacity:1;fill:#0277bd;fill-opacity:1;stroke:none;stroke-opacity:1"
       id="circle4203"
       cx="24"
       cy="24.999998"
       r="19" />
    <circle
       r="18"
       cy="24.999998"
       cx="24"
       id="circle4207"
       style="opacity:1;fill:#0288d1;fill-opacity:1;stroke:none;stroke-opacity:1" />
    <path
       id="path4421"
       d="m 13.009766,27.500355 a 0.50005,0.50005 0 0 0 -0.40625,0.804688 l 3,3.90039 a 0.50005,0.50005 0 0 0 0.384765,0.195313 c 4.091581,0.102289 8.115118,-0.893497 10.234375,-1.953125 a 0.50005,0.50005 0 0 0 0.177735,-0.748047 c -0.794,-1.058667 -1.57043,-1.55721 -2.384766,-1.634766 -0.814336,-0.07756 -1.545486,0.210262 -2.402344,0.455078 -1.713716,0.489633 -4.001223,0.982963 -8.410156,-0.976562 a 0.50005,0.50005 0 0 0 -0.193359,-0.04297 z"
       style="color:#000000;font-style:normal;font-variant:normal;font-weight:normal;font-stretch:normal;font-size:medium;line-height:normal;font-family:sans-serif;text-indent:0;text-align:start;text-decoration:none;text-decoration-line:none;text-decoration-style:solid;text-decoration-color:#000000;letter-spacing:normal;word-spacing:normal;text-transform:none;direction:ltr;block-progression:tb;writing-mode:lr-tb;baseline-shift:baseline;text-anchor:start;white-space:normal;clip-rule:nonzero;display:inline;overflow:visible;visibility:visible;opacity:1;isolation:auto;mix-blend-mode:normal;color-interpolation:sRGB;color-interpolation-filters:linearRGB;solid-color:#000000;solid-opacity:1;fill:url(#linearGradient4423);fill-opacity:1.0;fill-rule:evenodd;stroke:none;stroke-width:1px;stroke-linecap:round;stroke-linejoin:round;stroke-miterlimit:4;stroke-dasharray:none;stroke-dashoffset:0;stroke-opacity:1;color-rendering:auto;image-rendering:auto;shape-rendering:auto;text-rendering:auto;enable-background:accumulate"
       inkscape:connector-curvature="0" />
    <path
       style="fill:#1565c0;fill-opacity:1;fill-rule:evenodd;stroke:none;stroke-width:1px;stroke-linecap:butt;stroke-linejoin:miter;stroke-opacity:1"
       d="M 31.484375 8.6503906 L 29 13 L 28 14 L 28 16 L 30 18 L 30 19 L 29 22 L 26 23 L 25 25 L 25 28 L 27 28 L 28 29 L 31 28 L 31 25.267578 L 32 25 L 33 25 L 35 26 L 37 35 L 38.306641 35.871094 A 18 18 0 0 0 41.833984 27.296875 A 19 19 0 0 0 41.917969 26.650391 A 18 18 0 0 0 42 25 A 19 19 0 0 0 41.921875 23.453125 A 18 18 0 0 0 41.783203 22.314453 A 19 19 0 0 0 41.701172 21.777344 A 18 18 0 0 0 31.484375 8.6503906 z "
       id="path4453" />
    <path
       style="fill:#1565c0;fill-opacity:1;fill-rule:evenodd;stroke:none;stroke-width:1px;stroke-linecap:butt;stroke-linejoin:miter;stroke-opacity:1"
       d="M 15.714844,9.0292969 A 18,18 0 0 0 6,25 18,18 0 0 0 13.810547,39.835938 L 16,34 l 1,-5 2,-1 1,0 1,0 1,-2 0,-1 -1,-2 -3,-1 0,-6 2,-2 0,-2 -1,-1 -3.285156,-1.9707031 z"
       id="path4554"
       inkscape:connector-curvature="0" />
    <path
       style="opacity:1;fill:url(#linearGradient4411);fill-opacity:1.0;stroke:none;stroke-opacity:1"
       d="M 19.71875 20 C 19.941832 20.317163 20.147703 20.647363 20.316406 21 L 20.5 21 L 21.410156 21 L 21.5 21 L 22 21 L 23.111328 21 C 22.302387 22.532578 20.986247 23.726365 19.398438 24.398438 L 20 25 L 20.46875 25 C 21.959664 24.210763 23.197861 22.999641 24 21.488281 L 24 21 C 24 20.446 23.554 20 23 20 L 20.90625 20 L 19.71875 20 z "
       id="path4404" />
    <path
       style="fill:url(#linearGradient4394);fill-rule:evenodd;stroke:none;stroke-width:1px;stroke-linecap:butt;stroke-linejoin:miter;stroke-opacity:1;fill-opacity:1"
       d="m 17.535156,16.814453 c -0.163646,0.409116 -0.269951,0.810702 -0.351562,1.207031 L 14,22 l 1,4 1,2 0.0293,-0.01172 c -0.171249,0.245588 -0.333964,0.503866 -0.476563,0.789063 l 0.894532,0.445312 C 17.357823,27.401542 19.166667,26.5 21,26.5 c 0.472892,2.35e-4 0.681863,-0.595332 0.3125,-0.890625 0,0 -1.186204,-0.951508 -2.136719,-2.496094 -0.950514,-1.544586 -1.640501,-3.603825 -0.710937,-5.927734 L 18,17 17.535156,16.814453 Z"
       id="path4383"
       inkscape:connector-curvature="0" />
    <path
       style="color:#000000;font-style:normal;font-variant:normal;font-weight:normal;font-stretch:normal;font-size:medium;line-height:normal;font-family:sans-serif;text-indent:0;text-align:start;text-decoration:none;text-decoration-line:none;text-decoration-style:solid;text-decoration-color:#000000;letter-spacing:normal;word-spacing:normal;text-transform:none;direction:ltr;block-progression:tb;writing-mode:lr-tb;baseline-shift:baseline;text-anchor:start;white-space:normal;clip-rule:nonzero;display:inline;overflow:visible;visibility:visible;opacity:1;isolation:auto;mix-blend-mode:normal;color-interpolation:sRGB;color-interpolation-filters:linearRGB;solid-color:#000000;solid-opacity:1;fill:#f57c00;fill-opacity:1;fill-rule:evenodd;stroke:none;stroke-width:1px;stroke-linecap:round;stroke-linejoin:round;stroke-miterlimit:4;stroke-dasharray:none;stroke-dashoffset:0;stroke-opacity:1;color-rendering:auto;image-rendering:auto;shape-rendering:auto;text-rendering:auto;enable-background:accumulate"
       d="m 13.009766,26.5 a 0.50005,0.50005 0 0 0 -0.40625,0.804688 l 3,3.90039 a 0.50005,0.50005 0 0 0 0.384765,0.195313 c 4.091581,0.102289 8.115118,-0.893497 10.234375,-1.953125 a 0.50005,0.50005 0 0 0 0.177735,-0.748047 c -0.794,-1.058667 -1.57043,-1.55721 -2.384766,-1.634766 -0.814336,-0.07756 -1.545486,0.210262 -2.402344,0.455078 -1.713716,0.489633 -4.001223,0.982963 -8.410156,-0.976562 A 0.50005,0.50005 0 0 0 13.009766,26.5 Z"
       id="path4337" />
    <path
       style="fill:#ffa726;fill-opacity:1;fill-rule:evenodd;stroke:none;stroke-width:1px;stroke-linecap:butt;stroke-linejoin:miter;stroke-opacity:1"
       d="M 33 19 L 34 19 L 37 21 L 40 26 L 40 35.333984 L 41 34 L 43 30 L 43 20 L 39 12 L 32 7 L 31 7 L 32 9 L 34 12 L 31 11 L 31 12 L 33 16 L 33 19 z "
       id="path4312" />
    <path
       style="opacity:0.98000004;fill:#ff9800;fill-opacity:1;stroke:none;stroke-width:2;stroke-linecap:round;stroke-linejoin:round;stroke-miterlimit:4;stroke-dasharray:none;stroke-opacity:1"
       d="M 32.722656 13.070312 A 15 15 0 0 1 35 21 A 15 15 0 0 1 33.015625 28.433594 L 40 36 L 41.914062 32.808594 A 22 22 0 0 0 41.96875 31.646484 A 13.5 13.5 0 0 0 43 26.5 A 13.5 13.5 0 0 0 41.957031 21.330078 A 13.5 13.5 0 0 1 41.164062 25.091797 A 22 22 0 0 0 32.722656 13.070312 z "
       id="circle4351" />
    <path
       style="fill:#fb8c00;fill-opacity:1;fill-rule:evenodd;stroke:none;stroke-width:1px;stroke-linecap:butt;stroke-linejoin:miter;stroke-opacity:1"
       d="M 33 19 L 33 23 L 32 28 L 30 31 L 27 33 L 21 33 C 19 32 17 30 16 28 L 18 26 L 21 25 L 18 21 L 18 16 L 18 11 L 17 11 L 14 13 L 13 14 L 12 13 L 9 15 L 5 12 L 5 21 L 5 28 L 6 33 L 9 38 L 14 42 L 19 44 L 24 44 L 29 44 L 36 41 L 38 38 L 40 35.333984 L 40 26 L 37 21 L 34 19 L 33 19 z "
       id="path4345" />
    <path
       style="fill:#fb8c00;fill-opacity:1;fill-rule:evenodd;stroke:none;stroke-width:1px;stroke-linecap:butt;stroke-linejoin:miter;stroke-opacity:1"
       d="m 18,22 0,-3 0,-2 1,1 1,1 2,0.9 1.1,0.1 -0.1,1 z"
       id="path4310"
       inkscape:connector-curvature="0"
       sodipodi:nodetypes="ccccccccc" />
    <path
       style="fill:#fafafa;fill-opacity:1;fill-rule:evenodd;stroke:none;stroke-width:1px;stroke-linecap:butt;stroke-linejoin:miter;stroke-opacity:1"
       d="M 23.2,20 C 21,20 22,21 18,22 l 2,2 2,-2 1,-1 z"
       id="path4308"
       inkscape:connector-curvature="0"
       sodipodi:nodetypes="cccccc" />
    <path
       style="opacity:1;fill:#f57c00;fill-opacity:1;stroke:none;stroke-opacity:1"
       d="m 27.195312,5.28125 c 2.437709,1.4600154 4.419862,3.5421728 5.779297,6.007812 -0.903767,-0.602534 -1.877121,-1.095106 -2.90039,-1.4648432 l -0.01367,-0.017578 C 29.957409,9.7741478 29.853887,9.7428957 29.75,9.7128906 29.522765,9.6372533 29.294061,9.5675025 29.0625,9.5039062 28.766945,9.419526 28.468594,9.3452639 28.167969,9.28125 31.246394,12.20176 32.992876,16.256649 33,20.5 l 0,1 C 33,27.851275 28.970563,33 24,33 20.672873,32.9963 17.618749,30.647527 16.058594,26.892578 l -0.0078,-0.01563 C 14.963607,24.914863 14.280754,22.562688 14.078125,20.082031 14.030589,20.552453 14.004506,21.025874 14,21.5 14,28.403559 18.477153,34 24,34 29.522847,34 34,28.403559 34,21.5 34,21 34,21 34,20.5 33.9944,20.082017 33.972877,19.664398 33.935547,19.248047 37.717051,21.743448 39.994689,25.969341 40,30.5 39.9926,33.402066 39.05017,36.22449 37.3125,38.548828 33.760964,42.04045 28.980444,43.997966 24,44 13.50659,44 5,35.49341 5,25 c 0.010281,-1.115442 0.118773,-2.227812 0.3242188,-3.324219 0.0072,0.01471 0.012281,0.03023 0.019531,0.04492 C 5.4541992,21.194613 5.5910922,20.67442 5.7539062,20.162109 5.2581442,18.830325 5.002876,17.421065 5,16 5.0032,14.91342 5.1564927,13.833758 5.4492188,12.791016 6.5270951,13.86329 7.4295922,14.667717 8.6582031,15.271484 9.7708891,14.449669 11.116731,14.004242 12.5,14 c 0.538767,0.05279 0.745405,0.09236 1.134766,0.189453 0.967641,-1.17525 2.161929,-2.132914 3.5,-2.841797 C 17.048344,11.894263 17.003294,12.446613 17,13 c 0.0071,0.928656 0.131806,1.852674 0.371094,2.75 0.220317,0.376315 0.363839,0.858822 0.410156,1.378906 1.095538,0.702732 1.973457,1.696986 2.535156,2.871094 L 20.5,20 l 0.910156,0 0.08984,0 0.5,0 1.111328,0 c -0.808941,1.532578 -2.125081,2.726366 -3.71289,3.398438 L 20,24 l 0,0.236328 c 1.701317,-0.771819 3.114843,-2.080267 4,-3.748047 L 24,20 c 0,-0.554 -0.446,-1 -1,-1 l -1,0 -0.5,0 -0.5,0 -0.09375,0 C 20.339639,18.025074 19.579116,17.176097 18.662109,16.517578 18.23165,15.394414 18.007355,14.202804 18,13 c 0.0074,-0.811955 0.113636,-1.619987 0.316406,-2.40625 0.08111,-0.323138 0.166318,-0.6454596 0.279297,-0.9589844 -0.359099,0.11851 -0.707828,0.2586094 -1.052734,0.4082034 -0.05091,0.01985 -0.101696,0.04003 -0.152344,0.06055 l -0.002,0.0098 C 15.844677,10.807984 14.456504,11.806846 13.3105,13.054726 13.04163,13.023205 12.771092,13.002175 12.5,13 11.114744,13.002 9.7685774,13.394017 8.5996094,14.109375 7.2249774,13.240102 6.0295049,12.113741 5.1074219,10.769531 c -0.158818,0.363749 -0.3008943,0.73458 -0.4257813,1.111328 0.0017,0.0022 0.00416,0.0037 0.00586,0.0059 C 4.2411364,13.210608 4.003958,14.597659 4,16 c 0.0037,1.363962 0.2367401,2.710789 0.6582031,4 l -0.00781,0 C 4.2235296,21.632556 4.0049991,23.31257 4,25 4,36.045695 12.954305,45 24,45 35.045695,45 44,36.045695 44,25 43.988185,16.196286 38.220997,8.4356016 29.794922,5.8847656 c -0.01142,-0.00943 -0.02176,-0.019899 -0.0332,-0.029297 -0.08322,-0.024465 -0.168436,-0.041078 -0.251953,-0.064453 -0.111031,-0.034825 -0.222363,-0.068681 -0.333985,-0.1015625 l 0.03125,0.021484 C 28.543475,5.5363792 27.873537,5.3867555 27.195312,5.28125 Z m 4.236329,2.1621094 c 0.06224,0.053587 0.124088,0.1076254 0.185547,0.1621094 C 38.528168,10.629792 42.995336,17.45625 43,25 42.9933,28.369398 42.090714,31.676411 40.384766,34.582031 40.783477,33.25766 40.990654,31.883055 41,30.5 40.990308,25.343892 38.243249,20.580785 33.785156,17.990234 33.426873,15.651002 32.569592,13.416209 31.271484,11.4375 c 1.054826,0.551765 2.022951,1.251188 2.878907,2.076172 0.122591,0.117868 0.24175,0.238617 0.359375,0.361328 0.125694,0.131452 0.25102,0.263297 0.371093,0.400391 0.103946,0.118395 0.203306,0.240999 0.302735,0.363281 0.112043,0.138136 0.225683,0.274756 0.332031,0.417969 -0.183402,-0.788875 -0.422944,-1.563635 -0.716797,-2.31836 -0.01405,-0.01337 -0.02887,-0.02575 -0.04297,-0.03906 -0.774743,-1.94211 -1.902053,-3.7219623 -3.324217,-5.2558616 z M 6.1289062,22.970703 C 6.0477345,23.644166 6.004697,24.321679 6,25 c 0,9.941125 8.058875,18 18,18 3.560888,-0.005 7.0403,-1.065981 9.998047,-3.048828 C 32.072768,40.638869 30.044403,40.993552 28,41 24.423978,40.9976 20.929717,39.930063 17.962891,37.933594 c -0.03716,-0.0155 -0.07427,-0.03113 -0.111329,-0.04687 C 14.869055,35.825345 10.984024,30.936095 10,27 c 0,0 0.464247,3.65701 2.613281,7.878906 C 8.982244,31.906475 6.6555255,27.633583 6.1289062,22.970703 Z"
       id="circle4337"
       inkscape:connector-curvature="0"
       sodipodi:nodetypes="ccccccccccccccscccccccccccccccccccccccccccccsscccccccccccccccccccccscccccccccccccccccccccccccccccccc" />
    <path
       style="color:#000000;font-style:normal;font-variant:normal;font-weight:normal;font-stretch:normal;font-size:medium;line-height:normal;font-family:sans-serif;text-indent:0;text-align:start;text-decoration:none;text-decoration-line:none;text-decoration-style:solid;text-decoration-color:#000000;letter-spacing:normal;word-spacing:normal;text-transform:none;direction:ltr;block-progression:tb;writing-mode:lr-tb;baseline-shift:baseline;text-anchor:start;white-space:normal;clip-rule:nonzero;display:inline;overflow:visible;visibility:visible;opacity:1;isolation:auto;mix-blend-mode:normal;color-interpolation:sRGB;color-interpolation-filters:linearRGB;solid-color:#000000;solid-opacity:1;fill:#f57c00;fill-opacity:1;fill-rule:evenodd;stroke:none;stroke-width:1px;stroke-linecap:butt;stroke-linejoin:round;stroke-miterlimit:4;stroke-dasharray:none;stroke-dashoffset:0;stroke-opacity:1;color-rendering:auto;image-rendering:auto;shape-rendering:auto;text-rendering:auto;enable-background:accumulate"
       d="m 17.535156,15.814453 c -1.070436,2.676091 -0.260423,5.116852 0.789063,6.822266 0.797927,1.296632 1.186804,1.628371 1.596781,1.993281 -1.848967,0.264848 -3.431926,1.274664 -4.368266,3.147344 l 0.894532,0.445312 C 17.357823,26.401542 19.166667,25.5 21,25.5 c 0.472892,2.35e-4 0.681863,-0.595332 0.3125,-0.890625 0,0 -1.186204,-0.951508 -2.136719,-2.496094 -0.950514,-1.544586 -1.640501,-3.603825 -0.710937,-5.927734 z"
       id="path4301"
       inkscape:connector-curvature="0"
       sodipodi:nodetypes="cscccccscc" />
    <path
       style="color:#000000;font-style:normal;font-variant:normal;font-weight:normal;font-stretch:normal;font-size:medium;line-height:normal;font-family:sans-serif;text-indent:0;text-align:start;text-decoration:none;text-decoration-line:none;text-decoration-style:solid;text-decoration-color:#000000;letter-spacing:normal;word-spacing:normal;text-transform:none;direction:ltr;block-progression:tb;writing-mode:lr-tb;baseline-shift:baseline;text-anchor:start;white-space:normal;clip-rule:nonzero;display:inline;overflow:visible;visibility:visible;opacity:1;isolation:auto;mix-blend-mode:normal;color-interpolation:sRGB;color-interpolation-filters:linearRGB;solid-color:#000000;solid-opacity:1;fill:#fb8c00;fill-opacity:1;fill-rule:evenodd;stroke:none;stroke-width:1px;stroke-linecap:round;stroke-linejoin:round;stroke-miterlimit:4;stroke-dasharray:none;stroke-dashoffset:0;stroke-opacity:1;color-rendering:auto;image-rendering:auto;shape-rendering:auto;text-rendering:auto;enable-background:accumulate"
       d="m 14.421875,28.027344 c 3.577731,1.232348 5.912193,0.896739 7.464844,0.453125 0.893142,-0.255184 1.536992,-0.467366 2.035156,-0.419922 0.360103,0.0343 0.738172,0.280059 1.169922,0.710937 -1.987015,0.846305 -5.352115,1.657139 -8.861328,1.607422 l -1.808594,-2.351562 z"
       id="path4201" />
    <path
       style="opacity:1;fill:#37474f;fill-opacity:1;stroke:none;stroke-opacity:1"
       d="M 22 19 L 22 20 L 23.111328 20 C 22.925191 20.352646 22.709632 20.685458 22.472656 21 L 23.701172 21 C 23.805759 20.832636 23.906838 20.663813 24 20.488281 L 24 20 C 24 19.446 23.554 19 23 19 L 22 19 z "
       id="path4321" />
    <path
       style="fill:#f57c00;fill-opacity:1;fill-rule:evenodd;stroke:none;stroke-width:1px;stroke-linecap:butt;stroke-linejoin:miter;stroke-opacity:1"
       d="m 34,19 c 1,2 1,4 1,6 l -2,-2 z"
       id="path4373"
       inkscape:connector-curvature="0"
       sodipodi:nodetypes="cccc" />
  </g>
</svg>
