<?xml version="1.0" encoding="UTF-8" standalone="no"?>
<!-- Created using Karbon, part of Calligra: http://www.calligra.org/karbon -->

<svg
   xmlns:dc="http://purl.org/dc/elements/1.1/"
   xmlns:cc="http://creativecommons.org/ns#"
   xmlns:rdf="http://www.w3.org/1999/02/22-rdf-syntax-ns#"
   xmlns:svg="http://www.w3.org/2000/svg"
   xmlns="http://www.w3.org/2000/svg"
   xmlns:xlink="http://www.w3.org/1999/xlink"
   xmlns:sodipodi="http://sodipodi.sourceforge.net/DTD/sodipodi-0.dtd"
   xmlns:inkscape="http://www.inkscape.org/namespaces/inkscape"
   width="48"
   height="48"
   id="svg2"
   version="1.1"
   inkscape:version="0.91 r13725"
   sodipodi:docname="vlc.svg">
  <metadata
     id="metadata12">
    <rdf:RDF>
      <cc:Work
         rdf:about="">
        <dc:format>image/svg+xml</dc:format>
        <dc:type
           rdf:resource="http://purl.org/dc/dcmitype/StillImage" />
        <dc:title />
      </cc:Work>
    </rdf:RDF>
  </metadata>
  <sodipodi:namedview
     pagecolor="#ffffff"
     bordercolor="#666666"
     borderopacity="1"
     objecttolerance="10"
     gridtolerance="10000"
     guidetolerance="10"
     inkscape:pageopacity="0"
     inkscape:pageshadow="2"
     inkscape:window-width="2560"
     inkscape:window-height="959"
     id="namedview10"
     showgrid="true"
     inkscape:showpageshadow="false"
     borderlayer="true"
     fit-margin-top="0"
     fit-margin-left="0"
     fit-margin-right="0"
     fit-margin-bottom="0"
     inkscape:zoom="22.804194"
     inkscape:cx="22.831209"
     inkscape:cy="19.941998"
     inkscape:window-x="0"
     inkscape:window-y="34"
     inkscape:window-maximized="1"
     inkscape:current-layer="layer1"
     showguides="true">
    <inkscape:grid
       type="xygrid"
       id="grid4141"
       originx="20px"
       originy="0px" />
    <sodipodi:guide
       position="0,48"
       orientation="48,0"
       id="guide4147" />
    <sodipodi:guide
       position="48,0"
       orientation="-48,0"
       id="guide4151" />
    <sodipodi:guide
       position="48,48"
       orientation="0,-48"
       id="guide4153" />
    <sodipodi:guide
       position="4,37"
       orientation="40,0"
       id="guide4219" />
    <sodipodi:guide
       position="6.9999962,3.999959"
       orientation="0,34"
       id="guide4221" />
    <sodipodi:guide
       position="44,32"
       orientation="-29,0"
       id="guide4223" />
    <sodipodi:guide
       position="29.999996,43.999958"
       orientation="0,-23"
       id="guide4227" />
  </sodipodi:namedview>
  <defs
     id="defs4">
    <linearGradient
       inkscape:collect="always"
       id="Shadow">
      <stop
         style="stop-color:#000000;stop-opacity:1;"
         offset="0"
         id="stop4186" />
      <stop
         style="stop-color:#000000;stop-opacity:0;"
         offset="1"
         id="stop4188" />
    </linearGradient>
    <linearGradient
       inkscape:collect="always"
       xlink:href="#Shadow"
       id="linearGradient4190"
       x1="24"
       y1="42"
       x2="24"
       y2="46"
       gradientUnits="userSpaceOnUse" />
    <radialGradient
       inkscape:collect="always"
       xlink:href="#Shadow"
       id="radialGradient4200"
       cx="44"
       cy="42.500004"
       fx="44"
       fy="42.500004"
       r="1.5"
       gradientTransform="matrix(-5.6193702e-6,2.666668,-2.0000002,-4.214526e-6,127.00027,-75.333217)"
       gradientUnits="userSpaceOnUse" />
    <radialGradient
       inkscape:collect="always"
       xlink:href="#Shadow"
       id="radialGradient4208"
       cx="4"
       cy="42.5"
       fx="4"
       fy="42.5"
       r="1.5"
       gradientTransform="matrix(-2.0000003,-2.935184e-6,3.9135795e-6,-2.6666677,13.999835,155.33339)"
       gradientUnits="userSpaceOnUse" />
    <radialGradient
       inkscape:collect="always"
       xlink:href="#linearGradient4164"
       id="radialGradient4205"
       cx="23.000006"
       cy="1031.3624"
       fx="23.000006"
       fy="1031.3624"
       r="6.0000005"
       gradientUnits="userSpaceOnUse"
       gradientTransform="matrix(1.1666674,0,0,1.1666744,-2.833352,-1174.2631)" />
    <linearGradient
       id="linearGradient4164"
       inkscape:collect="always">
      <stop
         id="stop4166"
         offset="0"
         style="stop-color:#000000;stop-opacity:1;" />
      <stop
         style="stop-color:#000000;stop-opacity:1"
         offset="0.4999992"
         id="stop4170" />
      <stop
         id="stop4168"
         offset="1"
         style="stop-color:#000000;stop-opacity:0;" />
    </linearGradient>
  </defs>
  <g
     inkscape:groupmode="layer"
     id="layer1"
     inkscape:label="Layer 1">
    <path
       style="opacity:0.7;fill:url(#radialGradient4200);fill-opacity:1;stroke:none;stroke-width:2;stroke-linecap:butt;stroke-linejoin:round;stroke-miterlimit:4;stroke-dasharray:none;stroke-opacity:1"
       d="m 42,42 0,4 1,0 c 1.108,0 2,-0.892 2,-2 l 0,-2 -3,0 z"
       id="path4174"
       inkscape:connector-curvature="0" />
    <path
       style="opacity:0.7;fill:url(#linearGradient4190);fill-opacity:1;stroke:none;stroke-width:2;stroke-linecap:butt;stroke-linejoin:round;stroke-miterlimit:4;stroke-dasharray:none;stroke-opacity:1"
       d="m 6,42 0,4 36,0 0,-4 z"
       id="path4169"
       inkscape:connector-curvature="0"
       sodipodi:nodetypes="ccccc" />
    <path
       style="opacity:0.7;fill:url(#radialGradient4208);fill-opacity:1;stroke:none;stroke-width:2;stroke-linecap:butt;stroke-linejoin:round;stroke-miterlimit:4;stroke-dasharray:none;stroke-opacity:1"
       d="m 3,42 0,2 c 0,1.108 0.892,2 2,2 l 1,0 0,-4 -3,0 z"
       id="rect4157"
       inkscape:connector-curvature="0" />
    <rect
       style="opacity:1;fill:#f4511e;fill-opacity:1;stroke:none;stroke-width:2;stroke-linecap:butt;stroke-linejoin:round;stroke-miterlimit:4;stroke-dasharray:none;stroke-opacity:1"
       id="rect4272"
       width="44"
       height="36.000042"
       x="2"
       y="8"
       ry="3" />
    <path
       style="opacity:1;fill:#e0e0e0;fill-opacity:1;stroke:none;stroke-width:2;stroke-linecap:butt;stroke-linejoin:round;stroke-miterlimit:4;stroke-dasharray:none;stroke-opacity:1"
       d="M 45,31 3,31 3,41 c 0,1.108 0.892,2 2,2 l 38,0 c 1.108,0 2,-0.892 2,-2 z"
       id="path4241"
       inkscape:connector-curvature="0"
       sodipodi:nodetypes="ccssssc" />
    <path
       style="opacity:1;fill:#37474f;fill-opacity:1;stroke:none;stroke-width:2;stroke-linecap:butt;stroke-linejoin:round;stroke-miterlimit:4;stroke-dasharray:none;stroke-opacity:1"
       d="m 3,14 0,17 42,0 0,-17 z"
       id="path4236"
       inkscape:connector-curvature="0"
       sodipodi:nodetypes="ccccc" />
    <path
       style="color:#000000;clip-rule:nonzero;display:inline;overflow:visible;visibility:visible;opacity:1;isolation:auto;mix-blend-mode:normal;color-interpolation:sRGB;color-interpolation-filters:linearRGB;solid-color:#000000;solid-opacity:1;fill:#607d8b;fill-opacity:1;fill-rule:nonzero;stroke:none;stroke-width:1;stroke-linecap:butt;stroke-linejoin:miter;stroke-miterlimit:4;stroke-dasharray:none;stroke-dashoffset:0;stroke-opacity:1;color-rendering:auto;image-rendering:auto;shape-rendering:auto;text-rendering:auto;enable-background:accumulate"
       d="m 18,16.5 0,12 12,0 0,-12 -12,0 z m 1,1 2,0 0,2 -2,0 0,-2 z m 3,0 4,0 0,5 -4,0 0,-5 z m 5,0 2,0 0,2 -2,0 0,-2 z m -8,4 2,0 0,2 -2,0 0,-2 z m 8,0 2,0 0,2 -2,0 0,-2 z m -5,2 4,0 0,4 -4,0 0,-4 z m -3,2 2,0 0,2 -2,0 0,-2 z m 8,0 2,0 0,2 -2,0 0,-2 z"
       id="folderGlyph-6"
       inkscape:connector-curvature="0" />
    <path
       style="opacity:1;fill:#ff7043;fill-opacity:1;stroke:none;stroke-width:2;stroke-linecap:butt;stroke-linejoin:round;stroke-miterlimit:4;stroke-dasharray:none;stroke-opacity:1"
       d="M 5 9 C 3.892 9 3 9.892 3 11 L 3 14 L 45 14 L 45 11 C 45 9.892 44.108 9 43 9 L 5 9 z "
       id="rect4229" />
    <path
       style="opacity:1;fill:#f5f5f5;fill-opacity:1;stroke:none;stroke-width:2;stroke-linecap:butt;stroke-linejoin:round;stroke-miterlimit:4;stroke-dasharray:none;stroke-opacity:1"
       d="M 8 35 C 7.446 35 7 35.446 7 36 L 7 43 L 40 43 L 40 36 C 40 35.446 39.554 35 39 35 L 8 35 z "
       id="rect4243" />
    <path
       style="opacity:1;fill:#fafafa;fill-opacity:1;stroke:none;stroke-width:2;stroke-linecap:butt;stroke-linejoin:round;stroke-miterlimit:4;stroke-dasharray:none;stroke-opacity:1"
       d="M 8 36 L 8 43 L 39 43 L 39 36 L 8 36 z "
       id="rect4245" />
    <rect
       style="opacity:1;fill:#9e9e9e;fill-opacity:1;stroke:none;stroke-width:2;stroke-linecap:butt;stroke-linejoin:round;stroke-miterlimit:4;stroke-dasharray:none;stroke-opacity:1"
       id="rect4253"
       width="42"
       height="4"
       x="3"
       y="27" />
    <rect
       style="opacity:1;fill:#ff7043;fill-opacity:1;stroke:none;stroke-width:2;stroke-linecap:butt;stroke-linejoin:round;stroke-miterlimit:4;stroke-dasharray:none;stroke-opacity:1"
       id="rect4255"
       width="12"
       height="4"
       x="3"
       y="27" />
    <rect
       style="opacity:1;fill:#f4511e;fill-opacity:1;stroke:none;stroke-width:2;stroke-linecap:butt;stroke-linejoin:round;stroke-miterlimit:4;stroke-dasharray:none;stroke-opacity:1"
       id="rect4257"
       width="1"
       height="4"
       x="14"
       y="27" />
    <ellipse
       cy="28.999996"
       cx="24"
       id="circle4201"
       style="opacity:1;fill:url(#radialGradient4205);fill-opacity:1;stroke:none;stroke-width:2;stroke-linecap:round;stroke-linejoin:round;stroke-miterlimit:4;stroke-dasharray:none;stroke-opacity:1"
       rx="7.0000048"
       ry="7.0000381" />
    <ellipse
       style="opacity:1;fill:#ff7043;fill-opacity:1;stroke:none;stroke-width:2;stroke-linecap:round;stroke-linejoin:round;stroke-miterlimit:4;stroke-dasharray:none;stroke-opacity:1"
       id="path4174-3"
       cx="24"
       cy="28"
       rx="7.0000048"
       ry="7.0000381" />
    <path
       style="color:#000000;font-style:normal;font-variant:normal;font-weight:normal;font-stretch:normal;font-size:medium;line-height:normal;font-family:sans-serif;text-indent:0;text-align:start;text-decoration:none;text-decoration-line:none;text-decoration-style:solid;text-decoration-color:#000000;letter-spacing:normal;word-spacing:normal;text-transform:none;direction:ltr;block-progression:tb;writing-mode:lr-tb;baseline-shift:baseline;text-anchor:start;white-space:normal;clip-rule:nonzero;display:inline;overflow:visible;visibility:visible;opacity:1;isolation:auto;mix-blend-mode:normal;color-interpolation:sRGB;color-interpolation-filters:linearRGB;solid-color:#000000;solid-opacity:1;fill:#fafafa;fill-opacity:1;fill-rule:evenodd;stroke:none;stroke-width:2;stroke-linecap:round;stroke-linejoin:round;stroke-miterlimit:4;stroke-dasharray:none;stroke-dashoffset:0;stroke-opacity:1;color-rendering:auto;image-rendering:auto;shape-rendering:auto;text-rendering:auto;enable-background:accumulate"
       d="M 22.041016,24 C 21.47281,23.976734 20.999581,24.431318 21,25 l 0,6 c 5.75e-4,0.776534 0.847346,1.256188 1.513672,0.857422 l 5,-3 c 0.647056,-0.388501 0.647056,-1.326343 0,-1.714844 l -5,-3 C 22.37051,24.056301 22.208007,24.007281 22.041016,24 Z"
       id="path4310"
       inkscape:connector-curvature="0"
       sodipodi:nodetypes="cccccccc" />
  </g>
</svg>
