<?xml version="1.0" encoding="UTF-8" standalone="no"?>
<!-- Created with Inkscape (http://www.inkscape.org/) -->

<svg
   xmlns:dc="http://purl.org/dc/elements/1.1/"
   xmlns:cc="http://creativecommons.org/ns#"
   xmlns:rdf="http://www.w3.org/1999/02/22-rdf-syntax-ns#"
   xmlns:svg="http://www.w3.org/2000/svg"
   xmlns="http://www.w3.org/2000/svg"
   xmlns:xlink="http://www.w3.org/1999/xlink"
   xmlns:sodipodi="http://sodipodi.sourceforge.net/DTD/sodipodi-0.dtd"
   xmlns:inkscape="http://www.inkscape.org/namespaces/inkscape"
   width="32"
   height="32"
   viewBox="0 0 32 32.000001"
   id="svg2"
   version="1.1"
   inkscape:version="0.91 r13725"
   sodipodi:docname="application-wps-office.doc.svg">
  <defs
     id="defs4">
    <linearGradient
       id="linearGradient4249"
       inkscape:collect="always">
      <stop
         id="stop4251"
         offset="0"
         style="stop-color:#000000;stop-opacity:0.19607843" />
      <stop
         id="stop4253"
         offset="1"
         style="stop-color:#000000;stop-opacity:0;" />
    </linearGradient>
    <linearGradient
       inkscape:collect="always"
       id="Shadow">
      <stop
         style="stop-color:#000000;stop-opacity:1;"
         offset="0"
         id="stop4181" />
      <stop
         style="stop-color:#000000;stop-opacity:0;"
         offset="1"
         id="stop4183" />
    </linearGradient>
    <radialGradient
       inkscape:collect="always"
       xlink:href="#Shadow"
       id="radialGradient4576"
       gradientUnits="userSpaceOnUse"
       gradientTransform="matrix(3.1111458e-7,2.6666673,-1.9999997,2.3333583e-7,80.99998,973.69551)"
       cx="28"
       cy="28.5"
       fx="28"
       fy="28.5"
       r="1.5" />
    <radialGradient
       inkscape:collect="always"
       xlink:href="#Shadow"
       id="radialGradient4578"
       gradientUnits="userSpaceOnUse"
       gradientTransform="matrix(-1.9999998,2.4329792e-6,-3.2319946e-6,-2.6666666,9.119531,1131.421)"
       cx="0.55971527"
       cy="31.14706"
       fx="0.55971527"
       fy="31.14706"
       r="1.5" />
    <linearGradient
       inkscape:collect="always"
       xlink:href="#Shadow"
       id="linearGradient4580"
       gradientUnits="userSpaceOnUse"
       gradientTransform="translate(0,1020.3622)"
       x1="16"
       y1="28"
       x2="16"
       y2="32" />
    <linearGradient
       inkscape:collect="always"
       xlink:href="#linearGradient4249"
       id="linearGradient4247"
       x1="16"
       y1="1031.3622"
       x2="16"
       y2="1043.3622"
       gradientUnits="userSpaceOnUse"
       gradientTransform="translate(0,1)" />
  </defs>
  <sodipodi:namedview
     id="base"
     pagecolor="#ffffff"
     bordercolor="#666666"
     borderopacity="1.0"
     inkscape:pageopacity="0.0"
     inkscape:pageshadow="2"
     inkscape:zoom="26"
     inkscape:cx="9.7692308"
     inkscape:cy="16"
     inkscape:document-units="px"
     inkscape:current-layer="layer1"
     showgrid="true"
     inkscape:window-width="2560"
     inkscape:window-height="1017"
     inkscape:window-x="0"
     inkscape:window-y="0"
     inkscape:window-maximized="1"
     inkscape:showpageshadow="false"
     borderlayer="true"
     units="px"
     showguides="true"
     inkscape:guide-bbox="true">
    <inkscape:grid
       type="xygrid"
       id="grid4155"
       empspacing="2" />
    <sodipodi:guide
       position="2,30.000018"
       orientation="28,0"
       id="guide4159" />
    <sodipodi:guide
       position="2,2.0000174"
       orientation="0,28"
       id="guide4161" />
    <sodipodi:guide
       position="30,2.0000174"
       orientation="-28,0"
       id="guide4163" />
    <sodipodi:guide
       position="30,30.000018"
       orientation="0,-28"
       id="guide4165" />
    <sodipodi:guide
       position="16,16"
       orientation="1,0"
       id="guide4236" />
    <sodipodi:guide
       position="16,15"
       orientation="0,1"
       id="guide4238" />
  </sodipodi:namedview>
  <metadata
     id="metadata7">
    <rdf:RDF>
      <cc:Work
         rdf:about="">
        <dc:format>image/svg+xml</dc:format>
        <dc:type
           rdf:resource="http://purl.org/dc/dcmitype/StillImage" />
        <dc:title />
      </cc:Work>
    </rdf:RDF>
  </metadata>
  <g
     inkscape:label="Layer 1"
     inkscape:groupmode="layer"
     id="layer1"
     transform="translate(0,-1020.3622)">
    <path
       sodipodi:nodetypes="ccccc"
       inkscape:connector-curvature="0"
       id="path4574"
       d="m 8,1048.3622 0,4 16,0 0,-4 z"
       style="opacity:1;fill:url(#linearGradient4580);fill-opacity:1;stroke:none;stroke-width:2;stroke-linecap:round;stroke-linejoin:round;stroke-miterlimit:4;stroke-dasharray:none;stroke-opacity:0.52777782" />
    <path
       inkscape:connector-curvature="0"
       id="path4572"
       d="m 8,1048.3622 -3,0 0,1 c 0,1.662 1.33799,3 3,3 l 0,-4 z"
       style="opacity:1;fill:url(#radialGradient4578);fill-opacity:1;stroke:none;stroke-width:2;stroke-linecap:round;stroke-linejoin:round;stroke-miterlimit:4;stroke-dasharray:none;stroke-opacity:0.52777782" />
    <path
       inkscape:connector-curvature="0"
       id="path4570"
       d="m 24,1048.3622 0,4 c 1.66201,0 3,-1.338 3,-3 l 0,-1 -3,0 z"
       style="opacity:1;fill:url(#radialGradient4576);fill-opacity:1;stroke:none;stroke-width:2;stroke-linecap:round;stroke-linejoin:round;stroke-miterlimit:4;stroke-dasharray:none;stroke-opacity:0.52777782" />
    <rect
       style="opacity:1;fill:#1976d2;fill-opacity:1;stroke:none;stroke-width:2;stroke-linecap:round;stroke-linejoin:round;stroke-miterlimit:4;stroke-dasharray:none;stroke-opacity:0.52777782"
       id="rect4582"
       width="22"
       height="26"
       x="5"
       y="1024.3622"
       ry="2.1666772" />
    <rect
       style="opacity:1;fill:#1e88e5;fill-opacity:1;stroke:none;stroke-width:2;stroke-linecap:round;stroke-linejoin:round;stroke-miterlimit:4;stroke-dasharray:none;stroke-opacity:0.52777782"
       id="rect4168"
       width="20"
       height="24.000017"
       x="6"
       y="1025.3622"
       ry="1.0000174" />
    <rect
       y="1028.3622"
       x="-7"
       height="5"
       width="5"
       id="rect4304-6"
       style="color:#000000;clip-rule:nonzero;display:inline;overflow:visible;visibility:visible;opacity:1;isolation:auto;mix-blend-mode:normal;color-interpolation:sRGB;color-interpolation-filters:linearRGB;solid-color:#000000;solid-opacity:1;fill:#1e88e5;fill-opacity:1;fill-rule:nonzero;stroke:none;stroke-width:1;stroke-linecap:butt;stroke-linejoin:miter;stroke-miterlimit:4;stroke-dasharray:none;stroke-dashoffset:0;stroke-opacity:1;color-rendering:auto;image-rendering:auto;shape-rendering:auto;text-rendering:auto;enable-background:accumulate" />
    <rect
       y="1036.3622"
       x="-7"
       height="5"
       width="5"
       id="rect4306-2"
       style="color:#000000;clip-rule:nonzero;display:inline;overflow:visible;visibility:visible;opacity:1;isolation:auto;mix-blend-mode:normal;color-interpolation:sRGB;color-interpolation-filters:linearRGB;solid-color:#000000;solid-opacity:1;fill:#1976d2;fill-opacity:1;fill-rule:nonzero;stroke:none;stroke-width:1;stroke-linecap:butt;stroke-linejoin:miter;stroke-miterlimit:4;stroke-dasharray:none;stroke-dashoffset:0;stroke-opacity:1;color-rendering:auto;image-rendering:auto;shape-rendering:auto;text-rendering:auto;enable-background:accumulate" />
    <rect
       style="color:#000000;clip-rule:nonzero;display:inline;overflow:visible;visibility:visible;opacity:1;isolation:auto;mix-blend-mode:normal;color-interpolation:sRGB;color-interpolation-filters:linearRGB;solid-color:#000000;solid-opacity:1;fill:#bbdefb;fill-opacity:1;fill-rule:nonzero;stroke:none;stroke-width:1;stroke-linecap:butt;stroke-linejoin:miter;stroke-miterlimit:4;stroke-dasharray:none;stroke-dashoffset:0;stroke-opacity:1;color-rendering:auto;image-rendering:auto;shape-rendering:auto;text-rendering:auto;enable-background:accumulate"
       id="rect4156"
       width="5"
       height="5"
       x="-7"
       y="1020.3622" />
    <path
       id="path4231"
       d="m 11,1032.3622 c -0.554,0 -1,0.446 -1,1.0001 l 0,9.9972 0,0 a 0.99769716,0.99846424 0 0 0 0.07617,0.3848 0.99769716,0.99846424 0 0 0 0.002,0 c 10e-4,0 8.86e-4,0.01 0.002,0.01 a 0.99769716,0.99846424 0 0 0 0.212891,0.3107 c 3.81e-4,4e-4 -3.82e-4,0 0,0 a 0.99769716,0.99846424 0 0 0 0.30664,0.209 c 0.0059,0 0.01158,0.01 0.01758,0.01 a 0.99769716,0.99846424 0 0 0 0.376953,0.074 0.99769716,0.99846424 0 0 0 0.0098,0 0.99769716,0.99846424 0 0 0 0.369141,-0.074 c 0.0094,0 0.01809,-0.01 0.02734,-0.012 a 0.99769716,0.99846424 0 0 0 0.291015,-0.1973 c 0.0078,-0.01 0.01587,-0.014 0.02344,-0.022 a 0.99769716,0.99846424 0 0 0 0.002,0 l 4.283031,-4.2815 4.283204,4.2857 a 0.99769716,0.99846424 0 0 0 0.002,0 c 0.0082,0.01 0.0169,0.015 0.02539,0.024 a 0.99769716,0.99846424 0 0 0 0.287109,0.1953 c 0.0079,0 0.01541,0.01 0.02344,0.01 a 0.99769716,0.99846424 0 0 0 0.375,0.076 0.99769716,0.99846424 0 0 0 0.0039,0 0.99769716,0.99846424 0 0 0 0.384766,-0.076 0.99769716,0.99846424 0 0 0 0.0059,0 c 0.0014,-6e-4 0.0026,0 0.0039,0 a 0.99769716,0.99846424 0 0 0 0.3125,-0.2129 0.99769716,0.99846424 0 0 0 0.208986,-0.3067 c 0.0026,-0.01 0.0053,-0.012 0.0078,-0.018 a 0.99769716,0.99846424 0 0 0 0.07611,-0.3832 0.99769716,0.99846424 0 0 0 0,-0.023 l 0,-9.9796 c 0,-0.5541 -0.446001,-1.0001 -1.000001,-1.0001 -0.554,0 -1,0.446 -1,1.0001 l 0,7.5887 -3.294923,-3.2972 a 0.99769716,0.99846424 0 0 0 -0.720703,-0.2911 0.99769716,0.99846424 0 0 0 -0.689453,0.2911 L 12,1040.951 l 0,-7.5887 c 0,-0.5541 -0.446,-1.0001 -1,-1.0001 z"
       style="opacity:1;fill:url(#linearGradient4247);fill-opacity:1;stroke:none;stroke-width:2;stroke-linecap:round;stroke-linejoin:round;stroke-miterlimit:4;stroke-dasharray:none;stroke-opacity:1"
       inkscape:connector-curvature="0" />
    <path
       style="opacity:1;fill:#bbdefb;fill-opacity:1;stroke:none;stroke-width:2;stroke-linecap:round;stroke-linejoin:round;stroke-miterlimit:4;stroke-dasharray:none;stroke-opacity:1"
       d="m 11,1031.3622 c -0.554,0 -1,0.446 -1,1 l 0,9.9961 0,0 a 0.99769696,0.99835617 0 0 0 0.07617,0.3848 0.99769696,0.99835617 0 0 0 0.002,0 c 10e-4,0 8.86e-4,0.01 0.002,0.01 a 0.99769696,0.99835617 0 0 0 0.212891,0.3106 c 3.81e-4,4e-4 -3.82e-4,0 0,0 a 0.99769696,0.99835617 0 0 0 0.30664,0.209 c 0.0059,0 0.01158,0.01 0.01758,0.01 a 0.99769696,0.99835617 0 0 0 0.376953,0.074 0.99769696,0.99835617 0 0 0 0.0098,0 0.99769696,0.99835617 0 0 0 0.369141,-0.074 c 0.0094,0 0.01809,-0.01 0.02734,-0.012 a 0.99769696,0.99835617 0 0 0 0.291015,-0.1973 c 0.0078,-0.01 0.01587,-0.014 0.02344,-0.022 a 0.99769696,0.99835617 0 0 0 0.002,0 l 4.28303,-4.281 4.283203,4.2852 a 0.99769696,0.99835617 0 0 0 0.002,0 c 0.0082,0.01 0.0169,0.015 0.02539,0.024 a 0.99769696,0.99835617 0 0 0 0.287109,0.1953 c 0.0079,0 0.01541,0.01 0.02344,0.01 a 0.99769696,0.99835617 0 0 0 0.375,0.076 0.99769696,0.99835617 0 0 0 0.0039,0 0.99769696,0.99835617 0 0 0 0.384766,-0.076 0.99769696,0.99835617 0 0 0 0.0059,0 c 0.0014,-6e-4 0.0026,0 0.0039,0 a 0.99769696,0.99835617 0 0 0 0.3125,-0.2129 0.99769696,0.99835617 0 0 0 0.208985,-0.3066 c 0.0026,-0.01 0.0053,-0.012 0.0078,-0.018 A 0.99769696,0.99835617 0 0 0 22,1042.3642 a 0.99769696,0.99835617 0 0 0 0,-0.023 l 0,-9.9785 c 0,-0.554 -0.446,-1 -1,-1 -0.554,0 -1,0.446 -1,1 l 0,7.5879 -3.294922,-3.2969 a 0.99769696,0.99835617 0 0 0 -0.720703,-0.291 0.99769696,0.99835617 0 0 0 -0.689453,0.291 L 12,1039.9501 l 0,-7.5879 c 0,-0.554 -0.446,-1 -1,-1 z"
       id="rect4222"
       inkscape:connector-curvature="0" />
  </g>
</svg>
