<?xml version="1.0" encoding="UTF-8" standalone="no"?>
<!-- Created with Inkscape (http://www.inkscape.org/) -->

<svg
   xmlns:dc="http://purl.org/dc/elements/1.1/"
   xmlns:cc="http://creativecommons.org/ns#"
   xmlns:rdf="http://www.w3.org/1999/02/22-rdf-syntax-ns#"
   xmlns:svg="http://www.w3.org/2000/svg"
   xmlns="http://www.w3.org/2000/svg"
   xmlns:xlink="http://www.w3.org/1999/xlink"
   xmlns:sodipodi="http://sodipodi.sourceforge.net/DTD/sodipodi-0.dtd"
   xmlns:inkscape="http://www.inkscape.org/namespaces/inkscape"
   width="32"
   height="32"
   viewBox="0 0 32 32.000001"
   id="svg2"
   version="1.1"
   inkscape:version="0.91 r13725"
   sodipodi:docname="application-pdf.svg">
  <defs
     id="defs4">
    <linearGradient
       inkscape:collect="always"
       id="Shadow">
      <stop
         style="stop-color:#000000;stop-opacity:1;"
         offset="0"
         id="stop4181" />
      <stop
         style="stop-color:#000000;stop-opacity:0;"
         offset="1"
         id="stop4183" />
    </linearGradient>
    <radialGradient
       inkscape:collect="always"
       xlink:href="#Shadow"
       id="radialGradient4576"
       gradientUnits="userSpaceOnUse"
       gradientTransform="matrix(3.1111458e-7,2.6666673,-1.9999997,2.3333583e-7,80.99998,973.69551)"
       cx="28"
       cy="28.5"
       fx="28"
       fy="28.5"
       r="1.5" />
    <radialGradient
       inkscape:collect="always"
       xlink:href="#Shadow"
       id="radialGradient4578"
       gradientUnits="userSpaceOnUse"
       gradientTransform="matrix(-1.9999998,2.4329792e-6,-3.2319946e-6,-2.6666666,9.119531,1131.421)"
       cx="0.55971527"
       cy="31.14706"
       fx="0.55971527"
       fy="31.14706"
       r="1.5" />
    <linearGradient
       inkscape:collect="always"
       xlink:href="#Shadow"
       id="linearGradient4580"
       gradientUnits="userSpaceOnUse"
       gradientTransform="translate(0,1020.3622)"
       x1="16"
       y1="28"
       x2="16"
       y2="32" />
    <linearGradient
       inkscape:collect="always"
       id="linearGradient4226">
      <stop
         style="stop-color:#000000;stop-opacity:0.19607843"
         offset="0"
         id="stop4228" />
      <stop
         id="stop4232"
         offset="0.79999465"
         style="stop-color:#000000;stop-opacity:0.30980393" />
      <stop
         style="stop-color:#000000;stop-opacity:0;"
         offset="1"
         id="stop4230" />
    </linearGradient>
    <linearGradient
       inkscape:collect="always"
       xlink:href="#linearGradient4226"
       id="linearGradient4335"
       x1="16"
       y1="1035.3622"
       x2="16"
       y2="1041.3622"
       gradientUnits="userSpaceOnUse" />
  </defs>
  <sodipodi:namedview
     id="base"
     pagecolor="#ffffff"
     bordercolor="#666666"
     borderopacity="1.0"
     inkscape:pageopacity="0.0"
     inkscape:pageshadow="2"
     inkscape:zoom="22.627417"
     inkscape:cx="25.419631"
     inkscape:cy="3.1747242"
     inkscape:document-units="px"
     inkscape:current-layer="layer1"
     showgrid="true"
     inkscape:window-width="2560"
     inkscape:window-height="1017"
     inkscape:window-x="0"
     inkscape:window-y="0"
     inkscape:window-maximized="1"
     inkscape:showpageshadow="false"
     borderlayer="true"
     units="px"
     showguides="true"
     inkscape:guide-bbox="true">
    <inkscape:grid
       type="xygrid"
       id="grid4155"
       empspacing="2" />
    <sodipodi:guide
       position="2,30.000018"
       orientation="28,0"
       id="guide4159" />
    <sodipodi:guide
       position="2,2.0000174"
       orientation="0,28"
       id="guide4161" />
    <sodipodi:guide
       position="30,2.0000174"
       orientation="-28,0"
       id="guide4163" />
    <sodipodi:guide
       position="30,30.000018"
       orientation="0,-28"
       id="guide4165" />
    <sodipodi:guide
       position="16,16"
       orientation="1,0"
       id="guide4236" />
    <sodipodi:guide
       position="16,15"
       orientation="0,1"
       id="guide4238" />
  </sodipodi:namedview>
  <metadata
     id="metadata7">
    <rdf:RDF>
      <cc:Work
         rdf:about="">
        <dc:format>image/svg+xml</dc:format>
        <dc:type
           rdf:resource="http://purl.org/dc/dcmitype/StillImage" />
        <dc:title />
      </cc:Work>
    </rdf:RDF>
  </metadata>
  <g
     inkscape:label="Layer 1"
     inkscape:groupmode="layer"
     id="layer1"
     transform="translate(0,-1020.3622)">
    <path
       sodipodi:nodetypes="ccccc"
       inkscape:connector-curvature="0"
       id="path4574"
       d="m 8,1048.3622 0,4 16,0 0,-4 z"
       style="opacity:1;fill:url(#linearGradient4580);fill-opacity:1;stroke:none;stroke-width:2;stroke-linecap:round;stroke-linejoin:round;stroke-miterlimit:4;stroke-dasharray:none;stroke-opacity:0.52777782" />
    <path
       inkscape:connector-curvature="0"
       id="path4572"
       d="m 8,1048.3622 -3,0 0,1 c 0,1.662 1.33799,3 3,3 l 0,-4 z"
       style="opacity:1;fill:url(#radialGradient4578);fill-opacity:1;stroke:none;stroke-width:2;stroke-linecap:round;stroke-linejoin:round;stroke-miterlimit:4;stroke-dasharray:none;stroke-opacity:0.52777782" />
    <path
       inkscape:connector-curvature="0"
       id="path4570"
       d="m 24,1048.3622 0,4 c 1.66201,0 3,-1.338 3,-3 l 0,-1 -3,0 z"
       style="opacity:1;fill:url(#radialGradient4576);fill-opacity:1;stroke:none;stroke-width:2;stroke-linecap:round;stroke-linejoin:round;stroke-miterlimit:4;stroke-dasharray:none;stroke-opacity:0.52777782" />
    <rect
       style="opacity:1;fill:#d32f2f;fill-opacity:1;stroke:none;stroke-width:2;stroke-linecap:round;stroke-linejoin:round;stroke-miterlimit:4;stroke-dasharray:none;stroke-opacity:0.52777782"
       id="rect4582"
       width="22"
       height="26"
       x="5"
       y="1024.3622"
       ry="2.1666772" />
    <rect
       style="opacity:1;fill:#e53935;fill-opacity:1;stroke:none;stroke-width:2;stroke-linecap:round;stroke-linejoin:round;stroke-miterlimit:4;stroke-dasharray:none;stroke-opacity:0.52777782"
       id="rect4168"
       width="20"
       height="24.000017"
       x="6"
       y="1025.3622"
       ry="1.0000174" />
    <rect
       y="1020.3617"
       x="-6.9999876"
       height="5.0000601"
       width="5"
       id="rect4306"
       style="color:#000000;clip-rule:nonzero;display:inline;overflow:visible;visibility:visible;opacity:1;isolation:auto;mix-blend-mode:normal;color-interpolation:sRGB;color-interpolation-filters:linearRGB;solid-color:#000000;solid-opacity:1;fill:#ffcdd2;fill-opacity:1;fill-rule:nonzero;stroke:none;stroke-width:1;stroke-linecap:butt;stroke-linejoin:miter;stroke-miterlimit:4;stroke-dasharray:none;stroke-dashoffset:0;stroke-opacity:1;color-rendering:auto;image-rendering:auto;shape-rendering:auto;text-rendering:auto;enable-background:accumulate" />
    <rect
       style="color:#000000;clip-rule:nonzero;display:inline;overflow:visible;visibility:visible;opacity:1;isolation:auto;mix-blend-mode:normal;color-interpolation:sRGB;color-interpolation-filters:linearRGB;solid-color:#000000;solid-opacity:1;fill:#e53935;fill-opacity:1;fill-rule:nonzero;stroke:none;stroke-width:1;stroke-linecap:butt;stroke-linejoin:miter;stroke-miterlimit:4;stroke-dasharray:none;stroke-dashoffset:0;stroke-opacity:1;color-rendering:auto;image-rendering:auto;shape-rendering:auto;text-rendering:auto;enable-background:accumulate"
       id="rect4163"
       width="5"
       height="5.0000601"
       x="-6.9999876"
       y="1028.3621" />
    <rect
       y="1036.3621"
       x="-6.9999876"
       height="5.0000601"
       width="5"
       id="rect4229"
       style="color:#000000;clip-rule:nonzero;display:inline;overflow:visible;visibility:visible;opacity:1;isolation:auto;mix-blend-mode:normal;color-interpolation:sRGB;color-interpolation-filters:linearRGB;solid-color:#000000;solid-opacity:1;fill:#d32f2f;fill-opacity:1;fill-rule:nonzero;stroke:none;stroke-width:1;stroke-linecap:butt;stroke-linejoin:miter;stroke-miterlimit:4;stroke-dasharray:none;stroke-dashoffset:0;stroke-opacity:1;color-rendering:auto;image-rendering:auto;shape-rendering:auto;text-rendering:auto;enable-background:accumulate" />
    <path
       id="path4333"
       d="m 8,1035.3622 0,6 1,0 0,-2 1,0 c 1.108,0 2,-0.892 2,-2 0,-1.108 -0.892,-2 -2,-2 l -1,0 -1,0 z m 6,0 0,1 0,4 0,1 1,0 c 1.662005,0 3,-1.338 3,-3 0,-1.662 -1.337995,-3 -3,-3 l -1,0 z m 6,0 0,1 0,1 0,1 0,3 1,0 0,-3 1,0 0,-1 -1,0 0,-1 3,0 0,-1 -4,0 z m -11,1 1,0 c 0.554,0 1,0.446 1,1 0,0.554 -0.446,1 -1,1 l -1,0 0,-2 z m 6,0 c 1.108,0 2,0.892 2,2 0,1.108 -0.892,2 -2,2 l 0,-4 z"
       style="fill:url(#linearGradient4335);fill-opacity:1;stroke:none"
       inkscape:connector-curvature="0" />
    <path
       style="fill:#ffcdd2;fill-opacity:1;stroke:none"
       d="M 8 14 L 8 20 L 9 20 L 9 18 L 10 18 C 11.108 18 12 17.108 12 16 C 12 14.892 11.108 14 10 14 L 9 14 L 8 14 z M 14 14 L 14 15 L 14 19 L 14 20 L 15 20 C 16.662005 20 18 18.662 18 17 C 18 15.338 16.662005 14 15 14 L 14 14 z M 20 14 L 20 15 L 20 16 L 20 17 L 20 20 L 21 20 L 21 17 L 22 17 L 22 16 L 21 16 L 21 15 L 24 15 L 24 14 L 20 14 z M 9 15 L 10 15 C 10.554 15 11 15.446 11 16 C 11 16.554 10.554 17 10 17 L 9 17 L 9 15 z M 15 15 C 16.108 15 17 15.892 17 17 C 17 18.108 16.108 19 15 19 L 15 15 z "
       transform="translate(0,1020.3622)"
       id="rect4296" />
  </g>
</svg>
