<?xml version="1.0" encoding="UTF-8" standalone="no"?>
<!-- Created with Inkscape (http://www.inkscape.org/) -->

<svg
   xmlns:dc="http://purl.org/dc/elements/1.1/"
   xmlns:cc="http://creativecommons.org/ns#"
   xmlns:rdf="http://www.w3.org/1999/02/22-rdf-syntax-ns#"
   xmlns:svg="http://www.w3.org/2000/svg"
   xmlns="http://www.w3.org/2000/svg"
   xmlns:xlink="http://www.w3.org/1999/xlink"
   xmlns:sodipodi="http://sodipodi.sourceforge.net/DTD/sodipodi-0.dtd"
   xmlns:inkscape="http://www.inkscape.org/namespaces/inkscape"
   width="64"
   height="64"
   id="svg5453"
   version="1.1"
   inkscape:version="0.91 r13725"
   sodipodi:docname="folder-dropbox.svg"
   viewBox="0 0 64 64">
  <defs
     id="defs5455">
    <linearGradient
       inkscape:collect="always"
       id="linearGradient4188">
      <stop
         style="stop-color:#000000;stop-opacity:0.19607843"
         offset="0"
         id="stop4190" />
      <stop
         style="stop-color:#000000;stop-opacity:0.0627451"
         offset="1"
         id="stop4192" />
    </linearGradient>
    <linearGradient
       inkscape:collect="always"
       id="linearGradient4244">
      <stop
         style="stop-color:#000000;stop-opacity:0.30980393"
         offset="0"
         id="stop4246" />
      <stop
         style="stop-color:#000000;stop-opacity:0;"
         offset="1"
         id="stop4248" />
    </linearGradient>
    <radialGradient
       r="1.5"
       fy="42.5"
       fx="4"
       cy="42.5"
       cx="4"
       gradientTransform="matrix(-2.0000003,-2.935184e-6,3.9135795e-6,-2.6666677,397.57126,654.1314)"
       gradientUnits="userSpaceOnUse"
       id="radialGradient4259"
       xlink:href="#Shadow"
       inkscape:collect="always" />
    <linearGradient
       id="Shadow"
       inkscape:collect="always">
      <stop
         id="stop4186"
         offset="0"
         style="stop-color:#000000;stop-opacity:1;" />
      <stop
         id="stop4188"
         offset="1"
         style="stop-color:#000000;stop-opacity:0;" />
    </linearGradient>
    <linearGradient
       y2="46"
       x2="24"
       y1="42"
       x1="24"
       gradientTransform="translate(394.57142,498.798)"
       gradientUnits="userSpaceOnUse"
       id="linearGradient4257"
       xlink:href="#Shadow"
       inkscape:collect="always" />
    <radialGradient
       r="1.5"
       fy="42.500004"
       fx="44"
       cy="42.500004"
       cx="44"
       gradientTransform="matrix(-5.6193702e-6,2.666668,-2.0000002,-4.214526e-6,528.57169,423.4648)"
       gradientUnits="userSpaceOnUse"
       id="radialGradient4255"
       xlink:href="#Shadow"
       inkscape:collect="always" />
    <linearGradient
       inkscape:collect="always"
       xlink:href="#linearGradient4244"
       id="linearGradient4242"
       x1="416.57144"
       y1="527.79797"
       x2="416.57144"
       y2="532.79797"
       gradientUnits="userSpaceOnUse"
       gradientTransform="translate(0,1)" />
    <linearGradient
       inkscape:collect="always"
       xlink:href="#linearGradient4244"
       id="linearGradient4256"
       x1="411.57144"
       y1="522.79797"
       x2="411.57144"
       y2="527.79797"
       gradientUnits="userSpaceOnUse"
       gradientTransform="translate(0,1)" />
    <linearGradient
       inkscape:collect="always"
       xlink:href="#linearGradient4244"
       id="linearGradient4264"
       x1="422.57144"
       y1="522.79797"
       x2="422.57144"
       y2="527.79797"
       gradientUnits="userSpaceOnUse"
       gradientTransform="translate(0,1)" />
    <linearGradient
       inkscape:collect="always"
       xlink:href="#linearGradient4188"
       id="linearGradient4272"
       x1="411.57144"
       y1="516.79797"
       x2="411.57144"
       y2="519.79797"
       gradientUnits="userSpaceOnUse"
       gradientTransform="translate(0,1)" />
    <linearGradient
       inkscape:collect="always"
       xlink:href="#linearGradient4244"
       id="linearGradient4280"
       x1="421.57144"
       y1="516.79797"
       x2="421.57144"
       y2="519.79797"
       gradientUnits="userSpaceOnUse"
       gradientTransform="translate(0,1)" />
  </defs>
  <sodipodi:namedview
     id="base"
     pagecolor="#ffffff"
     bordercolor="#666666"
     borderopacity="1.0"
     inkscape:pageopacity="0"
     inkscape:pageshadow="2"
     inkscape:zoom="12.90625"
     inkscape:cx="32"
     inkscape:cy="32"
     inkscape:document-units="px"
     inkscape:current-layer="layer1"
     showgrid="true"
     fit-margin-top="0"
     fit-margin-left="0"
     fit-margin-right="0"
     fit-margin-bottom="0"
     inkscape:window-width="2560"
     inkscape:window-height="1017"
     inkscape:window-x="0"
     inkscape:window-y="0"
     inkscape:window-maximized="1"
     inkscape:showpageshadow="false"
     borderlayer="true"
     showguides="true">
    <inkscape:grid
       type="xygrid"
       id="grid4115" />
    <sodipodi:guide
       position="21.999981,35.999965"
       orientation="20,0"
       id="guide4190" />
    <sodipodi:guide
       position="21.999981,15.999965"
       orientation="0,20"
       id="guide4192" />
    <sodipodi:guide
       position="41.999981,15.999965"
       orientation="-20,0"
       id="guide4194" />
    <sodipodi:guide
       position="41.999981,35.999965"
       orientation="0,-20"
       id="guide4196" />
  </sodipodi:namedview>
  <metadata
     id="metadata5458">
    <rdf:RDF>
      <cc:Work
         rdf:about="">
        <dc:format>image/svg+xml</dc:format>
        <dc:type
           rdf:resource="http://purl.org/dc/dcmitype/StillImage" />
        <dc:title />
      </cc:Work>
    </rdf:RDF>
  </metadata>
  <g
     inkscape:label="Capa 1"
     inkscape:groupmode="layer"
     id="layer1"
     transform="translate(-384.57143,-483.798)">
    <path
       id="path4249"
       d="m 443.57142,540.798 0,4 1,0 c 1.108,0 2,-0.892 2,-2 l 0,-2 -3,0 z"
       style="opacity:0.7;fill:url(#radialGradient4255);fill-opacity:1;stroke:none;stroke-width:2;stroke-linecap:butt;stroke-linejoin:round;stroke-miterlimit:4;stroke-dasharray:none;stroke-opacity:1"
       inkscape:connector-curvature="0" />
    <path
       id="path4251"
       d="m 389.57142,540.798 0,4 54,0 0,-4 z"
       style="opacity:0.7;fill:url(#linearGradient4257);fill-opacity:1;stroke:none;stroke-width:2;stroke-linecap:butt;stroke-linejoin:round;stroke-miterlimit:4;stroke-dasharray:none;stroke-opacity:1"
       inkscape:connector-curvature="0"
       sodipodi:nodetypes="ccccc" />
    <path
       id="path4253"
       d="m 386.57142,540.798 0,2 c 0,1.108 0.892,2 2,2 l 1,0 0,-4 -3,0 z"
       style="opacity:0.7;fill:url(#radialGradient4259);fill-opacity:1;stroke:none;stroke-width:2;stroke-linecap:butt;stroke-linejoin:round;stroke-miterlimit:4;stroke-dasharray:none;stroke-opacity:1"
       inkscape:connector-curvature="0" />
    <path
       style="opacity:1;fill:#1976d2;fill-opacity:1;stroke:none;stroke-width:2;stroke-linecap:butt;stroke-linejoin:round;stroke-miterlimit:4;stroke-dasharray:none;stroke-opacity:1"
       d="m 417.57137,496.7981 26.00009,0 c 1.66196,0 2.99995,1.3379 2.99995,2.9999 l 0,6 c 0,1.662 -1.33799,2.9999 -2.99995,2.9999 l -26.00009,0 c -1.66197,0 -2.99995,-1.3379 -2.99995,-2.9999 l 0,-6 c 0,-1.662 1.33798,-2.9999 2.99995,-2.9999 z"
       id="rect4194"
       inkscape:connector-curvature="0"
       sodipodi:nodetypes="sssssssss" />
    <path
       style="opacity:1;fill:#e8e5dc;fill-opacity:1;stroke:none;stroke-width:2;stroke-linecap:butt;stroke-linejoin:round;stroke-miterlimit:4;stroke-dasharray:none;stroke-opacity:1"
       d="m 418.57141,498.798 24,0 c 1.108,0 2,0.892 2,2 l 0,3 c 0,1.108 -0.892,2 -2,2 l -24,0 c -1.108,0 -2,-0.892 -2,-2 l 0,-3 c 0,-1.108 0.892,-2 2,-2 z"
       id="rect4207"
       inkscape:connector-curvature="0"
       sodipodi:nodetypes="sssssssss" />
    <path
       style="opacity:1;fill:#fffbec;fill-opacity:1;stroke:none;stroke-width:2;stroke-linecap:butt;stroke-linejoin:round;stroke-miterlimit:4;stroke-dasharray:none;stroke-opacity:1"
       d="m 417.57141,499.798 25,0 c 0.55401,0 1,0.446 1,1 l 0,4 c 0,0.554 -0.44599,1 -1,1 l -25,0 c -0.55399,0 -1,-0.446 -1,-1 l 0,-4 c 0,-0.554 0.44601,-1 1,-1 z"
       id="rect4209"
       inkscape:connector-curvature="0"
       sodipodi:nodetypes="sssssssss" />
    <path
       inkscape:connector-curvature="0"
       style="opacity:1;fill:#1e88e5;fill-opacity:1;stroke:none;stroke-width:2;stroke-linecap:butt;stroke-linejoin:round;stroke-miterlimit:4;stroke-dasharray:none;stroke-opacity:1"
       d="m 389.57142,493.798 c -1.66197,0 -3,1.338 -3,3 l 0,43 c 0,1.662 1.33803,3 3,3 l 27,0 27,0 c 1.66197,0 3,-1.338 3,-3 l 0,-34 c 0,-1.662 -1.33803,-3 -3,-3 l -24,0 -2,-8 c -0.13437,-0.5375 -0.446,-1 -1,-1 l -18,0 -9,0 z"
       id="path4220" />
    <path
       inkscape:connector-curvature="0"
       style="opacity:1;fill:#2196f3;fill-opacity:1;stroke:none;stroke-width:2;stroke-linecap:butt;stroke-linejoin:round;stroke-miterlimit:4;stroke-dasharray:none;stroke-opacity:1"
       d="m 389.57142,494.798 c -1.108,0 -2,0.892 -2,2 l 0,43 c 0,1.108 0.892,2 2,2 l 27,0 27,0 c 1.108,0 2,-0.892 2,-2 l 0,-34 c 0,-1.108 -0.892,-2 -2,-2 l -25,0 -2,-8 c -0.13437,-0.5375 -0.446,-1 -1,-1 l -20,0 -6,0 z"
       id="path4223" />
    <rect
       style="color:#000000;clip-rule:nonzero;display:inline;overflow:visible;visibility:visible;opacity:1;isolation:auto;mix-blend-mode:normal;color-interpolation:sRGB;color-interpolation-filters:linearRGB;solid-color:#000000;solid-opacity:1;fill:#2196f3;fill-opacity:1;fill-rule:nonzero;stroke:none;stroke-width:1;stroke-linecap:butt;stroke-linejoin:miter;stroke-miterlimit:4;stroke-dasharray:none;stroke-dashoffset:0;stroke-opacity:1;color-rendering:auto;image-rendering:auto;shape-rendering:auto;text-rendering:auto;enable-background:accumulate"
       id="rect4157"
       width="5"
       height="5"
       x="377.57144"
       y="491.798" />
    <rect
       style="color:#000000;clip-rule:nonzero;display:inline;overflow:visible;visibility:visible;opacity:1;isolation:auto;mix-blend-mode:normal;color-interpolation:sRGB;color-interpolation-filters:linearRGB;solid-color:#000000;solid-opacity:1;fill:#1e88e5;fill-opacity:1;fill-rule:nonzero;stroke:none;stroke-width:1;stroke-linecap:butt;stroke-linejoin:miter;stroke-miterlimit:4;stroke-dasharray:none;stroke-dashoffset:0;stroke-opacity:1;color-rendering:auto;image-rendering:auto;shape-rendering:auto;text-rendering:auto;enable-background:accumulate"
       id="rect4157-5"
       width="5"
       height="5"
       x="377.57144"
       y="499.798" />
    <rect
       style="color:#000000;clip-rule:nonzero;display:inline;overflow:visible;visibility:visible;opacity:1;isolation:auto;mix-blend-mode:normal;color-interpolation:sRGB;color-interpolation-filters:linearRGB;solid-color:#000000;solid-opacity:1;fill:#1976d2;fill-opacity:1;fill-rule:nonzero;stroke:none;stroke-width:1;stroke-linecap:butt;stroke-linejoin:miter;stroke-miterlimit:4;stroke-dasharray:none;stroke-dashoffset:0;stroke-opacity:1;color-rendering:auto;image-rendering:auto;shape-rendering:auto;text-rendering:auto;enable-background:accumulate"
       id="rect4157-8"
       width="5"
       height="5"
       x="377.57144"
       y="507.798" />
    <rect
       y="483.798"
       x="369.57144"
       height="5"
       width="5"
       id="rect4304"
       style="color:#000000;clip-rule:nonzero;display:inline;overflow:visible;visibility:visible;opacity:1;isolation:auto;mix-blend-mode:normal;color-interpolation:sRGB;color-interpolation-filters:linearRGB;solid-color:#000000;solid-opacity:1;fill:#fffbec;fill-opacity:1;fill-rule:nonzero;stroke:none;stroke-width:1;stroke-linecap:butt;stroke-linejoin:miter;stroke-miterlimit:4;stroke-dasharray:none;stroke-dashoffset:0;stroke-opacity:1;color-rendering:auto;image-rendering:auto;shape-rendering:auto;text-rendering:auto;enable-background:accumulate" />
    <rect
       y="491.798"
       x="369.57144"
       height="5"
       width="5"
       id="rect4306"
       style="color:#000000;clip-rule:nonzero;display:inline;overflow:visible;visibility:visible;opacity:1;isolation:auto;mix-blend-mode:normal;color-interpolation:sRGB;color-interpolation-filters:linearRGB;solid-color:#000000;solid-opacity:1;fill:#e8e5dc;fill-opacity:1;fill-rule:nonzero;stroke:none;stroke-width:1;stroke-linecap:butt;stroke-linejoin:miter;stroke-miterlimit:4;stroke-dasharray:none;stroke-dashoffset:0;stroke-opacity:1;color-rendering:auto;image-rendering:auto;shape-rendering:auto;text-rendering:auto;enable-background:accumulate" />
    <path
       style="fill:url(#linearGradient4272);fill-opacity:1;fill-rule:evenodd;stroke:none;stroke-width:1px;stroke-linecap:butt;stroke-linejoin:miter;stroke-opacity:1"
       d="m 412.57143,513.798 -6,4 4,3 6,-4 -4,-3 z"
       id="path4234"
       inkscape:connector-curvature="0" />
    <path
       style="fill:url(#linearGradient4280);fill-opacity:1;fill-rule:evenodd;stroke:none;stroke-width:1px;stroke-linecap:butt;stroke-linejoin:miter;stroke-opacity:1"
       d="m 416.57143,516.798 6,4 4,-3 -6,-4 -4,3 z"
       id="path4232"
       inkscape:connector-curvature="0" />
    <path
       style="fill:url(#linearGradient4256);fill-opacity:1;fill-rule:evenodd;stroke:none;stroke-width:1px;stroke-linecap:butt;stroke-linejoin:miter;stroke-opacity:1"
       d="m 410.57143,521.798 -4,3 6,4 4,-3 -6,-4 z"
       id="path4230"
       inkscape:connector-curvature="0" />
    <path
       style="fill:url(#linearGradient4264);fill-opacity:1;fill-rule:evenodd;stroke:none;stroke-width:1px;stroke-linecap:butt;stroke-linejoin:miter;stroke-opacity:1"
       d="m 416.57143,525.798 4,3 6,-4 -4,-3 -6,4 z"
       id="path4228"
       inkscape:connector-curvature="0" />
    <path
       style="fill:url(#linearGradient4242);fill-opacity:1;fill-rule:evenodd;stroke:none;stroke-width:1px;stroke-linecap:butt;stroke-linejoin:miter;stroke-opacity:1"
       d="m 416.57143,526.798 -4.0918,3.27344 -1.9082,-1.27344 0,1 1.22656,0.81836 4.77344,3.18164 4.77344,-3.18164 1.22656,-0.81836 0,-1 -1.9082,1.27344 -4.0918,-3.27344 z"
       id="path4224"
       inkscape:connector-curvature="0" />
    <path
       style="fill:#bbdefb;fill-opacity:1;fill-rule:evenodd;stroke:none;stroke-width:1px;stroke-linecap:butt;stroke-linejoin:miter;stroke-opacity:1"
       d="m 412.57143,512.798 -6,4 4,3 6,-4 -4,-3 z m 4,3 6,4 4,-3 -6,-4 -4,3 z m -6,5 -4,3 6,4 4,-3 -6,-4 z m 6,4 4,3 6,-4 -4,-3 -6,4 z m 0,1 -4.0918,3.27344 -1.9082,-1.27344 0,1 1.22656,0.81836 4.77344,3.18164 4.77344,-3.18164 1.22656,-0.81836 0,-1 -1.9082,1.27344 -4.0918,-3.27344 z"
       id="path4246"
       inkscape:connector-curvature="0" />
    <rect
       y="483.798"
       x="377.57144"
       height="5"
       width="5"
       id="rect4221"
       style="color:#000000;clip-rule:nonzero;display:inline;overflow:visible;visibility:visible;opacity:1;isolation:auto;mix-blend-mode:normal;color-interpolation:sRGB;color-interpolation-filters:linearRGB;solid-color:#000000;solid-opacity:1;fill:#bbdefb;fill-opacity:1;fill-rule:nonzero;stroke:none;stroke-width:1;stroke-linecap:butt;stroke-linejoin:miter;stroke-miterlimit:4;stroke-dasharray:none;stroke-dashoffset:0;stroke-opacity:1;color-rendering:auto;image-rendering:auto;shape-rendering:auto;text-rendering:auto;enable-background:accumulate" />
  </g>
</svg>
