<?xml version="1.0" encoding="UTF-8" standalone="no"?>
<!-- Created with Inkscape (http://www.inkscape.org/) -->

<svg
   xmlns:dc="http://purl.org/dc/elements/1.1/"
   xmlns:cc="http://creativecommons.org/ns#"
   xmlns:rdf="http://www.w3.org/1999/02/22-rdf-syntax-ns#"
   xmlns:svg="http://www.w3.org/2000/svg"
   xmlns="http://www.w3.org/2000/svg"
   xmlns:xlink="http://www.w3.org/1999/xlink"
   xmlns:sodipodi="http://sodipodi.sourceforge.net/DTD/sodipodi-0.dtd"
   xmlns:inkscape="http://www.inkscape.org/namespaces/inkscape"
   width="64"
   height="64"
   id="svg5453"
   version="1.1"
   inkscape:version="0.91 r13725"
   sodipodi:docname="folder-git.svg"
   viewBox="0 0 64 64">
  <defs
     id="defs5455">
    <linearGradient
       id="linearGradient4174"
       inkscape:collect="always">
      <stop
         id="stop4176"
         offset="0"
         style="stop-color:#000000;stop-opacity:0.67843139" />
      <stop
         id="stop4178"
         offset="1"
         style="stop-color:#000000;stop-opacity:0;" />
    </linearGradient>
    <linearGradient
       inkscape:collect="always"
       id="linearGradient4225">
      <stop
         style="stop-color:#000000;stop-opacity:0.30980393"
         offset="0"
         id="stop4227" />
      <stop
         style="stop-color:#000000;stop-opacity:0;"
         offset="1"
         id="stop4229" />
    </linearGradient>
    <linearGradient
       id="Shadow"
       inkscape:collect="always">
      <stop
         id="stop4186"
         offset="0"
         style="stop-color:#000000;stop-opacity:1;" />
      <stop
         id="stop4188"
         offset="1"
         style="stop-color:#000000;stop-opacity:0;" />
    </linearGradient>
    <radialGradient
       r="1.5"
       fy="42.5"
       fx="4"
       cy="42.5"
       cx="4"
       gradientTransform="matrix(-2.0000003,-2.935184e-6,3.9135795e-6,-2.6666677,397.57126,654.1314)"
       gradientUnits="userSpaceOnUse"
       id="radialGradient4259"
       xlink:href="#Shadow"
       inkscape:collect="always" />
    <linearGradient
       y2="46"
       x2="24"
       y1="42"
       x1="24"
       gradientTransform="translate(394.57142,498.798)"
       gradientUnits="userSpaceOnUse"
       id="linearGradient4257"
       xlink:href="#Shadow"
       inkscape:collect="always" />
    <radialGradient
       r="1.5"
       fy="42.500004"
       fx="44"
       cy="42.500004"
       cx="44"
       gradientTransform="matrix(-5.6193702e-6,2.666668,-2.0000002,-4.214526e-6,528.57169,423.4648)"
       gradientUnits="userSpaceOnUse"
       id="radialGradient4255"
       xlink:href="#Shadow"
       inkscape:collect="always" />
    <linearGradient
       inkscape:collect="always"
       xlink:href="#linearGradient4225"
       id="linearGradient4241"
       x1="467.57117"
       y1="514.79797"
       x2="467.57144"
       y2="527.79797"
       gradientUnits="userSpaceOnUse"
       gradientTransform="translate(-50.99975,1)" />
    <radialGradient
       inkscape:collect="always"
       xlink:href="#linearGradient4174"
       id="radialGradient4256"
       cx="48"
       cy="47.09996"
       fx="48"
       fy="47.09996"
       r="2"
       gradientTransform="translate(363.57168,484.69804)"
       gradientUnits="userSpaceOnUse" />
    <radialGradient
       inkscape:collect="always"
       xlink:href="#linearGradient4174"
       id="radialGradient4271"
       cx="48"
       cy="31"
       fx="48"
       fy="31"
       r="2"
       gradientTransform="matrix(0.99980004,0,0,1,363.58088,484.79799)"
       gradientUnits="userSpaceOnUse" />
    <radialGradient
       inkscape:collect="always"
       xlink:href="#linearGradient4174"
       id="radialGradient4278"
       gradientUnits="userSpaceOnUse"
       gradientTransform="matrix(0.99980004,0,0,1,373.58088,486.79799)"
       cx="48"
       cy="31"
       fx="48"
       fy="31"
       r="2" />
  </defs>
  <sodipodi:namedview
     id="base"
     pagecolor="#ffffff"
     bordercolor="#666666"
     borderopacity="1.0"
     inkscape:pageopacity="0"
     inkscape:pageshadow="2"
     inkscape:zoom="12.234375"
     inkscape:cx="28.378755"
     inkscape:cy="28.80636"
     inkscape:document-units="px"
     inkscape:current-layer="layer1"
     showgrid="true"
     fit-margin-top="0"
     fit-margin-left="0"
     fit-margin-right="0"
     fit-margin-bottom="0"
     inkscape:window-width="2560"
     inkscape:window-height="1017"
     inkscape:window-x="0"
     inkscape:window-y="0"
     inkscape:window-maximized="1"
     inkscape:showpageshadow="false"
     borderlayer="true"
     showguides="true">
    <sodipodi:guide
       position="63,46"
       orientation="-51.999969,0"
       id="guide4101" />
    <inkscape:grid
       type="xygrid"
       id="grid4115" />
    <sodipodi:guide
       position="21.999981,35.999965"
       orientation="20,0"
       id="guide4190" />
    <sodipodi:guide
       position="21.999981,15.999965"
       orientation="0,20"
       id="guide4192" />
    <sodipodi:guide
       position="41.999981,15.999965"
       orientation="-20,0"
       id="guide4194" />
    <sodipodi:guide
       position="41.999981,35.999965"
       orientation="0,-20"
       id="guide4196" />
  </sodipodi:namedview>
  <metadata
     id="metadata5458">
    <rdf:RDF>
      <cc:Work
         rdf:about="">
        <dc:format>image/svg+xml</dc:format>
        <dc:type
           rdf:resource="http://purl.org/dc/dcmitype/StillImage" />
        <dc:title />
      </cc:Work>
    </rdf:RDF>
  </metadata>
  <g
     inkscape:label="Capa 1"
     inkscape:groupmode="layer"
     id="layer1"
     transform="translate(-384.57143,-483.798)">
    <path
       id="path4249"
       d="m 443.57142,540.798 0,4 1,0 c 1.108,0 2,-0.892 2,-2 l 0,-2 -3,0 z"
       style="opacity:0.7;fill:url(#radialGradient4255);fill-opacity:1;stroke:none;stroke-width:2;stroke-linecap:butt;stroke-linejoin:round;stroke-miterlimit:4;stroke-dasharray:none;stroke-opacity:1"
       inkscape:connector-curvature="0" />
    <path
       id="path4251"
       d="m 389.57142,540.798 0,4 54,0 0,-4 z"
       style="opacity:0.7;fill:url(#linearGradient4257);fill-opacity:1;stroke:none;stroke-width:2;stroke-linecap:butt;stroke-linejoin:round;stroke-miterlimit:4;stroke-dasharray:none;stroke-opacity:1"
       inkscape:connector-curvature="0"
       sodipodi:nodetypes="ccccc" />
    <path
       id="path4253"
       d="m 386.57142,540.798 0,2 c 0,1.108 0.892,2 2,2 l 1,0 0,-4 -3,0 z"
       style="opacity:0.7;fill:url(#radialGradient4259);fill-opacity:1;stroke:none;stroke-width:2;stroke-linecap:butt;stroke-linejoin:round;stroke-miterlimit:4;stroke-dasharray:none;stroke-opacity:1"
       inkscape:connector-curvature="0" />
    <path
       style="opacity:1;fill:#455a64;fill-opacity:1;stroke:none;stroke-width:2;stroke-linecap:butt;stroke-linejoin:round;stroke-miterlimit:4;stroke-dasharray:none;stroke-opacity:1"
       d="m 417.57137,496.7981 26.00009,0 c 1.66196,0 2.99995,1.3379 2.99995,2.9999 l 0,6 c 0,1.662 -1.33799,2.9999 -2.99995,2.9999 l -26.00009,0 c -1.66197,0 -2.99995,-1.3379 -2.99995,-2.9999 l 0,-6 c 0,-1.662 1.33798,-2.9999 2.99995,-2.9999 z"
       id="rect4194"
       inkscape:connector-curvature="0"
       sodipodi:nodetypes="sssssssss" />
    <path
       style="opacity:1;fill:#e8e5dc;fill-opacity:1;stroke:none;stroke-width:2;stroke-linecap:butt;stroke-linejoin:round;stroke-miterlimit:4;stroke-dasharray:none;stroke-opacity:1"
       d="m 418.57141,498.798 24,0 c 1.108,0 2,0.892 2,2 l 0,3 c 0,1.108 -0.892,2 -2,2 l -24,0 c -1.108,0 -2,-0.892 -2,-2 l 0,-3 c 0,-1.108 0.892,-2 2,-2 z"
       id="rect4207"
       inkscape:connector-curvature="0"
       sodipodi:nodetypes="sssssssss" />
    <path
       style="opacity:1;fill:#fffbec;fill-opacity:1;stroke:none;stroke-width:2;stroke-linecap:butt;stroke-linejoin:round;stroke-miterlimit:4;stroke-dasharray:none;stroke-opacity:1"
       d="m 417.57141,499.798 25,0 c 0.55401,0 1,0.446 1,1 l 0,4 c 0,0.554 -0.44599,1 -1,1 l -25,0 c -0.55399,0 -1,-0.446 -1,-1 l 0,-4 c 0,-0.554 0.44601,-1 1,-1 z"
       id="rect4209"
       inkscape:connector-curvature="0"
       sodipodi:nodetypes="sssssssss" />
    <path
       inkscape:connector-curvature="0"
       style="opacity:1;fill:#546e7a;fill-opacity:1;stroke:none;stroke-width:2;stroke-linecap:butt;stroke-linejoin:round;stroke-miterlimit:4;stroke-dasharray:none;stroke-opacity:1"
       d="m 389.57142,493.798 c -1.66197,0 -3,1.338 -3,3 l 0,43 c 0,1.662 1.33803,3 3,3 l 27,0 27,0 c 1.66197,0 3,-1.338 3,-3 l 0,-34 c 0,-1.662 -1.33803,-3 -3,-3 l -24,0 -2,-8 c -0.13437,-0.5375 -0.446,-1 -1,-1 l -18,0 -9,0 z"
       id="path4220" />
    <path
       inkscape:connector-curvature="0"
       style="opacity:1;fill:#607d8b;fill-opacity:1;stroke:none;stroke-width:2;stroke-linecap:butt;stroke-linejoin:round;stroke-miterlimit:4;stroke-dasharray:none;stroke-opacity:1"
       d="m 389.57142,494.798 c -1.108,0 -2,0.892 -2,2 l 0,43 c 0,1.108 0.892,2 2,2 l 27,0 27,0 c 1.108,0 2,-0.892 2,-2 l 0,-34 c 0,-1.108 -0.892,-2 -2,-2 l -25,0 -2,-8 c -0.13437,-0.5375 -0.446,-1 -1,-1 l -20,0 -6,0 z"
       id="path4223" />
    <rect
       style="color:#000000;clip-rule:nonzero;display:inline;overflow:visible;visibility:visible;opacity:1;isolation:auto;mix-blend-mode:normal;color-interpolation:sRGB;color-interpolation-filters:linearRGB;solid-color:#000000;solid-opacity:1;fill:#607d8b;fill-opacity:1;fill-rule:nonzero;stroke:none;stroke-width:1;stroke-linecap:butt;stroke-linejoin:miter;stroke-miterlimit:4;stroke-dasharray:none;stroke-dashoffset:0;stroke-opacity:1;color-rendering:auto;image-rendering:auto;shape-rendering:auto;text-rendering:auto;enable-background:accumulate"
       id="rect4157-85"
       width="5"
       height="5"
       x="377.57141"
       y="491.79797" />
    <rect
       style="color:#000000;clip-rule:nonzero;display:inline;overflow:visible;visibility:visible;opacity:1;isolation:auto;mix-blend-mode:normal;color-interpolation:sRGB;color-interpolation-filters:linearRGB;solid-color:#000000;solid-opacity:1;fill:#546e7a;fill-opacity:1;fill-rule:nonzero;stroke:none;stroke-width:1;stroke-linecap:butt;stroke-linejoin:miter;stroke-miterlimit:4;stroke-dasharray:none;stroke-dashoffset:0;stroke-opacity:1;color-rendering:auto;image-rendering:auto;shape-rendering:auto;text-rendering:auto;enable-background:accumulate"
       id="rect4157-5-3"
       width="5"
       height="5"
       x="377.57141"
       y="499.79797" />
    <rect
       style="color:#000000;clip-rule:nonzero;display:inline;overflow:visible;visibility:visible;opacity:1;isolation:auto;mix-blend-mode:normal;color-interpolation:sRGB;color-interpolation-filters:linearRGB;solid-color:#000000;solid-opacity:1;fill:#455a64;fill-opacity:1;fill-rule:nonzero;stroke:none;stroke-width:1;stroke-linecap:butt;stroke-linejoin:miter;stroke-miterlimit:4;stroke-dasharray:none;stroke-dashoffset:0;stroke-opacity:1;color-rendering:auto;image-rendering:auto;shape-rendering:auto;text-rendering:auto;enable-background:accumulate"
       id="rect4157-8-7"
       width="5"
       height="5"
       x="377.57141"
       y="507.79797" />
    <rect
       y="483.79797"
       x="369.57141"
       height="5"
       width="5"
       id="rect4304"
       style="color:#000000;clip-rule:nonzero;display:inline;overflow:visible;visibility:visible;opacity:1;isolation:auto;mix-blend-mode:normal;color-interpolation:sRGB;color-interpolation-filters:linearRGB;solid-color:#000000;solid-opacity:1;fill:#fffbec;fill-opacity:1;fill-rule:nonzero;stroke:none;stroke-width:1;stroke-linecap:butt;stroke-linejoin:miter;stroke-miterlimit:4;stroke-dasharray:none;stroke-dashoffset:0;stroke-opacity:1;color-rendering:auto;image-rendering:auto;shape-rendering:auto;text-rendering:auto;enable-background:accumulate" />
    <rect
       y="491.79797"
       x="369.57141"
       height="5"
       width="5"
       id="rect4306"
       style="color:#000000;clip-rule:nonzero;display:inline;overflow:visible;visibility:visible;opacity:1;isolation:auto;mix-blend-mode:normal;color-interpolation:sRGB;color-interpolation-filters:linearRGB;solid-color:#000000;solid-opacity:1;fill:#e8e5dc;fill-opacity:1;fill-rule:nonzero;stroke:none;stroke-width:1;stroke-linecap:butt;stroke-linejoin:miter;stroke-miterlimit:4;stroke-dasharray:none;stroke-dashoffset:0;stroke-opacity:1;color-rendering:auto;image-rendering:auto;shape-rendering:auto;text-rendering:auto;enable-background:accumulate" />
    <rect
       y="483.79797"
       x="377.57141"
       height="5"
       width="5"
       id="rect4250"
       style="color:#000000;clip-rule:nonzero;display:inline;overflow:visible;visibility:visible;opacity:1;isolation:auto;mix-blend-mode:normal;color-interpolation:sRGB;color-interpolation-filters:linearRGB;solid-color:#000000;solid-opacity:1;fill:#cfd8dc;fill-opacity:1;fill-rule:nonzero;stroke:none;stroke-width:1;stroke-linecap:butt;stroke-linejoin:miter;stroke-miterlimit:4;stroke-dasharray:none;stroke-dashoffset:0;stroke-opacity:1;color-rendering:auto;image-rendering:auto;shape-rendering:auto;text-rendering:auto;enable-background:accumulate" />
    <path
       style="opacity:1;fill:url(#radialGradient4256);fill-opacity:1;stroke:none;stroke-width:0.09999996;stroke-linecap:square;stroke-linejoin:miter;stroke-miterlimit:4;stroke-dasharray:none;stroke-dashoffset:0;stroke-opacity:1"
       d="m 412.57168,528.798 -2,0 0,1.27148 a 2.0000002,2.0000002 0 0 0 -1,1.72852 2.0000002,2.0000002 0 0 0 2,2 2.0000002,2.0000002 0 0 0 2,-2 2.0000002,2.0000002 0 0 0 -1,-1.73047 l 0,-1.26953 z"
       id="path4246"
       inkscape:connector-curvature="0" />
    <path
       style="opacity:1;fill:url(#linearGradient4241);fill-opacity:1;stroke:none;stroke-width:0.09999996;stroke-linecap:square;stroke-linejoin:miter;stroke-miterlimit:4;stroke-dasharray:none;stroke-dashoffset:0;stroke-opacity:1"
       d="m 421.57168,515.798 a 2,2 0 0 1 0.15625,0.008 2.0000002,2.0000002 0 0 0 -0.15625,-0.008 z m -0.15625,0.008 a 2.0000002,2.0000002 0 0 0 -0.14062,0.0156 2,2 0 0 1 0.14062,-0.0156 z m 0.45313,0.0156 a 2,2 0 0 1 0.0625,0.01 2.0000002,2.0000002 0 0 0 -0.0625,-0.01 z m -0.65625,0.01 a 2.0000002,2.0000002 0 0 0 -0.10547,0.0234 2,2 0 0 1 0.10547,-0.0234 z m 0.82421,0.0234 a 2,2 0 0 1 0.10547,0.0273 2.0000002,2.0000002 0 0 0 -0.10547,-0.0273 z m -1.03515,0.0273 a 2.0000002,2.0000002 0 0 0 -0.0918,0.0312 2,2 0 0 1 0.0918,-0.0312 z m 1.23242,0.0312 a 2,2 0 0 1 0.082,0.0312 2.0000002,2.0000002 0 0 0 -0.082,-0.0312 z m -1.40625,0.0312 a 2.0000002,2.0000002 0 0 0 -0.10547,0.0449 2,2 0 0 1 0.10547,-0.0449 z m 1.59375,0.0449 a 2,2 0 0 1 0.0781,0.0391 2.0000002,2.0000002 0 0 0 -0.0781,-0.0391 z m -1.77734,0.0391 a 2.0000002,2.0000002 0 0 0 -0.0918,0.0508 2,2 0 0 1 0.0918,-0.0508 z m 1.94726,0.0508 a 2,2 0 0 1 0.0918,0.0566 2.0000002,2.0000002 0 0 0 -0.0918,-0.0566 z m 0.14844,0.0977 a 2,2 0 0 1 0.10156,0.0762 2.0000002,2.0000002 0 0 0 -0.10156,-0.0762 z m -2.4375,0.0762 a 2.0000002,2.0000002 0 0 0 -0.0684,0.0605 2,2 0 0 1 0.0684,-0.0605 z m 2.60742,0.0605 a 2,2 0 0 1 0.0762,0.0703 2.0000002,2.0000002 0 0 0 -0.0762,-0.0703 z m -2.75195,0.0703 a 2.0000002,2.0000002 0 0 0 -0.0703,0.0762 2,2 0 0 1 0.0703,-0.0762 z m 2.89844,0.0762 a 2,2 0 0 1 0.0605,0.0684 2.0000002,2.0000002 0 0 0 -0.0605,-0.0684 z m -3.0293,0.0684 a 2.0000002,2.0000002 0 0 0 -0.0762,0.10156 2,2 0 0 1 0.0762,-0.10156 z m -0.11719,0.1582 a 2.0000002,2.0000002 0 0 0 -0.0566,0.0918 2,2 0 0 1 0.0566,-0.0918 z m 3.38086,0.0918 a 2,2 0 0 1 0.0508,0.0918 2.0000002,2.0000002 0 0 0 -0.0508,-0.0918 z m -3.48828,0.0918 a 2.0000002,2.0000002 0 0 0 -0.0391,0.0781 2,2 0 0 1 0.0391,-0.0781 z m 3.57812,0.0781 a 2,2 0 0 1 0.0449,0.10547 2.0000002,2.0000002 0 0 0 -0.0449,-0.10547 z m -3.66211,0.10547 a 2.0000002,2.0000002 0 0 0 -0.0312,0.082 2,2 0 0 1 0.0312,-0.082 z m 3.73829,0.082 a 2,2 0 0 1 0.0312,0.0918 2.0000002,2.0000002 0 0 0 -0.0312,-0.0918 z m -3.80079,0.0918 a 2.0000002,2.0000002 0 0 0 -0.0273,0.10547 2,2 0 0 1 0.0273,-0.10547 z m 3.85938,0.10547 a 2,2 0 0 1 0.0234,0.10546 2.0000002,2.0000002 0 0 0 -0.0234,-0.10546 z m -3.91016,0.10546 a 2.0000002,2.0000002 0 0 0 -0.01,0.0625 2,2 0 0 1 0.01,-0.0625 z m 3.94336,0.0625 a 2,2 0 0 1 0.0156,0.14063 2.0000002,2.0000002 0 0 0 -0.0156,-0.14063 z m -12.97656,0.0273 0,11.26953 2,0 c 0,-1.662 1.338,-3 3,-3 l 1,0 1.5,0 c 2.493,0 4.5,-2.007 4.5,-4.5 l 0,-1.77148 a 2,2 0 0 1 -1,0.27148 2,2 0 0 1 -1,-0.26953 l 0,1.26953 c 0,1.662 -1.338,3 -3,3 l -1,0 -1.5,0 c -0.92705,0 -1.78557,0.27901 -2.5,0.75586 l 0,-7.02539 a 2,2 0 0 1 -0.0937,0.0527 2,2 0 0 1 -0.18164,0.0801 2,2 0 0 1 -0.18945,0.0644 2,2 0 0 1 -0.19532,0.043 2,2 0 0 1 -0.19921,0.0234 2,2 0 0 1 -0.14063,0.006 2,2 0 0 1 -0.19922,-0.01 2,2 0 0 1 -0.19726,-0.0293 2,2 0 0 1 -0.19532,-0.0508 2,2 0 0 1 -0.1875,-0.0684 2,2 0 0 1 -0.17968,-0.0859 2,2 0 0 1 -0.041,-0.0254 z m 9.00781,0.11328 a 2.0000002,2.0000002 0 0 0 -0.008,0.15625 2,2 0 0 1 0.008,-0.15625 z m 3.99219,0.15625 a 2,2 0 0 1 -0.008,0.14258 2.0000002,2.0000002 0 0 0 0.008,-0.14258 z m -3.99219,0.15625 a 2.0000002,2.0000002 0 0 0 0.0137,0.11719 2,2 0 0 1 -0.0137,-0.11719 z m 3.97461,0.0996 a 2,2 0 0 1 -0.01,0.0664 2.0000002,2.0000002 0 0 0 0.01,-0.0664 z m -0.0371,0.20117 a 2,2 0 0 1 -0.0176,0.0703 2.0000002,2.0000002 0 0 0 0.0176,-0.0703 z m -3.85937,0.11524 a 2.0000002,2.0000002 0 0 0 0.0215,0.0684 2,2 0 0 1 -0.0215,-0.0684 z m 3.80469,0.0703 a 2,2 0 0 1 -0.0234,0.0684 2.0000002,2.0000002 0 0 0 0.0234,-0.0684 z"
       id="path4267"
       inkscape:connector-curvature="0" />
    <path
       style="opacity:1;fill:url(#radialGradient4271);fill-opacity:1;stroke:none;stroke-width:0.09999996;stroke-linecap:square;stroke-linejoin:miter;stroke-miterlimit:4;stroke-dasharray:none;stroke-dashoffset:0;stroke-opacity:1"
       d="m 411.57128,513.798 a 1.9996003,2.0000002 0 0 0 -0.15622,0.008 1.9996001,2 0 0 0 -0.14059,0.0156 1.9996003,2.0000002 0 0 0 -0.0625,0.01 1.9996001,2 0 0 0 -0.10545,0.0234 1.9996003,2.0000002 0 0 0 -0.10545,0.0273 1.9996001,2 0 0 0 -0.0918,0.0312 1.9996003,2.0000002 0 0 0 -0.082,0.0312 1.9996001,2 0 0 0 -0.10545,0.0449 1.9996003,2.0000002 0 0 0 -0.0781,0.0391 1.9996001,2 0 0 0 -0.0918,0.0508 1.9996003,2.0000002 0 0 0 -0.0918,0.0566 1.9996003,2.0000002 0 0 0 -0.0566,0.041 1.9996003,2.0000002 0 0 0 -0.10154,0.0762 1.9996001,2 0 0 0 -0.0684,0.0605 1.9996003,2.0000002 0 0 0 -0.0762,0.0703 1.9996001,2 0 0 0 -0.0703,0.0762 1.9996003,2.0000002 0 0 0 -0.0606,0.0684 1.9996001,2 0 0 0 -0.0762,0.10156 1.9996003,2.0000002 0 0 0 -0.041,0.0566 1.9996001,2 0 0 0 -0.0566,0.0918 1.9996003,2.0000002 0 0 0 -0.0508,0.0918 1.9996001,2 0 0 0 -0.0391,0.0781 1.9996003,2.0000002 0 0 0 -0.0449,0.10547 1.9996001,2 0 0 0 -0.0312,0.082 1.9996003,2.0000002 0 0 0 -0.0312,0.0918 1.9996001,2 0 0 0 -0.0273,0.10547 1.9996003,2.0000002 0 0 0 -0.0234,0.10546 1.9996001,2 0 0 0 -0.01,0.0625 1.9996003,2.0000002 0 0 0 -0.0156,0.14063 1.9996001,2 0 0 0 -0.008,0.15625 1.9996003,2.0000002 0 0 0 0.008,0.15625 1.9996001,2 0 0 0 0.0137,0.11719 1.9996003,2.0000002 0 0 0 0.0176,0.11133 1.9996003,2.0000002 0 0 0 0.008,0.0371 1.9996003,2.0000002 0 0 0 0.0391,0.1504 1.9996001,2 0 0 0 0.0293,0.0898 1.9996003,2.0000002 0 0 0 0.0312,0.082 1.9996001,2 0 0 0 0.0391,0.0898 1.9996003,2.0000002 0 0 0 0.0547,0.11329 1.9996003,2.0000002 0 0 0 0.0215,0.0371 1.9996003,2.0000002 0 0 0 0.0781,0.12891 1.9996003,2.0000002 0 0 0 0.0352,0.0488 1.9996003,2.0000002 0 0 0 0.0898,0.11914 1.9996003,2.0000002 0 0 0 0.0195,0.0215 1.9996003,2.0000002 0 0 0 0.11716,0.12305 1.9996003,2.0000002 0 0 0 0.0234,0.0234 1.9996003,2.0000002 0 0 0 0.11912,0.10547 1.9996003,2.0000002 0 0 0 0.0508,0.0371 1.9996003,2.0000002 0 0 0 0.11522,0.082 1.9996003,2.0000002 0 0 0 0.0898,0.0566 1.9996001,2 0 0 0 0.041,0.0254 1.9996001,2 0 0 0 0.17965,0.0859 1.9996001,2 0 0 0 0.18746,0.0684 1.9996001,2 0 0 0 0.19528,0.0508 1.9996001,2 0 0 0 0.19722,0.0293 1.9996001,2 0 0 0 0.19918,0.01 1.9996001,2 0 0 0 0.1406,-0.006 1.9996001,2 0 0 0 0.19917,-0.0234 1.9996001,2 0 0 0 0.19528,-0.043 1.9996001,2 0 0 0 0.18942,-0.0644 1.9996001,2 0 0 0 0.1816,-0.0801 1.9996001,2 0 0 0 0.0937,-0.0527 1.9996003,2.0000002 0 0 0 0.0117,-0.008 1.9996003,2.0000002 0 0 0 0.15231,-0.0996 1.9996003,2.0000002 0 0 0 0.008,-0.006 1.9996003,2.0000002 0 0 0 0.12887,-0.0996 1.9996001,2 0 0 0 0.0449,-0.041 1.9996003,2.0000002 0 0 0 0.10545,-0.10351 1.9996003,2.0000002 0 0 0 0.0274,-0.0312 1.9996003,2.0000002 0 0 0 0.0898,-0.10352 1.9996001,2 0 0 0 0.0508,-0.0664 1.9996003,2.0000002 0 0 0 0.0762,-0.11523 1.9996003,2.0000002 0 0 0 0.0176,-0.0293 1.9996003,2.0000002 0 0 0 0.0801,-0.14648 1.9996003,2.0000002 0 0 0 0.0195,-0.0391 1.9996003,2.0000002 0 0 0 0.0488,-0.11719 1.9996001,2 0 0 0 0.0332,-0.0918 1.9996003,2.0000002 0 0 0 0.0293,-0.0937 1.9996001,2 0 0 0 0.0234,-0.0898 1.9996003,2.0000002 0 0 0 0.0234,-0.11914 1.9996001,2 0 0 0 0.0117,-0.0781 1.9996003,2.0000002 0 0 0 0.01,-0.10547 1.9996001,2 0 0 0 0.008,-0.14648 1.9996003,2.0000002 0 0 0 -0.008,-0.15625 1.9996001,2 0 0 0 -0.0156,-0.14063 1.9996003,2.0000002 0 0 0 -0.01,-0.0625 1.9996001,2 0 0 0 -0.0234,-0.10546 1.9996003,2.0000002 0 0 0 -0.0273,-0.10547 1.9996001,2 0 0 0 -0.0312,-0.0918 1.9996003,2.0000002 0 0 0 -0.0312,-0.082 1.9996001,2 0 0 0 -0.0449,-0.10547 1.9996003,2.0000002 0 0 0 -0.0391,-0.0781 1.9996001,2 0 0 0 -0.0508,-0.0918 1.9996003,2.0000002 0 0 0 -0.0566,-0.0918 1.9996003,2.0000002 0 0 0 -0.041,-0.0566 1.9996003,2.0000002 0 0 0 -0.0762,-0.10156 1.9996001,2 0 0 0 -0.0605,-0.0684 1.9996003,2.0000002 0 0 0 -0.0703,-0.0762 1.9996001,2 0 0 0 -0.0762,-0.0703 1.9996003,2.0000002 0 0 0 -0.0684,-0.0605 1.9996001,2 0 0 0 -0.10154,-0.0762 1.9996003,2.0000002 0 0 0 -0.0566,-0.041 1.9996001,2 0 0 0 -0.0918,-0.0566 1.9996003,2.0000002 0 0 0 -0.0918,-0.0508 1.9996001,2 0 0 0 -0.0781,-0.0391 1.9996003,2.0000002 0 0 0 -0.10545,-0.0449 1.9996001,2 0 0 0 -0.082,-0.0312 1.9996003,2.0000002 0 0 0 -0.0918,-0.0312 1.9996001,2 0 0 0 -0.10545,-0.0273 1.9996003,2.0000002 0 0 0 -0.10544,-0.0234 1.9996001,2 0 0 0 -0.0625,-0.01 1.9996003,2.0000002 0 0 0 -0.1406,-0.0156 1.9996001,2 0 0 0 -0.15622,-0.008 z"
       id="path4231"
       inkscape:connector-curvature="0" />
    <path
       id="path4276"
       d="m 421.57128,515.798 a 1.9996003,2.0000002 0 0 0 -0.15622,0.008 1.9996001,2 0 0 0 -0.14059,0.0156 1.9996003,2.0000002 0 0 0 -0.0625,0.01 1.9996001,2 0 0 0 -0.10545,0.0234 1.9996003,2.0000002 0 0 0 -0.10545,0.0273 1.9996001,2 0 0 0 -0.0918,0.0312 1.9996003,2.0000002 0 0 0 -0.082,0.0312 1.9996001,2 0 0 0 -0.10545,0.0449 1.9996003,2.0000002 0 0 0 -0.0781,0.0391 1.9996001,2 0 0 0 -0.0918,0.0508 1.9996003,2.0000002 0 0 0 -0.0918,0.0566 1.9996003,2.0000002 0 0 0 -0.0566,0.041 1.9996003,2.0000002 0 0 0 -0.10154,0.0762 1.9996001,2 0 0 0 -0.0684,0.0605 1.9996003,2.0000002 0 0 0 -0.0762,0.0703 1.9996001,2 0 0 0 -0.0703,0.0762 1.9996003,2.0000002 0 0 0 -0.0606,0.0684 1.9996001,2 0 0 0 -0.0762,0.10156 1.9996003,2.0000002 0 0 0 -0.041,0.0566 1.9996001,2 0 0 0 -0.0566,0.0918 1.9996003,2.0000002 0 0 0 -0.0508,0.0918 1.9996001,2 0 0 0 -0.0391,0.0781 1.9996003,2.0000002 0 0 0 -0.0449,0.10547 1.9996001,2 0 0 0 -0.0312,0.082 1.9996003,2.0000002 0 0 0 -0.0312,0.0918 1.9996001,2 0 0 0 -0.0273,0.10547 1.9996003,2.0000002 0 0 0 -0.0234,0.10546 1.9996001,2 0 0 0 -0.01,0.0625 1.9996003,2.0000002 0 0 0 -0.0156,0.14063 1.9996001,2 0 0 0 -0.008,0.15625 1.9996003,2.0000002 0 0 0 0.008,0.15625 1.9996001,2 0 0 0 0.0137,0.11719 1.9996003,2.0000002 0 0 0 0.0176,0.11133 1.9996003,2.0000002 0 0 0 0.008,0.0371 1.9996003,2.0000002 0 0 0 0.0391,0.1504 1.9996001,2 0 0 0 0.0293,0.0898 1.9996003,2.0000002 0 0 0 0.0312,0.082 1.9996001,2 0 0 0 0.0391,0.0898 1.9996003,2.0000002 0 0 0 0.0547,0.11329 1.9996003,2.0000002 0 0 0 0.0215,0.0371 1.9996003,2.0000002 0 0 0 0.0781,0.12891 1.9996003,2.0000002 0 0 0 0.0352,0.0488 1.9996003,2.0000002 0 0 0 0.0898,0.11914 1.9996003,2.0000002 0 0 0 0.0195,0.0215 1.9996003,2.0000002 0 0 0 0.11716,0.12305 1.9996003,2.0000002 0 0 0 0.0234,0.0234 1.9996003,2.0000002 0 0 0 0.11912,0.10547 1.9996003,2.0000002 0 0 0 0.0508,0.0371 1.9996003,2.0000002 0 0 0 0.11522,0.082 1.9996003,2.0000002 0 0 0 0.0898,0.0566 1.9996001,2 0 0 0 0.041,0.0254 1.9996001,2 0 0 0 0.17965,0.0859 1.9996001,2 0 0 0 0.18746,0.0684 1.9996001,2 0 0 0 0.19528,0.0508 1.9996001,2 0 0 0 0.19722,0.0293 1.9996001,2 0 0 0 0.19918,0.01 1.9996001,2 0 0 0 0.1406,-0.006 1.9996001,2 0 0 0 0.19917,-0.0234 1.9996001,2 0 0 0 0.19528,-0.043 1.9996001,2 0 0 0 0.18942,-0.0644 1.9996001,2 0 0 0 0.1816,-0.0801 1.9996001,2 0 0 0 0.0937,-0.0527 1.9996003,2.0000002 0 0 0 0.0117,-0.008 1.9996003,2.0000002 0 0 0 0.15231,-0.0996 1.9996003,2.0000002 0 0 0 0.008,-0.006 1.9996003,2.0000002 0 0 0 0.12887,-0.0996 1.9996001,2 0 0 0 0.0449,-0.041 1.9996003,2.0000002 0 0 0 0.10545,-0.10351 1.9996003,2.0000002 0 0 0 0.0274,-0.0312 1.9996003,2.0000002 0 0 0 0.0898,-0.10352 1.9996001,2 0 0 0 0.0508,-0.0664 1.9996003,2.0000002 0 0 0 0.0762,-0.11523 1.9996003,2.0000002 0 0 0 0.0176,-0.0293 1.9996003,2.0000002 0 0 0 0.0801,-0.14648 1.9996003,2.0000002 0 0 0 0.0195,-0.0391 1.9996003,2.0000002 0 0 0 0.0488,-0.11719 1.9996001,2 0 0 0 0.0332,-0.0918 1.9996003,2.0000002 0 0 0 0.0293,-0.0937 1.9996001,2 0 0 0 0.0234,-0.0898 1.9996003,2.0000002 0 0 0 0.0234,-0.11914 1.9996001,2 0 0 0 0.0117,-0.0781 1.9996003,2.0000002 0 0 0 0.01,-0.10547 1.9996001,2 0 0 0 0.008,-0.14648 1.9996003,2.0000002 0 0 0 -0.008,-0.15625 1.9996001,2 0 0 0 -0.0156,-0.14063 1.9996003,2.0000002 0 0 0 -0.01,-0.0625 1.9996001,2 0 0 0 -0.0234,-0.10546 1.9996003,2.0000002 0 0 0 -0.0273,-0.10547 1.9996001,2 0 0 0 -0.0312,-0.0918 1.9996003,2.0000002 0 0 0 -0.0312,-0.082 1.9996001,2 0 0 0 -0.0449,-0.10547 1.9996003,2.0000002 0 0 0 -0.0391,-0.0781 1.9996001,2 0 0 0 -0.0508,-0.0918 1.9996003,2.0000002 0 0 0 -0.0566,-0.0918 1.9996003,2.0000002 0 0 0 -0.041,-0.0566 1.9996003,2.0000002 0 0 0 -0.0762,-0.10156 1.9996001,2 0 0 0 -0.0605,-0.0684 1.9996003,2.0000002 0 0 0 -0.0703,-0.0762 1.9996001,2 0 0 0 -0.0762,-0.0703 1.9996003,2.0000002 0 0 0 -0.0684,-0.0605 1.9996001,2 0 0 0 -0.10154,-0.0762 1.9996003,2.0000002 0 0 0 -0.0566,-0.041 1.9996001,2 0 0 0 -0.0918,-0.0566 1.9996003,2.0000002 0 0 0 -0.0918,-0.0508 1.9996001,2 0 0 0 -0.0781,-0.0391 1.9996003,2.0000002 0 0 0 -0.10545,-0.0449 1.9996001,2 0 0 0 -0.082,-0.0312 1.9996003,2.0000002 0 0 0 -0.0918,-0.0312 1.9996001,2 0 0 0 -0.10545,-0.0273 1.9996003,2.0000002 0 0 0 -0.10544,-0.0234 1.9996001,2 0 0 0 -0.0625,-0.01 1.9996003,2.0000002 0 0 0 -0.1406,-0.0156 1.9996001,2 0 0 0 -0.15622,-0.008 z"
       style="opacity:1;fill:url(#radialGradient4278);fill-opacity:1;stroke:none;stroke-width:0.09999996;stroke-linecap:square;stroke-linejoin:miter;stroke-miterlimit:4;stroke-dasharray:none;stroke-dashoffset:0;stroke-opacity:1"
       inkscape:connector-curvature="0" />
    <path
       style="opacity:1;fill:#cfd8dc;fill-opacity:1;stroke:none;stroke-width:0.09999996;stroke-linecap:square;stroke-linejoin:miter;stroke-miterlimit:4;stroke-dasharray:none;stroke-dashoffset:0;stroke-opacity:1"
       d="m 411.57168,512.798 a 2.0000002,2.0000002 0 0 0 -2,2 2.0000002,2.0000002 0 0 0 1,1.73047 l 0,12.54101 a 2.0000002,2.0000002 0 0 0 -1,1.72852 2.0000002,2.0000002 0 0 0 2,2 2.0000002,2.0000002 0 0 0 2,-2 2.0000002,2.0000002 0 0 0 -1,-1.73047 l 0,-1.26953 c 0,-1.662 1.338,-3 3,-3 l 1,0 1.5,0 c 2.493,0 4.5,-2.007 4.5,-4.5 l 0,-1.77148 a 2.0000002,2.0000002 0 0 0 1,-1.72852 2.0000002,2.0000002 0 0 0 -2,-2 2.0000002,2.0000002 0 0 0 -2,2 2.0000002,2.0000002 0 0 0 1,1.72852 l 0,1.27148 c 0,1.662 -1.338,3 -3,3 l -1,0 -1.5,0 c -0.92705,0 -1.78557,0.27901 -2.5,0.75586 l 0,-7.02539 a 2.0000002,2.0000002 0 0 0 1,-1.73047 2.0000002,2.0000002 0 0 0 -2,-2 z"
       id="path4204"
       inkscape:connector-curvature="0" />
  </g>
</svg>
