<svg xmlns="http://www.w3.org/2000/svg" width="48" height="48" viewBox="0 0 13.546666 13.546668">
 <g transform="translate(38.119153,-397.84494)">
  <g transform="matrix(0.28222225,0,0,0.28222225,-38.076192,397.93651)">
   <g transform="matrix(0.99297771,0,0,0.99765924,-361.33887,-433.51974)">
    <text y="716.65" x="-288.57" font-family="DejaVu Sans" word-spacing="0" line-height="125%" letter-spacing="0" font-size="40"><tspan y="716.65" x="-288.57"/>
    </text>
    <g transform="matrix(0.91551996,0,0,0.91122389,-55.685589,132.19501)">
     <path d="m 496.39492,372.42592 0,-1.1906" style="fill:none" stroke="#27ae60" stroke-width="0.08"/>
     <path d="m 497.94269,372.42592 0,-1.1906" style="fill:none" stroke="#27ae60" stroke-width="0.08"/>
     <path d="m 499.49047,372.42592 0,-1.1906" style="fill:none" stroke="#27ae60" stroke-width="0.08"/>
     <path d="m 501.03824,372.42592 0,-1.1906" style="fill:none" stroke="#27ae60" stroke-width="0.08"/>
     <path d="m 482.46499,372.42592 0,-1.1906" style="fill:none" stroke="#27ae60" stroke-width="0.08"/>
     <path d="m 480.91721,372.42592 0,-1.1906" style="fill:none" stroke="#27ae60" stroke-width="0.08"/>
     <path d="m 479.36944,372.42592 0,-1.1906" style="fill:none" stroke="#27ae60" stroke-width="0.08"/>
     <path d="m 462.52944,346.60934 0,25.87387 44,0 -44,-25.87387 z m 6.67493,11.89604 11.91352,7.00421 -11.91352,0.0919 0,-7.09606 z" style="fill:#2ecc71"/>
     <path d="m 488.16455,355.78275 c 0,0 7.31784,17.28493 11.03807,23.72855 1.35904,2.35394 3.37355,-8.49664 1.71851,-14.67336 -1.25433,-4.68122 -8.26204,-11.96342 -8.26204,-11.96342 z" style="fill:#ecf0f1"/>
     <path d="m 477.82167,372.42592 0,-1.1906" style="fill:none" stroke="#27ae60" stroke-width="0.08"/>
     <path d="m 490.49209,355.58536 c 0,0 -7.31784,17.28492 -11.03808,23.72856 -1.35903,2.35392 -3.37354,-8.49665 -1.71851,-14.67337 1.25434,-4.68123 8.26204,-11.96343 8.26204,-11.96343 z" style="fill:#ecf0f1"/>
     <path transform="matrix(0.09253473,0,0,0.09253473,374.43699,322.99007)" d="m 1277.1429,318.07648 c 0,20.51343 -16.6295,37.14285 -37.1429,37.14285 -20.5134,0 -37.1429,-16.62942 -37.1429,-37.14285 0,-20.51344 16.6295,-37.14286 37.1429,-37.14286 20.5134,0 37.1429,16.62942 37.1429,37.14286 z" style="fill:#ecf0f1"/>
     <path d="m 478.48418,335.84002 c -1.59248,0.005 -3.23362,0.64302 -4.71059,2.26132 -3.45187,3.78217 -0.43754,11.40376 3.43535,14.52795 2.21902,1.79006 8.57409,0.4458 8.5508,0.16194 -0.26003,-3.16931 2.81256,-3.63161 3.22135,-3.98478 0.22583,-0.19507 -2.16236,-3.69039 -2.76158,-6.94588 -0.45828,-2.48985 -3.96363,-6.03181 -7.73533,-6.02055 z m 0.17352,3.99057 c 1.88853,0.0578 4.39816,1.73708 5.12988,3.37173 0.46596,1.04095 1.27574,4.37178 -0.0925,5.68221 -1.05808,1.01335 -3.24285,0.79248 -4.39251,-0.11567 -2.27162,-1.79442 -3.97858,-6.65134 -2.23818,-8.39175 0.40242,-0.4024 0.96382,-0.56577 1.59335,-0.54652 z" style="fill:#2980b9"/>
     <path d="m 499.85971,335.84002 c -3.77168,-0.0113 -7.27993,3.5307 -7.73822,6.02055 -0.59921,3.25549 -2.98452,6.75081 -2.75869,6.94588 0.4088,0.35317 3.47849,0.81547 3.21848,3.98478 -0.0233,0.28386 6.33465,1.62812 8.55368,-0.16194 3.87289,-3.12419 6.88432,-10.74578 3.43246,-14.52795 -1.47697,-1.6183 -3.11522,-2.25656 -4.70771,-2.26132 z m 0.33833,3.99057 c 0.62951,-0.0192 1.18803,0.14412 1.59044,0.54652 1.7404,1.74041 0.0363,6.59733 -2.23529,8.39175 -1.14964,0.90815 -3.33443,1.12902 -4.39251,0.11567 -1.36826,-1.31043 -0.56139,-4.64126 -0.0954,-5.68221 0.73172,-1.63465 3.24425,-3.31398 5.13278,-3.37173 z" style="fill:#2980b9"/>
     <path d="m 493.29938,372.42592 0,-1.1906" style="fill:none" stroke="#27ae60" stroke-width="0.08"/>
     <path d="m 491.75161,372.42592 0,-1.1906" style="fill:none" stroke="#27ae60" stroke-width="0.08"/>
     <path d="m 494.84716,372.42592 0,-1.1906" style="fill:none" stroke="#27ae60" stroke-width="0.08"/>
     <path d="m 490.20384,372.42592 0,-1.1906" style="fill:none" stroke="#27ae60" stroke-width="0.08"/>
     <path d="m 488.65606,372.42592 0,-1.1906" style="fill:none" stroke="#27ae60" stroke-width="0.08"/>
     <path d="m 487.1083,372.42592 0,-1.1906" style="fill:none" stroke="#27ae60" stroke-width="0.08"/>
     <path d="m 485.56053,372.42592 0,-1.1906" style="fill:none" stroke="#27ae60" stroke-width="0.08"/>
     <path d="m 476.2739,372.42592 0,-1.1906" style="fill:none" stroke="#27ae60" stroke-width="0.08"/>
     <path d="m 474.72613,372.42592 0,-1.1906" style="fill:none" stroke="#27ae60" stroke-width="0.08"/>
     <path d="m 473.17836,372.42592 0,-1.1906" style="fill:none" stroke="#27ae60" stroke-width="0.08"/>
     <path d="m 471.63059,372.42592 0,-1.1906" style="fill:none" stroke="#27ae60" stroke-width="0.08"/>
     <path d="m 470.08282,372.42592 0,-1.1906" style="fill:none" stroke="#27ae60" stroke-width="0.08"/>
     <path d="m 468.53505,372.42592 0,-1.1906" style="fill:none" stroke="#27ae60" stroke-width="0.08"/>
     <path d="m 466.98727,372.42592 0,-1.1906" style="fill:none" stroke="#27ae60" stroke-width="0.08"/>
     <path d="m 465.43951,372.42592 0,-1.1906" style="fill:none" stroke="#27ae60" stroke-width="0.08"/>
     <path d="m 463.89174,372.42592 0,-1.1906" style="fill:none" stroke="#27ae60" stroke-width="0.08"/>
     <path d="m 502.586,372.42592 0,-1.1906" style="fill:none" stroke="#27ae60" stroke-width="0.08"/>
     <path d="m 484.01275,372.42592 0,-1.1906" style="fill:none" stroke="#27ae60" stroke-width="0.08"/>
    </g>
   </g>
  </g>
 </g>
</svg>
