<?xml version="1.0" standalone="no"?>
<!DOCTYPE svg PUBLIC "-//W3C//DTD SVG 20010904//EN" "http://www.w3.org/TR/2001/REC-SVG-20010904/DTD/svg10.dtd">
<!-- Created using Karbon, part of Calligra: http://www.calligra.org/karbon -->
<svg xmlns="http://www.w3.org/2000/svg" xmlns:xlink="http://www.w3.org/1999/xlink" width="38.4pt" height="38.4pt">
<defs/>
<g id="layer1">
  <path id="path970" transform="translate(4.00394, 4.00394)" fill="#c4cbcf" d="M33.7208 0.466556C32.8877 0.150001 31.9901 -8.83256e-06 31.0482 3.90128e-10C26.8277 3.90128e-10 23.4062 3.4751 23.4062 7.76187C23.4062 8.27478 23.4589 8.78248 23.5524 9.2676L12.4444 20.5499C11.505 20.2332 10.4993 20.0621 9.45855 20.0621C4.23474 20.0621 0 24.3633 0 29.669C0 31.1424 0.355975 32.5142 0.93959 33.762L6.53538 28.0785L11.0245 32.6381L5.42874 38.3216C6.65733 38.9144 8.00791 39.2759 9.45854 39.2759C14.6823 39.2759 18.9171 34.9748 18.9171 29.669C18.9171 28.6043 18.749 27.5923 18.4368 26.6364L29.5449 15.3541C30.0298 15.4521 30.5349 15.5238 31.0482 15.5237C35.2688 15.5237 38.6902 12.0486 38.6902 7.76187C38.6902 6.80518 38.5217 5.87236 38.21 5.02613L35.0363 8.24964L30.5471 3.69007ZM24.2205 11.2187C24.2592 11.2975 24.2837 11.3748 24.3249 11.452C24.2843 11.3762 24.2587 11.2959 24.2205 11.2187ZM24.8678 12.3002C24.8921 12.3343 24.9056 12.3727 24.9304 12.4063C24.9061 12.3734 24.8916 12.3335 24.8678 12.3002ZM13.7598 21.1225C13.5597 21.0189 13.3413 20.9149 13.1334 20.8256C13.3475 20.9176 13.5541 21.0152 13.7598 21.1225ZM17.9149 25.3851C18.0047 25.5671 18.0867 25.7483 18.1654 25.9365C18.0879 25.7492 18.0036 25.5661 17.9149 25.3851Z"/>
  <path id="rect997" transform="translate(4.00746, 4.0172)" fill="#a8b2b8" d="M33.7127 0.467024C32.8795 0.150469 31.9793 0 31.0374 0C26.8168 0 23.4087 3.46162 23.4087 7.74839C23.4087 8.26131 23.4616 8.77051 23.555 9.25561L12.4359 20.5492C11.4966 20.2325 10.4879 20.0609 9.44708 20.0609C6.83517 20.0609 4.47053 21.1246 2.75888 22.8631C1.04722 24.6016 0 27.0033 0 29.6562C0 31.1296 0.356905 32.5054 0.94052 33.7533L6.54189 28.064L8.77825 30.3355L32.793 5.94397L30.5567 3.67253Z"/>
  <path id="rect888" transform="translate(9.68577, 9.14742)" fill="#c4cbcf" d="M0 0.816897L1.37406 5.07185L4.22274 6.67171L10.4563 13.0031L9.85307 13.6158L9.55143 16.8495C10.9165 17.1038 12.2193 17.7211 13.2715 18.7898C15.2057 20.7544 15.756 23.5674 14.9807 26.0402L15.1482 26.2104L17.9299 29.0357C17.9569 29.0631 17.9991 29.0505 18.0304 29.0697C18.1431 29.2099 18.2367 29.3473 18.3656 29.4782L22.1191 33.2906C24.18 35.3838 27.4983 35.3838 29.5592 33.2906L32.7765 30.0228C34.8374 27.9296 34.8374 24.5592 32.7765 22.466L29.023 18.6536C28.8941 18.5227 28.7588 18.4277 28.6208 18.3132C28.6017 18.2815 28.6138 18.2384 28.5871 18.2112L25.6379 15.2157C25.3336 15.3141 25.0454 15.3985 24.733 15.454C22.5454 15.8477 20.1919 15.1987 18.4994 13.4797C17.4373 12.4009 16.8008 11.068 16.5556 9.66725L13.5729 9.83745L12.8021 10.6203L6.56849 4.28899L5.09388 1.29351L0.804107 0ZM20.0748 24.4063C20.5111 23.9632 21.2136 23.9972 21.6499 24.4403L27.0792 29.9547C27.5155 30.3979 27.5155 31.0774 27.0792 31.5206C26.6429 31.9637 25.9403 31.9977 25.504 31.5546L20.0748 26.0401C19.6385 25.5971 19.6385 24.8495 20.0748 24.4063ZM24.0294 20.3896C24.4657 19.9465 25.2017 19.9465 25.6381 20.3896L31.0673 25.9041C31.5036 26.3472 31.4701 27.0608 31.0338 27.5039C30.5975 27.9471 29.9285 27.9471 29.4922 27.5039L24.0629 21.9895C23.6266 21.5463 23.5931 20.8328 24.0294 20.3896Z"/>
  <path id="path937" transform="translate(19.2292, 18.8093)" fill="#ffed57" d="M7.00522 0L4.01987 0.18013L3.25137 0.960689L3.16274 0.870672L0.827665 3.24238L0.916292 3.3324L0.295577 3.96285L0 7.17516C1.36503 7.42946 2.67211 8.05787 3.72429 9.12656C5.65852 11.0911 6.21393 13.919 5.43866 16.3918L5.616 16.5419L8.39445 19.3639C8.42141 19.3913 8.45185 19.3748 8.48308 19.3939C8.59576 19.5341 8.67939 19.6833 8.80821 19.8142L12.5621 23.6269C14.623 25.7202 17.9498 25.7202 20.0107 23.6269L23.2325 20.3546C25.2934 18.2613 25.2934 14.8824 23.2325 12.7891L19.4786 9.0064C19.3498 8.87557 19.2028 8.76063 19.0648 8.64615C19.0457 8.61444 19.0622 8.58335 19.0353 8.55613L16.1091 5.55396C15.8048 5.65239 15.5052 5.73864 15.1928 5.79414C13.0052 6.18782 10.6485 5.5317 8.95608 3.81272C7.8939 2.73393 7.25037 1.4007 7.00522 0ZM15.2814 10.3875C15.5745 10.3875 15.8909 10.4961 16.1091 10.7177L21.5182 16.2417C21.9545 16.6848 21.9249 17.3897 21.4887 17.8328C21.0524 18.276 20.388 18.276 19.9517 17.8328L14.513 12.3389C14.0767 11.8957 14.0471 11.1609 14.4835 10.7177C14.7015 10.4961 14.9884 10.3875 15.2814 10.3875ZM11.3207 14.4404C11.6054 14.4492 11.9006 14.5491 12.1187 14.7706L17.5278 20.2946C17.9642 20.7377 17.9641 21.4126 17.5278 21.8557C17.0915 22.2989 16.3976 22.3289 15.9613 21.8857L10.5226 16.3917C10.0863 15.9486 10.0863 15.1837 10.5226 14.7405C10.7408 14.519 11.036 14.4319 11.3207 14.4404Z"/>
  <path id="path942" transform="translate(19.2291, 20.6106)" fill="#ffdf07" d="M2.24645 0L0.827674 1.44103L0.9163 1.53105L0.295577 2.16151L0 5.37381C1.36504 5.62812 2.67211 6.25653 3.7243 7.32522C5.65853 9.28979 6.21393 12.1176 5.43866 14.5904L5.61601 14.7406L8.39445 17.5626C8.42141 17.59 8.45185 17.5735 8.48308 17.5925C8.59576 17.7327 8.6794 17.882 8.80821 18.0128L12.5621 21.8256C14.623 23.9188 17.9498 23.9188 20.0107 21.8256L22.0797 19.7241C14.335 11.8515 2.40706 0.157306 2.24645 0ZM11.3207 12.6391C11.6054 12.6479 11.9006 12.7478 12.1188 12.9693L17.5279 18.4933C17.9642 18.9365 17.9642 19.6113 17.5279 20.0544C17.0916 20.4976 16.3976 20.5276 15.9613 20.0844L10.5227 14.5904C10.0864 14.1473 10.0864 13.3824 10.5227 12.9392C10.7408 12.7177 11.036 12.6306 11.3207 12.6391Z"/>
  <path id="path947" transform="translate(9.68196, 9.41257)" fill="#a8b2b8" d="M0.532045 0L0 0.540382L1.38923 4.80345L4.22679 6.3946L10.3748 12.6391L11.6754 11.3181Z"/>
 </g>
</svg>
