<svg xmlns="http://www.w3.org/2000/svg" width="48" height="48" viewBox="0 0 13.546666 13.546668">
 <g transform="translate(38.119153,-397.84494)">
  <g transform="matrix(0.28222225,0,0,0.28222225,-38.076192,397.93651)">
   <g transform="matrix(0.99297771,0,0,0.99765924,-361.33887,-433.51974)">
    <text y="716.65" x="-288.57" font-family="DejaVu Sans" word-spacing="0" line-height="125%" letter-spacing="0" font-size="40"><tspan y="716.65" x="-288.57"/>
    </text>
    <g transform="matrix(0.83922907,0,0,0.89304413,98.840808,-206.74343)">
     <path d="m 355.1666,734.5884 c -1.59588,0 -3.76111,1.36642 -3.76111,2.96229 0,1.67243 0.13313,5.09248 0.13313,5.09248 l -14.91129,0 c -5.68877,0 -6.59084,0.76512 -15.21086,3.82254 -0.77472,0.27478 -1.00453,0.64525 -0.96531,1.06803 0.0408,0.43997 0.42025,0.63177 1.10226,1.02554 4.10748,2.37145 12.7462,6.19932 16.93782,6.19932 l 24.23086,0 -7.25595,-7.25595 0,-4.85948 -0.0332,0 c 0,0 -0.0332,-0.0582 -0.0332,-2.23004 0,-0.47071 0.52782,-0.99853 0.99853,-0.99853 3.76203,0 10.88391,0 10.88391,0 l 0,-4.8262 c 0,0 -7.73121,0 -12.11543,0 z" style="fill:#ecf0f1"/>
     <path d="m 364.88557,734.55512 c -0.11065,0 -0.19537,0.012 -0.29956,0.0332 l -5.92458,0 0,4.8262 6.22414,0 1.59764,0 0.36612,0 c 0.88509,0 1.59764,-0.71255 1.59764,-1.59764 l 0,-1.66421 c 0,-0.88509 -0.71255,-1.59764 -1.59764,-1.59764 l -1.96376,0 z" style="fill:#2c3e50"/>
     <path d="m 336.8958,742.68893 c -5.51649,0 -6.4854,0.43045 -14.75025,3.49689 -0.71844,0.26655 -1.37253,0.49768 -1.53688,0.78395 l 30.76353,-0.0928 0,-4.17173 -0.0968,-0.0288 -14.36294,0 z" style="fill:#7f8c8d"/>
    </g>
   </g>
  </g>
 </g>
</svg>
