<?xml version="1.0" standalone="no"?>
<!DOCTYPE svg PUBLIC "-//W3C//DTD SVG 20010904//EN" "http://www.w3.org/TR/2001/REC-SVG-20010904/DTD/svg10.dtd">
<!-- Created using Karbon, part of Calligra: http://www.calligra.org/karbon -->
<svg xmlns="http://www.w3.org/2000/svg" xmlns:xlink="http://www.w3.org/1999/xlink" width="38.4pt" height="38.4pt">
<defs/>
<g id="layer1">
  <path id="shape0" transform="translate(4.16085, 7.35679)" fill="#91ceff" fill-rule="evenodd" stroke="#003bc3" stroke-width="0.00000000000" stroke-linecap="square" stroke-linejoin="bevel" d="M38.0729 10.6819C26.1337 -9.01012 0.36981 1.77254 0.00401072 16.9442C-0.361788 32.1159 24.3808 38.259 38.8341 22.3116C42.4571 18.3141 31.1282 18.6843 31.8995 14.0503C32.7453 11.1754 41.0119 15.5293 38.0729 10.6819Z"/>
  <path id="path4064" transform="matrix(1 0 0 -1 27.8494 17.8063)" fill="#ff4848" d="M7.22366 3.43026C7.12196 1.45388 5.45131 -0.0735881 3.47483 0.00274025C1.49836 0.0790686 -0.049647 1.73084 0.0012184 3.70918C0.0520838 5.68753 1.68292 7.25748 3.66071 7.23203C5.63849 7.20658 7.22844 5.59519 7.22844 3.61619"/>
  <path id="path40641" transform="matrix(1 0 0 -1 18.0856 16.6254)" fill="#ffaa00" d="M7.22366 3.43026C7.12196 1.45388 5.45131 -0.0735881 3.47483 0.00274025C1.49836 0.0790686 -0.049647 1.73084 0.0012184 3.70918C0.0520838 5.68753 1.68292 7.25748 3.66071 7.23203C5.63849 7.20658 7.22844 5.59519 7.22844 3.61619"/>
  <path id="path40642" transform="matrix(1 0 0 -1 9.07343 20.9167)" fill="#d9ff00" d="M7.22366 3.43026C7.12196 1.45388 5.45131 -0.0735881 3.47483 0.00274025C1.49836 0.0790686 -0.049647 1.73084 0.0012184 3.70918C0.0520838 5.68753 1.68292 7.25748 3.66071 7.23203C5.63849 7.20658 7.22844 5.59519 7.22844 3.61619"/>
  <path id="path40643" transform="matrix(1 0 0 -1 5.90948 30.3631)" fill="#00b657" d="M7.22366 3.43026C7.12196 1.45388 5.45131 -0.0735881 3.47483 0.00274025C1.49836 0.0790686 -0.049647 1.73084 0.0012184 3.70918C0.0520838 5.68753 1.68292 7.25748 3.66071 7.23203C5.63849 7.20658 7.22844 5.59519 7.22844 3.61619"/>
  <path id="path40644" transform="matrix(1 0 0 -1 13.0082 36.8743)" fill="#0079da" d="M7.22366 3.43026C7.12196 1.45388 5.45131 -0.0735881 3.47483 0.00274025C1.49836 0.0790686 -0.049647 1.73084 0.0012184 3.70918C0.0520838 5.68753 1.68292 7.25748 3.66071 7.23203C5.63849 7.20658 7.22844 5.59519 7.22844 3.61619"/>
  <path id="path40645" transform="matrix(1 0 0 -1 22.8525 37.2556)" fill="#d600ff" d="M7.22366 3.43026C7.12196 1.45388 5.45131 -0.0735881 3.47483 0.00274025C1.49836 0.0790686 -0.049647 1.73084 0.0012184 3.70918C0.0520838 5.68753 1.68292 7.25748 3.66071 7.23203C5.63849 7.20658 7.22844 5.59519 7.22844 3.61619"/>
  <path id="shape1" transform="matrix(0.999998 0.00196488 -0.00196488 0.999998 4.9183 5.02356)" fill="#4c4c4c" fill-rule="evenodd" stroke="#003bc3" stroke-width="0.00000000000" stroke-linecap="square" stroke-linejoin="bevel" d="M0 0C5.00843 7.73419 15.569 19.4875 24.8664 28.8101L27.2017 26.9606C16.8591 15.498 7.76863 5.78996 0 0Z"/>
  <path id="shape01" transform="matrix(0.999998 0.00196488 -0.00196488 0.999998 29.727 32.0286)" fill="#999999" fill-rule="evenodd" stroke="#003bc3" stroke-width="0.00000000000" stroke-linecap="square" stroke-linejoin="bevel" d="M2.33193 0L0 1.84932L6.38619 7.88542L8.12788 6.44914Z"/>
  <path id="shape0" transform="translate(36.8006, 39.2728)" fill="#643b12" fill-rule="evenodd" stroke="#003bc3" stroke-width="0.00000000000" stroke-linecap="square" stroke-linejoin="bevel" d="M6.29111 5.32093C3.45079 1.74044 2.52103 -1.12965 0.705153 0.439083C-1.11073 2.00782 0.52122 5.84062 6.29111 5.32093Z"/>
 </g>
</svg>
