<?xml version="1.0" standalone="no"?>
<!DOCTYPE svg PUBLIC "-//W3C//DTD SVG 20010904//EN" "http://www.w3.org/TR/2001/REC-SVG-20010904/DTD/svg10.dtd">
<!-- Created using Karbon, part of Calligra: http://www.calligra.org/karbon -->
<svg xmlns="http://www.w3.org/2000/svg" xmlns:xlink="http://www.w3.org/1999/xlink" width="38.4pt" height="38.4pt">
<defs/>
<g id="layer1">
  <path id="shape0" transform="translate(4.28206, 4.56892)" fill="#91ceff" fill-rule="evenodd" stroke="#003bc3" stroke-width="0.00000000000" stroke-linecap="square" stroke-linejoin="bevel" d="M38.0729 12.7613C26.1337 -10.7641 0.36981 2.11759 0.00401072 20.2427C-0.361788 38.3678 24.3808 45.7067 38.8341 26.6549C42.4571 21.8792 31.1282 22.3215 31.8995 16.7854C32.7453 13.3509 41.0119 18.5523 38.0729 12.7613Z"/>
  <path id="path4064" transform="matrix(1 0 0 -1 28.8191 18.1093)" fill="#ff4848" d="M7.22366 3.43026C7.12196 1.45388 5.45131 -0.0735881 3.47483 0.00274025C1.49836 0.0790686 -0.049647 1.73084 0.0012184 3.70918C0.0520838 5.68753 1.68292 7.25748 3.66071 7.23203C5.63849 7.20658 7.22844 5.59519 7.22844 3.61619"/>
  <path id="path40641" transform="matrix(1 0 0 -1 17.3583 14.6254)" fill="#ffaa00" d="M7.22366 3.43026C7.12196 1.45388 5.45131 -0.0735881 3.47483 0.00274025C1.49836 0.0790686 -0.049647 1.73084 0.0012184 3.70918C0.0520838 5.68753 1.68292 7.25748 3.66071 7.23203C5.63849 7.20658 7.22844 5.59519 7.22844 3.61619"/>
  <path id="path40642" transform="matrix(1 0 0 -1 8.16434 22.7349)" fill="#d9ff00" d="M7.22366 3.43026C7.12196 1.45388 5.45131 -0.0735881 3.47483 0.00274025C1.49836 0.0790686 -0.049647 1.73084 0.0012184 3.70918C0.0520838 5.68753 1.68292 7.25748 3.66071 7.23203C5.63849 7.20658 7.22844 5.59519 7.22844 3.61619"/>
  <path id="path40643" transform="matrix(1 0 0 -1 8.1519 34.4843)" fill="#00b657" d="M7.22366 3.43026C7.12196 1.45388 5.45131 -0.0735881 3.47483 0.00274025C1.49836 0.0790686 -0.049647 1.73084 0.0012184 3.70918C0.0520838 5.68753 1.68292 7.25748 3.66071 7.23203C5.63849 7.20658 7.22844 5.59519 7.22844 3.61619"/>
  <path id="path40644" transform="matrix(1 0 0 -1 18.8264 40.3288)" fill="#0079da" d="M7.22366 3.43026C7.12196 1.45388 5.45131 -0.0735881 3.47483 0.00274025C1.49836 0.0790686 -0.049647 1.73084 0.0012184 3.70918C0.0520838 5.68753 1.68292 7.25748 3.66071 7.23203C5.63849 7.20658 7.22844 5.59519 7.22844 3.61619"/>
  <path id="path40645" transform="matrix(1 0 0 -1 30.1252 35.6798)" fill="#d600ff" d="M7.22366 3.43026C7.12196 1.45388 5.45131 -0.0735881 3.47483 0.00274025C1.49836 0.0790686 -0.049647 1.73084 0.0012184 3.70918C0.0520838 5.68753 1.68292 7.25748 3.66071 7.23203C5.63849 7.20658 7.22844 5.59519 7.22844 3.61619"/>
  <path id="shape1" transform="matrix(0.999997 0.00242431 -0.00159251 0.999999 5.13793 2.30303)" fill="#4c4c4c" fill-rule="evenodd" stroke="#003bc3" stroke-width="0.00000000000" stroke-linecap="square" stroke-linejoin="bevel" d="M0 0C4.16049 7.92703 12.9331 19.9734 20.6565 29.5284L22.5964 27.6328C14.0048 15.8844 6.45339 5.93432 0 0Z"/>
  <path id="shape01" transform="matrix(0.999997 0.00242431 -0.00159251 0.999999 25.7465 29.9814)" fill="#999999" fill-rule="evenodd" stroke="#003bc3" stroke-width="0.00000000000" stroke-linecap="square" stroke-linejoin="bevel" d="M1.93713 0L0 1.89543L5.305 8.08203L6.75182 6.60994Z"/>
  <path id="shape01" transform="matrix(1 0 0 1 31.6225 37.4062)" fill="#643b12" fill-rule="evenodd" stroke="#003bc3" stroke-width="0.00000000000" stroke-linecap="square" stroke-linejoin="bevel" d="M5.22601 5.4536C2.86656 1.78383 2.09421 -1.15782 0.58577 0.45003C-0.922679 2.05788 0.432977 5.98625 5.22601 5.4536Z"/>
 </g>
</svg>
