<svg xmlns="http://www.w3.org/2000/svg" width="48" height="48">
 <g transform="translate(-180.23661,-689.8125)">
  <ellipse transform="scale(1,-1)" cx="204.22" cy="-713.81" rx="20.01" ry="20" style="fill:#5b6d71"/>
  <path d="M 23.994141 9 C 20.066877 9.0002328 16.165567 10.617701 13.390625 13.394531 C 10.615683 16.171361 9 20.073326 9 24 C 9 27.926674 10.615683 31.828639 13.390625 34.605469 C 16.165567 37.382299 20.066877 38.999767 23.994141 39 C 27.921404 39.000233 31.825032 37.384266 34.603516 34.607422 C 37.381999 31.830578 39 27.927112 39 24 C 39 20.072888 37.381999 16.169422 34.603516 13.392578 C 31.825032 10.615734 27.921404 8.9997672 23.994141 9 z M 23.996094 15 C 26.352452 14.99986 28.694238 15.970612 30.361328 17.636719 C 32.028418 19.302826 33 21.643732 33 24 C 33 26.356268 32.028418 28.697174 30.361328 30.363281 C 28.694238 32.029388 26.352452 33.00014 23.996094 33 C 21.639735 32.99986 19.297778 32.02938 17.632812 30.363281 C 15.967847 28.697183 15 26.356005 15 24 C 15 21.643995 15.967847 19.302817 17.632812 17.636719 C 19.297778 15.97062 21.639735 15.00014 23.996094 15 z " transform="translate(180.23661,689.8125)" style="fill:#bdc3c7"/>
  <rect width="7" height="2" x="200.74" y="698.81" style="fill:#bdc3c7" fill-rule="evenodd"/>
  <path d="m 202.7366,695.81293 3,0 2,2.99957 -7,0 z" style="fill:#bdc3c7" fill-rule="evenodd"/>
  <rect y="-728.81" x="200.74" height="2" width="7" transform="scale(1,-1)" style="fill:#bdc3c7" fill-rule="evenodd"/>
  <path d="m 202.7366,731.8125 3,0 2,-2.99957 -7,0 z" style="fill:#bdc3c7" fill-rule="evenodd"/>
  <rect y="165.03" x="716.8" height="2" width="7" transform="matrix(0.5,0.8660254,-0.8660254,0.5,0,0)" style="fill:#bdc3c7" fill-rule="evenodd"/>
  <path d="m 219.07487,703.51378 1.5,2.59808 -1.5977,3.23183 -3.5,-6.06217 z" style="fill:#bdc3c7" fill-rule="evenodd"/>
  <rect transform="matrix(0.5,0.8660254,0.8660254,-0.5,0,0)" width="7" height="2" x="716.8" y="-195.03" style="fill:#bdc3c7" fill-rule="evenodd"/>
  <path d="m 187.89833,721.51356 1.5,2.59808 3.5977,0.23227 -3.5,-6.06218 z" style="fill:#bdc3c7" fill-rule="evenodd"/>
  <rect transform="matrix(-0.5,0.8660254,-0.8660254,-0.5,0,0)" width="7" height="2" x="512.56" y="-548.78" style="fill:#bdc3c7" fill-rule="evenodd"/>
  <path d="m 220.57487,721.51356 -1.5,2.59808 -3.5977,0.23227 3.49999,-6.06218 z" style="fill:#bdc3c7" fill-rule="evenodd"/>
  <rect y="518.78" x="512.56" height="2" width="7" transform="matrix(-0.5,0.8660254,0.8660254,0.5,0,0)" style="fill:#bdc3c7" fill-rule="evenodd"/>
  <path d="m 189.39833,703.51378 -1.5,2.59808 1.5977,3.23183 3.5,-6.06218 z" style="fill:#bdc3c7" fill-rule="evenodd"/>
  <path d="M 23.998047 18.5 C 21.118054 18.500171 18.5 21.120439 18.5 24 C 18.5 26.879561 21.118054 29.499829 23.998047 29.5 C 26.87804 29.500171 29.5 26.879882 29.5 24 C 29.5 21.120118 26.87804 18.499829 23.998047 18.5 z M 23.998047 19.5 C 26.354405 19.49986 28.5 21.643733 28.5 24 C 28.5 26.356267 26.354405 28.50014 23.998047 28.5 C 21.641689 28.49986 19.5 26.356004 19.5 24 C 19.5 21.643996 21.641689 19.50014 23.998047 19.5 z " transform="translate(180.23661,689.8125)" style="fill:#ecf0f1" fill-rule="evenodd"/>
 </g>
</svg>
