<?xml version="1.0" encoding="UTF-8" standalone="no"?>
<!-- Created with Inkscape (http://www.inkscape.org/) -->

<svg
   xmlns:dc="http://purl.org/dc/elements/1.1/"
   xmlns:cc="http://creativecommons.org/ns#"
   xmlns:rdf="http://www.w3.org/1999/02/22-rdf-syntax-ns#"
   xmlns:svg="http://www.w3.org/2000/svg"
   xmlns="http://www.w3.org/2000/svg"
   xmlns:sodipodi="http://sodipodi.sourceforge.net/DTD/sodipodi-0.dtd"
   xmlns:inkscape="http://www.inkscape.org/namespaces/inkscape"
   width="16"
   height="16"
   viewBox="0 0 16 16"
   id="svg2"
   version="1.1"
   inkscape:version="0.91 r13725"
   sodipodi:docname="edit-delete.svg">
  <defs
     id="defs4" />
  <sodipodi:namedview
     id="base"
     pagecolor="#ffffff"
     bordercolor="#666666"
     borderopacity="1.0"
     inkscape:pageopacity="0.0"
     inkscape:pageshadow="2"
     inkscape:zoom="52.8125"
     inkscape:cx="9.7041423"
     inkscape:cy="10.461538"
     inkscape:document-units="px"
     inkscape:current-layer="layer1"
     showgrid="true"
     units="px"
     inkscape:showpageshadow="false"
     borderlayer="true"
     showguides="true"
     inkscape:guide-bbox="true"
     inkscape:window-width="2560"
     inkscape:window-height="1014"
     inkscape:window-x="0"
     inkscape:window-y="0"
     inkscape:window-maximized="1"
     fit-margin-top="0"
     fit-margin-left="0"
     fit-margin-right="0"
     fit-margin-bottom="0">
    <inkscape:grid
       type="xygrid"
       id="grid4136"
       empspacing="2"
       originx="-3"
       originy="-3.0000174" />
    <sodipodi:guide
       position="0,14.999983"
       orientation="0,1"
       id="guide4140"
       inkscape:label="Icon Max Height"
       inkscape:color="rgb(233,30,99)" />
    <sodipodi:guide
       position="0,0.9999826"
       orientation="0,1"
       id="guide4142"
       inkscape:label="Icon Baseline"
       inkscape:color="rgb(233,30,99)" />
    <sodipodi:guide
       position="8,-1.74e-05"
       orientation="1,0"
       id="guide4144"
       inkscape:label="Center Vertical"
       inkscape:color="rgb(221,44,0)" />
    <sodipodi:guide
       position="17,7.9999826"
       orientation="0,1"
       id="guide4146"
       inkscape:label="Center Horizontal"
       inkscape:color="rgb(221,44,0)" />
  </sodipodi:namedview>
  <metadata
     id="metadata7">
    <rdf:RDF>
      <cc:Work
         rdf:about="">
        <dc:format>image/svg+xml</dc:format>
        <dc:type
           rdf:resource="http://purl.org/dc/dcmitype/StillImage" />
        <dc:title />
      </cc:Work>
    </rdf:RDF>
  </metadata>
  <g
     inkscape:label="Capa 1"
     inkscape:groupmode="layer"
     id="layer1"
     transform="translate(-3,-1033.3622)">
    <path
       style="opacity:1;fill:#ef5350;fill-opacity:1;stroke:none;stroke-width:1;stroke-linecap:round;stroke-linejoin:round;stroke-miterlimit:4;stroke-dasharray:none;stroke-dashoffset:0;stroke-opacity:1"
       d="M 6.5,1 C 6.223,1 6,1.223 6,1.5 L 6,2 5,2 2.3574219,2 C 2.1590964,2 2,2.1590964 2,2.3574219 L 2,2.6425781 C 2,2.8409036 2.1590964,3 2.3574219,3 L 3,3 3,4 3,13 c 0,1.108155 0.8918455,2 2,2 l 6,0 c 1.108155,0 2,-0.891845 2,-2 l 0,-9 0,-1 0.642578,0 C 13.840904,3 14,2.8409036 14,2.6425781 L 14,2.3574219 C 14,2.1590964 13.840904,2 13.642578,2 L 11,2 10,2 10,1.5 C 10,1.223 9.777,1 9.5,1 Z M 4,3 l 1,0 6,0 1,0 0,1 0,9 c 0,0.554019 -0.445981,1 -1,1 L 5,14 C 4.4459807,14 4,13.554019 4,13 L 4,4 Z M 5.5,4 C 5.223,4 5,4.223 5,4.5 l 0,7 C 5,11.777 5.223,12 5.5,12 5.777,12 6,11.777 6,11.5 l 0,-7 C 6,4.223 5.777,4 5.5,4 Z m 2,1 C 7.223,5 7,5.223 7,5.5 l 0,6 C 7,11.777 7.223,12 7.5,12 7.777,12 8,11.777 8,11.5 l 0,-6 C 8,5.223 7.777,5 7.5,5 Z"
       transform="translate(3,1033.3622)"
       id="rect3198"
       inkscape:connector-curvature="0"
       sodipodi:nodetypes="ssccssssccssssccssssccssscccccssssccssssssssssssss" />
  </g>
</svg>
