<?xml version="1.0" encoding="UTF-8" standalone="no"?>
<!-- Created with Inkscape (http://www.inkscape.org/) -->

<svg
   xmlns:dc="http://purl.org/dc/elements/1.1/"
   xmlns:cc="http://creativecommons.org/ns#"
   xmlns:rdf="http://www.w3.org/1999/02/22-rdf-syntax-ns#"
   xmlns:svg="http://www.w3.org/2000/svg"
   xmlns="http://www.w3.org/2000/svg"
   xmlns:sodipodi="http://sodipodi.sourceforge.net/DTD/sodipodi-0.dtd"
   xmlns:inkscape="http://www.inkscape.org/namespaces/inkscape"
   width="16"
   height="16"
   id="svg2"
   version="1.1"
   inkscape:version="0.91 r13725"
   viewBox="0 0 16 16"
   sodipodi:docname="go-jump-today.svg">
  <defs
     id="go-jump-today">
    <style
       type="text/css"
       id="current-color-scheme">
      .ColorScheme-Text {
        color:#455a64;
      }
      </style>
  </defs>
  <sodipodi:namedview
     id="base"
     pagecolor="#ffffff"
     bordercolor="#000000"
     borderopacity="1"
     inkscape:pageopacity="0.0"
     inkscape:pageshadow="2"
     inkscape:zoom="48.375"
     inkscape:cx="-4.5271318"
     inkscape:cy="10.48062"
     inkscape:document-units="px"
     inkscape:current-layer="layer1"
     showgrid="true"
     units="px"
     inkscape:showpageshadow="false"
     borderlayer="true"
     inkscape:window-width="2560"
     inkscape:window-height="959"
     inkscape:window-x="0"
     inkscape:window-y="34"
     inkscape:window-maximized="1">
    <inkscape:grid
       type="xygrid"
       id="grid4137" />
    <sodipodi:guide
       position="2,14.000017"
       orientation="12,0"
       id="guide4161" />
    <sodipodi:guide
       position="2,2.0000174"
       orientation="0,12"
       id="guide4163" />
    <sodipodi:guide
       position="14,2.0000174"
       orientation="-12,0"
       id="guide4165" />
    <sodipodi:guide
       position="14,14.000017"
       orientation="0,-12"
       id="guide4167" />
  </sodipodi:namedview>
  <metadata
     id="metadata7">
    <rdf:RDF>
      <cc:Work
         rdf:about="">
        <dc:format>image/svg+xml</dc:format>
        <dc:type
           rdf:resource="http://purl.org/dc/dcmitype/StillImage" />
        <dc:title></dc:title>
        <dc:creator>
          <cc:Agent>
            <dc:title>Uri Herrera</dc:title>
          </cc:Agent>
        </dc:creator>
        <dc:publisher>
          <cc:Agent>
            <dc:title>Nitrux</dc:title>
          </cc:Agent>
        </dc:publisher>
        <dc:relation>Owner</dc:relation>
        <cc:license
           rdf:resource="https://creativecommons.org/licenses/by-sa/4.0/" />
      </cc:Work>
    </rdf:RDF>
  </metadata>
  <g
     inkscape:label="Capa 1"
     inkscape:groupmode="layer"
     id="layer1"
     transform="translate(0,-1036.3622)">
    <path
       style="color:#455a64;fill:currentColor;fill-opacity:1;stroke:none"
       d="M 4,2 4,3 2,3 2,5 2,6 2,14 14,14 14,3 12,3 12,2 11,2 11,3 5,3 5,2 Z M 3,4 4,4 4,5 3,5 Z m 2,0 6,0 0,1 -6,0 z m 7,0 1,0 0,1 -1,0 z m -9,2 10,0 0,7 -10,0 z"
       transform="translate(0,1036.3622)"
       id="icon"
       inkscape:connector-curvature="0"
       sodipodi:nodetypes="ccccccccccccccccccccccccccccccccccc"
       class="ColorScheme-Text" />
    <path
       style="opacity:1;fill:#ec407a;fill-opacity:1;stroke:none;stroke-width:1.39999998;stroke-linecap:round;stroke-linejoin:round;stroke-miterlimit:4;stroke-dasharray:none;stroke-opacity:1"
       d="M 6,7 6,8 4,8 4,10 6,10 6,11 8,9 6,7 Z m 2,2 a 2,1.9999878 0 0 0 2,2 2,1.9999878 0 0 0 2,-2 2,1.9999878 0 0 0 -2,-2 2,1.9999878 0 0 0 -2,2 z"
       transform="translate(0,1036.3622)"
       id="arrow"
       inkscape:connector-curvature="0" />
    <ellipse
       cy="1045.3622"
       cx="9.9999981"
       id="circle"
       style="opacity:1;fill:#f06292;fill-opacity:1;stroke:none;stroke-width:1.39999998;stroke-linecap:round;stroke-linejoin:round;stroke-miterlimit:4;stroke-dasharray:none;stroke-opacity:1"
       rx="1"
       ry="0.99999392" />
  </g>
</svg>
