<?xml version="1.0" encoding="UTF-8" standalone="no"?>
<!-- Created with Inkscape (http://www.inkscape.org/) -->

<svg
   xmlns:dc="http://purl.org/dc/elements/1.1/"
   xmlns:cc="http://creativecommons.org/ns#"
   xmlns:rdf="http://www.w3.org/1999/02/22-rdf-syntax-ns#"
   xmlns:svg="http://www.w3.org/2000/svg"
   xmlns="http://www.w3.org/2000/svg"
   xmlns:sodipodi="http://sodipodi.sourceforge.net/DTD/sodipodi-0.dtd"
   xmlns:inkscape="http://www.inkscape.org/namespaces/inkscape"
   width="16"
   height="16"
   id="svg2"
   version="1.1"
   inkscape:version="0.91 r13725"
   viewBox="0 0 16 16"
   sodipodi:docname="view-calendar-month.svg">
  <defs
     id="defs4" />
  <sodipodi:namedview
     id="base"
     pagecolor="#ffffff"
     bordercolor="#666666"
     borderopacity="1.0"
     inkscape:pageopacity="0.0"
     inkscape:pageshadow="2"
     inkscape:zoom="51.464806"
     inkscape:cx="9.6145329"
     inkscape:cy="9.8172571"
     inkscape:document-units="px"
     inkscape:current-layer="layer1"
     showgrid="true"
     units="px"
     inkscape:showpageshadow="false"
     borderlayer="true"
     inkscape:window-width="2560"
     inkscape:window-height="1017"
     inkscape:window-x="0"
     inkscape:window-y="0"
     inkscape:window-maximized="1">
    <inkscape:grid
       type="xygrid"
       id="grid4137" />
    <sodipodi:guide
       position="0,16.000017"
       orientation="16,0"
       id="guide4145" />
    <sodipodi:guide
       position="0,1.7382813e-05"
       orientation="0,16"
       id="guide4147" />
    <sodipodi:guide
       position="16,1.7382813e-05"
       orientation="-16,0"
       id="guide4149" />
    <sodipodi:guide
       position="16,16.000017"
       orientation="0,-16"
       id="guide4151" />
    <sodipodi:guide
       position="1,1.0000174"
       orientation="0,14"
       id="guide4155" />
    <sodipodi:guide
       position="15,1.0000174"
       orientation="-14,0"
       id="guide4157" />
    <sodipodi:guide
       position="15,15.000017"
       orientation="0,-14"
       id="guide4159" />
    <sodipodi:guide
       position="2,14.000017"
       orientation="12,0"
       id="guide4161" />
    <sodipodi:guide
       position="2,2.0000174"
       orientation="0,12"
       id="guide4163" />
    <sodipodi:guide
       position="14,2.0000174"
       orientation="-12,0"
       id="guide4165" />
    <sodipodi:guide
       position="14,14.000017"
       orientation="0,-12"
       id="guide4167" />
  </sodipodi:namedview>
  <metadata
     id="metadata7">
    <rdf:RDF>
      <cc:Work
         rdf:about="">
        <dc:format>image/svg+xml</dc:format>
        <dc:type
           rdf:resource="http://purl.org/dc/dcmitype/StillImage" />
        <dc:title></dc:title>
      </cc:Work>
    </rdf:RDF>
  </metadata>
  <g
     inkscape:label="Capa 1"
     inkscape:groupmode="layer"
     id="layer1"
     transform="translate(0,-1036.3622)">
    <path
       style="color:#000000;clip-rule:nonzero;display:inline;overflow:visible;visibility:visible;opacity:1;isolation:auto;mix-blend-mode:normal;color-interpolation:sRGB;color-interpolation-filters:linearRGB;solid-color:#000000;solid-opacity:1;fill:#455a64;fill-opacity:1;fill-rule:nonzero;stroke:none;stroke-width:1;stroke-linecap:butt;stroke-linejoin:miter;stroke-miterlimit:4;stroke-dasharray:none;stroke-dashoffset:0;stroke-opacity:1;color-rendering:auto;image-rendering:auto;shape-rendering:auto;text-rendering:auto;enable-background:accumulate"
       d="M 4,2 4,3 2,3 2,5 2,6 2,14 14,14 14,3 12,3 12,2 11,2 11,3 5,3 5,2 Z M 3,4 4,4 4,5 3,5 Z m 2,0 6,0 0,1 -6,0 z m 7,0 1,0 0,1 -1,0 z m -9,2 10,0 0,7 -10,0 z"
       transform="translate(0,1036.3622)"
       id="rect4146"
       inkscape:connector-curvature="0"
       sodipodi:nodetypes="ccccccccccccccccccccccccccccccccccc" />
    <path
       style="opacity:1;fill:#ec407a;fill-opacity:1;stroke:none;stroke-width:1.39999998;stroke-linecap:round;stroke-linejoin:round;stroke-miterlimit:4;stroke-dasharray:none;stroke-opacity:1"
       d="m 4.0001015,1043.3622 0,1 0.9998984,0 0.5,0 c 0.277,0 0.5,0.223 0.5,0.5 0,0.277 -0.223,0.5 -0.5,0.5 l -0.5,0 -0.5,0 -0.4998984,0 0,1 0.091797,0 0.9081015,0 0.5,0 c 0.277,0 0.5,0.223 0.5,0.5 0,0.277 -0.223,0.5 -0.5,0.5 l -0.5,0 -0.9998984,0 0,1 0.9998984,0 0.5,0 c 0.831,0 1.5,-0.669 1.5,-1.5 0,-0.3864 -0.1484144,-0.7346 -0.3867188,-1 0.2383043,-0.2654 0.3867187,-0.6136 0.3867187,-1 0,-0.831 -0.669,-1.5 -1.5,-1.5 l -0.5,0 z m 5.9998985,0 c -1.108,0 -2,0.892 -2,2 l 0,1 c 0,1.108 0.892,2 2,2 1.108,0 2,-0.892 2,-2 l 0,-1 c 0,-1.108 -0.892,-2 -2,-2 z m 0,1 c 0.554,0 1,0.446 1,1 l 0,1 c 0,0.554 -0.446,1 -1,1 -0.554,0 -1,-0.446 -1,-1 l 0,-1 c 0,-0.554 0.446,-1 1,-1 z"
       id="rect4235"
       inkscape:connector-curvature="0"
       sodipodi:nodetypes="cccsssccccccsssccccsscssccssssssssssssss" />
  </g>
</svg>
