<svg xmlns="http://www.w3.org/2000/svg" width="24" height="24">
 <g transform="translate(0,-1028.3622)">
  <path d="M 11.996094 4.5 C 8.0688302 4.5002328 4.5 8.0733262 4.5 12 C 4.5 15.926674 8.0688302 19.499767 11.996094 19.5 C 15.923357 19.500233 19.5 15.927112 19.5 12 C 19.5 8.0728883 15.923357 4.4997672 11.996094 4.5 z M 11.998047 6.5 C 14.87804 6.4998293 17.5 9.1201181 17.5 12 C 17.5 14.879882 14.87804 17.500171 11.998047 17.5 C 9.1180535 17.499829 6.5 14.879561 6.5 12 C 6.5 9.1204392 9.1180535 6.5001707 11.998047 6.5 z " transform="translate(0,1028.3622)" style="fill:#34495e" fill-rule="evenodd"/>
  <path d="M 11 8.5 L 11 11.5 L 9 11.5 L 12 15.5 L 15 11.5 L 13 11.5 L 13 8.5 L 11 8.5 z " transform="translate(0,1028.3622)" style="fill:#34495e" fill-rule="evenodd"/>
 </g>
</svg>
