<svg xmlns="http://www.w3.org/2000/svg" width="24" height="24">
 <g transform="translate(0,-1028.3622)">
  <rect y="1032.86" x="4.5" height="6" width="2" style="fill:#2c3e50" fill-rule="evenodd"/>
  <rect width="2" height="6" x="1032.86" y="-10.5" transform="matrix(0,1,-1,0,0,0)" style="fill:#2c3e50" fill-rule="evenodd"/>
  <rect y="734.53" x="-728.16" height="6.485" width="2" transform="matrix(0.70710678,-0.70710678,0.70710678,0.70710678,0,0)" style="fill:#2c3e50" fill-rule="evenodd"/>
  <path d="M 14.998047 10.5 C 12.641689 10.50014 10.5 12.643996 10.5 15 C 10.5 17.356004 12.641689 19.49986 14.998047 19.5 C 17.354405 19.50014 19.5 17.356267 19.5 15 C 19.5 12.643733 17.354405 10.49986 14.998047 10.5 z M 14.998047 12.5 C 16.307135 12.499922 17.5 13.690963 17.5 15 C 17.5 16.309037 16.307135 17.500078 14.998047 17.5 C 13.688959 17.499922 12.5 16.308891 12.5 15 C 12.5 13.691109 13.688959 12.500078 14.998047 12.5 z " transform="translate(0,1028.3622)" style="fill:#2c3e50" fill-rule="evenodd"/>
 </g>
</svg>
