<svg xmlns="http://www.w3.org/2000/svg" width="24" height="24">
 <g transform="translate(0,-1028.3622)">
  <path d="M 12 4.5 C 7.845 4.5 4.5 7.845 4.5 12 C 4.5 16.155 7.845 19.5 12 19.5 C 16.155 19.5 19.5 16.155 19.5 12 C 19.5 7.845 16.155 4.5 12 4.5 z M 12 6.5 C 15.047 6.5 17.5 8.953 17.5 12 C 17.5 15.047 15.047 17.5 12 17.5 C 8.953 17.5 6.5 15.047 6.5 12 C 6.5 8.953 8.953 6.5 12 6.5 z " transform="translate(0,1028.3622)" style="fill:#34495e" fill-rule="evenodd"/>
  <rect width="12" height="1" x="6" y="1039.86" style="fill:#34495e" fill-rule="evenodd" rx="0"/>
  <rect y="11.5" x="-1046.36" height="1" width="12" transform="matrix(0,-1,1,0,0,0)" style="fill:#34495e" fill-rule="evenodd" rx="0"/>
  <path d="m 8.6035155,1036.036 c 1.0203312,0.5192 2.1688085,0.8262 3.3964845,0.8262 1.227676,0 2.376153,-0.307 3.396484,-0.8262 -0.31154,-0.2446 -0.65081,-0.4535 -1.011718,-0.6269 -0.737722,0.2908 -1.540729,0.4531 -2.384766,0.4531 -0.844037,0 -1.647044,-0.1623 -2.3847657,-0.4531 -0.3609081,0.1734 -0.700178,0.3823 -1.0117188,0.6269 z" style="fill:#34495e" fill-rule="evenodd"/>
  <path d="m 8.6034999,1044.6884 c 1.0203,-0.5192 2.1688001,-0.8262 3.3965001,-0.8262 1.2277,0 2.3762,0.307 3.3965,0.8262 -0.3116,0.2446 -0.6508,0.4535 -1.0117,0.6269 -0.7378,-0.2908 -1.5408,-0.4531 -2.3848,-0.4531 -0.844,0 -1.647,0.1623 -2.3848001,0.4531 -0.3609,-0.1734 -0.7001,-0.3823 -1.0117,-0.6269 z" style="fill:#34495e" fill-rule="evenodd"/>
 </g>
</svg>
