<?xml version="1.0" encoding="UTF-8" standalone="no"?>
<!-- Created with Inkscape (http://www.inkscape.org/) -->

<svg
   xmlns:dc="http://purl.org/dc/elements/1.1/"
   xmlns:cc="http://creativecommons.org/ns#"
   xmlns:rdf="http://www.w3.org/1999/02/22-rdf-syntax-ns#"
   xmlns:svg="http://www.w3.org/2000/svg"
   xmlns="http://www.w3.org/2000/svg"
   xmlns:sodipodi="http://sodipodi.sourceforge.net/DTD/sodipodi-0.dtd"
   xmlns:inkscape="http://www.inkscape.org/namespaces/inkscape"
   width="24"
   height="24"
   id="svg2"
   version="1.1"
   inkscape:version="0.48+devel r12347"
   sodipodi:docname="emblem-important.svg">
  <defs
     id="defs4" />
  <sodipodi:namedview
     id="base"
     pagecolor="#ffffff"
     bordercolor="#666666"
     borderopacity="1.0"
     inkscape:pageopacity="0.0"
     inkscape:pageshadow="2"
     inkscape:zoom="11.234415"
     inkscape:cx="2.3875426"
     inkscape:cy="11.446247"
     inkscape:document-units="px"
     inkscape:current-layer="layer1"
     showgrid="false"
     inkscape:window-width="1366"
     inkscape:window-height="714"
     inkscape:window-x="0"
     inkscape:window-y="30"
     inkscape:window-maximized="1" />
  <metadata
     id="metadata7">
    <rdf:RDF>
      <cc:Work
         rdf:about="">
        <dc:format>image/svg+xml</dc:format>
        <dc:type
           rdf:resource="http://purl.org/dc/dcmitype/StillImage" />
        <dc:title />
      </cc:Work>
    </rdf:RDF>
  </metadata>
  <g
     inkscape:label="Capa 1"
     inkscape:groupmode="layer"
     id="layer1"
     transform="translate(0,-1028.3622)">
    <path
       id="path817"
       d="m 11.999999,1032.3622 c 4.418275,0 8.000001,3.5817 8.000001,8 0,4.4183 -3.581726,8 -8.000001,8 C 7.581725,1048.3622 4,1044.7805 4,1040.3622 4,1035.9439 7.581725,1032.3622 11.999999,1032.3622 z m -1.666652,2.8333 0.833305,6.8334 1.666695,0 0.833305,-6.8334 L 10.333347,1035.1955 z m 1.666652,7.8334 c -0.736379,0 -1.333347,0.5969 -1.333347,1.3333 0,0.7363 0.596968,1.3334 1.333347,1.3334 0.736379,0 1.333348,-0.5971 1.333348,-1.3334 C 13.333347,1043.6259 12.736378,1043.0289 11.999999,1043.0289 Z"
       inkscape:connector-curvature="0"
       style="fill:#000000;fill-opacity:1;stroke-width:0.2;stroke-linejoin:round" />
  </g>
</svg>
