<svg xmlns="http://www.w3.org/2000/svg" width="24" height="24">
 <g transform="translate(0,-1028.3622)">
  <rect y="-1038.86" x="4.5" height="6" width="2" transform="scale(1,-1)" style="fill:#34495e" fill-rule="evenodd"/>
  <path d="M 12 4.5 C 8.3589582 4.5 5.3415671 7.0685485 4.6503906 10.5 L 6.7109375 10.5 C 7.3615442 8.1878236 9.4742589 6.5 12 6.5 C 14.525741 6.5 16.638456 8.1878236 17.289062 10.5 L 19.349609 10.5 C 18.658433 7.0685485 15.641042 4.5 12 4.5 z M 4.6503906 13.5 C 5.3415671 16.931451 8.3589582 19.5 12 19.5 C 15.641042 19.5 18.658433 16.931451 19.349609 13.5 L 17.289062 13.5 C 16.638456 15.812176 14.525741 17.5 12 17.5 C 9.4742589 17.5 7.3615442 15.812176 6.7109375 13.5 L 4.6503906 13.5 z " transform="translate(0,1028.3622)" style="fill:#34495e" fill-rule="evenodd"/>
  <rect width="2" height="6" x="-1038.86" y="-10.5" transform="matrix(0,-1,-1,0,0,0)" style="fill:#34495e" fill-rule="evenodd"/>
  <rect width="2" height="6" x="-19.5" y="1041.86" transform="scale(-1,1)" style="fill:#34495e" fill-rule="evenodd"/>
  <rect transform="matrix(0,1,1,0,0,0)" y="13.5" x="1041.86" height="6" width="2" style="fill:#34495e" fill-rule="evenodd"/>
 </g>
</svg>
