<?xml version="1.0" encoding="UTF-8" standalone="no"?>
<!-- Created with Inkscape (http://www.inkscape.org/) -->

<svg
   xmlns:dc="http://purl.org/dc/elements/1.1/"
   xmlns:cc="http://creativecommons.org/ns#"
   xmlns:rdf="http://www.w3.org/1999/02/22-rdf-syntax-ns#"
   xmlns:svg="http://www.w3.org/2000/svg"
   xmlns="http://www.w3.org/2000/svg"
   xmlns:sodipodi="http://sodipodi.sourceforge.net/DTD/sodipodi-0.dtd"
   xmlns:inkscape="http://www.inkscape.org/namespaces/inkscape"
   width="24"
   height="24"
   id="svg2"
   version="1.1"
   inkscape:version="0.48+devel r12347"
   sodipodi:docname="emblem-urgent.svg">
  <defs
     id="defs4" />
  <sodipodi:namedview
     id="base"
     pagecolor="#ffffff"
     bordercolor="#666666"
     borderopacity="1.0"
     inkscape:pageopacity="0.0"
     inkscape:pageshadow="2"
     inkscape:zoom="8.290827"
     inkscape:cx="11.008854"
     inkscape:cy="8.8109332"
     inkscape:document-units="px"
     inkscape:current-layer="layer1"
     showgrid="false"
     inkscape:window-width="1366"
     inkscape:window-height="714"
     inkscape:window-x="0"
     inkscape:window-y="30"
     inkscape:window-maximized="1"
     showguides="true"
     inkscape:guide-bbox="true" />
  <metadata
     id="metadata7">
    <rdf:RDF>
      <cc:Work
         rdf:about="">
        <dc:format>image/svg+xml</dc:format>
        <dc:type
           rdf:resource="http://purl.org/dc/dcmitype/StillImage" />
        <dc:title />
      </cc:Work>
    </rdf:RDF>
  </metadata>
  <g
     inkscape:label="Capa 1"
     inkscape:groupmode="layer"
     id="layer1"
     transform="translate(0,-1028.3622)">
    <path
       id="path813"
       d="m 12.000022,1032.3622 c 1.542136,0 9.253016,14.6507 8.481899,15.4216 -0.771067,0.7712 -16.1927306,0.7712 -16.963848,0 C 2.7470064,1047.0129 10.457835,1032.3622 12.000022,1032.3622 z m 0,11.5661 c -0.6388,0 -1.156627,0.5179 -1.156627,1.1568 0,0.6387 0.517827,1.1566 1.156627,1.1566 0.638749,0 1.156627,-0.5179 1.156627,-1.1566 C 13.156649,1044.4462 12.638771,1043.9283 12.000022,1043.9283 z m -1.156627,-6.9397 0.38551,6.1688 1.542186,0 0.385558,-6.1688 L 10.843395,1036.9886 Z"
       inkscape:connector-curvature="0"
       style="fill:#000000;fill-opacity:1;stroke-width:0.2;stroke-linejoin:round" />
  </g>
</svg>
