<svg xmlns="http://www.w3.org/2000/svg" width="24" height="24">
 <g transform="translate(0,-24)">
  <path d="M 8.6142458,28.5 3.563367,31.608233 6.7409803,34.203052 11.791859,31.136448 8.6142458,28.5 Z m 6.7715082,0 -3.19149,2.636448 5.05088,3.066604 3.191489,-2.594819 L 15.385754,28.5 Z m -8.6725257,6.216466 -2.6364478,2.234044 -0.2775208,0.235892 2.6503238,1.54024 2.1924144,1.290471 2.8168371,-2.428306 -4.7456067,-2.872341 z m 10.5596667,0 -4.745606,2.872341 2.816835,2.428306 4.84274,-2.830711 -0.263645,-0.235892 -2.650324,-2.234044 z m -5.481036,3.135985 -3.2192413,2.636448 -1.6234967,-0.874191 0,0.444034 0,0.471784 0.7770583,0.471787 4.0656797,2.497687 0,-5.647549 z m 0.402405,0 0,5.647549 4.84274,-2.969474 0,-0.915818 -0.818688,0.444034 -0.80481,0.430157 -3.219242,-2.636448 z" style="fill:#2ecc71" stroke-linejoin="round" stroke-width="0.2"/>
 </g>
</svg>
