<svg xmlns="http://www.w3.org/2000/svg" width="24" height="24">
 <g transform="translate(0,-1028.3622)">
  <path d="M 12 4.5 C 9.5411678 4.5 7.5637438 6.4549794 7.5097656 8.9003906 L 7.5 8.9003906 L 7.5 9 L 7.5 17.900391 L 16.5 17.900391 L 16.5 9 L 16.5 8.9003906 L 16.490234 8.9003906 C 16.436256 6.4549794 14.458832 4.5 12 4.5 z M 12 6.5 C 13.385 6.5 14.5 7.615 14.5 9 L 14.5 9.0058594 L 14.5 15.304688 L 9.5 15.304688 L 9.5 9.0058594 L 9.5 9 C 9.5 7.615 10.615 6.5 12 6.5 z " transform="translate(0,1028.3622)" style="fill:#34495e"/>
  <rect y="1038.86" x="5.5" height="9" width="13" style="fill:#34495e" rx="0"/>
 </g>
</svg>
