<?xml version="1.0" encoding="UTF-8" standalone="no"?>
<!-- Created with Inkscape (http://www.inkscape.org/) -->

<svg
   xmlns:dc="http://purl.org/dc/elements/1.1/"
   xmlns:cc="http://creativecommons.org/ns#"
   xmlns:rdf="http://www.w3.org/1999/02/22-rdf-syntax-ns#"
   xmlns:svg="http://www.w3.org/2000/svg"
   xmlns="http://www.w3.org/2000/svg"
   xmlns:sodipodi="http://sodipodi.sourceforge.net/DTD/sodipodi-0.dtd"
   xmlns:inkscape="http://www.inkscape.org/namespaces/inkscape"
   width="24"
   height="24"
   id="svg2"
   version="1.1"
   inkscape:version="0.48+devel r12347"
   sodipodi:docname="stock_mail-priority-high.svg">
  <defs
     id="defs4" />
  <sodipodi:namedview
     id="base"
     pagecolor="#ffffff"
     bordercolor="#666666"
     borderopacity="1.0"
     inkscape:pageopacity="0.0"
     inkscape:pageshadow="2"
     inkscape:zoom="8.290827"
     inkscape:cx="6.6696137"
     inkscape:cy="19.939758"
     inkscape:document-units="px"
     inkscape:current-layer="layer1"
     showgrid="false"
     inkscape:window-width="1366"
     inkscape:window-height="714"
     inkscape:window-x="0"
     inkscape:window-y="30"
     inkscape:window-maximized="1" />
  <metadata
     id="metadata7">
    <rdf:RDF>
      <cc:Work
         rdf:about="">
        <dc:format>image/svg+xml</dc:format>
        <dc:type
           rdf:resource="http://purl.org/dc/dcmitype/StillImage" />
        <dc:title />
      </cc:Work>
    </rdf:RDF>
  </metadata>
  <g
     inkscape:label="Capa 1"
     inkscape:groupmode="layer"
     id="layer1"
     transform="translate(0,-1028.3622)">
    <path
       id="path824"
       d="m 3.2000003,1032.3622 17.5999997,0 c 0.932747,0 1.866667,0.9339 1.866667,1.8667 l 0,12.2666 c 0,0.9328 -0.93392,1.8667 -1.866667,1.8667 l -17.5999997,0 c -0.932747,0 -1.866667,-0.9339 -1.866667,-1.8667 l 0,-12.2666 C 1.3333333,1033.2961 2.2672533,1032.3622 3.2000003,1032.3622 z m 0.266666,12.8 c 0,0.6996 0.367094,1.0667 1.066667,1.0667 l 14.9333337,0 c 0.699573,0 1.066666,-0.3671 1.066666,-1.0667 l 0,-9.6 -7.11664,7.2836 c -0.65952,0.6595 -1.728906,0.6595 -2.388426,0 L 3.4666663,1035.5622 3.4666663,1045.1622 z m 1.6000002,-10.6667 6.2601605,6.2604 c 0.494666,0.4946 1.29664,0.4946 1.791306,0 l 6.348534,-6.2604 L 5.0666665,1034.4955 Z"
       inkscape:connector-curvature="0"
       style="fill:#000000;fill-opacity:1;stroke-width:0.2;stroke-linejoin:round" />
  </g>
</svg>
