<?xml version="1.0" standalone="no"?>
<!DOCTYPE svg PUBLIC "-//W3C//DTD SVG 20010904//EN" "http://www.w3.org/TR/2001/REC-SVG-20010904/DTD/svg10.dtd">
<!-- Created using Karbon, part of Calligra: http://www.calligra.org/karbon -->
<svg xmlns="http://www.w3.org/2000/svg" xmlns:xlink="http://www.w3.org/1999/xlink" width="38.4pt" height="38.4pt">
<defs/>
<g id="layer0">
  <rect id="rect3259" transform="translate(9, 9)" fill="none" width="24.00000000000pt" height="24.00000000000pt"/>
  <path id="path3273" transform="translate(26, 37)" fill="none" d="M0 0"/>
  <path id="path3304" transform="translate(9.01773, 9.01594)" fill="#f1c40f" fill-rule="evenodd" d="M14.9941 3.34549e-07C11.0669 0.000233135 7.16556 1.6177 4.39062 4.39454C1.61569 7.17136 0 11.0733 0 15C0 18.9266 1.61569 22.8286 4.39062 25.6055C7.16556 28.3823 11.0669 29.9998 14.9941 30C18.9214 30.0003 22.825 28.3843 25.6035 25.6074C28.382 22.8306 30 18.9271 30 15L26 15C26 17.8799 24.813 20.743 22.7754 22.7793C20.7379 24.8156 17.8741 26.0001 14.9941 26C12.1142 25.9999 9.25371 24.8136 7.21875 22.7774C5.18379 20.741 4 17.8795 4 15C4 12.1204 5.18379 9.259 7.21875 7.22266C9.25371 5.18631 12.1142 4.00018 14.9941 4C14.9961 4 14.998 4 15 4L15 3.34549e-07C14.998 -3.65451e-07 14.9961 2.34549e-07 14.9941 3.34549e-07Z"/>
  <rect id="rect3280" transform="matrix(-1.34961e-15 1 -1 -1.34961e-15 32.635 18.2909)" fill="#e74c3c" fill-rule="evenodd" width="3.20315515540pt" height="3.20315515540pt"/>
  <rect id="rect3282" transform="matrix(3.33067e-16 -1 1 3.33067e-16 28.5806 15.8772)" fill="#e74c3c" fill-rule="evenodd" width="10.12559392405pt" height="3.20000000000pt"/>
 </g>
</svg>
