<?xml version="1.0" encoding="UTF-8" standalone="no"?>
<!-- Created with Inkscape (http://www.inkscape.org/) -->

<svg
   width="22"
   height="22"
   viewBox="0 0 22 22"
   id="svg2"
   version="1.1"
   inkscape:version="1.1.1 (3bf5ae0, 2021-09-20)"
   sodipodi:docname="device-pci-gpu.svg"
   xmlns:inkscape="http://www.inkscape.org/namespaces/inkscape"
   xmlns:sodipodi="http://sodipodi.sourceforge.net/DTD/sodipodi-0.dtd"
   xmlns="http://www.w3.org/2000/svg"
   xmlns:svg="http://www.w3.org/2000/svg"
   xmlns:rdf="http://www.w3.org/1999/02/22-rdf-syntax-ns#"
   xmlns:cc="http://creativecommons.org/ns#"
   xmlns:dc="http://purl.org/dc/elements/1.1/">
  <defs
     id="defs3051">
    <style
       type="text/css"
       id="current-color-scheme">
    .ColorScheme-Text {
    color:#4d4d4d;
    }
    </style>
  </defs>
  <sodipodi:namedview
     id="base"
     pagecolor="#ffffff"
     bordercolor="#666666"
     borderopacity="1.0"
     inkscape:pageopacity="0.0"
     inkscape:pageshadow="2"
     inkscape:zoom="52.772727"
     inkscape:cx="11"
     inkscape:cy="11"
     inkscape:document-units="px"
     inkscape:current-layer="layer1"
     showgrid="true"
     units="px"
     inkscape:showpageshadow="false"
     borderlayer="true"
     showguides="true"
     inkscape:guide-bbox="true"
     inkscape:window-width="2560"
     inkscape:window-height="1412"
     inkscape:window-x="0"
     inkscape:window-y="0"
     inkscape:window-maximized="1"
     inkscape:pagecheckerboard="1">
    <inkscape:grid
       type="xygrid"
       id="grid4136"
       empspacing="2" />
    <sodipodi:guide
       position="0,20"
       orientation="0,1"
       id="guide4140"
       inkscape:label="Icon Max Height"
       inkscape:color="rgb(233,30,99)"
       inkscape:locked="false" />
    <sodipodi:guide
       position="0,2"
       orientation="0,1"
       id="guide4142"
       inkscape:label="Icon Baseline"
       inkscape:color="rgb(233,30,99)"
       inkscape:locked="false" />
    <sodipodi:guide
       position="11,0"
       orientation="1,0"
       id="guide4144"
       inkscape:label="Center Vertical"
       inkscape:color="rgb(221,44,0)"
       inkscape:locked="false" />
    <sodipodi:guide
       position="15,11"
       orientation="0,1"
       id="guide4146"
       inkscape:label="Center Horizontal"
       inkscape:color="rgb(221,44,0)"
       inkscape:locked="false" />
  </sodipodi:namedview>
  <metadata
     id="metadata7">
    <rdf:RDF>
      <cc:Work
         rdf:about="">
        <dc:format>image/svg+xml</dc:format>
        <dc:type
           rdf:resource="http://purl.org/dc/dcmitype/StillImage" />
      </cc:Work>
    </rdf:RDF>
  </metadata>
  <g
     inkscape:label="Capa 1"
     inkscape:groupmode="layer"
     id="layer1"
     transform="translate(0,-1030.3622)">
    <path
       id="rect931"
       style="fill:currentColor;fill-opacity:1;stroke:none" class="ColorScheme-Text"
       d="M 2 4 L 2 6 L 2 8 L 1 8 L 1 11 L 2 11 L 2 12 L 3 12 L 3 15 L 2 15 L 2 18 C 2 18.554 2.446 19 3 19 C 3.554 19 4 18.554 4 18 L 4 17 L 5 17 L 6 17 L 6 16 L 16 16 L 16 17 L 18 17 L 18 16 L 19 16 L 19 17 C 20.10801 17 21 16.108 21 15 L 21 7 C 21 5.892 20.10801 5 19 5 L 5 5 L 3 5 L 3 4 L 2 4 z M 19 17 L 18 17 L 18 18 L 19 18 L 19 17 z M 16 17 L 6 17 L 6 18 L 16 18 L 16 17 z M 4 7 L 5 7 L 19 7 L 19 15 L 5 15 L 4 15 L 4 7 z M 15 8 A 3 3 0 0 0 12 11 A 3 3 0 0 0 15 14 A 3 3 0 0 0 18 11 A 3 3 0 0 0 15 8 z M 5 9 L 5 10 L 10 10 L 10 9 L 5 9 z M 15 9 A 2 2 0 0 1 17 11 A 2 2 0 0 1 15 13 A 2 2 0 0 1 13 11 A 2 2 0 0 1 15 9 z M 5 12 L 5 13 L 10 13 L 10 12 L 5 12 z "
       transform="translate(0,1030.3622)" />
    <circle
       style="fill:currentColor;fill-opacity:0.5;stroke:none" class="ColorScheme-Text"
       id="path1915"
       cx="15"
       cy="1041.3622"
       r="1" />
  </g>
</svg>
