<?xml version="1.0" encoding="UTF-8" standalone="no"?>
<!-- Created with Inkscape (http://www.inkscape.org/) -->

<svg
   xmlns:dc="http://purl.org/dc/elements/1.1/"
   xmlns:cc="http://creativecommons.org/ns#"
   xmlns:rdf="http://www.w3.org/1999/02/22-rdf-syntax-ns#"
   xmlns:svg="http://www.w3.org/2000/svg"
   xmlns="http://www.w3.org/2000/svg"
   xmlns:sodipodi="http://sodipodi.sourceforge.net/DTD/sodipodi-0.dtd"
   xmlns:inkscape="http://www.inkscape.org/namespaces/inkscape"
   width="22"
   height="22"
   viewBox="0 0 22 22"
   id="svg2"
   version="1.1"
   inkscape:version="0.91 r13725"
   sodipodi:docname="amarok_clock.svg">
  <defs
     id="defs3051">
    <style
       type="text/css"
       id="current-color-scheme">
      .ColorScheme-Text {
        color:#4d4d4d;
      }
      </style>
    <style
       id="current-color-scheme-7"
       type="text/css">
      .ColorScheme-Text {
        color:#4d4d4d;
      }
      </style>
  </defs>
  <sodipodi:namedview
     id="base"
     pagecolor="#ffffff"
     bordercolor="#666666"
     borderopacity="1.0"
     inkscape:pageopacity="0.0"
     inkscape:pageshadow="2"
     inkscape:zoom="30.964625"
     inkscape:cx="11.89899"
     inkscape:cy="14.003028"
     inkscape:document-units="px"
     inkscape:current-layer="layer1"
     showgrid="true"
     units="px"
     inkscape:showpageshadow="false"
     borderlayer="true"
     showguides="true"
     inkscape:guide-bbox="true"
     inkscape:window-width="2560"
     inkscape:window-height="1050"
     inkscape:window-x="0"
     inkscape:window-y="0"
     inkscape:window-maximized="1">
    <inkscape:grid
       type="xygrid"
       id="grid4136"
       empspacing="2" />
    <sodipodi:guide
       position="0,20"
       orientation="0,1"
       id="guide4140"
       inkscape:label="Icon Max Height"
       inkscape:color="rgb(233,30,99)" />
    <sodipodi:guide
       position="0,2"
       orientation="0,1"
       id="guide4142"
       inkscape:label="Icon Baseline"
       inkscape:color="rgb(233,30,99)" />
    <sodipodi:guide
       position="11,0"
       orientation="1,0"
       id="guide4144"
       inkscape:label="Center Vertical"
       inkscape:color="rgb(221,44,0)" />
    <sodipodi:guide
       position="15,11"
       orientation="0,1"
       id="guide4146"
       inkscape:label="Center Horizontal"
       inkscape:color="rgb(221,44,0)" />
  </sodipodi:namedview>
  <metadata
     id="metadata7">
    <rdf:RDF>
      <cc:Work
         rdf:about="">
        <dc:format>image/svg+xml</dc:format>
        <dc:type
           rdf:resource="http://purl.org/dc/dcmitype/StillImage" />
        <dc:title />
      </cc:Work>
    </rdf:RDF>
  </metadata>
  <g
     inkscape:label="Capa 1"
     inkscape:groupmode="layer"
     id="layer1"
     transform="translate(0,-1030.3622)">
    <path
       style="fill:currentColor;fill-opacity:1;stroke:none" class="ColorScheme-Text"
       d="M 1.9882812 3.0019531 C 1.4413793 3.0119531 1.0011103 3.4531 1 4 L 1 8 C 0.998597 8.7995 1.8893913 9.2772844 2.5546875 8.8339844 L 5.5546875 6.8320312 C 6.148313 6.4361313 6.148313 5.5638687 5.5546875 5.1679688 L 2.5546875 3.1679688 C 2.3868846 3.0568687 2.1894839 2.9990531 1.9882812 3.0019531 z M 10.400391 5 C 9.8463956 5 9.4003906 5.446 9.4003906 6 C 9.4003906 6.554 9.8463956 7 10.400391 7 L 19.630859 7 C 20.184854 7 20.630859 6.554 20.630859 6 C 20.630859 5.446 20.184854 5 19.630859 5 L 10.400391 5 z M 1.90625 11 C 1.404024 11 1 11.40395 1 11.90625 L 1 12.09375 C 1 12.59595 1.404024 13 1.90625 13 L 3.09375 13 C 3.595976 13 4 12.59595 4 12.09375 L 4 11.90625 C 4 11.40395 3.595976 11 3.09375 11 L 1.90625 11 z M 7 11 C 6.446072 11 6 11.4461 6 12 C 6 12.5539 6.446072 13 7 13 L 20 13 C 20.553928 13 21 12.5539 21 12 C 21 11.4461 20.553928 11 20 11 L 7 11 z M 1.90625 17 C 1.404024 17 1 17.40395 1 17.90625 L 1 18.09375 C 1 18.59595 1.404024 19 1.90625 19 L 3.09375 19 C 3.595976 19 4 18.59595 4 18.09375 L 4 17.90625 C 4 17.40395 3.595976 17 3.09375 17 L 1.90625 17 z M 7 17 C 6.446005 17 6 17.446 6 18 C 6 18.554 6.446005 19 7 19 L 20 19 C 20.553995 19 21 18.554 21 18 C 21 17.446 20.553995 17 20 17 L 7 17 z "
       transform="translate(0,1030.3622)"
       id="rect4143" />
  </g>
</svg>
