<?xml version="1.0" encoding="UTF-8" standalone="no"?>
<!-- Created with Inkscape (http://www.inkscape.org/) -->

<svg
   xmlns:dc="http://purl.org/dc/elements/1.1/"
   xmlns:cc="http://creativecommons.org/ns#"
   xmlns:rdf="http://www.w3.org/1999/02/22-rdf-syntax-ns#"
   xmlns:svg="http://www.w3.org/2000/svg"
   xmlns="http://www.w3.org/2000/svg"
   xmlns:sodipodi="http://sodipodi.sourceforge.net/DTD/sodipodi-0.dtd"
   xmlns:inkscape="http://www.inkscape.org/namespaces/inkscape"
   width="22"
   height="22"
   viewBox="0 0 22 22"
   id="svg2"
   version="1.1"
   inkscape:version="0.92.3 (unknown)"
   sodipodi:docname="application-exit.svg">
  <defs
     id="defs3051">
    <style
       type="text/css"
       id="current-color-scheme">
    .ColorScheme-Text {
    color:#4d4d4d;
    }
    </style>
  </defs>
  <sodipodi:namedview
     id="base"
     pagecolor="#ffffff"
     bordercolor="#666666"
     borderopacity="1.0"
     inkscape:pageopacity="0.0"
     inkscape:pageshadow="2"
     inkscape:zoom="45.254834"
     inkscape:cx="12.754567"
     inkscape:cy="8.5882019"
     inkscape:document-units="px"
     inkscape:current-layer="layer1"
     showgrid="true"
     units="px"
     inkscape:showpageshadow="false"
     borderlayer="true"
     showguides="true"
     inkscape:guide-bbox="true"
     inkscape:window-width="2560"
     inkscape:window-height="1378"
     inkscape:window-x="0"
     inkscape:window-y="32"
     inkscape:window-maximized="1">
    <inkscape:grid
       type="xygrid"
       id="grid4136"
       empspacing="2" />
    <sodipodi:guide
       position="0,20"
       orientation="0,1"
       id="guide4140"
       inkscape:label="Icon Max Height"
       inkscape:color="rgb(233,30,99)"
       inkscape:locked="false" />
    <sodipodi:guide
       position="0,2"
       orientation="0,1"
       id="guide4142"
       inkscape:label="Icon Baseline"
       inkscape:color="rgb(233,30,99)"
       inkscape:locked="false" />
    <sodipodi:guide
       position="11,0"
       orientation="1,0"
       id="guide4144"
       inkscape:label="Center Vertical"
       inkscape:color="rgb(221,44,0)"
       inkscape:locked="false" />
    <sodipodi:guide
       position="15,11"
       orientation="0,1"
       id="guide4146"
       inkscape:label="Center Horizontal"
       inkscape:color="rgb(221,44,0)"
       inkscape:locked="false" />
  </sodipodi:namedview>
  <metadata
     id="metadata7">
    <rdf:RDF>
      <cc:Work
         rdf:about="">
        <dc:format>image/svg+xml</dc:format>
        <dc:type
           rdf:resource="http://purl.org/dc/dcmitype/StillImage" />
        <dc:title />
      </cc:Work>
    </rdf:RDF>
  </metadata>
  <g
     inkscape:label="Capa 1"
     inkscape:groupmode="layer"
     id="layer1"
     transform="translate(0,-1030.3622)">
    <path
       style="fill:currentColor;fill-opacity:1;stroke:none" class="ColorScheme-Text"
       d="M 6 3 C 4.8919904 3 4 3.8919904 4 5 L 4 17 C 4 18.10801 4.8919904 19 6 19 L 11 19 L 11 18 L 11 17 L 6 17 L 6 5 L 11 5 L 11 3 L 6 3 z M 14.890625 8.0058594 C 14.421371 8.0608594 14.00025 8.443 14 9 L 14 10 L 13 10 L 12 10 L 11 10 L 9 10 C 8.446 10 8 10.4453 8 11 C 8 11.5546 8.446 12.001953 9 12.001953 L 11 12.001953 L 12 12.001953 L 13 12.001953 L 14 12.001953 L 14 13.001953 C 14.0056 13.890853 15.078966 14.332831 15.707031 13.707031 L 17.707031 11.705078 C 17.794111 11.618078 17.864306 11.513291 17.914062 11.400391 C 17.918563 11.390391 17.921561 11.381094 17.925781 11.371094 C 17.973911 11.252994 17.9991 11.125447 18 10.998047 C 17.99974 10.867147 17.973858 10.738187 17.923828 10.617188 C 17.921928 10.617188 17.919969 10.603516 17.917969 10.603516 C 17.868259 10.488316 17.797364 10.384022 17.708984 10.294922 L 17.707031 10.294922 L 15.707031 8.2949219 C 15.470865 8.0586219 15.172177 7.9728594 14.890625 8.0058594 z "
       transform="translate(0,1030.3622)"
       id="rect29" />
  </g>
</svg>
