<?xml version="1.0" encoding="UTF-8" standalone="no"?>
<!-- Created with Inkscape (http://www.inkscape.org/) -->

<svg
   xmlns:dc="http://purl.org/dc/elements/1.1/"
   xmlns:cc="http://creativecommons.org/ns#"
   xmlns:rdf="http://www.w3.org/1999/02/22-rdf-syntax-ns#"
   xmlns:svg="http://www.w3.org/2000/svg"
   xmlns="http://www.w3.org/2000/svg"
   xmlns:sodipodi="http://sodipodi.sourceforge.net/DTD/sodipodi-0.dtd"
   xmlns:inkscape="http://www.inkscape.org/namespaces/inkscape"
   width="22"
   height="22"
   viewBox="0 0 22 22"
   id="svg2"
   version="1.1"
   inkscape:version="0.91 r13725"
   sodipodi:docname="archive-remove.svg">
<defs
    id="defs3051">
<style
    type="text/css"
    id="current-color-scheme">
    .ColorScheme-Text {
    color:#4d4d4d;
    }
    </style>
</defs>
  <sodipodi:namedview
     id="base"
     pagecolor="#ffffff"
     bordercolor="#666666"
     borderopacity="1.0"
     inkscape:pageopacity="0.0"
     inkscape:pageshadow="2"
     inkscape:zoom="38.636364"
     inkscape:cx="10.767059"
     inkscape:cy="9.9647055"
     inkscape:document-units="px"
     inkscape:current-layer="layer1"
     showgrid="true"
     units="px"
     inkscape:showpageshadow="false"
     borderlayer="true"
     showguides="true"
     inkscape:guide-bbox="true"
     inkscape:window-width="2560"
     inkscape:window-height="1014"
     inkscape:window-x="0"
     inkscape:window-y="0"
     inkscape:window-maximized="1">
    <inkscape:grid
       type="xygrid"
       id="grid4136"
       empspacing="2" />
    <sodipodi:guide
       position="0,20"
       orientation="0,1"
       id="guide4140"
       inkscape:label="Icon Max Height"
       inkscape:color="rgb(233,30,99)" />
    <sodipodi:guide
       position="19,2"
       orientation="0,1"
       id="guide4142"
       inkscape:label="Icon Baseline"
       inkscape:color="rgb(233,30,99)" />
    <sodipodi:guide
       position="11,0"
       orientation="1,0"
       id="guide4144"
       inkscape:label="Center Vertical"
       inkscape:color="rgb(221,44,0)" />
    <sodipodi:guide
       position="17,11"
       orientation="0,1"
       id="guide4146"
       inkscape:label="Center Horizontal"
       inkscape:color="rgb(221,44,0)" />
  </sodipodi:namedview>
  <metadata
     id="metadata7">
    <rdf:RDF>
      <cc:Work
         rdf:about="">
        <dc:format>image/svg+xml</dc:format>
        <dc:type
           rdf:resource="http://purl.org/dc/dcmitype/StillImage" />
        <dc:title />
      </cc:Work>
    </rdf:RDF>
  </metadata>
  <g
     inkscape:label="Capa 1"
     inkscape:groupmode="layer"
     id="layer1"
     transform="translate(0,-1030.3622)">
    <path
       style="fill:currentColor;fill-opacity:1;stroke:none" class="ColorScheme-Text"
       d="M 6 2 C 4.8919904 2 4 2.8919904 4 4 L 4 18 C 4 19.10801 4.8919904 20 6 20 L 12 20 L 12 18 L 6 18 L 6 4 L 11 4 L 11 8 C 11 8.554 11.446 9 12 9 L 14.5 9 L 16 9 L 17.996094 9 L 17.996094 8.0195312 C 17.996226 8.0126409 18 8.006925 18 8 C 18 7.99308 17.996194 7.9873587 17.996094 7.9804688 L 17.996094 6.9921875 C 17.996212 6.7279103 17.891568 6.4743627 17.705078 6.2871094 L 13.710938 2.2929688 C 13.523523 2.1052837 13.26914 1.9998758 13.003906 2 L 11 2 L 6 2 z M 13 4.4042969 L 15.591797 7 L 13 7 L 13 4.4042969 z M 17 11 C 16.446 11 16 11.446 16 12 L 15 12 L 13.5 12 C 13.223 12 13 12.223 13 12.5 C 13 12.777 13.223 13 13.5 13 L 14 13 L 20 13 L 20.5 13 C 20.777 13 21 12.777 21 12.5 C 21 12.223 20.777 12 20.5 12 L 19 12 L 18 12 C 18 11.446 17.554 11 17 11 z M 14 14 L 14 19 C 14 19.55401 14.44599 20 15 20 L 19 20 C 19.55401 20 20 19.55401 20 19 L 20 14 L 14 14 z M 15 15 L 16 15 L 16 19 L 15 19 L 15 15 z M 17 15 L 18 15 L 18 18 L 17 18 L 17 15 z "
       transform="translate(0,1030.3622)"
       id="rect4141" />
  </g>
</svg>
