<?xml version="1.0" encoding="UTF-8" standalone="no"?>
<!-- Created with Inkscape (http://www.inkscape.org/) -->

<svg
   width="22"
   height="22"
   viewBox="0 0 22 22"
   id="svg2"
   version="1.1"
   inkscape:version="1.1 (c4e8f9e, 2021-05-24)"
   sodipodi:docname="code-context.svg"
   xmlns:inkscape="http://www.inkscape.org/namespaces/inkscape"
   xmlns:sodipodi="http://sodipodi.sourceforge.net/DTD/sodipodi-0.dtd"
   xmlns="http://www.w3.org/2000/svg"
   xmlns:svg="http://www.w3.org/2000/svg"
   xmlns:rdf="http://www.w3.org/1999/02/22-rdf-syntax-ns#"
   xmlns:cc="http://creativecommons.org/ns#"
   xmlns:dc="http://purl.org/dc/elements/1.1/">
  <defs
     id="defs3051">
    <style
       type="text/css"
       id="current-color-scheme">
    .ColorScheme-Text {
    color:#4d4d4d;
    }
    </style>
    <style
       type="text/css"
       id="current-color-scheme-6">
      .ColorScheme-Text {
        color:#eff0f1;
      }
      </style>
  </defs>
  <sodipodi:namedview
     id="base"
     pagecolor="#ffffff"
     bordercolor="#666666"
     borderopacity="1.0"
     inkscape:pageopacity="0.0"
     inkscape:pageshadow="2"
     inkscape:zoom="45.254834"
     inkscape:cx="11.291611"
     inkscape:cy="10.109417"
     inkscape:document-units="px"
     inkscape:current-layer="layer1"
     showgrid="true"
     units="px"
     inkscape:showpageshadow="false"
     borderlayer="true"
     showguides="true"
     inkscape:guide-bbox="true"
     inkscape:window-width="1555"
     inkscape:window-height="1412"
     inkscape:window-x="0"
     inkscape:window-y="0"
     inkscape:window-maximized="1"
     inkscape:pagecheckerboard="0">
    <inkscape:grid
       type="xygrid"
       id="grid4136"
       empspacing="2" />
    <sodipodi:guide
       position="0,20"
       orientation="0,1"
       id="guide4140"
       inkscape:label="Icon Max Height"
       inkscape:color="rgb(233,30,99)"
       inkscape:locked="false" />
    <sodipodi:guide
       position="0,2"
       orientation="0,1"
       id="guide4142"
       inkscape:label="Icon Baseline"
       inkscape:color="rgb(233,30,99)"
       inkscape:locked="false" />
    <sodipodi:guide
       position="11,0"
       orientation="1,0"
       id="guide4144"
       inkscape:label="Center Vertical"
       inkscape:color="rgb(221,44,0)"
       inkscape:locked="false" />
    <sodipodi:guide
       position="15,11"
       orientation="0,1"
       id="guide4146"
       inkscape:label="Center Horizontal"
       inkscape:color="rgb(221,44,0)"
       inkscape:locked="false" />
  </sodipodi:namedview>
  <metadata
     id="metadata7">
    <rdf:RDF>
      <cc:Work
         rdf:about="">
        <dc:format>image/svg+xml</dc:format>
        <dc:type
           rdf:resource="http://purl.org/dc/dcmitype/StillImage" />
      </cc:Work>
    </rdf:RDF>
  </metadata>
  <g
     inkscape:label="Capa 1"
     inkscape:groupmode="layer"
     id="layer1"
     transform="translate(0,-1030.3622)">
    <path
       id="rect943"
       style="fill:#4d4d4d;stroke-width:2;stroke-linecap:round;stroke-linejoin:round;paint-order:stroke fill markers"
       d="M 8 3 C 7.4477153 3 7 3.4477 7 4 L 7 9.5507812 C 6.5577474 9.8115813 5.9199711 10 5 10 L 5 12 C 5.9199711 12 6.5577474 12.188419 7 12.449219 L 7 18 C 6.9999966 18.5523 7.448402 19.0276 8 19 L 10 19 L 10 17 L 9 17 L 9 12 C 9 11.6354 8.903496 11.2938 8.734375 11 C 8.9034958 10.7062 9 10.3646 9 10 L 9 5 L 10 5 L 10 3 L 8 3 z M 12 3 L 12 5 L 13 5 L 13 10 C 13 10.3646 13.096504 10.7062 13.265625 11 C 13.0965 11.2938 13 11.6354 13 12 L 13 17 L 12 17 L 12 19 L 14 19 C 14.552287 19 15.000003 18.5523 15 18 L 15 12.449219 C 15.442253 12.188419 16.080029 12 17 12 L 17 10 C 16.080029 10 15.442253 9.8115813 15 9.5507812 L 15 4 C 15 3.4477 14.552285 3 14 3 L 12 3 z "
       transform="translate(0,1030.3622)" />
  </g>
</svg>
