<?xml version="1.0" encoding="UTF-8" standalone="no"?>
<!-- Created with Inkscape (http://www.inkscape.org/) -->

<svg
   xmlns:dc="http://purl.org/dc/elements/1.1/"
   xmlns:cc="http://creativecommons.org/ns#"
   xmlns:rdf="http://www.w3.org/1999/02/22-rdf-syntax-ns#"
   xmlns:svg="http://www.w3.org/2000/svg"
   xmlns="http://www.w3.org/2000/svg"
   xmlns:sodipodi="http://sodipodi.sourceforge.net/DTD/sodipodi-0.dtd"
   xmlns:inkscape="http://www.inkscape.org/namespaces/inkscape"
   width="22"
   height="22"
   viewBox="0 0 22 22"
   id="svg2"
   version="1.1"
   inkscape:version="0.92.3 (unknown)"
   sodipodi:docname="dialer-call.svg">
  <defs
     id="defs3051">
    <style
       type="text/css"
       id="current-color-scheme">
      .ColorScheme-Text {
        color:#4d4d4d;
      }
      </style>
    <style
       id="current-color-scheme-7"
       type="text/css">
      .ColorScheme-Text {
        color:#4d4d4d;
      }
      </style>
  </defs>
  <sodipodi:namedview
     id="base"
     pagecolor="#ffffff"
     bordercolor="#666666"
     borderopacity="1.0"
     inkscape:pageopacity="0.0"
     inkscape:pageshadow="2"
     inkscape:zoom="45.254834"
     inkscape:cx="9.0904069"
     inkscape:cy="10.648131"
     inkscape:document-units="px"
     inkscape:current-layer="layer1"
     showgrid="true"
     units="px"
     inkscape:showpageshadow="false"
     borderlayer="true"
     showguides="true"
     inkscape:guide-bbox="true"
     inkscape:window-width="2560"
     inkscape:window-height="1407"
     inkscape:window-x="0"
     inkscape:window-y="33"
     inkscape:window-maximized="1">
    <inkscape:grid
       type="xygrid"
       id="grid4136"
       empspacing="2" />
    <sodipodi:guide
       position="0,20"
       orientation="0,1"
       id="guide4140"
       inkscape:label="Icon Max Height"
       inkscape:color="rgb(233,30,99)"
       inkscape:locked="false" />
    <sodipodi:guide
       position="0,2"
       orientation="0,1"
       id="guide4142"
       inkscape:label="Icon Baseline"
       inkscape:color="rgb(233,30,99)"
       inkscape:locked="false" />
    <sodipodi:guide
       position="11,0"
       orientation="1,0"
       id="guide4144"
       inkscape:label="Center Vertical"
       inkscape:color="rgb(221,44,0)"
       inkscape:locked="false" />
    <sodipodi:guide
       position="15,11"
       orientation="0,1"
       id="guide4146"
       inkscape:label="Center Horizontal"
       inkscape:color="rgb(221,44,0)"
       inkscape:locked="false" />
  </sodipodi:namedview>
  <metadata
     id="metadata7">
    <rdf:RDF>
      <cc:Work
         rdf:about="">
        <dc:format>image/svg+xml</dc:format>
        <dc:type
           rdf:resource="http://purl.org/dc/dcmitype/StillImage" />
        <dc:title />
      </cc:Work>
    </rdf:RDF>
  </metadata>
  <g
     inkscape:label="Capa 1"
     inkscape:groupmode="layer"
     id="layer1"
     transform="translate(0,-1030.3622)">
    <path
       style="fill:currentColor;fill-opacity:1;stroke:none" class="ColorScheme-Text"
       d="M 11 2 L 11 4 A 7 7 0 0 1 18 11 L 20 11 A 9 9 0 0 0 11 2 z M 11 6 L 11 8 A 3 3 0 0 1 14 11 L 16 11 A 5 5 0 0 0 11 6 z M 2.2363281 9 A 9 9 0 0 0 2.1308594 9.4707031 A 9 9 0 0 0 2.0234375 10.363281 A 9 9 0 0 0 2 11 A 9 9 0 0 0 2.0449219 11.898438 A 9 9 0 0 0 2.1796875 12.787109 A 9 9 0 0 0 2.234375 13 A 9 9 0 0 0 9 19.763672 A 9 9 0 0 0 9.4707031 19.869141 A 9 9 0 0 0 10.363281 19.976562 A 9 9 0 0 0 11 20 A 9 9 0 0 0 11.898438 19.955078 A 9 9 0 0 0 12.787109 19.820312 A 9 9 0 0 0 13 19.765625 L 13 17.701172 L 13 17 C 13 16.44599 12.55401 16 12 16 L 10 16 C 9.4459904 16 9 16.44599 9 17 L 9 17.705078 A 7 7 0 0 1 4.2988281 13 L 5 13 C 5.5540096 13 6 12.55401 6 12 L 6 10 C 6 9.4459904 5.5540096 9 5 9 L 4.2949219 9 L 2.2363281 9 z "
       transform="translate(0,1030.3622)"
       id="path859" />
  </g>
</svg>
