<?xml version="1.0" encoding="UTF-8" standalone="no"?>
<!-- Created with Inkscape (http://www.inkscape.org/) -->

<svg
   xmlns:dc="http://purl.org/dc/elements/1.1/"
   xmlns:cc="http://creativecommons.org/ns#"
   xmlns:rdf="http://www.w3.org/1999/02/22-rdf-syntax-ns#"
   xmlns:svg="http://www.w3.org/2000/svg"
   xmlns="http://www.w3.org/2000/svg"
   xmlns:sodipodi="http://sodipodi.sourceforge.net/DTD/sodipodi-0.dtd"
   xmlns:inkscape="http://www.inkscape.org/namespaces/inkscape"
   width="22"
   height="22"
   viewBox="0 0 22 22"
   id="svg2"
   version="1.1"
   inkscape:version="0.92.3 (2405546, 2018-03-11)"
   sodipodi:docname="document-import.svg">
  <defs
     id="defs3051">
    <style
       type="text/css"
       id="current-color-scheme">
    .ColorScheme-Text {
    color:#4d4d4d;
    }
    </style>
  </defs>
  <sodipodi:namedview
     id="base"
     pagecolor="#ffffff"
     bordercolor="#666666"
     borderopacity="1.0"
     inkscape:pageopacity="0.0"
     inkscape:pageshadow="2"
     inkscape:zoom="45.522727"
     inkscape:cx="12.465335"
     inkscape:cy="11.808441"
     inkscape:document-units="px"
     inkscape:current-layer="layer1"
     showgrid="true"
     units="px"
     inkscape:showpageshadow="false"
     borderlayer="true"
     showguides="true"
     inkscape:guide-bbox="true"
     inkscape:window-width="2560"
     inkscape:window-height="1370"
     inkscape:window-x="0"
     inkscape:window-y="33"
     inkscape:window-maximized="1">
    <inkscape:grid
       type="xygrid"
       id="grid4136"
       empspacing="2" />
    <sodipodi:guide
       position="0,20"
       orientation="0,1"
       id="guide4140"
       inkscape:label="Icon Max Height"
       inkscape:color="rgb(233,30,99)"
       inkscape:locked="false" />
    <sodipodi:guide
       position="0,2"
       orientation="0,1"
       id="guide4142"
       inkscape:label="Icon Baseline"
       inkscape:color="rgb(233,30,99)"
       inkscape:locked="false" />
    <sodipodi:guide
       position="11,0"
       orientation="1,0"
       id="guide4144"
       inkscape:label="Center Vertical"
       inkscape:color="rgb(221,44,0)"
       inkscape:locked="false" />
    <sodipodi:guide
       position="15,11"
       orientation="0,1"
       id="guide4146"
       inkscape:label="Center Horizontal"
       inkscape:color="rgb(221,44,0)"
       inkscape:locked="false" />
  </sodipodi:namedview>
  <metadata
     id="metadata7">
    <rdf:RDF>
      <cc:Work
         rdf:about="">
        <dc:format>image/svg+xml</dc:format>
        <dc:type
           rdf:resource="http://purl.org/dc/dcmitype/StillImage" />
        <dc:title />
      </cc:Work>
    </rdf:RDF>
  </metadata>
  <g
     inkscape:label="Capa 1"
     inkscape:groupmode="layer"
     id="layer1"
     transform="translate(0,-1030.3622)">
    <path
       style="fill:currentColor;fill-opacity:1;stroke:none" class="ColorScheme-Text"
       d="m 6.0090391,1032.362 c -1.1071346,0 -1.9983121,0.8909 -1.9983121,1.9977 v 7.9911 h 1.9983121 v -7.9911 H 11.00482 v 3.9955 c 0,0.5534 0.445593,0.999 0.999156,0.999 H 16.0006 v 0.9872 1.0105 0.9989 5.9934 h -3.996624 -1.998313 v 1.9977 h 1.998313 3.996624 c 1.107135,0 1.998312,-0.891 1.998312,-1.9977 v -5.9934 -0.9989 -1.9977 h -0.0039 v -0.9795 c 1.26e-4,-0.01 0.0039,-0.014 0.0039,-0.019 0,-0.01 -0.0038,-0.013 -0.0039,-0.02 v -0.9872 c 1.12e-4,-0.264 -0.104427,-0.5172 -0.290771,-0.7043 l -3.99077,-3.9897 c -0.187268,-0.1874 -0.44141,-0.2927 -0.706434,-0.2926 h -2.002215 z m -0.9874472,11.9866 a 0.99257611,0.99637723 0 0 0 -0.6927742,1.709 l 0.2907699,0.2946 H 3.044746 a 0.99257611,0.99637723 0 1 0 0,1.99 h 1.5748416 l -0.2907699,0.2927 a 0.99285147,0.99665366 0 1 0 1.4031116,1.4085 l 1.9846518,-1.9919 a 0.99257611,0.99637723 0 0 0 0,-1.4086 l -1.9846518,-1.9938 a 0.99257611,0.99637723 0 0 0 -0.7103374,-0.3005 z"
       id="path824"
       inkscape:connector-curvature="0" />
  </g>
</svg>
