<?xml version="1.0" encoding="UTF-8" standalone="no"?>
<!-- Created with Inkscape (http://www.inkscape.org/) -->

<svg
   xmlns:dc="http://purl.org/dc/elements/1.1/"
   xmlns:cc="http://creativecommons.org/ns#"
   xmlns:rdf="http://www.w3.org/1999/02/22-rdf-syntax-ns#"
   xmlns:svg="http://www.w3.org/2000/svg"
   xmlns="http://www.w3.org/2000/svg"
   xmlns:sodipodi="http://sodipodi.sourceforge.net/DTD/sodipodi-0.dtd"
   xmlns:inkscape="http://www.inkscape.org/namespaces/inkscape"
   width="22"
   height="22"
   viewBox="0 0 22 22"
   id="svg2"
   version="1.1"
   inkscape:version="0.92.3 (2405546, 2018-03-11)"
   sodipodi:docname="document-export.svg">
  <defs
     id="defs3051">
    <style
       type="text/css"
       id="current-color-scheme">
    .ColorScheme-Text {
    color:#4d4d4d;
    }
    </style>
  </defs>
  <sodipodi:namedview
     id="base"
     pagecolor="#ffffff"
     bordercolor="#666666"
     borderopacity="1.0"
     inkscape:pageopacity="0.0"
     inkscape:pageshadow="2"
     inkscape:zoom="38.215907"
     inkscape:cx="12.801366"
     inkscape:cy="11.088528"
     inkscape:document-units="px"
     inkscape:current-layer="layer1"
     showgrid="true"
     units="px"
     inkscape:showpageshadow="false"
     borderlayer="true"
     showguides="true"
     inkscape:guide-bbox="true"
     inkscape:window-width="2560"
     inkscape:window-height="1370"
     inkscape:window-x="0"
     inkscape:window-y="33"
     inkscape:window-maximized="1">
    <inkscape:grid
       type="xygrid"
       id="grid4136"
       empspacing="2" />
    <sodipodi:guide
       position="0,20"
       orientation="0,1"
       id="guide4140"
       inkscape:label="Icon Max Height"
       inkscape:color="rgb(233,30,99)"
       inkscape:locked="false" />
    <sodipodi:guide
       position="0,2"
       orientation="0,1"
       id="guide4142"
       inkscape:label="Icon Baseline"
       inkscape:color="rgb(233,30,99)"
       inkscape:locked="false" />
    <sodipodi:guide
       position="11,0"
       orientation="1,0"
       id="guide4144"
       inkscape:label="Center Vertical"
       inkscape:color="rgb(221,44,0)"
       inkscape:locked="false" />
    <sodipodi:guide
       position="15,11"
       orientation="0,1"
       id="guide4146"
       inkscape:label="Center Horizontal"
       inkscape:color="rgb(221,44,0)"
       inkscape:locked="false" />
  </sodipodi:namedview>
  <metadata
     id="metadata7">
    <rdf:RDF>
      <cc:Work
         rdf:about="">
        <dc:format>image/svg+xml</dc:format>
        <dc:type
           rdf:resource="http://purl.org/dc/dcmitype/StillImage" />
        <dc:title />
      </cc:Work>
    </rdf:RDF>
  </metadata>
  <g
     inkscape:label="Capa 1"
     inkscape:groupmode="layer"
     id="layer1"
     transform="translate(0,-1030.3622)">
    <path
       style="fill:currentColor;fill-opacity:1;stroke:none" class="ColorScheme-Text"
       d="m 6.0001086,1032.3622 c -1.1080697,0 -2.0001086,0.892 -2.0001086,2 v 14 c 0,1.108 0.8920389,2 2.0001086,2 h 6.0003264 v -2 H 6.0001086 v -14 H 11.00038 v 4 c 0,0.554 0.446024,1 1.000055,1 h 4.000217 v 0.9883 2.0117 h 2.000108 v -3 h -0.0039 v -0.9805 c 1.26e-4,-0.01 0.0039,-0.013 0.0039,-0.019 0,-0.01 -0.0038,-0.013 -0.0039,-0.02 v -0.9883 c 1.12e-4,-0.2643 -0.104531,-0.5178 -0.291032,-0.7051 l -3.994357,-3.9941 c -0.187425,-0.1877 -0.441822,-0.2931 -0.70707,-0.293 H 11.00038 Z m 10.9986444,12 a 0.99781785,0.99594506 0 0 0 -0.697304,1.709 l 0.292985,0.293 h -1.582117 a 0.99781785,0.99594506 0 1 0 0,1.9902 h 1.582117 l -0.292985,0.293 a 0.99809466,0.99622136 0 1 0 1.412187,1.4082 l 1.994248,-1.9922 a 0.99781785,0.99594506 0 0 0 0,-1.4082 l -1.994248,-1.9922 a 0.99781785,0.99594506 0 0 0 -0.714883,-0.3008 z"
       id="path826"
       inkscape:connector-curvature="0" />
  </g>
</svg>
