<?xml version="1.0" encoding="UTF-8" standalone="no"?>
<!-- Created with Inkscape (http://www.inkscape.org/) -->

<svg
   xmlns:dc="http://purl.org/dc/elements/1.1/"
   xmlns:cc="http://creativecommons.org/ns#"
   xmlns:rdf="http://www.w3.org/1999/02/22-rdf-syntax-ns#"
   xmlns:svg="http://www.w3.org/2000/svg"
   xmlns="http://www.w3.org/2000/svg"
   xmlns:sodipodi="http://sodipodi.sourceforge.net/DTD/sodipodi-0.dtd"
   xmlns:inkscape="http://www.inkscape.org/namespaces/inkscape"
   width="22"
   height="22"
   viewBox="0 0 22 22"
   id="svg2"
   version="1.1"
   inkscape:version="0.91 r13725"
   sodipodi:docname="document-save.svg">
<defs
    id="defs3051">
<style
    type="text/css"
    id="current-color-scheme">
    .ColorScheme-Text {
    color:#4d4d4d;
    }
    </style>
</defs>
  <sodipodi:namedview
     id="base"
     pagecolor="#ffffff"
     bordercolor="#666666"
     borderopacity="1.0"
     inkscape:pageopacity="0.0"
     inkscape:pageshadow="2"
     inkscape:zoom="32"
     inkscape:cx="19.559656"
     inkscape:cy="11.609441"
     inkscape:document-units="px"
     inkscape:current-layer="layer1"
     showgrid="true"
     units="px"
     inkscape:showpageshadow="false"
     borderlayer="true"
     showguides="true"
     inkscape:guide-bbox="true"
     inkscape:window-width="2560"
     inkscape:window-height="1015"
     inkscape:window-x="0"
     inkscape:window-y="0"
     inkscape:window-maximized="1">
    <inkscape:grid
       type="xygrid"
       id="grid4136"
       empspacing="2" />
    <sodipodi:guide
       position="0,20"
       orientation="0,1"
       id="guide4140"
       inkscape:label="Icon Max Height"
       inkscape:color="rgb(233,30,99)" />
    <sodipodi:guide
       position="0,2"
       orientation="0,1"
       id="guide4142"
       inkscape:label="Icon Baseline"
       inkscape:color="rgb(233,30,99)" />
    <sodipodi:guide
       position="11,0"
       orientation="1,0"
       id="guide4144"
       inkscape:label="Center Vertical"
       inkscape:color="rgb(221,44,0)" />
    <sodipodi:guide
       position="15,11"
       orientation="0,1"
       id="guide4146"
       inkscape:label="Center Horizontal"
       inkscape:color="rgb(221,44,0)" />
  </sodipodi:namedview>
  <metadata
     id="metadata7">
    <rdf:RDF>
      <cc:Work
         rdf:about="">
        <dc:format>image/svg+xml</dc:format>
        <dc:type
           rdf:resource="http://purl.org/dc/dcmitype/StillImage" />
        <dc:title />
      </cc:Work>
    </rdf:RDF>
  </metadata>
  <g
     inkscape:label="Capa 1"
     inkscape:groupmode="layer"
     id="layer1"
     transform="translate(0,-1030.3622)">
    <path
       style="fill:currentColor;fill-opacity:1;stroke:none" class="ColorScheme-Text"
       d="M 4 2 C 2.8919904 2 2 2.8919904 2 4 L 2 18 C 2 19.10801 2.8919904 20 4 20 L 18 20 C 19.10801 20 20 19.10801 20 18 L 20 10 L 20 9 A 1.0001 1.0001 0 0 0 19.707031 8.2929688 L 19 7.5859375 L 19 6.4160156 L 19.707031 5.7070312 A 1.0001 1.0001 0 0 0 20 5 L 20 4 A 1.0001 1.0001 0 0 0 19.978516 3.78125 C 19.868935 2.7782706 19.033096 2 18 2 L 4 2 z M 4 4 L 17 4 L 18 4 L 18 4.5859375 L 17.292969 5.2929688 A 1.0001 1.0001 0 0 0 17 6 L 17 8 A 1.0001 1.0001 0 0 0 17.292969 8.7070312 L 18 9.4160156 L 18 10 L 18 18 L 12 18 L 12 16 C 12 15.446 11.554 15 11 15 C 10.446 15 10 15.446 10 16 L 10 18 L 4 18 L 4 4 z M 5 5 L 5 9 L 16 9 L 16 5 L 5 5 z M 11 10 A 2 2 0 0 0 9 12 A 2 2 0 0 0 11 14 A 2 2 0 0 0 13 12 A 2 2 0 0 0 11 10 z "
       transform="translate(0,1030.3622)"
       id="path4163" />
  </g>
</svg>
