<?xml version="1.0" encoding="UTF-8" standalone="no"?>
<!-- Created with Inkscape (http://www.inkscape.org/) -->

<svg
   xmlns:dc="http://purl.org/dc/elements/1.1/"
   xmlns:cc="http://creativecommons.org/ns#"
   xmlns:rdf="http://www.w3.org/1999/02/22-rdf-syntax-ns#"
   xmlns:svg="http://www.w3.org/2000/svg"
   xmlns="http://www.w3.org/2000/svg"
   xmlns:sodipodi="http://sodipodi.sourceforge.net/DTD/sodipodi-0.dtd"
   xmlns:inkscape="http://www.inkscape.org/namespaces/inkscape"
   width="22"
   height="22"
   viewBox="0 0 22 22"
   id="svg2"
   version="1.1"
   inkscape:version="0.92.3 (2405546, 2018-03-11)"
   sodipodi:docname="document-launch.svg">
<defs
    id="defs3051">
<style
    type="text/css"
    id="current-color-scheme">
    .ColorScheme-Text {
    color:#4d4d4d;
    }
    </style>
</defs>
  <sodipodi:namedview
     id="base"
     pagecolor="#ffffff"
     bordercolor="#666666"
     borderopacity="1.0"
     inkscape:pageopacity="0.0"
     inkscape:pageshadow="2"
     inkscape:zoom="45.254834"
     inkscape:cx="16.307594"
     inkscape:cy="11.106554"
     inkscape:document-units="px"
     inkscape:current-layer="layer1"
     showgrid="true"
     units="px"
     inkscape:showpageshadow="false"
     borderlayer="true"
     showguides="true"
     inkscape:guide-bbox="true"
     inkscape:window-width="2560"
     inkscape:window-height="1370"
     inkscape:window-x="0"
     inkscape:window-y="33"
     inkscape:window-maximized="1">
    <inkscape:grid
       type="xygrid"
       id="grid4136"
       empspacing="2" />
    <sodipodi:guide
       position="0,20"
       orientation="0,1"
       id="guide4140"
       inkscape:label="Icon Max Height"
       inkscape:color="rgb(233,30,99)" />
    <sodipodi:guide
       position="0,2"
       orientation="0,1"
       id="guide4142"
       inkscape:label="Icon Baseline"
       inkscape:color="rgb(233,30,99)" />
    <sodipodi:guide
       position="11,0"
       orientation="1,0"
       id="guide4144"
       inkscape:label="Center Vertical"
       inkscape:color="rgb(221,44,0)" />
    <sodipodi:guide
       position="15,11"
       orientation="0,1"
       id="guide4146"
       inkscape:label="Center Horizontal"
       inkscape:color="rgb(221,44,0)" />
  </sodipodi:namedview>
  <metadata
     id="metadata7">
    <rdf:RDF>
      <cc:Work
         rdf:about="">
        <dc:format>image/svg+xml</dc:format>
        <dc:type
           rdf:resource="http://purl.org/dc/dcmitype/StillImage" />
        <dc:title />
      </cc:Work>
    </rdf:RDF>
  </metadata>
  <g
     inkscape:label="Capa 1"
     inkscape:groupmode="layer"
     id="layer1"
     transform="translate(0,-1030.3622)">
    <path
       style="fill:currentColor;fill-opacity:1;stroke:none" class="ColorScheme-Text"
       d="M 3 2 C 1.8918551 2 1 2.8918551 1 4 L 1 18 C 1 19.108145 1.8918551 20 3 20 L 19 20 C 20.108145 20 21 19.108145 21 18 L 21 12 L 19 12 L 19 18 L 16 18 L 8 18 L 3 18 L 3 6 L 12 6 L 12 4 L 12 2 L 5.0996094 2 L 3 2 z M 15 2 C 14.445961 2 14 2.446 14 3 C 14 3.554 14.445961 4 15 4 L 17.589844 4 L 13.306641 8.2832031 A 0.99741983 0.99739599 0 1 0 14.716797 9.6933594 L 19 5.4101562 L 19 8 C 19 8.554 19.445961 9 20 9 C 20.554039 9 21 8.554 21 8 L 21 3 A 0.99741983 0.99739599 0 0 0 20.921875 2.6152344 L 20.919922 2.6152344 A 0.99741983 0.99739599 0 0 0 20.398438 2.09375 C 20.393538 2.09375 20.389636 2.0839844 20.384766 2.0839844 A 0.99741983 0.99739599 0 0 0 20 2.0078125 L 15 2 z M 4 3 A 1 1 0 0 1 5 4 A 1 1 0 0 1 4 5 A 1 1 0 0 1 3 4 A 1 1 0 0 1 4 3 z "
       transform="translate(0,1030.3622)"
       id="rect3217" />
  </g>
</svg>
