<?xml version="1.0" encoding="UTF-8" standalone="no"?>
<!-- Created with Inkscape (http://www.inkscape.org/) -->

<svg
   xmlns:dc="http://purl.org/dc/elements/1.1/"
   xmlns:cc="http://creativecommons.org/ns#"
   xmlns:rdf="http://www.w3.org/1999/02/22-rdf-syntax-ns#"
   xmlns:svg="http://www.w3.org/2000/svg"
   xmlns="http://www.w3.org/2000/svg"
   xmlns:sodipodi="http://sodipodi.sourceforge.net/DTD/sodipodi-0.dtd"
   xmlns:inkscape="http://www.inkscape.org/namespaces/inkscape"
   width="22"
   height="22"
   viewBox="0 0 22 22"
   id="svg2"
   version="1.1"
   inkscape:version="0.92.3 (unknown)"
   sodipodi:docname="document-open-recent.svg">
  <defs
     id="defs3051">
    <style
       type="text/css"
       id="current-color-scheme">
    .ColorScheme-Text {
    color:#4d4d4d;
    }
    </style>
  </defs>
  <sodipodi:namedview
     id="base"
     pagecolor="#ffffff"
     bordercolor="#666666"
     borderopacity="1.0"
     inkscape:pageopacity="0.0"
     inkscape:pageshadow="2"
     inkscape:zoom="76.431814"
     inkscape:cx="15.077468"
     inkscape:cy="7.2854549"
     inkscape:document-units="px"
     inkscape:current-layer="layer1"
     showgrid="true"
     units="px"
     inkscape:showpageshadow="false"
     borderlayer="true"
     showguides="true"
     inkscape:guide-bbox="true"
     inkscape:window-width="2560"
     inkscape:window-height="1378"
     inkscape:window-x="0"
     inkscape:window-y="32"
     inkscape:window-maximized="1">
    <inkscape:grid
       type="xygrid"
       id="grid4136"
       empspacing="2" />
    <sodipodi:guide
       position="0,20"
       orientation="0,1"
       id="guide4140"
       inkscape:label="Icon Max Height"
       inkscape:color="rgb(233,30,99)"
       inkscape:locked="false" />
    <sodipodi:guide
       position="0,2"
       orientation="0,1"
       id="guide4142"
       inkscape:label="Icon Baseline"
       inkscape:color="rgb(233,30,99)"
       inkscape:locked="false" />
    <sodipodi:guide
       position="11,0"
       orientation="1,0"
       id="guide4144"
       inkscape:label="Center Vertical"
       inkscape:color="rgb(221,44,0)"
       inkscape:locked="false" />
    <sodipodi:guide
       position="15,11"
       orientation="0,1"
       id="guide4146"
       inkscape:label="Center Horizontal"
       inkscape:color="rgb(221,44,0)"
       inkscape:locked="false" />
  </sodipodi:namedview>
  <metadata
     id="metadata7">
    <rdf:RDF>
      <cc:Work
         rdf:about="">
        <dc:format>image/svg+xml</dc:format>
        <dc:type
           rdf:resource="http://purl.org/dc/dcmitype/StillImage" />
        <dc:title />
      </cc:Work>
    </rdf:RDF>
  </metadata>
  <g
     inkscape:label="Capa 1"
     inkscape:groupmode="layer"
     id="layer1"
     transform="translate(0,-1030.3622)">
    <path
       style="fill:currentColor;fill-opacity:1;stroke:none" class="ColorScheme-Text"
       d="M 6 2 C 4.8919303 2 4 2.892 4 4 L 4 18 C 4 19.108 4.8919303 20 6 20 L 12 20 L 12 18 L 6 18 L 6 4 L 11 4 L 11 8 C 11 8.554 11.445969 9 12 9 L 16 9 L 16 9.9882812 L 16 12 L 18 12 L 18 9 L 17.996094 9 L 17.996094 8.0195312 C 17.996214 8.0095319 18 8.006 18 8 C 18 7.99 17.996194 7.9874688 17.996094 7.9804688 L 17.996094 6.9921875 C 17.996206 6.7278875 17.891579 6.4744094 17.705078 6.2871094 L 13.710938 2.2929688 C 13.523509 2.1052688 13.269154 1.9999 13.003906 2 L 11 2 L 6 2 z M 13 4.4042969 L 15.591797 7 L 13 7 L 13 4.4042969 z M 13.492188 13.501953 C 13.219888 13.501953 13.001083 13.7277 13 14 L 13 16 C 13.000028 16.2761 13.223869 16.5 13.5 16.5 L 15.5 16.5 C 15.9453 16.4998 16.168267 15.961484 15.853516 15.646484 L 15.486328 15.279297 A 2 2 0 0 1 16.5 15 A 2 2 0 0 1 18.5 17 A 2 2 0 0 1 16.5 19 L 16 19 A 0.5 0.5 0 0 0 15.5 19.5 A 0.5 0.5 0 0 0 16 20 L 16.5 20 A 3 3 0 0 0 19.5 17 A 3 3 0 0 0 16.5 14 A 3 3 0 0 0 14.763672 14.556641 L 13.853516 13.646484 C 13.757526 13.551484 13.627199 13.499353 13.492188 13.501953 z "
       transform="translate(0,1030.3622)"
       id="path827" />
  </g>
</svg>
