<?xml version="1.0" encoding="UTF-8" standalone="no"?>
<!-- Created with Inkscape (http://www.inkscape.org/) -->

<svg
   xmlns:dc="http://purl.org/dc/elements/1.1/"
   xmlns:cc="http://creativecommons.org/ns#"
   xmlns:rdf="http://www.w3.org/1999/02/22-rdf-syntax-ns#"
   xmlns:svg="http://www.w3.org/2000/svg"
   xmlns="http://www.w3.org/2000/svg"
   xmlns:sodipodi="http://sodipodi.sourceforge.net/DTD/sodipodi-0.dtd"
   xmlns:inkscape="http://www.inkscape.org/namespaces/inkscape"
   width="22"
   height="22"
   viewBox="0 0 22 22"
   id="svg2"
   version="1.1"
   inkscape:version="0.92.3 (unknown)"
   sodipodi:docname="draw-freehand.svg">
  <defs
     id="defs3051">
    <style
       type="text/css"
       id="current-color-scheme">
    .ColorScheme-Text {
    color:#4d4d4d;
    }
    </style>
  </defs>
  <sodipodi:namedview
     id="base"
     pagecolor="#ffffff"
     bordercolor="#666666"
     borderopacity="1.0"
     inkscape:pageopacity="0.0"
     inkscape:pageshadow="2"
     inkscape:zoom="22.627417"
     inkscape:cx="10.487807"
     inkscape:cy="10.003353"
     inkscape:document-units="px"
     inkscape:current-layer="layer1"
     showgrid="true"
     units="px"
     inkscape:showpageshadow="false"
     borderlayer="true"
     showguides="true"
     inkscape:guide-bbox="true"
     inkscape:window-width="1400"
     inkscape:window-height="1380"
     inkscape:window-x="0"
     inkscape:window-y="32"
     inkscape:window-maximized="0">
    <inkscape:grid
       type="xygrid"
       id="grid4136"
       empspacing="2" />
    <sodipodi:guide
       position="0,20"
       orientation="0,1"
       id="guide4140"
       inkscape:label="Icon Max Height"
       inkscape:color="rgb(233,30,99)"
       inkscape:locked="false" />
    <sodipodi:guide
       position="0,2"
       orientation="0,1"
       id="guide4142"
       inkscape:label="Icon Baseline"
       inkscape:color="rgb(233,30,99)"
       inkscape:locked="false" />
    <sodipodi:guide
       position="11,0"
       orientation="1,0"
       id="guide4144"
       inkscape:label="Center Vertical"
       inkscape:color="rgb(221,44,0)"
       inkscape:locked="false" />
    <sodipodi:guide
       position="15,11"
       orientation="0,1"
       id="guide4146"
       inkscape:label="Center Horizontal"
       inkscape:color="rgb(221,44,0)"
       inkscape:locked="false" />
  </sodipodi:namedview>
  <metadata
     id="metadata7">
    <rdf:RDF>
      <cc:Work
         rdf:about="">
        <dc:format>image/svg+xml</dc:format>
        <dc:type
           rdf:resource="http://purl.org/dc/dcmitype/StillImage" />
        <dc:title />
      </cc:Work>
    </rdf:RDF>
  </metadata>
  <g
     inkscape:label="Capa 1"
     inkscape:groupmode="layer"
     id="layer1"
     transform="translate(0,-1030.3622)">
    <path
       style="fill:currentColor;fill-opacity:1;stroke:none" class="ColorScheme-Text"
       d="M 11.984375 3 L 11.984375 3.0039062 A 1.0001 0.99999819 0 0 0 11.292969 3.2949219 L 9.4101562 5.1777344 A 1.0001 0.99999819 0 0 0 9.1777344 5.4101562 L 2.2929688 12.294922 A 1.0001 0.99999819 0 0 0 2.2753906 12.3125 A 1.0001 0.99999819 0 0 0 2.2617188 12.328125 A 1.0001 0.99999819 0 0 0 2.2109375 12.388672 A 1.0001 0.99999819 0 0 0 2.203125 12.398438 A 1.0001 0.99999819 0 0 0 2.1503906 12.474609 A 1.0001 0.99999819 0 0 0 2.1074219 12.550781 A 1.0001 0.99999819 0 0 0 2.0898438 12.589844 A 1.0001 0.99999819 0 0 0 2.0664062 12.644531 A 1.0001 0.99999819 0 0 0 2.0585938 12.669922 A 1.0001 0.99999819 0 0 0 2.0351562 12.744141 A 1.0001 0.99999819 0 0 0 2.0292969 12.763672 A 1.0001 0.99999819 0 0 0 2.015625 12.826172 A 1.0001 0.99999819 0 0 0 2.0078125 12.886719 A 1.0001 0.99999819 0 0 0 2.0039062 12.933594 A 1.0001 0.99999819 0 0 0 2 13 A 1.0001 0.99999819 0 0 0 2 13.013672 L 2 16 A 1.0001 0.99999819 0 0 0 3 17 L 6 17 A 1.0001 0.99999819 0 0 0 6.015625 17 A 1.0001 0.99999819 0 0 0 6.0996094 17 A 1.0001 0.99999819 0 0 0 6.1152344 17 A 1.0001 0.99999819 0 0 0 6.1992188 16.984375 A 1.0001 0.99999819 0 0 0 6.2519531 16.970703 A 1.0001 0.99999819 0 0 0 6.3105469 16.955078 A 1.0001 0.99999819 0 0 0 6.3886719 16.925781 A 1.0001 0.99999819 0 0 0 6.4023438 16.916016 A 1.0001 0.99999819 0 0 0 6.4785156 16.878906 A 1.0001 0.99999819 0 0 0 6.4921875 16.869141 A 1.0001 0.99999819 0 0 0 6.5644531 16.824219 A 1.0001 0.99999819 0 0 0 6.5761719 16.814453 A 1.0001 0.99999819 0 0 0 6.6445312 16.761719 A 1.0001 0.99999819 0 0 0 6.65625 16.751953 A 1.0001 0.99999819 0 0 0 6.7070312 16.703125 L 6.7167969 16.691406 L 13.574219 9.8398438 A 1.0001 0.99999819 0 0 0 13.853516 9.5566406 L 15.707031 7.7050781 A 1.0001 0.99999819 0 0 0 15.707031 6.2910156 L 12.707031 3.2910156 A 1.0001 0.99999819 0 0 0 11.984375 3 z M 12 5.4160156 L 13.585938 7.0019531 L 13 7.5878906 L 11.414062 6.0019531 L 12 5.4160156 z M 10 7.4160156 L 11.585938 9.0019531 L 6 14.585938 L 4.4140625 13.001953 L 10 7.4160156 z M 3 18 C 2.446 18 2 18.446 2 19 C 2 19.554 2.446 20 3 20 L 19 20 C 19.554 20 20 19.554 20 19 C 20 18.446 19.554 18 19 18 L 3 18 z "
       transform="translate(0,1030.3622)"
       id="path822" />
  </g>
</svg>
