<?xml version="1.0" encoding="UTF-8" standalone="no"?>
<!-- Created with Inkscape (http://www.inkscape.org/) -->

<svg
   xmlns:dc="http://purl.org/dc/elements/1.1/"
   xmlns:cc="http://creativecommons.org/ns#"
   xmlns:rdf="http://www.w3.org/1999/02/22-rdf-syntax-ns#"
   xmlns:svg="http://www.w3.org/2000/svg"
   xmlns="http://www.w3.org/2000/svg"
   xmlns:sodipodi="http://sodipodi.sourceforge.net/DTD/sodipodi-0.dtd"
   xmlns:inkscape="http://www.inkscape.org/namespaces/inkscape"
   width="22"
   height="22"
   viewBox="0 0 22 22"
   id="svg2"
   version="1.1"
   inkscape:version="0.92.3 (2405546, 2018-03-11)"
   sodipodi:docname="draw-star.svg">
  <defs
     id="defs3051">
    <style
       type="text/css"
       id="current-color-scheme">
    .ColorScheme-Text {
    color:#4d4d4d;
    }
    </style>
  </defs>
  <sodipodi:namedview
     id="base"
     pagecolor="#ffffff"
     bordercolor="#666666"
     borderopacity="1.0"
     inkscape:pageopacity="0.0"
     inkscape:pageshadow="2"
     inkscape:zoom="45.254834"
     inkscape:cx="6.2279835"
     inkscape:cy="13.518387"
     inkscape:document-units="px"
     inkscape:current-layer="layer1"
     showgrid="true"
     units="px"
     inkscape:showpageshadow="false"
     borderlayer="true"
     showguides="true"
     inkscape:guide-bbox="true"
     inkscape:window-width="2560"
     inkscape:window-height="1370"
     inkscape:window-x="0"
     inkscape:window-y="33"
     inkscape:window-maximized="1">
    <inkscape:grid
       type="xygrid"
       id="grid4136"
       empspacing="2" />
    <sodipodi:guide
       position="0,20"
       orientation="0,1"
       id="guide4140"
       inkscape:label="Icon Max Height"
       inkscape:color="rgb(233,30,99)"
       inkscape:locked="false" />
    <sodipodi:guide
       position="0,2"
       orientation="0,1"
       id="guide4142"
       inkscape:label="Icon Baseline"
       inkscape:color="rgb(233,30,99)"
       inkscape:locked="false" />
    <sodipodi:guide
       position="11,0"
       orientation="1,0"
       id="guide4144"
       inkscape:label="Center Vertical"
       inkscape:color="rgb(221,44,0)"
       inkscape:locked="false" />
    <sodipodi:guide
       position="15,11"
       orientation="0,1"
       id="guide4146"
       inkscape:label="Center Horizontal"
       inkscape:color="rgb(221,44,0)"
       inkscape:locked="false" />
  </sodipodi:namedview>
  <metadata
     id="metadata7">
    <rdf:RDF>
      <cc:Work
         rdf:about="">
        <dc:format>image/svg+xml</dc:format>
        <dc:type
           rdf:resource="http://purl.org/dc/dcmitype/StillImage" />
        <dc:title />
      </cc:Work>
    </rdf:RDF>
  </metadata>
  <g
     inkscape:label="Capa 1"
     inkscape:groupmode="layer"
     id="layer1"
     transform="translate(0,-1030.3622)">
    <path
       style="fill:currentColor;fill-opacity:1;stroke:none" class="ColorScheme-Text"
       d="m 10.971157,1032.3685 a 1.0001507,0.99992373 0 0 0 -0.01953,0 1.0001507,0.99992373 0 0 0 -0.05274,0 1.0001507,0.99992373 0 0 0 -0.04297,0.01 1.0001507,0.99992373 0 0 0 -0.0625,0.01 1.0001507,0.99992373 0 0 0 -0.03125,0.01 1.0001507,0.99992373 0 0 0 -0.0625,0.016 1.0001507,0.99992373 0 0 0 -0.04102,0.016 1.0001507,0.99992373 0 0 0 -0.05078,0.019 1.0001507,0.99992373 0 0 0 -0.03711,0.018 1.0001507,0.99992373 0 0 0 -0.05469,0.027 1.0001507,0.99992373 0 0 0 -0.03516,0.021 1.0001507,0.99992373 0 0 0 -0.06836,0.045 1.0001507,0.99992373 0 0 0 -0.07617,0.061 1.0001507,0.99992373 0 0 0 -0.002,0 1.0001507,0.99992373 0 0 0 -0.002,0 1.0001507,0.99992373 0 0 0 -0.05664,0.057 1.0001507,0.99992373 0 0 0 -0.02539,0.027 1.0001507,0.99992373 0 0 0 -0.04492,0.055 1.0001507,0.99992373 0 0 0 -0.0078,0.012 1.0001507,0.99992373 0 0 0 -0.04492,0.064 1.0001507,0.99992373 0 0 0 -0.0098,0.016 l -2.7735775,4.6203 -4.5646843,0.9119 a 1.0001507,0.99992373 0 0 0 -0.5117446,1.6872 l 3.6369029,3.6362 -0.916062,5.4911 a 1.0001507,0.99992373 0 0 0 1.500076,1.0213 l 4.4865555,-2.6909 4.486555,2.6909 a 1.0001507,0.99992373 0 0 0 1.500076,-1.0213 l -0.916062,-5.4911 3.636903,-3.6362 a 1.0001507,0.99992373 0 0 0 -0.511745,-1.6872 l -4.564684,-0.9119 -2.773578,-4.6203 a 1.0001507,0.99992373 0 0 0 -0.02344,-0.033 1.0001507,0.99992373 0 0 0 -0.0098,-0.018 1.0001507,0.99992373 0 0 0 -0.04492,-0.059 1.0001507,0.99992373 0 0 0 -0.01563,-0.022 1.0001507,0.99992373 0 0 0 -0.0098,-0.012 1.0001507,0.99992373 0 0 0 -0.04492,-0.047 1.0001507,0.99992373 0 0 0 -0.01367,-0.014 1.0001507,0.99992373 0 0 0 -0.04492,-0.039 1.0001507,0.99992373 0 0 0 -0.04688,-0.039 1.0001507,0.99992373 0 0 0 -0.06446,-0.045 1.0001507,0.99992373 0 0 0 -0.08789,-0.051 1.0001507,0.99992373 0 0 0 -0.06446,-0.029 1.0001507,0.99992373 0 0 0 -0.04297,-0.018 1.0001507,0.99992373 0 0 0 -0.0586,-0.02 1.0001507,0.99992373 0 0 0 -0.01953,-0.01 1.0001507,0.99992373 0 0 0 -0.01367,0 1.0001507,0.99992373 0 0 0 -0.06055,-0.014 1.0001507,0.99992373 0 0 0 -0.02344,-0.01 1.0001507,0.99992373 0 0 0 -0.01758,0 1.0001507,0.99992373 0 0 0 -0.05274,-0.01 1.0001507,0.99992373 0 0 0 -0.04883,0 1.0001507,0.99992373 0 0 0 -0.01953,0 1.0001507,0.99992373 0 0 0 -0.0293,0 1.0001507,0.99992373 0 0 0 -0.0293,0 z"
       id="path860"
       inkscape:connector-curvature="0" />
  </g>
</svg>
