<?xml version="1.0" encoding="UTF-8" standalone="no"?>
<!-- Created with Inkscape (http://www.inkscape.org/) -->

<svg
   xmlns:dc="http://purl.org/dc/elements/1.1/"
   xmlns:cc="http://creativecommons.org/ns#"
   xmlns:rdf="http://www.w3.org/1999/02/22-rdf-syntax-ns#"
   xmlns:svg="http://www.w3.org/2000/svg"
   xmlns="http://www.w3.org/2000/svg"
   xmlns:sodipodi="http://sodipodi.sourceforge.net/DTD/sodipodi-0.dtd"
   xmlns:inkscape="http://www.inkscape.org/namespaces/inkscape"
   width="22"
   height="22"
   viewBox="0 0 22 22"
   id="svg2"
   version="1.1"
   inkscape:version="0.92.3 (unknown)"
   sodipodi:docname="draw-brush.svg">
  <defs
     id="defs3051">
    <style
       type="text/css"
       id="current-color-scheme">
    .ColorScheme-Text {
    color:#4d4d4d;
    }
    </style>
  </defs>
  <sodipodi:namedview
     id="base"
     pagecolor="#ffffff"
     bordercolor="#666666"
     borderopacity="1.0"
     inkscape:pageopacity="0.0"
     inkscape:pageshadow="2"
     inkscape:zoom="56"
     inkscape:cx="11"
     inkscape:cy="11"
     inkscape:document-units="px"
     inkscape:current-layer="layer1"
     showgrid="true"
     units="px"
     inkscape:showpageshadow="false"
     borderlayer="true"
     showguides="true"
     inkscape:guide-bbox="true"
     inkscape:window-width="2560"
     inkscape:window-height="1384"
     inkscape:window-x="0"
     inkscape:window-y="32"
     inkscape:window-maximized="1">
    <inkscape:grid
       type="xygrid"
       id="grid4136"
       empspacing="2" />
    <sodipodi:guide
       position="0,20"
       orientation="0,1"
       id="guide4140"
       inkscape:label="Icon Max Height"
       inkscape:color="rgb(233,30,99)"
       inkscape:locked="false" />
    <sodipodi:guide
       position="0,2"
       orientation="0,1"
       id="guide4142"
       inkscape:label="Icon Baseline"
       inkscape:color="rgb(233,30,99)"
       inkscape:locked="false" />
    <sodipodi:guide
       position="11,0"
       orientation="1,0"
       id="guide4144"
       inkscape:label="Center Vertical"
       inkscape:color="rgb(221,44,0)"
       inkscape:locked="false" />
    <sodipodi:guide
       position="15,11"
       orientation="0,1"
       id="guide4146"
       inkscape:label="Center Horizontal"
       inkscape:color="rgb(221,44,0)"
       inkscape:locked="false" />
  </sodipodi:namedview>
  <metadata
     id="metadata7">
    <rdf:RDF>
      <cc:Work
         rdf:about="">
        <dc:format>image/svg+xml</dc:format>
        <dc:type
           rdf:resource="http://purl.org/dc/dcmitype/StillImage" />
        <dc:title />
      </cc:Work>
    </rdf:RDF>
  </metadata>
  <g
     inkscape:label="Capa 1"
     inkscape:groupmode="layer"
     id="layer1"
     transform="translate(0,-1030.3622)">
    <path
       style="fill:currentColor;fill-opacity:1;stroke:none" class="ColorScheme-Text"
       d="M 4 2 L 4 4 L 4 12 C 4 13.108 4.8919904 14 6 14 L 8 14 L 8.4179688 14 L 9 14 L 9 16 L 9 18 C 9 19.108 9.892 20 11 20 C 12.108 20 13 19.108 13 18 L 13 16 L 13 14 L 13.582031 14 L 14 14 L 16 14 C 17.10801 14 18 13.108 18 12 L 18 4 L 18 2 L 16 2 L 15 3 L 14 3 L 13 2 L 6 2 L 4 2 z M 6 3 L 7 3 L 7 4 L 8 4 L 8 3 L 9 3 L 9 4 L 13 4 L 13 9 L 14 9 L 14 4 L 15 4 L 15 10 L 14 10 L 9 10 L 8 10 L 5 10 L 5 4 L 6 4 L 6 3 z M 6 4 L 6 6 L 7 6 L 7 4 L 6 4 z M 9 4 L 8 4 L 8 9 L 9 9 L 9 4 z M 16 4 L 17 4 L 17 10 L 16 10 L 16 4 z M 5 11 L 15 11 L 15 12 L 5 12 L 5 11 z M 16 11 L 17 11 L 17 12 L 16 12 L 16 11 z M 11 17 A 1 1 0 0 1 12 18 A 1 1 0 0 1 11 19 A 1 1 0 0 1 10 18 A 1 1 0 0 1 11 17 z "
       transform="translate(0,1030.3622)"
       id="circle824" />
  </g>
</svg>
