<?xml version="1.0" encoding="UTF-8" standalone="no"?>
<!-- Created with Inkscape (http://www.inkscape.org/) -->

<svg
   xmlns:dc="http://purl.org/dc/elements/1.1/"
   xmlns:cc="http://creativecommons.org/ns#"
   xmlns:rdf="http://www.w3.org/1999/02/22-rdf-syntax-ns#"
   xmlns:svg="http://www.w3.org/2000/svg"
   xmlns="http://www.w3.org/2000/svg"
   xmlns:sodipodi="http://sodipodi.sourceforge.net/DTD/sodipodi-0.dtd"
   xmlns:inkscape="http://www.inkscape.org/namespaces/inkscape"
   width="22"
   height="22"
   viewBox="0 0 22 22"
   id="svg2"
   version="1.1"
   inkscape:version="0.92.3 (unknown)"
   sodipodi:docname="edit-select-all.svg">
  <defs
     id="defs3051">
    <style
       type="text/css"
       id="current-color-scheme">
    .ColorScheme-Text {
    color:#4d4d4d;
    }
    </style>
  </defs>
  <sodipodi:namedview
     id="base"
     pagecolor="#ffffff"
     bordercolor="#666666"
     borderopacity="1.0"
     inkscape:pageopacity="0.0"
     inkscape:pageshadow="2"
     inkscape:zoom="37.5"
     inkscape:cx="7.6790957"
     inkscape:cy="10.455631"
     inkscape:document-units="px"
     inkscape:current-layer="layer1"
     showgrid="true"
     units="px"
     inkscape:showpageshadow="false"
     borderlayer="true"
     showguides="true"
     inkscape:guide-bbox="true"
     inkscape:window-width="2560"
     inkscape:window-height="1378"
     inkscape:window-x="0"
     inkscape:window-y="32"
     inkscape:window-maximized="1">
    <inkscape:grid
       type="xygrid"
       id="grid4136"
       empspacing="2" />
    <sodipodi:guide
       position="0,20"
       orientation="0,1"
       id="guide4140"
       inkscape:label="Icon Max Height"
       inkscape:color="rgb(233,30,99)"
       inkscape:locked="false" />
    <sodipodi:guide
       position="0,2"
       orientation="0,1"
       id="guide4142"
       inkscape:label="Icon Baseline"
       inkscape:color="rgb(233,30,99)"
       inkscape:locked="false" />
    <sodipodi:guide
       position="11,0"
       orientation="1,0"
       id="guide4144"
       inkscape:label="Center Vertical"
       inkscape:color="rgb(221,44,0)"
       inkscape:locked="false" />
    <sodipodi:guide
       position="22,11"
       orientation="0,1"
       id="guide4146"
       inkscape:label="Center Horizontal"
       inkscape:color="rgb(221,44,0)"
       inkscape:locked="false" />
  </sodipodi:namedview>
  <metadata
     id="metadata7">
    <rdf:RDF>
      <cc:Work
         rdf:about="">
        <dc:format>image/svg+xml</dc:format>
        <dc:type
           rdf:resource="http://purl.org/dc/dcmitype/StillImage" />
        <dc:title />
      </cc:Work>
    </rdf:RDF>
  </metadata>
  <g
     inkscape:label="Capa 1"
     inkscape:groupmode="layer"
     id="layer1"
     transform="translate(0,-1030.3622)">
    <path
       style="fill:currentColor;fill-opacity:1;stroke:none" class="ColorScheme-Text"
       d="M 4 2 C 2.8919904 2 2 2.8919904 2 4 L 2 6 L 4 6 L 4 4 L 6 4 L 6 2 L 4 2 z M 8 2 L 8 4 L 10 4 L 10 2 L 8 2 z M 12 2 L 12 4 L 14 4 L 14 2 L 12 2 z M 16 2 L 16 4 L 18 4 L 18 6 L 20 6 L 20 4 C 20 2.8919904 19.10801 2 18 2 L 16 2 z M 8 6.0488281 A 2 2 0 0 0 6 8.0488281 A 2 2 0 0 0 8 10.048828 A 2 2 0 0 0 10 8.0488281 A 2 2 0 0 0 8 6.0488281 z M 14 6.0488281 A 2 2 0 0 0 12 8.0488281 A 2 2 0 0 0 14 10.048828 A 2 2 0 0 0 16 8.0488281 A 2 2 0 0 0 14 6.0488281 z M 2 8 L 2 10 L 4 10 L 4 8 L 2 8 z M 18 8 L 18 10 L 20 10 L 20 8 L 18 8 z M 8 11.951172 A 2 2 0 0 0 6 13.951172 A 2 2 0 0 0 8 15.951172 A 2 2 0 0 0 10 13.951172 A 2 2 0 0 0 8 11.951172 z M 14 11.951172 A 2 2 0 0 0 12 13.951172 A 2 2 0 0 0 14 15.951172 A 2 2 0 0 0 16 13.951172 A 2 2 0 0 0 14 11.951172 z M 2 12 L 2 14 L 4 14 L 4 12 L 2 12 z M 18 12 L 18 14 L 20 14 L 20 12 L 18 12 z M 2 16 L 2 18 C 2 19.10801 2.8919904 20 4 20 L 6 20 L 6 18 L 4 18 L 4 16 L 2 16 z M 18 16 L 18 18 L 16 18 L 16 20 L 18 20 C 19.10801 20 20 19.10801 20 18 L 20 16 L 18 16 z M 8 18 L 8 20 L 10 20 L 10 18 L 8 18 z M 12 18 L 12 20 L 14 20 L 14 18 L 12 18 z "
       transform="translate(0,1030.3622)"
       id="path858" />
  </g>
</svg>
