<?xml version="1.0" encoding="UTF-8" standalone="no"?>
<!-- Created with Inkscape (http://www.inkscape.org/) -->

<svg
   xmlns:dc="http://purl.org/dc/elements/1.1/"
   xmlns:cc="http://creativecommons.org/ns#"
   xmlns:rdf="http://www.w3.org/1999/02/22-rdf-syntax-ns#"
   xmlns:svg="http://www.w3.org/2000/svg"
   xmlns="http://www.w3.org/2000/svg"
   xmlns:sodipodi="http://sodipodi.sourceforge.net/DTD/sodipodi-0.dtd"
   xmlns:inkscape="http://www.inkscape.org/namespaces/inkscape"
   width="22"
   height="22"
   viewBox="0 0 22 22"
   id="svg2"
   version="1.1"
   inkscape:version="0.91 r13725"
   sodipodi:docname="edit-undo.svg">
<defs
    id="defs3051">
<style
    type="text/css"
    id="current-color-scheme">
    .ColorScheme-Text {
    color:#4d4d4d;
    }
    </style>
</defs>
  <sodipodi:namedview
     id="base"
     pagecolor="#ffffff"
     bordercolor="#666666"
     borderopacity="1.0"
     inkscape:pageopacity="0.0"
     inkscape:pageshadow="2"
     inkscape:zoom="64"
     inkscape:cx="9.1428406"
     inkscape:cy="12.81247"
     inkscape:document-units="px"
     inkscape:current-layer="layer1"
     showgrid="true"
     units="px"
     inkscape:showpageshadow="false"
     borderlayer="true"
     showguides="true"
     inkscape:guide-bbox="true"
     inkscape:window-width="2560"
     inkscape:window-height="1015"
     inkscape:window-x="0"
     inkscape:window-y="0"
     inkscape:window-maximized="1">
    <inkscape:grid
       type="xygrid"
       id="grid4136"
       empspacing="2" />
    <sodipodi:guide
       position="0,20"
       orientation="0,1"
       id="guide4140"
       inkscape:label="Icon Max Height"
       inkscape:color="rgb(233,30,99)" />
    <sodipodi:guide
       position="0,2"
       orientation="0,1"
       id="guide4142"
       inkscape:label="Icon Baseline"
       inkscape:color="rgb(233,30,99)" />
    <sodipodi:guide
       position="11,0"
       orientation="1,0"
       id="guide4144"
       inkscape:label="Center Vertical"
       inkscape:color="rgb(221,44,0)" />
    <sodipodi:guide
       position="15,11"
       orientation="0,1"
       id="guide4146"
       inkscape:label="Center Horizontal"
       inkscape:color="rgb(221,44,0)" />
  </sodipodi:namedview>
  <metadata
     id="metadata7">
    <rdf:RDF>
      <cc:Work
         rdf:about="">
        <dc:format>image/svg+xml</dc:format>
        <dc:type
           rdf:resource="http://purl.org/dc/dcmitype/StillImage" />
        <dc:title />
      </cc:Work>
    </rdf:RDF>
  </metadata>
  <g
     inkscape:label="Capa 1"
     inkscape:groupmode="layer"
     id="layer1"
     transform="translate(0,-1030.3622)">
    <path
       style="fill:currentColor;fill-opacity:1;stroke:none" class="ColorScheme-Text"
       d="m 6.109375,1034.3691 c -0.2815523,-0.033 -0.5801562,0.051 -0.8164062,0.2872 l -2,1.9981 c -6.383e-4,7e-4 -0.00132,0 -0.00195,0 a 1.0001,1.0001628 0 0 0 -0.2089844,0.3086 c -0.00196,0 -0.00396,0.01 -0.00586,0.014 A 1.0001,1.0001628 0 0 0 3,1037.3576 c -5.2e-6,0 0,0 0,0 0,7e-4 -1.3e-6,0 0,0 a 1.0001,1.0001628 0 0 0 0.074219,0.3711 c 0.00418,0.01 0.00721,0.021 0.011719,0.031 a 1.0001,1.0001628 0 0 0 0.2070313,0.3028 l 2,2.0001 A 1.0001,1.0001628 0 0 0 7,1039.3616 l 0,-1 3,0 3,0 c 2.216005,0 4,1.7841 4,4.0002 0,2.2162 -1.783995,4.0003 -4,4.0003 l -5,0 c -0.554,0 -1,0.446 -1,1 0,0.5541 0.446,1.0001 1,1.0001 l 5.15625,0 c 3.237437,0 5.84375,-2.6065 5.84375,-5.8441 l 0,-0.3125 c 0,-3.2377 -2.606313,-5.8442 -5.84375,-5.8442 l -3.15625,0 -3,0 0,-0.9981 c -2.5e-4,-0.5564 -0.4213711,-0.9389 -0.890625,-0.9942 z"
       id="rect4141"
       inkscape:connector-curvature="0" />
  </g>
</svg>
