<?xml version="1.0" encoding="UTF-8" standalone="no"?>
<!-- Created with Inkscape (http://www.inkscape.org/) -->

<svg
   xmlns:dc="http://purl.org/dc/elements/1.1/"
   xmlns:cc="http://creativecommons.org/ns#"
   xmlns:rdf="http://www.w3.org/1999/02/22-rdf-syntax-ns#"
   xmlns:svg="http://www.w3.org/2000/svg"
   xmlns="http://www.w3.org/2000/svg"
   xmlns:sodipodi="http://sodipodi.sourceforge.net/DTD/sodipodi-0.dtd"
   xmlns:inkscape="http://www.inkscape.org/namespaces/inkscape"
   width="22"
   height="22"
   viewBox="0 0 22 22"
   id="svg2"
   version="1.1"
   inkscape:version="0.91 r13725"
   sodipodi:docname="edit-clear.svg">
<defs
    id="defs3051">
<style
    type="text/css"
    id="current-color-scheme">
    .ColorScheme-Text {
    color:#4d4d4d;
    }
    </style>
</defs>
  <sodipodi:namedview
     id="base"
     pagecolor="#ffffff"
     bordercolor="#666666"
     borderopacity="1.0"
     inkscape:pageopacity="0.0"
     inkscape:pageshadow="2"
     inkscape:zoom="45.254834"
     inkscape:cx="13.628666"
     inkscape:cy="10.570403"
     inkscape:document-units="px"
     inkscape:current-layer="layer1"
     showgrid="true"
     units="px"
     inkscape:showpageshadow="false"
     borderlayer="true"
     showguides="true"
     inkscape:guide-bbox="true"
     inkscape:window-width="2560"
     inkscape:window-height="948"
     inkscape:window-x="0"
     inkscape:window-y="36"
     inkscape:window-maximized="1">
    <inkscape:grid
       type="xygrid"
       id="grid4136"
       empspacing="2" />
    <sodipodi:guide
       position="0,20"
       orientation="0,1"
       id="guide4140"
       inkscape:label="Icon Max Height"
       inkscape:color="rgb(233,30,99)" />
    <sodipodi:guide
       position="0,2"
       orientation="0,1"
       id="guide4142"
       inkscape:label="Icon Baseline"
       inkscape:color="rgb(233,30,99)" />
    <sodipodi:guide
       position="11,0"
       orientation="1,0"
       id="guide4144"
       inkscape:label="Center Vertical"
       inkscape:color="rgb(221,44,0)" />
    <sodipodi:guide
       position="15,11"
       orientation="0,1"
       id="guide4146"
       inkscape:label="Center Horizontal"
       inkscape:color="rgb(221,44,0)" />
  </sodipodi:namedview>
  <metadata
     id="metadata7">
    <rdf:RDF>
      <cc:Work
         rdf:about="">
        <dc:format>image/svg+xml</dc:format>
        <dc:type
           rdf:resource="http://purl.org/dc/dcmitype/StillImage" />
        <dc:title />
      </cc:Work>
    </rdf:RDF>
  </metadata>
  <g
     inkscape:label="Capa 1"
     inkscape:groupmode="layer"
     id="layer1"
     transform="translate(0,-1030.3622)">
    <path
       style="fill:currentColor;fill-opacity:1;stroke:none" class="ColorScheme-Text"
       d="M 9,5 C 8.7658238,5.0001 8.5391107,5.0819219 8.359375,5.2324219 l -6,5.0000001 c -0.4802053,0.3999 -0.4802053,1.137209 0,1.537109 l 6,5 C 8.5394012,16.918931 8.766085,17.0005 9,17 l 2,0 7,0 c 1.10801,0 2,-0.89199 2,-2 L 20,7 C 20,5.8919904 19.10801,5 18,5 l -7,0 z m 2.990234,2.9902344 c 0.270002,1.57e-5 0.528526,0.1092016 0.716797,0.3027344 L 14,9.5859375 15.292969,8.2929688 c 0.181439,-0.1856957 0.42798,-0.2935572 0.6875,-0.3007813 0.909441,-0.024941 1.377101,1.0788368 0.726562,1.7148437 L 15.414062,11 l 1.292969,1.292969 c 0.98168,0.942508 -0.471554,2.395742 -1.414062,1.414062 L 14,12.414062 12.707031,13.707031 c -0.942508,0.98168 -2.395742,-0.471554 -1.414062,-1.414062 L 12.585938,11 11.292969,9.7070312 C 10.649858,9.0811203 11.092817,7.9904706 11.990234,7.9902344 Z"
       transform="translate(0,1030.3622)"
       id="rect3199"
       inkscape:connector-curvature="0"
       sodipodi:nodetypes="cccccccssssccccccccccccccccc" />
  </g>
</svg>
