<?xml version="1.0" encoding="UTF-8" standalone="no"?>
<!-- Created with Inkscape (http://www.inkscape.org/) -->

<svg
   xmlns:dc="http://purl.org/dc/elements/1.1/"
   xmlns:cc="http://creativecommons.org/ns#"
   xmlns:rdf="http://www.w3.org/1999/02/22-rdf-syntax-ns#"
   xmlns:svg="http://www.w3.org/2000/svg"
   xmlns="http://www.w3.org/2000/svg"
   xmlns:sodipodi="http://sodipodi.sourceforge.net/DTD/sodipodi-0.dtd"
   xmlns:inkscape="http://www.inkscape.org/namespaces/inkscape"
   width="22"
   height="22"
   viewBox="0 0 22 22"
   id="svg2"
   version="1.1"
   inkscape:version="0.92.3 (unknown)"
   sodipodi:docname="edit-add-effect.svg">
  <defs
     id="defs3051">
    <style
       type="text/css"
       id="current-color-scheme">
    .ColorScheme-Text {
    color:#4d4d4d;
    }
    </style>
  </defs>
  <sodipodi:namedview
     id="base"
     pagecolor="#ffffff"
     bordercolor="#666666"
     borderopacity="1.0"
     inkscape:pageopacity="0.0"
     inkscape:pageshadow="2"
     inkscape:zoom="55.363636"
     inkscape:cx="7.3694581"
     inkscape:cy="11"
     inkscape:document-units="px"
     inkscape:current-layer="layer1"
     showgrid="true"
     units="px"
     inkscape:showpageshadow="false"
     borderlayer="true"
     showguides="true"
     inkscape:guide-bbox="true"
     inkscape:window-width="2560"
     inkscape:window-height="1378"
     inkscape:window-x="0"
     inkscape:window-y="32"
     inkscape:window-maximized="1">
    <inkscape:grid
       type="xygrid"
       id="grid4136"
       empspacing="2" />
    <sodipodi:guide
       position="0,20"
       orientation="0,1"
       id="guide4140"
       inkscape:label="Icon Max Height"
       inkscape:color="rgb(233,30,99)"
       inkscape:locked="false" />
    <sodipodi:guide
       position="0,2"
       orientation="0,1"
       id="guide4142"
       inkscape:label="Icon Baseline"
       inkscape:color="rgb(233,30,99)"
       inkscape:locked="false" />
    <sodipodi:guide
       position="11,0"
       orientation="1,0"
       id="guide4144"
       inkscape:label="Center Vertical"
       inkscape:color="rgb(221,44,0)"
       inkscape:locked="false" />
    <sodipodi:guide
       position="15,11"
       orientation="0,1"
       id="guide4146"
       inkscape:label="Center Horizontal"
       inkscape:color="rgb(221,44,0)"
       inkscape:locked="false" />
  </sodipodi:namedview>
  <metadata
     id="metadata7">
    <rdf:RDF>
      <cc:Work
         rdf:about="">
        <dc:format>image/svg+xml</dc:format>
        <dc:type
           rdf:resource="http://purl.org/dc/dcmitype/StillImage" />
        <dc:title />
      </cc:Work>
    </rdf:RDF>
  </metadata>
  <g
     inkscape:label="Capa 1"
     inkscape:groupmode="layer"
     id="layer1"
     transform="translate(0,-1030.3622)">
    <path
       style="fill:currentColor;fill-opacity:1;stroke:none" class="ColorScheme-Text"
       d="m 10.999498,1032.3622 a 6.0002981,6 0 0 0 -5.715128,4.1973 8.0003975,8 0 0 1 1.714929,-0.1973 8.0003975,8 0 0 1 0.5254167,0.025 4.0001987,4 0 0 1 3.4747823,-2.0254 4.0001987,4 0 0 1 4.000198,4 4.0001987,4 0 0 1 -0.839885,2.4414 8.0003975,8 0 0 1 0.710973,2.1445 6.0002981,6 0 0 0 1.679771,-2.3164 6.0002981,6 0 0 1 -0.01563,0.039 4.0001987,4 0 0 1 2.464966,3.6914 4.0001987,4 0 0 1 -4.000199,4 4.0001987,4 0 0 1 -0.998096,-0.1309 8.0003975,8 0 0 1 -1.257875,1.6856 6.0002981,6 0 0 0 2.255971,0.4453 6.0002981,6 0 0 0 6.000299,-6 6.0002981,6 0 0 0 -4.011919,-5.6543 6.0002981,6 0 0 0 0.01172,-0.3457 6.0002981,6 0 0 0 -6.000298,-6 z m -3.7169818,6.0059 a 6.0002981,6 0 0 0 -3.2833662,0.7988 6.0002981,6 0 0 0 -2.1954216,8.1953 6.0002981,6 0 0 0 8.1957196,2.1953 6.0002981,6 0 0 0 2.195421,-8.1953 6.0002981,6 0 0 0 -4.9123528,-2.9941 z m -0.3769718,1.9961 a 4.0001987,4 0 0 1 3.5587706,1.998 4.0001987,4 0 0 1 -1.4649166,5.4648 4.0001987,4 0 0 1 -5.4651153,-1.4648 4.0001987,4 0 0 1 1.4649166,-5.4648 4.0001987,4 0 0 1 1.9063447,-0.5332 z m 0.2343866,1.0019 a 3.000149,3 0 0 0 -0.3007961,0 3.000149,3 0 0 0 -1.2949863,0.373 0.50002484,0.5 0 0 0 -0.044924,0.023 0.50002484,0.5 0 0 0 -0.1836029,0.6817 0.50002484,0.5 0 0 0 0.6836278,0.1836 2.0000994,2 0 0 1 2.7325576,0.7324 2.0000994,2 0 0 1 0.2617317,0.8809 h 0.00586 a 0.50002484,0.5 0 0 0 0.4941652,0.4375 0.50002484,0.5 0 0 0 0.5000248,-0.4981 0.50002484,0.5 0 0 0 0,-0.037 v 0 a 0.50002484,0.5 0 0 0 -0.011719,-0.074 3.000149,3 0 0 0 -0.3847848,-1.207 3.000149,3 0 0 0 -2.4571533,-1.4961 z"
       id="path831"
       inkscape:connector-curvature="0" />
  </g>
</svg>
