<?xml version="1.0" encoding="UTF-8" standalone="no"?>
<!-- Created with Inkscape (http://www.inkscape.org/) -->

<svg
   xmlns:dc="http://purl.org/dc/elements/1.1/"
   xmlns:cc="http://creativecommons.org/ns#"
   xmlns:rdf="http://www.w3.org/1999/02/22-rdf-syntax-ns#"
   xmlns:svg="http://www.w3.org/2000/svg"
   xmlns="http://www.w3.org/2000/svg"
   xmlns:sodipodi="http://sodipodi.sourceforge.net/DTD/sodipodi-0.dtd"
   xmlns:inkscape="http://www.inkscape.org/namespaces/inkscape"
   width="22"
   height="22"
   viewBox="0 0 22 22"
   id="svg2"
   version="1.1"
   inkscape:version="0.92.3 (unknown)"
   sodipodi:docname="filename-bpm-amarok.svg">
  <defs
     id="defs3051">
    <style
       type="text/css"
       id="current-color-scheme">
    .ColorScheme-Text {
    color:#4d4d4d;
    }
    </style>
  </defs>
  <sodipodi:namedview
     id="base"
     pagecolor="#ffffff"
     bordercolor="#666666"
     borderopacity="1.0"
     inkscape:pageopacity="0.0"
     inkscape:pageshadow="2"
     inkscape:zoom="32"
     inkscape:cx="10.411255"
     inkscape:cy="10.855858"
     inkscape:document-units="px"
     inkscape:current-layer="layer1"
     showgrid="true"
     units="px"
     inkscape:showpageshadow="false"
     borderlayer="true"
     showguides="true"
     inkscape:guide-bbox="true"
     inkscape:window-width="2560"
     inkscape:window-height="1378"
     inkscape:window-x="0"
     inkscape:window-y="32"
     inkscape:window-maximized="1">
    <inkscape:grid
       type="xygrid"
       id="grid4136"
       empspacing="2" />
    <sodipodi:guide
       position="0,20"
       orientation="0,1"
       id="guide4140"
       inkscape:label="Icon Max Height"
       inkscape:color="rgb(233,30,99)"
       inkscape:locked="false" />
    <sodipodi:guide
       position="0,2"
       orientation="0,1"
       id="guide4142"
       inkscape:label="Icon Baseline"
       inkscape:color="rgb(233,30,99)"
       inkscape:locked="false" />
    <sodipodi:guide
       position="11,0"
       orientation="1,0"
       id="guide4144"
       inkscape:label="Center Vertical"
       inkscape:color="rgb(221,44,0)"
       inkscape:locked="false" />
    <sodipodi:guide
       position="15,11"
       orientation="0,1"
       id="guide4146"
       inkscape:label="Center Horizontal"
       inkscape:color="rgb(221,44,0)"
       inkscape:locked="false" />
  </sodipodi:namedview>
  <metadata
     id="metadata7">
    <rdf:RDF>
      <cc:Work
         rdf:about="">
        <dc:format>image/svg+xml</dc:format>
        <dc:type
           rdf:resource="http://purl.org/dc/dcmitype/StillImage" />
        <dc:title />
      </cc:Work>
    </rdf:RDF>
  </metadata>
  <g
     inkscape:label="Capa 1"
     inkscape:groupmode="layer"
     id="layer1"
     transform="translate(0,-1030.3622)">
    <path
       style="fill:currentColor;fill-opacity:1;stroke:none" class="ColorScheme-Text"
       d="m 11,2 c -4.9705627,0 -9,4.0294373 -9,9 0.00243,2.386017 0.9522389,4.673422 2.640625,6.359375 L 6.0527344,15.947266 C 4.7396774,14.635526 4.0013161,12.856012 4,11 4,7.1340068 7.1340068,4 11,4 c 3.865993,0 7,3.1340068 7,7 -0.0013,1.856012 -0.739677,3.635526 -2.052734,4.947266 l 1.412109,1.412109 C 19.047761,15.673422 19.997568,13.386017 20,11 20,6.0294373 15.970563,2 11,2 Z m 0,3 C 9.6065681,5.0019006 8.2572437,5.4887347 7.1835938,6.3769531 7.9311642,6.130525 8.7128677,6.0033169 9.5,6 c 3.633914,0.00148 6.743978,2.6078782 7.380859,6.185547 C 16.95981,11.795297 16.999721,11.398157 17,11 17,7.6862915 14.313708,5 11,5 Z m 2,6 c -0.359181,-2.92e-4 -0.690935,0.19205 -0.869141,0.503906 l -3.9999996,7 C 7.749919,19.170898 8.2318895,20.000537 9,20 h 4 c 0.497362,1.81e-4 0.919279,-0.365148 0.990234,-0.857422 l 1,-7 C 15.077019,11.539622 14.609169,10.999796 14,11 Z"
       transform="translate(0,1030.3622)"
       id="path845"
       inkscape:connector-curvature="0"
       sodipodi:nodetypes="sccccsccccsccccccccccccccc" />
  </g>
</svg>
