<?xml version="1.0" encoding="UTF-8" standalone="no"?>
<!-- Created with Inkscape (http://www.inkscape.org/) -->

<svg
   xmlns:dc="http://purl.org/dc/elements/1.1/"
   xmlns:cc="http://creativecommons.org/ns#"
   xmlns:rdf="http://www.w3.org/1999/02/22-rdf-syntax-ns#"
   xmlns:svg="http://www.w3.org/2000/svg"
   xmlns="http://www.w3.org/2000/svg"
   xmlns:sodipodi="http://sodipodi.sourceforge.net/DTD/sodipodi-0.dtd"
   xmlns:inkscape="http://www.inkscape.org/namespaces/inkscape"
   width="22"
   height="22"
   viewBox="0 0 22 22"
   id="svg2"
   version="1.1"
   inkscape:version="0.92.3 (2405546, 2018-03-11)"
   sodipodi:docname="format-text-uppercase.svg">
  <defs
     id="defs3051">
    <style
       type="text/css"
       id="current-color-scheme">
      .ColorScheme-Text {
        color:#4d4d4d;
      }
      </style>
  </defs>
  <sodipodi:namedview
     id="base"
     pagecolor="#ffffff"
     bordercolor="#666666"
     borderopacity="1.0"
     inkscape:pageopacity="0.0"
     inkscape:pageshadow="2"
     inkscape:zoom="54.045455"
     inkscape:cx="11"
     inkscape:cy="11"
     inkscape:document-units="px"
     inkscape:current-layer="layer1"
     showgrid="true"
     units="px"
     inkscape:showpageshadow="false"
     borderlayer="true"
     showguides="true"
     inkscape:guide-bbox="true"
     inkscape:window-width="2560"
     inkscape:window-height="1370"
     inkscape:window-x="0"
     inkscape:window-y="33"
     inkscape:window-maximized="1">
    <inkscape:grid
       type="xygrid"
       id="grid4136"
       empspacing="2" />
    <sodipodi:guide
       position="0,20"
       orientation="0,1"
       id="guide4140"
       inkscape:label="Icon Max Height"
       inkscape:color="rgb(233,30,99)"
       inkscape:locked="false" />
    <sodipodi:guide
       position="0,2"
       orientation="0,1"
       id="guide4142"
       inkscape:label="Icon Baseline"
       inkscape:color="rgb(233,30,99)"
       inkscape:locked="false" />
    <sodipodi:guide
       position="11,0"
       orientation="1,0"
       id="guide4144"
       inkscape:label="Center Vertical"
       inkscape:color="rgb(221,44,0)"
       inkscape:locked="false" />
    <sodipodi:guide
       position="15,11"
       orientation="0,1"
       id="guide4146"
       inkscape:label="Center Horizontal"
       inkscape:color="rgb(221,44,0)"
       inkscape:locked="false" />
  </sodipodi:namedview>
  <metadata
     id="metadata7">
    <rdf:RDF>
      <cc:Work
         rdf:about="">
        <dc:format>image/svg+xml</dc:format>
        <dc:type
           rdf:resource="http://purl.org/dc/dcmitype/StillImage" />
        <dc:title />
      </cc:Work>
    </rdf:RDF>
  </metadata>
  <g
     inkscape:label="Capa 1"
     inkscape:groupmode="layer"
     id="layer1"
     transform="translate(0,-1030.3622)">
    <path
       style="fill:currentColor;fill-opacity:1;stroke:none" class="ColorScheme-Text"
       d="m 6.9758232,1034.3622 c -0.3942064,0.01 -0.7460974,0.2496 -0.8984929,0.6133 l -5.0003081,11.9941 c -0.5134981,1.2322 1.334272,2.0018 1.8477701,0.7696 l 1.4082899,-3.379 H 9.665442 l 1.410243,3.3848 c 0.51166,1.232 2.35943,0.4644 1.84777,-0.7676 l -5.0003079,-12 c -0.1586532,-0.3809 -0.5348952,-0.6252 -0.9473239,-0.6152 z m 0.023439,3.5996 1.8321441,4.3984 H 5.167118 Z m 10.0006158,0.4004 c -1.175831,0 -2.218763,0.512 -2.949401,1.3145 l 1.27547,1.5918 c 0.356492,-0.5453 0.971047,-0.9063 1.673931,-0.9063 1.108068,0 2.000123,0.892 2.000123,2 v 0.4121 c -0.785841,-0.3013 -1.529599,-0.4651 -2.199355,-0.4726 -1.087013,-0.012 -1.993404,0.339 -2.632974,0.9785 -1.27914,1.2791 -1.228629,3.4354 0.125008,4.789 0.187518,0.1875 0.441855,0.2929 0.707075,0.293 h 5.000308 c 0.552296,-10e-5 1.000006,-0.4477 1.000061,-1 v -3 -2 c 0,-2.216 -1.78411,-4 -4.000246,-4 z m 2.000122,6 1e-6,2 h -3.427945 c -0.572056,0 -1.572056,-3 3.427944,-2 z"
       id="path822"
       inkscape:connector-curvature="0"
       sodipodi:nodetypes="ccccccccccccccsccssccccccccsscccc" />
  </g>
</svg>
