<?xml version="1.0" encoding="UTF-8" standalone="no"?>
<!-- Created with Inkscape (http://www.inkscape.org/) -->

<svg
   xmlns:dc="http://purl.org/dc/elements/1.1/"
   xmlns:cc="http://creativecommons.org/ns#"
   xmlns:rdf="http://www.w3.org/1999/02/22-rdf-syntax-ns#"
   xmlns:svg="http://www.w3.org/2000/svg"
   xmlns="http://www.w3.org/2000/svg"
   xmlns:sodipodi="http://sodipodi.sourceforge.net/DTD/sodipodi-0.dtd"
   xmlns:inkscape="http://www.inkscape.org/namespaces/inkscape"
   width="22"
   height="22"
   viewBox="0 0 22 22"
   id="svg2"
   version="1.1"
   inkscape:version="0.92.3 (unknown)"
   sodipodi:docname="handle-left.svg">
  <defs
     id="defs3051">
    <style
       type="text/css"
       id="current-color-scheme">
    .ColorScheme-Text {
    color:#4d4d4d;
    }
    </style>
  </defs>
  <sodipodi:namedview
     id="base"
     pagecolor="#ffffff"
     bordercolor="#666666"
     borderopacity="1.0"
     inkscape:pageopacity="0.0"
     inkscape:pageshadow="2"
     inkscape:zoom="1"
     inkscape:cx="18.613519"
     inkscape:cy="14.372158"
     inkscape:document-units="px"
     inkscape:current-layer="layer1"
     showgrid="true"
     units="px"
     inkscape:showpageshadow="false"
     borderlayer="true"
     showguides="true"
     inkscape:guide-bbox="true"
     inkscape:window-width="2560"
     inkscape:window-height="1378"
     inkscape:window-x="0"
     inkscape:window-y="32"
     inkscape:window-maximized="1">
    <inkscape:grid
       type="xygrid"
       id="grid4136"
       empspacing="2" />
    <sodipodi:guide
       position="0,20"
       orientation="0,1"
       id="guide4140"
       inkscape:label="Icon Max Height"
       inkscape:color="rgb(233,30,99)"
       inkscape:locked="false" />
    <sodipodi:guide
       position="0,2"
       orientation="0,1"
       id="guide4142"
       inkscape:label="Icon Baseline"
       inkscape:color="rgb(233,30,99)"
       inkscape:locked="false" />
    <sodipodi:guide
       position="11,0"
       orientation="1,0"
       id="guide4144"
       inkscape:label="Center Vertical"
       inkscape:color="rgb(221,44,0)"
       inkscape:locked="false" />
    <sodipodi:guide
       position="15,11"
       orientation="0,1"
       id="guide4146"
       inkscape:label="Center Horizontal"
       inkscape:color="rgb(221,44,0)"
       inkscape:locked="false" />
  </sodipodi:namedview>
  <metadata
     id="metadata7">
    <rdf:RDF>
      <cc:Work
         rdf:about="">
        <dc:format>image/svg+xml</dc:format>
        <dc:type
           rdf:resource="http://purl.org/dc/dcmitype/StillImage" />
        <dc:title />
      </cc:Work>
    </rdf:RDF>
  </metadata>
  <g
     inkscape:label="Capa 1"
     inkscape:groupmode="layer"
     id="layer1"
     transform="translate(0,-1030.3622)">
    <path
       style="fill:currentColor;fill-opacity:1;stroke:none" class="ColorScheme-Text"
       d="M 17.890625 4.0058594 C 17.421371 4.0608594 17.00025 4.443 17 5 L 17 6 L 16 6 L 15 6 L 14 6 L 12 6 C 11.446 6 11 6.4453 11 7 C 11 7.5546 11.446 8.0019531 12 8.0019531 L 14 8.0019531 L 15 8.0019531 L 16 8.0019531 L 17 8.0019531 L 17 9.0019531 C 17.0056 9.8908531 18.078966 10.332831 18.707031 9.7070312 L 20.707031 7.7050781 C 20.794111 7.6180781 20.864306 7.5132906 20.914062 7.4003906 C 20.918563 7.3903906 20.921561 7.3810937 20.925781 7.3710938 C 20.97391 7.2529939 20.9991 7.1254469 21 6.9980469 C 20.99974 6.8671469 20.973858 6.7381875 20.923828 6.6171875 C 20.921928 6.6171875 20.919969 6.6035156 20.917969 6.6035156 C 20.868259 6.4883156 20.797364 6.3840219 20.708984 6.2949219 L 20.707031 6.2949219 L 18.707031 4.2949219 C 18.471035 4.0586223 18.172177 3.9728594 17.890625 4.0058594 z M 7 5.5 C 6.7238691 5.5000276 6.5000276 5.7238691 6.5 6 L 6 14 C 4.8541375 13.732575 4.2770514 13.591031 3.6464844 13.447266 L 2.6464844 13.646484 C 2.4512997 13.841749 2.4512997 14.158251 2.6464844 14.353516 L 5.6464844 16.853516 C 5.7402403 16.947284 5.8674006 16.999975 6 17 L 11.5 17 C 11.776131 16.999972 11.999972 16.776131 12 16.5 L 12.5 12 C 12.499274 11.785434 12.361742 11.595248 12.158203 11.527344 L 8.5 10.640625 L 8.5 6 C 8.4999724 5.7238691 8.2761309 5.5000276 8 5.5 L 7 5.5 z M 6 18 L 6 19 C 6 19.554 6.446 20 7 20 L 11 20 C 11.554 20 12 19.554 12 19 L 12 18 L 6 18 z "
       transform="translate(0,1030.3622)"
       id="path833" />
  </g>
</svg>
