<?xml version="1.0" encoding="UTF-8" standalone="no"?>
<!-- Created with Inkscape (http://www.inkscape.org/) -->

<svg
   xmlns:dc="http://purl.org/dc/elements/1.1/"
   xmlns:cc="http://creativecommons.org/ns#"
   xmlns:rdf="http://www.w3.org/1999/02/22-rdf-syntax-ns#"
   xmlns:svg="http://www.w3.org/2000/svg"
   xmlns="http://www.w3.org/2000/svg"
   xmlns:sodipodi="http://sodipodi.sourceforge.net/DTD/sodipodi-0.dtd"
   xmlns:inkscape="http://www.inkscape.org/namespaces/inkscape"
   width="22"
   height="22"
   viewBox="0 0 22 22"
   id="svg2"
   version="1.1"
   inkscape:version="0.92.3 (unknown)"
   sodipodi:docname="item-select.svg">
  <defs
     id="defs3051">
    <style
       type="text/css"
       id="current-color-scheme">
    .ColorScheme-Text {
    color:#4d4d4d;
    }
    </style>
  </defs>
  <sodipodi:namedview
     id="base"
     pagecolor="#ffffff"
     bordercolor="#666666"
     borderopacity="1.0"
     inkscape:pageopacity="0.0"
     inkscape:pageshadow="2"
     inkscape:zoom="37.5"
     inkscape:cx="11.225762"
     inkscape:cy="11.708964"
     inkscape:document-units="px"
     inkscape:current-layer="layer1"
     showgrid="true"
     units="px"
     inkscape:showpageshadow="false"
     borderlayer="true"
     showguides="true"
     inkscape:guide-bbox="true"
     inkscape:window-width="2560"
     inkscape:window-height="1378"
     inkscape:window-x="0"
     inkscape:window-y="32"
     inkscape:window-maximized="1">
    <inkscape:grid
       type="xygrid"
       id="grid4136"
       empspacing="2" />
    <sodipodi:guide
       position="0,20"
       orientation="0,1"
       id="guide4140"
       inkscape:label="Icon Max Height"
       inkscape:color="rgb(233,30,99)"
       inkscape:locked="false" />
    <sodipodi:guide
       position="0,2"
       orientation="0,1"
       id="guide4142"
       inkscape:label="Icon Baseline"
       inkscape:color="rgb(233,30,99)"
       inkscape:locked="false" />
    <sodipodi:guide
       position="11,0"
       orientation="1,0"
       id="guide4144"
       inkscape:label="Center Vertical"
       inkscape:color="rgb(221,44,0)"
       inkscape:locked="false" />
    <sodipodi:guide
       position="22,11"
       orientation="0,1"
       id="guide4146"
       inkscape:label="Center Horizontal"
       inkscape:color="rgb(221,44,0)"
       inkscape:locked="false" />
  </sodipodi:namedview>
  <metadata
     id="metadata7">
    <rdf:RDF>
      <cc:Work
         rdf:about="">
        <dc:format>image/svg+xml</dc:format>
        <dc:type
           rdf:resource="http://purl.org/dc/dcmitype/StillImage" />
        <dc:title />
      </cc:Work>
    </rdf:RDF>
  </metadata>
  <g
     inkscape:label="Capa 1"
     inkscape:groupmode="layer"
     id="layer1"
     transform="translate(0,-1030.3622)">
    <path
       style="fill:currentColor;fill-opacity:1;stroke:none" class="ColorScheme-Text"
       d="m 5.9746094,1034.3622 c -0.2591484,0.01 -0.5050781,0.1163 -0.6855469,0.3027 l -2.2792969,2.2871 -0.2910156,-0.291 c -0.9371595,-0.9929 -2.39919548,0.4671 -1.4101562,1.4082 l 0.9941406,1 c 0.3891791,0.3905 1.0209771,0.3905 1.4101562,0 l 2.9863282,-2.9961 c 0.6494284,-0.6346 0.1824198,-1.7372 -0.7246094,-1.7109 z m 6.9999996,0 c -0.259148,0.01 -0.505078,0.1163 -0.685547,0.3027 l -2.279296,2.2871 -0.291016,-0.291 c -0.9371595,-0.9929 -2.3991955,0.4671 -1.4101562,1.4082 l 0.9941406,1 c 0.3891792,0.3905 1.0209776,0.3905 1.4101566,0 l 2.986328,-2.9961 c 0.649429,-0.6346 0.18242,-1.7372 -0.72461,-1.7109 z m 7,0 c -0.259148,0.01 -0.505078,0.1163 -0.685547,0.3027 l -2.279296,2.2871 -0.291016,-0.291 c -0.937159,-0.9929 -2.3992,0.4671 -1.410156,1.4082 l 0.99414,1 c 0.389179,0.3905 1.020978,0.3905 1.410157,0 l 2.986328,-2.9961 c 0.649429,-0.6346 0.18242,-1.7372 -0.72461,-1.7109 z M 1,1042.3622 c -0.5540096,0 -1,0.446 -1,1 v 4 c 0,0.554 0.4459904,1 1,1 h 4 c 0.55401,0 1,-0.446 1,-1 v -4 c 0,-0.554 -0.44599,-1 -1,-1 z m 8,0 c -0.5540096,0 -1,0.446 -1,1 v 4 c 0,0.554 0.4459904,1 1,1 h 4 c 0.55401,0 1,-0.446 1,-1 v -4 c 0,-0.554 -0.44599,-1 -1,-1 z m 8,0 c -0.55401,0 -1,0.446 -1,1 v 4 c 0,0.554 0.44599,1 1,1 h 4 c 0.55401,0 1,-0.446 1,-1 v -4 c 0,-0.554 -0.44599,-1 -1,-1 z m -16,3 h 2 v 2 H 1 Z m 8,-2 h 4 v 4 H 9 Z m 8,0 h 4 v 4 h -4 z"
       id="path828"
       inkscape:connector-curvature="0"
       sodipodi:nodetypes="cccccccccccccccccccccccccccsssssssssssssssssssssssssssccccccccccccccc" />
  </g>
</svg>
