<?xml version="1.0" encoding="UTF-8" standalone="no"?>
<!-- Created with Inkscape (http://www.inkscape.org/) -->

<svg
   xmlns:dc="http://purl.org/dc/elements/1.1/"
   xmlns:cc="http://creativecommons.org/ns#"
   xmlns:rdf="http://www.w3.org/1999/02/22-rdf-syntax-ns#"
   xmlns:svg="http://www.w3.org/2000/svg"
   xmlns="http://www.w3.org/2000/svg"
   xmlns:sodipodi="http://sodipodi.sourceforge.net/DTD/sodipodi-0.dtd"
   xmlns:inkscape="http://www.inkscape.org/namespaces/inkscape"
   width="22"
   height="22"
   viewBox="0 0 22 22"
   id="svg2"
   version="1.1"
   inkscape:version="0.92.2 2405546, 2018-03-11"
   sodipodi:docname="link.svg">
  <defs
     id="defs3051">
    <style
       type="text/css"
       id="current-color-scheme">
      .ColorScheme-Text {
        color:#4d4d4d;
      }
      </style>
    <style
       id="current-color-scheme-6"
       type="text/css">
      .ColorScheme-Text {
        color:#4d4d4d;
      }
      </style>
  </defs>
  <sodipodi:namedview
     id="base"
     pagecolor="#ffffff"
     bordercolor="#666666"
     borderopacity="1.0"
     inkscape:pageopacity="0.0"
     inkscape:pageshadow="2"
     inkscape:zoom="11.313709"
     inkscape:cx="46.22238"
     inkscape:cy="10.567523"
     inkscape:document-units="px"
     inkscape:current-layer="layer1"
     showgrid="true"
     units="px"
     inkscape:showpageshadow="false"
     borderlayer="true"
     showguides="true"
     inkscape:guide-bbox="true"
     inkscape:window-width="2560"
     inkscape:window-height="1378"
     inkscape:window-x="0"
     inkscape:window-y="32"
     inkscape:window-maximized="1">
    <inkscape:grid
       type="xygrid"
       id="grid4136"
       empspacing="2" />
    <sodipodi:guide
       position="0,20"
       orientation="0,1"
       id="guide4140"
       inkscape:label="Icon Max Height"
       inkscape:color="rgb(233,30,99)"
       inkscape:locked="false" />
    <sodipodi:guide
       position="0,2"
       orientation="0,1"
       id="guide4142"
       inkscape:label="Icon Baseline"
       inkscape:color="rgb(233,30,99)"
       inkscape:locked="false" />
    <sodipodi:guide
       position="11,0"
       orientation="1,0"
       id="guide4144"
       inkscape:label="Center Vertical"
       inkscape:color="rgb(221,44,0)"
       inkscape:locked="false" />
    <sodipodi:guide
       position="15,11"
       orientation="0,1"
       id="guide4146"
       inkscape:label="Center Horizontal"
       inkscape:color="rgb(221,44,0)"
       inkscape:locked="false" />
  </sodipodi:namedview>
  <metadata
     id="metadata7">
    <rdf:RDF>
      <cc:Work
         rdf:about="">
        <dc:format>image/svg+xml</dc:format>
        <dc:type
           rdf:resource="http://purl.org/dc/dcmitype/StillImage" />
        <dc:title></dc:title>
      </cc:Work>
    </rdf:RDF>
  </metadata>
  <g
     inkscape:label="Capa 1"
     inkscape:groupmode="layer"
     id="layer1"
     transform="translate(0,-1030.3622)">
    <path
       style="color:#4d4d4d;font-style:normal;font-variant:normal;font-weight:normal;font-stretch:normal;font-size:medium;line-height:normal;font-family:sans-serif;font-variant-ligatures:normal;font-variant-position:normal;font-variant-caps:normal;font-variant-numeric:normal;font-variant-alternates:normal;font-feature-settings:normal;text-indent:0;text-align:start;text-decoration:none;text-decoration-line:none;text-decoration-style:solid;text-decoration-color:#000000;letter-spacing:normal;word-spacing:normal;text-transform:none;writing-mode:lr-tb;direction:ltr;text-orientation:mixed;dominant-baseline:auto;baseline-shift:baseline;text-anchor:start;white-space:normal;shape-padding:0;clip-rule:nonzero;display:inline;overflow:visible;visibility:visible;opacity:1;isolation:auto;mix-blend-mode:normal;color-interpolation:sRGB;color-interpolation-filters:linearRGB;solid-color:#000000;solid-opacity:1;vector-effect:none;fill:#4d4d4d;fill-opacity:1;fill-rule:nonzero;stroke:none;stroke-width:1;stroke-linecap:butt;stroke-linejoin:miter;stroke-miterlimit:4;stroke-dasharray:none;stroke-dashoffset:0;stroke-opacity:1;color-rendering:auto;image-rendering:auto;shape-rendering:auto;text-rendering:auto;enable-background:accumulate"
       d="m 6.843196,1032.3487 c -0.384087,0.026 -0.758954,0.198 -1.029297,0.5079 l -3.943359,4.5195 c -0.540697,0.6196 -0.476962,1.5765 0.142578,2.1172 l 4.521485,3.9453 c 0.619588,0.5408 1.574549,0.4752 2.115234,-0.1445 l 0.330078,-0.377 0.753906,0.6582 -0.330078,0.377 c -0.540723,0.6196 -0.475044,1.5745 0.144531,2.1152 l 4.519532,3.9453 c 0.619589,0.5408 1.576502,0.4752 2.117187,-0.1445 l 3.945313,-4.5196 c 0.540697,-0.6196 0.475008,-1.5764 -0.144532,-2.1171 l -4.519531,-3.9454 c -0.619588,-0.5408 -1.576501,-0.4751 -2.117187,0.1446 l -0.328125,0.3769 -0.753907,-0.6582 0.328125,-0.3769 c 0.540723,-0.6196 0.476996,-1.5746 -0.142578,-2.1153 l -4.521484,-3.9453 c -0.309794,-0.2703 -0.703803,-0.3895 -1.087891,-0.3633 z m 0.150391,2.1973 2.636719,2.3027 1.130859,0.9864 -0.138672,0.1562 c -0.562684,-0.1967 -1.188551,-0.1569 -1.601562,0.3164 l -1.316407,1.5059 c -0.41295,0.4732 -0.366527,1.0999 -0.095703,1.6308 l -0.136718,0.1582 -1.128907,-0.9863 -2.638672,-2.3027 z m 3.205078,5.4531 2.259766,1.9727 -0.658204,0.7539 -2.259765,-1.9727 z m 4.328125,1.1231 1.884766,1.6445 1.882812,1.6445 -3.287109,3.7657 -1.884766,-1.6426 -1.882812,-1.6445 0.136718,-0.1563 c 0.562684,0.1967 1.190505,0.157 1.603516,-0.3164 l 1.314453,-1.5078 c 0.41295,-0.4732 0.366527,-1.0981 0.0957,-1.6289 z"
       id="rect4161"
       inkscape:connector-curvature="0" />
  </g>
</svg>
