<?xml version="1.0" encoding="UTF-8" standalone="no"?>
<!-- Created with Inkscape (http://www.inkscape.org/) -->

<svg
   xmlns:dc="http://purl.org/dc/elements/1.1/"
   xmlns:cc="http://creativecommons.org/ns#"
   xmlns:rdf="http://www.w3.org/1999/02/22-rdf-syntax-ns#"
   xmlns:svg="http://www.w3.org/2000/svg"
   xmlns="http://www.w3.org/2000/svg"
   xmlns:sodipodi="http://sodipodi.sourceforge.net/DTD/sodipodi-0.dtd"
   xmlns:inkscape="http://www.inkscape.org/namespaces/inkscape"
   width="22"
   height="22"
   viewBox="0 0 22 22"
   id="svg2"
   version="1.1"
   inkscape:version="0.92.3 (unknown)"
   sodipodi:docname="mail-attachment.svg">
  <defs
     id="defs3051">
    <style
       type="text/css"
       id="current-color-scheme">
    .ColorScheme-Text {
    color:#4d4d4d;
    }
    </style>
  </defs>
  <sodipodi:namedview
     id="base"
     pagecolor="#ffffff"
     bordercolor="#666666"
     borderopacity="1.0"
     inkscape:pageopacity="0.0"
     inkscape:pageshadow="2"
     inkscape:zoom="39.59798"
     inkscape:cx="17.09672"
     inkscape:cy="8.9763232"
     inkscape:document-units="px"
     inkscape:current-layer="layer1"
     showgrid="true"
     units="px"
     inkscape:showpageshadow="false"
     borderlayer="true"
     showguides="true"
     inkscape:guide-bbox="true"
     inkscape:window-width="2560"
     inkscape:window-height="1384"
     inkscape:window-x="0"
     inkscape:window-y="32"
     inkscape:window-maximized="1">
    <inkscape:grid
       type="xygrid"
       id="grid4136"
       empspacing="2" />
    <sodipodi:guide
       position="0,20"
       orientation="0,1"
       id="guide4140"
       inkscape:label="Icon Max Height"
       inkscape:color="rgb(233,30,99)"
       inkscape:locked="false" />
    <sodipodi:guide
       position="0,2"
       orientation="0,1"
       id="guide4142"
       inkscape:label="Icon Baseline"
       inkscape:color="rgb(233,30,99)"
       inkscape:locked="false" />
    <sodipodi:guide
       position="11,0"
       orientation="1,0"
       id="guide4144"
       inkscape:label="Center Vertical"
       inkscape:color="rgb(221,44,0)"
       inkscape:locked="false" />
    <sodipodi:guide
       position="15,11"
       orientation="0,1"
       id="guide4146"
       inkscape:label="Center Horizontal"
       inkscape:color="rgb(221,44,0)"
       inkscape:locked="false" />
  </sodipodi:namedview>
  <metadata
     id="metadata7">
    <rdf:RDF>
      <cc:Work
         rdf:about="">
        <dc:format>image/svg+xml</dc:format>
        <dc:type
           rdf:resource="http://purl.org/dc/dcmitype/StillImage" />
        <dc:title />
      </cc:Work>
    </rdf:RDF>
  </metadata>
  <g
     inkscape:label="Capa 1"
     inkscape:groupmode="layer"
     id="layer1"
     transform="translate(0,-1030.3622)">
    <path
       style="fill:currentColor;fill-opacity:1;stroke:none" class="ColorScheme-Text"
       d="m 16.656842,1035.7053 c -0.783474,-0.7834 -2.044953,-0.7834 -2.828427,0 l -0.567619,0.5677 -0.986083,0.986 -4.8102592,4.8103 c -0.7834743,0.7835 -0.7834743,2.045 0,2.8284 l 0.7071068,0.7071 2.1213204,-0.7071 1.414213,-1.4142 4.949748,-4.9497 0.707107,0.7071 -3.535534,3.5355 -2.828427,2.8284 c -1.1752118,1.1752 -3.0674295,1.1752 -4.242641,0 -1.1752114,-1.1752 -1.1752114,-3.0674 0,-4.2426 l 2.8284271,-2.8284 1.4142139,-1.4142 0.139488,-0.1395 c 0.314788,-0.3148 0.314788,-0.8205 0,-1.1353 l -0.278976,-0.2789 c -0.314789,-0.3148 -0.820449,-0.3148 -1.135238,0 l -0.1394879,0.1394 -0.1394878,0.1395 -1.2747257,1.2748 -2.8284271,2.8284 c -1.9586858,1.9587 -1.9586858,5.1124 0,7.071 1.9586857,1.9587 5.1123815,1.9587 7.0710675,0 l 4.242641,-4.2426 2.12132,-2.1213 c 0.783481,-0.7835 0.743379,-2.0068 0,-2.8284 l -1.414213,-1.4143 z m -1.414214,1.4143 0.707107,0.7071 -4.949747,4.9497 -0.707107,-0.7071 1.414213,-1.4142 0.194731,-0.1947 0.512376,-0.5124 1.414214,-1.4142 0.707107,-0.7071 z"
       id="rect842"
       inkscape:connector-curvature="0" />
  </g>
</svg>
