<?xml version="1.0" encoding="UTF-8" standalone="no"?>
<!-- Created with Inkscape (http://www.inkscape.org/) -->

<svg
   xmlns:dc="http://purl.org/dc/elements/1.1/"
   xmlns:cc="http://creativecommons.org/ns#"
   xmlns:rdf="http://www.w3.org/1999/02/22-rdf-syntax-ns#"
   xmlns:svg="http://www.w3.org/2000/svg"
   xmlns="http://www.w3.org/2000/svg"
   xmlns:sodipodi="http://sodipodi.sourceforge.net/DTD/sodipodi-0.dtd"
   xmlns:inkscape="http://www.inkscape.org/namespaces/inkscape"
   width="22"
   height="22"
   viewBox="0 0 22 22"
   id="svg2"
   version="1.1"
   inkscape:version="0.92.2 (5c3e80d, 2017-08-06)"
   sodipodi:docname="media-album-track.svg">
<defs
    id="defs3051">
<style
    type="text/css"
    id="current-color-scheme">
    .ColorScheme-Text {
    color:#4d4d4d;
    }
    </style>
</defs>
  <sodipodi:namedview
     id="base"
     pagecolor="#ffffff"
     bordercolor="#666666"
     borderopacity="1.0"
     inkscape:pageopacity="0.0"
     inkscape:pageshadow="2"
     inkscape:zoom="32"
     inkscape:cx="6.723755"
     inkscape:cy="11.043358"
     inkscape:document-units="px"
     inkscape:current-layer="layer1"
     showgrid="true"
     units="px"
     inkscape:showpageshadow="false"
     borderlayer="true"
     showguides="true"
     inkscape:guide-bbox="true"
     inkscape:window-width="2560"
     inkscape:window-height="1373"
     inkscape:window-x="0"
     inkscape:window-y="30"
     inkscape:window-maximized="1">
    <inkscape:grid
       type="xygrid"
       id="grid4136"
       empspacing="2" />
    <sodipodi:guide
       position="0,20"
       orientation="0,1"
       id="guide4140"
       inkscape:label="Icon Max Height"
       inkscape:color="rgb(233,30,99)"
       inkscape:locked="false" />
    <sodipodi:guide
       position="0,2"
       orientation="0,1"
       id="guide4142"
       inkscape:label="Icon Baseline"
       inkscape:color="rgb(233,30,99)"
       inkscape:locked="false" />
    <sodipodi:guide
       position="11,0"
       orientation="1,0"
       id="guide4144"
       inkscape:label="Center Vertical"
       inkscape:color="rgb(221,44,0)"
       inkscape:locked="false" />
    <sodipodi:guide
       position="15,11"
       orientation="0,1"
       id="guide4146"
       inkscape:label="Center Horizontal"
       inkscape:color="rgb(221,44,0)"
       inkscape:locked="false" />
  </sodipodi:namedview>
  <metadata
     id="metadata7">
    <rdf:RDF>
      <cc:Work
         rdf:about="">
        <dc:format>image/svg+xml</dc:format>
        <dc:type
           rdf:resource="http://purl.org/dc/dcmitype/StillImage" />
        <dc:title />
      </cc:Work>
    </rdf:RDF>
  </metadata>
  <g
     inkscape:label="Capa 1"
     inkscape:groupmode="layer"
     id="layer1"
     transform="translate(0,-1030.3622)">
    <path
       style="fill:currentColor;fill-opacity:1;stroke:none"
       class="ColorScheme-Text"
       d="M 4 2 C 2.8919904 2 2 2.8919904 2 4 L 2 18 C 2 19.10801 2.8919904 20 4 20 L 11 20 L 11 18 L 6 18 L 6 4 L 18 4 L 18 9 L 20 9 L 20 4 C 20 2.8919904 19.10801 2 18 2 L 4 2 z M 15 11 L 15 13 L 15 16 A 2 2 0 0 0 13 18 A 2 2 0 0 0 15 20 A 2 2 0 0 0 17 18 L 17 13 L 19 13 A 2 2 0 0 0 17 11 L 15 11 z "
       transform="translate(0,1030.3622)"
       id="rect4140" />
  </g>
</svg>
