<?xml version="1.0" encoding="UTF-8" standalone="no"?>
<!-- Created with Inkscape (http://www.inkscape.org/) -->

<svg
   xmlns:dc="http://purl.org/dc/elements/1.1/"
   xmlns:cc="http://creativecommons.org/ns#"
   xmlns:rdf="http://www.w3.org/1999/02/22-rdf-syntax-ns#"
   xmlns:svg="http://www.w3.org/2000/svg"
   xmlns="http://www.w3.org/2000/svg"
   xmlns:sodipodi="http://sodipodi.sourceforge.net/DTD/sodipodi-0.dtd"
   xmlns:inkscape="http://www.inkscape.org/namespaces/inkscape"
   width="22"
   height="22"
   viewBox="0 0 22 22"
   id="svg2"
   version="1.1"
   inkscape:version="0.92.3 (unknown)"
   sodipodi:docname="media-playlist-normal.svg">
  <defs
     id="defs3051">
    <style
       type="text/css"
       id="current-color-scheme">
    .ColorScheme-Text {
    color:#4d4d4d;
    }
    </style>
  </defs>
  <sodipodi:namedview
     id="base"
     pagecolor="#ffffff"
     bordercolor="#666666"
     borderopacity="1.0"
     inkscape:pageopacity="0.0"
     inkscape:pageshadow="2"
     inkscape:zoom="45.254834"
     inkscape:cx="8.6015405"
     inkscape:cy="11.135932"
     inkscape:document-units="px"
     inkscape:current-layer="layer1"
     showgrid="true"
     units="px"
     inkscape:showpageshadow="false"
     borderlayer="true"
     showguides="true"
     inkscape:guide-bbox="true"
     inkscape:window-width="2560"
     inkscape:window-height="1407"
     inkscape:window-x="0"
     inkscape:window-y="33"
     inkscape:window-maximized="1">
    <inkscape:grid
       type="xygrid"
       id="grid4136"
       empspacing="2" />
    <sodipodi:guide
       position="0,20"
       orientation="0,1"
       id="guide4140"
       inkscape:label="Icon Max Height"
       inkscape:color="rgb(233,30,99)"
       inkscape:locked="false" />
    <sodipodi:guide
       position="0,2"
       orientation="0,1"
       id="guide4142"
       inkscape:label="Icon Baseline"
       inkscape:color="rgb(233,30,99)"
       inkscape:locked="false" />
    <sodipodi:guide
       position="11,0"
       orientation="1,0"
       id="guide4144"
       inkscape:label="Center Vertical"
       inkscape:color="rgb(221,44,0)"
       inkscape:locked="false" />
    <sodipodi:guide
       position="15,11"
       orientation="0,1"
       id="guide4146"
       inkscape:label="Center Horizontal"
       inkscape:color="rgb(221,44,0)"
       inkscape:locked="false" />
  </sodipodi:namedview>
  <metadata
     id="metadata7">
    <rdf:RDF>
      <cc:Work
         rdf:about="">
        <dc:format>image/svg+xml</dc:format>
        <dc:type
           rdf:resource="http://purl.org/dc/dcmitype/StillImage" />
        <dc:title></dc:title>
      </cc:Work>
    </rdf:RDF>
  </metadata>
  <g
     inkscape:label="Capa 1"
     inkscape:groupmode="layer"
     id="layer1"
     transform="translate(0,-1030.3622)">
    <path
       style="fill:currentColor;fill-opacity:1;stroke:none"
       class="ColorScheme-Text"
       d="M 15.890625 4.0058594 L 15.890625 4.0078125 C 15.421371 4.0628125 15.00025 4.4447531 15 5.0019531 L 15 6 A 0.99791346 1.0001 0 0 0 14.988281 6 L 14 6 L 6 6 L 4.0117188 6 A 0.99791342 1.0001 0 1 0 4.0117188 8 L 6 8 L 14 8 L 14.988281 8 A 0.99791346 1.0001 0 0 0 15 8 L 15 8.0039062 L 15 9.0058594 A 1.0001 1.0015315 0 0 0 16.707031 9.7070312 L 18.707031 7.7050781 A 1.0001 1.0015315 0 0 0 18.914062 7.4023438 C 18.918563 7.3923438 18.921561 7.3810937 18.925781 7.3710938 A 1.0001 1.0015315 0 0 0 19 6.9980469 A 1.0001 1.0015315 0 0 0 18.923828 6.6171875 C 18.921928 6.6171875 18.919969 6.6035156 18.917969 6.6035156 A 1.0001 1.0015315 0 0 0 18.708984 6.2949219 L 18.707031 6.2949219 L 16.707031 4.2949219 C 16.470781 4.0585219 16.172177 3.9728594 15.890625 4.0058594 z M 15.890625 12.005859 L 15.890625 12.007812 C 15.421371 12.062814 15.00025 12.444753 15 13.001953 L 15 14 A 0.99791342 1.0001 0 0 0 14.988281 14 L 14 14 L 6 14 L 4.0117188 14 A 0.99791346 1.0001 0 1 0 4.0117188 16 L 6 16 L 14 16 L 14.988281 16 A 0.99791342 1.0001 0 0 0 15 16 L 15 16.003906 L 15 17.005859 A 1.0001 1.0015315 0 0 0 16.707031 17.707031 L 18.707031 15.705078 A 1.0001 1.0015315 0 0 0 18.914062 15.402344 C 18.918563 15.392344 18.921561 15.381094 18.925781 15.371094 A 1.0001 1.0015315 0 0 0 19 14.998047 A 1.0001 1.0015315 0 0 0 18.923828 14.617188 C 18.921928 14.617188 18.919969 14.603516 18.917969 14.603516 A 1.0001 1.0015315 0 0 0 18.708984 14.294922 L 18.707031 14.294922 L 16.707031 12.294922 C 16.470781 12.058522 16.172177 11.972859 15.890625 12.005859 z "
       transform="translate(0,1030.3622)"
       id="path3200" />
  </g>
</svg>
