<?xml version="1.0" encoding="UTF-8" standalone="no"?>
<!-- Created with Inkscape (http://www.inkscape.org/) -->

<svg
   xmlns:dc="http://purl.org/dc/elements/1.1/"
   xmlns:cc="http://creativecommons.org/ns#"
   xmlns:rdf="http://www.w3.org/1999/02/22-rdf-syntax-ns#"
   xmlns:svg="http://www.w3.org/2000/svg"
   xmlns="http://www.w3.org/2000/svg"
   xmlns:sodipodi="http://sodipodi.sourceforge.net/DTD/sodipodi-0.dtd"
   xmlns:inkscape="http://www.inkscape.org/namespaces/inkscape"
   width="22"
   height="22"
   viewBox="0 0 22 22"
   id="svg2"
   version="1.1"
   inkscape:version="0.92.2 (5c3e80d, 2017-08-06)"
   sodipodi:docname="media-playlist-play.svg">
<defs
    id="defs3051">
<style
    type="text/css"
    id="current-color-scheme">
    .ColorScheme-Text {
    color:#4d4d4d;
    }
    </style>
</defs>
  <sodipodi:namedview
     id="base"
     pagecolor="#ffffff"
     bordercolor="#666666"
     borderopacity="1.0"
     inkscape:pageopacity="0.0"
     inkscape:pageshadow="2"
     inkscape:zoom="90.509668"
     inkscape:cx="17.590315"
     inkscape:cy="7.0153934"
     inkscape:document-units="px"
     inkscape:current-layer="layer1"
     showgrid="true"
     units="px"
     inkscape:showpageshadow="false"
     borderlayer="true"
     showguides="true"
     inkscape:guide-bbox="true"
     inkscape:window-width="2560"
     inkscape:window-height="1373"
     inkscape:window-x="0"
     inkscape:window-y="30"
     inkscape:window-maximized="1">
    <inkscape:grid
       type="xygrid"
       id="grid4136"
       empspacing="2" />
    <sodipodi:guide
       position="0,20"
       orientation="0,1"
       id="guide4140"
       inkscape:label="Icon Max Height"
       inkscape:color="rgb(233,30,99)"
       inkscape:locked="false" />
    <sodipodi:guide
       position="0,2"
       orientation="0,1"
       id="guide4142"
       inkscape:label="Icon Baseline"
       inkscape:color="rgb(233,30,99)"
       inkscape:locked="false" />
    <sodipodi:guide
       position="11,0"
       orientation="1,0"
       id="guide4144"
       inkscape:label="Center Vertical"
       inkscape:color="rgb(221,44,0)"
       inkscape:locked="false" />
    <sodipodi:guide
       position="22,11"
       orientation="0,1"
       id="guide4146"
       inkscape:label="Center Horizontal"
       inkscape:color="rgb(221,44,0)"
       inkscape:locked="false" />
  </sodipodi:namedview>
  <metadata
     id="metadata7">
    <rdf:RDF>
      <cc:Work
         rdf:about="">
        <dc:format>image/svg+xml</dc:format>
        <dc:type
           rdf:resource="http://purl.org/dc/dcmitype/StillImage" />
        <dc:title />
      </cc:Work>
    </rdf:RDF>
  </metadata>
  <g
     inkscape:label="Capa 1"
     inkscape:groupmode="layer"
     id="layer1"
     transform="translate(0,-1030.3622)">
    <path
       style="fill:currentColor;fill-opacity:1;stroke:none" class="ColorScheme-Text"
       d="M 11 2 A 9 9 0 0 0 2 11 A 9 9 0 0 0 11 20 A 1 1 0 0 0 12 19 A 1 1 0 0 0 11 18 A 7 7 0 0 1 4 11 A 7 7 0 0 1 11 4 A 7 7 0 0 1 18 11 A 1 1 0 0 0 19 12 A 1 1 0 0 0 20 11 A 1 1 0 0 0 19.996094 10.90625 A 9 9 0 0 0 11 2 z M 10.986328 6 A 0.99832916 0.99761179 0 0 0 10.001953 7.0117188 L 10.003906 10.587891 L 8.296875 12.291016 A 0.99887106 0.99815331 0 0 0 9.7109375 13.701172 L 11.707031 11.707031 A 0.99832916 0.99761179 0 0 0 12 11.001953 L 11.998047 7.0117188 A 0.99832916 0.99761179 0 0 0 10.986328 6 z M 14.943359 12.001953 C 14.41404 12.031953 14.000259 12.47 14 13 L 14 18.998047 C 13.999747 19.821947 14.940028 20.292628 15.599609 19.798828 L 19.599609 16.798828 C 20.132562 16.398828 20.132562 15.599219 19.599609 15.199219 L 15.599609 12.201172 C 15.411152 12.059472 15.178778 11.988953 14.943359 12.001953 z "
       transform="translate(0,1030.3622)"
       id="path14" />
  </g>
</svg>
