<?xml version="1.0" encoding="UTF-8" standalone="no"?>
<!-- Created with Inkscape (http://www.inkscape.org/) -->

<svg
   xmlns:dc="http://purl.org/dc/elements/1.1/"
   xmlns:cc="http://creativecommons.org/ns#"
   xmlns:rdf="http://www.w3.org/1999/02/22-rdf-syntax-ns#"
   xmlns:svg="http://www.w3.org/2000/svg"
   xmlns="http://www.w3.org/2000/svg"
   xmlns:sodipodi="http://sodipodi.sourceforge.net/DTD/sodipodi-0.dtd"
   xmlns:inkscape="http://www.inkscape.org/namespaces/inkscape"
   width="22"
   height="22"
   viewBox="0 0 22 22"
   id="svg2"
   version="1.1"
   inkscape:version="0.92.2 (5c3e80d, 2017-08-06)"
   sodipodi:docname="media-playlist-append.svg">
<defs
    id="defs3051">
<style
    type="text/css"
    id="current-color-scheme">
    .ColorScheme-Text {
    color:#4d4d4d;
    }
    </style>
</defs>
  <sodipodi:namedview
     id="base"
     pagecolor="#ffffff"
     bordercolor="#666666"
     borderopacity="1.0"
     inkscape:pageopacity="0.0"
     inkscape:pageshadow="2"
     inkscape:zoom="61.92925"
     inkscape:cx="8.7204944"
     inkscape:cy="13.930796"
     inkscape:document-units="px"
     inkscape:current-layer="layer1"
     showgrid="true"
     units="px"
     inkscape:showpageshadow="false"
     borderlayer="true"
     showguides="true"
     inkscape:guide-bbox="true"
     inkscape:window-width="2560"
     inkscape:window-height="1373"
     inkscape:window-x="0"
     inkscape:window-y="30"
     inkscape:window-maximized="1">
    <inkscape:grid
       type="xygrid"
       id="grid4136"
       empspacing="2" />
    <sodipodi:guide
       position="0,20"
       orientation="0,1"
       id="guide4140"
       inkscape:label="Icon Max Height"
       inkscape:color="rgb(233,30,99)"
       inkscape:locked="false" />
    <sodipodi:guide
       position="0,2"
       orientation="0,1"
       id="guide4142"
       inkscape:label="Icon Baseline"
       inkscape:color="rgb(233,30,99)"
       inkscape:locked="false" />
    <sodipodi:guide
       position="11,0"
       orientation="1,0"
       id="guide4144"
       inkscape:label="Center Vertical"
       inkscape:color="rgb(221,44,0)"
       inkscape:locked="false" />
    <sodipodi:guide
       position="15,11"
       orientation="0,1"
       id="guide4146"
       inkscape:label="Center Horizontal"
       inkscape:color="rgb(221,44,0)"
       inkscape:locked="false" />
  </sodipodi:namedview>
  <metadata
     id="metadata7">
    <rdf:RDF>
      <cc:Work
         rdf:about="">
        <dc:format>image/svg+xml</dc:format>
        <dc:type
           rdf:resource="http://purl.org/dc/dcmitype/StillImage" />
        <dc:title />
      </cc:Work>
    </rdf:RDF>
  </metadata>
  <g
     inkscape:label="Capa 1"
     inkscape:groupmode="layer"
     id="layer1"
     transform="translate(0,-1030.3622)">
    <path
       style="fill:currentColor;fill-opacity:1;stroke:none" class="ColorScheme-Text"
       d="M 4 3 C 3.446 3 3 3.446 3 4 L 3 5 L 2 5 C 1.446 5 1 5.446 1 6 C 1 6.554 1.446 7 2 7 L 3 7 L 3 8 C 3 8.554 3.446 9 4 9 C 4.554 9 5 8.554 5 8 L 5 7 L 6 7 C 6.554 7 7 6.554 7 6 C 7 5.446 6.554 5 6 5 L 5 5 L 5 4 C 5 3.446 4.554 3 4 3 z M 10.400391 5 C 9.8463952 5 9.4003906 5.446 9.4003906 6 C 9.4003906 6.554 9.8463952 7 10.400391 7 L 19.630859 7 C 20.184854 7 20.630859 6.554 20.630859 6 C 20.630859 5.446 20.184854 5 19.630859 5 L 10.400391 5 z M 1.90625 11 C 1.404024 11 1 11.40395 1 11.90625 L 1 12.09375 C 1 12.59595 1.404024 13 1.90625 13 L 3.09375 13 C 3.595976 13 4 12.59595 4 12.09375 L 4 11.90625 C 4 11.40395 3.595976 11 3.09375 11 L 1.90625 11 z M 7 11 C 6.446072 11 6 11.4461 6 12 C 6 12.5539 6.446072 13 7 13 L 20 13 C 20.553928 13 21 12.5539 21 12 C 21 11.4461 20.553928 11 20 11 L 7 11 z M 1.90625 17 C 1.404024 17 1 17.40395 1 17.90625 L 1 18.09375 C 1 18.59595 1.404024 19 1.90625 19 L 3.09375 19 C 3.595976 19 4 18.59595 4 18.09375 L 4 17.90625 C 4 17.40395 3.595976 17 3.09375 17 L 1.90625 17 z M 7 17 C 6.446005 17 6 17.446 6 18 C 6 18.554 6.446005 19 7 19 L 20 19 C 20.553995 19 21 18.554 21 18 C 21 17.446 20.553995 17 20 17 L 7 17 z "
       transform="translate(0,1030.3622)"
       id="path828" />
  </g>
</svg>
