<?xml version="1.0" encoding="UTF-8" standalone="no"?>
<!-- Created with Inkscape (http://www.inkscape.org/) -->

<svg
   xmlns:dc="http://purl.org/dc/elements/1.1/"
   xmlns:cc="http://creativecommons.org/ns#"
   xmlns:rdf="http://www.w3.org/1999/02/22-rdf-syntax-ns#"
   xmlns:svg="http://www.w3.org/2000/svg"
   xmlns="http://www.w3.org/2000/svg"
   xmlns:sodipodi="http://sodipodi.sourceforge.net/DTD/sodipodi-0.dtd"
   xmlns:inkscape="http://www.inkscape.org/namespaces/inkscape"
   width="22"
   height="22"
   viewBox="0 0 22 22"
   id="svg2"
   version="1.1"
   inkscape:version="0.91 r13725"
   sodipodi:docname="application-menu.svg">
<defs
    id="defs3051">
<style
    type="text/css"
    id="current-color-scheme">
    .ColorScheme-Text {
    color:#4d4d4d;
    }
    </style>
</defs>
  <sodipodi:namedview
     id="base"
     pagecolor="#ffffff"
     bordercolor="#666666"
     borderopacity="1.0"
     inkscape:pageopacity="0.0"
     inkscape:pageshadow="2"
     inkscape:zoom="45.254834"
     inkscape:cx="12.67883"
     inkscape:cy="12.097606"
     inkscape:document-units="px"
     inkscape:current-layer="layer1"
     showgrid="true"
     units="px"
     inkscape:showpageshadow="false"
     borderlayer="true"
     showguides="true"
     inkscape:guide-bbox="true"
     inkscape:window-width="2560"
     inkscape:window-height="1015"
     inkscape:window-x="0"
     inkscape:window-y="0"
     inkscape:window-maximized="1">
    <inkscape:grid
       type="xygrid"
       id="grid4136"
       empspacing="2" />
    <sodipodi:guide
       position="0,20"
       orientation="0,1"
       id="guide4140"
       inkscape:label="Icon Max Height"
       inkscape:color="rgb(233,30,99)" />
    <sodipodi:guide
       position="0,2"
       orientation="0,1"
       id="guide4142"
       inkscape:label="Icon Baseline"
       inkscape:color="rgb(233,30,99)" />
    <sodipodi:guide
       position="11,0"
       orientation="1,0"
       id="guide4144"
       inkscape:label="Center Vertical"
       inkscape:color="rgb(221,44,0)" />
    <sodipodi:guide
       position="15,11"
       orientation="0,1"
       id="guide4146"
       inkscape:label="Center Horizontal"
       inkscape:color="rgb(221,44,0)" />
  </sodipodi:namedview>
  <metadata
     id="metadata7">
    <rdf:RDF>
      <cc:Work
         rdf:about="">
        <dc:format>image/svg+xml</dc:format>
        <dc:type
           rdf:resource="http://purl.org/dc/dcmitype/StillImage" />
        <dc:title />
      </cc:Work>
    </rdf:RDF>
  </metadata>
  <g
     inkscape:label="Capa 1"
     inkscape:groupmode="layer"
     id="layer1"
     transform="translate(0,-1030.3622)">
    <path
       style="fill:currentColor;fill-opacity:1;stroke:none" class="ColorScheme-Text"
       d="m 6.5559759,1032.3622 a 1.1110117,1.125111 0 0 0 -0.9656212,0.5669 l -4.4440275,7.875 a 1.1110117,1.125111 0 0 0 0,1.1162 l 4.4440275,7.875 a 1.1110117,1.125111 0 0 0 0.9656212,0.5669 l 8.8880551,0 a 1.1110117,1.125111 0 0 0 0.965621,-0.5669 l 4.444027,-7.875 a 1.1110117,1.125111 0 0 0 0,-1.1162 l -4.444027,-7.875 a 1.1110117,1.125111 0 0 0 -0.965621,-0.5669 l -8.8880551,0 z m 0.9873205,2.138 6.9134136,0 a 1.1112434,1.1250002 0 0 1 0.965621,0.5712 l 3.209335,5.7349 a 1.1112434,1.1250002 0 0 1 0,1.1118 l -3.209335,5.7349 a 1.1112434,1.1250002 0 0 1 -0.965621,0.5712 l -6.9134136,0 a 1.1112434,1.1250002 0 0 1 -0.9656213,-0.5712 l -3.2093341,-5.7349 a 1.1112434,1.1250002 0 0 1 0,-1.1118 l 3.2093341,-5.7349 a 1.1112434,1.1250002 0 0 1 0.9656213,-0.5712 z m 3.4567066,4.612 a 2.2220137,2.249997 0 0 0 -2.2220134,2.25 2.2220137,2.249997 0 0 0 2.2220134,2.25 2.2220137,2.249997 0 0 0 2.222013,-2.25 2.2220137,2.249997 0 0 0 -2.222013,-2.25 z"
       id="path4139"
       inkscape:connector-curvature="0" />
  </g>
</svg>
