<?xml version="1.0" encoding="UTF-8" standalone="no"?>
<!-- Created with Inkscape (http://www.inkscape.org/) -->

<svg
   xmlns:dc="http://purl.org/dc/elements/1.1/"
   xmlns:cc="http://creativecommons.org/ns#"
   xmlns:rdf="http://www.w3.org/1999/02/22-rdf-syntax-ns#"
   xmlns:svg="http://www.w3.org/2000/svg"
   xmlns="http://www.w3.org/2000/svg"
   xmlns:sodipodi="http://sodipodi.sourceforge.net/DTD/sodipodi-0.dtd"
   xmlns:inkscape="http://www.inkscape.org/namespaces/inkscape"
   width="22"
   height="22"
   viewBox="0 0 22 22"
   id="svg2"
   version="1.1"
   inkscape:version="0.91 r13725"
   sodipodi:docname="object-rotate-left.svg">
<defs
    id="defs3051">
<style
    type="text/css"
    id="current-color-scheme">
    .ColorScheme-Text {
    color:#4d4d4d;
    }
    </style>
</defs>
  <sodipodi:namedview
     id="base"
     pagecolor="#ffffff"
     bordercolor="#666666"
     borderopacity="1.0"
     inkscape:pageopacity="0.0"
     inkscape:pageshadow="2"
     inkscape:zoom="32"
     inkscape:cx="13.024727"
     inkscape:cy="14.363724"
     inkscape:document-units="px"
     inkscape:current-layer="layer1"
     showgrid="true"
     units="px"
     inkscape:showpageshadow="false"
     borderlayer="true"
     showguides="true"
     inkscape:guide-bbox="true"
     inkscape:window-width="2560"
     inkscape:window-height="1015"
     inkscape:window-x="0"
     inkscape:window-y="0"
     inkscape:window-maximized="1">
    <inkscape:grid
       type="xygrid"
       id="grid4136"
       empspacing="2" />
    <sodipodi:guide
       position="0,20"
       orientation="0,1"
       id="guide4140"
       inkscape:label="Icon Max Height"
       inkscape:color="rgb(233,30,99)" />
    <sodipodi:guide
       position="0,2"
       orientation="0,1"
       id="guide4142"
       inkscape:label="Icon Baseline"
       inkscape:color="rgb(233,30,99)" />
    <sodipodi:guide
       position="11,0"
       orientation="1,0"
       id="guide4144"
       inkscape:label="Center Vertical"
       inkscape:color="rgb(221,44,0)" />
    <sodipodi:guide
       position="15,11"
       orientation="0,1"
       id="guide4146"
       inkscape:label="Center Horizontal"
       inkscape:color="rgb(221,44,0)" />
  </sodipodi:namedview>
  <metadata
     id="metadata7">
    <rdf:RDF>
      <cc:Work
         rdf:about="">
        <dc:format>image/svg+xml</dc:format>
        <dc:type
           rdf:resource="http://purl.org/dc/dcmitype/StillImage" />
        <dc:title />
      </cc:Work>
    </rdf:RDF>
  </metadata>
  <g
     inkscape:label="Capa 1"
     inkscape:groupmode="layer"
     id="layer1"
     transform="translate(0,-1030.3622)">
    <path
       style="fill:currentColor;fill-opacity:1;stroke:none" class="ColorScheme-Text"
       d="M 4 2 C 2.8919904 2 2 2.8919904 2 4 L 2 18 C 2 19.10801 2.8919904 20 4 20 L 6 20 C 7.1080096 20 8 19.10801 8 18 L 8 4 C 8 2.8919904 7.1080096 2 6 2 L 4 2 z M 12.109375 2.0078125 C 11.827823 1.9748125 11.529219 2.0588219 11.292969 2.2949219 L 9.2929688 4.2929688 L 9.2910156 4.2929688 C 9.2026356 4.3819687 9.1317433 4.4864625 9.0820312 4.6015625 C 9.0800313 4.6015625 9.0780719 4.6112344 9.0761719 4.6152344 C 9.0261419 4.7360344 9.00026 4.8653937 9 4.9960938 C 9.0009 5.1233937 9.0260887 5.2492875 9.0742188 5.3671875 C 9.0784187 5.3771875 9.0814175 5.3884375 9.0859375 5.3984375 C 9.1356975 5.5112375 9.2058886 5.6138719 9.2929688 5.7011719 L 11.292969 7.7011719 C 11.920951 8.3287719 12.994428 7.8879 13 7 L 13 6 L 14 6 C 16.216005 6 18 7.7839 18 10 L 18 11 C 18 11.554 18.446005 12 19 12 C 19.553995 12 20 11.554 20 11 L 20 9.84375 C 20 6.60605 17.393687 4 14.15625 4 L 14 4 L 13 4 L 13 3.0019531 C 12.99975 2.4455531 12.578629 2.0631125 12.109375 2.0078125 z M 4 4 L 6 4 L 6 18 L 4 18 L 4 4 z M 10 14 L 10 16 L 10 18 L 10 20 L 12 20 L 18 20 C 19.10801 20 20 19.108 20 18 L 20 16 C 20 14.892 19.10801 14 18 14 L 12 14 L 10 14 z M 12 16 L 18 16 L 18 18 L 12 18 L 12 16 z "
       transform="translate(0,1030.3622)"
       id="rect3204" />
  </g>
</svg>
