<?xml version="1.0" encoding="UTF-8" standalone="no"?>
<!-- Created with Inkscape (http://www.inkscape.org/) -->

<svg
   width="22"
   height="22"
   viewBox="0 0 22 22"
   id="svg2"
   version="1.1"
   inkscape:version="1.1 (c4e8f9e, 2021-05-24)"
   sodipodi:docname="object-flip-horizontal.svg"
   xmlns:inkscape="http://www.inkscape.org/namespaces/inkscape"
   xmlns:sodipodi="http://sodipodi.sourceforge.net/DTD/sodipodi-0.dtd"
   xmlns="http://www.w3.org/2000/svg"
   xmlns:svg="http://www.w3.org/2000/svg"
   xmlns:rdf="http://www.w3.org/1999/02/22-rdf-syntax-ns#"
   xmlns:cc="http://creativecommons.org/ns#"
   xmlns:dc="http://purl.org/dc/elements/1.1/">
  <defs
     id="defs3051">
    <style
       type="text/css"
       id="current-color-scheme">
    .ColorScheme-Text {
    color:#4d4d4d;
    }
    </style>
  </defs>
  <sodipodi:namedview
     id="base"
     pagecolor="#ffffff"
     bordercolor="#666666"
     borderopacity="1.0"
     inkscape:pageopacity="0.0"
     inkscape:pageshadow="2"
     inkscape:zoom="52.772727"
     inkscape:cx="11"
     inkscape:cy="11"
     inkscape:document-units="px"
     inkscape:current-layer="layer1"
     showgrid="true"
     units="px"
     inkscape:showpageshadow="false"
     borderlayer="true"
     showguides="true"
     inkscape:guide-bbox="true"
     inkscape:window-width="2560"
     inkscape:window-height="1412"
     inkscape:window-x="0"
     inkscape:window-y="0"
     inkscape:window-maximized="1"
     inkscape:pagecheckerboard="0">
    <inkscape:grid
       type="xygrid"
       id="grid4136"
       empspacing="2" />
    <sodipodi:guide
       position="0,20"
       orientation="0,1"
       id="guide4140"
       inkscape:label="Icon Max Height"
       inkscape:color="rgb(233,30,99)" />
    <sodipodi:guide
       position="0,2"
       orientation="0,1"
       id="guide4142"
       inkscape:label="Icon Baseline"
       inkscape:color="rgb(233,30,99)" />
    <sodipodi:guide
       position="11,0"
       orientation="1,0"
       id="guide4144"
       inkscape:label="Center Vertical"
       inkscape:color="rgb(221,44,0)" />
    <sodipodi:guide
       position="15,11"
       orientation="0,1"
       id="guide4146"
       inkscape:label="Center Horizontal"
       inkscape:color="rgb(221,44,0)" />
  </sodipodi:namedview>
  <metadata
     id="metadata7">
    <rdf:RDF>
      <cc:Work
         rdf:about="">
        <dc:format>image/svg+xml</dc:format>
        <dc:type
           rdf:resource="http://purl.org/dc/dcmitype/StillImage" />
      </cc:Work>
    </rdf:RDF>
  </metadata>
  <g
     inkscape:label="Capa 1"
     inkscape:groupmode="layer"
     id="layer1"
     transform="translate(0,-1030.3622)">
    <path
       id="rect3204"
       style="fill:currentColor;fill-opacity:1;stroke:none" class="ColorScheme-Text"
       class="ColorScheme-Text"
       d="m 3.0039062,1032.3602 v 0 c -0.2490019,0 -0.5042185,0.086 -0.7109374,0.2929 l -2,1.9981 h -0.00195 c -0.08838,0.089 -0.1592723,0.1935 -0.2089844,0.3086 -0.002,0 -0.003959,0.01 -0.005859,0.014 -0.050033,0.1208 -0.0759119,0.2502 -0.0761719,0.3809 9e-4,0.1273 0.0260888,0.2532 0.0742188,0.3711 0.0042,0.01 0.0072,0.021 0.0117187,0.031 0.04976,0.1128 0.119951,0.2155 0.2070313,0.3028 l 2,2 c 0.627981,0.6276 1.7014592,0.1867 1.7070312,-0.7012 v -1 h 1 a 1,1 0 0 0 1,-1 1,1 0 0 0 -1,-1 h -1 v -0.998 c -2.5e-4,-0.5564 -0.421371,-0.9389 -0.890625,-0.9942 -0.03519,0 -0.0699,-0.01 -0.1054688,-0.01 z" />
    <path
       id="path1057"
       style="fill:currentColor;fill-opacity:1;stroke:none" class="ColorScheme-Text"
       class="ColorScheme-Text"
       d="m 18.996094,1032.3602 c -0.03557,0 -0.07028,0.01 -0.105469,0.01 -0.469253,0.055 -0.890375,0.4378 -0.890625,0.9942 v 0.998 h -1 a 1,1 0 0 0 -1,1 1,1 0 0 0 1,1 h 1 v 1 c 0.0056,0.8879 1.079049,1.3288 1.707031,0.7012 l 2,-2 c 0.08708,-0.087 0.157272,-0.19 0.207031,-0.3028 0.0045,-0.01 0.0075,-0.021 0.01172,-0.031 0.04813,-0.1179 0.07332,-0.2438 0.07422,-0.3711 -2.6e-4,-0.1307 -0.02614,-0.2601 -0.07617,-0.3809 -0.0019,0 -0.0039,-0.014 -0.0059,-0.014 -0.04971,-0.1151 -0.120605,-0.2196 -0.208985,-0.3086 h -0.002 l -2,-1.9981 c -0.206719,-0.2069 -0.461935,-0.2929 -0.710937,-0.2929 z" />
    <path
       id="path2678"
       style="fill:currentColor;fill-opacity:1;stroke:none" class="ColorScheme-Text"
       d="M 9 6 L 9 6.0117188 A 1.0001 1.0001 0 0 0 8.1054688 6.5527344 L 2.1054688 18.552734 A 1.0001 1.0001 0 0 0 3 20 L 9 20 L 10 20 L 10 6 L 9 6 z M 12 6 L 12 20 L 13 20 L 19 20 A 1.0001 1.0001 0 0 0 19.894531 18.552734 L 13.894531 6.5527344 A 1.0001 1.0001 0 0 0 13.101562 6.0039062 A 1.0001 1.0001 0 0 0 13 6.0136719 L 13 6.0019531 L 12 6 z "
       transform="translate(0,1030.3622)" />
  </g>
</svg>
