<?xml version="1.0" encoding="UTF-8" standalone="no"?>
<!-- Created with Inkscape (http://www.inkscape.org/) -->

<svg
   width="22"
   height="22"
   viewBox="0 0 22 22"
   id="svg2"
   version="1.1"
   inkscape:version="1.4.4 (dcaf3e7d9e, 2026-05-05)"
   sodipodi:docname="object-flip-horizontal.svg"
   xmlns:inkscape="http://www.inkscape.org/namespaces/inkscape"
   xmlns:sodipodi="http://sodipodi.sourceforge.net/DTD/sodipodi-0.dtd"
   xmlns="http://www.w3.org/2000/svg"
   xmlns:svg="http://www.w3.org/2000/svg"
   xmlns:rdf="http://www.w3.org/1999/02/22-rdf-syntax-ns#"
   xmlns:cc="http://creativecommons.org/ns#"
   xmlns:dc="http://purl.org/dc/elements/1.1/">
  <defs
     id="defs3051">
    <style
       type="text/css"
       id="current-color-scheme">
    .ColorScheme-Text {
    color:#4d4d4d;
    }
    </style>
  </defs>
  <sodipodi:namedview
     id="base"
     pagecolor="#ffffff"
     bordercolor="#666666"
     borderopacity="1.0"
     inkscape:pageopacity="0.0"
     inkscape:pageshadow="2"
     inkscape:zoom="45.254834"
     inkscape:cx="7.1484076"
     inkscape:cy="11.357903"
     inkscape:document-units="px"
     inkscape:current-layer="layer1"
     showgrid="true"
     units="px"
     inkscape:showpageshadow="false"
     borderlayer="true"
     showguides="true"
     inkscape:guide-bbox="true"
     inkscape:window-width="2560"
     inkscape:window-height="1440"
     inkscape:window-x="0"
     inkscape:window-y="0"
     inkscape:window-maximized="1"
     inkscape:pagecheckerboard="1"
     inkscape:deskcolor="#d1d1d1">
    <inkscape:grid
       type="xygrid"
       id="grid4136"
       empspacing="2"
       originx="0"
       originy="0"
       spacingy="1"
       spacingx="1"
       units="px"
       visible="true" />
    <sodipodi:guide
       position="0,20"
       orientation="0,1"
       id="guide4140"
       inkscape:label="Icon Max Height"
       inkscape:color="rgb(233,30,99)"
       inkscape:locked="false" />
    <sodipodi:guide
       position="0,2"
       orientation="0,1"
       id="guide4142"
       inkscape:label="Icon Baseline"
       inkscape:color="rgb(233,30,99)"
       inkscape:locked="false" />
    <sodipodi:guide
       position="11,0"
       orientation="1,0"
       id="guide4144"
       inkscape:label="Center Vertical"
       inkscape:color="rgb(221,44,0)"
       inkscape:locked="false" />
    <sodipodi:guide
       position="15,11"
       orientation="0,1"
       id="guide4146"
       inkscape:label="Center Horizontal"
       inkscape:color="rgb(221,44,0)"
       inkscape:locked="false" />
  </sodipodi:namedview>
  <metadata
     id="metadata7">
    <rdf:RDF>
      <cc:Work
         rdf:about="">
        <dc:format>image/svg+xml</dc:format>
        <dc:type
           rdf:resource="http://purl.org/dc/dcmitype/StillImage" />
      </cc:Work>
    </rdf:RDF>
  </metadata>
  <g
     inkscape:label="Capa 1"
     inkscape:groupmode="layer"
     id="layer1"
     transform="translate(0,-1030.3622)">
    <path
       id="rect1"
       style="fill:currentColor;fill-opacity:1;stroke:none" class="ColorScheme-Text"
       d="M 3.9667969 1032.3661 C 3.7297235 1032.3725 3.4892188 1032.4649 3.2929688 1032.661 L 1.2929688 1034.661 C 1.2058687 1034.7483 1.1359375 1034.851 1.0859375 1034.9638 C 1.0841875 1034.9725 1.0761602 1034.9822 1.0742188 1034.9911 L 1.0742188 1034.9931 L 1.0742188 1034.995 C 1.0262187 1035.1129 1.0009 1035.2388 1 1035.3661 C 1 1035.4968 1.0261719 1035.6262 1.0761719 1035.747 L 1.078125 1035.747 L 1.0800781 1035.7489 L 1.0820312 1035.7509 L 1.0839844 1035.7528 L 1.0839844 1035.7548 L 1.0859375 1035.7567 L 1.0859375 1035.7587 L 1.0859375 1035.7606 C 1.1356375 1035.8757 1.2069219 1035.9802 1.2949219 1036.0692 L 3.2949219 1038.0673 C 3.5016219 1038.2742 3.7568594 1038.3602 4.0058594 1038.3602 L 4.0039062 1038.3642 C 4.0394063 1038.3642 4.074375 1038.3544 4.109375 1038.3544 C 4.578675 1038.2991 4.9998 1037.9166 5 1037.3602 L 5 1036.3622 L 6 1036.3622 A 1 1 0 0 0 7 1035.3622 A 1 1 0 0 0 6 1034.3622 L 5 1034.3622 L 5 1033.3622 C 4.9962188 1032.7518 4.4883583 1032.352 3.9667969 1032.3661 z M 18.033203 1032.3661 C 17.511642 1032.352 17.003781 1032.7518 17 1033.3622 L 17 1034.3622 L 16 1034.3622 A 1 1 0 0 0 15 1035.3622 A 1 1 0 0 0 16 1036.3622 L 17 1036.3622 L 17 1037.3602 C 17.0002 1037.9166 17.421325 1038.2991 17.890625 1038.3544 C 17.925625 1038.3544 17.960594 1038.3642 17.996094 1038.3642 L 17.994141 1038.3602 C 18.243141 1038.3602 18.498378 1038.2742 18.705078 1038.0673 L 20.705078 1036.0692 C 20.793078 1035.9802 20.864362 1035.8757 20.914062 1035.7606 L 20.914062 1035.7587 L 20.914062 1035.7567 L 20.916016 1035.7548 L 20.916016 1035.7528 L 20.917969 1035.7509 L 20.919922 1035.7489 L 20.921875 1035.747 L 20.923828 1035.747 C 20.973828 1035.6262 21 1035.4968 21 1035.3661 C 20.9991 1035.2388 20.973781 1035.1129 20.925781 1034.995 L 20.925781 1034.9931 L 20.925781 1034.9911 C 20.92384 1034.9822 20.915812 1034.9725 20.914062 1034.9638 C 20.864062 1034.851 20.794131 1034.7483 20.707031 1034.661 L 18.707031 1032.661 C 18.510781 1032.4649 18.270276 1032.3725 18.033203 1032.3661 z M 8 1036.3622 L 2 1048.3622 L 2 1049.3622 A 1 1 0 0 0 3 1050.3622 L 9 1050.3622 L 10 1050.3622 L 10 1048.3622 L 10 1037.3622 L 10 1036.3622 L 9 1036.3622 L 8 1036.3622 z M 12 1036.3622 L 12 1037.3622 L 12 1048.3622 L 12 1050.3622 L 13 1050.3622 L 19 1050.3622 A 1 1 0 0 0 20 1049.3622 L 20 1048.3622 L 14 1036.3622 L 13 1036.3622 L 12 1036.3622 z " />
  </g>
</svg>
