<?xml version="1.0" encoding="UTF-8" standalone="no"?>
<!-- Created with Inkscape (http://www.inkscape.org/) -->

<svg
   width="22"
   height="22"
   viewBox="0 0 22 22"
   id="svg2"
   version="1.1"
   inkscape:version="1.1.1 (3bf5ae0, 2021-09-20)"
   sodipodi:docname="office-chart-line.svg"
   xmlns:inkscape="http://www.inkscape.org/namespaces/inkscape"
   xmlns:sodipodi="http://sodipodi.sourceforge.net/DTD/sodipodi-0.dtd"
   xmlns="http://www.w3.org/2000/svg"
   xmlns:svg="http://www.w3.org/2000/svg"
   xmlns:rdf="http://www.w3.org/1999/02/22-rdf-syntax-ns#"
   xmlns:cc="http://creativecommons.org/ns#"
   xmlns:dc="http://purl.org/dc/elements/1.1/">
  <defs
     id="defs3051">
    <style
       type="text/css"
       id="current-color-scheme">
    .ColorScheme-Text {
    color:#4d4d4d;
    }
    </style>
  </defs>
  <sodipodi:namedview
     id="base"
     pagecolor="#ffffff"
     bordercolor="#666666"
     borderopacity="1.0"
     inkscape:pageopacity="0.0"
     inkscape:pageshadow="2"
     inkscape:zoom="52.772727"
     inkscape:cx="11"
     inkscape:cy="11"
     inkscape:document-units="px"
     inkscape:current-layer="layer1"
     showgrid="true"
     units="px"
     inkscape:showpageshadow="false"
     borderlayer="true"
     showguides="true"
     inkscape:guide-bbox="true"
     inkscape:window-width="2560"
     inkscape:window-height="1412"
     inkscape:window-x="0"
     inkscape:window-y="0"
     inkscape:window-maximized="1"
     inkscape:pagecheckerboard="1">
    <inkscape:grid
       type="xygrid"
       id="grid4136"
       empspacing="2" />
    <sodipodi:guide
       position="0,20"
       orientation="0,1"
       id="guide4140"
       inkscape:label="Icon Max Height"
       inkscape:color="rgb(233,30,99)"
       inkscape:locked="false" />
    <sodipodi:guide
       position="0,2"
       orientation="0,1"
       id="guide4142"
       inkscape:label="Icon Baseline"
       inkscape:color="rgb(233,30,99)"
       inkscape:locked="false" />
    <sodipodi:guide
       position="11,0"
       orientation="1,0"
       id="guide4144"
       inkscape:label="Center Vertical"
       inkscape:color="rgb(221,44,0)"
       inkscape:locked="false" />
    <sodipodi:guide
       position="15,11"
       orientation="0,1"
       id="guide4146"
       inkscape:label="Center Horizontal"
       inkscape:color="rgb(221,44,0)"
       inkscape:locked="false" />
  </sodipodi:namedview>
  <metadata
     id="metadata7">
    <rdf:RDF>
      <cc:Work
         rdf:about="">
        <dc:format>image/svg+xml</dc:format>
        <dc:type
           rdf:resource="http://purl.org/dc/dcmitype/StillImage" />
      </cc:Work>
    </rdf:RDF>
  </metadata>
  <g
     inkscape:label="Capa 1"
     inkscape:groupmode="layer"
     id="layer1"
     transform="translate(0,-1030.3622)">
    <path
       id="path4179"
       style="fill:currentColor;fill-opacity:1;stroke:none" class="ColorScheme-Text"
       d="M 3 2 C 2.446 2 2 2.446 2 3 L 2 4 L 2 6 L 2 14 L 2 18 C 2 19.108 2.8919904 20 4 20 L 13 20 L 15 20 L 19 20 C 19.554 20 20 19.554 20 19 C 20 18.446 19.554 18 19 18 L 15 18 L 13 18 L 4 18 L 4 6 L 4 4 L 4 3 C 4 2.446 3.554 2 3 2 z M 19.84375 5.0117188 A 1 1 0 0 0 19.292969 5.2929688 L 16 8.5859375 L 14.707031 7.2929688 A 1.0001 1.0001 0 0 0 13.21875 7.3769531 L 9.9179688 11.503906 L 8.7070312 10.292969 A 1 1 0 0 0 7.2929688 10.292969 A 1 1 0 0 0 7.2929688 11.707031 L 9.2929688 13.707031 A 1.0001 1.0001 0 0 0 10.78125 13.625 L 14.083984 9.4980469 L 15.292969 10.707031 A 1.0001 1.0001 0 0 0 16.707031 10.707031 L 20.707031 6.7070312 A 1 1 0 0 0 20.707031 5.2929688 A 1 1 0 0 0 19.84375 5.0117188 z "
       transform="translate(0,1030.3622)" />
    <path
       style="fill:currentColor;fill-opacity:0.5;stroke:none" class="ColorScheme-Text"
       d="m 6,1042.3622 v 4 h 14 v -10 l -4,4 -2,-2 -4,5 -2,-2 z"
       id="path2355"
       sodipodi:nodetypes="ccccccccc" />
  </g>
</svg>
