<?xml version="1.0" encoding="UTF-8" standalone="no"?>
<!-- Created with Inkscape (http://www.inkscape.org/) -->

<svg
   xmlns:dc="http://purl.org/dc/elements/1.1/"
   xmlns:cc="http://creativecommons.org/ns#"
   xmlns:rdf="http://www.w3.org/1999/02/22-rdf-syntax-ns#"
   xmlns:svg="http://www.w3.org/2000/svg"
   xmlns="http://www.w3.org/2000/svg"
   xmlns:sodipodi="http://sodipodi.sourceforge.net/DTD/sodipodi-0.dtd"
   xmlns:inkscape="http://www.inkscape.org/namespaces/inkscape"
   width="22"
   height="22"
   viewBox="0 0 22 22"
   id="svg2"
   version="1.1"
   inkscape:version="0.92.3 (unknown)"
   sodipodi:docname="sidebar-collapse.svg">
  <defs
     id="defs3051">
    <style
       type="text/css"
       id="current-color-scheme">
    .ColorScheme-Text {
    color:#4d4d4d;
    }
    </style>
  </defs>
  <sodipodi:namedview
     id="base"
     pagecolor="#ffffff"
     bordercolor="#666666"
     borderopacity="1.0"
     inkscape:pageopacity="0.0"
     inkscape:pageshadow="2"
     inkscape:zoom="45.254834"
     inkscape:cx="7.0911328"
     inkscape:cy="11.911217"
     inkscape:document-units="px"
     inkscape:current-layer="layer1"
     showgrid="true"
     units="px"
     inkscape:showpageshadow="false"
     borderlayer="true"
     showguides="true"
     inkscape:guide-bbox="true"
     inkscape:window-width="2560"
     inkscape:window-height="1378"
     inkscape:window-x="0"
     inkscape:window-y="32"
     inkscape:window-maximized="1">
    <inkscape:grid
       type="xygrid"
       id="grid4136"
       empspacing="2" />
    <sodipodi:guide
       position="0,20"
       orientation="0,1"
       id="guide4140"
       inkscape:label="Icon Max Height"
       inkscape:color="rgb(233,30,99)"
       inkscape:locked="false" />
    <sodipodi:guide
       position="0,2"
       orientation="0,1"
       id="guide4142"
       inkscape:label="Icon Baseline"
       inkscape:color="rgb(233,30,99)"
       inkscape:locked="false" />
    <sodipodi:guide
       position="11,0"
       orientation="1,0"
       id="guide4144"
       inkscape:label="Center Vertical"
       inkscape:color="rgb(221,44,0)"
       inkscape:locked="false" />
    <sodipodi:guide
       position="15,11"
       orientation="0,1"
       id="guide4146"
       inkscape:label="Center Horizontal"
       inkscape:color="rgb(221,44,0)"
       inkscape:locked="false" />
  </sodipodi:namedview>
  <metadata
     id="metadata7">
    <rdf:RDF>
      <cc:Work
         rdf:about="">
        <dc:format>image/svg+xml</dc:format>
        <dc:type
           rdf:resource="http://purl.org/dc/dcmitype/StillImage" />
        <dc:title />
      </cc:Work>
    </rdf:RDF>
  </metadata>
  <g
     inkscape:label="Capa 1"
     inkscape:groupmode="layer"
     id="layer1"
     transform="translate(0,-1030.3622)">
    <path
       style="fill:currentColor;fill-opacity:1;stroke:none" class="ColorScheme-Text"
       d="m 7,1032.3622 c 1.10801,0 2,0.892 2,2 v 14 c 0,1.108 -0.89199,2 -2,2 H 3 c -1.10801,0 -2,-0.892 -2,-2 v -14 c 0,-1.108 0.89199,-2 2,-2 z m 0,2 H 3 v 14 h 4 z m 7.109375,4.0059 c 0.469254,0.055 0.890375,0.4371 0.890625,0.9941 v 1 h 1 1 1 2 c 0.554,0 1,0.4453 1,1 0,0.5546 -0.446,1.002 -1,1.002 h -2 -1 -1 -1 v 1 c -0.0056,0.8889 -1.078966,1.3308 -1.707031,0.705 l -2,-2.0019 c -0.08708,-0.087 -0.157274,-0.1918 -0.207031,-0.3047 -0.0045,-0.01 -0.0075,-0.019 -0.01172,-0.029 -0.04813,-0.1181 -0.07332,-0.2457 -0.07422,-0.3731 2.6e-4,-0.1309 0.02614,-0.2598 0.07617,-0.3808 0.0019,0 0.0039,-0.014 0.0059,-0.014 0.04971,-0.1152 0.120605,-0.2195 0.208985,-0.3086 h 0.002 l 2,-2 c 0.236166,-0.2363 0.534854,-0.322 0.816406,-0.289 z"
       id="rect821"
       inkscape:connector-curvature="0" />
  </g>
</svg>
