<?xml version="1.0" encoding="UTF-8" standalone="no"?>
<!-- Created with Inkscape (http://www.inkscape.org/) -->

<svg
   xmlns:dc="http://purl.org/dc/elements/1.1/"
   xmlns:cc="http://creativecommons.org/ns#"
   xmlns:rdf="http://www.w3.org/1999/02/22-rdf-syntax-ns#"
   xmlns:svg="http://www.w3.org/2000/svg"
   xmlns="http://www.w3.org/2000/svg"
   xmlns:sodipodi="http://sodipodi.sourceforge.net/DTD/sodipodi-0.dtd"
   xmlns:inkscape="http://www.inkscape.org/namespaces/inkscape"
   width="22"
   height="22"
   viewBox="0 0 22 22"
   id="svg2"
   version="1.1"
   inkscape:version="0.92.3 (unknown)"
   sodipodi:docname="sidebar-expand.svg">
  <defs
     id="defs3051">
    <style
       type="text/css"
       id="current-color-scheme">
    .ColorScheme-Text {
    color:#4d4d4d;
    }
    </style>
  </defs>
  <sodipodi:namedview
     id="base"
     pagecolor="#ffffff"
     bordercolor="#666666"
     borderopacity="1.0"
     inkscape:pageopacity="0.0"
     inkscape:pageshadow="2"
     inkscape:zoom="45.254834"
     inkscape:cx="11.344822"
     inkscape:cy="11.911217"
     inkscape:document-units="px"
     inkscape:current-layer="layer1"
     showgrid="true"
     units="px"
     inkscape:showpageshadow="false"
     borderlayer="true"
     showguides="true"
     inkscape:guide-bbox="true"
     inkscape:window-width="2560"
     inkscape:window-height="1378"
     inkscape:window-x="0"
     inkscape:window-y="32"
     inkscape:window-maximized="1">
    <inkscape:grid
       type="xygrid"
       id="grid4136"
       empspacing="2" />
    <sodipodi:guide
       position="0,20"
       orientation="0,1"
       id="guide4140"
       inkscape:label="Icon Max Height"
       inkscape:color="rgb(233,30,99)"
       inkscape:locked="false" />
    <sodipodi:guide
       position="0,2"
       orientation="0,1"
       id="guide4142"
       inkscape:label="Icon Baseline"
       inkscape:color="rgb(233,30,99)"
       inkscape:locked="false" />
    <sodipodi:guide
       position="11,0"
       orientation="1,0"
       id="guide4144"
       inkscape:label="Center Vertical"
       inkscape:color="rgb(221,44,0)"
       inkscape:locked="false" />
    <sodipodi:guide
       position="15,11"
       orientation="0,1"
       id="guide4146"
       inkscape:label="Center Horizontal"
       inkscape:color="rgb(221,44,0)"
       inkscape:locked="false" />
  </sodipodi:namedview>
  <metadata
     id="metadata7">
    <rdf:RDF>
      <cc:Work
         rdf:about="">
        <dc:format>image/svg+xml</dc:format>
        <dc:type
           rdf:resource="http://purl.org/dc/dcmitype/StillImage" />
        <dc:title />
      </cc:Work>
    </rdf:RDF>
  </metadata>
  <g
     inkscape:label="Capa 1"
     inkscape:groupmode="layer"
     id="layer1"
     transform="translate(0,-1030.3622)">
    <path
       style="fill:currentColor;fill-opacity:1;stroke:none" class="ColorScheme-Text"
       d="M 15 2 C 13.89199 2 13 2.892 13 4 L 13 18 C 13 19.108 13.89199 20 15 20 L 19 20 C 20.10801 20 21 19.108 21 18 L 21 4 C 21 2.892 20.10801 2 19 2 L 15 2 z M 15 4 L 19 4 L 19 18 L 15 18 L 15 4 z M 7.890625 8.0058594 C 7.421371 8.0611594 7.00025 8.443 7 9 L 7 10 L 6 10 L 5 10 L 4 10 L 2 10 C 1.446 10 1 10.4453 1 11 C 1 11.5546 1.446 12.001953 2 12.001953 L 4 12.001953 L 5 12.001953 L 6 12.001953 L 7 12.001953 L 7 13.001953 C 7.00557 13.890853 8.0789663 14.332831 8.7070312 13.707031 L 10.707031 11.705078 C 10.794111 11.618078 10.864305 11.513291 10.914062 11.400391 C 10.918563 11.390391 10.921561 11.381094 10.925781 11.371094 C 10.973911 11.252994 10.9991 11.125447 11 10.998047 C 10.99974 10.867147 10.973858 10.738188 10.923828 10.617188 C 10.921928 10.617188 10.919969 10.603516 10.917969 10.603516 C 10.868259 10.488316 10.797364 10.384022 10.708984 10.294922 L 10.707031 10.294922 L 8.7070312 8.2949219 C 8.4708652 8.0586219 8.172177 7.9728594 7.890625 8.0058594 z "
       transform="translate(0,1030.3622)"
       id="rect821" />
  </g>
</svg>
