<?xml version="1.0" encoding="UTF-8" standalone="no"?>
<!-- Created with Inkscape (http://www.inkscape.org/) -->

<svg
   xmlns:dc="http://purl.org/dc/elements/1.1/"
   xmlns:cc="http://creativecommons.org/ns#"
   xmlns:rdf="http://www.w3.org/1999/02/22-rdf-syntax-ns#"
   xmlns:svg="http://www.w3.org/2000/svg"
   xmlns="http://www.w3.org/2000/svg"
   xmlns:sodipodi="http://sodipodi.sourceforge.net/DTD/sodipodi-0.dtd"
   xmlns:inkscape="http://www.inkscape.org/namespaces/inkscape"
   width="22"
   height="22"
   viewBox="0 0 22 22"
   id="svg2"
   version="1.1"
   inkscape:version="0.92.3 (unknown)"
   sodipodi:docname="sms.svg">
  <defs
     id="defs3051">
    <style
       type="text/css"
       id="current-color-scheme">
    .ColorScheme-Text {
    color:#4d4d4d;
    }
    </style>
  </defs>
  <sodipodi:namedview
     id="base"
     pagecolor="#ffffff"
     bordercolor="#666666"
     borderopacity="1.0"
     inkscape:pageopacity="0.0"
     inkscape:pageshadow="2"
     inkscape:zoom="45.254834"
     inkscape:cx="10.869735"
     inkscape:cy="8.9502078"
     inkscape:document-units="px"
     inkscape:current-layer="layer1"
     showgrid="true"
     units="px"
     inkscape:showpageshadow="false"
     borderlayer="true"
     showguides="true"
     inkscape:guide-bbox="true"
     inkscape:window-width="2560"
     inkscape:window-height="1378"
     inkscape:window-x="0"
     inkscape:window-y="32"
     inkscape:window-maximized="1">
    <inkscape:grid
       type="xygrid"
       id="grid4136"
       empspacing="2" />
    <sodipodi:guide
       position="0,20"
       orientation="0,1"
       id="guide4140"
       inkscape:label="Icon Max Height"
       inkscape:color="rgb(233,30,99)"
       inkscape:locked="false" />
    <sodipodi:guide
       position="0,2"
       orientation="0,1"
       id="guide4142"
       inkscape:label="Icon Baseline"
       inkscape:color="rgb(233,30,99)"
       inkscape:locked="false" />
    <sodipodi:guide
       position="11,0"
       orientation="1,0"
       id="guide4144"
       inkscape:label="Center Vertical"
       inkscape:color="rgb(221,44,0)"
       inkscape:locked="false" />
    <sodipodi:guide
       position="15,11"
       orientation="0,1"
       id="guide4146"
       inkscape:label="Center Horizontal"
       inkscape:color="rgb(221,44,0)"
       inkscape:locked="false" />
  </sodipodi:namedview>
  <metadata
     id="metadata7">
    <rdf:RDF>
      <cc:Work
         rdf:about="">
        <dc:format>image/svg+xml</dc:format>
        <dc:type
           rdf:resource="http://purl.org/dc/dcmitype/StillImage" />
        <dc:title />
      </cc:Work>
    </rdf:RDF>
  </metadata>
  <g
     inkscape:label="Capa 1"
     inkscape:groupmode="layer"
     id="layer1"
     transform="translate(0,-1030.3622)">
    <path
       sodipodi:nodetypes="ssssccccssssscccccccssssssssssssssss"
       inkscape:connector-curvature="0"
       style="fill:currentColor;fill-opacity:1;stroke:none" class="ColorScheme-Text"
       d="m 4.9997061,1033.3623 c -1.1080063,0 -2.0000126,0.892 -2.0000126,2 v 9 c 0,1.108 0.8920063,2 2.0000126,2 h 1.9999747 v 2 c 1.512e-4,0.7986 0.8901544,1.2749 1.5547087,0.8321 l 4.2480375,-2.8321 h 4.197279 c 1.108006,0 1.999975,-0.892 1.999975,-2 v -9 c 0,-1.108 -0.891969,-2 -1.999975,-2 z m 0,2 H 16.999706 v 8 1 H 4.9997061 v -1 z m 2.9999999,2 c -0.5540031,0 -1.0000252,0.446 -1.0000252,1 0,0.554 0.4460221,1 1.0000252,1 h 6 c 0.554003,0 0.999987,-0.446 0.999987,-1 0,-0.554 -0.445984,-1 -0.999987,-1 z m -0.1209449,3 c -0.4866897,0 -0.8789291,0.3923 -0.8789291,0.8789 v 0.2423 c 0,0.4867 0.3922394,0.8789 0.8789291,0.8789 h 3.2421919 c 0.486652,0 0.878892,-0.3922 0.878892,-0.8789 v -0.2423 c 0,-0.4866 -0.39224,-0.8789 -0.878892,-0.8789 z"
       id="rect822-9-6-6" />
  </g>
</svg>
