<?xml version="1.0" encoding="UTF-8" standalone="no"?>
<!-- Created with Inkscape (http://www.inkscape.org/) -->

<svg
   width="22"
   height="22"
   viewBox="0 0 22 22"
   id="svg2"
   version="1.1"
   inkscape:version="1.1 (c4e8f9e, 2021-05-24)"
   sodipodi:docname="transform-rotate.svg"
   xmlns:inkscape="http://www.inkscape.org/namespaces/inkscape"
   xmlns:sodipodi="http://sodipodi.sourceforge.net/DTD/sodipodi-0.dtd"
   xmlns="http://www.w3.org/2000/svg"
   xmlns:svg="http://www.w3.org/2000/svg"
   xmlns:rdf="http://www.w3.org/1999/02/22-rdf-syntax-ns#"
   xmlns:cc="http://creativecommons.org/ns#"
   xmlns:dc="http://purl.org/dc/elements/1.1/">
  <defs
     id="defs3051">
    <style
       type="text/css"
       id="current-color-scheme">
    .ColorScheme-Text {
    color:#4d4d4d;
    }
    </style>
    <style
       type="text/css"
       id="current-color-scheme-7">
    .ColorScheme-Text {
    color:#4d4d4d;
    }
    </style>
  </defs>
  <sodipodi:namedview
     id="base"
     pagecolor="#ffffff"
     bordercolor="#666666"
     borderopacity="1.0"
     inkscape:pageopacity="0.0"
     inkscape:pageshadow="2"
     inkscape:zoom="45.254834"
     inkscape:cx="13.258252"
     inkscape:cy="8.518427"
     inkscape:document-units="px"
     inkscape:current-layer="layer1"
     showgrid="true"
     units="px"
     inkscape:showpageshadow="false"
     borderlayer="true"
     showguides="true"
     inkscape:guide-bbox="true"
     inkscape:window-width="1555"
     inkscape:window-height="1412"
     inkscape:window-x="0"
     inkscape:window-y="0"
     inkscape:window-maximized="1"
     inkscape:pagecheckerboard="0">
    <inkscape:grid
       type="xygrid"
       id="grid4136"
       empspacing="2" />
    <sodipodi:guide
       position="0,20"
       orientation="0,1"
       id="guide4140"
       inkscape:label="Icon Max Height"
       inkscape:color="rgb(233,30,99)" />
    <sodipodi:guide
       position="0,2"
       orientation="0,1"
       id="guide4142"
       inkscape:label="Icon Baseline"
       inkscape:color="rgb(233,30,99)" />
    <sodipodi:guide
       position="11,0"
       orientation="1,0"
       id="guide4144"
       inkscape:label="Center Vertical"
       inkscape:color="rgb(221,44,0)" />
    <sodipodi:guide
       position="15,11"
       orientation="0,1"
       id="guide4146"
       inkscape:label="Center Horizontal"
       inkscape:color="rgb(221,44,0)" />
  </sodipodi:namedview>
  <metadata
     id="metadata7">
    <rdf:RDF>
      <cc:Work
         rdf:about="">
        <dc:format>image/svg+xml</dc:format>
        <dc:type
           rdf:resource="http://purl.org/dc/dcmitype/StillImage" />
      </cc:Work>
    </rdf:RDF>
  </metadata>
  <g
     inkscape:label="Capa 1"
     inkscape:groupmode="layer"
     id="layer1"
     transform="translate(0,-1030.3622)">
    <path
       id="rect3204"
       style="fill:currentColor;fill-opacity:1;stroke:none"
       class="ColorScheme-Text"
       d="M 5 2 L 5 4 L 7 4 L 7 2 L 5 2 z M 12.003906 2.0019531 C 11.754904 1.9991535 11.499688 2.088334 11.292969 2.2949219 L 9.2929688 4.2929688 L 9.2910156 4.2929688 C 9.2026356 4.3819688 9.1317433 4.4864625 9.0820312 4.6015625 C 9.0800312 4.6015625 9.0780719 4.6112324 9.0761719 4.6152344 C 9.0261394 4.7360343 9.00026 4.8653937 9 4.9960938 C 9.0009 5.1233936 9.0260888 5.2492875 9.0742188 5.3671875 C 9.0784188 5.3771875 9.0814185 5.3884375 9.0859375 5.3984375 C 9.1356975 5.5112375 9.2058886 5.6138719 9.2929688 5.7011719 L 11.292969 7.7011719 C 11.92095 8.3287719 12.994428 7.8879 13 7 L 13 6 L 14 6 C 16.216005 6 18 7.7839 18 10 L 18 11 C 18 11.554 18.446005 12 19 12 C 19.553995 12 20 11.554 20 11 L 20 9.84375 C 20 6.60605 17.393687 4 14.15625 4 L 14 4 L 13 4 L 13 3.0019531 C 12.99975 2.4455531 12.578629 2.0631125 12.109375 2.0078125 C 12.074181 2.0036875 12.039478 2.0023531 12.003906 2.0019531 z M 2 5 L 2 7 L 4 7 L 5 7 L 7 7 L 8 7 L 8 5 L 7 5 L 5 5 L 4 5 L 2 5 z M 5 8 L 5 17 L 14 17 L 15 17 L 17 17 L 18 17 L 20 17 L 20 15 L 18 15 L 17 15 L 15 15 L 14 15 L 7 15 L 7 8 L 5 8 z M 15 18 L 15 20 L 17 20 L 17 18 L 15 18 z "
       transform="translate(0,1030.3622)" />
  </g>
</svg>
