<?xml version="1.0" encoding="UTF-8" standalone="no"?>
<!-- Created with Inkscape (http://www.inkscape.org/) -->

<svg
   xmlns:dc="http://purl.org/dc/elements/1.1/"
   xmlns:cc="http://creativecommons.org/ns#"
   xmlns:rdf="http://www.w3.org/1999/02/22-rdf-syntax-ns#"
   xmlns:svg="http://www.w3.org/2000/svg"
   xmlns="http://www.w3.org/2000/svg"
   xmlns:sodipodi="http://sodipodi.sourceforge.net/DTD/sodipodi-0.dtd"
   xmlns:inkscape="http://www.inkscape.org/namespaces/inkscape"
   width="22"
   height="22"
   viewBox="0 0 22 22"
   id="svg2"
   version="1.1"
   inkscape:version="0.92.2 (5c3e80d, 2017-08-06)"
   sodipodi:docname="view-media-track.svg">
<defs
    id="defs3051">
<style
    type="text/css"
    id="current-color-scheme">
    .ColorScheme-Text {
    color:#4d4d4d;
    }
    </style>
</defs>
  <sodipodi:namedview
     id="base"
     pagecolor="#ffffff"
     bordercolor="#666666"
     borderopacity="1.0"
     inkscape:pageopacity="0.0"
     inkscape:pageshadow="2"
     inkscape:zoom="181.01934"
     inkscape:cx="19.005401"
     inkscape:cy="7.3256583"
     inkscape:document-units="px"
     inkscape:current-layer="layer1"
     showgrid="true"
     units="px"
     inkscape:showpageshadow="false"
     borderlayer="true"
     showguides="true"
     inkscape:guide-bbox="true"
     inkscape:window-width="2560"
     inkscape:window-height="1373"
     inkscape:window-x="0"
     inkscape:window-y="30"
     inkscape:window-maximized="1">
    <inkscape:grid
       type="xygrid"
       id="grid4136"
       empspacing="2" />
    <sodipodi:guide
       position="0,20"
       orientation="0,1"
       id="guide4140"
       inkscape:label="Icon Max Height"
       inkscape:color="rgb(233,30,99)"
       inkscape:locked="false" />
    <sodipodi:guide
       position="0,2"
       orientation="0,1"
       id="guide4142"
       inkscape:label="Icon Baseline"
       inkscape:color="rgb(233,30,99)"
       inkscape:locked="false" />
    <sodipodi:guide
       position="11,0"
       orientation="1,0"
       id="guide4144"
       inkscape:label="Center Vertical"
       inkscape:color="rgb(221,44,0)"
       inkscape:locked="false" />
    <sodipodi:guide
       position="15,11"
       orientation="0,1"
       id="guide4146"
       inkscape:label="Center Horizontal"
       inkscape:color="rgb(221,44,0)"
       inkscape:locked="false" />
  </sodipodi:namedview>
  <metadata
     id="metadata7">
    <rdf:RDF>
      <cc:Work
         rdf:about="">
        <dc:format>image/svg+xml</dc:format>
        <dc:type
           rdf:resource="http://purl.org/dc/dcmitype/StillImage" />
        <dc:title />
      </cc:Work>
    </rdf:RDF>
  </metadata>
  <g
     inkscape:label="Capa 1"
     inkscape:groupmode="layer"
     id="layer1"
     transform="translate(0,-1030.3622)">
    <path
       style="fill:currentColor;fill-opacity:1;stroke:none" class="ColorScheme-Text"
       d="M 18 3 C 17.995872 3 17.992397 3.0019037 17.988281 3.0019531 A 1.0001 1.0001 0 0 0 17.970703 3.0019531 A 1.0001 1.0001 0 0 0 17.712891 3.0429688 L 7.7128906 6.0429688 A 1.0001 1.0001 0 0 0 7.6191406 6.0761719 C 7.6117021 6.079222 7.6050026 6.0827149 7.5976562 6.0859375 A 1.0001 1.0001 0 0 0 7.2949219 6.2910156 C 7.2938962 6.2920358 7.29399 6.2938973 7.2929688 6.2949219 A 1.0001 1.0001 0 0 0 7.2890625 6.296875 A 1.0001 1.0001 0 0 0 7.0839844 6.6015625 C 7.0818737 6.6064326 7.0782071 6.6103239 7.0761719 6.6152344 A 1.0001 1.0001 0 0 0 7 7 L 7 11 L 7 14.173828 A 3 3 0 0 0 6 14 A 3 3 0 0 0 3 17 A 3 3 0 0 0 6 20 A 3 3 0 0 0 9 17 L 9 11.746094 L 17 9.3457031 L 17 12 L 17 12.173828 A 3 3 0 0 0 16 12 A 3 3 0 0 0 13 15 A 3 3 0 0 0 16 18 A 3 3 0 0 0 19 15 L 19 14 L 19 12 L 19 8 L 19 4 A 1.0001 1.0001 0 0 0 18.923828 3.6210938 C 18.920904 3.6139233 18.9191 3.6066944 18.916016 3.5996094 A 1.0001 1.0001 0 0 0 18.708984 3.296875 A 1.0001 1.0001 0 0 0 18.705078 3.2910156 A 1.0001 1.0001 0 0 0 18.40625 3.0898438 C 18.396105 3.0853259 18.387275 3.0803589 18.376953 3.0761719 A 1.0001 1.0001 0 0 0 18.013672 3.0019531 C 18.008894 3.0018865 18.004794 3 18 3 z M 17 5.3457031 L 17 7.2578125 L 9 9.65625 L 9 7.7441406 L 17 5.3457031 z M 16 14 A 1 1 0 0 1 17 15 A 1 1 0 0 1 16 16 A 1 1 0 0 1 15 15 A 1 1 0 0 1 16 14 z M 6 16 A 1 1 0 0 1 7 17 A 1 1 0 0 1 6 18 A 1 1 0 0 1 5 17 A 1 1 0 0 1 6 16 z "
       transform="translate(0,1030.3622)"
       id="path4173" />
  </g>
</svg>
