<?xml version="1.0" encoding="UTF-8" standalone="no"?>
<!-- Created with Inkscape (http://www.inkscape.org/) -->

<svg
   xmlns:dc="http://purl.org/dc/elements/1.1/"
   xmlns:cc="http://creativecommons.org/ns#"
   xmlns:rdf="http://www.w3.org/1999/02/22-rdf-syntax-ns#"
   xmlns:svg="http://www.w3.org/2000/svg"
   xmlns="http://www.w3.org/2000/svg"
   xmlns:sodipodi="http://sodipodi.sourceforge.net/DTD/sodipodi-0.dtd"
   xmlns:inkscape="http://www.inkscape.org/namespaces/inkscape"
   width="22"
   height="22"
   viewBox="0 0 22 22"
   id="svg2"
   version="1.1"
   inkscape:version="0.92.3 (2405546, 2018-03-11)"
   sodipodi:docname="view-restore.svg">
<defs
    id="defs3051">
<style
    type="text/css"
    id="current-color-scheme">
    .ColorScheme-Text {
    color:#4d4d4d;
    }
    </style>
</defs>
  <sodipodi:namedview
     id="base"
     pagecolor="#ffffff"
     bordercolor="#666666"
     borderopacity="1.0"
     inkscape:pageopacity="0.0"
     inkscape:pageshadow="2"
     inkscape:zoom="38.409091"
     inkscape:cx="21.841577"
     inkscape:cy="10.659058"
     inkscape:document-units="px"
     inkscape:current-layer="layer1"
     showgrid="true"
     units="px"
     inkscape:showpageshadow="false"
     borderlayer="true"
     showguides="true"
     inkscape:guide-bbox="true"
     inkscape:window-width="2560"
     inkscape:window-height="1370"
     inkscape:window-x="0"
     inkscape:window-y="33"
     inkscape:window-maximized="1">
    <inkscape:grid
       type="xygrid"
       id="grid4136"
       empspacing="2" />
    <sodipodi:guide
       position="0,20"
       orientation="0,1"
       id="guide4140"
       inkscape:label="Icon Max Height"
       inkscape:color="rgb(233,30,99)" />
    <sodipodi:guide
       position="0,2"
       orientation="0,1"
       id="guide4142"
       inkscape:label="Icon Baseline"
       inkscape:color="rgb(233,30,99)" />
    <sodipodi:guide
       position="11,0"
       orientation="1,0"
       id="guide4144"
       inkscape:label="Center Vertical"
       inkscape:color="rgb(221,44,0)" />
    <sodipodi:guide
       position="15,11"
       orientation="0,1"
       id="guide4146"
       inkscape:label="Center Horizontal"
       inkscape:color="rgb(221,44,0)" />
  </sodipodi:namedview>
  <metadata
     id="metadata7">
    <rdf:RDF>
      <cc:Work
         rdf:about="">
        <dc:format>image/svg+xml</dc:format>
        <dc:type
           rdf:resource="http://purl.org/dc/dcmitype/StillImage" />
        <dc:title />
      </cc:Work>
    </rdf:RDF>
  </metadata>
  <g
     inkscape:label="Capa 1"
     inkscape:groupmode="layer"
     id="layer1"
     transform="translate(0,-1030.3622)">
    <path
       style="fill:currentColor;fill-opacity:1;stroke:none" class="ColorScheme-Text"
       d="m 18.979971,1032.362 a 0.99722637,0.99720066 0 0 0 -0.697237,0.3066 l -4.283027,4.2832 v -2.5898 c 0,-0.554 -0.446028,-1 -0.999959,-1 -0.553932,0 -0.999959,0.446 -0.999959,1 v 5 a 0.99722637,0.99720066 0 0 0 0.07812,0.3848 h 0.002 a 0.99722637,0.99720066 0 0 0 0.521463,0.5215 c 0.0049,0 0.0088,0.01 0.01367,0.01 a 0.99722637,0.99720066 0 0 0 0.38475,0.084 h 4.999795 c 0.553932,0 0.999958,-0.446 0.999958,-1 0,-0.5539 -0.446026,-1 -0.999958,-1 h -2.589738 l 4.283027,-4.2832 a 0.99722637,0.99720066 0 0 0 -0.712861,-1.7168 z m -14.9798521,10 c -0.5539772,0 -0.9999589,0.446 -0.9999589,1 0,0.554 0.4459817,1 0.9999589,1 h 2.5897372 l -4.2888861,4.2891 a 0.99730824,0.99732552 0 0 0 0.7245796,1.7109 v 0 a 0.99730824,0.99732552 0 0 0 0.6855187,-0.3008 l 4.288886,-4.289 v 2.5898 c 0,0.554 0.4459816,1 0.9999588,1 0.5539772,0 0.9999589,-0.446 0.9999589,-1 v -4.9981 a 0.99730824,0.99732552 0 0 0 -0.076169,-0.3867 h -0.00195 a 0.99730824,0.99732552 0 0 0 -0.214835,-0.3164 0.99730824,0.99732552 0 0 0 -0.306628,-0.209 c -0.00594,0 -0.011577,-0.01 -0.017577,-0.01 a 0.99730824,0.99732552 0 0 0 -0.3808438,-0.076 0.99730824,0.99732552 0 0 0 -0.023436,0 z"
       id="path824"
       inkscape:connector-curvature="0" />
  </g>
</svg>
