<?xml version="1.0" encoding="UTF-8" standalone="no"?>
<svg
   xmlns:dc="http://purl.org/dc/elements/1.1/"
   xmlns:cc="http://creativecommons.org/ns#"
   xmlns:rdf="http://www.w3.org/1999/02/22-rdf-syntax-ns#"
   xmlns:svg="http://www.w3.org/2000/svg"
   xmlns="http://www.w3.org/2000/svg"
   xmlns:sodipodi="http://sodipodi.sourceforge.net/DTD/sodipodi-0.dtd"
   xmlns:inkscape="http://www.inkscape.org/namespaces/inkscape"
   viewBox="0 0 22 22"
   id="svg2"
   version="1.1"
   inkscape:version="0.91 r13725"
   sodipodi:docname="view-list-icons.svg">
  <metadata
     id="metadata10">
    <rdf:RDF>
      <cc:Work
         rdf:about="">
        <dc:format>image/svg+xml</dc:format>
        <dc:type
           rdf:resource="http://purl.org/dc/dcmitype/StillImage" />
        <dc:title></dc:title>
      </cc:Work>
    </rdf:RDF>
  </metadata>
  <sodipodi:namedview
     pagecolor="#ffffff"
     bordercolor="#666666"
     borderopacity="1"
     objecttolerance="10"
     gridtolerance="10"
     guidetolerance="10"
     inkscape:pageopacity="0"
     inkscape:pageshadow="2"
     inkscape:window-width="2560"
     inkscape:window-height="948"
     id="namedview8"
     showgrid="true"
     inkscape:showpageshadow="false"
     borderlayer="true"
     inkscape:zoom="30.341309"
     inkscape:cx="12.61662"
     inkscape:cy="11.647833"
     inkscape:window-x="0"
     inkscape:window-y="36"
     inkscape:window-maximized="1"
     inkscape:current-layer="svg2">
    <inkscape:grid
       type="xygrid"
       id="grid3197" />
  </sodipodi:namedview>
<defs
    id="defs3051">
<style
    type="text/css"
    id="current-color-scheme">
    .ColorScheme-Text {
    color:#4d4d4d;
    }
    </style>
</defs>
  <path
     style="fill:currentColor;fill-opacity:1;stroke:none"  class="ColorScheme-Text"
     d="M 4 2 C 2.8919904 2 2 2.8919904 2 4 L 2 8 C 2 9.1080096 2.8919904 10 4 10 L 8 10 C 9.1080096 10 10 9.1080096 10 8 L 10 4 C 10 2.8919904 9.1080096 2 8 2 L 4 2 z M 14 2 C 12.89199 2 12 2.892 12 4 L 12 8 C 12 9.108 12.89199 10 14 10 L 18 10 C 19.10801 10 20 9.108 20 8 L 20 4 C 20 2.892 19.10801 2 18 2 L 14 2 z M 4 4 L 8 4 L 8 8 L 4 8 L 4 4 z M 14 4 L 18 4 L 18 8 L 14 8 L 14 4 z M 4 12 C 2.8919904 12 2 12.89199 2 14 L 2 18 C 2 19.10801 2.8919904 20 4 20 L 8 20 C 9.1080096 20 10 19.10801 10 18 L 10 14 C 10 12.89199 9.1080096 12 8 12 L 4 12 z M 14 12 C 12.89199 12 12 12.892 12 14 L 12 18 C 12 19.108 12.89199 20 14 20 L 18 20 C 19.10801 20 20 19.108 20 18 L 20 14 C 20 12.892 19.10801 12 18 12 L 14 12 z M 4 14 L 8 14 L 8 18 L 4 18 L 4 14 z M 14 14 L 18 14 L 18 18 L 14 18 L 14 14 z "
     id="rect4139" />
</svg>
