<?xml version="1.0" encoding="UTF-8" standalone="no"?>
<!-- Created with Inkscape (http://www.inkscape.org/) -->

<svg
   width="22"
   height="22"
   viewBox="0 0 22 22"
   id="svg2"
   version="1.1"
   inkscape:version="1.1 (c4e8f9e, 2021-05-24)"
   sodipodi:docname="view-readermode.svg"
   xmlns:inkscape="http://www.inkscape.org/namespaces/inkscape"
   xmlns:sodipodi="http://sodipodi.sourceforge.net/DTD/sodipodi-0.dtd"
   xmlns="http://www.w3.org/2000/svg"
   xmlns:svg="http://www.w3.org/2000/svg"
   xmlns:rdf="http://www.w3.org/1999/02/22-rdf-syntax-ns#"
   xmlns:cc="http://creativecommons.org/ns#"
   xmlns:dc="http://purl.org/dc/elements/1.1/">
  <defs
     id="defs3051">
    <style
       type="text/css"
       id="current-color-scheme">
    .ColorScheme-Text {
    color:#4d4d4d;
    }
    </style>
  </defs>
  <sodipodi:namedview
     id="base"
     pagecolor="#ffffff"
     bordercolor="#666666"
     borderopacity="1.0"
     inkscape:pageopacity="0.0"
     inkscape:pageshadow="2"
     inkscape:zoom="52.772727"
     inkscape:cx="10.990525"
     inkscape:cy="11"
     inkscape:document-units="px"
     inkscape:current-layer="layer1"
     showgrid="true"
     units="px"
     inkscape:showpageshadow="false"
     borderlayer="true"
     showguides="true"
     inkscape:guide-bbox="true"
     inkscape:window-width="1555"
     inkscape:window-height="1412"
     inkscape:window-x="0"
     inkscape:window-y="0"
     inkscape:window-maximized="1"
     inkscape:pagecheckerboard="0">
    <inkscape:grid
       type="xygrid"
       id="grid4136"
       empspacing="2" />
    <sodipodi:guide
       position="0,20"
       orientation="0,1"
       id="guide4140"
       inkscape:label="Icon Max Height"
       inkscape:color="rgb(233,30,99)"
       inkscape:locked="false" />
    <sodipodi:guide
       position="0,2"
       orientation="0,1"
       id="guide4142"
       inkscape:label="Icon Baseline"
       inkscape:color="rgb(233,30,99)"
       inkscape:locked="false" />
    <sodipodi:guide
       position="11,0"
       orientation="1,0"
       id="guide4144"
       inkscape:label="Center Vertical"
       inkscape:color="rgb(221,44,0)"
       inkscape:locked="false" />
    <sodipodi:guide
       position="15,11"
       orientation="0,1"
       id="guide4146"
       inkscape:label="Center Horizontal"
       inkscape:color="rgb(221,44,0)"
       inkscape:locked="false" />
  </sodipodi:namedview>
  <metadata
     id="metadata7">
    <rdf:RDF>
      <cc:Work
         rdf:about="">
        <dc:format>image/svg+xml</dc:format>
        <dc:type
           rdf:resource="http://purl.org/dc/dcmitype/StillImage" />
      </cc:Work>
    </rdf:RDF>
  </metadata>
  <g
     inkscape:label="Capa 1"
     inkscape:groupmode="layer"
     id="layer1"
     transform="translate(0,-1030.3622)">
    <path
       id="path826"
       style="fill:currentColor;fill-opacity:1;stroke:none" class="ColorScheme-Text"
       class="ColorScheme-Text"
       d="m 6,1032.3622 c -1.1080697,0 -2,0.892 -2,2 v 14 c 0,1.108 0.8919303,2 2,2 h 6 v -2 H 6 v -14 h 5 v 4 c 0,0.554 0.445969,1 1,1 h 4 v 0.9883 2.0117 h 2 v -3 h -0.0039 v -0.9805 c 1.2e-4,-0.01 0.0039,-0.014 0.0039,-0.019 0,-0.01 -0.0038,-0.013 -0.0039,-0.02 v -0.9883 c 1.12e-4,-0.2643 -0.104515,-0.5178 -0.291016,-0.7051 l -3.99414,-3.9941 c -0.187429,-0.1877 -0.441784,-0.2931 -0.707032,-0.293 H 11 Z m 7,2.4043 2.591797,2.5957 H 13 Z m 5,9.5957 c -2.209139,0 -4,1.3431 -4,3 h 1 c 5.5e-4,-0.5909 0.393077,-1.1515 1.072266,-1.5312 -0.04782,0.173 -0.07213,0.3517 -0.07227,0.5312 0,1.1046 0.895431,2 2,2 1.104569,0 2,-0.8954 2,-2 -0.708464,-0 -1.363001,-0.3787 -1.720703,-0.9902 1.541287,0.096 2.719845,0.9582 2.720707,1.9902 h 1 c 0,-1.6569 -1.790861,-3 -4,-3 z"
       sodipodi:nodetypes="sssscccccsscccccccsccccccsccccsccccsccccs" />
  </g>
</svg>
