<?xml version="1.0" encoding="UTF-8" standalone="no"?>
<!-- Created with Inkscape (http://www.inkscape.org/) -->

<svg
   xmlns:dc="http://purl.org/dc/elements/1.1/"
   xmlns:cc="http://creativecommons.org/ns#"
   xmlns:rdf="http://www.w3.org/1999/02/22-rdf-syntax-ns#"
   xmlns:svg="http://www.w3.org/2000/svg"
   xmlns="http://www.w3.org/2000/svg"
   xmlns:sodipodi="http://sodipodi.sourceforge.net/DTD/sodipodi-0.dtd"
   xmlns:inkscape="http://www.inkscape.org/namespaces/inkscape"
   width="22"
   height="22"
   viewBox="0 0 22 22"
   id="svg2"
   version="1.1"
   inkscape:version="0.92.3 (unknown)"
   sodipodi:docname="view-filter.svg">
  <defs
     id="defs3051">
    <style
       type="text/css"
       id="current-color-scheme">
    .ColorScheme-Text {
    color:#4d4d4d;
    }
    </style>
  </defs>
  <sodipodi:namedview
     id="base"
     pagecolor="#ffffff"
     bordercolor="#666666"
     borderopacity="1.0"
     inkscape:pageopacity="0.0"
     inkscape:pageshadow="2"
     inkscape:zoom="45.254834"
     inkscape:cx="12.275373"
     inkscape:cy="14.189809"
     inkscape:document-units="px"
     inkscape:current-layer="layer1"
     showgrid="true"
     units="px"
     inkscape:showpageshadow="false"
     borderlayer="true"
     showguides="true"
     inkscape:guide-bbox="true"
     inkscape:window-width="2560"
     inkscape:window-height="1384"
     inkscape:window-x="0"
     inkscape:window-y="32"
     inkscape:window-maximized="1">
    <inkscape:grid
       type="xygrid"
       id="grid4136"
       empspacing="2" />
    <sodipodi:guide
       position="0,20"
       orientation="0,1"
       id="guide4140"
       inkscape:label="Icon Max Height"
       inkscape:color="rgb(233,30,99)"
       inkscape:locked="false" />
    <sodipodi:guide
       position="0,2"
       orientation="0,1"
       id="guide4142"
       inkscape:label="Icon Baseline"
       inkscape:color="rgb(233,30,99)"
       inkscape:locked="false" />
    <sodipodi:guide
       position="11,0"
       orientation="1,0"
       id="guide4144"
       inkscape:label="Center Vertical"
       inkscape:color="rgb(221,44,0)"
       inkscape:locked="false" />
    <sodipodi:guide
       position="15,11"
       orientation="0,1"
       id="guide4146"
       inkscape:label="Center Horizontal"
       inkscape:color="rgb(221,44,0)"
       inkscape:locked="false" />
  </sodipodi:namedview>
  <metadata
     id="metadata7">
    <rdf:RDF>
      <cc:Work
         rdf:about="">
        <dc:format>image/svg+xml</dc:format>
        <dc:type
           rdf:resource="http://purl.org/dc/dcmitype/StillImage" />
        <dc:title />
      </cc:Work>
    </rdf:RDF>
  </metadata>
  <g
     inkscape:label="Capa 1"
     inkscape:groupmode="layer"
     id="layer1"
     transform="translate(0,-1030.3622)">
    <path
       style="fill:currentColor;fill-opacity:1;stroke:none" class="ColorScheme-Text"
       d="m 11,1032.3623 a 7,1.9998402 0 0 0 -7,1.9998 v 0.5 0.3671 0.1328 0.1 c 0.015239,0.1399 0.059831,0.275 0.1308594,0.3965 L 8,1042.6271 v 3.734 c -2.58e-5,0.3788 0.2139535,0.7251 0.5527344,0.8945 l 3.9999996,1.9998 c 0.664949,0.3324 1.447242,-0.1511 1.447266,-0.8944 v -5.9995 -0.6973 l 3.832031,-5.7475 c 0.09189,-0.1345 0.149552,-0.2894 0.167969,-0.4512 v -0.2421 -0.3613 -0.5 a 7,1.9998402 0 0 0 -6.503906,-1.994 A 7,1.9998402 0 0 0 11,1032.3623 Z m 0,1.9998 a 5,0.49996006 0 0 1 5,0.5 5,0.49996006 0 0 1 -0.02344,0.049 c -0.211503,0.053 -0.428587,0.1044 -0.699218,0.1504 a 6,0.99992012 0 0 1 -0.04687,0.01 c -0.357182,0.059 -0.762561,0.1128 -1.208985,0.1562 a 6,0.99992012 0 0 1 -2.492187,0.1328 5,0.49996006 0 0 1 -0.175781,0 6,0.99992012 0 0 1 -0.353516,0 6,0.99992012 0 0 1 -3,-0.1347 c -0.8179731,-0.079 -1.4683011,-0.1895 -1.9726562,-0.3164 A 5,0.49996006 0 0 1 6,1034.8621 a 5,0.49996006 0 0 1 5,-0.5 z m -3.9570312,2.5584 A 7,2.4998003 0 0 0 11,1037.3619 a 7,2.4998003 0 0 0 3.722656,-0.3867 l -2.554687,3.8317 c -0.109511,0.1642 -0.167955,0.3572 -0.167969,0.5546 v 1 1.3827 l -2,-1 v -0.3827 c 2.61e-4,-0.174 -0.044843,-0.3449 -0.1308594,-0.4961 z M 10,1044.9784 l 2,1 v 0.7655 l -2,-0.9999 z"
       id="rect834"
       inkscape:connector-curvature="0" />
  </g>
</svg>
