<?xml version="1.0" encoding="UTF-8" standalone="no"?>
<!-- Created with Inkscape (http://www.inkscape.org/) -->

<svg
   xmlns:dc="http://purl.org/dc/elements/1.1/"
   xmlns:cc="http://creativecommons.org/ns#"
   xmlns:rdf="http://www.w3.org/1999/02/22-rdf-syntax-ns#"
   xmlns:svg="http://www.w3.org/2000/svg"
   xmlns="http://www.w3.org/2000/svg"
   xmlns:sodipodi="http://sodipodi.sourceforge.net/DTD/sodipodi-0.dtd"
   xmlns:inkscape="http://www.inkscape.org/namespaces/inkscape"
   width="22"
   height="22"
   viewBox="0 0 22 22"
   id="svg2"
   version="1.1"
   inkscape:version="0.92.3 (2405546, 2018-03-11)"
   sodipodi:docname="zoom-out.svg">
  <defs
     id="defs3051">
    <style
       type="text/css"
       id="current-color-scheme">
    .ColorScheme-Text {
    color:#4d4d4d;
    }
    </style>
  </defs>
  <sodipodi:namedview
     id="base"
     pagecolor="#ffffff"
     bordercolor="#666666"
     borderopacity="1.0"
     inkscape:pageopacity="0.0"
     inkscape:pageshadow="2"
     inkscape:zoom="54.045455"
     inkscape:cx="11"
     inkscape:cy="11"
     inkscape:document-units="px"
     inkscape:current-layer="layer1"
     showgrid="true"
     units="px"
     inkscape:showpageshadow="false"
     borderlayer="true"
     showguides="true"
     inkscape:guide-bbox="true"
     inkscape:window-width="2560"
     inkscape:window-height="1370"
     inkscape:window-x="0"
     inkscape:window-y="33"
     inkscape:window-maximized="1">
    <inkscape:grid
       type="xygrid"
       id="grid4136"
       empspacing="2" />
    <sodipodi:guide
       position="0,20"
       orientation="0,1"
       id="guide4140"
       inkscape:label="Icon Max Height"
       inkscape:color="rgb(233,30,99)"
       inkscape:locked="false" />
    <sodipodi:guide
       position="0,2"
       orientation="0,1"
       id="guide4142"
       inkscape:label="Icon Baseline"
       inkscape:color="rgb(233,30,99)"
       inkscape:locked="false" />
    <sodipodi:guide
       position="11,0"
       orientation="1,0"
       id="guide4144"
       inkscape:label="Center Vertical"
       inkscape:color="rgb(221,44,0)"
       inkscape:locked="false" />
    <sodipodi:guide
       position="15,11"
       orientation="0,1"
       id="guide4146"
       inkscape:label="Center Horizontal"
       inkscape:color="rgb(221,44,0)"
       inkscape:locked="false" />
  </sodipodi:namedview>
  <metadata
     id="metadata7">
    <rdf:RDF>
      <cc:Work
         rdf:about="">
        <dc:format>image/svg+xml</dc:format>
        <dc:type
           rdf:resource="http://purl.org/dc/dcmitype/StillImage" />
        <dc:title></dc:title>
      </cc:Work>
    </rdf:RDF>
  </metadata>
  <g
     inkscape:label="Capa 1"
     inkscape:groupmode="layer"
     id="layer1"
     transform="translate(0,-1030.3622)">
    <path
       style="fill:currentColor;fill-opacity:1;stroke:none" class="ColorScheme-Text"
       d="M 3,2 C 1.89199,2 1,2.892 1,4 V 8 H 3 V 6 4 H 8 V 2 Z m 12.994141,0 c -0.548942,0.00817 -0.987616,0.4590804 -0.980469,1.0078125 V 5.8535156 C 14.922072,6.4465499 15.372535,6.9850872 15.972656,7 c 0.05948,0.00141 0.118959,-0.00251 0.177735,-0.011719 h 2.84375 c 1.338194,0.010869 1.338194,-2.0011033 0,-1.9902343 h -0.582032 l 1.28711,-1.2851563 C 20.349073,3.07974 19.88168,1.9786578 18.974609,2.0058594 c -0.258006,0.00725 -0.503107,0.1143924 -0.683593,0.2988281 l -1.28711,1.2871094 V 3.0078125 C 17.011199,2.4476162 16.554554,1.9918545 15.994141,2 Z M 19,14 v 4 h -5 v 2 h 5 c 1.10801,0 2,-0.892 2,-2 V 14 Z M 6.0253906,15 c -0.058825,-0.0013 -0.1176491,0.0026 -0.1757812,0.01172 h -2.84375 c -1.3382182,-0.01089 -1.3382182,2.001128 0,1.990234 h 0.5820312 l -1.2871094,1.285156 c -0.6498552,0.63315 -0.1824619,1.734234 0.7246094,1.707032 0.2580062,-0.0072 0.5031076,-0.114393 0.6835938,-0.298829 l 1.2871094,-1.287109 v 0.583985 C 4.988801,19.552384 5.4454459,20.008146 6.0058594,20 6.554801,19.991827 6.9934745,19.54092 6.9863281,18.992188 V 16.146484 C 7.0780159,15.552692 6.6263021,15.013757 6.0253906,15 Z"
       transform="translate(0,1030.3622)"
       id="path846"
       inkscape:connector-curvature="0"
       sodipodi:nodetypes="ssccccccsccccccccccccccccccsscccccccccccccccc" />
  </g>
</svg>
