<?xml version="1.0" encoding="UTF-8" standalone="no"?>
<!-- Created with Inkscape (http://www.inkscape.org/) -->

<svg
   xmlns:dc="http://purl.org/dc/elements/1.1/"
   xmlns:cc="http://creativecommons.org/ns#"
   xmlns:rdf="http://www.w3.org/1999/02/22-rdf-syntax-ns#"
   xmlns:svg="http://www.w3.org/2000/svg"
   xmlns="http://www.w3.org/2000/svg"
   xmlns:sodipodi="http://sodipodi.sourceforge.net/DTD/sodipodi-0.dtd"
   xmlns:inkscape="http://www.inkscape.org/namespaces/inkscape"
   width="22"
   height="22"
   viewBox="0 0 22 22"
   id="svg2"
   version="1.1"
   inkscape:version="0.92.3 (2405546, 2018-03-11)"
   sodipodi:docname="zoom-fit-height.svg">
  <defs
     id="defs3051">
    <style
       type="text/css"
       id="current-color-scheme">
    .ColorScheme-Text {
    color:#4d4d4d;
    }
    </style>
  </defs>
  <sodipodi:namedview
     id="base"
     pagecolor="#ffffff"
     bordercolor="#666666"
     borderopacity="1.0"
     inkscape:pageopacity="0.0"
     inkscape:pageshadow="2"
     inkscape:zoom="31.032345"
     inkscape:cx="16.343548"
     inkscape:cy="13.680744"
     inkscape:document-units="px"
     inkscape:current-layer="layer1"
     showgrid="true"
     units="px"
     inkscape:showpageshadow="false"
     borderlayer="true"
     showguides="true"
     inkscape:guide-bbox="true"
     inkscape:window-width="2560"
     inkscape:window-height="1370"
     inkscape:window-x="0"
     inkscape:window-y="33"
     inkscape:window-maximized="1">
    <inkscape:grid
       type="xygrid"
       id="grid4136"
       empspacing="2" />
    <sodipodi:guide
       position="0,20"
       orientation="0,1"
       id="guide4140"
       inkscape:label="Icon Max Height"
       inkscape:color="rgb(233,30,99)"
       inkscape:locked="false" />
    <sodipodi:guide
       position="0,2"
       orientation="0,1"
       id="guide4142"
       inkscape:label="Icon Baseline"
       inkscape:color="rgb(233,30,99)"
       inkscape:locked="false" />
    <sodipodi:guide
       position="11,0"
       orientation="1,0"
       id="guide4144"
       inkscape:label="Center Vertical"
       inkscape:color="rgb(221,44,0)"
       inkscape:locked="false" />
    <sodipodi:guide
       position="15,11"
       orientation="0,1"
       id="guide4146"
       inkscape:label="Center Horizontal"
       inkscape:color="rgb(221,44,0)"
       inkscape:locked="false" />
  </sodipodi:namedview>
  <metadata
     id="metadata7">
    <rdf:RDF>
      <cc:Work
         rdf:about="">
        <dc:format>image/svg+xml</dc:format>
        <dc:type
           rdf:resource="http://purl.org/dc/dcmitype/StillImage" />
        <dc:title />
      </cc:Work>
    </rdf:RDF>
  </metadata>
  <g
     inkscape:label="Capa 1"
     inkscape:groupmode="layer"
     id="layer1"
     transform="translate(0,-1030.3622)">
    <path
       style="fill:currentColor;fill-opacity:1;stroke:none" class="ColorScheme-Text"
       d="m 11.027344,1.9980469 c -0.317668,-0.00828 -0.620229,0.1353833 -0.814453,0.3867187 l -1.9082035,1.90625 C 7.3367055,5.2290378 8.7735238,6.6658562 9.7128906,5.6992188 L 10.005859,5.40625 v 1.5800781 c -0.020907,1.3479182 2.013095,1.3479182 1.992188,0 V 5.40625 l 0.291015,0.2929688 C 12.922988,6.3487942 14.02501,5.881537 13.998047,4.9746094 13.990348,4.7163762 13.882491,4.4712474 13.697266,4.2910156 L 11.798828,2.3945312 C 11.615778,2.1515413 11.331612,2.0055019 11.027344,1.9980469 Z m -0.01563,11.9726561 c -0.570553,-0.0062 -1.0296459,0.46718 -1.00586,1.037109 v 1.578126 L 9.7128906,16.294922 C 8.77387,15.336887 7.3461141,16.764643 8.3046875,17.703125 l 1.9062505,1.904297 c 0.398657,0.51922 1.181421,0.51922 1.580078,0 1.6e-5,-0.0033 1.6e-5,-0.0065 0,-0.0098 l 1.902343,-1.90039 c 0.192779,-0.187849 0.301281,-0.445716 0.300782,-0.714844 l 0.0039,0.0059 c -0.0016,-0.892234 -1.085889,-1.332152 -1.708985,-0.693359 l -0.292968,0.291016 v -1.578126 c 0.02343,-0.561474 -0.422286,-1.03107 -0.984375,-1.037109 z"
       transform="translate(0,1030.3622)"
       id="path828"
       inkscape:connector-curvature="0"
       sodipodi:nodetypes="cccccccccccccccccccccccccccc" />
  </g>
</svg>
