<?xml version="1.0" encoding="UTF-8" standalone="no"?>
<!-- Created with Inkscape (http://www.inkscape.org/) -->

<svg
   xmlns:dc="http://purl.org/dc/elements/1.1/"
   xmlns:cc="http://creativecommons.org/ns#"
   xmlns:rdf="http://www.w3.org/1999/02/22-rdf-syntax-ns#"
   xmlns:svg="http://www.w3.org/2000/svg"
   xmlns="http://www.w3.org/2000/svg"
   xmlns:sodipodi="http://sodipodi.sourceforge.net/DTD/sodipodi-0.dtd"
   xmlns:inkscape="http://www.inkscape.org/namespaces/inkscape"
   width="22"
   height="22"
   viewBox="0 0 22 22"
   id="svg2"
   version="1.1"
   inkscape:version="0.92.3 (2405546, 2018-03-11)"
   sodipodi:docname="zoom-out.svg">
  <defs
     id="defs3051">
    <style
       type="text/css"
       id="current-color-scheme">
    .ColorScheme-Text {
    color:#4d4d4d;
    }
    </style>
    <style
       id="current-color-scheme-7"
       type="text/css">
    .ColorScheme-Text {
    color:#4d4d4d;
    }
    </style>
  </defs>
  <sodipodi:namedview
     id="base"
     pagecolor="#ffffff"
     bordercolor="#666666"
     borderopacity="1.0"
     inkscape:pageopacity="0.0"
     inkscape:pageshadow="2"
     inkscape:zoom="38.409091"
     inkscape:cx="5.7125836"
     inkscape:cy="10.659058"
     inkscape:document-units="px"
     inkscape:current-layer="layer1"
     showgrid="true"
     units="px"
     inkscape:showpageshadow="false"
     borderlayer="true"
     showguides="true"
     inkscape:guide-bbox="true"
     inkscape:window-width="2560"
     inkscape:window-height="1370"
     inkscape:window-x="0"
     inkscape:window-y="33"
     inkscape:window-maximized="1">
    <inkscape:grid
       type="xygrid"
       id="grid4136"
       empspacing="2" />
    <sodipodi:guide
       position="0,20"
       orientation="0,1"
       id="guide4140"
       inkscape:label="Icon Max Height"
       inkscape:color="rgb(233,30,99)"
       inkscape:locked="false" />
    <sodipodi:guide
       position="0,2"
       orientation="0,1"
       id="guide4142"
       inkscape:label="Icon Baseline"
       inkscape:color="rgb(233,30,99)"
       inkscape:locked="false" />
    <sodipodi:guide
       position="11,0"
       orientation="1,0"
       id="guide4144"
       inkscape:label="Center Vertical"
       inkscape:color="rgb(221,44,0)"
       inkscape:locked="false" />
    <sodipodi:guide
       position="15,11"
       orientation="0,1"
       id="guide4146"
       inkscape:label="Center Horizontal"
       inkscape:color="rgb(221,44,0)"
       inkscape:locked="false" />
  </sodipodi:namedview>
  <metadata
     id="metadata7">
    <rdf:RDF>
      <cc:Work
         rdf:about="">
        <dc:format>image/svg+xml</dc:format>
        <dc:type
           rdf:resource="http://purl.org/dc/dcmitype/StillImage" />
        <dc:title />
      </cc:Work>
    </rdf:RDF>
  </metadata>
  <g
     inkscape:label="Capa 1"
     inkscape:groupmode="layer"
     id="layer1"
     transform="translate(0,-1030.3622)">
    <path
       style="fill:currentColor;fill-opacity:1;stroke:none" class="ColorScheme-Text"
       d="M 3 2 C 1.89199 2 1 2.892 1 4 L 1 10 L 3 10 L 3 6 L 3 4 L 10 4 L 10 2 L 3 2 z M 19.029297 2 A 0.99537727 0.99497076 0 0 0 18.851562 2.0117188 L 16.007812 2.0117188 A 0.99552372 0.99511715 0 1 0 16.007812 4.0019531 L 16.589844 4.0019531 L 15.302734 5.2871094 A 0.99537727 0.99497076 0 0 0 16.027344 6.9941406 A 0.99537727 0.99497076 0 0 0 16.710938 6.6953125 L 17.998047 5.4082031 L 17.998047 5.9921875 A 0.99537727 0.99497076 0 0 0 19.007812 7 A 0.99537727 0.99497076 0 0 0 19.988281 5.9921875 L 19.988281 3.1464844 A 0.99537727 0.99497076 0 0 0 19.029297 2 z M 19 12 L 19 18 L 12 18 L 12 20 L 19 20 C 20.10801 20 21 19.108 21 18 L 21 12 L 19 12 z M 2.9921875 15 A 0.99537727 0.99497076 0 0 0 2.0117188 16.007812 L 2.0117188 18.853516 A 0.99537727 0.99497076 0 0 0 3.1484375 19.988281 L 5.9921875 19.988281 A 0.99552357 0.995117 0 0 0 5.9921875 17.998047 L 5.4101562 17.998047 L 6.6972656 16.712891 A 0.99537727 0.99497076 0 0 0 5.9726562 15.005859 A 0.99537727 0.99497076 0 0 0 5.2890625 15.304688 L 4.0019531 16.591797 L 4.0019531 16.007812 A 0.99537727 0.99497076 0 0 0 2.9921875 15 z "
       transform="translate(0,1030.3622)"
       id="path856" />
  </g>
</svg>
