<?xml version="1.0" encoding="UTF-8" standalone="no"?>
<!-- Created with Inkscape (http://www.inkscape.org/) -->

<svg
   xmlns:dc="http://purl.org/dc/elements/1.1/"
   xmlns:cc="http://creativecommons.org/ns#"
   xmlns:rdf="http://www.w3.org/1999/02/22-rdf-syntax-ns#"
   xmlns:svg="http://www.w3.org/2000/svg"
   xmlns="http://www.w3.org/2000/svg"
   xmlns:xlink="http://www.w3.org/1999/xlink"
   xmlns:sodipodi="http://sodipodi.sourceforge.net/DTD/sodipodi-0.dtd"
   xmlns:inkscape="http://www.inkscape.org/namespaces/inkscape"
   width="64"
   height="64"
   viewBox="0 0 64 64.000003"
   id="svg2"
   version="1.1"
   inkscape:version="0.92.1 r15371"
   sodipodi:docname="anbox-com-android-email.svg"
   inkscape:export-filename="/home/uri/Git/luv-icon-theme/Anbox/64/anbox-com-android-email.png"
   inkscape:export-xdpi="96"
   inkscape:export-ydpi="96">
  <defs
     id="defs4">
    <radialGradient
       inkscape:collect="always"
       xlink:href="#Shadow"
       id="radialGradient4257"
       gradientUnits="userSpaceOnUse"
       gradientTransform="matrix(0.90909091,0,0,0.90909091,24.909071,76.683207)"
       cx="32"
       cy="1096.5197"
       fx="32"
       fy="1096.5197"
       r="11" />
    <linearGradient
       inkscape:collect="always"
       id="Shadow">
      <stop
         style="stop-color:#000000;stop-opacity:1;"
         offset="0"
         id="stop4186" />
      <stop
         style="stop-color:#000000;stop-opacity:0;"
         offset="1"
         id="stop4188" />
    </linearGradient>
    <filter
       inkscape:collect="always"
       style="color-interpolation-filters:sRGB"
       id="filter4714"
       x="-0.035250007"
       width="1.0705"
       y="-0.036782601"
       height="1.0735652">
      <feGaussianBlur
         inkscape:collect="always"
         stdDeviation="0.70500014"
         id="feGaussianBlur4716" />
    </filter>
  </defs>
  <sodipodi:namedview
     id="base"
     pagecolor="#ffffff"
     bordercolor="#666666"
     borderopacity="1.0"
     inkscape:pageopacity="0.0"
     inkscape:pageshadow="2"
     inkscape:zoom="12.9375"
     inkscape:cx="32"
     inkscape:cy="32"
     inkscape:document-units="px"
     inkscape:current-layer="layer1"
     showgrid="true"
     units="px"
     inkscape:showpageshadow="false"
     borderlayer="true"
     inkscape:window-width="2560"
     inkscape:window-height="1018"
     inkscape:window-x="0"
     inkscape:window-y="32"
     inkscape:window-maximized="1"
     showguides="true"
     inkscape:guide-bbox="true">
    <inkscape:grid
       type="xygrid"
       id="grid4136" />
    <sodipodi:guide
       position="5,59.000069"
       orientation="54,0"
       id="guide4142"
       inkscape:locked="false" />
    <sodipodi:guide
       position="5,5.0000688"
       orientation="0,54"
       id="guide4144"
       inkscape:locked="false" />
    <sodipodi:guide
       position="59,5.0000688"
       orientation="-54,0"
       id="guide4146"
       inkscape:locked="false" />
    <sodipodi:guide
       position="59,59.000069"
       orientation="0,-54"
       id="guide4148"
       inkscape:locked="false" />
    <sodipodi:guide
       position="0,64.000069"
       orientation="64,0"
       id="guide4150"
       inkscape:locked="false" />
    <sodipodi:guide
       position="0,6.875e-05"
       orientation="0,64"
       id="guide4152"
       inkscape:locked="false" />
    <sodipodi:guide
       position="64,4.0000002"
       orientation="-64,0"
       id="guide4154"
       inkscape:locked="false" />
    <sodipodi:guide
       position="64,64.000069"
       orientation="0,-64"
       id="guide4156"
       inkscape:locked="false" />
    <sodipodi:guide
       position="32,34.000002"
       orientation="1,0"
       id="guide4512"
       inkscape:locked="false" />
    <sodipodi:guide
       position="28,28.000001"
       orientation="0,1"
       id="guide4514"
       inkscape:locked="false" />
  </sodipodi:namedview>
  <metadata
     id="metadata7">
    <rdf:RDF>
      <cc:Work
         rdf:about="">
        <dc:format>image/svg+xml</dc:format>
        <dc:type
           rdf:resource="http://purl.org/dc/dcmitype/StillImage" />
        <dc:title />
      </cc:Work>
    </rdf:RDF>
  </metadata>
  <g
     inkscape:label="Capa 1"
     inkscape:groupmode="layer"
     id="layer1"
     transform="translate(0,-1058.5196)">
    <path
       style="opacity:0.2;fill:#000000;fill-opacity:1;stroke:none;stroke-width:4;stroke-linecap:round;stroke-linejoin:round;stroke-miterlimit:4;stroke-dasharray:none;stroke-opacity:1;paint-order:stroke markers fill;filter:url(#filter4714)"
       d="m 32.007812,1073.5196 a 1.0001,1.0001 0 0 0 -0.578124,0.1797 L 24.5,1078.5196 H 16 c -1.10797,0 -2,0.892 -2,2 v 5.3047 l -5.5703125,3.875 A 1.0001,1.0001 0 0 0 8,1090.5196 v 6 20 c 0,1.662 1.3380296,3 3,3 h 42 c 1.66197,0 3,-1.338 3,-3 v -20 -6 a 1.0001,1.0001 0 0 0 -0.429688,-0.8203 L 50,1085.8243 v -5.3047 c 0,-1.108 -0.89203,-2 -2,-2 h -8.5 l -6.929688,-4.8203 a 1.0001,1.0001 0 0 0 -0.5625,-0.1797 z"
       id="path4675"
       inkscape:connector-curvature="0" />
    <path
       style="opacity:1;fill:#ffa000;fill-opacity:1;stroke:none;stroke-width:4;stroke-linecap:round;stroke-linejoin:round;stroke-miterlimit:4;stroke-dasharray:none;stroke-opacity:1;paint-order:stroke markers fill"
       d="M 8 36 L 8 56 C 8 57.66197 9.3380296 59 11 59 L 53 59 C 54.66197 59 56 57.66197 56 56 L 56 36 L 8 36 z "
       transform="translate(0,1058.5196)"
       id="rect4510" />
    <path
       style="color:#000000;font-style:normal;font-variant:normal;font-weight:normal;font-stretch:normal;font-size:medium;line-height:normal;font-family:sans-serif;font-variant-ligatures:normal;font-variant-position:normal;font-variant-caps:normal;font-variant-numeric:normal;font-variant-alternates:normal;font-feature-settings:normal;text-indent:0;text-align:start;text-decoration:none;text-decoration-line:none;text-decoration-style:solid;text-decoration-color:#000000;letter-spacing:normal;word-spacing:normal;text-transform:none;writing-mode:lr-tb;direction:ltr;text-orientation:mixed;dominant-baseline:auto;baseline-shift:baseline;text-anchor:start;white-space:normal;shape-padding:0;clip-rule:nonzero;display:inline;overflow:visible;visibility:visible;opacity:1;isolation:auto;mix-blend-mode:normal;color-interpolation:sRGB;color-interpolation-filters:linearRGB;solid-color:#000000;solid-opacity:1;vector-effect:none;fill:#ffa000;fill-opacity:1;fill-rule:nonzero;stroke:none;stroke-width:2;stroke-linecap:round;stroke-linejoin:round;stroke-miterlimit:4;stroke-dasharray:none;stroke-dashoffset:0;stroke-opacity:1;color-rendering:auto;image-rendering:auto;shape-rendering:auto;text-rendering:auto;enable-background:accumulate"
       d="m 32.007812,1071.5195 a 1.0001,1.0001 0 0 0 -0.578124,0.1797 l -23.0000005,16 A 1.0001,1.0001 0 0 0 8,1088.5195 v 6 a 1.0001,1.0001 0 0 0 1,1 h 46 a 1.0001,1.0001 0 0 0 1,-1 v -6 a 1.0001,1.0001 0 0 0 -0.429688,-0.8203 l -23,-16 a 1.0001,1.0001 0 0 0 -0.5625,-0.1797 z"
       id="path4525" />
    <path
       style="color:#000000;font-style:normal;font-variant:normal;font-weight:normal;font-stretch:normal;font-size:medium;line-height:normal;font-family:sans-serif;font-variant-ligatures:normal;font-variant-position:normal;font-variant-caps:normal;font-variant-numeric:normal;font-variant-alternates:normal;font-feature-settings:normal;text-indent:0;text-align:start;text-decoration:none;text-decoration-line:none;text-decoration-style:solid;text-decoration-color:#000000;letter-spacing:normal;word-spacing:normal;text-transform:none;writing-mode:lr-tb;direction:ltr;text-orientation:mixed;dominant-baseline:auto;baseline-shift:baseline;text-anchor:start;white-space:normal;shape-padding:0;clip-rule:nonzero;display:inline;overflow:visible;visibility:visible;opacity:1;isolation:auto;mix-blend-mode:normal;color-interpolation:sRGB;color-interpolation-filters:linearRGB;solid-color:#000000;solid-opacity:1;vector-effect:none;fill:#ffecb3;fill-opacity:1;fill-rule:nonzero;stroke:none;stroke-width:2;stroke-linecap:round;stroke-linejoin:round;stroke-miterlimit:4;stroke-dasharray:none;stroke-dashoffset:0;stroke-opacity:1;color-rendering:auto;image-rendering:auto;shape-rendering:auto;text-rendering:auto;enable-background:accumulate"
       d="m 32.009766,1072.7188 a 1.0001,1.0001 0 0 0 -0.583985,0.1816 L 9.4257812,1088.3008 A 1.0001,1.0001 0 0 0 9,1089.1191 v 1.4004 a 1.0001,1.0001 0 0 0 1,1 h 44 a 1.0001,1.0001 0 0 0 1,-1 v -1.4004 a 1.0001,1.0001 0 0 0 -0.425781,-0.8183 l -22,-15.4004 a 1.0001,1.0001 0 0 0 -0.564453,-0.1816 z"
       id="path4595" />
    <path
       style="fill:#ffecb3;stroke:none;stroke-width:1px;stroke-linecap:butt;stroke-linejoin:miter;stroke-opacity:1;fill-opacity:1"
       d="m 32,1112.5196 -22,-21 h 44 z"
       id="path4548"
       inkscape:connector-curvature="0" />
    <rect
       style="opacity:1;fill:#e8e5dc;fill-opacity:1;stroke:none;stroke-width:2;stroke-linecap:round;stroke-linejoin:round;stroke-miterlimit:4;stroke-dasharray:none;stroke-opacity:1;paint-order:stroke markers fill"
       id="rect4645"
       width="36"
       height="36"
       x="14"
       y="1076.5197"
       ry="1.9999467" />
    <rect
       style="opacity:1;fill:#fffbec;fill-opacity:1;stroke:none;stroke-width:2;stroke-linecap:round;stroke-linejoin:round;stroke-miterlimit:4;stroke-dasharray:none;stroke-opacity:1;paint-order:stroke markers fill"
       id="rect4647"
       width="34"
       height="34"
       x="15"
       y="1077.5197"
       ry="0.99994665" />
    <path
       style="opacity:1;fill:#ffca28;fill-opacity:1;stroke:none;stroke-width:2;stroke-linecap:round;stroke-linejoin:round;stroke-miterlimit:4;stroke-dasharray:none;stroke-opacity:1;paint-order:stroke markers fill"
       d="M 9 32 L 9 56 C 9 57.10797 9.8920295 58 11 58 L 32 58 L 32 54 L 9 32 z "
       transform="translate(0,1058.5196)"
       id="path4541" />
    <path
       id="path4583"
       d="m 55,1090.5196 v 24 c 0,1.108 -0.89203,2 -2,2 H 32 v -4 z"
       style="opacity:1;fill:#ffca28;fill-opacity:1;stroke:none;stroke-width:2;stroke-linecap:round;stroke-linejoin:round;stroke-miterlimit:4;stroke-dasharray:none;stroke-opacity:1;paint-order:stroke markers fill"
       inkscape:connector-curvature="0" />
    <path
       style="fill:none;stroke:#ffa000;stroke-width:1px;stroke-linecap:round;stroke-linejoin:miter;stroke-opacity:1"
       d="m 9,1090.5196 22.999999,22 23.000001,-22"
       id="path4653"
       inkscape:connector-curvature="0" />
    <path
       style="color:#000000;font-style:normal;font-variant:normal;font-weight:normal;font-stretch:normal;font-size:medium;line-height:normal;font-family:sans-serif;font-variant-ligatures:normal;font-variant-position:normal;font-variant-caps:normal;font-variant-numeric:normal;font-variant-alternates:normal;font-feature-settings:normal;text-indent:0;text-align:start;text-decoration:none;text-decoration-line:none;text-decoration-style:solid;text-decoration-color:#000000;letter-spacing:normal;word-spacing:normal;text-transform:none;writing-mode:lr-tb;direction:ltr;text-orientation:mixed;dominant-baseline:auto;baseline-shift:baseline;text-anchor:start;white-space:normal;shape-padding:0;clip-rule:nonzero;display:inline;overflow:visible;visibility:visible;opacity:1;isolation:auto;mix-blend-mode:normal;color-interpolation:sRGB;color-interpolation-filters:linearRGB;solid-color:#000000;solid-opacity:1;vector-effect:none;fill:#ffa000;fill-opacity:1;fill-rule:nonzero;stroke:none;stroke-width:2;stroke-linecap:round;stroke-linejoin:round;stroke-miterlimit:4;stroke-dasharray:none;stroke-dashoffset:0;stroke-opacity:1;color-rendering:auto;image-rendering:auto;shape-rendering:auto;text-rendering:auto;enable-background:accumulate"
       d="M 32 39 L 32 54 L 32 58 L 53 58 C 54.10797 58 55 57.108 55 56 L 55 54.783203 L 32.570312 39.179688 A 1.0001 1.0001 0 0 0 32.007812 39 A 1.0001 1.0001 0 0 0 32 39 z "
       transform="translate(0,1058.5196)"
       id="path4550" />
    <path
       style="color:#000000;font-style:normal;font-variant:normal;font-weight:normal;font-stretch:normal;font-size:medium;line-height:normal;font-family:sans-serif;font-variant-ligatures:normal;font-variant-position:normal;font-variant-caps:normal;font-variant-numeric:normal;font-variant-alternates:normal;font-feature-settings:normal;text-indent:0;text-align:start;text-decoration:none;text-decoration-line:none;text-decoration-style:solid;text-decoration-color:#000000;letter-spacing:normal;word-spacing:normal;text-transform:none;writing-mode:lr-tb;direction:ltr;text-orientation:mixed;dominant-baseline:auto;baseline-shift:baseline;text-anchor:start;white-space:normal;shape-padding:0;clip-rule:nonzero;display:inline;overflow:visible;visibility:visible;opacity:1;isolation:auto;mix-blend-mode:normal;color-interpolation:sRGB;color-interpolation-filters:linearRGB;solid-color:#000000;solid-opacity:1;vector-effect:none;fill:#ffd54f;fill-opacity:1;fill-rule:nonzero;stroke:none;stroke-width:2;stroke-linecap:round;stroke-linejoin:round;stroke-miterlimit:4;stroke-dasharray:none;stroke-dashoffset:0;stroke-opacity:1;color-rendering:auto;image-rendering:auto;shape-rendering:auto;text-rendering:auto;enable-background:accumulate"
       d="M 32 40.199219 L 32 54 L 32 58 L 53 58 C 53.990205 58 54.802199 57.28612 54.964844 56.34375 A 1.0001 1.0001 0 0 0 54.574219 55.78125 L 32.574219 40.380859 A 1.0001 1.0001 0 0 0 32.009766 40.199219 A 1.0001 1.0001 0 0 0 32 40.199219 z "
       transform="translate(0,1058.5196)"
       id="path4558" />
    <path
       id="path4587"
       d="m 32,1097.5196 v 15 4 H 11 c -1.10797,0 -2,-0.892 -2,-2 v -1.2168 l 22.429688,-15.6035 a 1.0001,1.0001 0 0 1 0.5625,-0.1797 1.0001,1.0001 0 0 1 0.0078,0 z"
       style="color:#000000;font-style:normal;font-variant:normal;font-weight:normal;font-stretch:normal;font-size:medium;line-height:normal;font-family:sans-serif;font-variant-ligatures:normal;font-variant-position:normal;font-variant-caps:normal;font-variant-numeric:normal;font-variant-alternates:normal;font-feature-settings:normal;text-indent:0;text-align:start;text-decoration:none;text-decoration-line:none;text-decoration-style:solid;text-decoration-color:#000000;letter-spacing:normal;word-spacing:normal;text-transform:none;writing-mode:lr-tb;direction:ltr;text-orientation:mixed;dominant-baseline:auto;baseline-shift:baseline;text-anchor:start;white-space:normal;shape-padding:0;clip-rule:nonzero;display:inline;overflow:visible;visibility:visible;opacity:1;isolation:auto;mix-blend-mode:normal;color-interpolation:sRGB;color-interpolation-filters:linearRGB;solid-color:#000000;solid-opacity:1;vector-effect:none;fill:#ffa000;fill-opacity:1;fill-rule:nonzero;stroke:none;stroke-width:2;stroke-linecap:round;stroke-linejoin:round;stroke-miterlimit:4;stroke-dasharray:none;stroke-dashoffset:0;stroke-opacity:1;color-rendering:auto;image-rendering:auto;shape-rendering:auto;text-rendering:auto;enable-background:accumulate"
       inkscape:connector-curvature="0" />
    <path
       id="path4589"
       d="m 32,1098.7188 v 13.8008 4 H 11 c -0.990205,0 -1.802199,-0.7139 -1.964844,-1.6562 a 1.0001,1.0001 0 0 1 0.390625,-0.5625 l 22,-15.4004 a 1.0001,1.0001 0 0 1 0.564453,-0.1817 1.0001,1.0001 0 0 1 0.0098,0 z"
       style="color:#000000;font-style:normal;font-variant:normal;font-weight:normal;font-stretch:normal;font-size:medium;line-height:normal;font-family:sans-serif;font-variant-ligatures:normal;font-variant-position:normal;font-variant-caps:normal;font-variant-numeric:normal;font-variant-alternates:normal;font-feature-settings:normal;text-indent:0;text-align:start;text-decoration:none;text-decoration-line:none;text-decoration-style:solid;text-decoration-color:#000000;letter-spacing:normal;word-spacing:normal;text-transform:none;writing-mode:lr-tb;direction:ltr;text-orientation:mixed;dominant-baseline:auto;baseline-shift:baseline;text-anchor:start;white-space:normal;shape-padding:0;clip-rule:nonzero;display:inline;overflow:visible;visibility:visible;opacity:1;isolation:auto;mix-blend-mode:normal;color-interpolation:sRGB;color-interpolation-filters:linearRGB;solid-color:#000000;solid-opacity:1;vector-effect:none;fill:#ffd54f;fill-opacity:1;fill-rule:nonzero;stroke:none;stroke-width:2;stroke-linecap:round;stroke-linejoin:round;stroke-miterlimit:4;stroke-dasharray:none;stroke-dashoffset:0;stroke-opacity:1;color-rendering:auto;image-rendering:auto;shape-rendering:auto;text-rendering:auto;enable-background:accumulate"
       inkscape:connector-curvature="0" />
    <g
       transform="translate(-2.0000004)"
       id="g4653">
      <circle
         style="fill:url(#radialGradient4257);fill-opacity:1"
         id="circle4253"
         cx="53.999992"
         cy="1073.5197"
         r="10" />
      <circle
         cy="1072.5195"
         cx="53.999992"
         id="circle4255"
         style="fill:#00bfa5;fill-opacity:1"
         r="9" />
      <path
         id="rect4612"
         transform="translate(0,1058.5196)"
         d="m 51.994141,7.4941406 a 0.50005,0.50005 0 0 0 -0.347657,0.859375 L 52.03125,8.7382812 A 3,3 0 0 0 51,11 h 6 A 3,3 0 0 0 55.966797,8.7402344 L 56.353516,8.3535156 A 0.50005,0.50005 0 0 0 55.990234,7.4960938 0.50005,0.50005 0 0 0 55.646484,7.6464844 L 55.087891,8.203125 A 3,3 0 0 0 54,8 3,3 0 0 0 52.914062,8.2070312 L 52.353516,7.6464844 A 0.50005,0.50005 0 0 0 51.994141,7.4941406 Z M 52.5,9 A 0.5,0.5 0 0 1 53,9.5 0.5,0.5 0 0 1 52.5,10 0.5,0.5 0 0 1 52,9.5 0.5,0.5 0 0 1 52.5,9 Z m 3,0 A 0.5,0.5 0 0 1 56,9.5 0.5,0.5 0 0 1 55.5,10 0.5,0.5 0 0 1 55,9.5 0.5,0.5 0 0 1 55.5,9 Z m -6,3 C 49.223,12 49,12.223 49,12.5 v 2 c 0,0.277 0.223,0.5 0.5,0.5 0.277,0 0.5,-0.223 0.5,-0.5 v -2 C 50,12.223 49.777,12 49.5,12 Z m 1.5,0 v 1 4 c 0,0.553971 0.446029,1 1,1 v 1.5 c 0,0.276999 0.223001,0.5 0.5,0.5 0.276999,0 0.5,-0.223001 0.5,-0.5 V 18 h 2 v 1.5 c 0,0.276999 0.223001,0.5 0.5,0.5 0.276999,0 0.5,-0.223001 0.5,-0.5 V 18 c 0.553971,0 1,-0.446029 1,-1 v -4 -1 h -1 -4 z m 7.5,0 C 58.223,12 58,12.223 58,12.5 v 2 c 0,0.277 0.223,0.5 0.5,0.5 0.277,0 0.5,-0.223 0.5,-0.5 v -2 C 59,12.223 58.777,12 58.5,12 Z"
         style="opacity:1;fill:#fafafa;fill-opacity:1;stroke:none;stroke-width:2;stroke-linecap:round;stroke-linejoin:round;stroke-miterlimit:4;stroke-dasharray:none;stroke-opacity:1;paint-order:stroke markers fill"
         inkscape:connector-curvature="0" />
    </g>
    <path
       style="opacity:1;fill:#9e9e9e;fill-opacity:1;stroke:none;stroke-width:2;stroke-linecap:round;stroke-linejoin:round;stroke-miterlimit:4;stroke-dasharray:none;stroke-opacity:1;paint-order:stroke markers fill"
       d="M 32 27 A 3.0000007 3 0 0 0 29 30 A 3.0000007 3 0 0 0 32 33 A 3.0000007 3 0 0 0 35 30 A 3.0000007 3 0 0 0 32 27 z M 32 28 A 2.0000007 2.0000002 0 0 1 34 30 A 2.0000007 2.0000002 0 0 1 32 32 A 2.0000007 2.0000002 0 0 1 30 30 A 2.0000007 2.0000002 0 0 1 32 28 z "
       transform="translate(0,1058.5196)"
       id="path4655" />
    <path
       style="opacity:1;fill:#9e9e9e;fill-opacity:1;stroke:none;stroke-width:3.33333302;stroke-linecap:round;stroke-linejoin:round;stroke-miterlimit:4;stroke-dasharray:none;stroke-opacity:1;paint-order:stroke markers fill"
       d="M 32 25 A 5.000001 4.9999995 0 0 0 27 30 A 5.000001 4.9999995 0 0 0 32 35 L 32 34 A 4.000001 3.9999998 0 0 1 28 30 A 4.000001 3.9999998 0 0 1 32 26 A 4.000001 3.9999998 0 0 1 36 30 A 4.000001 3.9999998 0 0 1 35.791016 31.263672 L 36.740234 31.580078 A 5.000001 4.9999995 0 0 0 37 30 A 5.000001 4.9999995 0 0 0 32 25 z "
       transform="translate(0,1058.5196)"
       id="ellipse4661" />
    <path
       style="fill:none;stroke:#9e9e9e;stroke-width:1px;stroke-linecap:butt;stroke-linejoin:miter;stroke-opacity:1"
       d="m 34,1090.5196 c 1.808594,1.0859 2.276563,-0.6117 2.276563,-0.6117"
       id="path4673"
       inkscape:connector-curvature="0"
       sodipodi:nodetypes="cc" />
  </g>
</svg>
