<?xml version="1.0" encoding="UTF-8" standalone="no"?>
<!-- Created with Inkscape (http://www.inkscape.org/) -->

<svg
   xmlns:dc="http://purl.org/dc/elements/1.1/"
   xmlns:cc="http://creativecommons.org/ns#"
   xmlns:rdf="http://www.w3.org/1999/02/22-rdf-syntax-ns#"
   xmlns:svg="http://www.w3.org/2000/svg"
   xmlns="http://www.w3.org/2000/svg"
   xmlns:xlink="http://www.w3.org/1999/xlink"
   xmlns:sodipodi="http://sodipodi.sourceforge.net/DTD/sodipodi-0.dtd"
   xmlns:inkscape="http://www.inkscape.org/namespaces/inkscape"
   width="64"
   height="64"
   viewBox="0 0 64 64.000003"
   id="svg2"
   version="1.1"
   inkscape:version="0.92.1 r15371"
   sodipodi:docname="anbox-org-chromium-webview_shell.svg"
   inkscape:export-filename="/home/uri/Git/luv-icon-theme/Anbox/64/anbox-org-chromium-webview_shell.png"
   inkscape:export-xdpi="96"
   inkscape:export-ydpi="96">
  <defs
     id="defs4">
    <style
       id="current-color-scheme"
       type="text/css">
      .ColorScheme-Text {
        color:#4d4d4d;
      }
      .ColorScheme-Background {
        color:#eff0f1;
      }
      .ColorScheme-Highlight {
        color:#3daee9;
      }
      .ColorScheme-ViewText {
        color:#31363b;
      }
      .ColorScheme-ViewBackground {
        color:#fcfcfc;
      }
      .ColorScheme-ViewHover {
        color:#93cee9;
      }
      .ColorScheme-ViewFocus{
        color:#3daee9;
      }
      .ColorScheme-ButtonText {
        color:#31363b;
      }
      .ColorScheme-ButtonBackground {
        color:#eff0f1;
      }
      .ColorScheme-ButtonHover {
        color:#93cee9;
      }
      .ColorScheme-ButtonFocus{
        color:#3daee9;
      }
      </style>
    <style
       id="current-color-scheme-10"
       type="text/css">
      .ColorScheme-Text {
        color:#4d4d4d;
      }
      .ColorScheme-Background {
        color:#eff0f1;
      }
      .ColorScheme-Highlight {
        color:#3daee9;
      }
      .ColorScheme-ViewText {
        color:#31363b;
      }
      .ColorScheme-ViewBackground {
        color:#fcfcfc;
      }
      .ColorScheme-ViewHover {
        color:#93cee9;
      }
      .ColorScheme-ViewFocus{
        color:#3daee9;
      }
      .ColorScheme-ButtonText {
        color:#31363b;
      }
      .ColorScheme-ButtonBackground {
        color:#eff0f1;
      }
      .ColorScheme-ButtonHover {
        color:#93cee9;
      }
      .ColorScheme-ButtonFocus{
        color:#3daee9;
      }
      </style>
    <style
       type="text/css"
       id="current-color-scheme-1">
      .ColorScheme-Text {
        color:#4d4d4d;
      }
      .ColorScheme-Background {
        color:#eff0f1;
      }
      .ColorScheme-Highlight {
        color:#3daee9;
      }
      .ColorScheme-ViewText {
        color:#31363b;
      }
      .ColorScheme-ViewBackground {
        color:#fcfcfc;
      }
      .ColorScheme-ViewHover {
        color:#93cee9;
      }
      .ColorScheme-ViewFocus{
        color:#3daee9;
      }
      .ColorScheme-ButtonText {
        color:#31363b;
      }
      .ColorScheme-ButtonBackground {
        color:#eff0f1;
      }
      .ColorScheme-ButtonHover {
        color:#93cee9;
      }
      .ColorScheme-ButtonFocus{
        color:#3daee9;
      }
      </style>
    <radialGradient
       inkscape:collect="always"
       xlink:href="#Shadow"
       id="radialGradient4257"
       gradientUnits="userSpaceOnUse"
       gradientTransform="matrix(0.90909091,0,0,0.90909091,24.909071,76.683207)"
       cx="32"
       cy="1096.5197"
       fx="32"
       fy="1096.5197"
       r="11" />
    <linearGradient
       inkscape:collect="always"
       id="Shadow">
      <stop
         style="stop-color:#000000;stop-opacity:1;"
         offset="0"
         id="stop4186" />
      <stop
         style="stop-color:#000000;stop-opacity:0;"
         offset="1"
         id="stop4188" />
    </linearGradient>
    <filter
       inkscape:collect="always"
       style="color-interpolation-filters:sRGB"
       id="filter4851"
       x="-0.040294444"
       width="1.0805889"
       y="-0.032532769"
       height="1.0650655">
      <feGaussianBlur
         inkscape:collect="always"
         stdDeviation="0.70515277"
         id="feGaussianBlur4853" />
    </filter>
  </defs>
  <sodipodi:namedview
     id="base"
     pagecolor="#ffffff"
     bordercolor="#666666"
     borderopacity="1.0"
     inkscape:pageopacity="0.0"
     inkscape:pageshadow="2"
     inkscape:zoom="18.296388"
     inkscape:cx="39.337352"
     inkscape:cy="41.50892"
     inkscape:document-units="px"
     inkscape:current-layer="layer1"
     showgrid="true"
     units="px"
     inkscape:showpageshadow="false"
     borderlayer="true"
     inkscape:window-width="2560"
     inkscape:window-height="1018"
     inkscape:window-x="0"
     inkscape:window-y="32"
     inkscape:window-maximized="1"
     showguides="true"
     inkscape:guide-bbox="true">
    <inkscape:grid
       type="xygrid"
       id="grid4136"
       empspacing="2" />
    <sodipodi:guide
       position="5,5.0000688"
       orientation="0,54"
       id="guide4144"
       inkscape:locked="false" />
    <sodipodi:guide
       position="59,59.000069"
       orientation="0,-54"
       id="guide4148"
       inkscape:locked="false" />
    <sodipodi:guide
       position="0,6.875e-05"
       orientation="0,64"
       id="guide4152"
       inkscape:locked="false" />
    <sodipodi:guide
       position="64,31.000001"
       orientation="-64,0"
       id="guide4154"
       inkscape:locked="false" />
    <sodipodi:guide
       position="64,64.000069"
       orientation="0,-64"
       id="guide4156"
       inkscape:locked="false" />
    <sodipodi:guide
       position="12,34.000002"
       orientation="38,0"
       id="guide4155"
       inkscape:locked="false" />
    <sodipodi:guide
       position="52.000001,23.000001"
       orientation="-38,0"
       id="guide4159"
       inkscape:locked="false" />
    <sodipodi:guide
       position="31,32.000002"
       orientation="0,1"
       id="guide4229"
       inkscape:locked="false" />
  </sodipodi:namedview>
  <metadata
     id="metadata7">
    <rdf:RDF>
      <cc:Work
         rdf:about="">
        <dc:format>image/svg+xml</dc:format>
        <dc:type
           rdf:resource="http://purl.org/dc/dcmitype/StillImage" />
        <dc:title />
      </cc:Work>
    </rdf:RDF>
  </metadata>
  <g
     inkscape:label="Capa 1"
     inkscape:groupmode="layer"
     id="layer1"
     transform="translate(0,-1058.5196)">
    <path
       style="color:#000000;font-style:normal;font-variant:normal;font-weight:normal;font-stretch:normal;font-size:medium;line-height:normal;font-family:sans-serif;font-variant-ligatures:normal;font-variant-position:normal;font-variant-caps:normal;font-variant-numeric:normal;font-variant-alternates:normal;font-feature-settings:normal;text-indent:0;text-align:start;text-decoration:none;text-decoration-line:none;text-decoration-style:solid;text-decoration-color:#000000;letter-spacing:normal;word-spacing:normal;text-transform:none;writing-mode:lr-tb;direction:ltr;text-orientation:mixed;dominant-baseline:auto;baseline-shift:baseline;text-anchor:start;white-space:normal;shape-padding:0;clip-rule:nonzero;display:inline;overflow:visible;visibility:visible;opacity:0.2;isolation:auto;mix-blend-mode:normal;color-interpolation:sRGB;color-interpolation-filters:linearRGB;solid-color:#000000;solid-opacity:1;vector-effect:none;fill:#000000;fill-opacity:1;fill-rule:nonzero;stroke:none;stroke-width:4;stroke-linecap:round;stroke-linejoin:round;stroke-miterlimit:4;stroke-dasharray:none;stroke-dashoffset:0;stroke-opacity:1;color-rendering:auto;image-rendering:auto;shape-rendering:auto;text-rendering:auto;enable-background:accumulate;filter:url(#filter4851)"
       d="m 21.978516,1067.5001 a 2.0002,2.0002 0 0 0 -1.392578,3.4336 l 2.126953,2.1269 A 14,14 0 0 0 18,1083.5196 v 1 h 0.03711 27.91211 H 46 v -1 a 14,14 0 0 0 -5.248047,-10.9238 l 1.662109,-1.6621 a 2.0002,2.0002 0 0 0 -1.453124,-3.4336 2.0002,2.0002 0 0 0 -1.375,0.6054 l -2.41211,2.4121 A 14,14 0 0 0 32,1069.5196 a 14,14 0 0 0 -5.867188,1.3047 l -2.71875,-2.7188 a 2.0002,2.0002 0 0 0 -1.435546,-0.6054 z M 14,1085.5196 c -1.662,0 -3,1.4406 -3,3.2305 v 11.539 c 0,1.7899 1.338,3.2305 3,3.2305 1.662,0 3,-1.4406 3,-3.2305 v -11.539 c 0,-1.7899 -1.338,-3.2305 -3,-3.2305 z m 6,0 c -1.10797,0 -2.018464,0.8922 -2,2 v 6 1 8 c 0,3.3689 2.064457,6.2331 5,7.416 v 6.584 c 0,1.662 1.338,3 3,3 1.662,0 3,-1.338 3,-3 v -6 h 6 v 6 c 0,1.662 1.338,3 3,3 1.662,0 3,-1.338 3,-3 v -6.582 c 2.948776,-1.1816 5.033707,-4.0472 5,-7.418 v -10 -5 c 0,-1.108 -0.89203,-2 -2,-2 z m 30,0 c -1.662,0 -3,1.4406 -3,3.2305 v 11.539 c 0,1.7899 1.338,3.2305 3,3.2305 1.662,0 3,-1.4406 3,-3.2305 v -11.539 c 0,-1.7899 -1.338,-3.2305 -3,-3.2305 z"
       id="path4820"
       inkscape:connector-curvature="0" />
    <path
       style="color:#000000;font-style:normal;font-variant:normal;font-weight:normal;font-stretch:normal;font-size:medium;line-height:normal;font-family:sans-serif;font-variant-ligatures:normal;font-variant-position:normal;font-variant-caps:normal;font-variant-numeric:normal;font-variant-alternates:normal;font-feature-settings:normal;text-indent:0;text-align:start;text-decoration:none;text-decoration-line:none;text-decoration-style:solid;text-decoration-color:#000000;letter-spacing:normal;word-spacing:normal;text-transform:none;writing-mode:lr-tb;direction:ltr;text-orientation:mixed;dominant-baseline:auto;baseline-shift:baseline;text-anchor:start;white-space:normal;shape-padding:0;clip-rule:nonzero;display:inline;overflow:visible;visibility:visible;opacity:1;isolation:auto;mix-blend-mode:normal;color-interpolation:sRGB;color-interpolation-filters:linearRGB;solid-color:#000000;solid-opacity:1;vector-effect:none;fill:#7cb342;fill-opacity:1;fill-rule:nonzero;stroke:none;stroke-width:4;stroke-linecap:round;stroke-linejoin:round;stroke-miterlimit:4;stroke-dasharray:none;stroke-dashoffset:0;stroke-opacity:1;color-rendering:auto;image-rendering:auto;shape-rendering:auto;text-rendering:auto;enable-background:accumulate"
       d="m 40.960938,1065.5 a 2.0002,2.0002 0 0 0 -1.375,0.6055 l -5,5 a 2.0002,2.0002 0 1 0 2.828124,2.8281 l 5,-5 A 2.0002,2.0002 0 0 0 40.960938,1065.5 Z"
       id="path4683"
       inkscape:connector-curvature="0" />
    <path
       style="color:#000000;font-style:normal;font-variant:normal;font-weight:normal;font-stretch:normal;font-size:medium;line-height:normal;font-family:sans-serif;font-variant-ligatures:normal;font-variant-position:normal;font-variant-caps:normal;font-variant-numeric:normal;font-variant-alternates:normal;font-feature-settings:normal;text-indent:0;text-align:start;text-decoration:none;text-decoration-line:none;text-decoration-style:solid;text-decoration-color:#000000;letter-spacing:normal;word-spacing:normal;text-transform:none;writing-mode:lr-tb;direction:ltr;text-orientation:mixed;dominant-baseline:auto;baseline-shift:baseline;text-anchor:start;white-space:normal;shape-padding:0;clip-rule:nonzero;display:inline;overflow:visible;visibility:visible;opacity:1;isolation:auto;mix-blend-mode:normal;color-interpolation:sRGB;color-interpolation-filters:linearRGB;solid-color:#000000;solid-opacity:1;vector-effect:none;fill:#7cb342;fill-opacity:1;fill-rule:nonzero;stroke:none;stroke-width:4;stroke-linecap:round;stroke-linejoin:round;stroke-miterlimit:4;stroke-dasharray:none;stroke-dashoffset:0;stroke-opacity:1;color-rendering:auto;image-rendering:auto;shape-rendering:auto;text-rendering:auto;enable-background:accumulate"
       d="m 21.978516,1065.5 a 2.0002,2.0002 0 0 0 -1.392578,3.4336 l 5,5 a 2.0002,2.0002 0 1 0 2.828124,-2.8281 l -5,-5 A 2.0002,2.0002 0 0 0 21.978516,1065.5 Z"
       id="path4679"
       inkscape:connector-curvature="0" />
    <path
       style="opacity:1;fill:#7cb342;fill-opacity:1;stroke:none;stroke-width:3.11111164;stroke-linecap:round;stroke-linejoin:round;stroke-miterlimit:4;stroke-dasharray:none;stroke-opacity:1;paint-order:stroke markers fill"
       d="M 32 9 A 14 14 0 0 0 18 23 L 18 24 L 18.037109 24 L 45.949219 24 L 46 24 L 46 23 A 14 14 0 0 0 32 9 z "
       transform="translate(0,1058.5196)"
       id="path4805" />
    <path
       style="opacity:1;fill:#9ccc65;fill-opacity:1;stroke:none;stroke-width:2.88888931;stroke-linecap:round;stroke-linejoin:round;stroke-miterlimit:4;stroke-dasharray:none;stroke-opacity:1;paint-order:stroke markers fill"
       d="M 32 10 A 13 13 0 0 0 19 23 L 45 23 A 13 13 0 0 0 32 10 z "
       transform="translate(0,1058.5196)"
       id="circle4807" />
    <rect
       style="opacity:1;fill:#7cb342;fill-opacity:1;stroke:none;stroke-width:4;stroke-linecap:round;stroke-linejoin:round;stroke-miterlimit:4;stroke-dasharray:none;stroke-opacity:1;paint-order:stroke markers fill"
       id="rect4631"
       width="6"
       height="13.000053"
       x="23"
       y="1104.5197"
       ry="3" />
    <rect
       ry="3"
       y="1104.5197"
       x="35"
       height="13.000053"
       width="6"
       id="rect4633"
       style="opacity:1;fill:#7cb342;fill-opacity:1;stroke:none;stroke-width:4;stroke-linecap:round;stroke-linejoin:round;stroke-miterlimit:4;stroke-dasharray:none;stroke-opacity:1;paint-order:stroke markers fill" />
    <path
       style="opacity:1;fill:#7cb342;fill-opacity:1;stroke:none;stroke-width:4;stroke-linecap:round;stroke-linejoin:round;stroke-miterlimit:4;stroke-dasharray:none;stroke-opacity:1;paint-order:stroke markers fill"
       d="m 18,32 v 10 c 0,4.43197 3.56803,8 8,8 h 12 c 4.43197,0 8.044317,-3.568252 8,-8 V 32 Z"
       transform="translate(0,1058.5196)"
       id="rect4635"
       inkscape:connector-curvature="0"
       sodipodi:nodetypes="csssscc" />
    <path
       style="opacity:1;fill:#7cb342;fill-opacity:1;stroke:none;stroke-width:4;stroke-linecap:round;stroke-linejoin:round;stroke-miterlimit:4;stroke-dasharray:none;stroke-opacity:1;paint-order:stroke markers fill"
       d="m 20,1083.5196 c -1.10797,0 -2.018464,0.8922 -2,2 v 6 1 h 0.275391 c 0.345551,0.5958 0.983559,1 1.724609,1 h 24 c 0.74105,0 1.379058,-0.4042 1.724609,-1 H 46 v -1 -6 c 0,-1.108 -0.89203,-2 -2,-2 z"
       id="rect4663"
       inkscape:connector-curvature="0"
       sodipodi:nodetypes="sscccsscccsss" />
    <path
       style="opacity:1;fill:#9ccc65;fill-opacity:1;stroke:none;stroke-width:4;stroke-linecap:round;stroke-linejoin:round;stroke-miterlimit:4;stroke-dasharray:none;stroke-opacity:1;paint-order:stroke markers fill"
       d="m 19,32 v 10 c 0,3.87797 3.12203,7 7,7 h 12 c 3.87797,0 7.038778,-3.122224 7,-7 V 32 Z"
       transform="translate(0,1058.5196)"
       id="rect4637"
       inkscape:connector-curvature="0"
       sodipodi:nodetypes="csssscc" />
    <rect
       style="opacity:1;fill:#9ccc65;fill-opacity:1;stroke:none;stroke-width:4;stroke-linecap:round;stroke-linejoin:round;stroke-miterlimit:4;stroke-dasharray:none;stroke-opacity:1;paint-order:stroke markers fill"
       id="rect4639"
       width="4"
       height="12.000053"
       x="24"
       y="1104.5197"
       ry="2" />
    <rect
       ry="2"
       y="1104.5197"
       x="36"
       height="12.000053"
       width="4"
       id="rect4641"
       style="opacity:1;fill:#9ccc65;fill-opacity:1;stroke:none;stroke-width:4;stroke-linecap:round;stroke-linejoin:round;stroke-miterlimit:4;stroke-dasharray:none;stroke-opacity:1;paint-order:stroke markers fill" />
    <path
       style="opacity:1;fill:#7cb342;fill-opacity:1;stroke:none;stroke-width:4.15099525;stroke-linecap:round;stroke-linejoin:round;stroke-miterlimit:4;stroke-dasharray:none;stroke-opacity:1;paint-order:stroke markers fill"
       d="m 14,1083.5199 c 1.662,0 3,1.4409 3,3.2308 v 11.5381 c 0,1.7899 -1.338,3.2308 -3,3.2308 -1.662,0 -3,-1.4409 -3,-3.2308 v -11.5381 c 0,-1.7899 1.338,-3.2308 3,-3.2308 z"
       id="rect4643"
       inkscape:connector-curvature="0"
       sodipodi:nodetypes="sssssss" />
    <path
       style="opacity:1;fill:#9ccc65;fill-opacity:1;stroke:none;stroke-width:4.15099525;stroke-linecap:round;stroke-linejoin:round;stroke-miterlimit:4;stroke-dasharray:none;stroke-opacity:1;paint-order:stroke markers fill"
       d="m 14,1084.5968 c 1.108,0 2,0.9606 2,2.1538 v 11.6152 c 0,1.1932 -0.892,2.1538 -2,2.1538 -1.108,0 -2,-0.9606 -2,-2.1538 v -11.6152 c 0,-1.1932 0.892,-2.1538 2,-2.1538 z"
       id="rect4645"
       inkscape:connector-curvature="0"
       sodipodi:nodetypes="sssssss" />
    <path
       style="opacity:1;fill:#7cb342;fill-opacity:1;stroke:none;stroke-width:4.15099525;stroke-linecap:round;stroke-linejoin:round;stroke-miterlimit:4;stroke-dasharray:none;stroke-opacity:1;paint-order:stroke markers fill"
       d="m 50,1083.5199 c 1.662,0 3,1.4409 3,3.2308 v 11.5381 c 0,1.7899 -1.338,3.2308 -3,3.2308 -1.662,0 -3,-1.4409 -3,-3.2308 v -11.5381 c 0,-1.7899 1.338,-3.2308 3,-3.2308 z"
       id="rect4647"
       inkscape:connector-curvature="0"
       sodipodi:nodetypes="sssssss" />
    <path
       style="opacity:1;fill:#9ccc65;fill-opacity:1;stroke:none;stroke-width:4.15099525;stroke-linecap:round;stroke-linejoin:round;stroke-miterlimit:4;stroke-dasharray:none;stroke-opacity:1;paint-order:stroke markers fill"
       d="m 50,1084.5968 c 1.108,0 2,0.9606 2,2.1538 v 11.6152 c 0,1.1932 -0.892,2.1538 -2,2.1538 -1.108,0 -2,-0.9606 -2,-2.1538 v -11.6152 c 0,-1.1932 0.892,-2.1538 2,-2.1538 z"
       id="rect4649"
       inkscape:connector-curvature="0"
       sodipodi:nodetypes="sssssss" />
    <path
       style="opacity:1;fill:#9ccc65;fill-opacity:1;stroke:none;stroke-width:4;stroke-linecap:round;stroke-linejoin:round;stroke-miterlimit:4;stroke-dasharray:none;stroke-opacity:1;paint-order:stroke markers fill"
       d="m 20,1084.5196 c -0.55397,0 -1,0.446 -1,1 v 6 1 h 1 24 1 v -1 -6 c 0,-0.554 -0.44603,-1 -1,-1 z"
       id="rect4661"
       inkscape:connector-curvature="0"
       sodipodi:nodetypes="ssccccccsss" />
    <circle
       style="opacity:1;fill:#689f38;fill-opacity:1;stroke:none;stroke-width:4;stroke-linecap:round;stroke-linejoin:round;stroke-miterlimit:4;stroke-dasharray:none;stroke-opacity:1;paint-order:stroke markers fill"
       id="path4675"
       cx="27.5"
       cy="1075.0197"
       r="1.5" />
    <circle
       r="1.5"
       cy="1075.0197"
       cx="36.499985"
       id="circle4677"
       style="opacity:1;fill:#689f38;fill-opacity:1;stroke:none;stroke-width:4;stroke-linecap:round;stroke-linejoin:round;stroke-miterlimit:4;stroke-dasharray:none;stroke-opacity:1;paint-order:stroke markers fill" />
    <path
       style="fill:#fafafa;fill-opacity:1;stroke:none;stroke-width:1px;stroke-linecap:butt;stroke-linejoin:miter;stroke-opacity:1"
       d="m 31,1095.5196 -5,-2.8868 v 6.7868 l 5,3 c 0,-2.6667 0,-4.2333 0,-6.9 z"
       id="path4752"
       inkscape:connector-curvature="0"
       sodipodi:nodetypes="ccccc" />
    <path
       inkscape:connector-curvature="0"
       id="path4754"
       d="m 33,1095.5196 5,-2.8868 v 6.7868 l -5,3 c 0,-2.6667 0,-4.2333 0,-6.9 z"
       style="fill:#fafafa;fill-opacity:1;stroke:none;stroke-width:1px;stroke-linecap:butt;stroke-linejoin:miter;stroke-opacity:1"
       sodipodi:nodetypes="ccccc" />
    <path
       style="fill:#fafafa;fill-opacity:1;stroke:none;stroke-width:1px;stroke-linecap:butt;stroke-linejoin:miter;stroke-opacity:1"
       d="m 32,1095.0196 -6,-3.5 5.999999,-3 6.000001,3 z"
       id="path4756"
       inkscape:connector-curvature="0"
       sodipodi:nodetypes="ccccc" />
    <g
       transform="translate(-1.9999924,-5.33e-5)"
       id="g4653">
      <circle
         style="fill:url(#radialGradient4257);fill-opacity:1"
         id="circle4253"
         cx="53.999992"
         cy="1073.5197"
         r="10" />
      <circle
         cy="1072.5195"
         cx="53.999992"
         id="circle4255"
         style="fill:#00bfa5;fill-opacity:1"
         r="9" />
      <path
         id="rect4612"
         transform="translate(0,1058.5196)"
         d="m 51.994141,7.4941406 a 0.50005,0.50005 0 0 0 -0.347657,0.859375 L 52.03125,8.7382812 A 3,3 0 0 0 51,11 h 6 A 3,3 0 0 0 55.966797,8.7402344 L 56.353516,8.3535156 A 0.50005,0.50005 0 0 0 55.990234,7.4960938 0.50005,0.50005 0 0 0 55.646484,7.6464844 L 55.087891,8.203125 A 3,3 0 0 0 54,8 3,3 0 0 0 52.914062,8.2070312 L 52.353516,7.6464844 A 0.50005,0.50005 0 0 0 51.994141,7.4941406 Z M 52.5,9 A 0.5,0.5 0 0 1 53,9.5 0.5,0.5 0 0 1 52.5,10 0.5,0.5 0 0 1 52,9.5 0.5,0.5 0 0 1 52.5,9 Z m 3,0 A 0.5,0.5 0 0 1 56,9.5 0.5,0.5 0 0 1 55.5,10 0.5,0.5 0 0 1 55,9.5 0.5,0.5 0 0 1 55.5,9 Z m -6,3 C 49.223,12 49,12.223 49,12.5 v 2 c 0,0.277 0.223,0.5 0.5,0.5 0.277,0 0.5,-0.223 0.5,-0.5 v -2 C 50,12.223 49.777,12 49.5,12 Z m 1.5,0 v 1 4 c 0,0.553971 0.446029,1 1,1 v 1.5 c 0,0.276999 0.223001,0.5 0.5,0.5 0.276999,0 0.5,-0.223001 0.5,-0.5 V 18 h 2 v 1.5 c 0,0.276999 0.223001,0.5 0.5,0.5 0.276999,0 0.5,-0.223001 0.5,-0.5 V 18 c 0.553971,0 1,-0.446029 1,-1 v -4 -1 h -1 -4 z m 7.5,0 C 58.223,12 58,12.223 58,12.5 v 2 c 0,0.277 0.223,0.5 0.5,0.5 0.277,0 0.5,-0.223 0.5,-0.5 v -2 C 59,12.223 58.777,12 58.5,12 Z"
         style="opacity:1;fill:#fafafa;fill-opacity:1;stroke:none;stroke-width:2;stroke-linecap:round;stroke-linejoin:round;stroke-miterlimit:4;stroke-dasharray:none;stroke-opacity:1;paint-order:stroke markers fill"
         inkscape:connector-curvature="0" />
    </g>
    <path
       style="color:#000000;font-style:normal;font-variant:normal;font-weight:normal;font-stretch:normal;font-size:medium;line-height:normal;font-family:sans-serif;font-variant-ligatures:normal;font-variant-position:normal;font-variant-caps:normal;font-variant-numeric:normal;font-variant-alternates:normal;font-feature-settings:normal;text-indent:0;text-align:start;text-decoration:none;text-decoration-line:none;text-decoration-style:solid;text-decoration-color:#000000;letter-spacing:normal;word-spacing:normal;text-transform:none;writing-mode:lr-tb;direction:ltr;text-orientation:mixed;dominant-baseline:auto;baseline-shift:baseline;text-anchor:start;white-space:normal;shape-padding:0;clip-rule:nonzero;display:inline;overflow:visible;visibility:visible;opacity:1;isolation:auto;mix-blend-mode:normal;color-interpolation:sRGB;color-interpolation-filters:linearRGB;solid-color:#000000;solid-opacity:1;vector-effect:none;fill:#9ccc65;fill-opacity:1;fill-rule:nonzero;stroke:none;stroke-width:2;stroke-linecap:round;stroke-linejoin:miter;stroke-miterlimit:4;stroke-dasharray:none;stroke-dashoffset:0;stroke-opacity:1;color-rendering:auto;image-rendering:auto;shape-rendering:auto;text-rendering:auto;enable-background:accumulate"
       d="m 21.990234,1066.5098 a 1.0001,1.0001 0 0 0 -0.697265,1.7168 l 5,5 a 1.0001,1.0001 0 1 0 1.414062,-1.4141 l -5,-5 a 1.0001,1.0001 0 0 0 -0.716797,-0.3027 z"
       id="path4681"
       inkscape:connector-curvature="0" />
    <path
       style="color:#000000;font-style:normal;font-variant:normal;font-weight:normal;font-stretch:normal;font-size:medium;line-height:normal;font-family:sans-serif;font-variant-ligatures:normal;font-variant-position:normal;font-variant-caps:normal;font-variant-numeric:normal;font-variant-alternates:normal;font-feature-settings:normal;text-indent:0;text-align:start;text-decoration:none;text-decoration-line:none;text-decoration-style:solid;text-decoration-color:#000000;letter-spacing:normal;word-spacing:normal;text-transform:none;writing-mode:lr-tb;direction:ltr;text-orientation:mixed;dominant-baseline:auto;baseline-shift:baseline;text-anchor:start;white-space:normal;shape-padding:0;clip-rule:nonzero;display:inline;overflow:visible;visibility:visible;opacity:1;isolation:auto;mix-blend-mode:normal;color-interpolation:sRGB;color-interpolation-filters:linearRGB;solid-color:#000000;solid-opacity:1;vector-effect:none;fill:#9ccc65;fill-opacity:1;fill-rule:nonzero;stroke:none;stroke-width:2;stroke-linecap:round;stroke-linejoin:miter;stroke-miterlimit:4;stroke-dasharray:none;stroke-dashoffset:0;stroke-opacity:1;color-rendering:auto;image-rendering:auto;shape-rendering:auto;text-rendering:auto;enable-background:accumulate"
       d="m 40.980469,1066.5098 a 1.0001,1.0001 0 0 0 -0.6875,0.3027 l -5,5 a 1.0001,1.0001 0 1 0 1.414062,1.4141 l 5,-5 a 1.0001,1.0001 0 0 0 -0.726562,-1.7168 z"
       id="path4685"
       inkscape:connector-curvature="0" />
  </g>
</svg>
