<?xml version="1.0" encoding="UTF-8" standalone="no"?>
<!-- Created with Inkscape (http://www.inkscape.org/) -->

<svg
   xmlns:dc="http://purl.org/dc/elements/1.1/"
   xmlns:cc="http://creativecommons.org/ns#"
   xmlns:rdf="http://www.w3.org/1999/02/22-rdf-syntax-ns#"
   xmlns:svg="http://www.w3.org/2000/svg"
   xmlns="http://www.w3.org/2000/svg"
   xmlns:xlink="http://www.w3.org/1999/xlink"
   xmlns:sodipodi="http://sodipodi.sourceforge.net/DTD/sodipodi-0.dtd"
   xmlns:inkscape="http://www.inkscape.org/namespaces/inkscape"
   width="64"
   height="64"
   viewBox="0 0 64 64.000003"
   id="svg2"
   version="1.1"
   inkscape:version="0.92.1 r15371"
   sodipodi:docname="anbox-com-android-calendar.svg"
   inkscape:export-filename="/home/uri/Git/luv-icon-theme/Anbox/64/anbox-com-android-calendar.png"
   inkscape:export-xdpi="96"
   inkscape:export-ydpi="96">
  <defs
     id="defs4">
    <radialGradient
       inkscape:collect="always"
       xlink:href="#Shadow"
       id="radialGradient4257"
       gradientUnits="userSpaceOnUse"
       gradientTransform="matrix(0.90909091,0,0,0.90909091,24.909071,76.683207)"
       cx="32"
       cy="1096.5197"
       fx="32"
       fy="1096.5197"
       r="11" />
    <linearGradient
       inkscape:collect="always"
       id="Shadow">
      <stop
         style="stop-color:#000000;stop-opacity:1;"
         offset="0"
         id="stop4186" />
      <stop
         style="stop-color:#000000;stop-opacity:0;"
         offset="1"
         id="stop4188" />
    </linearGradient>
    <filter
       inkscape:collect="always"
       style="color-interpolation-filters:sRGB"
       id="filter4716"
       x="-0.034666667"
       width="1.0693333"
       y="-0.03744"
       height="1.07488">
      <feGaussianBlur
         inkscape:collect="always"
         stdDeviation="0.78"
         id="feGaussianBlur4718" />
    </filter>
  </defs>
  <sodipodi:namedview
     id="base"
     pagecolor="#ffffff"
     bordercolor="#666666"
     borderopacity="1.0"
     inkscape:pageopacity="0.0"
     inkscape:pageshadow="2"
     inkscape:zoom="25.875"
     inkscape:cx="30.848763"
     inkscape:cy="49.693705"
     inkscape:document-units="px"
     inkscape:current-layer="layer1"
     showgrid="true"
     units="px"
     inkscape:showpageshadow="false"
     borderlayer="true"
     inkscape:window-width="2560"
     inkscape:window-height="1018"
     inkscape:window-x="0"
     inkscape:window-y="32"
     inkscape:window-maximized="1"
     showguides="true"
     guidetolerance="10000"
     inkscape:guide-bbox="true">
    <inkscape:grid
       type="xygrid"
       id="grid4136" />
    <sodipodi:guide
       position="5,59.000069"
       orientation="54,0"
       id="guide4142"
       inkscape:locked="false" />
    <sodipodi:guide
       position="5,5.0000688"
       orientation="0,54"
       id="guide4144"
       inkscape:locked="false" />
    <sodipodi:guide
       position="59,5.0000688"
       orientation="-54,0"
       id="guide4146"
       inkscape:locked="false" />
    <sodipodi:guide
       position="59,59.000069"
       orientation="0,-54"
       id="guide4148"
       inkscape:locked="false" />
    <sodipodi:guide
       position="0,64.000069"
       orientation="64,0"
       id="guide4150"
       inkscape:locked="false" />
    <sodipodi:guide
       position="0,6.875e-05"
       orientation="0,64"
       id="guide4152"
       inkscape:locked="false" />
    <sodipodi:guide
       position="33.000001,42.000001"
       orientation="0,1"
       id="guide4523"
       inkscape:locked="false" />
    <sodipodi:guide
       position="32,35.000002"
       orientation="1,0"
       id="guide4573"
       inkscape:locked="false" />
  </sodipodi:namedview>
  <metadata
     id="metadata7">
    <rdf:RDF>
      <cc:Work
         rdf:about="">
        <dc:format>image/svg+xml</dc:format>
        <dc:type
           rdf:resource="http://purl.org/dc/dcmitype/StillImage" />
        <dc:title />
      </cc:Work>
    </rdf:RDF>
  </metadata>
  <g
     inkscape:label="Capa 1"
     inkscape:groupmode="layer"
     id="layer1"
     transform="translate(0,-1058.5196)">
    <path
       style="fill:#000000;fill-opacity:1;opacity:0.2;filter:url(#filter4716)"
       d="m 15,1069.5196 c -0.55397,0 -1,0.446 -1,1 v 1 H 8.1914062 C 6.4232788,1071.5196 5,1072.9429 5,1074.711 v 6.8086 34.8086 c 0,1.7681 1.4232788,3.1914 3.1914062,3.1914 H 55.808594 c 1.768127,0 3.191406,-1.4233 3.191406,-3.1914 v -34.8086 -6.8086 c 0,-1.7681 -1.423279,-3.1914 -3.191406,-3.1914 H 50 v -1 c 0,-0.554 -0.44603,-1 -1,-1 h -2 c -0.55397,0 -1,0.446 -1,1 v 1 h -6 v -1 c 0,-0.554 -0.44603,-1 -1,-1 h -2 c -0.55397,0 -1,0.446 -1,1 v 1 h -8 v -1 c 0,-0.554 -0.44603,-1 -1,-1 h -2 c -0.55397,0 -1,0.446 -1,1 v 1 h -6 v -1 c 0,-0.554 -0.44603,-1 -1,-1 z"
       id="path4695"
       inkscape:connector-curvature="0" />
    <path
       style="fill:#455a64;fill-opacity:1"
       d="M 59 21 L 5 21 L 5 55.808594 C 5 57.576721 6.4232787 59 8.1914062 59 L 55.808594 59 C 57.576721 59 59 57.576721 59 55.808594 L 59 21 z "
       id="path4525"
       transform="translate(0,1058.5196)" />
    <path
       style="fill:#d81b60;fill-opacity:1"
       d="M 8.1914062 11 C 6.4232787 11 5 12.423279 5 14.191406 L 5 21 L 59 21 L 59 14.191406 C 59 12.423279 57.576721 11 55.808594 11 L 8.1914062 11 z "
       id="rect3362"
       transform="translate(0,1058.5196)" />
    <path
       style="fill:#ec407a;fill-opacity:1"
       d="m 8,12 c -1.1079705,0 -2,0.89203 -2,2 v 6 h 52 v -6 c 0,-1.10797 -0.89203,-2 -2,-2 z"
       transform="translate(0,1058.5196)"
       id="rect4517"
       inkscape:connector-curvature="0"
       sodipodi:nodetypes="ssccsss" />
    <path
       style="opacity:1;fill:#f5f5f5;fill-opacity:1;stroke:none;stroke-width:2;stroke-linecap:round;stroke-linejoin:round;stroke-miterlimit:4;stroke-dasharray:none;stroke-opacity:1;paint-order:stroke markers fill"
       d="M 6 22 L 6 24 L 6 56 C 6 57.10797 6.8920295 58 8 58 L 56 58 C 57.10797 58 58 57.10797 58 56 L 58 24 L 58 22 L 56 22 L 8 22 L 6 22 z "
       transform="translate(0,1058.5196)"
       id="rect4527" />
    <path
       style="opacity:1;fill:#455a64;fill-opacity:1;stroke:none;stroke-width:2;stroke-linecap:round;stroke-linejoin:round;stroke-miterlimit:4;stroke-dasharray:none;stroke-opacity:1;paint-order:stroke markers fill"
       d="m 23,1086.5196 -4,5 h 4 v 14 h -2 v 3 h 8 v -3 h -2 v -19 z m 11,0 -2,4.4004 h 7.5 l -4.099609,17.5996 H 40 l 5,-22 z"
       id="rect4562"
       inkscape:connector-curvature="0" />
    <circle
       style="opacity:1;fill:#d81b60;fill-opacity:1;stroke:none;stroke-width:2;stroke-linecap:round;stroke-linejoin:round;stroke-miterlimit:4;stroke-dasharray:none;stroke-opacity:1;paint-order:stroke markers fill"
       id="path4656"
       cx="26.000004"
       cy="1074.5197"
       r="3" />
    <circle
       r="2"
       cy="1074.5197"
       cx="26.000004"
       id="circle4663"
       style="opacity:1;fill:#c2185b;fill-opacity:1;stroke:none;stroke-width:1.33333337;stroke-linecap:round;stroke-linejoin:round;stroke-miterlimit:4;stroke-dasharray:none;stroke-opacity:1;paint-order:stroke markers fill" />
    <path
       style="opacity:1;fill:#757575;fill-opacity:1;stroke:none;stroke-width:2;stroke-linecap:round;stroke-linejoin:round;stroke-miterlimit:4;stroke-dasharray:none;stroke-opacity:1;paint-order:stroke markers fill"
       d="m 25,1067.5196 c -0.55397,0 -1,0.446 -1,1 v 1 5 c 0,0.554 0.44603,1 1,1 h 2 c 0.55397,0 1.011078,-0.4461 1,-1 v -5 -1 c 0,-0.554 -0.44603,-1 -1,-1 z"
       id="path4590"
       inkscape:connector-curvature="0" />
    <rect
       style="opacity:1;fill:#bdbdbd;fill-opacity:1;stroke:none;stroke-width:2;stroke-linecap:round;stroke-linejoin:round;stroke-miterlimit:4;stroke-dasharray:none;stroke-opacity:1;paint-order:stroke markers fill"
       id="rect4658"
       width="2"
       height="5"
       x="25"
       y="1069.5197"
       ry="0" />
    <rect
       style="opacity:1;fill:#e0e0e0;fill-opacity:1;stroke:none;stroke-width:2;stroke-linecap:round;stroke-linejoin:round;stroke-miterlimit:4;stroke-dasharray:none;stroke-opacity:1;paint-order:stroke markers fill"
       id="rect4660"
       width="2"
       height="1"
       x="25"
       y="1068.5197" />
    <circle
       r="3"
       cy="1074.5197"
       cx="14.000004"
       id="circle4665"
       style="opacity:1;fill:#d81b60;fill-opacity:1;stroke:none;stroke-width:2;stroke-linecap:round;stroke-linejoin:round;stroke-miterlimit:4;stroke-dasharray:none;stroke-opacity:1;paint-order:stroke markers fill" />
    <circle
       style="opacity:1;fill:#c2185b;fill-opacity:1;stroke:none;stroke-width:1.33333337;stroke-linecap:round;stroke-linejoin:round;stroke-miterlimit:4;stroke-dasharray:none;stroke-opacity:1;paint-order:stroke markers fill"
       id="circle4667"
       cx="14.000004"
       cy="1074.5197"
       r="2" />
    <path
       inkscape:connector-curvature="0"
       id="path4669"
       d="m 13,1067.5196 c -0.55397,0 -1,0.446 -1,1 v 1 5 c 0,0.554 0.44603,1 1,1 h 2 c 0.55397,0 1.011078,-0.4461 1,-1 v -5 -1 c 0,-0.554 -0.44603,-1 -1,-1 z"
       style="opacity:1;fill:#757575;fill-opacity:1;stroke:none;stroke-width:2;stroke-linecap:round;stroke-linejoin:round;stroke-miterlimit:4;stroke-dasharray:none;stroke-opacity:1;paint-order:stroke markers fill" />
    <rect
       ry="0"
       y="1069.5197"
       x="13"
       height="5"
       width="2"
       id="rect4671"
       style="opacity:1;fill:#bdbdbd;fill-opacity:1;stroke:none;stroke-width:2;stroke-linecap:round;stroke-linejoin:round;stroke-miterlimit:4;stroke-dasharray:none;stroke-opacity:1;paint-order:stroke markers fill" />
    <rect
       y="1068.5197"
       x="13"
       height="1"
       width="2"
       id="rect4673"
       style="opacity:1;fill:#e0e0e0;fill-opacity:1;stroke:none;stroke-width:2;stroke-linecap:round;stroke-linejoin:round;stroke-miterlimit:4;stroke-dasharray:none;stroke-opacity:1;paint-order:stroke markers fill" />
    <circle
       style="opacity:1;fill:#d81b60;fill-opacity:1;stroke:none;stroke-width:2;stroke-linecap:round;stroke-linejoin:round;stroke-miterlimit:4;stroke-dasharray:none;stroke-opacity:1;paint-order:stroke markers fill"
       id="circle4675"
       cx="38.000004"
       cy="1074.5197"
       r="3" />
    <circle
       r="2"
       cy="1074.5197"
       cx="38.000004"
       id="circle4677"
       style="opacity:1;fill:#c2185b;fill-opacity:1;stroke:none;stroke-width:1.33333337;stroke-linecap:round;stroke-linejoin:round;stroke-miterlimit:4;stroke-dasharray:none;stroke-opacity:1;paint-order:stroke markers fill" />
    <path
       style="opacity:1;fill:#757575;fill-opacity:1;stroke:none;stroke-width:2;stroke-linecap:round;stroke-linejoin:round;stroke-miterlimit:4;stroke-dasharray:none;stroke-opacity:1;paint-order:stroke markers fill"
       d="m 37,1067.5196 c -0.55397,0 -1,0.446 -1,1 v 1 5 c 0,0.554 0.44603,1 1,1 h 2 c 0.55397,0 1.011078,-0.4461 1,-1 v -5 -1 c 0,-0.554 -0.44603,-1 -1,-1 z"
       id="path4679"
       inkscape:connector-curvature="0" />
    <rect
       style="opacity:1;fill:#bdbdbd;fill-opacity:1;stroke:none;stroke-width:2;stroke-linecap:round;stroke-linejoin:round;stroke-miterlimit:4;stroke-dasharray:none;stroke-opacity:1;paint-order:stroke markers fill"
       id="rect4681"
       width="2"
       height="5"
       x="37"
       y="1069.5197"
       ry="0" />
    <rect
       style="opacity:1;fill:#e0e0e0;fill-opacity:1;stroke:none;stroke-width:2;stroke-linecap:round;stroke-linejoin:round;stroke-miterlimit:4;stroke-dasharray:none;stroke-opacity:1;paint-order:stroke markers fill"
       id="rect4683"
       width="2"
       height="1"
       x="37"
       y="1068.5197" />
    <g
       id="g4653">
      <circle
         style="fill:url(#radialGradient4257);fill-opacity:1"
         id="circle4253"
         cx="53.999992"
         cy="1073.5197"
         r="10" />
      <circle
         cy="1072.5195"
         cx="53.999992"
         id="circle4255"
         style="fill:#00bfa5;fill-opacity:1"
         r="9" />
      <path
         id="rect4612"
         transform="translate(0,1058.5196)"
         d="m 51.994141,7.4941406 a 0.50005,0.50005 0 0 0 -0.347657,0.859375 L 52.03125,8.7382812 A 3,3 0 0 0 51,11 h 6 A 3,3 0 0 0 55.966797,8.7402344 L 56.353516,8.3535156 A 0.50005,0.50005 0 0 0 55.990234,7.4960938 0.50005,0.50005 0 0 0 55.646484,7.6464844 L 55.087891,8.203125 A 3,3 0 0 0 54,8 3,3 0 0 0 52.914062,8.2070312 L 52.353516,7.6464844 A 0.50005,0.50005 0 0 0 51.994141,7.4941406 Z M 52.5,9 A 0.5,0.5 0 0 1 53,9.5 0.5,0.5 0 0 1 52.5,10 0.5,0.5 0 0 1 52,9.5 0.5,0.5 0 0 1 52.5,9 Z m 3,0 A 0.5,0.5 0 0 1 56,9.5 0.5,0.5 0 0 1 55.5,10 0.5,0.5 0 0 1 55,9.5 0.5,0.5 0 0 1 55.5,9 Z m -6,3 C 49.223,12 49,12.223 49,12.5 v 2 c 0,0.277 0.223,0.5 0.5,0.5 0.277,0 0.5,-0.223 0.5,-0.5 v -2 C 50,12.223 49.777,12 49.5,12 Z m 1.5,0 v 1 4 c 0,0.553971 0.446029,1 1,1 v 1.5 c 0,0.276999 0.223001,0.5 0.5,0.5 0.276999,0 0.5,-0.223001 0.5,-0.5 V 18 h 2 v 1.5 c 0,0.276999 0.223001,0.5 0.5,0.5 0.276999,0 0.5,-0.223001 0.5,-0.5 V 18 c 0.553971,0 1,-0.446029 1,-1 v -4 -1 h -1 -4 z m 7.5,0 C 58.223,12 58,12.223 58,12.5 v 2 c 0,0.277 0.223,0.5 0.5,0.5 0.277,0 0.5,-0.223 0.5,-0.5 v -2 C 59,12.223 58.777,12 58.5,12 Z"
         style="opacity:1;fill:#fafafa;fill-opacity:1;stroke:none;stroke-width:2;stroke-linecap:round;stroke-linejoin:round;stroke-miterlimit:4;stroke-dasharray:none;stroke-opacity:1;paint-order:stroke markers fill"
         inkscape:connector-curvature="0" />
    </g>
    <path
       style="opacity:1;fill:#bdbdbd;fill-opacity:1;stroke:none;stroke-width:2;stroke-linecap:round;stroke-linejoin:round;stroke-miterlimit:4;stroke-dasharray:none;stroke-opacity:1;paint-order:stroke markers fill"
       d="M 58 56 L 6 56 C 6 57.10797 6.8920295 58 8 58 L 56 58 C 57.10797 58 58 57.10797 58 56 z "
       id="path4725"
       transform="translate(0,1058.5196)" />
  </g>
</svg>
