<?xml version="1.0" encoding="UTF-8" standalone="no"?>
<!-- Created with Inkscape (http://www.inkscape.org/) -->

<svg
   xmlns:dc="http://purl.org/dc/elements/1.1/"
   xmlns:cc="http://creativecommons.org/ns#"
   xmlns:rdf="http://www.w3.org/1999/02/22-rdf-syntax-ns#"
   xmlns:svg="http://www.w3.org/2000/svg"
   xmlns="http://www.w3.org/2000/svg"
   xmlns:xlink="http://www.w3.org/1999/xlink"
   xmlns:sodipodi="http://sodipodi.sourceforge.net/DTD/sodipodi-0.dtd"
   xmlns:inkscape="http://www.inkscape.org/namespaces/inkscape"
   width="64"
   height="64"
   viewBox="0 0 64 64.000003"
   id="svg2"
   version="1.1"
   inkscape:version="0.92.1 r15371"
   sodipodi:docname="anbox-com-android-music.svg"
   inkscape:export-filename="/home/uri/Git/luv-icon-theme/Anbox/64/anbox-com-android-music.png"
   inkscape:export-xdpi="96"
   inkscape:export-ydpi="96">
  <defs
     id="defs4">
    <filter
       inkscape:collect="always"
       style="color-interpolation-filters:sRGB"
       id="filter920"
       x="-0.036"
       width="1.072"
       y="-0.036"
       height="1.072">
      <feGaussianBlur
         inkscape:collect="always"
         stdDeviation="0.78"
         id="feGaussianBlur922" />
    </filter>
    <radialGradient
       inkscape:collect="always"
       xlink:href="#Shadow"
       id="radialGradient4257"
       gradientUnits="userSpaceOnUse"
       gradientTransform="matrix(0.90909091,0,0,0.90909091,24.909071,76.683207)"
       cx="32"
       cy="1096.5197"
       fx="32"
       fy="1096.5197"
       r="11" />
    <linearGradient
       inkscape:collect="always"
       id="Shadow">
      <stop
         style="stop-color:#000000;stop-opacity:1;"
         offset="0"
         id="stop4186" />
      <stop
         style="stop-color:#000000;stop-opacity:0;"
         offset="1"
         id="stop4188" />
    </linearGradient>
  </defs>
  <sodipodi:namedview
     id="base"
     pagecolor="#ffffff"
     bordercolor="#666666"
     borderopacity="1.0"
     inkscape:pageopacity="0.0"
     inkscape:pageshadow="2"
     inkscape:zoom="11.313708"
     inkscape:cx="25.133857"
     inkscape:cy="29.430866"
     inkscape:document-units="px"
     inkscape:current-layer="layer1"
     showgrid="true"
     units="px"
     inkscape:showpageshadow="false"
     borderlayer="true"
     inkscape:window-width="2560"
     inkscape:window-height="1018"
     inkscape:window-x="0"
     inkscape:window-y="32"
     inkscape:window-maximized="1"
     showguides="true"
     inkscape:guide-bbox="true"
     inkscape:measure-start="0,0"
     inkscape:measure-end="0,0">
    <inkscape:grid
       type="xygrid"
       id="grid4136" />
    <sodipodi:guide
       position="5,5.0000688"
       orientation="0,54"
       id="guide4144"
       inkscape:locked="false" />
    <sodipodi:guide
       position="59,5.0000688"
       orientation="-54,0"
       id="guide4146"
       inkscape:locked="false" />
    <sodipodi:guide
       position="59,59.000069"
       orientation="0,-54"
       id="guide4148"
       inkscape:locked="false" />
    <sodipodi:guide
       position="0,64.000069"
       orientation="64,0"
       id="guide4150"
       inkscape:locked="false" />
    <sodipodi:guide
       position="0,6.875e-05"
       orientation="0,64"
       id="guide4152"
       inkscape:locked="false" />
    <sodipodi:guide
       position="64,4.0000002"
       orientation="-64,0"
       id="guide4154"
       inkscape:locked="false" />
    <sodipodi:guide
       position="64,64.000069"
       orientation="0,-64"
       id="guide4156"
       inkscape:locked="false" />
    <sodipodi:guide
       position="5,41.000002"
       orientation="1,0"
       id="guide4174"
       inkscape:locked="false" />
    <sodipodi:guide
       position="32,30.000001"
       orientation="1,0"
       id="guide895"
       inkscape:locked="false" />
    <sodipodi:guide
       position="33,31.000001"
       orientation="0,1"
       id="guide897"
       inkscape:locked="false" />
  </sodipodi:namedview>
  <metadata
     id="metadata7">
    <rdf:RDF>
      <cc:Work
         rdf:about="">
        <dc:format>image/svg+xml</dc:format>
        <dc:type
           rdf:resource="http://purl.org/dc/dcmitype/StillImage" />
        <dc:title />
      </cc:Work>
    </rdf:RDF>
  </metadata>
  <g
     inkscape:label="Capa 1"
     inkscape:groupmode="layer"
     id="layer1"
     transform="translate(0,-1058.5196)">
    <path
       style="opacity:0.2;fill:#000000;fill-opacity:1;stroke:none;stroke-width:0.12;stroke-opacity:1;filter:url(#filter920)"
       d="M 32,1067.5196 A 26,26 0 0 0 15.837891,1073.1524 3,3 0 0 0 14,1072.5196 a 3,3 0 0 0 -3,3 3,3 0 0 0 0.648438,1.8613 A 26,26 0 0 0 6,1093.5196 26,26 0 0 0 11.632812,1109.6817 3,3 0 0 0 11,1111.5196 a 3,3 0 0 0 3,3 3,3 0 0 0 1.863281,-0.6484 A 26,26 0 0 0 32,1119.5196 26,26 0 0 0 48.162109,1113.8868 3,3 0 0 0 50,1114.5196 a 3,3 0 0 0 3,-3 3,3 0 0 0 -0.648438,-1.8613 A 26,26 0 0 0 58,1093.5196 26,26 0 0 0 52.367188,1077.3575 3,3 0 0 0 53,1075.5196 a 3,3 0 0 0 -3,-3 3,3 0 0 0 -1.861328,0.6484 A 26,26 0 0 0 32,1067.5196 Z"
       id="circle901"
       inkscape:connector-curvature="0" />
    <circle
       style="opacity:1;fill:#757575;fill-opacity:1;stroke:none;stroke-width:0.12;stroke-opacity:1"
       id="circle887"
       cx="14"
       cy="1109.5198"
       r="3" />
    <circle
       r="3"
       cy="1109.5198"
       cx="50"
       id="circle889"
       style="opacity:1;fill:#757575;fill-opacity:1;stroke:none;stroke-width:0.12;stroke-opacity:1" />
    <circle
       r="3"
       cy="1073.5198"
       cx="14"
       id="circle879"
       style="opacity:1;fill:#757575;fill-opacity:1;stroke:none;stroke-width:0.12;stroke-opacity:1" />
    <circle
       style="opacity:1;fill:#757575;fill-opacity:1;stroke:none;stroke-width:0.12;stroke-opacity:1"
       id="circle883"
       cx="50"
       cy="1073.5198"
       r="3" />
    <circle
       style="opacity:1;fill:#757575;fill-opacity:1;stroke:none;stroke-opacity:1"
       id="path4160"
       cx="32"
       cy="1091.5194"
       r="26" />
    <circle
       r="2"
       cy="1109.5198"
       cx="14"
       id="circle891"
       style="opacity:1;fill:#9e9e9e;fill-opacity:1;stroke:none;stroke-width:0.08;stroke-opacity:1" />
    <circle
       style="opacity:1;fill:#9e9e9e;fill-opacity:1;stroke:none;stroke-width:0.08;stroke-opacity:1"
       id="circle881"
       cx="14"
       cy="1073.5198"
       r="2" />
    <circle
       r="2"
       cy="1073.5198"
       cx="50"
       id="circle885"
       style="opacity:1;fill:#9e9e9e;fill-opacity:1;stroke:none;stroke-width:0.08;stroke-opacity:1" />
    <circle
       style="opacity:1;fill:#9e9e9e;fill-opacity:1;stroke:none;stroke-width:0.08;stroke-opacity:1"
       id="circle893"
       cx="50"
       cy="1109.5198"
       r="2" />
    <circle
       r="25"
       cy="1091.5198"
       cx="32"
       id="circle4251"
       style="opacity:1;fill:#ffd54f;fill-opacity:1;stroke:none;stroke-opacity:1" />
    <circle
       style="opacity:1;fill:#424242;fill-opacity:1;stroke:none;stroke-width:0.95999998;stroke-opacity:1"
       id="circle869"
       cx="32"
       cy="1091.5198"
       r="24" />
    <circle
       r="21"
       cy="1091.5198"
       cx="32"
       id="circle871"
       style="opacity:1;fill:#9e9e9e;fill-opacity:1;stroke:none;stroke-width:0.83999991;stroke-opacity:1" />
    <circle
       style="opacity:1;fill:#424242;fill-opacity:1;stroke:none;stroke-width:0.35999998;stroke-opacity:1"
       id="circle873"
       cx="32"
       cy="1091.5198"
       r="9" />
    <g
       transform="translate(-1.9999924,-5.325e-5)"
       id="g4653">
      <circle
         style="fill:url(#radialGradient4257);fill-opacity:1"
         id="circle4253"
         cx="53.999992"
         cy="1073.5197"
         r="10" />
      <circle
         cy="1072.5195"
         cx="53.999992"
         id="circle4255"
         style="fill:#00bfa5;fill-opacity:1"
         r="9" />
      <path
         id="rect4612"
         transform="translate(0,1058.5196)"
         d="m 51.994141,7.4941406 a 0.50005,0.50005 0 0 0 -0.347657,0.859375 L 52.03125,8.7382812 A 3,3 0 0 0 51,11 h 6 A 3,3 0 0 0 55.966797,8.7402344 L 56.353516,8.3535156 A 0.50005,0.50005 0 0 0 55.990234,7.4960938 0.50005,0.50005 0 0 0 55.646484,7.6464844 L 55.087891,8.203125 A 3,3 0 0 0 54,8 3,3 0 0 0 52.914062,8.2070312 L 52.353516,7.6464844 A 0.50005,0.50005 0 0 0 51.994141,7.4941406 Z M 52.5,9 A 0.5,0.5 0 0 1 53,9.5 0.5,0.5 0 0 1 52.5,10 0.5,0.5 0 0 1 52,9.5 0.5,0.5 0 0 1 52.5,9 Z m 3,0 A 0.5,0.5 0 0 1 56,9.5 0.5,0.5 0 0 1 55.5,10 0.5,0.5 0 0 1 55,9.5 0.5,0.5 0 0 1 55.5,9 Z m -6,3 C 49.223,12 49,12.223 49,12.5 v 2 c 0,0.277 0.223,0.5 0.5,0.5 0.277,0 0.5,-0.223 0.5,-0.5 v -2 C 50,12.223 49.777,12 49.5,12 Z m 1.5,0 v 1 4 c 0,0.553971 0.446029,1 1,1 v 1.5 c 0,0.276999 0.223001,0.5 0.5,0.5 0.276999,0 0.5,-0.223001 0.5,-0.5 V 18 h 2 v 1.5 c 0,0.276999 0.223001,0.5 0.5,0.5 0.276999,0 0.5,-0.223001 0.5,-0.5 V 18 c 0.553971,0 1,-0.446029 1,-1 v -4 -1 h -1 -4 z m 7.5,0 C 58.223,12 58,12.223 58,12.5 v 2 c 0,0.277 0.223,0.5 0.5,0.5 0.277,0 0.5,-0.223 0.5,-0.5 v -2 C 59,12.223 58.777,12 58.5,12 Z"
         style="opacity:1;fill:#fafafa;fill-opacity:1;stroke:none;stroke-width:2;stroke-linecap:round;stroke-linejoin:round;stroke-miterlimit:4;stroke-dasharray:none;stroke-opacity:1;paint-order:stroke markers fill"
         inkscape:connector-curvature="0" />
    </g>
  </g>
</svg>
