<?xml version="1.0" encoding="UTF-8" standalone="no"?>
<!-- Created with Inkscape (http://www.inkscape.org/) -->

<svg
   xmlns:dc="http://purl.org/dc/elements/1.1/"
   xmlns:cc="http://creativecommons.org/ns#"
   xmlns:rdf="http://www.w3.org/1999/02/22-rdf-syntax-ns#"
   xmlns:svg="http://www.w3.org/2000/svg"
   xmlns="http://www.w3.org/2000/svg"
   xmlns:xlink="http://www.w3.org/1999/xlink"
   xmlns:sodipodi="http://sodipodi.sourceforge.net/DTD/sodipodi-0.dtd"
   xmlns:inkscape="http://www.inkscape.org/namespaces/inkscape"
   width="64"
   height="64"
   viewBox="0 0 64 64.000003"
   id="svg2"
   version="1.1"
   inkscape:version="0.91 r13725"
   sodipodi:docname="application-x-executable.svg">
  <defs
     id="defs4">
    <linearGradient
       inkscape:collect="always"
       id="linearGradient4489">
      <stop
         style="stop-color:#000000;stop-opacity:1"
         offset="0"
         id="stop4491" />
      <stop
         id="stop4501"
         offset="0.68600875"
         style="stop-color:#000000;stop-opacity:0.54901961;" />
      <stop
         id="stop4499"
         offset="0.88777602"
         style="stop-color:#000000;stop-opacity:0" />
      <stop
         style="stop-color:#000000;stop-opacity:0;"
         offset="1"
         id="stop4493" />
    </linearGradient>
    <style
       id="current-color-scheme"
       type="text/css">
      .ColorScheme-Text {
        color:#4d4d4d;
      }
      .ColorScheme-Background {
        color:#eff0f1;
      }
      .ColorScheme-Highlight {
        color:#3daee9;
      }
      .ColorScheme-ViewText {
        color:#31363b;
      }
      .ColorScheme-ViewBackground {
        color:#fcfcfc;
      }
      .ColorScheme-ViewHover {
        color:#93cee9;
      }
      .ColorScheme-ViewFocus{
        color:#3daee9;
      }
      .ColorScheme-ButtonText {
        color:#31363b;
      }
      .ColorScheme-ButtonBackground {
        color:#eff0f1;
      }
      .ColorScheme-ButtonHover {
        color:#93cee9;
      }
      .ColorScheme-ButtonFocus{
        color:#3daee9;
      }
      </style>
    <radialGradient
       inkscape:collect="always"
       xlink:href="#linearGradient4489"
       id="radialGradient4497"
       cx="32"
       cy="1092.5196"
       fx="32"
       fy="1092.5196"
       r="24.781025"
       gradientTransform="matrix(1,0,0,1.0895433,0,-97.827828)"
       gradientUnits="userSpaceOnUse" />
  </defs>
  <sodipodi:namedview
     id="base"
     pagecolor="#ffffff"
     bordercolor="#666666"
     borderopacity="1.0"
     inkscape:pageopacity="0.0"
     inkscape:pageshadow="2"
     inkscape:zoom="12.234375"
     inkscape:cx="31.510192"
     inkscape:cy="38.37143"
     inkscape:document-units="px"
     inkscape:current-layer="layer1"
     showgrid="true"
     units="px"
     inkscape:showpageshadow="false"
     borderlayer="true"
     inkscape:window-width="2560"
     inkscape:window-height="963"
     inkscape:window-x="0"
     inkscape:window-y="30"
     inkscape:window-maximized="1"
     showguides="true"
     inkscape:guide-bbox="true">
    <inkscape:grid
       type="xygrid"
       id="grid4136"
       empspacing="2" />
    <sodipodi:guide
       position="5,5.0000688"
       orientation="0,54"
       id="guide4144" />
    <sodipodi:guide
       position="59,59.000069"
       orientation="0,-54"
       id="guide4148" />
    <sodipodi:guide
       position="32,29.000001"
       orientation="64,0"
       id="guide4150" />
    <sodipodi:guide
       position="0,6.875e-05"
       orientation="0,64"
       id="guide4152" />
    <sodipodi:guide
       position="64,31.000001"
       orientation="-64,0"
       id="guide4154" />
    <sodipodi:guide
       position="64,64.000069"
       orientation="0,-64"
       id="guide4156" />
    <sodipodi:guide
       position="12,34.000002"
       orientation="38,0"
       id="guide4155" />
    <sodipodi:guide
       position="52,34.000002"
       orientation="-38,0"
       id="guide4159" />
    <sodipodi:guide
       position="31,32.000002"
       orientation="0,1"
       id="guide4229" />
  </sodipodi:namedview>
  <metadata
     id="metadata7">
    <rdf:RDF>
      <cc:Work
         rdf:about="">
        <dc:format>image/svg+xml</dc:format>
        <dc:type
           rdf:resource="http://purl.org/dc/dcmitype/StillImage" />
        <dc:title />
      </cc:Work>
    </rdf:RDF>
  </metadata>
  <g
     inkscape:label="Capa 1"
     inkscape:groupmode="layer"
     id="layer1"
     transform="translate(0,-1058.5196)">
    <path
       inkscape:connector-curvature="0"
       id="path4479"
       d="m 30,1066.5196 c -1.107972,0 -2,0.892 -2,2 l 0,1 c 0,1.5038 -0.502632,2.2529 -1.003906,2.627 a 21,21 0 0 0 -10.132813,5.8515 c -0.574369,0.2487 -1.47556,0.3105 -2.78125,-0.4433 l -0.867187,-0.5 c -0.959532,-0.554 -2.178436,-0.2272 -2.732422,0.7324 l -2.0000001,3.4648 c -0.5539862,0.9596 -0.2271103,2.1785 0.7324219,2.7324 l 0.8730472,0.504 c 1.284563,0.7436 1.685061,1.5424 1.763671,2.1601 A 21,21 0 0 0 11,1092.5196 a 21,21 0 0 0 0.851562,5.875 c -0.07981,0.6183 -0.481907,1.4167 -1.769531,2.1602 l -0.8671872,0.5 c -0.9595322,0.5539 -1.284455,1.7728 -0.7304688,2.7324 l 2,3.4648 c 0.553986,0.9596 1.770937,1.2864 2.730469,0.7324 l 0.867187,-0.5 c 1.282233,-0.7403 2.17241,-0.6925 2.748047,-0.455 a 21,21 0 0 0 10.15625,5.8574 C 27.490901,1113.2583 28,1114.0058 28,1115.5196 l 0,1 c 0,1.108 0.892028,2 2,2 l 4,0 c 1.107972,0 2,-0.892 2,-2 l 0,-1 c 0,-1.5062 0.503807,-2.2555 1.005859,-2.6289 a 21,21 0 0 0 10.13086,-5.8496 c 0.574354,-0.2487 1.47556,-0.3105 2.78125,0.4433 l 0.867187,0.5 c 0.959532,0.554 2.176483,0.2272 2.730469,-0.7324 l 2,-3.4648 c 0.553986,-0.9596 0.229063,-2.1785 -0.730469,-2.7324 l -0.867187,-0.5 c -1.290025,-0.7448 -1.690795,-1.5453 -1.769531,-2.1641 A 21,21 0 0 0 53,1092.5196 a 21,21 0 0 0 -0.851562,-5.875 c 0.0798,-0.6183 0.481906,-1.4167 1.769531,-2.1602 l 0.867187,-0.5 c 0.959532,-0.5539 1.286408,-1.7728 0.732422,-2.7324 l -2,-3.4648 c -0.553986,-0.9596 -1.77289,-1.2864 -2.732422,-0.7324 l -0.867187,0.5 c -1.282233,0.7403 -2.172424,0.6925 -2.748047,0.455 a 21,21 0 0 0 -10.15625,-5.8574 C 36.509099,1071.7809 36,1071.0334 36,1069.5196 l 0,-1 c 0,-1.108 -0.892028,-2 -2,-2 l -4,0 z"
       style="opacity:1;fill:none;fill-opacity:1;stroke:url(#radialGradient4497);stroke-width:2;stroke-linecap:round;stroke-linejoin:round;stroke-miterlimit:4;stroke-dasharray:none;stroke-opacity:1" />
    <path
       style="opacity:1;fill:#546e7a;fill-opacity:1;stroke:#455a64;stroke-width:1;stroke-linecap:round;stroke-linejoin:round;stroke-miterlimit:4;stroke-dasharray:none;stroke-opacity:1"
       d="m 30,1065.0196 c -1.107972,0 -2,0.892 -2,2 l 0,1 c 0,1.5038 -0.502632,2.2529 -1.003906,2.627 a 21,21 0 0 0 -10.132813,5.8515 c -0.574369,0.2487 -1.47556,0.3105 -2.78125,-0.4433 l -0.867187,-0.5 c -0.959532,-0.554 -2.178436,-0.2272 -2.732422,0.7324 l -2.0000001,3.4648 c -0.5539862,0.9596 -0.2271103,2.1785 0.7324219,2.7324 l 0.8730472,0.504 c 1.284563,0.7436 1.685061,1.5424 1.763671,2.1601 A 21,21 0 0 0 11,1091.0196 a 21,21 0 0 0 0.851562,5.875 c -0.07981,0.6183 -0.481907,1.4167 -1.769531,2.1602 l -0.8671872,0.5 c -0.9595322,0.5539 -1.284455,1.7728 -0.7304688,2.7324 l 2,3.4648 c 0.553986,0.9596 1.770937,1.2864 2.730469,0.7324 l 0.867187,-0.5 c 1.282233,-0.7403 2.17241,-0.6925 2.748047,-0.455 a 21,21 0 0 0 10.15625,5.8574 C 27.490901,1111.7583 28,1112.5058 28,1114.0196 l 0,1 c 0,1.108 0.892028,2 2,2 l 4,0 c 1.107972,0 2,-0.892 2,-2 l 0,-1 c 0,-1.5062 0.503807,-2.2555 1.005859,-2.6289 a 21,21 0 0 0 10.13086,-5.8496 c 0.574354,-0.2487 1.47556,-0.3105 2.78125,0.4433 l 0.867187,0.5 c 0.959532,0.554 2.176483,0.2272 2.730469,-0.7324 l 2,-3.4648 c 0.553986,-0.9596 0.229063,-2.1785 -0.730469,-2.7324 l -0.867187,-0.5 c -1.290025,-0.7448 -1.690795,-1.5453 -1.769531,-2.1641 A 21,21 0 0 0 53,1091.0196 a 21,21 0 0 0 -0.851562,-5.875 c 0.0798,-0.6183 0.481906,-1.4167 1.769531,-2.1602 l 0.867187,-0.5 c 0.959532,-0.5539 1.286408,-1.7728 0.732422,-2.7324 l -2,-3.4648 c -0.553986,-0.9596 -1.77289,-1.2864 -2.732422,-0.7324 l -0.867187,0.5 c -1.282233,0.7403 -2.172424,0.6925 -2.748047,0.455 a 21,21 0 0 0 -10.15625,-5.8574 C 36.509099,1070.2809 36,1069.5334 36,1068.0196 l 0,-1 c 0,-1.108 -0.892028,-2 -2,-2 l -4,0 z"
       id="rect4414"
       inkscape:connector-curvature="0" />
    <path
       style="opacity:1;fill:#78909c;fill-opacity:1;stroke:none;stroke-width:1;stroke-linecap:round;stroke-linejoin:round;stroke-miterlimit:4;stroke-dasharray:none;stroke-opacity:1"
       d="m 32,1076.5196 a 14,14 0 0 0 -14,14 14,14 0 0 0 14,14 14,14 0 0 0 14,-14 14,14 0 0 0 -14,-14 z"
       id="path4524"
       inkscape:connector-curvature="0" />
    <rect
       y="1058.5197"
       x="-6.9999876"
       height="5"
       width="5"
       id="rect4304"
       style="color:#000000;clip-rule:nonzero;display:inline;overflow:visible;visibility:visible;opacity:1;isolation:auto;mix-blend-mode:normal;color-interpolation:sRGB;color-interpolation-filters:linearRGB;solid-color:#000000;solid-opacity:1;fill:#78909c;fill-opacity:1;fill-rule:nonzero;stroke:none;stroke-width:1;stroke-linecap:butt;stroke-linejoin:miter;stroke-miterlimit:4;stroke-dasharray:none;stroke-dashoffset:0;stroke-opacity:1;color-rendering:auto;image-rendering:auto;shape-rendering:auto;text-rendering:auto;enable-background:accumulate" />
    <rect
       y="1066.5197"
       x="-6.9999876"
       height="5"
       width="5"
       id="rect4306"
       style="color:#000000;clip-rule:nonzero;display:inline;overflow:visible;visibility:visible;opacity:1;isolation:auto;mix-blend-mode:normal;color-interpolation:sRGB;color-interpolation-filters:linearRGB;solid-color:#000000;solid-opacity:1;fill:#546e7a;fill-opacity:1;fill-rule:nonzero;stroke:none;stroke-width:1;stroke-linecap:butt;stroke-linejoin:miter;stroke-miterlimit:4;stroke-dasharray:none;stroke-dashoffset:0;stroke-opacity:1;color-rendering:auto;image-rendering:auto;shape-rendering:auto;text-rendering:auto;enable-background:accumulate" />
    <rect
       style="color:#000000;clip-rule:nonzero;display:inline;overflow:visible;visibility:visible;opacity:1;isolation:auto;mix-blend-mode:normal;color-interpolation:sRGB;color-interpolation-filters:linearRGB;solid-color:#000000;solid-opacity:1;fill:#455a64;fill-opacity:1;fill-rule:nonzero;stroke:none;stroke-width:1;stroke-linecap:butt;stroke-linejoin:miter;stroke-miterlimit:4;stroke-dasharray:none;stroke-dashoffset:0;stroke-opacity:1;color-rendering:auto;image-rendering:auto;shape-rendering:auto;text-rendering:auto;enable-background:accumulate"
       id="rect4156"
       width="5"
       height="5"
       x="-6.9999876"
       y="1074.5197" />
    <circle
       style="opacity:1;fill:#455a64;fill-opacity:1;stroke:none;stroke-width:2;stroke-linecap:round;stroke-linejoin:round;stroke-miterlimit:4;stroke-dasharray:none;stroke-opacity:0"
       id="path4503"
       cx="32"
       cy="1090.5197"
       r="12" />
    <circle
       r="9"
       cy="1090.5197"
       cx="32"
       id="circle4518"
       style="opacity:1;fill:#37474f;fill-opacity:1;stroke:none;stroke-width:2;stroke-linecap:round;stroke-linejoin:round;stroke-miterlimit:4;stroke-dasharray:none;stroke-opacity:0" />
    <circle
       r="7"
       cy="1090.5197"
       cx="32"
       id="circle4505"
       style="opacity:1;fill:#4dd0e1;fill-opacity:1;stroke:none;stroke-width:2;stroke-linecap:round;stroke-linejoin:round;stroke-miterlimit:4;stroke-dasharray:none;stroke-opacity:0" />
    <rect
       style="color:#000000;clip-rule:nonzero;display:inline;overflow:visible;visibility:visible;opacity:1;isolation:auto;mix-blend-mode:normal;color-interpolation:sRGB;color-interpolation-filters:linearRGB;solid-color:#000000;solid-opacity:1;fill:#4dd0e1;fill-opacity:1;fill-rule:nonzero;stroke:none;stroke-width:1;stroke-linecap:butt;stroke-linejoin:miter;stroke-miterlimit:4;stroke-dasharray:none;stroke-dashoffset:0;stroke-opacity:1;color-rendering:auto;image-rendering:auto;shape-rendering:auto;text-rendering:auto;enable-background:accumulate"
       id="rect4509"
       width="5"
       height="5"
       x="-14.999988"
       y="1058.5197" />
    <rect
       y="1082.5197"
       x="-6.9999876"
       height="5"
       width="5"
       id="rect4520"
       style="color:#000000;clip-rule:nonzero;display:inline;overflow:visible;visibility:visible;opacity:1;isolation:auto;mix-blend-mode:normal;color-interpolation:sRGB;color-interpolation-filters:linearRGB;solid-color:#000000;solid-opacity:1;fill:#37474f;fill-opacity:1;fill-rule:nonzero;stroke:none;stroke-width:1;stroke-linecap:butt;stroke-linejoin:miter;stroke-miterlimit:4;stroke-dasharray:none;stroke-dashoffset:0;stroke-opacity:1;color-rendering:auto;image-rendering:auto;shape-rendering:auto;text-rendering:auto;enable-background:accumulate" />
  </g>
</svg>
