<svg xmlns="http://www.w3.org/2000/svg" width="16" height="16">
 <g>
  <path d="m 5.7984294,1.9999949 c -0.9949076,5.9e-5 -1.9837352,0.4098179 -2.686721,1.113282 -0.7029859,0.7034645 -1.1117199,1.6919627 -1.1117199,2.6867211 0,0.9947585 0.408734,1.9832569 1.1117199,2.6867211 0.7029858,0.703464 1.6918134,1.1132235 2.686721,1.113282 C 6.793337,9.6000604 7.7820486,9.1901867 8.4859315,8.4867191 9.1898146,7.7832513 9.5999951,6.7948673 9.5999951,5.799998 9.5999951,4.8051288 9.1898146,3.816745 8.4859315,3.1132769 7.7820486,2.4098092 6.793337,1.9999359 5.7984294,1.9999949 Z m 8.024e-4,1.6000014 c 1.1519792,-6.84e-5 2.2007643,1.0480479 2.2007643,2.2000017 0,1.1519538 -1.0487851,2.2000703 -2.2007831,2.2000019 C 4.6472149,7.9999315 3.5999924,6.9518234 3.5999924,5.799998 c 0,-1.1518254 1.0472225,-2.1999333 2.1992206,-2.2000017 z" style="fill:#bebebe" fill-rule="evenodd"/>
  <rect width="1.6" height="4.623" x="-0.8" y="14.376" transform="matrix(0.70710678,-0.70710678,0.70710678,0.70710678,0,0)" style="fill:#bebebe" fill-rule="evenodd"/>
 </g>
</svg>
