<?xml version="1.0" encoding="UTF-8" standalone="no"?>
<!-- Created with Inkscape (http://www.inkscape.org/) -->

<svg
   xmlns:dc="http://purl.org/dc/elements/1.1/"
   xmlns:cc="http://creativecommons.org/ns#"
   xmlns:rdf="http://www.w3.org/1999/02/22-rdf-syntax-ns#"
   xmlns:svg="http://www.w3.org/2000/svg"
   xmlns="http://www.w3.org/2000/svg"
   xmlns:xlink="http://www.w3.org/1999/xlink"
   xmlns:sodipodi="http://sodipodi.sourceforge.net/DTD/sodipodi-0.dtd"
   xmlns:inkscape="http://www.inkscape.org/namespaces/inkscape"
   width="48"
   height="48"
   viewBox="0 0 48 48.000002"
   id="svg2"
   version="1.1"
   inkscape:version="0.91 r13725"
   sodipodi:docname="configure.svg">
  <defs
     id="defs4">
    <style
       type="text/css"
       id="current-color-scheme">
      .ColorScheme-Text {
        color:#4d4d4d;
      }
      .ColorScheme-Background {
        color:#eff0f1;
      }
      .ColorScheme-Highlight {
        color:#3daee9;
      }
      .ColorScheme-ViewText {
        color:#31363b;
      }
      .ColorScheme-ViewBackground {
        color:#fcfcfc;
      }
      .ColorScheme-ViewHover {
        color:#93cee9;
      }
      .ColorScheme-ViewFocus{
        color:#3daee9;
      }
      .ColorScheme-ButtonText {
        color:#31363b;
      }
      .ColorScheme-ButtonBackground {
        color:#eff0f1;
      }
      .ColorScheme-ButtonHover {
        color:#93cee9;
      }
      .ColorScheme-ButtonFocus{
        color:#3daee9;
      }
      </style>
    <style
       id="current-color-scheme-1"
       type="text/css">
      .ColorScheme-Text {
        color:#4d4d4d;
      }
      .ColorScheme-Background {
        color:#eff0f1;
      }
      .ColorScheme-Highlight {
        color:#3daee9;
      }
      .ColorScheme-ViewText {
        color:#31363b;
      }
      .ColorScheme-ViewBackground {
        color:#fcfcfc;
      }
      .ColorScheme-ViewHover {
        color:#93cee9;
      }
      .ColorScheme-ViewFocus{
        color:#3daee9;
      }
      .ColorScheme-ButtonText {
        color:#31363b;
      }
      .ColorScheme-ButtonBackground {
        color:#eff0f1;
      }
      .ColorScheme-ButtonHover {
        color:#93cee9;
      }
      .ColorScheme-ButtonFocus{
        color:#3daee9;
      }
      </style>
    <radialGradient
       gradientUnits="userSpaceOnUse"
       gradientTransform="matrix(-2.0000003,-2.935184e-6,3.9135795e-6,-2.6666677,30.999838,1219.8531)"
       r="1.5"
       fy="42.5"
       fx="4"
       cy="42.5"
       cx="4"
       id="radialGradient4208"
       xlink:href="#Shadow"
       inkscape:collect="always" />
    <linearGradient
       id="Shadow"
       inkscape:collect="always">
      <stop
         id="stop4186"
         offset="0"
         style="stop-color:#000000;stop-opacity:1;" />
      <stop
         id="stop4188"
         offset="1"
         style="stop-color:#000000;stop-opacity:0;" />
    </linearGradient>
    <radialGradient
       inkscape:collect="always"
       xlink:href="#Shadow"
       id="radialGradient4516"
       gradientUnits="userSpaceOnUse"
       gradientTransform="matrix(2.0000003,-2.935184e-6,-3.9135795e-6,-2.6666677,17.00016,1219.8531)"
       cx="4"
       cy="42.5"
       fx="4"
       fy="42.5"
       r="1.5" />
    <linearGradient
       inkscape:collect="always"
       xlink:href="#Shadow"
       id="linearGradient4526"
       x1="32"
       y1="1108.5197"
       x2="32"
       y2="1112.5197"
       gradientUnits="userSpaceOnUse"
       gradientTransform="translate(-8.0000009,-2.0000001)" />
    <radialGradient
       gradientUnits="userSpaceOnUse"
       gradientTransform="matrix(-2.0000004,-2.9351842e-6,3.9135797e-6,-2.6666679,22.999838,1221.8531)"
       r="1.5"
       fy="42.5"
       fx="4"
       cy="42.5"
       cx="4"
       id="radialGradient4208-5"
       xlink:href="#Shadow"
       inkscape:collect="always" />
    <linearGradient
       gradientUnits="userSpaceOnUse"
       y2="46"
       x2="24"
       y1="42"
       x1="24"
       id="linearGradient4190"
       xlink:href="#Shadow"
       inkscape:collect="always"
       gradientTransform="translate(7.9999965,1066.5197)" />
    <radialGradient
       gradientUnits="userSpaceOnUse"
       gradientTransform="matrix(-5.6193705e-6,2.6666682,-2.0000003,-4.2145263e-6,134.00028,991.1864)"
       r="1.5"
       fy="42.500004"
       fx="44"
       cy="42.500004"
       cx="44"
       id="radialGradient4200"
       xlink:href="#Shadow"
       inkscape:collect="always" />
    <radialGradient
       inkscape:collect="always"
       xlink:href="#Shadow"
       id="radialGradient4189"
       cx="16"
       cy="12.007536"
       fx="16"
       fy="12.007536"
       r="6.5"
       gradientTransform="matrix(1.0769233,1.1256697e-7,-1.1256695e-7,1.0769231,-1.2307714,-0.93124752)"
       gradientUnits="userSpaceOnUse" />
  </defs>
  <sodipodi:namedview
     id="base"
     pagecolor="#ffffff"
     bordercolor="#666666"
     borderopacity="1.0"
     inkscape:pageopacity="0.0"
     inkscape:pageshadow="2"
     inkscape:zoom="37.653436"
     inkscape:cx="20.257103"
     inkscape:cy="35.785394"
     inkscape:document-units="px"
     inkscape:current-layer="layer1"
     showgrid="true"
     units="px"
     inkscape:showpageshadow="false"
     borderlayer="true"
     inkscape:window-width="2560"
     inkscape:window-height="959"
     inkscape:window-x="0"
     inkscape:window-y="34"
     inkscape:window-maximized="1"
     showguides="true"
     inkscape:guide-bbox="true"
     fit-margin-top="0"
     fit-margin-left="0"
     fit-margin-right="0"
     fit-margin-bottom="0">
    <inkscape:grid
       type="xygrid"
       id="grid4136"
       originx="-8"
       originy="-7.999947" />
    <sodipodi:guide
       position="4.0000017,44.000049"
       orientation="39.999998,0"
       id="guide4290" />
    <sodipodi:guide
       position="4.0000017,4.0000495"
       orientation="0,39.999998"
       id="guide4292" />
    <sodipodi:guide
       position="43.999999,4.0000495"
       orientation="-39.999998,0"
       id="guide4294" />
    <sodipodi:guide
       position="43.999999,44.000049"
       orientation="0,-39.999998"
       id="guide4296" />
  </sodipodi:namedview>
  <metadata
     id="metadata7">
    <rdf:RDF>
      <cc:Work
         rdf:about="">
        <dc:format>image/svg+xml</dc:format>
        <dc:type
           rdf:resource="http://purl.org/dc/dcmitype/StillImage" />
        <dc:title />
      </cc:Work>
    </rdf:RDF>
  </metadata>
  <g
     inkscape:label="Capa 1"
     inkscape:groupmode="layer"
     id="layer1"
     transform="translate(-8,-1066.5197)">
    <path
       inkscape:connector-curvature="0"
       style="opacity:0.7;fill:url(#radialGradient4200);fill-opacity:1;stroke:none;stroke-width:2;stroke-linecap:butt;stroke-linejoin:round;stroke-miterlimit:4;stroke-dasharray:none;stroke-opacity:1"
       d="m 48.999999,1108.5197 0,4 1,0 c 1.108,0 2,-0.892 2,-2 l 0,-2 -3,0 z"
       id="path4174" />
    <path
       inkscape:connector-curvature="0"
       style="opacity:0.7;fill:url(#linearGradient4190);fill-opacity:1;stroke:none;stroke-width:2;stroke-linecap:butt;stroke-linejoin:round;stroke-miterlimit:4;stroke-dasharray:none;stroke-opacity:1"
       d="m 14.999997,1108.5197 0,4 34.000002,0 0,-4 z"
       id="path4169"
       sodipodi:nodetypes="ccccc" />
    <path
       inkscape:connector-curvature="0"
       style="opacity:0.7;fill:url(#radialGradient4208-5);fill-opacity:1;stroke:none;stroke-width:2;stroke-linecap:butt;stroke-linejoin:round;stroke-miterlimit:4;stroke-dasharray:none;stroke-opacity:1"
       d="m 11.999997,1108.5197 0,2 c 0,1.108 0.892,2 2,2 l 1,0 0,-4 -3,0 z"
       id="rect4157-7" />
    <rect
       style="opacity:1;fill:#90a4ae;fill-opacity:1;stroke:none;stroke-width:2;stroke-linecap:round;stroke-linejoin:round;stroke-miterlimit:4;stroke-dasharray:none;stroke-opacity:1"
       id="rect4160"
       width="40.000004"
       height="34.999981"
       x="11.999998"
       y="1075.5195"
       ry="2.9999876" />
    <path
       inkscape:connector-curvature="0"
       style="opacity:1;fill:#eceff1;fill-opacity:1;stroke:none;stroke-width:2;stroke-linecap:round;stroke-linejoin:round;stroke-miterlimit:4;stroke-dasharray:none;stroke-opacity:1"
       d="m 50.999999,1080.5197 -38.000002,0 0,27 c 0,1.108 0.892007,2 2,2 l 34.000002,0 c 1.107993,0 2,-0.892 2,-2 l 0,-27 z"
       id="path4228" />
    <path
       inkscape:connector-curvature="0"
       style="opacity:1;fill:#e0e0e0;fill-opacity:1;stroke:none;stroke-width:2;stroke-linecap:round;stroke-linejoin:round;stroke-miterlimit:4;stroke-dasharray:none;stroke-opacity:1"
       d="m 14.999997,1076.5197 c -1.107993,0 -2,0.892 -2,2 l 0,3 38.000002,0 0,-3 c 0,-1.108 -0.892007,-2 -2,-2 z"
       id="rect4219"
       sodipodi:nodetypes="ssccsss" />
    <rect
       style="opacity:1;fill:#fafafa;fill-opacity:1;stroke:none;stroke-width:2;stroke-linecap:round;stroke-linejoin:round;stroke-miterlimit:4;stroke-dasharray:none;stroke-opacity:1"
       id="rect4221"
       width="36.000015"
       height="24.999884"
       x="13.999998"
       y="1083.5197"
       ry="0" />
    <rect
       style="opacity:1;fill:#90a4ae;fill-opacity:1;stroke:none;stroke-width:2;stroke-linecap:round;stroke-linejoin:round;stroke-miterlimit:4;stroke-dasharray:none;stroke-opacity:1"
       id="rect4223"
       width="38.000004"
       height="1.0000001"
       x="12.999998"
       y="1081.5197" />
    <circle
       style="opacity:1;fill:#ef5350;fill-opacity:1;stroke:none;stroke-width:2;stroke-linecap:butt;stroke-linejoin:round;stroke-miterlimit:4;stroke-dasharray:none;stroke-opacity:1"
       id="path4284"
       cx="48.499996"
       cy="1079.0197"
       r="1.5000001" />
    <ellipse
       cy="1079.0197"
       cx="48.499996"
       id="circle4286"
       style="opacity:1;fill:#ef9a9a;fill-opacity:1;stroke:none;stroke-width:2;stroke-linecap:butt;stroke-linejoin:round;stroke-miterlimit:4;stroke-dasharray:none;stroke-opacity:1"
       rx="0.50000006"
       ry="0.5" />
    <path
       id="path4514"
       d="m 28,1104.5197 0,2 0,2 c 0,1.108 -0.892,2 -2,2 l -1,0 0,-4 0,-2 3,0 z"
       style="opacity:0.7;fill:url(#radialGradient4516);fill-opacity:1;stroke:none;stroke-width:2;stroke-linecap:butt;stroke-linejoin:round;stroke-miterlimit:4;stroke-dasharray:none;stroke-opacity:1"
       inkscape:connector-curvature="0" />
    <rect
       style="opacity:0.7;fill:url(#linearGradient4526);fill-opacity:1;stroke:none;stroke-width:2;stroke-linecap:round;stroke-linejoin:round;stroke-miterlimit:4;stroke-dasharray:none;stroke-opacity:1"
       id="rect4518"
       width="2"
       height="6"
       x="23"
       y="1104.5197" />
    <path
       style="opacity:0.7;fill:url(#radialGradient4208);fill-opacity:1;stroke:none;stroke-width:2;stroke-linecap:butt;stroke-linejoin:round;stroke-miterlimit:4;stroke-dasharray:none;stroke-opacity:1"
       d="m 19.999998,1104.5197 0,2 0,2 c 0,1.108 0.892,2 2,2 l 1,0 0,-4 0,-2 -3,0 z"
       id="rect4157"
       inkscape:connector-curvature="0" />
    <path
       style="opacity:1;fill:url(#radialGradient4189);fill-opacity:1;stroke:none;stroke-width:2;stroke-linecap:round;stroke-linejoin:round;stroke-miterlimit:4;stroke-dasharray:none;stroke-opacity:1"
       d="M 18 5.2949219 L 18 15 L 14 15 L 14 5.296875 A 6.9999992 6.9999992 0 0 0 9 12 A 6.9999992 6.9999992 0 0 0 16 19 A 6.9999992 6.9999992 0 0 0 22 15.589844 L 22 8.4160156 A 6.9999992 6.9999992 0 0 0 18 5.2949219 z "
       transform="translate(7.9999981,1066.5197)"
       id="path4175" />
    <path
       style="opacity:1;fill:#607d8b;fill-opacity:1;stroke:none;stroke-width:2;stroke-linecap:round;stroke-linejoin:round;stroke-miterlimit:4;stroke-dasharray:none;stroke-opacity:1"
       d="m 25.999998,1070.5197 c -0.552262,10e-5 -0.999945,0.4477 -1,1 l 0,9 -1,0 -1,-1 0,-0.5 0,-8.4219 c -3.441631,0.4968 -5.996857,3.4446 -6,6.9219 0,2.3777 1.187916,4.4751 3,5.7402 l 0,1.2598 0,20 c 0,2.216 1.784,4 4,4 2.216,0 4,-1.784 4,-4 l 0,-20 0,-3 1,0 c 0.552262,-10e-5 0.999945,-0.4477 1,-1 l 0,-5 c 10e-7,-1.1667 -0.275738,-2.3413 -0.917969,-3.3047 -0.64223,-0.9633 -1.748698,-1.6953 -3.082031,-1.6953 z"
       id="path4373"
       inkscape:connector-curvature="0" />
    <path
       style="opacity:1;fill:#607d8b;fill-opacity:1;stroke:none;stroke-width:2;stroke-linecap:round;stroke-linejoin:round;stroke-miterlimit:4;stroke-dasharray:none;stroke-opacity:1"
       d="m 24.999998,1080.5197 0,3 2.589844,0 a 6.9999992,6.9999992 0 0 0 2.410156,-2.418 l 0,-0.582 -5,0 z"
       id="path4365"
       inkscape:connector-curvature="0" />
    <path
       style="opacity:1;fill:#cfd8dc;fill-opacity:1;stroke:none;stroke-width:2;stroke-linecap:round;stroke-linejoin:round;stroke-miterlimit:4;stroke-dasharray:none;stroke-opacity:1"
       d="m 25.999998,1071.5197 0,9 3,0 0,-5 c 2e-6,-2 -1,-4 -3,-4 z m -4,0.3496 c -2.395046,0.8468 -3.997265,3.1101 -4,5.6504 -2e-6,2.2193 1.208606,4.1515 3,5.1895 l 0,1.8105 0,2 0,18 c 0,1.662 1.338,3 3,3 1.662,0 3,-1.338 3,-3 l 0,-18 0,-2 0,-1.8086 c 0.541518,-0.3143 1.036853,-0.7151 1.462891,-1.1914 l -1.462891,0 -3,0 -0.400391,0 -1.599609,-1.5996 0,-8.0508 z"
       id="rect4300"
       inkscape:connector-curvature="0" />
    <ellipse
       style="opacity:1;fill:#607d8b;fill-opacity:1;stroke:none;stroke-width:2;stroke-linecap:round;stroke-linejoin:round;stroke-miterlimit:4;stroke-dasharray:none;stroke-opacity:1"
       id="path4304"
       cx="24"
       cy="1104.5197"
       rx="1.999999"
       ry="2" />
    <ellipse
       ry="0.99999994"
       rx="0.99999946"
       cy="1104.5197"
       cx="24"
       id="ellipse4306"
       style="opacity:1;fill:#cfd8dc;fill-opacity:1;stroke:none;stroke-width:2;stroke-linecap:round;stroke-linejoin:round;stroke-miterlimit:4;stroke-dasharray:none;stroke-opacity:1" />
    <rect
       style="opacity:1;fill:#546e7a;fill-opacity:1;stroke:none;stroke-width:2;stroke-linecap:round;stroke-linejoin:round;stroke-miterlimit:4;stroke-dasharray:none;stroke-opacity:1"
       id="rect4308"
       width="3.9999993"
       height="15.000006"
       x="22"
       y="1085.5197"
       ry="2.000001" />
    <rect
       style="opacity:1;fill:#455a64;fill-opacity:1;stroke:none;stroke-width:2;stroke-linecap:round;stroke-linejoin:round;stroke-miterlimit:4;stroke-dasharray:none;stroke-opacity:1"
       id="rect4310"
       width="2"
       height="13"
       x="23"
       y="1086.5197"
       ry="1" />
  </g>
</svg>
