<svg xmlns="http://www.w3.org/2000/svg" width="48" height="48">
 <g transform="translate(-326,-508.36218)">
  <path d="M 9 9 L 9 15.40625 L 9 16 L 9 16.3125 L 9 28.59375 L 9 35 L 15.40625 35 L 17.59375 35 L 20.5 35 L 24 39 L 27.5 35 L 30.40625 35 L 32.59375 35 L 39 35 L 39 28.59375 L 39 16.3125 L 39 16 L 39 15.40625 L 39 9 L 32.59375 9 L 32 9 L 30.40625 9 C 26.85719 9 24 11.85719 24 15.40625 C 24 11.857188 21.142812 9 17.59375 9 L 16 9 L 15.40625 9 L 9 9 z M 13 13 L 16.710938 13 L 17.076172 13 L 18.056641 13 C 20.225781 13 22 14.757386 22 16.941406 L 22 17.5 L 22 26.058594 L 22 31 L 18.056641 31 L 16.710938 31 L 13 31 L 13 26.058594 L 13 17.5 L 13 17.308594 L 13 16.941406 L 13 13 z M 29.943359 13 L 30.923828 13 L 31.289062 13 L 35 13 L 35 16.941406 L 35 17.308594 L 35 17.5 L 35 26.058594 L 35 31 L 31.289062 31 L 29.943359 31 L 26 31 L 26 26.058594 L 26 17.5 L 26 16.941406 C 26 14.757386 27.774219 13 29.943359 13 z " transform="translate(326,508.36218)" style="fill:#4d4d4d" fill-rule="evenodd"/>
 </g>
</svg>
