<?xml version="1.0" encoding="UTF-8" standalone="no"?>
<!-- Created with Inkscape (http://www.inkscape.org/) -->

<svg
   xmlns:dc="http://purl.org/dc/elements/1.1/"
   xmlns:cc="http://creativecommons.org/ns#"
   xmlns:rdf="http://www.w3.org/1999/02/22-rdf-syntax-ns#"
   xmlns:svg="http://www.w3.org/2000/svg"
   xmlns="http://www.w3.org/2000/svg"
   xmlns:sodipodi="http://sodipodi.sourceforge.net/DTD/sodipodi-0.dtd"
   xmlns:inkscape="http://www.inkscape.org/namespaces/inkscape"
   width="48.000004"
   height="48.000015"
   id="svg3869"
   version="1.1"
   inkscape:version="0.48+devel r12660"
   sodipodi:docname="address-book-insert.svg">
  <defs
     id="defs3871" />
  <sodipodi:namedview
     id="base"
     pagecolor="#ffffff"
     bordercolor="#666666"
     borderopacity="1.0"
     inkscape:pageopacity="0.0"
     inkscape:pageshadow="2"
     inkscape:zoom="8"
     inkscape:cx="34.447293"
     inkscape:cy="32.440239"
     inkscape:document-units="px"
     inkscape:current-layer="layer1"
     showgrid="false"
     fit-margin-top="0"
     fit-margin-left="0"
     fit-margin-right="0"
     fit-margin-bottom="0"
     inkscape:window-width="1366"
     inkscape:window-height="714"
     inkscape:window-x="0"
     inkscape:window-y="30"
     inkscape:window-maximized="1">
    <sodipodi:guide
       position="9,39.000013"
       orientation="30,0"
       id="guide3264" />
    <sodipodi:guide
       position="9,9.0000126"
       orientation="0,30"
       id="guide3266" />
    <sodipodi:guide
       position="39,9.0000126"
       orientation="-30,0"
       id="guide3268" />
    <sodipodi:guide
       position="39,39.000013"
       orientation="0,-30"
       id="guide3270" />
    <sodipodi:guide
       position="9,17.000013"
       orientation="4,0"
       id="guide3275" />
    <sodipodi:guide
       position="9,13.000013"
       orientation="0,30"
       id="guide3277" />
    <sodipodi:guide
       position="39,13.000013"
       orientation="-4,0"
       id="guide3279" />
    <sodipodi:guide
       position="39,17.000013"
       orientation="0,-30"
       id="guide3281" />
    <sodipodi:guide
       position="9,39.000013"
       orientation="4,0"
       id="guide3293" />
    <sodipodi:guide
       position="9,35.000013"
       orientation="0,15"
       id="guide3295" />
    <sodipodi:guide
       position="24,35.000013"
       orientation="-4,0"
       id="guide3297" />
    <sodipodi:guide
       position="22.000022,25.000013"
       orientation="-1.9999999,0"
       id="guide3303" />
    <sodipodi:guide
       position="22.000022,27.000013"
       orientation="0,2"
       id="guide3305" />
    <sodipodi:guide
       position="24.000021,25.000013"
       orientation="0,-2"
       id="guide3309" />
    <sodipodi:guide
       position="20.000022,35.000074"
       orientation="-1.9999999,0"
       id="guide3319" />
    <sodipodi:guide
       position="20.000022,37.000074"
       orientation="0,2"
       id="guide3321" />
    <sodipodi:guide
       position="22.000021,37.000074"
       orientation="1.9999999,0"
       id="guide3323" />
    <sodipodi:guide
       position="24,31.687513"
       orientation="0,-15"
       id="guide3337" />
    <sodipodi:guide
       position="9,32.000013"
       orientation="0,7"
       id="guide3345" />
    <sodipodi:guide
       position="16,32.000013"
       orientation="-7,0"
       id="guide3347" />
    <sodipodi:guide
       position="16,39.000013"
       orientation="0,-7"
       id="guide3349" />
  </sodipodi:namedview>
  <metadata
     id="metadata3874">
    <rdf:RDF>
      <cc:Work
         rdf:about="">
        <dc:format>image/svg+xml</dc:format>
        <dc:type
           rdf:resource="http://purl.org/dc/dcmitype/StillImage" />
        <dc:title />
      </cc:Work>
    </rdf:RDF>
  </metadata>
  <g
     inkscape:label="Capa 1"
     inkscape:groupmode="layer"
     id="layer1"
     transform="translate(-326,-508.36218)">
    <path
       id="path3356"
       d="m 365,517.36218 0,6.40625 0,0.59375 0,0.3125 0,12.28125 0,6.40625 -6.40625,0 -2.1875,0 -6.40625,0 0,-6.40625 0,-12.28125 0,-0.90625 c 0,-3.54906 2.85719,-6.40625 6.40625,-6.40625 l 1.59375,0 0.59375,0 6.40625,0 z m -4,4 -3.71094,0 -0.36523,0 -0.98047,0 c -2.16914,0 -3.94336,1.75739 -3.94336,3.94141 l 0,0.55859 0,8.55859 0,4.94141 3.94336,0 1.3457,0 3.71094,0 0,-4.94141 0,-8.55859 0,-0.19141 0,-0.36718 0,-3.94141 z"
       style="fill:#4d4d4d;fill-opacity:1;fill-rule:evenodd;stroke:none"
       inkscape:connector-curvature="0" />
    <path
       style="fill:#4d4d4d;fill-opacity:1;fill-rule:evenodd;stroke:none"
       d="M 9 9 L 9 15.40625 L 9 16 L 9 16.3125 L 9 28.59375 L 9 35 L 15.40625 35 L 17.59375 35 L 24 35 L 24 28.59375 L 24 16.3125 L 24 15.40625 C 24 11.857188 21.142812 9 17.59375 9 L 16 9 L 15.40625 9 L 9 9 z M 13 13 L 16.710938 13 L 17.076172 13 L 18.056641 13 C 20.225781 13 22 14.757386 22 16.941406 L 22 17.5 L 22 26.058594 L 22 31 L 18.056641 31 L 16.710938 31 L 13 31 L 13 26.058594 L 13 17.5 L 13 17.308594 L 13 16.941406 L 13 13 z "
       transform="translate(326,508.36218)"
       id="rect3283" />
    <rect
       style="fill:none;fill-opacity:1;fill-rule:evenodd;stroke:none"
       id="rect3260"
       width="30"
       height="30"
       x="335"
       y="517.36218" />
    <path
       sodipodi:type="star"
       style="fill:#4d4d4d;fill-opacity:1;fill-rule:evenodd;stroke:none"
       id="path3274"
       sodipodi:sides="3"
       sodipodi:cx="327.05612"
       sodipodi:cy="532.95148"
       sodipodi:r1="4.0637469"
       sodipodi:r2="2.0318732"
       sodipodi:arg1="1.5707963"
       sodipodi:arg2="2.6179939"
       inkscape:flatsided="true"
       inkscape:rounded="0"
       inkscape:randomized="0"
       d="m 327.05612,537.01522 -3.51931,-6.09562 7.03862,0 z"
       inkscape:transform-center-y="0.66666448"
       transform="matrix(0.99451367,0,0,0.65620883,24.738216,194.96805)" />
    <path
       sodipodi:type="arc"
       style="fill:none;fill-opacity:1;fill-rule:evenodd;stroke:none"
       id="path3272"
       sodipodi:cx="342.49863"
       sodipodi:cy="541.36218"
       sodipodi:rx="2.0013857"
       sodipodi:ry="2.0000615"
       d="m 344.50001,541.36218 c 0,1.04723 -0.95363,2.00006 -2.0009,2 -1.04727,-6e-5 -1.9991,-0.95288 -1.9991,-2 0,-1.04711 0.95183,-1.99994 1.9991,-2 1.04727,-6e-5 2.0009,0.95277 2.0009,2 z" />
    <path
       d="m 339.00001,530.36218 c 0,1.04723 -0.95363,2.00006 -2.0009,2 -1.04727,-6e-5 -1.9991,-0.95288 -1.9991,-2 0,-1.04711 0.95183,-1.99994 1.9991,-2 1.04727,-6e-5 2.0009,0.95277 2.0009,2 z"
       sodipodi:ry="2.0000615"
       sodipodi:rx="2.0013857"
       sodipodi:cy="530.36218"
       sodipodi:cx="336.99863"
       id="path3275"
       style="fill:none;fill-opacity:1;fill-rule:evenodd;stroke:none"
       sodipodi:type="arc" />
    <path
       sodipodi:type="arc"
       style="fill:none;fill-opacity:1;fill-rule:evenodd;stroke:none"
       id="path3277"
       sodipodi:cx="362.99863"
       sodipodi:cy="530.36218"
       sodipodi:rx="2.0013857"
       sodipodi:ry="2.0000615"
       d="m 365.00001,530.36218 c 0,1.04723 -0.95363,2.00006 -2.0009,2 -1.04727,-6e-5 -1.9991,-0.95288 -1.9991,-2 0,-1.04711 0.95183,-1.99994 1.9991,-2 1.04727,-6e-5 2.0009,0.95277 2.0009,2 z" />
    <path
       d="m 359.50001,541.36218 c 0,1.04723 -0.95363,2.00006 -2.0009,2 -1.04727,-6e-5 -1.9991,-0.95288 -1.9991,-2 0,-1.04711 0.95183,-1.99994 1.9991,-2 1.04727,-6e-5 2.0009,0.95277 2.0009,2 z"
       sodipodi:ry="2.0000615"
       sodipodi:rx="2.0013857"
       sodipodi:cy="541.36218"
       sodipodi:cx="357.49863"
       id="path3279"
       style="fill:none;fill-opacity:1;fill-rule:evenodd;stroke:none"
       sodipodi:type="arc" />
    <path
       sodipodi:type="arc"
       style="fill:none;fill-opacity:1;fill-rule:evenodd;stroke:none"
       id="path3288"
       sodipodi:cx="349.99863"
       sodipodi:cy="530.36218"
       sodipodi:rx="2.0013857"
       sodipodi:ry="2.0000615"
       d="m 352.00001,530.36218 a 2.0013857,2.0000615 0 1 1 0,0 2.0013857,2.0000615 0 1 1 0,0 z" />
    <path
       d="m 344.50001,519.36218 a 2.0013857,2.0000615 0 1 1 0,0 2.0013857,2.0000615 0 1 1 0,0 z"
       sodipodi:ry="2.0000615"
       sodipodi:rx="2.0013857"
       sodipodi:cy="519.36218"
       sodipodi:cx="342.49863"
       id="path3287"
       style="fill:none;fill-opacity:1;fill-rule:evenodd;stroke:none"
       sodipodi:type="arc" />
    <path
       transform="matrix(0.99451367,0,0,0.65620883,24.738216,168.96805)"
       inkscape:transform-center-y="0.66666448"
       d="m 327.05612,537.01522 -3.51931,-6.09562 7.03862,0 z"
       inkscape:randomized="0"
       inkscape:rounded="0"
       inkscape:flatsided="true"
       sodipodi:arg2="2.6179939"
       sodipodi:arg1="1.5707963"
       sodipodi:r2="2.0318732"
       sodipodi:r1="4.0637469"
       sodipodi:cy="532.95148"
       sodipodi:cx="327.05612"
       sodipodi:sides="3"
       id="path3296"
       style="fill:none;fill-opacity:1;fill-rule:evenodd;stroke:none"
       sodipodi:type="star" />
    <path
       sodipodi:type="arc"
       style="fill:none;fill-opacity:1;fill-rule:evenodd;stroke:none"
       id="path3313"
       sodipodi:cx="346.99933"
       sodipodi:cy="520.36212"
       sodipodi:rx="1.0006928"
       sodipodi:ry="1.0000308"
       d="m 348.00002,520.36212 a 1.0006928,1.0000308 0 1 1 0,0 1.0006928,1.0000308 0 1 1 0,0 z" />
    <path
       d="m 350.00002,530.36218 a 1.0006928,1.0000308 0 1 1 0,0 1.0006928,1.0000308 0 1 1 0,0 z"
       sodipodi:ry="1.0000308"
       sodipodi:rx="1.0006928"
       sodipodi:cy="530.36218"
       sodipodi:cx="348.99933"
       id="path3315"
       style="fill:none;fill-opacity:1;fill-rule:evenodd;stroke:none"
       sodipodi:type="arc" />
  </g>
</svg>
