<?xml version="1.0" encoding="UTF-8" standalone="no"?>
<!-- Created with Inkscape (http://www.inkscape.org/) -->

<svg
   xmlns:dc="http://purl.org/dc/elements/1.1/"
   xmlns:cc="http://creativecommons.org/ns#"
   xmlns:rdf="http://www.w3.org/1999/02/22-rdf-syntax-ns#"
   xmlns:svg="http://www.w3.org/2000/svg"
   xmlns="http://www.w3.org/2000/svg"
   xmlns:sodipodi="http://sodipodi.sourceforge.net/DTD/sodipodi-0.dtd"
   xmlns:inkscape="http://www.inkscape.org/namespaces/inkscape"
   width="48"
   height="48.000019"
   id="svg3109"
   version="1.1"
   inkscape:version="0.48+devel r12388"
   sodipodi:docname="document-close.svg">
  <defs
     id="defs3111">
    <linearGradient
       id="linearGradient3257">
      <stop
         offset="0"
         style="stop-color:#a50000;stop-opacity:1"
         id="stop3259" />
      <stop
         offset="1"
         style="stop-color:#e73800;stop-opacity:1"
         id="stop3261" />
    </linearGradient>
  </defs>
  <sodipodi:namedview
     id="base"
     pagecolor="#ffffff"
     bordercolor="#666666"
     borderopacity="1.0"
     inkscape:pageopacity="0.0"
     inkscape:pageshadow="2"
     inkscape:zoom="7.9195959"
     inkscape:cx="20.734893"
     inkscape:cy="23.478886"
     inkscape:document-units="px"
     inkscape:current-layer="layer1"
     showgrid="false"
     fit-margin-top="0"
     fit-margin-left="0"
     fit-margin-right="0"
     fit-margin-bottom="0"
     inkscape:window-width="1366"
     inkscape:window-height="714"
     inkscape:window-x="0"
     inkscape:window-y="30"
     inkscape:window-maximized="1" />
  <metadata
     id="metadata3114">
    <rdf:RDF>
      <cc:Work
         rdf:about="">
        <dc:format>image/svg+xml</dc:format>
        <dc:type
           rdf:resource="http://purl.org/dc/dcmitype/StillImage" />
        <dc:title />
      </cc:Work>
    </rdf:RDF>
  </metadata>
  <g
     inkscape:label="Capa 1"
     inkscape:groupmode="layer"
     id="layer1"
     transform="translate(-533.14286,-554.07646)">
    <path
       style="fill:#000000;fill-opacity:1;stroke-width:0.2;stroke-linejoin:round"
       d="m 564.45861,558.07647 0,6.42103 -3.15787,0 0,-3.26316 -20.21053,0 0,33.68415 20.21053,0 0,-3.26316 3.15787,0 0,6.42114 -26.35083,0 L 537.93233,558.07647 Z"
       id="path4035"
       inkscape:connector-curvature="0"
       sodipodi:nodetypes="ccccccccccccc" />
    <g
       inkscape:label="Layer 1"
       id="layer1-7"
       transform="matrix(0.66666755,0,0,0.66666755,550.35334,562.07647)">
      <path
         d="M 38.451706,22.674415 25.326581,9.5496342 c -0.35843,-0.3591215 -0.839227,-0.549631 -1.326633,-0.549631 -0.241267,0 -0.485297,0.04693 -0.717189,0.142882 -0.700854,0.2902875 -1.157673,0.9737658 -1.157673,1.7323348 l 0,5.624954 -20.2499021,0 c -1.03598418,0 -1.875211675016,0.839573 -1.875211675016,1.87487 l 0,11.249908 c 0,1.035648 0.839227495016,1.875218 1.875211675016,1.875218 l 20.2499021,0 0,5.624957 c 0,0.759265 0.456819,1.44135 1.157673,1.731985 0.231892,0.0963 0.475922,0.142885 0.717189,0.142885 0.487406,0 0.968203,-0.18982 1.326633,-0.548245 L 38.451706,25.325933 c 0.731112,-0.732497 0.731112,-1.919371 0,-2.651518"
         style="fill:#000000;fill-opacity:1;fill-rule:nonzero;stroke:none"
         id="path338"
         inkscape:connector-curvature="0"
         sodipodi:nodetypes="ccscscsssscscsccc" />
    </g>
  </g>
</svg>
