<svg xmlns="http://www.w3.org/2000/svg" width="48" height="48">
 <path d="m 39.52302,29.690184 c 0.366183,-0.363496 3.309347,-7.343553 3.338459,-7.920233 0.03459,-0.68653 -2.651393,-2.558804 -5.939244,-4.139037 -7.448927,-3.580666 -17.448088,-3.616617 -25.142807,-0.09059 -2.2290916,1.021473 -6.1413585,3.415812 -6.4754099,3.962563 -0.098035,0.160854 0.5873095,2.11121 1.5238625,4.33585 l -0.00134,0.0013 c 0.9365566,2.224649 1.7355625,4.076642 1.775468,4.116547 0.039739,0.03974 2.2361819,-0.656419 4.8809849,-1.547565 l 4.808337,-1.6202 0.02988,-3.056585 0.02986,-3.053899 1.635945,-0.304185 c 1.842831,-0.343362 6.930643,-0.329413 8.643723,0.02479 l 1.127365,0.233985 -2.72e-4,3.04851 -0.0016,3.047166 4.791914,1.570915 c 2.6357,0.863846 4.874395,1.490018 4.974893,1.390622 z" style="fill:#e74c3c"/>
</svg>
