<?xml version="1.0" standalone="no"?>
<!DOCTYPE svg PUBLIC "-//W3C//DTD SVG 20010904//EN" "http://www.w3.org/TR/2001/REC-SVG-20010904/DTD/svg10.dtd">
<!-- Created using Karbon, part of Calligra: http://www.calligra.org/karbon -->
<svg xmlns="http://www.w3.org/2000/svg" xmlns:xlink="http://www.w3.org/1999/xlink" width="38.4pt" height="38.4pt">
<defs/>
<g id="layer1">
  <rect id="rect3260" transform="translate(9, 9)" fill="#76bd74" width="24.00000000000pt" height="24.00000000000pt"/>
  <path id="path1943" transform="matrix(0.707107 -0.707107 0.707107 0.707107 8.72369 18.2279)" fill="#4d4d4d" d="M6.54111 0C5.16251 0.154181 0.149488 2.4443 0.00328039 14.253C-0.150727 26.6925 5.16251 29.3094 6.55595 29.2812L6.55595 21.065C5.40893 21.065 5.17817 19.8167 4.9161 17.2409C4.74269 15.5366 4.69212 13.4269 4.9161 11.3298C5.07331 9.85843 5.34732 8.42215 6.54856 8.42215Z"/>
  <path id="path1945" transform="matrix(0.707107 -0.707107 0.707107 0.707107 28.6689 28.0291)" fill="#4d4d4d" d="M2.33242 8.23203C2.86462 8.23203 3.24632 7.7996 3.24632 7.31504L3.25008 7.31123C3.25008 7.31123 3.24632 0.911742 3.24632 0.907866C3.24632 0.400214 2.83376 0 2.33242 0L0 0L0 8.23203C0 8.23203 2.32668 8.23557 2.32859 8.23365Z"/>
  <path id="path1947" transform="matrix(0.707107 -0.707107 0.707107 0.707107 13.7957 13.1558)" fill="#4d4d4d" d="M2.33242 8.44743C2.86462 8.44743 3.24632 8.01342 3.24632 7.52708L3.25008 7.52325C3.25008 7.52325 3.24632 0.915078 3.24632 0.911187C3.24632 0.401678 2.83376 0 2.33242 0L0 0L0 8.44743C0 8.44743 2.32668 8.45098 2.32859 8.44905Z"/>
 </g>
</svg>
