<?xml version="1.0" standalone="no"?>
<!DOCTYPE svg PUBLIC "-//W3C//DTD SVG 20010904//EN" "http://www.w3.org/TR/2001/REC-SVG-20010904/DTD/svg10.dtd">
<!-- Created using Karbon, part of Calligra: http://www.calligra.org/karbon -->
<svg xmlns="http://www.w3.org/2000/svg" xmlns:xlink="http://www.w3.org/1999/xlink" width="38.4pt" height="38.4pt">
<defs/>
<g id="layer1">
  <rect id="rect3260" transform="translate(9, 9)" fill="#e74c3c" width="24.00000000000pt" height="24.00000000000pt"/>
  <path id="path1943" transform="matrix(1.77636e-15 1 -1 1.77636e-15 36.55 19.6793)" fill="#4d4d4d" d="M5.45116 0C4.30228 0.12849 0.124579 2.037 0.00273377 11.878C-0.125611 22.2447 4.30228 24.4255 5.46353 24.4021L5.46353 17.5549C4.50763 17.5549 4.31533 16.5146 4.09693 14.368C3.95241 12.9477 3.91027 11.1895 4.09693 9.44192C4.22794 8.21571 4.45629 7.01876 5.45737 7.01876Z"/>
  <path id="path1945" transform="matrix(-3.33067e-16 1 -1 -3.33067e-16 19.021 25.657)" fill="#4d4d4d" d="M1.94376 6.86032C2.38728 6.86032 2.70538 6.49995 2.70538 6.09613L2.70852 6.09295C2.70852 6.09295 2.70538 0.759818 2.70538 0.756587C2.70538 0.333526 2.36157 0 1.94376 0L0 0L0 6.86032C0 6.86032 1.93898 6.86327 1.94058 6.86167Z"/>
  <path id="path1947" transform="matrix(-3.33067e-16 1 -1 -3.33067e-16 36.55 25.657)" fill="#4d4d4d" d="M1.94376 7.03983C2.38728 7.03983 2.70538 6.67814 2.70538 6.27284L2.70852 6.26965C2.70852 6.26965 2.70538 0.762598 2.70538 0.759355C2.70538 0.334746 2.36157 0 1.94376 0L0 0L0 7.03983C0 7.03983 1.93898 7.04278 1.94058 7.04118Z"/>
 </g>
</svg>
