<svg xmlns="http://www.w3.org/2000/svg" width="48" height="48">
 <path d="M 24 9 C 18 17.999994 13.093636 23.170732 13 28 C 13 30.879793 14.186335 33.741023 16.222656 35.777344 C 18.258977 37.813665 21.120207 39 24 39 C 26.879793 39 29.741023 37.813665 31.777344 35.777344 C 33.813665 33.741023 35 30.879793 35 28 C 34.92137 22.951119 30.000002 17.999994 24 9 z M 16.005859 23.884766 A 9.999999 9.999999 0 0 0 16 24 A 9.999999 9.999999 0 0 0 26 34 A 9.999999 9.999999 0 0 0 32.083984 31.927734 A 8.999999 8.999999 0 0 1 24 37 A 8.999999 8.999999 0 0 1 15 28 A 8.999999 8.999999 0 0 1 16.005859 23.884766 z " style="fill:#ecf0f1"/>
</svg>
