<svg xmlns="http://www.w3.org/2000/svg" width="48" height="48">
 <g transform="translate(-364.57143,-499.79075)">
  <path d="M 23.994141 9 C 20.066877 9.0002328 16.165567 10.617701 13.390625 13.394531 C 10.615683 16.171361 9 20.073326 9 24 C 9 27.926674 10.615683 31.828639 13.390625 34.605469 C 16.165567 37.382299 20.066877 38.999767 23.994141 39 C 27.921404 39.000233 31.825033 37.384266 34.603516 34.607422 C 37.381999 31.830578 39 27.927112 39 24 L 35 24 C 35 26.879882 33.812945 29.742944 31.775391 31.779297 C 29.737836 33.81565 26.874134 35.000171 23.994141 35 C 21.114147 34.999829 18.253707 33.813686 16.21875 31.777344 C 14.183793 29.741001 13 26.879561 13 24 C 13 21.120439 14.183793 18.258999 16.21875 16.222656 C 18.253707 14.186314 21.114147 13.000171 23.994141 13 L 24 13 L 24 9 L 23.994141 9 z M 40.171875 9 L 26 23.171875 L 22.328125 19.5 L 19.5 22.328125 L 23.171875 26 L 25.671875 28.5 L 26 28.828125 L 43 11.828125 L 40.171875 9 z " transform="translate(364.57143,499.79075)" style="fill:#4d4d4d" fill-rule="evenodd"/>
 </g>
</svg>
