<?xml version="1.0" encoding="UTF-8" standalone="no"?>
<!-- Created with Inkscape (http://www.inkscape.org/) -->

<svg
   xmlns:dc="http://purl.org/dc/elements/1.1/"
   xmlns:cc="http://creativecommons.org/ns#"
   xmlns:rdf="http://www.w3.org/1999/02/22-rdf-syntax-ns#"
   xmlns:svg="http://www.w3.org/2000/svg"
   xmlns="http://www.w3.org/2000/svg"
   xmlns:sodipodi="http://sodipodi.sourceforge.net/DTD/sodipodi-0.dtd"
   xmlns:inkscape="http://www.inkscape.org/namespaces/inkscape"
   width="48"
   height="48"
   id="svg11925"
   version="1.1"
   inkscape:version="0.48+devel r12397"
   sodipodi:docname="document-revert.svg">
  <defs
     id="defs11927" />
  <sodipodi:namedview
     id="base"
     pagecolor="#ffffff"
     bordercolor="#666666"
     borderopacity="1.0"
     inkscape:pageopacity="0.0"
     inkscape:pageshadow="2"
     inkscape:zoom="11.313709"
     inkscape:cx="39.105865"
     inkscape:cy="25.268569"
     inkscape:document-units="px"
     inkscape:current-layer="layer1"
     showgrid="true"
     fit-margin-top="0"
     fit-margin-left="0"
     fit-margin-right="0"
     fit-margin-bottom="0"
     inkscape:window-width="1366"
     inkscape:window-height="714"
     inkscape:window-x="0"
     inkscape:window-y="30"
     inkscape:window-maximized="1"
     showguides="true" />
  <metadata
     id="metadata11930">
    <rdf:RDF>
      <cc:Work
         rdf:about="">
        <dc:format>image/svg+xml</dc:format>
        <dc:type
           rdf:resource="http://purl.org/dc/dcmitype/StillImage" />
        <dc:title />
      </cc:Work>
    </rdf:RDF>
  </metadata>
  <g
     inkscape:label="Capa 1"
     inkscape:groupmode="layer"
     id="layer1"
     transform="translate(-387.42856,-548.36218)">
    <g
       transform="matrix(-1,0,0,-1,434.83303,1602.6307)"
       id="layer1-5"
       inkscape:label="Capa 1">
      <path
         inkscape:connector-curvature="0"
         id="path4047"
         d="m 25.505357,1015.2685 c 0.360296,0 0.711368,0.1143 0.99902,0.3525 l 9.402547,7.8453 c 0.357391,0.3022 0.558276,0.7398 0.558276,1.2047 0,0.4708 -0.200885,0.9083 -0.558276,1.2047 l -9.402547,7.8452 c -0.287652,0.2383 -0.638724,0.3526 -0.99902,0.3526 -0.225483,0 -0.463687,-0.048 -0.675808,-0.1469 -0.550896,-0.2615 -0.881489,-0.8061 -0.881489,-1.4104 l 0,-4.7012 c -5.330102,1.3046 -9.285015,6.1079 -9.285015,11.8413 0,2.0265 0.506574,3.9304 1.380999,5.6122 -3.435423,-2.3369 -5.700294,-6.2861 -5.700294,-10.7542 0,-7.1728 5.814478,-12.9873 12.987268,-12.9873 0.135614,0 0.385792,0.021 0.617042,0.029 l 0,-0.029 0,-4.7013 c 0,-0.6043 0.330593,-1.1547 0.881489,-1.4103 C 25.04167,1015.3103 25.279874,1015.2685 25.505357,1015.2685 Z"
         style="fill:#000000;fill-opacity:1;fill-rule:nonzero;stroke:none" />
    </g>
  </g>
</svg>
