<?xml version="1.0" encoding="UTF-8" standalone="no"?>
<!-- Created with Inkscape (http://www.inkscape.org/) -->

<svg
   xmlns:dc="http://purl.org/dc/elements/1.1/"
   xmlns:cc="http://creativecommons.org/ns#"
   xmlns:rdf="http://www.w3.org/1999/02/22-rdf-syntax-ns#"
   xmlns:svg="http://www.w3.org/2000/svg"
   xmlns="http://www.w3.org/2000/svg"
   xmlns:sodipodi="http://sodipodi.sourceforge.net/DTD/sodipodi-0.dtd"
   xmlns:inkscape="http://www.inkscape.org/namespaces/inkscape"
   width="48"
   height="48"
   id="svg4327"
   version="1.1"
   inkscape:version="0.48+devel r12388"
   sodipodi:docname="document-preview.svg">
  <defs
     id="defs4329" />
  <sodipodi:namedview
     id="base"
     pagecolor="#ffffff"
     bordercolor="#666666"
     borderopacity="1.0"
     inkscape:pageopacity="0.0"
     inkscape:pageshadow="2"
     inkscape:zoom="11.2"
     inkscape:cx="21.115523"
     inkscape:cy="37.69925"
     inkscape:document-units="px"
     inkscape:current-layer="layer1"
     showgrid="false"
     fit-margin-top="0"
     fit-margin-left="0"
     fit-margin-right="0"
     fit-margin-bottom="0"
     inkscape:window-width="1366"
     inkscape:window-height="714"
     inkscape:window-x="0"
     inkscape:window-y="30"
     inkscape:window-maximized="1" />
  <metadata
     id="metadata4332">
    <rdf:RDF>
      <cc:Work
         rdf:about="">
        <dc:format>image/svg+xml</dc:format>
        <dc:type
           rdf:resource="http://purl.org/dc/dcmitype/StillImage" />
        <dc:title />
      </cc:Work>
    </rdf:RDF>
  </metadata>
  <g
     inkscape:label="Capa 1"
     inkscape:groupmode="layer"
     id="layer1"
     transform="translate(-593.14286,-682.6479)">
    <g
       style="fill:#000000;display:inline"
       id="g4044"
       transform="matrix(0.91666673,0,0,0.91666673,625.68464,708.81455)">
      <g
         id="layer1-2"
         inkscape:label="Calque 1"
         style="fill:#000000;display:inline">
        <path
           d="m 6.8751223,9.4999475 c 1.4494058,0 2.6249991,-1.175595 2.6249991,-2.6249955 0,-1.4492618 -1.1755933,-2.6248568 -2.6249991,-2.6248568 -1.4493975,0 -2.624991,1.175595 -2.624991,2.6248568 C 4.2501313,8.3243525 5.4257248,9.4999475 6.8751223,9.4999475 Z M 13.560335,13.560299 C 13.267894,13.853711 12.883541,14 12.500015,14 12.116638,14 11.732276,13.853711 11.439835,13.560299 L 9.0942074,11.215643 c -0.6656648,0.340276 -1.4193593,0.534401 -2.2190851,0.534401 -2.6924339,0 -4.8749482,-2.1825148 -4.8749482,-4.875092 C 2.0001741,4.1825135 4.1826884,2 6.8751223,2 9.5675651,2 11.75008,4.1825135 11.75008,6.874952 c 0,0.799722 -0.193985,1.5535545 -0.534398,2.2190865 l 2.344653,2.3456265 c 0.585988,0.585018 0.585988,1.535617 0,2.120634"
           style="fill:#000000;fill-opacity:1;fill-rule:nonzero;stroke:none"
           id="path330"
           inkscape:connector-curvature="0" />
      </g>
    </g>
    <g
       transform="translate(123.30369,182.85714)"
       id="layer1-0"
       inkscape:label="Capa 1">
      <path
         sodipodi:nodetypes="cccsssssscccccccc"
         d="m 487.58951,520.16582 -1.6e-4,0 -1e-5,-11.37505 -13.25027,0 c -1.0353,0 -1.87485,0.83958 -1.87485,1.87522 l 0,26.24987 c 0,1.03601 0.83955,1.87488 1.87485,1.87488 l 22.75008,0 c 1.03565,0 1.8752,-0.83888 1.8752,-1.87488 L 498.96435,520.16582 z m 3.87523,-11.37505 c 0.49679,0 0.97342,0.1978 1.32523,0.54964 l 5.6253,5.62494 c 0.35148,0.35148 0.54893,0.82844 0.54893,1.32559 l -7.49946,0 0,-7.50017"
         style="fill:#000000;fill-opacity:1;fill-rule:nonzero;stroke:none"
         id="path318"
         inkscape:connector-curvature="0" />
    </g>
  </g>
</svg>
