<?xml version="1.0" encoding="UTF-8" standalone="no"?>
<!-- Created with Inkscape (http://www.inkscape.org/) -->

<svg
   xmlns:dc="http://purl.org/dc/elements/1.1/"
   xmlns:cc="http://creativecommons.org/ns#"
   xmlns:rdf="http://www.w3.org/1999/02/22-rdf-syntax-ns#"
   xmlns:svg="http://www.w3.org/2000/svg"
   xmlns="http://www.w3.org/2000/svg"
   xmlns:sodipodi="http://sodipodi.sourceforge.net/DTD/sodipodi-0.dtd"
   xmlns:inkscape="http://www.inkscape.org/namespaces/inkscape"
   width="48"
   height="48"
   id="svg18107"
   version="1.1"
   inkscape:version="0.48+devel r12388"
   sodipodi:docname="document-export.svg">
  <defs
     id="defs18109">
    <linearGradient
       id="linearGradient3257">
      <stop
         id="stop3259"
         style="stop-color:#a50000;stop-opacity:1"
         offset="0" />
      <stop
         id="stop3261"
         style="stop-color:#e73800;stop-opacity:1"
         offset="1" />
    </linearGradient>
  </defs>
  <sodipodi:namedview
     id="base"
     pagecolor="#ffffff"
     bordercolor="#666666"
     borderopacity="1.0"
     inkscape:pageopacity="0.0"
     inkscape:pageshadow="2"
     inkscape:zoom="3.959798"
     inkscape:cx="1.4706346"
     inkscape:cy="2.0043192"
     inkscape:document-units="px"
     inkscape:current-layer="layer1"
     showgrid="false"
     inkscape:window-width="1366"
     inkscape:window-height="714"
     inkscape:window-x="0"
     inkscape:window-y="30"
     inkscape:window-maximized="1" />
  <metadata
     id="metadata18112">
    <rdf:RDF>
      <cc:Work
         rdf:about="">
        <dc:format>image/svg+xml</dc:format>
        <dc:type
           rdf:resource="http://purl.org/dc/dcmitype/StillImage" />
        <dc:title />
      </cc:Work>
    </rdf:RDF>
  </metadata>
  <g
     inkscape:label="Capa 1"
     inkscape:groupmode="layer"
     id="layer1"
     transform="translate(0,-1004.3622)">
    <path
       style="fill:#000000;fill-opacity:1;fill-rule:nonzero;stroke:none"
       d="m 25.210208,1013.3622 c -0.241267,0 -0.486858,0.06 -0.71875,0.1563 -0.700854,0.2903 -1.15625,0.9602 -1.15625,1.7187 l 0,5.625 -5.75,0 0,15 5.75,0 0,5.625 c 0,0.7593 0.455396,1.4282 1.15625,1.7188 0.231892,0.096 0.477483,0.1562 0.71875,0.1562 0.487406,0 0.95407,-0.2041 1.3125,-0.5625 l 13.125,-13.125 c 0.731112,-0.7325 0.731112,-1.8928 0,-2.625 l -13.125,-13.125 C 26.164278,1013.5656 25.697614,1013.3622 25.210208,1013.3622 z m -15.53125,7.5 c -1.035984,0 -1.875,0.8397 -1.875,1.875 l 0,11.25 c 0,1.0356 0.839016,1.875 1.875,1.875 l 0.65625,0 0,-15 L 9.678958,1020.8622 z m 3.0625,0 0,15 2.4375,0 0,-15 L 12.741458,1020.8622 Z"
       id="path338"
       inkscape:connector-curvature="0" />
  </g>
</svg>
