<?xml version="1.0" encoding="UTF-8" standalone="no"?>
<!-- Created with Inkscape (http://www.inkscape.org/) -->

<svg
   xmlns:dc="http://purl.org/dc/elements/1.1/"
   xmlns:cc="http://creativecommons.org/ns#"
   xmlns:rdf="http://www.w3.org/1999/02/22-rdf-syntax-ns#"
   xmlns:svg="http://www.w3.org/2000/svg"
   xmlns="http://www.w3.org/2000/svg"
   xmlns:sodipodi="http://sodipodi.sourceforge.net/DTD/sodipodi-0.dtd"
   xmlns:inkscape="http://www.inkscape.org/namespaces/inkscape"
   width="48"
   height="48"
   id="svg11925"
   version="1.1"
   inkscape:version="0.48+devel r12397"
   sodipodi:docname="browser-download.svg">
  <defs
     id="defs11927" />
  <sodipodi:namedview
     id="base"
     pagecolor="#ffffff"
     bordercolor="#666666"
     borderopacity="1.0"
     inkscape:pageopacity="0.0"
     inkscape:pageshadow="2"
     inkscape:zoom="11.2"
     inkscape:cx="20.690131"
     inkscape:cy="22.868666"
     inkscape:document-units="px"
     inkscape:current-layer="layer1"
     showgrid="true"
     fit-margin-top="0"
     fit-margin-left="0"
     fit-margin-right="0"
     fit-margin-bottom="0"
     inkscape:window-width="1366"
     inkscape:window-height="714"
     inkscape:window-x="0"
     inkscape:window-y="30"
     inkscape:window-maximized="1"
     showguides="false" />
  <metadata
     id="metadata11930">
    <rdf:RDF>
      <cc:Work
         rdf:about="">
        <dc:format>image/svg+xml</dc:format>
        <dc:type
           rdf:resource="http://purl.org/dc/dcmitype/StillImage" />
      </cc:Work>
    </rdf:RDF>
  </metadata>
  <g
     inkscape:label="Capa 1"
     inkscape:groupmode="layer"
     id="layer1"
     transform="translate(-387.42856,-548.36218)">
    <path
       style="fill:#000000;fill-opacity:1;stroke:none"
       d="M 13.34375 9 C 10.94436 9 9 10.94436 9 13.34375 L 9 34.65625 C 9 37.05564 10.94436 39 13.34375 39 L 34.65625 39 C 37.05564 39 39 37.05564 39 34.65625 L 39 13.34375 C 39 10.94436 37.05564 9 34.65625 9 L 13.34375 9 z M 19.59375 11 L 33.3125 11 C 34.112297 11 34.75 11.637703 34.75 12.4375 L 34.75 19.5625 C 34.75 20.362297 34.112297 21 33.3125 21 L 19.59375 21 C 18.793953 21 18.15625 20.362297 18.15625 19.5625 L 18.15625 12.4375 C 18.15625 11.637703 18.793953 11 19.59375 11 z M 15.09375 24.1875 L 32.90625 24.1875 C 33.929989 24.1875 34.75 25.038761 34.75 26.0625 L 34.75 35.15625 C 34.75 36.179989 33.929989 37 32.90625 37 L 15.09375 37 C 14.070011 37 13.25 36.179989 13.25 35.15625 L 13.25 26.0625 C 13.25 25.038761 14.070011 24.1875 15.09375 24.1875 z "
       transform="translate(387.42856,548.36218)"
       id="rect4046" />
    <rect
       style="fill:#000000;fill-opacity:1;stroke:none"
       id="rect4052"
       width="5.1999998"
       height="5.3899999"
       x="414.27847"
       y="561.66718"
       ry="0.7781418" />
  </g>
</svg>
