<?xml version="1.0" encoding="UTF-8" standalone="no"?>
<!-- Created with Inkscape (http://www.inkscape.org/) -->

<svg
   xmlns:dc="http://purl.org/dc/elements/1.1/"
   xmlns:cc="http://creativecommons.org/ns#"
   xmlns:rdf="http://www.w3.org/1999/02/22-rdf-syntax-ns#"
   xmlns:svg="http://www.w3.org/2000/svg"
   xmlns="http://www.w3.org/2000/svg"
   xmlns:sodipodi="http://sodipodi.sourceforge.net/DTD/sodipodi-0.dtd"
   xmlns:inkscape="http://www.inkscape.org/namespaces/inkscape"
   width="48"
   height="48.292236"
   id="svg3944"
   version="1.1"
   inkscape:version="0.48+devel r12388"
   sodipodi:docname="document-open-recent.svg">
  <defs
     id="defs3946" />
  <sodipodi:namedview
     id="base"
     pagecolor="#ffffff"
     bordercolor="#666666"
     borderopacity="1.0"
     inkscape:pageopacity="0.0"
     inkscape:pageshadow="2"
     inkscape:zoom="2.8"
     inkscape:cx="-16.867244"
     inkscape:cy="15.835159"
     inkscape:document-units="px"
     inkscape:current-layer="layer1"
     showgrid="false"
     fit-margin-top="0"
     fit-margin-left="0"
     fit-margin-right="0"
     fit-margin-bottom="0"
     inkscape:window-width="1366"
     inkscape:window-height="714"
     inkscape:window-x="0"
     inkscape:window-y="30"
     inkscape:window-maximized="1" />
  <metadata
     id="metadata3949">
    <rdf:RDF>
      <cc:Work
         rdf:about="">
        <dc:format>image/svg+xml</dc:format>
        <dc:type
           rdf:resource="http://purl.org/dc/dcmitype/StillImage" />
        <dc:title />
      </cc:Work>
    </rdf:RDF>
  </metadata>
  <g
     inkscape:label="Capa 1"
     inkscape:groupmode="layer"
     id="layer1"
     transform="translate(-507.42857,-653.93035)">
    <path
       inkscape:connector-curvature="0"
       id="path294"
       style="fill:#000000;fill-opacity:1;fill-rule:nonzero;stroke:none"
       d="m 538.61342,682.86673 c 0.57433,-0.86147 0.34209,-2.02576 -0.51973,-2.60007 l -4.79026,-3.1935 0,-8.37174 c 0,-1.0353 -0.83957,-1.87487 -1.87521,-1.87487 -1.0353,0 -1.87487,0.83957 -1.87487,1.87487 l 0,9.37505 c 0,0.62715 0.31358,1.2126 0.83505,1.56025 l 5.62495,3.74974 c 0.31984,0.21345 0.6814,0.31567 1.03808,0.31567 C 537.65773,683.70213 538.25222,683.40871 538.61342,682.86673 z m -22.18486,-4.79026 c 0,-8.28412 6.71553,-15 14.99966,-15 8.28481,0 15.00036,6.71588 15.00036,15 0,8.28447 -6.71555,15 -15.00036,15 -8.28413,0 -14.99966,-6.71553 -14.99966,-15" />
  </g>
</svg>
