<svg xmlns="http://www.w3.org/2000/svg" width="48" height="48">
 <g transform="translate(-441.71429,-456.93361)">
  <path d="M 20 9 C 13.906 9 9 13.906 9 20 C 9 26.094 13.906 31 20 31 C 26.094 31 31 26.094 31 20 C 31 13.906 26.094 9 20 9 z M 20 13 C 23.878 13 27 16.122 27 20 C 27 23.878 23.878 27 20 27 C 16.122 27 13 23.878 13 20 C 13 16.122 16.122 13 20 13 z M 30.828125 28 L 28 30.828125 L 36.171875 39 L 39 36.171875 L 30.828125 28 z " transform="translate(441.71429,456.93361)" style="fill:#4d4d4d" fill-rule="evenodd"/>
 </g>
</svg>
