<?xml version="1.0" encoding="UTF-8" standalone="no"?>
<!-- Created with Inkscape (http://www.inkscape.org/) -->

<svg
   xmlns:dc="http://purl.org/dc/elements/1.1/"
   xmlns:cc="http://creativecommons.org/ns#"
   xmlns:rdf="http://www.w3.org/1999/02/22-rdf-syntax-ns#"
   xmlns:svg="http://www.w3.org/2000/svg"
   xmlns="http://www.w3.org/2000/svg"
   xmlns:sodipodi="http://sodipodi.sourceforge.net/DTD/sodipodi-0.dtd"
   xmlns:inkscape="http://www.inkscape.org/namespaces/inkscape"
   width="48"
   height="48"
   id="svg3979"
   version="1.1"
   inkscape:version="0.48+devel r12660"
   sodipodi:docname="editcopy.svg">
  <defs
     id="defs3981" />
  <sodipodi:namedview
     id="base"
     pagecolor="#ffffff"
     bordercolor="#666666"
     borderopacity="1.0"
     inkscape:pageopacity="0.0"
     inkscape:pageshadow="2"
     inkscape:zoom="23.967943"
     inkscape:cx="23.460565"
     inkscape:cy="28.933995"
     inkscape:document-units="px"
     inkscape:current-layer="layer1"
     showgrid="false"
     fit-margin-top="0"
     fit-margin-left="0"
     fit-margin-right="0"
     fit-margin-bottom="0"
     inkscape:window-width="1366"
     inkscape:window-height="714"
     inkscape:window-x="0"
     inkscape:window-y="30"
     inkscape:window-maximized="1">
    <sodipodi:guide
       position="1.4433594e-05,39"
       orientation="30.000031,0"
       id="guide3282" />
    <sodipodi:guide
       position="1.4433594e-05,8.9999696"
       orientation="0,30"
       id="guide3284" />
    <sodipodi:guide
       position="30.000014,8.9999696"
       orientation="-30.000031,0"
       id="guide3286" />
    <sodipodi:guide
       position="30.000014,39"
       orientation="0,-30"
       id="guide3288" />
    <sodipodi:guide
       position="30.000014,26.99997"
       orientation="18,0"
       id="guide3292" />
    <sodipodi:guide
       position="30.000014,8.9999696"
       orientation="0,18"
       id="guide3294" />
    <sodipodi:guide
       position="48.000014,8.9999696"
       orientation="-18,0"
       id="guide3296" />
    <sodipodi:guide
       position="48.000014,26.99997"
       orientation="0,-18"
       id="guide3298" />
    <sodipodi:guide
       position="19.000014,28"
       orientation="0,11"
       id="guide3310" />
    <sodipodi:guide
       position="30.000014,28"
       orientation="-11,0"
       id="guide3312" />
    <sodipodi:guide
       position="30.000014,39"
       orientation="0,-11"
       id="guide3314" />
    <sodipodi:guide
       position="17.000014,28"
       orientation="-10.999969,0"
       id="guide3347" />
    <sodipodi:guide
       position="17.000014,38.99997"
       orientation="0,9"
       id="guide3349" />
    <sodipodi:guide
       position="26.000014,38.99997"
       orientation="10.999969,0"
       id="guide3351" />
    <sodipodi:guide
       position="26.000014,28"
       orientation="0,-9"
       id="guide3353" />
  </sodipodi:namedview>
  <metadata
     id="metadata3984">
    <rdf:RDF>
      <cc:Work
         rdf:about="">
        <dc:format>image/svg+xml</dc:format>
        <dc:type
           rdf:resource="http://purl.org/dc/dcmitype/StillImage" />
        <dc:title />
      </cc:Work>
    </rdf:RDF>
  </metadata>
  <g
     inkscape:label="Capa 1"
     inkscape:groupmode="layer"
     id="layer1"
     transform="translate(-601.71428,-491.21933)">
    <path
       style="fill:#4d4d4d;fill-opacity:1;fill-rule:evenodd;stroke:none"
       d="M 0 9 L 0 39 L 26 39 L 26 24 L 22 24 L 22 35 L 4 35 L 4 13 L 13 13 L 13 9 L 0 9 z "
       transform="translate(601.71428,491.21933)"
       id="rect3278" />
    <path
       sodipodi:type="arc"
       style="fill:none;fill-opacity:1;fill-rule:evenodd;stroke:none"
       id="path3302"
       sodipodi:cx="616.71289"
       sodipodi:cy="528.21936"
       sodipodi:rx="2.0013857"
       sodipodi:ry="2.0000615"
       d="m 618.71428,528.21936 c 0,1.04723 -0.95363,2.00006 -2.0009,2 -1.04727,-6e-5 -1.9991,-0.95289 -1.9991,-2 0,-1.04711 0.95183,-1.99994 1.9991,-2 1.04727,-6e-5 2.0009,0.95277 2.0009,2 z" />
    <path
       d="m 631.71428,528.21936 c 0,1.04723 -0.95363,2.00006 -2.0009,2 -1.04727,-6e-5 -1.9991,-0.95289 -1.9991,-2 0,-1.04711 0.95183,-1.99994 1.9991,-2 1.04727,-6e-5 2.0009,0.95277 2.0009,2 z"
       sodipodi:ry="2.0000615"
       sodipodi:rx="2.0013857"
       sodipodi:cy="528.21936"
       sodipodi:cx="629.71289"
       id="path3316"
       style="fill:none;fill-opacity:1;fill-rule:evenodd;stroke:none"
       sodipodi:type="arc" />
    <rect
       style="fill:#4d4d4d;fill-opacity:1;fill-rule:evenodd;stroke:none"
       id="rect3320"
       width="9"
       height="10.999969"
       x="618.71429"
       y="-511.21933"
       transform="scale(1,-1)" />
    <path
       d="m 605.71428,515.21936 c 0,1.04723 -0.95363,2.00006 -2.0009,2 -1.04727,-6e-5 -1.9991,-0.95289 -1.9991,-2 0,-1.04711 0.95183,-1.99994 1.9991,-2 1.04727,-6e-5 2.0009,0.95277 2.0009,2 z"
       sodipodi:ry="2.0000615"
       sodipodi:rx="2.0013857"
       sodipodi:cy="515.21936"
       sodipodi:cx="603.71289"
       id="path3367"
       style="fill:none;fill-opacity:1;fill-rule:evenodd;stroke:none"
       sodipodi:type="arc" />
    <rect
       y="631.71423"
       x="512.21942"
       height="18"
       width="18"
       id="rect3265"
       style="fill:none;stroke:none"
       transform="matrix(0,1,1,0,0,0)" />
    <rect
       style="fill:#4d4d4d;fill-opacity:1;fill-rule:evenodd;stroke:none"
       id="rect3372-3"
       width="4"
       height="13.999999"
       x="526.21936"
       y="631.71429"
       transform="matrix(0,1,1,0,0,0)" />
    <path
       sodipodi:type="arc"
       style="fill:none;stroke:none"
       id="path3421"
       sodipodi:cx="514.21802"
       sodipodi:cy="647.71423"
       sodipodi:rx="2.0013857"
       sodipodi:ry="2.0000615"
       d="m 516.2194,647.71423 c 0,1.04723 -0.95363,2.00007 -2.0009,2 -1.04727,-6e-5 -1.9991,-0.95288 -1.9991,-2 0,-1.04711 0.95183,-1.99993 1.9991,-2 1.04727,-6e-5 2.0009,0.95277 2.0009,2 z"
       transform="matrix(0,1,1,0,0,0)" />
    <path
       d="m 530.2194,647.71423 c 0,1.04723 -0.95363,2.00007 -2.0009,2 -1.04727,-6e-5 -1.9991,-0.95288 -1.9991,-2 0,-1.04711 0.95183,-1.99993 1.9991,-2 1.04727,-6e-5 2.0009,0.95277 2.0009,2 z"
       sodipodi:ry="2.0000615"
       sodipodi:rx="2.0013857"
       sodipodi:cy="647.71423"
       sodipodi:cx="528.21802"
       id="path3423"
       style="fill:none;stroke:none"
       sodipodi:type="arc"
       transform="matrix(0,1,1,0,0,0)" />
    <rect
       transform="scale(-1,1)"
       y="515.21942"
       x="-645.71423"
       height="15"
       width="4"
       id="rect3284"
       style="fill:#4d4d4d;fill-opacity:1;fill-rule:evenodd;stroke:none" />
    <path
       id="path3288"
       transform="translate(601.71428,491.21933)"
       d="M 0 9 L 0 39 L 26 39 L 26 24 L 22 24 L 22 35 L 4 35 L 4 13 L 13 13 L 13 9 L 0 9 z "
       style="fill:#4d4d4d;fill-opacity:1;fill-rule:evenodd;stroke:none" />
    <rect
       transform="scale(1,-1)"
       y="-511.21933"
       x="636.71423"
       height="10.999969"
       width="9"
       id="rect3313"
       style="fill:#4d4d4d;fill-opacity:1;fill-rule:evenodd;stroke:none" />
  </g>
</svg>
