<?xml version="1.0" encoding="UTF-8" standalone="no"?>
<!-- Created with Inkscape (http://www.inkscape.org/) -->

<svg
   xmlns:dc="http://purl.org/dc/elements/1.1/"
   xmlns:cc="http://creativecommons.org/ns#"
   xmlns:rdf="http://www.w3.org/1999/02/22-rdf-syntax-ns#"
   xmlns:svg="http://www.w3.org/2000/svg"
   xmlns="http://www.w3.org/2000/svg"
   xmlns:sodipodi="http://sodipodi.sourceforge.net/DTD/sodipodi-0.dtd"
   xmlns:inkscape="http://www.inkscape.org/namespaces/inkscape"
   width="48"
   height="48"
   id="svg4355"
   version="1.1"
   inkscape:version="0.48+devel r12388"
   sodipodi:docname="edit-select-all.svg">
  <defs
     id="defs4357" />
  <sodipodi:namedview
     id="base"
     pagecolor="#ffffff"
     bordercolor="#666666"
     borderopacity="1.0"
     inkscape:pageopacity="0.0"
     inkscape:pageshadow="2"
     inkscape:zoom="11.2"
     inkscape:cx="18.445533"
     inkscape:cy="32.859786"
     inkscape:document-units="px"
     inkscape:current-layer="layer1"
     showgrid="false"
     width="0px"
     height="0px"
     fit-margin-top="0"
     fit-margin-left="0"
     fit-margin-right="0"
     fit-margin-bottom="0"
     inkscape:window-width="1366"
     inkscape:window-height="714"
     inkscape:window-x="0"
     inkscape:window-y="30"
     inkscape:window-maximized="1" />
  <metadata
     id="metadata4360">
    <rdf:RDF>
      <cc:Work
         rdf:about="">
        <dc:format>image/svg+xml</dc:format>
        <dc:type
           rdf:resource="http://purl.org/dc/dcmitype/StillImage" />
        <dc:title />
      </cc:Work>
    </rdf:RDF>
  </metadata>
  <g
     inkscape:label="Capa 1"
     inkscape:groupmode="layer"
     id="layer1"
     transform="translate(-544.57141,-716.93359)">
    <g
       id="g839"
       transform="matrix(1.5,0,0,1.5,41.271794,252.29182)">
      <g
         id="text872"
         style="font-size:7.5px;font-style:normal;font-variant:normal;font-weight:bold;font-stretch:normal;line-height:125%;letter-spacing:0px;word-spacing:0px;fill:#ffffff;fill-opacity:1;stroke:none;font-family:Impact;-inkscape-font-specification:Impact Bold" />
    </g>
    <path
       style="fill:#000000;fill-opacity:1;stroke-width:0.2;stroke-linejoin:round"
       d="m 553.57141,725.93359 2.36835,0 0,2.36835 -2.36835,0 L 553.57141,725.93359 Z"
       id="path4105"
       inkscape:connector-curvature="0" />
    <path
       style="fill:#000000;fill-opacity:1;stroke-width:0.2;stroke-linejoin:round"
       d="m 555.93976,733.03879 -2.36835,0 0,-2.36835 2.36835,0 L 555.93976,733.03879 Z"
       id="path4103"
       inkscape:connector-curvature="0" />
    <path
       style="fill:#000000;fill-opacity:1;stroke-width:0.2;stroke-linejoin:round"
       d="m 555.93976,737.77564 -2.36835,0 0,-2.36835 2.36835,0 L 555.93976,737.77564 Z"
       id="path4101"
       inkscape:connector-curvature="0" />
    <path
       style="fill:#000000;fill-opacity:1;stroke-width:0.2;stroke-linejoin:round"
       d="m 556.72931,740.14419 0,1.5789 -3.1579,-5e-5 0,-1.5789 L 556.72931,740.14419 Z"
       id="path4099"
       inkscape:connector-curvature="0" />
    <path
       style="fill:#000000;fill-opacity:1;stroke-width:0.2;stroke-linejoin:round"
       d="m 569.36086,725.93364 0,3.15795 -1.5789,0 0,-3.15795 L 569.36086,725.93364 Z"
       id="path4097"
       inkscape:connector-curvature="0" />
    <path
       style="fill:#000000;fill-opacity:1;stroke-width:0.2;stroke-linejoin:round"
       d="m 563.04511,728.30194 0,-2.3683 2.36835,0 0,2.3683 L 563.04511,728.30194 Z"
       id="path4095"
       inkscape:connector-curvature="0" />
    <path
       style="fill:#000000;fill-opacity:1;stroke-width:0.2;stroke-linejoin:round"
       d="m 558.30826,728.30199 0,-2.36835 2.36835,0 0,2.3683 L 558.30826,728.30199 Z"
       id="path4093"
       inkscape:connector-curvature="0" />
    <path
       style="fill:#000000;fill-opacity:1;stroke-width:0.2;stroke-linejoin:round"
       d="m 583.57136,725.93364 5e-5,2.3683 -2.36835,0 -5e-5,-2.3683 L 583.57136,725.93364 Z"
       id="path4091"
       inkscape:connector-curvature="0" />
    <path
       style="fill:#000000;fill-opacity:1;stroke-width:0.2;stroke-linejoin:round"
       d="m 583.57141,733.03879 -2.36835,0 0,-2.36835 2.36835,0 L 583.57141,733.03879 Z"
       id="path4089"
       inkscape:connector-curvature="0" />
    <path
       style="fill:#000000;fill-opacity:1;stroke-width:0.2;stroke-linejoin:round"
       d="m 583.57141,737.77564 -2.36835,0 0,-2.36835 2.36835,0 L 583.57141,737.77564 Z"
       id="path4087"
       inkscape:connector-curvature="0" />
    <path
       style="fill:#000000;fill-opacity:1;stroke-width:0.2;stroke-linejoin:round"
       d="m 583.57136,755.93359 -2.36835,0 -2.5e-4,-2.3683 2.36865,-5e-5 L 583.57136,755.93359 Z"
       id="path4085"
       inkscape:connector-curvature="0" />
    <path
       style="fill:#000000;fill-opacity:1;stroke-width:0.2;stroke-linejoin:round"
       d="m 580.41341,741.72309 0,-1.5789 3.158,-5e-5 0,1.5789 L 580.41341,741.72309 Z"
       id="path4083"
       inkscape:connector-curvature="0" />
    <path
       style="fill:#000000;fill-opacity:1;stroke-width:0.2;stroke-linejoin:round"
       d="m 583.57141,746.45989 -2.36835,0 0,-2.36835 2.36835,0 L 583.57141,746.45989 Z"
       id="path4081"
       inkscape:connector-curvature="0" />
    <path
       style="fill:#000000;fill-opacity:1;stroke-width:0.2;stroke-linejoin:round"
       d="m 583.57141,751.19674 -2.36835,0 0,-2.36835 2.36835,0 L 583.57141,751.19674 Z"
       id="path4079"
       inkscape:connector-curvature="0" />
    <path
       style="fill:#000000;fill-opacity:1;stroke-width:0.2;stroke-linejoin:round"
       d="m 576.46616,728.30199 0,-2.36835 2.3683,0 0,2.36835 L 576.46616,728.30199 Z"
       id="path4077"
       inkscape:connector-curvature="0" />
    <path
       style="fill:#000000;fill-opacity:1;stroke-width:0.2;stroke-linejoin:round"
       d="m 571.72936,728.30199 0,-2.36835 2.36825,0 0,2.36835 L 571.72936,728.30199 Z"
       id="path4075"
       inkscape:connector-curvature="0" />
    <path
       style="fill:#000000;fill-opacity:1;stroke-width:0.2;stroke-linejoin:round"
       d="m 555.93971,746.45989 -2.3683,0 0,-2.36835 2.3683,0 L 555.93971,746.45989 Z"
       id="path4073"
       inkscape:connector-curvature="0" />
    <path
       style="fill:#000000;fill-opacity:1;stroke-width:0.2;stroke-linejoin:round"
       d="m 555.93976,751.19674 -2.36835,0 0,-2.36835 2.3683,0 L 555.93976,751.19674 Z"
       id="path4071"
       inkscape:connector-curvature="0" />
    <path
       style="fill:#000000;fill-opacity:1;stroke-width:0.2;stroke-linejoin:round"
       d="m 555.93971,753.56529 5e-5,2.3683 -2.36835,0 0,-2.36835 L 555.93971,753.56529 Z"
       id="path4069"
       inkscape:connector-curvature="0" />
    <path
       style="fill:#000000;fill-opacity:1;stroke-width:0.2;stroke-linejoin:round"
       d="m 567.78191,752.77569 1.5789,0 5e-5,3.1579 -1.5789,0 L 567.78191,752.77569 Z"
       id="path4067"
       inkscape:connector-curvature="0" />
    <path
       style="fill:#000000;fill-opacity:1;stroke-width:0.2;stroke-linejoin:round"
       d="m 563.04506,755.93359 0,-2.3683 2.3684,0 0,2.3683 L 563.04506,755.93359 Z"
       id="path4065"
       inkscape:connector-curvature="0" />
    <path
       style="fill:#000000;fill-opacity:1;stroke-width:0.2;stroke-linejoin:round"
       d="m 558.30816,755.93359 0,-2.3683 2.36845,0 0,2.3683 L 558.30816,755.93359 Z"
       id="path4063"
       inkscape:connector-curvature="0" />
    <path
       style="fill:#000000;fill-opacity:1;stroke-width:0.2;stroke-linejoin:round"
       d="m 576.46616,755.93359 0,-2.3683 2.3683,0 0,2.3683 L 576.46616,755.93359 Z"
       id="path4061"
       inkscape:connector-curvature="0" />
    <path
       style="fill:#000000;fill-opacity:1;stroke-width:0.2;stroke-linejoin:round"
       d="m 571.72931,755.93359 0,-2.3683 2.3683,0 0,2.3683 L 571.72931,755.93359 Z"
       id="path4059"
       inkscape:connector-curvature="0" />
    <rect
       style="fill:#000000;fill-opacity:1;stroke:none"
       id="rect4107"
       width="8.3928576"
       height="8.3928576"
       x="564.375"
       y="736.73718"
       ry="1.18011" />
  </g>
</svg>
