<?xml version="1.0" encoding="UTF-8" standalone="no"?>
<!-- Created with Inkscape (http://www.inkscape.org/) -->

<svg
   xmlns:dc="http://purl.org/dc/elements/1.1/"
   xmlns:cc="http://creativecommons.org/ns#"
   xmlns:rdf="http://www.w3.org/1999/02/22-rdf-syntax-ns#"
   xmlns:svg="http://www.w3.org/2000/svg"
   xmlns="http://www.w3.org/2000/svg"
   xmlns:sodipodi="http://sodipodi.sourceforge.net/DTD/sodipodi-0.dtd"
   xmlns:inkscape="http://www.inkscape.org/namespaces/inkscape"
   width="48"
   height="48"
   id="svg3241"
   version="1.1"
   inkscape:version="0.48+devel r12388"
   sodipodi:docname="edit-cut.svg">
  <defs
     id="defs3243" />
  <sodipodi:namedview
     id="base"
     pagecolor="#ffffff"
     bordercolor="#666666"
     borderopacity="1.0"
     inkscape:pageopacity="0.0"
     inkscape:pageshadow="2"
     inkscape:zoom="7.9195959"
     inkscape:cx="1.8745487"
     inkscape:cy="22.615173"
     inkscape:document-units="px"
     inkscape:current-layer="layer1"
     showgrid="false"
     fit-margin-top="0"
     fit-margin-left="0"
     fit-margin-right="0"
     fit-margin-bottom="0"
     inkscape:window-width="1366"
     inkscape:window-height="714"
     inkscape:window-x="0"
     inkscape:window-y="30"
     inkscape:window-maximized="1" />
  <metadata
     id="metadata3246">
    <rdf:RDF>
      <cc:Work
         rdf:about="">
        <dc:format>image/svg+xml</dc:format>
        <dc:type
           rdf:resource="http://purl.org/dc/dcmitype/StillImage" />
        <dc:title />
      </cc:Work>
    </rdf:RDF>
  </metadata>
  <g
     inkscape:label="Capa 1"
     inkscape:groupmode="layer"
     id="layer1"
     transform="translate(-436,-408.36218)">
    <g
       transform="translate(-25.714285,-91.498584)"
       id="layer1-4"
       inkscape:label="Capa 1">
      <path
         sodipodi:nodetypes="cccsssscccsscccccccc"
         d="m 487.58951,520.16582 -1.6e-4,0 -1e-5,-11.37505 -13.25027,0 c -1.0353,0 -1.87485,0.83958 -1.87485,1.87522 l 0,26.24987 c 0,1.03601 0.83955,1.87488 1.87485,1.87488 l 5.68752,-4 5.68752,4 5.68752,-4 5.68752,4 c 0.84712,0.59578 1.8752,-0.83888 1.8752,-1.87488 L 498.96435,520.16582 z m 3.87523,-11.37505 c 0.49679,0 0.97342,0.1978 1.32523,0.54964 l 5.6253,5.62494 c 0.35148,0.35148 0.54893,0.82844 0.54893,1.32559 l -7.49946,0 0,-7.50017"
         style="fill:#000000;fill-opacity:1;fill-rule:nonzero;stroke:none"
         id="path318"
         inkscape:connector-curvature="0" />
    </g>
  </g>
</svg>
