<?xml version="1.0" encoding="UTF-8" standalone="no"?>
<!-- Created with Inkscape (http://www.inkscape.org/) -->

<svg
   xmlns:dc="http://purl.org/dc/elements/1.1/"
   xmlns:cc="http://creativecommons.org/ns#"
   xmlns:rdf="http://www.w3.org/1999/02/22-rdf-syntax-ns#"
   xmlns:svg="http://www.w3.org/2000/svg"
   xmlns="http://www.w3.org/2000/svg"
   xmlns:sodipodi="http://sodipodi.sourceforge.net/DTD/sodipodi-0.dtd"
   xmlns:inkscape="http://www.inkscape.org/namespaces/inkscape"
   width="48"
   height="48"
   id="svg3613"
   version="1.1"
   inkscape:version="0.48+devel r12388"
   sodipodi:docname="gnome-run.svg">
  <defs
     id="defs3615" />
  <sodipodi:namedview
     id="base"
     pagecolor="#ffffff"
     bordercolor="#666666"
     borderopacity="1.0"
     inkscape:pageopacity="0.0"
     inkscape:pageshadow="2"
     inkscape:zoom="5.6"
     inkscape:cx="-19.052426"
     inkscape:cy="23.642644"
     inkscape:document-units="px"
     inkscape:current-layer="layer1"
     showgrid="false"
     inkscape:window-width="1366"
     inkscape:window-height="714"
     inkscape:window-x="0"
     inkscape:window-y="30"
     inkscape:window-maximized="1" />
  <metadata
     id="metadata3618">
    <rdf:RDF>
      <cc:Work
         rdf:about="">
        <dc:format>image/svg+xml</dc:format>
        <dc:type
           rdf:resource="http://purl.org/dc/dcmitype/StillImage" />
        <dc:title />
      </cc:Work>
    </rdf:RDF>
  </metadata>
  <g
     inkscape:label="Capa 1"
     inkscape:groupmode="layer"
     id="layer1"
     transform="translate(0,-1004.3622)">
    <g
       id="layer1-8"
       inkscape:label="Capa 1"
       transform="matrix(0.58261922,-0.33637537,0.33637537,0.58261922,-332.89857,432.29163)">
      <path
         id="rect4046"
         transform="translate(0,1004.3622)"
         d="M 23.125,9 C 21.210352,9 19.606379,10.252594 19.03125,11.96875 17.407747,11.149981 15.359293,11.421957 14,12.78125 L 12.78125,14 c -1.359293,1.359293 -1.631269,3.407747 -0.8125,5.03125 C 10.252594,19.606379 9,21.210352 9,23.125 l 0,1.75 c 0,1.914648 1.252594,3.518621 2.96875,4.09375 -0.818769,1.623503 -0.546793,3.671957 0.8125,5.03125 L 14,35.21875 c 1.359293,1.359293 3.407747,1.631269 5.03125,0.8125 C 19.606379,37.747406 21.210352,39 23.125,39 l 1.75,0 c 1.914648,0 3.518621,-1.252594 4.09375,-2.96875 1.623503,0.818769 3.671957,0.546793 5.03125,-0.8125 L 35.21875,34 c 1.359293,-1.359293 1.631269,-3.407747 0.8125,-5.03125 C 37.747406,28.393621 39,26.789648 39,24.875 l 0,-1.75 C 39,21.210352 37.747406,19.606379 36.03125,19.03125 36.850019,17.407747 36.578043,15.359293 35.21875,14 L 34,12.78125 C 32.640707,11.421957 30.592253,11.149981 28.96875,11.96875 28.393621,10.252594 26.789648,9 24.875,9 L 23.125,9 Z M 24,16.09375 c 4.359105,0 7.90625,3.547145 7.90625,7.90625 0,4.359105 -3.547145,7.90625 -7.90625,7.90625 -4.359105,0 -7.90625,-3.547145 -7.90625,-7.90625 C 16.09375,19.640895 19.640895,16.09375 24,16.09375 Z"
         style="fill:#000000;fill-opacity:1;stroke:none"
         inkscape:connector-curvature="0" />
    </g>
    <g
       inkscape:label="Capa 1"
       id="g4039"
       transform="matrix(0.29130961,-0.16818768,0.16818768,0.29130961,-162.86335,742.82691)">
      <path
         inkscape:connector-curvature="0"
         style="fill:#000000;fill-opacity:1;stroke:none"
         d="M 23.125,9 C 21.210352,9 19.606379,10.252594 19.03125,11.96875 17.407747,11.149981 15.359293,11.421957 14,12.78125 L 12.78125,14 c -1.359293,1.359293 -1.631269,3.407747 -0.8125,5.03125 C 10.252594,19.606379 9,21.210352 9,23.125 l 0,1.75 c 0,1.914648 1.252594,3.518621 2.96875,4.09375 -0.818769,1.623503 -0.546793,3.671957 0.8125,5.03125 L 14,35.21875 c 1.359293,1.359293 3.407747,1.631269 5.03125,0.8125 C 19.606379,37.747406 21.210352,39 23.125,39 l 1.75,0 c 1.914648,0 3.518621,-1.252594 4.09375,-2.96875 1.623503,0.818769 3.671957,0.546793 5.03125,-0.8125 L 35.21875,34 c 1.359293,-1.359293 1.631269,-3.407747 0.8125,-5.03125 C 37.747406,28.393621 39,26.789648 39,24.875 l 0,-1.75 C 39,21.210352 37.747406,19.606379 36.03125,19.03125 36.850019,17.407747 36.578043,15.359293 35.21875,14 L 34,12.78125 C 32.640707,11.421957 30.592253,11.149981 28.96875,11.96875 28.393621,10.252594 26.789648,9 24.875,9 L 23.125,9 Z M 24,16.09375 c 4.359105,0 7.90625,3.547145 7.90625,7.90625 0,4.359105 -3.547145,7.90625 -7.90625,7.90625 -4.359105,0 -7.90625,-3.547145 -7.90625,-7.90625 C 16.09375,19.640895 19.640895,16.09375 24,16.09375 Z"
         transform="translate(0,1004.3622)"
         id="path4041" />
    </g>
    <g
       transform="matrix(0.17478576,-0.1009126,0.1009126,0.17478576,-93.969564,853.04103)"
       id="g4043"
       inkscape:label="Capa 1">
      <path
         id="path4045"
         transform="translate(0,1004.3622)"
         d="M 23.125,9 C 21.210352,9 19.606379,10.252594 19.03125,11.96875 17.407747,11.149981 15.359293,11.421957 14,12.78125 L 12.78125,14 c -1.359293,1.359293 -1.631269,3.407747 -0.8125,5.03125 C 10.252594,19.606379 9,21.210352 9,23.125 l 0,1.75 c 0,1.914648 1.252594,3.518621 2.96875,4.09375 -0.818769,1.623503 -0.546793,3.671957 0.8125,5.03125 L 14,35.21875 c 1.359293,1.359293 3.407747,1.631269 5.03125,0.8125 C 19.606379,37.747406 21.210352,39 23.125,39 l 1.75,0 c 1.914648,0 3.518621,-1.252594 4.09375,-2.96875 1.623503,0.818769 3.671957,0.546793 5.03125,-0.8125 L 35.21875,34 c 1.359293,-1.359293 1.631269,-3.407747 0.8125,-5.03125 C 37.747406,28.393621 39,26.789648 39,24.875 l 0,-1.75 C 39,21.210352 37.747406,19.606379 36.03125,19.03125 36.850019,17.407747 36.578043,15.359293 35.21875,14 L 34,12.78125 C 32.640707,11.421957 30.592253,11.149981 28.96875,11.96875 28.393621,10.252594 26.789648,9 24.875,9 L 23.125,9 Z M 24,16.09375 c 4.359105,0 7.90625,3.547145 7.90625,7.90625 0,4.359105 -3.547145,7.90625 -7.90625,7.90625 -4.359105,0 -7.90625,-3.547145 -7.90625,-7.90625 C 16.09375,19.640895 19.640895,16.09375 24,16.09375 Z"
         style="fill:#000000;fill-opacity:1;stroke:none"
         inkscape:connector-curvature="0" />
    </g>
  </g>
</svg>
