<?xml version="1.0" encoding="UTF-8" standalone="no"?>
<!-- Created with Inkscape (http://www.inkscape.org/) -->

<svg
   xmlns:dc="http://purl.org/dc/elements/1.1/"
   xmlns:cc="http://creativecommons.org/ns#"
   xmlns:rdf="http://www.w3.org/1999/02/22-rdf-syntax-ns#"
   xmlns:svg="http://www.w3.org/2000/svg"
   xmlns="http://www.w3.org/2000/svg"
   xmlns:sodipodi="http://sodipodi.sourceforge.net/DTD/sodipodi-0.dtd"
   xmlns:inkscape="http://www.inkscape.org/namespaces/inkscape"
   width="48"
   height="48"
   id="svg3613"
   version="1.1"
   inkscape:version="0.48+devel r12662"
   sodipodi:docname="gnome-run.svg">
  <defs
     id="defs3615" />
  <sodipodi:namedview
     id="base"
     pagecolor="#ffffff"
     bordercolor="#666666"
     borderopacity="1.0"
     inkscape:pageopacity="0.0"
     inkscape:pageshadow="2"
     inkscape:zoom="5.6811594"
     inkscape:cx="3.5017638"
     inkscape:cy="21.617534"
     inkscape:document-units="px"
     inkscape:current-layer="layer1"
     showgrid="false"
     inkscape:window-width="1366"
     inkscape:window-height="714"
     inkscape:window-x="0"
     inkscape:window-y="30"
     inkscape:window-maximized="1">
    <sodipodi:guide
       position="9,39.000017"
       orientation="30,0"
       id="guide3269" />
    <sodipodi:guide
       position="9,9.0000174"
       orientation="0,30"
       id="guide3271" />
    <sodipodi:guide
       position="39,9.0000174"
       orientation="-30,0"
       id="guide3273" />
    <sodipodi:guide
       position="39,39.000017"
       orientation="0,-30"
       id="guide3275" />
  </sodipodi:namedview>
  <metadata
     id="metadata3618">
    <rdf:RDF>
      <cc:Work
         rdf:about="">
        <dc:format>image/svg+xml</dc:format>
        <dc:type
           rdf:resource="http://purl.org/dc/dcmitype/StillImage" />
        <dc:title></dc:title>
      </cc:Work>
    </rdf:RDF>
  </metadata>
  <g
     inkscape:label="Capa 1"
     inkscape:groupmode="layer"
     id="layer1"
     transform="translate(0,-1004.3622)">
    <rect
       style="fill:none;fill-opacity:1;fill-rule:evenodd;stroke:none"
       id="rect3265"
       width="30"
       height="30"
       x="9"
       y="1013.3622" />
    <rect
       y="1032.3622"
       x="9"
       height="11"
       width="11"
       id="rect4147"
       style="fill:none;fill-opacity:1;fill-rule:evenodd;stroke:none" />
    <rect
       y="1013.3622"
       x="21"
       height="18"
       width="18"
       id="rect4149"
       style="fill:none;fill-opacity:1;fill-rule:evenodd;stroke:none" />
    <path
       inkscape:connector-curvature="0"
       id="path4151"
       d="m 14.499399,1032.3636 c -0.349303,0 -0.698808,0.036 -1.042479,0.1018 l -0.550966,1.3374 0,0.02 c -0.19983,0.079 -0.39567,0.1657 -0.581546,0.273 -0.184799,0.1068 -0.357858,0.2316 -0.524353,0.3647 l -0.01755,-0.01 -1.43546,-0.1914 c -0.4574131,0.5289 -0.816556,1.1409 -1.0470079,1.8007 l 0.8878899,1.1529 0.01472,0.01 c -0.06146,0.4234 -0.05947,0.8552 0.0035,1.2787 l -0.01812,0.01 -0.888459,1.1544 c 0.1130056,0.33 0.2558353,0.6495 0.4303547,0.952 0.1745193,0.3022 0.3800353,0.5859 0.6092923,0.8488 l 1.443387,-0.1927 0.01812,-0.01 c 0.335314,0.2662 0.70795,0.4831 1.105332,0.6416 l 0,0.017 0.554366,1.3449 c 0.686536,0.1302 1.396023,0.1249 2.08269,-0.01 l 0.552099,-1.3386 0,-0.019 c 0.198564,-0.077 0.393337,-0.1651 0.578148,-0.2718 0.185878,-0.1073 0.360345,-0.2329 0.527751,-0.367 l 0.01756,0.01 1.433762,0.1914 c 0.457694,-0.5294 0.816383,-1.142 1.047008,-1.8024 l -0.886758,-1.1507 -0.01472,-0.01 c 0.06156,-0.423 0.05976,-0.8548 -0.0029,-1.278 l 0.01813,-0.01 0.887324,-1.1534 c -0.112923,-0.33 -0.254683,-0.6501 -0.429223,-0.9524 -0.174539,-0.3024 -0.381046,-0.5855 -0.610424,-0.8483 l -1.442255,0.192 -0.01813,0.011 c -0.335177,-0.2658 -0.708123,-0.4834 -1.105333,-0.6415 l -5.81e-4,-0.017 -0.553233,-1.3432 c -0.343631,-0.065 -0.692608,-0.097 -1.041911,-0.096 z m -5.81e-4,2.3086 c 0.834976,0 1.66523,0.344 2.255965,0.9343 0.590734,0.5904 0.934889,1.4199 0.934889,2.2548 0,0.8351 -0.344155,1.6651 -0.934889,2.2555 -0.590735,0.5904 -1.420989,0.9337 -2.255965,0.9337 -0.834977,0 -1.664285,-0.3439 -2.254267,-0.9342 -0.589981,-0.5904 -0.933191,-1.4201 -0.933191,-2.255 0,-0.8348 0.34321,-1.6644 0.933191,-2.2548 0.589982,-0.5903 1.41929,-0.9342 2.254267,-0.9343 z"
       style="fill:#4d4d4d;fill-opacity:1;fill-rule:evenodd;stroke:none" />
    <path
       style="fill:#4d4d4d;fill-opacity:1;fill-rule:evenodd;stroke:none"
       d="m 29.999067,1013.3622 c -0.571749,0 -1.143829,0.058 -1.706357,0.1659 l -0.901839,2.1892 0,0.034 c -0.327086,0.1276 -0.647642,0.2711 -0.951889,0.4468 -0.302484,0.1746 -0.585752,0.3789 -0.858276,0.5968 l -0.02873,-0.017 -2.3496,-0.3133 c -0.748707,0.8656 -1.336562,1.8675 -1.713772,2.9474 l 1.453323,1.8871 0.0241,0.013 c -0.100604,0.693 -0.09734,1.3998 0.0056,2.093 l -0.02966,0.017 -1.45425,1.8889 c 0.184971,0.5401 0.41876,1.0632 0.704417,1.5581 0.285657,0.4947 0.622051,0.9592 0.997306,1.3894 l 2.362576,-0.3152 0.02966,-0.017 c 0.54885,0.4357 1.158791,0.7907 1.809238,1.0501 l 0,0.029 0.9074,2.2014 c 1.123742,0.2132 2.285049,0.2046 3.409006,-0.011 l 0.903691,-2.1911 0,-0.032 c 0.325014,-0.127 0.643823,-0.2702 0.946328,-0.4448 0.304249,-0.1757 0.589823,-0.3812 0.863837,-0.6007 l 0.02873,0.017 2.346819,0.3133 c 0.749167,-0.8666 1.336278,-1.8692 1.713771,-2.9502 l -1.451469,-1.8834 -0.0241,-0.015 c 0.100762,-0.6925 0.09781,-1.3993 -0.0047,-2.0919 l 0.02966,-0.017 1.452396,-1.888 c -0.184834,-0.5402 -0.416871,-1.0641 -0.702563,-1.5589 -0.28569,-0.495 -0.623707,-0.9583 -0.999158,-1.3885 l -2.360723,0.3142 -0.02966,0.018 c -0.548626,-0.4351 -1.159074,-0.7912 -1.809239,-1.0501 l -9.51e-4,-0.029 -0.905546,-2.1985 c -0.562466,-0.1067 -1.133681,-0.1586 -1.705429,-0.1566 z m -9.52e-4,3.7787 c 1.366713,0 2.725695,0.5631 3.692625,1.5295 0.966931,0.9662 1.530252,2.324 1.530252,3.6906 0,1.3668 -0.563321,2.7255 -1.530252,3.6918 -0.96693,0.9663 -2.325912,1.5284 -3.692625,1.5283 -1.366713,0 -2.724147,-0.5629 -3.689845,-1.5292 -0.965698,-0.9663 -1.527472,-2.3243 -1.527472,-3.6909 0,-1.3664 0.561774,-2.7244 1.527472,-3.6906 0.965698,-0.9664 2.323132,-1.5294 3.689845,-1.5295 z"
       id="path4112"
       inkscape:connector-curvature="0" />
  </g>
</svg>
