<?xml version="1.0" encoding="UTF-8" standalone="no"?>
<!-- Created with Inkscape (http://www.inkscape.org/) -->

<svg
   xmlns:dc="http://purl.org/dc/elements/1.1/"
   xmlns:cc="http://creativecommons.org/ns#"
   xmlns:rdf="http://www.w3.org/1999/02/22-rdf-syntax-ns#"
   xmlns:svg="http://www.w3.org/2000/svg"
   xmlns="http://www.w3.org/2000/svg"
   xmlns:sodipodi="http://sodipodi.sourceforge.net/DTD/sodipodi-0.dtd"
   xmlns:inkscape="http://www.inkscape.org/namespaces/inkscape"
   width="48px"
   height="48px"
   id="svg4359"
   version="1.1"
   inkscape:version="0.48+devel r12392"
   sodipodi:docname="go-bottom.svg">
  <defs
     id="defs4361" />
  <sodipodi:namedview
     id="base"
     pagecolor="#ffffff"
     bordercolor="#666666"
     borderopacity="1.0"
     inkscape:pageopacity="0.0"
     inkscape:pageshadow="2"
     inkscape:zoom="5.3467045"
     inkscape:cx="-19.963635"
     inkscape:cy="35.979895"
     inkscape:current-layer="layer1"
     showgrid="true"
     inkscape:grid-bbox="true"
     inkscape:document-units="px"
     inkscape:window-width="1366"
     inkscape:window-height="718"
     inkscape:window-x="0"
     inkscape:window-y="30"
     inkscape:window-maximized="1" />
  <metadata
     id="metadata4364">
    <rdf:RDF>
      <cc:Work
         rdf:about="">
        <dc:format>image/svg+xml</dc:format>
        <dc:type
           rdf:resource="http://purl.org/dc/dcmitype/StillImage" />
        <dc:title />
      </cc:Work>
    </rdf:RDF>
  </metadata>
  <g
     id="layer1"
     inkscape:label="Layer 1"
     inkscape:groupmode="layer">
    <g
       inkscape:label="Layer 1"
       id="layer1-5"
       transform="translate(2.2167888e-6,3.0820308e-7)">
      <path
         d="M 22.674418,33.23369 9.5496385,20.108566 C 9.1905171,19.750135 9.0000077,19.269338 9.0000077,18.781932 c 5e-7,-0.241267 0.04693,-0.485297 0.1428818,-0.717189 C 9.4331769,17.36389 10.116654,16.90707 10.875224,16.90707 l 5.624953,0 0,-11.2499142 c 0,-1.0359851 0.839574,-1.8752121 1.87487,-1.8752111 l 11.249908,-1e-6 c 1.035649,1e-6 1.875218,0.839228 1.875218,1.8752121 l 0,11.2499142 5.624958,0 c 0.759264,0 1.44135,0.456815 1.731985,1.157674 0.0963,0.231891 0.142885,0.475922 0.142884,0.717188 0,0.487406 -0.189817,0.968204 -0.548245,1.326633 L 25.325937,33.23369 c -0.732497,0.731112 -1.919372,0.731112 -2.651519,0"
         style="fill:#000000;fill-opacity:1;fill-rule:nonzero;stroke:none"
         id="path338"
         inkscape:connector-curvature="0" />
      <g
         inkscape:label="Capa 1"
         id="layer1-6"
         transform="translate(-550.28571,-562.39077)">
        <rect
           ry="2.4296522"
           y="-589.28571"
           x="601.60883"
           height="30"
           width="5"
           id="rect4048"
           style="fill:#000000;fill-opacity:1;stroke:none"
           transform="matrix(0,1,-1,0,0,0)" />
      </g>
    </g>
  </g>
</svg>
