<?xml version="1.0" encoding="UTF-8" standalone="no"?>
<!-- Created with Inkscape (http://www.inkscape.org/) -->

<svg
   xmlns:dc="http://purl.org/dc/elements/1.1/"
   xmlns:cc="http://creativecommons.org/ns#"
   xmlns:rdf="http://www.w3.org/1999/02/22-rdf-syntax-ns#"
   xmlns:svg="http://www.w3.org/2000/svg"
   xmlns="http://www.w3.org/2000/svg"
   xmlns:sodipodi="http://sodipodi.sourceforge.net/DTD/sodipodi-0.dtd"
   xmlns:inkscape="http://www.inkscape.org/namespaces/inkscape"
   width="48px"
   height="48px"
   id="svg4359"
   version="1.1"
   inkscape:version="0.48+devel r12388"
   sodipodi:docname="go-jump.svg">
  <defs
     id="defs4361" />
  <sodipodi:namedview
     id="base"
     pagecolor="#ffffff"
     bordercolor="#666666"
     borderopacity="1.0"
     inkscape:pageopacity="0.0"
     inkscape:pageshadow="2"
     inkscape:zoom="9.4062501"
     inkscape:cx="38.612299"
     inkscape:cy="36.221599"
     inkscape:current-layer="layer1"
     showgrid="true"
     inkscape:grid-bbox="true"
     inkscape:document-units="px"
     inkscape:window-width="1366"
     inkscape:window-height="714"
     inkscape:window-x="0"
     inkscape:window-y="30"
     inkscape:window-maximized="1" />
  <metadata
     id="metadata4364">
    <rdf:RDF>
      <cc:Work
         rdf:about="">
        <dc:format>image/svg+xml</dc:format>
        <dc:type
           rdf:resource="http://purl.org/dc/dcmitype/StillImage" />
        <dc:title />
      </cc:Work>
    </rdf:RDF>
  </metadata>
  <g
     id="layer1"
     inkscape:label="Layer 1"
     inkscape:groupmode="layer">
    <g
       id="g839"
       transform="matrix(1,0,0,-1,-258.46623,353.01307)">
      <g
         id="text872"
         style="font-size:7.5px;font-style:normal;font-variant:normal;font-weight:bold;font-stretch:normal;line-height:125%;letter-spacing:0px;word-spacing:0px;fill:#ffffff;fill-opacity:1;stroke:none;font-family:Impact;-inkscape-font-specification:Impact Bold" />
    </g>
    <path
       style="fill:#000000;fill-opacity:1;fill-rule:nonzero;stroke:none"
       d="m 21.853479,39 c 0.360296,0 0.711368,-0.1143 0.99902,-0.3525 l 9.402547,-7.8453 c 0.357391,-0.3022 0.558276,-0.7398 0.558276,-1.2047 0,-0.4708 -0.200885,-0.9083 -0.558276,-1.2047 l -9.402547,-7.8452 c -0.287652,-0.2383 -0.638724,-0.3526 -0.99902,-0.3526 -0.225483,0 -0.463687,0.048 -0.675808,0.1469 -0.550896,0.2615 -0.881489,0.8061 -0.881489,1.4104 l 0,4.7012 c -5.330102,-1.3046 -9.285015,-6.1079 -9.285015,-11.8413 0,-2.0265 0.506574,-3.9304 1.380999,-5.6122 -3.4354231,2.3369 -5.7002941,6.2861 -5.7002941,10.7542 0,7.1728 5.8144781,12.9873 12.9872681,12.9873 0.135614,0 0.385792,-0.021 0.617042,-0.029 l 0,0.029 0,4.7013 c 0,0.6043 0.330593,1.1547 0.881489,1.4103 C 21.389792,38.9582 21.627996,39 21.853479,39 Z"
       id="path4047"
       inkscape:connector-curvature="0" />
    <path
       sodipodi:type="arc"
       style="fill:#000000;fill-opacity:1;stroke:none"
       id="path4048"
       sodipodi:cx="42.849262"
       sodipodi:cy="17.479298"
       sodipodi:rx="2.706269"
       sodipodi:ry="2.706269"
       d="m 45.555531,17.479298 a 2.706269,2.706269 0 1 1 -5.412538,0 A 2.706269,2.706269 0 1 1 45.555531,17.479298 Z"
       transform="matrix(1,0,0,-1,-4.2474031,47.066536)" />
  </g>
</svg>
