<svg xmlns="http://www.w3.org/2000/svg" width="48" height="48">
 <g transform="translate(0,-1004.3622)">
  <path d="M 24 9 C 20.074714 9 16.173585 10.617078 13.396484 13.392578 C 10.618001 16.169378 9 20.0729 9 24 C 9 27.9271 10.618001 31.830622 13.396484 34.607422 C 16.174967 37.384322 20.078596 39.0002 24.005859 39 C 27.933123 38.9998 31.834433 37.382269 34.609375 34.605469 C 34.744266 34.470484 34.870765 34.327701 35 34.1875 L 35 39 L 39 39 L 39 28 L 28 28 L 28 32 L 31.535156 32 C 29.518555 33.894717 26.775092 34.999808 24.005859 35 C 21.125866 35.0002 18.262164 33.815597 16.224609 31.779297 C 14.187055 29.742897 13 26.8799 13 24 C 13 21.1201 14.187055 18.257103 16.224609 16.220703 C 18.260784 14.185703 21.121981 13.0014 24 13 L 24 9 z M 35.498047 17 C 33.665324 17 32 18.6675 32 20.5 C 32 22.3325 33.665324 24 35.498047 24 C 37.330771 24.0002 39 22.3327 39 20.5 C 39 18.6673 37.330771 16.9998 35.498047 17 z " transform="translate(0,1004.3622)" style="fill:#4d4d4d" fill-rule="evenodd"/>
 </g>
</svg>
