<?xml version="1.0" encoding="UTF-8" standalone="no"?>
<!-- Created with Inkscape (http://www.inkscape.org/) -->

<svg
   xmlns:dc="http://purl.org/dc/elements/1.1/"
   xmlns:cc="http://creativecommons.org/ns#"
   xmlns:rdf="http://www.w3.org/1999/02/22-rdf-syntax-ns#"
   xmlns:svg="http://www.w3.org/2000/svg"
   xmlns="http://www.w3.org/2000/svg"
   xmlns:sodipodi="http://sodipodi.sourceforge.net/DTD/sodipodi-0.dtd"
   xmlns:inkscape="http://www.inkscape.org/namespaces/inkscape"
   width="48"
   height="48"
   id="svg4169"
   version="1.1"
   inkscape:version="0.48+devel r12388"
   sodipodi:docname="go-last.svg">
  <defs
     id="defs4171" />
  <sodipodi:namedview
     id="base"
     pagecolor="#ffffff"
     bordercolor="#666666"
     borderopacity="1.0"
     inkscape:pageopacity="0.0"
     inkscape:pageshadow="2"
     inkscape:zoom="5.6"
     inkscape:cx="-17.445491"
     inkscape:cy="24.257026"
     inkscape:document-units="px"
     inkscape:current-layer="layer1"
     showgrid="false"
     inkscape:window-width="1366"
     inkscape:window-height="714"
     inkscape:window-x="0"
     inkscape:window-y="30"
     inkscape:window-maximized="1" />
  <metadata
     id="metadata4174">
    <rdf:RDF>
      <cc:Work
         rdf:about="">
        <dc:format>image/svg+xml</dc:format>
        <dc:type
           rdf:resource="http://purl.org/dc/dcmitype/StillImage" />
        <dc:title></dc:title>
      </cc:Work>
    </rdf:RDF>
  </metadata>
  <g
     inkscape:label="Capa 1"
     inkscape:groupmode="layer"
     id="layer1"
     transform="translate(0,-1004.3622)">
    <g
       transform="matrix(0,1,1,0,-569.60881,454.07649)"
       id="layer1-6"
       inkscape:label="Capa 1">
      <rect
         transform="matrix(0,1,-1,0,0,0)"
         style="fill:#000000;fill-opacity:1;stroke:none"
         id="rect4048"
         width="5"
         height="30"
         x="601.60883"
         y="-589.28571"
         ry="2.4296522" />
    </g>
    <path
       style="fill:#000000;fill-opacity:1;fill-rule:nonzero;stroke:none"
       d="m 12.874984,1043.3622 c 0.4874,0 0.9853,-0.1722 1.3438,-0.5313 l 13.125,-13.125 c 0.7311,-0.7322 0.7311,-1.9237 0,-2.6562 l -13.125,-13.125 c -0.3585,-0.3584 -0.8564,-0.5625 -1.3438,-0.5625 -0.2412,0 -0.4868,0.06 -0.7187,0.1562 -0.7009,0.2906 -1.1563,0.9595 -1.1563,1.7188 l 0,5.625 0,15 0,5.625 c 0,0.7585 0.4554,1.4597 1.1563,1.75 C 12.388184,1043.3331 12.633784,1043.3622 12.874984,1043.3622 Z"
       id="path338-3"
       inkscape:connector-curvature="0" />
  </g>
</svg>
