<?xml version="1.0" encoding="UTF-8" standalone="no"?>
<!-- Created with Inkscape (http://www.inkscape.org/) -->

<svg
   xmlns:dc="http://purl.org/dc/elements/1.1/"
   xmlns:cc="http://creativecommons.org/ns#"
   xmlns:rdf="http://www.w3.org/1999/02/22-rdf-syntax-ns#"
   xmlns:svg="http://www.w3.org/2000/svg"
   xmlns="http://www.w3.org/2000/svg"
   xmlns:sodipodi="http://sodipodi.sourceforge.net/DTD/sodipodi-0.dtd"
   xmlns:inkscape="http://www.inkscape.org/namespaces/inkscape"
   width="48px"
   height="48px"
   id="svg4359"
   version="1.1"
   inkscape:version="0.48+devel r12397"
   sodipodi:docname="arrow-left.svg">
  <defs
     id="defs4361" />
  <sodipodi:namedview
     id="base"
     pagecolor="#ffffff"
     bordercolor="#666666"
     borderopacity="1.0"
     inkscape:pageopacity="0.0"
     inkscape:pageshadow="2"
     inkscape:zoom="5.6568543"
     inkscape:cx="0.8737829"
     inkscape:cy="28.710398"
     inkscape:current-layer="layer1"
     showgrid="true"
     inkscape:grid-bbox="true"
     inkscape:document-units="px"
     inkscape:window-width="1366"
     inkscape:window-height="714"
     inkscape:window-x="0"
     inkscape:window-y="30"
     inkscape:window-maximized="1" />
  <metadata
     id="metadata4364">
    <rdf:RDF>
      <cc:Work
         rdf:about="">
        <dc:format>image/svg+xml</dc:format>
        <dc:type
           rdf:resource="http://purl.org/dc/dcmitype/StillImage" />
        <dc:title></dc:title>
      </cc:Work>
    </rdf:RDF>
  </metadata>
  <g
     id="layer1"
     inkscape:label="Layer 1"
     inkscape:groupmode="layer">
    <path
       inkscape:connector-curvature="0"
       id="path338"
       style="fill:#000000;fill-opacity:1;fill-rule:nonzero;stroke:none"
       d="M 9.5482943,22.674415 22.673419,9.5496342 c 0.35843,-0.3591215 0.839227,-0.549631 1.326633,-0.549631 0.241267,0 0.485297,0.04693 0.717189,0.142882 0.700854,0.2902875 1.157673,0.9737658 1.157673,1.7323348 l 0,5.624954 11.249914,0 c 1.035985,0 1.875212,0.839573 1.875212,1.87487 l 0,11.249908 c 0,1.035648 -0.839227,1.875218 -1.875212,1.875218 l -11.249914,0 0,5.624957 c 0,0.759265 -0.456819,1.44135 -1.157673,1.731985 -0.231892,0.0963 -0.475922,0.142885 -0.717189,0.142885 -0.487406,0 -0.968203,-0.18982 -1.326633,-0.548245 L 9.5482943,25.325933 c -0.731112,-0.732497 -0.731112,-1.919371 0,-2.651518" />
  </g>
</svg>
