<?xml version="1.0" encoding="UTF-8" standalone="no"?>
<!-- Created with Inkscape (http://www.inkscape.org/) -->

<svg
   xmlns:dc="http://purl.org/dc/elements/1.1/"
   xmlns:cc="http://creativecommons.org/ns#"
   xmlns:rdf="http://www.w3.org/1999/02/22-rdf-syntax-ns#"
   xmlns:svg="http://www.w3.org/2000/svg"
   xmlns="http://www.w3.org/2000/svg"
   xmlns:sodipodi="http://sodipodi.sourceforge.net/DTD/sodipodi-0.dtd"
   xmlns:inkscape="http://www.inkscape.org/namespaces/inkscape"
   width="48"
   height="48"
   id="svg3780"
   version="1.1"
   inkscape:version="0.48+devel r12397"
   sodipodi:docname="application-menu.svg">
  <defs
     id="defs3782" />
  <sodipodi:namedview
     id="base"
     pagecolor="#ffffff"
     bordercolor="#666666"
     borderopacity="1.0"
     inkscape:pageopacity="0.0"
     inkscape:pageshadow="2"
     inkscape:zoom="4.3250063"
     inkscape:cx="-9.9390041"
     inkscape:cy="9.8484212"
     inkscape:document-units="px"
     inkscape:current-layer="layer1"
     showgrid="false"
     inkscape:window-width="1366"
     inkscape:window-height="714"
     inkscape:window-x="0"
     inkscape:window-y="30"
     inkscape:window-maximized="1" />
  <metadata
     id="metadata3785">
    <rdf:RDF>
      <cc:Work
         rdf:about="">
        <dc:format>image/svg+xml</dc:format>
        <dc:type
           rdf:resource="http://purl.org/dc/dcmitype/StillImage" />
        <dc:title />
      </cc:Work>
    </rdf:RDF>
  </metadata>
  <g
     inkscape:label="Capa 1"
     inkscape:groupmode="layer"
     id="layer1"
     transform="translate(0,-1004.3622)">
    <path
       style="fill:#000000;fill-opacity:1;stroke:none"
       d="M 23.125 9 C 21.210352 9 19.606379 10.252594 19.03125 11.96875 C 17.407747 11.149981 15.359293 11.421957 14 12.78125 L 12.78125 14 C 11.421957 15.359293 11.149981 17.407747 11.96875 19.03125 C 10.252594 19.606379 9 21.210352 9 23.125 L 9 24.875 C 9 26.789648 10.252594 28.393621 11.96875 28.96875 C 11.149981 30.592253 11.421957 32.640707 12.78125 34 L 14 35.21875 C 15.359293 36.578043 17.407747 36.850019 19.03125 36.03125 C 19.606379 37.747406 21.210352 39 23.125 39 L 24.875 39 C 26.789648 39 28.393621 37.747406 28.96875 36.03125 C 30.592253 36.850019 32.640707 36.578043 34 35.21875 L 35.21875 34 C 36.578043 32.640707 36.850019 30.592253 36.03125 28.96875 C 37.747406 28.393621 39 26.789648 39 24.875 L 39 23.125 C 39 21.210352 37.747406 19.606379 36.03125 19.03125 C 36.850019 17.407747 36.578043 15.359293 35.21875 14 L 34 12.78125 C 32.640707 11.421957 30.592253 11.149981 28.96875 11.96875 C 28.393621 10.252594 26.789648 9 24.875 9 L 23.125 9 z M 24 16.09375 C 28.359105 16.09375 31.90625 19.640895 31.90625 24 C 31.90625 28.359105 28.359105 31.90625 24 31.90625 C 19.640895 31.90625 16.09375 28.359105 16.09375 24 C 16.09375 19.640895 19.640895 16.09375 24 16.09375 z "
       transform="translate(0,1004.3622)"
       id="rect4046" />
  </g>
</svg>
