<svg xmlns="http://www.w3.org/2000/svg" width="48" height="48" viewBox="0 0 13.546667 13.546667">
 <g transform="translate(0,-283.45333)">
  <path d="M 23.998047 9 C 22.165324 9.0001063 20.5 10.667579 20.5 12.5 C 20.5 14.332457 22.165324 15.999894 23.998047 16 C 25.83077 16.000106 27.5 14.332634 27.5 12.5 C 27.5 10.667402 25.83077 8.9998937 23.998047 9 z M 18 21 L 18 23 L 22 23 L 22 36 L 19.5 36 L 19.5 39 L 28.5 39 L 28.5 36 L 26 36 L 26 21 L 22 21 L 18 21 z " transform="matrix(0.28222223,0,0,0.28222223,0,283.45333)" style="fill:#4d4d4d" fill-rule="evenodd"/>
 </g>
</svg>
