<svg xmlns="http://www.w3.org/2000/svg" width="48" height="48">
 <g transform="translate(0,-1004.3622)">
  <g transform="translate(-61.043672,-14.648105)">
   <path d="m 84.443686,1052.0103 c 1.656911,0 3.000049,1.3429 3.000049,3 0,1.6571 -1.343138,3 -3.000049,3 -1.656837,0 -2.99998,-1.3429 -2.99998,-3 C 81.443706,1053.3532 82.786849,1052.0103 84.443686,1052.0103 z m 0.600027,-24 c 5.301931,0 9.599955,3.4293 9.599955,8.4 0,1.8 -1.199978,4.8 -3.599926,6 -2.400028,1.2 -3.600007,2.8115 -3.600007,4.8 l 0,2.4 -6.000029,0 0,-1.8 c 0,-4.0811 3.600007,-6.6 4.79998,-7.8 2.400028,-2.4 2.400028,-2.733 2.400028,-3.6 0,-1.9885 -1.611819,-3.6 -3.600001,-3.6 -1.988263,0 -3.600007,1.6115 -3.600007,3.6 l 0,1.8 -6.000031,0 0,-1.2 C 75.443676,1032.0396 79.741776,1028.0103 85.043713,1028.0103 Z" style="fill:#4d4d4d" stroke-linejoin="round" stroke-width="0.2"/>
  </g>
 </g>
</svg>
