<?xml version="1.0" standalone="no"?>
<!DOCTYPE svg PUBLIC "-//W3C//DTD SVG 20010904//EN" "http://www.w3.org/TR/2001/REC-SVG-20010904/DTD/svg10.dtd">
<!-- Created using Karbon, part of Calligra: http://www.calligra.org/karbon -->
<svg xmlns="http://www.w3.org/2000/svg" xmlns:xlink="http://www.w3.org/1999/xlink" width="38.4pt" height="38.4pt">
<defs/>
<g id="layer1">
  <rect id="rect3286" transform="translate(9.18259, 9)" fill="none" width="24.00000000000pt" height="24.00000000000pt"/>
  <rect id="rect3308" transform="translate(9, 28)" fill="#4d4d4d" width="3.20000000000pt" height="8.80000000000pt"/>
  <rect id="rect3310" transform="translate(35, 28)" fill="#4d4d4d" width="3.20000000000pt" height="8.80000000000pt"/>
  <rect id="rect3312" transform="translate(9, 9)" fill="#4d4d4d" width="3.20000000000pt" height="8.80000000000pt"/>
  <rect id="rect3314" transform="translate(35, 9)" fill="#4d4d4d" width="3.20000000000pt" height="8.80000000000pt"/>
  <rect id="rect3316" transform="matrix(0 -1 1 0 28 39)" fill="#4d4d4d" width="3.20000000000pt" height="8.80000000000pt"/>
  <rect id="rect3318" transform="matrix(0 -1 1 0 9 13)" fill="#4d4d4d" width="3.20000000000pt" height="8.80000000000pt"/>
  <rect id="rect3320" transform="matrix(0 1 1 0 28 9)" fill="#4d4d4d" width="3.20000000000pt" height="8.80000000000pt"/>
  <rect id="rect3322" transform="matrix(0 1 1 0 9 35)" fill="#4d4d4d" width="3.20000000000pt" height="8.80000000000pt"/>
  <path id="path3293" transform="matrix(2.35922e-16 1 1 -2.35922e-16 18.3983 15.962)" fill="#4d4d4d" fill-rule="evenodd" d="M0 11.0867L8.21441 5.54329L0 0Z"/>
  <path id="path32931" transform="matrix(-1 0 0 1 29.4703 24.0835)" fill="#4d4d4d" fill-rule="evenodd" d="M11.0906 8.22049L5.54522 0L0 8.22049Z"/>
 </g>
</svg>
