<svg xmlns="http://www.w3.org/2000/svg" width="48" height="48">
 <g transform="translate(0,-1004.3622)">
  <path d="M 34.804688 26 C 34.394344 28.168924 33.338058 30.217551 31.775391 31.779297 C 30.706226 32.847831 29.407102 33.675208 28 34.226562 L 28 38.429688 C 30.476418 37.735018 32.78321 36.426653 34.603516 34.607422 C 36.907859 32.304438 38.396819 29.22363 38.84375 26 L 34.804688 26 z " transform="translate(0,1004.3622)" style="fill:#e74c3c" fill-rule="evenodd"/>
  <path d="M 9.1542969 22 C 9.0624831 22.663107 9 23.329987 9 24 C 9 27.926674 10.615683 31.828639 13.390625 34.605469 C 16.165567 37.382298 20.066877 38.999767 23.994141 39 C 25.348484 39.00008 26.696455 38.79535 28 38.429688 L 28 34.226562 C 26.725526 34.725949 25.362916 35.000081 23.994141 35 C 21.114147 34.999829 18.253707 33.813686 16.21875 31.777344 C 14.183793 29.741002 13 26.879561 13 24 C 13 23.328869 13.070916 22.658946 13.195312 22 L 9.1542969 22 z " transform="translate(0,1004.3622)" style="fill:#e74c3c" fill-rule="evenodd"/>
  <path d="M 23.994141 9 C 20.066877 9.0002328 16.165567 10.617702 13.390625 13.394531 C 11.089175 15.697547 9.6005662 18.776905 9.1542969 22 L 13.195312 22 C 13.604654 19.831666 14.658074 17.784394 16.21875 16.222656 C 18.253707 14.186314 21.114147 13.000171 23.994141 13 C 25.362916 12.999919 26.725526 13.274051 28 13.773438 L 28 9.5703125 C 26.696455 9.2046501 25.348484 8.9999197 23.994141 9 z " transform="translate(0,1004.3622)" style="fill:#e74c3c" fill-rule="evenodd"/>
  <path d="M 28 9.5703125 L 28 13.773438 C 29.407102 14.324792 30.706226 15.152169 31.775391 16.220703 C 33.338058 17.782449 34.394344 19.831076 34.804688 22 L 38.84375 22 C 38.396819 18.77637 36.907859 15.695562 34.603516 13.392578 C 32.78321 11.573347 30.476418 10.264982 28 9.5703125 z " transform="translate(0,1004.3622)" style="fill:#e74c3c" fill-rule="evenodd"/>
  <path d="M 28 15.238281 C 26.36082 15.618056 24.824617 16.446057 23.634766 17.636719 C 21.969801 19.302817 21 21.643996 21 24 C 21 26.356004 21.969801 28.697183 23.634766 30.363281 C 24.824617 31.553943 26.36082 32.381944 28 32.761719 L 28 15.238281 z " transform="translate(0,1004.3622)" style="fill:#e74c3c" fill-rule="evenodd"/>
  <rect width="4" height="7" x="19" y="1024.86" style="fill:#e74c3c" fill-rule="evenodd"/>
  <rect y="-39" x="1026.36" height="11" width="4" transform="matrix(0,1,-1,0,0,0)" style="fill:#e74c3c" fill-rule="evenodd"/>
 </g>
</svg>
