<?xml version="1.0" standalone="no"?>
<!DOCTYPE svg PUBLIC "-//W3C//DTD SVG 20010904//EN" "http://www.w3.org/TR/2001/REC-SVG-20010904/DTD/svg10.dtd">
<!-- Created using Karbon, part of Calligra: http://www.calligra.org/karbon -->
<svg xmlns="http://www.w3.org/2000/svg" xmlns:xlink="http://www.w3.org/1999/xlink" width="38.4pt" height="38.4pt">
<defs/>
<g id="layer1">
  <path id="shape0" transform="translate(17.4084, 17.4708)" fill="#4d4d4d" fill-rule="evenodd" stroke="#003bc3" stroke-width="0.00000000000" stroke-linecap="square" stroke-linejoin="miter" stroke-miterlimit="2.00000000000" d="M13.7584 6.7697C13.6978 2.98143 10.5857 -0.0448889 6.79721 0.000504039C3.00868 0.0458968 -0.0300381 3.14592 0.000224083 6.93462C0.0304863 10.7232 3.11834 13.7744 6.90706 13.7592C10.6959 13.7441 13.7592 10.6684 13.7592 6.87961"/>
  <path id="shape01" transform="translate(4.25359, 8.78465)" fill="#4d4d4d" d="M19.9896 3.3947C28.7977 3.3947 34.3581 11.8806 36.2304 15.2761C34.3548 18.6775 28.7955 27.1575 19.9896 27.1575C11.1829 27.1575 5.62334 18.7208 3.74931 15.3394C5.62208 11.9242 11.1829 3.3947 19.9896 3.3947M19.9896 0C6.66322 0 0 15.3466 0 15.3466C0 15.3466 6.66322 30.5522 19.9896 30.5522C33.316 30.5522 39.9793 15.2761 39.9793 15.2761C39.9793 15.2761 33.316 0 19.9896 0Z"/>
 </g>
</svg>
