<?xml version="1.0" encoding="UTF-8" standalone="no"?>
<!-- Created with Inkscape (http://www.inkscape.org/) -->

<svg
   xmlns:dc="http://purl.org/dc/elements/1.1/"
   xmlns:cc="http://creativecommons.org/ns#"
   xmlns:rdf="http://www.w3.org/1999/02/22-rdf-syntax-ns#"
   xmlns:svg="http://www.w3.org/2000/svg"
   xmlns="http://www.w3.org/2000/svg"
   xmlns:sodipodi="http://sodipodi.sourceforge.net/DTD/sodipodi-0.dtd"
   xmlns:inkscape="http://www.inkscape.org/namespaces/inkscape"
   width="48"
   height="48"
   id="svg2"
   version="1.1"
   inkscape:version="0.48+devel r12660"
   sodipodi:docname="document-decrypt.svg">
  <defs
     id="defs4" />
  <sodipodi:namedview
     id="base"
     pagecolor="#ffffff"
     bordercolor="#666666"
     borderopacity="1.0"
     inkscape:pageopacity="0.0"
     inkscape:pageshadow="2"
     inkscape:zoom="11.477675"
     inkscape:cx="17.304409"
     inkscape:cy="30.194328"
     inkscape:document-units="px"
     inkscape:current-layer="layer1"
     showgrid="true"
     inkscape:window-width="1366"
     inkscape:window-height="714"
     inkscape:window-x="0"
     inkscape:window-y="30"
     inkscape:window-maximized="1">
    <sodipodi:guide
       position="9,39.000017"
       orientation="30,0"
       id="guide3264" />
    <sodipodi:guide
       position="9,9.0000174"
       orientation="0,30"
       id="guide3266" />
    <sodipodi:guide
       position="39,9.0000174"
       orientation="-30,0"
       id="guide3268" />
    <sodipodi:guide
       position="39,39.000017"
       orientation="0,-30"
       id="guide3270" />
    <sodipodi:guide
       position="16,28.000017"
       orientation="4,0"
       id="guide3324" />
    <sodipodi:guide
       position="16,24.000017"
       orientation="0,4"
       id="guide3326" />
    <sodipodi:guide
       position="20,24.000017"
       orientation="-4,0"
       id="guide3328" />
    <sodipodi:guide
       position="20,28.000017"
       orientation="0,-4"
       id="guide3330" />
  </sodipodi:namedview>
  <metadata
     id="metadata7">
    <rdf:RDF>
      <cc:Work
         rdf:about="">
        <dc:format>image/svg+xml</dc:format>
        <dc:type
           rdf:resource="http://purl.org/dc/dcmitype/StillImage" />
        <dc:title />
      </cc:Work>
    </rdf:RDF>
  </metadata>
  <g
     inkscape:label="Capa 1"
     inkscape:groupmode="layer"
     id="layer1"
     transform="translate(0,-1004.3622)">
    <rect
       style="fill:none;fill-opacity:1;fill-rule:evenodd;stroke:none"
       id="rect3260"
       width="30"
       height="30"
       x="9"
       y="1013.3622"
       ry="0" />
    <rect
       ry="0"
       y="1028.3622"
       x="13"
       height="15"
       width="22"
       id="rect3272"
       style="fill:#4d4d4d;fill-opacity:1;fill-rule:evenodd;stroke:none" />
    <path
       d="m 16,1028.3622 a 3.502425,3.5001078 0 1 1 0,0 3.502425,3.5001078 0 1 1 0,0 z"
       sodipodi:ry="3.5001078"
       sodipodi:rx="3.502425"
       sodipodi:cy="1028.3622"
       sodipodi:cx="12.497575"
       id="path3282"
       style="fill:none;fill-opacity:1;fill-rule:evenodd;stroke:none"
       sodipodi:type="arc" />
    <path
       sodipodi:type="arc"
       style="fill:none;fill-opacity:1;fill-rule:evenodd;stroke:none"
       id="path3274"
       sodipodi:cx="10.998614"
       sodipodi:cy="1028.3622"
       sodipodi:rx="2.0013857"
       sodipodi:ry="2.0000615"
       d="m 13,1028.3622 a 2.0013857,2.0000615 0 1 1 0,0 2.0013857,2.0000615 0 1 1 0,0 z" />
    <path
       sodipodi:type="arc"
       style="fill:none;fill-opacity:1;fill-rule:evenodd;stroke:none"
       id="path3280"
       sodipodi:cx="35.497578"
       sodipodi:cy="1028.3622"
       sodipodi:rx="3.502425"
       sodipodi:ry="3.5001078"
       d="m 39.000003,1028.3622 a 3.502425,3.5001078 0 1 1 0,0 3.502425,3.5001078 0 1 1 0,0 z" />
    <path
       d="m 39.000001,1028.3622 a 2.0013857,2.0000615 0 1 1 0,0 2.0013857,2.0000615 0 1 1 0,0 z"
       sodipodi:ry="2.0000615"
       sodipodi:rx="2.0013857"
       sodipodi:cy="1028.3622"
       sodipodi:cx="36.998615"
       id="path3276"
       style="fill:none;fill-opacity:1;fill-rule:evenodd;stroke:none"
       sodipodi:type="arc" />
    <path
       style="fill:#4d4d4d;fill-opacity:1;fill-rule:evenodd;stroke:none"
       d="M 23.5 9 C 19.345 9 16 12.345 16 16.5 L 16 20 L 20 20 L 20 17.019531 L 20.001953 17.019531 C 20.001921 17.012848 20 17.006691 20 17 C 20 14.784 21.784002 13 24 13 C 26.215998 13 28 14.784 28 17 C 28 17.006691 27.998079 17.012848 27.998047 17.019531 L 28 17.019531 L 28 24 L 32 24 L 32 16.5 C 32 12.345 28.655 9 24.5 9 L 23.5 9 z "
       transform="translate(0,1004.3622)"
       id="rect3278" />
    <path
       sodipodi:type="arc"
       style="fill:none;fill-opacity:1;fill-rule:evenodd;stroke:none"
       id="path3286"
       sodipodi:cx="23.99861"
       sodipodi:cy="1015.3622"
       sodipodi:rx="2.0013857"
       sodipodi:ry="2.0000615"
       d="m 25.999995,1015.3622 a 2.0013857,2.0000615 0 1 1 0,0 2.0013857,2.0000615 0 1 1 0,0 z" />
  </g>
</svg>
