<?xml version="1.0" encoding="UTF-8" standalone="no"?>
<!-- Created with Inkscape (http://www.inkscape.org/) -->

<svg
   xmlns:dc="http://purl.org/dc/elements/1.1/"
   xmlns:cc="http://creativecommons.org/ns#"
   xmlns:rdf="http://www.w3.org/1999/02/22-rdf-syntax-ns#"
   xmlns:svg="http://www.w3.org/2000/svg"
   xmlns="http://www.w3.org/2000/svg"
   xmlns:sodipodi="http://sodipodi.sourceforge.net/DTD/sodipodi-0.dtd"
   xmlns:inkscape="http://www.inkscape.org/namespaces/inkscape"
   width="48"
   height="48"
   id="svg973"
   version="1.1"
   inkscape:version="0.48+devel r12388"
   sodipodi:docname="mail-encrytped.svg">
  <defs
     id="defs975" />
  <sodipodi:namedview
     id="base"
     pagecolor="#ffffff"
     bordercolor="#666666"
     borderopacity="1.0"
     inkscape:pageopacity="0.0"
     inkscape:pageshadow="2"
     inkscape:zoom="7.9195959"
     inkscape:cx="7.5323131"
     inkscape:cy="26.922268"
     inkscape:document-units="px"
     inkscape:current-layer="layer1"
     showgrid="false"
     fit-margin-top="0"
     fit-margin-left="0"
     fit-margin-right="0"
     fit-margin-bottom="0"
     inkscape:window-width="1366"
     inkscape:window-height="714"
     inkscape:window-x="0"
     inkscape:window-y="30"
     inkscape:window-maximized="1" />
  <metadata
     id="metadata978">
    <rdf:RDF>
      <cc:Work
         rdf:about="">
        <dc:format>image/svg+xml</dc:format>
        <dc:type
           rdf:resource="http://purl.org/dc/dcmitype/StillImage" />
        <dc:title />
      </cc:Work>
    </rdf:RDF>
  </metadata>
  <g
     inkscape:label="Capa 1"
     inkscape:groupmode="layer"
     id="layer1"
     transform="translate(-413.14286,-488.36218)">
    <path
       style="fill:#000000"
       d="m 437.14286,497.36218 c -4.72314,0 -8.53125,2.97345 -8.53125,6.65625 l 0,3.04689 4.73436,-4.73439 c 0.19679,-0.27671 0.4533,-0.53614 0.75,-0.75 l 0.0468,-0.0468 4.07811,-4.07813 C 437.86562,497.42095 437.51052,497.36218 437.14286,497.36218 z m 2.90625,0.4219 -2.90625,2.90624 c 1.64147,0 3.08447,0.602 3.79686,1.59375 l 2.62499,-2.62499 C 442.61955,498.82448 441.42133,498.16734 440.04911,497.78408 z m 4.59375,2.9531 -3.23439,3.23439 0,5.4375 4.31249,-4.3125 0,-1.07814 C 445.72096,502.83223 445.33896,501.70203 444.64286,500.73718 z m -11.76564,4.21875 -4.3125,4.26564 0,0.98436 -0.9375,0 -3.28125,3.28125 -0.0468,5.4375 8.71875,-8.71875 -0.14063,0 L 432.87722,504.95593 z m 12.84374,2.29689 -20.0156,20.01561 c 0.23446,0.0823 0.48919,0.0936 0.75,0.0936 l 4.54686,0 17.15624,-17.10936 c -0.11088,-0.0175 -0.21318,-0.0468 -0.3281,-0.0468 l -2.1094,0 L 445.72096,507.25282 z m -10.54685,2.95311 -10.875,10.875 0,4.40625 c 0,0.27013 0.0826,0.5459 0.23436,0.79689 L 440.61161,510.20593 435.17411,510.20593 z m 14.34375,0.84375 -16.35939,16.3125 5.4375,0 11.39064,-11.34375 0,-3.9375 C 449.98673,511.70697 449.79383,511.36844 449.51786,511.04968 z m 0.46875,7.07811 -9.23439,9.23439 7.12499,0 c 1.1782,0 2.0625,-0.9543 2.0625,-1.875 L 449.98661,518.12779 Z"
       id="path829"
       inkscape:connector-curvature="0" />
  </g>
</svg>
