<svg xmlns="http://www.w3.org/2000/svg" width="48" height="48">
 <g transform="translate(0,-1004.3622)">
  <path d="M 23.5 9 C 19.345 9 16 12.345 16 16.5 L 16 24 L 13 24 L 13 39 L 35 39 L 35 24 L 32 24 L 32 16.5 C 32 12.345 28.655 9 24.5 9 L 23.5 9 z M 24 13 C 26.215998 13 28 14.784 28 17 C 28 17.006691 27.998079 17.012848 27.998047 17.019531 L 28 17.019531 L 28 24 L 20 24 L 20 17.019531 L 20.001953 17.019531 C 20.001921 17.012848 20 17.006691 20 17 C 20 14.784 21.784002 13 24 13 z " transform="translate(0,1004.3622)" style="fill:#4d4d4d" fill-rule="evenodd"/>
 </g>
</svg>
