<?xml version="1.0" encoding="UTF-8" standalone="no"?>
<!-- Created with Inkscape (http://www.inkscape.org/) -->

<svg
   xmlns:dc="http://purl.org/dc/elements/1.1/"
   xmlns:cc="http://creativecommons.org/ns#"
   xmlns:rdf="http://www.w3.org/1999/02/22-rdf-syntax-ns#"
   xmlns:svg="http://www.w3.org/2000/svg"
   xmlns="http://www.w3.org/2000/svg"
   xmlns:sodipodi="http://sodipodi.sourceforge.net/DTD/sodipodi-0.dtd"
   xmlns:inkscape="http://www.inkscape.org/namespaces/inkscape"
   width="48"
   height="48"
   id="svg3794"
   version="1.1"
   inkscape:version="0.48+devel r12388"
   sodipodi:docname="mail-mark-junk.svg">
  <defs
     id="defs3796" />
  <sodipodi:namedview
     id="base"
     pagecolor="#ffffff"
     bordercolor="#666666"
     borderopacity="1.0"
     inkscape:pageopacity="0.0"
     inkscape:pageshadow="2"
     inkscape:zoom="0.35"
     inkscape:cx="-584.57143"
     inkscape:cy="72.571433"
     inkscape:document-units="px"
     inkscape:current-layer="layer1"
     showgrid="false"
     fit-margin-top="0"
     fit-margin-left="0"
     fit-margin-right="0"
     fit-margin-bottom="0"
     inkscape:window-width="1366"
     inkscape:window-height="714"
     inkscape:window-x="0"
     inkscape:window-y="30"
     inkscape:window-maximized="1" />
  <metadata
     id="metadata3799">
    <rdf:RDF>
      <cc:Work
         rdf:about="">
        <dc:format>image/svg+xml</dc:format>
        <dc:type
           rdf:resource="http://purl.org/dc/dcmitype/StillImage" />
        <dc:title />
      </cc:Work>
    </rdf:RDF>
  </metadata>
  <g
     inkscape:label="Capa 1"
     inkscape:groupmode="layer"
     id="layer1"
     transform="translate(-493.14286,-574.07647)">
    <g
       transform="translate(-57.14286,-8.57143)"
       id="layer1-7"
       inkscape:label="Capa 1">
      <path
         id="path400"
         transform="translate(550.28572,582.6479)"
         d="m 24,9 c -3.952821,0 -7.536605,1.555107 -10.21875,4.0625 -0.124107,0.116021 -0.254881,0.223628 -0.375,0.34375 -0.122418,0.122418 -0.251937,0.236244 -0.34375,0.375 C 10.555169,16.463447 9,20.047408 9,24 c 0,8.27145 6.72855,15 15,15 3.952592,0 7.536553,-1.555169 10.21875,-4.0625 0.24822,-0.232037 0.486707,-0.470535 0.71875,-0.71875 C 37.444893,31.536605 39,27.952821 39,24 39,15.72903 32.27097,9 24,9 z m 0,7.25 c 4.27332,0 7.75,3.47668 7.75,7.75 0,1.226645 -0.303018,2.374314 -0.8125,3.40625 L 20.59375,17.0625 C 21.625686,16.553018 22.773355,16.25 24,16.25 Z M 17.0625,20.59375 27.40625,30.9375 C 26.374321,31.446957 25.226567,31.75 24,31.75 19.72641,31.75 16.25,28.27359 16.25,24 16.25,22.773433 16.553043,21.625679 17.0625,20.59375 Z"
         style="fill:#000000;fill-opacity:1;fill-rule:nonzero;stroke:none"
         inkscape:connector-curvature="0" />
    </g>
  </g>
</svg>
