<?xml version="1.0" encoding="UTF-8" standalone="no"?>
<!-- Created with Inkscape (http://www.inkscape.org/) -->

<svg
   xmlns:dc="http://purl.org/dc/elements/1.1/"
   xmlns:cc="http://creativecommons.org/ns#"
   xmlns:rdf="http://www.w3.org/1999/02/22-rdf-syntax-ns#"
   xmlns:svg="http://www.w3.org/2000/svg"
   xmlns="http://www.w3.org/2000/svg"
   xmlns:sodipodi="http://sodipodi.sourceforge.net/DTD/sodipodi-0.dtd"
   xmlns:inkscape="http://www.inkscape.org/namespaces/inkscape"
   width="48"
   height="48"
   id="svg3083"
   version="1.1"
   inkscape:version="0.48+devel r12388"
   sodipodi:docname="mail-mark-unread.svg">
  <defs
     id="defs3085" />
  <sodipodi:namedview
     id="base"
     pagecolor="#ffffff"
     bordercolor="#666666"
     borderopacity="1.0"
     inkscape:pageopacity="0.0"
     inkscape:pageshadow="2"
     inkscape:zoom="3.959798"
     inkscape:cx="-23.313479"
     inkscape:cy="22.916615"
     inkscape:document-units="px"
     inkscape:current-layer="layer1"
     showgrid="false"
     inkscape:window-width="1366"
     inkscape:window-height="714"
     inkscape:window-x="0"
     inkscape:window-y="30"
     inkscape:window-maximized="1" />
  <metadata
     id="metadata3088">
    <rdf:RDF>
      <cc:Work
         rdf:about="">
        <dc:format>image/svg+xml</dc:format>
        <dc:type
           rdf:resource="http://purl.org/dc/dcmitype/StillImage" />
        <dc:title />
      </cc:Work>
    </rdf:RDF>
  </metadata>
  <g
     inkscape:label="Capa 1"
     inkscape:groupmode="layer"
     id="layer1"
     transform="translate(0,-1004.3622)">
    <g
       id="layer1-0"
       inkscape:label="Capa 1"
       style="fill:#71c837">
      <path
         d="m 24.662389,1031.9215 c -0.202566,0.1284 -0.432941,0.1909 -0.662388,0.1909 -0.229447,0 -0.459822,-0.062 -0.662387,-0.1909 l -19.3375965,-12.0843 0,21.0253 c 0,1.3809 1.119428,2.4998 2.499825,2.4998 l 35.0003265,0 c 1.380846,0 2.499814,-1.1189 2.499814,-2.4998 l 0,-21.0253 L 24.662389,1031.9215 z m -20.6623715,-15.0343 0,-1.0248 c 0,-1.3813 1.119428,-2.5003 2.499825,-2.5003 l 35.0003265,0 c 1.380845,0 2.499814,1.119 2.499814,2.5003 l 0,1.0248 -19.999982,12.5001 -19.9999835,-12.5"
         style="fill:#71c837;fill-opacity:1;fill-rule:nonzero;stroke:none"
         id="path302"
         inkscape:connector-curvature="0" />
    </g>
  </g>
</svg>
