<svg xmlns="http://www.w3.org/2000/svg" width="48" height="48">
 <g transform="translate(0,-1004.3622)">
  <path d="m 24.005859,1043.3622 c 3.927264,-2e-4 7.828574,-1.6177 10.603516,-4.3945 1.819437,-1.8207 3.128209,-4.1276 3.822266,-6.6055 l -4.203125,0 c -0.551008,1.408 -1.378356,2.7077 -2.447266,3.7773 -2.034957,2.0364 -4.895397,3.2225 -7.775391,3.2227 -2.879993,2e-4 -5.743695,-1.1844 -7.78125,-3.2207 C 14.187055,1034.1051 13,1031.2421 13,1028.3622 c 0,-2.8799 1.187055,-5.7429 3.224609,-7.7793 2.036175,-2.035 4.897372,-3.2193 7.775391,-3.2207 l 0,-4 c -3.925286,0 -7.826415,1.6171 -10.603516,4.3926 C 10.618001,1020.5316 9,1024.4351 9,1028.3622 c 0,3.9271 1.618001,7.8306 4.396484,10.6074 2.778483,2.7769 6.682112,4.3928 10.609375,4.3926 z" style="fill:#4d4d4d" fill-rule="evenodd"/>
  <rect width="4" height="11" x="-39" y="-1043.36" transform="scale(-1,-1)" style="fill:#4d4d4d" fill-rule="evenodd"/>
  <rect y="28" x="-1036.36" height="11" width="4" transform="matrix(0,-1,1,0,0,0)" style="fill:#4d4d4d" fill-rule="evenodd"/>
 </g>
</svg>
