<?xml version="1.0" encoding="UTF-8" standalone="no"?>
<!-- Created with Inkscape (http://www.inkscape.org/) -->

<svg
   xmlns:dc="http://purl.org/dc/elements/1.1/"
   xmlns:cc="http://creativecommons.org/ns#"
   xmlns:rdf="http://www.w3.org/1999/02/22-rdf-syntax-ns#"
   xmlns:svg="http://www.w3.org/2000/svg"
   xmlns="http://www.w3.org/2000/svg"
   xmlns:sodipodi="http://sodipodi.sourceforge.net/DTD/sodipodi-0.dtd"
   xmlns:inkscape="http://www.inkscape.org/namespaces/inkscape"
   width="48"
   height="48"
   id="svg4169"
   version="1.1"
   inkscape:version="0.48+devel r12388"
   sodipodi:docname="arrow-right-double.svg">
  <defs
     id="defs4171" />
  <sodipodi:namedview
     id="base"
     pagecolor="#ffffff"
     bordercolor="#666666"
     borderopacity="1.0"
     inkscape:pageopacity="0.0"
     inkscape:pageshadow="2"
     inkscape:zoom="5.6568543"
     inkscape:cx="16.252909"
     inkscape:cy="35.18937"
     inkscape:document-units="px"
     inkscape:current-layer="layer1"
     showgrid="false"
     inkscape:window-width="1366"
     inkscape:window-height="714"
     inkscape:window-x="0"
     inkscape:window-y="30"
     inkscape:window-maximized="1" />
  <metadata
     id="metadata4174">
    <rdf:RDF>
      <cc:Work
         rdf:about="">
        <dc:format>image/svg+xml</dc:format>
        <dc:type
           rdf:resource="http://purl.org/dc/dcmitype/StillImage" />
        <dc:title></dc:title>
      </cc:Work>
    </rdf:RDF>
  </metadata>
  <g
     inkscape:label="Capa 1"
     inkscape:groupmode="layer"
     id="layer1"
     transform="translate(0,-1004.3622)">
    <path
       style="fill:#000000;fill-opacity:1;fill-rule:nonzero;stroke:none"
       d="m 23.302819,1013.3622 c 0.487406,0 0.98532,0.1722 1.34375,0.5313 l 13.125,13.125 c 0.731112,0.7322 0.731112,1.9237 0,2.6562 l -13.125,13.125 c -0.35843,0.3584 -0.856344,0.5625 -1.34375,0.5625 -0.241267,0 -0.486858,-0.06 -0.71875,-0.1562 -0.700854,-0.2906 -1.15625,-0.9595 -1.15625,-1.7188 l 0,-5.625 0,-15 0,-5.625 c 0,-0.7585 0.455396,-1.4597 1.15625,-1.75 C 22.815961,1013.3913 23.061552,1013.3622 23.302819,1013.3622 Z"
       id="path338"
       inkscape:connector-curvature="0" />
    <path
       id="path4044"
       d="m 11.055096,1017.3622 c 0.357433,0 0.722568,0.1262 0.985417,0.3896 l 9.625,9.625 c 0.536149,0.537 0.536149,1.4106 0,1.9479 l -9.625,9.625 c -0.262849,0.2628 -0.627985,0.4125 -0.985417,0.4125 -0.176928,0 -0.357027,-0.044 -0.527083,-0.1146 -0.513959,-0.2131 -0.8479166,-0.7035 -0.8479166,-1.2604 l 0,-4.125 0,-11 0,-4.125 c 0,-0.5561 0.3339576,-1.0705 0.8479166,-1.2832 C 10.698069,1017.3836 10.878168,1017.3622 11.055096,1017.3622 Z"
       style="fill:#000000;fill-opacity:1;fill-rule:nonzero;stroke:none"
       inkscape:connector-curvature="0" />
  </g>
</svg>
