<svg xmlns="http://www.w3.org/2000/svg" width="48" height="48">
 <g transform="translate(0,-1004.3622)">
  <path d="m 32,9 0,3.5 -7,0 0,-0.0059 L 14.027344,31.5 9,31.5 l 0,4 2.716797,0 4.583984,0 0.03516,0 0.06445,-0.111328 L 27.304688,16.5 32,16.5 32,20 39,14.5 Z m -16.017578,3.494141 0,0.0059 L 9,12.5 l 0,4 4.677734,0 2.199219,3.808594 2.308594,-4 L 16,12.525391 16,12.5 l -0.01367,0 z M 32,28 l 0,3.5 -5.044922,0 -1.845703,-3.197266 -2.308594,3.998047 1.78125,3.087891 L 24.646484,35.5 25,35.5 l 4.265625,0 2.734375,0 0,3.5 7,-5.5 z" transform="translate(0,1004.3622)" style="fill:#4d4d4d" fill-rule="evenodd"/>
 </g>
</svg>
