<?xml version="1.0" standalone="no"?>
<!DOCTYPE svg PUBLIC "-//W3C//DTD SVG 20010904//EN" "http://www.w3.org/TR/2001/REC-SVG-20010904/DTD/svg10.dtd">
<!-- Created using Karbon, part of Calligra: http://www.calligra.org/karbon -->
<svg xmlns="http://www.w3.org/2000/svg" xmlns:xlink="http://www.w3.org/1999/xlink" width="38.4pt" height="38.4pt">
<defs/>
<g id="layer1">
  <path id="path3298" transform="translate(9, 9)" fill="#4d4d4d" fill-rule="evenodd" d="M14.9941 2.51498e-08C11.0669 0.000232825 7.16557 1.6177 4.39062 4.39453C1.61568 7.17136 0 11.0733 0 15C0 18.9267 1.61568 22.8286 4.39062 25.6055C7.16557 28.3823 11.0669 29.9998 14.9941 30C18.9214 30.0002 22.825 28.3843 25.6035 25.6074C28.382 22.8306 30 18.9271 30 15C30 11.0729 28.382 7.16942 25.6035 4.39258C22.825 1.61573 18.9214 -0.000232775 14.9941 2.51498e-08ZM14.9961 4C17.8761 3.9998 20.7378 5.1843 22.7754 7.2207C24.8129 9.2569 26 12.1201 26 15C26 17.8799 24.8129 20.7431 22.7754 22.7793C20.7378 24.8157 17.8761 26.0002 14.9961 26C12.1161 25.9998 9.25566 24.8136 7.2207 22.7773C5.18575 20.7409 4 17.8795 4 15C4 12.1205 5.18575 9.25906 7.2207 7.22266C9.25566 5.18636 12.1161 4.0002 14.9961 4Z"/>
  <path id="path3260" transform="translate(17.7664, 17.7664)" fill="#e74c3c" d="M6.23367 0C4.59096 0 3.10162 0.646265 1.98698 1.68829C1.9354 1.73649 1.88106 1.78121 1.83114 1.83116C1.78027 1.88203 1.72644 1.92932 1.68829 1.987C0.646296 3.10162 0 4.59106 0 6.23367C0 9.67112 2.79624 12.4673 6.23367 12.4673C7.87629 12.4673 9.36567 11.821 10.4804 10.7791C10.5835 10.6826 10.6826 10.5835 10.7791 10.4804C11.8211 9.36572 12.4673 7.87634 12.4673 6.23367C12.4673 2.79642 9.67091 0 6.23367 0Z"/>
 </g>
</svg>
