<svg xmlns="http://www.w3.org/2000/svg" width="48" height="48">
 <g transform="translate(0,-1004.3622)">
  <path d="m 24,1013.3622 c -3.952821,0 -7.536605,1.5551 -10.21875,4.0625 -0.124107,0.116 -0.254881,0.2236 -0.375,0.3438 -0.122418,0.1224 -0.251937,0.2362 -0.34375,0.375 -2.507331,2.6821 -4.0625,6.2661 -4.0625,10.2187 0,8.2715 6.72855,15 15,15 3.952592,0 7.536553,-1.5552 10.21875,-4.0625 0.24822,-0.232 0.486707,-0.4705 0.71875,-0.7187 C 37.444893,1035.8988 39,1032.315 39,1028.3622 39,1020.0912 32.27097,1013.3622 24,1013.3622 Z" style="fill:#ff0000"/>
  <path d="m 24,1013.3622 c -3.952821,0 -7.536605,1.5551 -10.21875,4.0625 -0.124107,0.116 -0.254881,0.2236 -0.375,0.3438 -0.122418,0.1224 -0.251937,0.2362 -0.34375,0.375 -2.507331,2.6821 -4.0625,6.2661 -4.0625,10.2187 0,8.2715 6.72855,15 15,15 3.952592,0 7.536553,-1.5552 10.21875,-4.0625 0.24822,-0.232 0.486707,-0.4705 0.71875,-0.7187 C 37.444893,1035.8988 39,1032.315 39,1028.3622 39,1020.0912 32.27097,1013.3622 24,1013.3622 Z" style="fill:#e74c3c"/>
 </g>
</svg>
