<svg xmlns="http://www.w3.org/2000/svg" width="48" height="48">
 <path d="M 15 9 C 6.69 9 0 15.69 0 24 C 0 32.31 6.69 39 15 39 C 23.31 39 30 32.31 30 24 C 30 15.69 23.31 9 15 9 z M 15 13 C 21.094 13 26 17.906 26 24 C 26 30.094 21.094 35 15 35 C 8.906 35 4 30.094 4 24 C 4 17.906 8.906 13 15 13 z " style="fill:#4d4d4d"/>
 <path d="M 33 9 C 30.379182 9 27.920757 9.6680413 25.78125 10.839844 C 28.787741 13.302451 30.922421 16.779803 31.685547 20.757812 C 32.091499 20.593875 32.533945 20.5 33 20.5 C 34.939 20.5 36.5 22.061 36.5 24 C 36.5 25.939 34.939 27.5 33 27.5 C 32.533945 27.5 32.091499 27.406125 31.685547 27.242188 C 30.922421 31.220197 28.787741 34.697549 25.78125 37.160156 C 27.920757 38.331959 30.379182 39 33 39 C 41.31 39 48 32.31 48 24 C 48 15.69 41.31 9 33 9 z " style="fill:#4d4d4d"/>
 <rect width="7" height="7" x="11.5" y="20.5" style="fill:#4d4d4d" rx="3.5"/>
</svg>
