<svg xmlns="http://www.w3.org/2000/svg" width="48" height="48">
 <g transform="translate(-453.14286,-628.36218)">
  <path d="M 24 9 C 15.69 9 9 15.69 9 24 L 9 24.001953 L 9 39.001953 L 39 39.001953 L 39 24.001953 L 39 24 C 39 15.69 32.31 9 24 9 z M 24 13 C 30.094 13 35 17.906 35 24 L 35 28 L 35 39 L 24 39 L 13 39 L 13 28 L 13 24 C 13 17.906 17.906 13 24 13 z " transform="translate(453.14286,628.36218)" style="fill:#4d4d4d" fill-rule="evenodd"/>
  <rect y="656.36" x="462.14" height="11" width="7" style="fill:#4d4d4d" fill-rule="evenodd"/>
  <rect width="7" height="11" x="485.14" y="656.36" style="fill:#4d4d4d" fill-rule="evenodd"/>
 </g>
</svg>
