<svg xmlns="http://www.w3.org/2000/svg" width="48" height="48">
 <path d="M 23.9941,9 C 20.0669,9.0002328 16.16557,10.6177 13.39062,13.39453 10.61568,16.17136 9,20.0733 9,24 c 0,3.9267 1.61568,7.8286 4.39062,10.6055 2.77495,2.7768 6.67628,4.3943 10.60348,4.3945 3.9273,2e-4 7.8309,-1.6157 10.6094,-4.3926 C 37.382,31.8306 39,27.9271 39,24 39,20.0729 37.382,16.16942 34.6035,13.39258 31.825,10.61573 27.9214,8.9997672 23.9941,9 Z m 0.002,4 c 2.88,-2e-4 5.7417,1.1843 7.7793,3.2207 C 33.8129,18.2569 35,21.1201 35,24 c 0,2.8799 -1.1871,5.7431 -3.2246,7.7793 -2.0376,2.0364 -4.8993,3.2209 -7.7793,3.2207 -2.88,-2e-4 -5.74044,-1.1864 -7.7754,-3.2227 C 14.18575,29.7409 13,26.8795 13,24 13,21.1205 14.18575,18.25906 16.2207,16.22266 18.25566,14.18636 21.1161,13.0002 23.9961,13 Z" style="fill:#4d4d4d" fill-rule="evenodd"/>
 <path d="m 24.000013,20.500001 c -0.922331,0 -1.758549,0.362857 -2.384385,0.947922 -0.02896,0.02707 -0.05947,0.05217 -0.0875,0.08022 -0.02856,0.02856 -0.05878,0.05511 -0.08021,0.0875 -0.585047,0.625825 -0.947922,1.4621 -0.947922,2.384374 0,1.93002 1.570001,3.499988 3.500012,3.499988 0.922279,0 1.758519,-0.362878 2.384406,-0.947872 0.05789,-0.05418 0.113529,-0.109823 0.16771,-0.16771 0.58505,-0.625859 0.947872,-1.462099 0.947872,-2.384406 0,-1.92991 -1.570086,-3.500012 -3.499988,-3.500012 z" style="fill:#e74c3c"/>
</svg>
