<svg xmlns="http://www.w3.org/2000/svg" width="48" height="48">
 <g transform="translate(0,-1004.3622)">
  <path d="M 23.994141 9 C 20.066877 9.0002328 16.165567 10.617701 13.390625 13.394531 C 10.615683 16.171361 9 20.073326 9 24 C 9 27.926674 10.615683 31.828639 13.390625 34.605469 C 16.165567 37.382299 20.066877 38.999767 23.994141 39 C 27.921404 39.000233 31.825033 37.384266 34.603516 34.607422 C 37.381999 31.830578 39 27.927112 39 24 C 39 20.072888 37.381999 16.169422 34.603516 13.392578 C 31.825033 10.615734 27.921404 8.9997672 23.994141 9 z M 23.996094 13 C 26.876086 12.9998 29.737836 14.184303 31.775391 16.220703 C 33.812946 18.256903 35 21.1201 35 24 C 35 26.8799 33.812946 29.743097 31.775391 31.779297 C 29.737836 33.815697 26.876086 35.0002 23.996094 35 C 21.116099 34.9998 18.255659 33.813644 16.220703 31.777344 C 14.185745 29.740944 13 26.8795 13 24 C 13 21.1205 14.185745 18.259056 16.220703 16.222656 C 18.255659 14.186356 21.116099 13.0002 23.996094 13 z " transform="translate(0,1004.3622)" style="fill:#4d4d4d" fill-rule="evenodd"/>
  <path d="m 23.999023,1024.8622 c -0.916362,2e-4 -1.827124,0.3775 -2.47461,1.0253 -0.647486,0.6481 -1.024413,1.5586 -1.024413,2.4747 0,0.9161 0.376927,1.8266 1.024413,2.4747 0.647486,0.6478 1.558248,1.0251 2.47461,1.0253 0.916362,2e-4 1.827273,-0.3775 2.475587,-1.0253 0.648312,-0.6479 1.02539,-1.5583 1.02539,-2.4747 0,-0.9164 -0.377078,-1.8268 -1.02539,-2.4747 -0.648314,-0.6478 -1.559225,-1.0255 -2.475587,-1.0253 z" style="fill:#4d4d4d" fill-rule="evenodd"/>
 </g>
</svg>
