<?xml version="1.0" standalone="no"?>
<!DOCTYPE svg PUBLIC "-//W3C//DTD SVG 20010904//EN" "http://www.w3.org/TR/2001/REC-SVG-20010904/DTD/svg10.dtd">
<!-- Created using Karbon, part of Calligra: http://www.calligra.org/karbon -->
<svg xmlns="http://www.w3.org/2000/svg" xmlns:xlink="http://www.w3.org/1999/xlink" width="38.4pt" height="38.4pt">
<defs/>
<g id="layer1">
  <rect id="rect3270" transform="translate(9, 8.99999)" fill="none" width="24.00000000000pt" height="24.00002480000pt"/>
  <path id="rect3278" transform="matrix(5.34295e-16 1 -1 5.34295e-16 26.7241 8.98071)" fill="#4d4d4d" fill-rule="evenodd" d="M0 0L0 17.7241L17.7291 17.7241L17.7291 12.6833L13.7291 12.6833L13.7291 13.7241L4 13.7241L4 4L4.95126 4L4.95126 0Z"/>
  <path id="rect32781" transform="matrix(-1 0 0 -1 38.9184 39.0304)" fill="#4d4d4d" fill-rule="evenodd" d="M18.4134 0L0 0L0 18.4347L5.27813 18.4526L5.28573 14.3057L4.1556 14.2755L4.1556 4.15918L14.2579 4.15918L14.2579 5.23448L18.4134 5.23448Z"/>
  <rect id="rect3320" transform="matrix(1.11022e-16 -1 -1 -1.11022e-16 32.6952 32.6955)" fill="#4d4d4d" width="14.47036131890pt" height="14.31569289891pt"/>
 </g>
</svg>
