<svg xmlns="http://www.w3.org/2000/svg" width="48" height="48">
 <g transform="translate(0,-1004.3622)">
  <path d="M 9 9 L 9 16 L 9 20 L 9.5683594 20 L 13 20 L 20 20 L 20 16 L 16.464844 16 C 18.481445 14.105283 21.224908 13.000192 23.994141 13 C 26.874134 12.9998 29.737836 14.184403 31.775391 16.220703 C 33.812945 18.257103 35 21.1201 35 24 C 35 26.8799 33.812945 29.742897 31.775391 31.779297 C 29.739216 33.814297 26.878019 34.9986 24 35 L 24 39 C 27.925286 39 31.826415 37.382922 34.603516 34.607422 C 37.381999 31.830622 39 27.9271 39 24 C 39 20.0729 37.381999 16.169378 34.603516 13.392578 C 31.825033 10.615678 27.921404 8.9998 23.994141 9 C 20.066877 9.0002 16.165567 10.617731 13.390625 13.394531 C 13.255734 13.529516 13.129235 13.672299 13 13.8125 L 13 9 L 9 9 z M 23.998047 20.5 C 22.165324 20.5 20.5 22.1675 20.5 24 C 20.5 25.8325 22.165324 27.5 23.998047 27.5 C 25.830771 27.5002 27.5 25.8327 27.5 24 C 27.5 22.1673 25.830771 20.4998 23.998047 20.5 z " transform="translate(0,1004.3622)" style="fill:#4d4d4d" fill-rule="evenodd"/>
 </g>
</svg>
