<svg xmlns="http://www.w3.org/2000/svg" width="48" height="48">
 <g transform="translate(-550.28572,-582.6479)">
  <path d="m 574.27791,591.6479 c -3.92727,2.3e-4 -7.82858,1.61575 -10.60352,4.39258 -2.77494,2.77683 -4.38867,6.68075 -4.38867,10.60742 0,3.92667 1.61373,7.82864 4.38867,10.60547 2.77494,2.77683 6.67625,4.3943 10.60352,4.39453 3.92726,2.3e-4 7.83284,-1.61769 10.61133,-4.39453 2.77848,-2.77684 4.39648,-6.67836 4.39648,-10.60547 0,-3.92711 -1.618,-7.83058 -4.39648,-10.60742 -2.77849,-2.77685 -6.68407,-4.39281 -10.61133,-4.39258 z m 0.002,4 c 2.87999,-1.7e-4 5.7437,1.18435 7.78125,3.2207 2.03755,2.03636 3.22461,4.89942 3.22461,7.7793 0,2.87988 -1.18706,5.74099 -3.22461,7.77734 -2.03755,2.03636 -4.90126,3.22283 -7.78125,3.22266 -2.87999,-1.7e-4 -5.74043,-1.18631 -7.77539,-3.22266 -2.03496,-2.03634 -3.21875,-4.89778 -3.21875,-7.77734 0,-2.87956 1.18379,-5.741 3.21875,-7.77734 2.03496,-2.03635 4.8954,-3.22249 7.77539,-3.22266 z" style="fill:#e74c3c" fill-rule="evenodd"/>
  <rect width="24" height="4" x="-34.884" y="-837.05" transform="matrix(0.70710678,-0.70710678,-0.70710678,-0.70710678,0,0)" style="fill:#e74c3c" fill-rule="evenodd"/>
 </g>
</svg>
