<svg xmlns="http://www.w3.org/2000/svg" width="48" height="48">
 <g transform="translate(0,-1004.3622)">
  <path d="M 24.005859 9 C 20.078596 8.9998 16.174967 10.615678 13.396484 13.392578 C 10.618001 16.169378 9 20.0729 9 24 C 9 27.9271 10.618001 31.830622 13.396484 34.607422 C 16.173585 37.382922 20.074714 39 24 39 L 24 35 C 21.121981 34.9986 18.260784 33.814297 16.224609 31.779297 C 14.187055 29.742897 13 26.8799 13 24 C 13 21.1201 14.187055 18.257103 16.224609 16.220703 C 18.262164 14.184403 21.125866 12.9998 24.005859 13 C 26.775092 13.000192 29.518555 14.105283 31.535156 16 L 28 16 L 28 20 L 34.228516 20 L 39 20 L 39 16 L 39 9 L 35 9 L 35 13.8125 C 34.870765 13.672299 34.744266 13.529516 34.609375 13.394531 C 31.834433 10.617731 27.933123 9.0002 24.005859 9 z " transform="translate(0,1004.3622)" style="fill:#4d4d4d" fill-rule="evenodd"/>
 </g>
</svg>
