<?xml version="1.0" standalone="no"?>
<!DOCTYPE svg PUBLIC "-//W3C//DTD SVG 20010904//EN" "http://www.w3.org/TR/2001/REC-SVG-20010904/DTD/svg10.dtd">
<!-- Created using Karbon, part of Calligra: http://www.calligra.org/karbon -->
<svg xmlns="http://www.w3.org/2000/svg" xmlns:xlink="http://www.w3.org/1999/xlink" width="38.4pt" height="38.4pt">
<defs/>
<g id="layer1">
  <path id="shape0" transform="translate(9.00002, 9.00002)" fill="#4d4d4d" d="M3.46661 0.0064902C1.43396 0.159214 -0.338435 2.18855 0.0551897 4.31472C0.295991 6.09911 1.91174 7.08628 3.0087 8.32021C0.680865 12.3649 0.681335 17.6426 3.0087 21.6874C1.91202 22.9213 0.295859 23.9088 0.0551897 25.6928C-0.392562 28.1119 1.96148 30.4066 4.31375 29.9545C6.07731 29.7271 7.08334 28.0763 8.32045 26.9737C12.1394 29.147 16.9671 29.3188 20.913 27.3928C21.6132 26.6317 22.0801 27.3388 22.5843 27.8586C23.5721 28.9057 24.6972 30.0637 26.2476 29.9778C28.444 30.0401 30.3434 27.9152 29.9567 25.6928C29.7159 23.9081 28.1005 22.9211 27.0032 21.6874C29.3317 17.6433 29.3317 12.3644 27.0032 8.32021C28.1005 7.08641 29.7161 6.09918 29.9567 4.31472C30.4045 1.89583 28.05 -0.375427 25.6981 0.0763534C23.9348 0.304412 22.9287 1.93157 21.6914 3.03389C17.6163 0.706875 12.3956 0.706875 8.32045 3.03389C7.08317 1.93158 6.07681 0.30425 4.31375 0.0763534C4.16674 0.0481088 4.02512 0.0139342 3.87873 0.0064902C3.7415 -0.00048852 3.60212 -0.00369134 3.46661 0.0064902ZM3.69557 2.49828C4.87187 2.44345 5.39979 4.12997 4.38243 4.75718C2.62967 5.95978 1.57429 2.48848 3.69557 2.49828ZM25.6981 2.49828C26.8744 2.44345 27.4023 4.12997 26.385 4.75718C24.6322 5.95978 23.5768 2.48848 25.6981 2.49828ZM14.7999 4.12842C18.223 4.09181 21.6724 5.66143 23.7291 8.50651C26.664 12.2715 26.5921 18.0196 23.5688 21.7106C21.5283 24.3306 18.2906 25.9022 15.0059 25.8791C9.93752 25.9834 5.12661 22.0475 4.29085 16.9367C3.35971 12.2234 6.00804 7.17066 10.2895 5.19965C11.7016 4.48999 13.2439 4.14505 14.7999 4.12842ZM3.69557 24.6682C4.87187 24.6134 5.39979 26.2999 4.38243 26.9271C2.62967 28.1297 1.57429 24.6584 3.69557 24.6682ZM25.6981 24.6682C26.8744 24.6134 27.4023 26.2999 26.385 26.9271C24.6322 28.1297 23.5768 24.6584 25.6981 24.6682Z"/>
  <path id="shape01" transform="translate(21.1384, 21.1416)" fill="#4d4d4d" fill-rule="evenodd" stroke="#003bc3" stroke-width="0.00000000000" stroke-linecap="square" stroke-linejoin="miter" stroke-miterlimit="2.01260185242" d="M2.46747 0.0249055C0.947124 0.246181 -0.133119 1.63388 0.0132759 3.1776C0.15967 4.72133 1.48109 5.87688 3.01541 5.8029C4.54972 5.72892 5.87566 4.16174 5.72991 2.62504C5.58415 1.08835 3.98782 -0.19637 2.46747 0.0249055Z"/>
 </g>
</svg>
