<?xml version="1.0" standalone="no"?>
<!DOCTYPE svg PUBLIC "-//W3C//DTD SVG 20010904//EN" "http://www.w3.org/TR/2001/REC-SVG-20010904/DTD/svg10.dtd">
<!-- Created using Karbon, part of Calligra: http://www.calligra.org/karbon -->
<svg xmlns="http://www.w3.org/2000/svg" xmlns:xlink="http://www.w3.org/1999/xlink" width="38.4pt" height="38.4pt">
<defs/>
<g id="layer1">
  <rect id="rect3282" transform="matrix(0 -1 -1 0 26.0968 18.6935)" fill="#4d4d4d" fill-rule="evenodd" width="11.75909439088pt" height="2.68272819019pt"/>
  <rect id="rect32821" transform="matrix(0.707107 -0.707107 -0.707107 -0.707107 29.0362 21.3779)" fill="#4d4d4d" fill-rule="evenodd" width="11.74393613816pt" height="2.67926997560pt"/>
  <rect id="rect32822" transform="matrix(1 0 0 -1 29.4271 25.3576)" fill="#4d4d4d" fill-rule="evenodd" width="11.55103431011pt" height="2.63526121481pt"/>
  <rect id="rect32823" transform="matrix(0.707107 0.707107 0.707107 -0.707107 26.477 28.3371)" fill="#4d4d4d" fill-rule="evenodd" width="11.77290776298pt" height="2.68587958277pt"/>
  <rect id="rect32824" transform="matrix(8.88178e-16 1 1 -8.88178e-16 22.47 28.7035)" fill="#4d4d4d" fill-rule="evenodd" width="11.63341434724pt" height="2.65405545530pt"/>
  <rect id="rect32825" transform="matrix(-0.707107 0.707107 0.707107 0.707107 19.4738 25.926)" fill="#4d4d4d" fill-rule="evenodd" width="11.69407387529pt" height="2.66789436334pt"/>
  <rect id="rect32826" transform="matrix(-1 0 0 1 19.3568 21.8493)" fill="#4d4d4d" fill-rule="evenodd" width="11.69261252205pt" height="2.66756096917pt"/>
  <rect id="rect32827" transform="matrix(-0.707107 -0.707107 -0.707107 0.707107 21.9855 18.7783)" fill="#4d4d4d" fill-rule="evenodd" width="11.66929544139pt" height="2.66224139374pt"/>
 </g>
</svg>
