<?xml version="1.0" standalone="no"?>
<!DOCTYPE svg PUBLIC "-//W3C//DTD SVG 20010904//EN" "http://www.w3.org/TR/2001/REC-SVG-20010904/DTD/svg10.dtd">
<!-- Created using Karbon, part of Calligra: http://www.calligra.org/karbon -->
<svg xmlns="http://www.w3.org/2000/svg" xmlns:xlink="http://www.w3.org/1999/xlink" width="38.4pt" height="38.4pt">
<defs/>
<g id="layer1">
  <rect id="shape0" transform="translate(4.00394, 4.00394)" fill="#34495e" fill-rule="evenodd" stroke="#003bc3" stroke-width="0.00000000000" stroke-linecap="square" stroke-linejoin="miter" stroke-miterlimit="2.01260191180" width="32.00320504820pt" height="32.00320504820pt"/>
  <g id="layer1-6" transform="translate(62.1721, -6.0497)" fill="none">
   <rect id="rect3260" transform="translate(-53.0604, 15.159)" fill="none" width="24.00000000000pt" height="24.00000000000pt"/>
   <rect id="rect3272" transform="translate(-49.0604, 30.159)" fill="#ecf0f1" fill-rule="evenodd" width="17.60000000000pt" height="12.00000000000pt"/>
   <path id="path3282" transform="translate(-53.0652, 26.6589)" fill="none" d="M7.00485 3.50011C7.00485 1.56705 5.43676 1.18366e-16 3.50243 0C1.56809 -1.18366e-16 2.36888e-16 1.56705 0 3.50011C-2.36888e-16 5.43316 1.56809 7.00022 3.50242 7.00022C5.43676 7.00022 7.00485 5.43316 7.00485 3.50011"/>
   <path id="path3274" transform="translate(-53.0632, 28.159)" fill="none" d="M4.00277 2.00006C4.00277 0.895458 3.10672 6.76375e-17 2.00139 0C0.896051 -6.76375e-17 1.35364e-16 0.895458 0 2.00006C-1.35364e-16 3.10466 0.896051 4.00012 2.00139 4.00012C3.10672 4.00012 4.00277 3.10466 4.00277 2.00006"/>
   <path id="path3280" transform="translate(-30.0652, 26.6589)" fill="none" d="M7.00485 3.50011C7.00485 1.56705 5.43676 1.18366e-16 3.50243 0C1.56809 -1.18366e-16 2.36888e-16 1.56705 0 3.50011C-2.36888e-16 5.43316 1.56809 7.00022 3.50242 7.00022C5.43676 7.00022 7.00485 5.43316 7.00485 3.50011"/>
   <path id="path3276" transform="translate(-27.0632, 28.159)" fill="none" d="M4.00277 2.00006C4.00277 0.895458 3.10672 6.76375e-17 2.00139 0C0.896051 -6.76375e-17 1.35364e-16 0.895458 0 2.00006C-1.35364e-16 3.10466 0.896051 4.00012 2.00139 4.00012C3.10672 4.00012 4.00277 3.10466 4.00277 2.00006"/>
   <path id="rect3278" transform="translate(-46.0604, 15.159)" fill="#ecf0f1" fill-rule="evenodd" d="M7.38462 0C3.29354 0 0 3.345 0 7.5L0 15L3.93846 15L3.93846 8.01953L3.94043 8.01953C3.94036 8.01285 3.93846 8.00669 3.93846 8C3.93846 5.784 5.69502 4 7.87692 4C10.0588 4 11.8154 5.784 11.8154 8C11.8154 8.0067 11.8135 8.01285 11.8134 8.01953L11.8154 8.01953L11.8154 15L15.7538 15L15.7538 7.5C15.7538 3.345 12.4603 0 8.36923 0Z"/>
   <path id="path3286" transform="translate(-40.0632, 15.159)" fill="none" d="M4.00277 2.00006C4.00277 0.895458 3.10672 6.76375e-17 2.00139 0C0.896051 -6.76375e-17 1.35364e-16 0.895458 0 2.00006C-1.35364e-16 3.10466 0.896051 4.00012 2.00139 4.00012C3.10672 4.00012 4.00277 3.10466 4.00277 2.00006"/>
  </g>
 </g>
</svg>
