<?xml version="1.0" standalone="no"?>
<!DOCTYPE svg PUBLIC "-//W3C//DTD SVG 20010904//EN" "http://www.w3.org/TR/2001/REC-SVG-20010904/DTD/svg10.dtd">
<!-- Created using Karbon, part of Calligra: http://www.calligra.org/karbon -->
<svg xmlns="http://www.w3.org/2000/svg" xmlns:xlink="http://www.w3.org/1999/xlink" width="38.4pt" height="38.4pt">
<defs/>
<g id="layer1">
  <rect id="shape0" transform="translate(4.00394, 4.00394)" fill="#34495e" fill-rule="evenodd" stroke="#003bc3" stroke-width="0.00000000000" stroke-linecap="square" stroke-linejoin="miter" stroke-miterlimit="2.01260191180" width="32.00320504820pt" height="32.00320504820pt"/>
  <g id="Group" transform="translate(20.2377, 18.8977)" fill="none">
   <path id="Oval 188" transform="matrix(-5.55112e-17 1 -1 -5.55112e-17 20.1176 -9.83135)" fill="#ecf0f1" fill-rule="evenodd" d="M14.8642 27.5743C20.728 27.5743 25.4815 22.9057 25.4815 17.1466C25.4815 13.7351 23.8134 10.7062 21.2346 8.80374L21.2346 3.95275C26.2564 6.29577 29.7284 11.323 29.7284 17.1466C29.7284 25.2093 23.0735 31.7454 14.8642 31.7454C6.65494 31.7454 0 25.2093 0 17.1466C0 11.323 3.47196 6.29577 8.49383 3.95275L8.49383 8.80374C5.915 10.7062 4.24691 13.7351 4.24691 17.1466C4.24691 22.9057 9.00043 27.5743 14.8642 27.5743ZM12.7407 15.0673L12.7407 0L16.9877 0L16.9877 15.0673Z"/>
  </g>
 </g>
</svg>
