<?xml version="1.0" standalone="no"?>
<!DOCTYPE svg PUBLIC "-//W3C//DTD SVG 20010904//EN" "http://www.w3.org/TR/2001/REC-SVG-20010904/DTD/svg10.dtd">
<!-- Created using Karbon, part of Calligra: http://www.calligra.org/karbon -->
<svg xmlns="http://www.w3.org/2000/svg" xmlns:xlink="http://www.w3.org/1999/xlink" width="38.4pt" height="38.4pt">
<defs/>
<g id="layer1">
  <rect id="rect3282" transform="matrix(0 -1 -1 0 25.8835 19.7543)" fill="#4d4d4d" fill-rule="evenodd" width="10.62968082693pt" height="2.42506297332pt"/>
  <rect id="rect32821" transform="matrix(0.707107 -0.707107 -0.707107 -0.707107 28.5406 22.1809)" fill="#4d4d4d" fill-rule="evenodd" width="10.61597846321pt" height="2.42193690629pt"/>
  <rect id="rect32822" transform="matrix(1 0 0 -1 28.8939 25.7783)" fill="#4d4d4d" fill-rule="evenodd" width="10.44160407731pt" height="2.38215500938pt"/>
  <rect id="rect32823" transform="matrix(0.707107 0.707107 0.707107 -0.707107 26.2272 28.4717)" fill="#4d4d4d" fill-rule="evenodd" width="10.64216748038pt" height="2.42791168736pt"/>
  <rect id="rect32824" transform="matrix(8.88178e-16 1 1 -8.88178e-16 22.605 28.8029)" fill="#4d4d4d" fill-rule="evenodd" width="10.51607184431pt" height="2.39914413891pt"/>
  <rect id="rect32825" transform="matrix(-0.707107 0.707107 0.707107 0.707107 19.8966 26.2921)" fill="#4d4d4d" fill-rule="evenodd" width="10.57090526948pt" height="2.41165387568pt"/>
  <rect id="rect32826" transform="matrix(-1 0 0 1 19.7909 22.607)" fill="#4d4d4d" fill-rule="evenodd" width="10.56958427332pt" height="2.41135250268pt"/>
  <rect id="rect32827" transform="matrix(-0.707107 -0.707107 -0.707107 0.707107 22.1671 19.831)" fill="#4d4d4d" fill-rule="evenodd" width="10.54850670416pt" height="2.40654385100pt"/>
 </g>
</svg>
