<svg xmlns="http://www.w3.org/2000/svg" width="48" height="48">
 <circle transform="scale(1,-1)" cx="24" cy="-24" r="20" style="fill:#ecf0f1"/>
 <circle r="17" cy="-24" cx="24" transform="scale(1,-1)" style="fill:#8e44ad"/>
 <path d="m 23.742188,15.109375 c -2.45465,0 -4.430862,2.007 -4.430862,4.5 l 0,4.5 -1.8,0 0,9 13.200004,0 0,-9 -1.947658,0 0,-4.5 c 0,-2.493 -1.976217,-4.5 -4.430859,-4.5 l -0.590625,0 z m 0.295311,2.399999 c 1.309128,0 2.363673,1.070401 2.363673,2.400003 0,0.004 -0.0012,0.0077 -0.0013,0.01173 l 0.0013,0 0,4.18828 -4.726173,0 0,-4.18828 0.0013,0 c -4.2e-5,-0.004 -0.0013,-0.0076 -0.0013,-0.01173 0,-1.329602 1.05336,-2.400003 2.3625,-2.400003 z" style="fill:#ecf0f1" fill-rule="evenodd"/>
</svg>
