<?xml version="1.0" encoding="UTF-8" standalone="no"?>
<!-- Created using Karbon, part of Calligra: http://www.calligra.org/karbon -->

<svg
   xmlns:dc="http://purl.org/dc/elements/1.1/"
   xmlns:cc="http://creativecommons.org/ns#"
   xmlns:rdf="http://www.w3.org/1999/02/22-rdf-syntax-ns#"
   xmlns:svg="http://www.w3.org/2000/svg"
   xmlns="http://www.w3.org/2000/svg"
   xmlns:sodipodi="http://sodipodi.sourceforge.net/DTD/sodipodi-0.dtd"
   xmlns:inkscape="http://www.inkscape.org/namespaces/inkscape"
   width="38.4pt"
   height="38.4pt"
   id="svg2"
   version="1.1"
   inkscape:version="0.49 r12742"
   sodipodi:docname="system-switch-user.svg">
  <metadata
     id="metadata16">
    <rdf:RDF>
      <cc:Work
         rdf:about="">
        <dc:format>image/svg+xml</dc:format>
        <dc:type
           rdf:resource="http://purl.org/dc/dcmitype/StillImage" />
        <dc:title></dc:title>
      </cc:Work>
    </rdf:RDF>
  </metadata>
  <sodipodi:namedview
     pagecolor="#ffffff"
     bordercolor="#666666"
     borderopacity="1"
     objecttolerance="10"
     gridtolerance="10"
     guidetolerance="10"
     inkscape:pageopacity="0"
     inkscape:pageshadow="2"
     inkscape:window-width="1366"
     inkscape:window-height="718"
     id="namedview14"
     showgrid="false"
     inkscape:showpageshadow="false"
     borderlayer="true"
     inkscape:zoom="9.8333329"
     inkscape:cx="27.781486"
     inkscape:cy="10.664318"
     inkscape:window-x="-2"
     inkscape:window-y="23"
     inkscape:window-maximized="1"
     inkscape:current-layer="svg2">
    <sodipodi:guide
       position="9.5367432e-07,48.000001"
       orientation="47.999999,0"
       id="guide4074" />
    <sodipodi:guide
       position="9.5367432e-07,1.9073486e-06"
       orientation="0,47.999999"
       id="guide4076" />
    <sodipodi:guide
       position="48,1.9073486e-06"
       orientation="-47.999999,0"
       id="guide4078" />
    <sodipodi:guide
       position="48,48.000001"
       orientation="0,-47.999999"
       id="guide4080" />
    <sodipodi:guide
       position="9.000001,39.000001"
       orientation="29.999999,0"
       id="guide4082" />
    <sodipodi:guide
       position="9.000001,9.0000019"
       orientation="0,29.999999"
       id="guide4084" />
    <sodipodi:guide
       position="39,9.0000019"
       orientation="-29.999999,0"
       id="guide4086" />
    <sodipodi:guide
       position="39,39.000001"
       orientation="0,-29.999999"
       id="guide4088" />
  </sodipodi:namedview>
  <defs
     id="defs4" />
  <path
     style="fill:#4d4d4d;fill-opacity:1;fill-rule:evenodd;stroke:none"
     d="M 23.996094 9 C 19.807013 9.0002485 16 12.811548 16 17 C 15.999999 18.853725 16.746839 20.63273 17.941406 22.041016 L 17.941406 23.105469 C 16.25329 23.850736 14.693233 24.887911 13.388672 26.193359 C 10.61373 28.970189 9 32.874108 9 36.800781 L 9 39 L 9.1855469 39 L 11.873047 39 L 13.230469 39 L 19 39 L 21 39 L 25 39 L 25 35 L 21 35 L 19 35 L 17.773438 35 L 13.164062 35 C 13.544873 32.75782 14.61052 30.630809 16.21875 29.021484 C 16.999803 28.239897 17.902112 27.584563 18.880859 27.074219 C 22.442804 24.40556 22 24.40625 22 20.392578 C 20.835224 19.668001 20 18.381242 20 17 C 20 14.905774 21.903507 13.000123 23.998047 13 C 26.092588 12.999874 28 14.905542 28 17 C 28 18.380824 27.16514 19.667876 26 20.392578 C 26 23.023661 25.848905 23.935137 26.720703 25 L 33.222656 25 C 32.246851 24.247745 31.184899 23.607948 30.056641 23.109375 L 30.056641 22.039062 C 31.251736 20.631085 31.999997 18.853008 32 17 C 32 12.811081 28.185175 8.9997521 23.996094 9 z M 28 31.806641 L 33.5 38.806641 L 39 31.806641 L 28 31.806641 z "
     id="path3286" />
</svg>
