<?xml version="1.0" encoding="UTF-8" standalone="no"?>
<!-- Created with Inkscape (http://www.inkscape.org/) -->

<svg
   xmlns:dc="http://purl.org/dc/elements/1.1/"
   xmlns:cc="http://creativecommons.org/ns#"
   xmlns:rdf="http://www.w3.org/1999/02/22-rdf-syntax-ns#"
   xmlns:svg="http://www.w3.org/2000/svg"
   xmlns="http://www.w3.org/2000/svg"
   xmlns:sodipodi="http://sodipodi.sourceforge.net/DTD/sodipodi-0.dtd"
   xmlns:inkscape="http://www.inkscape.org/namespaces/inkscape"
   width="48"
   height="48"
   id="svg3815"
   version="1.1"
   inkscape:version="0.48+devel r12388"
   sodipodi:docname="tag-new.svg">
  <defs
     id="defs3817" />
  <sodipodi:namedview
     id="base"
     pagecolor="#ffffff"
     bordercolor="#666666"
     borderopacity="1.0"
     inkscape:pageopacity="0.0"
     inkscape:pageshadow="2"
     inkscape:zoom="5.6"
     inkscape:cx="19.647649"
     inkscape:cy="25.862283"
     inkscape:document-units="px"
     inkscape:current-layer="layer1"
     showgrid="false"
     inkscape:window-width="1366"
     inkscape:window-height="714"
     inkscape:window-x="0"
     inkscape:window-y="30"
     inkscape:window-maximized="1" />
  <metadata
     id="metadata3820">
    <rdf:RDF>
      <cc:Work
         rdf:about="">
        <dc:format>image/svg+xml</dc:format>
        <dc:type
           rdf:resource="http://purl.org/dc/dcmitype/StillImage" />
        <dc:title />
      </cc:Work>
    </rdf:RDF>
  </metadata>
  <g
     inkscape:label="Capa 1"
     inkscape:groupmode="layer"
     id="layer1"
     transform="translate(0,-1004.3622)">
    <path
       id="path839"
       d="m 13.45178,1013.3622 6.995797,0 17.807368,17.8075 c 0.993407,0.9933 0.993407,2.6041 0,3.5974 l -7.849987,7.8498 c -0.993408,0.9938 -2.604182,0.9938 -3.59759,0 l -17.8073671,-17.807 0,-6.9958 c 0,-1.4838 0,-2.9682 0.7419621,-3.7098 C 10.483926,1013.3622 11.967856,1013.3622 13.45178,1013.3622 z m 1.908012,3.8159 c -1.40496,0 -2.543931,1.1388 -2.543931,2.5439 0,1.4052 1.138971,2.5439 2.543931,2.5439 1.404958,0 2.54385,-1.1387 2.54385,-2.5439 C 17.903642,1018.3169 16.76475,1017.1781 15.359792,1017.1781 Z"
       inkscape:connector-curvature="0"
       style="fill:#000000;fill-opacity:1;stroke-width:0.2;stroke-linejoin:round" />
    <g
       id="g839"
       transform="translate(-359.19928,689.31354)">
      <g
         id="text872"
         style="font-size:7.5px;font-style:normal;font-variant:normal;font-weight:bold;font-stretch:normal;line-height:125%;letter-spacing:0px;word-spacing:0px;fill:#ffffff;fill-opacity:1;stroke:none;font-family:Impact;-inkscape-font-specification:Impact Bold" />
    </g>
  </g>
</svg>
