<?xml version="1.0" standalone="no"?>
<!DOCTYPE svg PUBLIC "-//W3C//DTD SVG 20010904//EN" "http://www.w3.org/TR/2001/REC-SVG-20010904/DTD/svg10.dtd">
<!-- Created using Karbon, part of Calligra: http://www.calligra.org/karbon -->
<svg xmlns="http://www.w3.org/2000/svg" xmlns:xlink="http://www.w3.org/1999/xlink" width="38.4pt" height="38.4pt">
<defs/>
<g id="layer1">
  <path id="path3274" transform="matrix(0.994514 0 0 0.656209 13.3218 11.5994)" fill="#c0392b" fill-rule="evenodd" d="M10.3871 51.4348C4.45468 47.5928 0.0342423 32.4231 0 11.4752C0.0559629 -3.87413 20.771 -3.79529 20.7699 11.5335C20.7663 32.3066 16.318 47.5636 10.3871 51.4348Z"/>
  <path id="rect3283" transform="matrix(1 0 0 -1 2.93646 37.5266)" fill="#4d4d4d" fill-rule="evenodd" d="M0.190689 0.931986C-1.18202 6.61948 4.89436 22.8387 17.1981 26.5136C22.4234 32.0104 16.3423 35.9309 20.7472 35.905C25.1183 35.9311 19.2306 32.1576 23.765 26.4715C34.1257 22.7312 42.6212 6.59008 41.2402 0.931986C31.1846 -1.63018 21.4473 -0.328417 20.6836 23.4455C19.8604 -0.324811 11.9264 -1.55449 0.190689 0.931986Z"/>
  <path id="shape0" transform="translate(15.2456, 4.40454)" fill="#4d4d4d" fill-rule="evenodd" stroke="#003bc3" stroke-width="0.00000000000" stroke-linecap="square" stroke-linejoin="miter" stroke-miterlimit="2.01260185242" d="M4.1218 0.000255843C1.82442 0.023672 -0.0182439 1.62034 0.000136315 3.57166C0.0185165 5.52298 1.89103 7.0944 4.18855 7.0866C6.48607 7.07879 8.34344 5.46635 8.34344 3.51497C8.30668 1.56383 6.41917 -0.0231603 4.1218 0.000255843Z"/>
  <path id="shape1" transform="translate(23.6828, 4.40911)" fill="#4d4d4d" fill-rule="evenodd" stroke="#003bc3" stroke-width="0.00000000000" stroke-linecap="square" stroke-linejoin="miter" stroke-miterlimit="2.00000000000" d="M4.12193 0.000255844C1.82448 0.023672 -0.0182445 1.62034 0.00013632 3.57166C0.0185171 5.52299 1.8911 7.0944 4.18868 7.0866C6.48628 7.07879 8.34371 5.46635 8.34371 3.51496C8.30694 1.56384 6.41937 -0.0231604 4.12193 0.000255844Z"/>
 </g>
</svg>
