<svg xmlns="http://www.w3.org/2000/svg" width="48" height="48" viewBox="0 0 48.000003 48.000001">
 <g transform="translate(0,-1004.3622)">
  <path d="m 23.999999,1013.3622 c -5.20233,0 -9.45242,3.9331 -9.95117,9 l 19.90234,0 c -0.49874,-5.0669 -4.74883,-9 -9.95117,-9 z" style="fill:#4d4d4d"/>
  <rect width="34" height="4" x="7" y="1023.76" style="fill:#4d4d4d" rx="2"/>
  <path d="m 9.9999987,1031.3622 c -1.108,0 -2,0.892 -2,2 0,1.108 0.892,2 2,2 l 12.5000003,0 0,-4 z" style="fill:#4d4d4d"/>
  <path d="m 25.499999,1031.3622 0,4 12.5,0 c 1.108,0 2,-0.892 2,-2 0,-1.108 -0.892,-2 -2,-2 z" style="fill:#4d4d4d"/>
  <path d="m 22.499999,1033.2782 -10.99805,6.3496 c -0.95955,0.554 -1.28642,1.7729 -0.73242,2.7324 0.554,0.9596 1.77287,1.2864 2.73242,0.7324 l 8.99805,-5.1953 z" style="fill:#4d4d4d"/>
  <path d="m 25.499999,1033.2782 0,4.6191 8.99805,5.1953 c 0.95956,0.554 2.17842,0.2272 2.73242,-0.7324 0.554,-0.9595 0.22714,-2.1784 -0.73242,-2.7324 z" style="fill:#4d4d4d"/>
  <path d="m 11.999999,1023.7626 0,9 0.006,0 c -3.2e-4,0.034 -0.006,0.066 -0.006,0.1 0,5.817 4.32187,10.5 9.69141,10.5 l 0.80859,0 0,-14 3,0 0,14 0.8086,0 c 5.36953,0 9.6914,-4.683 9.6914,-10.5 0,-0.034 -0.006,-0.066 -0.006,-0.1 l 0.006,0 0,-9 -24,0 z" style="fill:#e74c3c"/>
 </g>
</svg>
