<svg xmlns="http://www.w3.org/2000/svg" width="48" height="48">
 <g transform="translate(0,-1004.3622)">
  <path d="M 9 9 L 9 16 L 9 20 L 9.5683594 20 L 13.771484 20 L 20 20 L 20 16 L 16.464844 16 C 18.481445 14.105332 21.224908 13.000164 23.994141 13 C 26.874134 12.999829 29.737836 14.18435 31.775391 16.220703 C 33.812945 18.257056 35 21.120118 35 24 C 35 26.879882 33.812945 29.742944 31.775391 31.779297 C 29.739216 33.81427 26.878019 34.998567 24 35 L 24 39 C 27.925286 38.998626 31.826415 37.382885 34.603516 34.607422 C 37.381999 31.830578 39 27.927112 39 24 C 39 20.072888 37.381999 16.169422 34.603516 13.392578 C 31.825033 10.615734 27.921404 8.9997672 23.994141 9 C 20.066877 9.0002328 16.165567 10.617701 13.390625 13.394531 C 13.255734 13.529514 13.129235 13.6723 13 13.8125 L 13 9 L 9 9 z " transform="translate(0,1004.3622)" style="fill:#4d4d4d" fill-rule="evenodd"/>
 </g>
</svg>
