<svg xmlns="http://www.w3.org/2000/svg" width="48" height="48">
 <g transform="matrix(0,1,-1,0,48.000001,0)">
  <rect transform="matrix(0,1,-1,0,0,0)" y="-18" x="9" height="9" width="4" style="fill:#4d4d4d"/>
  <rect transform="scale(-1,-1)" width="4" height="30" x="-13" y="-39" style="fill:#4d4d4d"/>
  <rect transform="matrix(0,1,-1,0,0,0)" width="4" height="9" x="35" y="-18" style="fill:#4d4d4d"/>
  <rect transform="matrix(0,1,-1,0,0,0)" width="4" height="9" x="9" y="-39" style="fill:#4d4d4d"/>
  <rect transform="matrix(0,1,-1,0,0,0)" y="-39" x="35" height="9" width="4" style="fill:#4d4d4d"/>
  <rect y="-39" x="-25.5" height="30" width="3" transform="scale(-1,-1)" style="fill:#4d4d4d"/>
  <rect transform="scale(-1,-1)" width="4" height="30" x="-39" y="-39" style="fill:#4d4d4d"/>
 </g>
</svg>
