<?xml version="1.0" standalone="no"?>
<!DOCTYPE svg PUBLIC "-//W3C//DTD SVG 20010904//EN" "http://www.w3.org/TR/2001/REC-SVG-20010904/DTD/svg10.dtd">
<!-- Created using Karbon, part of Calligra: http://www.calligra.org/karbon -->
<svg xmlns="http://www.w3.org/2000/svg" xmlns:xlink="http://www.w3.org/1999/xlink" width="38.4pt" height="38.4pt">
<defs/>
<g id="layer1">
  <rect id="rect3278" transform="matrix(-1 0 0 1 35.4928 12.6812)" fill="#4d4d4d" fill-rule="evenodd" width="5.60000000000pt" height="5.60000000000pt"/>
  <rect id="rect3280" transform="matrix(-1 0 0 1 35.4928 24.1812)" fill="#4d4d4d" fill-rule="evenodd" width="5.60000000000pt" height="5.60000000000pt"/>
  <rect id="rect3284" transform="matrix(-1 0 0 1 26.1218 14.1812)" fill="#4d4d4d" fill-rule="evenodd" width="11.14134782128pt" height="3.20000000000pt"/>
  <rect id="rect3286" transform="matrix(-1 0 0 1 26.1218 25.6812)" fill="#4d4d4d" fill-rule="evenodd" width="11.14134782128pt" height="3.20000000000pt"/>
  <rect id="rect32801" transform="matrix(-1 0 0 1 35.4928 35.6647)" fill="#4d4d4d" fill-rule="evenodd" width="5.60000000000pt" height="5.60000000000pt"/>
  <rect id="rect32861" transform="matrix(-1 0 0 1 26.1218 37.1647)" fill="#4d4d4d" fill-rule="evenodd" width="11.14134782128pt" height="3.20000000000pt"/>
  <rect id="rect32862" transform="matrix(4.3715e-16 -1 -1 -4.3715e-16 16.1318 41.009)" fill="#4d4d4d" fill-rule="evenodd" width="28.43109422879pt" height="3.20000000000pt"/>
 </g>
</svg>
