<svg xmlns="http://www.w3.org/2000/svg" width="48" height="48">
 <rect width="4" height="9" x="9" y="-18" transform="matrix(0,1,-1,0,0,0)" style="fill:#4d4d4d"/>
 <rect y="-39" x="-13" height="30" width="4" transform="scale(-1,-1)" style="fill:#4d4d4d"/>
 <rect y="-18" x="35" height="9" width="4" transform="matrix(0,1,-1,0,0,0)" style="fill:#4d4d4d"/>
 <rect y="-39" x="9" height="9" width="4" transform="matrix(0,1,-1,0,0,0)" style="fill:#4d4d4d"/>
 <rect width="4" height="9" x="35" y="-39" transform="matrix(0,1,-1,0,0,0)" style="fill:#4d4d4d"/>
 <rect transform="scale(-1,-1)" width="4" height="30" x="-26" y="-39" style="fill:#4d4d4d"/>
 <rect y="-29.5" x="-35.5" height="11" width="4" transform="scale(-1,-1)" style="fill:#4d4d4d"/>
 <rect transform="matrix(0,-1,1,0,0,0)" width="4" height="11" x="-26" y="28" style="fill:#4d4d4d"/>
</svg>
