<?xml version="1.0" encoding="UTF-8" standalone="no"?>
<!-- Created with Inkscape (http://www.inkscape.org/) -->

<svg
   xmlns:dc="http://purl.org/dc/elements/1.1/"
   xmlns:cc="http://creativecommons.org/ns#"
   xmlns:rdf="http://www.w3.org/1999/02/22-rdf-syntax-ns#"
   xmlns:svg="http://www.w3.org/2000/svg"
   xmlns="http://www.w3.org/2000/svg"
   xmlns:sodipodi="http://sodipodi.sourceforge.net/DTD/sodipodi-0.dtd"
   xmlns:inkscape="http://www.inkscape.org/namespaces/inkscape"
   width="48"
   height="48"
   id="svg3049"
   version="1.1"
   inkscape:version="0.48+devel r12388"
   sodipodi:docname="view-preview.svg">
  <defs
     id="defs3051" />
  <sodipodi:namedview
     id="base"
     pagecolor="#ffffff"
     bordercolor="#666666"
     borderopacity="1.0"
     inkscape:pageopacity="0.0"
     inkscape:pageshadow="2"
     inkscape:zoom="1.979899"
     inkscape:cx="1.2306231"
     inkscape:cy="-29.090377"
     inkscape:document-units="px"
     inkscape:current-layer="layer1"
     showgrid="false"
     fit-margin-top="0"
     fit-margin-left="0"
     fit-margin-right="0"
     fit-margin-bottom="0"
     inkscape:window-width="1366"
     inkscape:window-height="714"
     inkscape:window-x="0"
     inkscape:window-y="30"
     inkscape:window-maximized="1" />
  <metadata
     id="metadata3054">
    <rdf:RDF>
      <cc:Work
         rdf:about="">
        <dc:format>image/svg+xml</dc:format>
        <dc:type
           rdf:resource="http://purl.org/dc/dcmitype/StillImage" />
        <dc:title />
      </cc:Work>
    </rdf:RDF>
  </metadata>
  <g
     inkscape:label="Capa 1"
     inkscape:groupmode="layer"
     id="layer1"
     transform="translate(-421.71429,-499.79074)">
    <g
       style="fill:#000000"
       inkscape:label="Capa 1"
       id="g4039"
       transform="matrix(0.36666676,0,0,0.36666676,446.41429,156.2245)">
      <path
         style="fill:#000000;fill-opacity:1;fill-rule:nonzero;stroke:none"
         d="m 11.12263,1013.3622 c -1.17204,0 -2.12264,0.8392 -2.12264,1.875 l 0,26.25 c 0,0.1295 0.007,0.2529 0.0354,0.375 0.0283,0.122 0.0878,0.2315 0.14151,0.3437 0.31529,0.6865 1.05574,1.1563 1.94575,1.1563 l 15.000002,0 10.754716,0 c 1.172434,0 2.122642,-0.839 2.122642,-1.875 l 0,-9.5 0,-7.25 0,-9.5 c 0,-1.0361 -0.950208,-1.875 -2.122642,-1.875 l -10.754716,0 L 11.12263,1013.3622 Z"
         id="path4041"
         inkscape:connector-curvature="0" />
    </g>
    <g
       transform="matrix(0.36666676,0,0,0.36666676,427.41428,137.22451)"
       id="g4043"
       inkscape:label="Capa 1"
       style="fill:#000000">
      <path
         inkscape:connector-curvature="0"
         id="path4045"
         d="m 11.12263,1013.3622 c -1.17204,0 -2.12264,0.8392 -2.12264,1.875 l 0,26.25 c 0,0.1295 0.007,0.2529 0.0354,0.375 0.0283,0.122 0.0878,0.2315 0.14151,0.3437 0.31529,0.6865 1.05574,1.1563 1.94575,1.1563 l 15.000002,0 10.754716,0 c 1.172434,0 2.122642,-0.839 2.122642,-1.875 l 0,-9.5 0,-7.25 0,-9.5 c 0,-1.0361 -0.950208,-1.875 -2.122642,-1.875 l -10.754716,0 L 11.12263,1013.3622 Z"
         style="fill:#000000;fill-opacity:1;fill-rule:nonzero;stroke:none" />
    </g>
    <g
       transform="matrix(0.36666676,0,0,-0.36666676,446.41429,891.35698)"
       id="g4047"
       inkscape:label="Capa 1"
       style="fill:#000000">
      <path
         inkscape:connector-curvature="0"
         id="path4049"
         d="m 11.12263,1013.3622 c -1.17204,0 -2.12264,0.8392 -2.12264,1.875 l 0,26.25 c 0,0.1295 0.007,0.2529 0.0354,0.375 0.0283,0.122 0.0878,0.2315 0.14151,0.3437 0.31529,0.6865 1.05574,1.1563 1.94575,1.1563 l 15.000002,0 10.754716,0 c 1.172434,0 2.122642,-0.839 2.122642,-1.875 l 0,-9.5 0,-7.25 0,-9.5 c 0,-1.0361 -0.950208,-1.875 -2.122642,-1.875 l -10.754716,0 L 11.12263,1013.3622 Z"
         style="fill:#000000;fill-opacity:1;fill-rule:nonzero;stroke:none" />
    </g>
    <g
       style="fill:#000000"
       inkscape:label="Capa 1"
       id="g4051"
       transform="matrix(0.36666676,0,0,-0.36666676,427.41428,910.35697)">
      <path
         style="fill:#000000;fill-opacity:1;fill-rule:nonzero;stroke:none"
         d="m 11.12263,1013.3622 c -1.17204,0 -2.12264,0.8392 -2.12264,1.875 l 0,26.25 c 0,0.1295 0.007,0.2529 0.0354,0.375 0.0283,0.122 0.0878,0.2315 0.14151,0.3437 0.31529,0.6865 1.05574,1.1563 1.94575,1.1563 l 15.000002,0 10.754716,0 c 1.172434,0 2.122642,-0.839 2.122642,-1.875 l 0,-9.5 0,-7.25 0,-9.5 c 0,-1.0361 -0.950208,-1.875 -2.122642,-1.875 l -10.754716,0 L 11.12263,1013.3622 Z"
         id="path4053"
         inkscape:connector-curvature="0" />
    </g>
  </g>
</svg>
