<?xml version="1.0" encoding="UTF-8" standalone="no"?>
<!-- Created with Inkscape (http://www.inkscape.org/) -->

<svg
   xmlns:dc="http://purl.org/dc/elements/1.1/"
   xmlns:cc="http://creativecommons.org/ns#"
   xmlns:rdf="http://www.w3.org/1999/02/22-rdf-syntax-ns#"
   xmlns:svg="http://www.w3.org/2000/svg"
   xmlns="http://www.w3.org/2000/svg"
   xmlns:sodipodi="http://sodipodi.sourceforge.net/DTD/sodipodi-0.dtd"
   xmlns:inkscape="http://www.inkscape.org/namespaces/inkscape"
   width="48"
   height="48"
   id="svg3070"
   version="1.1"
   inkscape:version="0.48+devel r12388"
   sodipodi:docname="gtk-sort-descending.svg">
  <defs
     id="defs3072" />
  <sodipodi:namedview
     id="base"
     pagecolor="#ffffff"
     bordercolor="#666666"
     borderopacity="1.0"
     inkscape:pageopacity="0.0"
     inkscape:pageshadow="2"
     inkscape:zoom="2.8"
     inkscape:cx="0.33845193"
     inkscape:cy="26.694024"
     inkscape:document-units="px"
     inkscape:current-layer="layer1"
     showgrid="false"
     fit-margin-top="0"
     fit-margin-left="0"
     fit-margin-right="0"
     fit-margin-bottom="0"
     inkscape:window-width="1366"
     inkscape:window-height="714"
     inkscape:window-x="0"
     inkscape:window-y="30"
     inkscape:window-maximized="1" />
  <metadata
     id="metadata3075">
    <rdf:RDF>
      <cc:Work
         rdf:about="">
        <dc:format>image/svg+xml</dc:format>
        <dc:type
           rdf:resource="http://purl.org/dc/dcmitype/StillImage" />
        <dc:title></dc:title>
      </cc:Work>
    </rdf:RDF>
  </metadata>
  <g
     inkscape:label="Capa 1"
     inkscape:groupmode="layer"
     id="layer1"
     transform="translate(-424.57143,-522.6479)">
    <path
       style="fill:#000000;fill-opacity:1;fill-rule:nonzero;stroke:none"
       d="m 431.25507,561.64787 c -0.29301,0 -0.53125,-0.20975 -0.53125,-0.46875 l 0,-6.5625 c 0,-0.033 0.0242,-0.0627 0.0312,-0.0937 0.007,-0.031 0.0178,-0.0345 0.0312,-0.0625 0.0788,-0.1716 0.24625,-0.3125 0.46875,-0.3125 l 3.75,0 2.6875,0 c 0.29311,0 0.53125,0.20974 0.53125,0.46875 l 0,2.375 0,1.8125 0,2.375 c 0,0.259 -0.23814,0.46875 -0.53125,0.46875 l -2.6875,0 L 431.25507,561.64787 Z"
       id="path4080"
       inkscape:connector-curvature="0" />
    <path
       style="fill:#000000;fill-opacity:1;fill-rule:nonzero;stroke:none"
       d="m 443.41132,561.64787 c -0.29301,0 -0.53125,-0.20975 -0.53125,-0.46875 l 0,-6.5625 c 0,-0.033 -0.007,-0.0627 0,-0.0937 0.007,-0.031 0.0178,-0.0345 0.0312,-0.0625 0.0788,-0.1716 0.2775,-0.3125 0.5,-0.3125 l 19.75,0 2.6875,0 c 0.29311,0 0.69808,0.27063 0.53125,0.46875 l 0,2.375 0,1.8125 0,2.375 c 0,0.259 -0.23814,0.46875 -0.53125,0.46875 l -2.6875,0 L 443.41132,561.64787 Z"
       id="path4042"
       inkscape:connector-curvature="0" />
    <path
       style="fill:#000000;fill-opacity:1;fill-rule:nonzero;stroke:none"
       d="m 431.28632,539.14787 c -0.29301,0 -0.53125,-0.20975 -0.53125,-0.46875 l 0,-6.5625 c 0,-0.033 -0.007,-0.0628 0,-0.0937 0.007,-0.031 0.0179,-0.0345 0.0312,-0.0625 0.0788,-0.1716 0.2775,-0.3125 0.5,-0.3125 l 3.75,0 2.6875,0 c 0.29311,0 0.53125,0.20975 0.53125,0.46875 l 0,2.375 0,1.8125 0,2.375 c 0,0.259 -0.23814,0.46875 -0.53125,0.46875 l -2.6875,0 L 431.28632,539.14787 z m 12.125,0 c -0.29301,0 -0.53125,-0.20975 -0.53125,-0.46875 l 0,-6.5625 c 0,-0.033 -0.007,-0.0628 0,-0.0937 0.007,-0.031 0.0179,-0.0345 0.0312,-0.0625 0.0788,-0.1716 0.2775,-0.3125 0.5,-0.3125 l 10.4375,0 c -0.0636,0.0447 -0.13064,0.0995 -0.1875,0.15625 l -0.84375,0.84375 -8.5625,0 c -0.16317,0 -0.28595,0.093 -0.34375,0.21875 -0.01,0.02 -0.0264,0.0395 -0.0312,0.0625 -0.005,0.023 0,0.0385 0,0.0625 l 0,4.8125 c -5e-5,0.18989 0.16012,0.34375 0.375,0.34375 l 3.0625,0 -1,1 L 443.41132,539.14787 z m 19.53125,0 -1,-1 1.0625,0 1.96875,0 c 0.21495,0 0.40625,-0.15386 0.40625,-0.34375 l 0,-1.71875 0,-1.34375 0,-1.75 c 0,-0.1899 -0.1913,-0.34375 -0.40625,-0.34375 l -1.96875,0 -6.5625,0 -0.84375,-0.84375 c -0.0569,-0.0568 -0.12387,-0.11151 -0.1875,-0.15625 l 7.75,0 2.6875,0 c 0.29311,0 0.69808,0.27063 0.53125,0.46875 l 0,2.375 0,1.8125 0,2.375 c 0,0.259 -0.23814,0.46875 -0.53125,0.46875 l -2.6875,0 L 462.94257,539.14787 z m -30.8125,-1 2.75,0 1.96875,0 c 0.21495,0 0.40625,-0.15386 0.40625,-0.34375 l 0,-1.71875 0,-1.34375 0,-1.75 c 0,-0.1899 -0.1913,-0.34375 -0.40625,-0.34375 l -1.96875,0 -2.75,0 c -0.16317,0 -0.28595,0.093 -0.34375,0.21875 -0.01,0.02 -0.0264,0.0395 -0.0312,0.0625 -0.005,0.023 0,0.0385 0,0.0625 l 0,4.8125 C 431.75502,537.99401 431.91519,538.14787 432.13007,538.14787 Z"
       id="path4043"
       inkscape:connector-curvature="0" />
    <path
       style="fill:#000000;fill-opacity:1;fill-rule:nonzero;stroke:none"
       d="m 431.28632,550.39787 c -0.29301,0 -0.53125,-0.20975 -0.53125,-0.46875 l 0,-6.5625 c 0,-0.033 -0.007,-0.0628 0,-0.0937 0.007,-0.031 0.0178,-0.0345 0.0312,-0.0625 0.0788,-0.1716 0.2775,-0.3125 0.5,-0.3125 l 3.75,0 2.6875,0 c 0.29311,0 0.53125,0.20975 0.53125,0.46875 l 0,2.375 0,1.8125 0,2.375 c 0,0.259 -0.23814,0.46875 -0.53125,0.46875 l -2.6875,0 L 431.28632,550.39787 z m 12.125,0 c -0.29301,0 -0.53125,-0.20975 -0.53125,-0.46875 l 0,-6.5625 c 0,-0.033 -0.007,-0.0628 0,-0.0937 0.007,-0.031 0.0178,-0.0345 0.0312,-0.0625 0.0788,-0.1716 0.2775,-0.3125 0.5,-0.3125 l 1.65625,0 0,1 -0.8125,0 c -0.16317,0 -0.28595,0.0929 -0.34375,0.21875 -0.01,0.02 -0.0265,0.0395 -0.0312,0.0625 -0.005,0.023 0,0.0385 0,0.0625 l 0,4.8125 c -10e-5,0.18989 0.16012,0.34375 0.375,0.34375 l 4.4375,0 0,1 L 443.41132,550.39787 z m 17.1875,0 0,-1 2.40625,0 1.96875,0 c 0.21495,0 0.55027,-0.21998 0.40625,-0.34375 l 0,-1.71875 0,-1.34375 0,-1.75 c 0,-0.1899 -0.1913,-0.34375 -0.40625,-0.34375 l -0.75,0 0,-1 1.625,0 c 0.29311,0 0.53125,0.20975 0.53125,0.46875 l 0,2.375 0,1.8125 0,2.375 c 0,0.259 -0.23814,0.46875 -0.53125,0.46875 l -2.6875,0 L 460.59882,550.39787 z m -28.46875,-1 2.75,0 1.96875,0 c 0.21495,0 0.40625,-0.15386 0.40625,-0.34375 l 0,-1.71875 0,-1.34375 0,-1.75 c 0,-0.1899 -0.1913,-0.34375 -0.40625,-0.34375 l -1.96875,0 -2.75,0 c -0.16317,0 -0.28595,0.0929 -0.34375,0.21875 -0.01,0.02 -0.0265,0.0395 -0.0312,0.0625 -0.005,0.023 0,0.0385 0,0.0625 l 0,4.8125 C 431.75497,549.24401 431.91519,549.39787 432.13007,549.39787 Z"
       id="path4052"
       inkscape:connector-curvature="0" />
    <path
       inkscape:connector-curvature="0"
       id="path338"
       style="fill:#000000;fill-opacity:1;fill-rule:nonzero;stroke:none"
       d="m 453.89685,533.70859 -7.43737,7.43757 c -0.2035,0.20312 -0.31145,0.47557 -0.31145,0.75176 0,0.13673 0.0265,0.27501 0.0809,0.40642 0.16449,0.39714 0.5518,0.656 0.98165,0.656 l 3.18747,0 0,6.37496 c 0,0.58705 0.47576,1.06262 1.06243,1.06262 l 6.37495,0 c 0.58686,0 1.06262,-0.47557 1.06262,-1.06262 l 0,-6.37496 3.18748,0 c 0.43024,0 0.81676,-0.25885 0.98145,-0.656 0.0546,-0.13141 0.0809,-0.2697 0.0809,-0.40642 0,-0.27619 -0.10755,-0.54864 -0.31067,-0.75175 l -7.43796,-7.43758 c -0.41508,-0.41428 -1.08765,-0.41428 -1.50253,0" />
  </g>
</svg>
