<?xml version="1.0" encoding="UTF-8" standalone="no"?>
<!-- Created with Inkscape (http://www.inkscape.org/) -->

<svg
   xmlns:dc="http://purl.org/dc/elements/1.1/"
   xmlns:cc="http://creativecommons.org/ns#"
   xmlns:rdf="http://www.w3.org/1999/02/22-rdf-syntax-ns#"
   xmlns:svg="http://www.w3.org/2000/svg"
   xmlns="http://www.w3.org/2000/svg"
   xmlns:sodipodi="http://sodipodi.sourceforge.net/DTD/sodipodi-0.dtd"
   xmlns:inkscape="http://www.inkscape.org/namespaces/inkscape"
   width="48"
   height="48"
   id="svg3049"
   version="1.1"
   inkscape:version="0.48+devel r12485"
   sodipodi:docname="view-list-tree.svg"
   inkscape:export-filename="/home/uri/.kde/share/icons/NITRUX-KDE/16x16/actions/view-list-tree.png"
   inkscape:export-xdpi="30"
   inkscape:export-ydpi="30">
  <defs
     id="defs3051" />
  <sodipodi:namedview
     id="base"
     pagecolor="#ffffff"
     bordercolor="#666666"
     borderopacity="1.0"
     inkscape:pageopacity="0.0"
     inkscape:pageshadow="2"
     inkscape:zoom="3.1706089"
     inkscape:cx="27.665414"
     inkscape:cy="30.892894"
     inkscape:document-units="px"
     inkscape:current-layer="layer1"
     showgrid="false"
     fit-margin-top="0"
     fit-margin-left="0"
     fit-margin-right="0"
     fit-margin-bottom="0"
     inkscape:window-width="1366"
     inkscape:window-height="719"
     inkscape:window-x="-4"
     inkscape:window-y="24"
     inkscape:window-maximized="1"
     inkscape:showpageshadow="false"
     borderlayer="true" />
  <metadata
     id="metadata3054">
    <rdf:RDF>
      <cc:Work
         rdf:about="">
        <dc:format>image/svg+xml</dc:format>
        <dc:type
           rdf:resource="http://purl.org/dc/dcmitype/StillImage" />
        <dc:title />
      </cc:Work>
    </rdf:RDF>
  </metadata>
  <g
     inkscape:label="Capa 1"
     inkscape:groupmode="layer"
     id="layer1"
     transform="translate(-421.71429,-499.79074)">
    <path
       style="fill:#4d4d4d;stroke:none"
       d="M 17.5 9 L 17.5 22 L 30.5 22 L 30.5 9 L 17.5 9 z M 19.5 11 L 28.5 11 L 28.5 20 L 19.5 20 L 19.5 11 z "
       transform="translate(421.71429,499.79074)"
       id="path3250" />
    <path
       style="fill:#4d4d4d;stroke:none"
       d="m 430.71429,515.29074 0,6.5 2.71874,0 3.78126,0 0,-6.5 -3.78126,0 -2.71874,0 z"
       id="path3246"
       inkscape:connector-curvature="0" />
    <path
       style="fill:#4d4d4d;stroke:none"
       d="m 454.21429,515.29074 0,6.5 6.5,0 0,-6.5 -6.5,0 z"
       id="path3244"
       inkscape:connector-curvature="0" />
    <path
       id="path3281"
       d="m 447.71429,525.79074 0,13 13,0 0,-13 -13,0 z m 2,2 9,0 0,9 -9,0 0,-9 z"
       style="fill:#4d4d4d;stroke:none"
       inkscape:connector-curvature="0" />
    <path
       inkscape:connector-curvature="0"
       style="fill:#4d4d4d;stroke:none"
       d="m 430.71429,525.79074 0,13 13,0 0,-13 -13,0 z m 2,2 9,0 0,9 -9,0 0,-9 z"
       id="path3283" />
  </g>
</svg>
