<?xml version="1.0" encoding="UTF-8" standalone="no"?>
<!-- Created with Inkscape (http://www.inkscape.org/) -->

<svg
   xmlns:dc="http://purl.org/dc/elements/1.1/"
   xmlns:cc="http://creativecommons.org/ns#"
   xmlns:rdf="http://www.w3.org/1999/02/22-rdf-syntax-ns#"
   xmlns:svg="http://www.w3.org/2000/svg"
   xmlns="http://www.w3.org/2000/svg"
   xmlns:sodipodi="http://sodipodi.sourceforge.net/DTD/sodipodi-0.dtd"
   xmlns:inkscape="http://www.inkscape.org/namespaces/inkscape"
   width="48"
   height="48"
   id="svg4478"
   version="1.1"
   inkscape:version="0.48+devel r12388"
   sodipodi:docname="gtk-fullscreen.svg">
  <defs
     id="defs4480" />
  <sodipodi:namedview
     id="base"
     pagecolor="#ffffff"
     bordercolor="#666666"
     borderopacity="1.0"
     inkscape:pageopacity="0.0"
     inkscape:pageshadow="2"
     inkscape:zoom="7.9195959"
     inkscape:cx="-3.5022658"
     inkscape:cy="34.677441"
     inkscape:document-units="px"
     inkscape:current-layer="layer1"
     showgrid="false"
     width="0px"
     height="0px"
     fit-margin-top="0"
     fit-margin-left="0"
     fit-margin-right="0"
     fit-margin-bottom="0"
     inkscape:window-width="1366"
     inkscape:window-height="714"
     inkscape:window-x="0"
     inkscape:window-y="30"
     inkscape:window-maximized="1" />
  <metadata
     id="metadata4483">
    <rdf:RDF>
      <cc:Work
         rdf:about="">
        <dc:format>image/svg+xml</dc:format>
        <dc:type
           rdf:resource="http://purl.org/dc/dcmitype/StillImage" />
        <dc:title />
      </cc:Work>
    </rdf:RDF>
  </metadata>
  <g
     inkscape:label="Capa 1"
     inkscape:groupmode="layer"
     id="layer1"
     transform="translate(0,-1004.3622)">
    <g
       inkscape:label="Layer 1"
       id="layer1-4"
       transform="matrix(0.32000545,-0.32000545,0.32000545,0.32000545,-1.3114431,1038.313)">
      <path
         d="M 9.5482943,22.674415 22.673419,9.5496342 c 0.35843,-0.3591215 0.839227,-0.549631 1.326633,-0.549631 0.241267,0 0.485297,0.04693 0.717189,0.142882 0.700854,0.2902875 1.157673,0.9737658 1.157673,1.7323348 l 0,5.624954 11.249914,0 c 1.035985,0 1.875212,0.839573 1.875212,1.87487 l 0,11.249908 c 0,1.035648 -0.839227,1.875218 -1.875212,1.875218 l -11.249914,0 0,5.624957 c 0,0.759265 -0.456819,1.44135 -1.157673,1.731985 -0.231892,0.0963 -0.475922,0.142885 -0.717189,0.142885 -0.487406,0 -0.968203,-0.18982 -1.326633,-0.548245 L 9.5482943,25.325933 c -0.731112,-0.732497 -0.731112,-1.919371 0,-2.651518"
         style="fill:#000000;fill-opacity:1;fill-rule:nonzero;stroke:none"
         id="path338"
         inkscape:connector-curvature="0" />
    </g>
    <g
       transform="matrix(0.32000545,0.32000545,0.32000545,-0.32000545,-1.3114431,1018.4113)"
       id="g4038"
       inkscape:label="Layer 1">
      <path
         inkscape:connector-curvature="0"
         id="path4040"
         style="fill:#000000;fill-opacity:1;fill-rule:nonzero;stroke:none"
         d="M 9.5482943,22.674415 22.673419,9.5496342 c 0.35843,-0.3591215 0.839227,-0.549631 1.326633,-0.549631 0.241267,0 0.485297,0.04693 0.717189,0.142882 0.700854,0.2902875 1.157673,0.9737658 1.157673,1.7323348 l 0,5.624954 11.249914,0 c 1.035985,0 1.875212,0.839573 1.875212,1.87487 l 0,11.249908 c 0,1.035648 -0.839227,1.875218 -1.875212,1.875218 l -11.249914,0 0,5.624957 c 0,0.759265 -0.456819,1.44135 -1.157673,1.731985 -0.231892,0.0963 -0.475922,0.142885 -0.717189,0.142885 -0.487406,0 -0.968203,-0.18982 -1.326633,-0.548245 L 9.5482943,25.325933 c -0.731112,-0.732497 -0.731112,-1.919371 0,-2.651518" />
    </g>
    <g
       transform="matrix(-0.32000545,-0.32000545,-0.32000545,0.32000545,49.311443,1038.3131)"
       id="g4042"
       inkscape:label="Layer 1">
      <path
         inkscape:connector-curvature="0"
         id="path4044"
         style="fill:#000000;fill-opacity:1;fill-rule:nonzero;stroke:none"
         d="M 9.5482943,22.674415 22.673419,9.5496342 c 0.35843,-0.3591215 0.839227,-0.549631 1.326633,-0.549631 0.241267,0 0.485297,0.04693 0.717189,0.142882 0.700854,0.2902875 1.157673,0.9737658 1.157673,1.7323348 l 0,5.624954 11.249914,0 c 1.035985,0 1.875212,0.839573 1.875212,1.87487 l 0,11.249908 c 0,1.035648 -0.839227,1.875218 -1.875212,1.875218 l -11.249914,0 0,5.624957 c 0,0.759265 -0.456819,1.44135 -1.157673,1.731985 -0.231892,0.0963 -0.475922,0.142885 -0.717189,0.142885 -0.487406,0 -0.968203,-0.18982 -1.326633,-0.548245 L 9.5482943,25.325933 c -0.731112,-0.732497 -0.731112,-1.919371 0,-2.651518" />
    </g>
    <g
       inkscape:label="Layer 1"
       id="g4046"
       transform="matrix(-0.32000545,0.32000545,-0.32000545,-0.32000545,49.311443,1018.4113)">
      <path
         d="M 9.5482943,22.674415 22.673419,9.5496342 c 0.35843,-0.3591215 0.839227,-0.549631 1.326633,-0.549631 0.241267,0 0.485297,0.04693 0.717189,0.142882 0.700854,0.2902875 1.157673,0.9737658 1.157673,1.7323348 l 0,5.624954 11.249914,0 c 1.035985,0 1.875212,0.839573 1.875212,1.87487 l 0,11.249908 c 0,1.035648 -0.839227,1.875218 -1.875212,1.875218 l -11.249914,0 0,5.624957 c 0,0.759265 -0.456819,1.44135 -1.157673,1.731985 -0.231892,0.0963 -0.475922,0.142885 -0.717189,0.142885 -0.487406,0 -0.968203,-0.18982 -1.326633,-0.548245 L 9.5482943,25.325933 c -0.731112,-0.732497 -0.731112,-1.919371 0,-2.651518"
         style="fill:#000000;fill-opacity:1;fill-rule:nonzero;stroke:none"
         id="path4048"
         inkscape:connector-curvature="0" />
    </g>
  </g>
</svg>
