<?xml version="1.0" encoding="UTF-8" standalone="no"?>
<!-- Created with Inkscape (http://www.inkscape.org/) -->

<svg
   xmlns:dc="http://purl.org/dc/elements/1.1/"
   xmlns:cc="http://creativecommons.org/ns#"
   xmlns:rdf="http://www.w3.org/1999/02/22-rdf-syntax-ns#"
   xmlns:svg="http://www.w3.org/2000/svg"
   xmlns="http://www.w3.org/2000/svg"
   xmlns:xlink="http://www.w3.org/1999/xlink"
   xmlns:sodipodi="http://sodipodi.sourceforge.net/DTD/sodipodi-0.dtd"
   xmlns:inkscape="http://www.inkscape.org/namespaces/inkscape"
   width="48"
   height="48"
   id="svg3049"
   version="1.1"
   inkscape:version="0.48+devel r12388"
   sodipodi:docname="view-list-details.svg">
  <defs
     id="defs3051">
    <linearGradient
       inkscape:collect="always"
       xlink:href="#linearGradient3754"
       id="linearGradient3770"
       gradientUnits="userSpaceOnUse"
       x1="23.673292"
       y1="1046.1796"
       x2="23.673292"
       y2="1004.5619"
       gradientTransform="translate(-0.0416311,0.21835584)" />
    <linearGradient
       id="linearGradient3754">
      <stop
         style="stop-color:#b1731b;stop-opacity:1;"
         offset="0"
         id="stop3756" />
      <stop
         style="stop-color:#e6ac59;stop-opacity:1;"
         offset="1"
         id="stop3758" />
    </linearGradient>
    <linearGradient
       inkscape:collect="always"
       xlink:href="#linearGradient3754"
       id="linearGradient3767"
       gradientUnits="userSpaceOnUse"
       x1="23.673292"
       y1="1046.1796"
       x2="23.673292"
       y2="1004.5619"
       gradientTransform="translate(-0.0416311,0.21835584)" />
    <linearGradient
       id="linearGradient3919">
      <stop
         style="stop-color:#b1731b;stop-opacity:1;"
         offset="0"
         id="stop3921" />
      <stop
         style="stop-color:#e6ac59;stop-opacity:1;"
         offset="1"
         id="stop3923" />
    </linearGradient>
    <linearGradient
       y2="1004.5619"
       x2="23.673292"
       y1="1046.1796"
       x1="23.673292"
       gradientTransform="translate(-0.0416311,0.21835584)"
       gradientUnits="userSpaceOnUse"
       id="linearGradient3928"
       xlink:href="#linearGradient3754"
       inkscape:collect="always" />
    <linearGradient
       id="linearGradient3754-0">
      <stop
         style="stop-color:#b1731b;stop-opacity:1;"
         offset="0"
         id="stop3756-7" />
      <stop
         style="stop-color:#e6ac59;stop-opacity:1;"
         offset="1"
         id="stop3758-3" />
    </linearGradient>
  </defs>
  <sodipodi:namedview
     id="base"
     pagecolor="#ffffff"
     bordercolor="#666666"
     borderopacity="1.0"
     inkscape:pageopacity="0.0"
     inkscape:pageshadow="2"
     inkscape:zoom="7.919596"
     inkscape:cx="38.793139"
     inkscape:cy="29.906795"
     inkscape:document-units="px"
     inkscape:current-layer="layer1"
     showgrid="false"
     fit-margin-top="0"
     fit-margin-left="0"
     fit-margin-right="0"
     fit-margin-bottom="0"
     inkscape:window-width="1366"
     inkscape:window-height="714"
     inkscape:window-x="0"
     inkscape:window-y="30"
     inkscape:window-maximized="1" />
  <metadata
     id="metadata3054">
    <rdf:RDF>
      <cc:Work
         rdf:about="">
        <dc:format>image/svg+xml</dc:format>
        <dc:type
           rdf:resource="http://purl.org/dc/dcmitype/StillImage" />
        <dc:title></dc:title>
      </cc:Work>
    </rdf:RDF>
  </metadata>
  <g
     inkscape:label="Capa 1"
     inkscape:groupmode="layer"
     id="layer1"
     transform="translate(-421.71429,-499.79074)">
    <path
       style="fill:#000000;fill-opacity:1;fill-rule:nonzero;stroke:none"
       d="m 428.39796,508.79063 c -0.29301,0 -0.53125,0.20975 -0.53125,0.46875 l 0,6.5625 c 0,0.033 0.0242,0.0627 0.0312,0.0937 0.007,0.031 0.0178,0.0345 0.0312,0.0625 0.0788,0.1716 0.24625,0.3125 0.46875,0.3125 l 3.75,0 2.6875,0 c 0.29311,0 0.53125,-0.20974 0.53125,-0.46875 l 0,-2.375 0,-1.8125 0,-2.375 c 0,-0.259 -0.23814,-0.46875 -0.53125,-0.46875 l -2.6875,0 L 428.39796,508.79063 Z"
       id="path4080"
       inkscape:connector-curvature="0" />
    <path
       style="fill:#000000;fill-opacity:1;fill-rule:nonzero;stroke:none"
       d="m 440.55421,508.79063 c -0.29301,0 -0.53125,0.20975 -0.53125,0.46875 l 0,6.5625 c 0,0.033 -0.007,0.0627 0,0.0937 0.007,0.031 0.0178,0.0345 0.0312,0.0625 0.0788,0.1716 0.2775,0.3125 0.5,0.3125 l 19.75,0 2.6875,0 c 0.29311,0 0.69808,-0.27063 0.53125,-0.46875 l 0,-2.375 0,-1.8125 0,-2.375 c 0,-0.259 -0.23814,-0.46875 -0.53125,-0.46875 l -2.6875,0 L 440.55421,508.79063 Z"
       id="path4042"
       inkscape:connector-curvature="0" />
    <path
       inkscape:connector-curvature="0"
       id="path4064"
       d="m 428.39796,520.04079 c -0.29301,0 -0.53125,0.20975 -0.53125,0.46875 l 0,6.5625 c 0,0.033 0.0242,0.0627 0.0312,0.0937 0.007,0.031 0.0178,0.0345 0.0312,0.0625 0.0788,0.1716 0.24625,0.3125 0.46875,0.3125 l 3.75,0 2.6875,0 c 0.29311,0 0.53125,-0.20974 0.53125,-0.46875 l 0,-2.375 0,-1.8125 0,-2.375 c 0,-0.259 -0.23814,-0.46875 -0.53125,-0.46875 l -2.6875,0 L 428.39796,520.04079 Z"
       style="fill:#000000;fill-opacity:1;fill-rule:nonzero;stroke:none" />
    <path
       inkscape:connector-curvature="0"
       id="path4066"
       d="m 440.55421,520.04079 c -0.29301,0 -0.53125,0.20975 -0.53125,0.46875 l 0,6.5625 c 0,0.033 -0.007,0.0627 0,0.0937 0.007,0.031 0.0178,0.0345 0.0312,0.0625 0.0788,0.1716 0.2775,0.3125 0.5,0.3125 l 19.75,0 2.6875,0 c 0.29311,0 0.69808,-0.27063 0.53125,-0.46875 l 0,-2.375 0,-1.8125 0,-2.375 c 0,-0.259 -0.23814,-0.46875 -0.53125,-0.46875 l -2.6875,0 L 440.55421,520.04079 Z"
       style="fill:#000000;fill-opacity:1;fill-rule:nonzero;stroke:none" />
    <path
       style="fill:#000000;fill-opacity:1;fill-rule:nonzero;stroke:none"
       d="m 428.39796,531.29095 c -0.29301,0 -0.53125,0.20975 -0.53125,0.46875 l 0,6.5625 c 0,0.033 0.0242,0.0627 0.0312,0.0937 0.007,0.031 0.0178,0.0345 0.0312,0.0625 0.0788,0.1716 0.24625,0.3125 0.46875,0.3125 l 3.75,0 2.6875,0 c 0.29311,0 0.53125,-0.20974 0.53125,-0.46875 l 0,-2.375 0,-1.8125 0,-2.375 c 0,-0.259 -0.23814,-0.46875 -0.53125,-0.46875 l -2.6875,0 L 428.39796,531.29095 Z"
       id="path4068"
       inkscape:connector-curvature="0" />
    <path
       style="fill:#000000;fill-opacity:1;fill-rule:nonzero;stroke:none"
       d="m 440.55421,531.29095 c -0.29301,0 -0.53125,0.20975 -0.53125,0.46875 l 0,6.5625 c 0,0.033 -0.007,0.0627 0,0.0937 0.007,0.031 0.0178,0.0345 0.0312,0.0625 0.0788,0.1716 0.2775,0.3125 0.5,0.3125 l 19.75,0 2.6875,0 c 0.29311,0 0.69808,-0.27063 0.53125,-0.46875 l 0,-2.375 0,-1.8125 0,-2.375 c 0,-0.259 -0.23814,-0.46875 -0.53125,-0.46875 l -2.6875,0 L 440.55421,531.29095 Z"
       id="path4070"
       inkscape:connector-curvature="0" />
  </g>
</svg>
