<svg xmlns="http://www.w3.org/2000/svg" width="48" height="48">
 <g transform="translate(-544.57141,-716.93359)">
  <path transform="translate(544.57141,716.93359)" d="m 9,9 0,4 0,7 4,0 0,-7 7,0 0,-4 -7,0 z m 19,0 0,4 7,0 0,7 4,0 0,-11 z m -19,19 0,11 4,0 7,0 0,-4 -7,0 0,-7 z m 26,0 0,7 -7,0 0,4 11,0 0,-4 0,-7 z" style="fill:#4d4d4d"/>
 </g>
 <rect width="4" height="4" x="-31.5" y="16.5" transform="scale(-1,1)" style="fill:#e74c3c"/>
 <rect y="27.5" x="-31.5" height="4" width="4" transform="scale(-1,1)" style="fill:#e74c3c"/>
 <rect y="22" x="-20.5" height="4" width="4" transform="scale(-1,1)" style="fill:#2980b9"/>
</svg>
