<?xml version="1.0" encoding="UTF-8" standalone="no"?>
<!-- Created with Inkscape (http://www.inkscape.org/) -->

<svg
   xmlns:dc="http://purl.org/dc/elements/1.1/"
   xmlns:cc="http://creativecommons.org/ns#"
   xmlns:rdf="http://www.w3.org/1999/02/22-rdf-syntax-ns#"
   xmlns:svg="http://www.w3.org/2000/svg"
   xmlns="http://www.w3.org/2000/svg"
   xmlns:sodipodi="http://sodipodi.sourceforge.net/DTD/sodipodi-0.dtd"
   xmlns:inkscape="http://www.inkscape.org/namespaces/inkscape"
   width="48"
   height="48"
   id="svg3474"
   version="1.1"
   inkscape:version="0.48+devel r12388"
   sodipodi:docname="zoom-fit-page.svg">
  <defs
     id="defs3476" />
  <sodipodi:namedview
     id="base"
     pagecolor="#ffffff"
     bordercolor="#666666"
     borderopacity="1.0"
     inkscape:pageopacity="0.0"
     inkscape:pageshadow="2"
     inkscape:zoom="7.919596"
     inkscape:cx="19.178061"
     inkscape:cy="30.767803"
     inkscape:document-units="px"
     inkscape:current-layer="layer1"
     showgrid="false"
     fit-margin-top="0"
     fit-margin-left="0"
     fit-margin-right="0"
     fit-margin-bottom="0"
     inkscape:window-width="1366"
     inkscape:window-height="714"
     inkscape:window-x="0"
     inkscape:window-y="30"
     inkscape:window-maximized="1" />
  <metadata
     id="metadata3479">
    <rdf:RDF>
      <cc:Work
         rdf:about="">
        <dc:format>image/svg+xml</dc:format>
        <dc:type
           rdf:resource="http://purl.org/dc/dcmitype/StillImage" />
        <dc:title></dc:title>
      </cc:Work>
    </rdf:RDF>
  </metadata>
  <g
     inkscape:label="Capa 1"
     inkscape:groupmode="layer"
     id="layer1"
     transform="translate(-290.28571,-551.21932)">
    <g
       id="g839"
       transform="matrix(1.5,0,0,1.5,-213.01391,86.57755)">
      <g
         id="text872"
         style="font-size:7.5px;font-style:normal;font-variant:normal;font-weight:bold;font-stretch:normal;line-height:125%;letter-spacing:0px;word-spacing:0px;fill:#ffffff;fill-opacity:1;stroke:none;font-family:Impact;-inkscape-font-specification:Impact Bold" />
    </g>
    <path
       style="fill:#000000;fill-opacity:1;stroke-width:0.2;stroke-linejoin:round"
       d="m 299.28571,560.21932 2.36835,0 0,2.36835 -2.36835,0 L 299.28571,560.21932 Z"
       id="path4105"
       inkscape:connector-curvature="0" />
    <path
       style="fill:#000000;fill-opacity:1;stroke-width:0.2;stroke-linejoin:round"
       d="m 301.65406,567.32452 -2.36835,0 0,-2.36835 2.36835,0 L 301.65406,567.32452 Z"
       id="path4103"
       inkscape:connector-curvature="0" />
    <path
       style="fill:#000000;fill-opacity:1;stroke-width:0.2;stroke-linejoin:round"
       d="m 304.02256,562.58772 0,-2.36835 2.36835,0 0,2.3683 L 304.02256,562.58772 Z"
       id="path4093"
       inkscape:connector-curvature="0" />
    <path
       style="fill:#000000;fill-opacity:1;stroke-width:0.2;stroke-linejoin:round"
       d="m 329.28566,560.21937 5e-5,2.3683 -2.36835,0 -5e-5,-2.3683 L 329.28566,560.21937 Z"
       id="path4091"
       inkscape:connector-curvature="0" />
    <path
       style="fill:#000000;fill-opacity:1;stroke-width:0.2;stroke-linejoin:round"
       d="m 329.28571,567.32452 -2.36835,0 0,-2.36835 2.36835,0 L 329.28571,567.32452 Z"
       id="path4089"
       inkscape:connector-curvature="0" />
    <path
       style="fill:#000000;fill-opacity:1;stroke-width:0.2;stroke-linejoin:round"
       d="m 329.28566,590.21932 -2.36835,0 -2.5e-4,-2.3683 2.36865,-5e-5 L 329.28566,590.21932 Z"
       id="path4085"
       inkscape:connector-curvature="0" />
    <path
       style="fill:#000000;fill-opacity:1;stroke-width:0.2;stroke-linejoin:round"
       d="m 329.28571,585.48247 -2.36835,0 0,-2.36835 2.36835,0 L 329.28571,585.48247 Z"
       id="path4079"
       inkscape:connector-curvature="0" />
    <path
       style="fill:#000000;fill-opacity:1;stroke-width:0.2;stroke-linejoin:round"
       d="m 322.18046,562.58772 0,-2.36835 2.3683,0 0,2.36835 L 322.18046,562.58772 Z"
       id="path4077"
       inkscape:connector-curvature="0" />
    <path
       style="fill:#000000;fill-opacity:1;stroke-width:0.2;stroke-linejoin:round"
       d="m 301.65406,585.48247 -2.36835,0 0,-2.36835 2.3683,0 L 301.65406,585.48247 Z"
       id="path4071"
       inkscape:connector-curvature="0" />
    <path
       style="fill:#000000;fill-opacity:1;stroke-width:0.2;stroke-linejoin:round"
       d="m 301.65401,587.85102 5e-5,2.3683 -2.36835,0 0,-2.36835 L 301.65401,587.85102 Z"
       id="path4069"
       inkscape:connector-curvature="0" />
    <path
       style="fill:#000000;fill-opacity:1;stroke-width:0.2;stroke-linejoin:round"
       d="m 304.02246,590.21932 0,-2.3683 2.36845,0 0,2.3683 L 304.02246,590.21932 Z"
       id="path4063"
       inkscape:connector-curvature="0" />
    <path
       style="fill:#000000;fill-opacity:1;stroke-width:0.2;stroke-linejoin:round"
       d="m 322.18046,590.21932 0,-2.3683 2.3683,0 0,2.3683 L 322.18046,590.21932 Z"
       id="path4061"
       inkscape:connector-curvature="0" />
    <rect
       ry="2.8873527"
       y="-324.28571"
       x="565.21936"
       height="20"
       width="6.9478698"
       id="rect4048"
       style="fill:#000000;fill-opacity:1;stroke:none"
       transform="matrix(0,1,-1,0,0,0)" />
    <rect
       ry="2.8873527"
       y="-324.28571"
       x="578.27148"
       height="20"
       width="6.9478698"
       id="rect4046"
       style="fill:#000000;fill-opacity:1;stroke:none"
       transform="matrix(0,1,-1,0,0,0)" />
  </g>
</svg>
