<?xml version="1.0" standalone="no"?>
<!DOCTYPE svg PUBLIC "-//W3C//DTD SVG 20010904//EN" "http://www.w3.org/TR/2001/REC-SVG-20010904/DTD/svg10.dtd">
<!-- Created using Karbon, part of Calligra: http://www.calligra.org/karbon -->
<svg xmlns="http://www.w3.org/2000/svg" xmlns:xlink="http://www.w3.org/1999/xlink" width="38.4pt" height="38.4pt">
<defs/>
<g id="layer1">
  <rect id="rect3286" transform="translate(9, 9)" fill="none" width="24.00000000000pt" height="24.00000000000pt"/>
  <rect id="rect3308" transform="translate(9, 28)" fill="#4d4d4d" width="3.20000000000pt" height="8.80000000000pt"/>
  <rect id="rect3310" transform="translate(35, 28)" fill="#4d4d4d" width="3.20000000000pt" height="8.80000000000pt"/>
  <rect id="rect3312" transform="translate(9, 9)" fill="#4d4d4d" width="3.20000000000pt" height="8.80000000000pt"/>
  <rect id="rect3314" transform="translate(35, 9)" fill="#4d4d4d" width="3.20000000000pt" height="8.80000000000pt"/>
  <rect id="rect3316" transform="matrix(0 -1 1 0 28 39)" fill="#4d4d4d" width="3.20000000000pt" height="8.80000000000pt"/>
  <rect id="rect3318" transform="matrix(0 -1 1 0 9 13)" fill="#4d4d4d" width="3.20000000000pt" height="8.80000000000pt"/>
  <rect id="rect3320" transform="matrix(0 1 1 0 28 9)" fill="#4d4d4d" width="3.20000000000pt" height="8.80000000000pt"/>
  <rect id="rect3322" transform="matrix(0 1 1 0 9 35)" fill="#4d4d4d" width="3.20000000000pt" height="8.80000000000pt"/>
  <rect id="rect33141" transform="translate(29.6562, 16.3027)" fill="#4d4d4d" width="3.20000000000pt" height="12.80000000000pt"/>
  <rect id="rect33142" transform="translate(18.4466, 16.2223)" fill="#4d4d4d" width="3.20315515540pt" height="6.40631031080pt"/>
  <rect id="rect33201" transform="matrix(0 1 1 0 14.4432 16.2223)" fill="#4d4d4d" width="3.20315515540pt" height="6.40631031080pt"/>
  <rect id="rect33143" transform="matrix(-1 0 0 -1 18.4709 32.2024)" fill="#4d4d4d" width="3.20315515540pt" height="6.40631031080pt"/>
  <rect id="rect33202" transform="matrix(4.44089e-16 -1 -1 -4.44089e-16 22.4743 32.2024)" fill="#4d4d4d" width="3.20315515540pt" height="6.40631031080pt"/>
  <rect id="rect33144" transform="translate(24.0419, 18.9861)" fill="#4d4d4d" width="3.20315515540pt" height="3.20315515540pt"/>
  <rect id="rect33145" transform="translate(24.0363, 25.6523)" fill="#4d4d4d" width="3.20315515540pt" height="3.20315515540pt"/>
 </g>
</svg>
