<svg xmlns="http://www.w3.org/2000/svg" width="48" height="48">
 <g transform="translate(-544.57141,-716.93359)">
  <path d="M 9 9 L 9 13 L 9 20 L 13 20 L 13 13 L 20 13 L 20 9 L 13 9 L 9 9 z M 28 9 L 28 13 L 35 13 L 35 20 L 39 20 L 39 9 L 28 9 z M 26.671875 18.5 L 21.300781 23.871094 L 19.927734 22.5 L 17.099609 25.328125 L 21.271484 29.5 L 21.300781 29.472656 L 21.328125 29.5 L 29.5 21.328125 L 26.671875 18.5 z M 9 28 L 9 39 L 13 39 L 20 39 L 20 35 L 13 35 L 13 28 L 9 28 z M 35 28 L 35 35 L 28 35 L 28 39 L 39 39 L 39 35 L 39 28 L 35 28 z " transform="translate(544.57141,716.93359)" style="fill:#4d4d4d"/>
 </g>
</svg>
