<?xml version="1.0" encoding="UTF-8" standalone="no"?>
<!-- Created with Inkscape (http://www.inkscape.org/) -->

<svg
   xmlns:dc="http://purl.org/dc/elements/1.1/"
   xmlns:cc="http://creativecommons.org/ns#"
   xmlns:rdf="http://www.w3.org/1999/02/22-rdf-syntax-ns#"
   xmlns:svg="http://www.w3.org/2000/svg"
   xmlns="http://www.w3.org/2000/svg"
   xmlns:xlink="http://www.w3.org/1999/xlink"
   xmlns:sodipodi="http://sodipodi.sourceforge.net/DTD/sodipodi-0.dtd"
   xmlns:inkscape="http://www.inkscape.org/namespaces/inkscape"
   width="32"
   height="32"
   viewBox="0 0 32 32.000001"
   id="svg2"
   version="1.1"
   inkscape:version="0.91 r13725"
   sodipodi:docname="go-home.svg">
  <defs
     id="defs4">
    <linearGradient
       inkscape:collect="always"
       id="Shadow">
      <stop
         style="stop-color:#000000;stop-opacity:1;"
         offset="0"
         id="stop4181" />
      <stop
         style="stop-color:#000000;stop-opacity:0;"
         offset="1"
         id="stop4183" />
    </linearGradient>
    <radialGradient
       inkscape:collect="always"
       xlink:href="#Shadow"
       id="radialGradient4576"
       gradientUnits="userSpaceOnUse"
       gradientTransform="matrix(3.1111458e-7,2.6666673,-1.9999997,2.3333583e-7,81.99998,973.69551)"
       cx="28"
       cy="28.5"
       fx="28"
       fy="28.5"
       r="1.5" />
    <radialGradient
       inkscape:collect="always"
       xlink:href="#Shadow"
       id="radialGradient4578"
       gradientUnits="userSpaceOnUse"
       gradientTransform="matrix(-1.9999998,2.4329792e-6,-3.2319946e-6,-2.6666666,8.119531,1131.421)"
       cx="0.55971527"
       cy="31.14706"
       fx="0.55971527"
       fy="31.14706"
       r="1.5" />
    <linearGradient
       inkscape:collect="always"
       xlink:href="#Shadow"
       id="linearGradient4580"
       gradientUnits="userSpaceOnUse"
       gradientTransform="translate(0,1020.3622)"
       x1="16"
       y1="28"
       x2="16"
       y2="32" />
    <linearGradient
       inkscape:collect="always"
       xlink:href="#Shadow"
       id="linearGradient4247"
       x1="9"
       y1="1045.3622"
       x2="9"
       y2="1047.3622"
       gradientUnits="userSpaceOnUse" />
    <radialGradient
       inkscape:collect="always"
       xlink:href="#Shadow"
       id="radialGradient4253"
       cx="16"
       cy="1036.3619"
       fx="16"
       fy="1036.3619"
       r="3"
       gradientUnits="userSpaceOnUse" />
    <radialGradient
       gradientTransform="matrix(0.83333335,0,0,0.83333335,10.166667,182.2265)"
       inkscape:collect="always"
       xlink:href="#Shadow"
       id="radialGradient4253-8"
       cx="16"
       cy="1036.3619"
       fx="16"
       fy="1036.3619"
       r="3"
       gradientUnits="userSpaceOnUse" />
  </defs>
  <sodipodi:namedview
     id="base"
     pagecolor="#ffffff"
     bordercolor="#666666"
     borderopacity="1.0"
     inkscape:pageopacity="0.0"
     inkscape:pageshadow="2"
     inkscape:zoom="36.504388"
     inkscape:cx="19.732694"
     inkscape:cy="11.981517"
     inkscape:document-units="px"
     inkscape:current-layer="layer1"
     showgrid="true"
     inkscape:window-width="2560"
     inkscape:window-height="959"
     inkscape:window-x="0"
     inkscape:window-y="34"
     inkscape:window-maximized="1"
     inkscape:showpageshadow="false"
     borderlayer="true"
     units="px"
     showguides="true"
     inkscape:guide-bbox="true">
    <inkscape:grid
       type="xygrid"
       id="grid4155"
       empspacing="2" />
    <sodipodi:guide
       position="2,30.000018"
       orientation="28,0"
       id="guide4159" />
    <sodipodi:guide
       position="2,2.0000174"
       orientation="0,28"
       id="guide4161" />
    <sodipodi:guide
       position="30,2.0000174"
       orientation="-28,0"
       id="guide4163" />
    <sodipodi:guide
       position="30,30.000018"
       orientation="0,-28"
       id="guide4165" />
    <sodipodi:guide
       position="16,15"
       orientation="1,0"
       id="guide4153" />
  </sodipodi:namedview>
  <metadata
     id="metadata7">
    <rdf:RDF>
      <cc:Work
         rdf:about="">
        <dc:format>image/svg+xml</dc:format>
        <dc:type
           rdf:resource="http://purl.org/dc/dcmitype/StillImage" />
        <dc:title />
      </cc:Work>
    </rdf:RDF>
  </metadata>
  <g
     inkscape:label="Layer 1"
     inkscape:groupmode="layer"
     id="layer1"
     transform="translate(0,-1020.3622)">
    <path
       sodipodi:nodetypes="ccccc"
       inkscape:connector-curvature="0"
       id="path4574"
       d="m 7,1048.3622 0,4 18,0 0,-4 z"
       style="opacity:1;fill:url(#linearGradient4580);fill-opacity:1;stroke:none;stroke-width:2;stroke-linecap:round;stroke-linejoin:round;stroke-miterlimit:4;stroke-dasharray:none;stroke-opacity:0.52777782" />
    <path
       inkscape:connector-curvature="0"
       id="path4572"
       d="m 7,1048.3622 -3,0 0,1 c 0,1.662 1.33799,3 3,3 l 0,-4 z"
       style="opacity:1;fill:url(#radialGradient4578);fill-opacity:1;stroke:none;stroke-width:2;stroke-linecap:round;stroke-linejoin:round;stroke-miterlimit:4;stroke-dasharray:none;stroke-opacity:0.52777782" />
    <path
       inkscape:connector-curvature="0"
       id="path4570"
       d="m 25,1048.3622 0,4 c 1.66201,0 3,-1.338 3,-3 l 0,-1 -3,0 z"
       style="opacity:1;fill:url(#radialGradient4576);fill-opacity:1;stroke:none;stroke-width:2;stroke-linecap:round;stroke-linejoin:round;stroke-miterlimit:4;stroke-dasharray:none;stroke-opacity:0.52777782" />
    <path
       style="opacity:1;fill:#455a64;fill-opacity:1;stroke:none;stroke-width:2;stroke-linecap:round;stroke-linejoin:round;stroke-miterlimit:4;stroke-dasharray:none;stroke-opacity:0.52777782"
       d="M 16,7 4,16 4,28 c 0,1.108 0.8919904,2 2,2 l 20,0 c 1.108009,0 2,-0.892 2,-2 l 0,-12 z"
       transform="translate(0,1020.3622)"
       id="rect4163"
       inkscape:connector-curvature="0"
       sodipodi:nodetypes="ccsssscc" />
    <path
       style="color:#000000;font-style:normal;font-variant:normal;font-weight:normal;font-stretch:normal;font-size:medium;line-height:normal;font-family:sans-serif;text-indent:0;text-align:start;text-decoration:none;text-decoration-line:none;text-decoration-style:solid;text-decoration-color:#000000;letter-spacing:normal;word-spacing:normal;text-transform:none;direction:ltr;block-progression:tb;writing-mode:lr-tb;baseline-shift:baseline;text-anchor:start;white-space:normal;clip-rule:nonzero;display:inline;overflow:visible;visibility:visible;opacity:1;isolation:auto;mix-blend-mode:normal;color-interpolation:sRGB;color-interpolation-filters:linearRGB;solid-color:#000000;solid-opacity:1;fill:#455a64;fill-opacity:1;fill-rule:evenodd;stroke:none;stroke-width:2;stroke-linecap:round;stroke-linejoin:round;stroke-miterlimit:4;stroke-dasharray:none;stroke-dashoffset:0;stroke-opacity:1;color-rendering:auto;image-rendering:auto;shape-rendering:auto;text-rendering:auto;enable-background:accumulate"
       d="M 15.970703 5 A 1.0001 1.0002199 0 0 0 15.951172 5.0019531 A 1.0001 1.0002199 0 0 0 15.902344 5.0058594 A 1.0001 1.0002199 0 0 0 15.851562 5.0117188 A 1.0001 1.0002199 0 0 0 15.802734 5.0195312 A 1.0001 1.0002199 0 0 0 15.757812 5.0292969 A 1.0001 1.0002199 0 0 0 15.675781 5.0546875 A 1.0001 1.0002199 0 0 0 15.583984 5.0917969 A 1.0001 1.0002199 0 0 0 15.523438 5.1210938 A 1.0001 1.0002199 0 0 0 15.46875 5.1542969 A 1.0001 1.0002199 0 0 0 15.433594 5.1777344 A 1.0001 1.0002199 0 0 0 15.390625 5.2070312 A 1.0001 1.0002199 0 0 0 15.369141 5.2226562 L 2.390625 15.208984 A 1.0001 1.0002199 0 0 0 2 16 L 2 17 A 1.0001 1.0002199 0 0 0 3.609375 17.792969 L 16 8.2597656 L 28.390625 17.792969 A 1.0001 1.0002199 0 0 0 30 17 L 30 16 A 1.0001 1.0002199 0 0 0 29.609375 15.208984 L 16.630859 5.2226562 L 16.609375 5.2070312 A 1.0001 1.0002199 0 0 0 16.601562 5.2011719 A 1.0001 1.0002199 0 0 0 16.566406 5.1777344 A 1.0001 1.0002199 0 0 0 16.53125 5.1542969 A 1.0001 1.0002199 0 0 0 16.476562 5.1210938 A 1.0001 1.0002199 0 0 0 16.416016 5.0917969 A 1.0001 1.0002199 0 0 0 16.324219 5.0546875 A 1.0001 1.0002199 0 0 0 16.242188 5.0292969 A 1.0001 1.0002199 0 0 0 16.197266 5.0195312 A 1.0001 1.0002199 0 0 0 16.148438 5.0117188 A 1.0001 1.0002199 0 0 0 16.097656 5.0058594 A 1.0001 1.0002199 0 0 0 16.048828 5.0019531 A 1.0001 1.0002199 0 0 0 16.029297 5 A 1.0001 1.0002199 0 0 0 16 5 A 1.0001 1.0002199 0 0 0 15.970703 5 z "
       transform="translate(0,1020.3622)"
       id="path4164" />
    <path
       style="opacity:1;fill:#f5f5f5;fill-opacity:1;stroke:none;stroke-width:2;stroke-linecap:round;stroke-linejoin:round;stroke-miterlimit:4;stroke-dasharray:none;stroke-opacity:1"
       d="m 27,1037.0622 -11,-8.6 -11,8.6 0,11.3 c 0,0.554 0.4459904,1 1,1 l 20,0 c 0.55401,0 1,-0.446 1,-1 z"
       id="rect4182"
       inkscape:connector-curvature="0"
       sodipodi:nodetypes="cccssssc" />
    <rect
       style="opacity:1;fill:#455a64;fill-opacity:1;stroke:none;stroke-width:2;stroke-linecap:round;stroke-linejoin:round;stroke-miterlimit:4;stroke-dasharray:none;stroke-opacity:1"
       id="rect4194"
       width="6"
       height="7.9999828"
       x="13"
       y="1041.3622"
       ry="1.7382812e-05" />
    <rect
       style="opacity:1;fill:#455a64;fill-opacity:1;stroke:none;stroke-width:2;stroke-linecap:round;stroke-linejoin:round;stroke-miterlimit:4;stroke-dasharray:none;stroke-opacity:1"
       id="rect4196"
       width="8"
       height="2"
       x="12"
       y="1048.3622"
       ry="1.7382799e-05" />
    <rect
       style="opacity:1;fill:#a1887f;fill-opacity:1;stroke:none;stroke-width:2;stroke-linecap:round;stroke-linejoin:round;stroke-miterlimit:4;stroke-dasharray:none;stroke-opacity:1"
       id="rect4198"
       width="4"
       height="6"
       x="14"
       y="1042.3622"
       ry="1.7382799e-05" />
    <circle
       r="2.5000005"
       cy="1045.8622"
       cx="23.500008"
       id="circle4249-5"
       style="opacity:1;fill:url(#radialGradient4253-8);fill-opacity:1;stroke:none;stroke-width:2;stroke-linecap:round;stroke-linejoin:round;stroke-miterlimit:4;stroke-dasharray:none;stroke-opacity:1" />
    <rect
       style="opacity:1;fill:#8d6e63;fill-opacity:1;stroke:none;stroke-width:2;stroke-linecap:round;stroke-linejoin:round;stroke-miterlimit:4;stroke-dasharray:none;stroke-opacity:1"
       id="rect4202"
       width="1"
       height="3.9999826"
       x="23"
       y="1045.3622"
       ry="1.7382799e-05" />
    <circle
       style="opacity:1;fill:#66bb6a;fill-opacity:1;stroke:none;stroke-width:2;stroke-linecap:round;stroke-linejoin:round;stroke-miterlimit:4;stroke-dasharray:none;stroke-opacity:1"
       id="path4206"
       cx="23.500011"
       cy="1044.8622"
       r="2.5000005" />
    <circle
       r="1.5000005"
       cy="1044.8622"
       cx="23.500011"
       id="circle4208"
       style="opacity:1;fill:#81c784;fill-opacity:1;stroke:none;stroke-width:2;stroke-linecap:round;stroke-linejoin:round;stroke-miterlimit:4;stroke-dasharray:none;stroke-opacity:1" />
    <circle
       style="opacity:1;fill:#37474f;fill-opacity:1;stroke:none;stroke-width:2;stroke-linecap:round;stroke-linejoin:round;stroke-miterlimit:4;stroke-dasharray:none;stroke-opacity:1"
       id="path4216"
       cx="14.5"
       cy="1045.8622"
       r="0.5" />
    <rect
       style="opacity:1;fill:#37474f;fill-opacity:1;stroke:none;stroke-width:2;stroke-linecap:round;stroke-linejoin:round;stroke-miterlimit:4;stroke-dasharray:none;stroke-opacity:1"
       id="rect4218"
       width="2"
       height="2"
       x="15"
       y="1043.3622"
       ry="1.7382799e-05" />
    <circle
       r="3"
       cy="1036.3619"
       cx="16"
       id="circle4249"
       style="opacity:1;fill:url(#radialGradient4253);fill-opacity:1;stroke:none;stroke-width:2;stroke-linecap:round;stroke-linejoin:round;stroke-miterlimit:4;stroke-dasharray:none;stroke-opacity:1" />
    <circle
       style="opacity:1;fill:#455a64;fill-opacity:1;stroke:none;stroke-width:2;stroke-linecap:round;stroke-linejoin:round;stroke-miterlimit:4;stroke-dasharray:none;stroke-opacity:1"
       id="path4222"
       cx="16"
       cy="1035.3622"
       r="3" />
    <circle
       r="2"
       cy="1035.3622"
       cx="16"
       id="circle4224"
       style="opacity:1;fill:#81d4fa;fill-opacity:1;stroke:none;stroke-width:2;stroke-linecap:round;stroke-linejoin:round;stroke-miterlimit:4;stroke-dasharray:none;stroke-opacity:1" />
    <rect
       style="opacity:1;fill:#455a64;fill-opacity:1;stroke:none;stroke-width:2;stroke-linecap:round;stroke-linejoin:round;stroke-miterlimit:4;stroke-dasharray:none;stroke-opacity:1"
       id="rect4228"
       width="4"
       height="4.9999828"
       x="7"
       y="1041.3622"
       ry="1.7382799e-05" />
    <rect
       style="opacity:1;fill:#81d4fa;fill-opacity:1;stroke:none;stroke-width:2;stroke-linecap:round;stroke-linejoin:round;stroke-miterlimit:4;stroke-dasharray:none;stroke-opacity:1"
       id="rect4233"
       width="2"
       height="2.9999826"
       x="8"
       y="1042.3622"
       ry="1.7382799e-05" />
    <rect
       style="opacity:1;fill:#455a64;fill-opacity:1;stroke:none;stroke-width:2;stroke-linecap:round;stroke-linejoin:round;stroke-miterlimit:4;stroke-dasharray:none;stroke-opacity:1"
       id="rect4237"
       width="6"
       height="0.9999826"
       x="6"
       y="1045.3622"
       ry="1.7382799e-05" />
    <rect
       style="opacity:1;fill:url(#linearGradient4247);fill-opacity:1;stroke:none;stroke-width:2;stroke-linecap:round;stroke-linejoin:round;stroke-miterlimit:4;stroke-dasharray:none;stroke-opacity:1"
       id="rect4239"
       width="6"
       height="1"
       x="6"
       y="1046.3622"
       ry="1.7382799e-05" />
  </g>
</svg>
