<svg xmlns="http://www.w3.org/2000/svg" width="48" height="48">
 <g>
  <rect y="7" x="4" height="10" width="18" style="fill:#34495d"/>
  <rect width="40" height="30" x="4" y="9" style="fill:#34495d"/>
  <rect y="13" x="2" height="28" width="44" style="fill:#1abc9c"/>
  <path d="m 13.999998,16.999987 0,20 20,0 0,-20 z m 1,2 2,0 0,2 -2,0 z m 16,0 2,0 0,2 -2,0 z m -12,1 10,0 0,6 -10,0 z m -4,6 2,0 0,2 -2,0 z m 16,0 2,0 0,2 -2,0 z m -12,2 10,0 0,6 -10,0 z m -4,5 2,0 0,2 -2,0 z m 16,0 2,0 0,2 -2,0 z" style="fill:#304050" fill-rule="evenodd"/>
 </g>
</svg>
