<svg xmlns="http://www.w3.org/2000/svg" width="48" height="48">
 <g>
  <rect y="7" x="4" height="10" width="18" style="fill:#34495d"/>
  <rect width="40" height="30" x="4" y="9" style="fill:#34495d"/>
  <rect y="13" x="2" height="28" width="44" style="fill:#1abc9c"/>
  <path d="m 23.996092,16.999987 c -2.618175,1.55e-4 -5.220352,1.078467 -7.070312,2.929688 -1.849961,1.85122 -2.925782,4.452529 -2.925782,7.070312 0,2.617783 1.075821,5.219093 2.925782,7.070313 1.849961,1.851221 4.452137,2.929532 7.070312,2.929687 2.618174,1.55e-4 5.219945,-1.078457 7.072266,-2.929687 1.852322,-1.851229 2.93164,-4.452238 2.93164,-7.070313 0,-2.618075 -1.079318,-5.219083 -2.93164,-7.070312 -1.852321,-1.85123 -4.454092,-2.929843 -7.072266,-2.929688 z m 0,2 c 4.189079,-2.48e-4 8.003906,3.81108 8.003906,8 0,4.18892 -3.814827,8.000248 -8.003906,8 -4.18908,-2.48e-4 -7.996094,-3.811547 -7.996094,-8 0,-4.188453 3.807014,-7.999752 7.996094,-8 z m -1.996094,2 0,5 -4,0 6,7 6,-7 -4,0 0,-5 -4,0 z" style="fill:#304050"/>
 </g>
</svg>
