<svg xmlns="http://www.w3.org/2000/svg" width="48" height="48">
 <g>
  <rect y="7" x="4" height="10" width="18" style="fill:#34495d"/>
  <rect width="40" height="30" x="4" y="9" style="fill:#34495d"/>
  <rect y="13" x="2" height="28" width="44" style="fill:#1abc9c"/>
  <path d="m 18.999998,16.999987 0,4 0,9.392578 c -0.465079,-0.241181 -0.973566,-0.392607 -1.501953,-0.392578 -1.832722,10e-5 -3.498047,1.6675 -3.498047,3.5 0,1.8324 1.665325,3.4999 3.498047,3.5 1.832723,1e-4 3.501953,-1.6674 3.501953,-3.5 l 0,-12.5 11,0 0,9.392578 c -0.465079,-0.241181 -0.973566,-0.392607 -1.501953,-0.392578 -1.832722,10e-5 -3.498047,1.6675 -3.498047,3.5 0,1.8324 1.665325,3.4999 3.498047,3.5 1.832723,1e-4 3.501953,-1.6674 3.501953,-3.5 l 0,-12.5 0,-4 -15,0 z" style="fill:#304050" fill-rule="evenodd"/>
 </g>
</svg>
