<svg xmlns="http://www.w3.org/2000/svg" width="48" height="48">
 <g>
  <rect y="7" x="4" height="10" width="18" style="fill:#34495d"/>
  <rect width="40" height="30" x="4" y="9" style="fill:#34495d"/>
  <rect y="13" x="2" height="28" width="44" style="fill:#1abc9c"/>
  <path d="m 23.994138,17 -1.414062,1.414062 0.0059,0.0059 -8.585937,8.585938 1.414062,1.414062 8.585938,-8.585937 8.585937,8.585937 1.414063,-1.414062 -2.00586,-2.005859 0.0059,0 0,-8 -2,0 0,6.005859 -4.585938,-4.585938 0.0059,-0.0059 L 24.005978,17 24.000078,17.0059 23.994178,17 Z m -7.99414,13 0,7 2,0 14,0 0,-2 0,-5 -2,0 0,5 -12,0 0,-5 z" style="fill:#304050" fill-rule="evenodd"/>
 </g>
</svg>
