<svg xmlns="http://www.w3.org/2000/svg" width="16" height="16">
 <path d="m 8.003936,0.06383115 c -4.3944577,0 -7.9322335,3.54333705 -7.9322335,7.94470155 0,4.4013643 3.5377758,7.9447013 7.9322335,7.9447013 4.394457,0 7.932233,-3.543337 7.932233,-7.9447013 0,-4.4013645 -3.537776,-7.94470155 -7.932233,-7.94470155 z m 0,2.11858695 c 3.222601,0 5.816971,2.5984473 5.816971,5.8261146 0,3.2276673 -2.59437,5.8261143 -5.816971,5.8261143 -3.2226024,0 -5.8169713,-2.598447 -5.8169713,-5.8261143 0,-3.2276673 2.5943689,-5.8261146 5.8169713,-5.8261146 z" opacity="0.5" style="fill:#bebebe"/>
 <path d="M 0.15625 9 C 0.64448536 12.925757 3.9439476 15.96875 8 15.96875 C 12.0563 15.96875 15.387082 12.926108 15.875 9 L 13.75 9 C 13.281275 11.750443 10.883786 13.84375 8 13.84375 C 5.116533 13.84375 2.7503478 11.749988 2.28125 9 L 0.15625 9 z " style="fill:#bebebe" fill-rule="evenodd" color="#000000"/>
 <g transform="translate(0,-0.2282149)">
  <g>
   <rect width="4" height="2.978" x="6" y="7" style="fill:#bebebe" fill-rule="evenodd" color="#000000"/>
   <rect y="-7" x="6.324" height="1.536" width="0.708" transform="scale(1,-1)" style="fill:#bebebe" fill-rule="evenodd" color="#000000"/>
   <rect transform="scale(1,-1)" width="0.708" height="1.536" x="8.973" y="-7" style="fill:#bebebe" fill-rule="evenodd" color="#000000"/>
   <rect y="-10.992" x="6.299" height="1.037" width="3.402" transform="scale(1,-1)" style="fill:#bebebe" fill-rule="evenodd" color="#000000"/>
  </g>
 </g>
</svg>
