<svg xmlns="http://www.w3.org/2000/svg" width="16" height="16">
 <path d="m 8.003936,0.06383115 c -4.3944577,0 -7.9322335,3.54333705 -7.9322335,7.94470155 0,4.4013643 3.5377758,7.9447013 7.9322335,7.9447013 4.394457,0 7.932233,-3.543337 7.932233,-7.9447013 0,-4.4013645 -3.537776,-7.94470155 -7.932233,-7.94470155 z m 0,2.11858695 c 3.222601,0 5.816971,2.5984473 5.816971,5.8261146 0,3.2276673 -2.59437,5.8261143 -5.816971,5.8261143 -3.2226024,0 -5.8169713,-2.598447 -5.8169713,-5.8261143 0,-3.2276673 2.5943689,-5.8261146 5.8169713,-5.8261146 z" opacity="0.5" style="fill:#bebebe"/>
 <path d="M 0.65625 5 C 0.2793212 5.9271546 0.0625 6.9340445 0.0625 8 C 0.0625 12.401364 3.6055423 15.96875 8 15.96875 C 12.394457 15.96875 15.9375 12.401364 15.9375 8 C 15.9375 6.9335735 15.720995 5.9274861 15.34375 5 L 13 5 C 13.526244 5.8767212 13.8125 6.8984003 13.8125 8 C 13.8125 11.227667 11.222601 13.84375 8 13.84375 C 4.7773976 13.84375 2.1875 11.227667 2.1875 8 C 2.1875 6.8951447 2.5021232 5.878413 3.03125 5 L 0.65625 5 z " style="fill:#bebebe" fill-rule="evenodd" color="#000000"/>
 <g transform="translate(0,-0.2282149)">
  <g>
   <rect width="4" height="2.978" x="6" y="7" style="fill:#bebebe" fill-rule="evenodd" color="#000000"/>
   <rect y="-7" x="6.324" height="1.536" width="0.708" transform="scale(1,-1)" style="fill:#bebebe" fill-rule="evenodd" color="#000000"/>
   <rect transform="scale(1,-1)" width="0.708" height="1.536" x="8.973" y="-7" style="fill:#bebebe" fill-rule="evenodd" color="#000000"/>
   <rect y="-10.992" x="6.299" height="1.037" width="3.402" transform="scale(1,-1)" style="fill:#bebebe" fill-rule="evenodd" color="#000000"/>
  </g>
 </g>
</svg>
