<svg xmlns="http://www.w3.org/2000/svg" width="16" height="16">
 <path d="m 8.0039357,0.06383115 c -4.3944574,0 -7.93223324,3.54333705 -7.93223324,7.94470155 0,4.4013643 3.53777584,7.9447013 7.93223324,7.9447013 4.3944573,0 7.9322333,-3.543337 7.9322333,-7.9447013 0,-4.4013645 -3.537776,-7.94470155 -7.9322333,-7.94470155 z m 0,2.11858695 c 3.2226013,0 5.8169713,2.5984473 5.8169713,5.8261146 0,3.2276673 -2.59437,5.8261143 -5.8169713,5.8261143 -3.2226021,0 -5.816971,-2.598447 -5.816971,-5.8261143 0,-3.2276673 2.5943689,-5.8261146 5.816971,-5.8261146 z" style="fill:#bebebe"/>
 <g transform="translate(0,-0.2282149)" opacity="0.5">
  <g>
   <rect width="4" height="2.978" x="6" y="7" style="fill:#bebebe" fill-rule="evenodd" color="#000000"/>
   <rect y="-7" x="6.324" height="1.536" width="0.708" transform="scale(1,-1)" style="fill:#bebebe" fill-rule="evenodd" color="#000000"/>
   <rect transform="scale(1,-1)" width="0.708" height="1.536" x="8.973" y="-7" style="fill:#bebebe" fill-rule="evenodd" color="#000000"/>
   <rect y="-10.992" x="6.299" height="1.037" width="3.402" transform="scale(1,-1)" style="fill:#bebebe" fill-rule="evenodd" color="#000000"/>
  </g>
 </g>
</svg>
