<svg xmlns="http://www.w3.org/2000/svg" width="16" height="16">
 <path d="m 8.003936,0.06383115 c -4.3944577,0 -7.9322335,3.54333705 -7.9322335,7.94470155 0,4.4013643 3.5377758,7.9447013 7.9322335,7.9447013 4.394457,0 7.932233,-3.543337 7.932233,-7.9447013 0,-4.4013645 -3.537776,-7.94470155 -7.932233,-7.94470155 z m 0,2.11858695 c 3.222601,0 5.816971,2.5984473 5.816971,5.8261146 0,3.2276673 -2.59437,5.8261143 -5.816971,5.8261143 -3.2226024,0 -5.8169713,-2.598447 -5.8169713,-5.8261143 0,-3.2276673 2.5943689,-5.8261146 5.8169713,-5.8261146 z" opacity="0.5" style="fill:#bebebe"/>
 <path d="M 1.84375 13 C 3.2956682 14.796073 5.5024766 15.96875 8 15.96875 C 10.503753 15.96875 12.735809 14.803809 14.1875 13 L 11 13 C 10.124655 13.527071 9.0998706 13.84375 8 13.84375 C 6.900129 13.84375 5.8753453 13.527071 5 13 L 1.84375 13 z " style="fill:#cc0000" fill-rule="evenodd" color="#000000"/>
 <rect width="2.169" height="5.952" x="6.915" y="3.399" style="fill:#cc0000" fill-rule="evenodd" color="#000000"/>
 <rect y="10.234" x="6.915" height="1.707" width="2.169" style="fill:#cc0000" fill-rule="evenodd" color="#000000"/>
</svg>
