<svg xmlns="http://www.w3.org/2000/svg" width="16" height="16">
 <path d="m 8.0039357,0.06383115 c -4.3944574,0 -7.93223324,3.54333705 -7.93223324,7.94470155 0,4.4013643 3.53777584,7.9447013 7.93223324,7.9447013 4.3944573,0 7.9322333,-3.543337 7.9322333,-7.9447013 0,-4.4013645 -3.537776,-7.94470155 -7.9322333,-7.94470155 z m 0,2.11858695 c 3.2226013,0 5.8169713,2.5984473 5.8169713,5.8261146 0,3.2276673 -2.59437,5.8261143 -5.8169713,5.8261143 -3.2226021,0 -5.816971,-2.598447 -5.816971,-5.8261143 0,-3.2276673 2.5943689,-5.8261146 5.816971,-5.8261146 z m 0,1.5889405 -2.1152622,5.2964676 2.1152622,0 0,3.7075278 2.1152623,-5.2964681 -2.1152623,0 0,-3.7075273 z" style="fill:#bebeb0"/>
</svg>
