<svg xmlns="http://www.w3.org/2000/svg" width="16" height="16">
 <g transform="translate(0,-1036.3622)">
  <path d="m 3.8314531,1042.9004 c -1.5595971,1.5596 -1.5595971,4.0707 0,5.6303 1.5595964,1.5597 4.0707167,1.5597 5.6303133,0 l 2.6274796,-2.6274 c 1.559597,-1.5596 1.559597,-4.0707 0,-5.6304 -1.559597,-1.5595 -4.0707164,-1.5595 -5.6303135,0 l -2.6274794,2.6275 z m 1.5006837,1.5696 2.6963927,-2.6963 c 0.7089076,-0.7089 1.850392,-0.7082 2.5593005,0 0.708908,0.7088 0.708907,1.8496 0,2.5586 l -2.696393,2.6963 c -0.7089079,0.7089 -1.8496589,0.7089 -2.558567,0 -0.7089078,-0.7089 -0.709641,-1.8504 -7.338e-4,-2.5593 z" style="fill:#bebebd" fill-rule="evenodd"/>
  <rect width="2.123" height="6.135" x="743.07" y="-743.07" transform="matrix(0.70710678,0.70710678,0.70710678,-0.70710678,0,0)" style="fill:#bebebd" fill-rule="evenodd" rx="0"/>
  <rect transform="matrix(0.70710678,0.70710678,0.70710678,-0.70710678,0,0)" y="-728.81" x="743.07" height="6.135" width="2.123" style="fill:#bebebd" fill-rule="evenodd" rx="0"/>
 </g>
</svg>
