<?xml version="1.0" encoding="UTF-8" standalone="no"?>
<!-- Created with Inkscape (http://www.inkscape.org/) -->

<svg
   xmlns:dc="http://purl.org/dc/elements/1.1/"
   xmlns:cc="http://creativecommons.org/ns#"
   xmlns:rdf="http://www.w3.org/1999/02/22-rdf-syntax-ns#"
   xmlns:svg="http://www.w3.org/2000/svg"
   xmlns="http://www.w3.org/2000/svg"
   xmlns:xlink="http://www.w3.org/1999/xlink"
   xmlns:sodipodi="http://sodipodi.sourceforge.net/DTD/sodipodi-0.dtd"
   xmlns:inkscape="http://www.inkscape.org/namespaces/inkscape"
   width="32"
   height="32"
   id="svg4359"
   version="1.1"
   inkscape:version="0.91 r13725"
   sodipodi:docname="emblem-symbolic-link.svg"
   viewBox="0 0 32 32">
  <defs
     id="defs4361">
    <linearGradient
       inkscape:collect="always"
       id="linearGradient4157">
      <stop
         style="stop-color:#000000;stop-opacity:1;"
         offset="0"
         id="stop4159" />
      <stop
         style="stop-color:#000000;stop-opacity:0;"
         offset="1"
         id="stop4161" />
    </linearGradient>
    <radialGradient
       inkscape:collect="always"
       xlink:href="#linearGradient4157"
       id="radialGradient4163"
       cx="11"
       cy="39"
       fx="11"
       fy="39"
       r="8"
       gradientUnits="userSpaceOnUse"
       gradientTransform="matrix(1.625,0,0,1.625,-6.875,-24.375)" />
  </defs>
  <sodipodi:namedview
     id="base"
     pagecolor="#ffffff"
     bordercolor="#666666"
     borderopacity="1.0"
     inkscape:pageopacity="0.0"
     inkscape:pageshadow="2"
     inkscape:zoom="26.375"
     inkscape:cx="16"
     inkscape:cy="16"
     inkscape:current-layer="layer1"
     showgrid="true"
     inkscape:grid-bbox="true"
     inkscape:document-units="px"
     inkscape:window-width="2560"
     inkscape:window-height="1015"
     inkscape:window-x="0"
     inkscape:window-y="0"
     inkscape:window-maximized="1"
     inkscape:showpageshadow="false"
     borderlayer="true"
     showguides="true"
     fit-margin-top="0"
     fit-margin-left="0"
     fit-margin-right="0"
     fit-margin-bottom="0">
    <inkscape:grid
       type="xygrid"
       id="grid4105"
       originx="5"
       originy="5" />
  </sodipodi:namedview>
  <metadata
     id="metadata4364">
    <rdf:RDF>
      <cc:Work
         rdf:about="">
        <dc:format>image/svg+xml</dc:format>
        <dc:type
           rdf:resource="http://purl.org/dc/dcmitype/StillImage" />
        <dc:title />
      </cc:Work>
    </rdf:RDF>
  </metadata>
  <g
     id="layer1"
     inkscape:label="Layer 1"
     inkscape:groupmode="layer"
     transform="translate(5,-21)">
    <circle
       r="13"
       cy="39"
       cx="11"
       id="circle4155"
       style="opacity:1;fill:url(#radialGradient4163);fill-opacity:1;stroke:none;stroke-width:2;stroke-linecap:butt;stroke-linejoin:round;stroke-miterlimit:4;stroke-dasharray:none;stroke-opacity:1" />
    <circle
       style="opacity:1;fill:#455a64;fill-opacity:1;stroke:none;stroke-width:2;stroke-linecap:butt;stroke-linejoin:round;stroke-miterlimit:4;stroke-dasharray:none;stroke-opacity:1"
       id="path4151"
       cx="11"
       cy="37"
       r="13" />
    <path
       style="opacity:1;fill:#cfd8dc;fill-opacity:1;stroke:none;stroke-width:2;stroke-linecap:butt;stroke-linejoin:round;stroke-miterlimit:4;stroke-dasharray:none;stroke-opacity:1"
       d="m 4,34 c -0.554,0 -1,0.446 -1,1 l 0,4 c 0,0.554 0.446,1 1,1 l 5,0 c 0.554,0 1,-0.446 1,-1 l 0,-1 2,0 0,1 c 0,0.554 0.446,1 1,1 l 5,0 c 0.554,0 1,-0.446 1,-1 l 0,-4 c 0,-0.554 -0.446,-1 -1,-1 l -5,0 c -0.554,0 -1,0.446 -1,1 l 0,1 -2,0 0,-1 C 10,34.446 9.554,34 9,34 l -5,0 z m 0,1 5,0 0,4 -5,0 0,-4 z m 9,0 5,0 0,4 -5,0 0,-4 z"
       id="rect4165"
       inkscape:connector-curvature="0" />
  </g>
</svg>
