<?xml version="1.0" encoding="UTF-8" standalone="no"?>
<!-- Created with Inkscape (http://www.inkscape.org/) -->

<svg
   xmlns:dc="http://purl.org/dc/elements/1.1/"
   xmlns:cc="http://creativecommons.org/ns#"
   xmlns:rdf="http://www.w3.org/1999/02/22-rdf-syntax-ns#"
   xmlns:svg="http://www.w3.org/2000/svg"
   xmlns="http://www.w3.org/2000/svg"
   xmlns:sodipodi="http://sodipodi.sourceforge.net/DTD/sodipodi-0.dtd"
   xmlns:inkscape="http://www.inkscape.org/namespaces/inkscape"
   width="22"
   height="22"
   viewBox="0 0 22 22"
   id="svg2"
   version="1.1"
   inkscape:version="0.92.3 (unknown)"
   sodipodi:docname="applications-internet.svg">
  <defs
     id="defs3051">
    <style
       type="text/css"
       id="current-color-scheme">
    .ColorScheme-Text {
    color:#4d4d4d;
    }
    </style>
  </defs>
  <sodipodi:namedview
     id="base"
     pagecolor="#ffffff"
     bordercolor="#666666"
     borderopacity="1.0"
     inkscape:pageopacity="0.0"
     inkscape:pageshadow="2"
     inkscape:zoom="45.254834"
     inkscape:cx="11.079657"
     inkscape:cy="8.8176253"
     inkscape:document-units="px"
     inkscape:current-layer="layer1"
     showgrid="true"
     units="px"
     inkscape:showpageshadow="false"
     borderlayer="true"
     showguides="true"
     inkscape:guide-bbox="true"
     inkscape:window-width="2560"
     inkscape:window-height="1384"
     inkscape:window-x="0"
     inkscape:window-y="32"
     inkscape:window-maximized="1">
    <inkscape:grid
       type="xygrid"
       id="grid4136"
       empspacing="2" />
    <sodipodi:guide
       position="0,20"
       orientation="0,1"
       id="guide4140"
       inkscape:label="Icon Max Height"
       inkscape:color="rgb(233,30,99)"
       inkscape:locked="false" />
    <sodipodi:guide
       position="0,2"
       orientation="0,1"
       id="guide4142"
       inkscape:label="Icon Baseline"
       inkscape:color="rgb(233,30,99)"
       inkscape:locked="false" />
    <sodipodi:guide
       position="11,0"
       orientation="1,0"
       id="guide4144"
       inkscape:label="Center Vertical"
       inkscape:color="rgb(221,44,0)"
       inkscape:locked="false" />
    <sodipodi:guide
       position="15,11"
       orientation="0,1"
       id="guide4146"
       inkscape:label="Center Horizontal"
       inkscape:color="rgb(221,44,0)"
       inkscape:locked="false" />
  </sodipodi:namedview>
  <metadata
     id="metadata7">
    <rdf:RDF>
      <cc:Work
         rdf:about="">
        <dc:format>image/svg+xml</dc:format>
        <dc:type
           rdf:resource="http://purl.org/dc/dcmitype/StillImage" />
        <dc:title />
      </cc:Work>
    </rdf:RDF>
  </metadata>
  <g
     inkscape:label="Capa 1"
     inkscape:groupmode="layer"
     id="layer1"
     transform="translate(0,-1030.3622)">
    <path
       style="fill:currentColor;fill-opacity:1;stroke:none" class="ColorScheme-Text"
       d="m 11,1032.3622 a 8.9999992,8.9999992 0 0 0 -9.0000005,9 8.9999992,8.9999992 0 0 0 9.0000005,9 8.9999992,8.9999992 0 0 0 9,-9 8.9999992,8.9999992 0 0 0 -9,-9 z m -0.08013,2 a 6.9999998,6.9999998 0 0 1 0.08013,0 6.9999998,6.9999998 0 0 1 6.999987,7 6.9999998,6.9999998 0 0 1 -1.71292,4.5801 l -0.933581,-0.9336 A 0.50004996,0.50004996 0 0 0 15.0001,1044.862 h -0.999987 a 0.50004996,0.50004996 0 0 0 -0.500032,0.5 v 0.6915 l -1.617184,0.8086 h -1.574211 l -0.5019964,-1.002 -1.9881828,0.4961 c -1.0522205,0.2585 -2.0749985,-0.7642 -1.8164032,-1.8164 a 1.0001,1.0001 0 0 1 0,-0.011 l 1.4042079,-5.5957 c 0,-0.011 0,-0.015 0.011339,-0.023 0,-0.019 0.011339,-0.039 0.015118,-0.059 0,-0.015 0,-0.03 0.011339,-0.047 a 1.0001,1.0001 0 0 1 0.058961,-0.1542 c 7.937e-4,0 -7.937e-4,-0.011 0,-0.011 a 1.0001,1.0001 0 0 1 0.030236,-0.059 1.0001,1.0001 0 0 1 0.011339,-0.011 c 0,-0.011 0,-0.015 0.011339,-0.023 a 1.0001,1.0001 0 0 1 0,-0.011 c 0,-0.011 0.011339,-0.015 0.015118,-0.023 a 1.0001,1.0001 0 0 1 0.015118,-0.03 c 0.011339,-0.015 0.022677,-0.03 0.030236,-0.045 0.011338,-0.011 0.011338,-0.026 0.015118,-0.038 a 1.0001,1.0001 0 0 1 0.044976,-0.051 1.0001,1.0001 0 0 1 0.068032,-0.096 1.0001,1.0001 0 0 1 0.049134,-0.061 c 0,0 0.011339,-0.011 0.015118,-0.015 0.011339,-0.011 0.018898,-0.019 0.030236,-0.03 0.011339,-0.011 0.026457,-0.026 0.037795,-0.038 a 1.0001,1.0001 0 0 1 0.011339,0 1.0001,1.0001 0 0 1 0,-0.011 c 0.011339,-0.011 0.026457,-0.019 0.037795,-0.03 a 1.0001,1.0001 0 0 1 0.044976,-0.038 c 0.011338,-0.011 0.022677,-0.011 0.030236,-0.015 a 1.0001,1.0001 0 0 1 0.103559,-0.072 c 0.011339,0 0.015118,0 0.022677,-0.011 a 1.0001,1.0001 0 0 1 0.022677,-0.015 h 0.011338 v -0.011 a 1.0001,1.0001 0 0 1 0.030236,-0.015 1.0001,1.0001 0 0 1 0.1387086,-0.064 c 0,0 0.011339,-0.011 0.015118,-0.011 0.011339,0 0.015118,-0.011 0.022677,-0.011 0.015118,-0.011 0.026457,-0.011 0.043087,-0.015 a 1.0001,1.0001 0 0 1 0.011339,-0.011 c 0.030236,-0.011 0.060094,-0.019 0.089953,-0.026 a 1.0001,1.0001 0 0 1 0.011339,0 h 0.015118 a 1.0001,1.0001 0 0 1 0.030236,-0.011 l 0.037795,-0.011 5.0565929,-1.2675 -0.185575,-0.3712 a 0.50004996,0.50004996 0 0 0 -0.466393,-0.2438 h -1.999975 a 0.50004996,0.50004996 0 0 0 -0.158362,0.026 l -2.707012,0.9023 -1.1504126,-1.1504 a 6.9999998,6.9999998 0 0 1 3.9355096,-1.2773 z m 3.624983,2.9609 v 0 a 0.50005,0.50005 0 0 0 -0.134928,0.015 l -5.6269235,1.4102 a 0.50005,0.50005 0 0 0 -0.011339,0 h -0.015114 a 0.50005,0.50005 0 0 0 -0.030236,0.011 0.50005,0.50005 0 0 0 -0.015118,0 0.50005,0.50005 0 0 0 -0.030236,0.011 0.50005,0.50005 0 0 0 -0.015118,0.011 0.50005,0.50005 0 0 0 -0.030236,0.019 0.50005,0.50005 0 0 0 -0.026457,0.015 0.50005,0.50005 0 0 0 -0.015118,0 0.50005,0.50005 0 0 0 -0.011339,0.011 0.50005,0.50005 0 0 0 -0.030236,0.023 0.50005,0.50005 0 0 0 -0.011339,0.011 0.50005,0.50005 0 0 0 -0.026457,0.023 0.50005,0.50005 0 0 0 -0.011339,0.015 0.50005,0.50005 0 0 0 -0.018898,0.03 0.50005,0.50005 0 0 0 -0.011339,0.011 0.50005,0.50005 0 0 0 -0.015118,0.026 0.50005,0.50005 0 0 0 -0.018898,0.043 0.50005,0.50005 0 0 0 0,0.011 0.50005,0.50005 0 0 0 0,0.015 0.50005,0.50005 0 0 0 -0.018898,0.026 0.50005,0.50005 0 0 0 0,0.015 0.50005,0.50005 0 0 0 -0.011339,0.043 0.50005,0.50005 0 0 0 -0.011338,0.053 l -1.4043192,5.6016 a 0.50005,0.50005 0 0 0 0.6054048,0.6035 l 5.6581789,-1.4101 a 0.50005,0.50005 0 0 0 0.365481,-0.3651 l 1.408176,-5.6563 a 0.50005,0.50005 0 0 0 -0.150425,-0.4961 h -0.01134 a 0.50005,0.50005 0 0 0 -0.318235,-0.1251 z m -3.54497,3.0391 a 0.99999995,0.99999995 0 0 1 0.999987,1 0.99999995,0.99999995 0 0 1 -0.999987,1 0.99999995,0.99999995 0 0 1 -1.0000248,-1 0.99999995,0.99999995 0 0 1 1.0000248,-1 z"
       id="path18897-0-52-9"
       inkscape:connector-curvature="0" />
  </g>
</svg>
