<?xml version="1.0" encoding="UTF-8" standalone="no"?>
<!-- Created with Inkscape (http://www.inkscape.org/) -->

<svg
   xmlns:dc="http://purl.org/dc/elements/1.1/"
   xmlns:cc="http://creativecommons.org/ns#"
   xmlns:rdf="http://www.w3.org/1999/02/22-rdf-syntax-ns#"
   xmlns:svg="http://www.w3.org/2000/svg"
   xmlns="http://www.w3.org/2000/svg"
   xmlns:sodipodi="http://sodipodi.sourceforge.net/DTD/sodipodi-0.dtd"
   xmlns:inkscape="http://www.inkscape.org/namespaces/inkscape"
   width="22"
   height="22"
   viewBox="0 0 22 22"
   id="svg2"
   version="1.1"
   inkscape:version="0.92.3 (unknown)"
   sodipodi:docname="applications-education-mathematics.svg">
  <defs
     id="defs3051">
    <style
       type="text/css"
       id="current-color-scheme">
    .ColorScheme-Text {
    color:#4d4d4d;
    }
    </style>
  </defs>
  <sodipodi:namedview
     id="base"
     pagecolor="#ffffff"
     bordercolor="#666666"
     borderopacity="1.0"
     inkscape:pageopacity="0.0"
     inkscape:pageshadow="2"
     inkscape:zoom="45.254834"
     inkscape:cx="12.239754"
     inkscape:cy="9.8782855"
     inkscape:document-units="px"
     inkscape:current-layer="layer1"
     showgrid="true"
     units="px"
     inkscape:showpageshadow="false"
     borderlayer="true"
     showguides="true"
     inkscape:guide-bbox="true"
     inkscape:window-width="2560"
     inkscape:window-height="1384"
     inkscape:window-x="0"
     inkscape:window-y="32"
     inkscape:window-maximized="1">
    <inkscape:grid
       type="xygrid"
       id="grid4136"
       empspacing="2" />
    <sodipodi:guide
       position="0,20"
       orientation="0,1"
       id="guide4140"
       inkscape:label="Icon Max Height"
       inkscape:color="rgb(233,30,99)"
       inkscape:locked="false" />
    <sodipodi:guide
       position="0,2"
       orientation="0,1"
       id="guide4142"
       inkscape:label="Icon Baseline"
       inkscape:color="rgb(233,30,99)"
       inkscape:locked="false" />
    <sodipodi:guide
       position="11,0"
       orientation="1,0"
       id="guide4144"
       inkscape:label="Center Vertical"
       inkscape:color="rgb(221,44,0)"
       inkscape:locked="false" />
    <sodipodi:guide
       position="15,11"
       orientation="0,1"
       id="guide4146"
       inkscape:label="Center Horizontal"
       inkscape:color="rgb(221,44,0)"
       inkscape:locked="false" />
  </sodipodi:namedview>
  <metadata
     id="metadata7">
    <rdf:RDF>
      <cc:Work
         rdf:about="">
        <dc:format>image/svg+xml</dc:format>
        <dc:type
           rdf:resource="http://purl.org/dc/dcmitype/StillImage" />
        <dc:title />
      </cc:Work>
    </rdf:RDF>
  </metadata>
  <g
     inkscape:label="Capa 1"
     inkscape:groupmode="layer"
     id="layer1"
     transform="translate(0,-1030.3622)">
    <path
       style="fill:currentColor;fill-opacity:1;stroke:none" class="ColorScheme-Text"
       d="M 5 2 C 3.8919937 2 3 2.892 3 4 L 3 12 C 2.4459969 12 2 12.446 2 13 L 2 16 C 2 16.5541 2.4459969 17 3 17 L 3 18 C 3 19.108 3.8919937 20 5 20 L 17 20 C 18.108006 20 19 19.108 19 18 L 19 16 L 19 13 L 19 4 C 19 2.892 18.108006 2 17 2 L 5 2 z M 5 4 L 7 4 L 9 4 L 16 4 L 17 4 L 17 9 L 17 12 L 16 12 L 16 7 L 6 7 L 6 12 L 5 12 L 5 11 L 5 4 z M 7 8 L 7.1953125 8 L 8 10.822266 L 8 12 L 7 12 L 7 8 z M 7.34375 8 L 8 8 L 8 8.4101562 L 7.34375 8 z M 9 8 L 15 8 L 15 12 L 13.744141 12 L 9 9.0351562 L 9 8 z M 9 10.216797 L 11.853516 12 L 9.3769531 12 L 9 10.681641 L 9 10.216797 z M 3 13 L 3.5 13 L 5 13 L 7 13 L 9 13 L 17 13 L 17.5 13 L 18 13 L 18 13.5 L 18 15.5 L 18 16 L 17.5 16 L 17 16 L 17 15 L 16 15 L 16 16 L 15 16 L 15 14 L 14 14 L 14 16 L 13 16 L 13 15 L 12 15 L 12 16 L 11 16 L 11 14 L 10 14 L 10 16 L 9 16 L 9 15 L 8 15 L 8 16 L 7 16 L 7 14 L 6 14 L 6 16 L 5 16 L 5 15 L 4 15 L 4 16 L 3.5 16 L 3 16 L 3 15.5 L 3 13.5 L 3 13 z M 5 17 L 7 17 L 9 17 L 17 17 L 17 18 L 13 18 L 11 18 L 9 18 L 7 18 L 5 18 L 5 17 z "
       transform="translate(0,1030.3622)"
       id="path18839-5-2-2" />
  </g>
</svg>
