<?xml version="1.0" encoding="UTF-8" standalone="no"?>
<!-- Created with Inkscape (http://www.inkscape.org/) -->

<svg
   xmlns:dc="http://purl.org/dc/elements/1.1/"
   xmlns:cc="http://creativecommons.org/ns#"
   xmlns:rdf="http://www.w3.org/1999/02/22-rdf-syntax-ns#"
   xmlns:svg="http://www.w3.org/2000/svg"
   xmlns="http://www.w3.org/2000/svg"
   xmlns:sodipodi="http://sodipodi.sourceforge.net/DTD/sodipodi-0.dtd"
   xmlns:inkscape="http://www.inkscape.org/namespaces/inkscape"
   width="22"
   height="22"
   viewBox="0 0 22 22"
   id="svg2"
   version="1.1"
   inkscape:version="0.92.3 (unknown)"
   sodipodi:docname="applications-office.svg">
  <defs
     id="defs3051">
    <style
       type="text/css"
       id="current-color-scheme">
    .ColorScheme-Text {
    color:#4d4d4d;
    }
    </style>
  </defs>
  <sodipodi:namedview
     id="base"
     pagecolor="#ffffff"
     bordercolor="#666666"
     borderopacity="1.0"
     inkscape:pageopacity="0.0"
     inkscape:pageshadow="2"
     inkscape:zoom="45.254834"
     inkscape:cx="11.079657"
     inkscape:cy="8.8176253"
     inkscape:document-units="px"
     inkscape:current-layer="layer1"
     showgrid="true"
     units="px"
     inkscape:showpageshadow="false"
     borderlayer="true"
     showguides="true"
     inkscape:guide-bbox="true"
     inkscape:window-width="2560"
     inkscape:window-height="1384"
     inkscape:window-x="0"
     inkscape:window-y="32"
     inkscape:window-maximized="1">
    <inkscape:grid
       type="xygrid"
       id="grid4136"
       empspacing="2" />
    <sodipodi:guide
       position="0,20"
       orientation="0,1"
       id="guide4140"
       inkscape:label="Icon Max Height"
       inkscape:color="rgb(233,30,99)"
       inkscape:locked="false" />
    <sodipodi:guide
       position="0,2"
       orientation="0,1"
       id="guide4142"
       inkscape:label="Icon Baseline"
       inkscape:color="rgb(233,30,99)"
       inkscape:locked="false" />
    <sodipodi:guide
       position="11,0"
       orientation="1,0"
       id="guide4144"
       inkscape:label="Center Vertical"
       inkscape:color="rgb(221,44,0)"
       inkscape:locked="false" />
    <sodipodi:guide
       position="15,11"
       orientation="0,1"
       id="guide4146"
       inkscape:label="Center Horizontal"
       inkscape:color="rgb(221,44,0)"
       inkscape:locked="false" />
  </sodipodi:namedview>
  <metadata
     id="metadata7">
    <rdf:RDF>
      <cc:Work
         rdf:about="">
        <dc:format>image/svg+xml</dc:format>
        <dc:type
           rdf:resource="http://purl.org/dc/dcmitype/StillImage" />
        <dc:title />
      </cc:Work>
    </rdf:RDF>
  </metadata>
  <g
     inkscape:label="Capa 1"
     inkscape:groupmode="layer"
     id="layer1"
     transform="translate(0,-1030.3622)">
    <path
       id="path18909-1-9-8"
       d="m 1.9999997,1032.3622 c -1.1080064,0 -2.0000127,0.892 -2.0000127,2 h 1.0000252 v 14 H -1.3e-5 c 0,1.108 0.8920063,2 2.0000127,2 H 20 c 1.108007,0 2.000013,-0.892 2.000013,-2 h -1.000025 v -14 h 1.000025 c 0,-1.108 -0.892006,-2 -2.000013,-2 z m 0.9999874,2 H 16.000013 v 2.0879 a 1.5,1.5 0 0 0 -1.000025,1.4121 1.5,1.5 0 0 0 1.500019,1.5 1.5,1.5 0 0 0 1.499981,-1.5 A 1.5,1.5 0 0 0 17,1036.4501 v -2.0879 h 2.000013 v 14 H 2.9999871 Z m 3.0000001,1 v 1 h 9.0000008 v -1 z m 3.0000001,2 v 1 h 4.0000257 v -1 z m 7.5000197,0 a 0.49999999,0.49999999 0 0 1 0.499993,0.5 0.49999999,0.49999999 0 0 1 -0.499993,0.5 0.49999999,0.49999999 0 0 1 -0.499994,-0.5 0.49999999,0.49999999 0 0 1 0.499994,-0.5 z m -12.4999947,2 v 8 h 3.9999876 v -8 z m 0.9999875,1 h 2.0000127 v 6 H 4.9999998 Z m 9.0000002,0 v 1 h 3 v -1 z m -5.0000127,2 v 5 h 4.0000257 v -5 z m 5.0000127,0 v 1 h 2.000013 v -1 z m -3.999987,1 h 1.999974 v 3 h -1.999974 z m 3.999987,1 v 3 h 3.999988 v -3 z m 0.999988,1 H 17 v 1 h -2.000012 z"
       style="fill:currentColor;fill-opacity:1;stroke:none" class="ColorScheme-Text"
       inkscape:connector-curvature="0" />
  </g>
</svg>
