<?xml version="1.0" encoding="UTF-8" standalone="no"?>
<!-- Created with Inkscape (http://www.inkscape.org/) -->

<svg
   xmlns:dc="http://purl.org/dc/elements/1.1/"
   xmlns:cc="http://creativecommons.org/ns#"
   xmlns:rdf="http://www.w3.org/1999/02/22-rdf-syntax-ns#"
   xmlns:svg="http://www.w3.org/2000/svg"
   xmlns="http://www.w3.org/2000/svg"
   xmlns:sodipodi="http://sodipodi.sourceforge.net/DTD/sodipodi-0.dtd"
   xmlns:inkscape="http://www.inkscape.org/namespaces/inkscape"
   width="22"
   height="22"
   viewBox="0 0 22 22"
   id="svg2"
   version="1.1"
   inkscape:version="0.92.3 (unknown)"
   sodipodi:docname="applications-games.svg">
  <defs
     id="defs3051">
    <style
       type="text/css"
       id="current-color-scheme">
    .ColorScheme-Text {
    color:#4d4d4d;
    }
    </style>
  </defs>
  <sodipodi:namedview
     id="base"
     pagecolor="#ffffff"
     bordercolor="#666666"
     borderopacity="1.0"
     inkscape:pageopacity="0.0"
     inkscape:pageshadow="2"
     inkscape:zoom="45.254834"
     inkscape:cx="11.079657"
     inkscape:cy="8.8176253"
     inkscape:document-units="px"
     inkscape:current-layer="layer1"
     showgrid="true"
     units="px"
     inkscape:showpageshadow="false"
     borderlayer="true"
     showguides="true"
     inkscape:guide-bbox="true"
     inkscape:window-width="2560"
     inkscape:window-height="1384"
     inkscape:window-x="0"
     inkscape:window-y="32"
     inkscape:window-maximized="1">
    <inkscape:grid
       type="xygrid"
       id="grid4136"
       empspacing="2" />
    <sodipodi:guide
       position="0,20"
       orientation="0,1"
       id="guide4140"
       inkscape:label="Icon Max Height"
       inkscape:color="rgb(233,30,99)"
       inkscape:locked="false" />
    <sodipodi:guide
       position="0,2"
       orientation="0,1"
       id="guide4142"
       inkscape:label="Icon Baseline"
       inkscape:color="rgb(233,30,99)"
       inkscape:locked="false" />
    <sodipodi:guide
       position="11,0"
       orientation="1,0"
       id="guide4144"
       inkscape:label="Center Vertical"
       inkscape:color="rgb(221,44,0)"
       inkscape:locked="false" />
    <sodipodi:guide
       position="15,11"
       orientation="0,1"
       id="guide4146"
       inkscape:label="Center Horizontal"
       inkscape:color="rgb(221,44,0)"
       inkscape:locked="false" />
  </sodipodi:namedview>
  <metadata
     id="metadata7">
    <rdf:RDF>
      <cc:Work
         rdf:about="">
        <dc:format>image/svg+xml</dc:format>
        <dc:type
           rdf:resource="http://purl.org/dc/dcmitype/StillImage" />
        <dc:title />
      </cc:Work>
    </rdf:RDF>
  </metadata>
  <g
     inkscape:label="Capa 1"
     inkscape:groupmode="layer"
     id="layer1"
     transform="translate(0,-1030.3622)">
    <path
       sodipodi:nodetypes="ssssssssscccccccccccccccccccccccccccccccccccccc"
       id="path18885-3-3-9"
       d="m 1.9999809,1035.3622 c -1.10800636,0 -1.9999749,0.892 -1.9999749,2 v 8 c 0,1.108 0.89196854,2 1.9999749,2 H 19.999982 c 1.108006,0 2.000012,-0.892 2.000012,-2 v -8 c 0,-1.108 -0.892006,-2 -2.000012,-2 z m 0,2 H 19.999982 v 8 H 1.9999809 Z m 3.0000001,1 v 2 H 3.0000061 v 2 H 4.999981 v 2 h 2.0000127 v -2 h 2.0000126 v -2 H 6.9999937 v -2 z m 13.000026,1.0002 c -0.552303,-10e-5 -1.000026,0.4477 -1.000026,1 0,0.5522 0.447723,1 1.000026,1 0.552264,0 0.999987,-0.4478 0.999987,-1 0,-0.5523 -0.447723,-1 -0.999987,-1 z m -2.000013,2 c -0.552302,-10e-5 -1.000025,0.4476 -1.000025,0.9999 0,0.5523 0.447723,1.0001 1.000025,1.0001 0.552302,0 0.999987,-0.4478 0.999987,-1.0001 0,-0.5522 -0.447722,-0.9999 -0.999987,-0.9999 z m -6.000038,1.9999 v 1.0001 h 0.999987 v -1.0001 z m 3.000038,0 v 1.0001 h 0.999987 v -1.0001 z"
       style="fill:currentColor;fill-opacity:1;stroke:none" class="ColorScheme-Text"
       inkscape:connector-curvature="0" />
  </g>
</svg>
