<?xml version="1.0" encoding="UTF-8" standalone="no"?>
<!-- Created with Inkscape (http://www.inkscape.org/) -->

<svg
   xmlns:dc="http://purl.org/dc/elements/1.1/"
   xmlns:cc="http://creativecommons.org/ns#"
   xmlns:rdf="http://www.w3.org/1999/02/22-rdf-syntax-ns#"
   xmlns:svg="http://www.w3.org/2000/svg"
   xmlns="http://www.w3.org/2000/svg"
   xmlns:sodipodi="http://sodipodi.sourceforge.net/DTD/sodipodi-0.dtd"
   xmlns:inkscape="http://www.inkscape.org/namespaces/inkscape"
   width="22"
   height="22"
   viewBox="0 0 22 22"
   id="svg2"
   version="1.1"
   inkscape:version="0.92.3 (unknown)"
   sodipodi:docname="applications-education.svg">
  <defs
     id="defs3051">
    <style
       type="text/css"
       id="current-color-scheme">
    .ColorScheme-Text {
    color:#4d4d4d;
    }
    </style>
  </defs>
  <sodipodi:namedview
     id="base"
     pagecolor="#ffffff"
     bordercolor="#666666"
     borderopacity="1.0"
     inkscape:pageopacity="0.0"
     inkscape:pageshadow="2"
     inkscape:zoom="45.254834"
     inkscape:cx="11.079657"
     inkscape:cy="8.8176253"
     inkscape:document-units="px"
     inkscape:current-layer="layer1"
     showgrid="true"
     units="px"
     inkscape:showpageshadow="false"
     borderlayer="true"
     showguides="true"
     inkscape:guide-bbox="true"
     inkscape:window-width="2560"
     inkscape:window-height="1384"
     inkscape:window-x="0"
     inkscape:window-y="32"
     inkscape:window-maximized="1">
    <inkscape:grid
       type="xygrid"
       id="grid4136"
       empspacing="2" />
    <sodipodi:guide
       position="0,20"
       orientation="0,1"
       id="guide4140"
       inkscape:label="Icon Max Height"
       inkscape:color="rgb(233,30,99)"
       inkscape:locked="false" />
    <sodipodi:guide
       position="0,2"
       orientation="0,1"
       id="guide4142"
       inkscape:label="Icon Baseline"
       inkscape:color="rgb(233,30,99)"
       inkscape:locked="false" />
    <sodipodi:guide
       position="11,0"
       orientation="1,0"
       id="guide4144"
       inkscape:label="Center Vertical"
       inkscape:color="rgb(221,44,0)"
       inkscape:locked="false" />
    <sodipodi:guide
       position="15,11"
       orientation="0,1"
       id="guide4146"
       inkscape:label="Center Horizontal"
       inkscape:color="rgb(221,44,0)"
       inkscape:locked="false" />
  </sodipodi:namedview>
  <metadata
     id="metadata7">
    <rdf:RDF>
      <cc:Work
         rdf:about="">
        <dc:format>image/svg+xml</dc:format>
        <dc:type
           rdf:resource="http://purl.org/dc/dcmitype/StillImage" />
        <dc:title />
      </cc:Work>
    </rdf:RDF>
  </metadata>
  <g
     inkscape:label="Capa 1"
     inkscape:groupmode="layer"
     id="layer1"
     transform="translate(0,-1030.3622)">
    <path
       style="fill:currentColor;fill-opacity:1;stroke:none" class="ColorScheme-Text"
       d="m 4.9999936,1032.3622 c -1.1080063,0 -2.0000127,0.892 -2.0000127,2 v 8 c -0.5540031,0 -0.9999874,0.446 -0.9999874,1 v 3 c 0,0.5541 0.4459843,1 0.9999874,1 v 1 c 0,1.108 0.8920064,2 2.0000127,2 H 16.999994 c 1.108006,0 2.000013,-0.892 2.000013,-2 v -2 -3 -9 c 0,-1.108 -0.892006,-2 -2.000012,-2 z m 0,2 h 1.9999749 v 8 H 4.9999936 v -1 z m 3.9999876,0 h 8.0000138 v 5 3 H 15.999969 11.999982 8.9999812 Z m 3.0000008,8 2.000012,-2 1.999975,2 v -7 h -3.999987 z m -9.0000011,1 h 0.4999938 1.5000189 1.9999749 2.0000127 8.0000138 0.499993 0.499994 v 0.5 2 0.5 h -0.499994 -0.499993 v -1 h -1.000026 v 1 h -0.999987 v -2 h -0.999988 v 2 h -1.000025 v -1 h -0.999987 v 1 h -0.999988 v -2 h -0.999987 v 2 H 8.9999812 v -1 H 7.9999937 v 1 H 6.9999685 v -2 H 5.9999811 v 2 H 4.9999936 v -1 H 3.9999684 v 1 H 3.4999747 2.9999809 v -0.5 -2 z m 2.0000127,4 h 1.9999749 v 1 H 4.9999936 Z m 3.9999876,0 h 8.0000138 v 1 H 12.999969 10.999994 8.9999812 Z"
       id="path18839-5-2-2"
       inkscape:connector-curvature="0" />
  </g>
</svg>
