<?xml version="1.0" encoding="UTF-8" standalone="no"?>
<!-- Created with Inkscape (http://www.inkscape.org/) -->

<svg
   xmlns:dc="http://purl.org/dc/elements/1.1/"
   xmlns:cc="http://creativecommons.org/ns#"
   xmlns:rdf="http://www.w3.org/1999/02/22-rdf-syntax-ns#"
   xmlns:svg="http://www.w3.org/2000/svg"
   xmlns="http://www.w3.org/2000/svg"
   xmlns:sodipodi="http://sodipodi.sourceforge.net/DTD/sodipodi-0.dtd"
   xmlns:inkscape="http://www.inkscape.org/namespaces/inkscape"
   width="22"
   height="22"
   viewBox="0 0 22 22"
   id="svg2"
   version="1.1"
   inkscape:version="0.92.3 (unknown)"
   sodipodi:docname="applications-development.svg">
  <defs
     id="defs3051">
    <style
       type="text/css"
       id="current-color-scheme">
    .ColorScheme-Text {
    color:#4d4d4d;
    }
    </style>
  </defs>
  <sodipodi:namedview
     id="base"
     pagecolor="#ffffff"
     bordercolor="#666666"
     borderopacity="1.0"
     inkscape:pageopacity="0.0"
     inkscape:pageshadow="2"
     inkscape:zoom="45.254834"
     inkscape:cx="11.079657"
     inkscape:cy="8.8176253"
     inkscape:document-units="px"
     inkscape:current-layer="layer1"
     showgrid="true"
     units="px"
     inkscape:showpageshadow="false"
     borderlayer="true"
     showguides="true"
     inkscape:guide-bbox="true"
     inkscape:window-width="2560"
     inkscape:window-height="1384"
     inkscape:window-x="0"
     inkscape:window-y="32"
     inkscape:window-maximized="1">
    <inkscape:grid
       type="xygrid"
       id="grid4136"
       empspacing="2" />
    <sodipodi:guide
       position="0,20"
       orientation="0,1"
       id="guide4140"
       inkscape:label="Icon Max Height"
       inkscape:color="rgb(233,30,99)"
       inkscape:locked="false" />
    <sodipodi:guide
       position="0,2"
       orientation="0,1"
       id="guide4142"
       inkscape:label="Icon Baseline"
       inkscape:color="rgb(233,30,99)"
       inkscape:locked="false" />
    <sodipodi:guide
       position="11,0"
       orientation="1,0"
       id="guide4144"
       inkscape:label="Center Vertical"
       inkscape:color="rgb(221,44,0)"
       inkscape:locked="false" />
    <sodipodi:guide
       position="15,11"
       orientation="0,1"
       id="guide4146"
       inkscape:label="Center Horizontal"
       inkscape:color="rgb(221,44,0)"
       inkscape:locked="false" />
  </sodipodi:namedview>
  <metadata
     id="metadata7">
    <rdf:RDF>
      <cc:Work
         rdf:about="">
        <dc:format>image/svg+xml</dc:format>
        <dc:type
           rdf:resource="http://purl.org/dc/dcmitype/StillImage" />
        <dc:title />
      </cc:Work>
    </rdf:RDF>
  </metadata>
  <g
     inkscape:label="Capa 1"
     inkscape:groupmode="layer"
     id="layer1"
     transform="translate(0,-1030.3622)">
    <path
       inkscape:connector-curvature="0"
       id="path18859-3-6-1"
       d="m 3.0000062,1032.3622 c -1.1081576,0 -2.0000127,0.8919 -2.0000127,2 v 14 c 0,1.1081 0.8918551,2 2.0000127,2 H 18.999994 c 1.108195,0 2.000013,-0.8919 2.000013,-2 v -6 -2 -6 c 0,-1.108 -0.892006,-2 -2.000012,-2 H 14.000019 12.000007 5.0996094 Z m 0.9999874,1 a 0.99999991,0.99999991 0 0 1 1.0000252,1 0.99999991,0.99999991 0 0 1 -1.0000252,1 0.99999991,0.99999991 0 0 1 -0.9999874,-1 0.99999991,0.99999991 0 0 1 0.9999874,-1 z m -0.9999874,3 h 8.9999998 6.999988 v 4 2 6 h -3 -7.999975 -5.0000128 z m 2.0000126,2 v 1 h 6.9999872 v -1 z m 7.9999742,0 v 1 h 2.000013 v -1 z m -6.9999867,2 v 1 h 3.9999875 v -1 z m 5.0000127,0 v 1 h 0.999987 v -1 z m -6.0000002,2 v 1 h 6.0000002 v -1 z m 3.9999876,2 v 1 h 3.9999866 v -1 z m -0.9999874,2 v 1 h 6 v -1 z"
       style="fill:currentColor;fill-opacity:1;stroke:none" class="ColorScheme-Text" />
  </g>
</svg>
