<?xml version="1.0" encoding="UTF-8" standalone="no"?>
<!-- Created with Inkscape (http://www.inkscape.org/) -->

<svg
   xmlns:dc="http://purl.org/dc/elements/1.1/"
   xmlns:cc="http://creativecommons.org/ns#"
   xmlns:rdf="http://www.w3.org/1999/02/22-rdf-syntax-ns#"
   xmlns:svg="http://www.w3.org/2000/svg"
   xmlns="http://www.w3.org/2000/svg"
   xmlns:sodipodi="http://sodipodi.sourceforge.net/DTD/sodipodi-0.dtd"
   xmlns:inkscape="http://www.inkscape.org/namespaces/inkscape"
   width="22"
   height="22"
   viewBox="0 0 22 22"
   id="svg2"
   version="1.1"
   inkscape:version="0.92.3 (unknown)"
   sodipodi:docname="applications-multimedia.svg">
  <defs
     id="defs3051">
    <style
       type="text/css"
       id="current-color-scheme">
    .ColorScheme-Text {
    color:#4d4d4d;
    }
    </style>
  </defs>
  <sodipodi:namedview
     id="base"
     pagecolor="#ffffff"
     bordercolor="#666666"
     borderopacity="1.0"
     inkscape:pageopacity="0.0"
     inkscape:pageshadow="2"
     inkscape:zoom="45.254834"
     inkscape:cx="11.079657"
     inkscape:cy="8.8176253"
     inkscape:document-units="px"
     inkscape:current-layer="layer1"
     showgrid="true"
     units="px"
     inkscape:showpageshadow="false"
     borderlayer="true"
     showguides="true"
     inkscape:guide-bbox="true"
     inkscape:window-width="2560"
     inkscape:window-height="1384"
     inkscape:window-x="0"
     inkscape:window-y="32"
     inkscape:window-maximized="1">
    <inkscape:grid
       type="xygrid"
       id="grid4136"
       empspacing="2" />
    <sodipodi:guide
       position="0,20"
       orientation="0,1"
       id="guide4140"
       inkscape:label="Icon Max Height"
       inkscape:color="rgb(233,30,99)"
       inkscape:locked="false" />
    <sodipodi:guide
       position="0,2"
       orientation="0,1"
       id="guide4142"
       inkscape:label="Icon Baseline"
       inkscape:color="rgb(233,30,99)"
       inkscape:locked="false" />
    <sodipodi:guide
       position="11,0"
       orientation="1,0"
       id="guide4144"
       inkscape:label="Center Vertical"
       inkscape:color="rgb(221,44,0)"
       inkscape:locked="false" />
    <sodipodi:guide
       position="15,11"
       orientation="0,1"
       id="guide4146"
       inkscape:label="Center Horizontal"
       inkscape:color="rgb(221,44,0)"
       inkscape:locked="false" />
  </sodipodi:namedview>
  <metadata
     id="metadata7">
    <rdf:RDF>
      <cc:Work
         rdf:about="">
        <dc:format>image/svg+xml</dc:format>
        <dc:type
           rdf:resource="http://purl.org/dc/dcmitype/StillImage" />
        <dc:title />
      </cc:Work>
    </rdf:RDF>
  </metadata>
  <g
     inkscape:label="Capa 1"
     inkscape:groupmode="layer"
     id="layer1"
     transform="translate(0,-1030.3622)">
    <path
       style="fill:currentColor;fill-opacity:1;stroke:none" class="ColorScheme-Text"
       d="m 1.9999997,1034.3622 c -1.10800637,0 -2.0000127,0.892 -2.0000127,2 v 10 c 0,1.108 0.89200633,2 2.0000127,2 H 20 c 1.108007,0 2.000013,-0.892 2.000013,-2 v -10 c 0,-1.108 -0.892006,-2 -2.000013,-2 z m 0,2 H 20 v 10 h -2.000012 l -1.999975,-2 H 5.9999872 l -1.9999749,2 H 1.9999997 Z m 3.0000001,2 c -0.5540032,0 -0.9999875,0.446 -0.9999875,1 v 3 c 0,0.554 0.4459843,1 0.9999875,1 H 17 c 0.554003,0 0.999988,-0.446 0.999988,-1 v -3 c 0,-0.554 -0.445985,-1 -0.999988,-1 z m 1.4999811,1 a 1.5,1.5 0 0 1 1.500019,1.5 1.5,1.5 0 0 1 -1.500019,1.5 1.5,1.5 0 0 1 -1.4999811,-1.5 1.5,1.5 0 0 1 1.4999811,-1.5 z m 1.9961198,0 h 5.0058333 a 2.5,2.5 0 0 0 -0.501921,1.5 2.5,2.5 0 0 0 0.503886,1.5 H 8.4980283 a 2.5,2.5 0 0 0 0.501959,-1.5 2.5,2.5 0 0 0 -0.5038866,-1.5 z m 7.0038803,0 a 1.5,1.5 0 0 1 1.500019,1.5 1.5,1.5 0 0 1 -1.500019,1.5 1.5,1.5 0 0 1 -1.499981,-1.5 1.5,1.5 0 0 1 1.499981,-1.5 z"
       id="path18921-9-3-1"
       inkscape:connector-curvature="0" />
  </g>
</svg>
