<?xml version="1.0" encoding="UTF-8" standalone="no"?>
<!-- Created with Inkscape (http://www.inkscape.org/) -->

<svg
   xmlns:dc="http://purl.org/dc/elements/1.1/"
   xmlns:cc="http://creativecommons.org/ns#"
   xmlns:rdf="http://www.w3.org/1999/02/22-rdf-syntax-ns#"
   xmlns:svg="http://www.w3.org/2000/svg"
   xmlns="http://www.w3.org/2000/svg"
   xmlns:sodipodi="http://sodipodi.sourceforge.net/DTD/sodipodi-0.dtd"
   xmlns:inkscape="http://www.inkscape.org/namespaces/inkscape"
   width="16"
   height="16"
   viewBox="0 0 16 16"
   id="svg2"
   version="1.1"
   inkscape:version="0.91 r13725"
   sodipodi:docname="hwinfo.svg">
  <defs
     id="defs3051">
    <style
       type="text/css"
       id="current-color-scheme">
      .ColorScheme-Text {
        color:#4d4d4d;
      }
      </style>
    <style
       id="current-color-scheme-7"
       type="text/css">
      .ColorScheme-Text {
        color:#4d4d4d;
      }
      </style>
    <style
       id="current-color-scheme-9"
       type="text/css">
      .ColorScheme-Text {
        color:#4d4d4d;
      }
      </style>
    <style
       id="current-color-scheme-2"
       type="text/css">
      .ColorScheme-Text {
        color:#4d4d4d;
      }
      </style>
  </defs>
  <sodipodi:namedview
     id="base"
     pagecolor="#ffffff"
     bordercolor="#666666"
     borderopacity="1.0"
     inkscape:pageopacity="0.0"
     inkscape:pageshadow="2"
     inkscape:zoom="48.125"
     inkscape:cx="5.7558441"
     inkscape:cy="7.0441559"
     inkscape:document-units="px"
     inkscape:current-layer="layer1"
     showgrid="true"
     units="px"
     inkscape:showpageshadow="false"
     borderlayer="true"
     showguides="true"
     inkscape:guide-bbox="true"
     inkscape:window-width="2496"
     inkscape:window-height="956"
     inkscape:window-x="0"
     inkscape:window-y="0"
     inkscape:window-maximized="1"
     fit-margin-top="0"
     fit-margin-left="0"
     fit-margin-right="0"
     fit-margin-bottom="0">
    <inkscape:grid
       type="xygrid"
       id="grid4136"
       empspacing="2"
       originx="-3"
       originy="-3.0000174" />
    <sodipodi:guide
       position="0,14.999983"
       orientation="0,1"
       id="guide4140"
       inkscape:label="Icon Max Height"
       inkscape:color="rgb(233,30,99)" />
    <sodipodi:guide
       position="0,0.9999826"
       orientation="0,1"
       id="guide4142"
       inkscape:label="Icon Baseline"
       inkscape:color="rgb(233,30,99)" />
    <sodipodi:guide
       position="8,-1.74e-05"
       orientation="1,0"
       id="guide4144"
       inkscape:label="Center Vertical"
       inkscape:color="rgb(221,44,0)" />
    <sodipodi:guide
       position="16,7.9999826"
       orientation="0,1"
       id="guide4146"
       inkscape:label="Center Horizontal"
       inkscape:color="rgb(221,44,0)" />
  </sodipodi:namedview>
  <metadata
     id="metadata7">
    <rdf:RDF>
      <cc:Work
         rdf:about="">
        <dc:format>image/svg+xml</dc:format>
        <dc:type
           rdf:resource="http://purl.org/dc/dcmitype/StillImage" />
        <dc:title />
      </cc:Work>
    </rdf:RDF>
  </metadata>
  <g
     inkscape:label="Capa 1"
     inkscape:groupmode="layer"
     id="layer1"
     transform="translate(-3,-1033.3622)">
    <path
       style="color:#4d4d4d;fill:currentColor;fill-opacity:1;stroke:none"
       class="ColorScheme-Text"
       d="M 2,1 C 0.8919807,1 0,1.892 0,3 l 0,9 c 0,1.108 0.8919807,2 2,2 l 0,1 1,0 4,0 0,-1 0,-1 1,0 0,1 0,1 5,0 1,0 0,-1 c 1.108019,0 2,-0.892 2,-2 L 16,3 C 16,1.892 15.108019,1 14,1 Z m 0,1 12,0 c 0.554019,0 1,0.446 1,1 L 15,12 1,12 1,3 C 1,2.446 1.4459807,2 2,2 Z M 2,3 2,4 4,4 4,3 Z m 3,1 0,6 6,0 0,-6 z M 13.5,3 C 13.223858,3 13,3.2238576 13,3.5 13,3.7761424 13.223858,4 13.5,4 13.776142,4 14,3.7761424 14,3.5 14,3.2238576 13.776142,3 13.5,3 Z M 6,5 10,5 10,9 6,9 Z M 7,6 7,8 8,7 Z M 8,7 9,7 9,6 8,6 Z M 2.5,10 C 2.2238576,10 2,10.223858 2,10.5 2,10.776142 2.2238576,11 2.5,11 2.7761424,11 3,10.776142 3,10.5 3,10.223858 2.7761424,10 2.5,10 Z m 9.5,0 0,1 2,0 0,-1 z m -9,3 3,0 0,1 -3,0 z m 6,0 4,0 0,1 -4,0 z"
       transform="translate(3,1033.3622)"
       id="rect4143"
       inkscape:connector-curvature="0"
       sodipodi:nodetypes="sssccccccccccccsssssssccssccccccccccsssssccccccccccccccsssssccccccccccccccc" />
  </g>
</svg>
