<?xml version="1.0" encoding="UTF-8" standalone="no"?>
<!-- Created with Inkscape (http://www.inkscape.org/) -->

<svg
   xmlns:dc="http://purl.org/dc/elements/1.1/"
   xmlns:cc="http://creativecommons.org/ns#"
   xmlns:rdf="http://www.w3.org/1999/02/22-rdf-syntax-ns#"
   xmlns:svg="http://www.w3.org/2000/svg"
   xmlns="http://www.w3.org/2000/svg"
   xmlns:sodipodi="http://sodipodi.sourceforge.net/DTD/sodipodi-0.dtd"
   xmlns:inkscape="http://www.inkscape.org/namespaces/inkscape"
   width="16"
   height="16"
   viewBox="0 0 16 16"
   id="svg2"
   version="1.1"
   inkscape:version="0.92.3 (unknown)"
   sodipodi:docname="ksysguard.svg">
  <defs
     id="defs3051">
    <style
       type="text/css"
       id="current-color-scheme">
    .ColorScheme-Text {
    color:#4d4d4d;
    }
    </style>
  </defs>
  <sodipodi:namedview
     id="base"
     pagecolor="#ffffff"
     bordercolor="#666666"
     borderopacity="1.0"
     inkscape:pageopacity="0.0"
     inkscape:pageshadow="2"
     inkscape:zoom="55.021746"
     inkscape:cx="4.8492259"
     inkscape:cy="8.9104151"
     inkscape:document-units="px"
     inkscape:current-layer="layer1"
     showgrid="true"
     units="px"
     inkscape:showpageshadow="false"
     borderlayer="true"
     showguides="true"
     inkscape:guide-bbox="true"
     inkscape:window-width="2560"
     inkscape:window-height="1384"
     inkscape:window-x="0"
     inkscape:window-y="32"
     inkscape:window-maximized="1"
     fit-margin-top="0"
     fit-margin-left="0"
     fit-margin-right="0"
     fit-margin-bottom="0">
    <inkscape:grid
       type="xygrid"
       id="grid4136"
       empspacing="2"
       originx="-3"
       originy="-3.0000174" />
    <sodipodi:guide
       position="0,14.999983"
       orientation="0,1"
       id="guide4140"
       inkscape:label="Icon Max Height"
       inkscape:color="rgb(233,30,99)"
       inkscape:locked="false" />
    <sodipodi:guide
       position="0,0.9999826"
       orientation="0,1"
       id="guide4142"
       inkscape:label="Icon Baseline"
       inkscape:color="rgb(233,30,99)"
       inkscape:locked="false" />
    <sodipodi:guide
       position="8,-1.74e-05"
       orientation="1,0"
       id="guide4144"
       inkscape:label="Center Vertical"
       inkscape:color="rgb(221,44,0)"
       inkscape:locked="false" />
    <sodipodi:guide
       position="17,7.9999826"
       orientation="0,1"
       id="guide4146"
       inkscape:label="Center Horizontal"
       inkscape:color="rgb(221,44,0)"
       inkscape:locked="false" />
  </sodipodi:namedview>
  <metadata
     id="metadata7">
    <rdf:RDF>
      <cc:Work
         rdf:about="">
        <dc:format>image/svg+xml</dc:format>
        <dc:type
           rdf:resource="http://purl.org/dc/dcmitype/StillImage" />
        <dc:title />
      </cc:Work>
    </rdf:RDF>
  </metadata>
  <g
     inkscape:label="Capa 1"
     inkscape:groupmode="layer"
     id="layer1"
     transform="translate(-3,-1033.3622)">
    <path
       style="fill:currentColor;fill-opacity:1;stroke:none" class="ColorScheme-Text"
       d="M 5.5 1 C 5.223 1 5 1.223 5 1.5 L 5 3 C 3.8919807 3 3 3.8919807 3 5 L 1.5 5 C 1.223 5 1 5.223 1 5.5 C 1 5.777 1.223 6 1.5 6 L 3 6 L 3 10 L 1.5 10 C 1.223 10 1 10.223 1 10.5 C 1 10.777 1.223 11 1.5 11 L 3 11 C 3 12.108019 3.8919807 13 5 13 L 5 14.5 C 5 14.777 5.223 15 5.5 15 C 5.777 15 6 14.777 6 14.5 L 6 13 L 10 13 L 10 14.5 C 10 14.777 10.223 15 10.5 15 C 10.777 15 11 14.777 11 14.5 L 11 13 C 12.108019 13 13 12.108019 13 11 L 14.5 11 C 14.777 11 15 10.777 15 10.5 C 15 10.223 14.777 10 14.5 10 L 13 10 L 13 6 L 14.5 6 C 14.777 6 15 5.777 15 5.5 C 15 5.223 14.777 5 14.5 5 L 13 5 C 13 3.8919807 12.108019 3 11 3 L 11 1.5 C 11 1.223 10.777 1 10.5 1 C 10.223 1 10 1.223 10 1.5 L 10 3 L 6 3 L 6 1.5 C 6 1.223 5.777 1 5.5 1 z M 5 4 L 11 4 C 11.554019 4 12 4.4459807 12 5 L 12 11 C 12 11.554019 11.554019 12 11 12 L 5 12 C 4.4459807 12 4 11.554019 4 11 L 4 5 C 4 4.4459807 4.4459807 4 5 4 z M 7 6 C 6.4459807 6 6 6.4459807 6 7 L 6 9 C 6 9.5540193 6.4459807 10 7 10 L 9 10 C 9.5540193 10 10 9.5540193 10 9 L 10 7 C 10 6.4459807 9.5540193 6 9 6 L 7 6 z M 7 7 L 9 7 L 9 9 L 7 9 L 7 7 z "
       transform="translate(3,1033.3622)"
       id="rect837" />
  </g>
</svg>
