<?xml version="1.0" encoding="UTF-8" standalone="no"?>
<!-- Created with Inkscape (http://www.inkscape.org/) -->

<svg
   xmlns:dc="http://purl.org/dc/elements/1.1/"
   xmlns:cc="http://creativecommons.org/ns#"
   xmlns:rdf="http://www.w3.org/1999/02/22-rdf-syntax-ns#"
   xmlns:svg="http://www.w3.org/2000/svg"
   xmlns="http://www.w3.org/2000/svg"
   xmlns:sodipodi="http://sodipodi.sourceforge.net/DTD/sodipodi-0.dtd"
   xmlns:inkscape="http://www.inkscape.org/namespaces/inkscape"
   width="16"
   height="16"
   viewBox="0 0 16 16"
   id="svg2"
   version="1.1"
   inkscape:version="0.91 r13725"
   sodipodi:docname="ktip.svg">
<defs
    id="defs3051">
<style
    type="text/css"
    id="current-color-scheme">
    .ColorScheme-Text {
    color:#4d4d4d;
    }
    </style>
</defs>
  <sodipodi:namedview
     id="base"
     pagecolor="#ffffff"
     bordercolor="#666666"
     borderopacity="1.0"
     inkscape:pageopacity="0.0"
     inkscape:pageshadow="2"
     inkscape:zoom="26.40625"
     inkscape:cx="16.522267"
     inkscape:cy="8.3219215"
     inkscape:document-units="px"
     inkscape:current-layer="layer1"
     showgrid="true"
     units="px"
     inkscape:showpageshadow="false"
     borderlayer="true"
     showguides="true"
     inkscape:guide-bbox="true"
     inkscape:window-width="2496"
     inkscape:window-height="956"
     inkscape:window-x="0"
     inkscape:window-y="0"
     inkscape:window-maximized="1"
     fit-margin-top="0"
     fit-margin-left="0"
     fit-margin-right="0"
     fit-margin-bottom="0">
    <inkscape:grid
       type="xygrid"
       id="grid4136"
       empspacing="2"
       originx="-3"
       originy="-3.0000174" />
    <sodipodi:guide
       position="0,14.999983"
       orientation="0,1"
       id="guide4140"
       inkscape:label="Icon Max Height"
       inkscape:color="rgb(233,30,99)" />
    <sodipodi:guide
       position="0,0.9999826"
       orientation="0,1"
       id="guide4142"
       inkscape:label="Icon Baseline"
       inkscape:color="rgb(233,30,99)" />
    <sodipodi:guide
       position="8,-1.74e-05"
       orientation="1,0"
       id="guide4144"
       inkscape:label="Center Vertical"
       inkscape:color="rgb(221,44,0)" />
    <sodipodi:guide
       position="16,7.9999826"
       orientation="0,1"
       id="guide4146"
       inkscape:label="Center Horizontal"
       inkscape:color="rgb(221,44,0)" />
  </sodipodi:namedview>
  <metadata
     id="metadata7">
    <rdf:RDF>
      <cc:Work
         rdf:about="">
        <dc:format>image/svg+xml</dc:format>
        <dc:type
           rdf:resource="http://purl.org/dc/dcmitype/StillImage" />
        <dc:title />
      </cc:Work>
    </rdf:RDF>
  </metadata>
  <g
     inkscape:label="Capa 1"
     inkscape:groupmode="layer"
     id="layer1"
     transform="translate(-3,-1033.3622)">
    <path
       style="fill:currentColor;fill-opacity:1;stroke:none" class="ColorScheme-Text"
       d="M 11 0 C 9.8919807 0 9 0.89198072 9 2 L 9 13 C 9 14.108019 9.8919807 15 11 15 L 14 15 C 15.108019 15 16 14.108019 16 13 L 16 2 C 16 0.89198072 15.108019 0 14 0 L 11 0 z M 11 1 L 14 1 C 14.554019 1 15 1.4459807 15 2 L 15 13 C 15 13.554019 14.554019 14 14 14 L 11 14 C 10.445981 14 10 13.554019 10 13 L 10 2 C 10 1.4459807 10.445981 1 11 1 z M 2 3 C 0.8919807 3 0 3.892 0 5 L 0 11 C 0 12.108 0.8919807 13 2 13 L 6 13 L 6 14 L 5 15 L 9 15 L 8 14 L 8 13 L 8 12 L 2 12 C 1.4459807 12 1 11.554 1 11 L 1 5 C 1 4.446 1.4459807 4 2 4 L 8 4 L 8 3 L 2 3 z M 11 3 L 11 4 L 14 4 L 14 3 L 11 3 z M 11 5 L 11 6 L 14 6 L 14 5 L 11 5 z M 13.5 8 A 0.5 0.5 0 0 0 13 8.5 A 0.5 0.5 0 0 0 13.5 9 A 0.5 0.5 0 0 0 14 8.5 A 0.5 0.5 0 0 0 13.5 8 z "
       transform="translate(3,1033.3622)"
       id="rect4140" />
  </g>
</svg>
