<?xml version="1.0" encoding="UTF-8" standalone="no"?>
<!-- Created with Inkscape (http://www.inkscape.org/) -->

<svg
   xmlns:dc="http://purl.org/dc/elements/1.1/"
   xmlns:cc="http://creativecommons.org/ns#"
   xmlns:rdf="http://www.w3.org/1999/02/22-rdf-syntax-ns#"
   xmlns:svg="http://www.w3.org/2000/svg"
   xmlns="http://www.w3.org/2000/svg"
   xmlns:sodipodi="http://sodipodi.sourceforge.net/DTD/sodipodi-0.dtd"
   xmlns:inkscape="http://www.inkscape.org/namespaces/inkscape"
   width="16"
   height="16"
   viewBox="0 0 16 16"
   id="svg2"
   version="1.1"
   inkscape:version="0.92.3 (unknown)"
   sodipodi:docname="maui-buho.svg">
  <defs
     id="defs3051">
    <style
       type="text/css"
       id="current-color-scheme">
    .ColorScheme-Text {
    color:#4d4d4d;
    }
    </style>
  </defs>
  <sodipodi:namedview
     id="base"
     pagecolor="#ffffff"
     bordercolor="#666666"
     borderopacity="1.0"
     inkscape:pageopacity="0.0"
     inkscape:pageshadow="2"
     inkscape:zoom="77.8125"
     inkscape:cx="6.560643"
     inkscape:cy="8.8096386"
     inkscape:document-units="px"
     inkscape:current-layer="layer1"
     showgrid="true"
     units="px"
     inkscape:showpageshadow="false"
     borderlayer="true"
     showguides="true"
     inkscape:guide-bbox="true"
     inkscape:window-width="2560"
     inkscape:window-height="1384"
     inkscape:window-x="0"
     inkscape:window-y="32"
     inkscape:window-maximized="1"
     fit-margin-top="0"
     fit-margin-left="0"
     fit-margin-right="0"
     fit-margin-bottom="0">
    <inkscape:grid
       type="xygrid"
       id="grid4136"
       empspacing="2"
       originx="-3"
       originy="-3.0000174" />
    <sodipodi:guide
       position="0,14.999983"
       orientation="0,1"
       id="guide4140"
       inkscape:label="Icon Max Height"
       inkscape:color="rgb(233,30,99)"
       inkscape:locked="false" />
    <sodipodi:guide
       position="0,0.9999826"
       orientation="0,1"
       id="guide4142"
       inkscape:label="Icon Baseline"
       inkscape:color="rgb(233,30,99)"
       inkscape:locked="false" />
    <sodipodi:guide
       position="8,-1.74e-05"
       orientation="1,0"
       id="guide4144"
       inkscape:label="Center Vertical"
       inkscape:color="rgb(221,44,0)"
       inkscape:locked="false" />
    <sodipodi:guide
       position="17,7.9999826"
       orientation="0,1"
       id="guide4146"
       inkscape:label="Center Horizontal"
       inkscape:color="rgb(221,44,0)"
       inkscape:locked="false" />
  </sodipodi:namedview>
  <metadata
     id="metadata7">
    <rdf:RDF>
      <cc:Work
         rdf:about="">
        <dc:format>image/svg+xml</dc:format>
        <dc:type
           rdf:resource="http://purl.org/dc/dcmitype/StillImage" />
        <dc:title />
      </cc:Work>
    </rdf:RDF>
  </metadata>
  <g
     inkscape:label="Capa 1"
     inkscape:groupmode="layer"
     id="layer1"
     transform="translate(-3,-1033.3622)">
    <path
       style="fill:currentColor;fill-opacity:1;stroke:none" class="ColorScheme-Text"
       d="M 4 1 C 2.8919807 1 2 1.892 2 3 L 2 13 C 2 14.108 2.8919807 15 4 15 L 12 15 C 13.108019 15 14 14.108 14 13 L 14 3 C 14 1.892 13.108019 1 12 1 L 4 1 z M 4 2 L 12 2 C 12.09908 2 12.189055 2.0296406 12.279297 2.0566406 C 12.373626 2.0844442 12.456764 2.1251889 12.537109 2.1777344 C 12.555234 2.1891297 12.572536 2.200429 12.589844 2.2128906 C 12.653872 2.2608647 12.71096 2.3113194 12.761719 2.3730469 C 12.79541 2.4121131 12.820495 2.4559315 12.847656 2.5 C 12.877139 2.5498948 12.909113 2.595356 12.929688 2.6503906 C 12.971965 2.758918 13 2.8747996 13 3 L 13 5 L 13 6 L 3 6 L 3 5 L 3 3 C 3 2.8615 3.027658 2.729075 3.078125 2.609375 C 3.1240246 2.5004854 3.194112 2.4071882 3.2734375 2.3222656 C 3.2942965 2.2998806 3.3170175 2.2821033 3.3398438 2.2617188 C 3.4057643 2.2028332 3.4766373 2.153123 3.5566406 2.1132812 C 3.587354 2.0979197 3.6160007 2.0825082 3.6484375 2.0703125 C 3.7584663 2.0289712 3.8751591 2 4 2 z M 3 7 L 13 7 L 13 9 L 3 9 L 3 7 z M 3 10 L 13 10 L 13 12 L 3 12 L 3 10 z M 3 13 L 13 13 C 13 13.138504 12.972345 13.270903 12.921875 13.390625 C 12.921875 13.390625 12.921875 13.392578 12.921875 13.392578 C 12.770401 13.75607 12.415283 14.013875 12 14 L 4 14 C 3.4459834 14 3 13.554017 3 13 z "
       transform="translate(3,1033.3622)"
       id="rect3198" />
  </g>
</svg>
