<?xml version="1.0" encoding="UTF-8" standalone="no"?>
<!-- Created with Inkscape (http://www.inkscape.org/) -->

<svg
   xmlns:dc="http://purl.org/dc/elements/1.1/"
   xmlns:cc="http://creativecommons.org/ns#"
   xmlns:rdf="http://www.w3.org/1999/02/22-rdf-syntax-ns#"
   xmlns:svg="http://www.w3.org/2000/svg"
   xmlns="http://www.w3.org/2000/svg"
   xmlns:sodipodi="http://sodipodi.sourceforge.net/DTD/sodipodi-0.dtd"
   xmlns:inkscape="http://www.inkscape.org/namespaces/inkscape"
   width="16"
   height="16"
   viewBox="0 0 16 16"
   id="svg2"
   version="1.1"
   inkscape:version="0.92.3 (2405546, 2018-03-11)"
   sodipodi:docname="qbittorrent_16.svg">
  <defs
     id="defs3051">
    <style
       type="text/css"
       id="current-color-scheme">
    .ColorScheme-Text {
    color:#4d4d4d;
    }
    </style>
  </defs>
  <sodipodi:namedview
     id="base"
     pagecolor="#ffffff"
     bordercolor="#666666"
     borderopacity="1.0"
     inkscape:pageopacity="0.0"
     inkscape:pageshadow="2"
     inkscape:zoom="17.014757"
     inkscape:cx="-2.6866353"
     inkscape:cy="8.7584431"
     inkscape:document-units="px"
     inkscape:current-layer="layer1"
     showgrid="true"
     units="px"
     inkscape:showpageshadow="false"
     borderlayer="true"
     showguides="true"
     inkscape:guide-bbox="true"
     inkscape:window-width="1366"
     inkscape:window-height="706"
     inkscape:window-x="0"
     inkscape:window-y="32"
     inkscape:window-maximized="1"
     fit-margin-top="0"
     fit-margin-left="0"
     fit-margin-right="0"
     fit-margin-bottom="0">
    <inkscape:grid
       type="xygrid"
       id="grid4136"
       empspacing="2"
       originx="-3"
       originy="-3.0000174" />
    <sodipodi:guide
       position="0,14.999983"
       orientation="0,1"
       id="guide4140"
       inkscape:label="Icon Max Height"
       inkscape:color="rgb(233,30,99)"
       inkscape:locked="false" />
    <sodipodi:guide
       position="0,0.9999826"
       orientation="0,1"
       id="guide4142"
       inkscape:label="Icon Baseline"
       inkscape:color="rgb(233,30,99)"
       inkscape:locked="false" />
    <sodipodi:guide
       position="8,-1.74e-05"
       orientation="1,0"
       id="guide4144"
       inkscape:label="Center Vertical"
       inkscape:color="rgb(221,44,0)"
       inkscape:locked="false" />
    <sodipodi:guide
       position="16,7.9999826"
       orientation="0,1"
       id="guide4146"
       inkscape:label="Center Horizontal"
       inkscape:color="rgb(221,44,0)"
       inkscape:locked="false" />
  </sodipodi:namedview>
  <metadata
     id="metadata7">
    <rdf:RDF>
      <cc:Work
         rdf:about="">
        <dc:format>image/svg+xml</dc:format>
        <dc:type
           rdf:resource="http://purl.org/dc/dcmitype/StillImage" />
        <dc:title />
      </cc:Work>
    </rdf:RDF>
  </metadata>
  <g
     inkscape:label="Capa 1"
     inkscape:groupmode="layer"
     id="layer1"
     transform="translate(-3,-1033.3622)">
    <path
       id="rect826-3"
       style="fill:currentColor;fill-opacity:1;stroke:none" class="ColorScheme-Text"
       d="m 14,1043.362 c 0.8224,0 1.5,-0.6777 1.5,-1.5 v -1 c 0,-0.8224 -0.6776,-1.5 -1.5,-1.5 h -1 c -0.1756,0 -0.3428,0.037 -0.5,0.094 v -2.0938 h -1 v 3.5 1 1.5 h 1 v -0.092 c 0.1572,0.057 0.3244,0.092 0.5,0.092 z m 0,-1 h -1 c -0.2856,0 -0.5,-0.2144 -0.5,-0.5 v -1 c 0,-0.2857 0.2144,-0.5 0.5,-0.5 h 1 c 0.2856,0 0.5,0.2143 0.5,0.5 v 1 c 0,0.2856 -0.2144,0.5 -0.5,0.5 z m -6,-2.9996 c -0.8223514,0 -1.5,0.6777 -1.5,1.5 v 1 c 0,0.8224 0.6776486,1.5 1.5,1.5 h 1 c 0.1756317,0 0.3427609,-0.037 0.5,-0.094 v 2.0938 h 1 v -3.5 -1 -1.5 h -1 v 0.092 c -0.1572391,-0.057 -0.3243683,-0.092 -0.5,-0.092 z m 0,1 h 1 c 0.2856486,0 0.5,0.2144 0.5,0.5 v 1 c 0,0.2857 -0.2143514,0.5 -0.5,0.5 H 8 c -0.2856486,0 -0.5,-0.2143 -0.5,-0.5 v -1 c 0,-0.2856 0.2143514,-0.5 0.5,-0.5 z m 3,-6.0011 c -3.8600709,0 -7,3.14 -7,7 0,3.8601 3.1399291,7 7,7 3.860071,0 7,-3.1399 7,-7 0,-3.86 -3.139929,-7 -7,-7 z m 0,1 c 3.319631,0 6,2.6804 6,6 0,3.3197 -2.680369,6 -6,6 -3.3196308,0 -6,-2.6803 -6,-6 0,-3.3196 2.6803692,-6 6,-6 z" />
  </g>
</svg>
