<?xml version="1.0" encoding="UTF-8" standalone="no"?>
<!-- Created with Inkscape (http://www.inkscape.org/) -->

<svg
   xmlns:dc="http://purl.org/dc/elements/1.1/"
   xmlns:cc="http://creativecommons.org/ns#"
   xmlns:rdf="http://www.w3.org/1999/02/22-rdf-syntax-ns#"
   xmlns:svg="http://www.w3.org/2000/svg"
   xmlns="http://www.w3.org/2000/svg"
   xmlns:sodipodi="http://sodipodi.sourceforge.net/DTD/sodipodi-0.dtd"
   xmlns:inkscape="http://www.inkscape.org/namespaces/inkscape"
   width="16"
   height="16"
   viewBox="0 0 16 16"
   id="svg2"
   version="1.1"
   inkscape:version="0.91 r13725"
   sodipodi:docname="system-log-out.svg">
<defs
    id="defs3051">
<style
    type="text/css"
    id="current-color-scheme">
    .ColorScheme-Text {
    color:#4d4d4d;
    }
    </style>
</defs>
  <sodipodi:namedview
     id="base"
     pagecolor="#ffffff"
     bordercolor="#666666"
     borderopacity="1.0"
     inkscape:pageopacity="0.0"
     inkscape:pageshadow="2"
     inkscape:zoom="26.40625"
     inkscape:cx="8.4850038"
     inkscape:cy="9.6758398"
     inkscape:document-units="px"
     inkscape:current-layer="layer1"
     showgrid="true"
     units="px"
     inkscape:showpageshadow="false"
     borderlayer="true"
     showguides="true"
     inkscape:guide-bbox="true"
     inkscape:window-width="2560"
     inkscape:window-height="1050"
     inkscape:window-x="0"
     inkscape:window-y="0"
     inkscape:window-maximized="1"
     fit-margin-top="0"
     fit-margin-left="0"
     fit-margin-right="0"
     fit-margin-bottom="0">
    <inkscape:grid
       type="xygrid"
       id="grid4136"
       empspacing="2"
       originx="-3"
       originy="-3.0000174" />
    <sodipodi:guide
       position="0,14.999983"
       orientation="0,1"
       id="guide4140"
       inkscape:label="Icon Max Height"
       inkscape:color="rgb(233,30,99)" />
    <sodipodi:guide
       position="0,0.9999826"
       orientation="0,1"
       id="guide4142"
       inkscape:label="Icon Baseline"
       inkscape:color="rgb(233,30,99)" />
    <sodipodi:guide
       position="8,-1.74e-05"
       orientation="1,0"
       id="guide4144"
       inkscape:label="Center Vertical"
       inkscape:color="rgb(221,44,0)" />
    <sodipodi:guide
       position="16,7.9999826"
       orientation="0,1"
       id="guide4146"
       inkscape:label="Center Horizontal"
       inkscape:color="rgb(221,44,0)" />
  </sodipodi:namedview>
  <metadata
     id="metadata7">
    <rdf:RDF>
      <cc:Work
         rdf:about="">
        <dc:format>image/svg+xml</dc:format>
        <dc:type
           rdf:resource="http://purl.org/dc/dcmitype/StillImage" />
        <dc:title />
      </cc:Work>
    </rdf:RDF>
  </metadata>
  <g
     inkscape:label="Capa 1"
     inkscape:groupmode="layer"
     id="layer1"
     transform="translate(-3,-1033.3622)">
    <path
       style="fill:currentColor;fill-opacity:1;stroke:none" class="ColorScheme-Text"
       d="M 13.564453 1.0039062 C 13.259415 0.96090625 12.942547 1.2156719 12.998047 1.5761719 L 12.998047 3 L 10.5 3 C 10.290404 3 10.113563 3.1287469 10.039062 3.3105469 C 10.015183 3.3688469 10 3.433 10 3.5 C 10.00053 3.5676 10.014302 3.6304531 10.039062 3.6894531 C 10.113562 3.8712531 10.290404 3.9980469 10.5 3.9980469 L 12.998047 3.9980469 L 12.998047 5.4238281 C 12.924047 5.9042281 13.512766 6.1949031 13.851562 5.8457031 L 15.828125 3.875 L 15.849609 3.8535156 C 15.867499 3.8355156 15.875735 3.8129687 15.890625 3.7929688 C 15.914685 3.7609688 15.941041 3.7323125 15.957031 3.6953125 C 15.974621 3.6541125 15.979928 3.6104063 15.986328 3.5664062 C 15.989428 3.5444062 15.999931 3.5249531 16 3.5019531 C 15.99993 3.4789531 15.989428 3.4595 15.986328 3.4375 C 15.979928 3.3934 15.974621 3.3495937 15.957031 3.3085938 C 15.941031 3.2715937 15.914685 3.2429375 15.890625 3.2109375 C 15.875735 3.1909375 15.867499 3.1673906 15.849609 3.1503906 L 15.828125 3.1269531 L 13.851562 1.15625 C 13.766863 1.06865 13.666133 1.0218125 13.564453 1.0078125 L 13.564453 1.0039062 z M 8 5 C 6.3431458 5 5 6.3431458 5 8 C 5 9.6568542 6.3431458 11 8 11 C 9.6568542 11 11 9.6568542 11 8 C 11 6.3431458 9.6568542 5 8 5 z M 8 6 C 9.1045695 6 10 6.8954305 10 8 C 10 9.1045695 9.1045695 10 8 10 C 6.8954305 10 6 9.1045695 6 8 C 6 6.8954305 6.8954305 6 8 6 z M 5 12 C 3.892 12 3 12.892 3 14 L 3 15 L 4 15 L 4 14 C 4 13.445981 4.4459807 13 5 13 L 11 13 C 11.554019 13 12 13.445981 12 14 L 12 15 L 13 15 L 13 14 C 13 12.892 12.108 12 11 12 L 5 12 z "
       transform="translate(3,1033.3622)"
       id="rect4140" />
  </g>
</svg>
