<?xml version="1.0" encoding="UTF-8" standalone="no"?>
<!-- Created with Inkscape (http://www.inkscape.org/) -->

<svg
   xmlns:dc="http://purl.org/dc/elements/1.1/"
   xmlns:cc="http://creativecommons.org/ns#"
   xmlns:rdf="http://www.w3.org/1999/02/22-rdf-syntax-ns#"
   xmlns:svg="http://www.w3.org/2000/svg"
   xmlns="http://www.w3.org/2000/svg"
   xmlns:sodipodi="http://sodipodi.sourceforge.net/DTD/sodipodi-0.dtd"
   xmlns:inkscape="http://www.inkscape.org/namespaces/inkscape"
   width="16"
   height="16"
   viewBox="0 0 16 16"
   id="svg2"
   version="1.1"
   inkscape:version="0.92.3 (unknown)"
   sodipodi:docname="ark.svg">
  <defs
     id="defs3051">
    <style
       type="text/css"
       id="current-color-scheme">
    .ColorScheme-Text {
    color:#4d4d4d;
    }
    </style>
  </defs>
  <sodipodi:namedview
     id="base"
     pagecolor="#ffffff"
     bordercolor="#666666"
     borderopacity="1.0"
     inkscape:pageopacity="0.0"
     inkscape:pageshadow="2"
     inkscape:zoom="77.8125"
     inkscape:cx="8.6040165"
     inkscape:cy="8.8096386"
     inkscape:document-units="px"
     inkscape:current-layer="layer1"
     showgrid="true"
     units="px"
     inkscape:showpageshadow="false"
     borderlayer="true"
     showguides="true"
     inkscape:guide-bbox="true"
     inkscape:window-width="2560"
     inkscape:window-height="1384"
     inkscape:window-x="0"
     inkscape:window-y="32"
     inkscape:window-maximized="1"
     fit-margin-top="0"
     fit-margin-left="0"
     fit-margin-right="0"
     fit-margin-bottom="0">
    <inkscape:grid
       type="xygrid"
       id="grid4136"
       empspacing="2"
       originx="-3"
       originy="-3.0000174" />
    <sodipodi:guide
       position="0,14.999983"
       orientation="0,1"
       id="guide4140"
       inkscape:label="Icon Max Height"
       inkscape:color="rgb(233,30,99)"
       inkscape:locked="false" />
    <sodipodi:guide
       position="0,0.9999826"
       orientation="0,1"
       id="guide4142"
       inkscape:label="Icon Baseline"
       inkscape:color="rgb(233,30,99)"
       inkscape:locked="false" />
    <sodipodi:guide
       position="8,-1.74e-05"
       orientation="1,0"
       id="guide4144"
       inkscape:label="Center Vertical"
       inkscape:color="rgb(221,44,0)"
       inkscape:locked="false" />
    <sodipodi:guide
       position="17,7.9999826"
       orientation="0,1"
       id="guide4146"
       inkscape:label="Center Horizontal"
       inkscape:color="rgb(221,44,0)"
       inkscape:locked="false" />
  </sodipodi:namedview>
  <metadata
     id="metadata7">
    <rdf:RDF>
      <cc:Work
         rdf:about="">
        <dc:format>image/svg+xml</dc:format>
        <dc:type
           rdf:resource="http://purl.org/dc/dcmitype/StillImage" />
        <dc:title />
      </cc:Work>
    </rdf:RDF>
  </metadata>
  <g
     inkscape:label="Capa 1"
     inkscape:groupmode="layer"
     id="layer1"
     transform="translate(-3,-1033.3622)">
    <path
       style="fill:currentColor;fill-opacity:1;stroke:none" class="ColorScheme-Text"
       d="M 7 2 C 6.445981 2 6 2.446 6 3 L 6 4 L 4 4 C 3.4459807 4 3 4.446 3 5 L 3 6.2753906 C 2.404201 6.6209515 2 7.2589301 2 8 L 2 10 L 2 13 C 2 14.108 2.8919807 15 4 15 L 12 15 C 13.108019 15 13.977844 14.1078 14 13 L 14 10 L 14 9 L 14 8 C 14 6.892 13.108019 6 12 6 L 12 5 L 12 3 C 12 2.446 11.554019 2 11 2 L 7 2 z M 7 3 L 11 3 L 11 5 L 11 6 L 10 6 L 9 6 L 9 5 C 9 4.446 8.554019 4 8 4 L 7 4 L 7 3 z M 4 5 L 8 5 L 8 6 L 6 6 L 4 6 L 4 5 z M 4 7 L 6 7 L 6 9 L 7 9 L 7 10 L 7 11 L 6 11 L 6 13 L 8 13 L 8 12 L 8 11 L 9 11 L 9 10 L 9 9 L 8 9 L 8 7 L 9 7 L 10 7 L 12 7 C 12.554019 7 13 7.446 13 8 L 13 10 L 13 13 C 13 13.554 12.554019 14 12 14 L 4 14 C 3.4459807 14 3 13.554 3 13 L 3 10 L 3 8 C 3 7.446 3.4466718 6.9723 4 7 z "
       transform="translate(3,1033.3622)"
       id="path827" />
  </g>
</svg>
