<?xml version="1.0" encoding="UTF-8" standalone="no"?>
<!-- Created with Inkscape (http://www.inkscape.org/) -->

<svg
   xmlns:dc="http://purl.org/dc/elements/1.1/"
   xmlns:cc="http://creativecommons.org/ns#"
   xmlns:rdf="http://www.w3.org/1999/02/22-rdf-syntax-ns#"
   xmlns:svg="http://www.w3.org/2000/svg"
   xmlns="http://www.w3.org/2000/svg"
   xmlns:sodipodi="http://sodipodi.sourceforge.net/DTD/sodipodi-0.dtd"
   xmlns:inkscape="http://www.inkscape.org/namespaces/inkscape"
   width="16"
   height="16"
   viewBox="0 0 16 16"
   id="svg2"
   version="1.1"
   inkscape:version="0.91 r13725"
   sodipodi:docname="xorg.svg">
<defs
    id="defs3051">
<style
    type="text/css"
    id="current-color-scheme">
    .ColorScheme-Text {
    color:#4d4d4d;
    }
    </style>
</defs>
  <sodipodi:namedview
     id="base"
     pagecolor="#ffffff"
     bordercolor="#666666"
     borderopacity="1.0"
     inkscape:pageopacity="0.0"
     inkscape:pageshadow="2"
     inkscape:zoom="34.029514"
     inkscape:cx="9.5397076"
     inkscape:cy="8.7584431"
     inkscape:document-units="px"
     inkscape:current-layer="layer1"
     showgrid="true"
     units="px"
     inkscape:showpageshadow="false"
     borderlayer="true"
     showguides="true"
     inkscape:guide-bbox="true"
     inkscape:window-width="2496"
     inkscape:window-height="956"
     inkscape:window-x="0"
     inkscape:window-y="0"
     inkscape:window-maximized="1"
     fit-margin-top="0"
     fit-margin-left="0"
     fit-margin-right="0"
     fit-margin-bottom="0">
    <inkscape:grid
       type="xygrid"
       id="grid4136"
       empspacing="2"
       originx="-3"
       originy="-3.0000174" />
    <sodipodi:guide
       position="0,14.999983"
       orientation="0,1"
       id="guide4140"
       inkscape:label="Icon Max Height"
       inkscape:color="rgb(233,30,99)" />
    <sodipodi:guide
       position="0,0.9999826"
       orientation="0,1"
       id="guide4142"
       inkscape:label="Icon Baseline"
       inkscape:color="rgb(233,30,99)" />
    <sodipodi:guide
       position="8,-1.74e-05"
       orientation="1,0"
       id="guide4144"
       inkscape:label="Center Vertical"
       inkscape:color="rgb(221,44,0)" />
    <sodipodi:guide
       position="16,7.9999826"
       orientation="0,1"
       id="guide4146"
       inkscape:label="Center Horizontal"
       inkscape:color="rgb(221,44,0)" />
  </sodipodi:namedview>
  <metadata
     id="metadata7">
    <rdf:RDF>
      <cc:Work
         rdf:about="">
        <dc:format>image/svg+xml</dc:format>
        <dc:type
           rdf:resource="http://purl.org/dc/dcmitype/StillImage" />
        <dc:title />
      </cc:Work>
    </rdf:RDF>
  </metadata>
  <g
     inkscape:label="Capa 1"
     inkscape:groupmode="layer"
     id="layer1"
     transform="translate(-3,-1033.3622)">
    <path
       style="fill:currentColor;fill-opacity:1;stroke:none"
       class="ColorScheme-Text"
       d="M 1 1 L 3.7050781 4.7871094 A 8 5 0 0 0 0 9 A 8 5 0 0 0 2.7558594 12.767578 L 1 15 L 2 15 L 3.4785156 13.117188 A 8 5 0 0 0 8 14 A 8 5 0 0 0 10.150391 13.810547 L 11 15 L 15 15 L 13.359375 12.705078 A 8 5 0 0 0 16 9 A 8 5 0 0 0 12.082031 4.7128906 L 15 1 L 14 1 L 9.2851562 7 L 7.1914062 9.6660156 L 7.6660156 10.333984 L 7.6679688 10.332031 L 9.5292969 12.939453 A 6.5 4.5 0 0 1 8.5 13 A 6.5 4.5 0 0 1 4.3769531 11.974609 L 8.8085938 6.3339844 L 8.3339844 5.6660156 L 8.3320312 5.6679688 L 7.2109375 4.0976562 A 6.5 4.5 0 0 1 8.2226562 4.0078125 A 8 5 0 0 0 8 4 A 8 5 0 0 0 7.1621094 4.0292969 L 5 1 L 1 1 z M 12.060547 4.7421875 A 6.5 4.5 0 0 1 15 8.5 A 6.5 4.5 0 0 1 12.773438 11.882812 L 9.7617188 7.6660156 L 12.060547 4.7421875 z M 4.0292969 5.2402344 L 6.2382812 8.3339844 L 3.71875 11.541016 A 6.5 4.5 0 0 1 2 8.5 A 6.5 4.5 0 0 1 4.0292969 5.2402344 z "
       transform="translate(3,1033.3622)"
       id="path4167" />
  </g>
</svg>
