<?xml version="1.0" encoding="UTF-8" standalone="no"?>
<!-- Created with Inkscape (http://www.inkscape.org/) -->

<svg
   xmlns:dc="http://purl.org/dc/elements/1.1/"
   xmlns:cc="http://creativecommons.org/ns#"
   xmlns:rdf="http://www.w3.org/1999/02/22-rdf-syntax-ns#"
   xmlns:svg="http://www.w3.org/2000/svg"
   xmlns="http://www.w3.org/2000/svg"
   xmlns:sodipodi="http://sodipodi.sourceforge.net/DTD/sodipodi-0.dtd"
   xmlns:inkscape="http://www.inkscape.org/namespaces/inkscape"
   width="22"
   height="22"
   viewBox="0 0 22 22"
   id="svg2"
   version="1.1"
   inkscape:version="0.92.3 (unknown)"
   sodipodi:docname="folder-pictures.svg">
  <defs
     id="defs3051">
    <style
       type="text/css"
       id="current-color-scheme">
    .ColorScheme-Text {
    color:#4d4d4d;
    }
    </style>
  </defs>
  <sodipodi:namedview
     id="base"
     pagecolor="#ffffff"
     bordercolor="#666666"
     borderopacity="1.0"
     inkscape:pageopacity="0.0"
     inkscape:pageshadow="2"
     inkscape:zoom="64"
     inkscape:cx="10.589844"
     inkscape:cy="8.0654896"
     inkscape:document-units="px"
     inkscape:current-layer="layer1"
     showgrid="true"
     units="px"
     inkscape:showpageshadow="false"
     borderlayer="true"
     showguides="true"
     inkscape:guide-bbox="true"
     inkscape:window-width="2560"
     inkscape:window-height="1378"
     inkscape:window-x="0"
     inkscape:window-y="32"
     inkscape:window-maximized="1">
    <inkscape:grid
       type="xygrid"
       id="grid4136"
       empspacing="2" />
    <sodipodi:guide
       position="0,20"
       orientation="0,1"
       id="guide4140"
       inkscape:label="Icon Max Height"
       inkscape:color="rgb(233,30,99)"
       inkscape:locked="false" />
    <sodipodi:guide
       position="0,2"
       orientation="0,1"
       id="guide4142"
       inkscape:label="Icon Baseline"
       inkscape:color="rgb(233,30,99)"
       inkscape:locked="false" />
    <sodipodi:guide
       position="11,0"
       orientation="1,0"
       id="guide4144"
       inkscape:label="Center Vertical"
       inkscape:color="rgb(221,44,0)"
       inkscape:locked="false" />
    <sodipodi:guide
       position="15,11"
       orientation="0,1"
       id="guide4146"
       inkscape:label="Center Horizontal"
       inkscape:color="rgb(221,44,0)"
       inkscape:locked="false" />
  </sodipodi:namedview>
  <metadata
     id="metadata7">
    <rdf:RDF>
      <cc:Work
         rdf:about="">
        <dc:format>image/svg+xml</dc:format>
        <dc:type
           rdf:resource="http://purl.org/dc/dcmitype/StillImage" />
        <dc:title />
      </cc:Work>
    </rdf:RDF>
  </metadata>
  <g
     inkscape:label="Capa 1"
     inkscape:groupmode="layer"
     id="layer1"
     transform="translate(0,-1030.3622)">
    <path
       inkscape:connector-curvature="0"
       style="fill:currentColor;fill-opacity:1;stroke:none" class="ColorScheme-Text"
       d="m 4,1033.3622 c -1.107993,0 -2,0.892 -2,2 v 12 c 0,1.108 0.892007,2 2,2 h 14 c 1.107993,0 2,-0.892 2,-2 v -12 c 0,-1.108 -0.892007,-2 -2,-2 z m 0,2 h 14 v 10.5859 l -2.292969,-2.2929 a 1.0001,1.0001 0 0 0 -1.414062,0 L 12,1045.9481 7.707031,1041.6552 a 1.0001,1.0001 0 0 0 -0.722656,-0.293 1.0001,1.0001 0 0 0 -0.691406,0.293 L 4,1043.9481 Z m 10.5,1 a 2.4999924,2.4999924 0 0 0 -2.5,2.5 2.4999924,2.4999924 0 0 0 2.5,2.5 2.4999924,2.4999924 0 0 0 2.5,-2.5 2.4999924,2.4999924 0 0 0 -2.5,-2.5 z m 0,2 a 0.49999237,0.49999237 0 0 1 0.5,0.5 0.49999237,0.49999237 0 0 1 -0.5,0.5 0.49999237,0.49999237 0 0 1 -0.5,-0.5 0.49999237,0.49999237 0 0 1 0.5,-0.5 z m -7.5,5.4141 3.585938,3.5859 H 4 v -0.5859 z m 8,2 1.585938,1.5859 h -3.171876 z"
       id="rect4229" />
  </g>
</svg>
