<?xml version="1.0" encoding="UTF-8" standalone="no"?>
<svg
   xmlns:dc="http://purl.org/dc/elements/1.1/"
   xmlns:cc="http://creativecommons.org/ns#"
   xmlns:rdf="http://www.w3.org/1999/02/22-rdf-syntax-ns#"
   xmlns:svg="http://www.w3.org/2000/svg"
   xmlns="http://www.w3.org/2000/svg"
   xmlns:sodipodi="http://sodipodi.sourceforge.net/DTD/sodipodi-0.dtd"
   xmlns:inkscape="http://www.inkscape.org/namespaces/inkscape"
   width="22"
   height="22"
   viewBox="0 0 22 22"
   id="svg2"
   version="1.1"
   inkscape:version="1.0.1 (3bc2e81, 2020-09-07)"
   sodipodi:docname="folder-templates.svg">
  <defs
     id="defs3051">
    <style
       type="text/css"
       id="current-color-scheme">
    .ColorScheme-Text {
    color:#4d4d4d;
    }
    </style>
  </defs>
  <sodipodi:namedview
     id="base"
     pagecolor="#ffffff"
     bordercolor="#666666"
     borderopacity="1.0"
     inkscape:pageopacity="0.0"
     inkscape:pageshadow="2"
     inkscape:zoom="10.727273"
     inkscape:cx="11"
     inkscape:cy="11"
     inkscape:document-units="px"
     inkscape:current-layer="layer1"
     showgrid="true"
     units="px"
     inkscape:showpageshadow="false"
     borderlayer="true"
     showguides="true"
     inkscape:guide-bbox="true"
     inkscape:window-width="1151"
     inkscape:window-height="450"
     inkscape:window-x="1409"
     inkscape:window-y="961"
     inkscape:window-maximized="1"
     inkscape:document-rotation="0">
    <inkscape:grid
       type="xygrid"
       id="grid4136"
       empspacing="2" />
    <sodipodi:guide
       position="0,20"
       orientation="0,1"
       id="guide4140"
       inkscape:label="Icon Max Height"
       inkscape:color="rgb(233,30,99)"
       inkscape:locked="false" />
    <sodipodi:guide
       position="0,2"
       orientation="0,1"
       id="guide4142"
       inkscape:label="Icon Baseline"
       inkscape:color="rgb(233,30,99)"
       inkscape:locked="false" />
    <sodipodi:guide
       position="11,0"
       orientation="1,0"
       id="guide4144"
       inkscape:label="Center Vertical"
       inkscape:color="rgb(221,44,0)"
       inkscape:locked="false" />
    <sodipodi:guide
       position="15,11"
       orientation="0,1"
       id="guide4146"
       inkscape:label="Center Horizontal"
       inkscape:color="rgb(221,44,0)"
       inkscape:locked="false" />
  </sodipodi:namedview>
  <metadata
     id="metadata7">
    <rdf:RDF>
      <cc:Work
         rdf:about="">
        <dc:format>image/svg+xml</dc:format>
        <dc:type
           rdf:resource="http://purl.org/dc/dcmitype/StillImage" />
        <dc:title></dc:title>
      </cc:Work>
    </rdf:RDF>
  </metadata>
  <g
     inkscape:label="Capa 1"
     inkscape:groupmode="layer"
     id="layer1"
     transform="translate(0,-1030.3622)">
    <path
       style="fill:currentColor;fill-opacity:1;stroke:none" class="ColorScheme-Text"
       d="m 9,1033.3622 a 1.0001,1.0001 0 0 0 -0.707031,0.293 l -3,3 A 1.0001,1.0001 0 0 0 5,1037.3622 v 1 10 a 1.0001,1.0001 0 0 0 1,1 h 4 v -2 H 7 v -8 h 3 a 1.0001,1.0001 0 0 0 1,-1 v -3 h 4 v 6 h 2 v -7 a 1.0001,1.0001 0 0 0 -1,-1 h -6 z m 0,2.416 v 1.584 H 7.414062 l 0.791016,-0.791 z m 6.5,6.584 a 0.49999234,0.5 0 0 0 -0.5,0.5 0.49999234,0.5 0 0 0 0.5,0.5 0.49999234,0.5 0 0 0 0.5,-0.5 0.49999234,0.5 0 0 0 -0.5,-0.5 z m 1,1 a 0.49999234,0.5 0 0 0 -0.5,0.5 0.49999234,0.5 0 0 0 0.5,0.5 0.49999234,0.5 0 0 0 0.5,-0.5 0.49999234,0.5 0 0 0 -0.5,-0.5 z m -1,1 a 0.49999234,0.5 0 0 0 -0.5,0.5 0.49999234,0.5 0 0 0 0.5,0.5 0.49999234,0.5 0 0 0 0.5,-0.5 0.49999234,0.5 0 0 0 -0.5,-0.5 z m 1,1 a 0.49999234,0.5 0 0 0 -0.5,0.5 0.49999234,0.5 0 0 0 0.5,0.5 0.49999234,0.5 0 0 0 0.5,-0.5 0.49999234,0.5 0 0 0 -0.5,-0.5 z m -1,1 a 0.49999234,0.5 0 0 0 -0.5,0.5 0.49999234,0.5 0 0 0 0.5,0.5 0.49999234,0.5 0 0 0 0.5,-0.5 0.49999234,0.5 0 0 0 -0.5,-0.5 z m -3,1 a 0.49999234,0.5 0 0 0 -0.5,0.5 0.49999234,0.5 0 0 0 0.5,0.5 0.49999234,0.5 0 0 0 0.5,-0.5 0.49999234,0.5 0 0 0 -0.5,-0.5 z m 2,0 a 0.49999234,0.5 0 0 0 -0.5,0.5 0.49999234,0.5 0 0 0 0.5,0.5 0.49999234,0.5 0 0 0 0.5,-0.5 0.49999234,0.5 0 0 0 -0.5,-0.5 z m 2,0 a 0.49999234,0.5 0 0 0 -0.5,0.5 0.49999234,0.5 0 0 0 0.5,0.5 0.49999234,0.5 0 0 0 0.5,-0.5 0.49999234,0.5 0 0 0 -0.5,-0.5 z m -5,1 a 0.49999234,0.5 0 0 0 -0.5,0.5 0.49999234,0.5 0 0 0 0.5,0.5 0.49999234,0.5 0 0 0 0.5,-0.5 0.49999234,0.5 0 0 0 -0.5,-0.5 z m 2,0 a 0.49999234,0.5 0 0 0 -0.5,0.5 0.49999234,0.5 0 0 0 0.5,0.5 0.49999234,0.5 0 0 0 0.5,-0.5 0.49999234,0.5 0 0 0 -0.5,-0.5 z m 2,0 a 0.49999234,0.5 0 0 0 -0.5,0.5 0.49999234,0.5 0 0 0 0.5,0.5 0.49999234,0.5 0 0 0 0.5,-0.5 0.49999234,0.5 0 0 0 -0.5,-0.5 z"
       id="path4167-3" />
  </g>
</svg>
