<?xml version="1.0" encoding="UTF-8" standalone="no"?>
<!-- Created with Inkscape (http://www.inkscape.org/) -->

<svg
   xmlns:dc="http://purl.org/dc/elements/1.1/"
   xmlns:cc="http://creativecommons.org/ns#"
   xmlns:rdf="http://www.w3.org/1999/02/22-rdf-syntax-ns#"
   xmlns:svg="http://www.w3.org/2000/svg"
   xmlns="http://www.w3.org/2000/svg"
   xmlns:sodipodi="http://sodipodi.sourceforge.net/DTD/sodipodi-0.dtd"
   xmlns:inkscape="http://www.inkscape.org/namespaces/inkscape"
   width="22"
   height="22"
   viewBox="0 0 22 22"
   id="svg2"
   version="1.1"
   inkscape:version="0.92.3 (unknown)"
   sodipodi:docname="folder-music.svg">
  <defs
     id="defs3051">
    <style
       type="text/css"
       id="current-color-scheme">
    .ColorScheme-Text {
    color:#4d4d4d;
    }
    </style>
  </defs>
  <sodipodi:namedview
     id="base"
     pagecolor="#ffffff"
     bordercolor="#666666"
     borderopacity="1.0"
     inkscape:pageopacity="0.0"
     inkscape:pageshadow="2"
     inkscape:zoom="64"
     inkscape:cx="13.597657"
     inkscape:cy="8.0654896"
     inkscape:document-units="px"
     inkscape:current-layer="layer1"
     showgrid="true"
     units="px"
     inkscape:showpageshadow="false"
     borderlayer="true"
     showguides="true"
     inkscape:guide-bbox="true"
     inkscape:window-width="2560"
     inkscape:window-height="1378"
     inkscape:window-x="0"
     inkscape:window-y="32"
     inkscape:window-maximized="1">
    <inkscape:grid
       type="xygrid"
       id="grid4136"
       empspacing="2" />
    <sodipodi:guide
       position="0,20"
       orientation="0,1"
       id="guide4140"
       inkscape:label="Icon Max Height"
       inkscape:color="rgb(233,30,99)"
       inkscape:locked="false" />
    <sodipodi:guide
       position="0,2"
       orientation="0,1"
       id="guide4142"
       inkscape:label="Icon Baseline"
       inkscape:color="rgb(233,30,99)"
       inkscape:locked="false" />
    <sodipodi:guide
       position="11,0"
       orientation="1,0"
       id="guide4144"
       inkscape:label="Center Vertical"
       inkscape:color="rgb(221,44,0)"
       inkscape:locked="false" />
    <sodipodi:guide
       position="15,11"
       orientation="0,1"
       id="guide4146"
       inkscape:label="Center Horizontal"
       inkscape:color="rgb(221,44,0)"
       inkscape:locked="false" />
  </sodipodi:namedview>
  <metadata
     id="metadata7">
    <rdf:RDF>
      <cc:Work
         rdf:about="">
        <dc:format>image/svg+xml</dc:format>
        <dc:type
           rdf:resource="http://purl.org/dc/dcmitype/StillImage" />
        <dc:title />
      </cc:Work>
    </rdf:RDF>
  </metadata>
  <g
     inkscape:label="Capa 1"
     inkscape:groupmode="layer"
     id="layer1"
     transform="translate(0,-1030.3622)">
    <path
       style="fill:currentColor;fill-opacity:1;stroke:none" class="ColorScheme-Text"
       d="M 16.970703 3 A 1.0001 1.0001 0 0 0 16.783203 3.0234375 L 7.7832031 5.0234375 A 1.0001 1.0001 0 0 0 7 6 L 7 14.054688 A 2.4999912 2.4999912 0 0 0 6.5 14 A 2.4999912 2.4999912 0 0 0 4 16.5 A 2.4999912 2.4999912 0 0 0 6.5 19 A 2.4999912 2.4999912 0 0 0 9 16.5 A 2.4999912 2.4999912 0 0 0 8.9941406 16.400391 L 9 16.400391 L 9 16.003906 A 1.0001 1.0001 0 0 0 9 16 L 9 9.8007812 L 16 8.2441406 L 16 12.054688 A 2.4999912 2.4999912 0 0 0 15.5 12 A 2.4999912 2.4999912 0 0 0 13 14.5 A 2.4999912 2.4999912 0 0 0 15.5 17 A 2.4999912 2.4999912 0 0 0 18 14.5 L 18 14.003906 A 1.0001 1.0001 0 0 0 18 14 L 18 12.5 L 18 4 A 1.0001 1.0001 0 0 0 16.970703 3 z M 16 5.2441406 L 16 6.1972656 L 9 7.7539062 L 9 6.8007812 L 16 5.2441406 z M 15.5 14 A 0.49999118 0.49999118 0 0 1 16 14.5 A 0.49999118 0.49999118 0 0 1 15.5 15 A 0.49999118 0.49999118 0 0 1 15 14.5 A 0.49999118 0.49999118 0 0 1 15.5 14 z M 6.5 16 A 0.49999118 0.49999118 0 0 1 7 16.5 A 0.49999118 0.49999118 0 0 1 6.5 17 A 0.49999118 0.49999118 0 0 1 6 16.5 A 0.49999118 0.49999118 0 0 1 6.5 16 z "
       transform="translate(0,1030.3622)"
       id="path4168" />
  </g>
</svg>
