<?xml version="1.0" encoding="UTF-8" standalone="no"?>
<!-- Created with Inkscape (http://www.inkscape.org/) -->

<svg
   xmlns:dc="http://purl.org/dc/elements/1.1/"
   xmlns:cc="http://creativecommons.org/ns#"
   xmlns:rdf="http://www.w3.org/1999/02/22-rdf-syntax-ns#"
   xmlns:svg="http://www.w3.org/2000/svg"
   xmlns="http://www.w3.org/2000/svg"
   xmlns:sodipodi="http://sodipodi.sourceforge.net/DTD/sodipodi-0.dtd"
   xmlns:inkscape="http://www.inkscape.org/namespaces/inkscape"
   width="22"
   height="22"
   viewBox="0 0 22 22"
   id="svg2"
   version="1.1"
   inkscape:version="0.92.3 (unknown)"
   sodipodi:docname="network-workgroup.svg">
  <defs
     id="defs3051">
    <style
       type="text/css"
       id="current-color-scheme">
    .ColorScheme-Text {
    color:#4d4d4d;
    }
    </style>
  </defs>
  <sodipodi:namedview
     id="base"
     pagecolor="#ffffff"
     bordercolor="#666666"
     borderopacity="1.0"
     inkscape:pageopacity="0.0"
     inkscape:pageshadow="2"
     inkscape:zoom="32"
     inkscape:cx="8.440551"
     inkscape:cy="11.209403"
     inkscape:document-units="px"
     inkscape:current-layer="layer1"
     showgrid="true"
     units="px"
     inkscape:showpageshadow="false"
     borderlayer="true"
     showguides="true"
     inkscape:guide-bbox="true"
     inkscape:window-width="2560"
     inkscape:window-height="1384"
     inkscape:window-x="0"
     inkscape:window-y="32"
     inkscape:window-maximized="1">
    <inkscape:grid
       type="xygrid"
       id="grid4136"
       empspacing="2" />
    <sodipodi:guide
       position="0,20"
       orientation="0,1"
       id="guide4140"
       inkscape:label="Icon Max Height"
       inkscape:color="rgb(233,30,99)"
       inkscape:locked="false" />
    <sodipodi:guide
       position="0,2"
       orientation="0,1"
       id="guide4142"
       inkscape:label="Icon Baseline"
       inkscape:color="rgb(233,30,99)"
       inkscape:locked="false" />
    <sodipodi:guide
       position="11,0"
       orientation="1,0"
       id="guide4144"
       inkscape:label="Center Vertical"
       inkscape:color="rgb(221,44,0)"
       inkscape:locked="false" />
    <sodipodi:guide
       position="15,11"
       orientation="0,1"
       id="guide4146"
       inkscape:label="Center Horizontal"
       inkscape:color="rgb(221,44,0)"
       inkscape:locked="false" />
  </sodipodi:namedview>
  <metadata
     id="metadata7">
    <rdf:RDF>
      <cc:Work
         rdf:about="">
        <dc:format>image/svg+xml</dc:format>
        <dc:type
           rdf:resource="http://purl.org/dc/dcmitype/StillImage" />
        <dc:title />
      </cc:Work>
    </rdf:RDF>
  </metadata>
  <g
     inkscape:label="Capa 1"
     inkscape:groupmode="layer"
     id="layer1"
     transform="translate(0,-1030.3622)">
    <path
       inkscape:connector-curvature="0"
       style="fill:currentColor;fill-opacity:1;stroke:none" class="ColorScheme-Text"
       d="m 5,1033.3622 c -1.107993,0 -2,0.892 -2,2 v 2 c 0,0.7411 0.404201,1.379 1,1.7246 v 0.2754 c 0,0.554 0.446,1 1,1 h 3 c 0.554,0 1,-0.446 1,-1 v -0.2754 c 0.595799,-0.3456 1,-0.9835 1,-1.7246 v -2 c 0,-1.108 -0.892007,-2 -2,-2 z m 0,2 h 3 v 3 H 5 Z m 1,6 c -0.552285,0 -1,0.4477 -1,1 0,0.5523 0.447715,1 1,1 0.552285,0 1,-0.4477 1,-1 0,-0.5523 -0.447715,-1 -1,-1 z m 8,1 c -1.10799,0 -2,0.892 -2,2 v 2 c 0,0.7411 0.4042,1.379 1,1.7246 v 0.2754 c 0,0.554 0.446,1 1,1 h 3 c 0.554,0 1,-0.446 1,-1 v -0.2754 c 0.5958,-0.3456 1,-0.9835 1,-1.7246 v -2 c 0,-1.108 -0.89201,-2 -2,-2 z m 0,2 h 3 v 3 h -3 z m -8,1 c -0.552285,0 -1,0.4477 -1,1 0,0.5523 0.447715,1 1,1 0.552285,0 1,-0.4477 1,-1 0,-0.5523 -0.447715,-1 -1,-1 z m 4,0 c -0.552285,0 -1,0.4477 -1,1 0,0.5523 0.447715,1 1,1 0.552285,0 1,-0.4477 1,-1 0,-0.5523 -0.447715,-1 -1,-1 z"
       id="rect4170" />
  </g>
</svg>
