<?xml version="1.0" encoding="UTF-8" standalone="no"?>
<!-- Created with Inkscape (http://www.inkscape.org/) -->

<svg
   xmlns:dc="http://purl.org/dc/elements/1.1/"
   xmlns:cc="http://creativecommons.org/ns#"
   xmlns:rdf="http://www.w3.org/1999/02/22-rdf-syntax-ns#"
   xmlns:svg="http://www.w3.org/2000/svg"
   xmlns="http://www.w3.org/2000/svg"
   xmlns:sodipodi="http://sodipodi.sourceforge.net/DTD/sodipodi-0.dtd"
   xmlns:inkscape="http://www.inkscape.org/namespaces/inkscape"
   width="22"
   height="22"
   viewBox="0 0 22 22"
   id="svg2"
   version="1.1"
   inkscape:version="0.92.3 (unknown)"
   sodipodi:docname="user-home.svg">
  <defs
     id="defs3051">
    <style
       type="text/css"
       id="current-color-scheme">
    .ColorScheme-Text {
    color:#4d4d4d;
    }
    </style>
  </defs>
  <sodipodi:namedview
     id="base"
     pagecolor="#ffffff"
     bordercolor="#666666"
     borderopacity="1.0"
     inkscape:pageopacity="0.0"
     inkscape:pageshadow="2"
     inkscape:zoom="55.045455"
     inkscape:cx="11"
     inkscape:cy="11"
     inkscape:document-units="px"
     inkscape:current-layer="layer1"
     showgrid="true"
     units="px"
     inkscape:showpageshadow="false"
     borderlayer="true"
     showguides="true"
     inkscape:guide-bbox="true"
     inkscape:window-width="2560"
     inkscape:window-height="1378"
     inkscape:window-x="0"
     inkscape:window-y="32"
     inkscape:window-maximized="1">
    <inkscape:grid
       type="xygrid"
       id="grid4136"
       empspacing="2" />
    <sodipodi:guide
       position="0,20"
       orientation="0,1"
       id="guide4140"
       inkscape:label="Icon Max Height"
       inkscape:color="rgb(233,30,99)"
       inkscape:locked="false" />
    <sodipodi:guide
       position="0,2"
       orientation="0,1"
       id="guide4142"
       inkscape:label="Icon Baseline"
       inkscape:color="rgb(233,30,99)"
       inkscape:locked="false" />
    <sodipodi:guide
       position="11,0"
       orientation="1,0"
       id="guide4144"
       inkscape:label="Center Vertical"
       inkscape:color="rgb(221,44,0)"
       inkscape:locked="false" />
    <sodipodi:guide
       position="15,11"
       orientation="0,1"
       id="guide4146"
       inkscape:label="Center Horizontal"
       inkscape:color="rgb(221,44,0)"
       inkscape:locked="false" />
  </sodipodi:namedview>
  <metadata
     id="metadata7">
    <rdf:RDF>
      <cc:Work
         rdf:about="">
        <dc:format>image/svg+xml</dc:format>
        <dc:type
           rdf:resource="http://purl.org/dc/dcmitype/StillImage" />
        <dc:title />
      </cc:Work>
    </rdf:RDF>
  </metadata>
  <g
     inkscape:label="Capa 1"
     inkscape:groupmode="layer"
     id="layer1"
     transform="translate(0,-1030.3622)">
    <path
       style="fill:currentColor;fill-opacity:1;stroke:none" class="ColorScheme-Text"
       d="M 10.972656 2 A 0.99924977 0.99805849 0 0 0 10.953125 2.0019531 A 0.99924977 0.99805849 0 0 0 10.935547 2.0019531 A 0.99924977 0.99805849 0 0 0 10.910156 2.0039062 A 0.99924977 0.99805849 0 0 0 10.847656 2.0117188 A 0.99924977 0.99805849 0 0 0 10.820312 2.0175781 A 0.99924977 0.99805849 0 0 0 10.742188 2.0351562 A 0.99924977 0.99805849 0 0 0 10.738281 2.0351562 A 0.99924977 0.99805849 0 0 0 10.730469 2.0371094 A 0.99924977 0.99805849 0 0 0 10.650391 2.0644531 A 0.99924977 0.99805849 0 0 0 10.617188 2.078125 A 0.99924977 0.99805849 0 0 0 10.578125 2.09375 A 0.99924977 0.99805849 0 0 0 10.496094 2.1367188 A 0.99924977 0.99805849 0 0 0 10.4375 2.1738281 L 1.4453125 8.1621094 A 0.99924977 0.99805849 0 0 0 1 8.9921875 L 1 10.988281 A 0.99924977 0.99805849 0 1 0 2.9980469 10.988281 L 2.9980469 9.5253906 L 11 4.1972656 L 19.001953 9.5253906 L 19.001953 10.988281 A 0.99924977 0.99805849 0 1 0 21 10.988281 L 21 8.9921875 A 0.99924977 0.99805849 0 0 0 20.554688 8.1621094 L 11.5625 2.1738281 A 0.99924977 0.99805849 0 0 0 11.503906 2.1367188 A 0.99924977 0.99805849 0 0 0 11.421875 2.09375 A 0.99924977 0.99805849 0 0 0 11.382812 2.078125 A 0.99924977 0.99805849 0 0 0 11.349609 2.0644531 A 0.99924977 0.99805849 0 0 0 11.269531 2.0371094 A 0.99924977 0.99805849 0 0 0 11.261719 2.0351562 A 0.99924977 0.99805849 0 0 0 11.257812 2.0351562 A 0.99924977 0.99805849 0 0 0 11.179688 2.0175781 A 0.99924977 0.99805849 0 0 0 11.152344 2.0117188 A 0.99924977 0.99805849 0 0 0 11.089844 2.0039062 A 0.99924977 0.99805849 0 0 0 11.064453 2.0019531 A 0.99924977 0.99805849 0 0 0 11.046875 2.0019531 A 0.99924977 0.99805849 0 0 0 11.027344 2 A 0.99924977 0.99805849 0 0 0 11 2 A 0.99924977 0.99805849 0 0 0 10.972656 2 z M 3 11 L 3 18 C 3 19.108 3.8919904 20 5 20 L 8 20 L 10 20 L 10 17 L 8 17 L 8 18 L 5 18 L 5 11 L 3 11 z M 17 11 L 17 18 L 14 18 L 14 17 L 12 17 L 12 20 L 14 20 L 17 20 C 18.10801 20 19 19.108 19 18 L 19 11 L 17 11 z "
       transform="translate(0,1030.3622)"
       id="rect31" />
  </g>
</svg>
