<?xml version="1.0" encoding="UTF-8" standalone="no"?>
<!-- Created with Inkscape (http://www.inkscape.org/) -->

<svg
   xmlns:dc="http://purl.org/dc/elements/1.1/"
   xmlns:cc="http://creativecommons.org/ns#"
   xmlns:rdf="http://www.w3.org/1999/02/22-rdf-syntax-ns#"
   xmlns:svg="http://www.w3.org/2000/svg"
   xmlns="http://www.w3.org/2000/svg"
   xmlns:sodipodi="http://sodipodi.sourceforge.net/DTD/sodipodi-0.dtd"
   xmlns:inkscape="http://www.inkscape.org/namespaces/inkscape"
   width="22"
   height="22"
   viewBox="0 0 22 22"
   id="svg2"
   version="1.1"
   inkscape:version="0.92.3 (unknown)"
   sodipodi:docname="user-trash-full.svg">
  <defs
     id="defs3051">
    <style
       type="text/css"
       id="current-color-scheme">
    .ColorScheme-Text {
    color:#4d4d4d;
    }
    </style>
  </defs>
  <sodipodi:namedview
     id="base"
     pagecolor="#ffffff"
     bordercolor="#666666"
     borderopacity="1.0"
     inkscape:pageopacity="0.0"
     inkscape:pageshadow="2"
     inkscape:zoom="32"
     inkscape:cx="20.44001"
     inkscape:cy="4.5716633"
     inkscape:document-units="px"
     inkscape:current-layer="layer1"
     showgrid="true"
     units="px"
     inkscape:showpageshadow="false"
     borderlayer="true"
     showguides="true"
     inkscape:guide-bbox="true"
     inkscape:window-width="2560"
     inkscape:window-height="1384"
     inkscape:window-x="0"
     inkscape:window-y="32"
     inkscape:window-maximized="1">
    <inkscape:grid
       type="xygrid"
       id="grid4136"
       empspacing="2" />
    <sodipodi:guide
       position="0,20"
       orientation="0,1"
       id="guide4140"
       inkscape:label="Icon Max Height"
       inkscape:color="rgb(233,30,99)"
       inkscape:locked="false" />
    <sodipodi:guide
       position="0,2"
       orientation="0,1"
       id="guide4142"
       inkscape:label="Icon Baseline"
       inkscape:color="rgb(233,30,99)"
       inkscape:locked="false" />
    <sodipodi:guide
       position="11,0"
       orientation="1,0"
       id="guide4144"
       inkscape:label="Center Vertical"
       inkscape:color="rgb(221,44,0)"
       inkscape:locked="false" />
    <sodipodi:guide
       position="15,11"
       orientation="0,1"
       id="guide4146"
       inkscape:label="Center Horizontal"
       inkscape:color="rgb(221,44,0)"
       inkscape:locked="false" />
  </sodipodi:namedview>
  <metadata
     id="metadata7">
    <rdf:RDF>
      <cc:Work
         rdf:about="">
        <dc:format>image/svg+xml</dc:format>
        <dc:type
           rdf:resource="http://purl.org/dc/dcmitype/StillImage" />
        <dc:title />
      </cc:Work>
    </rdf:RDF>
  </metadata>
  <g
     inkscape:label="Capa 1"
     inkscape:groupmode="layer"
     id="layer1"
     transform="translate(0,-1030.3622)">
    <path
       style="fill:currentColor;fill-opacity:1;stroke:none" class="ColorScheme-Text"
       d="M 11 2 L 11 3 L 6 3 L 6 5 L 4 5 L 4 7 L 4 17.275391 C 4.2950013 17.104291 4.6330699 17 5 17 L 6 17 L 6 7 L 16 7 L 16 13 L 16 14 L 16 15.361328 A 4 4 0 0 1 16.865234 17 L 18 17 L 18 7 L 18 5 L 17 5 L 17 2 L 11 2 z M 12 3 L 16 3 L 16 5 L 12 5 L 12 3 z M 7 4 L 11 4 L 11 5 L 7 5 L 7 4 z M 8 9 L 8 17 L 9.1328125 17 A 4 4 0 0 1 10 15.361328 L 10 9 L 8 9 z M 11 11 L 11 14.541016 A 4 4 0 0 1 13 14 L 13 11 L 11 11 z M 13 15 C 11.343146 15 10 16.3431 10 18 L 5 18 C 4.4460048 18 4 18.446 4 19 C 4 19.554 4.4460048 20 5 20 L 6 20 L 8 20 L 18 20 L 20 20 L 21 20 C 21.553995 20 22 19.554 22 19 C 22 18.446 21.553995 18 21 18 L 16 18 C 16 16.3431 14.656854 15 13 15 z M 13 17 C 13.552285 17 14 17.4477 14 18 L 12 18 C 12 17.4477 12.447715 17 13 17 z "
       transform="translate(0,1030.3622)"
       id="path850" />
  </g>
</svg>
