<?xml version="1.0" encoding="UTF-8" standalone="no"?>
<svg
   xmlns:dc="http://purl.org/dc/elements/1.1/"
   xmlns:cc="http://creativecommons.org/ns#"
   xmlns:rdf="http://www.w3.org/1999/02/22-rdf-syntax-ns#"
   xmlns:svg="http://www.w3.org/2000/svg"
   xmlns="http://www.w3.org/2000/svg"
   xmlns:sodipodi="http://sodipodi.sourceforge.net/DTD/sodipodi-0.dtd"
   xmlns:inkscape="http://www.inkscape.org/namespaces/inkscape"
   viewBox="0 0 48 48"
   id="svg2"
   version="1.1"
   inkscape:version="0.48+devel r12387"
   width="100%"
   height="100%"
   sodipodi:docname="distribute-vertical-y.svg">
  <metadata
     id="metadata18">
    <rdf:RDF>
      <cc:Work
         rdf:about="">
        <dc:format>image/svg+xml</dc:format>
        <dc:type
           rdf:resource="http://purl.org/dc/dcmitype/StillImage" />
      </cc:Work>
    </rdf:RDF>
  </metadata>
  <defs
     id="defs16" />
  <sodipodi:namedview
     pagecolor="#ffffff"
     bordercolor="#666666"
     borderopacity="1"
     objecttolerance="10"
     gridtolerance="10"
     guidetolerance="10"
     inkscape:pageopacity="0"
     inkscape:pageshadow="2"
     inkscape:window-width="1366"
     inkscape:window-height="714"
     id="namedview14"
     showgrid="false"
     inkscape:zoom="4.9166667"
     inkscape:cx="-7.6271185"
     inkscape:cy="23.593221"
     inkscape:window-x="0"
     inkscape:window-y="30"
     inkscape:window-maximized="1"
     inkscape:current-layer="svg2" />
  <g
     transform="matrix(1.1231148,0,0,1.1231148,-369.09018,-573.90364)"
     id="g4"
     style="fill:#000000">
    <path
       rx="0"
       ry="0"
       d="m -551.06,-361.461 9.906,0 0,22.922 L -551.06,-338.539 Z"
       transform="matrix(0,-1,-1,0,0,0)"
       id="path6"
       inkscape:connector-curvature="0"
       style="fill:#000000" />
    <path
       rx="0"
       ry="0"
       d="m 513.664,-361.461 9.906,0 0,22.922 L 513.664,-338.539 Z"
       transform="matrix(0,1,-1,0,0,0)"
       id="path8"
       inkscape:connector-curvature="0"
       style="fill:#000000" />
    <path
       d="m 352.9843,530.1672 -2.9687,-5.1562 -3,5.1562 1.9375,0 0,3.5938 2.0937,0 0,-3.5938 L 352.9843,530.1672 Z"
       id="path10"
       inkscape:connector-curvature="0"
       style="fill:#000000" />
    <path
       d="m 352.9843,534.5572 -2.9687,5.1562 -3,-5.1562 1.9375,0 0,-3.5938 2.0937,0 0,3.5938 L 352.9843,534.5572 Z"
       id="path12"
       inkscape:connector-curvature="0"
       style="fill:#000000" />
  </g>
</svg>
