<?xml version="1.0" encoding="UTF-8" standalone="no"?>
<!-- Created with Inkscape (http://www.inkscape.org/) -->

<svg
   xmlns:dc="http://purl.org/dc/elements/1.1/"
   xmlns:cc="http://creativecommons.org/ns#"
   xmlns:rdf="http://www.w3.org/1999/02/22-rdf-syntax-ns#"
   xmlns:svg="http://www.w3.org/2000/svg"
   xmlns="http://www.w3.org/2000/svg"
   xmlns:sodipodi="http://sodipodi.sourceforge.net/DTD/sodipodi-0.dtd"
   xmlns:inkscape="http://www.inkscape.org/namespaces/inkscape"
   version="1.0"
   width="22"
   height="22"
   id="svg4588"
   inkscape:version="0.48+devel r12387"
   sodipodi:docname="node-add.svg">
  <sodipodi:namedview
     pagecolor="#ffffff"
     bordercolor="#666666"
     borderopacity="1"
     objecttolerance="10"
     gridtolerance="10"
     guidetolerance="10"
     inkscape:pageopacity="0"
     inkscape:pageshadow="2"
     inkscape:window-width="1366"
     inkscape:window-height="714"
     id="namedview37"
     showgrid="false"
     inkscape:zoom="15.170654"
     inkscape:cx="14.020153"
     inkscape:cy="17.762733"
     inkscape:window-x="0"
     inkscape:window-y="30"
     inkscape:window-maximized="1"
     inkscape:current-layer="svg4588" />
  <defs
     id="defs4590" />
  <metadata
     id="metadata4593">
    <rdf:RDF>
      <cc:Work
         rdf:about="">
        <dc:format>image/svg+xml</dc:format>
        <dc:type
           rdf:resource="http://purl.org/dc/dcmitype/StillImage" />
        <dc:title />
      </cc:Work>
    </rdf:RDF>
  </metadata>
  <path
     style="fill:#000000;fill-opacity:1;stroke:none"
     d="M 0 15.25 L 0 18.25 L 8.5 18.25 L 8.5 15.25 L 0 15.25 z M 13.5 15.25 L 13.5 18.25 L 22 18.25 L 22 15.25 L 13.5 15.25 z "
     id="path5740" />
  <path
     style="fill:#000000;fill-opacity:1;stroke:none"
     d="m 7.5,13.25 0,7 7,0 0,-7 L 7.5,13.25 Z"
     id="path4033" />
  <path
     style="fill:#ffffff;fill-opacity:1;stroke:none"
     d="m 8.5,14.25 5,0 0,5 -5,0 L 8.5,14.25 Z"
     id="path5746" />
  <path
     style="fill:#000000;fill-opacity:1;stroke:none"
     id="rect1946"
     inkscape:connector-curvature="0"
     d="m 9.5,2.7500445 0,3 -3,0 0,3 3,0 0,3.0000005 3,0 0,-3.0000005 3,0 0,-3 -3,0 0,-3 L 9.5,2.7500445 Z" />
</svg>
