<?xml version="1.0" encoding="UTF-8" standalone="no"?>
<!-- Created with Inkscape (http://www.inkscape.org/) -->

<svg
   xmlns:dc="http://purl.org/dc/elements/1.1/"
   xmlns:cc="http://creativecommons.org/ns#"
   xmlns:rdf="http://www.w3.org/1999/02/22-rdf-syntax-ns#"
   xmlns:svg="http://www.w3.org/2000/svg"
   xmlns="http://www.w3.org/2000/svg"
   xmlns:sodipodi="http://sodipodi.sourceforge.net/DTD/sodipodi-0.dtd"
   xmlns:inkscape="http://www.inkscape.org/namespaces/inkscape"
   version="1.0"
   width="22"
   height="22"
   id="svg4876"
   inkscape:version="0.48+devel r12387"
   sodipodi:docname="node-delete-segment.svg">
  <sodipodi:namedview
     pagecolor="#ffffff"
     bordercolor="#666666"
     borderopacity="1"
     objecttolerance="10"
     gridtolerance="10"
     guidetolerance="10"
     inkscape:pageopacity="0"
     inkscape:pageshadow="2"
     inkscape:window-width="1366"
     inkscape:window-height="714"
     id="namedview74"
     showgrid="false"
     inkscape:zoom="30.341309"
     inkscape:cx="13.11289"
     inkscape:cy="17.397352"
     inkscape:window-x="0"
     inkscape:window-y="30"
     inkscape:window-maximized="1"
     inkscape:current-layer="svg4876" />
  <defs
     id="defs4878" />
  <metadata
     id="metadata4881">
    <rdf:RDF>
      <cc:Work
         rdf:about="">
        <dc:format>image/svg+xml</dc:format>
        <dc:type
           rdf:resource="http://purl.org/dc/dcmitype/StillImage" />
        <dc:title />
      </cc:Work>
    </rdf:RDF>
  </metadata>
  <path
     d="m 0.91666392,4.583553 20.16666708,0 0,-2.750128 -20.16666708,0 L 0.91666392,4.583553 Z"
     inkscape:connector-curvature="0"
     id="path17508"
     style="fill:#000000;fill-opacity:1;stroke:none" />
  <rect
     style="opacity:0;fill:#ffffff;fill-opacity:1;stroke:none"
     id="rect6722"
     y="-22"
     x="1.2212453e-15"
     height="22"
     width="22"
     transform="scale(1,-1)" />
  <path
     style="fill:#000000;fill-opacity:1;stroke:none"
     d="m 0.90625,20.15625 0,-2.75 6.1875,0 0,2.75 L 0.90625,20.15625 z m 14,0 0,-2.75 6.1875,0 0,2.75 L 14.90625,20.15625 Z"
     id="path17514"
     inkscape:connector-curvature="0" />
  <path
     style="fill:#000000;fill-opacity:1;stroke:none"
     id="path17520"
     inkscape:connector-curvature="0"
     d="m 4.124993,20.624992 4.5833344,0 0,-4.583253 -4.5833344,0 L 4.124993,20.624992 Z" />
  <path
     style="fill:#1a1a1a;fill-opacity:1;stroke:none"
     id="path17526"
     inkscape:connector-curvature="0"
     d="m 13.291646,20.624984 4.583335,0 0,-4.583253 -4.583335,0 L 13.291646,20.624984 Z" />
  <path
     d="m 4.124993,5.958325 4.5833344,0 0,-4.583253 -4.5833344,0 L 4.124993,5.958325 Z"
     inkscape:connector-curvature="0"
     id="path17540"
     style="fill:#000000;fill-opacity:1;stroke:none" />
  <path
     d="m 13.291646,5.958317 4.583335,0 0,-4.583253 -4.583335,0 L 13.291646,5.958317 Z"
     inkscape:connector-curvature="0"
     id="path17546"
     style="fill:#1a1a1a;fill-opacity:1;stroke:none" />
  <path
     d="m 8.7088894,7.79169 0,2.750862 -1.8339003,0 4.1250029,4.586737 4.125003,-4.586737 -1.826784,0 0,-2.750862 L 8.7088894,7.79169 Z"
     inkscape:connector-curvature="0"
     id="path5693"
     style="color:#000000;fill:#000000;fill-opacity:1;fill-rule:evenodd;stroke:none;stroke-width:0.91666543;marker:none;visibility:visible;display:inline;overflow:visible" />
  <path
     style="fill:#ffffff;fill-opacity:1;stroke:none"
     id="path4149"
     inkscape:connector-curvature="0"
     d="m 5.124993,4.958343 2.5833344,0 0,-2.583289 -2.5833344,0 L 5.124993,4.958343 Z" />
  <path
     style="fill:#ffffff;fill-opacity:1;stroke:none"
     id="path4151"
     inkscape:connector-curvature="0"
     d="m 14.291646,4.958335 2.583335,0 0,-2.583289 -2.583335,0 L 14.291646,4.958335 Z" />
  <path
     d="m 5.124993,19.62501 2.5833344,0 0,-2.583289 -2.5833344,0 L 5.124993,19.62501 Z"
     inkscape:connector-curvature="0"
     id="path4153"
     style="fill:#ffffff;fill-opacity:1;stroke:none" />
  <path
     d="m 14.291646,19.625002 2.583335,0 0,-2.583289 -2.583335,0 L 14.291646,19.625002 Z"
     inkscape:connector-curvature="0"
     id="path4155"
     style="fill:#ffffff;fill-opacity:1;stroke:none" />
</svg>
