<?xml version="1.0" encoding="UTF-8" standalone="no"?>
<!-- Created with Inkscape (http://www.inkscape.org/) -->

<svg
   xmlns:dc="http://purl.org/dc/elements/1.1/"
   xmlns:cc="http://creativecommons.org/ns#"
   xmlns:rdf="http://www.w3.org/1999/02/22-rdf-syntax-ns#"
   xmlns:svg="http://www.w3.org/2000/svg"
   xmlns="http://www.w3.org/2000/svg"
   xmlns:sodipodi="http://sodipodi.sourceforge.net/DTD/sodipodi-0.dtd"
   xmlns:inkscape="http://www.inkscape.org/namespaces/inkscape"
   version="1.0"
   width="22"
   height="22"
   id="svg4804"
   inkscape:version="0.48+devel r12387"
   sodipodi:docname="node-join.svg">
  <sodipodi:namedview
     pagecolor="#ffffff"
     bordercolor="#666666"
     borderopacity="1"
     objecttolerance="10"
     gridtolerance="10"
     guidetolerance="10"
     inkscape:pageopacity="0"
     inkscape:pageshadow="2"
     inkscape:window-width="1366"
     inkscape:window-height="714"
     id="namedview70"
     showgrid="false"
     inkscape:zoom="42.909091"
     inkscape:cx="14.739424"
     inkscape:cy="16.187053"
     inkscape:window-x="0"
     inkscape:window-y="30"
     inkscape:window-maximized="1"
     inkscape:current-layer="svg4804" />
  <defs
     id="defs4806" />
  <metadata
     id="metadata4809">
    <rdf:RDF>
      <cc:Work
         rdf:about="">
        <dc:format>image/svg+xml</dc:format>
        <dc:type
           rdf:resource="http://purl.org/dc/dcmitype/StillImage" />
        <dc:title />
      </cc:Work>
    </rdf:RDF>
  </metadata>
  <path
     style="fill:#000000;fill-opacity:1;stroke:none"
     d="m 0.90625,4.5936714 0,-2.75 7.15625,0 0,2.75 L 0.90625,4.5936714 z m 13.03125,0 0,-2.75 7.15625,0 0,2.75 L 13.9375,4.5936714 Z"
     id="path6703"
     inkscape:connector-curvature="0" />
  <rect
     width="22"
     height="21.999887"
     x="1.2212453e-15"
     y="-21.999905"
     id="rect6753"
     style="opacity:0.6;fill:#babdb6;fill-opacity:0;stroke:none"
     transform="scale(1,-1)" />
  <path
     style="fill:#000000;fill-opacity:1;stroke:none"
     id="path6707"
     inkscape:connector-curvature="0"
     d="m 4.124993,5.9583414 4.5833344,0 0,-4.583253 -4.5833344,0 L 4.124993,5.9583414 Z" />
  <path
     style="fill:#000000;fill-opacity:1;stroke:none"
     id="path7622"
     inkscape:connector-curvature="0"
     d="m 13.291646,5.9583334 4.583335,0 0,-4.583253 -4.583335,0 L 13.291646,5.9583334 Z" />
  <path
     style="color:#000000;fill:#000000;fill-opacity:1;fill-rule:evenodd;stroke:none;stroke-width:0.91666543;marker:none;visibility:visible;display:inline;overflow:visible"
     id="path7658"
     inkscape:connector-curvature="0"
     d="m 8.7088894,7.7917054 0,2.7508616 -1.8339003,0 4.1250029,4.586739 4.125003,-4.586739 -1.826784,0 0,-2.7508616 L 8.7088894,7.7917054 Z" />
  <path
     d="m 0.91666667,20.166756 20.16666633,0 0,-2.75 -20.16666633,0 L 0.91666667,20.166756 Z"
     inkscape:connector-curvature="0"
     id="path5664"
     style="fill:#000000;fill-opacity:1;stroke:none" />
  <path
     d="m 8.708335,20.625008 4.583338,0 0,-4.583353 -4.583338,0 L 8.708335,20.625008 Z"
     inkscape:connector-curvature="0"
     id="path7692"
     style="fill:#000000;fill-opacity:1;stroke:none" />
  <path
     style="fill:#ffffff;fill-opacity:1;stroke:none"
     id="path4161"
     inkscape:connector-curvature="0"
     d="m 9.7083317,19.625008 2.5833443,0 0,-2.583353 -2.5833443,0 L 9.7083317,19.625008 Z" />
  <path
     d="m 5.124993,4.9583594 2.5833344,0 0,-2.583289 -2.5833344,0 L 5.124993,4.9583594 Z"
     inkscape:connector-curvature="0"
     id="path4163"
     style="fill:#ffffff;fill-opacity:1;stroke:none" />
  <path
     d="m 14.291646,4.9583514 2.583335,0 0,-2.583289 -2.583335,0 L 14.291646,4.9583514 Z"
     inkscape:connector-curvature="0"
     id="path4165"
     style="fill:#ffffff;fill-opacity:1;stroke:none" />
</svg>
