<?xml version="1.0" encoding="UTF-8" standalone="no"?>
<!-- Created with Inkscape (http://www.inkscape.org/) -->

<svg
   xmlns:dc="http://purl.org/dc/elements/1.1/"
   xmlns:cc="http://creativecommons.org/ns#"
   xmlns:rdf="http://www.w3.org/1999/02/22-rdf-syntax-ns#"
   xmlns:svg="http://www.w3.org/2000/svg"
   xmlns="http://www.w3.org/2000/svg"
   xmlns:sodipodi="http://sodipodi.sourceforge.net/DTD/sodipodi-0.dtd"
   xmlns:inkscape="http://www.inkscape.org/namespaces/inkscape"
   version="1.0"
   width="22"
   height="22"
   id="svg3365"
   inkscape:version="0.48+devel r12387"
   sodipodi:docname="object-inverse.svg">
  <sodipodi:namedview
     pagecolor="#ffffff"
     bordercolor="#666666"
     borderopacity="1"
     objecttolerance="10"
     gridtolerance="10"
     guidetolerance="10"
     inkscape:pageopacity="0"
     inkscape:pageshadow="2"
     inkscape:window-width="1366"
     inkscape:window-height="714"
     id="namedview30"
     showgrid="false"
     inkscape:zoom="21.454545"
     inkscape:cx="18.160738"
     inkscape:cy="4.5906491"
     inkscape:window-x="0"
     inkscape:window-y="30"
     inkscape:window-maximized="1"
     inkscape:current-layer="svg3365" />
  <metadata
     id="metadata37">
    <rdf:RDF>
      <cc:Work
         rdf:about="">
        <dc:format>image/svg+xml</dc:format>
        <dc:type
           rdf:resource="http://purl.org/dc/dcmitype/StillImage" />
        <dc:title />
      </cc:Work>
    </rdf:RDF>
  </metadata>
  <defs
     id="defs3367" />
  <path
     d="m 11.002392,0.50174288 c -5.7925533,0 -10.49821734,4.70566162 -10.49821734,10.49821412 0,5.792554 4.70566404,10.498219 10.49821734,10.498216 5.79255,0 10.498219,-4.705662 10.498213,-10.498216 0,-5.7925525 -4.705663,-10.49821412 -10.498213,-10.49821412 z"
     inkscape:connector-curvature="0"
     id="path2555"
     style="fill:#000000;fill-opacity:1;stroke:none;stroke-width:1.00365424;stroke-linecap:round;stroke-linejoin:round;stroke-miterlimit:4;stroke-opacity:1;stroke-dasharray:none;stroke-dashoffset:0" />
  <path
     d="m 10.50239,21.499957 a 9.9999997,10.5 0 1 1 10e-7,-20.99999952 l -10e-7,10.49999952 z"
     inkscape:connector-curvature="0"
     id="path3314"
     style="fill:#000000;fill-opacity:1;fill-rule:nonzero;stroke:none;stroke-width:1;stroke-linecap:butt;stroke-linejoin:miter;stroke-miterlimit:4;stroke-opacity:1;stroke-dasharray:none;stroke-dashoffset:0;marker:none;visibility:visible;display:inline;overflow:visible;enable-background:accumulate" />
  <path
     style="fill:#f2f2f2;fill-opacity:1;stroke:none"
     d="M 10.59375 2.5 L 10.59375 11 L 10.59375 19.5 C 10.728098 19.506328 10.864102 19.5 11 19.5 C 15.689217 19.5 19.500005 15.689219 19.5 11 C 19.5 6.3107816 15.689217 2.5 11 2.5 C 10.864102 2.5 10.728098 2.4936724 10.59375 2.5 z "
     id="path4054" />
  <path
     style="fill:#000000;fill-opacity:1;fill-rule:nonzero;stroke:none;stroke-width:1;marker:none;visibility:visible;display:inline;overflow:visible;enable-background:accumulate"
     id="path4056"
     inkscape:connector-curvature="0"
     d="m 10.59727,19.499974 a 8.0952539,8.5000168 0 1 1 10e-7,-17.0000333 L 10.59727,10.999957 Z" />
</svg>
